<?xml version="1.0" encoding="utf-8"?>
<!-- Generator: Adobe Illustrator 19.0.0, SVG Export Plug-In . SVG Version: 6.00 Build 0)  -->
<svg version="1.1" id="Layer_1" xmlns="http://www.w3.org/2000/svg" xmlns:xlink="http://www.w3.org/1999/xlink" x="0px" y="0px"
	 viewBox="-114 142.3 383 508.7" style="enable-background:new -114 142.3 383 508.7;" xml:space="preserve">
<style type="text/css">
	.st0{fill:#9B3710;}
	.st1{fill:#842610;}
	.st2{fill:#F0BCA6;}
	.st3{fill:#E2A58A;}
	.st4{fill:#E27A84;}
	.st5{clip-path:url(#SVGID_2_);fill:#9E4653;}
	.st6{fill:#F8A814;}
	.st7{fill:#F8B53C;}
	.st8{fill:#F9CD45;}
	.st9{fill:#934161;}
	.st10{fill:#F4F0EF;}
	.st11{fill:#E6B09A;}
	.st12{fill:#868686;}
	.st13{fill:#4C350C;}
	.st14{fill:#825308;}
	.st15{clip-path:url(#SVGID_4_);fill:#9E4653;}
	.st16{fill:#6B260B;}
	.st17{fill:#B2A1A1;}
	.st18{fill:#D1C6C6;}
	.st19{clip-path:url(#SVGID_6_);fill:#9E4653;}
	.st20{fill:#C2B4B4;}
</style>
<path class="st0" d="M-3963.4,1396.9c-28.6-18.6-66.5-28.7-106.7-28.7s-78,10.2-106.7,28.7c-28.6,18.6-44.4,43.1-44.4,69.1v139.8
	c0,2.4,3.1,4.4,6.8,4.4h288.3c3.8,0,6.8-2,6.8-4.4V1466C-3919.2,1440-3934.9,1415.5-3963.4,1396.9z"/>
<ellipse class="st1" cx="-4184.8" cy="1607.2" rx="38.9" ry="33.2"/>
<ellipse class="st1" cx="-3955.6" cy="1606.3" rx="38.9" ry="33.2"/>
<path class="st2" d="M-4181.8,1518.1c-0.1,0-0.1,0-0.2,0c-25.4,0.1-46.1,20.8-46,46.3c0,12.3,4.9,23.9,13.6,32.6
	s20.3,13.4,32.5,13.4h0.2c25.4-0.1,46.1-20.8,46-46.3C-4135.8,1538.6-4156.5,1518.1-4181.8,1518.1z"/>
<path class="st2" d="M-3899.7,1805.1c-0.1-39.6-15.8-76.9-44-104.9s-65.4-43.4-104.7-43.4c-0.2,0-0.3,0-0.5,0l-48.7,0.2
	c-39.6,0.1-76.9,15.8-104.9,44c-28.1,28.2-43.5,65.6-43.4,105.2l0.1,18.6c0,3.7,3.1,6.8,6.8,6.8h332.5c1.8,0,3.5-0.7,4.8-2
	s2-3,2-4.8V1805.1z"/>
<path class="st3" d="M-3899.7,1805.1c-0.1-39.6-15.8-76.9-44-104.9s-65.4-43.4-104.7-43.4c-0.2,0-0.3,0-0.5,0l-16.7,0.1
	c37.9,1,73.7,16.2,100.9,43.3c28.2,28.1,43.9,65.4,44,104.9l0.1,19.6c0,1.8-0.7,3.5-2,4.8s-3,2-4.8,2h20.9c1.8,0,3.5-0.7,4.8-2
	s2-3,2-4.8V1805.1z"/>
<g>
	<g>
		<path id="XMLID_2_" class="st4" d="M-3899.8,1807.9c-0.1-39.3-15.8-76.3-44-104.2c-8.4-8.3-17.7-15.5-27.5-21.5
			c-7,27.3-36.5,49.3-75,56.3c-8.6,1.6-17.6,2.4-26.9,2.4c-9.2,0-18.1-0.8-26.7-2.4c-38.3-7-67.9-28.8-75.1-55.9
			c-10,6.1-19.1,13.4-27.6,21.8c-28.1,28.1-43.5,65.2-43.4,104.5l0.1,21.3c0.1,2.4,1.4,4.6,3.3,5.9h337.3c1.3-0.3,2.4-1,3.4-1.9
			c1.4-1.4,2.1-3.2,2.1-5.1V1807.9z"/>
	</g>
	<g>
		<g>
			<g>
				<g>
					<g>
						<g>
							<g>
								<g>
									<defs>
										<path id="SVGID_1_" d="M-3899.8,1807.9c-0.1-39.3-15.8-76.3-44-104.2c-8.4-8.3-17.7-15.5-27.5-21.5
											c-7,27.3-36.5,49.3-75,56.3c-8.6,1.6-17.6,2.4-26.9,2.4c-9.2,0-18.1-0.8-26.7-2.4c-38.3-7-67.9-28.8-75.1-55.9
											c-10,6.1-19.1,13.4-27.6,21.8c-28.1,28.1-43.5,65.2-43.4,104.5l0.1,21.3c0.1,2.4,1.4,4.6,3.3,5.9h337.3
											c1.3-0.3,2.4-1,3.4-1.9c1.4-1.4,2.1-3.2,2.1-5.1V1807.9z"/>
									</defs>
									<clipPath id="SVGID_2_">
										<use xlink:href="#SVGID_1_"  style="overflow:visible;"/>
									</clipPath>
									<path class="st5" d="M-3898.8,1808.5c-0.1-39.3-15.8-76.3-44-104.2c-28.2-27.8-65.4-43.1-104.7-43.1c-0.2,0-0.3,0-0.5,0
										l-17.6,0.1c37.9,1,73.6,16.1,100.9,43c28.2,27.9,43.8,64.9,44,104.2l0.1,21.3c0,1.9-0.7,3.7-2.1,5.1
										c-0.9,0.9-2.1,1.6-3.4,1.9h22c1.3-0.3,2.4-1,3.4-1.9c1.4-1.4,2.1-3.2,2.1-5.1L-3898.8,1808.5z"/>
								</g>
							</g>
						</g>
					</g>
				</g>
			</g>
		</g>
	</g>
</g>
<g>
	<path class="st6" d="M-4100,1819.4c-0.1-0.3-0.1-0.5-0.1-0.7c0.1-1,1.1-1.7,2.1-1.6c10,0.5,20.5-0.7,30.9-3.6
		c8.4-2.4,16.8-5.7,25.1-10.1c14-7.5,22.8-15.3,22.9-15.4c0.8-0.7,2-0.7,2.7-0.1s0.6,1.8-0.1,2.4c-0.4,0.4-9.2,8.2-23.7,15.9
		c-8.5,4.5-17.3,8.1-25.9,10.5c-10.9,3-21.7,4.3-32.1,3.7C-4099.2,1820.5-4099.8,1820.1-4100,1819.4z"/>
	<path class="st7" d="M-4014.5,1807.1c0.8-0.4,1.2-1.2,1.1-2c-0.1-0.3-1.4-6.5-6.5-8.6c-2.4-1-4.7-1.2-6.6-0.7
		c-1.9,0.5-3.4,1.7-4.3,3.4c-0.8,1.5-0.9,3.1-0.5,4.5c0.1,0.2,0.2,0.4,0.3,0.6c0.8,1.6,2.4,3,4.9,3.9
		C-4021.1,1810.4-4014.8,1807.3-4014.5,1807.1z"/>
	<path class="st8" d="M-4026.1,1797.7c1.4-1.4,2.3-3.3,2.6-5.9c0.6-5.3-4.3-9.5-4.5-9.7c-0.6-0.5-1.5-0.5-2.4-0.1
		c-0.3,0.2-6.2,4-6.9,9.1c-0.2,1.8-0.1,3.3,0.4,4.6c0.2,0.5,0.5,1,0.7,1.4c1.1,1.4,2.7,2.4,4.7,2.4
		C-4029.4,1799.8-4027.5,1799.1-4026.1,1797.7z"/>
	<path class="st8" d="M-4029.7,1815.8c0.8-0.4,1.2-1.2,1.1-2c-0.1-0.3-1.4-6.5-6.5-8.6c-2.4-1-4.7-1.2-6.6-0.7
		c-1.9,0.5-3.4,1.7-4.3,3.4c-0.8,1.5-0.9,3.1-0.5,4.5c0.1,0.2,0.2,0.4,0.3,0.6c0.8,1.6,2.4,3,4.9,3.9
		C-4036.3,1819.1-4030,1816-4029.7,1815.8z"/>
	<path class="st7" d="M-4041.3,1806.5c1.4-1.4,2.3-3.3,2.6-5.9c0.6-5.3-4.3-9.5-4.5-9.7c-0.6-0.5-1.5-0.5-2.4-0.1
		c-0.3,0.2-6.2,4-6.9,9.1c-0.2,1.8-0.1,3.3,0.4,4.6c0.2,0.5,0.5,1,0.7,1.4c1.1,1.4,2.7,2.4,4.7,2.4
		C-4044.6,1808.5-4042.7,1807.9-4041.3,1806.5z"/>
	<path class="st7" d="M-4047.7,1822.5c0-0.3-0.2-6.8-4.7-9.6c-2.2-1.4-4.3-2-6.3-1.8s-3.7,1.2-4.9,2.7s-1.6,3.3-1.1,5.1
		c0,0.2,0.1,0.3,0.1,0.5c0.5,1.6,1.9,3.1,3.9,4.3c4.5,2.9,11.3,0.8,11.7,0.7C-4048.3,1824.1-4047.7,1823.3-4047.7,1822.5z"/>
	<g>
		<path class="st8" d="M-4058.6,1813.1c1.6-1.2,2.9-3,3.7-5.4c1.6-5.2-2.4-10.1-2.5-10.4c-0.5-0.6-1.4-0.8-2.3-0.5
			c-0.3,0.1-6.8,2.9-8.4,8.1c-0.7,2.3-0.8,4.3-0.2,5.8c0.1,0.1,0.1,0.3,0.2,0.4c0.7,1.6,2.2,2.7,4.2,3.2
			C-4062.1,1814.6-4060.2,1814.2-4058.6,1813.1z"/>
		<path class="st8" d="M-4068.8,1829.9c0.1-0.3,1.2-6.8-2.7-10.3c-1.8-1.7-3.8-2.7-5.8-2.8c-1.9-0.2-3.8,0.5-5.3,1.9
			c-1.4,1.4-2.3,3.1-2.1,4.9c0,0.5,0.2,1.1,0.4,1.6c0.5,1.3,1.4,2.5,2.6,3.7c3.9,3.6,10.9,2.6,11.1,2.6
			C-4069.7,1831.4-4069,1830.7-4068.8,1829.9z"/>
		<path class="st8" d="M-4077.6,1818.7c1.8-0.9,3.3-2.4,4.6-4.8c2.6-4.8-0.4-10.5-0.5-10.8c-0.4-0.7-1.3-1.1-2.1-0.8
			c-0.3,0.1-7.2,1.7-9.8,6.6c-1.3,2.4-1.6,4.4-1.3,6.2c0.1,0.2,0.1,0.5,0.2,0.6c0.5,1.4,1.6,2.5,3.3,3.2
			C-4081.3,1819.6-4079.4,1819.5-4077.6,1818.7z"/>
		<path class="st8" d="M-4007.4,1788.6c4.2-3.8,3.5-10.2,3.5-10.5c-0.1-0.8-0.7-1.4-1.6-1.4c-0.3,0-7.2-0.5-11.4,3.3
			c-2,1.8-3.2,3.7-3.4,5.5c-0.2,0.9-0.1,1.8,0.3,2.6c0.3,0.8,0.8,1.5,1.4,2.2c1.4,1.3,3.3,1.8,5.2,1.5
			C-4011.4,1791.5-4009.4,1790.4-4007.4,1788.6z"/>
	</g>
</g>
<path class="st9" d="M-4115.6,1662.2c1.4,1.8,1.8,4.3,1.3,6.4c-3.1,12.1-4.6,24.6-4.5,37.1c0.1,24.5,12.1,52.3,33,76.4
	c20.8,24,47.3,40.7,72.7,46.1c3.4,0.7,5.8,3.9,5.8,7.4h21.8c0-3.3-2.1-6.2-5.1-7.2c-0.2-0.1-0.5-0.1-0.6-0.2
	c-25.3-5.3-51.9-22-72.7-46.1s-32.9-52-33-76.4c0-12.6,1.5-25.1,4.5-37.1c0.5-2.3,0.1-4.6-1.3-6.4c-1.4-1.8-3.4-2.9-5.6-2.9h-3.3
	c-3.6,0-7.2,0.2-10.7,0.5c-0.2,0-0.3,0-0.5,0c-0.5,0-1,0.1-1.4,0.1c-0.9,0.1-1.7,0.2-2.6,0.3
	C-4117.1,1660.6-4116.3,1661.4-4115.6,1662.2z"/>
<path class="st10" d="M-4013.3,1826.7c-25.4-5.3-51.9-22-72.7-46.1c-20.8-24.1-32.9-52-33-76.4c-0.1-12.5,1.4-25,4.5-37.1
	c0.5-2.2,0.1-4.6-1.3-6.4c-0.6-0.8-1.4-1.5-2.4-2c0.9-0.1,1.7-0.2,2.6-0.3c-34.8,3.2-67.1,18.9-92.2,45.1
	c-27.9,29.4-43.3,68.1-43.1,109.3l0.1,21.5h243.1C-4007.4,1830.6-4009.9,1827.4-4013.3,1826.7z"/>
<path class="st2" d="M-3962.8,1517.3c-0.1,0-0.1,0-0.2,0c-25.4,0.1-46.1,20.8-46,46.3c0,12.3,4.9,23.9,13.6,32.6
	s20.3,13.4,32.5,13.4h0.2c25.4-0.1,46.1-20.8,46-46.3C-3916.8,1537.9-3937.5,1517.3-3962.8,1517.3z"/>
<path class="st2" d="M-3966.4,1500.5c-0.1-22.5-16.7-40.7-36.9-40.7h-135.4c-9.9,0-19.2,4.3-26.2,12c-7,7.8-10.8,18-10.8,29
	l0.2,79.5c0.2,63.7,47.1,115.4,104.7,115.4h0.4c57.7-0.2,104.5-52.2,104.3-116.1L-3966.4,1500.5z"/>
<path class="st11" d="M-3966.3,1500.5c-0.1-22.5-15.6-40.7-34.6-40.7h-16.9c19,0,34.6,18.3,34.6,40.7l0.2,79
	c0.2,60.6-39.4,110.5-89.6,115.7c2.8,0.3,5.6,0.5,8.4,0.5h0.3c54-0.2,97.9-52.2,97.8-116.1L-3966.3,1500.5z"/>
<ellipse transform="matrix(-0.9333 0.3592 -0.3592 -0.9333 -7572.4917 4474.4956)" class="st1" cx="-4201.9" cy="1533.8" rx="28.2" ry="41.5"/>
<ellipse transform="matrix(-0.9333 0.3592 -0.3592 -0.9333 -7584.0171 4468.4375)" class="st0" cx="-4207.1" cy="1529.7" rx="28.2" ry="41.5"/>
<path class="st3" d="M-4071.1,1648.8c-8.9,0-17.4-3.3-23.9-9.3c-2.8-2.5-3-6.9-0.5-9.6c2.5-2.8,6.9-3,9.6-0.5
	c4,3.7,9.2,5.7,14.7,5.7h0.1c5.5,0,10.7-2.1,14.8-5.8c2.8-2.5,7.1-2.4,9.6,0.4s2.4,7.1-0.4,9.6
	C-4053.6,1645.3-4062.1,1648.7-4071.1,1648.8C-4071,1648.8-4071,1648.8-4071.1,1648.8z"/>
<path class="st0" d="M-4111.7,1537.7c8.9,0,17.4,1.6,23.9,4.6c2.8,1.3,3,3.4,0.5,4.8s-6.9,1.4-9.6,0.2c-4-1.8-9.2-2.9-14.7-2.9h-0.1
	c-5.5,0-10.7,1-14.8,2.9c-2.8,1.3-7.1,1.2-9.6-0.2s-2.4-3.5,0.4-4.8C-4129.2,1539.3-4120.7,1537.6-4111.7,1537.7
	C-4111.8,1537.7-4111.7,1537.7-4111.7,1537.7z"/>
<ellipse class="st1" cx="-4176" cy="1491.4" rx="46.2" ry="37.8"/>
<path class="st0" d="M-4026.9,1537.7c8.9,0,17.4,1.6,23.9,4.6c2.8,1.3,3,3.4,0.5,4.8s-6.9,1.4-9.6,0.2c-4-1.8-9.2-2.9-14.7-2.9h-0.1
	c-5.5,0-10.7,1-14.8,2.9c-2.8,1.3-7.1,1.2-9.6-0.2c-2.5-1.4-2.4-3.5,0.4-4.8C-4044.4,1539.3-4035.9,1537.6-4026.9,1537.7
	L-4026.9,1537.7z"/>
<path class="st12" d="M-4099.4,1573.2c0-6.3-5.2-11.4-11.5-11.4s-11.4,5.2-11.4,11.5s5.2,11.4,11.5,11.4
	S-4099.4,1579.5-4099.4,1573.2z"/>
<path class="st12" d="M-4018.4,1572.9c0-6.3-5.2-11.5-11.5-11.4c-6.3,0-11.5,5.2-11.4,11.5c0,6.3,5.2,11.5,11.5,11.4
	C-4023.6,1584.4-4018.4,1579.3-4018.4,1572.9z"/>
<ellipse transform="matrix(-0.3592 0.9333 -0.9333 -0.3592 -3940.1509 5773.2144)" class="st1" cx="-3952.1" cy="1533.9" rx="41.5" ry="28.2"/>
<ellipse transform="matrix(-0.3592 0.9333 -0.9333 -0.3592 -3943.3306 5761.2036)" class="st0" cx="-3949.6" cy="1526.8" rx="41.5" ry="28.2"/>
<ellipse class="st1" cx="-3972.2" cy="1485.3" rx="46.2" ry="37.8"/>
<ellipse class="st0" cx="-3974.1" cy="1467.8" rx="47.3" ry="47.3"/>
<ellipse class="st1" cx="-3995.8" cy="1459.7" rx="46.2" ry="37.8"/>
<ellipse class="st0" cx="-3995.8" cy="1452.5" rx="45.4" ry="32.9"/>
<ellipse class="st0" cx="-4180.5" cy="1478.8" rx="44.4" ry="44.4"/>
<ellipse class="st1" cx="-4147.5" cy="1454" rx="46.2" ry="37.8"/>
<ellipse class="st1" cx="-4076.2" cy="1438.5" rx="71.3" ry="54.3"/>
<ellipse class="st0" cx="-4070.1" cy="1426.1" rx="74.3" ry="53.6"/>
<ellipse class="st0" cx="-4147.5" cy="1446.8" rx="45.4" ry="32.9"/>
<g>
	<path class="st6" d="M-4010.2,1777.3c-0.2-0.1-0.4-0.3-0.5-0.5c-0.5-0.8-0.3-2,0.5-2.6c7.9-6.2,14.9-13.9,20.9-22.9
		c4.8-7.2,9-15.3,12.3-24.1c5.7-14.8,7.2-26.5,7.2-26.6c0.1-1,1-1.8,2-1.8s1.6,0.9,1.5,2c-0.1,0.5-1.5,12.2-7.4,27.6
		c-3.4,9.1-7.8,17.4-12.7,24.9c-6.2,9.4-13.6,17.5-21.8,23.9C-4008.8,1777.6-4009.5,1777.6-4010.2,1777.3z"/>
	<path class="st7" d="M-3953.7,1712c0.4-0.8,0.1-1.7-0.5-2.2c-0.2-0.2-5.4-4-10.6-2.2c-2.4,0.8-4.3,2.2-5.4,3.8s-1.5,3.5-1.1,5.4
		c0.4,1.6,1.4,3,2.6,3.7c0.2,0.1,0.4,0.2,0.6,0.3c1.7,0.7,3.8,0.6,6.3-0.3C-3956.6,1718.8-3953.8,1712.3-3953.7,1712z"/>
	<path class="st8" d="M-3968.5,1712.5c0.2-2-0.5-4.1-1.9-6.2c-3-4.3-9.5-4.3-9.8-4.3c-0.8,0-1.5,0.6-1.8,1.4
		c-0.1,0.3-2.1,7.1,0.8,11.4c1,1.4,2.1,2.5,3.3,3.2c0.5,0.3,1,0.5,1.5,0.6c1.7,0.5,3.6,0,5.2-1.3
		C-3969.7,1716.1-3968.7,1714.4-3968.5,1712.5z"/>
	<path class="st8" d="M-3959.4,1728.5c0.4-0.8,0.1-1.7-0.5-2.2c-0.2-0.2-5.4-4-10.6-2.2c-2.4,0.8-4.3,2.2-5.4,3.8s-1.5,3.5-1.1,5.4
		c0.4,1.6,1.4,3,2.6,3.7c0.2,0.1,0.4,0.2,0.6,0.3c1.7,0.7,3.8,0.6,6.3-0.3C-3962.3,1735.3-3959.5,1728.8-3959.4,1728.5z"/>
	<path class="st7" d="M-3974.3,1729c0.2-2-0.5-4.1-1.9-6.2c-3-4.3-9.5-4.3-9.8-4.3c-0.8,0-1.5,0.6-1.8,1.4
		c-0.1,0.3-2.1,7.1,0.8,11.4c1,1.4,2.1,2.5,3.3,3.2c0.5,0.3,1,0.5,1.5,0.6c1.7,0.5,3.6,0,5.2-1.3
		C-3975.5,1732.6-3974.5,1731-3974.3,1729z"/>
	<path class="st7" d="M-3968.6,1745.4c-0.2-0.2-4.5-5-9.9-4.2c-2.5,0.4-4.5,1.4-6,2.8c-1.4,1.4-2.1,3.3-2,5.3s1,3.6,2.4,4.6
		c0.1,0.1,0.3,0.2,0.4,0.2c1.4,0.8,3.4,1.1,5.8,0.7c5.3-0.8,9.1-6.9,9.2-7.1C-3968.1,1746.9-3968.1,1746-3968.6,1745.4z"/>
	<g>
		<path class="st8" d="M-3983,1745.4c0.5-2,0.3-4.2-0.8-6.5c-2.1-5-8.5-6.2-8.8-6.2c-0.8-0.2-1.6,0.3-2,1.1
			c-0.1,0.3-3.3,6.7-1.1,11.6c0.9,2.2,2.2,3.7,3.6,4.5c0.1,0.1,0.3,0.1,0.4,0.2c1.6,0.7,3.4,0.6,5.2-0.3
			C-3984.7,1748.8-3983.5,1747.3-3983,1745.4z"/>
		<path class="st8" d="M-3979.7,1764.9c-0.2-0.3-3.5-5.9-8.9-6.1c-2.5-0.1-4.6,0.5-6.2,1.6c-1.5,1.2-2.5,2.9-2.8,4.9
			s0.4,3.8,1.6,5.1c0.4,0.4,0.8,0.7,1.4,1c1.2,0.6,2.6,1,4.4,1.1c5.3,0.2,10-5.2,10.1-5.3
			C-3979.5,1766.5-3979.4,1765.5-3979.7,1764.9z"/>
		<path class="st8" d="M-3993.7,1762c0.8-1.8,0.9-4.1,0.4-6.7c-1.2-5.3-7.2-7.7-7.4-7.8c-0.7-0.3-1.6,0-2.1,0.7
			c-0.2,0.3-4.3,6.1-3.1,11.4c0.5,2.5,1.6,4.4,3.1,5.5c0.2,0.1,0.4,0.3,0.5,0.4c1.4,0.7,2.9,0.8,4.5,0.3
			C-3995.9,1765.2-3994.5,1763.9-3993.7,1762z"/>
		<path class="st8" d="M-3960.5,1693.3c0.6-5.6-4.1-10-4.3-10.2c-0.5-0.5-1.4-0.5-2.2-0.1c-0.3,0.2-5.9,4.3-6.4,10
			c-0.3,2.7,0.1,4.9,1.1,6.4c0.5,0.8,1.2,1.4,1.9,1.8c0.7,0.5,1.6,0.6,2.5,0.6c1.9,0.1,3.6-0.7,4.9-2.2
			C-3961.6,1698.1-3960.8,1696-3960.5,1693.3z"/>
	</g>
</g>
<circle class="st13" cx="-4011.7" cy="1775.8" r="15.7"/>
<circle class="st14" cx="-4012" cy="1775.6" r="9.6"/>
<path class="st0" d="M-3963.4,1396.9c-28.6-18.6-66.5-28.7-106.7-28.7s-78,10.2-106.7,28.7c-28.6,18.6-44.4,43.1-44.4,69.1v139.8
	c0,2.4,3.1,4.4,6.8,4.4h288.3c3.8,0,6.8-2,6.8-4.4V1466C-3919.2,1440-3934.9,1415.5-3963.4,1396.9z"/>
<ellipse class="st1" cx="-4184.8" cy="1607.2" rx="38.9" ry="33.2"/>
<ellipse class="st1" cx="-3955.6" cy="1606.3" rx="38.9" ry="33.2"/>
<path class="st2" d="M-4181.8,1518.1c-0.1,0-0.1,0-0.2,0c-25.4,0.1-46.1,20.8-46,46.3c0,12.3,4.9,23.9,13.6,32.6
	s20.3,13.4,32.5,13.4h0.2c25.4-0.1,46.1-20.8,46-46.3C-4135.8,1538.6-4156.5,1518.1-4181.8,1518.1z"/>
<path class="st2" d="M-3899.7,1805.1c-0.1-39.6-15.8-76.9-44-104.9s-65.4-43.4-104.7-43.4c-0.2,0-0.3,0-0.5,0l-48.7,0.2
	c-39.6,0.1-76.9,15.8-104.9,44c-28.1,28.2-43.5,65.6-43.4,105.2l0.1,18.6c0,3.7,3.1,6.8,6.8,6.8h332.5c1.8,0,3.5-0.7,4.8-2
	s2-3,2-4.8V1805.1z"/>
<path class="st3" d="M-3899.7,1805.1c-0.1-39.6-15.8-76.9-44-104.9s-65.4-43.4-104.7-43.4c-0.2,0-0.3,0-0.5,0l-16.7,0.1
	c37.9,1,73.7,16.2,100.9,43.3c28.2,28.1,43.9,65.4,44,104.9l0.1,19.6c0,1.8-0.7,3.5-2,4.8s-3,2-4.8,2h20.9c1.8,0,3.5-0.7,4.8-2
	s2-3,2-4.8V1805.1z"/>
<g>
	<g>
		<path id="XMLID_1_" class="st4" d="M-3899.8,1807.9c-0.1-39.3-15.8-76.3-44-104.2c-8.4-8.3-17.7-15.5-27.5-21.5
			c-7,27.3-36.5,49.3-75,56.3c-8.6,1.6-17.6,2.4-26.9,2.4c-9.2,0-18.1-0.8-26.7-2.4c-38.3-7-67.9-28.8-75.1-55.9
			c-10,6.1-19.1,13.4-27.6,21.8c-28.1,28.1-43.5,65.2-43.4,104.5l0.1,21.3c0.1,2.4,1.4,4.6,3.3,5.9h337.3c1.3-0.3,2.4-1,3.4-1.9
			c1.4-1.4,2.1-3.2,2.1-5.1V1807.9z"/>
	</g>
	<g>
		<g>
			<g>
				<g>
					<g>
						<g>
							<g>
								<g>
									<defs>
										<path id="SVGID_3_" d="M-3899.8,1807.9c-0.1-39.3-15.8-76.3-44-104.2c-8.4-8.3-17.7-15.5-27.5-21.5
											c-7,27.3-36.5,49.3-75,56.3c-8.6,1.6-17.6,2.4-26.9,2.4c-9.2,0-18.1-0.8-26.7-2.4c-38.3-7-67.9-28.8-75.1-55.9
											c-10,6.1-19.1,13.4-27.6,21.8c-28.1,28.1-43.5,65.2-43.4,104.5l0.1,21.3c0.1,2.4,1.4,4.6,3.3,5.9h337.3
											c1.3-0.3,2.4-1,3.4-1.9c1.4-1.4,2.1-3.2,2.1-5.1V1807.9z"/>
									</defs>
									<clipPath id="SVGID_4_">
										<use xlink:href="#SVGID_3_"  style="overflow:visible;"/>
									</clipPath>
									<path class="st15" d="M-3898.8,1808.5c-0.1-39.3-15.8-76.3-44-104.2c-28.2-27.8-65.4-43.1-104.7-43.1c-0.2,0-0.3,0-0.5,0
										l-17.6,0.1c37.9,1,73.6,16.1,100.9,43c28.2,27.9,43.8,64.9,44,104.2l0.1,21.3c0,1.9-0.7,3.7-2.1,5.1
										c-0.9,0.9-2.1,1.6-3.4,1.9h22c1.3-0.3,2.4-1,3.4-1.9c1.4-1.4,2.1-3.2,2.1-5.1L-3898.8,1808.5z"/>
								</g>
							</g>
						</g>
					</g>
				</g>
			</g>
		</g>
	</g>
</g>
<g>
	<path class="st6" d="M-4100,1819.4c-0.1-0.3-0.1-0.5-0.1-0.7c0.1-1,1.1-1.7,2.1-1.6c10,0.5,20.5-0.7,30.9-3.6
		c8.4-2.4,16.8-5.7,25.1-10.1c14-7.5,22.8-15.3,22.9-15.4c0.8-0.7,2-0.7,2.7-0.1s0.6,1.8-0.1,2.4c-0.4,0.4-9.2,8.2-23.7,15.9
		c-8.5,4.5-17.3,8.1-25.9,10.5c-10.9,3-21.7,4.3-32.1,3.7C-4099.2,1820.5-4099.8,1820.1-4100,1819.4z"/>
	<path class="st7" d="M-4014.5,1807.1c0.8-0.4,1.2-1.2,1.1-2c-0.1-0.3-1.4-6.5-6.5-8.6c-2.4-1-4.7-1.2-6.6-0.7
		c-1.9,0.5-3.4,1.7-4.3,3.4c-0.8,1.5-0.9,3.1-0.5,4.5c0.1,0.2,0.2,0.4,0.3,0.6c0.8,1.6,2.4,3,4.9,3.9
		C-4021.1,1810.4-4014.8,1807.3-4014.5,1807.1z"/>
	<path class="st8" d="M-4026.1,1797.7c1.4-1.4,2.3-3.3,2.6-5.9c0.6-5.3-4.3-9.5-4.5-9.7c-0.6-0.5-1.5-0.5-2.4-0.1
		c-0.3,0.2-6.2,4-6.9,9.1c-0.2,1.8-0.1,3.3,0.4,4.6c0.2,0.5,0.5,1,0.7,1.4c1.1,1.4,2.7,2.4,4.7,2.4
		C-4029.4,1799.8-4027.5,1799.1-4026.1,1797.7z"/>
	<path class="st8" d="M-4029.7,1815.8c0.8-0.4,1.2-1.2,1.1-2c-0.1-0.3-1.4-6.5-6.5-8.6c-2.4-1-4.7-1.2-6.6-0.7
		c-1.9,0.5-3.4,1.7-4.3,3.4c-0.8,1.5-0.9,3.1-0.5,4.5c0.1,0.2,0.2,0.4,0.3,0.6c0.8,1.6,2.4,3,4.9,3.9
		C-4036.3,1819.1-4030,1816-4029.7,1815.8z"/>
	<path class="st7" d="M-4041.3,1806.5c1.4-1.4,2.3-3.3,2.6-5.9c0.6-5.3-4.3-9.5-4.5-9.7c-0.6-0.5-1.5-0.5-2.4-0.1
		c-0.3,0.2-6.2,4-6.9,9.1c-0.2,1.8-0.1,3.3,0.4,4.6c0.2,0.5,0.5,1,0.7,1.4c1.1,1.4,2.7,2.4,4.7,2.4
		C-4044.6,1808.5-4042.7,1807.9-4041.3,1806.5z"/>
	<path class="st7" d="M-4047.7,1822.5c0-0.3-0.2-6.8-4.7-9.6c-2.2-1.4-4.3-2-6.3-1.8s-3.7,1.2-4.9,2.7s-1.6,3.3-1.1,5.1
		c0,0.2,0.1,0.3,0.1,0.5c0.5,1.6,1.9,3.1,3.9,4.3c4.5,2.9,11.3,0.8,11.7,0.7C-4048.3,1824.1-4047.7,1823.3-4047.7,1822.5z"/>
	<g>
		<path class="st8" d="M-4058.6,1813.1c1.6-1.2,2.9-3,3.7-5.4c1.6-5.2-2.4-10.1-2.5-10.4c-0.5-0.6-1.4-0.8-2.3-0.5
			c-0.3,0.1-6.8,2.9-8.4,8.1c-0.7,2.3-0.8,4.3-0.2,5.8c0.1,0.1,0.1,0.3,0.2,0.4c0.7,1.6,2.2,2.7,4.2,3.2
			C-4062.1,1814.6-4060.2,1814.2-4058.6,1813.1z"/>
		<path class="st8" d="M-4068.8,1829.9c0.1-0.3,1.2-6.8-2.7-10.3c-1.8-1.7-3.8-2.7-5.8-2.8c-1.9-0.2-3.8,0.5-5.3,1.9
			c-1.4,1.4-2.3,3.1-2.1,4.9c0,0.5,0.2,1.1,0.4,1.6c0.5,1.3,1.4,2.5,2.6,3.7c3.9,3.6,10.9,2.6,11.1,2.6
			C-4069.7,1831.4-4069,1830.7-4068.8,1829.9z"/>
		<path class="st8" d="M-4077.6,1818.7c1.8-0.9,3.3-2.4,4.6-4.8c2.6-4.8-0.4-10.5-0.5-10.8c-0.4-0.7-1.3-1.1-2.1-0.8
			c-0.3,0.1-7.2,1.7-9.8,6.6c-1.3,2.4-1.6,4.4-1.3,6.2c0.1,0.2,0.1,0.5,0.2,0.6c0.5,1.4,1.6,2.5,3.3,3.2
			C-4081.3,1819.6-4079.4,1819.5-4077.6,1818.7z"/>
		<path class="st8" d="M-4007.4,1788.6c4.2-3.8,3.5-10.2,3.5-10.5c-0.1-0.8-0.7-1.4-1.6-1.4c-0.3,0-7.2-0.5-11.4,3.3
			c-2,1.8-3.2,3.7-3.4,5.5c-0.2,0.9-0.1,1.8,0.3,2.6c0.3,0.8,0.8,1.5,1.4,2.2c1.4,1.3,3.3,1.8,5.2,1.5
			C-4011.4,1791.5-4009.4,1790.4-4007.4,1788.6z"/>
	</g>
</g>
<path class="st9" d="M-4115.6,1662.2c1.4,1.8,1.8,4.3,1.3,6.4c-3.1,12.1-4.6,24.6-4.5,37.1c0.1,24.5,12.1,52.3,33,76.4
	c20.8,24,47.3,40.7,72.7,46.1c3.4,0.7,5.8,3.9,5.8,7.4h21.8c0-3.3-2.1-6.2-5.1-7.2c-0.2-0.1-0.5-0.1-0.6-0.2
	c-25.3-5.3-51.9-22-72.7-46.1s-32.9-52-33-76.4c0-12.6,1.5-25.1,4.5-37.1c0.5-2.3,0.1-4.6-1.3-6.4c-1.4-1.8-3.4-2.9-5.6-2.9h-3.3
	c-3.6,0-7.2,0.2-10.7,0.5c-0.2,0-0.3,0-0.5,0c-0.5,0-1,0.1-1.4,0.1c-0.9,0.1-1.7,0.2-2.6,0.3
	C-4117.1,1660.6-4116.3,1661.4-4115.6,1662.2z"/>
<path class="st10" d="M-4013.3,1826.7c-25.4-5.3-51.9-22-72.7-46.1c-20.8-24.1-32.9-52-33-76.4c-0.1-12.5,1.4-25,4.5-37.1
	c0.5-2.2,0.1-4.6-1.3-6.4c-0.6-0.8-1.4-1.5-2.4-2c0.9-0.1,1.7-0.2,2.6-0.3c-34.8,3.2-67.1,18.9-92.2,45.1
	c-27.9,29.4-43.3,68.1-43.1,109.3l0.1,21.5h243.1C-4007.4,1830.6-4009.9,1827.4-4013.3,1826.7z"/>
<path class="st2" d="M-3962.8,1517.3c-0.1,0-0.1,0-0.2,0c-25.4,0.1-46.1,20.8-46,46.3c0,12.3,4.9,23.9,13.6,32.6
	s20.3,13.4,32.5,13.4h0.2c25.4-0.1,46.1-20.8,46-46.3C-3916.8,1537.9-3937.5,1517.3-3962.8,1517.3z"/>
<path class="st2" d="M-3966.4,1500.5c-0.1-22.5-16.7-40.7-36.9-40.7h-135.4c-9.9,0-19.2,4.3-26.2,12c-7,7.8-10.8,18-10.8,29
	l0.2,79.5c0.2,63.7,47.1,115.4,104.7,115.4h0.4c57.7-0.2,104.5-52.2,104.3-116.1L-3966.4,1500.5z"/>
<path class="st11" d="M-3966.3,1500.5c-0.1-22.5-15.6-40.7-34.6-40.7h-16.9c19,0,34.6,18.3,34.6,40.7l0.2,79
	c0.2,60.6-39.4,110.5-89.6,115.7c2.8,0.3,5.6,0.5,8.4,0.5h0.3c54-0.2,97.9-52.2,97.8-116.1L-3966.3,1500.5z"/>
<ellipse transform="matrix(-0.9333 0.3592 -0.3592 -0.9333 -7572.4917 4474.4956)" class="st1" cx="-4201.9" cy="1533.8" rx="28.2" ry="41.5"/>
<ellipse transform="matrix(-0.9333 0.3592 -0.3592 -0.9333 -7584.0171 4468.4375)" class="st0" cx="-4207.1" cy="1529.7" rx="28.2" ry="41.5"/>
<path class="st3" d="M-4071.1,1648.8c-8.9,0-17.4-3.3-23.9-9.3c-2.8-2.5-3-6.9-0.5-9.6c2.5-2.8,6.9-3,9.6-0.5
	c4,3.7,9.2,5.7,14.7,5.7h0.1c5.5,0,10.7-2.1,14.8-5.8c2.8-2.5,7.1-2.4,9.6,0.4s2.4,7.1-0.4,9.6
	C-4053.6,1645.3-4062.1,1648.7-4071.1,1648.8C-4071,1648.8-4071,1648.8-4071.1,1648.8z"/>
<path class="st0" d="M-4111.7,1537.7c8.9,0,17.4,1.6,23.9,4.6c2.8,1.3,3,3.4,0.5,4.8s-6.9,1.4-9.6,0.2c-4-1.8-9.2-2.9-14.7-2.9h-0.1
	c-5.5,0-10.7,1-14.8,2.9c-2.8,1.3-7.1,1.2-9.6-0.2s-2.4-3.5,0.4-4.8C-4129.2,1539.3-4120.7,1537.6-4111.7,1537.7
	C-4111.8,1537.7-4111.7,1537.7-4111.7,1537.7z"/>
<ellipse class="st1" cx="-4176" cy="1491.4" rx="46.2" ry="37.8"/>
<path class="st0" d="M-4026.9,1537.7c8.9,0,17.4,1.6,23.9,4.6c2.8,1.3,3,3.4,0.5,4.8s-6.9,1.4-9.6,0.2c-4-1.8-9.2-2.9-14.7-2.9h-0.1
	c-5.5,0-10.7,1-14.8,2.9c-2.8,1.3-7.1,1.2-9.6-0.2c-2.5-1.4-2.4-3.5,0.4-4.8C-4044.4,1539.3-4035.9,1537.6-4026.9,1537.7
	L-4026.9,1537.7z"/>
<path class="st12" d="M-4099.4,1573.2c0-6.3-5.2-11.4-11.5-11.4s-11.4,5.2-11.4,11.5s5.2,11.4,11.5,11.4
	S-4099.4,1579.5-4099.4,1573.2z"/>
<path class="st12" d="M-4018.4,1572.9c0-6.3-5.2-11.5-11.5-11.4c-6.3,0-11.5,5.2-11.4,11.5c0,6.3,5.2,11.5,11.5,11.4
	C-4023.6,1584.4-4018.4,1579.3-4018.4,1572.9z"/>
<ellipse transform="matrix(-0.3592 0.9333 -0.9333 -0.3592 -3940.1509 5773.2144)" class="st1" cx="-3952.1" cy="1533.9" rx="41.5" ry="28.2"/>
<ellipse transform="matrix(-0.3592 0.9333 -0.9333 -0.3592 -3943.3306 5761.2036)" class="st0" cx="-3949.6" cy="1526.8" rx="41.5" ry="28.2"/>
<ellipse class="st1" cx="-3972.2" cy="1485.3" rx="46.2" ry="37.8"/>
<ellipse class="st0" cx="-3974.1" cy="1467.8" rx="47.3" ry="47.3"/>
<ellipse class="st1" cx="-3995.8" cy="1459.7" rx="46.2" ry="37.8"/>
<ellipse class="st0" cx="-3995.8" cy="1452.5" rx="45.4" ry="32.9"/>
<ellipse class="st0" cx="-4180.5" cy="1478.8" rx="44.4" ry="44.4"/>
<ellipse class="st1" cx="-4147.5" cy="1454" rx="46.2" ry="37.8"/>
<ellipse class="st1" cx="-4076.2" cy="1438.5" rx="71.3" ry="54.3"/>
<ellipse class="st0" cx="-4070.1" cy="1426.1" rx="74.3" ry="53.6"/>
<ellipse class="st0" cx="-4147.5" cy="1446.8" rx="45.4" ry="32.9"/>
<g>
	<path class="st6" d="M-4010.2,1777.3c-0.2-0.1-0.4-0.3-0.5-0.5c-0.5-0.8-0.3-2,0.5-2.6c7.9-6.2,14.9-13.9,20.9-22.9
		c4.8-7.2,9-15.3,12.3-24.1c5.7-14.8,7.2-26.5,7.2-26.6c0.1-1,1-1.8,2-1.8s1.6,0.9,1.5,2c-0.1,0.5-1.5,12.2-7.4,27.6
		c-3.4,9.1-7.8,17.4-12.7,24.9c-6.2,9.4-13.6,17.5-21.8,23.9C-4008.8,1777.6-4009.5,1777.6-4010.2,1777.3z"/>
	<path class="st7" d="M-3953.7,1712c0.4-0.8,0.1-1.7-0.5-2.2c-0.2-0.2-5.4-4-10.6-2.2c-2.4,0.8-4.3,2.2-5.4,3.8s-1.5,3.5-1.1,5.4
		c0.4,1.6,1.4,3,2.6,3.7c0.2,0.1,0.4,0.2,0.6,0.3c1.7,0.7,3.8,0.6,6.3-0.3C-3956.6,1718.8-3953.8,1712.3-3953.7,1712z"/>
	<path class="st8" d="M-3968.5,1712.5c0.2-2-0.5-4.1-1.9-6.2c-3-4.3-9.5-4.3-9.8-4.3c-0.8,0-1.5,0.6-1.8,1.4
		c-0.1,0.3-2.1,7.1,0.8,11.4c1,1.4,2.1,2.5,3.3,3.2c0.5,0.3,1,0.5,1.5,0.6c1.7,0.5,3.6,0,5.2-1.3
		C-3969.7,1716.1-3968.7,1714.4-3968.5,1712.5z"/>
	<path class="st8" d="M-3959.4,1728.5c0.4-0.8,0.1-1.7-0.5-2.2c-0.2-0.2-5.4-4-10.6-2.2c-2.4,0.8-4.3,2.2-5.4,3.8s-1.5,3.5-1.1,5.4
		c0.4,1.6,1.4,3,2.6,3.7c0.2,0.1,0.4,0.2,0.6,0.3c1.7,0.7,3.8,0.6,6.3-0.3C-3962.3,1735.3-3959.5,1728.8-3959.4,1728.5z"/>
	<path class="st7" d="M-3974.3,1729c0.2-2-0.5-4.1-1.9-6.2c-3-4.3-9.5-4.3-9.8-4.3c-0.8,0-1.5,0.6-1.8,1.4
		c-0.1,0.3-2.1,7.1,0.8,11.4c1,1.4,2.1,2.5,3.3,3.2c0.5,0.3,1,0.5,1.5,0.6c1.7,0.5,3.6,0,5.2-1.3
		C-3975.5,1732.6-3974.5,1731-3974.3,1729z"/>
	<path class="st7" d="M-3968.6,1745.4c-0.2-0.2-4.5-5-9.9-4.2c-2.5,0.4-4.5,1.4-6,2.8c-1.4,1.4-2.1,3.3-2,5.3s1,3.6,2.4,4.6
		c0.1,0.1,0.3,0.2,0.4,0.2c1.4,0.8,3.4,1.1,5.8,0.7c5.3-0.8,9.1-6.9,9.2-7.1C-3968.1,1746.9-3968.1,1746-3968.6,1745.4z"/>
	<g>
		<path class="st8" d="M-3983,1745.4c0.5-2,0.3-4.2-0.8-6.5c-2.1-5-8.5-6.2-8.8-6.2c-0.8-0.2-1.6,0.3-2,1.1
			c-0.1,0.3-3.3,6.7-1.1,11.6c0.9,2.2,2.2,3.7,3.6,4.5c0.1,0.1,0.3,0.1,0.4,0.2c1.6,0.7,3.4,0.6,5.2-0.3
			C-3984.7,1748.8-3983.5,1747.3-3983,1745.4z"/>
		<path class="st8" d="M-3979.7,1764.9c-0.2-0.3-3.5-5.9-8.9-6.1c-2.5-0.1-4.6,0.5-6.2,1.6c-1.5,1.2-2.5,2.9-2.8,4.9
			s0.4,3.8,1.6,5.1c0.4,0.4,0.8,0.7,1.4,1c1.2,0.6,2.6,1,4.4,1.1c5.3,0.2,10-5.2,10.1-5.3
			C-3979.5,1766.5-3979.4,1765.5-3979.7,1764.9z"/>
		<path class="st8" d="M-3993.7,1762c0.8-1.8,0.9-4.1,0.4-6.7c-1.2-5.3-7.2-7.7-7.4-7.8c-0.7-0.3-1.6,0-2.1,0.7
			c-0.2,0.3-4.3,6.1-3.1,11.4c0.5,2.5,1.6,4.4,3.1,5.5c0.2,0.1,0.4,0.3,0.5,0.4c1.4,0.7,2.9,0.8,4.5,0.3
			C-3995.9,1765.2-3994.5,1763.9-3993.7,1762z"/>
		<path class="st8" d="M-3960.5,1693.3c0.6-5.6-4.1-10-4.3-10.2c-0.5-0.5-1.4-0.5-2.2-0.1c-0.3,0.2-5.9,4.3-6.4,10
			c-0.3,2.7,0.1,4.9,1.1,6.4c0.5,0.8,1.2,1.4,1.9,1.8c0.7,0.5,1.6,0.6,2.5,0.6c1.9,0.1,3.6-0.7,4.9-2.2
			C-3961.6,1698.1-3960.8,1696-3960.5,1693.3z"/>
	</g>
</g>
<circle class="st13" cx="-4011.7" cy="1775.8" r="15.7"/>
<circle class="st14" cx="-4012" cy="1775.6" r="9.6"/>
<path class="st16" d="M202.9,174.2c-31.8-20.6-73.8-31.8-118.4-31.8s-86.6,11.3-118.3,31.8c-31.8,20.6-49.3,47.8-49.3,76.7V406
	c0,2.7,3.4,4.9,7.5,4.9h319.8c4.2,0,7.5-2.2,7.5-4.9V250.9C252,222.1,234.5,194.8,202.9,174.2z"/>
<ellipse class="st16" cx="-42.7" cy="407.5" rx="43.2" ry="36.9"/>
<ellipse class="st16" cx="211.6" cy="406.5" rx="43.2" ry="36.9"/>
<path class="st17" d="M-39.4,308.7c-0.1,0-0.1,0-0.2,0c-28.2,0.1-51.1,23.1-51,51.3c0,13.7,5.5,26.5,15,36.2S-53.1,411-39.5,411h0.2
	c28.2-0.1,51.1-23.1,51-51.3C11.6,331.5-11.3,308.7-39.4,308.7z"/>
<path class="st18" d="M264.9,621.3c-0.1-42.6-17-82.8-47.4-113c-30.3-30.1-70.4-46.7-112.8-46.7c-0.2,0-0.3,0-0.5,0l-52.5,0.2
	c-42.6,0.1-82.8,17-113,47.4c-30.2,30.4-46.8,70.6-46.8,113.2l0.1,20c0,4,3.3,7.3,7.3,7.3h358.2c2,0,3.8-0.8,5.2-2.1
	c1.4-1.4,2.1-3.2,2.1-5.2L264.9,621.3z"/>
<path class="st17" d="M263.7,621c-0.1-42.6-17-82.8-47.4-113c-35.7-35.5-62.4-46.7-112.8-46.7c-0.2,0-0.3,0-0.5,0l-17.9,0.1
	c40.9,1.1,79.4,17.5,108.6,46.6c30.4,30.2,47.3,70.4,47.4,113l0.1,21.1c0,2-0.8,3.8-2.1,5.2c-1.4,1.4-3.2,2.1-5.2,2.1h22.5
	c2,0,3.8-0.8,5.2-2.1c1.4-1.4,2.1-3.2,2.1-5.2V621z"/>
<g>
	<g>
		<path id="XMLID_47_" class="st4" d="M267.8,621.3c-0.1-42.3-17-82.2-47.4-112.2c-9.1-9-19-16.7-29.6-23.2
			c-7.5,29.5-39.3,53-80.7,60.7c-9.3,1.8-18.9,2.6-29,2.6c-9.9,0-19.5-0.9-28.8-2.5c-41.3-7.5-73.1-31-80.8-60.2
			c-10.7,6.5-20.6,14.4-29.7,23.5c-30.2,30.2-46.8,70.2-46.7,112.5l0.1,22.9c0.1,2.6,1.5,5,3.5,6.3h363.4c1.4-0.3,2.6-1.1,3.7-2
			c1.5-1.5,2.2-3.4,2.2-5.5L267.8,621.3z"/>
	</g>
	<g>
		<g>
			<g>
				<g>
					<g>
						<g>
							<g>
								<g>
									<defs>
										<path id="SVGID_5_" d="M267.8,621.3c-0.1-42.3-17-82.2-47.4-112.2c-9.1-9-19-16.7-29.6-23.2c-7.5,29.5-39.3,53-80.7,60.7
											c-9.3,1.8-18.9,2.6-29,2.6c-9.9,0-19.5-0.9-28.8-2.5c-41.3-7.5-73.1-31-80.8-60.2c-10.7,6.5-20.6,14.4-29.7,23.5
											c-30.2,30.2-46.8,70.2-46.7,112.5l0.1,22.9c0.1,2.6,1.5,5,3.5,6.3h363.4c1.4-0.3,2.6-1.1,3.7-2c1.5-1.5,2.2-3.4,2.2-5.5
											L267.8,621.3z"/>
									</defs>
									<clipPath id="SVGID_6_">
										<use xlink:href="#SVGID_5_"  style="overflow:visible;"/>
									</clipPath>
									<path class="st19" d="M268.8,622c-0.1-42.3-17-82.2-47.4-112.2c-30.3-29.9-70.4-46.4-112.8-46.4c-0.2,0-0.3,0-0.5,0
										l-18.9,0.1c40.9,1.1,79.3,17.4,108.6,46.3c30.4,30,47.2,69.9,47.4,112.2l0.1,22.9c0,2-0.8,4-2.2,5.5c-1,1-2.2,1.8-3.7,2
										h23.7c1.4-0.3,2.6-1.1,3.7-2c1.5-1.5,2.2-3.4,2.2-5.5L268.8,622z"/>
								</g>
							</g>
						</g>
					</g>
				</g>
			</g>
		</g>
	</g>
</g>
<g>
	<path class="st6" d="M52.1,633.8c-0.1-0.3-0.1-0.5-0.1-0.8c0.1-1.1,1.2-1.9,2.2-1.8c10.8,0.6,22-0.8,33.3-3.9
		c9.1-2.5,18.1-6.1,27-10.9c15.1-8.1,24.6-16.5,24.7-16.6c0.9-0.8,2.1-0.8,2.9-0.1c0.8,0.7,0.7,2-0.1,2.6
		c-0.4,0.4-9.9,8.9-25.5,17.2c-9.2,4.9-18.6,8.7-27.9,11.3c-11.7,3.2-23.4,4.6-34.6,4C53,634.8,52.3,634.3,52.1,633.8z"/>
	<path class="st7" d="M144.2,620.5c0.9-0.4,1.3-1.3,1.2-2.1c-0.1-0.3-1.6-7-7-9.3c-2.6-1.1-5.1-1.3-7.1-0.8s-3.7,1.9-4.7,3.7
		c-0.9,1.7-1,3.3-0.5,4.9c0.1,0.2,0.2,0.4,0.3,0.7c0.9,1.8,2.6,3.2,5.3,4.2C137.1,624,143.9,620.6,144.2,620.5z"/>
	<path class="st8" d="M131.7,610.3c1.6-1.5,2.4-3.6,2.8-6.3c0.7-5.7-4.7-10.2-4.9-10.4c-0.7-0.6-1.7-0.6-2.5-0.1
		c-0.3,0.2-6.7,4.3-7.4,9.8c-0.2,2-0.1,3.5,0.4,5c0.2,0.6,0.5,1.1,0.8,1.6c1.2,1.6,2.9,2.5,5.1,2.6
		C128.2,612.5,130.3,611.8,131.7,610.3z"/>
	<path class="st8" d="M127.8,629.8c0.9-0.4,1.3-1.3,1.2-2.1c-0.1-0.3-1.6-7-7-9.3c-2.6-1.1-5.1-1.3-7.1-0.8s-3.7,1.9-4.7,3.7
		c-0.9,1.7-1,3.3-0.5,4.9c0.1,0.2,0.2,0.4,0.3,0.7c0.9,1.8,2.6,3.2,5.3,4.2C120.7,633.3,127.5,630,127.8,629.8z"/>
	<path class="st7" d="M115.3,619.8c1.6-1.5,2.4-3.6,2.8-6.3c0.7-5.7-4.7-10.2-4.9-10.4c-0.7-0.6-1.7-0.6-2.5-0.1
		c-0.3,0.2-6.7,4.3-7.4,9.8c-0.2,2-0.1,3.5,0.4,5c0.2,0.6,0.5,1.1,0.8,1.6c1.2,1.6,2.9,2.5,5.1,2.6
		C111.8,622,113.9,621.3,115.3,619.8z"/>
	<path class="st7" d="M108.4,637c0-0.3-0.2-7.3-5.1-10.3c-2.3-1.5-4.7-2.1-6.8-2c-2.1,0.2-4,1.3-5.3,2.9c-1.3,1.7-1.8,3.6-1.2,5.5
		c0,0.2,0.1,0.3,0.1,0.5c0.6,1.8,2,3.3,4.2,4.7c4.9,3.1,12.2,0.9,12.6,0.8C107.8,638.6,108.4,638,108.4,637z"/>
	<g>
		<path class="st8" d="M96.7,626.8c1.8-1.3,3.1-3.2,4-5.9c1.8-5.6-2.5-10.9-2.7-11.2c-0.6-0.7-1.6-0.9-2.4-0.5
			c-0.3,0.1-7.3,3.1-9.1,8.7c-0.8,2.4-0.9,4.6-0.2,6.2c0.1,0.1,0.1,0.3,0.2,0.4c0.8,1.8,2.3,2.9,4.5,3.4
			C92.9,628.5,95,628,96.7,626.8z"/>
		<path class="st8" d="M85.7,645c0.1-0.3,1.3-7.3-2.9-11.1c-2-1.9-4.1-2.9-6.2-3c-2-0.2-4.1,0.6-5.8,2c-1.6,1.5-2.4,3.3-2.2,5.3
			c0,0.6,0.2,1.2,0.4,1.8c0.5,1.4,1.5,2.7,2.8,4c4.2,3.9,11.7,2.8,12,2.8C84.7,646.5,85.5,645.8,85.7,645z"/>
		<path class="st8" d="M76.2,633c2-1,3.6-2.6,5-5.2c2.8-5.2-0.4-11.3-0.5-11.6c-0.4-0.8-1.4-1.2-2.2-0.9c-0.3,0.1-7.7,1.9-10.5,7.1
			c-1.4,2.5-1.8,4.8-1.4,6.6c0.1,0.2,0.1,0.5,0.2,0.7c0.6,1.6,1.8,2.7,3.5,3.4C72.2,634,74.3,633.8,76.2,633z"/>
		<path class="st8" d="M151.8,600.5c4.5-4.1,3.8-11,3.8-11.3c-0.1-0.9-0.8-1.5-1.8-1.6c-0.3,0-7.8-0.6-12.3,3.5
			c-2.1,2-3.4,4-3.7,5.9c-0.2,1-0.1,2,0.3,2.8c0.3,0.9,0.9,1.7,1.6,2.3c1.5,1.4,3.5,2,5.6,1.7C147.5,603.5,149.7,602.5,151.8,600.5z
			"/>
	</g>
</g>
<path class="st9" d="M34.3,464.3c1.5,2,2,4.6,1.4,6.9c-3.3,13.2-5,26.7-4.9,40.3c0.1,26.6,13.1,56.8,35.5,82.8s50.9,44.2,78.3,49.9
	c3.7,0.8,6.2,4.2,6.2,8.1h23.5c0-3.5-2.2-6.7-5.5-7.7c-0.2-0.1-0.5-0.1-0.7-0.2c-27.3-5.8-55.9-23.9-78.3-49.9
	c-22.4-26.1-35.4-56.4-35.5-82.8c0-13.7,1.7-27.2,4.9-40.3c0.6-2.4,0.1-5-1.4-6.9c-1.5-2-3.7-3.1-6-3.1h-3.6
	c-3.9,0-7.7,0.2-11.5,0.5c-0.2,0-0.3,0-0.5,0c-0.5,0-1.1,0.1-1.6,0.1c-1,0.1-1.9,0.2-2.8,0.3C32.7,462.7,33.6,463.5,34.3,464.3z"/>
<path class="st10" d="M146.5,644.6c-27.3-5.8-55.9-24.3-78.3-50.7s-35.4-57.3-35.5-84.2c-0.1-13.8,1.6-27.6,4.9-40.9
	c0.6-2.4,0.1-5.1-1.4-7c-0.7-0.9-1.6-1.7-2.5-2.2c1-0.1,1.9-0.2,2.8-0.3c-37.4,3.5-72.3,20.8-99.3,49.6c-30,32.4-46.6,75-46.4,120.4
	l0.1,23.6h261.8C152.8,649,150.2,645.5,146.5,644.6z"/>
<path class="st20" d="M203.6,307.8c-0.1,0-0.1,0-0.2,0c-28.2,0.1-51.1,23.1-51,51.3c0,13.7,5.5,26.5,15,36.2
	c9.7,9.7,22.5,14.8,36.1,14.8h0.2c28.2-0.1,51.1-23.1,51-51.3C254.6,330.7,231.7,307.8,203.6,307.8z"/>
<path class="st20" d="M199.6,289.2c-0.1-24.9-18.4-45.2-41-45.2H8.4c-10.9,0-21.3,4.7-29,13.4c-7.7,8.7-11.9,20-11.9,32.1l0.2,88.2
	c0.2,70.8,52.2,128,116.1,128h0.4c64-0.2,115.9-58,115.7-128.8L199.6,289.2z"/>
<path class="st17" d="M199.7,289.2c-0.1-24.9-17.3-45.2-38.4-45.2h-18.7c21.1,0,38.4,20.3,38.4,45.2l0.2,87.7
	c0.2,67.2-43.7,122.7-99.4,128.3c3.1,0.3,6.2,0.5,9.4,0.5h0.3c59.9-0.2,108.6-58,108.5-128.8L199.7,289.2z"/>
<ellipse transform="matrix(-0.9333 0.3592 -0.3592 -0.9333 -1.4526 651.569)" class="st1" cx="-61.3" cy="325.6" rx="31.3" ry="46"/>
<ellipse transform="matrix(-0.9333 0.3592 -0.3592 -0.9333 -14.4031 644.7762)" class="st16" cx="-67.1" cy="321.1" rx="31.3" ry="46"/>
<path class="st16" d="M83.3,449.8c-9.6,0-18.7-3.5-25.7-10c-3-2.7-3.2-7.4-0.5-10.3c2.7-3,7.4-3.2,10.3-0.5c4.3,4,9.9,6.1,15.8,6.1
	h0.1c5.9,0,11.5-2.2,15.9-6.2c3-2.7,7.6-2.5,10.3,0.4c2.7,3,2.5,7.6-0.4,10.3C102.1,446.2,92.9,449.8,83.3,449.8
	C83.4,449.8,83.4,449.8,83.3,449.8z"/>
<path class="st0" d="M38.4,330.5c9.9,0,19.3,1.9,26.5,5.2c3.1,1.4,3.3,3.8,0.5,5.4c-2.8,1.5-7.6,1.6-10.6,0.2
	c-4.4-2.1-10.2-3.2-16.3-3.2h-0.1c-6.1,0-11.8,1.1-16.4,3.2c-3.1,1.4-7.8,1.3-10.6-0.2s-2.6-3.9,0.4-5.4
	C18.9,332.2,28.4,330.3,38.4,330.5C38.3,330.5,38.4,330.5,38.4,330.5z"/>
<ellipse class="st1" cx="-33" cy="279.2" rx="51.2" ry="42"/>
<path class="st0" d="M132.4,330.5c9.9,0,19.3,1.9,26.5,5.2c3.1,1.4,3.3,3.8,0.5,5.4c-2.8,1.5-7.6,1.6-10.6,0.2
	c-4.4-2.1-10.2-3.2-16.3-3.2h-0.1c-6.1,0-11.8,1.1-16.4,3.2c-3.1,1.4-7.8,1.3-10.6-0.2s-2.6-3.9,0.4-5.4
	C113.1,332.2,122.5,330.3,132.4,330.5L132.4,330.5z"/>
<path class="st12" d="M52,369.8c0-7-5.8-12.7-12.8-12.7s-12.7,5.8-12.7,12.8s5.8,12.7,12.8,12.7C46.4,382.5,52,376.8,52,369.8z"/>
<path class="st12" d="M141.9,369.5c0-7-5.8-12.8-12.8-12.7c-7,0-12.8,5.8-12.7,12.8c0,7,5.8,12.8,12.8,12.7
	C136.2,382.3,141.9,376.5,141.9,369.5z"/>
<ellipse transform="matrix(-0.3592 0.9333 -0.9333 -0.3592 596.4686 241.3781)" class="st1" cx="215.4" cy="325.5" rx="46" ry="31.3"/>
<ellipse transform="matrix(-0.3592 0.9333 -0.9333 -0.3592 593.0326 227.9283)" class="st16" cx="218.3" cy="317.6" rx="46" ry="31.3"/>
<ellipse class="st1" cx="193.1" cy="272.3" rx="51.2" ry="42"/>
<ellipse class="st16" cx="191" cy="252.9" rx="52.4" ry="52.4"/>
<ellipse class="st1" cx="167" cy="243.9" rx="51.2" ry="42"/>
<ellipse class="st16" cx="167" cy="235.9" rx="50.5" ry="36.5"/>
<ellipse class="st16" cx="-37.9" cy="265.1" rx="49.2" ry="49.2"/>
<ellipse class="st1" cx="-1.3" cy="237.7" rx="51.2" ry="42"/>
<ellipse class="st1" cx="77.7" cy="220.4" rx="79" ry="60.3"/>
<ellipse class="st16" cx="84.5" cy="206.6" rx="82.5" ry="59.4"/>
<ellipse class="st16" cx="-1.3" cy="229.6" rx="50.5" ry="36.5"/>
<g>
	<path class="st6" d="M148.9,588.3c-0.2-0.1-0.4-0.3-0.6-0.6c-0.6-0.9-0.3-2.1,0.6-2.8c8.5-6.6,16.1-15,22.5-24.7
		c5.2-7.8,9.7-16.5,13.3-25.9c6.1-16,7.7-28.6,7.7-28.7c0.1-1.1,1.1-2,2.1-2c1.1,0,1.8,1,1.7,2.1c-0.1,0.5-1.7,13.2-8,29.7
		c-3.7,9.8-8.4,18.7-13.7,26.8c-6.7,10.1-14.6,18.8-23.5,25.7C150.3,588.6,149.6,588.6,148.9,588.3z"/>
	<path class="st7" d="M209.7,518c0.4-0.9,0.1-1.9-0.6-2.3c-0.2-0.2-5.9-4.3-11.4-2.3c-2.6,0.9-4.7,2.3-5.9,4.1s-1.7,3.8-1.2,5.9
		c0.4,1.8,1.5,3.2,2.8,4c0.2,0.1,0.4,0.2,0.7,0.3c1.9,0.8,4.1,0.7,6.8-0.3C206.6,525.3,209.6,518.3,209.7,518z"/>
	<path class="st8" d="M193.7,518.5c0.2-2.1-0.5-4.4-2-6.6c-3.2-4.7-10.2-4.7-10.5-4.7c-0.9,0-1.7,0.7-2,1.6
		c-0.1,0.3-2.2,7.6,0.9,12.3c1.1,1.6,2.2,2.7,3.5,3.4c0.6,0.3,1.1,0.5,1.7,0.7c1.9,0.5,3.9,0,5.6-1.4
		C192.5,522.5,193.5,520.5,193.7,518.5z"/>
	<path class="st8" d="M203.6,535.8c0.4-0.9,0.1-1.9-0.6-2.3c-0.2-0.2-5.9-4.3-11.4-2.3c-2.6,0.9-4.7,2.3-5.9,4.1s-1.7,3.8-1.2,5.9
		c0.4,1.8,1.5,3.2,2.8,4c0.2,0.1,0.4,0.2,0.7,0.3c1.9,0.8,4.1,0.7,6.8-0.3C200.5,543.1,203.4,536,203.6,535.8z"/>
	<path class="st7" d="M187.5,536.3c0.2-2.1-0.5-4.4-2-6.6c-3.2-4.7-10.2-4.7-10.5-4.7c-0.9,0-1.7,0.7-2,1.6
		c-0.1,0.3-2.2,7.6,0.9,12.3c1.1,1.6,2.2,2.7,3.5,3.4c0.6,0.3,1.1,0.5,1.7,0.7c1.9,0.5,3.9,0,5.6-1.4
		C186.2,540.1,187.3,538.5,187.5,536.3z"/>
	<path class="st7" d="M193.6,554c-0.2-0.2-4.9-5.4-10.6-4.5c-2.7,0.4-4.9,1.5-6.4,3c-1.5,1.6-2.2,3.5-2.1,5.7c0.1,2.1,1.1,3.9,2.6,5
		c0.1,0.1,0.3,0.2,0.4,0.2c1.6,0.9,3.7,1.2,6.2,0.8c5.8-0.9,9.8-7.4,9.9-7.6C194.2,555.5,194.2,554.6,193.6,554z"/>
	<g>
		<path class="st8" d="M178.1,554c0.5-2.1,0.3-4.5-0.9-7c-2.2-5.4-9.2-6.6-9.5-6.6c-0.9-0.2-1.8,0.3-2.1,1.2
			c-0.1,0.3-3.5,7.2-1.2,12.5c1,2.3,2.3,4,3.9,4.9c0.1,0.1,0.3,0.1,0.4,0.2c1.8,0.8,3.7,0.7,5.6-0.3
			C176.3,557.6,177.6,556,178.1,554z"/>
		<path class="st8" d="M181.7,575c-0.2-0.3-3.8-6.3-9.6-6.5c-2.7-0.1-5,0.5-6.7,1.8s-2.7,3.1-3,5.3c-0.3,2.1,0.4,4.1,1.8,5.5
			c0.4,0.4,0.9,0.8,1.5,1.1c1.3,0.7,2.8,1.1,4.8,1.2c5.7,0.2,10.7-5.6,10.9-5.8C181.9,576.6,182,575.5,181.7,575z"/>
		<path class="st8" d="M166.6,571.8c0.9-2,1-4.4,0.4-7.2c-1.3-5.8-7.7-8.3-8-8.4c-0.8-0.3-1.8,0-2.2,0.8c-0.2,0.3-4.6,6.5-3.3,12.3
			c0.6,2.7,1.8,4.8,3.3,5.9c0.2,0.1,0.4,0.3,0.6,0.4c1.5,0.8,3.1,0.9,4.9,0.3C164.2,575.3,165.8,574,166.6,571.8z"/>
		<path class="st8" d="M202.3,497.8c0.7-6-4.4-10.8-4.6-11c-0.6-0.6-1.6-0.6-2.3-0.1c-0.3,0.2-6.3,4.7-6.9,10.7
			c-0.3,2.9,0.1,5.3,1.2,6.9c0.5,0.9,1.3,1.5,2,2c0.8,0.5,1.8,0.7,2.7,0.7c2,0.1,3.9-0.8,5.3-2.3C201.2,503,202,500.8,202.3,497.8z"
			/>
	</g>
</g>
<circle class="st13" cx="147.2" cy="586.8" r="16.9"/>
<circle class="st14" cx="146.9" cy="586.5" r="10.3"/>
</svg>
