<?xml version="1.0" encoding="utf-8"?>
<!-- Generator: Adobe Illustrator 23.1.0, SVG Export Plug-In . SVG Version: 6.00 Build 0)  -->
<svg version="1.1" id="Layer_1" xmlns="http://www.w3.org/2000/svg" xmlns:xlink="http://www.w3.org/1999/xlink" x="0px" y="0px"
	 viewBox="0 0 383 508.7" style="enable-background:new 0 0 383 508.7;" xml:space="preserve">
<style type="text/css">
	.st0{fill:#2B1008;}
	.st1{fill:#3F2016;}
	.st2{fill:#F0BCA6;}
	.st3{fill:#E2A58A;}
	.st4{fill:#E8E8E8;}
	.st5{clip-path:url(#SVGID_2_);fill:#C2C6CC;}
	.st6{fill:#F8A814;}
	.st7{fill:#F8B53C;}
	.st8{fill:#F9CD45;}
	.st9{fill:#D8C58F;}
	.st10{fill:#F7E8A9;}
	.st11{fill:#4C350C;}
	.st12{fill:#825308;}
	.st13{fill:#3A1E0B;}
	.st14{fill:#868686;}
</style>
<g>
	<ellipse class="st0" cx="74" cy="241.3" rx="32.2" ry="36.1"/>
	<ellipse class="st0" cx="102.1" cy="269" rx="32.2" ry="36.1"/>
	<ellipse class="st0" cx="316.9" cy="234.5" rx="32.2" ry="36.1"/>
	<ellipse class="st0" cx="286.8" cy="269" rx="32.2" ry="36.1"/>
	<circle class="st1" cx="197.5" cy="174.1" r="142.2"/>
	<path class="st2" d="M371.7,481.2c-0.1-40.5-16.1-78.7-45.1-107.5c-28.8-28.7-66.9-44.4-107.3-44.4c-0.2,0-0.3,0-0.5,0l-49.9,0.2
		c-40.5,0.1-78.7,16.1-107.5,45.1s-44.3,67.2-44.2,107.7l0.1,19c0,3.8,3.2,7,7,7h340.6c1.9,0,3.6-0.7,4.9-2s2-3.1,2-4.9L371.7,481.2
		z"/>
	<path class="st3" d="M371.7,481.2c-0.1-40.5-16.1-78.7-45.1-107.5c-28.8-28.7-66.9-44.4-107.3-44.4c-0.2,0-0.3,0-0.5,0l-17.1,0.1
		c38.9,1,75.5,16.6,103.3,44.3c28.9,28.7,45,66.9,45.1,107.5l0.1,20c0,1.9-0.7,3.6-2,4.9s-3.1,2-4.9,2h21.4c1.9,0,3.6-0.7,4.9-2
		s2-3.1,2-4.9L371.7,481.2z"/>
	<g>
		<g>
			<path id="XMLID_41_" class="st4" d="M371.7,480.3c-0.1-40.2-16.1-78.2-45.1-106.7c-8.6-8.5-18.1-15.9-28.2-22.1
				c-7.1,28-37.4,50.4-76.8,57.7c-8.8,1.7-18,2.5-27.5,2.5s-18.5-0.8-27.4-2.4c-39.2-7.1-69.5-29.5-76.9-57.2
				c-10.2,6.2-19.6,13.7-28.3,22.3c-28.7,28.7-44.5,66.8-44.4,107l0.1,21.8c0.1,2.5,1.4,4.7,3.3,6H366c1.3-0.3,2.5-1,3.5-1.9
				c1.4-1.4,2.1-3.2,2.1-5.2L371.7,480.3z"/>
		</g>
		<g>
			<g>
				<g>
					<defs>
						<path id="SVGID_1_" d="M371.7,480.3c-0.1-40.2-16.1-78.2-45.1-106.7c-8.6-8.5-18.1-15.9-28.2-22.1
							c-7.1,28-37.4,50.4-76.8,57.7c-8.8,1.7-18,2.5-27.5,2.5s-18.5-0.8-27.4-2.4c-39.2-7.1-69.5-29.5-76.9-57.2
							c-10.2,6.2-19.6,13.7-28.3,22.3c-28.7,28.7-44.5,66.8-44.4,107l0.1,21.8c0.1,2.5,1.4,4.7,3.3,6H366c1.3-0.3,2.5-1,3.5-1.9
							c1.4-1.4,2.1-3.2,2.1-5.2L371.7,480.3z"/>
					</defs>
					<clipPath id="SVGID_2_">
						<use xlink:href="#SVGID_1_"  style="overflow:visible;"/>
					</clipPath>
					<path class="st5" d="M373.8,481.5c-0.1-40.2-16.1-78.2-45.1-106.7c-28.8-28.5-66.9-44.1-107.3-44.1c-0.2,0-0.3,0-0.5,0l-18,0.1
						c38.9,1,75.4,16.5,103.3,44c28.9,28.6,44.9,66.5,45.1,106.7l0.1,21.8c0,1.9-0.7,3.8-2.1,5.2c-0.9,0.9-2.1,1.7-3.5,1.9h22.5
						c1.3-0.3,2.5-1,3.5-1.9c1.4-1.4,2.1-3.2,2.1-5.2L373.8,481.5z"/>
				</g>
			</g>
		</g>
	</g>
	<path class="st6" d="M168.4,497c-0.1-0.3-0.1-0.5-0.1-0.7c0.1-1,1.1-1.8,2.1-1.7c10.3,0.6,21-0.7,31.6-3.7
		c8.6-2.4,17.2-5.8,25.7-10.4c14.4-7.7,23.4-15.7,23.5-15.8c0.8-0.7,2-0.7,2.8-0.1c0.7,0.6,0.6,1.9-0.1,2.5
		c-0.4,0.4-9.5,8.4-24.3,16.3c-8.7,4.6-17.7,8.3-26.5,10.8c-11.1,3.1-22.3,4.4-32.9,3.8C169.2,498.1,168.7,497.6,168.4,497z"/>
	<path class="st7" d="M256,484.4c0.8-0.4,1.2-1.2,1.1-2c-0.1-0.3-1.5-6.7-6.7-8.8c-2.5-1-4.8-1.2-6.8-0.7c-1.9,0.5-3.5,1.8-4.5,3.5
		c-0.8,1.6-0.9,3.2-0.5,4.6c0.1,0.2,0.2,0.4,0.3,0.6c0.8,1.7,2.5,3.1,5,4C249.2,487.7,255.7,484.6,256,484.4z"/>
	<path class="st8" d="M244.2,474.8c1.5-1.4,2.3-3.4,2.7-6c0.6-5.4-4.5-9.7-4.6-9.9c-0.6-0.6-1.6-0.6-2.4-0.1c-0.3,0.2-6.4,4.1-7,9.4
		c-0.2,1.9-0.1,3.3,0.4,4.7c0.2,0.6,0.5,1,0.7,1.5c1.1,1.5,2.8,2.4,4.8,2.5C240.8,476.9,242.7,476.2,244.2,474.8z"/>
	<path class="st8" d="M240.4,493.4c0.8-0.4,1.2-1.2,1.1-2c-0.1-0.3-1.5-6.7-6.7-8.8c-2.5-1-4.8-1.2-6.8-0.7
		c-1.9,0.5-3.5,1.8-4.5,3.5c-0.8,1.6-0.9,3.2-0.5,4.6c0.1,0.2,0.2,0.4,0.3,0.6c0.8,1.7,2.5,3.1,5,4
		C233.6,496.7,240.2,493.5,240.4,493.4z"/>
	<path class="st7" d="M228.6,483.7c1.5-1.4,2.3-3.4,2.7-6c0.6-5.4-4.5-9.7-4.6-9.9c-0.6-0.6-1.6-0.6-2.4-0.1c-0.3,0.2-6.4,4.1-7,9.4
		c-0.2,1.9-0.1,3.3,0.4,4.7c0.2,0.6,0.5,1,0.7,1.5c1.1,1.5,2.8,2.4,4.8,2.5C225.1,485.9,227.1,485.1,228.6,483.7z"/>
	<path class="st9" d="M149.6,333.1c1.4,1.9,1.9,4.4,1.3,6.6c-3.2,12.4-4.7,25.2-4.6,38c0.1,25.1,12.4,53.6,33.8,78.3
		c21.3,24.6,48.4,41.7,74.5,47.2c3.5,0.7,5.9,4,5.9,7.6h22.3c0-3.3-2.1-6.4-5.2-7.3c-0.2-0.1-0.5-0.1-0.6-0.2
		c-26-5.5-53.1-22.5-74.5-47.2s-33.7-53.2-33.8-78.3c0-12.9,1.6-25.7,4.6-38c0.6-2.3,0.1-4.7-1.3-6.6c-1.4-1.9-3.5-3-5.7-3h-3.4
		c-3.7,0-7.3,0.2-10.9,0.5c-0.2,0-0.3,0-0.5,0c-0.5,0-1,0.1-1.5,0.1c-0.9,0.1-1.8,0.2-2.7,0.3C148.1,331.6,148.9,332.3,149.6,333.1z
		"/>
	<path class="st10" d="M254.4,503.1c-26-5.5-53.1-22.5-74.5-47.2s-33.7-53.2-33.8-78.3c-0.1-12.8,1.5-25.6,4.6-38
		c0.6-2.2,0.1-4.7-1.3-6.6c-0.6-0.8-1.5-1.6-2.4-2c0.9-0.1,1.8-0.2,2.7-0.3c-35.6,3.2-68.7,19.4-94.4,46.2
		C26.7,407,11,446.6,11.2,488.8l0.1,22h249C260.4,507.1,257.9,503.8,254.4,503.1z"/>
	<path class="st6" d="M260.5,453.9c-0.2-0.1-0.4-0.3-0.6-0.6c-0.6-0.8-0.3-2,0.6-2.7c8.1-6.3,15.3-14.3,21.4-23.5
		c4.9-7.4,9.2-15.7,12.6-24.7c5.8-15.2,7.3-27.2,7.3-27.3c0.1-1,1-1.9,2-1.9s1.7,0.9,1.6,2c-0.1,0.5-1.6,12.5-7.6,28.3
		c-3.5,9.3-8,17.8-13,25.5c-6.4,9.6-13.9,17.9-22.3,24.5C261.8,454.1,261,454.2,260.5,453.9z"/>
	<path class="st7" d="M318.3,386.9c0.4-0.8,0.1-1.8-0.6-2.2c-0.2-0.2-5.6-4.1-10.8-2.2c-2.5,0.8-4.5,2.2-5.6,3.9
		c-1.1,1.7-1.6,3.6-1.1,5.6c0.4,1.7,1.4,3.1,2.7,3.8c0.2,0.1,0.4,0.2,0.6,0.3c1.8,0.7,3.9,0.6,6.5-0.3
		C315.4,394,318.2,387.2,318.3,386.9z"/>
	<path class="st8" d="M303,387.5c0.2-2-0.5-4.2-1.9-6.3c-3.1-4.5-9.7-4.5-10-4.5c-0.8,0-1.6,0.6-1.9,1.5c-0.1,0.3-2.1,7.2,0.8,11.7
		c1,1.5,2.1,2.6,3.3,3.2c0.6,0.3,1,0.5,1.6,0.6c1.8,0.5,3.7,0,5.3-1.3C301.9,391.3,302.9,389.4,303,387.5z"/>
	<path class="st8" d="M312.4,403.9c0.4-0.8,0.1-1.8-0.6-2.2c-0.2-0.2-5.6-4.1-10.8-2.2c-2.5,0.8-4.5,2.2-5.6,3.9
		c-1.1,1.7-1.6,3.6-1.1,5.6c0.4,1.7,1.4,3.1,2.7,3.8c0.2,0.1,0.4,0.2,0.6,0.3c1.8,0.7,3.9,0.6,6.5-0.3
		C309.4,410.8,312.3,404.2,312.4,403.9z"/>
	<path class="st7" d="M297.2,404.4c0.2-2-0.5-4.2-1.9-6.3c-3.1-4.5-9.7-4.5-10-4.5c-0.8,0-1.6,0.6-1.9,1.5
		c-0.1,0.3-2.1,7.2,0.8,11.7c1,1.5,2.1,2.6,3.3,3.2c0.6,0.3,1,0.5,1.6,0.6c1.8,0.5,3.7,0,5.3-1.3C296,408.2,297,406.4,297.2,404.4z"
		/>
	<path class="st7" d="M302.9,421.1c-0.2-0.2-4.6-5.1-10.1-4.3c-2.6,0.4-4.6,1.4-6.1,2.9c-1.4,1.5-2.1,3.3-2,5.4c0.1,2,1,3.7,2.5,4.7
		c0.1,0.1,0.3,0.2,0.4,0.2c1.5,0.8,3.5,1.1,5.9,0.7c5.5-0.8,9.3-7,9.5-7.2C303.6,422.7,303.5,421.8,302.9,421.1z"/>
	<g>
		<path class="st8" d="M288.2,421.1c0.5-2,0.3-4.3-0.8-6.7c-2.1-5.1-8.7-6.3-9-6.3c-0.8-0.2-1.7,0.3-2,1.1
			c-0.1,0.3-3.3,6.9-1.1,11.9c0.9,2.2,2.2,3.8,3.7,4.6c0.1,0.1,0.3,0.1,0.4,0.2c1.7,0.7,3.5,0.6,5.3-0.3
			C286.5,424.7,287.7,423.1,288.2,421.1z"/>
		<path class="st8" d="M291.5,441.1c-0.2-0.3-3.6-6-9.1-6.2c-2.6-0.1-4.7,0.5-6.4,1.7c-1.6,1.2-2.6,3-2.9,5s0.4,3.9,1.7,5.2
			c0.4,0.4,0.8,0.7,1.4,1c1.2,0.6,2.7,1,4.5,1.1c5.4,0.2,10.2-5.3,10.4-5.5C291.9,442.7,292,441.8,291.5,441.1z"/>
		<path class="st8" d="M277.3,438.3c0.8-1.9,0.9-4.2,0.4-6.9c-1.2-5.5-7.3-7.9-7.6-8c-0.7-0.3-1.7,0-2.1,0.7
			c-0.2,0.3-4.4,6.2-3.2,11.7c0.6,2.6,1.7,4.5,3.2,5.7c0.2,0.1,0.4,0.3,0.6,0.4c1.4,0.7,3,0.8,4.6,0.3
			C275,441.5,276.5,440.1,277.3,438.3z"/>
		<path class="st8" d="M311.3,367.8c0.6-5.7-4.2-10.3-4.4-10.5c-0.6-0.6-1.5-0.6-2.2-0.1c-0.3,0.2-6,4.5-6.6,10.2
			c-0.3,2.8,0.1,5,1.1,6.6c0.5,0.8,1.2,1.4,1.9,1.9c0.7,0.5,1.7,0.6,2.6,0.6c1.9,0.1,3.7-0.7,5-2.2
			C310.2,372.8,311,370.6,311.3,367.8z"/>
	</g>
	
		<ellipse transform="matrix(0.1602 -0.9871 0.9871 0.1602 -229.1295 635.4905)" class="st11" cx="258.9" cy="452.4" rx="16" ry="16"/>
	<circle class="st12" cx="258.6" cy="452.2" r="9.8"/>
	<path class="st2" d="M92.1,187.3L92.1,187.3c-21,0.1-38,21.3-38,47.4c0,12.6,4,24.5,11.2,33.4c7.1,8.9,16.7,13.7,26.8,13.7h0.1
		c21-0.1,37.9-21.3,37.9-47.4C130,208.4,112.9,187.3,92.1,187.3z"/>
	<path class="st2" d="M299.1,186.5L299.1,186.5c-21.7,0.1-39.2,21.3-39.1,47.4c0,12.6,4.2,24.5,11.6,33.4
		c7.4,8.9,17.2,13.7,27.6,13.7h0.1c21.6-0.1,39.1-21.3,39-47.4C338.3,207.6,320.7,186.5,299.1,186.5z"/>
	<path class="st2" d="M301.5,169.3c-0.1-23-16.9-41.7-37.5-41.7H126.8c-10,0-19.5,4.4-26.5,12.3c-7,8-10.9,18.5-10.9,29.7l0.2,81.4
		c0.2,65.3,47.8,118.2,106.2,118.2h0.4c58.5-0.2,106-53.5,105.8-118.9L301.5,169.3z"/>
	<path class="st3" d="M196.3,321.2c-9.1,0-17.8-3.3-24.5-9.6c-2.9-2.6-3.1-7-0.5-9.8c2.6-2.9,7-3.1,9.8-0.5c4.1,3.8,9.5,5.8,15,5.8
		h0.1c5.7,0,10.9-2.1,15.1-5.9c2.9-2.6,7.2-2.4,9.8,0.4c2.6,2.9,2.4,7.2-0.4,9.8C214.2,317.6,205.5,321.1,196.3,321.2
		C196.4,321.2,196.3,321.2,196.3,321.2z"/>
	<path class="st13" d="M154.6,207.4c9.1,0,17.8,1.7,24.5,4.7c2.9,1.3,3.1,3.5,0.5,4.9s-7,1.5-9.8,0.2c-4.1-1.9-9.5-3-15-3h-0.1
		c-5.7,0-10.9,1-15.1,3c-2.9,1.3-7.2,1.2-9.8-0.2s-2.4-3.6,0.4-4.9C136.7,209.1,145.4,207.3,154.6,207.4L154.6,207.4z"/>
	<path class="st13" d="M241.6,207.4c9.1,0,17.8,1.7,24.5,4.7c2.9,1.3,3.1,3.5,0.5,4.9c-2.6,1.4-7,1.5-9.8,0.2c-4.1-1.9-9.5-3-15-3
		h-0.1c-5.7,0-10.9,1-15.1,3c-2.9,1.3-7.2,1.2-9.8-0.2s-2.4-3.6,0.4-4.9C223.7,209.1,232.4,207.3,241.6,207.4
		C241.5,207.4,241.6,207.4,241.6,207.4z"/>
	<path class="st14" d="M167.2,243.7c0-6.5-5.3-11.7-11.8-11.7s-11.7,5.3-11.7,11.8s5.3,11.7,11.8,11.7S167.3,250.2,167.2,243.7z"/>
	<path class="st14" d="M250.2,243.6c0-6.5-5.3-11.8-11.8-11.7c-6.5,0-11.8,5.3-11.7,11.8c0,6.5,5.3,11.8,11.8,11.7
		C245,255.2,250.2,250,250.2,243.6z"/>
	<circle class="st1" cx="140.6" cy="74" r="70.7"/>
	<circle class="st1" cx="248.1" cy="69.8" r="67.9"/>
	<circle class="st1" cx="316" cy="168.8" r="28.1"/>
	<circle class="st1" cx="320.8" cy="198.3" r="23.5"/>
	<circle class="st1" cx="301.8" cy="128.2" r="43.9"/>
	<circle class="st1" cx="197.5" cy="102.1" r="55.8"/>
	<circle class="st1" cx="280" cy="122.9" r="47.7"/>
	<circle class="st1" cx="274.4" cy="111.2" r="47.7"/>
	<circle class="st1" cx="119.9" cy="128.5" r="44.2"/>
	
		<ellipse transform="matrix(8.247994e-02 -0.9966 0.9966 8.247994e-02 -104.7867 213.5857)" class="st1" cx="63.6" cy="163.7" rx="34.6" ry="34.6"/>
	<circle class="st1" cx="58" cy="201.3" r="28.7"/>
	<circle class="st1" cx="72.5" cy="117.9" r="44"/>
</g>
</svg>
