<?xml version="1.0" encoding="utf-8"?>
<!-- Generator: Adobe Illustrator 23.1.0, SVG Export Plug-In . SVG Version: 6.00 Build 0)  -->
<svg version="1.1" id="Layer_1" xmlns="http://www.w3.org/2000/svg" xmlns:xlink="http://www.w3.org/1999/xlink" x="0px" y="0px"
	 viewBox="0 0 383 508.7" style="enable-background:new 0 0 383 508.7;" xml:space="preserve">
<style type="text/css">
	.st0{fill:#9B3710;}
	.st1{fill:#842610;}
	.st2{fill:#F0BCA6;}
	.st3{fill:#E2A58A;}
	.st4{fill:#E27A84;}
	.st5{clip-path:url(#SVGID_2_);fill:#9E4653;}
	.st6{fill:#F8A814;}
	.st7{fill:#F8B53C;}
	.st8{fill:#F9CD45;}
	.st9{fill:#934161;}
	.st10{fill:#F4F0EF;}
	.st11{fill:#E6B09A;}
	.st12{fill:#868686;}
	.st13{fill:#4C350C;}
	.st14{fill:#825308;}
	.st15{clip-path:url(#SVGID_4_);fill:#9E4653;}
	.st16{clip-path:url(#SVGID_6_);fill:#9E4653;}
</style>
<path class="st0" d="M-3735.4,1112.3c-28.6-18.6-66.5-28.7-106.7-28.7s-78,10.2-106.7,28.7c-28.6,18.6-44.4,43.1-44.4,69.1v139.8
	c0,2.4,3.1,4.4,6.8,4.4h288.3c3.8,0,6.8-2,6.8-4.4v-139.8C-3691.2,1155.4-3706.9,1130.9-3735.4,1112.3z"/>
<ellipse class="st1" cx="-3956.8" cy="1322.6" rx="38.9" ry="33.2"/>
<ellipse class="st1" cx="-3727.6" cy="1321.7" rx="38.9" ry="33.2"/>
<path class="st2" d="M-3953.8,1233.5c-0.1,0-0.1,0-0.2,0c-25.4,0.1-46.1,20.8-46,46.3c0,12.3,4.9,23.9,13.6,32.6
	s20.3,13.4,32.5,13.4h0.2c25.4-0.1,46.1-20.8,46-46.3S-3928.5,1233.5-3953.8,1233.5z"/>
<path class="st2" d="M-3671.7,1520.5c-0.1-39.6-15.8-76.9-44-104.9s-65.4-43.4-104.7-43.4c-0.2,0-0.3,0-0.5,0l-48.7,0.2
	c-39.6,0.1-76.9,15.8-104.9,44c-28.1,28.2-43.5,65.6-43.4,105.2l0.1,18.6c0,3.7,3.1,6.8,6.8,6.8h332.5c1.8,0,3.5-0.7,4.8-2
	s2-3,2-4.8L-3671.7,1520.5z"/>
<path class="st3" d="M-3671.7,1520.5c-0.1-39.6-15.8-76.9-44-104.9s-65.4-43.4-104.7-43.4c-0.2,0-0.3,0-0.5,0l-16.7,0.1
	c37.9,1,73.7,16.2,100.9,43.3c28.2,28.1,43.9,65.4,44,104.9l0.1,19.6c0,1.8-0.7,3.5-2,4.8s-3,2-4.8,2h20.9c1.8,0,3.5-0.7,4.8-2
	s2-3,2-4.8V1520.5z"/>
<g>
	<g>
		<path id="XMLID_2_" class="st4" d="M-3671.8,1523.3c-0.1-39.3-15.8-76.3-44-104.2c-8.4-8.3-17.7-15.5-27.5-21.5
			c-7,27.3-36.5,49.3-75,56.3c-8.6,1.6-17.6,2.4-26.9,2.4c-9.2,0-18.1-0.8-26.7-2.4c-38.3-7-67.9-28.8-75.1-55.9
			c-10,6.1-19.1,13.4-27.6,21.8c-28.1,28.1-43.5,65.2-43.4,104.5l0.1,21.3c0.1,2.4,1.4,4.6,3.3,5.9h337.3c1.3-0.3,2.4-1,3.4-1.9
			c1.4-1.4,2.1-3.2,2.1-5.1L-3671.8,1523.3z"/>
	</g>
	<g>
		<g>
			<g>
				<g>
					<g>
						<g>
							<defs>
								<path id="SVGID_1_" d="M-3671.8,1523.3c-0.1-39.3-15.8-76.3-44-104.2c-8.4-8.3-17.7-15.5-27.5-21.5
									c-7,27.3-36.5,49.3-75,56.3c-8.6,1.6-17.6,2.4-26.9,2.4c-9.2,0-18.1-0.8-26.7-2.4c-38.3-7-67.9-28.8-75.1-55.9
									c-10,6.1-19.1,13.4-27.6,21.8c-28.1,28.1-43.5,65.2-43.4,104.5l0.1,21.3c0.1,2.4,1.4,4.6,3.3,5.9h337.3
									c1.3-0.3,2.4-1,3.4-1.9c1.4-1.4,2.1-3.2,2.1-5.1L-3671.8,1523.3z"/>
							</defs>
							<clipPath id="SVGID_2_">
								<use xlink:href="#SVGID_1_"  style="overflow:visible;"/>
							</clipPath>
							<path class="st5" d="M-3670.8,1523.9c-0.1-39.3-15.8-76.3-44-104.2c-28.2-27.8-65.4-43.1-104.7-43.1c-0.2,0-0.3,0-0.5,0
								l-17.6,0.1c37.9,1,73.6,16.1,100.9,43c28.2,27.9,43.8,64.9,44,104.2l0.1,21.3c0,1.9-0.7,3.7-2.1,5.1
								c-0.9,0.9-2.1,1.6-3.4,1.9h22c1.3-0.3,2.4-1,3.4-1.9c1.4-1.4,2.1-3.2,2.1-5.1L-3670.8,1523.9z"/>
						</g>
					</g>
				</g>
			</g>
		</g>
	</g>
</g>
<g>
	<path class="st6" d="M-3872,1534.8c-0.1-0.3-0.1-0.5-0.1-0.7c0.1-1,1.1-1.7,2.1-1.6c10,0.5,20.5-0.7,30.9-3.6
		c8.4-2.4,16.8-5.7,25.1-10.1c14-7.5,22.8-15.3,22.9-15.4c0.8-0.7,2-0.7,2.7-0.1s0.6,1.8-0.1,2.4c-0.4,0.4-9.2,8.2-23.7,15.9
		c-8.5,4.5-17.3,8.1-25.9,10.5c-10.9,3-21.7,4.3-32.1,3.7C-3871.2,1535.9-3871.8,1535.5-3872,1534.8z"/>
	<path class="st7" d="M-3786.5,1522.5c0.8-0.4,1.2-1.2,1.1-2c-0.1-0.3-1.4-6.5-6.5-8.6c-2.4-1-4.7-1.2-6.6-0.7
		c-1.9,0.5-3.4,1.7-4.3,3.4c-0.8,1.5-0.9,3.1-0.5,4.5c0.1,0.2,0.2,0.4,0.3,0.6c0.8,1.6,2.4,3,4.9,3.9
		C-3793.1,1525.8-3786.8,1522.7-3786.5,1522.5z"/>
	<path class="st8" d="M-3798.1,1513.1c1.4-1.4,2.3-3.3,2.6-5.9c0.6-5.3-4.3-9.5-4.5-9.7c-0.6-0.5-1.5-0.5-2.4-0.1
		c-0.3,0.2-6.2,4-6.9,9.1c-0.2,1.8-0.1,3.3,0.4,4.6c0.2,0.5,0.5,1,0.7,1.4c1.1,1.4,2.7,2.4,4.7,2.4
		C-3801.4,1515.2-3799.5,1514.5-3798.1,1513.1z"/>
	<path class="st8" d="M-3801.7,1531.2c0.8-0.4,1.2-1.2,1.1-2c-0.1-0.3-1.4-6.5-6.5-8.6c-2.4-1-4.7-1.2-6.6-0.7
		c-1.9,0.5-3.4,1.7-4.3,3.4c-0.8,1.5-0.9,3.1-0.5,4.5c0.1,0.2,0.2,0.4,0.3,0.6c0.8,1.6,2.4,3,4.9,3.9
		C-3808.3,1534.5-3802,1531.4-3801.7,1531.2z"/>
	<path class="st7" d="M-3813.3,1521.9c1.4-1.4,2.3-3.3,2.6-5.9c0.6-5.3-4.3-9.5-4.5-9.7c-0.6-0.5-1.5-0.5-2.4-0.1
		c-0.3,0.2-6.2,4-6.9,9.1c-0.2,1.8-0.1,3.3,0.4,4.6c0.2,0.5,0.5,1,0.7,1.4c1.1,1.4,2.7,2.4,4.7,2.4
		C-3816.6,1523.9-3814.7,1523.3-3813.3,1521.9z"/>
	<path class="st7" d="M-3819.7,1537.9c0-0.3-0.2-6.8-4.7-9.6c-2.2-1.4-4.3-2-6.3-1.8s-3.7,1.2-4.9,2.7s-1.6,3.3-1.1,5.1
		c0,0.2,0.1,0.3,0.1,0.5c0.5,1.6,1.9,3.1,3.9,4.3c4.5,2.9,11.3,0.8,11.7,0.7C-3820.3,1539.5-3819.7,1538.7-3819.7,1537.9z"/>
	<g>
		<path class="st8" d="M-3830.6,1528.5c1.6-1.2,2.9-3,3.7-5.4c1.6-5.2-2.4-10.1-2.5-10.4c-0.5-0.6-1.4-0.8-2.3-0.5
			c-0.3,0.1-6.8,2.9-8.4,8.1c-0.7,2.3-0.8,4.3-0.2,5.8c0.1,0.1,0.1,0.3,0.2,0.4c0.7,1.6,2.2,2.7,4.2,3.2
			C-3834.1,1530-3832.2,1529.6-3830.6,1528.5z"/>
		<path class="st8" d="M-3840.8,1545.3c0.1-0.3,1.2-6.8-2.7-10.3c-1.8-1.7-3.8-2.7-5.8-2.8c-1.9-0.2-3.8,0.5-5.3,1.9
			c-1.4,1.4-2.3,3.1-2.1,4.9c0,0.5,0.2,1.1,0.4,1.6c0.5,1.3,1.4,2.5,2.6,3.7c3.9,3.6,10.9,2.6,11.1,2.6
			C-3841.7,1546.8-3841,1546.1-3840.8,1545.3z"/>
		<path class="st8" d="M-3849.6,1534.1c1.8-0.9,3.3-2.4,4.6-4.8c2.6-4.8-0.4-10.5-0.5-10.8c-0.4-0.7-1.3-1.1-2.1-0.8
			c-0.3,0.1-7.2,1.7-9.8,6.6c-1.3,2.4-1.6,4.4-1.3,6.2c0.1,0.2,0.1,0.5,0.2,0.6c0.5,1.4,1.6,2.5,3.3,3.2
			C-3853.3,1535-3851.4,1534.9-3849.6,1534.1z"/>
		<path class="st8" d="M-3779.4,1504c4.2-3.8,3.5-10.2,3.5-10.5c-0.1-0.8-0.7-1.4-1.6-1.4c-0.3,0-7.2-0.5-11.4,3.3
			c-2,1.8-3.2,3.7-3.4,5.5c-0.2,0.9-0.1,1.8,0.3,2.6c0.3,0.8,0.8,1.5,1.4,2.2c1.4,1.3,3.3,1.8,5.2,1.5
			C-3783.4,1506.9-3781.4,1505.8-3779.4,1504z"/>
	</g>
</g>
<path class="st9" d="M-3887.6,1377.6c1.4,1.8,1.8,4.3,1.3,6.4c-3.1,12.1-4.6,24.6-4.5,37.1c0.1,24.5,12.1,52.3,33,76.4
	c20.8,24,47.3,40.7,72.7,46.1c3.4,0.7,5.8,3.9,5.8,7.4h21.8c0-3.3-2.1-6.2-5.1-7.2c-0.2-0.1-0.5-0.1-0.6-0.2
	c-25.3-5.3-51.9-22-72.7-46.1s-32.9-52-33-76.4c0-12.6,1.5-25.1,4.5-37.1c0.5-2.3,0.1-4.6-1.3-6.4c-1.4-1.8-3.4-2.9-5.6-2.9h-3.3
	c-3.6,0-7.2,0.2-10.7,0.5c-0.2,0-0.3,0-0.5,0c-0.5,0-1,0.1-1.4,0.1c-0.9,0.1-1.7,0.2-2.6,0.3
	C-3889.1,1376-3888.3,1376.8-3887.6,1377.6z"/>
<path class="st10" d="M-3785.3,1542.1c-25.4-5.3-51.9-22-72.7-46.1s-32.9-52-33-76.4c-0.1-12.5,1.4-25,4.5-37.1
	c0.5-2.2,0.1-4.6-1.3-6.4c-0.6-0.8-1.4-1.5-2.4-2c0.9-0.1,1.7-0.2,2.6-0.3c-34.8,3.2-67.1,18.9-92.2,45.1
	c-27.9,29.4-43.3,68.1-43.1,109.3l0.1,21.5h243.1C-3779.4,1546-3781.9,1542.8-3785.3,1542.1z"/>
<path class="st2" d="M-3734.8,1232.7c-0.1,0-0.1,0-0.2,0c-25.4,0.1-46.1,20.8-46,46.3c0,12.3,4.9,23.9,13.6,32.6
	s20.3,13.4,32.5,13.4h0.2c25.4-0.1,46.1-20.8,46-46.3C-3688.8,1253.3-3709.5,1232.7-3734.8,1232.7z"/>
<path class="st2" d="M-3738.4,1215.9c-0.1-22.5-16.7-40.7-36.9-40.7h-135.4c-9.9,0-19.2,4.3-26.2,12c-7,7.8-10.8,18-10.8,29
	l0.2,79.5c0.2,63.7,47.1,115.4,104.7,115.4h0.4c57.7-0.2,104.5-52.2,104.3-116.1L-3738.4,1215.9z"/>
<path class="st11" d="M-3738.3,1215.9c-0.1-22.5-15.6-40.7-34.6-40.7h-16.9c19,0,34.6,18.3,34.6,40.7l0.2,79
	c0.2,60.6-39.4,110.5-89.6,115.7c2.8,0.3,5.6,0.5,8.4,0.5h0.3c54-0.2,97.9-52.2,97.8-116.1L-3738.3,1215.9z"/>
<ellipse transform="matrix(0.9333 -0.3592 0.3592 0.9333 -713.8167 -1344.028)" class="st1" cx="-3973.9" cy="1249" rx="28.2" ry="41.5"/>
<ellipse transform="matrix(0.9333 -0.3592 0.3592 0.9333 -712.6904 -1346.1694)" class="st0" cx="-3979.1" cy="1244.9" rx="28.2" ry="41.5"/>
<path class="st3" d="M-3843.1,1364.2c-8.9,0-17.4-3.3-23.9-9.3c-2.8-2.5-3-6.9-0.5-9.6c2.5-2.8,6.9-3,9.6-0.5
	c4,3.7,9.2,5.7,14.7,5.7h0.1c5.5,0,10.7-2.1,14.8-5.8c2.8-2.5,7.1-2.4,9.6,0.4s2.4,7.1-0.4,9.6
	C-3825.6,1360.7-3834.1,1364.1-3843.1,1364.2C-3843,1364.2-3843,1364.2-3843.1,1364.2z"/>
<path class="st0" d="M-3883.7,1253.1c8.9,0,17.4,1.6,23.9,4.6c2.8,1.3,3,3.4,0.5,4.8s-6.9,1.4-9.6,0.2c-4-1.8-9.2-2.9-14.7-2.9h-0.1
	c-5.5,0-10.7,1-14.8,2.9c-2.8,1.3-7.1,1.2-9.6-0.2s-2.4-3.5,0.4-4.8C-3901.2,1254.7-3892.7,1253-3883.7,1253.1
	C-3883.8,1253.1-3883.7,1253.1-3883.7,1253.1z"/>
<ellipse class="st1" cx="-3948" cy="1206.8" rx="46.2" ry="37.8"/>
<path class="st0" d="M-3798.9,1253.1c8.9,0,17.4,1.6,23.9,4.6c2.8,1.3,3,3.4,0.5,4.8s-6.9,1.4-9.6,0.2c-4-1.8-9.2-2.9-14.7-2.9h-0.1
	c-5.5,0-10.7,1-14.8,2.9c-2.8,1.3-7.1,1.2-9.6-0.2c-2.5-1.4-2.4-3.5,0.4-4.8C-3816.4,1254.7-3807.9,1253-3798.9,1253.1
	L-3798.9,1253.1z"/>
<path class="st12" d="M-3871.4,1288.6c0-6.3-5.2-11.4-11.5-11.4s-11.4,5.2-11.4,11.5s5.2,11.4,11.5,11.4
	S-3871.4,1294.9-3871.4,1288.6z"/>
<path class="st12" d="M-3790.4,1288.3c0-6.3-5.2-11.5-11.5-11.4c-6.3,0-11.5,5.2-11.4,11.5c0,6.3,5.2,11.5,11.5,11.4
	C-3795.6,1299.8-3790.4,1294.7-3790.4,1288.3z"/>
<ellipse transform="matrix(0.3592 -0.9333 0.9333 0.3592 -3552.2952 -2675.3281)" class="st1" cx="-3724.3" cy="1249.1" rx="41.5" ry="28.2"/>
<ellipse transform="matrix(0.3592 -0.9333 0.9333 0.3592 -3544.0354 -2677.4436)" class="st0" cx="-3721.7" cy="1242" rx="41.5" ry="28.2"/>
<ellipse class="st1" cx="-3744.2" cy="1200.7" rx="46.2" ry="37.8"/>
<ellipse class="st0" cx="-3746.1" cy="1183.2" rx="47.3" ry="47.3"/>
<ellipse class="st1" cx="-3767.8" cy="1175.1" rx="46.2" ry="37.8"/>
<ellipse class="st0" cx="-3767.8" cy="1167.9" rx="45.4" ry="32.9"/>
<ellipse class="st0" cx="-3952.5" cy="1194.2" rx="44.4" ry="44.4"/>
<ellipse class="st1" cx="-3919.5" cy="1169.4" rx="46.2" ry="37.8"/>
<ellipse class="st1" cx="-3848.2" cy="1153.9" rx="71.3" ry="54.3"/>
<ellipse class="st0" cx="-3842.1" cy="1141.5" rx="74.3" ry="53.6"/>
<ellipse class="st0" cx="-3919.5" cy="1162.2" rx="45.4" ry="32.9"/>
<g>
	<path class="st6" d="M-3782.2,1492.7c-0.2-0.1-0.4-0.3-0.5-0.5c-0.5-0.8-0.3-2,0.5-2.6c7.9-6.2,14.9-13.9,20.9-22.9
		c4.8-7.2,9-15.3,12.3-24.1c5.7-14.8,7.2-26.5,7.2-26.6c0.1-1,1-1.8,2-1.8s1.6,0.9,1.5,2c-0.1,0.5-1.5,12.2-7.4,27.6
		c-3.4,9.1-7.8,17.4-12.7,24.9c-6.2,9.4-13.6,17.5-21.8,23.9C-3780.8,1493-3781.5,1493-3782.2,1492.7z"/>
	<path class="st7" d="M-3725.7,1427.4c0.4-0.8,0.1-1.7-0.5-2.2c-0.2-0.2-5.4-4-10.6-2.2c-2.4,0.8-4.3,2.2-5.4,3.8s-1.5,3.5-1.1,5.4
		c0.4,1.6,1.4,3,2.6,3.7c0.2,0.1,0.4,0.2,0.6,0.3c1.7,0.7,3.8,0.6,6.3-0.3C-3728.6,1434.2-3725.8,1427.7-3725.7,1427.4z"/>
	<path class="st8" d="M-3740.5,1427.9c0.2-2-0.5-4.1-1.9-6.2c-3-4.3-9.5-4.3-9.8-4.3c-0.8,0-1.5,0.6-1.8,1.4
		c-0.1,0.3-2.1,7.1,0.8,11.4c1,1.4,2.1,2.5,3.3,3.2c0.5,0.3,1,0.5,1.5,0.6c1.7,0.5,3.6,0,5.2-1.3
		C-3741.7,1431.5-3740.7,1429.8-3740.5,1427.9z"/>
	<path class="st8" d="M-3731.4,1443.9c0.4-0.8,0.1-1.7-0.5-2.2c-0.2-0.2-5.4-4-10.6-2.2c-2.4,0.8-4.3,2.2-5.4,3.8s-1.5,3.5-1.1,5.4
		c0.4,1.6,1.4,3,2.6,3.7c0.2,0.1,0.4,0.2,0.6,0.3c1.7,0.7,3.8,0.6,6.3-0.3C-3734.3,1450.7-3731.5,1444.2-3731.4,1443.9z"/>
	<path class="st7" d="M-3746.3,1444.4c0.2-2-0.5-4.1-1.9-6.2c-3-4.3-9.5-4.3-9.8-4.3c-0.8,0-1.5,0.6-1.8,1.4
		c-0.1,0.3-2.1,7.1,0.8,11.4c1,1.4,2.1,2.5,3.3,3.2c0.5,0.3,1,0.5,1.5,0.6c1.7,0.5,3.6,0,5.2-1.3
		C-3747.5,1448-3746.5,1446.4-3746.3,1444.4z"/>
	<path class="st7" d="M-3740.6,1460.8c-0.2-0.2-4.5-5-9.9-4.2c-2.5,0.4-4.5,1.4-6,2.8c-1.4,1.4-2.1,3.3-2,5.3s1,3.6,2.4,4.6
		c0.1,0.1,0.3,0.2,0.4,0.2c1.4,0.8,3.4,1.1,5.8,0.7c5.3-0.8,9.1-6.9,9.2-7.1C-3740.1,1462.3-3740.1,1461.4-3740.6,1460.8z"/>
	<g>
		<path class="st8" d="M-3755,1460.8c0.5-2,0.3-4.2-0.8-6.5c-2.1-5-8.5-6.2-8.8-6.2c-0.8-0.2-1.6,0.3-2,1.1
			c-0.1,0.3-3.3,6.7-1.1,11.6c0.9,2.2,2.2,3.7,3.6,4.5c0.1,0.1,0.3,0.1,0.4,0.2c1.6,0.7,3.4,0.6,5.2-0.3
			C-3756.7,1464.2-3755.5,1462.7-3755,1460.8z"/>
		<path class="st8" d="M-3751.7,1480.3c-0.2-0.3-3.5-5.9-8.9-6.1c-2.5-0.1-4.6,0.5-6.2,1.6c-1.5,1.2-2.5,2.9-2.8,4.9
			s0.4,3.8,1.6,5.1c0.4,0.4,0.8,0.7,1.4,1c1.2,0.6,2.6,1,4.4,1.1c5.3,0.2,10-5.2,10.1-5.3
			C-3751.5,1481.9-3751.4,1480.9-3751.7,1480.3z"/>
		<path class="st8" d="M-3765.7,1477.4c0.8-1.8,0.9-4.1,0.4-6.7c-1.2-5.3-7.2-7.7-7.4-7.8c-0.7-0.3-1.6,0-2.1,0.7
			c-0.2,0.3-4.3,6.1-3.1,11.4c0.5,2.5,1.6,4.4,3.1,5.5c0.2,0.1,0.4,0.3,0.5,0.4c1.4,0.7,2.9,0.8,4.5,0.3
			C-3767.9,1480.6-3766.5,1479.3-3765.7,1477.4z"/>
		<path class="st8" d="M-3732.5,1408.7c0.6-5.6-4.1-10-4.3-10.2c-0.5-0.5-1.4-0.5-2.2-0.1c-0.3,0.2-5.9,4.3-6.4,10
			c-0.3,2.7,0.1,4.9,1.1,6.4c0.5,0.8,1.2,1.4,1.9,1.8c0.7,0.5,1.6,0.6,2.5,0.6c1.9,0.1,3.6-0.7,4.9-2.2
			C-3733.6,1413.5-3732.8,1411.4-3732.5,1408.7z"/>
	</g>
</g>
<circle class="st13" cx="-3783.7" cy="1491.2" r="15.7"/>
<circle class="st14" cx="-3784" cy="1491" r="9.6"/>
<path class="st0" d="M-3735.4,1112.3c-28.6-18.6-66.5-28.7-106.7-28.7s-78,10.2-106.7,28.7c-28.6,18.6-44.4,43.1-44.4,69.1v139.8
	c0,2.4,3.1,4.4,6.8,4.4h288.3c3.8,0,6.8-2,6.8-4.4v-139.8C-3691.2,1155.4-3706.9,1130.9-3735.4,1112.3z"/>
<ellipse class="st1" cx="-3956.8" cy="1322.6" rx="38.9" ry="33.2"/>
<ellipse class="st1" cx="-3727.6" cy="1321.7" rx="38.9" ry="33.2"/>
<path class="st2" d="M-3953.8,1233.5c-0.1,0-0.1,0-0.2,0c-25.4,0.1-46.1,20.8-46,46.3c0,12.3,4.9,23.9,13.6,32.6
	s20.3,13.4,32.5,13.4h0.2c25.4-0.1,46.1-20.8,46-46.3S-3928.5,1233.5-3953.8,1233.5z"/>
<path class="st2" d="M-3671.7,1520.5c-0.1-39.6-15.8-76.9-44-104.9s-65.4-43.4-104.7-43.4c-0.2,0-0.3,0-0.5,0l-48.7,0.2
	c-39.6,0.1-76.9,15.8-104.9,44c-28.1,28.2-43.5,65.6-43.4,105.2l0.1,18.6c0,3.7,3.1,6.8,6.8,6.8h332.5c1.8,0,3.5-0.7,4.8-2
	s2-3,2-4.8L-3671.7,1520.5z"/>
<path class="st3" d="M-3671.7,1520.5c-0.1-39.6-15.8-76.9-44-104.9s-65.4-43.4-104.7-43.4c-0.2,0-0.3,0-0.5,0l-16.7,0.1
	c37.9,1,73.7,16.2,100.9,43.3c28.2,28.1,43.9,65.4,44,104.9l0.1,19.6c0,1.8-0.7,3.5-2,4.8s-3,2-4.8,2h20.9c1.8,0,3.5-0.7,4.8-2
	s2-3,2-4.8V1520.5z"/>
<g>
	<g>
		<path id="XMLID_1_" class="st4" d="M-3671.8,1523.3c-0.1-39.3-15.8-76.3-44-104.2c-8.4-8.3-17.7-15.5-27.5-21.5
			c-7,27.3-36.5,49.3-75,56.3c-8.6,1.6-17.6,2.4-26.9,2.4c-9.2,0-18.1-0.8-26.7-2.4c-38.3-7-67.9-28.8-75.1-55.9
			c-10,6.1-19.1,13.4-27.6,21.8c-28.1,28.1-43.5,65.2-43.4,104.5l0.1,21.3c0.1,2.4,1.4,4.6,3.3,5.9h337.3c1.3-0.3,2.4-1,3.4-1.9
			c1.4-1.4,2.1-3.2,2.1-5.1L-3671.8,1523.3z"/>
	</g>
	<g>
		<g>
			<g>
				<g>
					<g>
						<g>
							<defs>
								<path id="SVGID_3_" d="M-3671.8,1523.3c-0.1-39.3-15.8-76.3-44-104.2c-8.4-8.3-17.7-15.5-27.5-21.5
									c-7,27.3-36.5,49.3-75,56.3c-8.6,1.6-17.6,2.4-26.9,2.4c-9.2,0-18.1-0.8-26.7-2.4c-38.3-7-67.9-28.8-75.1-55.9
									c-10,6.1-19.1,13.4-27.6,21.8c-28.1,28.1-43.5,65.2-43.4,104.5l0.1,21.3c0.1,2.4,1.4,4.6,3.3,5.9h337.3
									c1.3-0.3,2.4-1,3.4-1.9c1.4-1.4,2.1-3.2,2.1-5.1L-3671.8,1523.3z"/>
							</defs>
							<clipPath id="SVGID_4_">
								<use xlink:href="#SVGID_3_"  style="overflow:visible;"/>
							</clipPath>
							<path class="st15" d="M-3670.8,1523.9c-0.1-39.3-15.8-76.3-44-104.2c-28.2-27.8-65.4-43.1-104.7-43.1c-0.2,0-0.3,0-0.5,0
								l-17.6,0.1c37.9,1,73.6,16.1,100.9,43c28.2,27.9,43.8,64.9,44,104.2l0.1,21.3c0,1.9-0.7,3.7-2.1,5.1
								c-0.9,0.9-2.1,1.6-3.4,1.9h22c1.3-0.3,2.4-1,3.4-1.9c1.4-1.4,2.1-3.2,2.1-5.1L-3670.8,1523.9z"/>
						</g>
					</g>
				</g>
			</g>
		</g>
	</g>
</g>
<g>
	<path class="st6" d="M-3872,1534.8c-0.1-0.3-0.1-0.5-0.1-0.7c0.1-1,1.1-1.7,2.1-1.6c10,0.5,20.5-0.7,30.9-3.6
		c8.4-2.4,16.8-5.7,25.1-10.1c14-7.5,22.8-15.3,22.9-15.4c0.8-0.7,2-0.7,2.7-0.1s0.6,1.8-0.1,2.4c-0.4,0.4-9.2,8.2-23.7,15.9
		c-8.5,4.5-17.3,8.1-25.9,10.5c-10.9,3-21.7,4.3-32.1,3.7C-3871.2,1535.9-3871.8,1535.5-3872,1534.8z"/>
	<path class="st7" d="M-3786.5,1522.5c0.8-0.4,1.2-1.2,1.1-2c-0.1-0.3-1.4-6.5-6.5-8.6c-2.4-1-4.7-1.2-6.6-0.7
		c-1.9,0.5-3.4,1.7-4.3,3.4c-0.8,1.5-0.9,3.1-0.5,4.5c0.1,0.2,0.2,0.4,0.3,0.6c0.8,1.6,2.4,3,4.9,3.9
		C-3793.1,1525.8-3786.8,1522.7-3786.5,1522.5z"/>
	<path class="st8" d="M-3798.1,1513.1c1.4-1.4,2.3-3.3,2.6-5.9c0.6-5.3-4.3-9.5-4.5-9.7c-0.6-0.5-1.5-0.5-2.4-0.1
		c-0.3,0.2-6.2,4-6.9,9.1c-0.2,1.8-0.1,3.3,0.4,4.6c0.2,0.5,0.5,1,0.7,1.4c1.1,1.4,2.7,2.4,4.7,2.4
		C-3801.4,1515.2-3799.5,1514.5-3798.1,1513.1z"/>
	<path class="st8" d="M-3801.7,1531.2c0.8-0.4,1.2-1.2,1.1-2c-0.1-0.3-1.4-6.5-6.5-8.6c-2.4-1-4.7-1.2-6.6-0.7
		c-1.9,0.5-3.4,1.7-4.3,3.4c-0.8,1.5-0.9,3.1-0.5,4.5c0.1,0.2,0.2,0.4,0.3,0.6c0.8,1.6,2.4,3,4.9,3.9
		C-3808.3,1534.5-3802,1531.4-3801.7,1531.2z"/>
	<path class="st7" d="M-3813.3,1521.9c1.4-1.4,2.3-3.3,2.6-5.9c0.6-5.3-4.3-9.5-4.5-9.7c-0.6-0.5-1.5-0.5-2.4-0.1
		c-0.3,0.2-6.2,4-6.9,9.1c-0.2,1.8-0.1,3.3,0.4,4.6c0.2,0.5,0.5,1,0.7,1.4c1.1,1.4,2.7,2.4,4.7,2.4
		C-3816.6,1523.9-3814.7,1523.3-3813.3,1521.9z"/>
	<path class="st7" d="M-3819.7,1537.9c0-0.3-0.2-6.8-4.7-9.6c-2.2-1.4-4.3-2-6.3-1.8s-3.7,1.2-4.9,2.7s-1.6,3.3-1.1,5.1
		c0,0.2,0.1,0.3,0.1,0.5c0.5,1.6,1.9,3.1,3.9,4.3c4.5,2.9,11.3,0.8,11.7,0.7C-3820.3,1539.5-3819.7,1538.7-3819.7,1537.9z"/>
	<g>
		<path class="st8" d="M-3830.6,1528.5c1.6-1.2,2.9-3,3.7-5.4c1.6-5.2-2.4-10.1-2.5-10.4c-0.5-0.6-1.4-0.8-2.3-0.5
			c-0.3,0.1-6.8,2.9-8.4,8.1c-0.7,2.3-0.8,4.3-0.2,5.8c0.1,0.1,0.1,0.3,0.2,0.4c0.7,1.6,2.2,2.7,4.2,3.2
			C-3834.1,1530-3832.2,1529.6-3830.6,1528.5z"/>
		<path class="st8" d="M-3840.8,1545.3c0.1-0.3,1.2-6.8-2.7-10.3c-1.8-1.7-3.8-2.7-5.8-2.8c-1.9-0.2-3.8,0.5-5.3,1.9
			c-1.4,1.4-2.3,3.1-2.1,4.9c0,0.5,0.2,1.1,0.4,1.6c0.5,1.3,1.4,2.5,2.6,3.7c3.9,3.6,10.9,2.6,11.1,2.6
			C-3841.7,1546.8-3841,1546.1-3840.8,1545.3z"/>
		<path class="st8" d="M-3849.6,1534.1c1.8-0.9,3.3-2.4,4.6-4.8c2.6-4.8-0.4-10.5-0.5-10.8c-0.4-0.7-1.3-1.1-2.1-0.8
			c-0.3,0.1-7.2,1.7-9.8,6.6c-1.3,2.4-1.6,4.4-1.3,6.2c0.1,0.2,0.1,0.5,0.2,0.6c0.5,1.4,1.6,2.5,3.3,3.2
			C-3853.3,1535-3851.4,1534.9-3849.6,1534.1z"/>
		<path class="st8" d="M-3779.4,1504c4.2-3.8,3.5-10.2,3.5-10.5c-0.1-0.8-0.7-1.4-1.6-1.4c-0.3,0-7.2-0.5-11.4,3.3
			c-2,1.8-3.2,3.7-3.4,5.5c-0.2,0.9-0.1,1.8,0.3,2.6c0.3,0.8,0.8,1.5,1.4,2.2c1.4,1.3,3.3,1.8,5.2,1.5
			C-3783.4,1506.9-3781.4,1505.8-3779.4,1504z"/>
	</g>
</g>
<path class="st9" d="M-3887.6,1377.6c1.4,1.8,1.8,4.3,1.3,6.4c-3.1,12.1-4.6,24.6-4.5,37.1c0.1,24.5,12.1,52.3,33,76.4
	c20.8,24,47.3,40.7,72.7,46.1c3.4,0.7,5.8,3.9,5.8,7.4h21.8c0-3.3-2.1-6.2-5.1-7.2c-0.2-0.1-0.5-0.1-0.6-0.2
	c-25.3-5.3-51.9-22-72.7-46.1s-32.9-52-33-76.4c0-12.6,1.5-25.1,4.5-37.1c0.5-2.3,0.1-4.6-1.3-6.4c-1.4-1.8-3.4-2.9-5.6-2.9h-3.3
	c-3.6,0-7.2,0.2-10.7,0.5c-0.2,0-0.3,0-0.5,0c-0.5,0-1,0.1-1.4,0.1c-0.9,0.1-1.7,0.2-2.6,0.3
	C-3889.1,1376-3888.3,1376.8-3887.6,1377.6z"/>
<path class="st10" d="M-3785.3,1542.1c-25.4-5.3-51.9-22-72.7-46.1s-32.9-52-33-76.4c-0.1-12.5,1.4-25,4.5-37.1
	c0.5-2.2,0.1-4.6-1.3-6.4c-0.6-0.8-1.4-1.5-2.4-2c0.9-0.1,1.7-0.2,2.6-0.3c-34.8,3.2-67.1,18.9-92.2,45.1
	c-27.9,29.4-43.3,68.1-43.1,109.3l0.1,21.5h243.1C-3779.4,1546-3781.9,1542.8-3785.3,1542.1z"/>
<path class="st2" d="M-3734.8,1232.7c-0.1,0-0.1,0-0.2,0c-25.4,0.1-46.1,20.8-46,46.3c0,12.3,4.9,23.9,13.6,32.6
	s20.3,13.4,32.5,13.4h0.2c25.4-0.1,46.1-20.8,46-46.3C-3688.8,1253.3-3709.5,1232.7-3734.8,1232.7z"/>
<path class="st2" d="M-3738.4,1215.9c-0.1-22.5-16.7-40.7-36.9-40.7h-135.4c-9.9,0-19.2,4.3-26.2,12c-7,7.8-10.8,18-10.8,29
	l0.2,79.5c0.2,63.7,47.1,115.4,104.7,115.4h0.4c57.7-0.2,104.5-52.2,104.3-116.1L-3738.4,1215.9z"/>
<path class="st11" d="M-3738.3,1215.9c-0.1-22.5-15.6-40.7-34.6-40.7h-16.9c19,0,34.6,18.3,34.6,40.7l0.2,79
	c0.2,60.6-39.4,110.5-89.6,115.7c2.8,0.3,5.6,0.5,8.4,0.5h0.3c54-0.2,97.9-52.2,97.8-116.1L-3738.3,1215.9z"/>
<ellipse transform="matrix(0.9333 -0.3592 0.3592 0.9333 -713.8167 -1344.028)" class="st1" cx="-3973.9" cy="1249" rx="28.2" ry="41.5"/>
<ellipse transform="matrix(0.9333 -0.3592 0.3592 0.9333 -712.6904 -1346.1694)" class="st0" cx="-3979.1" cy="1244.9" rx="28.2" ry="41.5"/>
<path class="st3" d="M-3843.1,1364.2c-8.9,0-17.4-3.3-23.9-9.3c-2.8-2.5-3-6.9-0.5-9.6c2.5-2.8,6.9-3,9.6-0.5
	c4,3.7,9.2,5.7,14.7,5.7h0.1c5.5,0,10.7-2.1,14.8-5.8c2.8-2.5,7.1-2.4,9.6,0.4s2.4,7.1-0.4,9.6
	C-3825.6,1360.7-3834.1,1364.1-3843.1,1364.2C-3843,1364.2-3843,1364.2-3843.1,1364.2z"/>
<path class="st0" d="M-3883.7,1253.1c8.9,0,17.4,1.6,23.9,4.6c2.8,1.3,3,3.4,0.5,4.8s-6.9,1.4-9.6,0.2c-4-1.8-9.2-2.9-14.7-2.9h-0.1
	c-5.5,0-10.7,1-14.8,2.9c-2.8,1.3-7.1,1.2-9.6-0.2s-2.4-3.5,0.4-4.8C-3901.2,1254.7-3892.7,1253-3883.7,1253.1
	C-3883.8,1253.1-3883.7,1253.1-3883.7,1253.1z"/>
<ellipse class="st1" cx="-3948" cy="1206.8" rx="46.2" ry="37.8"/>
<path class="st0" d="M-3798.9,1253.1c8.9,0,17.4,1.6,23.9,4.6c2.8,1.3,3,3.4,0.5,4.8s-6.9,1.4-9.6,0.2c-4-1.8-9.2-2.9-14.7-2.9h-0.1
	c-5.5,0-10.7,1-14.8,2.9c-2.8,1.3-7.1,1.2-9.6-0.2c-2.5-1.4-2.4-3.5,0.4-4.8C-3816.4,1254.7-3807.9,1253-3798.9,1253.1
	L-3798.9,1253.1z"/>
<path class="st12" d="M-3871.4,1288.6c0-6.3-5.2-11.4-11.5-11.4s-11.4,5.2-11.4,11.5s5.2,11.4,11.5,11.4
	S-3871.4,1294.9-3871.4,1288.6z"/>
<path class="st12" d="M-3790.4,1288.3c0-6.3-5.2-11.5-11.5-11.4c-6.3,0-11.5,5.2-11.4,11.5c0,6.3,5.2,11.5,11.5,11.4
	C-3795.6,1299.8-3790.4,1294.7-3790.4,1288.3z"/>
<ellipse transform="matrix(0.3592 -0.9333 0.9333 0.3592 -3552.2952 -2675.3281)" class="st1" cx="-3724.3" cy="1249.1" rx="41.5" ry="28.2"/>
<ellipse transform="matrix(0.3592 -0.9333 0.9333 0.3592 -3544.0354 -2677.4436)" class="st0" cx="-3721.7" cy="1242" rx="41.5" ry="28.2"/>
<ellipse class="st1" cx="-3744.2" cy="1200.7" rx="46.2" ry="37.8"/>
<ellipse class="st0" cx="-3746.1" cy="1183.2" rx="47.3" ry="47.3"/>
<ellipse class="st1" cx="-3767.8" cy="1175.1" rx="46.2" ry="37.8"/>
<ellipse class="st0" cx="-3767.8" cy="1167.9" rx="45.4" ry="32.9"/>
<ellipse class="st0" cx="-3952.5" cy="1194.2" rx="44.4" ry="44.4"/>
<ellipse class="st1" cx="-3919.5" cy="1169.4" rx="46.2" ry="37.8"/>
<ellipse class="st1" cx="-3848.2" cy="1153.9" rx="71.3" ry="54.3"/>
<ellipse class="st0" cx="-3842.1" cy="1141.5" rx="74.3" ry="53.6"/>
<ellipse class="st0" cx="-3919.5" cy="1162.2" rx="45.4" ry="32.9"/>
<g>
	<path class="st6" d="M-3782.2,1492.7c-0.2-0.1-0.4-0.3-0.5-0.5c-0.5-0.8-0.3-2,0.5-2.6c7.9-6.2,14.9-13.9,20.9-22.9
		c4.8-7.2,9-15.3,12.3-24.1c5.7-14.8,7.2-26.5,7.2-26.6c0.1-1,1-1.8,2-1.8s1.6,0.9,1.5,2c-0.1,0.5-1.5,12.2-7.4,27.6
		c-3.4,9.1-7.8,17.4-12.7,24.9c-6.2,9.4-13.6,17.5-21.8,23.9C-3780.8,1493-3781.5,1493-3782.2,1492.7z"/>
	<path class="st7" d="M-3725.7,1427.4c0.4-0.8,0.1-1.7-0.5-2.2c-0.2-0.2-5.4-4-10.6-2.2c-2.4,0.8-4.3,2.2-5.4,3.8s-1.5,3.5-1.1,5.4
		c0.4,1.6,1.4,3,2.6,3.7c0.2,0.1,0.4,0.2,0.6,0.3c1.7,0.7,3.8,0.6,6.3-0.3C-3728.6,1434.2-3725.8,1427.7-3725.7,1427.4z"/>
	<path class="st8" d="M-3740.5,1427.9c0.2-2-0.5-4.1-1.9-6.2c-3-4.3-9.5-4.3-9.8-4.3c-0.8,0-1.5,0.6-1.8,1.4
		c-0.1,0.3-2.1,7.1,0.8,11.4c1,1.4,2.1,2.5,3.3,3.2c0.5,0.3,1,0.5,1.5,0.6c1.7,0.5,3.6,0,5.2-1.3
		C-3741.7,1431.5-3740.7,1429.8-3740.5,1427.9z"/>
	<path class="st8" d="M-3731.4,1443.9c0.4-0.8,0.1-1.7-0.5-2.2c-0.2-0.2-5.4-4-10.6-2.2c-2.4,0.8-4.3,2.2-5.4,3.8s-1.5,3.5-1.1,5.4
		c0.4,1.6,1.4,3,2.6,3.7c0.2,0.1,0.4,0.2,0.6,0.3c1.7,0.7,3.8,0.6,6.3-0.3C-3734.3,1450.7-3731.5,1444.2-3731.4,1443.9z"/>
	<path class="st7" d="M-3746.3,1444.4c0.2-2-0.5-4.1-1.9-6.2c-3-4.3-9.5-4.3-9.8-4.3c-0.8,0-1.5,0.6-1.8,1.4
		c-0.1,0.3-2.1,7.1,0.8,11.4c1,1.4,2.1,2.5,3.3,3.2c0.5,0.3,1,0.5,1.5,0.6c1.7,0.5,3.6,0,5.2-1.3
		C-3747.5,1448-3746.5,1446.4-3746.3,1444.4z"/>
	<path class="st7" d="M-3740.6,1460.8c-0.2-0.2-4.5-5-9.9-4.2c-2.5,0.4-4.5,1.4-6,2.8c-1.4,1.4-2.1,3.3-2,5.3s1,3.6,2.4,4.6
		c0.1,0.1,0.3,0.2,0.4,0.2c1.4,0.8,3.4,1.1,5.8,0.7c5.3-0.8,9.1-6.9,9.2-7.1C-3740.1,1462.3-3740.1,1461.4-3740.6,1460.8z"/>
	<g>
		<path class="st8" d="M-3755,1460.8c0.5-2,0.3-4.2-0.8-6.5c-2.1-5-8.5-6.2-8.8-6.2c-0.8-0.2-1.6,0.3-2,1.1
			c-0.1,0.3-3.3,6.7-1.1,11.6c0.9,2.2,2.2,3.7,3.6,4.5c0.1,0.1,0.3,0.1,0.4,0.2c1.6,0.7,3.4,0.6,5.2-0.3
			C-3756.7,1464.2-3755.5,1462.7-3755,1460.8z"/>
		<path class="st8" d="M-3751.7,1480.3c-0.2-0.3-3.5-5.9-8.9-6.1c-2.5-0.1-4.6,0.5-6.2,1.6c-1.5,1.2-2.5,2.9-2.8,4.9
			s0.4,3.8,1.6,5.1c0.4,0.4,0.8,0.7,1.4,1c1.2,0.6,2.6,1,4.4,1.1c5.3,0.2,10-5.2,10.1-5.3
			C-3751.5,1481.9-3751.4,1480.9-3751.7,1480.3z"/>
		<path class="st8" d="M-3765.7,1477.4c0.8-1.8,0.9-4.1,0.4-6.7c-1.2-5.3-7.2-7.7-7.4-7.8c-0.7-0.3-1.6,0-2.1,0.7
			c-0.2,0.3-4.3,6.1-3.1,11.4c0.5,2.5,1.6,4.4,3.1,5.5c0.2,0.1,0.4,0.3,0.5,0.4c1.4,0.7,2.9,0.8,4.5,0.3
			C-3767.9,1480.6-3766.5,1479.3-3765.7,1477.4z"/>
		<path class="st8" d="M-3732.5,1408.7c0.6-5.6-4.1-10-4.3-10.2c-0.5-0.5-1.4-0.5-2.2-0.1c-0.3,0.2-5.9,4.3-6.4,10
			c-0.3,2.7,0.1,4.9,1.1,6.4c0.5,0.8,1.2,1.4,1.9,1.8c0.7,0.5,1.6,0.6,2.5,0.6c1.9,0.1,3.6-0.7,4.9-2.2
			C-3733.6,1413.5-3732.8,1411.4-3732.5,1408.7z"/>
	</g>
</g>
<circle class="st13" cx="-3783.7" cy="1491.2" r="15.7"/>
<circle class="st14" cx="-3784" cy="1491" r="9.6"/>
<path class="st0" d="M315,31.8C283.2,11.2,241.2,0,196.6,0S110,11.3,78.3,31.8C46.5,52.4,29,79.6,29,108.5v155.1
	c0,2.7,3.4,4.9,7.5,4.9h319.8c4.2,0,7.5-2.2,7.5-4.9V108.5C364.1,79.7,346.6,52.4,315,31.8z"/>
<ellipse class="st1" cx="69.4" cy="265.2" rx="43.2" ry="36.9"/>
<ellipse class="st1" cx="323.7" cy="264.2" rx="43.2" ry="36.9"/>
<path class="st2" d="M72.7,166.3c-0.1,0-0.1,0-0.2,0c-28.2,0.1-51.1,23.1-51,51.3c0,13.7,5.5,26.5,15,36.2s22.5,14.8,36.1,14.8h0.2
	c28.2-0.1,51.1-23.1,51-51.3C123.7,189.1,100.8,166.3,72.7,166.3z"/>
<path class="st2" d="M377,478.9c-0.1-42.6-17-82.8-47.4-113c-30.3-30.1-70.4-46.7-112.8-46.7c-0.2,0-0.3,0-0.5,0l-52.5,0.2
	c-42.6,0.1-82.8,17-113,47.4S4,437.4,4,480l0.1,20c0,4,3.3,7.3,7.3,7.3h358.2c2,0,3.8-0.8,5.2-2.1c1.4-1.4,2.1-3.2,2.1-5.2
	L377,478.9z"/>
<path class="st3" d="M375.8,478.6c-0.1-42.6-17-82.8-47.4-113c-35.7-35.5-62.4-46.7-112.8-46.7c-0.2,0-0.3,0-0.5,0l-17.9,0.1
	c40.9,1.1,79.4,17.5,108.6,46.6c30.4,30.2,47.3,70.4,47.4,113l0.1,21.1c0,2-0.8,3.8-2.1,5.2c-1.4,1.4-3.2,2.1-5.2,2.1h22.5
	c2,0,3.8-0.8,5.2-2.1c1.4-1.4,2.1-3.2,2.1-5.2V478.6z"/>
<g>
	<g>
		<path id="XMLID_47_" class="st4" d="M379.9,478.9c-0.1-42.3-17-82.2-47.4-112.2c-9.1-9-19-16.7-29.6-23.2
			c-7.5,29.5-39.3,53-80.7,60.7c-9.3,1.8-18.9,2.6-29,2.6c-9.9,0-19.5-0.9-28.8-2.5c-41.3-7.5-73.1-31-80.8-60.2
			c-10.7,6.5-20.6,14.4-29.7,23.5C23.7,397.8,7.1,437.8,7.2,480.1L7.3,503c0.1,2.6,1.5,5,3.5,6.3h363.4c1.4-0.3,2.6-1.1,3.7-2
			c1.5-1.5,2.2-3.4,2.2-5.5L379.9,478.9z"/>
	</g>
	<g>
		<g>
			<g>
				<g>
					<g>
						<g>
							<defs>
								<path id="SVGID_5_" d="M379.9,478.9c-0.1-42.3-17-82.2-47.4-112.2c-9.1-9-19-16.7-29.6-23.2c-7.5,29.5-39.3,53-80.7,60.7
									c-9.3,1.8-18.9,2.6-29,2.6c-9.9,0-19.5-0.9-28.8-2.5c-41.3-7.5-73.1-31-80.8-60.2c-10.7,6.5-20.6,14.4-29.7,23.5
									C23.7,397.8,7.1,437.8,7.2,480.1L7.3,503c0.1,2.6,1.5,5,3.5,6.3h363.4c1.4-0.3,2.6-1.1,3.7-2c1.5-1.5,2.2-3.4,2.2-5.5
									L379.9,478.9z"/>
							</defs>
							<clipPath id="SVGID_6_">
								<use xlink:href="#SVGID_5_"  style="overflow:visible;"/>
							</clipPath>
							<path class="st16" d="M380.9,479.6c-0.1-42.3-17-82.2-47.4-112.2c-30.3-29.9-70.4-46.4-112.8-46.4c-0.2,0-0.3,0-0.5,0
								l-18.9,0.1c40.9,1.1,79.3,17.4,108.6,46.3c30.4,30,47.2,69.9,47.4,112.2l0.1,22.9c0,2-0.8,4-2.2,5.5c-1,1-2.2,1.8-3.7,2h23.7
								c1.4-0.3,2.6-1.1,3.7-2c1.5-1.5,2.2-3.4,2.2-5.5L380.9,479.6z"/>
						</g>
					</g>
				</g>
			</g>
		</g>
	</g>
</g>
<g>
	<path class="st6" d="M164.2,491.4c-0.1-0.3-0.1-0.5-0.1-0.8c0.1-1.1,1.2-1.9,2.2-1.8c10.8,0.6,22-0.8,33.3-3.9
		c9.1-2.5,18.1-6.1,27-10.9c15.1-8.1,24.6-16.5,24.7-16.6c0.9-0.8,2.1-0.8,2.9-0.1c0.8,0.7,0.7,2-0.1,2.6
		c-0.4,0.4-9.9,8.9-25.5,17.2c-9.2,4.9-18.6,8.7-27.9,11.3c-11.7,3.2-23.4,4.6-34.6,4C165.1,492.5,164.4,492,164.2,491.4z"/>
	<path class="st7" d="M256.3,478.1c0.9-0.4,1.3-1.3,1.2-2.1c-0.1-0.3-1.6-7-7-9.3c-2.6-1.1-5.1-1.3-7.1-0.8s-3.7,1.9-4.7,3.7
		c-0.9,1.7-1,3.3-0.5,4.9c0.1,0.2,0.2,0.4,0.3,0.7c0.9,1.8,2.6,3.2,5.3,4.2C249.2,481.6,256,478.3,256.3,478.1z"/>
	<path class="st8" d="M243.8,468c1.6-1.5,2.4-3.6,2.8-6.3c0.7-5.7-4.7-10.2-4.9-10.4c-0.7-0.6-1.7-0.6-2.5-0.1
		c-0.3,0.2-6.7,4.3-7.4,9.8c-0.2,2-0.1,3.5,0.4,5c0.2,0.6,0.5,1.1,0.8,1.6c1.2,1.6,2.9,2.5,5.1,2.6
		C240.3,470.2,242.4,469.4,243.8,468z"/>
	<path class="st8" d="M239.9,487.5c0.9-0.4,1.3-1.3,1.2-2.1c-0.1-0.3-1.6-7-7-9.3c-2.6-1.1-5.1-1.3-7.1-0.8s-3.7,1.9-4.7,3.7
		c-0.9,1.7-1,3.3-0.5,4.9c0.1,0.2,0.2,0.4,0.3,0.7c0.9,1.8,2.6,3.2,5.3,4.2C232.8,491,239.6,487.7,239.9,487.5z"/>
	<path class="st7" d="M227.4,477.4c1.6-1.5,2.4-3.6,2.8-6.3c0.7-5.7-4.7-10.2-4.9-10.4c-0.7-0.6-1.7-0.6-2.5-0.1
		c-0.3,0.2-6.7,4.3-7.4,9.8c-0.2,2-0.1,3.5,0.4,5c0.2,0.6,0.5,1.1,0.8,1.6c1.2,1.6,2.9,2.5,5.1,2.6
		C223.9,479.6,226,478.9,227.4,477.4z"/>
	<path class="st7" d="M220.5,494.7c0-0.3-0.2-7.3-5.1-10.3c-2.3-1.5-4.7-2.1-6.8-2c-2.1,0.2-4,1.3-5.3,2.9c-1.3,1.7-1.8,3.6-1.2,5.5
		c0,0.2,0.1,0.3,0.1,0.5c0.6,1.8,2,3.3,4.2,4.7c4.9,3.1,12.2,0.9,12.6,0.8C219.9,496.3,220.5,495.6,220.5,494.7z"/>
	<g>
		<path class="st8" d="M208.8,484.5c1.8-1.3,3.1-3.2,4-5.9c1.8-5.6-2.5-10.9-2.7-11.2c-0.6-0.7-1.6-0.9-2.4-0.5
			c-0.3,0.1-7.3,3.1-9.1,8.7c-0.8,2.4-0.9,4.6-0.2,6.2c0.1,0.1,0.1,0.3,0.2,0.4c0.8,1.8,2.3,2.9,4.5,3.4
			C205,486.2,207.1,485.7,208.8,484.5z"/>
		<path class="st8" d="M197.8,502.7c0.1-0.3,1.3-7.3-2.9-11.1c-2-1.9-4.1-2.9-6.2-3c-2-0.2-4.1,0.6-5.8,2c-1.6,1.5-2.4,3.3-2.2,5.3
			c0,0.6,0.2,1.2,0.4,1.8c0.5,1.4,1.5,2.7,2.8,4c4.2,3.9,11.7,2.8,12,2.8C196.8,504.2,197.6,503.5,197.8,502.7z"/>
		<path class="st8" d="M188.3,490.6c2-1,3.6-2.6,5-5.2c2.8-5.2-0.4-11.3-0.5-11.6c-0.4-0.8-1.4-1.2-2.2-0.9
			c-0.3,0.1-7.7,1.9-10.5,7.1c-1.4,2.5-1.8,4.8-1.4,6.6c0.1,0.2,0.1,0.5,0.2,0.7c0.6,1.6,1.8,2.7,3.5,3.4
			C184.3,491.6,186.4,491.5,188.3,490.6z"/>
		<path class="st8" d="M263.9,458.1c4.5-4.1,3.8-11,3.8-11.3c-0.1-0.9-0.8-1.5-1.8-1.6c-0.3,0-7.8-0.6-12.3,3.5
			c-2.1,2-3.4,4-3.7,5.9c-0.2,1-0.1,2,0.3,2.8c0.3,0.9,0.9,1.7,1.6,2.3c1.5,1.4,3.5,2,5.6,1.7C259.6,461.2,261.8,460.1,263.9,458.1z
			"/>
	</g>
</g>
<path class="st9" d="M146.4,322c1.5,2,2,4.6,1.4,6.9c-3.3,13.2-5,26.7-4.9,40.3C143,395.8,156,426,178.4,452
	c22.4,26,50.9,44.2,78.3,49.9c3.7,0.8,6.2,4.2,6.2,8.1h23.5c0-3.5-2.2-6.7-5.5-7.7c-0.2-0.1-0.5-0.1-0.7-0.2
	c-27.3-5.8-55.9-23.9-78.3-49.9c-22.4-26.1-35.4-56.4-35.5-82.8c0-13.7,1.7-27.2,4.9-40.3c0.6-2.4,0.1-5-1.4-6.9
	c-1.5-2-3.7-3.1-6-3.1h-3.6c-3.9,0-7.7,0.2-11.5,0.5c-0.2,0-0.3,0-0.5,0c-0.5,0-1.1,0.1-1.6,0.1c-1,0.1-1.9,0.2-2.8,0.3
	C144.8,320.3,145.7,321.1,146.4,322z"/>
<path class="st10" d="M258.6,502.3c-27.3-5.8-55.9-24.3-78.3-50.7s-35.4-57.3-35.5-84.2c-0.1-13.8,1.6-27.6,4.9-40.9
	c0.6-2.4,0.1-5.1-1.4-7c-0.7-0.9-1.6-1.7-2.5-2.2c1-0.1,1.9-0.2,2.8-0.3c-37.4,3.5-72.3,20.8-99.3,49.6C19.3,399,2.7,441.6,2.9,487
	L3,510.6h261.8C264.9,506.6,262.3,503.1,258.6,502.3z"/>
<path class="st2" d="M315.7,165.4c-0.1,0-0.1,0-0.2,0c-28.2,0.1-51.1,23.1-51,51.3c0,13.7,5.5,26.5,15,36.2
	c9.7,9.7,22.5,14.8,36.1,14.8h0.2c28.2-0.1,51.1-23.1,51-51.3C366.7,188.3,343.8,165.4,315.7,165.4z"/>
<path class="st2" d="M311.7,146.8c-0.1-24.9-18.4-45.2-41-45.2H120.5c-10.9,0-21.3,4.7-29,13.4s-11.9,20-11.9,32.1l0.2,88.2
	c0.2,70.8,52.2,128,116.1,128h0.4c64-0.2,115.9-58,115.7-128.8L311.7,146.8z"/>
<path class="st11" d="M311.8,146.8c-0.1-24.9-17.3-45.2-38.4-45.2h-18.7c21.1,0,38.4,20.3,38.4,45.2l0.2,87.7
	c0.2,67.2-43.7,122.7-99.4,128.3c3.1,0.3,6.2,0.5,9.4,0.5h0.3c59.9-0.2,108.6-58,108.5-128.8L311.8,146.8z"/>
<ellipse transform="matrix(0.9333 -0.3592 0.3592 0.9333 -62.4358 30.4629)" class="st1" cx="50.8" cy="183.3" rx="31.3" ry="46"/>
<ellipse transform="matrix(0.9333 -0.3592 0.3592 0.9333 -61.1923 28.088)" class="st0" cx="45" cy="178.7" rx="31.3" ry="46"/>
<path class="st3" d="M195.4,307.5c-9.6,0-18.7-3.5-25.7-10c-3-2.7-3.2-7.4-0.5-10.3c2.7-3,7.4-3.2,10.3-0.5c4.3,4,9.9,6.1,15.8,6.1
	h0.1c5.9,0,11.5-2.2,15.9-6.2c3-2.7,7.6-2.5,10.3,0.4c2.7,3,2.5,7.6-0.4,10.3C214.2,303.8,205,307.4,195.4,307.5
	C195.5,307.5,195.5,307.5,195.4,307.5z"/>
<path class="st0" d="M150.5,188.1c9.9,0,19.3,1.9,26.5,5.2c3.1,1.4,3.3,3.8,0.5,5.4c-2.8,1.5-7.6,1.6-10.6,0.2
	c-4.4-2.1-10.2-3.2-16.3-3.2h-0.1c-6.1,0-11.8,1.1-16.4,3.2c-3.1,1.4-7.8,1.3-10.6-0.2c-2.8-1.5-2.6-3.9,0.4-5.4
	C131,189.8,140.5,188,150.5,188.1C150.4,188.1,150.5,188.1,150.5,188.1z"/>
<ellipse class="st1" cx="79.1" cy="136.8" rx="51.2" ry="42"/>
<path class="st0" d="M244.5,188.1c9.9,0,19.3,1.9,26.5,5.2c3.1,1.4,3.3,3.8,0.5,5.4c-2.8,1.5-7.6,1.6-10.6,0.2
	c-4.4-2.1-10.2-3.2-16.3-3.2h-0.1c-6.1,0-11.8,1.1-16.4,3.2c-3.1,1.4-7.8,1.3-10.6-0.2c-2.8-1.5-2.6-3.9,0.4-5.4
	C225.2,189.8,234.6,188,244.5,188.1L244.5,188.1z"/>
<path class="st12" d="M164.1,227.4c0-7-5.8-12.7-12.8-12.7s-12.7,5.8-12.7,12.8s5.8,12.7,12.8,12.7
	C158.5,240.2,164.1,234.4,164.1,227.4z"/>
<path class="st12" d="M254,227.1c0-7-5.8-12.8-12.8-12.7c-7,0-12.8,5.8-12.7,12.8c0,7,5.8,12.8,12.8,12.7
	C248.3,239.9,254,234.1,254,227.1z"/>
<ellipse transform="matrix(0.3592 -0.9333 0.9333 0.3592 38.845 422.9163)" class="st1" cx="327.4" cy="183.2" rx="46" ry="31.3"/>
<ellipse transform="matrix(0.3592 -0.9333 0.9333 0.3592 48.0758 420.5582)" class="st0" cx="330.3" cy="175.3" rx="46" ry="31.3"/>
<ellipse class="st1" cx="305.2" cy="129.9" rx="51.2" ry="42"/>
<ellipse transform="matrix(0.7071 -0.7071 0.7071 0.7071 10.6307 246.7047)" class="st0" cx="303.1" cy="110.5" rx="52.4" ry="52.4"/>
<ellipse class="st1" cx="279.1" cy="101.6" rx="51.2" ry="42"/>
<ellipse class="st0" cx="279.1" cy="93.5" rx="50.5" ry="36.5"/>
<ellipse class="st0" cx="74.2" cy="122.7" rx="49.2" ry="49.2"/>
<ellipse class="st1" cx="110.8" cy="95.3" rx="51.2" ry="42"/>
<ellipse class="st1" cx="189.8" cy="78" rx="79" ry="60.3"/>
<ellipse class="st0" cx="196.6" cy="64.2" rx="82.5" ry="59.4"/>
<ellipse class="st0" cx="110.8" cy="87.2" rx="50.5" ry="36.5"/>
<g>
	<path class="st6" d="M261,446c-0.2-0.1-0.4-0.3-0.6-0.6c-0.6-0.9-0.3-2.1,0.6-2.8c8.5-6.6,16.1-15,22.5-24.7
		c5.2-7.8,9.7-16.5,13.3-25.9c6.1-16,7.7-28.6,7.7-28.7c0.1-1.1,1.1-2,2.1-2c1.1,0,1.8,1,1.7,2.1c-0.1,0.5-1.7,13.2-8,29.7
		c-3.7,9.8-8.4,18.7-13.7,26.8c-6.7,10.1-14.6,18.8-23.5,25.7C262.4,446.3,261.7,446.3,261,446z"/>
	<path class="st7" d="M321.8,375.6c0.4-0.9,0.1-1.9-0.6-2.3c-0.2-0.2-5.9-4.3-11.4-2.3c-2.6,0.9-4.7,2.3-5.9,4.1
		c-1.2,1.8-1.7,3.8-1.2,5.9c0.4,1.8,1.5,3.2,2.8,4c0.2,0.1,0.4,0.2,0.7,0.3c1.9,0.8,4.1,0.7,6.8-0.3
		C318.7,382.9,321.7,375.9,321.8,375.6z"/>
	<path class="st8" d="M305.8,376.2c0.2-2.1-0.5-4.4-2-6.6c-3.2-4.7-10.2-4.7-10.5-4.7c-0.9,0-1.7,0.7-2,1.6
		c-0.1,0.3-2.2,7.6,0.9,12.3c1.1,1.6,2.2,2.7,3.5,3.4c0.6,0.3,1.1,0.5,1.7,0.7c1.9,0.5,3.9,0,5.6-1.4
		C304.6,380.1,305.6,378.2,305.8,376.2z"/>
	<path class="st8" d="M315.7,393.5c0.4-0.9,0.1-1.9-0.6-2.3c-0.2-0.2-5.9-4.3-11.4-2.3c-2.6,0.9-4.7,2.3-5.9,4.1
		c-1.2,1.8-1.7,3.8-1.2,5.9c0.4,1.8,1.5,3.2,2.8,4c0.2,0.1,0.4,0.2,0.7,0.3c1.9,0.8,4.1,0.7,6.8-0.3
		C312.6,400.8,315.5,393.7,315.7,393.5z"/>
	<path class="st7" d="M299.6,393.9c0.2-2.1-0.5-4.4-2-6.6c-3.2-4.7-10.2-4.7-10.5-4.7c-0.9,0-1.7,0.7-2,1.6
		c-0.1,0.3-2.2,7.6,0.9,12.3c1.1,1.6,2.2,2.7,3.5,3.4c0.6,0.3,1.1,0.5,1.7,0.7c1.9,0.5,3.9,0,5.6-1.4
		C298.3,397.8,299.4,396.1,299.6,393.9z"/>
	<path class="st7" d="M305.7,411.6c-0.2-0.2-4.9-5.4-10.6-4.5c-2.7,0.4-4.9,1.5-6.4,3c-1.5,1.6-2.2,3.5-2.1,5.7
		c0.1,2.1,1.1,3.9,2.6,5c0.1,0.1,0.3,0.2,0.4,0.2c1.6,0.9,3.7,1.2,6.2,0.8c5.8-0.9,9.8-7.4,9.9-7.6
		C306.3,413.2,306.3,412.3,305.7,411.6z"/>
	<g>
		<path class="st8" d="M290.2,411.6c0.5-2.1,0.3-4.5-0.9-7c-2.2-5.4-9.2-6.6-9.5-6.6c-0.9-0.2-1.8,0.3-2.1,1.2
			c-0.1,0.3-3.5,7.2-1.2,12.5c1,2.3,2.3,4,3.9,4.9c0.1,0.1,0.3,0.1,0.4,0.2c1.8,0.8,3.7,0.7,5.6-0.3
			C288.4,415.3,289.7,413.6,290.2,411.6z"/>
		<path class="st8" d="M293.8,432.6c-0.2-0.3-3.8-6.3-9.6-6.5c-2.7-0.1-5,0.5-6.7,1.8s-2.7,3.1-3,5.3c-0.3,2.1,0.4,4.1,1.8,5.5
			c0.4,0.4,0.9,0.8,1.5,1.1c1.3,0.7,2.8,1.1,4.8,1.2c5.7,0.2,10.7-5.6,10.9-5.8C294,434.3,294.1,433.2,293.8,432.6z"/>
		<path class="st8" d="M278.7,429.5c0.9-2,1-4.4,0.4-7.2c-1.3-5.8-7.7-8.3-8-8.4c-0.8-0.3-1.8,0-2.2,0.8c-0.2,0.3-4.6,6.5-3.3,12.3
			c0.6,2.7,1.8,4.8,3.3,5.9c0.2,0.1,0.4,0.3,0.6,0.4c1.5,0.8,3.1,0.9,4.9,0.3C276.3,432.9,277.9,431.6,278.7,429.5z"/>
		<path class="st8" d="M314.4,355.5c0.7-6-4.4-10.8-4.6-11c-0.6-0.6-1.6-0.6-2.3-0.1c-0.3,0.2-6.3,4.7-6.9,10.7
			c-0.3,2.9,0.1,5.3,1.2,6.9c0.5,0.9,1.3,1.5,2,2c0.8,0.5,1.8,0.7,2.7,0.7c2,0.1,3.9-0.8,5.3-2.3
			C313.3,360.7,314.1,358.4,314.4,355.5z"/>
	</g>
</g>
<circle class="st13" cx="259.3" cy="444.4" r="16.9"/>
<circle class="st14" cx="259" cy="444.2" r="10.3"/>
</svg>
