<?xml version="1.0" encoding="utf-8"?>
<!-- Generator: Adobe Illustrator 19.0.0, SVG Export Plug-In . SVG Version: 6.00 Build 0)  -->
<svg version="1.1" id="Layer_1" xmlns="http://www.w3.org/2000/svg" xmlns:xlink="http://www.w3.org/1999/xlink" x="0px" y="0px"
	 viewBox="-114 142.3 383 508.7" style="enable-background:new -114 142.3 383 508.7;" xml:space="preserve">
<style type="text/css">
	.st0{fill:#3F2016;}
	.st1{fill:#2B1008;}
	.st2{fill:#C6A89C;}
	.st3{fill:#B38B7B;}
	.st4{fill:#E8E8E8;}
	.st5{clip-path:url(#SVGID_2_);fill:#C2C6CC;}
	.st6{fill:#F8A814;}
	.st7{fill:#F8B53C;}
	.st8{fill:#F9CD45;}
	.st9{fill:#D8C58F;}
	.st10{fill:#F7E8A9;}
	.st11{fill:#4C350C;}
	.st12{fill:#825308;}
	.st13{fill:#897F79;}
	.st14{fill:#3A1E0B;}
	.st15{fill:#868686;}
</style>
<circle class="st0" cx="203.1" cy="396.6" r="47.7"/>
<circle class="st0" cx="-47.4" cy="398.7" r="47.7"/>
<g>
	<ellipse class="st1" cx="-40" cy="383.6" rx="32.2" ry="36.1"/>
	<ellipse class="st1" cx="-11.9" cy="411.3" rx="32.2" ry="36.1"/>
	<ellipse class="st1" cx="202.9" cy="376.8" rx="32.2" ry="36.1"/>
	<ellipse class="st1" cx="172.8" cy="411.3" rx="32.2" ry="36.1"/>
	<circle class="st0" cx="83.5" cy="316.4" r="142.2"/>
	<path class="st2" d="M257.7,623.5c-0.1-40.5-16.1-78.7-45.1-107.5c-28.8-28.7-66.9-44.4-107.3-44.4c-0.2,0-0.3,0-0.5,0l-49.9,0.2
		c-40.5,0.1-78.7,16.1-107.5,45.1s-44.3,67.2-44.2,107.7l0.1,19c0,3.8,3.2,7,7,7h340.6c1.9,0,3.6-0.7,4.9-2s2-3.1,2-4.9L257.7,623.5
		z"/>
	<path class="st3" d="M257.7,623.5c-0.1-40.5-16.1-78.7-45.1-107.5c-28.8-28.7-66.9-44.4-107.3-44.4c-0.2,0-0.3,0-0.5,0l-17.1,0.1
		c38.9,1,75.5,16.6,103.3,44.3c28.9,28.7,45,66.9,45.1,107.5l0.1,20c0,1.9-0.7,3.6-2,4.9c-1.3,1.3-3.1,2-4.9,2h21.4
		c1.9,0,3.6-0.7,4.9-2c1.3-1.3,2-3.1,2-4.9L257.7,623.5z"/>
	<g>
		<g>
			<path id="XMLID_41_" class="st4" d="M257.7,622.6c-0.1-40.2-16.1-78.2-45.1-106.7c-8.6-8.5-18.1-15.9-28.2-22.1
				c-7.1,28-37.4,50.4-76.8,57.7c-8.8,1.7-18,2.5-27.5,2.5s-18.5-0.8-27.4-2.4c-39.2-7.1-69.5-29.5-76.9-57.2
				c-10.2,6.2-19.6,13.7-28.3,22.3c-28.7,28.7-44.5,66.8-44.4,107l0.1,21.8c0.1,2.5,1.4,4.7,3.3,6H252c1.3-0.3,2.5-1,3.5-1.9
				c1.4-1.4,2.1-3.2,2.1-5.2L257.7,622.6z"/>
		</g>
		<g>
			<g>
				<g>
					<g>
						<defs>
							<path id="SVGID_1_" d="M257.7,622.6c-0.1-40.2-16.1-78.2-45.1-106.7c-8.6-8.5-18.1-15.9-28.2-22.1
								c-7.1,28-37.4,50.4-76.8,57.7c-8.8,1.7-18,2.5-27.5,2.5s-18.5-0.8-27.4-2.4c-39.2-7.1-69.5-29.5-76.9-57.2
								c-10.2,6.2-19.6,13.7-28.3,22.3c-28.7,28.7-44.5,66.8-44.4,107l0.1,21.8c0.1,2.5,1.4,4.7,3.3,6H252c1.3-0.3,2.5-1,3.5-1.9
								c1.4-1.4,2.1-3.2,2.1-5.2L257.7,622.6z"/>
						</defs>
						<clipPath id="SVGID_2_">
							<use xlink:href="#SVGID_1_"  style="overflow:visible;"/>
						</clipPath>
						<path class="st5" d="M259.8,623.8c-0.1-40.2-16.1-78.2-45.1-106.7c-28.8-28.5-66.9-44.1-107.3-44.1c-0.2,0-0.3,0-0.5,0
							l-18,0.1c38.9,1,75.4,16.5,103.3,44c28.9,28.6,44.9,66.5,45.1,106.7l0.1,21.8c0,1.9-0.7,3.8-2.1,5.2c-0.9,0.9-2.1,1.7-3.5,1.9
							h22.5c1.3-0.3,2.5-1,3.5-1.9c1.4-1.4,2.1-3.2,2.1-5.2L259.8,623.8z"/>
					</g>
				</g>
			</g>
		</g>
	</g>
	<path class="st6" d="M54.4,639.3c-0.1-0.3-0.1-0.5-0.1-0.7c0.1-1,1.1-1.8,2.1-1.7c10.3,0.6,21-0.7,31.6-3.7
		c8.6-2.4,17.2-5.8,25.7-10.4c14.4-7.7,23.4-15.7,23.5-15.8c0.8-0.7,2-0.7,2.8-0.1c0.7,0.6,0.6,1.9-0.1,2.5
		c-0.4,0.4-9.5,8.4-24.3,16.3c-8.7,4.6-17.7,8.3-26.5,10.8c-11.1,3.1-22.3,4.4-32.9,3.8C55.2,640.4,54.7,639.9,54.4,639.3z"/>
	<path class="st7" d="M142,626.7c0.8-0.4,1.2-1.2,1.1-2c-0.1-0.3-1.5-6.7-6.7-8.8c-2.5-1-4.8-1.2-6.8-0.7c-1.9,0.5-3.5,1.8-4.5,3.5
		c-0.8,1.6-0.9,3.2-0.5,4.6c0.1,0.2,0.2,0.4,0.3,0.6c0.8,1.7,2.5,3.1,5,4C135.2,630,141.7,626.9,142,626.7z"/>
	<path class="st8" d="M130.2,617.1c1.5-1.4,2.3-3.4,2.7-6c0.6-5.4-4.5-9.7-4.6-9.9c-0.6-0.6-1.6-0.6-2.4-0.1c-0.3,0.2-6.4,4.1-7,9.4
		c-0.2,1.9-0.1,3.3,0.4,4.7c0.2,0.6,0.5,1,0.7,1.5c1.1,1.5,2.8,2.4,4.8,2.5C126.8,619.2,128.7,618.5,130.2,617.1z"/>
	<path class="st8" d="M126.4,635.7c0.8-0.4,1.2-1.2,1.1-2c-0.1-0.3-1.5-6.7-6.7-8.8c-2.5-1-4.8-1.2-6.8-0.7
		c-1.9,0.5-3.5,1.8-4.5,3.5c-0.8,1.6-0.9,3.2-0.5,4.6c0.1,0.2,0.2,0.4,0.3,0.6c0.8,1.7,2.5,3.1,5,4
		C119.6,639,126.2,635.8,126.4,635.7z"/>
	<path class="st7" d="M114.6,626c1.5-1.4,2.3-3.4,2.7-6c0.6-5.4-4.5-9.7-4.6-9.9c-0.6-0.6-1.6-0.6-2.4-0.1c-0.3,0.2-6.4,4.1-7,9.4
		c-0.2,1.9-0.1,3.3,0.4,4.7c0.2,0.6,0.5,1,0.7,1.5c1.1,1.5,2.8,2.4,4.8,2.5C111.1,628.2,113.1,627.4,114.6,626z"/>
	<path class="st9" d="M35.6,475.4c1.4,1.9,1.9,4.4,1.3,6.6c-3.2,12.4-4.7,25.2-4.6,38c0.1,25.1,12.4,53.6,33.8,78.3
		c21.3,24.6,48.4,41.7,74.5,47.2c3.5,0.7,5.9,4,5.9,7.6h22.3c0-3.3-2.1-6.4-5.2-7.3c-0.2-0.1-0.5-0.1-0.6-0.2
		c-26-5.5-53.1-22.5-74.5-47.2c-21.4-24.7-33.7-53.2-33.8-78.3c0-12.9,1.6-25.7,4.6-38c0.6-2.3,0.1-4.7-1.3-6.6
		c-1.4-1.9-3.5-3-5.7-3h-3.4c-3.7,0-7.3,0.2-10.9,0.5c-0.2,0-0.3,0-0.5,0c-0.5,0-1,0.1-1.5,0.1c-0.9,0.1-1.8,0.2-2.7,0.3
		C34.1,473.9,34.9,474.6,35.6,475.4z"/>
	<path class="st10" d="M140.4,645.4c-26-5.5-53.1-22.5-74.5-47.2c-21.4-24.7-33.7-53.2-33.8-78.3c-0.1-12.8,1.5-25.6,4.6-38
		c0.6-2.2,0.1-4.7-1.3-6.6c-0.6-0.8-1.5-1.6-2.4-2c0.9-0.1,1.8-0.2,2.7-0.3c-35.6,3.2-68.7,19.4-94.4,46.2
		c-28.6,30.1-44.3,69.7-44.1,111.9l0.1,22h249C146.4,649.4,143.9,646.1,140.4,645.4z"/>
	<path class="st6" d="M146.5,596.2c-0.2-0.1-0.4-0.3-0.6-0.6c-0.6-0.8-0.3-2,0.6-2.7c8.1-6.3,15.3-14.3,21.4-23.5
		c4.9-7.4,9.2-15.7,12.6-24.7c5.8-15.2,7.3-27.2,7.3-27.3c0.1-1,1-1.9,2-1.9s1.7,0.9,1.6,2c-0.1,0.5-1.6,12.5-7.6,28.3
		c-3.5,9.3-8,17.8-13,25.5c-6.4,9.6-13.9,17.9-22.3,24.5C147.8,596.4,147,596.5,146.5,596.2z"/>
	<path class="st7" d="M204.3,529.2c0.4-0.8,0.1-1.8-0.6-2.2c-0.2-0.2-5.6-4.1-10.8-2.2c-2.5,0.8-4.5,2.2-5.6,3.9
		c-1.1,1.7-1.6,3.6-1.1,5.6c0.4,1.7,1.4,3.1,2.7,3.8c0.2,0.1,0.4,0.2,0.6,0.3c1.8,0.7,3.9,0.6,6.5-0.3
		C201.4,536.3,204.2,529.5,204.3,529.2z"/>
	<path class="st8" d="M189,529.8c0.2-2-0.5-4.2-1.9-6.3c-3.1-4.5-9.7-4.5-10-4.5c-0.8,0-1.6,0.6-1.9,1.5c-0.1,0.3-2.1,7.2,0.8,11.7
		c1,1.5,2.1,2.6,3.3,3.2c0.6,0.3,1,0.5,1.6,0.6c1.8,0.5,3.7,0,5.3-1.3C187.9,533.6,188.9,531.7,189,529.8z"/>
	<path class="st8" d="M198.4,546.2c0.4-0.8,0.1-1.8-0.6-2.2c-0.2-0.2-5.6-4.1-10.8-2.2c-2.5,0.8-4.5,2.2-5.6,3.9
		c-1.1,1.7-1.6,3.6-1.1,5.6c0.4,1.7,1.4,3.1,2.7,3.8c0.2,0.1,0.4,0.2,0.6,0.3c1.8,0.7,3.9,0.6,6.5-0.3
		C195.4,553.1,198.3,546.5,198.4,546.2z"/>
	<path class="st7" d="M183.2,546.7c0.2-2-0.5-4.2-1.9-6.3c-3.1-4.5-9.7-4.5-10-4.5c-0.8,0-1.6,0.6-1.9,1.5
		c-0.1,0.3-2.1,7.2,0.8,11.7c1,1.5,2.1,2.6,3.3,3.2c0.6,0.3,1,0.5,1.6,0.6c1.8,0.5,3.7,0,5.3-1.3C182,550.5,183,548.7,183.2,546.7z"
		/>
	<path class="st7" d="M188.9,563.4c-0.2-0.2-4.6-5.1-10.1-4.3c-2.6,0.4-4.6,1.4-6.1,2.9c-1.4,1.5-2.1,3.3-2,5.4c0.1,2,1,3.7,2.5,4.7
		c0.1,0.1,0.3,0.2,0.4,0.2c1.5,0.8,3.5,1.1,5.9,0.7c5.5-0.8,9.3-7,9.5-7.2C189.6,565,189.5,564.1,188.9,563.4z"/>
	<g>
		<path class="st8" d="M174.2,563.4c0.5-2,0.3-4.3-0.8-6.7c-2.1-5.1-8.7-6.3-9-6.3c-0.8-0.2-1.7,0.3-2,1.1
			c-0.1,0.3-3.3,6.9-1.1,11.9c0.9,2.2,2.2,3.8,3.7,4.6c0.1,0.1,0.3,0.1,0.4,0.2c1.7,0.7,3.5,0.6,5.3-0.3S173.7,565.4,174.2,563.4z"
			/>
		<path class="st8" d="M177.5,583.4c-0.2-0.3-3.6-6-9.1-6.2c-2.6-0.1-4.7,0.5-6.4,1.7c-1.6,1.2-2.6,3-2.9,5s0.4,3.9,1.7,5.2
			c0.4,0.4,0.8,0.7,1.4,1c1.2,0.6,2.7,1,4.5,1.1c5.4,0.2,10.2-5.3,10.4-5.5C177.9,585,178,584.1,177.5,583.4z"/>
		<path class="st8" d="M163.3,580.6c0.8-1.9,0.9-4.2,0.4-6.9c-1.2-5.5-7.3-7.9-7.6-8c-0.7-0.3-1.7,0-2.1,0.7
			c-0.2,0.3-4.4,6.2-3.2,11.7c0.6,2.6,1.7,4.5,3.2,5.7c0.2,0.1,0.4,0.3,0.6,0.4c1.4,0.7,3,0.8,4.6,0.3
			C161,583.8,162.5,582.4,163.3,580.6z"/>
		<path class="st8" d="M197.3,510.1c0.6-5.7-4.2-10.3-4.4-10.5c-0.6-0.6-1.5-0.6-2.2-0.1c-0.3,0.2-6,4.5-6.6,10.2
			c-0.3,2.8,0.1,5,1.1,6.6c0.5,0.8,1.2,1.4,1.9,1.9c0.7,0.5,1.7,0.6,2.6,0.6c1.9,0.1,3.7-0.7,5-2.2
			C196.2,515.1,197,512.9,197.3,510.1z"/>
	</g>
	<ellipse class="st11" cx="144.9" cy="594.7" rx="16" ry="16"/>
	<circle class="st12" cx="144.6" cy="594.5" r="9.8"/>
	<path class="st2" d="M-21.9,329.6L-21.9,329.6c-21,0.1-38,21.3-38,47.4c0,12.6,4,24.5,11.2,33.4c7.1,8.9,16.7,13.7,26.8,13.7h0.1
		c21-0.1,37.9-21.3,37.9-47.4C16,350.7-1.1,329.6-21.9,329.6z"/>
	<path class="st2" d="M185.1,328.8L185.1,328.8c-21.7,0.1-39.2,21.3-39.1,47.4c0,12.6,4.2,24.5,11.6,33.4s17.2,13.7,27.6,13.7h0.1
		c21.6-0.1,39.1-21.3,39-47.4C224.3,349.9,206.7,328.8,185.1,328.8z"/>
	<path class="st2" d="M187.5,311.6c-0.1-23-16.9-41.7-37.5-41.7H12.8c-10,0-19.5,4.4-26.5,12.3c-7,8-10.9,18.5-10.9,29.7l0.2,81.4
		c0.2,65.3,47.8,118.2,106.2,118.2h0.4c58.5-0.2,106-53.5,105.8-118.9L187.5,311.6z"/>
	<path class="st13" d="M82.3,463.5c-9.1,0-17.8-3.3-24.5-9.6c-2.9-2.6-3.1-7-0.5-9.8c2.6-2.9,7-3.1,9.8-0.5c4.1,3.8,9.5,5.8,15,5.8
		h0.1c5.7,0,10.9-2.1,15.1-5.9c2.9-2.6,7.2-2.4,9.8,0.4c2.6,2.9,2.4,7.2-0.4,9.8C100.2,459.9,91.5,463.4,82.3,463.5
		C82.4,463.5,82.3,463.5,82.3,463.5z"/>
	<path class="st14" d="M40.6,349.7c9.1,0,17.8,1.7,24.5,4.7c2.9,1.3,3.1,3.5,0.5,4.9c-2.6,1.4-7,1.5-9.8,0.2c-4.1-1.9-9.5-3-15-3
		h-0.1c-5.7,0-10.9,1-15.1,3c-2.9,1.3-7.2,1.2-9.8-0.2c-2.6-1.4-2.4-3.6,0.4-4.9C22.7,351.4,31.4,349.6,40.6,349.7L40.6,349.7z"/>
	<path class="st14" d="M127.6,349.7c9.1,0,17.8,1.7,24.5,4.7c2.9,1.3,3.1,3.5,0.5,4.9c-2.6,1.4-7,1.5-9.8,0.2c-4.1-1.9-9.5-3-15-3
		h-0.1c-5.7,0-10.9,1-15.1,3c-2.9,1.3-7.2,1.2-9.8-0.2c-2.6-1.4-2.4-3.6,0.4-4.9C109.7,351.4,118.4,349.6,127.6,349.7
		C127.5,349.7,127.6,349.7,127.6,349.7z"/>
	<path class="st15" d="M53.2,386c0-6.5-5.3-11.7-11.8-11.7s-11.7,5.3-11.7,11.8s5.3,11.7,11.8,11.7S53.3,392.5,53.2,386z"/>
	<path class="st15" d="M136.2,385.9c0-6.5-5.3-11.8-11.8-11.7c-6.5,0-11.8,5.3-11.7,11.8c0,6.5,5.3,11.8,11.8,11.7
		C131,397.5,136.2,392.3,136.2,385.9z"/>
	<circle class="st0" cx="26.6" cy="216.3" r="70.7"/>
	<circle class="st0" cx="134.1" cy="212.1" r="67.9"/>
	<circle class="st0" cx="202" cy="311.1" r="28.1"/>
	<circle class="st0" cx="206.8" cy="340.6" r="23.5"/>
	<circle class="st0" cx="187.8" cy="270.5" r="43.9"/>
	<circle class="st0" cx="83.5" cy="244.4" r="55.8"/>
	<circle class="st0" cx="166" cy="265.2" r="47.7"/>
	<circle class="st0" cx="160.4" cy="253.5" r="47.7"/>
	<circle class="st0" cx="5.9" cy="270.8" r="44.2"/>
	<ellipse class="st0" cx="-50.4" cy="306" rx="34.6" ry="34.6"/>
	<circle class="st0" cx="-56" cy="343.6" r="28.7"/>
	<circle class="st0" cx="-41.5" cy="260.2" r="44"/>
</g>
<circle class="st0" cx="183.3" cy="236.3" r="47.7"/>
<circle class="st0" cx="-27.8" cy="220.4" r="47.7"/>
</svg>
