<?xml version="1.0" encoding="utf-8"?>
<!-- Generator: Adobe Illustrator 19.0.0, SVG Export Plug-In . SVG Version: 6.00 Build 0)  -->
<svg version="1.1" id="Layer_1" xmlns="http://www.w3.org/2000/svg" xmlns:xlink="http://www.w3.org/1999/xlink" x="0px" y="0px"
	 viewBox="-114 142.3 383 508.7" style="enable-background:new -114 142.3 383 508.7;" xml:space="preserve">
<style type="text/css">
	.st0{fill:#9B3710;}
	.st1{fill:#842610;}
	.st2{fill:#F0BCA6;}
	.st3{fill:#E2A58A;}
	.st4{fill:#E27A84;}
	.st5{clip-path:url(#SVGID_2_);fill:#9E4653;}
	.st6{fill:#F8A814;}
	.st7{fill:#F8B53C;}
	.st8{fill:#F9CD45;}
	.st9{fill:#934161;}
	.st10{fill:#F4F0EF;}
	.st11{fill:#E6B09A;}
	.st12{fill:#868686;}
	.st13{fill:#4C350C;}
	.st14{fill:#825308;}
	.st15{clip-path:url(#SVGID_4_);fill:#9E4653;}
	.st16{fill:#453F3D;}
	.st17{fill:#A19994;}
	.st18{fill:#897F79;}
	.st19{fill:#D38537;}
	.st20{clip-path:url(#SVGID_6_);fill:#9B5A1F;}
	.st21{fill:#DDDDDD;}
	.st22{fill:#22201E;}
	.st23{fill:#675F5B;}
</style>
<path class="st0" d="M-3849.3,1254.9c-28.6-18.6-66.5-28.7-106.7-28.7s-78,10.2-106.7,28.7c-28.6,18.6-44.4,43.1-44.4,69.1v139.8
	c0,2.4,3.1,4.4,6.8,4.4h288.3c3.8,0,6.8-2,6.8-4.4V1324C-3805.1,1298-3820.8,1273.5-3849.3,1254.9z"/>
<ellipse class="st1" cx="-4070.6" cy="1465.2" rx="38.9" ry="33.2"/>
<ellipse class="st1" cx="-3841.4" cy="1464.3" rx="38.9" ry="33.2"/>
<path class="st2" d="M-4067.6,1376.1c-0.1,0-0.1,0-0.2,0c-25.4,0.1-46.1,20.8-46,46.3c0,12.3,4.9,23.9,13.6,32.6
	c8.7,8.7,20.3,13.4,32.5,13.4h0.2c25.4-0.1,46.1-20.8,46-46.3S-4042.4,1376.1-4067.6,1376.1z"/>
<path class="st2" d="M-3785.6,1663.1c-0.1-39.6-15.8-76.9-44-104.9s-65.4-43.4-104.7-43.4c-0.2,0-0.3,0-0.5,0l-48.7,0.2
	c-39.6,0.1-76.9,15.8-104.9,44c-28.1,28.2-43.5,65.6-43.4,105.2l0.1,18.6c0,3.7,3.1,6.8,6.8,6.8h332.5c1.8,0,3.5-0.7,4.8-2
	s2-3,2-4.8L-3785.6,1663.1z"/>
<path class="st3" d="M-3785.6,1663.1c-0.1-39.6-15.8-76.9-44-104.9s-65.4-43.4-104.7-43.4c-0.2,0-0.3,0-0.5,0l-16.7,0.1
	c37.9,1,73.7,16.2,100.9,43.3c28.2,28.1,43.9,65.4,44,104.9l0.1,19.6c0,1.8-0.7,3.5-2,4.8s-3,2-4.8,2h20.9c1.8,0,3.5-0.7,4.8-2
	s2-3,2-4.8V1663.1z"/>
<g>
	<g>
		<path id="XMLID_2_" class="st4" d="M-3785.6,1665.9c-0.1-39.3-15.8-76.3-44-104.2c-8.4-8.3-17.7-15.5-27.5-21.5
			c-7,27.3-36.5,49.3-75,56.3c-8.6,1.6-17.6,2.4-26.9,2.4c-9.2,0-18.1-0.8-26.7-2.4c-38.3-7-67.9-28.8-75.1-55.9
			c-10,6.1-19.1,13.4-27.6,21.8c-28.1,28.1-43.5,65.2-43.4,104.5l0.1,21.3c0.1,2.4,1.4,4.6,3.3,5.9h337.3c1.3-0.3,2.4-1,3.4-1.9
			c1.4-1.4,2.1-3.2,2.1-5.1L-3785.6,1665.9z"/>
	</g>
	<g>
		<g>
			<g>
				<g>
					<g>
						<g>
							<g>
								<defs>
									<path id="SVGID_1_" d="M-3785.6,1665.9c-0.1-39.3-15.8-76.3-44-104.2c-8.4-8.3-17.7-15.5-27.5-21.5
										c-7,27.3-36.5,49.3-75,56.3c-8.6,1.6-17.6,2.4-26.9,2.4c-9.2,0-18.1-0.8-26.7-2.4c-38.3-7-67.9-28.8-75.1-55.9
										c-10,6.1-19.1,13.4-27.6,21.8c-28.1,28.1-43.5,65.2-43.4,104.5l0.1,21.3c0.1,2.4,1.4,4.6,3.3,5.9h337.3
										c1.3-0.3,2.4-1,3.4-1.9c1.4-1.4,2.1-3.2,2.1-5.1L-3785.6,1665.9z"/>
								</defs>
								<clipPath id="SVGID_2_">
									<use xlink:href="#SVGID_1_"  style="overflow:visible;"/>
								</clipPath>
								<path class="st5" d="M-3784.6,1666.5c-0.1-39.3-15.8-76.3-44-104.2c-28.2-27.8-65.4-43.1-104.7-43.1c-0.2,0-0.3,0-0.5,0
									l-17.6,0.1c37.9,1,73.6,16.1,100.9,43c28.2,27.9,43.8,64.9,44,104.2l0.1,21.3c0,1.9-0.7,3.7-2.1,5.1
									c-0.9,0.9-2.1,1.6-3.4,1.9h22c1.3-0.3,2.4-1,3.4-1.9c1.4-1.4,2.1-3.2,2.1-5.1L-3784.6,1666.5z"/>
							</g>
						</g>
					</g>
				</g>
			</g>
		</g>
	</g>
</g>
<g>
	<path class="st6" d="M-3985.9,1677.4c-0.1-0.3-0.1-0.5-0.1-0.7c0.1-1,1.1-1.7,2.1-1.6c10,0.5,20.5-0.7,30.9-3.6
		c8.4-2.4,16.8-5.7,25.1-10.1c14-7.5,22.8-15.3,22.9-15.4c0.8-0.7,2-0.7,2.7-0.1c0.7,0.6,0.6,1.8-0.1,2.4
		c-0.4,0.4-9.2,8.2-23.7,15.9c-8.5,4.5-17.3,8.1-25.9,10.5c-10.9,3-21.7,4.3-32.1,3.7C-3985.1,1678.5-3985.6,1678.1-3985.9,1677.4z"
		/>
	<path class="st7" d="M-3900.4,1665.1c0.8-0.4,1.2-1.2,1.1-2c-0.1-0.3-1.4-6.5-6.5-8.6c-2.4-1-4.7-1.2-6.6-0.7
		c-1.9,0.5-3.4,1.7-4.3,3.4c-0.8,1.5-0.9,3.1-0.5,4.5c0.1,0.2,0.2,0.4,0.3,0.6c0.8,1.6,2.4,3,4.9,3.9
		C-3906.9,1668.4-3900.6,1665.3-3900.4,1665.1z"/>
	<path class="st8" d="M-3911.9,1655.7c1.4-1.4,2.3-3.3,2.6-5.9c0.6-5.3-4.3-9.5-4.5-9.7c-0.6-0.5-1.5-0.5-2.4-0.1
		c-0.3,0.2-6.2,4-6.9,9.1c-0.2,1.8-0.1,3.3,0.4,4.6c0.2,0.5,0.5,1,0.7,1.4c1.1,1.4,2.7,2.4,4.7,2.4
		C-3915.3,1657.8-3913.4,1657.1-3911.9,1655.7z"/>
	<path class="st8" d="M-3915.6,1673.8c0.8-0.4,1.2-1.2,1.1-2c-0.1-0.3-1.4-6.5-6.5-8.6c-2.4-1-4.7-1.2-6.6-0.7
		c-1.9,0.5-3.4,1.7-4.3,3.4c-0.8,1.5-0.9,3.1-0.5,4.5c0.1,0.2,0.2,0.4,0.3,0.6c0.8,1.6,2.4,3,4.9,3.9
		C-3922.1,1677.1-3915.9,1674-3915.6,1673.8z"/>
	<path class="st7" d="M-3927.1,1664.5c1.4-1.4,2.3-3.3,2.6-5.9c0.6-5.3-4.3-9.5-4.5-9.7c-0.6-0.5-1.5-0.5-2.4-0.1
		c-0.3,0.2-6.2,4-6.9,9.1c-0.2,1.8-0.1,3.3,0.4,4.6c0.2,0.5,0.5,1,0.7,1.4c1.1,1.4,2.7,2.4,4.7,2.4
		C-3930.4,1666.5-3928.6,1665.9-3927.1,1664.5z"/>
	<path class="st7" d="M-3933.6,1680.5c0-0.3-0.2-6.8-4.7-9.6c-2.2-1.4-4.3-2-6.3-1.8s-3.7,1.2-4.9,2.7s-1.6,3.3-1.1,5.1
		c0,0.2,0.1,0.3,0.1,0.5c0.5,1.6,1.9,3.1,3.9,4.3c4.5,2.9,11.3,0.8,11.7,0.7C-3934.1,1682.1-3933.6,1681.3-3933.6,1680.5z"/>
	<g>
		<path class="st8" d="M-3944.4,1671.1c1.6-1.2,2.9-3,3.7-5.4c1.6-5.2-2.4-10.1-2.5-10.4c-0.5-0.6-1.4-0.8-2.3-0.5
			c-0.3,0.1-6.8,2.9-8.4,8.1c-0.7,2.3-0.8,4.3-0.2,5.8c0.1,0.1,0.1,0.3,0.2,0.4c0.7,1.6,2.2,2.7,4.2,3.2
			C-3947.9,1672.6-3946.1,1672.2-3944.4,1671.1z"/>
		<path class="st8" d="M-3954.6,1687.9c0.1-0.3,1.2-6.8-2.7-10.3c-1.8-1.7-3.8-2.7-5.8-2.8c-1.9-0.2-3.8,0.5-5.3,1.9
			c-1.4,1.4-2.3,3.1-2.1,4.9c0,0.5,0.2,1.1,0.4,1.6c0.5,1.3,1.4,2.5,2.6,3.7c3.9,3.6,10.9,2.6,11.1,2.6
			C-3955.6,1689.4-3954.9,1688.7-3954.6,1687.9z"/>
		<path class="st8" d="M-3963.4,1676.7c1.8-0.9,3.3-2.4,4.6-4.8c2.6-4.8-0.4-10.5-0.5-10.8c-0.4-0.7-1.3-1.1-2.1-0.8
			c-0.3,0.1-7.2,1.7-9.8,6.6c-1.3,2.4-1.6,4.4-1.3,6.2c0.1,0.2,0.1,0.5,0.2,0.6c0.5,1.4,1.6,2.5,3.3,3.2
			C-3967.1,1677.6-3965.3,1677.5-3963.4,1676.7z"/>
		<path class="st8" d="M-3893.3,1646.6c4.2-3.8,3.5-10.2,3.5-10.5c-0.1-0.8-0.7-1.4-1.6-1.4c-0.3,0-7.2-0.5-11.4,3.3
			c-2,1.8-3.2,3.7-3.4,5.5c-0.2,0.9-0.1,1.8,0.3,2.6c0.3,0.8,0.8,1.5,1.4,2.2c1.4,1.3,3.3,1.8,5.2,1.5
			C-3897.3,1649.5-3895.3,1648.4-3893.3,1646.6z"/>
	</g>
</g>
<path class="st9" d="M-4001.4,1520.2c1.4,1.8,1.8,4.3,1.3,6.4c-3.1,12.1-4.6,24.6-4.5,37.1c0.1,24.5,12.1,52.3,33,76.4
	c20.8,24,47.3,40.7,72.7,46.1c3.4,0.7,5.8,3.9,5.8,7.4h21.8c0-3.3-2.1-6.2-5.1-7.2c-0.2-0.1-0.5-0.1-0.6-0.2
	c-25.3-5.3-51.9-22-72.7-46.1c-20.8-24.1-32.9-52-33-76.4c0-12.6,1.5-25.1,4.5-37.1c0.5-2.3,0.1-4.6-1.3-6.4
	c-1.4-1.8-3.4-2.9-5.6-2.9h-3.3c-3.6,0-7.2,0.2-10.7,0.5c-0.2,0-0.3,0-0.5,0c-0.5,0-1,0.1-1.4,0.1c-0.9,0.1-1.7,0.2-2.6,0.3
	C-4002.9,1518.6-4002.1,1519.4-4001.4,1520.2z"/>
<path class="st10" d="M-3899.1,1684.7c-25.4-5.3-51.9-22-72.7-46.1c-20.8-24.1-32.9-52-33-76.4c-0.1-12.5,1.4-25,4.5-37.1
	c0.5-2.2,0.1-4.6-1.3-6.4c-0.6-0.8-1.4-1.5-2.4-2c0.9-0.1,1.7-0.2,2.6-0.3c-34.8,3.2-67.1,18.9-92.2,45.1
	c-27.9,29.4-43.3,68.1-43.1,109.3l0.1,21.5h243.1C-3893.3,1688.6-3895.8,1685.4-3899.1,1684.7z"/>
<path class="st2" d="M-3848.6,1375.3c-0.1,0-0.1,0-0.2,0c-25.4,0.1-46.1,20.8-46,46.3c0,12.3,4.9,23.9,13.6,32.6
	s20.3,13.4,32.5,13.4h0.2c25.4-0.1,46.1-20.8,46-46.3C-3802.6,1395.9-3823.4,1375.3-3848.6,1375.3z"/>
<path class="st2" d="M-3852.3,1358.5c-0.1-22.5-16.7-40.7-36.9-40.7h-135.4c-9.9,0-19.2,4.3-26.2,12c-7,7.8-10.8,18-10.8,29
	l0.2,79.5c0.2,63.7,47.1,115.4,104.7,115.4h0.4c57.7-0.2,104.5-52.2,104.3-116.1L-3852.3,1358.5z"/>
<path class="st11" d="M-3852.1,1358.5c-0.1-22.5-15.6-40.7-34.6-40.7h-16.9c19,0,34.6,18.3,34.6,40.7l0.2,79
	c0.2,60.6-39.4,110.5-89.6,115.7c2.8,0.3,5.6,0.5,8.4,0.5h0.3c54-0.2,97.9-52.2,97.8-116.1L-3852.1,1358.5z"/>
<ellipse transform="matrix(-0.3592 -0.9333 0.9333 -0.3592 -6855.0703 -1923.52)" class="st1" cx="-4087.9" cy="1391.7" rx="41.5" ry="28.2"/>
<ellipse transform="matrix(-0.3592 -0.9333 0.9333 -0.3592 -6858.3105 -1933.9458)" class="st0" cx="-4093.1" cy="1387.6" rx="41.5" ry="28.2"/>
<path class="st3" d="M-3956.9,1506.8c-8.9,0-17.4-3.3-23.9-9.3c-2.8-2.5-3-6.9-0.5-9.6c2.5-2.8,6.9-3,9.6-0.5
	c4,3.7,9.2,5.7,14.7,5.7h0.1c5.5,0,10.7-2.1,14.8-5.8c2.8-2.5,7.1-2.4,9.6,0.4s2.4,7.1-0.4,9.6
	C-3939.4,1503.3-3947.9,1506.7-3956.9,1506.8L-3956.9,1506.8z"/>
<path class="st0" d="M-3997.6,1395.7c8.9,0,17.4,1.6,23.9,4.6c2.8,1.3,3,3.4,0.5,4.8c-2.5,1.4-6.9,1.4-9.6,0.2
	c-4-1.8-9.2-2.9-14.7-2.9h-0.1c-5.5,0-10.7,1-14.8,2.9c-2.8,1.3-7.1,1.2-9.6-0.2s-2.4-3.5,0.4-4.8
	C-4015.1,1397.3-4006.6,1395.6-3997.6,1395.7L-3997.6,1395.7z"/>
<ellipse class="st1" cx="-4061.9" cy="1349.4" rx="46.2" ry="37.8"/>
<path class="st0" d="M-3912.8,1395.7c8.9,0,17.4,1.6,23.9,4.6c2.8,1.3,3,3.4,0.5,4.8c-2.5,1.4-6.9,1.4-9.6,0.2
	c-4-1.8-9.2-2.9-14.7-2.9h-0.1c-5.5,0-10.7,1-14.8,2.9c-2.8,1.3-7.1,1.2-9.6-0.2c-2.5-1.4-2.4-3.5,0.4-4.8
	C-3930.3,1397.3-3921.8,1395.6-3912.8,1395.7L-3912.8,1395.7z"/>
<path class="st12" d="M-3985.3,1431.2c0-6.3-5.2-11.4-11.5-11.4s-11.4,5.2-11.4,11.5s5.2,11.4,11.5,11.4
	S-3985.3,1437.5-3985.3,1431.2z"/>
<path class="st12" d="M-3904.3,1430.9c0-6.3-5.2-11.5-11.5-11.4c-6.3,0-11.5,5.2-11.4,11.5c0,6.3,5.2,11.5,11.5,11.4
	C-3909.4,1442.4-3904.3,1437.3-3904.3,1430.9z"/>
<ellipse transform="matrix(-0.9333 -0.3592 0.3592 -0.9333 -7920.0005 1312.1042)" class="st1" cx="-3838.1" cy="1391.8" rx="28.2" ry="41.5"/>
<ellipse transform="matrix(-0.9333 -0.3592 0.3592 -0.9333 -7912.5923 1299.4827)" class="st0" cx="-3835.6" cy="1384.8" rx="28.2" ry="41.5"/>
<ellipse class="st1" cx="-3858.1" cy="1343.3" rx="46.2" ry="37.8"/>
<ellipse class="st0" cx="-3859.9" cy="1325.8" rx="47.3" ry="47.3"/>
<ellipse class="st1" cx="-3881.6" cy="1317.7" rx="46.2" ry="37.8"/>
<ellipse class="st0" cx="-3881.6" cy="1310.5" rx="45.4" ry="32.9"/>
<ellipse class="st0" cx="-4066.4" cy="1336.8" rx="44.4" ry="44.4"/>
<ellipse class="st1" cx="-4033.4" cy="1312" rx="46.2" ry="37.8"/>
<ellipse class="st1" cx="-3962.1" cy="1296.5" rx="71.3" ry="54.3"/>
<ellipse class="st0" cx="-3955.9" cy="1284.1" rx="74.3" ry="53.6"/>
<ellipse class="st0" cx="-4033.4" cy="1304.8" rx="45.4" ry="32.9"/>
<g>
	<path class="st6" d="M-3896.1,1635.3c-0.2-0.1-0.4-0.3-0.5-0.5c-0.5-0.8-0.3-2,0.5-2.6c7.9-6.2,14.9-13.9,20.9-22.9
		c4.8-7.2,9-15.3,12.3-24.1c5.7-14.8,7.2-26.5,7.2-26.6c0.1-1,1-1.8,2-1.8s1.6,0.9,1.5,2c-0.1,0.5-1.5,12.2-7.4,27.6
		c-3.4,9.1-7.8,17.4-12.7,24.9c-6.2,9.4-13.6,17.5-21.8,23.9C-3894.6,1635.6-3895.4,1635.6-3896.1,1635.3z"/>
	<path class="st7" d="M-3839.6,1570c0.4-0.8,0.1-1.7-0.5-2.2c-0.2-0.2-5.4-4-10.6-2.2c-2.4,0.8-4.3,2.2-5.4,3.8s-1.5,3.5-1.1,5.4
		c0.4,1.6,1.4,3,2.6,3.7c0.2,0.1,0.4,0.2,0.6,0.3c1.7,0.7,3.8,0.6,6.3-0.3C-3842.4,1576.8-3839.6,1570.3-3839.6,1570z"/>
	<path class="st8" d="M-3854.4,1570.5c0.2-2-0.5-4.1-1.9-6.2c-3-4.3-9.5-4.3-9.8-4.3c-0.8,0-1.5,0.6-1.8,1.4
		c-0.1,0.3-2.1,7.1,0.8,11.4c1,1.4,2.1,2.5,3.3,3.2c0.5,0.3,1,0.5,1.5,0.6c1.7,0.5,3.6,0,5.2-1.3
		C-3855.6,1574.1-3854.6,1572.4-3854.4,1570.5z"/>
	<path class="st8" d="M-3845.3,1586.5c0.4-0.8,0.1-1.7-0.5-2.2c-0.2-0.2-5.4-4-10.6-2.2c-2.4,0.8-4.3,2.2-5.4,3.8s-1.5,3.5-1.1,5.4
		c0.4,1.6,1.4,3,2.6,3.7c0.2,0.1,0.4,0.2,0.6,0.3c1.7,0.7,3.8,0.6,6.3-0.3C-3848.1,1593.3-3845.4,1586.8-3845.3,1586.5z"/>
	<path class="st7" d="M-3860.1,1587c0.2-2-0.5-4.1-1.9-6.2c-3-4.3-9.5-4.3-9.8-4.3c-0.8,0-1.5,0.6-1.8,1.4
		c-0.1,0.3-2.1,7.1,0.8,11.4c1,1.4,2.1,2.5,3.3,3.2c0.5,0.3,1,0.5,1.5,0.6c1.7,0.5,3.6,0,5.2-1.3
		C-3861.4,1590.6-3860.4,1589-3860.1,1587z"/>
	<path class="st7" d="M-3854.4,1603.4c-0.2-0.2-4.5-5-9.9-4.2c-2.5,0.4-4.5,1.4-6,2.8c-1.4,1.4-2.1,3.3-2,5.3s1,3.6,2.4,4.6
		c0.1,0.1,0.3,0.2,0.4,0.2c1.4,0.8,3.4,1.1,5.8,0.7c5.3-0.8,9.1-6.9,9.2-7.1C-3853.9,1604.9-3853.9,1604-3854.4,1603.4z"/>
	<g>
		<path class="st8" d="M-3868.9,1603.4c0.5-2,0.3-4.2-0.8-6.5c-2.1-5-8.5-6.2-8.8-6.2c-0.8-0.2-1.6,0.3-2,1.1
			c-0.1,0.3-3.3,6.7-1.1,11.6c0.9,2.2,2.2,3.7,3.6,4.5c0.1,0.1,0.3,0.1,0.4,0.2c1.6,0.7,3.4,0.6,5.2-0.3
			C-3870.6,1606.8-3869.4,1605.3-3868.9,1603.4z"/>
		<path class="st8" d="M-3865.6,1622.9c-0.2-0.3-3.5-5.9-8.9-6.1c-2.5-0.1-4.6,0.5-6.2,1.6c-1.5,1.2-2.5,2.9-2.8,4.9
			s0.4,3.8,1.6,5.1c0.4,0.4,0.8,0.7,1.4,1c1.2,0.6,2.6,1,4.4,1.1c5.3,0.2,10-5.2,10.1-5.3
			C-3865.4,1624.5-3865.3,1623.5-3865.6,1622.9z"/>
		<path class="st8" d="M-3879.6,1620c0.8-1.8,0.9-4.1,0.4-6.7c-1.2-5.3-7.2-7.7-7.4-7.8c-0.7-0.3-1.6,0-2.1,0.7
			c-0.2,0.3-4.3,6.1-3.1,11.4c0.5,2.5,1.6,4.4,3.1,5.5c0.2,0.1,0.4,0.3,0.5,0.4c1.4,0.7,2.9,0.8,4.5,0.3
			C-3881.8,1623.2-3880.4,1621.9-3879.6,1620z"/>
		<path class="st8" d="M-3846.4,1551.3c0.6-5.6-4.1-10-4.3-10.2c-0.5-0.5-1.4-0.5-2.2-0.1c-0.3,0.2-5.9,4.3-6.4,10
			c-0.3,2.7,0.1,4.9,1.1,6.4c0.5,0.8,1.2,1.4,1.9,1.8c0.7,0.5,1.6,0.6,2.5,0.6c1.9,0.1,3.6-0.7,4.9-2.2
			C-3847.4,1556.1-3846.6,1554-3846.4,1551.3z"/>
	</g>
</g>
<circle class="st13" cx="-3897.6" cy="1633.8" r="15.7"/>
<circle class="st14" cx="-3897.9" cy="1633.6" r="9.6"/>
<path class="st0" d="M-3849.3,1254.9c-28.6-18.6-66.5-28.7-106.7-28.7s-78,10.2-106.7,28.7c-28.6,18.6-44.4,43.1-44.4,69.1v139.8
	c0,2.4,3.1,4.4,6.8,4.4h288.3c3.8,0,6.8-2,6.8-4.4V1324C-3805.1,1298-3820.8,1273.5-3849.3,1254.9z"/>
<ellipse class="st1" cx="-4070.6" cy="1465.2" rx="38.9" ry="33.2"/>
<ellipse class="st1" cx="-3841.4" cy="1464.3" rx="38.9" ry="33.2"/>
<path class="st2" d="M-4067.6,1376.1c-0.1,0-0.1,0-0.2,0c-25.4,0.1-46.1,20.8-46,46.3c0,12.3,4.9,23.9,13.6,32.6
	c8.7,8.7,20.3,13.4,32.5,13.4h0.2c25.4-0.1,46.1-20.8,46-46.3S-4042.4,1376.1-4067.6,1376.1z"/>
<path class="st2" d="M-3785.6,1663.1c-0.1-39.6-15.8-76.9-44-104.9s-65.4-43.4-104.7-43.4c-0.2,0-0.3,0-0.5,0l-48.7,0.2
	c-39.6,0.1-76.9,15.8-104.9,44c-28.1,28.2-43.5,65.6-43.4,105.2l0.1,18.6c0,3.7,3.1,6.8,6.8,6.8h332.5c1.8,0,3.5-0.7,4.8-2
	s2-3,2-4.8L-3785.6,1663.1z"/>
<path class="st3" d="M-3785.6,1663.1c-0.1-39.6-15.8-76.9-44-104.9s-65.4-43.4-104.7-43.4c-0.2,0-0.3,0-0.5,0l-16.7,0.1
	c37.9,1,73.7,16.2,100.9,43.3c28.2,28.1,43.9,65.4,44,104.9l0.1,19.6c0,1.8-0.7,3.5-2,4.8s-3,2-4.8,2h20.9c1.8,0,3.5-0.7,4.8-2
	s2-3,2-4.8V1663.1z"/>
<g>
	<g>
		<path id="XMLID_1_" class="st4" d="M-3785.6,1665.9c-0.1-39.3-15.8-76.3-44-104.2c-8.4-8.3-17.7-15.5-27.5-21.5
			c-7,27.3-36.5,49.3-75,56.3c-8.6,1.6-17.6,2.4-26.9,2.4c-9.2,0-18.1-0.8-26.7-2.4c-38.3-7-67.9-28.8-75.1-55.9
			c-10,6.1-19.1,13.4-27.6,21.8c-28.1,28.1-43.5,65.2-43.4,104.5l0.1,21.3c0.1,2.4,1.4,4.6,3.3,5.9h337.3c1.3-0.3,2.4-1,3.4-1.9
			c1.4-1.4,2.1-3.2,2.1-5.1L-3785.6,1665.9z"/>
	</g>
	<g>
		<g>
			<g>
				<g>
					<g>
						<g>
							<g>
								<defs>
									<path id="SVGID_3_" d="M-3785.6,1665.9c-0.1-39.3-15.8-76.3-44-104.2c-8.4-8.3-17.7-15.5-27.5-21.5
										c-7,27.3-36.5,49.3-75,56.3c-8.6,1.6-17.6,2.4-26.9,2.4c-9.2,0-18.1-0.8-26.7-2.4c-38.3-7-67.9-28.8-75.1-55.9
										c-10,6.1-19.1,13.4-27.6,21.8c-28.1,28.1-43.5,65.2-43.4,104.5l0.1,21.3c0.1,2.4,1.4,4.6,3.3,5.9h337.3
										c1.3-0.3,2.4-1,3.4-1.9c1.4-1.4,2.1-3.2,2.1-5.1L-3785.6,1665.9z"/>
								</defs>
								<clipPath id="SVGID_4_">
									<use xlink:href="#SVGID_3_"  style="overflow:visible;"/>
								</clipPath>
								<path class="st15" d="M-3784.6,1666.5c-0.1-39.3-15.8-76.3-44-104.2c-28.2-27.8-65.4-43.1-104.7-43.1c-0.2,0-0.3,0-0.5,0
									l-17.6,0.1c37.9,1,73.6,16.1,100.9,43c28.2,27.9,43.8,64.9,44,104.2l0.1,21.3c0,1.9-0.7,3.7-2.1,5.1
									c-0.9,0.9-2.1,1.6-3.4,1.9h22c1.3-0.3,2.4-1,3.4-1.9c1.4-1.4,2.1-3.2,2.1-5.1L-3784.6,1666.5z"/>
							</g>
						</g>
					</g>
				</g>
			</g>
		</g>
	</g>
</g>
<g>
	<path class="st6" d="M-3985.9,1677.4c-0.1-0.3-0.1-0.5-0.1-0.7c0.1-1,1.1-1.7,2.1-1.6c10,0.5,20.5-0.7,30.9-3.6
		c8.4-2.4,16.8-5.7,25.1-10.1c14-7.5,22.8-15.3,22.9-15.4c0.8-0.7,2-0.7,2.7-0.1c0.7,0.6,0.6,1.8-0.1,2.4
		c-0.4,0.4-9.2,8.2-23.7,15.9c-8.5,4.5-17.3,8.1-25.9,10.5c-10.9,3-21.7,4.3-32.1,3.7C-3985.1,1678.5-3985.6,1678.1-3985.9,1677.4z"
		/>
	<path class="st7" d="M-3900.4,1665.1c0.8-0.4,1.2-1.2,1.1-2c-0.1-0.3-1.4-6.5-6.5-8.6c-2.4-1-4.7-1.2-6.6-0.7
		c-1.9,0.5-3.4,1.7-4.3,3.4c-0.8,1.5-0.9,3.1-0.5,4.5c0.1,0.2,0.2,0.4,0.3,0.6c0.8,1.6,2.4,3,4.9,3.9
		C-3906.9,1668.4-3900.6,1665.3-3900.4,1665.1z"/>
	<path class="st8" d="M-3911.9,1655.7c1.4-1.4,2.3-3.3,2.6-5.9c0.6-5.3-4.3-9.5-4.5-9.7c-0.6-0.5-1.5-0.5-2.4-0.1
		c-0.3,0.2-6.2,4-6.9,9.1c-0.2,1.8-0.1,3.3,0.4,4.6c0.2,0.5,0.5,1,0.7,1.4c1.1,1.4,2.7,2.4,4.7,2.4
		C-3915.3,1657.8-3913.4,1657.1-3911.9,1655.7z"/>
	<path class="st8" d="M-3915.6,1673.8c0.8-0.4,1.2-1.2,1.1-2c-0.1-0.3-1.4-6.5-6.5-8.6c-2.4-1-4.7-1.2-6.6-0.7
		c-1.9,0.5-3.4,1.7-4.3,3.4c-0.8,1.5-0.9,3.1-0.5,4.5c0.1,0.2,0.2,0.4,0.3,0.6c0.8,1.6,2.4,3,4.9,3.9
		C-3922.1,1677.1-3915.9,1674-3915.6,1673.8z"/>
	<path class="st7" d="M-3927.1,1664.5c1.4-1.4,2.3-3.3,2.6-5.9c0.6-5.3-4.3-9.5-4.5-9.7c-0.6-0.5-1.5-0.5-2.4-0.1
		c-0.3,0.2-6.2,4-6.9,9.1c-0.2,1.8-0.1,3.3,0.4,4.6c0.2,0.5,0.5,1,0.7,1.4c1.1,1.4,2.7,2.4,4.7,2.4
		C-3930.4,1666.5-3928.6,1665.9-3927.1,1664.5z"/>
	<path class="st7" d="M-3933.6,1680.5c0-0.3-0.2-6.8-4.7-9.6c-2.2-1.4-4.3-2-6.3-1.8s-3.7,1.2-4.9,2.7s-1.6,3.3-1.1,5.1
		c0,0.2,0.1,0.3,0.1,0.5c0.5,1.6,1.9,3.1,3.9,4.3c4.5,2.9,11.3,0.8,11.7,0.7C-3934.1,1682.1-3933.6,1681.3-3933.6,1680.5z"/>
	<g>
		<path class="st8" d="M-3944.4,1671.1c1.6-1.2,2.9-3,3.7-5.4c1.6-5.2-2.4-10.1-2.5-10.4c-0.5-0.6-1.4-0.8-2.3-0.5
			c-0.3,0.1-6.8,2.9-8.4,8.1c-0.7,2.3-0.8,4.3-0.2,5.8c0.1,0.1,0.1,0.3,0.2,0.4c0.7,1.6,2.2,2.7,4.2,3.2
			C-3947.9,1672.6-3946.1,1672.2-3944.4,1671.1z"/>
		<path class="st8" d="M-3954.6,1687.9c0.1-0.3,1.2-6.8-2.7-10.3c-1.8-1.7-3.8-2.7-5.8-2.8c-1.9-0.2-3.8,0.5-5.3,1.9
			c-1.4,1.4-2.3,3.1-2.1,4.9c0,0.5,0.2,1.1,0.4,1.6c0.5,1.3,1.4,2.5,2.6,3.7c3.9,3.6,10.9,2.6,11.1,2.6
			C-3955.6,1689.4-3954.9,1688.7-3954.6,1687.9z"/>
		<path class="st8" d="M-3963.4,1676.7c1.8-0.9,3.3-2.4,4.6-4.8c2.6-4.8-0.4-10.5-0.5-10.8c-0.4-0.7-1.3-1.1-2.1-0.8
			c-0.3,0.1-7.2,1.7-9.8,6.6c-1.3,2.4-1.6,4.4-1.3,6.2c0.1,0.2,0.1,0.5,0.2,0.6c0.5,1.4,1.6,2.5,3.3,3.2
			C-3967.1,1677.6-3965.3,1677.5-3963.4,1676.7z"/>
		<path class="st8" d="M-3893.3,1646.6c4.2-3.8,3.5-10.2,3.5-10.5c-0.1-0.8-0.7-1.4-1.6-1.4c-0.3,0-7.2-0.5-11.4,3.3
			c-2,1.8-3.2,3.7-3.4,5.5c-0.2,0.9-0.1,1.8,0.3,2.6c0.3,0.8,0.8,1.5,1.4,2.2c1.4,1.3,3.3,1.8,5.2,1.5
			C-3897.3,1649.5-3895.3,1648.4-3893.3,1646.6z"/>
	</g>
</g>
<path class="st9" d="M-4001.4,1520.2c1.4,1.8,1.8,4.3,1.3,6.4c-3.1,12.1-4.6,24.6-4.5,37.1c0.1,24.5,12.1,52.3,33,76.4
	c20.8,24,47.3,40.7,72.7,46.1c3.4,0.7,5.8,3.9,5.8,7.4h21.8c0-3.3-2.1-6.2-5.1-7.2c-0.2-0.1-0.5-0.1-0.6-0.2
	c-25.3-5.3-51.9-22-72.7-46.1c-20.8-24.1-32.9-52-33-76.4c0-12.6,1.5-25.1,4.5-37.1c0.5-2.3,0.1-4.6-1.3-6.4
	c-1.4-1.8-3.4-2.9-5.6-2.9h-3.3c-3.6,0-7.2,0.2-10.7,0.5c-0.2,0-0.3,0-0.5,0c-0.5,0-1,0.1-1.4,0.1c-0.9,0.1-1.7,0.2-2.6,0.3
	C-4002.9,1518.6-4002.1,1519.4-4001.4,1520.2z"/>
<path class="st10" d="M-3899.1,1684.7c-25.4-5.3-51.9-22-72.7-46.1c-20.8-24.1-32.9-52-33-76.4c-0.1-12.5,1.4-25,4.5-37.1
	c0.5-2.2,0.1-4.6-1.3-6.4c-0.6-0.8-1.4-1.5-2.4-2c0.9-0.1,1.7-0.2,2.6-0.3c-34.8,3.2-67.1,18.9-92.2,45.1
	c-27.9,29.4-43.3,68.1-43.1,109.3l0.1,21.5h243.1C-3893.3,1688.6-3895.8,1685.4-3899.1,1684.7z"/>
<path class="st2" d="M-3848.6,1375.3c-0.1,0-0.1,0-0.2,0c-25.4,0.1-46.1,20.8-46,46.3c0,12.3,4.9,23.9,13.6,32.6
	s20.3,13.4,32.5,13.4h0.2c25.4-0.1,46.1-20.8,46-46.3C-3802.6,1395.9-3823.4,1375.3-3848.6,1375.3z"/>
<path class="st2" d="M-3852.3,1358.5c-0.1-22.5-16.7-40.7-36.9-40.7h-135.4c-9.9,0-19.2,4.3-26.2,12c-7,7.8-10.8,18-10.8,29
	l0.2,79.5c0.2,63.7,47.1,115.4,104.7,115.4h0.4c57.7-0.2,104.5-52.2,104.3-116.1L-3852.3,1358.5z"/>
<path class="st11" d="M-3852.1,1358.5c-0.1-22.5-15.6-40.7-34.6-40.7h-16.9c19,0,34.6,18.3,34.6,40.7l0.2,79
	c0.2,60.6-39.4,110.5-89.6,115.7c2.8,0.3,5.6,0.5,8.4,0.5h0.3c54-0.2,97.9-52.2,97.8-116.1L-3852.1,1358.5z"/>
<ellipse transform="matrix(-0.3592 -0.9333 0.9333 -0.3592 -6855.0703 -1923.52)" class="st1" cx="-4087.9" cy="1391.7" rx="41.5" ry="28.2"/>
<ellipse transform="matrix(-0.3592 -0.9333 0.9333 -0.3592 -6858.3105 -1933.9458)" class="st0" cx="-4093.1" cy="1387.6" rx="41.5" ry="28.2"/>
<path class="st3" d="M-3956.9,1506.8c-8.9,0-17.4-3.3-23.9-9.3c-2.8-2.5-3-6.9-0.5-9.6c2.5-2.8,6.9-3,9.6-0.5
	c4,3.7,9.2,5.7,14.7,5.7h0.1c5.5,0,10.7-2.1,14.8-5.8c2.8-2.5,7.1-2.4,9.6,0.4s2.4,7.1-0.4,9.6
	C-3939.4,1503.3-3947.9,1506.7-3956.9,1506.8L-3956.9,1506.8z"/>
<path class="st0" d="M-3997.6,1395.7c8.9,0,17.4,1.6,23.9,4.6c2.8,1.3,3,3.4,0.5,4.8c-2.5,1.4-6.9,1.4-9.6,0.2
	c-4-1.8-9.2-2.9-14.7-2.9h-0.1c-5.5,0-10.7,1-14.8,2.9c-2.8,1.3-7.1,1.2-9.6-0.2s-2.4-3.5,0.4-4.8
	C-4015.1,1397.3-4006.6,1395.6-3997.6,1395.7L-3997.6,1395.7z"/>
<ellipse class="st1" cx="-4061.9" cy="1349.4" rx="46.2" ry="37.8"/>
<path class="st0" d="M-3912.8,1395.7c8.9,0,17.4,1.6,23.9,4.6c2.8,1.3,3,3.4,0.5,4.8c-2.5,1.4-6.9,1.4-9.6,0.2
	c-4-1.8-9.2-2.9-14.7-2.9h-0.1c-5.5,0-10.7,1-14.8,2.9c-2.8,1.3-7.1,1.2-9.6-0.2c-2.5-1.4-2.4-3.5,0.4-4.8
	C-3930.3,1397.3-3921.8,1395.6-3912.8,1395.7L-3912.8,1395.7z"/>
<path class="st12" d="M-3985.3,1431.2c0-6.3-5.2-11.4-11.5-11.4s-11.4,5.2-11.4,11.5s5.2,11.4,11.5,11.4
	S-3985.3,1437.5-3985.3,1431.2z"/>
<path class="st12" d="M-3904.3,1430.9c0-6.3-5.2-11.5-11.5-11.4c-6.3,0-11.5,5.2-11.4,11.5c0,6.3,5.2,11.5,11.5,11.4
	C-3909.4,1442.4-3904.3,1437.3-3904.3,1430.9z"/>
<ellipse transform="matrix(-0.9333 -0.3592 0.3592 -0.9333 -7920.0005 1312.1042)" class="st1" cx="-3838.1" cy="1391.8" rx="28.2" ry="41.5"/>
<ellipse transform="matrix(-0.9333 -0.3592 0.3592 -0.9333 -7912.5923 1299.4827)" class="st0" cx="-3835.6" cy="1384.8" rx="28.2" ry="41.5"/>
<ellipse class="st1" cx="-3858.1" cy="1343.3" rx="46.2" ry="37.8"/>
<ellipse class="st0" cx="-3859.9" cy="1325.8" rx="47.3" ry="47.3"/>
<ellipse class="st1" cx="-3881.6" cy="1317.7" rx="46.2" ry="37.8"/>
<ellipse class="st0" cx="-3881.6" cy="1310.5" rx="45.4" ry="32.9"/>
<ellipse class="st0" cx="-4066.4" cy="1336.8" rx="44.4" ry="44.4"/>
<ellipse class="st1" cx="-4033.4" cy="1312" rx="46.2" ry="37.8"/>
<ellipse class="st1" cx="-3962.1" cy="1296.5" rx="71.3" ry="54.3"/>
<ellipse class="st0" cx="-3955.9" cy="1284.1" rx="74.3" ry="53.6"/>
<ellipse class="st0" cx="-4033.4" cy="1304.8" rx="45.4" ry="32.9"/>
<g>
	<path class="st6" d="M-3896.1,1635.3c-0.2-0.1-0.4-0.3-0.5-0.5c-0.5-0.8-0.3-2,0.5-2.6c7.9-6.2,14.9-13.9,20.9-22.9
		c4.8-7.2,9-15.3,12.3-24.1c5.7-14.8,7.2-26.5,7.2-26.6c0.1-1,1-1.8,2-1.8s1.6,0.9,1.5,2c-0.1,0.5-1.5,12.2-7.4,27.6
		c-3.4,9.1-7.8,17.4-12.7,24.9c-6.2,9.4-13.6,17.5-21.8,23.9C-3894.6,1635.6-3895.4,1635.6-3896.1,1635.3z"/>
	<path class="st7" d="M-3839.6,1570c0.4-0.8,0.1-1.7-0.5-2.2c-0.2-0.2-5.4-4-10.6-2.2c-2.4,0.8-4.3,2.2-5.4,3.8s-1.5,3.5-1.1,5.4
		c0.4,1.6,1.4,3,2.6,3.7c0.2,0.1,0.4,0.2,0.6,0.3c1.7,0.7,3.8,0.6,6.3-0.3C-3842.4,1576.8-3839.6,1570.3-3839.6,1570z"/>
	<path class="st8" d="M-3854.4,1570.5c0.2-2-0.5-4.1-1.9-6.2c-3-4.3-9.5-4.3-9.8-4.3c-0.8,0-1.5,0.6-1.8,1.4
		c-0.1,0.3-2.1,7.1,0.8,11.4c1,1.4,2.1,2.5,3.3,3.2c0.5,0.3,1,0.5,1.5,0.6c1.7,0.5,3.6,0,5.2-1.3
		C-3855.6,1574.1-3854.6,1572.4-3854.4,1570.5z"/>
	<path class="st8" d="M-3845.3,1586.5c0.4-0.8,0.1-1.7-0.5-2.2c-0.2-0.2-5.4-4-10.6-2.2c-2.4,0.8-4.3,2.2-5.4,3.8s-1.5,3.5-1.1,5.4
		c0.4,1.6,1.4,3,2.6,3.7c0.2,0.1,0.4,0.2,0.6,0.3c1.7,0.7,3.8,0.6,6.3-0.3C-3848.1,1593.3-3845.4,1586.8-3845.3,1586.5z"/>
	<path class="st7" d="M-3860.1,1587c0.2-2-0.5-4.1-1.9-6.2c-3-4.3-9.5-4.3-9.8-4.3c-0.8,0-1.5,0.6-1.8,1.4
		c-0.1,0.3-2.1,7.1,0.8,11.4c1,1.4,2.1,2.5,3.3,3.2c0.5,0.3,1,0.5,1.5,0.6c1.7,0.5,3.6,0,5.2-1.3
		C-3861.4,1590.6-3860.4,1589-3860.1,1587z"/>
	<path class="st7" d="M-3854.4,1603.4c-0.2-0.2-4.5-5-9.9-4.2c-2.5,0.4-4.5,1.4-6,2.8c-1.4,1.4-2.1,3.3-2,5.3s1,3.6,2.4,4.6
		c0.1,0.1,0.3,0.2,0.4,0.2c1.4,0.8,3.4,1.1,5.8,0.7c5.3-0.8,9.1-6.9,9.2-7.1C-3853.9,1604.9-3853.9,1604-3854.4,1603.4z"/>
	<g>
		<path class="st8" d="M-3868.9,1603.4c0.5-2,0.3-4.2-0.8-6.5c-2.1-5-8.5-6.2-8.8-6.2c-0.8-0.2-1.6,0.3-2,1.1
			c-0.1,0.3-3.3,6.7-1.1,11.6c0.9,2.2,2.2,3.7,3.6,4.5c0.1,0.1,0.3,0.1,0.4,0.2c1.6,0.7,3.4,0.6,5.2-0.3
			C-3870.6,1606.8-3869.4,1605.3-3868.9,1603.4z"/>
		<path class="st8" d="M-3865.6,1622.9c-0.2-0.3-3.5-5.9-8.9-6.1c-2.5-0.1-4.6,0.5-6.2,1.6c-1.5,1.2-2.5,2.9-2.8,4.9
			s0.4,3.8,1.6,5.1c0.4,0.4,0.8,0.7,1.4,1c1.2,0.6,2.6,1,4.4,1.1c5.3,0.2,10-5.2,10.1-5.3
			C-3865.4,1624.5-3865.3,1623.5-3865.6,1622.9z"/>
		<path class="st8" d="M-3879.6,1620c0.8-1.8,0.9-4.1,0.4-6.7c-1.2-5.3-7.2-7.7-7.4-7.8c-0.7-0.3-1.6,0-2.1,0.7
			c-0.2,0.3-4.3,6.1-3.1,11.4c0.5,2.5,1.6,4.4,3.1,5.5c0.2,0.1,0.4,0.3,0.5,0.4c1.4,0.7,2.9,0.8,4.5,0.3
			C-3881.8,1623.2-3880.4,1621.9-3879.6,1620z"/>
		<path class="st8" d="M-3846.4,1551.3c0.6-5.6-4.1-10-4.3-10.2c-0.5-0.5-1.4-0.5-2.2-0.1c-0.3,0.2-5.9,4.3-6.4,10
			c-0.3,2.7,0.1,4.9,1.1,6.4c0.5,0.8,1.2,1.4,1.9,1.8c0.7,0.5,1.6,0.6,2.5,0.6c1.9,0.1,3.6-0.7,4.9-2.2
			C-3847.4,1556.1-3846.6,1554-3846.4,1551.3z"/>
	</g>
</g>
<circle class="st13" cx="-3897.6" cy="1633.8" r="15.7"/>
<circle class="st14" cx="-3897.9" cy="1633.6" r="9.6"/>
<g>
	<path class="st16" d="M199.4,193.9c-31.3-31.2-72.5-48.4-116.5-48.4s-85.1,17.2-116.3,48.4s-48.4,72.5-48.4,116.4v235.3
		c0,4.1,3.4,7.4,7.4,7.4h314.7c4.1,0,7.4-3.4,7.4-7.4V310.2C247.8,266.4,230.5,225,199.4,193.9z"/>
	<path class="st17" d="M-35.1,309c-0.1,0-0.1,0-0.2,0c-27.8,0.1-50.3,22.7-50.2,50.5c0,13.4,5.3,26.1,14.8,35.6s22.1,14.6,35.5,14.6
		h0.2c27.8-0.1,50.3-22.7,50.2-50.5C15.3,331.4-7.3,309-35.1,309z"/>
	<path class="st17" d="M268.9,622.1c-0.1-43.2-17.2-83.9-48-114.5c-30.7-30.5-71.3-47.3-114.3-47.3c-0.2,0-0.3,0-0.5,0L53,460.5
		c-43.2,0.1-83.9,17.2-114.5,48s-47.4,71.6-47.3,114.8l0.1,20.3c0,4.1,3.4,7.4,7.4,7.4h362.9c2,0,3.9-0.8,5.2-2.2
		c1.4-1.4,2.2-3.3,2.2-5.2v-21.5H268.9L268.9,622.1z"/>
	<path class="st18" d="M268.9,622.1c-0.1-43.2-17.2-83.9-48-114.5c-30.7-30.5-71.3-47.3-114.3-47.3c-0.2,0-0.3,0-0.5,0l-18.2,0.1
		c41.4,1.1,80.4,17.7,110.1,47.2c30.8,30.6,47.9,71.3,48,114.5l0.1,21.3c0,2-0.8,3.9-2.2,5.2c-1.4,1.4-3.3,2.2-5.2,2.2h22.8
		c2,0,3.9-0.8,5.2-2.2s2.2-3.3,2.2-5.2V622.1z"/>
	<g>
		<g>
			<path id="XMLID_50_" class="st19" d="M268.9,621c-0.1-42.9-17.2-83.3-48-113.7c-9.2-9.1-19.3-16.9-30-23.5
				c-7.6,29.8-39.8,53.7-81.8,61.4c-9.4,1.8-19.2,2.7-29.3,2.7S60,547,50.7,545.3c-41.8-7.6-74.1-31.4-81.9-61
				c-10.9,6.6-20.8,14.6-30.1,23.8c-30.7,30.6-47.5,71.1-47.4,114l0.1,23.2c0.1,2.7,1.5,5,3.6,6.4h368.1c1.4-0.3,2.7-1.1,3.8-2.1
				c1.5-1.5,2.3-3.5,2.3-5.5L268.9,621z"/>
		</g>
		<g>
			<g>
				<g>
					<g>
						<g>
							<g>
								<g>
									<defs>
										<path id="SVGID_5_" d="M268.9,621c-0.1-42.9-17.2-83.3-48-113.7c-9.2-9.1-19.3-16.9-30-23.5
											c-7.6,29.8-39.8,53.7-81.8,61.4c-9.4,1.8-19.2,2.7-29.3,2.7S60,547,50.7,545.3c-41.8-7.6-74.1-31.4-81.9-61
											c-10.9,6.6-20.8,14.6-30.1,23.8c-30.7,30.6-47.5,71.1-47.4,114l0.1,23.2c0.1,2.7,1.5,5,3.6,6.4h368.1
											c1.4-0.3,2.7-1.1,3.8-2.1c1.5-1.5,2.3-3.5,2.3-5.5L268.9,621z"/>
									</defs>
									<clipPath id="SVGID_6_">
										<use xlink:href="#SVGID_5_"  style="overflow:visible;"/>
									</clipPath>
									<path class="st20" d="M270,621.7c-0.1-42.9-17.2-83.3-48-113.7c-30.7-30.3-71.3-47-114.3-47c-0.2,0-0.3,0-0.5,0L88,461.1
										c41.4,1.1,80.3,17.6,110.1,46.9c30.8,30.4,47.8,70.8,48,113.7l0.1,23.2c0,2.1-0.8,4.1-2.3,5.5c-1,1-2.3,1.8-3.8,2.1h24
										c1.4-0.3,2.7-1.1,3.8-2.1c1.5-1.5,2.3-3.5,2.3-5.5L270,621.7z"/>
								</g>
							</g>
						</g>
					</g>
				</g>
			</g>
		</g>
	</g>
	<g>
		<path class="st6" d="M59.9,647.1c-0.1-0.2-0.2-0.5-0.2-0.8c-0.1-1.1,0.8-2.1,1.9-2.2c10.9-1.5,21.7-4.9,32.3-10.2
			c8.5-4.2,16.8-9.6,24.8-16c13.5-10.9,21.2-21,21.3-21.1c0.7-0.9,2-1.2,2.9-0.6s1.1,1.8,0.4,2.7c-0.3,0.4-8.2,10.8-22.1,22
			c-8.2,6.6-16.8,12.2-25.6,16.6c-11.1,5.4-22.3,9.1-33.7,10.7C61.1,648,60.3,647.7,59.9,647.1z"/>
		<path class="st7" d="M149,616.3c0.8-0.6,1.1-1.6,0.7-2.4c-0.1-0.3-3-6.7-8.8-7.8c-2.8-0.6-5.2-0.4-7.2,0.6c-2,0.9-3.4,2.6-4,4.5
			c-0.5,1.8-0.4,3.5,0.5,4.9c0.1,0.2,0.3,0.4,0.4,0.6c1.2,1.6,3.3,2.7,6.1,3.2C142.5,621.1,148.8,616.5,149,616.3z"/>
		<path class="st8" d="M134.6,608.6c1.3-1.8,1.8-4.1,1.6-6.8c-0.4-5.7-6.6-9.3-6.9-9.5c-0.8-0.4-1.8-0.3-2.5,0.4
			c-0.2,0.2-5.8,5.5-5.5,11.3c0.1,2,0.6,3.6,1.4,4.8c0.3,0.5,0.7,1,1.1,1.4c1.4,1.4,3.4,1.9,5.5,1.6
			C131.6,611.5,133.4,610.4,134.6,608.6z"/>
		<path class="st8" d="M134.6,628.8c0.8-0.6,1.1-1.6,0.7-2.4c-0.1-0.3-3-6.7-8.8-7.8c-2.8-0.6-5.2-0.4-7.2,0.6c-2,0.9-3.4,2.6-4,4.5
			c-0.6,1.8-0.4,3.5,0.5,4.9c0.1,0.2,0.3,0.4,0.4,0.6c1.2,1.6,3.3,2.7,6.1,3.2C128.1,633.6,134.3,629,134.6,628.8z"/>
		<path class="st7" d="M120.1,621c1.3-1.8,1.8-4.1,1.6-6.8c-0.4-5.7-6.6-9.3-6.9-9.5c-0.8-0.4-1.8-0.3-2.5,0.4
			c-0.2,0.2-5.8,5.5-5.5,11.3c0.1,2,0.6,3.6,1.4,4.8c0.3,0.5,0.7,1,1.1,1.4c1.4,1.4,3.4,1.9,5.5,1.6
			C117.1,624,118.9,622.8,120.1,621z"/>
		<path class="st7" d="M116.6,639.6c-0.1-0.3-1.6-7.2-7-9.3c-2.7-1-5-1.3-7.1-0.6c-2.1,0.6-3.8,2-4.7,4c-1,1.9-1,4-0.2,5.7
			c0.1,0.1,0.1,0.3,0.2,0.4c1,1.6,2.7,2.9,5,3.9c5.4,2.2,12.3-1.5,12.6-1.7C116.3,641.4,116.8,640.5,116.6,639.6z"/>
		<g>
			<path class="st8" d="M103.1,631.7c1.6-1.6,2.5-3.8,2.9-6.6c0.7-5.8-4.6-10.4-4.8-10.6c-0.7-0.6-1.7-0.6-2.5-0.1
				c-0.3,0.2-6.7,4.5-7.4,10.4c-0.3,2.6,0,4.6,1,6.3c0.1,0.1,0.2,0.3,0.3,0.4c1.1,1.6,3,2.5,5,2.6
				C99.4,634.1,101.6,633.3,103.1,631.7z"/>
			<path class="st8" d="M95.4,651.9c0-0.3-0.2-7.5-5-10.6c-2.4-1.5-4.6-2.1-6.8-1.9c-2.1,0.2-4,1.4-5.3,3.1
				c-1.3,1.8-1.8,3.8-1.2,5.6c0.2,0.6,0.4,1.2,0.7,1.7c0.8,1.3,2,2.4,3.6,3.5c2.1,1.3,14.9-0.3,12.5,0.5
				C94.9,653.6,95.4,652.8,95.4,651.9z"/>
			<path class="st8" d="M83.8,641.7c1.8-1.3,3.2-3.4,4-6.1c1.8-5.7-2.6-11.3-2.8-11.5c-0.5-0.7-1.5-0.9-2.4-0.5
				c-0.3,0.1-7.3,3.4-9.1,9.1c-0.9,2.8-0.9,5-0.1,6.9c0.1,0.2,0.2,0.4,0.3,0.7c0.9,1.4,2.3,2.4,4.1,2.8
				C79.9,643.5,82.1,643,83.8,641.7z"/>
			<path class="st8" d="M152.6,595c3.7-4.9,1.7-11.8,1.6-12.1c-0.3-0.8-1.1-1.4-2-1.3c-0.3,0-7.9,0.9-11.6,5.8
				c-1.8,2.4-2.6,4.6-2.6,6.6c0,1,0.3,2,0.8,2.8s1.2,1.5,2,2c1.8,1.1,3.9,1.3,5.8,0.6C149,598.9,151,597.3,152.6,595z"/>
		</g>
	</g>
	<path class="st21" d="M33.3,466.2c1.5,2,2,4.5,1.4,6.9c-3.4,13-5,26.6-4.9,40c0.1,26.5,13.2,56.4,36,82.4
		c22.7,25.9,51.6,44,79.3,49.7c3.8,0.8,6.3,4.1,6.3,8h23.8c0-3.6-2.3-6.7-5.5-7.7c-0.2-0.1-0.5-0.1-0.7-0.2
		c-27.7-5.7-56.6-23.7-79.3-49.7s-35.9-56-36-82.4c0-13.5,1.7-27.1,4.9-40c0.6-2.5,0.1-4.9-1.4-6.9s-3.8-3.2-6.1-3.2h-3.7
		c-4,0-7.8,0.2-11.7,0.5c-0.2,0-0.3,0-0.5,0c-0.5,0-1.1,0.1-1.6,0.1c-1,0.1-1.9,0.2-2.9,0.3C31.6,464.6,32.6,465.4,33.3,466.2z"/>
	<path class="st10" d="M144.9,645.1c-27.7-5.7-56.6-23.7-79.3-49.7s-35.9-56-36-82.4c-0.1-13.4,1.6-27,4.9-40
		c0.6-2.4,0.1-4.9-1.4-6.9c-0.7-0.9-1.6-1.7-2.6-2.2c1-0.1,1.9-0.2,2.9-0.3c-37.9,3.5-73.2,20.4-100.6,48.6
		c-30.4,31.7-47.2,73.4-47,117.8l0.1,23.1h265.4C151.4,649.3,148.6,645.9,144.9,645.1z"/>
	<path class="st17" d="M199,308.1c-0.1,0-0.1,0-0.2,0c-27.8,0.1-50.3,22.7-50.2,50.5c0,13.4,5.3,26.1,14.8,35.6s22.1,14.6,35.5,14.6
		h0.2c27.8-0.1,50.3-22.7,50.2-50.5C249.4,330.6,226.6,308.1,199,308.1z"/>
	<path class="st17" d="M193.5,311.6c-0.1-22.4-18.4-40.6-40.8-40.6H3.3c-11,0-21.1,4.2-28.9,12c-7.7,7.7-12,18-12,28.8l0.2,79.2
		c0.2,63.5,52,115,115.6,115h0.4c63.7-0.2,115.4-52.1,115.2-115.7L193.5,311.6z"/>
	<path class="st18" d="M193.5,311.6c-0.1-22.4-17.7-40.6-39.3-40.6H135c21.6,0,39.2,18.3,39.3,40.6l0.2,78.7
		c0.2,60.4-44.7,110.2-101.7,115.3c3.2,0.3,6.3,0.4,9.6,0.4h0.3c61.3-0.2,111-52.1,110.8-115.7L193.5,311.6L193.5,311.6z"/>
	
		<ellipse transform="matrix(-0.3592 -0.9333 0.9333 -0.3592 -385.959 386.1646)" class="st22" cx="-60.4" cy="325.6" rx="45.2" ry="30.8"/>
	
		<ellipse transform="matrix(-0.3592 -0.9333 0.9333 -0.3592 -389.6012 374.8638)" class="st16" cx="-66.1" cy="321.2" rx="45.2" ry="30.8"/>
	<path class="st18" d="M81.9,451.6c-9.7,0-19-3.6-26.1-10.2c-3.1-2.8-3.3-7.5-0.5-10.5c2.8-3.1,7.5-3.3,10.5-0.5
		c4.3,4.1,10.1,6.2,16,6.2h0.1c6,0,11.7-2.3,16.1-6.3c3.1-2.8,7.7-2.6,10.5,0.4c2.8,3.1,2.6,7.7-0.4,10.5
		C101.1,447.9,91.8,451.5,81.9,451.6L81.9,451.6z"/>
	<path class="st16" d="M64.1,340.6c-2.8,1.5-7.5,1.6-10.5,0.2c-4.3-2-10.1-3.2-16-3.2h-0.1c-6,0-11.7,1.1-16.1,3.2
		c-3.1,1.4-7.7,1.3-10.5-0.2c-2-1.1-2.5-2.6-1.5-3.9c0.4-0.5,1-1,1.9-1.4c7.1-3.3,16.4-5.1,26.1-5.1c0,0.1,0.1,0.1,0.1,0.1
		c9.7,0,19,1.8,26.1,5c0.9,0.4,1.6,0.9,2,1.4C66.6,338,66.1,339.5,64.1,340.6z"/>
	<ellipse class="st22" cx="-32.7" cy="279.9" rx="50.4" ry="41.3"/>
	<path class="st16" d="M156.8,340.6c-2.8,1.5-7.5,1.6-10.5,0.2c-4.3-2-10.1-3.2-16-3.2h-0.1c-6,0-11.7,1.1-16.1,3.2
		c-3.1,1.4-7.7,1.3-10.5-0.2c-2-1.1-2.5-2.6-1.5-3.9c0.4-0.5,1-1,1.9-1.4c7.1-3.3,16.4-5.1,26.1-5.1c0,0.1,0,0.1,0.1,0.1
		c9.7,0,19,1.8,26.1,5c0.9,0.4,1.6,0.9,2,1.4C159.3,338,158.8,339.5,156.8,340.6z"/>
	<path class="st23" d="M65.6,336.7c-0.3,0.4-0.8,0.8-1.5,1.2c-2.8,1.5-7.5,1.6-10.5,0.2c-4.3-2-10.1-3.2-16-3.2h-0.1
		c-6,0-11.7,1.1-16.1,3.2c-3.1,1.4-7.7,1.3-10.5-0.2c-0.7-0.3-1.2-0.8-1.5-1.2c0.4-0.5,1-1,1.9-1.4c7.1-3.3,16.4-5.1,26.1-5.1
		c0,0.1,0.1,0.1,0.1,0.1c9.7,0,19,1.8,26.1,5C64.4,335.7,65.1,336.2,65.6,336.7z"/>
	<path class="st23" d="M158.3,336.7c-0.3,0.4-0.8,0.8-1.5,1.2c-2.8,1.5-7.5,1.6-10.5,0.2c-4.3-2-10.1-3.2-16-3.2h-0.1
		c-6,0-11.7,1.1-16.1,3.2c-3.1,1.4-7.7,1.3-10.5-0.2c-0.7-0.3-1.2-0.8-1.5-1.2c0.4-0.5,1-1,1.9-1.4c7.1-3.3,16.4-5.1,26.1-5.1
		c0,0.1,0,0.1,0.1,0.1c9.7,0,19,1.8,26.1,5C157.1,335.7,157.9,336.2,158.3,336.7z"/>
	<path class="st12" d="M50.9,369.1c0-6.9-5.6-12.4-12.5-12.4S26,362.3,26,369.2c0,6.9,5.6,12.4,12.5,12.4S50.9,376,50.9,369.1z"/>
	<path class="st12" d="M139.4,368.8c0-6.9-5.6-12.5-12.5-12.4c-6.9,0-12.5,5.6-12.4,12.5c0,6.9,5.6,12.5,12.5,12.4
		C133.9,381.4,139.4,375.8,139.4,368.8z"/>
	
		<ellipse transform="matrix(-0.9333 -0.3592 0.3592 -0.9333 292.1786 705.5046)" class="st22" cx="211.6" cy="325.6" rx="30.8" ry="45.2"/>
	
		<ellipse transform="matrix(-0.9333 -0.3592 0.3592 -0.9333 300.5305 691.0804)" class="st16" cx="214.5" cy="317.6" rx="30.8" ry="45.2"/>
	<ellipse class="st22" cx="189.8" cy="273.2" rx="50.4" ry="41.3"/>
	<ellipse class="st16" cx="187.6" cy="254.1" rx="51.6" ry="51.6"/>
	<ellipse class="st22" cx="164" cy="245.3" rx="50.4" ry="41.3"/>
	<ellipse class="st16" cx="164" cy="237.4" rx="49.6" ry="35.9"/>
	<ellipse class="st16" cx="-37.4" cy="266" rx="48.4" ry="48.4"/>
	<ellipse class="st22" cx="-1.6" cy="239.1" rx="50.4" ry="41.3"/>
	<ellipse class="st22" cx="76.3" cy="222.1" rx="77.7" ry="59.3"/>
	<ellipse class="st16" cx="82.9" cy="208.5" rx="81.1" ry="58.5"/>
	<ellipse class="st16" cx="-1.6" cy="231.2" rx="49.6" ry="35.9"/>
	<g>
		<path class="st6" d="M148.5,591.9c-0.2-0.1-0.4-0.3-0.6-0.6c-0.6-0.9-0.3-2.2,0.6-2.9c8.6-6.7,16.3-15.2,22.8-25
			c5.2-7.9,9.8-16.7,13.4-26.3c6.2-16.2,7.8-28.9,7.8-29c0.1-1.1,1.1-2,2.2-2s1.8,1,1.7,2.2c-0.1,0.5-1.7,13.3-8.1,30.1
			c-3.8,9.9-8.5,19-13.8,27.2c-6.8,10.3-14.8,19.1-23.8,26.1C149.9,592.2,149,592.2,148.5,591.9z"/>
		<path class="st7" d="M210,520.6c0.4-0.9,0.1-1.9-0.6-2.4c-0.2-0.2-5.9-4.3-11.6-2.4c-2.7,0.9-4.7,2.4-5.9,4.1
			c-1.2,1.8-1.7,3.9-1.2,5.9c0.4,1.8,1.5,3.3,2.9,4.1c0.2,0.1,0.4,0.2,0.7,0.3c1.9,0.8,4.1,0.7,6.9-0.3
			C207,528,209.9,520.9,210,520.6z"/>
		<path class="st8" d="M193.8,521.1c0.2-2.2-0.5-4.4-2.1-6.7c-3.3-4.7-10.4-4.7-10.7-4.7c-0.9,0-1.7,0.7-2,1.6
			c-0.1,0.3-2.3,7.7,0.9,12.4c1.1,1.6,2.3,2.8,3.6,3.5c0.6,0.3,1.1,0.5,1.7,0.7c1.9,0.5,4,0,5.6-1.4
			C192.5,525.1,193.5,523.2,193.8,521.1z"/>
		<path class="st8" d="M203.8,538.7c0.4-0.9,0.1-1.9-0.6-2.4c-0.2-0.2-5.9-4.3-11.6-2.4c-2.7,0.9-4.7,2.4-5.9,4.1
			c-1.2,1.8-1.7,3.9-1.2,5.9c0.4,1.8,1.5,3.3,2.9,4.1c0.2,0.1,0.4,0.2,0.7,0.3c1.9,0.8,4.1,0.7,6.9-0.3
			C200.6,546.1,203.6,539,203.8,538.7z"/>
		<path class="st7" d="M187.5,539.2c0.2-2.2-0.5-4.4-2.1-6.7c-3.3-4.7-10.4-4.7-10.7-4.7c-0.9,0-1.7,0.7-2,1.6
			c-0.1,0.3-2.3,7.7,0.9,12.4c1.1,1.6,2.3,2.8,3.6,3.5c0.6,0.3,1.1,0.5,1.7,0.7c1.9,0.5,4,0,5.6-1.4
			C186.1,543.1,187.3,541.3,187.5,539.2z"/>
		<path class="st7" d="M193.6,557c-0.2-0.2-4.9-5.4-10.8-4.5c-2.8,0.4-4.9,1.5-6.5,3.1c-1.5,1.6-2.3,3.6-2.2,5.7
			c0.1,2.2,1.1,4,2.7,5c0.1,0.1,0.3,0.2,0.4,0.2c1.6,0.9,3.8,1.2,6.3,0.8c5.8-0.9,9.9-7.5,10.1-7.7
			C194.3,558.7,194.3,557.6,193.6,557z"/>
		<g>
			<path class="st8" d="M178,557c0.5-2.2,0.3-4.5-0.9-7.1c-2.3-5.4-9.3-6.7-9.6-6.7c-0.9-0.2-1.8,0.3-2.2,1.2
				c-0.1,0.3-3.6,7.3-1.2,12.6c1,2.4,2.4,4.1,4,4.9c0.1,0.1,0.3,0.1,0.4,0.2c1.8,0.8,3.8,0.7,5.6-0.3
				C176.1,560.8,177.5,559.1,178,557z"/>
			<path class="st8" d="M181.5,578.3c-0.2-0.3-3.9-6.4-9.7-6.6c-2.8-0.1-5,0.5-6.8,1.8c-1.7,1.3-2.8,3.2-3.1,5.3
				c-0.3,2.2,0.4,4.1,1.8,5.5c0.4,0.4,0.9,0.8,1.5,1.1c1.3,0.7,2.9,1.1,4.8,1.2c5.7,0.2,10.9-5.6,11.1-5.8
				C181.9,580.1,182,579,181.5,578.3z"/>
			<path class="st8" d="M166.4,575.2c0.9-2,1-4.4,0.4-7.3c-1.3-5.8-7.8-8.4-8.1-8.5c-0.8-0.3-1.8,0-2.3,0.8
				c-0.2,0.3-4.6,6.6-3.4,12.4c0.6,2.8,1.8,4.8,3.4,6c0.2,0.1,0.4,0.3,0.6,0.4c1.5,0.8,3.2,0.9,4.9,0.3
				C163.9,578.7,165.5,577.2,166.4,575.2z"/>
			<path class="st8" d="M202.5,500.2c0.7-6.1-4.4-11-4.6-11.2c-0.6-0.6-1.6-0.6-2.4-0.1c-0.3,0.2-6.4,4.7-7,10.9
				c-0.3,3,0.1,5.3,1.2,7c0.5,0.9,1.3,1.5,2.1,2c0.8,0.5,1.8,0.7,2.8,0.7c2.1,0.1,4-0.8,5.3-2.4
				C201.3,505.5,202.1,503.2,202.5,500.2z"/>
		</g>
	</g>
	<circle class="st13" cx="146.6" cy="590.2" r="17.1"/>
	<circle class="st14" cx="146.5" cy="590" r="10.5"/>
</g>
</svg>
