<?xml version="1.0" encoding="utf-8"?>
<!-- Generator: Adobe Illustrator 23.1.0, SVG Export Plug-In . SVG Version: 6.00 Build 0)  -->
<svg version="1.1" id="Layer_1" xmlns="http://www.w3.org/2000/svg" xmlns:xlink="http://www.w3.org/1999/xlink" x="0px" y="0px"
	 viewBox="0 0 383 508.7" style="enable-background:new 0 0 383 508.7;" xml:space="preserve">
<style type="text/css">
	.st0{fill:#842610;}
	.st1{fill:#F0BCA6;}
	.st2{fill:#E6B09A;}
	.st3{fill:#F2CA70;}
	.st4{clip-path:url(#SVGID_2_);}
	.st5{fill:#D8AD56;}
	.st6{fill:#F7D789;}
	.st7{fill:#FFF4F1;}
	.st8{fill:#CCA95A;}
	.st9{fill:#ECEDEF;}
	.st10{fill:#E2A58A;}
	.st11{fill:#9B3710;}
	.st12{fill:#868686;}
	.st13{fill:#E5A589;}
</style>
<g>
	<title>adult</title>
	<ellipse class="st0" cx="105.2" cy="265" rx="43.2" ry="46.4"/>
	<ellipse class="st0" cx="304.1" cy="249.1" rx="42" ry="46.7"/>
	<path class="st1" d="M12.3,509.1h361.5c1.4-0.4,2.7-1.1,3.7-2.1c1.4-1.5,2.3-3.4,2.2-5.5l-0.1-23c-0.6-87.7-71.7-158.6-159.4-158.9
		h-0.5l-52.1,0.2c-87.9,0.6-158.9,72-158.9,160l0.1,23C8.9,505.4,10.2,507.6,12.3,509.1z"/>
	<path class="st1" d="M74.1,179.5h-0.2c-26.4,0.1-47.7,21.6-47.7,47.9c0,12.7,5,24.8,14.1,33.7c9.1,9,16,13.9,33.7,13.9h0.2
		c26.4,0,47.7-21.4,47.7-47.8S100.4,179.4,74.1,179.5L74.1,179.5L74.1,179.5z"/>
	<path class="st1" d="M312.4,178.7h-0.2c-26.4,0.1-47.8,21.6-47.7,48c0,12.7,5,24.8,14.1,33.7c8.9,8.9,21.1,13.9,33.7,13.9h0.2
		c26.4-0.4,47.4-22.1,47-48.5C359.2,199.9,338.3,179,312.4,178.7L312.4,178.7z"/>
	<path class="st2" d="M379.6,478.6c-0.5-87.7-71.7-158.7-159.4-159h-0.5l-18.9,0.1c86.1,2.5,154.7,72.7,155.3,158.9l0.1,23
		c0,2.1-0.8,4-2.3,5.5c-1,1-2.3,1.7-3.7,2.1h23.5c1.4-0.4,2.7-1.1,3.7-2.1c1.4-1.5,2.3-3.4,2.2-5.5L379.6,478.6z"/>
	<path class="st3" d="M380.6,478.6c-0.1-42.3-17.1-82.8-47.2-112.4c-9.1-9-19-16.2-29.9-22.8c0.4,1.6,0.4,2.5,0.4,4.2
		c0,29.3-54.7,53-122.1,53c-57.3,0-105.4-17.2-118.6-40.4c-2.4,2.1-4.8,4.4-7.1,6.7C26.2,396.9,9.4,437.5,9.6,479.6l0.1,23
		c0.1,2.6,1.4,4.9,3.5,6.3h361.5c1.4-0.3,2.7-1.1,3.7-2c1.5-1.4,2.3-3.4,2.3-5.5L380.6,478.6z"/>
	<g>
		<g>
			<g>
				<defs>
					<path id="SVGID_1_" d="M380.6,478.6c-0.1-42.3-17.1-82.8-47.2-112.4c-9.1-9-19.1-16.9-30-23.5c0.4,1.6,0.5,3.2,0.5,4.9
						c0,29.3-54.7,53-122.1,53c-57.3,0-105.4-17.2-118.6-40.4c-2.4,2.1-4.8,4.4-7.1,6.7C26.2,396.9,9.4,437.5,9.6,479.6l0.1,23
						c0.1,2.6,1.4,4.9,3.5,6.3h361.5c1.4-0.3,2.7-1.1,3.7-2c1.5-1.4,2.3-3.4,2.3-5.5L380.6,478.6z"/>
				</defs>
				<clipPath id="SVGID_2_">
					<use xlink:href="#SVGID_1_"  style="overflow:visible;"/>
				</clipPath>
				<g class="st4">
					<path class="st5" d="M380.6,477.6c-0.5-87.7-71.7-158.7-159.4-159h-0.5l-18.9,0.1c86.1,2.5,154.7,72.7,155.3,158.9l0.1,23
						c0,2.1-0.8,4-2.3,5.5c-1,1-2.3,1.7-3.7,2.1h23.5c1.4-0.4,2.7-1.1,3.7-2.1c1.4-1.5,2.3-3.4,2.2-5.5L380.6,477.6z"/>
				</g>
			</g>
		</g>
	</g>
	<path class="st6" d="M154.5,319.4h0.5C154.8,319.3,154.7,319.4,154.5,319.4z"/>
	<path class="st7" d="M264.2,502.1c-27.5-5.8-56.2-23.9-78.8-50s-35.6-56.4-35.7-83c-0.1-13.6,1.6-27.1,4.9-40.3
		c0.6-2.4,0.1-5-1.4-7c-0.7-0.9-1.6-1.6-2.6-2.2l2.9-0.3c-37.7,3.4-72.7,20.5-99.9,49C23.4,400.4,6.7,442.9,7,487l0.1,23.3h263.4
		C270.7,506.5,268,503,264.2,502.1z"/>
	<path class="st8" d="M152.9,319.5c0.5,0,1.1-0.1,1.6-0.1C154,319.4,153.4,319.5,152.9,319.5z"/>
	<path class="st8" d="M155,319.3c3.8-0.3,7.6-0.5,11.5-0.5C162.6,318.9,158.8,319,155,319.3z"/>
	<path class="st9" d="M150.1,323.3c1.5,2,2,4.5,1.4,6.9c-3.3,13.1-5,26.6-4.9,40.1c0.1,26.5,13.1,56.5,35.6,82.4s51,44,78.4,49.7
		c3.7,0.9,6.3,4.2,6.3,8h23.5c0.1-3.5-2.2-6.6-5.5-7.7c-0.2-0.1-0.5-0.1-0.7-0.2c-27.4-5.8-56-23.7-78.5-49.7s-35.5-56.1-35.6-82.4
		c0-13.5,1.6-26.9,4.9-40c0.6-2.4,0.1-4.9-1.4-6.9c-1.4-1.9-3.7-3.1-6.1-3.1h-3.6c-3.9,0-7.7,0.2-11.5,0.5h-0.5
		c-0.5,0-1.1,0.1-1.6,0.1l-2.8,0.3C148.6,321.6,149.4,322.4,150.1,323.3z"/>
	<path class="st6" d="M7,509.9V509H2.3"/>
	<path class="st1" d="M310.1,153.4c-0.1-33-11.6-54.9-35.5-67c-21.3-11-50.3-12.2-78.4-12.2s-57.1,1.7-78.4,12.7
		c-23.6,12.2-35.1,34.3-35,67.2L83.1,260c0.2,69.2,51.1,125.1,113.5,125.1h0.3c62.7-0.2,113.5-56.8,113.3-126L310.1,153.4z"/>
	<path class="st10" d="M196.1,329.4c-9.6,0-18.8-3.6-25.8-10.1c-3.1-2.9-3.3-7.7-0.5-10.9c2.9-3.1,7.7-3.3,10.9-0.5l0,0
		c4.2,3.9,9.7,6,15.4,6h0.1c5.7,0,11.2-2.2,15.4-6.1c3.2-2.8,8-2.5,10.8,0.7c2.7,3.1,2.5,7.7-0.4,10.5c-7,6.5-16.3,10.2-25.9,10.2
		C196.2,329.4,196.1,329.4,196.1,329.4z"/>
	<circle class="st0" cx="58.8" cy="192.9" r="46.4"/>
	<ellipse class="st11" cx="56.5" cy="184.9" rx="46.4" ry="46.4"/>
	<path class="st12" d="M165.2,258.1c0-6.8-5.5-12.2-12.3-12.2s-12.2,5.5-12.2,12.3c0,6.8,5.5,12.2,12.3,12.2
		C159.8,270.4,165.2,264.9,165.2,258.1z"/>
	<path class="st11" d="M167.4,238.7c-0.7,0-1.3-0.1-1.9-0.3l-28.9-7.6c-4.1-1.1-6.5-5.3-5.5-9.4s5.3-6.5,9.4-5.5l0,0l28.9,7.6
		c4.1,1.1,6.6,5.3,5.5,9.4C173.9,236.3,170.8,238.7,167.4,238.7L167.4,238.7z"/>
	<path class="st12" d="M251.8,257.8c0-6.8-5.5-12.2-12.3-12.2s-12.2,5.5-12.2,12.3c0,6.8,5.5,12.2,12.3,12.2
		c6.7,0.1,12.2-5.3,12.2-12C251.8,258,251.8,257.9,251.8,257.8z"/>
	<path class="st11" d="M225,238.5c-4.3,0-7.7-3.5-7.7-7.7c0-3.5,2.3-6.5,5.7-7.4l28.9-7.8c4.1-1.1,8.3,1.3,9.5,5.4
		c1.1,4.1-1.3,8.3-5.4,9.5l-28.9,7.8C226.4,238.3,225.7,238.4,225,238.5z"/>
	<path class="st2" d="M310.1,153.4c-0.1-33-11.6-54.9-35.5-67c-21.3-11-50.3-12.2-78.4-12.2c-2.6,0-5.3,0-7.9,0.1
		c24.3,0.5,48.4,2.7,66.9,12.2c23.7,12.1,35.4,34,35.5,67l0.3,105.9c0.2,65.7-45.5,120-103.9,125.5c3.2,0.3,6.4,0.5,9.8,0.5h0.3
		c62.6-0.2,113.4-56.8,113.2-125.9L310.1,153.4z"/>
	<circle class="st0" cx="319.3" cy="181.4" r="46.7"/>
	<circle class="st11" cx="321.4" cy="171.9" r="46.7"/>
	<circle class="st0" cx="100.1" cy="110.8" r="65.1"/>
	<circle class="st11" cx="97.1" cy="103.3" r="65.1"/>
	<circle class="st0" cx="274.5" cy="110.8" r="67.5"/>
	<circle class="st11" cx="274.5" cy="101" r="67.5"/>
	<path class="st2" d="M380.6,501.6c0,2.1-0.8,4-2.3,5.5c-1,1-2.3,1.7-3.7,2.1h-23.5c1.4-0.3,2.7-1,3.7-2.1c1.4-1.5,2.3-3.4,2.3-5.5
		l0.3-20.5c8.4-9.1,15.2-19.5,20.3-30.7c0-0.1,0-0.1,0.1-0.2c1.7,9.4,2.6,18.9,2.6,28.4L380.6,501.6z"/>
	<path class="st1" d="M357.5,501.6c0,2.1-0.9,4.1-2.5,5.5c-1.1,1.1-2.6,1.8-4.1,2.1h-35.6c15.7-6.6,30.1-16.1,42.2-28V501.6z"/>
	<circle class="st13" cx="118.8" cy="298.6" r="2.9"/>
	<circle class="st13" cx="136.4" cy="298.6" r="2.9"/>
	<circle class="st13" cx="127" cy="312.9" r="2.9"/>
	<circle class="st13" cx="248.7" cy="298.6" r="2.9"/>
	<circle class="st13" cx="266.3" cy="298.6" r="2.9"/>
	
		<ellipse transform="matrix(0.1602 -0.9871 0.9871 0.1602 -92.9771 516.4185)" class="st13" cx="257" cy="312.9" rx="2.9" ry="2.9"/>
	<circle class="st0" cx="194.7" cy="87.3" r="78.3"/>
	<circle class="st11" cx="194.7" cy="78.7" r="78.3"/>
</g>
</svg>
