<?xml version="1.0" encoding="utf-8"?>
<!-- Generator: Adobe Illustrator 23.1.0, SVG Export Plug-In . SVG Version: 6.00 Build 0)  -->
<svg version="1.1" id="Layer_1" xmlns="http://www.w3.org/2000/svg" xmlns:xlink="http://www.w3.org/1999/xlink" x="0px" y="0px"
	 viewBox="0 0 383 508.7" style="enable-background:new 0 0 383 508.7;" xml:space="preserve">
<style type="text/css">
	.st0{fill:#232323;}
	.st1{fill:#F0BCA6;}
	.st2{fill:#E2A58A;}
	.st3{fill:#6BBBCE;}
	.st4{clip-path:url(#SVGID_2_);fill:#378D9B;}
	.st5{fill:#F8A814;}
	.st6{fill:#F8B53C;}
	.st7{fill:#F9CD45;}
	.st8{fill:#1D4E96;}
	.st9{fill:#EFEFEF;}
	.st10{fill:#E6B09A;}
	.st11{fill:#868686;}
	.st12{fill:#4C350C;}
	.st13{fill:#191919;}
	.st14{fill:#825308;}
</style>
<g>
	<path class="st0" d="M313.9,48.6C282.4,23.2,240.8,9.3,196.6,9.3S110.7,23.2,79.2,48.7c-31.5,25.4-48.8,59.1-48.8,94.7v191.7
		c0,3.4,3.4,6.1,7.5,6.1H355c4.2,0,7.5-2.7,7.5-6.1V143.4C362.7,107.7,345.3,74,313.9,48.6z"/>
	<path class="st1" d="M83.9,173.6L83.9,173.6c-22.7,0.1-40.9,23-40.9,50.9c0,13.6,4.3,26.3,12,35.8C62.7,269.8,73,275,83.9,275H84
		c22.5-0.1,40.8-23,40.8-50.9C124.6,196.3,106.3,173.6,83.9,173.6z"/>
	<path class="st1" d="M379,480.6c-0.1-42.3-16.8-82.1-47-112.1c-30.1-29.9-69.8-46.3-111.9-46.3c-0.2,0-0.3,0-0.5,0l-52,0.2
		c-42.3,0.1-82.1,16.8-112.1,47S9.1,439.5,9.1,481.8l0.1,19.8c0,4,3.3,7.3,7.3,7.3h355.3c1.9,0,3.8-0.8,5.1-2.1
		c1.4-1.4,2.1-3.2,2.1-5.1L379,480.6z"/>
	<path class="st2" d="M379,480.6c-0.1-42.3-16.8-82.1-47-112.1c-30.1-29.9-69.8-46.3-111.9-46.3c-0.2,0-0.3,0-0.5,0l-17.8,0.1
		c40.5,1.1,78.7,17.3,107.8,46.2c30.2,30,46.9,69.8,47,112.1l0.1,20.9c0,1.9-0.8,3.8-2.1,5.1c-1.4,1.4-3.2,2.1-5.1,2.1h22.3
		c1.9,0,3.8-0.8,5.1-2.1c1.4-1.4,2.1-3.2,2.1-5.1V480.6z"/>
	<g>
		<g>
			<path id="XMLID_44_" class="st3" d="M379,479.5c-0.1-42-16.8-81.6-47-111.4c-9-8.9-18.9-16.5-29.4-23
				c-7.4,29.2-39,52.6-80.1,60.2c-9.2,1.7-18.8,2.6-28.7,2.6s-19.3-0.9-28.5-2.5c-40.9-7.4-72.6-30.8-80.2-59.7
				C74.5,352.2,64.7,360,55.6,369c-30,30-46.4,69.7-46.3,111.6l0.1,22.7c0.1,2.6,1.5,4.9,3.5,6.3h360.5c1.4-0.3,2.6-1.1,3.7-2
				c1.5-1.5,2.2-3.4,2.2-5.4L379,479.5z"/>
		</g>
		<g>
			<g>
				<g>
					<g>
						<g>
							<g>
								<defs>
									<path id="SVGID_1_" d="M379,479.5c-0.1-42-16.8-81.6-47-111.4c-9-8.9-18.9-16.5-29.4-23c-7.4,29.2-39,52.6-80.1,60.2
										c-9.2,1.7-18.8,2.6-28.7,2.6s-19.3-0.9-28.5-2.5c-40.9-7.4-72.6-30.8-80.2-59.7C74.5,352.2,64.7,360,55.6,369
										c-30,30-46.4,69.7-46.3,111.6l0.1,22.7c0.1,2.6,1.5,4.9,3.5,6.3h360.5c1.4-0.3,2.6-1.1,3.7-2c1.5-1.5,2.2-3.4,2.2-5.4
										L379,479.5z"/>
								</defs>
								<clipPath id="SVGID_2_">
									<use xlink:href="#SVGID_1_"  style="overflow:visible;"/>
								</clipPath>
								<path class="st4" d="M380,480.2c-0.1-42-16.8-81.6-47-111.4c-30.1-29.7-69.8-46-111.9-46c-0.2,0-0.3,0-0.5,0l-18.8,0.1
									c40.5,1.1,78.7,17.2,107.8,46c30.2,29.8,46.8,69.4,47,111.4l0.1,22.7c0,2-0.8,4-2.2,5.4c-1,1-2.2,1.7-3.7,2h23.5
									c1.4-0.3,2.6-1.1,3.7-2c1.5-1.5,2.2-3.4,2.2-5.4L380,480.2z"/>
							</g>
						</g>
					</g>
				</g>
			</g>
		</g>
	</g>
	<g>
		<path class="st5" d="M164.9,496c-0.1-0.3-0.1-0.5-0.1-0.8c0.1-1.1,1.2-1.8,2.2-1.7c10.7,0.6,21.9-0.8,33-3.9
			c9-2.5,18-6.1,26.8-10.8c15-8,24.4-16.3,24.5-16.4c0.9-0.8,2.1-0.8,2.9-0.1c0.8,0.7,0.7,1.9-0.1,2.6c-0.4,0.4-9.9,8.8-25.3,17
			c-9.1,4.8-18.5,8.6-27.7,11.2c-11.6,3.2-23.2,4.5-34.3,4C165.8,497.1,165.1,496.7,164.9,496z"/>
		<path class="st6" d="M256.4,482.8c0.9-0.4,1.3-1.3,1.2-2.1c-0.1-0.3-1.5-7-7-9.2c-2.6-1.1-5-1.3-7.1-0.8c-2,0.5-3.7,1.8-4.6,3.7
			c-0.9,1.6-1,3.3-0.5,4.8c0.1,0.2,0.2,0.4,0.3,0.7c0.9,1.7,2.6,3.2,5.2,4.2C249.1,486.3,256,483,256.4,482.8z"/>
		<path class="st7" d="M243.9,472.9c1.5-1.5,2.4-3.6,2.8-6.3c0.7-5.6-4.6-10.2-4.8-10.4c-0.7-0.6-1.6-0.6-2.5-0.1
			c-0.3,0.2-6.7,4.3-7.4,9.8c-0.2,1.9-0.1,3.5,0.4,4.9c0.2,0.6,0.5,1.1,0.8,1.5c1.2,1.5,2.9,2.5,5,2.6
			C240.4,475,242.4,474.3,243.9,472.9z"/>
		<path class="st7" d="M240.1,492.2c0.9-0.4,1.3-1.3,1.2-2.1c-0.1-0.3-1.5-7-7-9.2c-2.6-1.1-5-1.3-7.1-0.8c-2,0.5-3.7,1.8-4.6,3.7
			c-0.9,1.6-1,3.3-0.5,4.8c0.1,0.2,0.2,0.4,0.3,0.7c0.9,1.7,2.6,3.2,5.2,4.2C232.9,495.7,239.8,492.3,240.1,492.2z"/>
		<path class="st6" d="M227.6,482.1c1.5-1.5,2.4-3.6,2.8-6.3c0.7-5.6-4.6-10.2-4.8-10.4c-0.7-0.6-1.6-0.6-2.5-0.1
			c-0.3,0.2-6.7,4.3-7.4,9.8c-0.2,1.9-0.1,3.5,0.4,4.9c0.2,0.6,0.5,1.1,0.8,1.5c1.2,1.5,2.9,2.5,5,2.6
			C224.1,484.4,226.1,483.6,227.6,482.1z"/>
		<path class="st6" d="M220.9,499.4c0-0.3-0.2-7.3-5-10.3c-2.3-1.5-4.6-2.1-6.8-1.9c-2.1,0.2-4,1.3-5.2,2.9
			c-1.3,1.6-1.7,3.6-1.2,5.4c0,0.2,0.1,0.3,0.1,0.5c0.6,1.7,2,3.3,4.2,4.6c4.8,3.1,12.1,0.9,12.5,0.8
			C220.3,501,220.9,500.1,220.9,499.4z"/>
		<g>
			<path class="st7" d="M209.3,489.2c1.7-1.3,3.1-3.2,4-5.8c1.7-5.5-2.5-10.8-2.7-11.1c-0.6-0.7-1.5-0.9-2.4-0.5
				c-0.3,0.1-7.3,3.1-9,8.6c-0.8,2.4-0.9,4.5-0.2,6.2c0.1,0.1,0.1,0.3,0.2,0.4c0.8,1.7,2.3,2.9,4.5,3.4
				C205.4,490.9,207.4,490.5,209.3,489.2z"/>
			<path class="st7" d="M198.1,507.2c0.1-0.3,1.3-7.3-2.9-11c-1.9-1.8-4.1-2.9-6.2-3c-2-0.2-4.1,0.6-5.7,2c-1.5,1.5-2.4,3.3-2.2,5.2
				c0,0.6,0.2,1.2,0.4,1.7c0.5,1.4,1.5,2.7,2.8,4c4.2,3.9,11.6,2.8,11.9,2.8C197.4,508.8,198.1,508.1,198.1,507.2z"/>
			<path class="st7" d="M188.9,495.2c1.9-1,3.6-2.6,4.9-5.1c2.8-5.1-0.4-11.2-0.5-11.5c-0.4-0.8-1.4-1.2-2.2-0.9
				c-0.3,0.1-7.6,1.8-10.4,7.1c-1.4,2.5-1.7,4.7-1.4,6.6c0.1,0.2,0.1,0.5,0.2,0.7c0.6,1.5,1.7,2.7,3.5,3.4S186.9,496.2,188.9,495.2z
				"/>
			<path class="st7" d="M263.8,463c4.5-4.1,3.8-10.9,3.8-11.2c-0.1-0.9-0.8-1.5-1.7-1.5c-0.3,0-7.7-0.6-12.2,3.5
				c-2.1,1.9-3.4,4-3.7,5.9c-0.2,1-0.1,1.9,0.3,2.8c0.3,0.9,0.9,1.6,1.5,2.3c1.5,1.4,3.5,1.9,5.5,1.6
				C259.5,466.1,261.6,465,263.8,463z"/>
		</g>
	</g>
	<path class="st8" d="M148.1,327.9c1.5,1.9,1.9,4.5,1.4,6.8c-3.3,12.9-4.9,26-4.8,39.3c0.1,25.9,13,55.3,35.2,80.9
		c22.3,25.3,50.5,43.1,77.7,48.7c3.7,0.8,6.2,4.2,6.2,7.8h23.3c0-3.5-2.2-6.6-5.4-7.5c-0.2-0.1-0.5-0.1-0.7-0.2
		c-27.1-5.6-55.4-23.3-77.7-48.7s-35.1-54.9-35.2-80.9c0-13.3,1.6-26.5,4.8-39.3c0.6-2.4,0.1-4.9-1.4-6.8s-3.7-3.1-6-3.1h-3.6
		c-3.9,0-7.6,0.2-11.4,0.5c-0.2,0-0.3,0-0.5,0c-0.5,0-1.1,0.1-1.5,0.1c-1,0.1-1.8,0.2-2.8,0.3C146.6,326.3,147.4,327.1,148.1,327.9z
		"/>
	<path class="st9" d="M257.5,501.9c-27.1-5.6-55.4-23.3-77.7-48.7c-22.3-25.4-35.1-54.9-35.2-80.9c-0.1-13.3,1.5-26.4,4.8-39.3
		c0.6-2.3,0.1-4.9-1.4-6.8c-0.7-0.9-1.5-1.6-2.5-2.1c1-0.1,1.8-0.2,2.8-0.3c-37.1,3.4-71.7,20-98.5,47.7
		C20,402.6,3.5,443.6,3.8,487.1l0.1,22.7h259.8C263.8,506,261.1,502.7,257.5,501.9z"/>
	<path class="st1" d="M306.3,172.8L306.3,172.8c-23.3,0.1-42.1,23-42,50.9c0,13.6,4.5,26.3,12.5,35.8c7.9,9.6,18.4,14.7,29.7,14.7
		h0.1c23.2-0.1,42-23,41.9-50.9C348.3,195.4,329.4,172.8,306.3,172.8z"/>
	<path class="st1" d="M311,154.3c-0.1-24.7-18.3-44.8-40.7-44.8h-149c-10.8,0-21.1,4.6-28.8,13.3c-7.6,8.5-11.8,19.9-11.8,31.9
		l0.2,87.4c0.2,70.1,51.8,126.9,115.1,126.9h0.4c63.4-0.2,114.9-57.4,114.7-127.7L311,154.3z"/>
	<path class="st10" d="M311,154.3c-0.1-24.7-17.1-44.8-38.1-44.8h-18.6c20.9,0,38.1,20.1,38.1,44.8l0.2,87
		c0.2,66.6-43.3,121.6-98.6,127.3c3.1,0.3,6.2,0.5,9.3,0.5h0.3c59.5-0.2,107.7-57.4,107.6-127.7L311,154.3z"/>
	<path class="st2" d="M195.8,317.4c-9.8,0-19.1-3.6-26.3-10.3c-3.1-2.8-3.3-7.6-0.5-10.6c2.8-3.1,7.6-3.3,10.6-0.5
		c4.4,4.1,10.2,6.3,16.2,6.3h0.1c6.1,0,11.7-2.3,16.3-6.4c3.1-2.8,7.7-2.6,10.6,0.4c2.8,3.1,2.6,7.7-0.4,10.6
		C215.1,313.6,205.7,317.3,195.8,317.4C195.9,317.4,195.8,317.4,195.8,317.4z"/>
	<path class="st0" d="M151,195.2c9.8,0,19.1,1.8,26.3,5c3.1,1.4,3.3,3.8,0.5,5.3s-7.6,1.5-10.6,0.2c-4.4-2-10.2-3.2-16.2-3.2h-0.1
		c-6.1,0-11.7,1.1-16.3,3.2c-3.1,1.4-7.7,1.3-10.6-0.2c-2.8-1.5-2.6-3.9,0.4-5.3C131.8,197.1,141.2,195.1,151,195.2L151,195.2z"/>
	<path class="st0" d="M244.4,195.2c9.8,0,19.1,1.8,26.3,5c3.1,1.4,3.3,3.8,0.5,5.3s-7.6,1.5-10.6,0.2c-4.4-2-10.2-3.2-16.2-3.2h-0.1
		c-6.1,0-11.7,1.1-16.3,3.2c-3.1,1.4-7.7,1.3-10.6-0.2c-2.9-1.5-2.6-3.9,0.4-5.3C225.3,197.1,234.5,195.1,244.4,195.2
		C244.3,195.2,244.4,195.2,244.4,195.2z"/>
	<path class="st11" d="M164.5,234.2c0-7-5.7-12.6-12.7-12.6s-12.6,5.7-12.6,12.7c0,7,5.7,12.6,12.7,12.6
		C159,246.9,164.6,241.2,164.5,234.2z"/>
	<path class="st11" d="M253.7,234c0-7-5.7-12.7-12.7-12.6c-7,0-12.7,5.7-12.6,12.7c0,7,5.7,12.7,12.7,12.6
		C248.1,246.6,253.7,241,253.7,234z"/>
	<g>
		<path class="st5" d="M261,451c-0.2-0.1-0.4-0.3-0.6-0.6c-0.6-0.9-0.3-2.1,0.6-2.8c8.4-6.6,16-14.9,22.3-24.5
			c5.1-7.7,9.6-16.3,13.2-25.7c6.1-15.9,7.6-28.3,7.6-28.4c0.1-1.1,1.1-1.9,2.1-1.9c1.1,0,1.7,1,1.6,2.1c-0.1,0.5-1.6,13.1-7.9,29.5
			c-3.7,9.7-8.3,18.6-13.5,26.6c-6.7,10.1-14.5,18.7-23.3,25.5C262.4,451.3,261.5,451.4,261,451z"/>
		<path class="st6" d="M321.4,381.1c0.4-0.9,0.1-1.8-0.6-2.3c-0.2-0.2-5.8-4.3-11.3-2.3c-2.6,0.9-4.6,2.3-5.8,4.1
			c-1.2,1.7-1.6,3.8-1.2,5.8c0.4,1.7,1.5,3.2,2.8,4c0.2,0.1,0.4,0.2,0.7,0.3c1.8,0.8,4.1,0.7,6.8-0.3
			C318.3,388.5,321.3,381.4,321.4,381.1z"/>
		<path class="st7" d="M305.4,381.7c0.2-2.1-0.5-4.4-2-6.6c-3.2-4.6-10.2-4.6-10.4-4.6c-0.9,0-1.6,0.7-1.9,1.5
			c-0.1,0.3-2.2,7.5,0.9,12.2c1.1,1.5,2.2,2.7,3.5,3.4c0.6,0.3,1.1,0.5,1.6,0.7c1.8,0.5,3.9,0,5.5-1.4
			C304.3,385.7,305.1,383.8,305.4,381.7z"/>
		<path class="st7" d="M315.1,398.9c0.4-0.9,0.1-1.8-0.6-2.3c-0.2-0.2-5.8-4.3-11.3-2.3c-2.6,0.9-4.6,2.3-5.8,4.1
			c-1.2,1.7-1.6,3.8-1.2,5.8c0.4,1.7,1.5,3.2,2.8,4c0.2,0.1,0.4,0.2,0.7,0.3c1.8,0.8,4.1,0.7,6.8-0.3
			C312,406.1,315,399.1,315.1,398.9z"/>
		<path class="st6" d="M299.3,399.4c0.2-2.1-0.5-4.4-2-6.6c-3.2-4.6-10.2-4.6-10.4-4.6c-0.9,0-1.6,0.7-1.9,1.5
			c-0.1,0.3-2.2,7.5,0.9,12.2c1.1,1.5,2.2,2.7,3.5,3.4c0.6,0.3,1.1,0.5,1.6,0.7c1.8,0.5,3.9,0,5.5-1.4
			C298,403.3,299,401.5,299.3,399.4z"/>
		<path class="st6" d="M305.3,416.8c-0.2-0.2-4.8-5.3-10.5-4.5c-2.7,0.4-4.8,1.5-6.4,3c-1.5,1.5-2.2,3.5-2.1,5.6s1.1,3.9,2.6,4.9
			c0.1,0.1,0.3,0.2,0.4,0.2c1.5,0.9,3.7,1.2,6.2,0.8c5.7-0.9,9.7-7.4,9.9-7.5C306,418.5,305.9,417.5,305.3,416.8z"/>
		<g>
			<path class="st7" d="M290,416.8c0.5-2.1,0.3-4.5-0.9-7c-2.2-5.3-9.1-6.6-9.4-6.6c-0.9-0.2-1.7,0.3-2.1,1.2
				c-0.1,0.3-3.5,7.2-1.2,12.4c1,2.3,2.3,4,3.9,4.8c0.1,0.1,0.3,0.1,0.4,0.2c1.7,0.8,3.7,0.7,5.5-0.3
				C288.1,420.6,289.5,418.9,290,416.8z"/>
			<path class="st7" d="M293.4,437.6c-0.2-0.3-3.8-6.3-9.5-6.5c-2.7-0.1-4.9,0.5-6.7,1.7c-1.6,1.3-2.7,3.1-3,5.2s0.4,4.1,1.7,5.4
				c0.4,0.4,0.9,0.8,1.5,1.1c1.3,0.7,2.8,1.1,4.7,1.2c5.6,0.2,10.6-5.5,10.8-5.7C293.8,439.4,293.9,438.4,293.4,437.6z"/>
			<path class="st7" d="M278.5,434.7c0.9-1.9,1-4.4,0.4-7.2c-1.3-5.7-7.6-8.2-7.9-8.3c-0.8-0.3-1.7,0-2.2,0.8
				c-0.2,0.3-4.5,6.5-3.3,12.2c0.6,2.7,1.7,4.7,3.3,5.9c0.2,0.1,0.4,0.3,0.6,0.4c1.5,0.8,3.1,0.9,4.8,0.3
				C276.1,438.1,277.8,436.7,278.5,434.7z"/>
			<path class="st7" d="M314,361.2c0.7-6-4.4-10.7-4.5-10.9c-0.6-0.6-1.5-0.6-2.3-0.1c-0.3,0.2-6.3,4.6-6.9,10.6
				c-0.3,2.9,0.1,5.2,1.2,6.9c0.5,0.9,1.3,1.5,2,1.9c0.8,0.5,1.7,0.7,2.7,0.7c2,0.1,3.9-0.8,5.2-2.3
				C312.9,366.4,313.6,364.1,314,361.2z"/>
		</g>
	</g>
	<circle class="st12" cx="259.4" cy="449.4" r="16.7"/>
	<ellipse transform="matrix(0.5 -0.866 0.866 0.5 -125.5465 152.1682)" class="st13" cx="69" cy="184.8" rx="23.7" ry="26.2"/>
	<ellipse transform="matrix(0.5 -0.866 0.866 0.5 -123.3545 146.9142)" class="st0" cx="65.6" cy="180.3" rx="23.7" ry="26.2"/>
	<circle class="st14" cx="259" cy="449.3" r="10.3"/>
	<ellipse transform="matrix(0.5 -0.866 0.866 0.5 -78.5654 144.2392)" class="st13" cx="85.6" cy="140.2" rx="36.4" ry="40.4"/>
	<ellipse transform="matrix(0.5 -0.866 0.866 0.5 -75.1029 136.5681)" class="st0" cx="80.7" cy="133.3" rx="36.4" ry="40.4"/>
	<ellipse transform="matrix(0.866 -0.5 0.5 0.866 -51.2947 182.9172)" class="st13" cx="315.7" cy="187.2" rx="27.9" ry="25.2"/>
	<ellipse transform="matrix(0.866 -0.5 0.5 0.866 -48.4708 183.9749)" class="st0" cx="319.1" cy="182.4" rx="27.9" ry="25.2"/>
	<ellipse transform="matrix(0.866 -0.5 0.5 0.866 -30.5339 170.6205)" class="st13" cx="303.1" cy="142.3" rx="40.4" ry="36.4"/>
	<ellipse transform="matrix(0.866 -0.5 0.5 0.866 -26.0585 168.9822)" class="st0" cx="302.3" cy="133.1" rx="40.4" ry="36.4"/>
	<ellipse class="st13" cx="289" cy="91.2" rx="59.4" ry="53.6"/>
	<ellipse class="st0" cx="285.5" cy="82.3" rx="59.4" ry="53.6"/>
	<ellipse class="st13" cx="96.7" cy="91.7" rx="53.5" ry="48.4"/>
	<ellipse class="st0" cx="93.4" cy="87.2" rx="53.5" ry="48.4"/>
	<ellipse class="st13" cx="190.6" cy="77.1" rx="97.2" ry="72.5"/>
	<ellipse class="st0" cx="194" cy="68.6" rx="97.2" ry="68.6"/>
</g>
</svg>
