<?xml version="1.0" encoding="utf-8"?>
<!-- Generator: Adobe Illustrator 19.0.0, SVG Export Plug-In . SVG Version: 6.00 Build 0)  -->
<svg version="1.1" id="Layer_1" xmlns="http://www.w3.org/2000/svg" xmlns:xlink="http://www.w3.org/1999/xlink" x="0px" y="0px"
	 viewBox="-114 142.3 383 508.7" style="enable-background:new -114 142.3 383 508.7;" xml:space="preserve">
<style type="text/css">
	.st0{fill:#C6A89C;}
	.st1{fill:#B38B7B;}
	.st2{fill:#E8E8E8;}
	.st3{clip-path:url(#SVGID_2_);fill:#C2C6CC;}
	.st4{fill:#F8A814;}
	.st5{fill:#F9CD45;}
	.st6{fill:#F8B53C;}
	.st7{fill:#CC902F;}
	.st8{fill:#EAC734;}
	.st9{fill:#4C350C;}
	.st10{fill:#825308;}
	.st11{fill:#3A1E0B;}
	.st12{fill:#261306;}
	.st13{fill:#897F79;}
	.st14{fill:#868686;}
</style>
<g>
	<path class="st0" d="M245.6,626.2c-0.1-38.4-15.3-74.5-42.7-101.7c-27.3-27.1-63.4-42-101.6-42c-0.2,0-0.3,0-0.4,0l-47.2,0.2
		C15.3,482.8-20.8,498-48,525.4s-42.1,63.6-42,102l0.1,18c0,3.6,3,6.6,6.6,6.6h322.4c1.8,0,3.4-0.7,4.7-1.9c1.2-1.2,1.9-2.9,1.9-4.7
		L245.6,626.2z"/>
	<path class="st1" d="M245.6,626.2c-0.1-38.4-15.3-74.5-42.7-101.7c-27.3-27.1-63.4-42-101.6-42c-0.2,0-0.3,0-0.4,0l-16.1,0.1
		c36.8,1,71.4,15.7,97.8,42c27.4,27.2,42.6,63.4,42.7,101.7l0.1,19c0,1.8-0.7,3.4-1.9,4.7c-1.2,1.2-2.9,1.9-4.7,1.9h20.3
		c1.8,0,3.4-0.7,4.7-1.9c1.2-1.2,1.9-2.9,1.9-4.7L245.6,626.2z"/>
	<g>
		<g>
			<path id="XMLID_36_" class="st2" d="M245.6,624.8c-0.1-38.1-15.3-74-42.7-101c-8.2-8.1-17.1-15-26.7-20.9
				c-6.8,26.5-35.4,47.7-72.7,54.6c-8.3,1.6-17,2.4-26.1,2.4c-9,0-17.6-0.8-25.9-2.3c-37.1-6.8-65.8-27.9-72.8-54.2
				c-9.7,5.9-18.5,13-26.8,21.2c-27.2,27.2-42.1,63.2-42,101.3l0.1,20.6c0.1,2.4,1.3,4.5,3.2,5.7h327c1.2-0.3,2.4-1,3.3-1.8
				c1.3-1.3,2-3.1,2-4.9L245.6,624.8z"/>
		</g>
		<g>
			<g>
				<g>
					<g>
						<defs>
							<path id="SVGID_1_" d="M245.6,624.8c-0.1-38.1-15.3-74-42.7-101c-8.2-8.1-17.1-15-26.7-20.9c-6.8,26.5-35.4,47.7-72.7,54.6
								c-8.3,1.6-17,2.4-26.1,2.4c-9,0-17.6-0.8-25.9-2.3c-37.1-6.8-65.8-27.9-72.8-54.2c-9.7,5.9-18.5,13-26.8,21.2
								c-27.2,27.2-42.1,63.2-42,101.3l0.1,20.6c0.1,2.4,1.3,4.5,3.2,5.7h327c1.2-0.3,2.4-1,3.3-1.8c1.3-1.3,2-3.1,2-4.9
								L245.6,624.8z"/>
						</defs>
						<clipPath id="SVGID_2_">
							<use xlink:href="#SVGID_1_"  style="overflow:visible;"/>
						</clipPath>
						<path class="st3" d="M247.6,625.9c-0.1-38.1-15.3-74-42.7-101c-27.3-26.9-63.4-41.8-101.6-41.8c-0.2,0-0.3,0-0.4,0l-17,0.1
							c36.8,1,71.4,15.6,97.8,41.7c27.4,27,42.5,62.9,42.7,101l0.1,20.6c0,1.8-0.7,3.6-2,4.9c-0.9,0.9-2,1.6-3.3,1.8h21.3
							c1.2-0.3,2.4-1,3.3-1.8c1.3-1.3,2-3.1,2-4.9L247.6,625.9z"/>
					</g>
				</g>
			</g>
		</g>
	</g>
	<path class="st4" d="M58.1,639.6c-0.1-0.3-0.1-0.4-0.1-0.7c0.1-1,1.1-1.7,2-1.6c9.7,0.5,19.8-0.7,29.9-3.5
		c8.2-2.3,16.3-5.5,24.3-9.8c13.6-7.3,22.1-14.8,22.2-14.9c0.8-0.7,1.9-0.7,2.6-0.1c0.7,0.6,0.6,1.8-0.1,2.4c-0.4,0.4-9,8-23,15.4
		c-8.3,4.4-16.8,7.8-25.1,10.2c-10.5,2.9-21.1,4.1-31.2,3.6C58.9,640.7,58.4,640.3,58.1,639.6z"/>
	<path class="st5" d="M126.3,636.2c0.8-0.4,1.1-1.1,1.1-1.9c-0.1-0.3-1.4-6.3-6.3-8.3c-2.4-1-4.6-1.1-6.4-0.7s-3.3,1.7-4.2,3.3
		c-0.8,1.5-0.9,3-0.4,4.4c0.1,0.2,0.2,0.4,0.3,0.6c0.8,1.6,2.4,2.9,4.7,3.8C119.8,639.4,126.1,636.3,126.3,636.2z"/>
	<path class="st6" d="M115.1,627.1c1.4-1.3,2.2-3.2,2.5-5.7c0.6-5.1-4.2-9.2-4.4-9.4c-0.6-0.5-1.5-0.5-2.3-0.1
		c-0.3,0.2-6.1,3.9-6.7,8.9c-0.2,1.8-0.1,3.2,0.4,4.5c0.2,0.5,0.4,1,0.7,1.4c1.1,1.4,2.6,2.3,4.6,2.4
		C111.9,629.1,113.7,628.4,115.1,627.1z"/>
	<path class="st7" d="M40.3,484.4c1.3,1.8,1.8,4.1,1.2,6.2c-3,11.8-4.5,23.9-4.4,36c0.1,23.8,11.8,50.7,31.9,74.1
		c20.2,23.3,45.8,39.5,70.5,44.7c3.3,0.7,5.6,3.8,5.6,7.2h21.2c0-3.2-2-6.1-4.9-6.9c-0.2-0.1-0.4-0.1-0.6-0.2
		c-24.6-5.2-50.3-21.3-70.5-44.7c-20.2-23.3-31.9-50.4-31.9-74.1c0-12.2,1.5-24.3,4.4-36c0.5-2.2,0.1-4.5-1.2-6.2
		c-1.3-1.8-3.3-2.8-5.4-2.8H53c-3.5,0-6.9,0.2-10.4,0.4c-0.2,0-0.3,0-0.4,0c-0.4,0-1,0.1-1.4,0.1c-0.9,0.1-1.7,0.2-2.5,0.3
		C38.9,483.1,39.7,483.8,40.3,484.4z"/>
	<path class="st8" d="M139.5,645.4c-24.6-5.2-50.3-21.3-70.5-44.7s-31.9-50.4-31.9-74.1c-0.1-12.1,1.4-24.2,4.4-36
		c0.5-2.1,0.1-4.5-1.2-6.2c-0.6-0.8-1.4-1.5-2.3-1.9c0.9-0.1,1.7-0.2,2.5-0.3c-33.7,3.1-65,18.3-89.4,43.7
		c-27,28.5-42,66-41.8,105.9l0.1,20.8h235.7C145.2,649.2,142.8,646.1,139.5,645.4z"/>
	<path class="st4" d="M145.3,598.8c-0.2-0.1-0.4-0.3-0.5-0.5c-0.5-0.8-0.3-1.9,0.5-2.5c7.6-6,14.5-13.5,20.3-22.2
		c4.7-7,8.7-14.8,11.9-23.3c5.5-14.4,6.9-25.7,6.9-25.8c0.1-1,1-1.8,1.9-1.8c1,0,1.6,0.9,1.5,1.9c-0.1,0.4-1.5,11.8-7.2,26.8
		c-3.3,8.8-7.5,16.9-12.3,24.1c-6.1,9.1-13.2,16.9-21.2,23.2C146.5,599.1,145.8,599.2,145.3,598.8z"/>
	<path class="st6" d="M200.1,535.4c0.4-0.8,0.1-1.7-0.5-2.1c-0.2-0.2-5.3-3.9-10.3-2.1c-2.4,0.8-4.2,2.1-5.3,3.7
		c-1.1,1.6-1.5,3.4-1.1,5.3c0.4,1.6,1.3,2.9,2.5,3.6c0.2,0.1,0.4,0.2,0.6,0.3c1.7,0.7,3.7,0.6,6.1-0.3
		C197.3,542.1,200,535.7,200.1,535.4z"/>
	<path class="st5" d="M185.6,535.9c0.2-1.9-0.4-3.9-1.8-6c-2.9-4.2-9.2-4.2-9.5-4.2c-0.8,0-1.5,0.6-1.8,1.4c-0.1,0.3-2,6.8,0.8,11.1
		c1,1.4,2,2.5,3.2,3.1c0.5,0.3,1,0.4,1.5,0.6c1.7,0.4,3.5,0,5-1.2C184.5,539.6,185.4,537.8,185.6,535.9z"/>
	<path class="st5" d="M194.5,551.4c0.4-0.8,0.1-1.7-0.5-2.1c-0.2-0.2-5.3-3.9-10.3-2.1c-2.4,0.8-4.2,2.1-5.3,3.7
		c-1.1,1.6-1.5,3.4-1.1,5.3c0.4,1.6,1.3,2.9,2.5,3.6c0.2,0.1,0.4,0.2,0.6,0.3c1.7,0.7,3.7,0.6,6.1-0.3
		C191.6,558.1,194.4,551.8,194.5,551.4z"/>
	<path class="st6" d="M180.1,551.9c0.2-1.9-0.4-3.9-1.8-6c-2.9-4.2-9.2-4.2-9.5-4.2c-0.8,0-1.5,0.6-1.8,1.4c-0.1,0.3-2,6.8,0.8,11.1
		c1,1.4,2,2.5,3.2,3.1c0.5,0.3,1,0.4,1.5,0.6c1.7,0.4,3.5,0,5-1.2C178.9,555.6,179.9,553.9,180.1,551.9z"/>
	<path class="st6" d="M185.5,567.8c-0.2-0.2-4.4-4.8-9.6-4c-2.5,0.4-4.4,1.3-5.8,2.7c-1.3,1.4-2,3.2-1.9,5.1c0.1,1.9,1,3.5,2.4,4.5
		c0.1,0.1,0.3,0.2,0.4,0.2c1.4,0.8,3.3,1.1,5.6,0.7c5.2-0.8,8.8-6.7,9-6.8C186.1,569.3,186,568.4,185.5,567.8z"/>
	<g>
		<path class="st5" d="M171.5,567.8c0.4-1.9,0.3-4-0.8-6.3c-2-4.8-8.3-6-8.5-6c-0.8-0.2-1.6,0.3-1.9,1.1c-0.1,0.3-3.2,6.5-1.1,11.2
			c0.9,2.1,2.1,3.6,3.5,4.4c0.1,0.1,0.3,0.1,0.4,0.2c1.6,0.7,3.3,0.6,5-0.3C170,571.3,171.1,569.7,171.5,567.8z"/>
		<path class="st5" d="M174.7,586.7c-0.2-0.3-3.4-5.7-8.6-5.9c-2.5-0.1-4.5,0.4-6.1,1.6c-1.5,1.1-2.5,2.8-2.7,4.7
			c-0.3,1.9,0.4,3.7,1.6,4.9c0.4,0.4,0.8,0.7,1.3,1c1.1,0.6,2.5,1,4.3,1.1c5.1,0.2,9.7-5,9.8-5.2
			C175.1,588.3,175.1,587.4,174.7,586.7z"/>
		<path class="st5" d="M161.2,584.1c0.8-1.8,0.9-3.9,0.4-6.5c-1.1-5.2-6.9-7.5-7.2-7.5c-0.7-0.3-1.6,0-2,0.7
			c-0.2,0.3-4.1,5.9-3,11.1c0.5,2.5,1.6,4.3,3,5.4c0.2,0.1,0.4,0.3,0.5,0.4c1.3,0.7,2.8,0.8,4.4,0.3
			C159.1,587.1,160.5,585.8,161.2,584.1z"/>
		<path class="st5" d="M193.4,517.4c0.6-5.4-3.9-9.7-4.1-9.9c-0.5-0.5-1.4-0.5-2.1-0.1c-0.3,0.2-5.7,4.2-6.2,9.7
			c-0.3,2.6,0.1,4.7,1.1,6.2c0.4,0.8,1.1,1.3,1.8,1.8c0.7,0.5,1.6,0.6,2.5,0.6c1.8,0.1,3.5-0.7,4.7-2.1
			C192.3,522.1,193.1,519.9,193.4,517.4z"/>
	</g>
	<circle class="st9" cx="143.8" cy="597.4" r="15.2"/>
	<circle class="st10" cx="143.5" cy="597.2" r="9.3"/>
	<ellipse class="st11" cx="84.7" cy="209.1" rx="99.2" ry="64.4"/>
	<ellipse class="st12" cx="85.7" cy="248.7" rx="99.2" ry="64.4"/>
	<circle class="st11" cx="85.4" cy="327.3" r="134.6"/>
	<path class="st0" d="M-14.2,347L-14.2,347c-19.9,0.1-36,20.2-36,44.9c0,11.9,3.8,23.2,10.6,31.6s15.8,13,25.4,13h0.1
		c19.8-0.1,35.9-20.2,35.9-44.9C21.7,367,5.6,347-14.2,347z"/>
	<path class="st0" d="M181.8,346.3L181.8,346.3c-20.5,0.1-37.1,20.2-37,44.9c0,11.9,3.9,23.2,11,31.6c7,8.4,16.2,13,26.2,13h0.1
		c20.5-0.1,37-20.2,37-44.9C218.9,366.2,202.2,346.3,181.8,346.3z"/>
	<path class="st0" d="M183.9,330c-0.1-21.8-16-39.5-35.5-39.5H18.6c-9.5,0-18.4,4.1-25.1,11.7c-6.7,7.5-10.4,17.5-10.4,28.1
		l0.2,77.1c0.2,61.7,45.2,111.8,100.5,111.8h0.4c55.4-0.2,100.3-50.6,100.1-112.5L183.9,330z"/>
	<path class="st13" d="M84.5,473.7c-8.6,0-16.9-3.2-23.2-9c-2.7-2.5-2.9-6.7-0.4-9.3c2.5-2.7,6.7-2.9,9.3-0.4
		c3.9,3.6,9,5.5,14.2,5.5h0.1c5.4,0,10.4-2,14.3-5.6c2.7-2.5,6.8-2.3,9.3,0.4c2.5,2.7,2.3,6.8-0.4,9.3
		C101.4,470.4,93.2,473.7,84.5,473.7C84.6,473.7,84.5,473.7,84.5,473.7z"/>
	<path class="st11" d="M45,366.1c8.6,0,16.9,1.6,23.2,4.5c2.7,1.2,2.9,3.3,0.4,4.7c-2.5,1.3-6.7,1.4-9.3,0.2
		c-3.9-1.8-9-2.8-14.2-2.8H45c-5.4,0-10.4,1-14.3,2.8c-2.7,1.2-6.8,1.1-9.3-0.2s-2.3-3.4,0.4-4.7C28,367.6,36.3,366,45,366.1
		L45,366.1z"/>
	<path class="st11" d="M127.3,366.1c8.6,0,16.9,1.6,23.2,4.5c2.7,1.2,2.9,3.3,0.4,4.7c-2.5,1.3-6.7,1.4-9.3,0.2
		c-3.9-1.8-9-2.8-14.2-2.8h-0.1c-5.4,0-10.4,1-14.3,2.8c-2.7,1.2-6.8,1.1-9.3-0.2s-2.3-3.4,0.4-4.7
		C110.4,367.6,118.6,366,127.3,366.1C127.2,366.1,127.3,366.1,127.3,366.1z"/>
	<path class="st14" d="M56.9,400.4c0-6.1-5-11.1-11.1-11.1s-11.1,5-11.1,11.1s5,11.1,11.1,11.1S57,406.6,56.9,400.4z"/>
	<path class="st14" d="M135.5,400.3c0-6.1-5-11.1-11.1-11.1s-11.1,5-11.1,11.1s5,11.1,11.1,11.1
		C130.6,411.3,135.5,406.4,135.5,400.3z"/>
	<ellipse transform="matrix(-0.866 -0.5 0.5 -0.866 -176.5228 590.717)" class="st12" cx="-9.1" cy="319" rx="35.5" ry="32.1"/>
	
		<ellipse transform="matrix(-0.8429 -0.5381 0.5381 -0.8429 -192.4709 571.4375)" class="st11" cx="-12.8" cy="313.8" rx="35.5" ry="32.1"/>
	<ellipse transform="matrix(-0.5 -0.866 0.866 -0.5 -5.6632 631.5314)" class="st12" cx="179.5" cy="317.4" rx="32.1" ry="35.5"/>
	<ellipse transform="matrix(-0.5 -0.866 0.866 -0.5 -0.9987 623.4302)" class="st11" cx="179.5" cy="312" rx="32.1" ry="35.5"/>
	<ellipse class="st12" cx="22.7" cy="282.9" rx="52.3" ry="47.3"/>
	<ellipse class="st11" cx="19.6" cy="275" rx="52.3" ry="47.3"/>
	<ellipse class="st12" cx="150.3" cy="282.9" rx="52.3" ry="47.3"/>
	<ellipse class="st11" cx="149.9" cy="274.2" rx="52.3" ry="47.3"/>
	<ellipse class="st12" cx="84.7" cy="262" rx="85.7" ry="63.9"/>
	<ellipse class="st11" cx="84.2" cy="254.3" rx="85.7" ry="60.4"/>
	<path class="st6" d="M141.1,627.7c0.8-0.4,1.1-1.1,1.1-1.9c-0.1-0.3-1.4-6.3-6.3-8.3c-2.4-1-4.6-1.1-6.4-0.7s-3.3,1.7-4.2,3.3
		c-0.8,1.5-0.9,3-0.4,4.4c0.1,0.2,0.2,0.4,0.3,0.6c0.8,1.6,2.4,2.9,4.7,3.8C134.6,630.9,140.8,627.9,141.1,627.7z"/>
	<path class="st5" d="M129.9,618.7c1.4-1.3,2.2-3.2,2.5-5.7c0.6-5.1-4.2-9.2-4.4-9.4c-0.6-0.5-1.5-0.5-2.3-0.1
		c-0.3,0.2-6.1,3.9-6.7,8.9c-0.2,1.8-0.1,3.2,0.4,4.5c0.2,0.5,0.4,1,0.7,1.4c1.1,1.4,2.6,2.3,4.6,2.4
		C126.7,620.6,128.5,619.9,129.9,618.7z"/>
</g>
</svg>
