<?xml version="1.0" encoding="utf-8"?>
<!-- Generator: Adobe Illustrator 23.1.0, SVG Export Plug-In . SVG Version: 6.00 Build 0)  -->
<svg version="1.1" id="Layer_1" xmlns="http://www.w3.org/2000/svg" xmlns:xlink="http://www.w3.org/1999/xlink" x="0px" y="0px"
	 viewBox="0 0 383 508.7" style="enable-background:new 0 0 383 508.7;" xml:space="preserve">
<style type="text/css">
	.st0{fill:#3A1E0B;}
	.st1{fill:#F0BCA6;}
	.st2{fill:#E6B09A;}
	.st3{fill:#E2A58A;}
	.st4{fill:#868686;}
	.st5{fill:#664242;}
	.st6{clip-path:url(#SVGID_2_);}
	.st7{clip-path:url(#SVGID_4_);}
	.st8{fill:#4C2C2C;}
</style>
<title>adult</title>
<circle class="st0" cx="190.4" cy="163.1" r="151.9"/>
<path class="st1" d="M342.4,482.5l0.1,18.8c0,1.9-0.7,3.7-2.1,5.1c-0.9,1-2.1,1.6-3.5,1.9h-314c-2-1.3-3.2-3.5-3.3-5.9v-21.3
	c0-81.9,66-148.5,147.7-149l48.4-0.2h0.5c2.5,0,4.8,0.1,7.3,0.2c0.5,0,1.2,0.1,1.7,0.1l3.5,0.3c0.6,0,1.2,0.1,1.7,0.2
	c1.1,0.1,2.1,0.2,3.2,0.4C298,341,350,389.8,362,453.8C356.9,464.2,350.3,474,342.4,482.5z"/>
<path class="st1" d="M79.4,201.2h-0.2c-24.6,0.1-44.4,20.1-44.4,44.7c0,11.8,4.7,23.1,13.1,31.4c8.5,8.4,14.9,12.9,31.4,12.9h0.2
	c24.6-0.5,44.1-20.9,43.5-45.5C122.5,220.9,103.3,201.7,79.4,201.2L79.4,201.2z"/>
<path class="st2" d="M361.9,453.5c0,0.1,0,0.1-0.1,0.2c-4.9,10.6-11.5,20.4-19.4,29v-2.5c-0.5-80.2-64.4-145.6-144.6-148l17.5-0.1
	h0.5c2.5,0,4.8,0.1,7.3,0.2c0.5,0,1.2,0.1,1.7,0.1l3.5,0.3c0.6,0,1.2,0.1,1.7,0.2c1.1,0.1,2.1,0.2,3.2,0.4
	C297.7,340.9,349.8,389.6,361.9,453.5z"/>
<path class="st1" d="M301.6,200.4h-0.2c-24.6,0.1-44.5,20.1-44.4,44.7c0,11.8,4.7,23.1,13.1,31.4c8.3,8.3,19.6,13,31.4,12.9h0.2
	c24.6-0.5,44.1-20.9,43.5-45.5C344.6,220.1,325.4,200.9,301.6,200.4L301.6,200.4z"/>
<path class="st1" d="M298.6,176.4c-0.1-29.2-11.4-48.5-34.6-59.3c-20.8-9.6-49.1-10.8-76.6-10.8s-55.7,1.6-76.5,11.2
	c-23,10.8-34.2,30.3-34.1,59.3l0.3,93.7C77.3,331.6,126.9,381,188,381.1h0.3c61.2-0.3,110.7-50.1,110.5-111.3L298.6,176.4z"/>
<path class="st3" d="M193.2,340.9c-8.9,0-17.5-3.3-24-9.4c-2.9-2.7-3.1-7.2-0.5-10.1c2.7-2.9,7.2-3.1,10.1-0.5
	c3.9,3.6,9,5.6,14.4,5.6h0.1c5.3,0,10.5-2,14.4-5.6c2.9-2.7,7.4-2.5,10.1,0.4c2.7,2.9,2.5,7.4-0.4,10.1
	C210.8,337.4,202.2,340.8,193.2,340.9C193.3,340.9,193.2,340.9,193.2,340.9z"/>
<path class="st4" d="M164.4,274.4c0-6.3-5.2-11.4-11.5-11.4s-11.4,5.2-11.4,11.5s5.2,11.4,11.5,11.4l0,0
	C159.3,285.9,164.4,280.7,164.4,274.4z"/>
<path class="st0" d="M166.4,256.3c-0.6,0-1.2-0.1-1.8-0.3l-26.9-7.1c-3.8-1.1-5.9-5.1-4.8-8.9c1.1-3.6,4.8-5.7,8.4-4.9l26.9,7.1
	c3.8,1,6.1,4.9,5.1,8.7C172.5,254.1,169.7,256.4,166.4,256.3z"/>
<path class="st4" d="M245.1,274.2c0-6.3-5.2-11.4-11.5-11.4s-11.4,5.2-11.4,11.5s5.2,11.4,11.5,11.4l0,0c6.2,0.1,11.3-5,11.4-11.2
	C245.1,274.4,245.1,274.3,245.1,274.2z"/>
<path class="st0" d="M220.1,256.2c-4,0-7.2-3.3-7.1-7.2c0-3.2,2.2-6,5.2-6.9l26.9-7.3c3.8-1.1,7.8,1.2,8.8,5c1.1,3.8-1.2,7.8-5,8.8
	l-26.9,7.3C221.4,256.1,220.8,256.2,220.1,256.2z"/>
<path class="st2" d="M298.6,176.4c-0.1-29.2-10.9-48.5-33.3-59.3c-20.1-9.6-47.3-10.8-73.8-10.8c-2.6,0-4.9,0-7.5,0.1
	c22.9,0.4,45.5,2.5,62.9,10.7c22.3,10.7,33.2,30,33.3,59.3l0.3,93.6c0.2,58.1-42.9,106-97.7,111c3,0.3,6.1,0.4,9.2,0.4h0.3
	c58.9-0.2,106.7-50.1,106.5-111.3L298.6,176.4z"/>
<path id="SVGID" class="st5" d="M364.3,480c-0.1-39.4-15.9-77.1-44-104.8c-2.8-2.8-5.7-5.5-8.6-7.9c-22.4,25.2-67.8,42.5-120.1,42.5
	s-97.7-17.2-120-42.4c-3.3,2.7-6.4,5.6-9.5,8.7c-27.9,27.8-43.5,65.6-43.4,105v21.4c0.1,2.4,1.3,4.6,3.3,5.9h336.8
	c1.3-0.3,2.5-1,3.5-1.9c1.3-1.3,2.1-3.2,2.1-5.1L364.3,480z"/>
<g>
	<g>
		<defs>
			<path id="SVGID_1_" d="M364.3,480c-0.1-39.4-15.9-77.1-44-104.8c-2.8-2.8-5.7-5.5-8.6-7.9c-22.4,25.2-67.8,42.5-120.1,42.5
				s-97.7-17.2-120-42.4c-3.3,2.7-6.4,5.6-9.5,8.7c-27.9,27.8-43.5,65.6-43.4,105v21.4c0.1,2.4,1.3,4.6,3.3,5.9h336.8
				c1.3-0.3,2.5-1,3.5-1.9c1.3-1.3,2.1-3.2,2.1-5.1L364.3,480z"/>
		</defs>
		<clipPath id="SVGID_2_">
			<use xlink:href="#SVGID_1_"  style="overflow:visible;"/>
		</clipPath>
		<g class="st6">
			<path class="st1" d="M81.8,512.2H27.5c-6,0-10.9-4.9-10.9-10.9v-61C26.3,472.9,50.3,499.3,81.8,512.2z"/>
		</g>
	</g>
</g>
<g>
	<g>
		<defs>
			<path id="SVGID_3_" d="M364.3,480c-0.1-39.4-15.9-77.1-44-104.8c-2.8-2.8-5.7-5.5-8.6-7.9c-22.4,25.2-67.8,42.5-120.1,42.5
				s-97.7-17.2-120-42.4c-3.3,2.7-6.4,5.6-9.5,8.7c-27.9,27.8-43.5,65.6-43.4,105v21.4c0.1,2.4,1.3,4.6,3.3,5.9h336.8
				c1.3-0.3,2.5-1,3.5-1.9c1.3-1.3,2.1-3.2,2.1-5.1L364.3,480z"/>
		</defs>
		<clipPath id="SVGID_4_">
			<use xlink:href="#SVGID_3_"  style="overflow:visible;"/>
		</clipPath>
		<g class="st7">
			<path class="st8" d="M365.9,481.4c-0.5-81.8-66.8-147.8-148.6-148.1h-0.4l-17.6,0.1c80.2,2.4,144.1,67.8,144.6,148l0.1,21.4
				c0,1.9-0.7,3.7-2.1,5.1c-0.9,1-2.1,1.6-3.5,1.9h21.9c1.3-0.3,2.5-1,3.5-1.9c1.4-1.4,2.1-3.2,2.1-5.1V481.4z"/>
		</g>
	</g>
</g>
<circle class="st0" cx="215.8" cy="93" r="57.8"/>
<circle class="st0" cx="287.3" cy="115.3" r="44.6"/>
<ellipse transform="matrix(0.1891 -0.982 0.982 0.1891 74.5707 367.502)" class="st0" cx="259.8" cy="138.6" rx="31.6" ry="31.6"/>
<circle class="st0" cx="309.1" cy="163.1" r="32.9"/>
<circle class="st0" cx="143.5" cy="51.5" r="41.5"/>
<circle class="st0" cx="96.8" cy="120.3" r="39.6"/>
<circle class="st0" cx="71.1" cy="155.9" r="40.4"/>
<circle class="st0" cx="92.9" cy="68.5" r="28.3"/>
<circle class="st0" cx="288.2" cy="65.3" r="18.6"/>
<ellipse transform="matrix(0.1602 -0.9871 0.9871 0.1602 152.7651 290.1538)" class="st0" cx="246.9" cy="55.3" rx="44.5" ry="44.5"/>
<circle class="st0" cx="191.9" cy="34.2" r="33.9"/>
<circle class="st0" cx="158" cy="118.1" r="47.3"/>
<circle class="st0" cx="305" cy="203.1" r="18.8"/>
<circle class="st0" cx="60.8" cy="203.1" r="22.4"/>
<path class="st2" d="M364.4,501.3c0,1.9-0.7,3.7-2,5.1c-0.9,0.9-2,1.6-3.3,1.9h-20.8c1.3-0.3,2.4-1,3.3-1.9c1.3-1.4,2-3.2,2-5.1
	l0.3-19.1c7.5-8.6,13.5-18.3,18-28.7c0-0.1,0-0.1,0.1-0.2c1.5,8.7,2.3,17.6,2.3,26.5L364.4,501.3z"/>
<path class="st1" d="M344,501.3c0,1.9-0.8,3.8-2.2,5.1c-1,1-2.3,1.7-3.6,1.9h-31.5c14-6.2,26.7-15.1,37.3-26.1L344,501.3L344,501.3z
	"/>
</svg>
