<?xml version="1.0" encoding="utf-8"?>
<!-- Generator: Adobe Illustrator 23.1.0, SVG Export Plug-In . SVG Version: 6.00 Build 0)  -->
<svg version="1.1" id="Layer_1" xmlns="http://www.w3.org/2000/svg" xmlns:xlink="http://www.w3.org/1999/xlink" x="0px" y="0px"
	 viewBox="0 0 383 508.7" style="enable-background:new 0 0 383 508.7;" xml:space="preserve">
<style type="text/css">
	.st0{fill:#F0BCA6;}
	.st1{fill:#E2A58A;}
	.st2{fill:#E8E8E8;}
	.st3{clip-path:url(#SVGID_2_);fill:#C2C6CC;}
	.st4{fill:#F8A814;}
	.st5{fill:#F9CD45;}
	.st6{fill:#F8B53C;}
	.st7{fill:#CC902F;}
	.st8{fill:#EAC734;}
	.st9{fill:#4C350C;}
	.st10{fill:#825308;}
	.st11{fill:#3A1E0B;}
	.st12{fill:#261306;}
	.st13{fill:#868686;}
</style>
<g>
	<path class="st0" d="M359.6,483.9c-0.1-38.4-15.3-74.5-42.7-101.7c-27.3-27.1-63.4-42-101.6-42c-0.2,0-0.3,0-0.4,0l-47.2,0.2
		c-38.4,0.1-74.5,15.3-101.7,42.7s-42.1,63.6-42,102l0.1,18c0,3.6,3,6.6,6.6,6.6h322.4c1.8,0,3.4-0.7,4.7-1.9
		c1.2-1.2,1.9-2.9,1.9-4.7L359.6,483.9z"/>
	<path class="st1" d="M359.6,483.9c-0.1-38.4-15.3-74.5-42.7-101.7c-27.3-27.1-63.4-42-101.6-42c-0.2,0-0.3,0-0.4,0l-16.1,0.1
		c36.8,1,71.4,15.7,97.8,42c27.4,27.2,42.6,63.4,42.7,101.7l0.1,19c0,1.8-0.7,3.4-1.9,4.7c-1.2,1.2-2.9,1.9-4.7,1.9h20.3
		c1.8,0,3.4-0.7,4.7-1.9c1.2-1.2,1.9-2.9,1.9-4.7L359.6,483.9z"/>
	<g>
		<g>
			<path id="XMLID_36_" class="st2" d="M359.6,482.5c-0.1-38.1-15.3-74-42.7-101c-8.2-8.1-17.1-15-26.7-20.9
				c-6.8,26.5-35.4,47.7-72.7,54.6c-8.3,1.6-17,2.4-26.1,2.4c-9,0-17.6-0.8-25.9-2.3c-37.1-6.8-65.8-27.9-72.8-54.2
				c-9.7,5.9-18.5,13-26.8,21.2c-27.2,27.2-42.1,63.2-42,101.3l0.1,20.6c0.1,2.4,1.3,4.5,3.2,5.7h327c1.2-0.3,2.4-1,3.3-1.8
				c1.3-1.3,2-3.1,2-4.9L359.6,482.5z"/>
		</g>
		<g>
			<g>
				<g>
					<defs>
						<path id="SVGID_1_" d="M359.6,482.5c-0.1-38.1-15.3-74-42.7-101c-8.2-8.1-17.1-15-26.7-20.9c-6.8,26.5-35.4,47.7-72.7,54.6
							c-8.3,1.6-17,2.4-26.1,2.4c-9,0-17.6-0.8-25.9-2.3c-37.1-6.8-65.8-27.9-72.8-54.2c-9.7,5.9-18.5,13-26.8,21.2
							c-27.2,27.2-42.1,63.2-42,101.3l0.1,20.6c0.1,2.4,1.3,4.5,3.2,5.7h327c1.2-0.3,2.4-1,3.3-1.8c1.3-1.3,2-3.1,2-4.9L359.6,482.5
							z"/>
					</defs>
					<clipPath id="SVGID_2_">
						<use xlink:href="#SVGID_1_"  style="overflow:visible;"/>
					</clipPath>
					<path class="st3" d="M361.6,483.6c-0.1-38.1-15.3-74-42.7-101c-27.3-26.9-63.4-41.8-101.6-41.8c-0.2,0-0.3,0-0.4,0l-17,0.1
						c36.8,1,71.4,15.6,97.8,41.7c27.4,27,42.5,62.9,42.7,101l0.1,20.6c0,1.8-0.7,3.6-2,4.9c-0.9,0.9-2,1.6-3.3,1.8h21.3
						c1.2-0.3,2.4-1,3.3-1.8c1.3-1.3,2-3.1,2-4.9L361.6,483.6z"/>
				</g>
			</g>
		</g>
	</g>
	<path class="st4" d="M172.1,497.3c-0.1-0.3-0.1-0.4-0.1-0.7c0.1-1,1.1-1.7,2-1.6c9.7,0.5,19.8-0.7,29.9-3.5
		c8.2-2.3,16.3-5.5,24.3-9.8c13.6-7.3,22.1-14.8,22.2-14.9c0.8-0.7,1.9-0.7,2.6-0.1s0.6,1.8-0.1,2.4c-0.4,0.4-9,8-23,15.4
		c-8.3,4.4-16.8,7.8-25.1,10.2c-10.5,2.9-21.1,4.1-31.2,3.6C172.9,498.4,172.4,498,172.1,497.3z"/>
	<path class="st5" d="M240.3,493.9c0.8-0.4,1.1-1.1,1.1-1.9c-0.1-0.3-1.4-6.3-6.3-8.3c-2.4-1-4.6-1.1-6.4-0.7s-3.3,1.7-4.2,3.3
		c-0.8,1.5-0.9,3-0.4,4.4c0.1,0.2,0.2,0.4,0.3,0.6c0.8,1.6,2.4,2.9,4.7,3.8C233.8,497.1,240.1,494,240.3,493.9z"/>
	<path class="st6" d="M229.1,484.8c1.4-1.3,2.2-3.2,2.5-5.7c0.6-5.1-4.2-9.2-4.4-9.4c-0.6-0.5-1.5-0.5-2.3-0.1
		c-0.3,0.2-6.1,3.9-6.7,8.9c-0.2,1.8-0.1,3.2,0.4,4.5c0.2,0.5,0.4,1,0.7,1.4c1.1,1.4,2.6,2.3,4.6,2.4
		C225.9,486.8,227.7,486.1,229.1,484.8z"/>
	<path class="st7" d="M154.3,342.1c1.3,1.8,1.8,4.1,1.2,6.2c-3,11.8-4.5,23.9-4.4,36c0.1,23.8,11.8,50.7,31.9,74.1
		c20.2,23.3,45.8,39.5,70.5,44.7c3.3,0.7,5.6,3.8,5.6,7.2h21.2c0-3.2-2-6.1-4.9-6.9c-0.2-0.1-0.4-0.1-0.6-0.2
		c-24.6-5.2-50.3-21.3-70.5-44.7c-20.2-23.3-31.9-50.4-31.9-74.1c0-12.2,1.5-24.3,4.4-36c0.5-2.2,0.1-4.5-1.2-6.2
		c-1.3-1.8-3.3-2.8-5.4-2.8H167c-3.5,0-6.9,0.2-10.4,0.4c-0.2,0-0.3,0-0.4,0c-0.4,0-1,0.1-1.4,0.1c-0.9,0.1-1.7,0.2-2.5,0.3
		C152.9,340.8,153.7,341.5,154.3,342.1z"/>
	<path class="st8" d="M253.5,503.1c-24.6-5.2-50.3-21.3-70.5-44.7s-31.9-50.4-31.9-74.1c-0.1-12.1,1.4-24.2,4.4-36
		c0.5-2.1,0.1-4.5-1.2-6.2c-0.6-0.8-1.4-1.5-2.3-1.9c0.9-0.1,1.7-0.2,2.5-0.3c-33.7,3.1-65,18.3-89.4,43.7
		c-27,28.5-42,66-41.8,105.9l0.1,20.8h235.7C259.2,506.9,256.8,503.8,253.5,503.1z"/>
	<path class="st4" d="M259.3,456.5c-0.2-0.1-0.4-0.3-0.5-0.5c-0.5-0.8-0.3-1.9,0.5-2.5c7.6-6,14.5-13.5,20.3-22.2
		c4.7-7,8.7-14.8,11.9-23.3c5.5-14.4,6.9-25.7,6.9-25.8c0.1-1,1-1.8,1.9-1.8c1,0,1.6,0.9,1.5,1.9c-0.1,0.4-1.5,11.8-7.2,26.8
		c-3.3,8.8-7.5,16.9-12.3,24.1c-6.1,9.1-13.2,16.9-21.2,23.2C260.5,456.8,259.8,456.9,259.3,456.5z"/>
	<path class="st6" d="M314.1,393.1c0.4-0.8,0.1-1.7-0.5-2.1c-0.2-0.2-5.3-3.9-10.3-2.1c-2.4,0.8-4.2,2.1-5.3,3.7s-1.5,3.4-1.1,5.3
		c0.4,1.6,1.3,2.9,2.5,3.6c0.2,0.1,0.4,0.2,0.6,0.3c1.7,0.7,3.7,0.6,6.1-0.3C311.3,399.8,314,393.4,314.1,393.1z"/>
	<path class="st5" d="M299.6,393.6c0.2-1.9-0.4-3.9-1.8-6c-2.9-4.2-9.2-4.2-9.5-4.2c-0.8,0-1.5,0.6-1.8,1.4c-0.1,0.3-2,6.8,0.8,11.1
		c1,1.4,2,2.5,3.2,3.1c0.5,0.3,1,0.4,1.5,0.6c1.7,0.4,3.5,0,5-1.2C298.5,397.3,299.4,395.5,299.6,393.6z"/>
	<path class="st5" d="M308.5,409.1c0.4-0.8,0.1-1.7-0.5-2.1c-0.2-0.2-5.3-3.9-10.3-2.1c-2.4,0.8-4.2,2.1-5.3,3.7s-1.5,3.4-1.1,5.3
		c0.4,1.6,1.3,2.9,2.5,3.6c0.2,0.1,0.4,0.2,0.6,0.3c1.7,0.7,3.7,0.6,6.1-0.3C305.6,415.8,308.4,409.5,308.5,409.1z"/>
	<path class="st6" d="M294.1,409.6c0.2-1.9-0.4-3.9-1.8-6c-2.9-4.2-9.2-4.2-9.5-4.2c-0.8,0-1.5,0.6-1.8,1.4c-0.1,0.3-2,6.8,0.8,11.1
		c1,1.4,2,2.5,3.2,3.1c0.5,0.3,1,0.4,1.5,0.6c1.7,0.4,3.5,0,5-1.2C292.9,413.3,293.9,411.6,294.1,409.6z"/>
	<path class="st6" d="M299.5,425.5c-0.2-0.2-4.4-4.8-9.6-4c-2.5,0.4-4.4,1.3-5.8,2.7c-1.3,1.4-2,3.2-1.9,5.1c0.1,1.9,1,3.5,2.4,4.5
		c0.1,0.1,0.3,0.2,0.4,0.2c1.4,0.8,3.3,1.1,5.6,0.7c5.2-0.8,8.8-6.7,9-6.8C300.1,427,300,426.1,299.5,425.5z"/>
	<g>
		<path class="st5" d="M285.5,425.5c0.4-1.9,0.3-4-0.8-6.3c-2-4.8-8.3-6-8.5-6c-0.8-0.2-1.6,0.3-1.9,1.1c-0.1,0.3-3.2,6.5-1.1,11.2
			c0.9,2.1,2.1,3.6,3.5,4.4c0.1,0.1,0.3,0.1,0.4,0.2c1.6,0.7,3.3,0.6,5-0.3C284,429,285.1,427.4,285.5,425.5z"/>
		<path class="st5" d="M288.7,444.4c-0.2-0.3-3.4-5.7-8.6-5.9c-2.5-0.1-4.5,0.4-6.1,1.6c-1.5,1.1-2.5,2.8-2.7,4.7
			c-0.3,1.9,0.4,3.7,1.6,4.9c0.4,0.4,0.8,0.7,1.3,1c1.1,0.6,2.5,1,4.3,1.1c5.1,0.2,9.7-5,9.8-5.2C289.1,446,289.1,445.1,288.7,444.4
			z"/>
		<path class="st5" d="M275.2,441.8c0.8-1.8,0.9-3.9,0.4-6.5c-1.1-5.2-6.9-7.5-7.2-7.5c-0.7-0.3-1.6,0-2,0.7
			c-0.2,0.3-4.1,5.9-3,11.1c0.5,2.5,1.6,4.3,3,5.4c0.2,0.1,0.4,0.3,0.5,0.4c1.3,0.7,2.8,0.8,4.4,0.3
			C273.1,444.8,274.5,443.5,275.2,441.8z"/>
		<path class="st5" d="M307.4,375.1c0.6-5.4-3.9-9.7-4.1-9.9c-0.5-0.5-1.4-0.5-2.1-0.1c-0.3,0.2-5.7,4.2-6.2,9.7
			c-0.3,2.6,0.1,4.7,1.1,6.2c0.4,0.8,1.1,1.3,1.8,1.8c0.7,0.5,1.6,0.6,2.5,0.6c1.8,0.1,3.5-0.7,4.7-2.1
			C306.3,379.8,307.1,377.6,307.4,375.1z"/>
	</g>
	<circle class="st9" cx="257.8" cy="455.1" r="15.2"/>
	<circle class="st10" cx="257.5" cy="454.9" r="9.3"/>
	<ellipse class="st11" cx="198.7" cy="66.8" rx="99.2" ry="64.4"/>
	<ellipse class="st12" cx="199.7" cy="106.4" rx="99.2" ry="64.4"/>
	<circle class="st11" cx="199.4" cy="185" r="134.6"/>
	<path class="st0" d="M99.8,204.7L99.8,204.7c-19.9,0.1-36,20.2-36,44.9c0,11.9,3.8,23.2,10.6,31.6s15.8,13,25.4,13h0.1
		c19.8-0.1,35.9-20.2,35.9-44.9C135.7,224.7,119.6,204.7,99.8,204.7z"/>
	<path class="st0" d="M295.8,204L295.8,204c-20.5,0.1-37.1,20.2-37,44.9c0,11.9,3.9,23.2,11,31.6c7,8.4,16.2,13,26.2,13h0.1
		c20.5-0.1,37-20.2,37-44.9C332.9,223.9,316.2,204,295.8,204z"/>
	<path class="st0" d="M297.9,187.7c-0.1-21.8-16-39.5-35.5-39.5H132.6c-9.5,0-18.4,4.1-25.1,11.7c-6.7,7.5-10.4,17.5-10.4,28.1
		l0.2,77.1c0.2,61.7,45.2,111.8,100.5,111.8h0.4c55.4-0.2,100.3-50.6,100.1-112.5L297.9,187.7z"/>
	<path class="st1" d="M198.5,331.4c-8.6,0-16.9-3.2-23.2-9c-2.7-2.5-2.9-6.7-0.4-9.3c2.5-2.7,6.7-2.9,9.3-0.4
		c3.9,3.6,9,5.5,14.2,5.5h0.1c5.4,0,10.4-2,14.3-5.6c2.7-2.5,6.8-2.3,9.3,0.4c2.5,2.7,2.3,6.8-0.4,9.3
		C215.4,328.1,207.2,331.4,198.5,331.4C198.6,331.4,198.5,331.4,198.5,331.4z"/>
	<path class="st11" d="M159,223.8c8.6,0,16.9,1.6,23.2,4.5c2.7,1.2,2.9,3.3,0.4,4.7c-2.5,1.3-6.7,1.4-9.3,0.2
		c-3.9-1.8-9-2.8-14.2-2.8H159c-5.4,0-10.4,1-14.3,2.8c-2.7,1.2-6.8,1.1-9.3-0.2s-2.3-3.4,0.4-4.7C142,225.3,150.3,223.7,159,223.8
		L159,223.8z"/>
	<path class="st11" d="M241.3,223.8c8.6,0,16.9,1.6,23.2,4.5c2.7,1.2,2.9,3.3,0.4,4.7c-2.5,1.3-6.7,1.4-9.3,0.2
		c-3.9-1.8-9-2.8-14.2-2.8h-0.1c-5.4,0-10.4,1-14.3,2.8c-2.7,1.2-6.8,1.1-9.3-0.2s-2.3-3.4,0.4-4.7
		C224.4,225.3,232.6,223.7,241.3,223.8C241.2,223.8,241.3,223.8,241.3,223.8z"/>
	<path class="st13" d="M170.9,258.1c0-6.1-5-11.1-11.1-11.1s-11.1,5-11.1,11.1c0,6.1,5,11.1,11.1,11.1S171,264.3,170.9,258.1z"/>
	<path class="st13" d="M249.5,258c0-6.1-5-11.1-11.1-11.1s-11.1,5-11.1,11.1s5,11.1,11.1,11.1C244.6,269,249.5,264.1,249.5,258z"/>
	<ellipse transform="matrix(0.5 -0.866 0.866 0.5 -100.5905 179.2021)" class="st12" cx="104.9" cy="176.7" rx="32.1" ry="35.5"/>
	
		<ellipse transform="matrix(0.5381 -0.8429 0.8429 0.5381 -97.8235 164.5352)" class="st11" cx="101.2" cy="171.5" rx="32.1" ry="35.5"/>
	<ellipse transform="matrix(0.866 -0.5 0.5 0.866 -48.2479 170.2139)" class="st12" cx="293.5" cy="175.1" rx="35.5" ry="32.1"/>
	<ellipse transform="matrix(0.866 -0.5 0.5 0.866 -45.5542 169.4932)" class="st11" cx="293.5" cy="169.7" rx="35.5" ry="32.1"/>
	<ellipse class="st12" cx="136.7" cy="140.6" rx="52.3" ry="47.3"/>
	<ellipse class="st11" cx="133.6" cy="132.7" rx="52.3" ry="47.3"/>
	<ellipse class="st12" cx="264.3" cy="140.6" rx="52.3" ry="47.3"/>
	<ellipse class="st11" cx="263.9" cy="131.9" rx="52.3" ry="47.3"/>
	<ellipse class="st12" cx="198.7" cy="119.7" rx="85.7" ry="63.9"/>
	<ellipse class="st11" cx="198.2" cy="112" rx="85.7" ry="60.4"/>
	<path class="st6" d="M255.1,485.4c0.8-0.4,1.1-1.1,1.1-1.9c-0.1-0.3-1.4-6.3-6.3-8.3c-2.4-1-4.6-1.1-6.4-0.7s-3.3,1.7-4.2,3.3
		c-0.8,1.5-0.9,3-0.4,4.4c0.1,0.2,0.2,0.4,0.3,0.6c0.8,1.6,2.4,2.9,4.7,3.8C248.6,488.6,254.8,485.6,255.1,485.4z"/>
	<path class="st5" d="M243.9,476.4c1.4-1.3,2.2-3.2,2.5-5.7c0.6-5.1-4.2-9.2-4.4-9.4c-0.6-0.5-1.5-0.5-2.3-0.1
		c-0.3,0.2-6.1,3.9-6.7,8.9c-0.2,1.8-0.1,3.2,0.4,4.5c0.2,0.5,0.4,1,0.7,1.4c1.1,1.4,2.6,2.3,4.6,2.4
		C240.7,478.3,242.5,477.6,243.9,476.4z"/>
</g>
</svg>
