<?xml version="1.0" encoding="utf-8"?>
<!-- Generator: Adobe Illustrator 19.0.0, SVG Export Plug-In . SVG Version: 6.00 Build 0)  -->
<svg version="1.1" id="Layer_1" xmlns="http://www.w3.org/2000/svg" xmlns:xlink="http://www.w3.org/1999/xlink" x="0px" y="0px"
	 viewBox="-114 142.3 383 508.7" style="enable-background:new -114 142.3 383 508.7;" xml:space="preserve">
<style type="text/css">
	.st0{fill:#6B260B;}
	.st1{fill:#C2B4B4;}
	.st2{fill:#B2A1A1;}
	.st3{fill:#F2CA70;}
	.st4{clip-path:url(#SVGID_2_);}
	.st5{fill:#D8AD56;}
	.st6{fill:#F7D789;}
	.st7{fill:#FFF4F1;}
	.st8{fill:#CCA95A;}
	.st9{fill:#ECEDEF;}
	.st10{fill:#842610;}
	.st11{fill:#868686;}
	.st12{fill:#9B3710;}
</style>
<g>
	<title>adult</title>
	<ellipse class="st0" cx="-12.1" cy="406.2" rx="43.2" ry="46.4"/>
	<ellipse class="st0" cx="186.8" cy="390.3" rx="42" ry="46.7"/>
	<path class="st1" d="M-105,650.3h361.5c1.4-0.4,2.7-1.1,3.7-2.1c1.4-1.5,2.3-3.4,2.2-5.5l-0.1-23c-0.6-87.7-71.7-158.6-159.4-158.9
		h-0.5L50.3,461c-87.9,0.6-158.9,72-158.9,160l0.1,23C-108.4,646.6-107.1,648.8-105,650.3z"/>
	<path class="st2" d="M-43.2,320.7h-0.2c-26.4,0.1-47.7,21.6-47.7,47.9c0,12.7,5,24.8,14.1,33.7c9.1,9,16,13.9,33.7,13.9h0.2
		c26.4,0,47.7-21.4,47.7-47.8C4.6,342-16.9,320.6-43.2,320.7L-43.2,320.7L-43.2,320.7z"/>
	<path class="st1" d="M195.1,319.9h-0.2c-26.4,0.1-47.8,21.6-47.7,48c0,12.7,5,24.8,14.1,33.7c8.9,8.9,21.1,13.9,33.7,13.9h0.2
		c26.4-0.4,47.4-22.1,47-48.5C241.9,341.1,221,320.2,195.1,319.9L195.1,319.9z"/>
	<path class="st2" d="M262.3,619.8c-0.5-87.7-71.7-158.7-159.4-159h-0.5l-18.9,0.1c86.1,2.5,154.7,72.7,155.3,158.9l0.1,23
		c0,2.1-0.8,4-2.3,5.5c-1,1-2.3,1.7-3.7,2.1h23.5c1.4-0.4,2.7-1.1,3.7-2.1c1.4-1.5,2.3-3.4,2.2-5.5L262.3,619.8z"/>
	<path class="st3" d="M263.3,619.8c-0.1-42.3-17.1-82.8-47.2-112.4c-9.1-9-19-16.2-29.9-22.8c0.4,1.6,0.4,2.5,0.4,4.2
		c0,29.3-54.7,53-122.1,53c-57.3,0-105.4-17.2-118.6-40.4c-2.4,2.1-4.8,4.4-7.1,6.7c-29.9,30-46.7,70.6-46.5,112.7l0.1,23
		c0.1,2.6,1.4,4.9,3.5,6.3h361.5c1.4-0.3,2.7-1.1,3.7-2c1.5-1.4,2.3-3.4,2.3-5.5L263.3,619.8z"/>
	<g>
		<g>
			<g>
				<g>
					<g>
						<g>
							<defs>
								<path id="SVGID_1_" d="M263.3,619.8c-0.1-42.3-17.1-82.8-47.2-112.4c-9.1-9-19.1-16.9-30-23.5c0.4,1.6,0.5,3.2,0.5,4.9
									c0,29.3-54.7,53-122.1,53c-57.3,0-105.4-17.2-118.6-40.4c-2.4,2.1-4.8,4.4-7.1,6.7c-29.9,30-46.7,70.6-46.5,112.7l0.1,23
									c0.1,2.6,1.4,4.9,3.5,6.3h361.5c1.4-0.3,2.7-1.1,3.7-2c1.5-1.4,2.3-3.4,2.3-5.5L263.3,619.8z"/>
							</defs>
							<clipPath id="SVGID_2_">
								<use xlink:href="#SVGID_1_"  style="overflow:visible;"/>
							</clipPath>
							<g class="st4">
								<path class="st5" d="M263.3,618.8c-0.5-87.7-71.7-158.7-159.4-159h-0.5l-18.9,0.1c86.1,2.5,154.7,72.7,155.3,158.9l0.1,23
									c0,2.1-0.8,4-2.3,5.5c-1,1-2.3,1.7-3.7,2.1h23.5c1.4-0.4,2.7-1.1,3.7-2.1c1.4-1.5,2.3-3.4,2.2-5.5L263.3,618.8z"/>
							</g>
						</g>
					</g>
				</g>
			</g>
		</g>
	</g>
	<path class="st6" d="M37.2,460.6h0.5C37.5,460.5,37.4,460.6,37.2,460.6z"/>
	<path class="st7" d="M146.9,643.3c-27.5-5.8-56.2-23.9-78.8-50s-35.6-56.4-35.7-83c-0.1-13.6,1.6-27.1,4.9-40.3
		c0.6-2.4,0.1-5-1.4-7c-0.7-0.9-1.6-1.6-2.6-2.2l2.9-0.3c-37.7,3.4-72.7,20.5-99.9,49c-30.2,32.1-46.9,74.6-46.6,118.7l0.1,23.3
		h263.4C153.4,647.8,150.7,644.3,146.9,643.3z"/>
	<path class="st8" d="M35.6,460.7c0.5,0,1.1-0.1,1.6-0.1C36.7,460.6,36.1,460.7,35.6,460.7z"/>
	<path class="st8" d="M37.7,460.5c3.8-0.3,7.6-0.5,11.5-0.5C45.3,460.1,41.5,460.2,37.7,460.5z"/>
	<path class="st9" d="M32.8,464.5c1.5,2,2,4.5,1.4,6.9c-3.3,13.1-5,26.6-4.9,40.1C29.4,538,42.4,568,64.9,594s51,44,78.4,49.7
		c3.7,0.9,6.3,4.2,6.3,8h23.5c0.1-3.5-2.2-6.6-5.5-7.7c-0.2-0.1-0.5-0.1-0.7-0.2c-27.4-5.8-56-23.7-78.5-49.7S52.9,538,52.8,511.6
		c0-13.5,1.6-26.9,4.9-40c0.6-2.4,0.1-4.9-1.4-6.9c-1.4-1.9-3.7-3.1-6.1-3.1h-3.6c-3.9,0-7.7,0.2-11.5,0.5h-0.5
		c-0.5,0-1.1,0.1-1.6,0.1l-2.8,0.3C31.3,462.8,32.1,463.6,32.8,464.5z"/>
	<path class="st6" d="M-110.3,651.1v-0.9h-4.7"/>
	<path class="st1" d="M192.8,294.6c-0.1-33-11.6-54.9-35.5-67c-21.3-11-50.3-12.2-78.4-12.2s-57.1,1.7-78.4,12.7
		c-23.6,12.2-35.1,34.3-35,67.2l0.3,105.9c0.2,69.2,51.1,125.1,113.5,125.1h0.3c62.7-0.2,113.5-56.8,113.3-126L192.8,294.6z"/>
	<path class="st0" d="M78.8,470.6c-9.6,0-18.8-3.6-25.8-10.1c-3.1-2.9-3.3-7.7-0.5-10.9c2.9-3.1,7.7-3.3,10.9-0.5l0,0
		c4.2,3.9,9.7,6,15.4,6h0.1c5.7,0,11.2-2.2,15.4-6.1c3.2-2.8,8-2.5,10.8,0.7c2.7,3.1,2.5,7.7-0.4,10.5c-7,6.5-16.3,10.2-25.9,10.2
		C78.9,470.6,78.8,470.6,78.8,470.6z"/>
	<circle class="st10" cx="-58.5" cy="334.1" r="46.4"/>
	<ellipse class="st0" cx="-60.8" cy="326.1" rx="46.4" ry="46.4"/>
	<path class="st11" d="M47.9,399.3c0-6.8-5.5-12.2-12.3-12.2s-12.2,5.5-12.2,12.3s5.5,12.2,12.3,12.2S47.9,406.1,47.9,399.3z"/>
	<path class="st12" d="M50.1,379.9c-0.7,0-1.3-0.1-1.9-0.3L19.3,372c-4.1-1.1-6.5-5.3-5.5-9.4c1-4.1,5.3-6.5,9.4-5.5l0,0l28.9,7.6
		c4.1,1.1,6.6,5.3,5.5,9.4C56.6,377.5,53.5,379.9,50.1,379.9L50.1,379.9z"/>
	<path class="st11" d="M134.5,399c0-6.8-5.5-12.2-12.3-12.2s-12.2,5.5-12.2,12.3s5.5,12.2,12.3,12.2c6.7,0.1,12.2-5.3,12.2-12
		C134.5,399.2,134.5,399.1,134.5,399z"/>
	<path class="st12" d="M107.7,379.7c-4.3,0-7.7-3.5-7.7-7.7c0-3.5,2.3-6.5,5.7-7.4l28.9-7.8c4.1-1.1,8.3,1.3,9.5,5.4
		c1.1,4.1-1.3,8.3-5.4,9.5l-28.9,7.8C109.1,379.5,108.4,379.6,107.7,379.7z"/>
	<path class="st2" d="M192.8,294.6c-0.1-33-11.6-54.9-35.5-67c-21.3-11-50.3-12.2-78.4-12.2c-2.6,0-5.3,0-7.9,0.1
		c24.3,0.5,48.4,2.7,66.9,12.2c23.7,12.1,35.4,34,35.5,67l0.3,105.9c0.2,65.7-45.5,120-103.9,125.5c3.2,0.3,6.4,0.5,9.8,0.5h0.3
		c62.6-0.2,113.4-56.8,113.2-125.9L192.8,294.6z"/>
	<circle class="st10" cx="202" cy="322.6" r="46.7"/>
	<circle class="st0" cx="204.1" cy="313.1" r="46.7"/>
	<circle class="st10" cx="-17.2" cy="252" r="65.1"/>
	<circle class="st0" cx="-20.2" cy="244.5" r="65.1"/>
	<circle class="st10" cx="157.2" cy="252" r="67.5"/>
	<circle class="st0" cx="157.2" cy="242.2" r="67.5"/>
	<path class="st2" d="M263.3,642.8c0,2.1-0.8,4-2.3,5.5c-1,1-2.3,1.7-3.7,2.1h-23.5c1.4-0.3,2.7-1,3.7-2.1c1.4-1.5,2.3-3.4,2.3-5.5
		l0.3-20.5c8.4-9.1,15.2-19.5,20.3-30.7c0-0.1,0-0.1,0.1-0.2c1.7,9.4,2.6,18.9,2.6,28.4L263.3,642.8z"/>
	<path class="st1" d="M240.2,642.8c0,2.1-0.9,4.1-2.5,5.5c-1.1,1.1-2.6,1.8-4.1,2.1H198c15.7-6.6,30.1-16.1,42.2-28L240.2,642.8
		L240.2,642.8z"/>
	<circle class="st0" cx="1.5" cy="439.8" r="2.9"/>
	<circle class="st0" cx="19.1" cy="439.8" r="2.9"/>
	<circle class="st0" cx="9.7" cy="454.1" r="2.9"/>
	<circle class="st0" cx="131.4" cy="439.8" r="2.9"/>
	<circle class="st0" cx="149" cy="439.8" r="2.9"/>
	<ellipse class="st0" cx="139.8" cy="454.1" rx="2.9" ry="2.9"/>
	<circle class="st10" cx="77.4" cy="228.5" r="78.3"/>
	<circle class="st0" cx="77.4" cy="219.9" r="78.3"/>
</g>
</svg>
