<?xml version="1.0" encoding="utf-8"?>
<!-- Generator: Adobe Illustrator 19.0.0, SVG Export Plug-In . SVG Version: 6.00 Build 0)  -->
<svg version="1.1" id="Layer_1" xmlns="http://www.w3.org/2000/svg" xmlns:xlink="http://www.w3.org/1999/xlink" x="0px" y="0px"
	 viewBox="-114 142.3 383 508.7" style="enable-background:new -114 142.3 383 508.7;" xml:space="preserve">
<style type="text/css">
	.st0{fill:#3A1E0B;}
	.st1{fill:#C6A89C;}
	.st2{fill:#B38B7B;}
	.st3{fill:#897F79;}
	.st4{fill:#868686;}
	.st5{fill:#664242;}
	.st6{clip-path:url(#SVGID_2_);}
	.st7{clip-path:url(#SVGID_4_);}
	.st8{fill:#4C2C2C;}
</style>
<title>adult</title>
<circle class="st0" cx="76.4" cy="305.4" r="151.9"/>
<path class="st1" d="M228.4,624.8l0.1,18.8c0,1.9-0.7,3.7-2.1,5.1c-0.9,1-2.1,1.6-3.5,1.9h-314c-2-1.3-3.2-3.5-3.3-5.9v-21.3
	c0-81.9,66-148.5,147.7-149l48.4-0.2h0.5c2.5,0,4.8,0.1,7.3,0.2c0.5,0,1.2,0.1,1.7,0.1l3.5,0.3c0.6,0,1.2,0.1,1.7,0.2
	c1.1,0.1,2.1,0.2,3.2,0.4C184,483.3,236,532.1,248,596.1C242.9,606.5,236.3,616.3,228.4,624.8z"/>
<path class="st1" d="M-34.6,343.5h-0.2c-24.6,0.1-44.4,20.1-44.4,44.7c0,11.8,4.7,23.1,13.1,31.4c8.5,8.4,14.9,12.9,31.4,12.9h0.2
	C-9.9,432,9.6,411.6,9,387C8.5,363.2-10.7,344-34.6,343.5L-34.6,343.5z"/>
<path class="st2" d="M247.9,595.8c0,0.1,0,0.1-0.1,0.2c-4.9,10.6-11.5,20.4-19.4,29v-2.5c-0.5-80.2-64.4-145.6-144.6-148l17.5-0.1
	h0.5c2.5,0,4.8,0.1,7.3,0.2c0.5,0,1.2,0.1,1.7,0.1l3.5,0.3c0.6,0,1.2,0.1,1.7,0.2c1.1,0.1,2.1,0.2,3.2,0.4
	C183.7,483.2,235.8,531.9,247.9,595.8z"/>
<path class="st1" d="M187.6,342.7h-0.2c-24.6,0.1-44.5,20.1-44.4,44.7c0,11.8,4.7,23.1,13.1,31.4c8.3,8.3,19.6,13,31.4,12.9h0.2
	c24.6-0.5,44.1-20.9,43.5-45.5C230.6,362.4,211.4,343.2,187.6,342.7L187.6,342.7z"/>
<path class="st1" d="M184.6,318.7c-0.1-29.2-11.4-48.5-34.6-59.3c-20.8-9.6-49.1-10.8-76.6-10.8s-55.7,1.6-76.5,11.2
	c-23,10.8-34.2,30.3-34.1,59.3l0.3,93.7c0.2,61.1,49.8,110.5,110.9,110.6h0.3c61.2-0.3,110.7-50.1,110.5-111.3L184.6,318.7z"/>
<path class="st3" d="M79.2,483.2c-8.9,0-17.5-3.3-24-9.4c-2.9-2.7-3.1-7.2-0.5-10.1c2.7-2.9,7.2-3.1,10.1-0.5
	c3.9,3.6,9,5.6,14.4,5.6h0.1c5.3,0,10.5-2,14.4-5.6c2.9-2.7,7.4-2.5,10.1,0.4c2.7,2.9,2.5,7.4-0.4,10.1
	C96.8,479.7,88.2,483.1,79.2,483.2C79.3,483.2,79.2,483.2,79.2,483.2z"/>
<path class="st4" d="M50.4,416.7c0-6.3-5.2-11.4-11.5-11.4s-11.4,5.2-11.4,11.5s5.2,11.4,11.5,11.4l0,0
	C45.3,428.2,50.4,423,50.4,416.7z"/>
<path class="st0" d="M52.4,398.6c-0.6,0-1.2-0.1-1.8-0.3l-26.9-7.1c-3.8-1.1-5.9-5.1-4.8-8.9c1.1-3.6,4.8-5.7,8.4-4.9l26.9,7.1
	c3.8,1,6.1,4.9,5.1,8.7C58.5,396.4,55.7,398.7,52.4,398.6z"/>
<path class="st4" d="M131.1,416.5c0-6.3-5.2-11.4-11.5-11.4s-11.4,5.2-11.4,11.5s5.2,11.4,11.5,11.4l0,0c6.2,0.1,11.3-5,11.4-11.2
	C131.1,416.7,131.1,416.6,131.1,416.5z"/>
<path class="st0" d="M106.1,398.5c-4,0-7.2-3.3-7.1-7.2c0-3.2,2.2-6,5.2-6.9l26.9-7.3c3.8-1.1,7.8,1.2,8.8,5c1.1,3.8-1.2,7.8-5,8.8
	l-26.9,7.3C107.4,398.4,106.8,398.5,106.1,398.5z"/>
<path class="st2" d="M184.6,318.7c-0.1-29.2-10.9-48.5-33.3-59.3c-20.1-9.6-47.3-10.8-73.8-10.8c-2.6,0-4.9,0-7.5,0.1
	c22.9,0.4,45.5,2.5,62.9,10.7c22.3,10.7,33.2,30,33.3,59.3l0.3,93.6c0.2,58.1-42.9,106-97.7,111c3,0.3,6.1,0.4,9.2,0.4h0.3
	c58.9-0.2,106.7-50.1,106.5-111.3L184.6,318.7z"/>
<path id="SVGID" class="st5" d="M250.3,622.3c-0.1-39.4-15.9-77.1-44-104.8c-2.8-2.8-5.7-5.5-8.6-7.9
	c-22.4,25.2-67.8,42.5-120.1,42.5s-97.7-17.2-120-42.4c-3.3,2.7-6.4,5.6-9.5,8.7c-27.9,27.8-43.5,65.6-43.4,105v21.4
	c0.1,2.4,1.3,4.6,3.3,5.9h336.8c1.3-0.3,2.5-1,3.5-1.9c1.3-1.3,2.1-3.2,2.1-5.1L250.3,622.3z"/>
<g>
	<g>
		<g>
			<defs>
				<path id="SVGID_1_" d="M250.3,622.3c-0.1-39.4-15.9-77.1-44-104.8c-2.8-2.8-5.7-5.5-8.6-7.9c-22.4,25.2-67.8,42.5-120.1,42.5
					s-97.7-17.2-120-42.4c-3.3,2.7-6.4,5.6-9.5,8.7c-27.9,27.8-43.5,65.6-43.4,105v21.4c0.1,2.4,1.3,4.6,3.3,5.9h336.8
					c1.3-0.3,2.5-1,3.5-1.9c1.3-1.3,2.1-3.2,2.1-5.1L250.3,622.3z"/>
			</defs>
			<clipPath id="SVGID_2_">
				<use xlink:href="#SVGID_1_"  style="overflow:visible;"/>
			</clipPath>
			<g class="st6">
				<path class="st1" d="M-32.2,654.5h-54.3c-6,0-10.9-4.9-10.9-10.9v-61C-87.7,615.2-63.7,641.6-32.2,654.5z"/>
			</g>
		</g>
	</g>
</g>
<g>
	<g>
		<g>
			<defs>
				<path id="SVGID_3_" d="M250.3,622.3c-0.1-39.4-15.9-77.1-44-104.8c-2.8-2.8-5.7-5.5-8.6-7.9c-22.4,25.2-67.8,42.5-120.1,42.5
					s-97.7-17.2-120-42.4c-3.3,2.7-6.4,5.6-9.5,8.7c-27.9,27.8-43.5,65.6-43.4,105v21.4c0.1,2.4,1.3,4.6,3.3,5.9h336.8
					c1.3-0.3,2.5-1,3.5-1.9c1.3-1.3,2.1-3.2,2.1-5.1L250.3,622.3z"/>
			</defs>
			<clipPath id="SVGID_4_">
				<use xlink:href="#SVGID_3_"  style="overflow:visible;"/>
			</clipPath>
			<g class="st7">
				<path class="st8" d="M251.9,623.7c-0.5-81.8-66.8-147.8-148.6-148.1h-0.4l-17.6,0.1c80.2,2.4,144.1,67.8,144.6,148l0.1,21.4
					c0,1.9-0.7,3.7-2.1,5.1c-0.9,1-2.1,1.6-3.5,1.9h21.9c1.3-0.3,2.5-1,3.5-1.9c1.4-1.4,2.1-3.2,2.1-5.1V623.7z"/>
			</g>
		</g>
	</g>
</g>
<circle class="st0" cx="101.8" cy="235.3" r="57.8"/>
<circle class="st0" cx="173.3" cy="257.6" r="44.6"/>
<ellipse class="st0" cx="145.8" cy="280.9" rx="31.6" ry="31.6"/>
<circle class="st0" cx="195.1" cy="305.4" r="32.9"/>
<circle class="st0" cx="29.5" cy="193.8" r="41.5"/>
<circle class="st0" cx="-17.2" cy="262.6" r="39.6"/>
<circle class="st0" cx="-42.9" cy="298.2" r="40.4"/>
<circle class="st0" cx="-21.1" cy="210.8" r="28.3"/>
<circle class="st0" cx="174.2" cy="207.6" r="18.6"/>
<ellipse class="st0" cx="132.9" cy="197.6" rx="44.5" ry="44.5"/>
<circle class="st0" cx="77.9" cy="176.5" r="33.9"/>
<circle class="st0" cx="44" cy="260.4" r="47.3"/>
<circle class="st0" cx="191" cy="345.4" r="18.8"/>
<circle class="st0" cx="-53.2" cy="345.4" r="22.4"/>
<path class="st2" d="M250.4,643.6c0,1.9-0.7,3.7-2,5.1c-0.9,0.9-2,1.6-3.3,1.9h-20.8c1.3-0.3,2.4-1,3.3-1.9c1.3-1.4,2-3.2,2-5.1
	l0.3-19.1c7.5-8.6,13.5-18.3,18-28.7c0-0.1,0-0.1,0.1-0.2c1.5,8.7,2.3,17.6,2.3,26.5L250.4,643.6z"/>
<path class="st1" d="M230,643.6c0,1.9-0.8,3.8-2.2,5.1c-1,1-2.3,1.7-3.6,1.9h-31.5c14-6.2,26.7-15.1,37.3-26.1L230,643.6L230,643.6z
	"/>
</svg>
