<?xml version="1.0" encoding="utf-8"?>
<!-- Generator: Adobe Illustrator 19.0.0, SVG Export Plug-In . SVG Version: 6.00 Build 0)  -->
<svg version="1.1" id="Layer_1" xmlns="http://www.w3.org/2000/svg" xmlns:xlink="http://www.w3.org/1999/xlink" x="0px" y="0px"
	 viewBox="-114 142.3 383 508.7" style="enable-background:new -114 142.3 383 508.7;" xml:space="preserve">
<style type="text/css">
	.st0{fill:#3A1E0B;}
	.st1{fill:#ECEDEF;}
	.st2{fill:#C9A594;}
	.st3{fill:#E6B09A;}
	.st4{fill:#E5775A;}
	.st5{clip-path:url(#SVGID_2_);}
	.st6{fill:#DBDCDD;}
	.st7{clip-path:url(#SVGID_4_);}
	.st8{fill:#BA5743;}
	.st9{clip-path:url(#SVGID_6_);}
	.st10{fill:#FFF4F1;}
	.st11{fill:#C6A89C;}
	.st12{fill:#CCA95A;}
	.st13{fill:#897F79;}
	.st14{fill:#868686;}
	.st15{fill:#B38B7B;}
	.st16{fill:#C6943C;}
	.st17{fill:#F7B93E;}
</style>
<title>adult</title>
<path class="st0" d="M-46.1,418.6c5.4-5.6,9.6-12.3,12.4-19.6c1.1-1.1,3.1-0.9,4.5,0.6l17.6,17.2c1.4,1.4,1.7,3.4,0.7,4.5L-23,433.6
	c-12.2,12.5-31.4,14-42.5,3.1l0,0c-1.4-1.4-1.7-3.4-0.7-4.5C-58.5,429.1-51.7,424.4-46.1,418.6z"/>
<path class="st0" d="M209,435.2c1,1,0.8,3.1-0.7,4.5l0,0c-11.1,10.9-30.2,9.5-42.5-3.1l-12-12.3c-1-1.1-0.8-3.1,0.7-4.5l17.6-17.2
	c1.4-1.4,3.4-1.6,4.5-0.6C182.4,417.1,194.1,429.1,209,435.2z"/>
<path class="st1" d="M-43.2,650.4h-53c-6.3,0-11.5-5.1-11.5-11.5v-84c0.1-26.4,21.5-47.7,47.8-47.8h16.7c6.3,0,11.5,5.1,11.5,11.5
	v120.3C-31.7,645.4-36.8,650.4-43.2,650.4z"/>
<path class="st2" d="M-98.7,650.2h353.9c1.4-0.3,2.6-1,3.6-2c1.4-1.4,2.2-3.3,2.2-5.4l-0.1-22.5c-0.5-85.9-70.2-155.3-156.1-155.6
	h-0.5l-51,0.2c-86,0.6-155.5,70.6-155.5,156.6l0.1,22.5C-102.1,646.4-100.9,648.8-98.7,650.2z"/>
<path class="st3" d="M261,620.4c-0.5-85.9-70.2-155.3-156-155.6h-0.5l-18.4,0.1c84.3,2.5,151.4,71.2,151.9,155.5l0.1,22.5
	c0,2-0.8,3.9-2.2,5.3c-1,1-2.2,1.7-3.6,2h23c1.4-0.3,2.6-1,3.6-2c1.4-1.4,2.2-3.3,2.2-5.3L261,620.4z"/>
<path class="st4" d="M260.9,620.4c-0.1-41.4-16.7-81-46.2-110.1c-3-3-6-5.7-9.1-8.3c-23.5,26.5-71.3,44.7-126.2,44.7
	s-102.7-18.1-126.2-44.6c-3.4,2.9-6.7,5.9-10,9.2c-29.3,29.2-45.6,69-45.5,110.3l0.1,22.5c0.1,2.5,1.4,4.8,3.4,6.2H255
	c1.4-0.3,2.6-1,3.6-2c1.4-1.4,2.2-3.4,2.2-5.4L260.9,620.4L260.9,620.4z"/>
<g>
	<g>
		<g>
			<defs>
				<path id="SVGID_1_" d="M260.9,620.4c-0.1-41.4-16.7-81-46.2-110.1c-3-3-6-5.7-9.1-8.3c-23.5,26.5-71.3,44.7-126.2,44.7
					s-102.7-18.1-126.2-44.6c-3.4,2.9-6.7,5.9-10,9.2c-29.3,29.2-45.6,69-45.5,110.3l0.1,22.5c0.1,2.5,1.4,4.8,3.4,6.2H255
					c1.4-0.3,2.6-1,3.6-2c1.4-1.4,2.2-3.4,2.2-5.4L260.9,620.4L260.9,620.4z"/>
			</defs>
			<clipPath id="SVGID_2_">
				<use xlink:href="#SVGID_1_"  style="overflow:visible;"/>
			</clipPath>
			<g class="st5">
				<path class="st6" d="M-32.6,534.2h-26.7c-12.8,0-23.2-10.4-23.2-23.2v-0.2c0-12.8,10.4-23.2,23.2-23.2h26.8
					c12.8,0,23.2,10.4,23.2,23.2v0.2C-9.3,523.8-19.7,534.2-32.6,534.2z"/>
			</g>
		</g>
	</g>
</g>
<g>
	<g>
		<g>
			<defs>
				<path id="SVGID_3_" d="M260.9,620.4c-0.1-41.4-16.7-81-46.2-110.1c-3-3-6-5.7-9.1-8.3c-23.5,26.5-71.3,44.7-126.2,44.7
					s-102.7-18.1-126.2-44.6c-3.4,2.9-6.7,5.9-10,9.2c-29.3,29.2-45.6,69-45.5,110.3l0.1,22.5c0.1,2.5,1.4,4.8,3.4,6.2H255
					c1.4-0.3,2.6-1,3.6-2c1.4-1.4,2.2-3.4,2.2-5.4L260.9,620.4L260.9,620.4z"/>
			</defs>
			<clipPath id="SVGID_4_">
				<use xlink:href="#SVGID_3_"  style="overflow:visible;"/>
			</clipPath>
			<g class="st7">
				<path class="st8" d="M262.5,621.9C262,536,192.3,466.6,106.4,466.3h-0.5l-18.5,0.1c84.3,2.4,151.5,71.2,152,155.5l0.1,22.5
					c0,2-0.8,3.9-2.2,5.3c-1,1-2.3,1.7-3.6,2h23c1.4-0.3,2.6-1,3.6-2c1.4-1.4,2.2-3.3,2.2-5.3V621.9z"/>
			</g>
		</g>
	</g>
</g>
<g>
	<g>
		<g>
			<defs>
				<path id="SVGID_5_" d="M260.9,620.4c-0.1-41.4-16.7-81-46.2-110.1c-3-3-6-5.7-9.1-8.3c-23.5,26.5-71.3,44.7-126.2,44.7
					s-102.7-18.1-126.2-44.6c-3.4,2.9-6.7,5.9-10,9.2c-29.3,29.2-45.6,69-45.5,110.3l0.1,22.5c0.1,2.5,1.4,4.8,3.4,6.2H255
					c1.4-0.3,2.6-1,3.6-2c1.4-1.4,2.2-3.4,2.2-5.4L260.9,620.4L260.9,620.4z"/>
			</defs>
			<clipPath id="SVGID_6_">
				<use xlink:href="#SVGID_5_"  style="overflow:visible;"/>
			</clipPath>
			<g class="st9">
				<path class="st10" d="M-31.7,532.2h-26.6c-12.8,0-23.2-10.4-23.2-23.2v-0.2c0-12.8,10.4-23.2,23.2-23.2h26.8
					c12.8,0,23.2,10.4,23.2,23.2v0.2C-8.3,521.8-18.7,532.2-31.7,532.2z"/>
			</g>
		</g>
	</g>
</g>
<path class="st11" d="M-21.9,649.8L-21.9,649.8c0,0.7-0.6,1.3-1.3,1.3l0,0h-77.7c-0.7,0-1.3-0.6-1.3-1.3c0,0,0,0,0-0.1v-50.2
	c0-6.4,1.5-12.7,4.5-18.4c0.8-1.5,2-2.6,3.5-3.3c0.5-0.2,1.1-0.1,1.5,0.3l70.5,70.7C-22.1,649.2-21.9,649.4-21.9,649.8z"/>
<path class="st10" d="M11.8,642.4c26.8-5.6,54.8-23.2,76.8-48.7s34.7-54.9,34.8-80.7c0.1-13.2-1.5-26.4-4.8-39.2
	c-0.6-2.4-0.1-4.8,1.3-6.8c0.7-0.9,1.5-1.6,2.5-2.1l-2.8-0.3c36.7,3.4,70.9,20,97.4,47.6c29.6,31.1,46,72.4,45.6,115.4l-0.1,22.7
	H5.8C5.8,646.6,8.3,643.3,11.8,642.4z"/>
<path class="st12" d="M-17.2,650.3L-17.2,650.3c-0.1-3.4,2.1-6.5,5.4-7.6C-15.2,643.9-17.2,646.9-17.2,650.3z"/>
<path class="st12" d="M119.6,464.8c-0.5,0-1-0.1-1.5-0.1C118.6,464.7,119.1,464.7,119.6,464.8z"/>
<path class="st12" d="M117.8,464.6c-3.7-0.3-7.5-0.5-11.3-0.5C110.3,464.1,113.9,464.3,117.8,464.6z"/>
<path class="st1" d="M119.9,467.2c-1.4,2-1.9,4.4-1.3,6.8c3.3,12.8,4.9,26,4.8,39.2c-0.1,25.9-12.8,55.3-34.8,80.7
	s-49.9,43-76.8,48.7c-3.6,0.8-6.2,4.1-6.1,7.8h-23c0-3.4,2.1-6.5,5.4-7.5c0.2-0.1,0.5-0.1,0.7-0.2c26.8-5.6,54.8-23.2,76.8-48.7
	s34.7-54.9,34.8-80.7c0-13.2-1.6-26.4-4.8-39.2c-0.6-2.3-0.1-4.8,1.3-6.8c1.4-1.9,3.6-3,5.9-3.1h3.5c3.8,0,7.6,0.2,11.3,0.5h0.5
	c0.5,0,1.1,0.1,1.5,0.1c1,0.1,1.8,0.2,2.8,0.3C121.4,465.6,120.6,466.3,119.9,467.2z"/>
<ellipse class="st0" cx="78.1" cy="297.6" rx="159.6" ry="149.4"/>
<path class="st11" d="M-38.3,327.4h-0.2c-25.9,0.1-46.7,21.1-46.7,47c0,12.4,4.9,24.3,13.8,33c8.9,8.8,15.7,13.6,33,13.6h0.2
	c25.8,0,46.7-21,46.7-46.8C8.5,348.4-12.4,327.4-38.3,327.4L-38.3,327.4L-38.3,327.4z"/>
<path class="st11" d="M191.5,326.7h-0.2c-25.9,0.1-46.7,21.1-46.7,47c0,12.4,4.9,24.3,13.8,33c8.8,8.7,20.6,13.6,33,13.6h0.2
	c25.8,0,46.7-21,46.7-46.8C238.3,347.7,217.3,326.7,191.5,326.7L191.5,326.7z"/>
<path class="st11" d="M184.1,296.2c-0.1-31.2-11.5-51.8-34.9-63.2c-21-10.3-49.5-11.6-77.2-11.6s-56.1,1.6-77.1,12
	c-23.2,11.5-34.4,32.3-34.4,63.3l0.3,100C-39,461.9,11,514.8,72.5,514.8h0.3c61.6-0.2,111.6-53.5,111.4-118.9L184.1,296.2z"/>
<path class="st13" d="M81.1,474.2c-9.4,0-18.4-3.5-25.3-9.8c-3.2-2.6-3.7-7.4-1-10.6c2.6-3.2,7.4-3.7,10.6-1
	c0.2,0.2,0.4,0.3,0.6,0.5c4.1,3.8,9.5,5.9,15.1,5.8h0.1c5.6,0,11-2.1,15.1-5.9c3-2.8,7.8-2.7,10.6,0.4c2.8,3,2.7,7.8-0.4,10.6l0,0
	C99.6,470.6,90.6,474.2,81.1,474.2L81.1,474.2z"/>
<path class="st14" d="M50.9,404.4c0-6.6-5.4-12-12-11.9c-6.6,0-12,5.4-11.9,12c0,6.6,5.4,11.9,12,12
	C45.6,416.4,50.9,411.1,50.9,404.4z"/>
<path class="st0" d="M52.9,385.4c-0.6,0-1.3-0.1-1.9-0.3l-28.3-7.4c-4-0.9-6.6-5-5.6-9s5-6.6,9-5.6c0.1,0,0.3,0.1,0.4,0.1l28.3,7.5
	c4,1.2,6.3,5.3,5.1,9.3C59.1,383.1,56.3,385.3,52.9,385.4z"/>
<path class="st14" d="M135.6,404.1c0-6.6-5.4-12-12-11.9c-6.6,0-12,5.4-11.9,12c0,6.6,5.4,11.9,12,12c6.5,0.1,11.9-5.2,12-11.7
	C135.6,404.4,135.6,404.3,135.6,404.1z"/>
<path class="st0" d="M109.4,385.2c-4.2,0-7.5-3.4-7.5-7.6c0-3.4,2.3-6.3,5.5-7.2l28.3-7.7c4-1.2,8.2,1,9.5,4.9c1.2,4-1,8.2-4.9,9.5
	c-0.2,0.1-0.3,0.1-0.5,0.1l-28.3,7.6C110.9,385.1,110.1,385.2,109.4,385.2z"/>
<path class="st15" d="M184.1,296.2c-0.1-31.2-9.8-51.8-29.7-63.2c-18-10.3-42.3-11.6-66-11.6c-2.2,0-4.4,0-6.7,0.1
	c20.5,0.4,40.7,2.6,56.2,11.5c19.9,11.4,29.7,32,29.7,63.2l0.3,99.9c0.1,62.1-38.3,113.2-87.2,118.5c2.7,0.3,5.5,0.4,8.2,0.4h0.3
	c52.6-0.2,95.3-53.5,95.2-118.9L184.1,296.2z"/>
<path class="st16" d="M-62,507.9c0-3.8,1.3-7.4,3.6-10.3c-7.4,5.4-9,15.7-3.6,23.1s15.7,9,23.1,3.6c1.2-0.9,2.2-1.9,3.2-3
	c-7.3,5.4-17.6,3.9-23.1-3.4C-60.8,514.9-62,511.4-62,507.9z"/>
<path class="st17" d="M-48.6,494.4c-3.5,0-6.9,1.2-9.8,3.3c-5.7,7.1-4.7,17.5,2.4,23.2c5.9,4.8,14.2,4.9,20.3,0.4
	c5.7-7.1,4.6-17.5-2.5-23.2C-41.2,495.7-44.7,494.4-48.6,494.4L-48.6,494.4z"/>
<circle class="st17" cx="-48.6" cy="510.9" r="16.5"/>
<circle class="st17" cx="-48.6" cy="510.9" r="16.5"/>
<path class="st0" d="M106.9,308.7c6.1-10.3,10.5-21.4,13.2-33.1c1.2-2,3.8-2.7,5.8-1.5l0,0l24.9,14.9c2,1.2,2.7,3.8,1.5,5.8l0,0
	l-13.7,23c-14,23.3-38.3,34.6-53.9,25.3l0,0c-2-1.2-2.7-3.8-1.5-5.8c0,0,0,0,0-0.1C92.4,329.1,100.6,319.5,106.9,308.7z"/>
<path class="st0" d="M54.6,272c12.4-17.8,22-37.4,28.5-58.1c2.4-3.5,7.2-4.3,10.7-1.9c0,0,0,0,0.1,0l43,30.5
	c3.5,2.4,4.3,7.2,1.8,10.7l0,0l-28.2,39.7c-28.6,40.3-74.1,57.6-101.3,38.3l0,0c-3.5-2.4-4.3-7.2-1.8-10.7l0,0
	C25.4,307,41.4,290.6,54.6,272z"/>
<path class="st0" d="M-8.1,328.5c1.1,1.1,0.8,3.1-0.7,4.5l0,0c-11.1,10.9-30.2,9.5-42.5-3.1l-12-12.3c-1-1.1-0.8-3.1,0.7-4.5
	l17.6-17.2c1.4-1.4,3.4-1.6,4.5-0.6C-34.7,310.4-22.9,322.4-8.1,328.5z"/>
<path class="st0" d="M173.9,314.9c5.4-5.6,9.6-12.3,12.4-19.6c1-1.1,3.1-0.9,4.5,0.6l17.6,17.2c1.4,1.4,1.7,3.4,0.7,4.5L197,329.9
	c-12.3,12.5-31.4,14-42.5,3.1l0,0c-1.4-1.4-1.7-3.4-0.7-4.5C161.4,325.4,168.1,320.8,173.9,314.9z"/>
<path class="st0" d="M-29.6,292c-3.1-7.2-4.7-14.9-4.8-22.7c-0.6-1.4-2.6-1.8-4.4-1.1l-22.5,10c-1.8,0.9-2.8,2.6-2.2,4l7.1,15.8
	c7.2,16,24.6,23.9,38.8,17.6l0,0c1.8-0.9,2.8-2.6,2.2-4C-21.4,306.2-26.2,299.5-29.6,292z"/>
<path class="st0" d="M158.5,313.6c-0.6,1.4,0.3,3.1,2.2,4l0,0c14.2,6.3,31.6-1.6,38.8-17.6l7.1-15.8c0.6-1.4-0.3-3.1-2.2-4l-22.5-10
	c-1.9-0.8-3.8-0.3-4.5,1.1C177.4,287.4,170.5,302.8,158.5,313.6L158.5,313.6z"/>
<path class="st0" d="M-7.4,186.1h171.2c27.3,0,49.5,22.2,49.5,49.5v23.7c0,27.3-22.2,49.5-49.5,49.5H-7.4
	c-27.3,0-49.5-22.2-49.5-49.5v-23.7C-57,208.2-34.7,186.1-7.4,186.1z"/>
</svg>
