<?xml version="1.0" encoding="utf-8"?>
<!-- Generator: Adobe Illustrator 23.1.0, SVG Export Plug-In . SVG Version: 6.00 Build 0)  -->
<svg version="1.1" id="Layer_1" xmlns="http://www.w3.org/2000/svg" xmlns:xlink="http://www.w3.org/1999/xlink" x="0px" y="0px"
	 viewBox="0 0 383 508.7" style="enable-background:new 0 0 383 508.7;" xml:space="preserve">
<style type="text/css">
	.st0{fill:#ECEDEF;}
	.st1{fill:#E0A632;}
	.st2{fill:#F9CD45;}
	.st3{fill:#F0BCA6;}
	.st4{fill:#E6B09A;}
	.st5{fill:#D6B07F;}
	.st6{clip-path:url(#SVGID_2_);}
	.st7{fill:#A57C50;}
	.st8{fill:#FFF4F1;}
	.st9{fill:#F7D789;}
	.st10{fill:#CCA95A;}
	.st11{fill:#F7B93E;}
	.st12{fill:#E2A58A;}
	.st13{fill:#868686;}
	.st14{fill:none;}
</style>
<title>adult</title>
<path class="st0" d="M290.5,497.9V373.4c0-6.5,6.3-11.8,13.9-11.8h20.4c32,0,58.2,22.2,58.2,49.4v86.9c0,6.5-6.3,11.8-14,11.8h-64.6
	C296.8,509.8,290.5,504.4,290.5,497.9z"/>
<path class="st1" d="M27.8,251.4c-1.9-10.9-5.5-21.4-10.7-31.2c-0.4-2.1,1.1-4.1,3.2-4.5l0,0l26.5-4.5c2.1-0.4,4.1,1,4.5,3.2l0,0
	l4.2,24.4c4.2,24.8-6,47.4-22.6,50.2l0,0c-2.1,0.4-4.1-1.1-4.5-3.2l0,0C30.1,274.3,29.9,262.7,27.8,251.4z"/>
<path class="st1" d="M346.6,285.8c-0.4,2.1-2.4,3.6-4.5,3.2l0,0l0,0c-16.7-2.9-26.9-25.4-22.6-50.2l4.1-24.4
	c0.4-2.1,2.3-3.6,4.5-3.2c0,0,0,0,0.1,0l26.5,4.5c2.1,0.4,3.6,2.4,3.2,4.5l0,0c-5.2,9.8-8.8,20.3-10.8,31.2
	C345,262.7,344.8,274.3,346.6,285.8z"/>
<ellipse class="st1" cx="77.4" cy="269" rx="39.9" ry="66.7"/>
<ellipse class="st1" cx="300.7" cy="269.9" rx="39.9" ry="66.7"/>
<circle class="st2" cx="191.8" cy="181.5" r="147.8"/>
<path class="st3" d="M297.5,197.9h-0.2c-24,0.1-43.2,19.5-43.2,43.5c0,11.5,4.5,22.5,12.7,30.5c8.1,8.1,19.1,12.6,30.5,12.5h0.2
	c23.9-1,42.5-21.2,41.5-45.1C338.1,216.8,320.1,198.7,297.5,197.9L297.5,197.9z"/>
<path class="st3" d="M4.9,508.7h366c1.4-0.3,2.7-1,3.7-2.1c1.4-1.4,2.3-3.4,2.3-5.5l-0.1-23.1c-0.1-42.6-17.3-83.4-47.8-113.2
	C298.9,334.8,258,318,215.4,318h-0.5l-52.7,0.2c-88.8,0.3-160.7,72.2-160.9,161l0.1,23.1C1.4,504.8,2.8,507.2,4.9,508.7z"/>
<path class="st3" d="M81.4,198.6h-0.2c-24,0.1-43.2,19.5-43.2,43.5c0,11.5,4.5,22.5,12.7,30.5c8.2,8.1,14.6,12.5,30.5,12.5h0.2
	c23.9-0.9,42.5-21.1,41.6-45C122.1,217.5,104,199.4,81.4,198.6L81.4,198.6z"/>
<path class="st4" d="M376.9,478.9c-0.5-88.9-72.6-160.7-161.4-161H215L196,318c87.1,2.6,156.6,73.6,157.2,160.9l0.1,23.3
	c0,2.1-0.8,4.1-2.3,5.6c-1,1-2.4,1.8-3.7,2.1h23.8c1.4-0.3,2.7-1,3.7-2.1c1.4-1.4,2.3-3.5,2.3-5.6L376.9,478.9z"/>
<path class="st5" d="M289.6,508.8h0.4h83.7c2.2-1.4,3.5-3.8,3.6-6.5l0.1-23.3c0.1-42.8-16.8-83.8-47.1-114.1
	c-3.4-3.4-6.7-6.5-10.3-9.5c-0.2,0.2-0.4,0.4-0.6,0.7c-24.5,27-73.5,45.4-129.9,45.4c-5.1,0-10.3-0.1-15.3-0.4
	c-8.5-0.5-16.8-1.4-24.8-2.8c-39.1-6.4-71.7-22-90.1-42.6c-0.1-0.1-0.3-0.3-0.4-0.4c-3.2,2.7-6.3,5.6-9.4,8.7
	c-16.8,16.6-29.6,36.5-37.7,58.2c-0.2,0.4-0.3,0.9-0.5,1.3c-6.3,17.3-9.6,35.6-9.7,54.4v23.4c0,2.1,0.8,4.1,2.3,5.6
	c0.9,0.9,2.2,1.6,3.4,2c0.1,0,0.3,0.1,0.4,0.1H265h0.6h24V508.8z"/>
<g>
	<g>
		<g>
			<defs>
				<path id="SVGID_1_" d="M1.8,501.1c0,2.1,0.8,4.1,2.3,5.6c1,1,2.4,1.8,3.8,2.1h365.9c2.2-1.4,3.5-3.8,3.6-6.5l0.1-23.3
					c0.1-42.8-16.8-83.8-47.1-114.1c-3.4-3.4-6.7-6.5-10.3-9.5c-24.3,27.4-73.6,46.1-130.5,46.1S83.2,382.8,58.9,355.3
					c-3.2,2.7-6.3,5.6-9.4,8.7C19.1,394,1.9,435,1.8,477.8C1.8,477.8,1.8,501.1,1.8,501.1z"/>
			</defs>
			<clipPath id="SVGID_2_">
				<use xlink:href="#SVGID_1_"  style="overflow:visible;"/>
			</clipPath>
			<g class="st6">
				<path class="st7" d="M378.1,478.9c-0.5-88.9-72.6-160.7-161.4-161h-0.5l-19.1,0.1c87.1,2.6,156.6,73.6,157.2,160.9l0.1,23.3
					c0,2.1-0.8,4.1-2.3,5.6c-1,1-2.4,1.8-3.7,2.1h23.8c1.4-0.3,2.7-1,3.7-2.1c1.4-1.4,2.3-3.5,2.3-5.6L378.1,478.9z"/>
				<path class="st0" d="M272.4,370.7v-0.2c0-13.3,10.8-24,24-24h27.7c13.3,0,24,10.8,24,24v0.2c0,13.3-10.8,24-24,24h-27.7
					C283.2,394.8,272.4,383.9,272.4,370.7z"/>
				<path class="st8" d="M269.7,367.4v-0.2c0-13.3,10.8-24,24-24h27.7c13.3,0,24,10.8,24,24v0.2c0,13.3-10.8,24-24,24h-27.7
					C280.5,391.4,269.8,380.6,269.7,367.4z"/>
			</g>
		</g>
	</g>
</g>
<path class="st9" d="M156.1,333.9L156.1,333.9z"/>
<path class="st8" d="M266.7,508.8H1.1l-1.3-23.5C-0.6,440.9,16.4,398.2,47,366c27.4-28.6,62.7-45.8,100.7-49.2
	c-1,0.1-1.9,0.2-2.9,0.3c1,0.5,1.9,1.2,2.6,2.2c1.4,2.1,2,4.6,1.3,7c-3.4,13.3-5,26.9-4.9,40.6c0.1,26.7,13.3,57.2,36,83.4
	c22.8,26.3,51.7,44.5,79.3,50.4C263,501.4,265.6,504.9,266.7,508.8z"/>
<path class="st10" d="M283.9,500.9c3.4,1,5.7,4.2,5.6,7.8l0,0C289.5,505.3,287.2,502.1,283.9,500.9z"/>
<path class="st10" d="M155.7,334c-0.4,0-1,0.1-1.3,0.1C154.8,334,155.2,334,155.7,334z"/>
<path class="st10" d="M166.2,333.5c-3.4,0-6.8,0.2-10.2,0.4C159.4,333.6,162.9,333.5,166.2,333.5z"/>
<path class="st0" d="M289.6,508.8v-0.1c-0.1-3.4-2.4-6.4-5.6-7.5c-0.2-0.1-0.5-0.1-0.7-0.2c-27.9-5.9-57.2-24-80.1-50.4
	c-13.6-15.6-23.8-32.6-29.9-49.4c-4.2-11.6-6.5-23.2-6.5-34.1c0-13.7,1.6-27.3,4.9-40.6c0.5-2.4,0-4.9-1.4-7
	c-0.3-0.5-0.7-0.9-1.1-1.2c-1.3-1.2-3.1-2-5-2h-3.7c-3.9,0-7.8,0.2-11.7,0.5h-0.5c-0.5,0-1,0.1-1.5,0.1l-2.9,0.3
	c0.8,0.4,1.5,1,2.2,1.8c0.1,0.1,0.2,0.3,0.3,0.4c1.5,2.1,2.1,4.5,1.4,7c-3.4,13.3-5,26.9-4.9,40.6c0,10.1,2,20.7,5.6,31.4
	c6,17.7,16.5,35.7,30.9,52.1c23,26.3,52.1,44.5,80.1,50.4c3.6,0.9,6.3,4.1,6.4,7.8v0.1H289.6z"/>
<path class="st9" d="M289.5,508.8"/>
<path class="st9" d="M289.3,508.8h0.1"/>
<path class="st1" d="M320.2,370.4c0,7.5-6,13.5-13.5,13.5c-5.2,0-9.8-2.9-12.1-7.5c-1-1.8-1.5-3.9-1.5-6c0-7.5,6-13.5,13.5-13.5
	C314.2,356.9,320.2,363,320.2,370.4L320.2,370.4z"/>
<path class="st11" d="M318.4,367.6c0,7.5-6,13.5-13.5,13.5c-3.9,0-7.7-1.8-10.2-4.7c-1-1.8-1.5-3.9-1.5-6
	c-1.7-6.8,2.5-13.7,9.4-15.5c6.8-1.7,13.7,2.5,15.5,9.4C318.3,365.5,318.4,366.6,318.4,367.6L318.4,367.6z"/>
<path class="st3" d="M300.7,170.8c-0.1-29.2-11.3-48.6-34.5-59.3c-20.7-9.7-48.9-10.8-76.2-10.8s-55.4,1.5-76.1,11.2
	c-23,10.8-34,30.2-34,59.4l0.4,93.7c0.2,61.1,49.6,110.7,110.3,110.7h0.4c60.8-0.2,110.2-50.2,110-111.4L300.7,170.8z"/>
<path class="st4" d="M299.8,171.6c-0.1-29.2-10.5-48.6-32.2-59.3c-19.4-9.7-45.7-10.8-71.3-10.8c-2.4,0-4.8,0-7.2,0.1
	c22.1,0.4,43.9,2.5,60.7,10.8c21.6,10.7,32.2,30.1,32.2,59.3l0.3,93.7c0.2,58.2-41.3,106.1-94.3,111c2.9,0.3,5.8,0.4,8.8,0.4h0.3
	C254,376.6,300,326.5,300,265.3L299.8,171.6z"/>
<path class="st1" d="M356.5,201.9c-6.2-9.4-10.4-19.9-12.5-30.9c-1.2-1.8-4.1-1.8-6.5-0.3l-29.3,19.9c-2.5,1.8-3.3,4.4-2.1,6.3
	l14,20.6c14.2,20.8,41,27.7,59.5,15l0,0c2.5-1.8,3.3-4.4,2.1-6.3C371.7,219.9,363.1,211.6,356.5,201.9z"/>
<path class="st12" d="M192.1,334.5c-8.7,0-17.1-3.2-23.4-9.1c-2.8-2.7-2.8-7.1-0.1-9.9c2.6-2.6,6.7-2.8,9.5-0.5
	c3.8,3.5,8.8,5.4,14,5.3h0.1c5.2,0,10.2-1.9,14-5.5c2.7-2.8,7-2.9,9.9-0.2c2.9,2.7,2.9,7,0.2,9.9c-0.2,0.2-0.4,0.4-0.6,0.6
	c-6.4,5.9-14.7,9.2-23.5,9.2C192.2,334.4,192.1,334.4,192.1,334.5C192.1,334.4,192.1,334.5,192.1,334.5z"/>
<path class="st13" d="M164.1,269.8c0-6.2-5-11.1-11.2-11.1s-11.1,5-11.1,11.2s5,11.1,11.2,11.1l0,0C159.1,281,164.1,276,164.1,269.8
	z"/>
<path class="st1" d="M172.7,247c-0.7,3-3.6,5.3-6.7,5.3c-0.6,0-1.2-0.1-1.8-0.3l-26.2-6.9c-2.4-0.6-4.3-2.5-5-4.9
	c-0.4-1.2-0.4-2.4,0-3.6c1-3.7,4.8-5.9,8.5-5l0,0l26.2,6.9c1.7,0.5,3.1,1.5,4.1,2.9C172.9,243.1,173.3,245.1,172.7,247z"/>
<path class="st13" d="M242.5,269.5c0-6.2-5-11.1-11.2-11.1c-6.2,0-11.1,5-11.1,11.2s5,11.1,11.2,11.1l0,0
	c6.1,0.1,11.1-4.8,11.1-10.9C242.5,269.7,242.5,269.6,242.5,269.5z"/>
<path class="st1" d="M246.3,244.7l-26.2,7.1c-0.6,0.2-1.2,0.3-1.8,0.3c-3.1,0-5.9-2.1-6.7-5.2c0,0,0,0,0-0.1
	c-0.9-3.7,1.2-7.5,4.9-8.6l26.2-7.1c3.7-1.2,7.6,0.8,8.8,4.5s-0.8,7.6-4.5,8.8C246.7,244.6,246.5,244.6,246.3,244.7L246.3,244.7z"/>
<path class="st2" d="M171.9,245c-0.7,3-3.6,5.3-6.7,5.3c-0.6,0-1.2-0.1-1.8-0.3l-26.2-6.9c-2.7-0.2-4.6-2.5-4.4-5.2
	c0-0.5,0.2-0.9,0.4-1.4c1-3.7,4.8-5.9,8.5-5l0,0l26.2,6.9c1.7,0.5,3.1,1.5,4.1,2.9C172.2,242.6,172.2,243.8,171.9,245z"/>
<path class="st2" d="M245.5,242.7l-26.2,7.1c-0.6,0.2-1.2,0.3-1.8,0.3c-2.4,0-4.6-1.2-5.9-3.2c-0.9-3.7,1.2-7.5,4.9-8.6l26.2-7.1
	c2.9-0.8,6.1,0.4,7.7,2.9C251.3,237.9,249.1,241.7,245.5,242.7z"/>
<path class="st1" d="M1.8,223.9c-1.1,1.9-0.2,4.5,2.4,6.2l0,0c19,11.8,45.4,3.9,58.7-17.6l13.1-21.1c1.1-1.8,0.2-4.5-2.4-6.2
	l-30.1-18.6c-2.5-1.5-3.5-1.1-4.6,0.6c-1.2,8.2-6,19.5-13,31.3C19.7,208.6,11.5,217.2,1.8,223.9z"/>
<path class="st2" d="M0.5,219.7c-1.1,1.9-0.2,4.5,2.3,6.1l0,0c19,11.7,45.4,3.8,58.7-17.6l13.2-21c1.1-1.8,0.2-4.5-2.4-6.1
	l-26.5-18.5c-2.5-1.5-5.3-1.2-6.5,0.6c-1.2,8.1-7.7,19.5-14.7,31.3C18.4,204.5,10.1,213,0.5,219.7z"/>
<ellipse class="st1" cx="76.3" cy="170.1" rx="38.3" ry="39.3"/>
<ellipse class="st2" cx="74.1" cy="168" rx="36" ry="39.6"/>
<ellipse transform="matrix(0.9951 -9.897040e-02 9.897040e-02 0.9951 -15.86 31.3152)" class="st1" cx="307.7" cy="175.5" rx="39.3" ry="39.3"/>
<ellipse transform="matrix(0.9992 -3.996812e-02 3.996812e-02 0.9992 -6.8119 12.5056)" class="st2" cx="309.4" cy="176.6" rx="36.5" ry="39.4"/>
<path class="st2" d="M363.2,173.4c1.4,1.7,1.2,4.1-0.5,5.5l0,0l0,0c-13.1,10.7-36.9,3.8-52.8-15.8l-15.9-19.1
	c-1.4-1.7-1.2-4.1,0.5-5.5l0,0l20.7-17.1c1.7-1.4,4.1-1.2,5.5,0.5l0,0c4.1,10.3,9.6,19.9,16.6,28.5
	C344.8,159.5,353.4,167.2,363.2,173.4z"/>
<path class="st2" d="M357.4,197.2c-6.2-9.4-10.4-19.9-12.5-30.9c-1.2-1.8-4.1-1.8-6.5-0.3L309,185.9c-2.5,1.8-3.3,4.4-2.1,6.3
	l14,20.6c14.2,20.8,41,27.7,59.5,15l0,0c2.5-1.8,3.3-4.4,2.1-6.3C372.5,215.2,363.9,206.9,357.4,197.2z"/>
<path class="st4" d="M377.7,501.6c0,2.1-0.8,4-2.2,5.6c-0.9,1-2.2,1.8-3.7,2.1h-23c1.3-0.3,2.6-1,3.7-2.1c1.4-1.5,2.2-3.5,2.2-5.6
	l0.3-20.8c8.1-9.3,14.8-19.9,19.8-31.2c0-0.1,0-0.1,0.1-0.2c1.6,9.5,2.5,19.2,2.5,28.8L377.7,501.6z"/>
<path class="st3" d="M355.2,501.6c0,2.1-0.8,4.1-2.4,5.6c-1.1,1-2.5,1.8-4,2.1h-34.2c15.2-6.7,29-16.4,40.6-28.3V501.6z"/>
<ellipse class="st1" cx="191.3" cy="123.9" rx="127.7" ry="77"/>
<ellipse class="st2" cx="190.4" cy="115.9" rx="127.7" ry="77"/>
<line class="st14" x1="265.7" y1="508.8" x2="265.1" y2="508.8"/>
<line class="st14" x1="290" y1="508.8" x2="289.6" y2="508.8"/>
</svg>
