<?xml version="1.0" encoding="utf-8"?>
<!-- Generator: Adobe Illustrator 23.1.0, SVG Export Plug-In . SVG Version: 6.00 Build 0)  -->
<svg version="1.1" id="Layer_1" xmlns="http://www.w3.org/2000/svg" xmlns:xlink="http://www.w3.org/1999/xlink" x="0px" y="0px"
	 viewBox="0 0 383 508.7" style="enable-background:new 0 0 383 508.7;" xml:space="preserve">
<style type="text/css">
	.st0{fill:#9B3710;}
	.st1{fill:#842610;}
	.st2{fill:#F0BCA6;}
	.st3{fill:#E2A58A;}
	.st4{fill:#E27A84;}
	.st5{clip-path:url(#SVGID_2_);fill:#9E4653;}
	.st6{fill:#F8A814;}
	.st7{fill:#F8B53C;}
	.st8{fill:#F9CD45;}
	.st9{fill:#934161;}
	.st10{fill:#F4F0EF;}
	.st11{fill:#E6B09A;}
	.st12{fill:#868686;}
	.st13{fill:#4C350C;}
	.st14{fill:#825308;}
	.st15{clip-path:url(#SVGID_4_);fill:#9E4653;}
	.st16{fill:#D38537;}
	.st17{clip-path:url(#SVGID_6_);fill:#9B5A1F;}
	.st18{fill:#DDDDDD;}
	.st19{fill:#E0A632;}
</style>
<path class="st0" d="M-3735.3,1112.6c-28.6-18.6-66.5-28.7-106.7-28.7s-78,10.2-106.7,28.7c-28.6,18.6-44.4,43.1-44.4,69.1v139.8
	c0,2.4,3.1,4.4,6.8,4.4h288.3c3.8,0,6.8-2,6.8-4.4v-139.8C-3691.1,1155.7-3706.8,1131.2-3735.3,1112.6z"/>
<ellipse class="st1" cx="-3956.6" cy="1322.9" rx="38.9" ry="33.2"/>
<ellipse class="st1" cx="-3727.4" cy="1322" rx="38.9" ry="33.2"/>
<path class="st2" d="M-3953.6,1233.8c-0.1,0-0.1,0-0.2,0c-25.4,0.1-46.1,20.8-46,46.3c0,12.3,4.9,23.9,13.6,32.6
	s20.3,13.4,32.5,13.4h0.2c25.4-0.1,46.1-20.8,46-46.3S-3928.4,1233.8-3953.6,1233.8z"/>
<path class="st2" d="M-3671.6,1520.8c-0.1-39.6-15.8-76.9-44-104.9s-65.4-43.4-104.7-43.4c-0.2,0-0.3,0-0.5,0l-48.7,0.2
	c-39.6,0.1-76.9,15.8-104.9,44c-28.1,28.2-43.5,65.6-43.4,105.2l0.1,18.6c0,3.7,3.1,6.8,6.8,6.8h332.5c1.8,0,3.5-0.7,4.8-2
	s2-3,2-4.8L-3671.6,1520.8z"/>
<path class="st3" d="M-3671.6,1520.8c-0.1-39.6-15.8-76.9-44-104.9s-65.4-43.4-104.7-43.4c-0.2,0-0.3,0-0.5,0l-16.7,0.1
	c37.9,1,73.7,16.2,100.9,43.3c28.2,28.1,43.9,65.4,44,104.9l0.1,19.6c0,1.8-0.7,3.5-2,4.8s-3,2-4.8,2h20.9c1.8,0,3.5-0.7,4.8-2
	s2-3,2-4.8V1520.8z"/>
<g>
	<g>
		<path id="XMLID_2_" class="st4" d="M-3671.6,1523.6c-0.1-39.3-15.8-76.3-44-104.2c-8.4-8.3-17.7-15.5-27.5-21.5
			c-7,27.3-36.5,49.3-75,56.3c-8.6,1.6-17.6,2.4-26.9,2.4c-9.2,0-18.1-0.8-26.7-2.4c-38.3-7-67.9-28.8-75.1-55.9
			c-10,6.1-19.1,13.4-27.6,21.8c-28.1,28.1-43.5,65.2-43.4,104.5l0.1,21.3c0.1,2.4,1.4,4.6,3.3,5.9h337.3c1.3-0.3,2.4-1,3.4-1.9
			c1.4-1.4,2.1-3.2,2.1-5.1L-3671.6,1523.6z"/>
	</g>
	<g>
		<g>
			<g>
				<g>
					<g>
						<g>
							<defs>
								<path id="SVGID_1_" d="M-3671.6,1523.6c-0.1-39.3-15.8-76.3-44-104.2c-8.4-8.3-17.7-15.5-27.5-21.5
									c-7,27.3-36.5,49.3-75,56.3c-8.6,1.6-17.6,2.4-26.9,2.4c-9.2,0-18.1-0.8-26.7-2.4c-38.3-7-67.9-28.8-75.1-55.9
									c-10,6.1-19.1,13.4-27.6,21.8c-28.1,28.1-43.5,65.2-43.4,104.5l0.1,21.3c0.1,2.4,1.4,4.6,3.3,5.9h337.3
									c1.3-0.3,2.4-1,3.4-1.9c1.4-1.4,2.1-3.2,2.1-5.1L-3671.6,1523.6z"/>
							</defs>
							<clipPath id="SVGID_2_">
								<use xlink:href="#SVGID_1_"  style="overflow:visible;"/>
							</clipPath>
							<path class="st5" d="M-3670.6,1524.2c-0.1-39.3-15.8-76.3-44-104.2c-28.2-27.8-65.4-43.1-104.7-43.1c-0.2,0-0.3,0-0.5,0
								l-17.6,0.1c37.9,1,73.6,16.1,100.9,43c28.2,27.9,43.8,64.9,44,104.2l0.1,21.3c0,1.9-0.7,3.7-2.1,5.1
								c-0.9,0.9-2.1,1.6-3.4,1.9h22c1.3-0.3,2.4-1,3.4-1.9c1.4-1.4,2.1-3.2,2.1-5.1L-3670.6,1524.2z"/>
						</g>
					</g>
				</g>
			</g>
		</g>
	</g>
</g>
<g>
	<path class="st6" d="M-3871.9,1535.1c-0.1-0.3-0.1-0.5-0.1-0.7c0.1-1,1.1-1.7,2.1-1.6c10,0.5,20.5-0.7,30.9-3.6
		c8.4-2.4,16.8-5.7,25.1-10.1c14-7.5,22.8-15.3,22.9-15.4c0.8-0.7,2-0.7,2.7-0.1s0.6,1.8-0.1,2.4c-0.4,0.4-9.2,8.2-23.7,15.9
		c-8.5,4.5-17.3,8.1-25.9,10.5c-10.9,3-21.7,4.3-32.1,3.7C-3871.1,1536.2-3871.6,1535.8-3871.9,1535.1z"/>
	<path class="st7" d="M-3786.4,1522.8c0.8-0.4,1.2-1.2,1.1-2c-0.1-0.3-1.4-6.5-6.5-8.6c-2.4-1-4.7-1.2-6.6-0.7
		c-1.9,0.5-3.4,1.7-4.3,3.4c-0.8,1.5-0.9,3.1-0.5,4.5c0.1,0.2,0.2,0.4,0.3,0.6c0.8,1.6,2.4,3,4.9,3.9
		C-3792.9,1526.1-3786.6,1523-3786.4,1522.8z"/>
	<path class="st8" d="M-3797.9,1513.4c1.4-1.4,2.3-3.3,2.6-5.9c0.6-5.3-4.3-9.5-4.5-9.7c-0.6-0.5-1.5-0.5-2.4-0.1
		c-0.3,0.2-6.2,4-6.9,9.1c-0.2,1.8-0.1,3.3,0.4,4.6c0.2,0.5,0.5,1,0.7,1.4c1.1,1.4,2.7,2.4,4.7,2.4
		C-3801.3,1515.5-3799.4,1514.8-3797.9,1513.4z"/>
	<path class="st8" d="M-3801.6,1531.5c0.8-0.4,1.2-1.2,1.1-2c-0.1-0.3-1.4-6.5-6.5-8.6c-2.4-1-4.7-1.2-6.6-0.7
		c-1.9,0.5-3.4,1.7-4.3,3.4c-0.8,1.5-0.9,3.1-0.5,4.5c0.1,0.2,0.2,0.4,0.3,0.6c0.8,1.6,2.4,3,4.9,3.9
		C-3808.1,1534.8-3801.9,1531.7-3801.6,1531.5z"/>
	<path class="st7" d="M-3813.1,1522.2c1.4-1.4,2.3-3.3,2.6-5.9c0.6-5.3-4.3-9.5-4.5-9.7c-0.6-0.5-1.5-0.5-2.4-0.1
		c-0.3,0.2-6.2,4-6.9,9.1c-0.2,1.8-0.1,3.3,0.4,4.6c0.2,0.5,0.5,1,0.7,1.4c1.1,1.4,2.7,2.4,4.7,2.4
		C-3816.4,1524.2-3814.6,1523.6-3813.1,1522.2z"/>
	<path class="st7" d="M-3819.6,1538.2c0-0.3-0.2-6.8-4.7-9.6c-2.2-1.4-4.3-2-6.3-1.8s-3.7,1.2-4.9,2.7s-1.6,3.3-1.1,5.1
		c0,0.2,0.1,0.3,0.1,0.5c0.5,1.6,1.9,3.1,3.9,4.3c4.5,2.9,11.3,0.8,11.7,0.7C-3820.1,1539.8-3819.6,1539-3819.6,1538.2z"/>
	<g>
		<path class="st8" d="M-3830.4,1528.8c1.6-1.2,2.9-3,3.7-5.4c1.6-5.2-2.4-10.1-2.5-10.4c-0.5-0.6-1.4-0.8-2.3-0.5
			c-0.3,0.1-6.8,2.9-8.4,8.1c-0.7,2.3-0.8,4.3-0.2,5.8c0.1,0.1,0.1,0.3,0.2,0.4c0.7,1.6,2.2,2.7,4.2,3.2
			C-3833.9,1530.3-3832.1,1529.9-3830.4,1528.8z"/>
		<path class="st8" d="M-3840.6,1545.6c0.1-0.3,1.2-6.8-2.7-10.3c-1.8-1.7-3.8-2.7-5.8-2.8c-1.9-0.2-3.8,0.5-5.3,1.9
			c-1.4,1.4-2.3,3.1-2.1,4.9c0,0.5,0.2,1.1,0.4,1.6c0.5,1.3,1.4,2.5,2.6,3.7c3.9,3.6,10.9,2.6,11.1,2.6
			C-3841.6,1547.1-3840.9,1546.4-3840.6,1545.6z"/>
		<path class="st8" d="M-3849.4,1534.4c1.8-0.9,3.3-2.4,4.6-4.8c2.6-4.8-0.4-10.5-0.5-10.8c-0.4-0.7-1.3-1.1-2.1-0.8
			c-0.3,0.1-7.2,1.7-9.8,6.6c-1.3,2.4-1.6,4.4-1.3,6.2c0.1,0.2,0.1,0.5,0.2,0.6c0.5,1.4,1.6,2.5,3.3,3.2
			C-3853.1,1535.3-3851.3,1535.2-3849.4,1534.4z"/>
		<path class="st8" d="M-3779.3,1504.3c4.2-3.8,3.5-10.2,3.5-10.5c-0.1-0.8-0.7-1.4-1.6-1.4c-0.3,0-7.2-0.5-11.4,3.3
			c-2,1.8-3.2,3.7-3.4,5.5c-0.2,0.9-0.1,1.8,0.3,2.6c0.3,0.8,0.8,1.5,1.4,2.2c1.4,1.3,3.3,1.8,5.2,1.5
			C-3783.3,1507.2-3781.3,1506.1-3779.3,1504.3z"/>
	</g>
</g>
<path class="st9" d="M-3887.4,1377.9c1.4,1.8,1.8,4.3,1.3,6.4c-3.1,12.1-4.6,24.6-4.5,37.1c0.1,24.5,12.1,52.3,33,76.4
	c20.8,24,47.3,40.7,72.7,46.1c3.4,0.7,5.8,3.9,5.8,7.4h21.8c0-3.3-2.1-6.2-5.1-7.2c-0.2-0.1-0.5-0.1-0.6-0.2
	c-25.3-5.3-51.9-22-72.7-46.1s-32.9-52-33-76.4c0-12.6,1.5-25.1,4.5-37.1c0.5-2.3,0.1-4.6-1.3-6.4c-1.4-1.8-3.4-2.9-5.6-2.9h-3.3
	c-3.6,0-7.2,0.2-10.7,0.5c-0.2,0-0.3,0-0.5,0c-0.5,0-1,0.1-1.4,0.1c-0.9,0.1-1.7,0.2-2.6,0.3
	C-3888.9,1376.3-3888.1,1377.1-3887.4,1377.9z"/>
<path class="st10" d="M-3785.1,1542.4c-25.4-5.3-51.9-22-72.7-46.1s-32.9-52-33-76.4c-0.1-12.5,1.4-25,4.5-37.1
	c0.5-2.2,0.1-4.6-1.3-6.4c-0.6-0.8-1.4-1.5-2.4-2c0.9-0.1,1.7-0.2,2.6-0.3c-34.8,3.2-67.1,18.9-92.2,45.1
	c-27.9,29.4-43.3,68.1-43.1,109.3l0.1,21.5h243.1C-3779.3,1546.3-3781.8,1543.1-3785.1,1542.4z"/>
<path class="st2" d="M-3734.6,1233c-0.1,0-0.1,0-0.2,0c-25.4,0.1-46.1,20.8-46,46.3c0,12.3,4.9,23.9,13.6,32.6s20.3,13.4,32.5,13.4
	h0.2c25.4-0.1,46.1-20.8,46-46.3C-3688.6,1253.6-3709.4,1233-3734.6,1233z"/>
<path class="st2" d="M-3738.3,1216.2c-0.1-22.5-16.7-40.7-36.9-40.7h-135.4c-9.9,0-19.2,4.3-26.2,12c-7,7.8-10.8,18-10.8,29
	l0.2,79.5c0.2,63.7,47.1,115.4,104.7,115.4h0.4c57.7-0.2,104.5-52.2,104.3-116.1L-3738.3,1216.2z"/>
<path class="st11" d="M-3738.1,1216.2c-0.1-22.5-15.6-40.7-34.6-40.7h-16.9c19,0,34.6,18.3,34.6,40.7l0.2,79
	c0.2,60.6-39.4,110.5-89.6,115.7c2.8,0.3,5.6,0.5,8.4,0.5h0.3c54-0.2,97.9-52.2,97.8-116.1L-3738.1,1216.2z"/>
<ellipse transform="matrix(0.9333 -0.3592 0.3592 0.9333 -713.9144 -1343.954)" class="st1" cx="-3973.8" cy="1249.3" rx="28.2" ry="41.5"/>
<ellipse transform="matrix(0.9333 -0.3592 0.3592 0.9333 -712.7881 -1346.0956)" class="st0" cx="-3979" cy="1245.2" rx="28.2" ry="41.5"/>
<path class="st3" d="M-3842.9,1364.5c-8.9,0-17.4-3.3-23.9-9.3c-2.8-2.5-3-6.9-0.5-9.6c2.5-2.8,6.9-3,9.6-0.5
	c4,3.7,9.2,5.7,14.7,5.7h0.1c5.5,0,10.7-2.1,14.8-5.8c2.8-2.5,7.1-2.4,9.6,0.4s2.4,7.1-0.4,9.6
	C-3825.4,1361-3833.9,1364.4-3842.9,1364.5C-3842.9,1364.5-3842.9,1364.5-3842.9,1364.5z"/>
<path class="st0" d="M-3883.6,1253.4c8.9,0,17.4,1.6,23.9,4.6c2.8,1.3,3,3.4,0.5,4.8s-6.9,1.4-9.6,0.2c-4-1.8-9.2-2.9-14.7-2.9h-0.1
	c-5.5,0-10.7,1-14.8,2.9c-2.8,1.3-7.1,1.2-9.6-0.2s-2.4-3.5,0.4-4.8C-3901.1,1255-3892.6,1253.3-3883.6,1253.4
	C-3883.6,1253.4-3883.6,1253.4-3883.6,1253.4z"/>
<ellipse class="st1" cx="-3947.9" cy="1207.1" rx="46.2" ry="37.8"/>
<path class="st0" d="M-3798.8,1253.4c8.9,0,17.4,1.6,23.9,4.6c2.8,1.3,3,3.4,0.5,4.8s-6.9,1.4-9.6,0.2c-4-1.8-9.2-2.9-14.7-2.9h-0.1
	c-5.5,0-10.7,1-14.8,2.9c-2.8,1.3-7.1,1.2-9.6-0.2c-2.5-1.4-2.4-3.5,0.4-4.8C-3816.3,1255-3807.8,1253.3-3798.8,1253.4
	L-3798.8,1253.4z"/>
<path class="st12" d="M-3871.3,1288.9c0-6.3-5.2-11.4-11.5-11.4s-11.4,5.2-11.4,11.5s5.2,11.4,11.5,11.4
	C-3876.4,1300.4-3871.3,1295.2-3871.3,1288.9z"/>
<path class="st12" d="M-3790.3,1288.6c0-6.3-5.2-11.5-11.5-11.4c-6.3,0-11.5,5.2-11.4,11.5c0,6.3,5.2,11.5,11.5,11.4
	C-3795.4,1300.1-3790.3,1295-3790.3,1288.6z"/>
<ellipse transform="matrix(0.3592 -0.9333 0.9333 0.3592 -3552.4788 -2674.9956)" class="st1" cx="-3724.1" cy="1249.4" rx="41.5" ry="28.2"/>
<ellipse transform="matrix(0.3592 -0.9333 0.9333 0.3592 -3544.2188 -2677.1111)" class="st0" cx="-3721.6" cy="1242.3" rx="41.5" ry="28.2"/>
<ellipse class="st1" cx="-3744.1" cy="1201" rx="46.2" ry="37.8"/>
<ellipse class="st0" cx="-3745.9" cy="1183.5" rx="47.3" ry="47.3"/>
<ellipse class="st1" cx="-3767.6" cy="1175.4" rx="46.2" ry="37.8"/>
<ellipse class="st0" cx="-3767.6" cy="1168.2" rx="45.4" ry="32.9"/>
<ellipse class="st0" cx="-3952.4" cy="1194.5" rx="44.4" ry="44.4"/>
<ellipse class="st1" cx="-3919.4" cy="1169.7" rx="46.2" ry="37.8"/>
<ellipse class="st1" cx="-3848.1" cy="1154.2" rx="71.3" ry="54.3"/>
<ellipse class="st0" cx="-3841.9" cy="1141.8" rx="74.3" ry="53.6"/>
<ellipse class="st0" cx="-3919.4" cy="1162.5" rx="45.4" ry="32.9"/>
<g>
	<path class="st6" d="M-3782.1,1493c-0.2-0.1-0.4-0.3-0.5-0.5c-0.5-0.8-0.3-2,0.5-2.6c7.9-6.2,14.9-13.9,20.9-22.9
		c4.8-7.2,9-15.3,12.3-24.1c5.7-14.8,7.2-26.5,7.2-26.6c0.1-1,1-1.8,2-1.8s1.6,0.9,1.5,2c-0.1,0.5-1.5,12.2-7.4,27.6
		c-3.4,9.1-7.8,17.4-12.7,24.9c-6.2,9.4-13.6,17.5-21.8,23.9C-3780.6,1493.3-3781.4,1493.3-3782.1,1493z"/>
	<path class="st7" d="M-3725.6,1427.7c0.4-0.8,0.1-1.7-0.5-2.2c-0.2-0.2-5.4-4-10.6-2.2c-2.4,0.8-4.3,2.2-5.4,3.8s-1.5,3.5-1.1,5.4
		c0.4,1.6,1.4,3,2.6,3.7c0.2,0.1,0.4,0.2,0.6,0.3c1.7,0.7,3.8,0.6,6.3-0.3C-3728.4,1434.5-3725.6,1428-3725.6,1427.7z"/>
	<path class="st8" d="M-3740.4,1428.2c0.2-2-0.5-4.1-1.9-6.2c-3-4.3-9.5-4.3-9.8-4.3c-0.8,0-1.5,0.6-1.8,1.4
		c-0.1,0.3-2.1,7.1,0.8,11.4c1,1.4,2.1,2.5,3.3,3.2c0.5,0.3,1,0.5,1.5,0.6c1.7,0.5,3.6,0,5.2-1.3
		C-3741.6,1431.8-3740.6,1430.1-3740.4,1428.2z"/>
	<path class="st8" d="M-3731.3,1444.2c0.4-0.8,0.1-1.7-0.5-2.2c-0.2-0.2-5.4-4-10.6-2.2c-2.4,0.8-4.3,2.2-5.4,3.8s-1.5,3.5-1.1,5.4
		c0.4,1.6,1.4,3,2.6,3.7c0.2,0.1,0.4,0.2,0.6,0.3c1.7,0.7,3.8,0.6,6.3-0.3C-3734.1,1451-3731.4,1444.5-3731.3,1444.2z"/>
	<path class="st7" d="M-3746.1,1444.7c0.2-2-0.5-4.1-1.9-6.2c-3-4.3-9.5-4.3-9.8-4.3c-0.8,0-1.5,0.6-1.8,1.4
		c-0.1,0.3-2.1,7.1,0.8,11.4c1,1.4,2.1,2.5,3.3,3.2c0.5,0.3,1,0.5,1.5,0.6c1.7,0.5,3.6,0,5.2-1.3
		C-3747.4,1448.3-3746.4,1446.7-3746.1,1444.7z"/>
	<path class="st7" d="M-3740.4,1461.1c-0.2-0.2-4.5-5-9.9-4.2c-2.5,0.4-4.5,1.4-6,2.8c-1.4,1.4-2.1,3.3-2,5.3s1,3.6,2.4,4.6
		c0.1,0.1,0.3,0.2,0.4,0.2c1.4,0.8,3.4,1.1,5.8,0.7c5.3-0.8,9.1-6.9,9.2-7.1C-3739.9,1462.6-3739.9,1461.7-3740.4,1461.1z"/>
	<g>
		<path class="st8" d="M-3754.9,1461.1c0.5-2,0.3-4.2-0.8-6.5c-2.1-5-8.5-6.2-8.8-6.2c-0.8-0.2-1.6,0.3-2,1.1
			c-0.1,0.3-3.3,6.7-1.1,11.6c0.9,2.2,2.2,3.7,3.6,4.5c0.1,0.1,0.3,0.1,0.4,0.2c1.6,0.7,3.4,0.6,5.2-0.3
			C-3756.6,1464.5-3755.4,1463-3754.9,1461.1z"/>
		<path class="st8" d="M-3751.6,1480.6c-0.2-0.3-3.5-5.9-8.9-6.1c-2.5-0.1-4.6,0.5-6.2,1.6c-1.5,1.2-2.5,2.9-2.8,4.9
			s0.4,3.8,1.6,5.1c0.4,0.4,0.8,0.7,1.4,1c1.2,0.6,2.6,1,4.4,1.1c5.3,0.2,10-5.2,10.1-5.3
			C-3751.4,1482.2-3751.3,1481.2-3751.6,1480.6z"/>
		<path class="st8" d="M-3765.6,1477.7c0.8-1.8,0.9-4.1,0.4-6.7c-1.2-5.3-7.2-7.7-7.4-7.8c-0.7-0.3-1.6,0-2.1,0.7
			c-0.2,0.3-4.3,6.1-3.1,11.4c0.5,2.5,1.6,4.4,3.1,5.5c0.2,0.1,0.4,0.3,0.5,0.4c1.4,0.7,2.9,0.8,4.5,0.3
			C-3767.8,1480.9-3766.4,1479.6-3765.6,1477.7z"/>
		<path class="st8" d="M-3732.4,1409c0.6-5.6-4.1-10-4.3-10.2c-0.5-0.5-1.4-0.5-2.2-0.1c-0.3,0.2-5.9,4.3-6.4,10
			c-0.3,2.7,0.1,4.9,1.1,6.4c0.5,0.8,1.2,1.4,1.9,1.8c0.7,0.5,1.6,0.6,2.5,0.6c1.9,0.1,3.6-0.7,4.9-2.2
			C-3733.4,1413.8-3732.6,1411.7-3732.4,1409z"/>
	</g>
</g>
<circle class="st13" cx="-3783.6" cy="1491.5" r="15.7"/>
<circle class="st14" cx="-3783.9" cy="1491.3" r="9.6"/>
<path class="st0" d="M-3735.3,1112.6c-28.6-18.6-66.5-28.7-106.7-28.7s-78,10.2-106.7,28.7c-28.6,18.6-44.4,43.1-44.4,69.1v139.8
	c0,2.4,3.1,4.4,6.8,4.4h288.3c3.8,0,6.8-2,6.8-4.4v-139.8C-3691.1,1155.7-3706.8,1131.2-3735.3,1112.6z"/>
<ellipse class="st1" cx="-3956.6" cy="1322.9" rx="38.9" ry="33.2"/>
<ellipse class="st1" cx="-3727.4" cy="1322" rx="38.9" ry="33.2"/>
<path class="st2" d="M-3953.6,1233.8c-0.1,0-0.1,0-0.2,0c-25.4,0.1-46.1,20.8-46,46.3c0,12.3,4.9,23.9,13.6,32.6
	s20.3,13.4,32.5,13.4h0.2c25.4-0.1,46.1-20.8,46-46.3S-3928.4,1233.8-3953.6,1233.8z"/>
<path class="st2" d="M-3671.6,1520.8c-0.1-39.6-15.8-76.9-44-104.9s-65.4-43.4-104.7-43.4c-0.2,0-0.3,0-0.5,0l-48.7,0.2
	c-39.6,0.1-76.9,15.8-104.9,44c-28.1,28.2-43.5,65.6-43.4,105.2l0.1,18.6c0,3.7,3.1,6.8,6.8,6.8h332.5c1.8,0,3.5-0.7,4.8-2
	s2-3,2-4.8L-3671.6,1520.8z"/>
<path class="st3" d="M-3671.6,1520.8c-0.1-39.6-15.8-76.9-44-104.9s-65.4-43.4-104.7-43.4c-0.2,0-0.3,0-0.5,0l-16.7,0.1
	c37.9,1,73.7,16.2,100.9,43.3c28.2,28.1,43.9,65.4,44,104.9l0.1,19.6c0,1.8-0.7,3.5-2,4.8s-3,2-4.8,2h20.9c1.8,0,3.5-0.7,4.8-2
	s2-3,2-4.8V1520.8z"/>
<g>
	<g>
		<path id="XMLID_1_" class="st4" d="M-3671.6,1523.6c-0.1-39.3-15.8-76.3-44-104.2c-8.4-8.3-17.7-15.5-27.5-21.5
			c-7,27.3-36.5,49.3-75,56.3c-8.6,1.6-17.6,2.4-26.9,2.4c-9.2,0-18.1-0.8-26.7-2.4c-38.3-7-67.9-28.8-75.1-55.9
			c-10,6.1-19.1,13.4-27.6,21.8c-28.1,28.1-43.5,65.2-43.4,104.5l0.1,21.3c0.1,2.4,1.4,4.6,3.3,5.9h337.3c1.3-0.3,2.4-1,3.4-1.9
			c1.4-1.4,2.1-3.2,2.1-5.1L-3671.6,1523.6z"/>
	</g>
	<g>
		<g>
			<g>
				<g>
					<g>
						<g>
							<defs>
								<path id="SVGID_3_" d="M-3671.6,1523.6c-0.1-39.3-15.8-76.3-44-104.2c-8.4-8.3-17.7-15.5-27.5-21.5
									c-7,27.3-36.5,49.3-75,56.3c-8.6,1.6-17.6,2.4-26.9,2.4c-9.2,0-18.1-0.8-26.7-2.4c-38.3-7-67.9-28.8-75.1-55.9
									c-10,6.1-19.1,13.4-27.6,21.8c-28.1,28.1-43.5,65.2-43.4,104.5l0.1,21.3c0.1,2.4,1.4,4.6,3.3,5.9h337.3
									c1.3-0.3,2.4-1,3.4-1.9c1.4-1.4,2.1-3.2,2.1-5.1L-3671.6,1523.6z"/>
							</defs>
							<clipPath id="SVGID_4_">
								<use xlink:href="#SVGID_3_"  style="overflow:visible;"/>
							</clipPath>
							<path class="st15" d="M-3670.6,1524.2c-0.1-39.3-15.8-76.3-44-104.2c-28.2-27.8-65.4-43.1-104.7-43.1c-0.2,0-0.3,0-0.5,0
								l-17.6,0.1c37.9,1,73.6,16.1,100.9,43c28.2,27.9,43.8,64.9,44,104.2l0.1,21.3c0,1.9-0.7,3.7-2.1,5.1
								c-0.9,0.9-2.1,1.6-3.4,1.9h22c1.3-0.3,2.4-1,3.4-1.9c1.4-1.4,2.1-3.2,2.1-5.1L-3670.6,1524.2z"/>
						</g>
					</g>
				</g>
			</g>
		</g>
	</g>
</g>
<g>
	<path class="st6" d="M-3871.9,1535.1c-0.1-0.3-0.1-0.5-0.1-0.7c0.1-1,1.1-1.7,2.1-1.6c10,0.5,20.5-0.7,30.9-3.6
		c8.4-2.4,16.8-5.7,25.1-10.1c14-7.5,22.8-15.3,22.9-15.4c0.8-0.7,2-0.7,2.7-0.1s0.6,1.8-0.1,2.4c-0.4,0.4-9.2,8.2-23.7,15.9
		c-8.5,4.5-17.3,8.1-25.9,10.5c-10.9,3-21.7,4.3-32.1,3.7C-3871.1,1536.2-3871.6,1535.8-3871.9,1535.1z"/>
	<path class="st7" d="M-3786.4,1522.8c0.8-0.4,1.2-1.2,1.1-2c-0.1-0.3-1.4-6.5-6.5-8.6c-2.4-1-4.7-1.2-6.6-0.7
		c-1.9,0.5-3.4,1.7-4.3,3.4c-0.8,1.5-0.9,3.1-0.5,4.5c0.1,0.2,0.2,0.4,0.3,0.6c0.8,1.6,2.4,3,4.9,3.9
		C-3792.9,1526.1-3786.6,1523-3786.4,1522.8z"/>
	<path class="st8" d="M-3797.9,1513.4c1.4-1.4,2.3-3.3,2.6-5.9c0.6-5.3-4.3-9.5-4.5-9.7c-0.6-0.5-1.5-0.5-2.4-0.1
		c-0.3,0.2-6.2,4-6.9,9.1c-0.2,1.8-0.1,3.3,0.4,4.6c0.2,0.5,0.5,1,0.7,1.4c1.1,1.4,2.7,2.4,4.7,2.4
		C-3801.3,1515.5-3799.4,1514.8-3797.9,1513.4z"/>
	<path class="st8" d="M-3801.6,1531.5c0.8-0.4,1.2-1.2,1.1-2c-0.1-0.3-1.4-6.5-6.5-8.6c-2.4-1-4.7-1.2-6.6-0.7
		c-1.9,0.5-3.4,1.7-4.3,3.4c-0.8,1.5-0.9,3.1-0.5,4.5c0.1,0.2,0.2,0.4,0.3,0.6c0.8,1.6,2.4,3,4.9,3.9
		C-3808.1,1534.8-3801.9,1531.7-3801.6,1531.5z"/>
	<path class="st7" d="M-3813.1,1522.2c1.4-1.4,2.3-3.3,2.6-5.9c0.6-5.3-4.3-9.5-4.5-9.7c-0.6-0.5-1.5-0.5-2.4-0.1
		c-0.3,0.2-6.2,4-6.9,9.1c-0.2,1.8-0.1,3.3,0.4,4.6c0.2,0.5,0.5,1,0.7,1.4c1.1,1.4,2.7,2.4,4.7,2.4
		C-3816.4,1524.2-3814.6,1523.6-3813.1,1522.2z"/>
	<path class="st7" d="M-3819.6,1538.2c0-0.3-0.2-6.8-4.7-9.6c-2.2-1.4-4.3-2-6.3-1.8s-3.7,1.2-4.9,2.7s-1.6,3.3-1.1,5.1
		c0,0.2,0.1,0.3,0.1,0.5c0.5,1.6,1.9,3.1,3.9,4.3c4.5,2.9,11.3,0.8,11.7,0.7C-3820.1,1539.8-3819.6,1539-3819.6,1538.2z"/>
	<g>
		<path class="st8" d="M-3830.4,1528.8c1.6-1.2,2.9-3,3.7-5.4c1.6-5.2-2.4-10.1-2.5-10.4c-0.5-0.6-1.4-0.8-2.3-0.5
			c-0.3,0.1-6.8,2.9-8.4,8.1c-0.7,2.3-0.8,4.3-0.2,5.8c0.1,0.1,0.1,0.3,0.2,0.4c0.7,1.6,2.2,2.7,4.2,3.2
			C-3833.9,1530.3-3832.1,1529.9-3830.4,1528.8z"/>
		<path class="st8" d="M-3840.6,1545.6c0.1-0.3,1.2-6.8-2.7-10.3c-1.8-1.7-3.8-2.7-5.8-2.8c-1.9-0.2-3.8,0.5-5.3,1.9
			c-1.4,1.4-2.3,3.1-2.1,4.9c0,0.5,0.2,1.1,0.4,1.6c0.5,1.3,1.4,2.5,2.6,3.7c3.9,3.6,10.9,2.6,11.1,2.6
			C-3841.6,1547.1-3840.9,1546.4-3840.6,1545.6z"/>
		<path class="st8" d="M-3849.4,1534.4c1.8-0.9,3.3-2.4,4.6-4.8c2.6-4.8-0.4-10.5-0.5-10.8c-0.4-0.7-1.3-1.1-2.1-0.8
			c-0.3,0.1-7.2,1.7-9.8,6.6c-1.3,2.4-1.6,4.4-1.3,6.2c0.1,0.2,0.1,0.5,0.2,0.6c0.5,1.4,1.6,2.5,3.3,3.2
			C-3853.1,1535.3-3851.3,1535.2-3849.4,1534.4z"/>
		<path class="st8" d="M-3779.3,1504.3c4.2-3.8,3.5-10.2,3.5-10.5c-0.1-0.8-0.7-1.4-1.6-1.4c-0.3,0-7.2-0.5-11.4,3.3
			c-2,1.8-3.2,3.7-3.4,5.5c-0.2,0.9-0.1,1.8,0.3,2.6c0.3,0.8,0.8,1.5,1.4,2.2c1.4,1.3,3.3,1.8,5.2,1.5
			C-3783.3,1507.2-3781.3,1506.1-3779.3,1504.3z"/>
	</g>
</g>
<path class="st9" d="M-3887.4,1377.9c1.4,1.8,1.8,4.3,1.3,6.4c-3.1,12.1-4.6,24.6-4.5,37.1c0.1,24.5,12.1,52.3,33,76.4
	c20.8,24,47.3,40.7,72.7,46.1c3.4,0.7,5.8,3.9,5.8,7.4h21.8c0-3.3-2.1-6.2-5.1-7.2c-0.2-0.1-0.5-0.1-0.6-0.2
	c-25.3-5.3-51.9-22-72.7-46.1s-32.9-52-33-76.4c0-12.6,1.5-25.1,4.5-37.1c0.5-2.3,0.1-4.6-1.3-6.4c-1.4-1.8-3.4-2.9-5.6-2.9h-3.3
	c-3.6,0-7.2,0.2-10.7,0.5c-0.2,0-0.3,0-0.5,0c-0.5,0-1,0.1-1.4,0.1c-0.9,0.1-1.7,0.2-2.6,0.3
	C-3888.9,1376.3-3888.1,1377.1-3887.4,1377.9z"/>
<path class="st10" d="M-3785.1,1542.4c-25.4-5.3-51.9-22-72.7-46.1s-32.9-52-33-76.4c-0.1-12.5,1.4-25,4.5-37.1
	c0.5-2.2,0.1-4.6-1.3-6.4c-0.6-0.8-1.4-1.5-2.4-2c0.9-0.1,1.7-0.2,2.6-0.3c-34.8,3.2-67.1,18.9-92.2,45.1
	c-27.9,29.4-43.3,68.1-43.1,109.3l0.1,21.5h243.1C-3779.3,1546.3-3781.8,1543.1-3785.1,1542.4z"/>
<path class="st2" d="M-3734.6,1233c-0.1,0-0.1,0-0.2,0c-25.4,0.1-46.1,20.8-46,46.3c0,12.3,4.9,23.9,13.6,32.6s20.3,13.4,32.5,13.4
	h0.2c25.4-0.1,46.1-20.8,46-46.3C-3688.6,1253.6-3709.4,1233-3734.6,1233z"/>
<path class="st2" d="M-3738.3,1216.2c-0.1-22.5-16.7-40.7-36.9-40.7h-135.4c-9.9,0-19.2,4.3-26.2,12c-7,7.8-10.8,18-10.8,29
	l0.2,79.5c0.2,63.7,47.1,115.4,104.7,115.4h0.4c57.7-0.2,104.5-52.2,104.3-116.1L-3738.3,1216.2z"/>
<path class="st11" d="M-3738.1,1216.2c-0.1-22.5-15.6-40.7-34.6-40.7h-16.9c19,0,34.6,18.3,34.6,40.7l0.2,79
	c0.2,60.6-39.4,110.5-89.6,115.7c2.8,0.3,5.6,0.5,8.4,0.5h0.3c54-0.2,97.9-52.2,97.8-116.1L-3738.1,1216.2z"/>
<ellipse transform="matrix(0.9333 -0.3592 0.3592 0.9333 -713.9144 -1343.954)" class="st1" cx="-3973.8" cy="1249.3" rx="28.2" ry="41.5"/>
<ellipse transform="matrix(0.9333 -0.3592 0.3592 0.9333 -712.7881 -1346.0956)" class="st0" cx="-3979" cy="1245.2" rx="28.2" ry="41.5"/>
<path class="st3" d="M-3842.9,1364.5c-8.9,0-17.4-3.3-23.9-9.3c-2.8-2.5-3-6.9-0.5-9.6c2.5-2.8,6.9-3,9.6-0.5
	c4,3.7,9.2,5.7,14.7,5.7h0.1c5.5,0,10.7-2.1,14.8-5.8c2.8-2.5,7.1-2.4,9.6,0.4s2.4,7.1-0.4,9.6
	C-3825.4,1361-3833.9,1364.4-3842.9,1364.5C-3842.9,1364.5-3842.9,1364.5-3842.9,1364.5z"/>
<path class="st0" d="M-3883.6,1253.4c8.9,0,17.4,1.6,23.9,4.6c2.8,1.3,3,3.4,0.5,4.8s-6.9,1.4-9.6,0.2c-4-1.8-9.2-2.9-14.7-2.9h-0.1
	c-5.5,0-10.7,1-14.8,2.9c-2.8,1.3-7.1,1.2-9.6-0.2s-2.4-3.5,0.4-4.8C-3901.1,1255-3892.6,1253.3-3883.6,1253.4
	C-3883.6,1253.4-3883.6,1253.4-3883.6,1253.4z"/>
<ellipse class="st1" cx="-3947.9" cy="1207.1" rx="46.2" ry="37.8"/>
<path class="st0" d="M-3798.8,1253.4c8.9,0,17.4,1.6,23.9,4.6c2.8,1.3,3,3.4,0.5,4.8s-6.9,1.4-9.6,0.2c-4-1.8-9.2-2.9-14.7-2.9h-0.1
	c-5.5,0-10.7,1-14.8,2.9c-2.8,1.3-7.1,1.2-9.6-0.2c-2.5-1.4-2.4-3.5,0.4-4.8C-3816.3,1255-3807.8,1253.3-3798.8,1253.4
	L-3798.8,1253.4z"/>
<path class="st12" d="M-3871.3,1288.9c0-6.3-5.2-11.4-11.5-11.4s-11.4,5.2-11.4,11.5s5.2,11.4,11.5,11.4
	C-3876.4,1300.4-3871.3,1295.2-3871.3,1288.9z"/>
<path class="st12" d="M-3790.3,1288.6c0-6.3-5.2-11.5-11.5-11.4c-6.3,0-11.5,5.2-11.4,11.5c0,6.3,5.2,11.5,11.5,11.4
	C-3795.4,1300.1-3790.3,1295-3790.3,1288.6z"/>
<ellipse transform="matrix(0.3592 -0.9333 0.9333 0.3592 -3552.4788 -2674.9956)" class="st1" cx="-3724.1" cy="1249.4" rx="41.5" ry="28.2"/>
<ellipse transform="matrix(0.3592 -0.9333 0.9333 0.3592 -3544.2188 -2677.1111)" class="st0" cx="-3721.6" cy="1242.3" rx="41.5" ry="28.2"/>
<ellipse class="st1" cx="-3744.1" cy="1201" rx="46.2" ry="37.8"/>
<ellipse class="st0" cx="-3745.9" cy="1183.5" rx="47.3" ry="47.3"/>
<ellipse class="st1" cx="-3767.6" cy="1175.4" rx="46.2" ry="37.8"/>
<ellipse class="st0" cx="-3767.6" cy="1168.2" rx="45.4" ry="32.9"/>
<ellipse class="st0" cx="-3952.4" cy="1194.5" rx="44.4" ry="44.4"/>
<ellipse class="st1" cx="-3919.4" cy="1169.7" rx="46.2" ry="37.8"/>
<ellipse class="st1" cx="-3848.1" cy="1154.2" rx="71.3" ry="54.3"/>
<ellipse class="st0" cx="-3841.9" cy="1141.8" rx="74.3" ry="53.6"/>
<ellipse class="st0" cx="-3919.4" cy="1162.5" rx="45.4" ry="32.9"/>
<g>
	<path class="st6" d="M-3782.1,1493c-0.2-0.1-0.4-0.3-0.5-0.5c-0.5-0.8-0.3-2,0.5-2.6c7.9-6.2,14.9-13.9,20.9-22.9
		c4.8-7.2,9-15.3,12.3-24.1c5.7-14.8,7.2-26.5,7.2-26.6c0.1-1,1-1.8,2-1.8s1.6,0.9,1.5,2c-0.1,0.5-1.5,12.2-7.4,27.6
		c-3.4,9.1-7.8,17.4-12.7,24.9c-6.2,9.4-13.6,17.5-21.8,23.9C-3780.6,1493.3-3781.4,1493.3-3782.1,1493z"/>
	<path class="st7" d="M-3725.6,1427.7c0.4-0.8,0.1-1.7-0.5-2.2c-0.2-0.2-5.4-4-10.6-2.2c-2.4,0.8-4.3,2.2-5.4,3.8s-1.5,3.5-1.1,5.4
		c0.4,1.6,1.4,3,2.6,3.7c0.2,0.1,0.4,0.2,0.6,0.3c1.7,0.7,3.8,0.6,6.3-0.3C-3728.4,1434.5-3725.6,1428-3725.6,1427.7z"/>
	<path class="st8" d="M-3740.4,1428.2c0.2-2-0.5-4.1-1.9-6.2c-3-4.3-9.5-4.3-9.8-4.3c-0.8,0-1.5,0.6-1.8,1.4
		c-0.1,0.3-2.1,7.1,0.8,11.4c1,1.4,2.1,2.5,3.3,3.2c0.5,0.3,1,0.5,1.5,0.6c1.7,0.5,3.6,0,5.2-1.3
		C-3741.6,1431.8-3740.6,1430.1-3740.4,1428.2z"/>
	<path class="st8" d="M-3731.3,1444.2c0.4-0.8,0.1-1.7-0.5-2.2c-0.2-0.2-5.4-4-10.6-2.2c-2.4,0.8-4.3,2.2-5.4,3.8s-1.5,3.5-1.1,5.4
		c0.4,1.6,1.4,3,2.6,3.7c0.2,0.1,0.4,0.2,0.6,0.3c1.7,0.7,3.8,0.6,6.3-0.3C-3734.1,1451-3731.4,1444.5-3731.3,1444.2z"/>
	<path class="st7" d="M-3746.1,1444.7c0.2-2-0.5-4.1-1.9-6.2c-3-4.3-9.5-4.3-9.8-4.3c-0.8,0-1.5,0.6-1.8,1.4
		c-0.1,0.3-2.1,7.1,0.8,11.4c1,1.4,2.1,2.5,3.3,3.2c0.5,0.3,1,0.5,1.5,0.6c1.7,0.5,3.6,0,5.2-1.3
		C-3747.4,1448.3-3746.4,1446.7-3746.1,1444.7z"/>
	<path class="st7" d="M-3740.4,1461.1c-0.2-0.2-4.5-5-9.9-4.2c-2.5,0.4-4.5,1.4-6,2.8c-1.4,1.4-2.1,3.3-2,5.3s1,3.6,2.4,4.6
		c0.1,0.1,0.3,0.2,0.4,0.2c1.4,0.8,3.4,1.1,5.8,0.7c5.3-0.8,9.1-6.9,9.2-7.1C-3739.9,1462.6-3739.9,1461.7-3740.4,1461.1z"/>
	<g>
		<path class="st8" d="M-3754.9,1461.1c0.5-2,0.3-4.2-0.8-6.5c-2.1-5-8.5-6.2-8.8-6.2c-0.8-0.2-1.6,0.3-2,1.1
			c-0.1,0.3-3.3,6.7-1.1,11.6c0.9,2.2,2.2,3.7,3.6,4.5c0.1,0.1,0.3,0.1,0.4,0.2c1.6,0.7,3.4,0.6,5.2-0.3
			C-3756.6,1464.5-3755.4,1463-3754.9,1461.1z"/>
		<path class="st8" d="M-3751.6,1480.6c-0.2-0.3-3.5-5.9-8.9-6.1c-2.5-0.1-4.6,0.5-6.2,1.6c-1.5,1.2-2.5,2.9-2.8,4.9
			s0.4,3.8,1.6,5.1c0.4,0.4,0.8,0.7,1.4,1c1.2,0.6,2.6,1,4.4,1.1c5.3,0.2,10-5.2,10.1-5.3
			C-3751.4,1482.2-3751.3,1481.2-3751.6,1480.6z"/>
		<path class="st8" d="M-3765.6,1477.7c0.8-1.8,0.9-4.1,0.4-6.7c-1.2-5.3-7.2-7.7-7.4-7.8c-0.7-0.3-1.6,0-2.1,0.7
			c-0.2,0.3-4.3,6.1-3.1,11.4c0.5,2.5,1.6,4.4,3.1,5.5c0.2,0.1,0.4,0.3,0.5,0.4c1.4,0.7,2.9,0.8,4.5,0.3
			C-3767.8,1480.9-3766.4,1479.6-3765.6,1477.7z"/>
		<path class="st8" d="M-3732.4,1409c0.6-5.6-4.1-10-4.3-10.2c-0.5-0.5-1.4-0.5-2.2-0.1c-0.3,0.2-5.9,4.3-6.4,10
			c-0.3,2.7,0.1,4.9,1.1,6.4c0.5,0.8,1.2,1.4,1.9,1.8c0.7,0.5,1.6,0.6,2.5,0.6c1.9,0.1,3.6-0.7,4.9-2.2
			C-3733.4,1413.8-3732.6,1411.7-3732.4,1409z"/>
	</g>
</g>
<circle class="st13" cx="-3783.6" cy="1491.5" r="15.7"/>
<circle class="st14" cx="-3783.9" cy="1491.3" r="9.6"/>
<g>
	<path class="st8" d="M313.4,51.6C282.1,20.4,240.9,3.2,196.9,3.2S111.8,20.4,80.6,51.6S32.2,124.1,32.2,168v235.3
		c0,4.1,3.4,7.4,7.4,7.4h314.7c4.1,0,7.4-3.4,7.4-7.4V167.9C361.8,124.1,344.5,82.7,313.4,51.6z"/>
	<path class="st2" d="M78.9,166.7c-0.1,0-0.1,0-0.2,0c-27.8,0.1-50.3,22.7-50.2,50.5c0,13.4,5.3,26.1,14.8,35.6s22.1,14.6,35.5,14.6
		H79c27.8-0.1,50.3-22.7,50.2-50.5C129.3,189.1,106.7,166.7,78.9,166.7z"/>
	<path class="st2" d="M382.9,479.8c-0.1-43.2-17.2-83.9-48-114.5c-30.7-30.5-71.3-47.3-114.3-47.3c-0.2,0-0.3,0-0.5,0l-53.1,0.2
		c-43.2,0.1-83.9,17.2-114.5,48S5.1,437.8,5.2,481l0.1,20.3c0,4.1,3.4,7.4,7.4,7.4h362.9c2,0,3.9-0.8,5.2-2.2
		c1.4-1.4,2.2-3.3,2.2-5.2v-21.5L382.9,479.8L382.9,479.8z"/>
	<path class="st3" d="M382.9,479.8c-0.1-43.2-17.2-83.9-48-114.5c-30.7-30.5-71.3-47.3-114.3-47.3c-0.2,0-0.3,0-0.5,0l-18.2,0.1
		c41.4,1.1,80.4,17.7,110.1,47.2c30.8,30.6,47.9,71.3,48,114.5l0.1,21.3c0,2-0.8,3.9-2.2,5.2c-1.4,1.4-3.3,2.2-5.2,2.2h22.8
		c2,0,3.9-0.8,5.2-2.2s2.2-3.3,2.2-5.2V479.8z"/>
	<g>
		<g>
			<path id="XMLID_50_" class="st16" d="M382.9,478.7c-0.1-42.9-17.2-83.3-48-113.7c-9.2-9.1-19.3-16.9-30-23.5
				c-7.6,29.8-39.8,53.7-81.8,61.4c-9.4,1.8-19.2,2.7-29.3,2.7s-19.8-0.9-29.1-2.6c-41.8-7.6-74.1-31.4-81.9-61
				c-10.9,6.6-20.8,14.6-30.1,23.8C22,396.4,5.2,436.9,5.3,479.8L5.4,503c0.1,2.7,1.5,5,3.6,6.4h368.1c1.4-0.3,2.7-1.1,3.8-2.1
				c1.5-1.5,2.3-3.5,2.3-5.5L382.9,478.7z"/>
		</g>
		<g>
			<g>
				<g>
					<g>
						<g>
							<g>
								<defs>
									<path id="SVGID_5_" d="M382.9,478.7c-0.1-42.9-17.2-83.3-48-113.7c-9.2-9.1-19.3-16.9-30-23.5
										c-7.6,29.8-39.8,53.7-81.8,61.4c-9.4,1.8-19.2,2.7-29.3,2.7s-19.8-0.9-29.1-2.6c-41.8-7.6-74.1-31.4-81.9-61
										c-10.9,6.6-20.8,14.6-30.1,23.8C22,396.4,5.2,436.9,5.3,479.8L5.4,503c0.1,2.7,1.5,5,3.6,6.4h368.1
										c1.4-0.3,2.7-1.1,3.8-2.1c1.5-1.5,2.3-3.5,2.3-5.5L382.9,478.7z"/>
								</defs>
								<clipPath id="SVGID_6_">
									<use xlink:href="#SVGID_5_"  style="overflow:visible;"/>
								</clipPath>
								<path class="st17" d="M384,479.4c-0.1-42.9-17.2-83.3-48-113.7c-30.7-30.3-71.3-47-114.3-47c-0.2,0-0.3,0-0.5,0l-19.2,0.1
									c41.4,1.1,80.3,17.6,110.1,46.9c30.8,30.4,47.8,70.8,48,113.7l0.1,23.2c0,2.1-0.8,4.1-2.3,5.5c-1,1-2.3,1.8-3.8,2.1h24
									c1.4-0.3,2.7-1.1,3.8-2.1c1.5-1.5,2.3-3.5,2.3-5.5L384,479.4z"/>
							</g>
						</g>
					</g>
				</g>
			</g>
		</g>
	</g>
	<g>
		<path class="st6" d="M173.9,504.8c-0.1-0.2-0.2-0.5-0.2-0.8c-0.1-1.1,0.8-2.1,1.9-2.2c10.9-1.5,21.7-4.9,32.3-10.2
			c8.5-4.2,16.8-9.6,24.8-16c13.5-10.9,21.2-21,21.3-21.1c0.7-0.9,2-1.2,2.9-0.6s1.1,1.8,0.4,2.7c-0.3,0.4-8.2,10.8-22.1,22
			c-8.2,6.6-16.8,12.2-25.6,16.6c-11.1,5.4-22.3,9.1-33.7,10.7C175.1,505.7,174.3,505.4,173.9,504.8z"/>
		<path class="st7" d="M263,474c0.8-0.6,1.1-1.6,0.7-2.4c-0.1-0.3-3-6.7-8.8-7.8c-2.8-0.6-5.2-0.4-7.2,0.6c-2,0.9-3.4,2.6-4,4.5
			c-0.5,1.8-0.4,3.5,0.5,4.9c0.1,0.2,0.3,0.4,0.4,0.6c1.2,1.6,3.3,2.7,6.1,3.2C256.5,478.8,262.8,474.2,263,474z"/>
		<path class="st8" d="M248.6,466.3c1.3-1.8,1.8-4.1,1.6-6.8c-0.4-5.7-6.6-9.3-6.9-9.5c-0.8-0.4-1.8-0.3-2.5,0.4
			c-0.2,0.2-5.8,5.5-5.5,11.3c0.1,2,0.6,3.6,1.4,4.8c0.3,0.5,0.7,1,1.1,1.4c1.4,1.4,3.4,1.9,5.5,1.6
			C245.6,469.2,247.4,468.1,248.6,466.3z"/>
		<path class="st8" d="M248.6,486.5c0.8-0.6,1.1-1.6,0.7-2.4c-0.1-0.3-3-6.7-8.8-7.8c-2.8-0.6-5.2-0.4-7.2,0.6c-2,0.9-3.4,2.6-4,4.5
			c-0.6,1.8-0.4,3.5,0.5,4.9c0.1,0.2,0.3,0.4,0.4,0.6c1.2,1.6,3.3,2.7,6.1,3.2C242.1,491.3,248.3,486.7,248.6,486.5z"/>
		<path class="st7" d="M234.1,478.7c1.3-1.8,1.8-4.1,1.6-6.8c-0.4-5.7-6.6-9.3-6.9-9.5c-0.8-0.4-1.8-0.3-2.5,0.4
			c-0.2,0.2-5.8,5.5-5.5,11.3c0.1,2,0.6,3.6,1.4,4.8c0.3,0.5,0.7,1,1.1,1.4c1.4,1.4,3.4,1.9,5.5,1.6
			C231.1,481.7,232.9,480.5,234.1,478.7z"/>
		<path class="st7" d="M230.6,497.3c-0.1-0.3-1.6-7.2-7-9.3c-2.7-1-5-1.3-7.1-0.6c-2.1,0.6-3.8,2-4.7,4c-1,1.9-1,4-0.2,5.7
			c0.1,0.1,0.1,0.3,0.2,0.4c1,1.6,2.7,2.9,5,3.9c5.4,2.2,12.3-1.5,12.6-1.7C230.3,499.1,230.8,498.2,230.6,497.3z"/>
		<g>
			<path class="st8" d="M217.1,489.4c1.6-1.6,2.5-3.8,2.9-6.6c0.7-5.8-4.6-10.4-4.8-10.6c-0.7-0.6-1.7-0.6-2.5-0.1
				c-0.3,0.2-6.7,4.5-7.4,10.4c-0.3,2.6,0,4.6,1,6.3c0.1,0.1,0.2,0.3,0.3,0.4c1.1,1.6,3,2.5,5,2.6
				C213.4,491.8,215.6,491,217.1,489.4z"/>
			<path class="st8" d="M209.4,509.6c0-0.3-0.2-7.5-5-10.6c-2.4-1.5-4.6-2.1-6.8-1.9c-2.1,0.2-4,1.4-5.3,3.1
				c-1.3,1.8-1.8,3.8-1.2,5.6c0.2,0.6,0.4,1.2,0.7,1.7c0.8,1.3,2,2.4,3.6,3.5c2.1,1.3,14.9-0.3,12.5,0.5
				C208.9,511.3,209.4,510.5,209.4,509.6z"/>
			<path class="st8" d="M197.8,499.4c1.8-1.3,3.2-3.4,4-6.1c1.8-5.7-2.6-11.3-2.8-11.5c-0.5-0.7-1.5-0.9-2.4-0.5
				c-0.3,0.1-7.3,3.4-9.1,9.1c-0.9,2.8-0.9,5-0.1,6.9c0.1,0.2,0.2,0.4,0.3,0.7c0.9,1.4,2.3,2.4,4.1,2.8
				C193.9,501.2,196.1,500.7,197.8,499.4z"/>
			<path class="st8" d="M266.6,452.7c3.7-4.9,1.7-11.8,1.6-12.1c-0.3-0.8-1.1-1.4-2-1.3c-0.3,0-7.9,0.9-11.6,5.8
				c-1.8,2.4-2.6,4.6-2.6,6.6c0,1,0.3,2,0.8,2.8s1.2,1.5,2,2c1.8,1.1,3.9,1.3,5.8,0.6C263,456.6,265,455,266.6,452.7z"/>
		</g>
	</g>
	<path class="st18" d="M147.3,323.9c1.5,2,2,4.5,1.4,6.9c-3.4,13-5,26.6-4.9,40c0.1,26.5,13.2,56.4,36,82.4
		c22.7,25.9,51.6,44,79.3,49.7c3.8,0.8,6.3,4.1,6.3,8h23.8c0-3.6-2.3-6.7-5.5-7.7c-0.2-0.1-0.5-0.1-0.7-0.2
		c-27.7-5.7-56.6-23.7-79.3-49.7s-35.9-56-36-82.4c0-13.5,1.7-27.1,4.9-40c0.6-2.5,0.1-4.9-1.4-6.9s-3.8-3.2-6.1-3.2h-3.7
		c-4,0-7.8,0.2-11.7,0.5c-0.2,0-0.3,0-0.5,0c-0.5,0-1.1,0.1-1.6,0.1c-1,0.1-1.9,0.2-2.9,0.3C145.6,322.3,146.6,323.1,147.3,323.9z"
		/>
	<path class="st10" d="M258.9,502.8c-27.7-5.7-56.6-23.7-79.3-49.7s-35.9-56-36-82.4c-0.1-13.4,1.6-27,4.9-40
		c0.6-2.4,0.1-4.9-1.4-6.9c-0.7-0.9-1.6-1.7-2.6-2.2c1-0.1,1.9-0.2,2.9-0.3c-37.9,3.5-73.2,20.4-100.6,48.6
		c-30.4,31.7-47.2,73.4-47,117.8l0.1,23.1h265.4C265.4,507,262.6,503.6,258.9,502.8z"/>
	<path class="st2" d="M313,165.8c-0.1,0-0.1,0-0.2,0c-27.8,0.1-50.3,22.7-50.2,50.5c0,13.4,5.3,26.1,14.8,35.6s22.1,14.6,35.5,14.6
		h0.2c27.8-0.1,50.3-22.7,50.2-50.5C363.4,188.3,340.6,165.8,313,165.8z"/>
	<path class="st2" d="M307.5,169.3c-0.1-22.4-18.4-40.6-40.8-40.6H117.3c-11,0-21.1,4.2-28.9,12c-7.7,7.7-12,18-12,28.8l0.2,79.2
		c0.2,63.5,52,115,115.6,115h0.4c63.7-0.2,115.4-52.1,115.2-115.7L307.5,169.3z"/>
	<path class="st11" d="M307.5,169.3c-0.1-22.4-17.7-40.6-39.3-40.6h-19.2c21.6,0,39.2,18.3,39.3,40.6l0.2,78.7
		c0.2,60.4-44.7,110.2-101.7,115.3c3.2,0.3,6.3,0.4,9.6,0.4h0.3c61.3-0.2,111-52.1,110.8-115.7L307.5,169.3L307.5,169.3z"/>
	
		<ellipse transform="matrix(0.9333 -0.3592 0.3592 0.9333 -62.2686 31.4681)" class="st19" cx="53.6" cy="183.3" rx="30.8" ry="45.2"/>
	
		<ellipse transform="matrix(0.9333 -0.3592 0.3592 0.9333 -61.0692 29.1272)" class="st8" cx="47.9" cy="178.9" rx="30.8" ry="45.2"/>
	<path class="st3" d="M195.9,309.3c-9.7,0-19-3.6-26.1-10.2c-3.1-2.8-3.3-7.5-0.5-10.5c2.8-3.1,7.5-3.3,10.5-0.5
		c4.3,4.1,10.1,6.2,16,6.2h0.1c6,0,11.7-2.3,16.1-6.3c3.1-2.8,7.7-2.6,10.5,0.4c2.8,3.1,2.6,7.7-0.4,10.5
		C215.1,305.6,205.8,309.2,195.9,309.3L195.9,309.3z"/>
	<path class="st19" d="M178.1,198.3c-2.8,1.5-7.5,1.6-10.5,0.2c-4.3-2-10.1-3.2-16-3.2h-0.1c-6,0-11.7,1.1-16.1,3.2
		c-3.1,1.4-7.7,1.3-10.5-0.2c-2-1.1-2.5-2.6-1.5-3.9c0.4-0.5,1-1,1.9-1.4c7.1-3.3,16.4-5.1,26.1-5.1c0,0.1,0.1,0.1,0.1,0.1
		c9.7,0,19,1.8,26.1,5c0.9,0.4,1.6,0.9,2,1.4C180.6,195.7,180.1,197.2,178.1,198.3z"/>
	<ellipse class="st19" cx="81.3" cy="137.6" rx="50.4" ry="41.3"/>
	<path class="st19" d="M270.8,198.3c-2.8,1.5-7.5,1.6-10.5,0.2c-4.3-2-10.1-3.2-16-3.2h-0.1c-6,0-11.7,1.1-16.1,3.2
		c-3.1,1.4-7.7,1.3-10.5-0.2c-2-1.1-2.5-2.6-1.5-3.9c0.4-0.5,1-1,1.9-1.4c7.1-3.3,16.4-5.1,26.1-5.1c0,0.1,0,0.1,0.1,0.1
		c9.7,0,19,1.8,26.1,5c0.9,0.4,1.6,0.9,2,1.4C273.3,195.7,272.8,197.2,270.8,198.3z"/>
	<path class="st8" d="M179.6,194.4c-0.3,0.4-0.8,0.8-1.5,1.2c-2.8,1.5-7.5,1.6-10.5,0.2c-4.3-2-10.1-3.2-16-3.2h-0.1
		c-6,0-11.7,1.1-16.1,3.2c-3.1,1.4-7.7,1.3-10.5-0.2c-0.7-0.3-1.2-0.8-1.5-1.2c0.4-0.5,1-1,1.9-1.4c7.1-3.3,16.4-5.1,26.1-5.1
		c0,0.1,0.1,0.1,0.1,0.1c9.7,0,19,1.8,26.1,5C178.4,193.4,179.1,193.9,179.6,194.4z"/>
	<path class="st8" d="M272.3,194.4c-0.3,0.4-0.8,0.8-1.5,1.2c-2.8,1.5-7.5,1.6-10.5,0.2c-4.3-2-10.1-3.2-16-3.2h-0.1
		c-6,0-11.7,1.1-16.1,3.2c-3.1,1.4-7.7,1.3-10.5-0.2c-0.7-0.3-1.2-0.8-1.5-1.2c0.4-0.5,1-1,1.9-1.4c7.1-3.3,16.4-5.1,26.1-5.1
		c0,0.1,0,0.1,0.1,0.1c9.7,0,19,1.8,26.1,5C271.1,193.4,271.9,193.9,272.3,194.4z"/>
	<path class="st12" d="M164.9,226.8c0-6.9-5.6-12.4-12.5-12.4s-12.4,5.6-12.4,12.5s5.6,12.4,12.5,12.4S164.9,233.7,164.9,226.8z"/>
	<path class="st12" d="M253.4,226.5c0-6.9-5.6-12.5-12.5-12.4c-6.9,0-12.5,5.6-12.4,12.5c0,6.9,5.6,12.5,12.5,12.4
		C247.9,239.1,253.4,233.5,253.4,226.5z"/>
	
		<ellipse transform="matrix(0.3592 -0.9333 0.9333 0.3592 37.5987 421.3511)" class="st19" cx="325.6" cy="183.3" rx="45.2" ry="30.8"/>
	
		<ellipse transform="matrix(0.3592 -0.9333 0.9333 0.3592 46.8594 418.9433)" class="st8" cx="328.5" cy="175.3" rx="45.2" ry="30.8"/>
	<ellipse class="st19" cx="303.8" cy="130.9" rx="50.4" ry="41.3"/>
	<ellipse class="st8" cx="301.6" cy="111.8" rx="51.6" ry="51.6"/>
	<ellipse class="st19" cx="278" cy="103" rx="50.4" ry="41.3"/>
	<ellipse class="st8" cx="278" cy="95.1" rx="49.6" ry="35.9"/>
	<ellipse class="st8" cx="76.6" cy="123.7" rx="48.4" ry="48.4"/>
	<ellipse class="st19" cx="112.4" cy="96.8" rx="50.4" ry="41.3"/>
	<ellipse class="st19" cx="190.3" cy="79.8" rx="77.7" ry="59.3"/>
	<ellipse class="st8" cx="196.9" cy="66.2" rx="81.1" ry="58.5"/>
	<ellipse class="st8" cx="112.4" cy="88.9" rx="49.6" ry="35.9"/>
	<g>
		<path class="st6" d="M262.5,449.6c-0.2-0.1-0.4-0.3-0.6-0.6c-0.6-0.9-0.3-2.2,0.6-2.9c8.6-6.7,16.3-15.2,22.8-25
			c5.2-7.9,9.8-16.7,13.4-26.3c6.2-16.2,7.8-28.9,7.8-29c0.1-1.1,1.1-2,2.2-2s1.8,1,1.7,2.2c-0.1,0.5-1.7,13.3-8.1,30.1
			c-3.8,9.9-8.5,19-13.8,27.2c-6.8,10.3-14.8,19.1-23.8,26.1C263.9,449.9,263,449.9,262.5,449.6z"/>
		<path class="st7" d="M324,378.3c0.4-0.9,0.1-1.9-0.6-2.4c-0.2-0.2-5.9-4.3-11.6-2.4c-2.7,0.9-4.7,2.4-5.9,4.1
			c-1.2,1.8-1.7,3.9-1.2,5.9c0.4,1.8,1.5,3.3,2.9,4.1c0.2,0.1,0.4,0.2,0.7,0.3c1.9,0.8,4.1,0.7,6.9-0.3
			C321,385.7,323.9,378.6,324,378.3z"/>
		<path class="st8" d="M307.8,378.8c0.2-2.2-0.5-4.4-2.1-6.7c-3.3-4.7-10.4-4.7-10.7-4.7c-0.9,0-1.7,0.7-2,1.6
			c-0.1,0.3-2.3,7.7,0.9,12.4c1.1,1.6,2.3,2.8,3.6,3.5c0.6,0.3,1.1,0.5,1.7,0.7c1.9,0.5,4,0,5.6-1.4
			C306.5,382.8,307.5,380.9,307.8,378.8z"/>
		<path class="st8" d="M317.8,396.4c0.4-0.9,0.1-1.9-0.6-2.4c-0.2-0.2-5.9-4.3-11.6-2.4c-2.7,0.9-4.7,2.4-5.9,4.1
			c-1.2,1.8-1.7,3.9-1.2,5.9c0.4,1.8,1.5,3.3,2.9,4.1c0.2,0.1,0.4,0.2,0.7,0.3c1.9,0.8,4.1,0.7,6.9-0.3
			C314.6,403.8,317.6,396.7,317.8,396.4z"/>
		<path class="st7" d="M301.5,396.9c0.2-2.2-0.5-4.4-2.1-6.7c-3.3-4.7-10.4-4.7-10.7-4.7c-0.9,0-1.7,0.7-2,1.6
			c-0.1,0.3-2.3,7.7,0.9,12.4c1.1,1.6,2.3,2.8,3.6,3.5c0.6,0.3,1.1,0.5,1.7,0.7c1.9,0.5,4,0,5.6-1.4
			C300.1,400.8,301.3,399,301.5,396.9z"/>
		<path class="st7" d="M307.6,414.7c-0.2-0.2-4.9-5.4-10.8-4.5c-2.8,0.4-4.9,1.5-6.5,3.1c-1.5,1.6-2.3,3.6-2.2,5.7
			c0.1,2.2,1.1,4,2.7,5c0.1,0.1,0.3,0.2,0.4,0.2c1.6,0.9,3.8,1.2,6.3,0.8c5.8-0.9,9.9-7.5,10.1-7.7
			C308.3,416.4,308.3,415.3,307.6,414.7z"/>
		<g>
			<path class="st8" d="M292,414.7c0.5-2.2,0.3-4.5-0.9-7.1c-2.3-5.4-9.3-6.7-9.6-6.7c-0.9-0.2-1.8,0.3-2.2,1.2
				c-0.1,0.3-3.6,7.3-1.2,12.6c1,2.4,2.4,4.1,4,4.9c0.1,0.1,0.3,0.1,0.4,0.2c1.8,0.8,3.8,0.7,5.6-0.3
				C290.1,418.5,291.5,416.8,292,414.7z"/>
			<path class="st8" d="M295.5,436c-0.2-0.3-3.9-6.4-9.7-6.6c-2.8-0.1-5,0.5-6.8,1.8c-1.7,1.3-2.8,3.2-3.1,5.3
				c-0.3,2.2,0.4,4.1,1.8,5.5c0.4,0.4,0.9,0.8,1.5,1.1c1.3,0.7,2.9,1.1,4.8,1.2c5.7,0.2,10.9-5.6,11.1-5.8
				C295.9,437.8,296,436.7,295.5,436z"/>
			<path class="st8" d="M280.4,432.9c0.9-2,1-4.4,0.4-7.3c-1.3-5.8-7.8-8.4-8.1-8.5c-0.8-0.3-1.8,0-2.3,0.8
				c-0.2,0.3-4.6,6.6-3.4,12.4c0.6,2.8,1.8,4.8,3.4,6c0.2,0.1,0.4,0.3,0.6,0.4c1.5,0.8,3.2,0.9,4.9,0.3
				C277.9,436.4,279.5,434.9,280.4,432.9z"/>
			<path class="st8" d="M316.5,357.9c0.7-6.1-4.4-11-4.6-11.2c-0.6-0.6-1.6-0.6-2.4-0.1c-0.3,0.2-6.4,4.7-7,10.9
				c-0.3,3,0.1,5.3,1.2,7c0.5,0.9,1.3,1.5,2.1,2c0.8,0.5,1.8,0.7,2.8,0.7c2.1,0.1,4-0.8,5.3-2.4
				C315.3,363.2,316.1,360.9,316.5,357.9z"/>
		</g>
	</g>
	<circle class="st13" cx="260.6" cy="447.9" r="17.1"/>
	<circle class="st14" cx="260.5" cy="447.7" r="10.5"/>
</g>
</svg>
