<?xml version="1.0" encoding="utf-8"?>
<!-- Generator: Adobe Illustrator 19.0.0, SVG Export Plug-In . SVG Version: 6.00 Build 0)  -->
<svg version="1.1" id="Layer_1" xmlns="http://www.w3.org/2000/svg" xmlns:xlink="http://www.w3.org/1999/xlink" x="0px" y="0px"
	 viewBox="-114 142.3 383 508.7" style="enable-background:new -114 142.3 383 508.7;" xml:space="preserve">
<style type="text/css">
	.st0{fill:#ECEDEF;}
	.st1{fill:#453F3D;}
	.st2{fill:#B8B2AF;}
	.st3{fill:#A19994;}
	.st4{fill:#D6B07F;}
	.st5{clip-path:url(#SVGID_2_);}
	.st6{fill:#A57C50;}
	.st7{fill:#FFF4F1;}
	.st8{fill:#F7D789;}
	.st9{fill:#CCA95A;}
	.st10{fill:#E0A632;}
	.st11{fill:#F7B93E;}
	.st12{fill:#897F79;}
	.st13{fill:#868686;}
	.st14{fill:#675F5B;}
	.st15{fill:none;}
</style>
<title>adult</title>
<path class="st0" d="M176.5,640.2V515.7c0-6.5,6.3-11.8,13.9-11.8h20.4c32,0,58.2,22.2,58.2,49.4v86.9c0,6.5-6.3,11.8-14,11.8h-64.6
	C182.8,652.1,176.5,646.7,176.5,640.2z"/>
<path class="st1" d="M-86.2,393.7c-1.9-10.9-5.5-21.4-10.7-31.2c-0.4-2.1,1.1-4.1,3.2-4.5l0,0l26.5-4.5c2.1-0.4,4.1,1,4.5,3.2l0,0
	l4.2,24.4c4.2,24.8-6,47.4-22.6,50.2l0,0c-2.1,0.4-4.1-1.1-4.5-3.2l0,0C-83.9,416.6-84.1,405-86.2,393.7z"/>
<path class="st1" d="M232.6,428.1c-0.4,2.1-2.4,3.6-4.5,3.2l0,0l0,0c-16.7-2.9-26.9-25.4-22.6-50.2l4.1-24.4
	c0.4-2.1,2.3-3.6,4.5-3.2c0,0,0,0,0.1,0l26.5,4.5c2.1,0.4,3.6,2.4,3.2,4.5l0,0c-5.2,9.8-8.8,20.3-10.8,31.2
	C231,405,230.8,416.6,232.6,428.1z"/>
<ellipse class="st1" cx="-36.6" cy="411.3" rx="39.9" ry="66.7"/>
<ellipse class="st1" cx="186.7" cy="412.2" rx="39.9" ry="66.7"/>
<circle class="st1" cx="77.8" cy="323.8" r="147.8"/>
<path class="st2" d="M183.5,340.2h-0.2c-24,0.1-43.2,19.5-43.2,43.5c0,11.5,4.5,22.5,12.7,30.5c8.1,8.1,19.1,12.6,30.5,12.5h0.2
	c23.9-1,42.5-21.2,41.5-45.1C224.1,359.1,206.1,341,183.5,340.2L183.5,340.2z"/>
<path class="st2" d="M-109.1,651h366c1.4-0.3,2.7-1,3.7-2.1c1.4-1.4,2.3-3.4,2.3-5.5l-0.1-23.1c-0.1-42.6-17.3-83.4-47.8-113.2
	c-30.1-30-71-46.8-113.6-46.8h-0.5l-52.7,0.2c-88.8,0.3-160.7,72.2-160.9,161l0.1,23.1C-112.6,647.1-111.2,649.5-109.1,651z"/>
<path class="st2" d="M-32.6,340.9h-0.2c-24,0.1-43.2,19.5-43.2,43.5c0,11.5,4.5,22.5,12.7,30.5c8.2,8.1,14.6,12.5,30.5,12.5h0.2
	c23.9-0.9,42.5-21.1,41.6-45C8.1,359.8-10,341.7-32.6,340.9L-32.6,340.9z"/>
<path class="st3" d="M262.9,621.2c-0.5-88.9-72.6-160.7-161.4-161H101l-19,0.1c87.1,2.6,156.6,73.6,157.2,160.9l0.1,23.3
	c0,2.1-0.8,4.1-2.3,5.6c-1,1-2.4,1.8-3.7,2.1h23.8c1.4-0.3,2.7-1,3.7-2.1c1.4-1.4,2.3-3.5,2.3-5.6L262.9,621.2z"/>
<path class="st4" d="M175.6,651.1h0.4h83.7c2.2-1.4,3.5-3.8,3.6-6.5l0.1-23.3c0.1-42.8-16.8-83.8-47.1-114.1
	c-3.4-3.4-6.7-6.5-10.3-9.5c-0.2,0.2-0.4,0.4-0.6,0.7c-24.5,27-73.5,45.4-129.9,45.4c-5.1,0-10.3-0.1-15.3-0.4
	c-8.5-0.5-16.8-1.4-24.8-2.8c-39.1-6.4-71.7-22-90.1-42.6c-0.1-0.1-0.3-0.3-0.4-0.4c-3.2,2.7-6.3,5.6-9.4,8.7
	c-16.8,16.6-29.6,36.5-37.7,58.2c-0.2,0.4-0.3,0.9-0.5,1.3c-6.3,17.3-9.6,35.6-9.7,54.4v23.4c0,2.1,0.8,4.1,2.3,5.6
	c0.9,0.9,2.2,1.6,3.4,2c0.1,0,0.3,0.1,0.4,0.1H151h0.6h24V651.1z"/>
<g>
	<g>
		<g>
			<g>
				<defs>
					<path id="SVGID_1_" d="M-112.2,643.4c0,2.1,0.8,4.1,2.3,5.6c1,1,2.4,1.8,3.8,2.1h365.9c2.2-1.4,3.5-3.8,3.6-6.5l0.1-23.3
						c0.1-42.8-16.8-83.8-47.1-114.1c-3.4-3.4-6.7-6.5-10.3-9.5c-24.3,27.4-73.6,46.1-130.5,46.1s-106.4-18.7-130.7-46.2
						c-3.2,2.7-6.3,5.6-9.4,8.7c-30.4,30-47.6,71-47.7,113.8V643.4z"/>
				</defs>
				<clipPath id="SVGID_2_">
					<use xlink:href="#SVGID_1_"  style="overflow:visible;"/>
				</clipPath>
				<g class="st5">
					<path class="st6" d="M264.1,621.2c-0.5-88.9-72.6-160.7-161.4-161h-0.5l-19.1,0.1c87.1,2.6,156.6,73.6,157.2,160.9l0.1,23.3
						c0,2.1-0.8,4.1-2.3,5.6c-1,1-2.4,1.8-3.7,2.1h23.8c1.4-0.3,2.7-1,3.7-2.1c1.4-1.4,2.3-3.5,2.3-5.6L264.1,621.2z"/>
					<path class="st0" d="M158.4,513v-0.2c0-13.3,10.8-24,24-24h27.7c13.3,0,24,10.8,24,24v0.2c0,13.3-10.8,24-24,24h-27.7
						C169.2,537.1,158.4,526.2,158.4,513z"/>
					<path class="st7" d="M155.7,509.7v-0.2c0-13.3,10.8-24,24-24h27.7c13.3,0,24,10.8,24,24v0.2c0,13.3-10.8,24-24,24h-27.7
						C166.5,533.7,155.8,522.9,155.7,509.7z"/>
				</g>
			</g>
		</g>
	</g>
</g>
<path class="st8" d="M42.1,476.2L42.1,476.2z"/>
<path class="st7" d="M152.7,651.1h-265.6l-1.3-23.5c-0.4-44.4,16.6-87.1,47.2-119.3c27.4-28.6,62.7-45.8,100.7-49.2
	c-1,0.1-1.9,0.2-2.9,0.3c1,0.5,1.9,1.2,2.6,2.2c1.4,2.1,2,4.6,1.3,7c-3.4,13.3-5,26.9-4.9,40.6c0.1,26.7,13.3,57.2,36,83.4
	c22.8,26.3,51.7,44.5,79.3,50.4C149,643.7,151.6,647.2,152.7,651.1z"/>
<path class="st9" d="M169.9,643.2c3.4,1,5.7,4.2,5.6,7.8l0,0C175.5,647.6,173.2,644.4,169.9,643.2z"/>
<path class="st9" d="M41.7,476.3c-0.4,0-1,0.1-1.3,0.1C40.8,476.3,41.2,476.3,41.7,476.3z"/>
<path class="st9" d="M52.2,475.8c-3.4,0-6.8,0.2-10.2,0.4C45.4,475.9,48.9,475.8,52.2,475.8z"/>
<path class="st0" d="M175.6,651.1L175.6,651.1c-0.1-3.5-2.4-6.5-5.6-7.6c-0.2-0.1-0.5-0.1-0.7-0.2c-27.9-5.9-57.2-24-80.1-50.4
	c-13.6-15.6-23.8-32.6-29.9-49.4c-4.2-11.6-6.5-23.2-6.5-34.1c0-13.7,1.6-27.3,4.9-40.6c0.5-2.4,0-4.9-1.4-7
	c-0.3-0.5-0.7-0.9-1.1-1.2c-1.3-1.2-3.1-2-5-2h-3.7c-3.9,0-7.8,0.2-11.7,0.5h-0.5c-0.5,0-1,0.1-1.5,0.1l-2.9,0.3
	c0.8,0.4,1.5,1,2.2,1.8c0.1,0.1,0.2,0.3,0.3,0.4c1.5,2.1,2.1,4.5,1.4,7c-3.4,13.3-5,26.9-4.9,40.6c0,10.1,2,20.7,5.6,31.4
	c6,17.7,16.5,35.7,30.9,52.1c23,26.3,52.1,44.5,80.1,50.4c3.6,0.9,6.3,4.1,6.4,7.8v0.1L175.6,651.1L175.6,651.1z"/>
<path class="st8" d="M175.5,651.1"/>
<path class="st8" d="M175.3,651.1h0.1"/>
<path class="st10" d="M206.2,512.7c0,7.5-6,13.5-13.5,13.5c-5.2,0-9.8-2.9-12.1-7.5c-1-1.8-1.5-3.9-1.5-6c0-7.5,6-13.5,13.5-13.5
	C200.2,499.2,206.2,505.3,206.2,512.7L206.2,512.7z"/>
<path class="st11" d="M204.4,509.9c0,7.5-6,13.5-13.5,13.5c-3.9,0-7.7-1.8-10.2-4.7c-1-1.8-1.5-3.9-1.5-6
	c-1.7-6.8,2.5-13.7,9.4-15.5c6.8-1.7,13.7,2.5,15.5,9.4C204.3,507.8,204.4,508.9,204.4,509.9L204.4,509.9z"/>
<path class="st2" d="M186.7,313.1c-0.1-29.2-11.3-48.6-34.5-59.3C131.5,244.1,103.3,243,76,243s-55.4,1.5-76.1,11.2
	c-23,10.8-34,30.2-34,59.4l0.4,93.7C-33.5,468.4,15.9,518,76.6,518H77c60.8-0.2,110.2-50.2,110-111.4L186.7,313.1z"/>
<path class="st3" d="M185.8,313.9c-0.1-29.2-10.5-48.6-32.2-59.3c-19.4-9.7-45.7-10.8-71.3-10.8c-2.4,0-4.8,0-7.2,0.1
	c22.1,0.4,43.9,2.5,60.7,10.8c21.6,10.7,32.2,30.1,32.2,59.3l0.3,93.7c0.2,58.2-41.3,106.1-94.3,111c2.9,0.3,5.8,0.4,8.8,0.4h0.3
	C140,518.9,186,468.8,186,407.6L185.8,313.9z"/>
<path class="st1" d="M242.5,344.2c-6.2-9.4-10.4-19.9-12.5-30.9c-1.2-1.8-4.1-1.8-6.5-0.3l-29.3,19.9c-2.5,1.8-3.3,4.4-2.1,6.3
	l14,20.6c14.2,20.8,41,27.7,59.5,15l0,0c2.5-1.8,3.3-4.4,2.1-6.3C257.7,362.2,249.1,353.9,242.5,344.2z"/>
<path class="st12" d="M78.1,476.8c-8.7,0-17.1-3.2-23.4-9.1c-2.8-2.7-2.8-7.1-0.1-9.9c2.6-2.6,6.7-2.8,9.5-0.5
	c3.8,3.5,8.8,5.4,14,5.3h0.1c5.2,0,10.2-1.9,14-5.5c2.7-2.8,7-2.9,9.9-0.2c2.9,2.7,2.9,7,0.2,9.9c-0.2,0.2-0.4,0.4-0.6,0.6
	c-6.4,5.9-14.7,9.2-23.5,9.2C78.2,476.7,78.1,476.7,78.1,476.8C78.1,476.7,78.1,476.8,78.1,476.8z"/>
<path class="st13" d="M50.1,412.1c0-6.2-5-11.1-11.2-11.1s-11.1,5-11.1,11.2s5,11.1,11.2,11.1l0,0C45.1,423.3,50.1,418.3,50.1,412.1
	z"/>
<path class="st1" d="M58.7,389.3c-0.7,3-3.6,5.3-6.7,5.3c-0.6,0-1.2-0.1-1.8-0.3L24,387.4c-2.4-0.6-4.3-2.5-5-4.9
	c-0.4-1.2-0.4-2.4,0-3.6c1-3.7,4.8-5.9,8.5-5l0,0l26.2,6.9c1.7,0.5,3.1,1.5,4.1,2.9C58.9,385.4,59.3,387.4,58.7,389.3z"/>
<path class="st13" d="M128.5,411.8c0-6.2-5-11.1-11.2-11.1s-11.1,5-11.1,11.2s5,11.1,11.2,11.1l0,0c6.1,0.1,11.1-4.8,11.1-10.9
	C128.5,412,128.5,411.9,128.5,411.8z"/>
<path class="st1" d="M132.3,387l-26.2,7.1c-0.6,0.2-1.2,0.3-1.8,0.3c-3.1,0-5.9-2.1-6.7-5.2c0,0,0,0,0-0.1c-0.9-3.7,1.2-7.5,4.9-8.6
	l26.2-7.1c3.7-1.2,7.6,0.8,8.8,4.5c1.2,3.7-0.8,7.6-4.5,8.8C132.7,386.9,132.5,386.9,132.3,387L132.3,387z"/>
<path class="st14" d="M57.9,387.3c-0.7,3-3.6,5.3-6.7,5.3c-0.6,0-1.2-0.1-1.8-0.3l-26.2-6.9c-2.7-0.2-4.6-2.5-4.4-5.2
	c0-0.5,0.2-0.9,0.4-1.4c1-3.7,4.8-5.9,8.5-5l0,0l26.2,6.9c1.7,0.5,3.1,1.5,4.1,2.9C58.2,384.9,58.2,386.1,57.9,387.3z"/>
<path class="st14" d="M131.5,385l-26.2,7.1c-0.6,0.2-1.2,0.3-1.8,0.3c-2.4,0-4.6-1.2-5.9-3.2c-0.9-3.7,1.2-7.5,4.9-8.6l26.2-7.1
	c2.9-0.8,6.1,0.4,7.7,2.9C137.3,380.2,135.1,384,131.5,385z"/>
<path class="st1" d="M-112.2,366.2c-1.1,1.9-0.2,4.5,2.4,6.2l0,0c19,11.8,45.4,3.9,58.7-17.6l13.1-21.1c1.1-1.8,0.2-4.5-2.4-6.2
	l-30.1-18.6c-2.5-1.5-3.5-1.1-4.6,0.6c-1.2,8.2-6,19.5-13,31.3C-94.3,350.9-102.5,359.5-112.2,366.2z"/>
<path class="st14" d="M-113.5,362c-1.1,1.9-0.2,4.5,2.3,6.1l0,0c19,11.7,45.4,3.8,58.7-17.6l13.2-21c1.1-1.8,0.2-4.5-2.4-6.1
	l-26.5-18.5c-2.5-1.5-5.3-1.2-6.5,0.6c-1.2,8.1-7.7,19.5-14.7,31.3C-95.6,346.8-103.9,355.3-113.5,362z"/>
<ellipse class="st1" cx="-37.7" cy="312.4" rx="38.3" ry="39.3"/>
<ellipse class="st14" cx="-39.9" cy="310.3" rx="36" ry="39.6"/>
<ellipse class="st1" cx="193.7" cy="317.8" rx="39.3" ry="39.3"/>
<ellipse transform="matrix(-3.996816e-002 -0.9992 0.9992 -3.996816e-002 -115.4347 526.8868)" class="st14" cx="195.4" cy="318.9" rx="39.4" ry="36.5"/>
<path class="st14" d="M249.2,315.7c1.4,1.7,1.2,4.1-0.5,5.5l0,0l0,0c-13.1,10.7-36.9,3.8-52.8-15.8L180,286.3
	c-1.4-1.7-1.2-4.1,0.5-5.5l0,0l20.7-17.1c1.7-1.4,4.1-1.2,5.5,0.5l0,0c4.1,10.3,9.6,19.9,16.6,28.5
	C230.8,301.8,239.4,309.5,249.2,315.7z"/>
<path class="st14" d="M243.4,339.5c-6.2-9.4-10.4-19.9-12.5-30.9c-1.2-1.8-4.1-1.8-6.5-0.3L195,328.2c-2.5,1.8-3.3,4.4-2.1,6.3
	l14,20.6c14.2,20.8,41,27.7,59.5,15l0,0c2.5-1.8,3.3-4.4,2.1-6.3C258.5,357.5,249.9,349.2,243.4,339.5z"/>
<path class="st3" d="M263.7,643.9c0,2.1-0.8,4-2.2,5.6c-0.9,1-2.2,1.8-3.7,2.1h-23c1.3-0.3,2.6-1,3.7-2.1c1.4-1.5,2.2-3.5,2.2-5.6
	l0.3-20.8c8.1-9.3,14.8-19.9,19.8-31.2c0-0.1,0-0.1,0.1-0.2c1.6,9.5,2.5,19.2,2.5,28.8L263.7,643.9z"/>
<path class="st2" d="M241.2,643.9c0,2.1-0.8,4.1-2.4,5.6c-1.1,1-2.5,1.8-4,2.1h-34.2c15.2-6.7,29-16.4,40.6-28.3V643.9z"/>
<ellipse class="st1" cx="77.3" cy="266.2" rx="127.7" ry="77"/>
<ellipse class="st14" cx="76.4" cy="258.2" rx="127.7" ry="77"/>
<line class="st15" x1="151.7" y1="651.1" x2="151.1" y2="651.1"/>
<line class="st15" x1="176" y1="651.1" x2="175.6" y2="651.1"/>
</svg>
