<?xml version="1.0" encoding="utf-8"?>
<!-- Generator: Adobe Illustrator 19.0.0, SVG Export Plug-In . SVG Version: 6.00 Build 0)  -->
<svg version="1.1" id="Layer_1" xmlns="http://www.w3.org/2000/svg" xmlns:xlink="http://www.w3.org/1999/xlink" x="0px" y="0px"
	 viewBox="-114 142.3 383 508.7" style="enable-background:new -114 142.3 383 508.7;" xml:space="preserve">
<style type="text/css">
	.st0{fill:#232323;}
	.st1{fill:#BC8E79;}
	.st2{fill:#A06E5A;}
	.st3{fill:#6BBBCE;}
	.st4{clip-path:url(#SVGID_2_);fill:#378D9B;}
	.st5{fill:#F8A814;}
	.st6{fill:#F8B53C;}
	.st7{fill:#F9CD45;}
	.st8{fill:#1D4E96;}
	.st9{fill:#EFEFEF;}
	.st10{fill:#897F79;}
	.st11{fill:#868686;}
	.st12{fill:#4C350C;}
	.st13{fill:#191919;}
	.st14{fill:#825308;}
</style>
<g>
	<path class="st0" d="M199.9,190.9c-31.5-25.4-73.1-39.3-117.3-39.3S-3.3,165.5-34.8,191c-31.5,25.4-48.8,59.1-48.8,94.7v191.7
		c0,3.4,3.4,6.1,7.5,6.1H241c4.2,0,7.5-2.7,7.5-6.1V285.7C248.7,250,231.3,216.3,199.9,190.9z"/>
	<path class="st1" d="M-30.1,315.9L-30.1,315.9c-22.7,0.1-40.9,23-40.9,50.9c0,13.6,4.3,26.3,12,35.8s18,14.7,28.9,14.7h0.1
		c22.5-0.1,40.8-23,40.8-50.9C10.6,338.6-7.7,315.9-30.1,315.9z"/>
	<path class="st1" d="M265,622.9c-0.1-42.3-16.8-82.1-47-112.1c-30.1-29.9-69.8-46.3-111.9-46.3c-0.2,0-0.3,0-0.5,0l-52,0.2
		c-42.3,0.1-82.1,16.8-112.1,47s-46.4,70.1-46.4,112.4l0.1,19.8c0,4,3.3,7.3,7.3,7.3h355.3c1.9,0,3.8-0.8,5.1-2.1
		c1.4-1.4,2.1-3.2,2.1-5.1V622.9z"/>
	<path class="st2" d="M265,622.9c-0.1-42.3-16.8-82.1-47-112.1c-30.1-29.9-69.8-46.3-111.9-46.3c-0.2,0-0.3,0-0.5,0l-17.8,0.1
		c40.5,1.1,78.7,17.3,107.8,46.2c30.2,30,46.9,69.8,47,112.1l0.1,20.9c0,1.9-0.8,3.8-2.1,5.1c-1.4,1.4-3.2,2.1-5.1,2.1h22.3
		c1.9,0,3.8-0.8,5.1-2.1c1.4-1.4,2.1-3.2,2.1-5.1V622.9z"/>
	<g>
		<g>
			<path id="XMLID_44_" class="st3" d="M265,621.8c-0.1-42-16.8-81.6-47-111.4c-9-8.9-18.9-16.5-29.4-23
				c-7.4,29.2-39,52.6-80.1,60.2c-9.2,1.7-18.8,2.6-28.7,2.6s-19.3-0.9-28.5-2.5c-40.9-7.4-72.6-30.8-80.2-59.7
				c-10.6,6.5-20.4,14.3-29.5,23.3c-30,30-46.4,69.7-46.3,111.6l0.1,22.7c0.1,2.6,1.5,4.9,3.5,6.3h360.5c1.4-0.3,2.6-1.1,3.7-2
				c1.5-1.5,2.2-3.4,2.2-5.4L265,621.8z"/>
		</g>
		<g>
			<g>
				<g>
					<g>
						<g>
							<g>
								<g>
									<defs>
										<path id="SVGID_1_" d="M265,621.8c-0.1-42-16.8-81.6-47-111.4c-9-8.9-18.9-16.5-29.4-23c-7.4,29.2-39,52.6-80.1,60.2
											c-9.2,1.7-18.8,2.6-28.7,2.6s-19.3-0.9-28.5-2.5c-40.9-7.4-72.6-30.8-80.2-59.7c-10.6,6.5-20.4,14.3-29.5,23.3
											c-30,30-46.4,69.7-46.3,111.6l0.1,22.7c0.1,2.6,1.5,4.9,3.5,6.3h360.5c1.4-0.3,2.6-1.1,3.7-2c1.5-1.5,2.2-3.4,2.2-5.4
											L265,621.8z"/>
									</defs>
									<clipPath id="SVGID_2_">
										<use xlink:href="#SVGID_1_"  style="overflow:visible;"/>
									</clipPath>
									<path class="st4" d="M266,622.5c-0.1-42-16.8-81.6-47-111.4c-30.1-29.7-69.8-46-111.9-46c-0.2,0-0.3,0-0.5,0l-18.8,0.1
										c40.5,1.1,78.7,17.2,107.8,46c30.2,29.8,46.8,69.4,47,111.4l0.1,22.7c0,2-0.8,4-2.2,5.4c-1,1-2.2,1.7-3.7,2h23.5
										c1.4-0.3,2.6-1.1,3.7-2c1.5-1.5,2.2-3.4,2.2-5.4L266,622.5z"/>
								</g>
							</g>
						</g>
					</g>
				</g>
			</g>
		</g>
	</g>
	<g>
		<path class="st5" d="M50.9,638.3c-0.1-0.3-0.1-0.5-0.1-0.8c0.1-1.1,1.2-1.8,2.2-1.7c10.7,0.6,21.9-0.8,33-3.9
			c9-2.5,18-6.1,26.8-10.8c15-8,24.4-16.3,24.5-16.4c0.9-0.8,2.1-0.8,2.9-0.1c0.8,0.7,0.7,1.9-0.1,2.6c-0.4,0.4-9.9,8.8-25.3,17
			c-9.1,4.8-18.5,8.6-27.7,11.2c-11.6,3.2-23.2,4.5-34.3,4C51.8,639.4,51.1,639,50.9,638.3z"/>
		<path class="st6" d="M142.4,625.1c0.9-0.4,1.3-1.3,1.2-2.1c-0.1-0.3-1.5-7-7-9.2c-2.6-1.1-5-1.3-7.1-0.8c-2,0.5-3.7,1.8-4.6,3.7
			c-0.9,1.6-1,3.3-0.5,4.8c0.1,0.2,0.2,0.4,0.3,0.7c0.9,1.7,2.6,3.2,5.2,4.2C135.1,628.6,142,625.3,142.4,625.1z"/>
		<path class="st7" d="M129.9,615.2c1.5-1.5,2.4-3.6,2.8-6.3c0.7-5.6-4.6-10.2-4.8-10.4c-0.7-0.6-1.6-0.6-2.5-0.1
			c-0.3,0.2-6.7,4.3-7.4,9.8c-0.2,1.9-0.1,3.5,0.4,4.9c0.2,0.6,0.5,1.1,0.8,1.5c1.2,1.5,2.9,2.5,5,2.6
			C126.4,617.3,128.4,616.6,129.9,615.2z"/>
		<path class="st7" d="M126.1,634.5c0.9-0.4,1.3-1.3,1.2-2.1c-0.1-0.3-1.5-7-7-9.2c-2.6-1.1-5-1.3-7.1-0.8c-2,0.5-3.7,1.8-4.6,3.7
			c-0.9,1.6-1,3.3-0.5,4.8c0.1,0.2,0.2,0.4,0.3,0.7c0.9,1.7,2.6,3.2,5.2,4.2C118.9,638,125.8,634.6,126.1,634.5z"/>
		<path class="st6" d="M113.6,624.4c1.5-1.5,2.4-3.6,2.8-6.3c0.7-5.6-4.6-10.2-4.8-10.4c-0.7-0.6-1.6-0.6-2.5-0.1
			c-0.3,0.2-6.7,4.3-7.4,9.8c-0.2,1.9-0.1,3.5,0.4,4.9c0.2,0.6,0.5,1.1,0.8,1.5c1.2,1.5,2.9,2.5,5,2.6
			C110.1,626.7,112.1,625.9,113.6,624.4z"/>
		<path class="st6" d="M106.9,641.7c0-0.3-0.2-7.3-5-10.3c-2.3-1.5-4.6-2.1-6.8-1.9c-2.1,0.2-4,1.3-5.2,2.9
			c-1.3,1.6-1.7,3.6-1.2,5.4c0,0.2,0.1,0.3,0.1,0.5c0.6,1.7,2,3.3,4.2,4.6c4.8,3.1,12.1,0.9,12.5,0.8
			C106.3,643.3,106.9,642.4,106.9,641.7z"/>
		<g>
			<path class="st7" d="M95.3,631.5c1.7-1.3,3.1-3.2,4-5.8c1.7-5.5-2.5-10.8-2.7-11.1c-0.6-0.7-1.5-0.9-2.4-0.5
				c-0.3,0.1-7.3,3.1-9,8.6c-0.8,2.4-0.9,4.5-0.2,6.2c0.1,0.1,0.1,0.3,0.2,0.4c0.8,1.7,2.3,2.9,4.5,3.4
				C91.4,633.2,93.4,632.8,95.3,631.5z"/>
			<path class="st7" d="M84.1,649.5c0.1-0.3,1.3-7.3-2.9-11c-1.9-1.8-4.1-2.9-6.2-3c-2-0.2-4.1,0.6-5.7,2c-1.5,1.5-2.4,3.3-2.2,5.2
				c0,0.6,0.2,1.2,0.4,1.7c0.5,1.4,1.5,2.7,2.8,4c4.2,3.9,11.6,2.8,11.9,2.8C83.4,651.1,84.1,650.4,84.1,649.5z"/>
			<path class="st7" d="M74.9,637.5c1.9-1,3.6-2.6,4.9-5.1c2.8-5.1-0.4-11.2-0.5-11.5c-0.4-0.8-1.4-1.2-2.2-0.9
				c-0.3,0.1-7.6,1.8-10.4,7.1c-1.4,2.5-1.7,4.7-1.4,6.6c0.1,0.2,0.1,0.5,0.2,0.7c0.6,1.5,1.7,2.7,3.5,3.4
				C70.8,638.5,72.9,638.5,74.9,637.5z"/>
			<path class="st7" d="M149.8,605.3c4.5-4.1,3.8-10.9,3.8-11.2c-0.1-0.9-0.8-1.5-1.7-1.5c-0.3,0-7.7-0.6-12.2,3.5
				c-2.1,1.9-3.4,4-3.7,5.9c-0.2,1-0.1,1.9,0.3,2.8c0.3,0.9,0.9,1.6,1.5,2.3c1.5,1.4,3.5,1.9,5.5,1.6
				C145.5,608.4,147.6,607.3,149.8,605.3z"/>
		</g>
	</g>
	<path class="st8" d="M34.1,470.2c1.5,1.9,1.9,4.5,1.4,6.8c-3.3,12.9-4.9,26-4.8,39.3c0.1,25.9,13,55.3,35.2,80.9
		c22.3,25.3,50.5,43.1,77.7,48.7c3.7,0.8,6.2,4.2,6.2,7.8h23.3c0-3.5-2.2-6.6-5.4-7.5c-0.2-0.1-0.5-0.1-0.7-0.2
		c-27.1-5.6-55.4-23.3-77.7-48.7s-35.1-54.9-35.2-80.9c0-13.3,1.6-26.5,4.8-39.3c0.6-2.4,0.1-4.9-1.4-6.8s-3.7-3.1-6-3.1h-3.6
		c-3.9,0-7.6,0.2-11.4,0.5c-0.2,0-0.3,0-0.5,0c-0.5,0-1.1,0.1-1.5,0.1c-1,0.1-1.8,0.2-2.8,0.3C32.6,468.6,33.4,469.4,34.1,470.2z"/>
	<path class="st9" d="M143.5,644.2c-27.1-5.6-55.4-23.3-77.7-48.7s-35.1-54.9-35.2-80.9c-0.1-13.3,1.5-26.4,4.8-39.3
		c0.6-2.3,0.1-4.9-1.4-6.8c-0.7-0.9-1.5-1.6-2.5-2.1c1-0.1,1.8-0.2,2.8-0.3c-37.1,3.4-71.7,20-98.5,47.7
		c-29.8,31.1-46.3,72.1-46,115.6l0.1,22.7h259.8C149.8,648.3,147.1,645,143.5,644.2z"/>
	<path class="st1" d="M192.3,315.1L192.3,315.1c-23.3,0.1-42.1,23-42,50.9c0,13.6,4.5,26.3,12.5,35.8c7.9,9.6,18.4,14.7,29.7,14.7
		h0.1c23.2-0.1,42-23,41.9-50.9C234.3,337.7,215.4,315.1,192.3,315.1z"/>
	<path class="st1" d="M197,296.6c-0.1-24.7-18.3-44.8-40.7-44.8H7.3c-10.8,0-21.1,4.6-28.8,13.3c-7.6,8.5-11.8,19.9-11.8,31.9
		l0.2,87.4c0.2,70.1,51.8,126.9,115.1,126.9h0.4c63.4-0.2,114.9-57.4,114.7-127.7L197,296.6z"/>
	<path class="st2" d="M197,296.6c-0.1-24.7-17.1-44.8-38.1-44.8h-18.6c20.9,0,38.1,20.1,38.1,44.8l0.2,87
		c0.2,66.6-43.3,121.6-98.6,127.3c3.1,0.3,6.2,0.5,9.3,0.5h0.3c59.5-0.2,107.7-57.4,107.6-127.7L197,296.6z"/>
	<path class="st10" d="M81.8,459.7c-9.8,0-19.1-3.6-26.3-10.3c-3.1-2.8-3.3-7.6-0.5-10.6c2.8-3.1,7.6-3.3,10.6-0.5
		c4.4,4.1,10.2,6.3,16.2,6.3h0.1c6.1,0,11.7-2.3,16.3-6.4c3.1-2.8,7.7-2.6,10.6,0.4c2.8,3.1,2.6,7.7-0.4,10.6
		C101.1,455.9,91.7,459.6,81.8,459.7C81.9,459.7,81.8,459.7,81.8,459.7z"/>
	<path class="st0" d="M37,337.5c9.8,0,19.1,1.8,26.3,5c3.1,1.4,3.3,3.8,0.5,5.3s-7.6,1.5-10.6,0.2c-4.4-2-10.2-3.2-16.2-3.2h-0.1
		c-6.1,0-11.7,1.1-16.3,3.2c-3.1,1.4-7.7,1.3-10.6-0.2c-2.8-1.5-2.6-3.9,0.4-5.3C17.8,339.4,27.2,337.4,37,337.5L37,337.5z"/>
	<path class="st0" d="M130.4,337.5c9.8,0,19.1,1.8,26.3,5c3.1,1.4,3.3,3.8,0.5,5.3s-7.6,1.5-10.6,0.2c-4.4-2-10.2-3.2-16.2-3.2h-0.1
		c-6.1,0-11.7,1.1-16.3,3.2c-3.1,1.4-7.7,1.3-10.6-0.2c-2.9-1.5-2.6-3.9,0.4-5.3C111.3,339.4,120.5,337.4,130.4,337.5
		C130.3,337.5,130.4,337.5,130.4,337.5z"/>
	<path class="st11" d="M50.5,376.5c0-7-5.7-12.6-12.7-12.6s-12.6,5.7-12.6,12.7s5.7,12.6,12.7,12.6C45,389.2,50.6,383.5,50.5,376.5z
		"/>
	<path class="st11" d="M139.7,376.3c0-7-5.7-12.7-12.7-12.6c-7,0-12.7,5.7-12.6,12.7c0,7,5.7,12.7,12.7,12.6
		C134.1,388.9,139.7,383.3,139.7,376.3z"/>
	<g>
		<path class="st5" d="M147,593.3c-0.2-0.1-0.4-0.3-0.6-0.6c-0.6-0.9-0.3-2.1,0.6-2.8c8.4-6.6,16-14.9,22.3-24.5
			c5.1-7.7,9.6-16.3,13.2-25.7c6.1-15.9,7.6-28.3,7.6-28.4c0.1-1.1,1.1-1.9,2.1-1.9c1.1,0,1.7,1,1.6,2.1c-0.1,0.5-1.6,13.1-7.9,29.5
			c-3.7,9.7-8.3,18.6-13.5,26.6c-6.7,10.1-14.5,18.7-23.3,25.5C148.4,593.6,147.5,593.7,147,593.3z"/>
		<path class="st6" d="M207.4,523.4c0.4-0.9,0.1-1.8-0.6-2.3c-0.2-0.2-5.8-4.3-11.3-2.3c-2.6,0.9-4.6,2.3-5.8,4.1
			c-1.2,1.7-1.6,3.8-1.2,5.8c0.4,1.7,1.5,3.2,2.8,4c0.2,0.1,0.4,0.2,0.7,0.3c1.8,0.8,4.1,0.7,6.8-0.3
			C204.3,530.8,207.3,523.7,207.4,523.4z"/>
		<path class="st7" d="M191.4,524c0.2-2.1-0.5-4.4-2-6.6c-3.2-4.6-10.2-4.6-10.4-4.6c-0.9,0-1.6,0.7-1.9,1.5
			c-0.1,0.3-2.2,7.5,0.9,12.2c1.1,1.5,2.2,2.7,3.5,3.4c0.6,0.3,1.1,0.5,1.6,0.7c1.8,0.5,3.9,0,5.5-1.4
			C190.3,528,191.1,526.1,191.4,524z"/>
		<path class="st7" d="M201.1,541.2c0.4-0.9,0.1-1.8-0.6-2.3c-0.2-0.2-5.8-4.3-11.3-2.3c-2.6,0.9-4.6,2.3-5.8,4.1
			c-1.2,1.7-1.6,3.8-1.2,5.8c0.4,1.7,1.5,3.2,2.8,4c0.2,0.1,0.4,0.2,0.7,0.3c1.8,0.8,4.1,0.7,6.8-0.3
			C198,548.4,201,541.4,201.1,541.2z"/>
		<path class="st6" d="M185.3,541.7c0.2-2.1-0.5-4.4-2-6.6c-3.2-4.6-10.2-4.6-10.4-4.6c-0.9,0-1.6,0.7-1.9,1.5
			c-0.1,0.3-2.2,7.5,0.9,12.2c1.1,1.5,2.2,2.7,3.5,3.4c0.6,0.3,1.1,0.5,1.6,0.7c1.8,0.5,3.9,0,5.5-1.4
			C184,545.6,185,543.8,185.3,541.7z"/>
		<path class="st6" d="M191.3,559.1c-0.2-0.2-4.8-5.3-10.5-4.5c-2.7,0.4-4.8,1.5-6.4,3c-1.5,1.5-2.2,3.5-2.1,5.6
			c0.1,2.1,1.1,3.9,2.6,4.9c0.1,0.1,0.3,0.2,0.4,0.2c1.5,0.9,3.7,1.2,6.2,0.8c5.7-0.9,9.7-7.4,9.9-7.5
			C192,560.8,191.9,559.8,191.3,559.1z"/>
		<g>
			<path class="st7" d="M176,559.1c0.5-2.1,0.3-4.5-0.9-7c-2.2-5.3-9.1-6.6-9.4-6.6c-0.9-0.2-1.7,0.3-2.1,1.2
				c-0.1,0.3-3.5,7.2-1.2,12.4c1,2.3,2.3,4,3.9,4.8c0.1,0.1,0.3,0.1,0.4,0.2c1.7,0.8,3.7,0.7,5.5-0.3
				C174.1,562.9,175.5,561.2,176,559.1z"/>
			<path class="st7" d="M179.4,579.9c-0.2-0.3-3.8-6.3-9.5-6.5c-2.7-0.1-4.9,0.5-6.7,1.7c-1.6,1.3-2.7,3.1-3,5.2
				c-0.3,2.1,0.4,4.1,1.7,5.4c0.4,0.4,0.9,0.8,1.5,1.1c1.3,0.7,2.8,1.1,4.7,1.2c5.6,0.2,10.6-5.5,10.8-5.7
				C179.8,581.7,179.9,580.7,179.4,579.9z"/>
			<path class="st7" d="M164.5,577c0.9-1.9,1-4.4,0.4-7.2c-1.3-5.7-7.6-8.2-7.9-8.3c-0.8-0.3-1.7,0-2.2,0.8
				c-0.2,0.3-4.5,6.5-3.3,12.2c0.6,2.7,1.7,4.7,3.3,5.9c0.2,0.1,0.4,0.3,0.6,0.4c1.5,0.8,3.1,0.9,4.8,0.3
				C162.1,580.4,163.8,579,164.5,577z"/>
			<path class="st7" d="M200,503.5c0.7-6-4.4-10.7-4.5-10.9c-0.6-0.6-1.5-0.6-2.3-0.1c-0.3,0.2-6.3,4.6-6.9,10.6
				c-0.3,2.9,0.1,5.2,1.2,6.9c0.5,0.9,1.3,1.5,2,1.9c0.8,0.5,1.7,0.7,2.7,0.7c2,0.1,3.9-0.8,5.2-2.3
				C198.9,508.7,199.6,506.4,200,503.5z"/>
		</g>
	</g>
	<circle class="st12" cx="145.4" cy="591.7" r="16.7"/>
	<ellipse transform="matrix(-0.866 -0.5 0.5 -0.866 -247.5497 587.8959)" class="st13" cx="-45" cy="327.1" rx="26.2" ry="23.7"/>
	<ellipse transform="matrix(-0.866 -0.5 0.5 -0.866 -251.6236 577.6851)" class="st0" cx="-48.4" cy="322.6" rx="26.2" ry="23.7"/>
	<circle class="st14" cx="145" cy="591.6" r="10.3"/>
	<ellipse transform="matrix(-0.866 -0.5 0.5 -0.866 -194.1637 512.9919)" class="st13" cx="-28.4" cy="282.5" rx="40.4" ry="36.4"/>
	<ellipse transform="matrix(-0.866 -0.5 0.5 -0.866 -199.9856 497.6765)" class="st0" cx="-33.3" cy="275.6" rx="40.4" ry="36.4"/>
	<ellipse transform="matrix(-0.5 -0.866 0.866 -0.5 17.2165 668.9045)" class="st13" cx="201.7" cy="329.5" rx="25.2" ry="27.9"/>
	<ellipse transform="matrix(-0.5 -0.866 0.866 -0.5 26.4251 664.6229)" class="st0" cx="205.1" cy="324.7" rx="25.2" ry="27.9"/>
	<ellipse transform="matrix(-0.5 -0.866 0.866 -0.5 37.1821 590.6714)" class="st13" cx="189.1" cy="284.6" rx="36.4" ry="40.4"/>
	<ellipse transform="matrix(-0.5 -0.866 0.866 -0.5 43.9281 576.1552)" class="st0" cx="188.3" cy="275.4" rx="36.4" ry="40.4"/>
	<ellipse class="st13" cx="175" cy="233.5" rx="59.4" ry="53.6"/>
	<ellipse class="st0" cx="171.5" cy="224.6" rx="59.4" ry="53.6"/>
	<ellipse class="st13" cx="-17.3" cy="234" rx="53.5" ry="48.4"/>
	<ellipse class="st0" cx="-20.6" cy="229.5" rx="53.5" ry="48.4"/>
	<ellipse class="st13" cx="76.6" cy="219.4" rx="97.2" ry="72.5"/>
	<ellipse class="st0" cx="80" cy="210.9" rx="97.2" ry="68.6"/>
</g>
</svg>
