<?xml version="1.0" encoding="utf-8"?>
<!-- Generator: Adobe Illustrator 19.0.0, SVG Export Plug-In . SVG Version: 6.00 Build 0)  -->
<svg version="1.1" id="Layer_1" xmlns="http://www.w3.org/2000/svg" xmlns:xlink="http://www.w3.org/1999/xlink" x="0px" y="0px"
	 viewBox="-114 142.3 383 508.7" style="enable-background:new -114 142.3 383 508.7;" xml:space="preserve">
<style type="text/css">
	.st0{fill:#F0BCA6;}
	.st1{fill:#E6B09A;}
	.st2{fill:#2657A5;}
	.st3{clip-path:url(#SVGID_2_);}
	.st4{fill:#1E4987;}
	.st5{fill:#FFF4F1;}
	.st6{fill:#ECEDEF;}
	.st7{fill:#161616;}
	.st8{fill:#232323;}
	.st9{fill:#E2A58A;}
	.st10{fill:#868686;}
</style>
<title>adult</title>
<path class="st0" d="M-93.9,651.3h340.7c1.3-0.3,2.5-1,3.5-1.9c1.4-1.4,2.1-3.2,2.1-5.1l-0.1-21.6C251.8,540,184.7,473.1,102,472.8
	h-0.5L52.4,473c-82.9,0.5-149.8,67.9-149.8,150.7l0.1,21.6C-97.2,647.8-96,650.1-93.9,651.3z"/>
<path class="st1" d="M253.2,622.8c-0.5-82.7-67.6-149.5-150.3-149.8h-0.5l-17.8,0.1c81.1,2.4,145.8,68.6,146.3,149.7l0.1,21.6
	c0,1.9-0.7,3.8-2.1,5.1c-0.9,1-2.2,1.6-3.5,1.9h22.2c1.3-0.3,2.5-1,3.5-1.9c1.4-1.4,2.1-3.2,2.1-5.2L253.2,622.8z"/>
<path class="st2" d="M253.1,622.8c-0.1-39.9-16.1-78-44.5-106c-8.4-8.4-17.7-15.7-27.8-21.9c-7,27.8-36.8,50.1-75.7,57.3
	c-8.9,1.7-18,2.5-27.1,2.5s-18.1-0.8-27-2.4c-38.7-7.1-68.6-29.3-75.8-56.8c-10.1,6.3-19.5,13.7-27.9,22.2
	c-28.2,28.2-44,66.4-43.8,106.3l0.1,21.7c0.1,2.4,1.3,4.7,3.3,6h340.7c1.3-0.3,2.5-1,3.5-1.9c1.4-1.4,2.1-3.2,2.1-5.2L253.1,622.8z"
	/>
<g>
	<g>
		<g>
			<g>
				<defs>
					<path id="SVGID_1_" d="M253.1,622.8c-0.1-39.9-16.1-78-44.5-106c-8.4-8.4-17.7-15.7-27.8-21.9c-7,27.8-36.8,50.1-75.7,57.3
						c-8.9,1.7-18,2.5-27.1,2.5s-18.1-0.8-27-2.4c-38.7-7.1-68.6-29.3-75.8-56.8c-10.1,6.3-19.5,13.7-27.9,22.2
						c-28.2,28.2-44,66.4-43.8,106.3l0.1,21.7c0.1,2.4,1.3,4.7,3.3,6h340.7c1.3-0.3,2.5-1,3.5-1.9c1.4-1.4,2.1-3.2,2.1-5.2
						L253.1,622.8z"/>
				</defs>
				<clipPath id="SVGID_2_">
					<use xlink:href="#SVGID_1_"  style="overflow:visible;"/>
				</clipPath>
				<g class="st3">
					<path class="st4" d="M254.1,623.6c-0.5-82.7-67.6-149.6-150.3-149.8h-0.5l-17.8,0.1c81.1,2.4,145.8,68.6,146.3,149.7l0.1,21.6
						c0,1.9-0.8,3.8-2.1,5.1c-0.9,1-2.2,1.7-3.5,1.9h22.2c1.3-0.3,2.5-1,3.5-1.9c1.4-1.4,2.1-3.2,2.1-5.1V623.6z"/>
				</g>
			</g>
		</g>
	</g>
</g>
<path class="st5" d="M142.7,645.1c-25.8-5.5-52.8-22.5-74-47.2s-33.5-53.2-33.6-78.2c-0.1-12.8,1.5-25.6,4.6-38
	c0.6-2.3,0.1-4.7-1.3-6.6c-0.6-0.8-1.5-1.5-2.4-2l2.7-0.3c-35.4,3.2-68.3,19.4-93.8,46.1c-28.5,30.3-44.3,70.4-43.9,111.9l0.1,22
	h247.5C148.8,649.1,146.3,645.8,142.7,645.1z"/>
<path class="st6" d="M37.7,476.2c1.4,1.9,1.9,4.3,1.3,6.5c-3.1,12.3-4.7,25-4.6,37.8c0.1,25,12.3,53.2,33.5,77.7
	s48.1,41.4,73.9,46.9c3.5,0.8,6,4,5.9,7.5H170c0-3.3-2-6.2-5.2-7.3c-0.2-0.1-0.5-0.1-0.6-0.2c-25.8-5.4-52.8-22.4-73.9-46.9
	s-33.4-52.9-33.5-77.7c0-12.7,1.5-25.4,4.6-37.8c0.6-2.3,0.1-4.7-1.3-6.5c-1.3-1.8-3.4-2.9-5.7-3H51c-3.7,0-7.3,0.2-10.9,0.5h-0.5
	c-0.5,0-1,0.1-1.5,0.1l-2.7,0.3C36.3,474.7,37.1,475.3,37.7,476.2z"/>
<ellipse class="st7" cx="-26.4" cy="421.2" rx="32.7" ry="63.4"/>
<ellipse class="st7" cx="185.6" cy="421.2" rx="32.7" ry="63.4"/>
<circle class="st8" cx="78.1" cy="302.6" r="153.7"/>
<path class="st0" d="M-28.7,341.1h-0.2c-24.9,0.1-45,20.3-44.9,45.2c0,11.9,4.7,23.4,13.3,31.8c8.6,8.5,15.1,13.1,31.8,13.1h0.2
	c24.9,0,45-20.2,45-45.1S-3.8,340.9-28.7,341.1L-28.7,341.1L-28.7,341.1z"/>
<path class="st0" d="M187.8,340.2h-0.2c-24.9,0.1-45,20.3-44.9,45.2c0,11.9,4.8,23.4,13.3,31.8c8.4,8.4,19.9,13.1,31.8,13.1h0.2
	c24.9,0,45-20.2,45-45.1C232.9,360.4,212.7,340.2,187.8,340.2L187.8,340.2z"/>
<path class="st0" d="M185.9,308.4c-0.1-30.4-10.9-50.6-33.1-61.7c-19.9-10-47-11.2-73.3-11.2s-53.3,1.6-73.2,11.7
	c-22.1,11.2-32.7,31.5-32.7,61.8l0.3,97.4C-25.9,470,21.6,521.6,80,521.6h0.3c58.5-0.2,106-52.2,105.8-115.9L185.9,308.4z"/>
<path class="st9" d="M80.9,471.3c-9,0-17.7-3.4-24.3-9.5c-2.9-2.7-3.2-7.3-0.5-10.2c2.7-2.9,7.3-3.2,10.2-0.5
	c4,3.7,9.2,5.7,14.6,5.6H81c5.4,0,10.6-2,14.5-5.7c2.9-2.7,7.5-2.6,10.2,0.4c2.7,2.9,2.6,7.5-0.4,10.2c-6.6,6.2-15.4,9.6-24.4,9.6
	C81,471.3,81,471.3,80.9,471.3L80.9,471.3z"/>
<path class="st10" d="M51.8,404.2c0-6.4-5.2-11.5-11.6-11.5c-6.4,0-11.5,5.2-11.5,11.6s5.2,11.5,11.6,11.5l0,0
	C46.7,415.7,51.8,410.4,51.8,404.2z"/>
<path class="st8" d="M53.9,385.7c-0.6,0-1.2-0.1-1.8-0.3l-27.3-7.2c-3.9-1-6.2-5-5.2-8.8c1-3.8,5-6.2,8.8-5.2l27.3,7.2
	c3.9,1,6.2,5,5.1,8.9C60,383.6,57.1,385.7,53.9,385.7L53.9,385.7z"/>
<path class="st10" d="M133.4,403.8c0-6.4-5.2-11.5-11.6-11.5s-11.5,5.2-11.5,11.6s5.2,11.5,11.6,11.5l0,0c6.3,0.1,11.5-5,11.5-11.3
	C133.4,404.1,133.4,403.9,133.4,403.8z"/>
<path class="st8" d="M108.2,385.6c-4,0-7.3-3.2-7.3-7.3c0-3.3,2.2-6.2,5.3-7l27.3-7.4c3.9-1.1,7.9,1.2,8.9,5.1s-1.2,7.9-5.1,8.9
	l-27.3,7.4C109.5,385.6,108.8,385.6,108.2,385.6z"/>
<path class="st1" d="M185.1,309.2c-0.1-30.4-10.1-50.6-30.9-61.7c-18.6-10-43.9-11.2-68.5-11.2c-2.3,0-4.6,0-6.9,0.1
	c21.3,0.4,42.2,2.6,58.4,11.2c20.7,11.1,30.9,31.3,30.9,61.7l0.3,97.4c0.2,60.5-39.8,110.4-90.7,115.5c2.8,0.3,5.6,0.4,8.5,0.4h0.3
	c54.7-0.2,99-52.2,98.9-115.9L185.1,309.2z"/>
<path class="st8" d="M77.7,309.1c1.2,1.9,0.6,4.4-1.3,5.6l0,0l0,0c-15.1,9-38.5-1.8-51.9-24.3l-13.3-22.1c-1.2-1.9-0.6-4.4,1.4-5.6
	l0,0l24-14.4c1.9-1.2,4.4-0.5,5.6,1.4c2.6,11.2,6.9,22,12.7,31.9C60.9,291.9,68.6,301.2,77.7,309.1z"/>
<path class="st8" d="M-68.4,310.2c-1.1,2.1,0.7,4.5,3.9,5.1l0,0c25.2,5.5,55.6-10.4,68-35.2l12-24.5c1.1-2.1-0.7-4.5-3.9-5.2
	l-39.8-8.7c-3.2-0.7-6.8,0.5-7.8,2.6c0,11.8-2.8,23.3-8,33.9C-50.7,292.7-60.8,303.4-68.4,310.2z"/>
<path class="st8" d="M228.2,302.2c1.5,1.9,0.6,4.4-2,5.6l0,0c-20.9,8.9-53-2.1-71.3-24.7l-18.1-22.2c-1.5-1.9-0.6-4.4,2-5.6
	l33.1-14.2c2.7-1.1,6.1-0.5,7.7,1.5c3.6,11.7,9.4,22.5,17.1,32C207.1,287.4,219.3,296.4,228.2,302.2z"/>
<path class="st8" d="M158.4,298.4c2.4,3.3,1.6,7.9-1.7,10.3l0,0l0,0c-26.1,18.5-70,1.8-97.5-36.9L32,233.5
	c-2.4-3.3-1.6-7.9,1.7-10.3l0,0l41.4-29.4c3.3-2.4,7.9-1.6,10.3,1.8l0,0c6.2,20,15.5,38.8,27.4,56
	C125.4,269.5,140.8,285.4,158.4,298.4z"/>
<path class="st8" d="M-18,335.4c1,1,0.7,3-0.6,4.3l0,0c-10.7,10.5-29.1,9.1-40.9-3l-11.6-11.8c-1-1-0.7-2.9,0.7-4.3l16.9-16.6
	c1.4-1.4,3.3-1.6,4.3-0.6C-43.6,317.9-32.4,329.4-18,335.4z"/>
<path class="st8" d="M-20.9,316.7c0.6,1.3-0.3,3-2,3.9l0,0c-13.4,6.5-30.5-0.6-37.8-15.8l-7.3-15.1c-0.6-1.3,0.3-3,2-3.9l21.4-10.3
	c1.8-0.8,3.7-0.5,4.2,0.8c0.3,7.5,2.1,14.9,5.3,21.7C-31.8,305.2-26.9,311.6-20.9,316.7z"/>
<path class="st8" d="M182.6,313.2c-0.5,1.4,0.6,2.9,2.5,3.6l0,0c14.3,4.6,30.1-4.8,35.4-20.8l5.1-15.8c0.5-1.4-0.6-2.9-2.5-3.6
	l-22.6-7.3c-1.8-0.6-3.7,0.1-4.1,1.5C197.9,286.2,192.9,301.6,182.6,313.2z"/>
<path class="st8" d="M175.3,334.9c-1.1,0.9-1.1,2.8,0.1,4.3l0,0c9.1,11.5,27.3,12.5,40.2,2.2l12.8-10.1c1.1-0.9,1.1-2.8-0.1-4.3
	l-14.5-18.2c-1.2-1.5-3-1.9-4.1-1.1C202.6,321.2,190.1,331.1,175.3,334.9L175.3,334.9z"/>
<ellipse class="st8" cx="84.9" cy="178.4" rx="88.8" ry="35.9"/>
<ellipse class="st8" cx="2.3" cy="192.4" rx="30.5" ry="24.8"/>
<path class="st1" d="M254,644.6c0,1.9-0.7,3.8-2,5.2c-0.9,0.9-2,1.6-3.3,2h-21c1.3-0.3,2.4-1,3.3-2c1.3-1.4,2-3.2,2-5.2l0.3-19.3
	c7.5-8.7,13.6-18.4,18.1-29c0-0.1,0-0.1,0.1-0.2c1.6,8.8,2.3,17.8,2.3,26.8L254,644.6z"/>
<path class="st0" d="M233.4,644.6c0,1.9-0.8,3.8-2.2,5.1c-1,1-2.3,1.7-3.7,1.9h-31.9c14.2-6.3,27-15.3,37.8-26.4L233.4,644.6
	L233.4,644.6z"/>
<ellipse class="st8" cx="74.5" cy="249.7" rx="102.5" ry="35.8"/>
</svg>
