<?xml version="1.0" encoding="utf-8"?>
<!-- Generator: Adobe Illustrator 23.1.0, SVG Export Plug-In . SVG Version: 6.00 Build 0)  -->
<svg version="1.1" id="Layer_1" xmlns="http://www.w3.org/2000/svg" xmlns:xlink="http://www.w3.org/1999/xlink" x="0px" y="0px"
	 viewBox="0 0 383 508.7" style="enable-background:new 0 0 383 508.7;" xml:space="preserve">
<style type="text/css">
	.st0{fill:#3A1E0B;}
	.st1{fill:#ECEDEF;}
	.st2{fill:#F0BCA6;}
	.st3{fill:#E6B09A;}
	.st4{fill:#E5775A;}
	.st5{clip-path:url(#SVGID_2_);}
	.st6{fill:#DBDCDD;}
	.st7{clip-path:url(#SVGID_4_);}
	.st8{fill:#BA5743;}
	.st9{clip-path:url(#SVGID_6_);}
	.st10{fill:#FFF4F1;}
	.st11{fill:#CCA95A;}
	.st12{fill:#E2A58A;}
	.st13{fill:#868686;}
	.st14{fill:#C6943C;}
	.st15{fill:#F7B93E;}
</style>
<title>adult</title>
<path class="st0" d="M67.9,276.3c5.4-5.6,9.6-12.3,12.4-19.6c1.1-1.1,3.1-0.9,4.5,0.6l17.6,17.2c1.4,1.4,1.7,3.4,0.7,4.5L91,291.3
	c-12.2,12.5-31.4,14-42.5,3.1l0,0c-1.4-1.4-1.7-3.4-0.7-4.5C55.5,286.8,62.3,282.1,67.9,276.3z"/>
<path class="st0" d="M323,292.9c1,1,0.8,3.1-0.7,4.5l0,0c-11.1,10.9-30.2,9.5-42.5-3.1l-12-12.3c-1-1.1-0.8-3.1,0.7-4.5l17.6-17.2
	c1.4-1.4,3.4-1.6,4.5-0.6C296.4,274.8,308.1,286.8,323,292.9z"/>
<path class="st1" d="M70.8,508.1H17.8c-6.3,0-11.5-5.1-11.5-11.5v-84c0.1-26.4,21.5-47.7,47.8-47.8h16.7c6.3,0,11.5,5.1,11.5,11.5
	v120.3C82.3,503.1,77.2,508.1,70.8,508.1z"/>
<path class="st2" d="M15.3,507.9h353.9c1.4-0.3,2.6-1,3.6-2c1.4-1.4,2.2-3.3,2.2-5.4l-0.1-22.5c-0.5-85.9-70.2-155.3-156.1-155.6
	h-0.5l-51,0.2c-86,0.6-155.5,70.6-155.5,156.6l0.1,22.5C11.9,504.1,13.1,506.5,15.3,507.9z"/>
<path class="st3" d="M375,478.1c-0.5-85.9-70.2-155.3-156-155.6h-0.5l-18.4,0.1c84.3,2.5,151.4,71.2,151.9,155.5l0.1,22.5
	c0,2-0.8,3.9-2.2,5.3c-1,1-2.2,1.7-3.6,2h23c1.4-0.3,2.6-1,3.6-2c1.4-1.4,2.2-3.3,2.2-5.3L375,478.1z"/>
<path class="st4" d="M374.9,478.1c-0.1-41.4-16.7-81-46.2-110.1c-3-3-6-5.7-9.1-8.3c-23.5,26.5-71.3,44.7-126.2,44.7
	S90.7,386.3,67.2,359.8c-3.4,2.9-6.7,5.9-10,9.2c-29.3,29.2-45.6,69-45.5,110.3l0.1,22.5c0.1,2.5,1.4,4.8,3.4,6.2H369
	c1.4-0.3,2.6-1,3.6-2c1.4-1.4,2.2-3.4,2.2-5.4V478.1z"/>
<g>
	<g>
		<defs>
			<path id="SVGID_1_" d="M374.9,478.1c-0.1-41.4-16.7-81-46.2-110.1c-3-3-6-5.7-9.1-8.3c-23.5,26.5-71.3,44.7-126.2,44.7
				S90.7,386.3,67.2,359.8c-3.4,2.9-6.7,5.9-10,9.2c-29.3,29.2-45.6,69-45.5,110.3l0.1,22.5c0.1,2.5,1.4,4.8,3.4,6.2H369
				c1.4-0.3,2.6-1,3.6-2c1.4-1.4,2.2-3.4,2.2-5.4V478.1z"/>
		</defs>
		<clipPath id="SVGID_2_">
			<use xlink:href="#SVGID_1_"  style="overflow:visible;"/>
		</clipPath>
		<g class="st5">
			<path class="st6" d="M81.4,391.9H54.7c-12.8,0-23.2-10.4-23.2-23.2v-0.2c0-12.8,10.4-23.2,23.2-23.2h26.8
				c12.8,0,23.2,10.4,23.2,23.2v0.2C104.7,381.5,94.3,391.9,81.4,391.9z"/>
		</g>
	</g>
</g>
<g>
	<g>
		<defs>
			<path id="SVGID_3_" d="M374.9,478.1c-0.1-41.4-16.7-81-46.2-110.1c-3-3-6-5.7-9.1-8.3c-23.5,26.5-71.3,44.7-126.2,44.7
				S90.7,386.3,67.2,359.8c-3.4,2.9-6.7,5.9-10,9.2c-29.3,29.2-45.6,69-45.5,110.3l0.1,22.5c0.1,2.5,1.4,4.8,3.4,6.2H369
				c1.4-0.3,2.6-1,3.6-2c1.4-1.4,2.2-3.4,2.2-5.4V478.1z"/>
		</defs>
		<clipPath id="SVGID_4_">
			<use xlink:href="#SVGID_3_"  style="overflow:visible;"/>
		</clipPath>
		<g class="st7">
			<path class="st8" d="M376.5,479.6C376,393.7,306.3,324.3,220.4,324h-0.5l-18.5,0.1c84.3,2.4,151.5,71.2,152,155.5l0.1,22.5
				c0,2-0.8,3.9-2.2,5.3c-1,1-2.3,1.7-3.6,2h23c1.4-0.3,2.6-1,3.6-2c1.4-1.4,2.2-3.3,2.2-5.3V479.6z"/>
		</g>
	</g>
</g>
<g>
	<g>
		<defs>
			<path id="SVGID_5_" d="M374.9,478.1c-0.1-41.4-16.7-81-46.2-110.1c-3-3-6-5.7-9.1-8.3c-23.5,26.5-71.3,44.7-126.2,44.7
				S90.7,386.3,67.2,359.8c-3.4,2.9-6.7,5.9-10,9.2c-29.3,29.2-45.6,69-45.5,110.3l0.1,22.5c0.1,2.5,1.4,4.8,3.4,6.2H369
				c1.4-0.3,2.6-1,3.6-2c1.4-1.4,2.2-3.4,2.2-5.4V478.1z"/>
		</defs>
		<clipPath id="SVGID_6_">
			<use xlink:href="#SVGID_5_"  style="overflow:visible;"/>
		</clipPath>
		<g class="st9">
			<path class="st10" d="M82.3,389.9H55.7c-12.8,0-23.2-10.4-23.2-23.2v-0.2c0-12.8,10.4-23.2,23.2-23.2h26.8
				c12.8,0,23.2,10.4,23.2,23.2v0.2C105.7,379.5,95.3,389.9,82.3,389.9z"/>
		</g>
	</g>
</g>
<path class="st2" d="M92.1,507.5L92.1,507.5c0,0.7-0.6,1.3-1.3,1.3l0,0H13.1c-0.7,0-1.3-0.6-1.3-1.3c0,0,0,0,0-0.1v-50.2
	c0-6.4,1.5-12.7,4.5-18.4c0.8-1.5,2-2.6,3.5-3.3c0.5-0.2,1.1-0.1,1.5,0.3l70.5,70.7C91.9,506.9,92.1,507.1,92.1,507.5z"/>
<path class="st10" d="M125.8,500.1c26.8-5.6,54.8-23.2,76.8-48.7s34.7-54.9,34.8-80.7c0.1-13.2-1.5-26.4-4.8-39.2
	c-0.6-2.4-0.1-4.8,1.3-6.8c0.7-0.9,1.5-1.6,2.5-2.1l-2.8-0.3c36.7,3.4,70.9,20,97.4,47.6c29.6,31.1,46,72.4,45.6,115.4l-0.1,22.7
	H119.8C119.8,504.3,122.3,501,125.8,500.1z"/>
<path class="st11" d="M96.8,508L96.8,508c-0.1-3.4,2.1-6.5,5.4-7.6C98.8,501.6,96.8,504.6,96.8,508z"/>
<path class="st11" d="M233.6,322.5c-0.5,0-1-0.1-1.5-0.1C232.6,322.4,233.1,322.4,233.6,322.5z"/>
<path class="st11" d="M231.8,322.3c-3.7-0.3-7.5-0.5-11.3-0.5C224.3,321.8,227.9,322,231.8,322.3z"/>
<path class="st1" d="M233.9,324.9c-1.4,2-1.9,4.4-1.3,6.8c3.3,12.8,4.9,26,4.8,39.2c-0.1,25.9-12.8,55.3-34.8,80.7
	s-49.9,43-76.8,48.7c-3.6,0.8-6.2,4.1-6.1,7.8H96.7c0-3.4,2.1-6.5,5.4-7.5c0.2-0.1,0.5-0.1,0.7-0.2c26.8-5.6,54.8-23.2,76.8-48.7
	s34.7-54.9,34.8-80.7c0-13.2-1.6-26.4-4.8-39.2c-0.6-2.3-0.1-4.8,1.3-6.8c1.4-1.9,3.6-3,5.9-3.1h3.5c3.8,0,7.6,0.2,11.3,0.5h0.5
	c0.5,0,1.1,0.1,1.5,0.1c1,0.1,1.8,0.2,2.8,0.3C235.4,323.3,234.6,324,233.9,324.9z"/>
<ellipse class="st0" cx="192.1" cy="155.3" rx="159.6" ry="149.4"/>
<path class="st2" d="M75.7,185.1h-0.2c-25.9,0.1-46.7,21.1-46.7,47c0,12.4,4.9,24.3,13.8,33c8.9,8.8,15.7,13.6,33,13.6h0.2
	c25.8,0,46.7-21,46.7-46.8S101.6,185.1,75.7,185.1L75.7,185.1L75.7,185.1z"/>
<path class="st2" d="M305.5,184.4h-0.2c-25.9,0.1-46.7,21.1-46.7,47c0,12.4,4.9,24.3,13.8,33c8.8,8.7,20.6,13.6,33,13.6h0.2
	c25.8,0,46.7-21,46.7-46.8S331.3,184.4,305.5,184.4L305.5,184.4z"/>
<path class="st2" d="M298.1,153.9c-0.1-31.2-11.5-51.8-34.9-63.2c-21-10.3-49.5-11.6-77.2-11.6s-56.1,1.6-77.1,12
	c-23.2,11.5-34.4,32.3-34.4,63.3l0.3,100c0.2,65.2,50.2,118.1,111.7,118.1h0.3c61.6-0.2,111.6-53.5,111.4-118.9L298.1,153.9z"/>
<path class="st12" d="M195.1,331.9c-9.4,0-18.4-3.5-25.3-9.8c-3.2-2.6-3.7-7.4-1-10.6c2.6-3.2,7.4-3.7,10.6-1
	c0.2,0.2,0.4,0.3,0.6,0.5c4.1,3.8,9.5,5.9,15.1,5.8h0.1c5.6,0,11-2.1,15.1-5.9c3-2.8,7.8-2.7,10.6,0.4c2.8,3,2.7,7.8-0.4,10.6l0,0
	C213.6,328.3,204.6,331.9,195.1,331.9L195.1,331.9z"/>
<path class="st13" d="M164.9,262.1c0-6.6-5.4-12-12-11.9c-6.6,0-12,5.4-11.9,12c0,6.6,5.4,11.9,12,12
	C159.6,274.1,164.9,268.8,164.9,262.1z"/>
<path class="st0" d="M166.9,243.1c-0.6,0-1.3-0.1-1.9-0.3l-28.3-7.4c-4-0.9-6.6-5-5.6-9s5-6.6,9-5.6c0.1,0,0.3,0.1,0.4,0.1l28.3,7.5
	c4,1.2,6.3,5.3,5.1,9.3C173.1,240.8,170.3,243,166.9,243.1z"/>
<path class="st13" d="M249.6,261.8c0-6.6-5.4-12-12-11.9c-6.6,0-12,5.4-11.9,12c0,6.6,5.4,11.9,12,12c6.5,0.1,11.9-5.2,12-11.7
	C249.6,262.1,249.6,262,249.6,261.8z"/>
<path class="st0" d="M223.4,242.9c-4.2,0-7.5-3.4-7.5-7.6c0-3.4,2.3-6.3,5.5-7.2l28.3-7.7c4-1.2,8.2,1,9.5,4.9c1.2,4-1,8.2-4.9,9.5
	c-0.2,0.1-0.3,0.1-0.5,0.1l-28.3,7.6C224.9,242.8,224.1,242.9,223.4,242.9z"/>
<path class="st3" d="M298.1,153.9c-0.1-31.2-9.8-51.8-29.7-63.2c-18-10.3-42.3-11.6-66-11.6c-2.2,0-4.4,0-6.7,0.1
	c20.5,0.4,40.7,2.6,56.2,11.5c19.9,11.4,29.7,32,29.7,63.2l0.3,99.9c0.1,62.1-38.3,113.2-87.2,118.5c2.7,0.3,5.5,0.4,8.2,0.4h0.3
	c52.6-0.2,95.3-53.5,95.2-118.9L298.1,153.9z"/>
<path class="st14" d="M52,365.6c0-3.8,1.3-7.4,3.6-10.3c-7.4,5.4-9,15.7-3.6,23.1s15.7,9,23.1,3.6c1.2-0.9,2.2-1.9,3.2-3
	c-7.3,5.4-17.6,3.9-23.1-3.4C53.2,372.6,52,369.1,52,365.6z"/>
<path class="st15" d="M65.4,352.1c-3.5,0-6.9,1.2-9.8,3.3c-5.7,7.1-4.7,17.5,2.4,23.2c5.9,4.8,14.2,4.9,20.3,0.4
	c5.7-7.1,4.6-17.5-2.5-23.2C72.8,353.4,69.3,352.1,65.4,352.1L65.4,352.1z"/>
<circle class="st15" cx="65.4" cy="368.6" r="16.5"/>
<circle class="st15" cx="65.4" cy="368.6" r="16.5"/>
<path class="st0" d="M220.9,166.4c6.1-10.3,10.5-21.4,13.2-33.1c1.2-2,3.8-2.7,5.8-1.5l0,0l24.9,14.9c2,1.2,2.7,3.8,1.5,5.8l0,0
	l-13.7,23c-14,23.3-38.3,34.6-53.9,25.3l0,0c-2-1.2-2.7-3.8-1.5-5.8c0,0,0,0,0-0.1C206.4,186.8,214.6,177.2,220.9,166.4z"/>
<path class="st0" d="M168.6,129.7c12.4-17.8,22-37.4,28.5-58.1c2.4-3.5,7.2-4.3,10.7-1.9c0,0,0,0,0.1,0l43,30.5
	c3.5,2.4,4.3,7.2,1.8,10.7l0,0l-28.2,39.7c-28.6,40.3-74.1,57.6-101.3,38.3l0,0c-3.5-2.4-4.3-7.2-1.8-10.7l0,0
	C139.4,164.7,155.4,148.3,168.6,129.7z"/>
<path class="st0" d="M105.9,186.2c1.1,1.1,0.8,3.1-0.7,4.5l0,0c-11.1,10.9-30.2,9.5-42.5-3.1l-12-12.3c-1-1.1-0.8-3.1,0.7-4.5
	l17.6-17.2c1.4-1.4,3.4-1.6,4.5-0.6C79.3,168.1,91.1,180.1,105.9,186.2z"/>
<path class="st0" d="M287.9,172.6c5.4-5.6,9.6-12.3,12.4-19.6c1-1.1,3.1-0.9,4.5,0.6l17.6,17.2c1.4,1.4,1.7,3.4,0.7,4.5L311,187.6
	c-12.3,12.5-31.4,14-42.5,3.1l0,0c-1.4-1.4-1.7-3.4-0.7-4.5C275.4,183.1,282.1,178.5,287.9,172.6z"/>
<path class="st0" d="M84.4,149.7c-3.1-7.2-4.7-14.9-4.8-22.7c-0.6-1.4-2.6-1.8-4.4-1.1l-22.5,10c-1.8,0.9-2.8,2.6-2.2,4l7.1,15.8
	c7.2,16,24.6,23.9,38.8,17.6l0,0c1.8-0.9,2.8-2.6,2.2-4C92.6,163.9,87.8,157.2,84.4,149.7z"/>
<path class="st0" d="M272.5,171.3c-0.6,1.4,0.3,3.1,2.2,4l0,0c14.2,6.3,31.6-1.6,38.8-17.6l7.1-15.8c0.6-1.4-0.3-3.1-2.2-4l-22.5-10
	c-1.9-0.8-3.8-0.3-4.5,1.1C291.4,145.1,284.5,160.5,272.5,171.3L272.5,171.3z"/>
<path class="st0" d="M106.6,43.8h171.2c27.3,0,49.5,22.2,49.5,49.5V117c0,27.3-22.2,49.5-49.5,49.5H106.6
	c-27.3,0-49.5-22.2-49.5-49.5V93.3C57,65.9,79.3,43.8,106.6,43.8z"/>
</svg>
