<?xml version="1.0" encoding="utf-8"?>
<!-- Generator: Adobe Illustrator 19.0.0, SVG Export Plug-In . SVG Version: 6.00 Build 0)  -->
<svg version="1.1" id="Layer_1" xmlns="http://www.w3.org/2000/svg" xmlns:xlink="http://www.w3.org/1999/xlink" x="0px" y="0px"
	 viewBox="-49 141 512 512" style="enable-background:new -49 141 512 512;" xml:space="preserve">
<style type="text/css">
	.st0{fill:#DFBB24;}
	.st1{fill:#EDCB48;}
	.st2{fill:#FEE361;}
	.st3{fill:#FFA733;}
	.st4{fill:#CC7400;}
	.st5{fill:#BB844C;}
	.st6{fill:#D4872F;}
</style>
<g>
	<path class="st0" d="M28.2,493.7c-0.5,0-1.1,0-1.6-0.1c-39.3-6.5-69-57.9-69-119.6c0-119.2,100.3-165.5,142-65.5
		c4.7,11.1,2.6,26-4.5,33.3c-7.1,7.2-16.7,4.1-21.4-7c-25.1-60.1-85.2-32.3-85.2,39.3c0,37,17.8,67.9,41.4,71.8
		c8.5,1.4,14.6,13.2,13.7,26.4C42.7,484.5,36,493.7,28.2,493.7z"/>
	<path class="st0" d="M239.4,243.6c-0.2,0.2-11.2,12.9-18,30.9c-2.9,7.9-5.1,17-5.1,26.5H83.7c0-9.5-2.1-18.5-5.1-26.5
		c-6.7-18.1-17.8-30.7-18-30.9c-7.6-8.5-1.6-22.1,9.9-22.1h159C240.9,221.5,246.9,235.1,239.4,243.6z"/>
</g>
<path class="st1" d="M239.4,243.6c-0.2,0.2-11.2,12.9-18,30.9c-2.9,7.9-5.1,17-5.1,26.5h-66.2v-79.5h79.4
	C240.9,221.5,246.9,235.1,239.4,243.6z"/>
<path class="st1" d="M254.1,548.3c-4.9,8.7-10.1,17.4-15.3,26.5c-5.2,9-10.4,18.4-15.4,28.4c-8.6,17.2-21.8,24.6-36.8,24.6h-73.3
	c-26.6,0-35.2-21.4-39.7-30.4c-3.8-7.7-8-15.2-12.3-22.6c-5.1-8.9-10.4-17.7-15.5-26.5H254.1L254.1,548.3z"/>
<path class="st2" d="M254.1,548.3c-4.9,8.7-10.1,17.4-15.3,26.5c-5.2,9-10.4,18.4-15.4,28.4c-8.6,17.2-21.8,24.6-36.8,24.6h-36.7
	v-79.5H254.1z"/>
<path class="st2" d="M274.9,503.9c-3.4,9.9-7.7,19.5-12.5,29.1c-2.6,5.1-5.4,10.2-8.3,15.3c-4.9,8.7-10.1,17.4-15.3,26.5H61.3
	c-5.1-8.9-10.4-17.7-15.5-26.5c-2.9-5-5.7-10.1-8.3-15.2c-4.9-9.5-9.2-19.1-12.5-29.2l60.9-92.7c2.4-3.7,6.5-5.9,11-5.9
	c4.4,0,8.6,2.2,11,5.8l42,63l42-63c2.5-3.6,6.6-5.8,11-5.8c4.5,0,8.7,2.2,11,5.9L274.9,503.9z"/>
<path class="st1" d="M274.9,503.9c-3.4,9.9-7.7,19.5-12.5,29.1c-2.6,5.1-5.4,10.2-8.3,15.3c-4.9,8.7-10.1,17.4-15.3,26.5H150V474
	l42-63c2.5-3.6,6.6-5.8,11-5.8c4.5,0,8.7,2.2,11,5.9L274.9,503.9z"/>
<path class="st3" d="M282.5,460c0,15.9-2.8,30.3-7.5,44c-3.4,9.9-7.7,19.5-12.5,29.1l-59.6-90.6L161,505.3c-2.5,3.6-6.8,5.5-11,5.5
	s-8.6-1.9-11-5.5l-41.9-62.8l-59.6,90.6c-4.9-9.5-9.2-19.1-12.5-29.2c-4.6-13.6-7.5-28.1-7.5-43.9c0-55.9,41.7-100.1,43.5-101.9
	c0,0,1.2-1.5,3.2-4.1c3.7-5.1,10-14.6,14.5-26.5h142.7c4.4,11.8,10.7,21.3,14.5,26.5c1.8,2.4,3.1,3.9,3.4,4.3
	C243,362.2,282.5,405.6,282.5,460z"/>
<g>
	<path class="st4" d="M282.5,460c0,15.9-2.8,30.3-7.5,44c-3.4,9.9-7.7,19.5-12.5,29.1l-59.6-90.6L161,505.3c-2.5,3.6-6.8,5.5-11,5.5
		V327.5h71.4c4.4,11.8,10.7,21.3,14.5,26.5c1.8,2.4,3.1,3.9,3.4,4.3C243,362.2,282.5,405.6,282.5,460z"/>
	<path class="st4" d="M202.8,513.2c-7.3,0-13.4-6.1-13.4-13.4s6.1-13.4,13.4-13.4s13.4,6.1,13.4,13.4
		C216.2,507.2,210.2,513.2,202.8,513.2z M202.8,499.8L202.8,499.8L202.8,499.8z"/>
</g>
<path class="st3" d="M96.9,513.2c-7.3,0-13.4-6.1-13.4-13.4c0-7.3,6-13.3,13.4-13.3c7.3,0,13.4,6.1,13.4,13.4
	C110.2,507.2,104.2,513.2,96.9,513.2z M110,499.8L110,499.8L110,499.8z M96.9,499.8L96.9,499.8L96.9,499.8z"/>
<path class="st1" d="M235.8,354H64.1c3.7-5.1,10-14.6,14.5-26.5c2.9-7.9,5.1-17,5.1-26.5s-2.1-18.5-5.1-26.5h142.7
	c-2.9,7.9-5.1,17-5.1,26.5s2.1,18.5,5.1,26.5C225.8,339.3,232,348.8,235.8,354z"/>
<path class="st0" d="M235.8,354H150v-79.5h71.4c-2.9,7.9-5.1,17-5.1,26.5s2.1,18.5,5.1,26.5C225.8,339.3,232,348.8,235.8,354z"/>
<path class="st1" d="M150,433.5L150,433.5c-7.3,0-13.2-5.9-13.2-13.2l0,0c0-7.3,5.9-13.2,13.2-13.2l0,0c7.3,0,13.2,5.9,13.2,13.2
	l0,0C163.2,427.5,157.3,433.5,150,433.5z"/>
<path class="st0" d="M163.2,420.2c0-7.3-5.9-13.2-13.2-13.2v26.5C157.3,433.5,163.2,427.5,163.2,420.2z"/>
<path class="st2" d="M444.7,447.6v34.7c0,2.9-0.2,5.7-0.6,8.4l-62.9,11.9H381l-63-11.3c-0.3-3-0.7-6-0.7-9v-34.7
	c0-3.2,2.5-5.8,5.8-5.8h115.8C442.1,441.8,444.7,444.3,444.7,447.6z"/>
<path class="st1" d="M444.7,447.6v34.7c0,2.9-0.2,5.7-0.6,8.4l-62.9,11.9H381v-60.9h57.9C442.1,441.8,444.7,444.3,444.7,447.6z"/>
<path class="st0" d="M408.2,594.8c-6.3-6.4-9.8-15.8-9.8-24.6v-6.8c0-3.2-2.5-5.8-5.8-5.8h-23.2c-3.2,0-5.8,2.5-5.8,5.8v6.8
	c0,8.8-3.6,18.3-9.8,24.6c-1.7,1.6-2.2,4.1-1.3,6.3c0.9,2.2,3,3.6,5.3,3.6h46.3c2.3,0,4.4-1.4,5.3-3.6
	C410.4,598.8,410,596.4,408.2,594.8z"/>
<path class="st2" d="M409.5,601c-0.9,2.2-3,3.6-5.3,3.6H381v-47.1h11.6c3.2,0,5.8,2.5,5.8,5.8v6.8c0,8.8,3.6,18.3,9.8,24.6
	C410,596.4,410.4,598.8,409.5,601z"/>
<path class="st5" d="M392.6,534.4h-23.2c-9.6,0-17.4,7.8-17.4,17.4s7.8,17.4,17.4,17.4h23.2c9.6,0,17.4-7.8,17.4-17.4
	C410,542.1,402.2,534.4,392.6,534.4z"/>
<path class="st6" d="M410,551.8c0,9.6-7.8,17.4-17.4,17.4H381v-34.7h11.6C402.2,534.4,410,542.1,410,551.8z"/>
<path class="st2" d="M404.2,593h-46.3c-9.6,0-17.4,7.8-17.4,17.4c0,9.6,7.8,17.4,17.4,17.4h46.3c9.6,0,17.4-7.8,17.4-17.4
	C421.5,600.8,413.8,593,404.2,593z"/>
<path class="st0" d="M421.5,610.4c0,9.6-7.8,17.4-17.4,17.4h-23.2v-34.7h23.2C413.8,593,421.5,600.8,421.5,610.4z"/>
<path class="st1" d="M444.1,490.8c-4.2,31-30.8,55.2-63.1,55.2c-32.1,0-58.6-24-63-54.6l12.7-12.8c2.3-2.3,6.1-2.3,8.5,0l18.9,19
	l19-19c1-1,2.5-1.6,3.9-1.7c1.6-0.1,3.2,0.5,4.5,1.7l18.9,19l19-19c2.3-2.3,6.1-2.3,8.5,0L444.1,490.8z"/>
<path class="st0" d="M444.1,490.8c-4.2,31-30.8,55.2-63.1,55.2v-69.2c1.6-0.1,3.2,0.5,4.5,1.7l18.9,19l19-19c2.3-2.3,6.1-2.3,8.5,0
	L444.1,490.8z"/>
<path class="st0" d="M456.3,441.8c0,6.4-5.2,11.6-11.6,11.6H317.4c-6.4,0-11.6-5.2-11.6-11.6s5.2-11.6,11.6-11.6h127.3
	C451.1,430.2,456.3,435.4,456.3,441.8z"/>
<path class="st2" d="M456.3,441.8c0,6.4-5.2,11.6-11.6,11.6H381v-23.2h63.7C451.1,430.2,456.3,435.4,456.3,441.8z"/>
</svg>
