<?xml version="1.0" encoding="utf-8"?>
<!-- Generator: Adobe Illustrator 19.0.0, SVG Export Plug-In . SVG Version: 6.00 Build 0)  -->
<svg version="1.1" id="Layer_1" xmlns="http://www.w3.org/2000/svg" xmlns:xlink="http://www.w3.org/1999/xlink" x="0px" y="0px"
	 viewBox="90 -90 792 792" style="enable-background:new 90 -90 792 792;" xml:space="preserve">
<style type="text/css">
	.st0{fill:#9C8156;}
	.st1{opacity:0.75;}
	.st2{fill:#ED1C24;}
	.st3{fill:none;}
	.st4{opacity:0.6;}
	.st5{fill:#39B54A;}
	.st6{opacity:0.41;}
	.st7{fill:#F7941E;}
	.st8{fill:#FFFFFF;}
	.st9{fill:#FFD15D;}
	.st10{fill:#010101;fill-opacity:0;stroke:#010101;stroke-opacity:0;}
	.st11{fill:#F3715B;}
	.st12{fill:#FBBF12;}
	.st13{fill:#F47822;}
	.st14{fill:#E63B51;}
	.st15{fill:#B7B9DD;}
	.st16{fill:#9B9ECF;}
	.st17{fill:#FED401;}
	.st18{fill:#F99F1B;}
	.st19{fill:#F8BCCC;}
	.st20{fill:#D1EDF6;}
	.st21{fill:#58575D;}
	.st22{fill:#F6A2B9;}
	.st23{fill:#FFCF56;}
	.st24{fill:#E889B8;}
	.st25{fill:#D670AC;}
	.st26{fill:#010101;}
</style>
<polygon class="st0" points="289.6,702 92.9,306 289.6,-90 683.1,-90 879.8,306 683.1,702 "/>
<g id="XMLID_1_" class="st1">
	<circle id="XMLID_68_" class="st2" cx="390.3" cy="306" r="300.3"/>
	<circle id="XMLID_67_" class="st3" cx="390.3" cy="306" r="300.3"/>
</g>
<g id="XMLID_78_" class="st4">
	<circle id="XMLID_80_" class="st5" cx="583.1" cy="306.6" r="299.8"/>
	<circle id="XMLID_79_" class="st3" cx="583.1" cy="306.6" r="299.8"/>
</g>
<g id="XMLID_75_" class="st6">
	<g id="XMLID_76_">
		<path id="XMLID_77_" class="st7" d="M519.3,205.8L686,502l166.7-296.2H519.3L519.3,205.8z M581.8,242.8h208.3L686,428L581.8,242.8
			z"/>
	</g>
</g>
<g id="XMLID_43_" class="st6">
	<g id="XMLID_44_">
		<path id="XMLID_45_" class="st8" d="M118,202.1l171.6,305.1l171.6-305.1H118L118,202.1z M182.3,240.3h214.5L289.6,430.9
			L182.3,240.3z"/>
	</g>
</g>
<g id="XMLID_3_">
	<g id="XMLID_4_">
		<g id="XMLID_28_">
			<g id="XMLID_33_">
				<path id="d1wQkeOqWx" class="st9" d="M282.1,197.9c-15.9-1.3-23.9,6.7-36.4,16.3c-3.4,2.5-3.7,6.1-7.8,9.4
					c-5,4.2-11.8,20-17.7,17.4c-2.5-1.3-13.7,6.9-17.4,6c-9.7-2.2-20.6,0.2-25.4,1.2c-4.8,1-20.5,4.6-23.9,5.1
					c-12.6,1.8-22.5-1.8-23.9,1.5c0,0-3-26.9-8.5-24.9c0,0,21.2-23.6,16.2-58.3c0,0,8.3-27.3,25-32.7c0,0,12.1-7.1,16.8-2.1
					c4.6,5,25.6,3.4,25.6,3.4s7.9,1.8,11.6,3.5c3.8,1.7,8.4-4.7,8.4-4.7s3.5-6.3-2.4-6.7c0,0,4.6-4.6,0-8.7
					c-1.5-2.8-12.1-13-13.7-15.8c0,0,1-7.1-26.9,0c-28,7.6-23.8-0.1-40.9,15.9c-17.1,15.4-40.7,61.7-40.7,61.7s-14.2,40.9-8.8,71
					c1.3,7.5,2.1,15,1.7,22.6c0,0.4,0,0.8,0,1.7c-0.4,4.2,2.5,2.2,7.1,3.9c6.7,2.9,15.1-1,22.2-2.7c4.6-0.8,8.9-8.8,11.8-7.5
					c5.4,2.1,42.6,8.6,91.5-9.7c5.4-2.1,14.8,6.1,20.2,3.2c5.8-3.4,8,7,15.9,29.9c1.9,0,11.5,0,28.8,0V194.6
					C287.1,197.1,284.3,198.1,282.1,197.9z"/>
			</g>
			<g id="XMLID_29_">
				<g id="XMLID_30_">
					<path id="d1wQkeOqWx_1_" class="st10" d="M282.1,197.9c-15.9-1.3-23.9,6.7-36.4,16.3c-3.4,2.5-3.7,6.1-7.8,9.4
						c-5,4.2-11.8,20-17.7,17.4c-2.5-1.3-13.7,6.9-17.4,6c-9.7-2.2-20.6,0.2-25.4,1.2c-4.8,1-20.5,4.6-23.9,5.1
						c-12.6,1.8-22.5-1.8-23.9,1.5c0,0-3-26.9-8.5-24.9c0,0,21.2-23.6,16.2-58.3c0,0,8.3-27.3,25-32.7c0,0,12.1-7.1,16.8-2.1
						c4.6,5,25.6,3.4,25.6,3.4s7.9,1.8,11.6,3.5c3.8,1.7,8.4-4.7,8.4-4.7s3.5-6.3-2.4-6.7c0,0,4.6-4.6,0-8.7
						c-1.5-2.8-12.1-13-13.7-15.8c0,0,1-7.1-26.9,0c-28,7.6-23.8-0.1-40.9,15.9c-17.1,15.4-40.7,61.7-40.7,61.7s-14.2,40.9-8.8,71
						c1.3,7.5,2.1,15,1.7,22.6c0,0.4,0,0.8,0,1.7c-0.4,4.2,2.5,2.2,7.1,3.9c6.7,2.9,15.1-1,22.2-2.7c4.6-0.8,8.9-8.8,11.8-7.5
						c5.4,2.1,42.6,8.6,91.5-9.7c5.4-2.1,14.8,6.1,20.2,3.2c5.8-3.4,8,7,15.9,29.9c1.9,0,11.5,0,28.8,0V194.6
						C287.1,197.1,284.3,198.1,282.1,197.9z"/>
				</g>
			</g>
		</g>
		<g id="XMLID_22_">
			<g id="XMLID_27_">
				<path id="b7BsxELNbt" class="st11" d="M176.5,132.3c0.4,0,1.3,0,1.7,0c0.8,0,1.3,0,2.1,0c1.7,0,3.8-0.4,5.4-0.8
					c0.8-0.4,2.1-0.8,2.9-1.3c0.4,0,0.8-0.4,1.3-0.8c0.4,0,0.4-0.4,0.8-0.4c0-0.1,0.2-0.2,0.4-0.4l0.8-0.4c0.3-0.3,0.4-0.4,0.4-0.4
					c0.4-0.4,0.8-0.8,1.3-1.3c0.4,0,0.4-0.4,0.8-0.4c0.1-0.1,0.8-0.4,0.8-0.4c0.4,0,0.4-0.4,0.8-0.4s0.4-0.4,0.8-0.4
					c1.3-0.4,2.1-0.4,3.4-0.4c0.8,0,2.1,0,2.9,0.4c0.8,0,1.7,0.4,2.1,0.8c0.8,0.4,1.3,0.4,1.7,0.8c0.8,0.4,1.3,0.8,1.3,0.8
					s-0.4,0-1.7-0.4c-0.4,0-1.3,0-1.7-0.4c-0.8,0-1.3,0-2.1-0.4c-0.8,0-1.7,0-2.5,0c-0.4,0-0.4,0-0.8,0s-0.4,0-0.8,0
					s-0.8,0.4-1.3,0.4c-0.4,0-0.4,0-0.8,0.4c0,0-0.4,0-0.4,0.4c-0.1,0.1-0.2,0.2-0.4,0.4l-0.4,0.4l-0.4,0.4l0,0l0,0l0,0l0,0l0,0l0,0
					c-0.5,0.3-0.8,0.4-0.8,0.4c-0.4,0.4-0.4,0.4-0.8,0.8c-0.1,0.1-0.4,0.2-0.8,0.4c-0.5,0.3-0.8,0.4-0.8,0.4c-0.4,0-0.4,0.4-0.8,0.4
					c0,0.4-0.4,0.8-1.3,0.8c-0.4,0.4-1.3,0.4-1.7,0.4s-1.3,0.4-1.7,0.4c-1.3,0.4-2.1,0.4-2.9,0.4c-0.8,0-2.1,0-2.9,0
					c-0.8,0-1.7,0-2.5-0.4c-0.8,0-1.3-0.4-1.7-0.4c-0.4,0.4-0.4,0.4-1.3,0l0,0C175.1,132.3,175.7,132.3,176.5,132.3z"/>
			</g>
			<g id="XMLID_23_">
				<g id="XMLID_24_">
					<path id="b7BsxELNbt_1_" class="st10" d="M176.5,132.3c0.4,0,1.3,0,1.7,0c0.8,0,1.3,0,2.1,0c1.7,0,3.8-0.4,5.4-0.8
						c0.8-0.4,2.1-0.8,2.9-1.3c0.4,0,0.8-0.4,1.3-0.8c0.4,0,0.4-0.4,0.8-0.4c0-0.1,0.2-0.2,0.4-0.4l0.8-0.4c0.3-0.3,0.4-0.4,0.4-0.4
						c0.4-0.4,0.8-0.8,1.3-1.3c0.4,0,0.4-0.4,0.8-0.4c0.1-0.1,0.8-0.4,0.8-0.4c0.4,0,0.4-0.4,0.8-0.4s0.4-0.4,0.8-0.4
						c1.3-0.4,2.1-0.4,3.4-0.4c0.8,0,2.1,0,2.9,0.4c0.8,0,1.7,0.4,2.1,0.8c0.8,0.4,1.3,0.4,1.7,0.8c0.8,0.4,1.3,0.8,1.3,0.8
						s-0.4,0-1.7-0.4c-0.4,0-1.3,0-1.7-0.4c-0.8,0-1.3,0-2.1-0.4c-0.8,0-1.7,0-2.5,0c-0.4,0-0.4,0-0.8,0s-0.4,0-0.8,0
						s-0.8,0.4-1.3,0.4c-0.4,0-0.4,0-0.8,0.4c0,0-0.4,0-0.4,0.4c-0.1,0.1-0.2,0.2-0.4,0.4l-0.4,0.4l-0.4,0.4l0,0l0,0l0,0l0,0l0,0
						l0,0c-0.5,0.3-0.8,0.4-0.8,0.4c-0.4,0.4-0.4,0.4-0.8,0.8c-0.1,0.1-0.4,0.2-0.8,0.4c-0.5,0.3-0.8,0.4-0.8,0.4
						c-0.4,0-0.4,0.4-0.8,0.4c0,0.4-0.4,0.8-1.3,0.8c-0.4,0.4-1.3,0.4-1.7,0.4s-1.3,0.4-1.7,0.4c-1.3,0.4-2.1,0.4-2.9,0.4
						c-0.8,0-2.1,0-2.9,0c-0.8,0-1.7,0-2.5-0.4c-0.8,0-1.3-0.4-1.7-0.4c-0.4,0.4-0.4,0.4-1.3,0l0,0
						C175.1,132.3,175.7,132.3,176.5,132.3z"/>
				</g>
			</g>
		</g>
		<g id="XMLID_16_">
			<g id="XMLID_21_">
				<path id="awDeaWB9n" class="st11" d="M199.9,130.6c0.4,0,1.3,0,2.1,0.4c0.4,0,0.8,0.4,1.3,0.4c0.4,0.4,0.8,0.4,1.3,0.8
					c0.4,0.4,0.8,0.4,1.3,0.8c0.4,0.4,0.8,0.8,0.8,0.8c0,0.4,0,0.8,0.4,0.8c0.4,0.4,0.8,0.4,0.8,0.8c0.4,0,0.8,0.4,0.8,0.4
					c0.4,0,0.8,0.4,0.8,0.4c0.4,0,0.8,0,0.8,0.4c0.4,0,0.4,0,0.8,0s0.8,0,0.8,0s0,0-0.4,0.4c-0.4,0-0.4,0-0.8,0.4
					c-0.4,0-0.8,0-1.3,0c-0.5,0-0.8,0-1.3,0c-0.4,0-0.8-0.4-1.3-0.4c-0.4-0.4-0.8-0.4-1.3-0.8c-0.4-0.4-0.8-0.8-1.3-1.3
					c-0.1-0.1-0.4-0.4-0.4-0.4c-0.4-0.4-0.4-0.4-0.4-0.4c-0.4-0.4-0.4-0.8-0.8-0.8c-0.4-0.4-0.4-0.8-0.8-1.3c-0.4,0-0.4-0.4-0.8-0.4
					c-0.4-0.4-0.8-0.8-1.3-0.8c-0.4-0.4-0.8-0.4-0.8-0.4C199.3,130.6,199.5,130.6,199.9,130.6z"/>
			</g>
			<g id="XMLID_17_">
				<g id="XMLID_18_">
					<path id="awDeaWB9n_1_" class="st10" d="M199.9,130.6c0.4,0,1.3,0,2.1,0.4c0.4,0,0.8,0.4,1.3,0.4c0.4,0.4,0.8,0.4,1.3,0.8
						c0.4,0.4,0.8,0.4,1.3,0.8c0.4,0.4,0.8,0.8,0.8,0.8c0,0.4,0,0.8,0.4,0.8c0.4,0.4,0.8,0.4,0.8,0.8c0.4,0,0.8,0.4,0.8,0.4
						c0.4,0,0.8,0.4,0.8,0.4c0.4,0,0.8,0,0.8,0.4c0.4,0,0.4,0,0.8,0s0.8,0,0.8,0s0,0-0.4,0.4c-0.4,0-0.4,0-0.8,0.4
						c-0.4,0-0.8,0-1.3,0c-0.5,0-0.8,0-1.3,0c-0.4,0-0.8-0.4-1.3-0.4c-0.4-0.4-0.8-0.4-1.3-0.8c-0.4-0.4-0.8-0.8-1.3-1.3
						c-0.1-0.1-0.4-0.4-0.4-0.4c-0.4-0.4-0.4-0.4-0.4-0.4c-0.4-0.4-0.4-0.8-0.8-0.8c-0.4-0.4-0.4-0.8-0.8-1.3
						c-0.4,0-0.4-0.4-0.8-0.4c-0.4-0.4-0.8-0.8-1.3-0.8c-0.4-0.4-0.8-0.4-0.8-0.4C199.3,130.6,199.5,130.6,199.9,130.6z"/>
				</g>
			</g>
		</g>
		<g id="XMLID_5_">
			<g id="XMLID_15_">
				<path id="a1HToZndTl" class="st11" d="M197,125.6c0.4-0.8,1.7-0.8,2.5-1.7c0.4-0.4,0.8-0.8,0.8-1.3c0.4-0.8,0.8-2.1,1.3-3.4
					c0-0.4,0.4-0.8,0.4-0.8c0.8-0.4,1.7,0.4,1.7,0.8c0,0.8,0,1.7,0.4,2.1c0.4,0.8,1.3,1.3,2.1,1.7c2.1,0.4,4.6-0.8,5-2.9
					c0,1.3,0.4,2.5,1.3,3.4c0.4,0.8,1.7,1.3,1.3,2.1c-0.4,0.8-1.3,0.8-2.1,0.8c-1.7,0-3.4,0.4-5-0.4c-0.4,0-0.8-0.4-1.7-0.4
					c-0.4,0-0.8,0-1.3,0c-0.8,0-1.7,0-2.1,0s-0.8,0-1.3,0c-0.8,0.4-1.3,1.3-1.3,2.5c-0.8,0-1.7-0.4-2.1-0.8
					C196.6,127.3,196.6,126.1,197,125.6"/>
			</g>
			<g id="XMLID_8_">
				<g id="XMLID_9_">
					<path id="a1HToZndTl_1_" class="st10" d="M197,125.6c0.4-0.8,1.7-0.8,2.5-1.7c0.4-0.4,0.8-0.8,0.8-1.3c0.4-0.8,0.8-2.1,1.3-3.4
						c0-0.4,0.4-0.8,0.4-0.8c0.8-0.4,1.7,0.4,1.7,0.8c0,0.8,0,1.7,0.4,2.1c0.4,0.8,1.3,1.3,2.1,1.7c2.1,0.4,4.6-0.8,5-2.9
						c0,1.3,0.4,2.5,1.3,3.4c0.4,0.8,1.7,1.3,1.3,2.1c-0.4,0.8-1.3,0.8-2.1,0.8c-1.7,0-3.4,0.4-5-0.4c-0.4,0-0.8-0.4-1.7-0.4
						c-0.4,0-0.8,0-1.3,0c-0.8,0-1.7,0-2.1,0s-0.8,0-1.3,0c-0.8,0.4-1.3,1.3-1.3,2.5c-0.8,0-1.7-0.4-2.1-0.8
						C196.6,127.3,196.6,126.1,197,125.6"/>
				</g>
			</g>
		</g>
	</g>
</g>
<path id="XMLID_51_" class="st12" d="M423.8,190.3c0.1,3.3-2.4,6-5.7,6.1c0,0-0.1,0-0.3,0h-52.7c-3.3-0.1-5.8-2.8-5.7-6.1
	c0.8-26.7,11-39.8,27.6-59.3c1.2-1.3,2.8-2,4.5-2c1.7,0,3.3,0.7,4.5,2C412.8,150.5,422.9,163.6,423.8,190.3z"/>
<path id="XMLID_50_" class="st13" d="M417.9,196.5h-26.2V129c1.7,0,3.3,0.7,4.5,2c16.6,19.5,26.8,32.6,27.6,59.3
	c0.1,3.3-2.4,6-5.7,6.1C418.1,196.5,418,196.5,417.9,196.5z"/>
<path id="XMLID_49_" class="st14" d="M458.4,191.3c-19.5-9.8-42.8-9.8-62.3,0c-2.7,1.4-5.3,2.8-7.8,4.5l44.8,69.6
	c0-19.4,13.4-46.2,30-50.4l1.4-0.4l2.1-19.3L458.4,191.3z"/>
<path id="XMLID_48_" class="st15" d="M438.4,277.3h-88.3v-11.8c0-19.4-13.4-46.1-30-50.3l-1.4-0.4l-2.1-19.2l8.4-4.3
	c19.5-9.7,42.7-9.7,62.2,0c1.5,0.8,3.1,1.7,4.5,2.4c22.4,13.2,28.6,32.2,36.4,55.8C433.7,266,436.5,273.5,438.4,277.3z"/>
<path id="XMLID_47_" class="st16" d="M438.4,277.3h-46.8v-83.7c22.4,13.2,28.6,32.2,36.4,55.8C433.7,266,436.5,273.5,438.4,277.3z"
	/>
<path id="XMLID_26_" class="st17" d="M391.6,105.2c-9.9,0-17.8,7.9-17.8,17.8s7.9,17.8,17.8,17.8c9.9,0,17.8-7.9,17.8-17.8
	S401.5,105.2,391.6,105.2z"/>
<path id="XMLID_25_" class="st17" d="M308.6,223.9c-9.8,0-18.2-8-18.2-17.8c0-9.8,8.4-17.8,18.2-17.8c9.8,0,17.8,8,17.8,17.8
	C326.4,215.9,318.4,223.9,308.6,223.9z"/>
<path id="XMLID_20_" class="st18" d="M475.1,223.9c-9.8,0-18.2-8-18.2-17.8c0-9.8,8.4-17.8,18.2-17.8c9.8,0,17.8,8,17.8,17.8
	C492.9,215.9,484.9,223.9,475.1,223.9z"/>
<path id="XMLID_19_" class="st18" d="M391.6,140.8v-35.6c9.9,0,17.8,7.9,17.8,17.8S401.5,140.8,391.6,140.8z"/>
<path id="XMLID_11_" class="st17" d="M445,283.2v5.9c0,3.3-2.6,5.9-5.9,5.9h-94.9c-3.3,0-5.9-2.6-5.9-5.9v-5.9
	c0-6.5,5.3-11.8,11.8-11.8h83C439.7,271.4,445,276.7,445,283.2z"/>
<path id="XMLID_10_" class="st18" d="M445,283.2v5.9c0,3.3-2.6,5.9-5.9,5.9h-47.5v-23.7h41.5C439.7,271.4,445,276.7,445,283.2z"/>
<g id="XMLID_52_" transform="matrix(-1 0 0 -1 511 512.001)">
	<path id="XMLID_61_" class="st19" d="M293.2,128.8c34-34.3,40.7-82.8,14.9-108.4C282.4-5.1,233.9,1.9,199.9,36.2
		c-24.3,24.5-34.7,56.4-29.2,81.8c2.4,11-2.2,22.2-11.4,28.6c-16.7,11.4-32.7,24.3-36.9,28.6c-8.9,9-8.8,23.5,0.1,32.4
		c9,8.9,23.5,8.8,32.4-0.1c4.2-4.3,17-20.4,28.3-37.2c6.3-9.3,17.5-13.9,28.5-11.6C237.1,163.9,268.8,153.4,293.2,128.8z"/>
	<path id="XMLID_60_" class="st20" d="M196.5,133c-8.7-8.6-12.3-21.8-10.3-37c2.3-17,11.3-34.1,25.3-48.1s31-23.2,48-25.7
		c15.2-2.2,28.4,1.3,37.1,10c8.7,8.6,12.3,21.8,10.3,37c-2.3,17-11.3,34.1-25.3,48.1c-14,14.1-31,23.2-48,25.7
		C218.4,145.2,205.2,141.6,196.5,133z"/>
	<g id="XMLID_56_">
		<path id="XMLID_59_" class="st21" d="M274.5,62.6c-1.2,1.2-3.2,1.2-4.5,0l-3.7-3.7c-1.2-1.2-1.2-3.2,0-4.5c1.2-1.2,3.2-1.2,4.5,0
			l3.7,3.7C275.7,59.4,275.7,61.3,274.5,62.6z"/>
		<path id="XMLID_58_" class="st21" d="M226.8,110.6c-1.2,1.2-3.2,1.2-4.5,0l-3.7-3.7c-1.2-1.2-1.2-3.2,0-4.5c1.2-1.2,3.2-1.2,4.5,0
			l3.7,3.7C228,107.4,228,109.4,226.8,110.6z"/>
		<path id="XMLID_57_" class="st21" d="M253,88.9c-2.8,2.9-6.7,4.9-10.9,5.4c-1.7,0.2-3.3-1-3.5-2.7c-0.2-1.7,1-3.3,2.7-3.5
			c5.7-0.8,10.2-5.2,10.8-10.9c0.2-1.7,1.8-2.9,3.5-2.7s2.9,1.8,2.7,3.5C257.8,82.2,255.8,86,253,88.9z"/>
	</g>
	<path id="XMLID_55_" class="st22" d="M171.3,122c0.7,9.6-3.9,19-12,24.6c-5.6,3.9-11.2,7.9-16.2,11.7c6.7,0.8,15,2.7,23.2,7.4
		c6,3.5,11.4,5.3,15.8,6.2c0.4-0.5,0.7-1,1.1-1.6c6.3-9.3,17.5-13.9,28.5-11.6C180.6,152.1,173,130.9,171.3,122z"/>
	<path id="XMLID_54_" class="st8" d="M292.5,104.2h-32.9c-5.7,0-10.5,4.7-10.5,10.5s4.7,10.5,10.5,10.5h13.2c3-2.4,6-5,8.8-7.9
		C285.7,113.2,289.3,108.8,292.5,104.2z"/>
	<path id="XMLID_53_" class="st8" d="M244.3,44.6c0-5.7-4.7-10.5-10.5-10.5h-5.4c-5.9,3.8-11.6,8.4-16.9,13.7
		c-2.3,2.3-4.5,4.8-6.6,7.3h28.9C239.7,55.1,244.3,50.4,244.3,44.6z"/>
</g>
<path id="XMLID_74_" class="st9" d="M687.6,206c-2-0.4-4.5-0.8-7.7-1.2c-15.5-1.2-30.9,3.3-43.2,12.6c-3.3,2.5-6.5,4.9-10.6,8.1
	c-4.9,4.1-9.4,2.9-15.1,0.4c-2.5-1.2-5.3-2-9-2.9c-21.2-4.9-44.8,6.9-48.1,14.3c0,0-4.5-3.7-9.8-1.6c0,0,8.5-10.2,3.7-44
	c0,0-1.6-34.6,14.7-39.9c0,0,9.8-2.5,14.3,2.5c4.5,4.9,18.8,3.7,18.8,3.7s12.2,0,15.9,1.6c3.7,1.6,15.9-4.9,15.9-4.9
	s4.1-6.5-1.6-6.9c0,0,10.2-3.7,5.7-7.7l-15.1-27.7c0,0-6.5-4.1-33.8,2.9c-27.2,7.3-25.2,3.7-41.9,19.1
	c-16.7,15.1-38.7,62.7-38.7,62.7s-13.9,39.9-8.6,69.2c1.2,7.4,2,14.7,1.6,22c0,0.4,0,0.8,0,1.6c-0.4,4.1,3.7,7.4,8.1,9
	c6.5,2.9,13.9,3.3,20.8,1.6c4.5-0.8,12.2,0,15.1,1.2c5.3,2,31.8,13.4,79.4-4.5c5.3-2,10.6-4.5,15.9-7.4c5.7-3.3,17.5-5.7,25.3,16.7
	h28.1V206z"/>
<g id="XMLID_66_">
	<path id="XMLID_73_" class="st11" d="M569.5,269.2c0,0,0.8,0,2,0.4c1.2,0.4,3.3,0.4,5.7,0.8c2.5,0.4,4.9,0.4,7.7,0.4
		c0.8,0,1.6,0,2,0c0.8,0,1.6,0,2,0c1.6,0,2.9,0,4.5-0.4c1.6,0,2.9-0.4,4.5-0.8c0.8,0,1.6-0.4,2-0.4c0.8-0.4,1.2-0.4,2-0.4
		c1.2-0.4,2.9-0.8,4.1-1.2c0.4-0.4,1.2-0.4,1.6-0.8c0.4-0.4,1.2-0.4,1.6-0.8c0.4-0.4,0.8-0.4,1.6-0.8c0.4-0.4,0.8-0.4,1.2-0.8
		c0.8-0.4,1.6-0.8,2-1.2c1.2-0.8,2-1.2,2-1.2s-0.4,0.8-1.2,1.6c-0.4,0.4-1.2,1.2-1.6,2c-0.8,0.8-1.6,1.6-2.5,2
		c-0.4,0.4-0.8,0.8-1.6,1.2c-0.4,0.4-1.2,0.8-1.6,1.2c-1.2,0.8-2.5,1.2-4.1,2c-1.6,0.4-2.9,1.2-4.5,1.6c-1.2,0.4-2.9,0.8-4.5,0.8
		c-1.6,0-3.3,0.4-4.9,0.4s-3.3,0-4.9-0.4c-1.6,0-2.9-0.4-4.5-0.8c-1.2-0.4-2.5-0.8-3.7-1.2c-1.2-0.4-2-0.8-3.3-1.2
		c-0.8-0.4-1.6-0.8-2.5-1.2C570.3,269.9,569.5,269.2,569.5,269.2z"/>
	<path id="XMLID_72_" class="st11" d="M687.6,303.4c-0.8-1.6-2-3.3-3.3-4.9c-1.2-1.6-2.9-3.7-4.5-5.3c-1.6-1.6-3.3-3.7-5.3-5.3
		c-2-1.6-4.1-3.7-6.5-4.9c-2.5-1.6-4.9-2.9-7.4-4.5c-1.2-0.8-2.5-1.2-3.7-1.6c-1.2-0.4-2.5-1.2-3.7-1.6c-1.2-0.8-2.5-1.2-3.3-2
		c-0.4-0.4-1.2-0.8-1.6-1.2c-0.4-0.4-1.2-0.8-1.6-1.2c-1.2-0.8-2-1.6-2.9-2.5c-0.8-0.8-1.6-1.6-2.5-2.5c-1.6-1.6-2.9-3.3-4.1-4.9
		c-0.4-0.8-0.8-1.6-1.6-2.5c-0.4-0.8-0.8-1.6-1.2-2.5c-0.4-1.6-1.2-2.9-1.2-4.1c-0.4-1.2-0.4-2-0.4-2.9c0-0.8,0-0.8,0-0.8
		s0,0.4,0,0.8c0,0.4,0,0.8,0,1.2c0,0.4,0,1.2,0,1.6c0,1.2,0.4,2.9,0.4,4.5c0.4,0.8,0.4,1.6,0.8,2.9c0.4,0.8,0.8,2,1.2,2.9
		c0.8,2,2.5,4.1,4.1,5.7c0.8,0.8,1.6,2,2.5,2.9c0.8,0.8,2,2,2.9,2.5c0.4,0.4,1.2,0.8,1.6,1.2c0.4,0.4,1.2,0.8,1.6,1.2
		c1.2,0.8,2.5,1.6,3.7,2c1.2,0.8,2.5,1.2,3.7,2c1.2,0.8,2.5,1.2,3.7,2c2.5,1.2,4.9,2.5,6.9,4.1c1.2,0.8,2,1.6,3.3,2
		c1.2,0.8,2,1.6,3.3,2.5c2,1.6,3.7,3.3,5.7,4.9c1.6,1.6,3.3,3.3,4.5,4.9c1.2,1.6,2.5,2.9,3.7,4.1c0.4,0.8,0.8,1.2,1.2,1.6
		L687.6,303.4L687.6,303.4z"/>
	<path id="XMLID_71_" class="st11" d="M575.2,144.5c0,0,0.4,0,1.6,0c0.4,0,1.2,0,1.6,0c0.8,0,1.2,0,2,0c1.6,0,3.7-0.4,5.3-0.8
		c0.8-0.4,2-0.8,2.9-1.2c0.4,0,0.8-0.4,1.2-0.8c0.4,0,0.4-0.4,0.8-0.4l0.4-0.4l0.8-0.4l0.4-0.4c0.4-0.4,0.8-0.8,1.2-1.2
		c0.4,0,0.4-0.4,0.8-0.4l0.8-0.4c0.4,0,0.4-0.4,0.8-0.4c0.4,0,0.4-0.4,0.8-0.4c1.2-0.4,2-0.4,3.3-0.4c0.8,0,2,0,2.9,0.4
		c0.8,0,1.6,0.4,2,0.8c0.8,0.4,1.2,0.4,1.6,0.8c0.8,0.4,1.2,0.8,1.2,0.8s-0.4,0-1.6-0.4c-0.4,0-1.2,0-1.6-0.4c-0.8,0-1.2,0-2-0.4
		c-0.8,0-1.6,0-2.5,0c-0.4,0-0.4,0-0.8,0c-0.4,0-0.4,0-0.8,0s-0.8,0.4-1.2,0.4s-0.4,0-0.8,0.4c0,0-0.4,0-0.4,0.4l-0.4,0.4l-0.4,0.4
		l-0.4,0.4l0,0l0,0l0,0l0,0l0,0l0,0l-0.8,0.4c-0.4,0.4-0.4,0.4-0.8,0.8l-0.8,0.4l-0.8,0.4c-0.4,0-0.4,0.4-0.8,0.4
		c0,0.4-0.4,0.8-1.2,0.8c-0.4,0.4-1.2,0.4-1.6,0.4c-0.4,0-1.2,0.4-1.6,0.4c-1.2,0.4-2,0.4-2.9,0.4c-0.8,0-2,0-2.9,0
		c-0.8,0-1.6,0-2.5-0.4c-0.8,0-1.2-0.4-1.6-0.4C576,144.9,576,144.9,575.2,144.5L575.2,144.5z"/>
	<path id="XMLID_70_" class="st11" d="M598.8,142.9c0,0,0.4,0,0.8,0s1.2,0,2,0.4c0.4,0,0.8,0.4,1.2,0.4c0.4,0.4,0.8,0.4,1.2,0.8
		c0.4,0.4,0.8,0.4,1.2,0.8c0.4,0.4,0.8,0.8,0.8,0.8c0,0.4,0,0.8,0.4,0.8c0.4,0.4,0.8,0.4,0.8,0.8c0.4,0,0.8,0.4,0.8,0.4
		c0.4,0,0.8,0.4,0.8,0.4c0.4,0,0.8,0,0.8,0.4c0.4,0,0.4,0,0.8,0c0.4,0,0.8,0,0.8,0s0,0-0.4,0.4c-0.4,0-0.4,0-0.8,0.4
		c-0.4,0-0.8,0-1.2,0c-0.4,0-0.8,0-1.2,0c-0.4,0-0.8-0.4-1.2-0.4c-0.4-0.4-0.8-0.4-1.2-0.8c-0.4-0.4-0.8-0.8-1.2-1.2l-0.4-0.4
		c-0.4-0.4-0.4-0.4-0.4-0.4c-0.4-0.4-0.4-0.8-0.8-0.8c-0.4-0.4-0.4-0.8-0.8-1.2c-0.4,0-0.4-0.4-0.8-0.4c-0.4-0.4-0.8-0.8-1.2-0.8
		C599.2,142.9,598.8,142.9,598.8,142.9z"/>
	<path id="XMLID_69_" class="st11" d="M596.8,138c0.4-0.8,1.6-0.8,2.5-1.6c0.4-0.4,0.8-0.8,0.8-1.2c0.4-0.8,0.8-2,1.2-3.3
		c0-0.4,0.4-0.8,0.4-0.8c0.8-0.4,1.6,0.4,1.6,0.8c0,0.8,0,1.6,0.4,2c0.4,0.8,1.2,1.2,2,1.6c2,0.4,4.5-0.8,4.9-2.9
		c0,1.2,0.4,2.5,1.2,3.3c0.4,0.8,1.6,1.2,1.2,2c-0.4,0.8-1.2,0.8-2,0.8c-1.6,0-3.3,0.4-4.9-0.4c-0.4,0-0.8-0.4-1.6-0.4
		c-0.4,0-0.8,0-1.2,0c-0.8,0-1.6,0-2,0c-0.4,0-0.8,0-1.2,0c-0.8,0.4-1.2,1.2-1.2,2.5c-0.8,0-1.6-0.4-2-0.8
		C596.4,139.7,596.4,138.4,596.8,138"/>
</g>
<polygon id="XMLID_65_" class="st23" points="770.9,199.6 744.9,273.4 761.2,273.4 753,306.1 810.3,248.9 793.9,248.9 826.7,199.6 
	"/>
<path id="XMLID_64_" class="st24" d="M771.6,231.7c-9.7,0-18.7-4.4-24.6-12.2l-1.5-2l-2.5,0.4c-1.4,0.2-2.8,0.4-4.1,0.4
	c-12.4,0-22.6-10.1-22.6-22.6c0-7.3,3.6-14.2,9.5-18.4l1.7-1.2l0-2.3c0-0.1,0-0.2,0-0.3c0-21,17-38,38-38c1,0,2.1,0,3.1,0.1l2.3,0.2
	l1.3-1.8c3.5-4.6,8-8.5,13.2-11.1c5.4-2.8,11.2-4.1,17.3-4.1c6.6,0,13.2,1.7,18.9,5c5.5,3.2,10.3,7.7,13.6,13.2l0.9,1.5l1.8,0.3
	c17.9,3.4,30.8,19.1,30.8,37.3c0,2.2-0.2,4.4-0.6,6.6l-0.4,2.6l2.2,1.5c6.3,4.2,10.1,11.3,10.1,18.8c0,12.4-10.1,22.6-22.6,22.6
	c-5.4,0-10.6-1.9-14.7-5.4l-2.6-2.2l-2.7,2.2c-5.5,4.5-12.5,7-19.6,7c-7.1,0-13.9-2.4-19.4-6.8l-2.8-2.3l-2.6,2.5
	C787.1,228.7,779.5,231.7,771.6,231.7z"/>
<g id="XMLID_46_">
	<path id="XMLID_63_" class="st25" d="M872.1,183.5c0.4-2.4,0.6-4.8,0.6-7.4c0-20.5-14.7-37.7-34.2-41.4c-7.4-12-20.8-20.1-36-20.1
		c-13.8,0-26.1,6.7-33.7,16.9c-1.1-0.1-2.3-0.1-3.4-0.1c-23.2,0-42.1,18.9-42.1,42.1c0,0.2,0,0.3,0,0.5
		c-6.8,4.8-11.3,12.8-11.3,21.8c0,14.7,11.9,26.6,26.6,26.6c1.7,0,3.3-0.1,4.9-0.4c6.4,8.4,16.5,13.8,27.9,13.8
		c9.4,0,17.9-3.7,24.1-9.6c6,4.8,13.7,7.7,22,7.7c8.4,0,16.2-3,22.3-7.9c4.7,4,10.8,6.5,17.4,6.5c14.7,0,26.6-11.9,26.6-26.6
		C883.9,196.5,879.2,188.3,872.1,183.5z M857.3,224.2c-4.4,0-8.7-1.6-12-4.4l-5.2-4.5l-5.3,4.3c-4.8,4-10.8,6.1-17.1,6.1
		c-6.2,0-12-2.1-16.8-5.9l-5.6-4.5l-5.2,4.9c-5,4.7-11.6,7.4-18.5,7.4c-4.2,0-8.3-0.9-12.1-2.9c-3.6-1.8-6.8-4.5-9.3-7.7l-3.1-4
		l-4.9,0.9c-1.1,0.2-2.3,0.3-3.4,0.3c-10.2,0-18.5-8.3-18.5-18.5c0-6,2.9-11.6,7.8-15.1l3.5-2.5l0-4.3v-0.2c0,0,0-0.1,0-0.2
		c0-9.1,3.6-17.6,9.9-24c6.4-6.4,14.9-9.9,24-9.9c0.9,0,1.8,0,2.8,0.1l4.5,0.3l2.7-3.6c3.1-4.1,7.2-7.6,11.7-9.9
		c4.8-2.5,10-3.7,15.4-3.7c5.9,0,11.7,1.5,16.8,4.5c4.9,2.9,9.1,6.9,12.1,11.8l1.9,3.1l3.6,0.7c15.9,3.1,27.5,17.1,27.5,33.3
		c0,2-0.2,4-0.5,5.9l-0.9,5.2l4.4,3c5.2,3.5,8.2,9.2,8.2,15.4C875.7,215.9,867.4,224.2,857.3,224.2z"/>
	<path id="XMLID_62_" class="st25" d="M844.6,154.6c-0.3-7-2.4-13.6-5.8-19.2h-9.9c4.4,5.5,7.1,12.2,7.5,19.2H844.6z"/>
</g>
<path id="XMLID_42_" class="st24" d="M747,244.1c-9.7,0-18.7-4.4-24.6-12.2l-1.5-2l-2.5,0.4c-1.4,0.2-2.8,0.4-4.1,0.4
	c-12.4,0-22.6-10.1-22.6-22.6c0-7.3,3.6-14.2,9.5-18.4l1.7-1.2l0-2.3c0-0.1,0-0.2,0-0.3c0-21,17-38,38-38c1,0,2.1,0,3.1,0.1l2.3,0.2
	l1.3-1.8c3.5-4.6,8-8.5,13.2-11.1c5.4-2.8,11.2-4.1,17.3-4.1c6.6,0,13.2,1.7,18.9,5c5.5,3.2,10.3,7.7,13.6,13.2l0.9,1.5l1.8,0.3
	c17.9,3.4,30.8,19.1,30.8,37.3c0,2.2-0.2,4.4-0.6,6.6l-0.4,2.6l2.2,1.5c6.3,4.2,10.1,11.3,10.1,18.8c0,12.4-10.1,22.6-22.6,22.6
	c-5.4,0-10.6-1.9-14.7-5.4l-2.6-2.2l-2.7,2.2c-5.5,4.5-12.5,7-19.6,7c-7.2,0-13.9-2.4-19.4-6.8l-2.8-2.3l-2.6,2.5
	C762.5,241.1,755,244.1,747,244.1z"/>
<g id="XMLID_6_">
	<path id="XMLID_41_" class="st25" d="M847.5,195.9c0.4-2.4,0.6-4.8,0.6-7.4c0-20.5-14.7-37.6-34.2-41.4
		c-7.4-12.1-20.7-20.2-35.9-20.2c-13.8,0-26.1,6.7-33.7,16.9c-1.1-0.1-2.3-0.1-3.4-0.1c-23.2,0-42.1,18.9-42.1,42.1
		c0,0.2,0,0.3,0,0.5c-6.8,4.8-11.3,12.8-11.3,21.8c0,14.7,11.9,26.6,26.6,26.6c1.7,0,3.3-0.1,4.9-0.4c6.4,8.4,16.5,13.8,27.9,13.8
		c9.4,0,17.9-3.7,24.1-9.6c6,4.8,13.7,7.7,22,7.7c8.4,0,16.2-3,22.3-7.9c4.7,4,10.8,6.5,17.4,6.5c14.7,0,26.6-11.9,26.6-26.7
		C859.4,208.8,854.7,200.7,847.5,195.9z M832.7,236.6c-4.4,0-8.7-1.6-12-4.4l-5.2-4.5l-5.3,4.4c-4.8,4-10.8,6.1-17.1,6.1
		c-6.2,0-12-2.1-16.8-5.9l-5.6-4.5l-5.2,4.9c-5,4.7-11.6,7.4-18.5,7.4c-4.2,0-8.3-1-12.1-2.9c-3.6-1.8-6.8-4.5-9.3-7.7l-3.1-4
		l-4.9,0.9c-1.1,0.2-2.3,0.3-3.4,0.3c-10.2,0-18.5-8.3-18.5-18.5c0-6,2.9-11.6,7.8-15.1l3.5-2.5l0-4.3v-0.2c0,0,0-0.1,0-0.2
		c0-9.1,3.6-17.6,9.9-24c6.4-6.4,14.9-9.9,24-9.9c0.9,0,1.8,0,2.8,0.1l4.5,0.3l2.7-3.6c3.1-4.1,7.2-7.6,11.7-9.9
		c4.8-2.5,10-3.7,15.4-3.7c5.9,0,11.7,1.5,16.8,4.5c4.9,2.9,9.1,6.9,12.1,11.8l1.9,3.1l3.6,0.7c15.9,3.1,27.5,17.1,27.5,33.3
		c0,2-0.2,4-0.5,5.9l-0.9,5.2l4.4,3c5.2,3.5,8.2,9.2,8.2,15.4C851.2,228.3,842.9,236.6,832.7,236.6z"/>
	<path id="XMLID_14_" class="st25" d="M814.2,218.2c0-2.1,0.4-4.2,1-6.1h-8.5c-0.4,2-0.7,4-0.7,6.1c0,7.9,3.5,15.1,9,20l6.7-5.1
		C817.2,229.7,814.2,224.3,814.2,218.2z"/>
	<path id="XMLID_13_" class="st25" d="M746.3,144.1v8.2c7,1.1,13.5,4.4,18.6,9.5c1.6,1.6,3,3.3,4.2,5.2h9.4
		C772.4,154.8,760.5,145.9,746.3,144.1z"/>
	<path id="XMLID_12_" class="st25" d="M820.1,167.1c-0.3-7-2.4-13.6-5.8-19.2h-9.9c4.4,5.5,7.1,12.2,7.5,19.2H820.1z"/>
	<path id="XMLID_7_" class="st25" d="M723.6,199.8h-9.1c-1.7,4.1-2.6,8.6-2.6,13.3c0,9.2,3.5,17.5,9.3,23.7l5.4-6.3
		c-4.2-4.9-6.5-11-6.5-17.5C720.1,208.4,721.3,203.8,723.6,199.8z"/>
</g>
<g id="XMLID_31_" transform="matrix(1 0 0 1 0 0)">
	<path id="XMLID_40_" class="st19" d="M755.7,421.6c32.5-32.8,38.9-79.2,14.3-103.6c-24.6-24.4-71-17.7-103.5,15.1
		c-23.3,23.4-33.2,53.9-27.9,78.2c2.3,10.5-2.1,21.2-10.9,27.3c-15.9,11-31.3,23.3-35.3,27.4c-8.5,8.6-8.4,22.5,0.1,30.9
		c8.6,8.5,22.5,8.4,30.9-0.1c4-4.1,16.3-19.5,27.1-35.6c6-8.9,16.7-13.3,27.2-11.2C702.1,455.3,732.4,445.1,755.7,421.6z"/>
	<path id="XMLID_39_" class="st20" d="M663.2,425.6c-8.3-8.3-11.8-20.9-9.8-35.4c2.2-16.2,10.8-32.6,24.2-46
		c13.4-13.5,29.7-22.2,45.8-24.5c14.6-2.1,27.1,1.3,35.5,9.5c8.3,8.3,11.8,20.8,9.8,35.4c-2.2,16.2-10.8,32.6-24.2,46
		c-13.4,13.5-29.7,22.2-45.8,24.5C684.2,437.3,671.5,433.9,663.2,425.6z"/>
	<g id="XMLID_35_">
		<path id="XMLID_38_" class="st26" d="M737.8,358.3c-1.2,1.2-3.1,1.2-4.2,0l-3.6-3.5c-1.2-1.2-1.2-3.1,0-4.2s3.1-1.2,4.2,0l3.6,3.5
			C738.9,355.2,739,357.1,737.8,358.3z"/>
		<path id="XMLID_37_" class="st26" d="M692.1,404.3c-1.2,1.2-3.1,1.2-4.2,0l-3.6-3.5c-1.2-1.2-1.2-3.1,0-4.2c1.2-1.2,3.1-1.2,4.2,0
			l3.6,3.5C693.3,401.2,693.3,403.1,692.1,404.3z"/>
		<path id="XMLID_36_" class="st26" d="M717.2,383.5c-2.8,2.8-6.4,4.6-10.5,5.2c-1.6,0.2-3.2-0.9-3.4-2.6c-0.2-1.6,0.9-3.2,2.6-3.4
			c5.4-0.7,9.7-5,10.4-10.5c0.2-1.6,1.7-2.8,3.4-2.6c1.6,0.2,2.8,1.7,2.6,3.4C721.8,377.1,720,380.7,717.2,383.5z"/>
	</g>
	<path id="XMLID_34_" class="st22" d="M639.1,415.1c0.6,9.2-3.7,18.2-11.4,23.5c-5.4,3.7-10.7,7.6-15.5,11.2
		c6.4,0.7,14.3,2.6,22.2,7.1c5.8,3.3,10.9,5,15.2,5.9c0.3-0.5,0.7-1,1-1.5c6-8.9,16.7-13.3,27.2-11.2
		C648,443.9,640.8,423.6,639.1,415.1z"/>
	<path id="XMLID_2_" class="st8" d="M755,398.2h-31.5c-5.5,0-10,4.5-10,10c0,5.5,4.5,10,10,10h12.6c2.9-2.3,5.7-4.8,8.4-7.6
		C748.5,406.7,752,402.5,755,398.2z"/>
	<path id="XMLID_32_" class="st8" d="M709,341.1c0-5.5-4.5-10-10-10h-5.2c-5.7,3.7-11.2,8-16.1,13.1c-2.2,2.2-4.3,4.5-6.3,7H699
		C704.5,351.1,709,346.6,709,341.1z"/>
</g>
</svg>
