<?xml version="1.0" encoding="utf-8"?>
<!-- Generator: Adobe Illustrator 19.0.0, SVG Export Plug-In . SVG Version: 6.00 Build 0)  -->
<svg version="1.1" id="Layer_1" xmlns="http://www.w3.org/2000/svg" xmlns:xlink="http://www.w3.org/1999/xlink" x="0px" y="0px"
	 viewBox="-49 51 512 512" style="enable-background:new -49 51 512 512;" xml:space="preserve">
<style type="text/css">
	.st0{fill:#E6646E;}
	.st1{fill:#FFAAB4;}
	.st2{fill:#FF96A0;}
	.st3{fill:#4B3F4E;}
	.st4{fill:#EC757F;}
	.st5{fill:#AA505A;}
	.st6{fill:#BC6829;}
	.st7{fill:#B04617;}
	.st8{fill:#63E340;}
	.st9{fill:#1AC776;}
	.st10{fill:#00B07B;}
	.st11{fill:#7CF55B;}
	.st12{fill:#DBD9DC;}
	.st13{fill:#DC646E;}
	.st14{fill:#E6828C;}
	.st15{fill:#C9C6CA;}
	.st16{fill:#6F6571;}
	.st17{fill:#5D5360;}
	.st18{fill:#FAEBC8;}
	.st19{fill:#F5DCB4;}
	.st20{fill:#4D4D4D;}
	.st21{fill:#2A2929;}
	.st22{fill:#363333;}
	.st23{fill:#896B50;}
	.st24{fill:#FDD7AD;}
	.st25{fill:#DCB491;}
	.st26{fill:#EBC9A0;}
	.st27{fill:#825A5A;}
	.st28{fill:#6E4848;}
	.st29{fill:#AF6E5A;}
	.st30{fill:#965A50;}
	.st31{fill:#BE826E;}
	.st32{fill:#DC8C64;}
	.st33{fill:#E1AF87;}
	.st34{fill:#C8785A;}
	.st35{fill:#DC4655;}
	.st36{fill:#A5465A;}
	.st37{fill:#FFFFFF;}
	.st38{fill:#00BBD6;}
	.st39{fill:#CB8956;}
	.st40{fill:#9D602F;}
	.st41{fill:#DEDEDE;}
	.st42{fill:#BCBAC1;}
	.st43{fill:#3DCDAD;}
	.st44{fill:#1BAD8E;}
	.st45{fill:#5889D8;}
	.st46{fill:#245BAF;}
	.st47{fill:#F5EA69;}
	.st48{fill:#EAB657;}
	.st49{fill:#EE9FA9;}
	.st50{fill:#434050;}
	.st51{fill:#E05D7C;}
	.st52{fill:#D6375A;}
	.st53{fill:#FFE675;}
	.st54{fill:#DEC866;}
	.st55{fill:#FFB258;}
	.st56{fill:#E8A250;}
	.st57{fill:#475A72;}
	.st58{fill:#FD5C6F;}
	.st59{fill:#DFCA00;}
	.st60{fill:#F2AD9A;}
	.st61{fill:#E7896E;}
	.st62{fill:#DD6642;}
	.st63{fill:#F4E74D;}
	.st64{fill:#FAD989;}
	.st65{fill:#454545;}
	.st66{fill:#F6CA56;}
	.st67{fill:#EBAF4B;}
	.st68{fill:#FFDC64;}
	.st69{fill:#FFC850;}
	.st70{fill:#EB914B;}
</style>
<path class="st0" d="M253.6,193.1c-0.7,0-1.4-0.4-1.8-1.1c-0.4-1,0-2.1,1-2.6c2.1-0.9,4-2.2,5.6-3.4c-0.1-0.1-0.1-0.2-0.2-0.2
	c-1.6-1.9-2.3-4.5-1.7-6.6c0.5-1.7,1.7-3,3.4-3.6c1.9-0.7,4-0.2,5.4,1.2c1.5,1.4,1.9,3.6,1.2,5.7c-0.4,1.1-1.2,2.3-2.4,3.6
	c1.9,1.5,3.7,2.6,3.7,2.6c0.9,0.5,1.3,1.7,0.8,2.7c-0.5,0.9-1.7,1.3-2.7,0.8c0,0-2.3-1.3-4.7-3.3c-2,1.6-4.4,3.1-6.8,4.2
	C254.2,193.1,253.9,193.1,253.6,193.1z M261.8,179.2c-0.2,0-0.3,0-0.5,0.1c-0.7,0.2-0.9,0.6-1,0.9c-0.2,0.8,0.2,2.2,0.9,3l0.1,0.1
	c0.8-0.9,1.3-1.6,1.5-2.2c0.2-0.7,0.1-1.3-0.2-1.7C262.4,179.3,262.1,179.2,261.8,179.2z"/>
<path class="st1" d="M258.4,222.5c4.1-5,9.5-15.5,2.7-26c-17.3-26.6-67.7-12.8-86.1-7.6c-3,6.4-9.9,11-17,11c-0.5,0-0.9,0-1.4-0.1
	c-0.1,0.1-0.1,0.1-0.2,0.2c1.8,2.9,2.9,6.3,3.1,9.9c0.2,3.4-0.8,6.6-2.5,9.3c8.1,3.5,21.9,5.2,21.9,5.2l4.8,16.1l-1.9,6.6
	c-0.3,1,0.5,2,1.5,2h4.4c0.8,0,1.5-0.6,1.5-1.4l1.6-14.6c0.2-2.1,0.2-4.2,0-6.3c13.2,3.7,40.4,4.4,55.6,0.7l4.3,4.1l1.5,9.9
	l-3.5,5.1c-0.7,1,0,2.4,1.3,2.4h4.2c0.7,0,1.3-0.5,1.5-1.1l5.2-17.7c0.4-1.4,0.3-2.8-0.3-4.1L258.4,222.5z"/>
<path class="st2" d="M174.6,189.7c-0.9,1.7-2.1,3.3-3.5,4.6l3.8-1.7c0.6-0.3,0.8-1,0.5-1.5C175.1,190.6,174.9,190.1,174.6,189.7z"/>
<path class="st3" d="M162.5,205.3c-1.1,0-2-0.9-2-2s0.9-2,1.9-2l0,0c1.1,0,2,0.9,2,2C164.5,204.4,163.6,205.3,162.5,205.3z"/>
<path class="st4" d="M160.5,213.6l-0.1-0.1c-0.3-0.3-0.6-0.6-1.1-0.6c-0.2,1.5-0.6,2.9-1.2,4.3c0.6-0.2,1.2-0.4,1.7-0.6
	C160.9,216,161.3,214.6,160.5,213.6z"/>
<g>
	<path class="st2" d="M246.2,227.6l-2.8-2.4c-1.1-0.9-2.5-1.3-3.9-1.2c-21.2,2.5-39.8-1.3-46.7-3c-1.4-0.3-2.7,0.8-2.5,2.2l0.4,3.7
		C203.8,230.6,231,231.3,246.2,227.6z"/>
	<path class="st2" d="M157.7,219.5c8.1,3.3,21.2,4.9,21.2,4.9l-0.7-2.5c-0.4-1.5-1.9-2.5-3.5-2.3
		C171.1,220.1,164.3,220.6,157.7,219.5z"/>
</g>
<g>
	<path class="st5" d="M249.9,244.7l-1.4,2.1c-0.7,1,0,2.4,1.3,2.4h4.2c0.7,0,1.3-0.5,1.5-1.1l1-3.4H249.9L249.9,244.7z"/>
	<path class="st5" d="M183.2,249.2h4.4c0.8,0,1.5-0.6,1.5-1.4l0.3-3.1h-7l-0.7,2.6C181.4,248.2,182.2,249.2,183.2,249.2z"/>
</g>
<path class="st6" d="M372,233.1h30v60.2h-30V233.1z"/>
<path class="st7" d="M386,233.1h16v60.2h-16V233.1z"/>
<path class="st8" d="M387,97.6c-24.9,0-45.1,20.2-45.1,45.1V203c0,24.9,20.2,45.1,45.1,45.1s45.1-20.2,45.1-45.1v-60.3
	C432.1,117.8,411.8,97.6,387,97.6z"/>
<path class="st9" d="M387,97.6c-0.4,0-0.7,0-1.1,0V248c0.4,0,0.7,0,1.1,0c24.9,0,45.1-20.2,45.1-45.1v-60.2
	C432.1,117.8,411.8,97.6,387,97.6z"/>
<path class="st6" d="M10.5,233.1h30v60.2h-30V233.1z"/>
<path class="st7" d="M25.5,233.1h15v60.2h-15V233.1z"/>
<path class="st8" d="M25.5,97.6c-24.9,0-45.1,20.2-45.1,45.1V203c0,24.9,20.2,45.1,45.1,45.1s45.1-20.2,45.1-45.1v-60.3
	C70.6,117.8,50.3,97.6,25.5,97.6z"/>
<path class="st9" d="M70.6,203v-60.3c0-24.9-20.2-45.1-45.1-45.1v150.5C50.3,248.1,70.6,227.9,70.6,203z"/>
<path class="st8" d="M447.3,356.8c-4.3,0-485.4,1.8-491.7-3.6s-7.1-14.8-1.7-21.1c0.9-1,22.1-25.8,63.9-50.4
	c38.2-22.4,101.9-49.2,188.5-49.2s150.3,26.8,188.5,49.2c41.8,24.6,63,49.3,63.9,50.4c5.4,6.3,4.6,15.8-1.7,21.1
	C454.1,355.6,450.6,356.8,447.3,356.8L447.3,356.8z"/>
<path class="st9" d="M447.3,356.8c3.4,0,6.9-1.2,9.7-3.6c6.3-5.4,7.1-14.8,1.7-21.1c-0.9-1-22.1-25.8-63.9-50.4
	c-38.2-22.4-101.9-49.2-188.5-49.2V357C326.5,357.2,445.1,356.8,447.3,356.8z"/>
<path class="st10" d="M447.3,292.8c-92.1,0-179.5,24.4-252.8,70.6c-35.4,22.3-66.3,49-91.7,79.4c-26,30.9-45.6,64.9-58.5,101
	c-1.6,4.6,330.6,20,330.6,20h72.4c8.3,0,15-6.7,15-15v-241C462.3,299.5,455.5,292.8,447.3,292.8z"/>
<path class="st11" d="M375,563.8c-10.7-41.7-39.2-90.1-65.1-121.1c-25.4-30.4-56.3-57.1-91.7-79.4c-73.4-46.1-160.8-70.5-252.9-70.5
	c-8.3,0-15,6.7-15,15v75.4l244.5,180.6H375z"/>
<g>
	<path class="st8" d="M218,363.4c-3.9-2.5-7.9-4.8-11.8-7.2v207.6H375c-10.7-41.7-39.2-90.1-65.1-121.1
		C284.3,412.4,253.5,385.7,218,363.4L218,363.4z"/>
	<path class="st8" d="M194.7,563.8c0,0-21.5-82.5-92.2-135c-40-29.6-102.3-45.6-152.3-45.6v165.6c0,8.3,6.7,15,15,15H194.7z"/>
</g>
<path class="st12" d="M399.6,334.5c-0.7,0-1.3-0.3-1.7-0.9c-0.3-0.4-6.9-9.8-2.9-21.9c3.7-11.3,0.3-16.8-2-19.1
	c-2.9-2.8-6.5-3.2-8.8-2.3c-1.1,0.4-2.3-0.2-2.7-1.3c-0.4-1.1,0.2-2.3,1.3-2.7c4.3-1.6,9.7-0.3,13.3,3.3c3.1,3,7.6,10,3.1,23.5
	c-3.3,10,2.3,18,2.3,18.1c0.7,1,0.5,2.3-0.5,3C400.5,334.4,400,334.5,399.6,334.5z"/>
<g>
	<path class="st13" d="M362.3,338.6c-0.1,0-0.2,0-0.3,0c-1.2-0.2-2-1.3-1.8-2.4l0.4-2.7c0.2-1.2,1.3-2,2.4-1.8
		c1.2,0.2,2,1.3,1.8,2.4l-0.4,2.7C364.3,337.9,363.3,338.6,362.3,338.6z"/>
	<path class="st13" d="M371.5,339.1c-0.9,0-1.8-0.6-2.1-1.6l-1.1-3.9c-0.3-1.1,0.4-2.3,1.5-2.6c1.1-0.3,2.3,0.4,2.6,1.5l1.1,3.9
		c0.3,1.1-0.4,2.3-1.5,2.6C372,339.1,371.8,339.1,371.5,339.1z"/>
</g>
<path class="st14" d="M378,329.9c-13.6,11.1-27-0.3-27-0.3l22.5-9.5L378,329.9z"/>
<path class="st12" d="M391,298.5c-0.2-4.3-2.8-11.4-12.6-15c-14.3-5.3-36.2,5.6-64.1-0.4c-3.6-0.8-7-2.5-9.8-4.9l-0.1-0.1
	c-5.4-4.5-13.5-4.9-18.9-0.3c-0.4,0.3-0.7,0.7-1.1,1l-16.5,17.4c-1,1.1-1.4,2.6-1,4l1,3.7c0.5,1.9,2.3,3.2,4.2,3.2
	c6.7-0.1,11.6-0.8,15.3-1.6c9.4,14,23.6,22.3,23.6,22.3l0.3,28.1l-6.3,1.6c-1.4,0.4-2.6,1.4-3,2.8l-0.6,1.8
	c-0.4,1.2,0.5,2.4,1.7,2.4h8.1c1.4,0,2.8-0.7,3.6-1.9l2.2-3.3c0.5-0.8,0.9-1.7,1-2.6l4.4-25.5c30.9,5.8,35.3-5.8,51.3-7.3l9.7,19.3
	v12.4l-5.2,1.9c-1.3,0.4-2.3,1.4-2.7,2.7l-0.7,2c-0.4,1.2,0.5,2.4,1.7,2.4h7.6c1.7,0,3.3-1,3.9-2.6l2.3-5.3c0.6-1.3,0.9-2.8,0.9-4.3
	v-14c0-1-0.2-2.1-0.6-3c-1.2-2.9-2.1-10.1-2.1-16.7C388.3,311,391.5,308.7,391,298.5z"/>
<path class="st15" d="M308.3,316.1c-2.3-2.3-7.2-8.2-10.3-14.1c-0.7-1.4-2.6-1.7-3.7-0.6c-1.5,1.5-3.8,3.2-6.9,4.2
	c9.4,14,23.6,22.3,23.6,22.3C311,320.1,309.8,317.6,308.3,316.1z"/>
<g>
	<path class="st16" d="M378.5,283.5c-5.9-2.2-13-1.6-21.3-0.6c3.5,8.9-6.1,14.5-6.8,15.4c-4.6,5.5,2.4,15.1,10.7,11
		c6-2.9,13.9-10.2,16.6-4c2.4,5.5,6.4,8.5,11.1,9.3c0.8-4.8,2.8-7.9,2.3-16C390.8,294.2,388.3,287.1,378.5,283.5z"/>
	<path class="st16" d="M338.3,284.8c-7.4,0.4-15.4,0.1-24.1-1.7c-3.6-0.8-7-2.5-9.8-4.9l-0.1-0.1c-5.4-4.5-13.5-4.9-18.9-0.3
		c-0.4,0.3-0.7,0.7-1.1,1l-16.5,17.4c-1,1.1-1.4,2.6-1,4l1,3.7c0.5,1.9,2.3,3.2,4.2,3.2c6.7-0.1,11.6-0.8,15.3-1.6
		c3.9,5.9,8.7,10.7,12.9,14.4c8.6-4.2,5.5-12.5,9.4-19C315.8,290.8,334.3,301.4,338.3,284.8z"/>
</g>
<path class="st14" d="M280,306.3c0-6.4-3.2-11.9-7.9-14.5l-4.3,4.5c-1,1.1-1.4,2.6-1,4l1,3.7c0.5,1.9,2.3,3.2,4.2,3.2
	c3-0.1,5.6-0.2,7.9-0.4C280,306.6,280,306.5,280,306.3z"/>
<g>
	<path class="st17" d="M311.3,356l-6.3,1.6c-1.4,0.4-2.6,1.4-3,2.8l-0.6,1.8c-0.4,1.2,0.5,2.4,1.7,2.4h8.1c1.4,0,2.8-0.7,3.6-1.9
		l2.1-3.1L311.3,356z"/>
	<path class="st17" d="M376.3,364.5h7.6c1.7,0,3.3-1,3.9-2.6l1.1-2.6l-5.7-3.9l-5.2,1.9c-1.3,0.4-2.3,1.4-2.7,2.7l-0.7,2
		C374.3,363.4,375.1,364.5,376.3,364.5z"/>
</g>
<circle class="st3" cx="286" cy="289.6" r="2.1"/>
<path class="st13" d="M266.8,300.3l0.4,1.4c1.8-0.5,3.1-1.8,3.1-3.4c0-1.1-0.7-2.1-1.7-2.8l-0.7,0.8
	C267,297.3,266.5,298.9,266.8,300.3z"/>
<path class="st18" d="M286.8,269.9c-0.8,2.1-1.5,6,3,9.7c0.8,0.7,1.8,0.9,2.8,0.6c1.4-0.4,3.2-1.4,4.2-4.2c0.2-0.6-0.1-1.3-0.7-1.5
	c-3.1-1-6.1-3.6-7.6-5C288,268.9,287,269.2,286.8,269.9z"/>
<path class="st17" d="M324.3,303.5c-3.5,0.7-6.1,3.6-5.4,6.5c0.9,3.6,8.2,2.4,11.3,7.4c2.2,3.6,6.2,6.3,9.7,3.9s8.1-6.5,0.7-12.7
	C335.3,304.2,328.6,302.6,324.3,303.5z"/>
<path class="st19" d="M287.3,269.3c-0.3,0.1-0.5,0.3-0.6,0.6c-0.8,2.1-1.5,6,3,9.7c0.8,0.7,1.8,0.9,2.8,0.6c0.6-0.2,1.3-0.5,2-1
	C289.8,276.3,288,271.9,287.3,269.3z"/>
<path class="st17" d="M295.5,276.7l0.6,3.6c0.5,2.8,2.8,4.3,5.1,3.5c2.7-1,6-2.8,7.4-6.3c0.4-0.9-0.1-2-1-2.2
	c-1.8-0.6-5.2-1.3-10.6-0.9C296,274.4,295.3,275.5,295.5,276.7z"/>
<path class="st15" d="M322.8,326.8l-0.6,4.3c30.9,5.8,35.3-5.8,51.3-7.3l-1.8-3.1c-2.1-3.6-6.5-5.2-10.4-3.7
	c-8.6,3.3-16.9,8.9-33.5,6.2C325.5,322.9,323.3,324.5,322.8,326.8z"/>
<path class="st17" d="M300.3,319.9c3.3-1.6,4.9-3.8,5.8-6.3c-2.5-2.9-5.8-7.3-8.1-11.7c-0.7-1.4-2.6-1.7-3.7-0.6
	c-1.5,1.5-3.8,3.2-6.9,4.2C291.3,311.4,296,316.3,300.3,319.9z"/>
<g>
	<path class="st20" d="M70.6,445.4h-2.8c-1.6,0-2.9-1.3-2.9-2.9v-12c0-4.2,3.4-7.6,7.6-7.6l0,0c0.5,0,1,0.4,1,1v18.6
		C73.4,444.1,72.1,445.4,70.6,445.4z"/>
	<g>
		<path class="st21" d="M-8.2,476.9L-8.2,476.9c-6.8,0-12.6,4.7-14,11.3l-3.2,14.9c-0.1,0.6,0.3,1.2,0.9,1.2l0,0
			c5.9,0,11-4.1,12.3-9.8L-8.2,476.9z"/>
		<path class="st21" d="M50.6,529.7l-0.7,3.6c-0.1,0.4-0.4,0.7-0.8,0.7h-8c-0.6,0-1-0.5-0.9-1.1l0.4-5.6l2.8-35.5l10.6-5.1
			l-7.4,39.2c0,0.1,0,0.2,0,0.3c0,0.3,0.2,0.5,0.4,0.6l3.1,1.9C50.5,528.9,50.6,529.3,50.6,529.7z"/>
	</g>
	<path class="st22" d="M50.6,529.7l-0.7,3.6c-0.1,0.4-0.4,0.7-0.8,0.7h-8c-0.6,0-1-0.5-0.9-1.1l0.4-5.6l6.1-1.1
		c0,0.3,0.2,0.5,0.4,0.6l3.1,1.9C50.5,528.9,50.6,529.3,50.6,529.7z"/>
	<path class="st21" d="M2.7,512.7v12.5c0,0.2,0.1,0.4,0.2,0.6C3,525.9,3,526,3.1,526l3.7,2.3c0.2,0.1,0.4,0.4,0.4,0.6l0.7,4
		C8,533.5,7.6,534,7,534h-9.1c-0.5,0-0.9-0.4-0.9-0.9v-25.3l2.9-15.5l18.3,3.5l-10,16.5L2.7,512.7z"/>
	<path class="st22" d="M7.1,534H-2c-0.5,0-0.9-0.4-0.9-0.9v-6.3l5.8-1C3,525.9,3,526,3.1,526l3.7,2.3c0.2,0.1,0.4,0.4,0.4,0.6l0.7,4
		C8.1,533.5,7.6,534,7.1,534z"/>
	<path class="st23" d="M91.4,446.4v4.4c0,3.5-3.1,6.1-6.6,5.5l-3.7-0.1l-8.3-0.2c0,0-0.4,8.7,0,19.4c0.1,3.3-0.1,6.5-0.5,9.7l0,0
		c-0.5,3.3-1.3,6.5-2.4,9.6c-0.6,1.5-1.1,3.1-1.6,4.8c-3.6,11.8-5.6,25.3-5.6,25.3c0,0.1,0,0.2,0.1,0.3s0.1,0.2,0.3,0.3l4.8,3.6
		c0.3,0.2,0.4,0.6,0.3,0.9l-0.8,3.3c-0.1,0.4-0.5,0.7-0.9,0.7h-8.6c-0.5,0-0.9-0.3-1-0.8l-1.3-6.2l-0.4-25c-0.1-0.4-0.5-0.8-1-0.8
		l-45.9-1.6c-0.3,0-0.5,0.1-0.7,0.3l-13.4,12.6c-0.2,0.2-0.4,0.3-0.7,0.3h-4.4c-0.6,0-1,0.5-1,1v12.5c0,0.2,0,0.3,0.1,0.5
		c0.1,0.1,0.2,0.3,0.3,0.3l2.4,1.8c0.2,0.1,0.3,0.3,0.4,0.6l0.9,3.5c0.2,0.6-0.3,1.3-1,1.3h-8.4c-0.6,0-1-0.5-1-1v-26.1
		c0-0.4,0.2-0.8,0.6-0.9l2.9-3.3c0.4-0.2,0.6-0.5,0.6-0.9v-13.9c0-8.3,6.2-15.3,14.4-16.3l35,0.3c7.1,0.1,13.4-4.4,15.7-11.1
		l5.3-15.3c0.2-0.6,0.5-1.1,0.8-1.6v-13.4c0-4.2,3.4-7.6,7.6-7.6c0.3,0,0.5,0.1,0.7,0.3c0.2,0.2,0.3,0.4,0.3,0.7v15.3h5
		c1.8,0,3.5,0.7,4.7,2l1.4,1.4c1.2,1.2,2.9,1.9,4.7,1.9h8.2C90.5,444.5,91.4,445.3,91.4,446.4z"/>
	<g>
		<path class="st20" d="M39.9,471.8c7.1,0.1,13.4-4.6,15.7-11.6l5.3-16.1c0.2-0.6,0.5-1.2,0.8-1.7v-14.1c0-2,0.7-3.9,1.9-5.3
			c-3.7,0.5-6.6,3.7-6.6,7.5v13.4c-0.3,0.5-0.6,1.1-0.8,1.6l-5.3,15.3c-2.1,5.9-7.3,10.1-13.4,10.9L39.9,471.8z"/>
		<path class="st20" d="M-13.6,508.6c0-0.4,0.2-0.8,0.6-1l2.9-3.4c0.4-0.2,0.6-0.6,0.6-1v-14.6c0-8.4,5.7-15.5,13.4-17H0.2
			c-8.2,1-14.4,8-14.4,16.3v13.9c0,0.4-0.2,0.8-0.6,0.9l-2.9,3.3c-0.4,0.2-0.6,0.5-0.6,0.9V533c0,0.6,0.5,1,1,1h3.7
			C-13.6,534-13.6,508.6-13.6,508.6z"/>
		<path class="st20" d="M60.3,529.7l-0.4-26.3c-0.1-0.5-0.5-0.8-1-0.8l-3.7-0.1l0.4,24.6l1.3,6.2c0.1,0.5,0.5,0.8,1,0.8h3.3
			L60.3,529.7z"/>
	</g>
	<g>
		<path class="st22" d="M-8.9,534h-8.4c-0.6,0-1-0.5-1-1v-5.4l6.5-1c0.1,0.1,0.2,0.3,0.3,0.3l2.4,1.8c0.2,0.1,0.3,0.3,0.4,0.6
			l0.9,3.5C-7.7,533.4-8.2,534-8.9,534z"/>
		<path class="st22" d="M68.2,530.1l-0.8,3.3c-0.1,0.4-0.5,0.7-0.9,0.7h-8.6c-0.5,0-0.9-0.3-1-0.8l-1.3-6.2l7.2-1.8
			c0.1,0.1,0.1,0.2,0.3,0.3l4.8,3.6C68.1,529.3,68.2,529.7,68.2,530.1z"/>
	</g>
	<g>
		<path class="st24" d="M72.3,485.2L72.3,485.2c-0.5,3.3-1.3,6.5-2.4,9.7c-0.6,1.5-1.1,3.1-1.6,4.8h-0.1l-13.9,1.6l-45.9-1.6
			l2.3-1.7c4.9-3.7,10.8-5.6,17-5.6h24.4c4.7,0,9.4-1.2,13.5-3.4L72.3,485.2z"/>
		<path class="st24" d="M91.4,446.4v4.4c0,3.5-3.1,6.1-6.6,5.5l-3.7-0.1l1.3-11.7h7.1C90.5,444.5,91.4,445.3,91.4,446.4z"/>
	</g>
	<circle class="st22" cx="71.6" cy="445.4" r="1.8"/>
</g>
<path class="st25" d="M329,381.2c0,0,1.8,3.1,3.2,6.4c0.3,0.8,1.3,1,1.9,0.4c1.7-1.6,4.7-4.8,6.2-9.2L329,381.2z"/>
<path class="st26" d="M423.3,369.7c-0.4-0.5-1.2-0.3-1.2,0.4c0.1,1.6-0.3,3.5-2.2,5.1c-3.3,2.8-1.8,6.9-1.8,6.9l2,2.3
	C420,384.5,430.1,379.6,423.3,369.7z"/>
<path class="st19" d="M419.8,409.7c-1.2-6.6,2.5-11.3,2.5-18.4c0-7.4-4.4-12.2-11.3-14.5c-11.1-3.7-41.5,0-51.3-6.2
	c-1.9-1.2-3.9-4.3-5.8-7.1c-1.2-1.8-2.8-3.3-4.8-4.2c-4.6-2.2-9.8-1.1-13.2,2.2c-4.8,4.7-9,10.1-10.9,12.6c-0.7,0.9-0.8,2-0.5,3
	l0.9,2.7c0.5,1.4,1.8,2.3,3.2,2.2c3.5-0.1,10.1-0.7,14.6-3.3c3.5,6.7,5.8,23.3,18.9,27.9l3.3,13.6v14.5l-2.9,6.6
	c-0.3,0.8,0.2,1.6,1.1,1.6h5.3c0.6,0,1.1-0.5,1.2-1.1l2-34.1c5.5,0.5,17.6,1,31-3.4c2.1,3.4,6.4,8.9,15.1,14.6l-2.2,15.8l-2.9,6.6
	c-0.3,0.8,0.2,1.6,1.1,1.6h5.4c0.6,0,1.1-0.4,1.2-1l3.4-23c0.1-0.6-0.1-1.3-0.5-1.7C422.5,415.9,420.3,412.9,419.8,409.7z"/>
<path class="st27" d="M341.6,357.4l4.4,3.2c0.7,0.5,1.6,0.4,2.2-0.2c4.2-4.1,9.3-6.3,12.1-7.3c0.5-0.2,0.4-1-0.1-1.1
	C349.6,350.8,341.6,357.4,341.6,357.4z"/>
<path class="st3" d="M338.3,369.2c-0.9,0-1.7-0.7-1.7-1.6s0.7-1.6,1.6-1.6l0,0c0.9,0,1.6,0.7,1.6,1.6
	C340,368.4,339.3,369.2,338.3,369.2z"/>
<g>
	<path class="st28" d="M414,442.9h5.4c0.6,0,1.1-0.4,1.2-1l0.5-3.7l-6-2l-2.2,5.1C412.6,442.1,413.1,442.9,414,442.9z"/>
	<path class="st28" d="M363.5,442.9h5.3c0.6,0,1.1-0.5,1.2-1.1l0.2-3.7l-5.6-1.9l-2.2,5.1C362,442.1,362.6,442.9,363.5,442.9z"/>
</g>
<g>
	<path class="st26" d="M402.8,404.3c-0.7-1.3-1.2-2.4-1.6-3.4c-0.7-1.6-2.4-2.3-4-1.8c-9.2,3.1-18.6,3.7-22.8,3.8
		c-1.3,0-2.3,1.1-2.4,2.3l-0.1,2.4C377.5,408.3,389.5,408.7,402.8,404.3z"/>
	<path class="st26" d="M351,380c0.4-3.9-1.9-5.2-3.2-4.7c-1.6,0.7-1.6,1.8-4.6,3.5c3.5,6.7,5.8,23.3,18.9,27.9
		C355.5,402,350,387.9,351,380z"/>
	<path class="st26" d="M336.5,381.2c-5-1.7-7.5-6.9-8.1-11.4c-1.5,1.8-2.7,3.4-3.5,4.4c-0.7,0.9-0.8,2-0.5,3l0.9,2.7
		c0.5,1.4,1.8,2.3,3.2,2.2C330.5,382.1,333.5,381.8,336.5,381.2z"/>
</g>
<path class="st28" d="M360.6,352.5c-8.8,0.8-13.7,4.5-16.1,7.1l1.5,1.1c0.7,0.5,1.6,0.4,2.2-0.2c4.2-4.1,9.3-6.3,12.1-7.3
	C360.6,353,360.6,352.7,360.6,352.5z"/>
<path class="st26" d="M337.5,355.9c0.1,1.5,0.5,4.3,1.9,7.1c0.4,0.7,1.3,1.1,2,0.8l4-1.7c1-0.4,1.3-1.8,0.5-2.6
	c-2.7-2.5-5.8-3.8-7.4-4.4C338,354.9,337.5,355.3,337.5,355.9z"/>
<path class="st27" d="M326.6,376.4c-0.2-0.7-1.2-1.1-2.3-1c-0.1,0.6-0.1,1.2,0.1,1.8l0.5,1.5C326.1,378.2,327,377.2,326.6,376.4z"/>
<g>
	<path class="st3" d="M377.5,492c-1.4-2.5-3-7.6-1.9-16.5c3.1-26-4.4-42.6-21.8-38.8l1.1,3.6c15.3-1.1,11.7,23.6,10.7,36.4
		c-0.8,10.5,4.4,15.9,10.4,17.2C377.1,494.1,378,493,377.5,492z"/>
	<path class="st3" d="M253.2,395.1c-12.1-2.9-21.9,3.5-25.2,6.7c-0.8,0.8-0.6,2.2,0.4,2.8l6.5,3.6l59.9,25.1
		C289.8,429.8,277,400.8,253.2,395.1z"/>
</g>
<path class="st29" d="M355.8,463c4.8-10,4.3-22.5-2.6-28.6c-7.1-6.2-18.1-7.9-36.4-3c-23,6.1-22.2,0.8-28.2-5.2
	c-9.1-9.3-22.8-18.8-33.3-22.2c-3.2-1.1-6.6-1.4-10-1l-4.9,0.6c-2,0.2-3.9,0.9-5.6,2c-1.6,1-2.8,2.5-3.4,4.3l-1.2,3.5
	c-0.3,0.9-0.7,1.7-1.3,2.4l-10.3,12.6c-0.8,1-0.8,2.5,0.2,3.5l2.4,1.9c1.5,1.5,3.8,1.9,5.8,1.1l18.8-8.5c0.8-0.3,1.7,0,2,0.7
	l19,38.7l5.4,60.9l-4.9,6.9c-0.7,0.9,0,2.2,1.2,2.2h6.3c0.7,0,1.4-0.6,1.4-1.3l1.7-27.4c0.5-8.1,1.4-16.2,2.5-24.3l1.1-7.8
	c21.4,7.5,39.3-4.6,45.6-9.7c3.7,8.9,11.4,24,24.6,35.5l4.3,25.6l-4.3,7.4c-0.5,0.9,0.1,2.1,1.2,2.1h6.5c0.8,0,1.4-0.6,1.4-1.4
	v-37.3c0-1.7-0.8-3.2-2.2-4.2C350.6,486.6,351.5,471.9,355.8,463z"/>
<path class="st30" d="M235,397.3l3.1,8.9c0.3,0.9,1.3,1.4,2.2,1.2l8.1-1.8c1.1-0.2,1.6-1.5,0.9-2.4c-1.8-2.4-5.8-6.3-12.5-7.9
	C235.6,395.1,234.6,396.2,235,397.3z"/>
<path class="st3" d="M239.4,417.8c-1.4,0-2.6-1.2-2.6-2.6s1.2-2.6,2.6-2.6l0,0c1.4,0,2.6,1.2,2.6,2.6S240.8,417.8,239.4,417.8z"/>
<g>
	<path class="st30" d="M248,426.9l19,38.7c-1.2-14.1-7.5-39.2-9.1-45.5c-0.2-0.9-0.9-1.6-1.7-2l0,0c-1.5-0.7-3.3,0-3.9,1.5
		c-1.3,2.8-3.9,5.3-6.4,6.6C246.7,425.8,247.6,426.1,248,426.9z"/>
	<path class="st30" d="M282.5,470.7l-0.7,4.2c21.4,7.5,39.3-4.6,45.6-9.7l-0.1-0.3c-0.7-2.2-3.1-3.4-5.3-2.5
		c-14.8,6.2-26.9,5.3-33.4,4C285.6,465.9,282.8,467.8,282.5,470.7z"/>
</g>
<g>
	<path class="st3" d="M268.5,535.8h6.3c0.7,0,1.4-0.6,1.4-1.3l0.2-3.9h-7l-2.1,3C266.8,534.5,267.3,535.8,268.5,535.8z"/>
	<path class="st3" d="M353.5,530.6l-1.8,3.1c-0.5,0.9,0.1,2.1,1.2,2.1h6.5c0.8,0,1.4-0.6,1.4-1.4v-3.8L353.5,530.6L353.5,530.6z"/>
</g>
<path class="st31" d="M225.4,420.1l-6.6,8.1c-0.8,1-0.8,2.5,0.2,3.5l2.4,1.9c1.5,1.5,3.8,1.9,5.8,1.1l9.3-4.2
	C233.8,424.9,229.1,421.8,225.4,420.1z"/>
<path class="st30" d="M221.7,430c-0.6-0.7-1.9-0.5-3,0.4l0,0c-0.1,0.1-0.2,0.2-0.3,0.3c0.1,0.3,0.3,0.7,0.6,1l1.6,1.3
	c0,0,0.1,0,0.1-0.1C221.8,432,222.3,430.7,221.7,430z"/>
<path class="st26" d="M-23.3,405.1c-0.5,0.6-0.7,1.3-0.6,2.1l3.3,22.4c0.1,0.5,0.5,0.8,1,0.8h5.7c0.7,0,1.2-0.7,0.9-1.4l-2.9-6.6
	L-18,407c7.9-5.2,12.1-10.2,14.3-13.5C10.9,400,22,400,28.6,399l1.8,30.5c0,0.5,0.5,0.9,1,0.9H37c0.7,0,1.2-0.7,0.9-1.4l-2.9-6.6
	v-14.2l2.9-12.3c13.4-6.1,13.5-25.8,17.6-31.5c3.9,2.1,9,1.2,15.2,2.4c1.6,0.3,3.2-0.6,3.7-2.1l0.5-1.6c0.3-0.8,0.2-1.6-0.3-2.3
	c-1.7-2.5-6.1-8.8-12.3-14.4c-1.1-1-2.6-1.6-4.1-1.6l-14.7-0.4l-0.8,8.2c-0.2,1.9-0.6,3.7-1.2,5.5c-0.6,1.4-1.2,2.7-2.2,3.3
	c-9.6,6-39.8,0.9-50.6,4.5c-6.7,2.2-11,6.9-11,14.1c0,6.9,3.7,11.5,2.5,17.9C-20.4,401.1-22.3,403.8-23.3,405.1z"/>
<path class="st32" d="M46.2,355.1c2.3-0.1,3.4-1.1,3.4-1.1s0.5-1.5-1-1.6s-5.8-0.5-5.1-4.6c0.6-3.4,5.1-4.2,7.1,0.1
	c0.3,0.6,0.8,0.9,1.4,1c1.7,0.2,4.9,0.1,7.8-2.5c0.5-0.5,0.7-1.3,0.3-1.9c-1.8-2.8-7.6-10.5-16.9-8.2
	C32.2,339.1,33.4,355.4,46.2,355.1z"/>
<path class="st3" d="M59.7,354.2c0-0.9,0.7-1.6,1.6-1.6l0,0c0.9,0,1.6,0.7,1.6,1.6s-0.7,1.6-1.6,1.6S59.7,355,59.7,354.2z"/>
<g>
	<path class="st28" d="M37.8,429.1l-2.2-5.2l-5.5,1.8l0.2,3.8c0,0.5,0.5,0.9,1,0.9h5.6C37.6,430.4,38.1,429.7,37.8,429.1z"/>
	<path class="st28" d="M-15.3,423.9l-5.8,2l0.5,3.7c0.1,0.5,0.5,0.8,1,0.8h5.7c0.7,0,1.2-0.7,0.9-1.4L-15.3,423.9z"/>
</g>
<path class="st18" d="M63,366c2.3,0.2,4.9,0.3,7.7,0.8c1.6,0.3,3.2-0.6,3.7-2.1l0.5-1.6c0.3-0.8,0.2-1.6-0.3-2.3
	c-0.9-1.3-2.6-3.7-4.8-6.5c-1,1.9-4.2,3.9-6.1,7.2C62.8,363,62.7,364.6,63,366z"/>
<g>
	<path class="st33" d="M72.8,362.2c-0.2,0.7,0.4,1.5,1.4,1.8c0.1,0,0.3,0.1,0.4,0.1l0.3-0.8c0.2-0.5,0.2-1.1,0-1.7
		C73.9,361.3,73,361.6,72.8,362.2z"/>
	<path class="st33" d="M55.5,364.4c-2.5-1.3-3-3.1-4.3-3.8c-1-0.5-3.1,0.1-2.9,2.8c0.3,2.5,0.5,23.8-10.4,32.6
		C51.3,389.9,51.4,370.2,55.5,364.4z"/>
	<path class="st33" d="M28.5,399c0-1.6-0.4-3.2-0.8-4.4c-0.4-1.4-1.7-2.3-3.2-2.3c-4.6,0.1-15.2-0.1-23.3-2.7
		c-1.6-0.5-3.2,0.3-3.9,1.8c-0.3,0.6-0.7,1.4-1.2,2.2C10.8,400,21.9,400,28.5,399z"/>
</g>
<path class="st34" d="M49.7,354c0,0,0.5-1.5-1-1.6s-5.8-0.5-5.1-4.6c0.6-3.4,5.1-4.2,7.1,0.1c0.3,0.6,0.8,0.9,1.4,1
	c1,0.1,2.6,0.1,4.3-0.4c-2.2-5.1-6.6-8.2-11.9-7.1C38,342.8,36.6,354.4,49.7,354z"/>
<path class="st2" d="M186.6,179.3c0,0-0.7,12.4-9.3,14.6l-6.4-7.1C173,183.9,179.1,178.3,186.6,179.3z"/>
<path class="st0" d="M177.3,193.9l-3.4-3.8c1.3-4.1,7-9.8,12.5-9.6C186,183.6,184.3,192.1,177.3,193.9z"/>
<path class="st2" d="M142.4,179.3c0,0,0.7,12.4,9.3,14.6l6.4-7.1C155.9,183.9,149.9,178.3,142.4,179.3z"/>
<path class="st0" d="M151.7,193.9l3.4-3.8c-1.3-4.1-7-9.8-12.5-9.6C142.9,183.6,144.7,192.1,151.7,193.9z"/>
<path class="st1" d="M182.3,206c0,8.7-8,15.7-17.8,15.7s-17.8-7-17.8-15.7c0-10,8-21.4,17.8-21.4C174.3,184.6,182.3,196,182.3,206z"
	/>
<path class="st35" d="M158.4,213.2c0.8,2.4,2.9,4.2,5.4,4.2h1.5c2.5,0,4.6-1.8,5.4-4.3L158.4,213.2z"/>
<g>
	<g>
		<path d="M170.2,212.3c-0.3-0.5-0.8-0.3-1,0c-0.2-0.2-0.6-0.2-0.8,0c-0.3-0.2-0.8,0-0.9,0.3c-0.1-0.1-0.3-0.1-0.5-0.1
			c-0.2-0.3-0.6-0.4-0.9-0.3c-0.2-0.2-0.6-0.2-0.9-0.1c-0.1-0.1-0.3-0.2-0.5-0.2s-0.4,0-0.5,0.2c-0.3-0.2-0.7-0.2-0.9,0.1
			c-0.3-0.2-0.8-0.1-0.9,0.3c-0.2,0-0.3,0-0.5,0.1c-0.2-0.3-0.6-0.4-0.9-0.3c-0.2-0.2-0.6-0.2-0.8,0c-0.3-0.3-0.8-0.5-1,0
			c-0.7,1.3-1.6,2.6-2.3,3.9c-0.4,0.7,0.5,1.4,1,0.9c0.3,0.3,0.7,0.3,1-0.1c0.1-0.1,0.1-0.2,0.2-0.2l0,0c-0.3,0.8,0.9,1.3,1.3,0.5
			c0.2-0.6,0.5-1.3,0.8-1.9c-0.2,0.5-0.3,1-0.5,1.5c-0.3,0.7,0.6,1.1,1.1,0.7c0.3,0.3,0.9,0.3,1.1-0.2c0.1-0.4,0.2-0.8,0.4-1.2
			c-0.1,0.5-0.1,1-0.2,1.5c-0.1,0.6,1.2,0.7,1.3,0.1c0-0.1,0-0.3,0.1-0.4c0,0,0,0,0.1,0.1c0.1,0.2,0.3,0.3,0.5,0.3s0.4-0.1,0.5-0.3
			c0,0,0,0,0.1-0.1c0,0.1,0,0.3,0.1,0.4c0.1,0.6,1.4,0.5,1.3-0.1c-0.1-0.5-0.2-1-0.2-1.5c0.1,0.4,0.2,0.8,0.4,1.2
			c0.2,0.5,0.8,0.5,1.1,0.2c0.4,0.4,1.3,0,1.1-0.7c-0.2-0.5-0.3-1-0.5-1.5c0.3,0.6,0.6,1.3,0.8,1.9c0.3,0.8,1.6,0.3,1.3-0.5l0,0
			c0.1,0.1,0.1,0.2,0.2,0.2c0.3,0.4,0.7,0.3,1,0.1c0.5,0.5,1.4-0.2,1-0.9C171.8,215,171,213.7,170.2,212.3z"/>
	</g>
</g>
<path class="st0" d="M172.5,210.5c0,4.6-5.6,3.1-8,3.1s-8,1.4-8-3.1c0-4.7,3.6-7.9,8-7.9S172.5,205.8,172.5,210.5z"/>
<path class="st2" d="M152.8,206.2c0-8.5,4.8-17.9,11.6-21.6l0,0c-9.8,0-17.8,11.4-17.8,21.4c0,8.2,7.1,14.9,16.2,15.6
	C156.9,218.8,152.8,213,152.8,206.2z"/>
<g>
	
		<ellipse transform="matrix(-0.4744 0.8803 -0.8803 -0.4744 422.4307 166.1506)" class="st36" cx="161.6" cy="209.2" rx="1.8" ry="1.4"/>
	
		<ellipse transform="matrix(-0.4744 -0.8803 0.8803 -0.4744 62.754 455.7936)" class="st36" cx="167.4" cy="209.2" rx="1.8" ry="1.4"/>
</g>
<path class="st3" d="M156.6,201.7L156.6,201.7c-1.2,0-2.1-1-2.1-2.1v-0.7c0-1.2,1-2.1,2.1-2.1l0,0c1.2,0,2.1,1,2.1,2.1v0.7
	C158.8,200.7,157.8,201.7,156.6,201.7z"/>
<path class="st17" d="M156.6,196.7v2.5c0,0.6,0.5,1.1,1.1,1.1s1.1-0.5,1.1-1.1v-0.4C158.8,197.7,157.8,196.7,156.6,196.7z"/>
<circle class="st37" cx="156.6" cy="198.1" r="0.7"/>
<path class="st3" d="M172.3,201.7L172.3,201.7c-1.2,0-2.1-1-2.1-2.1v-0.7c0-1.2,1-2.1,2.1-2.1l0,0c1.2,0,2.1,1,2.1,2.1v0.7
	C174.5,200.7,173.5,201.7,172.3,201.7z"/>
<path class="st17" d="M172.3,196.7v2.5c0,0.6,0.5,1.1,1.1,1.1s1.1-0.5,1.1-1.1v-0.4C174.5,197.7,173.5,196.7,172.3,196.7z"/>
<circle class="st37" cx="172.3" cy="198.1" r="0.7"/>
<ellipse class="st38" cx="144.1" cy="399" rx="57.9" ry="13.4"/>
<path class="st39" d="M161.4,392.5c-0.1-0.2-0.2-0.4-0.4-0.6c-0.5-0.7-1.4-1.4-2.4-1.3c-0.8,0.1-1.6,0.7-1.6,1.6
	c0,0.3,0.1,0.6,0.3,0.9c0.7,1.1,2,1.8,3.4,1.8h0.9L161.4,392.5z"/>
<path class="st40" d="M160.7,393.4c-1.4,0-2.6-0.7-3.4-1.8c0,0-0.1-0.1-0.1-0.1c-0.1,0.2-0.2,0.5-0.2,0.7c0,0.3,0.1,0.6,0.3,0.9
	c0.7,1.1,2,1.8,3.4,1.8h0.9l-0.1-1.5L160.7,393.4L160.7,393.4z"/>
<path class="st41" d="M171.8,385.5c-0.4-1-0.8-2-1.3-3h4.5c0.4,0.9,0.8,1.8,1.2,2.6l-0.5,1.5h-2.4L171.8,385.5z"/>
<path class="st42" d="M173.3,386.2c-0.1-0.3-1.1-3.2-1.3-3.2c0,0,0,0,0,0l-1.3-0.1c0.4,0.9,0.8,1.8,1.1,2.7L173.3,386.2z"/>
<path class="st39" d="M176.4,395.8c-1,0.9-2.4,1.4-3.7,1.4h-7.6c-2.1,0-3.8-1.7-3.8-3.8l11.6-4.9c-0.3-0.8-0.6-1.9-1-3
	c0.5,0.1,1,0.2,1.6,0.2c1,0,2-0.2,2.8-0.6C178.5,390.6,178.6,393.8,176.4,395.8z"/>
<path class="st40" d="M173.8,388.3c-0.1-0.7-0.3-1.4-0.5-2c0-0.1-0.1-0.2-0.2-0.5c-0.5,0-0.9-0.1-1.3-0.2c0.4,1.1,0.8,2.1,1,3
	l-0.7,2.6C173.3,390.8,174.1,389.5,173.8,388.3L173.8,388.3z"/>
<circle class="st43" cx="173.3" cy="379.3" r="4.8"/>
<path class="st44" d="M170,379.3c0-2.4,1.8-4.4,4.1-4.7c-0.2,0-0.5-0.1-0.7-0.1c-2.7,0-4.8,2.1-4.8,4.8s2.1,4.8,4.8,4.8
	c0.3,0,0.5,0,0.7-0.1C171.8,383.7,170,381.7,170,379.3z"/>
<path class="st45" d="M169.7,394.2h-2.2l-2.3-5.9c0.6-0.4,1.3-0.8,2.1-1.1l2.8,3L169.7,394.2z"/>
<path class="st46" d="M165.7,389.8c0.9-0.6,1.8-1,2.7-1.2l-1.2-1.3c0,0,0,0,0,0c-0.7,0.3-1.4,0.6-2.1,1.1L165.7,389.8z"/>
<path class="st43" d="M167.5,394.2h-5.9c-0.5,0-0.9-0.6-0.6-1c0.7-1.3,2-3.4,4.2-4.8C166,389.4,167.2,391.4,167.5,394.2z"/>
<path class="st47" d="M169.4,386.8c0.2,0,0.5,0,0.7,0c2,0,3.7,1.7,3.7,3.7c0,1.5-0.9,2.7-2.1,3.3L169.4,386.8z"/>
<path class="st47" d="M180.9,380.3c-0.8-0.2-2.1-0.8-3-2.3c0,0,0.1,0.9-1,1.8c-0.3,0.2-0.4,0.6-0.4,0.9c0,0.7,0.5,1.2,1.2,1.2h3
	c0.5,0,0.8-0.4,0.8-0.8C181.5,380.7,181.3,380.4,180.9,380.3L180.9,380.3z"/>
<path class="st48" d="M180.7,381h-3c-0.5,0-0.9-0.3-1.1-0.7c-0.1,0.2-0.1,0.3-0.1,0.5c0,0.7,0.5,1.2,1.2,1.2h3
	c0.5,0,0.8-0.4,0.8-0.8c0-0.2-0.1-0.4-0.2-0.5C181.2,380.8,181,381,180.7,381L180.7,381z"/>
<ellipse class="st49" cx="174.1" cy="380.2" rx="1.8" ry="1.4"/>
<path class="st50" d="M175.4,379.2c-0.2,0-0.4-0.2-0.4-0.4V378c0-0.2,0.2-0.4,0.4-0.4s0.4,0.2,0.4,0.4v0.8
	C175.8,379,175.6,379.2,175.4,379.2z"/>
<path class="st51" d="M171.8,393.9c-0.5,0.2-1,0.4-1.6,0.4h-0.4c-0.1-3.6-1.7-6-2.5-6.9c0.7-0.2,1.4-0.4,2.2-0.5
	C170.3,387.9,171.7,390.3,171.8,393.9L171.8,393.9z"/>
<path class="st48" d="M173.8,390.1c-0.1-0.9-0.5-1.7-1.1-2.3c-1-0.9-2-1.1-3.3-1c0,0,0,0,0,0l0.5,1.5c0.2,0,0.5,0,0.7,0
	C172,388.3,173.2,389,173.8,390.1L173.8,390.1z"/>
<path class="st52" d="M168.2,388.6c0.7-0.2,1.4-0.3,2.2-0.3c-0.3-0.6-0.7-1.1-0.9-1.5c-0.7,0.1-1.5,0.2-2.2,0.5
	C167.5,387.6,167.8,388,168.2,388.6z"/>
<path class="st44" d="M161.6,394.2h0.1c0.7-1.3,2-3.1,3.9-4.4c0.1-0.1,0.2-0.2,0.3-0.2c-0.3-0.5-0.6-0.9-0.8-1.3
	c-2.1,1.5-3.5,3.6-4.2,4.8C160.7,393.7,161.1,394.2,161.6,394.2z"/>
<path class="st53" d="M143,390.8v3.5c0,1.3,1,2.3,2.3,2.3h5.1c1.3,0,2.3-1,2.3-2.3c0-0.8-0.4-1.5-1-1.9c-0.3-0.2-0.6-0.4-0.8-0.6
	c-0.2-0.3-0.2-0.7,0.1-0.9c0.6-0.5,1.1-1.3,1.1-2.2c0-1.6-1.3-2.9-2.9-2.9c-1.5,0-2.8,1.3-2.8,2.8c0,0.9,0.4,1.7,1.1,2.2
	c0.3,0.3,0.3,0.8-0.1,1c0,0,0,0,0,0c-0.1,0-0.2,0.1-0.3,0.1h-2c-0.4,0-0.8-0.2-1-0.5l-0.5-0.8C143.5,390.3,143,390.4,143,390.8z"/>
<path class="st54" d="M143,390.8v3.5c0,1.3,1,2.3,2.3,2.3h5.1c0.8,0,1.5-0.4,1.9-1c-0.3,0.2-0.7,0.3-1.2,0.3H146
	c-1.3,0-2.3-1-2.3-2.3v-2.8l-0.1-0.1C143.5,390.3,143,390.4,143,390.8z"/>
<path class="st54" d="M147.6,386.2c-0.8,0.5-1.3,1.4-1.3,2.4c0,0.9,0.4,1.7,1.1,2.2c0.1,0.1,0.2,0.3,0.2,0.4h0.1
	c0.1,0,0.2,0,0.3-0.1c0,0,0,0,0,0c0.4-0.2,0.4-0.7,0.1-1c-0.7-0.5-1.1-1.3-1.1-2.2C147.1,387.3,147.3,386.7,147.6,386.2z"/>
<path class="st55" d="M152.7,388.3c0.1,0,0.2,0,0.3,0c0.2,0,0.6,0,0.8,0.2c0.1,0.1,0.1,0.2,0,0.3c-0.5,0.6-1.3,1.2-2.3,1.5
	c-0.2-0.1-0.7-0.6-0.9-0.8c-0.1-0.2,0-0.5,0.2-0.6c0.5-0.2,0.9-0.5,1.1-1C152.1,388.1,152.4,388.2,152.7,388.3z"/>
<path class="st56" d="M150.6,389.5c0.1,0.3,0.6,0.7,0.9,0.8c0.2,0,0.3-0.1,0.5-0.2c-0.2-0.2-0.5-0.5-0.6-0.7c-0.1-0.2,0-0.5,0.2-0.6
	c0.3-0.2,0.7-0.4,0.9-0.6c-0.2-0.1-0.4-0.2-0.5-0.3c-0.2,0.4-0.7,0.7-1.1,1C150.6,389,150.5,389.3,150.6,389.5z"/>
<path class="st57" d="M150.4,387.2c0.2,0,0.4,0.2,0.4,0.4c0,0.2-0.2,0.4-0.4,0.4s-0.4-0.2-0.4-0.4
	C150.1,387.3,150.2,387.2,150.4,387.2z"/>
<path class="st53" d="M130,391.1v3.5c0,1.3,1,2.3,2.3,2.3h5.1c1.3,0,2.3-1,2.3-2.3c0-0.8-0.4-1.5-1-1.9c-0.3-0.2-0.6-0.4-0.8-0.6
	c-0.2-0.3-0.2-0.7,0.1-0.9c0.6-0.5,1.1-1.3,1.1-2.2c0-1.6-1.3-2.9-2.9-2.9c-1.5,0-2.8,1.3-2.8,2.8c0,0.9,0.4,1.7,1.1,2.2
	c0.3,0.3,0.3,0.8-0.1,1c0,0,0,0,0,0c-0.1,0-0.2,0.1-0.3,0.1h-2c-0.4,0-0.8-0.2-1-0.5l-0.5-0.8C130.5,390.6,130,390.7,130,391.1z"/>
<path class="st54" d="M130,391.1v3.5c0,1.3,1,2.3,2.3,2.3h5.1c0.8,0,1.5-0.4,1.9-1c-0.3,0.2-0.7,0.3-1.2,0.3H133
	c-1.3,0-2.3-1-2.3-2.3V391l-0.1-0.1C130.5,390.6,130,390.7,130,391.1z"/>
<path class="st54" d="M134.6,386.5c-0.8,0.5-1.3,1.4-1.3,2.4c0,0.9,0.4,1.7,1.1,2.2c0.1,0.1,0.2,0.3,0.2,0.4h0.1
	c0.1,0,0.2,0,0.3-0.1c0,0,0,0,0,0c0.4-0.2,0.4-0.7,0.1-1c-0.7-0.5-1.1-1.3-1.1-2.2C134.1,387.6,134.3,387,134.6,386.5z"/>
<path class="st55" d="M139.7,388.6c0.1,0,0.2,0,0.3,0c0.2,0,0.6,0,0.8,0.2c0.1,0.1,0.1,0.2,0,0.3c-0.5,0.6-1.3,1.2-2.3,1.5
	c-0.2-0.1-0.7-0.6-0.9-0.8c-0.1-0.2,0-0.5,0.2-0.6c0.5-0.2,0.9-0.5,1.1-1C139.1,388.4,139.4,388.5,139.7,388.6z"/>
<path class="st56" d="M137.6,389.8c0.1,0.3,0.6,0.7,0.9,0.8c0.2,0,0.3-0.1,0.5-0.2c-0.2-0.2-0.5-0.5-0.6-0.7c-0.1-0.2,0-0.5,0.2-0.6
	c0.3-0.2,0.7-0.4,0.9-0.6c-0.2-0.1-0.4-0.2-0.5-0.3c-0.2,0.4-0.7,0.7-1.1,1C137.6,389.3,137.5,389.5,137.6,389.8z"/>
<path class="st57" d="M137.4,387.5c0.2,0,0.4,0.2,0.4,0.4c0,0.2-0.2,0.4-0.4,0.4s-0.4-0.2-0.4-0.4
	C137.1,387.6,137.2,387.5,137.4,387.5z"/>
<path class="st58" d="M240.7,343.5c-0.2,0.7-0.8,0.8-1.5,0.6c-0.7-0.2-1.2-0.5-1.1-1.2c0.2-0.7,1-1.5,1.7-1.4
	C240.6,341.6,240.9,342.8,240.7,343.5z"/>
<path class="st58" d="M238.7,339.4c0,0-0.4-1.6,0.8-2.4c0.2-0.1,0.3-0.3,0.4-0.4c0.1-0.3,0.5-0.6,1.3-0.8c0.4-0.1,0.8,0.2,0.7,0.7
	c-0.1,0.8-0.3,2-0.3,2L238.7,339.4z"/>
<path class="st59" d="M249.1,358.3c-0.3-0.2-0.6-0.4-1-0.5l0.8-1.8l-1.3-0.6l-1,2.3c-0.5,0.1-0.9,0.3-1.3,0.6
	c-0.3,0.3-0.3,0.7-0.1,1c0.3,0.3,0.7,0.3,1,0.1c0.6-0.5,1.4-0.5,1.9,0c0.1,0.1,0.6,0.3,1-0.1C249.5,359,249.4,358.6,249.1,358.3z"/>
<path class="st60" d="M252.6,344.5l7.2,4.2c0,0-1.8,7.6-12.1,7.6s-7.5-14.1-7.5-14.1l-1.8-0.2c-0.5-0.1-0.8-0.6-0.6-1.1
	c0.6-1.3,2-3.4,4.3-3.4C245.6,337.4,247.8,344.5,252.6,344.5z"/>
<path class="st61" d="M259.8,348.7l-0.7-0.4h-14.7c0,0-0.4,4.6,2.8,6.2c1.5,0.7,2.4,1.3,2.9,1.7
	C258.3,355.1,259.8,348.7,259.8,348.7z"/>
<path class="st62" d="M255.7,347l4.7-0.8c0.6-0.1,1.1,0.5,0.9,1c-0.3,1.2-1.4,2.9-4.9,3.2C256.5,350.3,255.7,347,255.7,347z"/>
<path class="st61" d="M252.7,344.9l7.7-1.8c0.8-0.2,1.5,0.7,1,1.4c-1,1.5-3,3.4-6.8,3.6C254.4,348.3,252.7,344.9,252.7,344.9z"/>
<path class="st63" d="M252.1,358.4c-0.3-0.3-0.7-0.5-1-0.6l0.8-1.6c0.2-0.5-0.1-1-0.7-1c-0.3,0-0.5,0.2-0.7,0.4l-1,2.2
	c-0.4,0.1-0.9,0.3-1.2,0.6c-0.3,0.2-0.4,0.7-0.1,1c0.3,0.3,0.7,0.4,1,0.1c0.6-0.5,1.4-0.5,1.9,0c0.1,0.1,0.6,0.3,1-0.1
	C252.4,359.1,252.4,358.6,252.1,358.4z"/>
<path class="st64" d="M244.6,349.3c0.5,1.4,1.7,2.7,4.6,3.4c0.4,0.1,0.8-0.1,0.9-0.6c0.1-0.4,0.3-0.9,0.3-0.9s1.2,1.7,4.3,2.3
	c0.4,0.1,0.8-0.2,0.9-0.6l0.3-1.3c0,0,1.7,0.9,4,1.3c0.8,0.1,1.5-0.7,1.1-1.5c-1-2.5-3.5-7.1-7.6-8.2c-3.2-0.8-5.5,0-7,0.9
	C244.8,345.4,244,347.4,244.6,349.3z"/>
<path class="st63" d="M238.7,339.4c-0.4,0.5-0.7,1-0.9,1.5c-0.2,0.5,0.1,1,0.6,1.1l1.8,0.2C240.2,342.2,240.6,340.4,238.7,339.4z"/>
<path class="st65" d="M241.2,340.3c-0.2,0-0.4-0.2-0.4-0.4v-0.6c0-0.2,0.2-0.4,0.4-0.4c0.2,0,0.4,0.2,0.4,0.4v0.6
	C241.6,340.2,241.4,340.3,241.2,340.3z"/>
<path class="st66" d="M255.6,353l0.3-1.3c0,0,1.7,0.9,4,1.3c0.8,0.1,1.5-0.7,1.1-1.5c-0.2-0.4-0.3-0.8-0.5-1.2
	c-4.3-1.2-9.2-1-11.1-1.7c-2.7-0.9-1.4-5.2-1.4-5.2c-0.6,0.2-1.1,0.5-1.6,0.8c-1.7,1.1-2.5,3.1-1.8,5c0.5,1.4,1.7,2.7,4.6,3.4
	c0.4,0.1,0.8-0.1,0.9-0.6c0.1-0.4,0.3-0.9,0.3-0.9s1.2,1.7,4.3,2.3C255.1,353.7,255.5,353.4,255.6,353z"/>
<g>
	<path class="st67" d="M264.5,360.2c-0.1-0.1-0.2-0.1-0.2,0l-1.2,0.8l-0.8-0.4c-0.1,0-0.2,0-0.2,0.1c0,0.1,0,0.2,0.1,0.2l1.3,0.7
		c0,0,0.1,0,0.1,0c0.1,0,0.1,0,0.1-0.1c0-0.1,0-0.2-0.1-0.2l-0.2-0.1l1-0.7C264.5,360.4,264.6,360.3,264.5,360.2z"/>
	<path class="st67" d="M266.6,361.9l-0.2,0l-0.2-1.4c0-0.1-0.1-0.2-0.2-0.1c-0.1,0-0.2,0.1-0.1,0.2l0.2,1.3l-0.8,0
		c-0.1,0-0.2,0.1-0.2,0.2c0,0.1,0.1,0.2,0.2,0.2l1.4,0c0.1,0,0.2-0.1,0.2-0.2C266.8,361.9,266.7,361.9,266.6,361.9z"/>
</g>
<path class="st68" d="M269.3,357.7c-1.5-0.2-3.5-1.1-3.6-2.9c0-1.3-1-2.3-2.3-2.4c-1,0-1.9,0.6-2.3,1.5c-0.1,0.3-0.2,0.7-0.1,1
	l0,0.3c0,0.3,0.2,0.7,0.4,1c0,0,0,0,0,0c0.1,0.1,0.1,0.2,0.1,0.3c0,2.2,1.5,4.3,4.4,4.3c2.2,0,4-1.3,4.7-3.1
	c0.1-0.2-0.1-0.3-0.3-0.2C270.2,357.7,269.8,357.8,269.3,357.7z"/>
<g>
	<path class="st69" d="M267.2,360.6c-2.8,0-5.5-2.5-4.8-7c0.1-0.5,0.4-1,0.8-1.3c-0.9,0.1-1.6,0.7-1.9,1.5c-0.1,0.3-0.2,0.7-0.1,1
		l0,0.3c0,0.4,0.2,0.7,0.4,1c0,0,0,0,0,0c0.1,0.1,0.1,0.2,0.1,0.3c0,2.2,1.5,4.3,4.4,4.3c0.5,0,1.1-0.1,1.5-0.2
		C267.4,360.6,267.3,360.6,267.2,360.6z"/>
	<path class="st69" d="M266.4,355.9c-0.6-0.5-1.4-0.4-2,0.1c-2.2,1.9,1.9,5.6,5.1,1.5c0.1-0.1,0-0.3-0.1-0.3
		C268.7,356.9,267.3,356.6,266.4,355.9z"/>
</g>
<path class="st70" d="M261,354.7l-0.5,0.4c-0.1,0.1-0.1,0.2,0,0.2l0.6,0.2c0.1,0,0.2,0,0.2-0.1c0.1-0.2,0.1-0.5-0.1-0.8
	C261.1,354.7,261.1,354.7,261,354.7z"/>
<path class="st67" d="M269.4,357.1c-0.2,0-0.4-0.1-0.6-0.1c-1.4,2-4,2.5-4.9,0.8c0.5,1.5,3.3,2.6,5.6-0.3
	C269.6,357.3,269.5,357.1,269.4,357.1z"/>
<path class="st3" d="M262.6,355.1L262.6,355.1c-0.3,0-0.5-0.2-0.5-0.5v-0.2c0-0.3,0.2-0.5,0.5-0.5l0,0c0.3,0,0.5,0.2,0.5,0.5v0.2
	C263.1,354.9,262.9,355.1,262.6,355.1z"/>
<path class="st17" d="M262.6,353.9v0.6c0,0.1,0.1,0.3,0.3,0.3c0.1,0,0.3-0.1,0.3-0.3v-0.1C263.1,354.1,262.9,353.9,262.6,353.9z"/>
<circle class="st37" cx="262.6" cy="354.2" r="0.2"/>
<g>
	<path class="st67" d="M257.5,365.1c-0.1-0.1-0.2-0.1-0.2,0l-1.2,0.8l-0.8-0.4c-0.1,0-0.2,0-0.2,0.1c0,0.1,0,0.2,0.1,0.2l1.3,0.7
		c0,0,0.1,0,0.1,0c0.1,0,0.1,0,0.1-0.1c0-0.1,0-0.2-0.1-0.2l-0.2-0.1l1-0.7C257.5,365.3,257.5,365.2,257.5,365.1z"/>
	<path class="st67" d="M259.6,366.8h-0.2l-0.2-1.4c0-0.1-0.1-0.2-0.2-0.1c-0.1,0-0.2,0.1-0.1,0.2l0.2,1.3l-0.8,0
		c-0.1,0-0.2,0.1-0.2,0.2c0,0.1,0.1,0.2,0.2,0.2l1.4,0c0.1,0,0.2-0.1,0.2-0.2C259.8,366.9,259.7,366.8,259.6,366.8z"/>
</g>
<path class="st68" d="M262.3,362.6c-1.5-0.2-3.5-1.1-3.6-2.9c0-1.3-1-2.3-2.3-2.4c-1,0-1.9,0.6-2.3,1.5c-0.1,0.3-0.2,0.7-0.1,1
	l0,0.3c0,0.3,0.2,0.7,0.4,1c0,0,0,0,0,0c0.1,0.1,0.1,0.2,0.1,0.3c0,2.2,1.5,4.3,4.4,4.3c2.2,0,4-1.3,4.7-3.1
	c0.1-0.2-0.1-0.3-0.3-0.2C263.1,362.6,262.7,362.7,262.3,362.6z"/>
<g>
	<path class="st69" d="M260.1,365.6c-2.8,0-5.5-2.5-4.8-7c0.1-0.5,0.4-1,0.8-1.3c-0.9,0.1-1.6,0.7-1.9,1.5c-0.1,0.3-0.2,0.7-0.1,1
		l0,0.3c0,0.4,0.2,0.7,0.4,1c0,0,0,0,0,0c0.1,0.1,0.1,0.2,0.1,0.3c0,2.2,1.5,4.3,4.4,4.3c0.5,0,1.1-0.1,1.5-0.2
		C260.4,365.5,260.3,365.6,260.1,365.6z"/>
	<path class="st69" d="M259.4,360.8c-0.6-0.5-1.4-0.4-2,0.1c-2.2,1.9,1.9,5.6,5.1,1.5c0.1-0.1,0-0.3-0.1-0.3
		C261.7,361.8,260.2,361.5,259.4,360.8z"/>
</g>
<path class="st70" d="M254,359.6l-0.5,0.4c-0.1,0.1-0.1,0.2,0,0.2l0.6,0.2c0.1,0,0.2,0,0.2-0.1c0.1-0.2,0.1-0.5-0.1-0.8
	C254.1,359.6,254,359.6,254,359.6z"/>
<path class="st67" d="M262.3,362c-0.2,0-0.4-0.1-0.6-0.1c-1.4,2-4,2.5-4.9,0.8c0.5,1.5,3.3,2.6,5.6-0.3
	C262.5,362.2,262.5,362,262.3,362z"/>
<path class="st3" d="M255.5,360L255.5,360c-0.3,0-0.5-0.2-0.5-0.5v-0.2c0-0.3,0.2-0.5,0.5-0.5l0,0c0.3,0,0.5,0.2,0.5,0.5v0.2
	C256,359.8,255.8,360,255.5,360z"/>
<path class="st17" d="M255.5,358.8v0.6c0,0.1,0.1,0.3,0.3,0.3s0.3-0.1,0.3-0.3v-0.1C256,359,255.8,358.8,255.5,358.8z"/>
<circle class="st37" cx="255.5" cy="359.2" r="0.2"/>
</svg>
