<?xml version="1.0" encoding="UTF-8" standalone="no"?>
<svg
   xmlns:dc="http://purl.org/dc/elements/1.1/"
   xmlns:cc="http://creativecommons.org/ns#"
   xmlns:rdf="http://www.w3.org/1999/02/22-rdf-syntax-ns#"
   xmlns:svg="http://www.w3.org/2000/svg"
   xmlns="http://www.w3.org/2000/svg"
   xmlns:sodipodi="http://sodipodi.sourceforge.net/DTD/sodipodi-0.dtd"
   xmlns:inkscape="http://www.inkscape.org/namespaces/inkscape"
   inkscape:version="1.0alpha (9dee831, 2019-01-15)"
   sodipodi:docname="herald.svg"
   id="svg60"
   version="1.1"
   width="511.999pt"
   viewBox="0 0 511.999 511.999"
   height="511.999pt">
  <metadata
     id="metadata66">
    <rdf:RDF>
      <cc:Work
         rdf:about="">
        <dc:format>image/svg+xml</dc:format>
        <dc:type
           rdf:resource="http://purl.org/dc/dcmitype/StillImage" />
        <dc:title></dc:title>
      </cc:Work>
    </rdf:RDF>
  </metadata>
  <defs
     id="defs64" />
  <sodipodi:namedview
     inkscape:current-layer="svg60"
     inkscape:window-maximized="1"
     inkscape:window-y="34"
     inkscape:window-x="59"
     inkscape:cy="341.33266"
     inkscape:cx="341.33266"
     inkscape:zoom="0.73535301"
     showgrid="false"
     id="namedview62"
     inkscape:window-height="702"
     inkscape:window-width="1307"
     inkscape:pageshadow="2"
     inkscape:pageopacity="0"
     guidetolerance="10"
     gridtolerance="10"
     objecttolerance="10"
     borderopacity="1"
     inkscape:document-rotation="0"
     bordercolor="#666666"
     pagecolor="#ffffff" />
  <path
     style="fill:#990024;fill-opacity:1"
     id="path48"
     fill="#ff8533"
     d="m291.15625 18.273438c11.953125 17.027343 34.394531 23.039062 53.261719 14.269531 26.996093-12.546875 58.257812 5.503906 60.890625 35.15625 1.839844 20.726562 18.265625 37.152343 38.992187 38.992187 29.652344 2.628906 47.703125 33.894532 35.152344 60.890625-8.765625 18.867188-2.753906 41.304688 14.273437 53.261719 24.363282 17.105469 24.363282 53.207031 0 70.3125-17.027343 11.953125-23.039062 34.394531-14.273437 53.261719 12.550781 26.996093-5.503906 58.257812-35.152344 60.890625-20.726562 1.839844-37.152343 18.265625-38.992187 38.992187-2.632813 29.652344-33.894532 47.703125-60.890625 35.152344-18.867188-8.765625-41.308594-2.753906-53.261719 14.273437-17.105469 24.363282-53.207031 24.363282-70.3125 0-11.957031-17.027343-34.394531-23.039062-53.261719-14.273437-26.996093 12.550781-58.261719-5.503906-60.890625-35.152344-1.839844-20.726562-18.265625-37.152343-38.992187-38.992187-29.652344-2.632813-47.703125-33.894532-35.15625-60.890625 8.769531-18.867188 2.757812-41.308594-14.269531-53.261719-24.363282-17.105469-24.363282-53.207031 0-70.3125 17.027343-11.957031 23.039062-34.394531 14.269531-53.261719-12.546875-26.996093 5.503906-58.261719 35.15625-60.890625 20.726562-1.839844 37.152343-18.265625 38.992187-38.992187 2.628906-29.652344 33.894532-47.703125 60.890625-35.15625 18.867188 8.769531 41.304688 2.757812 53.261719-14.269531 17.105469-24.363282 53.207031-24.363282 70.3125 0zm0 0" />
  <path
     style="fill:#990024;fill-opacity:1"
     id="path50"
     fill="#ff8533"
     d="m236.441406 18.273438c11.957032 17.027343 34.394532 23.039062 53.261719 14.269531 4.003906-1.859375 8.101563-3.03125 12.1875-3.609375-4.085937-2.824219-7.738281-6.398438-10.734375-10.660156-14.816406-21.105469-43.882812-23.914063-62.511719-8.453126 2.875 2.386719 5.507813 5.195313 7.796875 8.453126zm0 0" />
  <path
     id="path52"
     fill="#f8fbff"
     d="m452.523438 256c0 108.539062-87.984376 196.523438-196.523438 196.523438s-196.523438-87.984376-196.523438-196.523438 87.984376-196.523438 196.523438-196.523438 196.523438 87.984376 196.523438 196.523438zm0 0" />
  <path
     id="path54"
     fill="#e4eaf7"
     d="m256 59.476562c-9.285156 0-18.414062.660157-27.355469 1.90625 95.582031 13.3125 169.164063 95.363282 169.164063 194.617188s-73.578125 181.304688-169.164063 194.617188c8.941407 1.246093 18.070313 1.90625 27.355469 1.90625 108.535156 0 196.523438-87.988282 196.523438-196.523438s-87.988282-196.523438-196.523438-196.523438zm0 0" />
  <text
     inkscape:transform-center-x="-1.8375836"
     id="text74"
     y="328.5961"
     x="179.45955"
     style="font-style:normal;font-variant:normal;font-weight:normal;font-stretch:normal;font-size:230px;font-family:aakar;-inkscape-font-specification:aakar;fill:#990024;fill-opacity:1;stroke:none;stroke-width:0.75"
     xml:space="preserve"><tspan
       style="font-style:normal;font-variant:normal;font-weight:normal;font-stretch:normal;font-size:230px;font-family:aakar;-inkscape-font-specification:aakar;fill:#990024;fill-opacity:1;stroke-width:0.75"
       y="328.5961"
       x="179.45955"
       id="tspan72"
       sodipodi:role="line">H</tspan></text>
</svg>
