<?xml version="1.0" encoding="iso-8859-1"?>
<!-- Generator: Adobe Illustrator 19.0.0, SVG Export Plug-In . SVG Version: 6.00 Build 0)  -->
<svg version="1.1" id="Capa_1" xmlns="http://www.w3.org/2000/svg" xmlns:xlink="http://www.w3.org/1999/xlink" x="0px" y="0px"
	 viewBox="0 0 512 512" style="enable-background:new 0 0 512 512;" xml:space="preserve">
<circle style="fill:#FCBF29;" cx="256" cy="256" r="241"/>
<path style="fill:#FF9822;" d="M256,15v482c133.101,0,241-107.9,241-241C497,122.898,389.101,15,256,15z"/>
<path style="fill:#9A4C0E;" d="M256,512c-68.38,0-132.667-26.629-181.02-74.981C26.629,388.667,0,324.38,0,256
	c0-68.381,26.629-132.668,74.98-181.02C123.332,26.628,187.62,0,256,0s132.668,26.628,181.02,74.98
	C485.371,123.332,512,187.619,512,256c0,68.38-26.629,132.667-74.98,181.019C388.667,485.371,324.38,512,256,512z M256,30
	C131.383,30,30,131.383,30,256s101.383,226,226,226s226-101.383,226-226S380.617,30,256,30z"/>
<path style="fill:#C20022;" d="M387.749,327.768h-6.794L269.416,104.689c-2.54-5.082-7.734-8.292-13.416-8.292
	c-5.682,0-10.876,3.21-13.416,8.292L131.046,327.768h-6.797c-8.284,0-15,6.716-15,15s6.716,15,15,15h15.994
	c0.02,0,0.041,0.003,0.061,0.003c0.033,0,0.066-0.003,0.1-0.003h15.98c8.284,0,15-6.716,15-15c0-5.648-3.125-10.563-7.738-13.121
	L256,144.939l92.354,184.708c-4.613,2.559-7.738,7.473-7.738,13.122c0,8.284,6.716,15,15,15h32.133c8.284,0,15-6.716,15-15
	C402.749,334.484,396.033,327.768,387.749,327.768z"/>
<path style="fill:#713709;" d="M437.02,74.98C388.668,26.628,324.38,0,256,0v30c124.617,0,226,101.383,226,226S380.617,482,256,482
	v30c68.38,0,132.667-26.629,181.02-74.981C485.371,388.667,512,324.38,512,256C512,187.619,485.371,123.332,437.02,74.98z"/>
<path style="fill:#98001B;" d="M340.616,342.768c0,8.284,6.716,15,15,15h32.133c8.284,0,15-6.716,15-15s-6.716-15-15-15h-6.794
	L269.416,104.689c-2.54-5.082-7.734-8.292-13.416-8.292v48.542l92.354,184.708C343.741,332.205,340.616,337.12,340.616,342.768z"/>
<g>
</g>
<g>
</g>
<g>
</g>
<g>
</g>
<g>
</g>
<g>
</g>
<g>
</g>
<g>
</g>
<g>
</g>
<g>
</g>
<g>
</g>
<g>
</g>
<g>
</g>
<g>
</g>
<g>
</g>
</svg>
