<svg height="512pt" viewBox="-63 0 512 512" width="512pt" xmlns="http://www.w3.org/2000/svg"><path d="m119.789062 339.976562h30v172.023438h-30zm0 0" fill="#b6c4cf"/><path d="m187.558594 348.21875h30v163.78125h-30zm0 0" fill="#b6c4cf"/><path d="m88.300781 279.5h-58.796875v-30h37.789063l35.59375-88.242188 5.484375-12.757812h116.445312l33.941406 64.835938-26.578124 13.914062-25.519532-48.75h-77.90625zm0 0" fill="#96a3ab"/><path d="m119.789062 339.976562h30v172.023438h-30zm0 0" fill="#b6c4cf"/><path d="m187.558594 348.21875h30v163.78125h-30zm0 0" fill="#96a3ab"/><path d="m224.816406 148.5h-59.257812v30h41.101562l25.519532 48.75 26.578124-13.914062zm0 0" fill="#7d898f"/><path d="m102.886719 161.257812 11.765625 90.460938-23.179688 143.789062 75.113282-.136718 85.246093-.148438-32.546875-143.320312 12.28125-90.507813zm0 0" fill="#b6c4cf"/><path d="m251.832031 395.222656-32.546875-143.320312 12.28125-90.507813-64.980468-.070312v234.046875zm0 0" fill="#96a3ab"/><path d="m114.652344 251.71875-23.179688 143.789062 160.359375-.285156-32.546875-143.320312zm0 0" fill="#96a3ab"/><path d="m251.832031 395.222656-32.546875-143.320312-52.699218-.09375v143.5625zm0 0" fill="#7d898f"/><path d="m231.566406 161.394531-19.082031-41.550781c4.761719-8.839844 5.550781-18.703125 5.550781-27.628906 0-28.136719-22.472656-60.84375-51.449218-60.84375-28.976563 0-51.449219 32.707031-51.449219 60.84375 0 8.925781.789062 18.789062 5.550781 27.628906l-17.800781 41.414062zm0 0" fill="#dce1eb"/><path d="m212.484375 119.84375c4.761719-8.839844 5.550781-18.703125 5.550781-27.628906 0-28.136719-22.472656-60.84375-51.449218-60.84375v129.953125l64.980468.070312zm0 0" fill="#b6c4cf"/><path d="m151.585938 0h30v46.371094h-30zm0 0" fill="#ff0059"/><path d="m166.585938 0h15v46.371094h-15zm0 0" fill="#d20041"/><path d="m281.234375 197.445312c-57.308594 0-103.933594 46.625-103.933594 103.933594 0 57.3125 46.625 103.9375 103.933594 103.9375 57.3125 0 103.9375-46.625 103.9375-103.9375-.003906-57.308594-46.628906-103.933594-103.9375-103.933594zm0 0" fill="#00607f"/><path d="m281.234375 197.445312v207.871094c57.3125 0 103.9375-46.625 103.9375-103.9375-.003906-57.308594-46.628906-103.933594-103.9375-103.933594zm0 0" fill="#00465f"/><path d="m281.234375 353.261719c-28.605469 0-51.882813-23.273438-51.882813-51.882813 0-28.605468 23.277344-51.882812 51.882813-51.882812 28.609375 0 51.882813 23.277344 51.882813 51.882812 0 28.609375-23.273438 51.882813-51.882813 51.882813zm0-73.761719c-12.066406 0-21.882813 9.816406-21.882813 21.882812 0 12.0625 9.816407 21.878907 21.882813 21.878907s21.882813-9.816407 21.882813-21.878907c0-12.066406-9.816407-21.882812-21.882813-21.882812zm0 0" fill="#00465f"/><path d="m281.234375 249.5v30c12.066406 0 21.882813 9.816406 21.882813 21.882812 0 12.0625-9.816407 21.878907-21.882813 21.878907v30c28.609375 0 51.882813-23.273438 51.882813-51.878907 0-28.609374-23.273438-51.882812-51.882813-51.882812zm0 0" fill="#002c3c"/><path d="m12.433594 81.882812 29.945312-1.855468 26.644532 429.644531-29.945313 1.855469zm0 0" fill="#00607f"/><path d="m0 76.203125 25.9375-29.019531 29.023438 25.9375-25.941407 29.019531zm0 0" fill="#00465f"/></svg>