<svg height="511pt" viewBox="-53 1 511 511.99998" width="511pt" xmlns="http://www.w3.org/2000/svg"><path d="m125.714844 451.859375h30.074218v60.140625h-30.074218zm0 0" fill="#fcbd8a"/><path d="m191.171875 451.859375h30.074219v60.140625h-30.074219zm0 0" fill="#fcbd8a"/><path d="m221.097656 217.175781 30.59375 249.71875h-155.492187l30.175781-249.707031zm0 0" fill="#dce1eb"/><path d="m191.171875 451.859375h30.074219v60.140625h-30.074219zm0 0" fill="#f4a971"/><path d="m221.097656 217.175781-47.382812.003907v249.714843h77.976562zm0 0" fill="#b6c4cf"/><path d="m173.734375 0c-29.742187 0-53.9375 24.195312-53.9375 53.9375s24.195313 53.941406 53.9375 53.941406 53.941406-24.199218 53.941406-53.941406-24.199219-53.9375-53.941406-53.9375zm0 0" fill="#fcbd8a"/><path d="m92.179688 251.808594h-52.976563v-30.074219h34.535156l49.214844-96.722656h100.246094l46.238281 67.121093-24.765625 17.0625-37.273437-54.109374h-66.003907zm0 0" fill="#fcbd8a"/><path d="m126.375 217.1875-9.679688-79.878906 6.257813-12.296875h100.246094l7.710937 11.191406-9.8125 80.972656zm0 0" fill="#dce1eb"/><path d="m126.375 217.1875 96.824219-92.175781 7.710937 11.191406-9.8125 80.972656zm0 0" fill="#b6c4cf"/><path d="m221.097656 217.175781 19.777344 161.457031h-133.914062l19.414062-161.445312zm0 0" fill="#b6c4cf"/><path d="m13.769531 52.878906 30.019531-1.859375 28.4375 458.554688-30.015624 1.863281zm0 0" fill="#00607f"/><path d="m.5 46.589844 25.78125-30.050782 30.054688 25.78125-25.78125 30.050782zm0 0" fill="#00465f"/><path d="m227.675781 53.9375c0-29.742188-24.199219-53.9375-53.941406-53.9375-.003906 0-.011719 0-.019531 0v107.878906h.019531c29.742187 0 53.941406-24.195312 53.941406-53.941406zm0 0" fill="#f4a971"/><path d="m223.199219 125.011719h-49.484375v30.074219h33.683594l37.273437 54.109374 24.765625-17.0625zm0 0" fill="#f4a971"/><path d="m221.097656 217.175781 9.8125-80.972656-7.710937-11.191406h-49.484375v92.167969zm0 0" fill="#b6c4cf"/><path d="m221.097656 217.175781 9.8125-80.972656-7.710937-11.191406-49.484375 47.109375v45.058594zm0 0" fill="#96a3ab"/><path d="m221.097656 217.175781-47.382812.003907v161.453124h67.160156zm0 0" fill="#96a3ab"/><path d="m221.097656 217.175781 10.386719 84.777344h-115.351563l10.242188-84.765625zm0 0" fill="#dce1eb"/><path d="m221.097656 217.175781-47.382812.003907v84.773437h57.769531zm0 0" fill="#b6c4cf"/><path d="m296.097656 177.25c-60.628906 0-109.953125 49.328125-109.953125 109.957031 0 60.628907 49.324219 109.957031 109.953125 109.957031 60.632813 0 109.957032-49.328124 109.957032-109.957031 0-60.628906-49.324219-109.957031-109.957032-109.957031zm0 0" fill="#00607f"/><path d="m296.097656 177.25v219.914062c60.632813 0 109.957032-49.324218 109.957032-109.957031 0-60.628906-49.324219-109.957031-109.957032-109.957031zm0 0" fill="#00465f"/><path d="m296.097656 341.605469c-29.996094 0-54.398437-24.402344-54.398437-54.398438 0-29.996093 24.402343-54.402343 54.398437-54.402343s54.402344 24.40625 54.402344 54.402343c0 29.996094-24.40625 54.398438-54.402344 54.398438zm0-78.726563c-13.414062 0-24.324218 10.914063-24.324218 24.328125 0 13.414063 10.910156 24.328125 24.324218 24.328125 13.414063 0 24.328125-10.914062 24.328125-24.328125 0-13.414062-10.914062-24.328125-24.328125-24.328125zm0 0" fill="#00465f"/><path d="m296.097656 232.808594v30.070312c13.414063 0 24.328125 10.914063 24.328125 24.328125 0 13.414063-10.914062 24.328125-24.328125 24.328125v30.070313c29.996094 0 54.402344-24.402344 54.402344-54.398438 0-29.996093-24.40625-54.398437-54.402344-54.398437zm0 0" fill="#002c3c"/></svg>