<?xml version="1.0"?>
<svg xmlns="http://www.w3.org/2000/svg" height="512px" viewBox="-1 0 512 512.00061" width="512px" class=""><g transform="matrix(1 0 0 1 0 0)"><path d="m434.582031 302.929688c83.285157-83.929688 99.667969-202.710938 36.585938-265.308594-63.078125-62.59375-181.730469-45.300782-265.015625 38.628906-59.578125 60.039062-84.910156 137.902344-71.417969 200.285156 5.792969 26.792969-5.359375 54.378906-27.960937 69.886719-40.832032 28.015625-80.164063 59.628906-90.511719 70.058594-21.800781 21.96875-21.664063 57.457031.308593 79.257812 21.96875 21.800781 57.453126 21.664063 79.257813-.304687 10.34375-10.425782 41.65625-50.003906 69.355469-91.046875 15.335937-22.71875 42.835937-34.085938 69.671875-28.5 62.480469 13.011719 140.152343-12.921875 199.726562-72.957031zm0 0" fill="#ffbdcd" data-original="#FFBDCD" class="" style="fill:#FFBDCD"/><path d="m197.835938 313.070312c-21.335938-21.171874-30.253907-53.378906-25.105469-90.683593 5.726562-41.550781 27.714843-83.410157 61.910156-117.867188 34.191406-34.460937 75.882813-56.769531 117.386719-62.820312 37.265625-5.429688 69.539062 3.238281 90.875 24.410156 21.335937 21.167969 30.25 53.375 25.105468 90.683594-5.730468 41.546875-27.714843 83.410156-61.910156 117.867187-34.195312 34.460938-75.882812 56.769532-117.390625 62.816406-37.261719 5.433594-69.539062-3.234374-90.871093-24.40625zm0 0" fill="#ccf8ff" data-original="#CCF8FF" style="fill:#CCF8FF" class=""/><g fill="#57565c"><path d="m388.769531 140.683594c-3 3.023437-7.878906 3.042968-10.902343.042968l-9.082032-9.011718c-3.023437-3-3.042968-7.878906-.042968-10.902344 3-3.019531 7.878906-3.039062 10.898437-.039062l9.085937 9.011718c3.023438 3 3.039063 7.878906.042969 10.898438zm0 0" data-original="#000000" style="fill:#000000"/><path d="m271.992188 258.363281c-3 3.023438-7.878907 3.039063-10.898438.042969l-9.085938-9.015625c-3.019531-2.996094-3.039062-7.875-.042968-10.898437 3-3.023438 7.878906-3.039063 10.902344-.042969l9.082031 9.011719c3.023437 3 3.042969 7.882812.042969 10.902343zm0 0" data-original="#000000" style="fill:#000000"/><path d="m336.109375 205.210938c-7.027344 7.078124-16.34375 11.886718-26.792969 13.25-4.21875.550781-8.089844-2.429688-8.636718-6.648438-.554688-4.222656 2.425781-8.089844 6.644531-8.640625 13.914062-1.8125 24.820312-12.804687 26.527343-26.730469.515626-4.222656 4.359376-7.230468 8.585938-6.710937 4.226562.515625 7.230469 4.359375 6.714844 8.585937-1.28125 10.457032-6.015625 19.8125-13.042969 26.894532zm0 0" data-original="#000000" style="fill:#000000"/></g><path d="m136.089844 286.171875c1.597656 23.589844-9.421875 46.597656-29.316406 60.25-13.765626 9.445313-27.355469 19.296875-39.722657 28.609375 16.421875 1.808594 36.6875 6.632812 56.8125 18.085938 14.855469 8.453124 27.882813 12.910156 38.730469 15.09375.867188-1.273438 1.730469-2.546876 2.589844-3.824219 15.335937-22.71875 42.835937-34.085938 69.671875-28.5-76.03125-16.125-94.386719-68.046875-98.765625-89.714844zm0 0" fill="#ffa4ba" data-original="#FFA4BA" style="fill:#FFA4BA"/><path d="m432.890625 242.6875h-80.5625c-14.109375 0-25.652344 11.542969-25.652344 25.648438 0 14.109374 11.542969 25.652343 25.652344 25.652343h32.234375c7.445312-5.929687 14.636719-12.375 21.535156-19.328125 10.007813-10.085937 18.976563-20.808594 26.792969-31.972656zm0 0" fill="#fff" data-original="#FFF" class="active-path" style="fill:#FFF"/><path d="m315.027344 96.65625c0-14.109375-11.542969-25.652344-25.652344-25.652344h-13.371094c-14.578125 9.308594-28.5 20.550782-41.367187 33.515625-5.6875 5.734375-11.042969 11.675781-16.042969 17.785157h70.78125c14.109375 0 25.652344-11.542969 25.652344-25.648438zm0 0" fill="#fff" data-original="#FFF" class="active-path" style="fill:#FFF"/></g> </svg>
