<?xml version="1.0" encoding="utf-8"?>
<!-- Generator: Adobe Illustrator 23.1.0, SVG Export Plug-In . SVG Version: 6.00 Build 0)  -->
<svg version="1.1" id="Layer_1" xmlns="http://www.w3.org/2000/svg" xmlns:xlink="http://www.w3.org/1999/xlink" x="0px" y="0px"
	 viewBox="0 0 383 508.7" style="enable-background:new 0 0 383 508.7;" xml:space="preserve">
<style type="text/css">
	.st0{fill:#E0A632;}
	.st1{fill:#B5813C;}
	.st2{clip-path:url(#SVGID_2_);}
	.st3{fill:#C19A4C;}
	.st4{fill:#D8AB52;}
	.st5{clip-path:url(#SVGID_4_);}
	.st6{fill:#EAC36E;}
	.st7{fill:#F0BCA6;}
	.st8{fill:#E6B09A;}
	.st9{fill:#E2A58A;}
	.st10{fill:#868686;}
	.st11{fill:#F9CD45;}
</style>
<g>
	<title>baby</title>
	<circle class="st0" cx="189.9" cy="65.4" r="62.5"/>
	<path class="st1" d="M306,266.1v138.8c0.6,56.7-49.6,103.1-112,103.7c-62.4,0.6-113.6-44.9-114.2-101.6V266.1
		c-0.5-56.6,49.6-103,112.1-103.6c62.4-0.6,113.6,44.9,114.2,101.6C306,264.8,306,265.5,306,266.1z"/>
	<g>
		<g>
			<g>
				<defs>
					<path id="SVGID_1_" d="M306,266.1v138.8c0.6,56.7-49.6,103.1-112,103.7c-62.4,0.6-113.6-44.9-114.2-101.6V266.1
						c-0.5-56.6,49.6-103,112.1-103.6c62.4-0.6,113.6,44.9,114.2,101.6C306,264.8,306,265.5,306,266.1z"/>
				</defs>
				<clipPath id="SVGID_2_">
					<use xlink:href="#SVGID_1_"  style="overflow:visible;"/>
				</clipPath>
				<g class="st2">
					<path class="st3" d="M101.3,163.4c0,0,12.9,151.9,177.6,264.9s-18.6,104.2-18.6,104.2L11.4,461.6L7.3,262.4L101.3,163.4z"/>
				</g>
			</g>
		</g>
	</g>
	<path class="st4" d="M284.5,256.9v138.9c0,56.7-50.7,102.6-113.2,102.6c-12.7,0-25.3-1.9-37.3-5.7c-33.7-18.6-54.3-51.9-54.3-87.6
		v-139c0-56.7,50.7-102.6,113.2-102.6c12.7,0,25.4,1.9,37.4,5.8C264,187.8,284.5,221,284.5,256.9L284.5,256.9z"/>
	<g>
		<g>
			<g>
				<defs>
					<path id="SVGID_3_" d="M284.5,256.9v138.9c0,56.7-50.7,102.6-113.2,102.6c-12.7,0-25.3-1.9-37.3-5.7
						c-33.7-18.6-54.3-51.9-54.3-87.6v-139c0-56.7,50.7-102.6,113.2-102.6c12.7,0,25.4,1.9,37.4,5.8
						C264,187.8,284.5,221,284.5,256.9L284.5,256.9z"/>
				</defs>
				<clipPath id="SVGID_4_">
					<use xlink:href="#SVGID_3_"  style="overflow:visible;"/>
				</clipPath>
				<g class="st5">
					<path class="st6" d="M101.3,163.4c0,0,12.9,151.9,177.6,264.9s-18.6,104.2-18.6,104.2L11.4,461.6L7.3,262.4L101.3,163.4z"/>
				</g>
			</g>
		</g>
	</g>
	<path class="st7" d="M278.7,133.8h-0.2c-19.9,0.1-36.1,16.4-36.1,36.3c0,9.6,3.8,18.8,10.6,25.6c6.8,6.8,16,10.6,25.5,10.5h0.2
		c19.9-0.4,35.9-16.8,35.5-36.8C314,149.9,298.3,134.2,278.7,133.8z"/>
	<path class="st8" d="M278,162.3v24c0.2,51.2-37.9,92.9-84.9,93.1h-0.3c-2,0-4.2-0.1-6.2-0.2c-44-3.5-78.9-43.5-79-92.3v-15.4
		c-7.5-14.4-11.3-30.4-11.3-46.6c0-50.6,37-92.3,84-96.6l0,0c2.1-0.3,4.2-0.6,6.4-0.7l0,0c2.1-0.2,4.3-0.2,6.5-0.2
		c50.9,0,92.2,43.4,92.2,96.9C285.4,137.3,282.9,150.2,278,162.3z"/>
	<path class="st7" d="M264.7,162.3v24c0.2,48.9-34.7,89.4-78.8,92.8c-44-3.4-78.9-43.5-79.1-92.3v-15.4
		c-7.5-14.4-11.3-30.4-11.3-46.6c0-50.6,37-92.3,84-96.6l0,0c2.1-0.3,4.3-0.6,6.4-0.7l0,0c48,3.3,86.1,45.3,86.1,96.7
		C272,137.3,269.6,150.2,264.7,162.3z"/>
	<path class="st9" d="M192.9,239.1c-7.3,0-14.2-2.7-19.6-7.6c-2.4-2.1-2.7-5.8-0.6-8.2s5.8-2.7,8.2-0.6c0.1,0.1,0.2,0.1,0.2,0.2
		c3.2,2.9,7.4,4.5,11.7,4.5h0.1c4.4,0,8.6-1.6,11.8-4.5c2.4-2.1,6.1-1.8,8.2,0.7c1.9,2.3,1.8,5.7-0.3,7.8
		c-5.3,4.9-12.3,7.7-19.6,7.6v0.1l0,0C193,239.1,193,239.1,192.9,239.1L192.9,239.1L192.9,239.1z"/>
	<path class="st10" d="M169.5,185.1c0-5.1-4.2-9.3-9.3-9.3c-5.1,0-9.3,4.2-9.3,9.3s4.2,9.3,9.3,9.3l0,0
		C165.4,194.4,169.5,190.3,169.5,185.1z"/>
	<path class="st10" d="M235.1,184.8c0-5.1-4.2-9.3-9.3-9.3s-9.3,4.2-9.3,9.3s4.2,9.3,9.3,9.3l0,0c5,0,9.2-4,9.2-9.1l0,0
		C235.1,185,235.1,184.9,235.1,184.8z"/>
	<path class="st4" d="M271.6,356.5c-0.7,1.1-2.2,3.4-3,4.5c-30.7,42.5-73.5-18.2-143.6-50c-62.1-28.1-51.3-67.8-20.6-110.3
		c0.8-1.1,1.5-2,2.3-3c-21.5,33.2-18.7,82.6,22.7,107.2C186.1,338.4,239.7,396.3,271.6,356.5z"/>
	<path class="st7" d="M104.9,134.4h-0.2c-19.9,0.1-36.1,16.4-36,36.4c0,9.6,3.8,18.8,10.6,25.6s12.1,10.5,25.6,10.5h0.2
		C125,206.4,141,190,140.6,170C140.1,150.5,124.4,134.8,104.9,134.4L104.9,134.4z"/>
	<path class="st4" d="M94.2,291.2c0,0,21,87.5,61.8,103.3c25.6,9.9-3.6-4.5,2.6-1.7C158.6,392.8,130,378,94.2,291.2z"/>
	<path class="st4" d="M108.9,390.2c0,0,31.8,68.5,67.8,75.8c22.5,4.5-3.7-3.2,1.8-1.8C178.6,464.2,152.8,456.1,108.9,390.2z"/>
	<path class="st1" d="M272,272c0,0-0.7,74.4-30.9,93.5c-18.9,12,2.1-4.2-2.5-1C238.6,364.5,259.2,348.1,272,272z"/>
	<path class="st0" d="M152.1,140c4.7-0.1,9.3,1.3,13.3,3.9c1.2,0.7,1.6,2.1,1,3.3l0,0c-0.2,0.3-0.4,0.6-0.8,0.9
		c-1.6,1.2-3.9,1.3-5.5,0.2c-2.3-1.5-5.1-2.3-7.9-2.2l0,0c-2.8-0.1-5.6,0.8-7.9,2.2c-1.7,1.1-3.9,1.1-5.5-0.2
		c-1.1-0.8-1.4-2.2-0.7-3.3c0.2-0.3,0.5-0.6,0.9-0.8C142.8,141.4,147.5,140,152.1,140L152.1,140z"/>
	<path class="st0" d="M225.8,138.8c4.6-0.1,9.3,1.3,13.3,3.8c1.2,0.7,1.6,2.1,1,3.3c-0.2,0.3-0.4,0.6-0.8,0.9
		c-1.6,1.2-3.9,1.3-5.5,0.2c-2.3-1.5-5.1-2.3-7.9-2.2l0,0c-2.8,0-5.5,0.8-7.9,2.3c-1.7,1.1-3.9,1.1-5.5-0.1
		c-1.1-0.8-1.4-2.2-0.7-3.4c0.2-0.3,0.5-0.6,0.9-0.8C216.5,140,221,138.7,225.8,138.8L225.8,138.8z"/>
	<path class="st11" d="M152.1,138.8c4.7-0.1,9.3,1.3,13.3,3.9c1.2,0.7,1.6,2.1,1,3.3l0,0c-0.2,0.3-0.4,0.6-0.8,0.9
		c-1.6,1.2-3.9,1.3-5.5,0.2c-2.3-1.5-5.1-2.3-7.9-2.2l0,0c-2.8-0.1-5.6,0.8-7.9,2.2c-1.7,1.1-3.9,1.1-5.5-0.2
		c-1.1-0.8-1.4-2.2-0.7-3.3c0.2-0.3,0.5-0.6,0.9-0.8C142.8,140.1,147.5,138.8,152.1,138.8L152.1,138.8z"/>
	<path class="st11" d="M225.8,137.5c4.6-0.1,9.3,1.3,13.3,3.8c1.2,0.7,1.6,2.1,1,3.3c-0.2,0.3-0.4,0.6-0.8,0.9
		c-1.6,1.2-3.9,1.3-5.5,0.2c-2.3-1.5-5.1-2.3-7.9-2.2l0,0c-2.8,0-5.5,0.8-7.9,2.3c-1.7,1.1-3.9,1.1-5.5-0.1
		c-1.1-0.8-1.4-2.2-0.7-3.4c0.2-0.3,0.5-0.6,0.9-0.8C216.5,138.8,221,137.4,225.8,137.5L225.8,137.5z"/>
	<path class="st0" d="M250.9,40.6c0,32.4-30,56.9-60.4,63.8C201.2,91.3,207,74.9,206.8,58c0-37.6-3.4-36.3-36.9-36.3
		c-8.6,0-21.5,3.6-28.8,7.2c12.5-15.8,30.5-26.8,53.5-25.9C232.3,4.2,250.9,2.9,250.9,40.6z"/>
	<path class="st11" d="M252.9,37.8c0,32.4-30,56.9-60.4,63.8c10.7-13.1,16.5-29.5,16.4-46.5c0-37.6-3.4-36.3-36.9-36.3
		c-8.6,0-21.5,3.6-28.8,7.2C155.5,10.3,173.5-0.7,196.5,0C234.2,1.4,252.9,0.1,252.9,37.8z"/>
</g>
</svg>
