<?xml version="1.0" encoding="utf-8"?>
<!-- Generator: Adobe Illustrator 23.1.0, SVG Export Plug-In . SVG Version: 6.00 Build 0)  -->
<svg version="1.1" id="Layer_1" xmlns="http://www.w3.org/2000/svg" xmlns:xlink="http://www.w3.org/1999/xlink" x="0px" y="0px"
	 viewBox="0 0 383 508.7" style="enable-background:new 0 0 383 508.7;" xml:space="preserve">
<style type="text/css">
	.st0{fill:#E0A632;}
	.st1{fill:#89304A;}
	.st2{clip-path:url(#SVGID_2_);}
	.st3{fill:#AA4665;}
	.st4{fill:#C44964;}
	.st5{clip-path:url(#SVGID_4_);}
	.st6{fill:#E56E8E;}
	.st7{fill:#F0BCA6;}
	.st8{fill:#E6B09A;}
	.st9{fill:#E2A58A;}
	.st10{fill:#F9CD45;}
	.st11{fill:#868686;}
</style>
<g>
	<title>Baby</title>
	<circle class="st0" cx="190.3" cy="48.5" r="46.4"/>
	<path class="st1" d="M310.9,268.1v138.4c0,56.5-52.9,102.3-118.2,102.3S74.5,462.9,74.5,406.4V268.1c0-56.5,52.9-102.3,118.2-102.3
		S310.9,211.6,310.9,268.1z"/>
	<g>
		<g>
			<g>
				<defs>
					<path id="SVGID_1_" d="M310.9,268.1v138.4c0,56.5-52.9,102.3-118.2,102.3S74.5,462.9,74.5,406.4V268.1
						c0-56.5,52.9-102.3,118.2-102.3S310.9,211.6,310.9,268.1z"/>
				</defs>
				<clipPath id="SVGID_2_">
					<use xlink:href="#SVGID_1_"  style="overflow:visible;"/>
				</clipPath>
				<g class="st2">
					<path class="st3" d="M97,165.8c0,0,13.5,151.3,185.6,263.9s-19.4,103.7-19.4,103.7l-260-70.7l-4.4-198.5L97,165.8z"/>
				</g>
			</g>
		</g>
	</g>
	<path class="st4" d="M288.4,258.9v138.4c0,56.5-52.9,102.3-118.3,102.3c-13.3,0-26.4-1.9-39-5.7c-35.2-18.6-56.7-51.6-56.7-87.3
		V268.1c0-56.5,52.9-102.3,118.3-102.3c13.3,0,26.5,1.9,39,5.7C267,190.2,288.4,223.2,288.4,258.9L288.4,258.9z"/>
	<g>
		<g>
			<g>
				<defs>
					<path id="SVGID_3_" d="M288.4,258.9v138.4c0,56.5-52.9,102.3-118.3,102.3c-13.3,0-26.4-1.9-39-5.7
						c-35.2-18.6-56.7-51.6-56.7-87.3V268.1c0-56.5,52.9-102.3,118.3-102.3c13.3,0,26.5,1.9,39,5.7
						C267,190.2,288.4,223.2,288.4,258.9L288.4,258.9z"/>
				</defs>
				<clipPath id="SVGID_4_">
					<use xlink:href="#SVGID_3_"  style="overflow:visible;"/>
				</clipPath>
				<g class="st5">
					<path class="st6" d="M97,165.8c0,0,13.5,151.3,185.6,263.9s-19.4,103.7-19.4,103.7l-260-70.7l-4.4-198.5L97,165.8z"/>
				</g>
			</g>
		</g>
	</g>
	<path class="st7" d="M282.4,134.8h-0.2c-20.9,0.1-37.7,17-37.7,37.9c0,10,4,19.7,11.1,26.6c7,7,16.6,11,26.6,11h0.2
		c20.9,0,37.7-16.9,37.7-37.8S303.2,134.8,282.4,134.8L282.4,134.8z"/>
	<path class="st8" d="M281.6,164.5v25.1c0.2,53.4-39.7,97.1-88.7,97.3h-0.3c-2.2,0-4.3-0.1-6.4-0.2c-46-3.6-82.4-45.4-82.6-96.4
		v-16.1c-7.9-15-11.8-31.7-11.8-48.6c0-52.9,38.5-96.4,87.8-100.9l0,0c2.2-0.3,4.4-0.6,6.6-0.7l0,0c2.2-0.2,4.5-0.2,6.7-0.2
		c53.1,0,96.3,45.4,96.3,101.3C289.2,138.4,286.7,151.8,281.6,164.5z"/>
	<path class="st7" d="M267.7,164.5v25.1c0.2,51.1-36.2,93.2-82.3,97c-46-3.6-82.4-45.4-82.6-96.4l-0.1-16.1
		c-7.9-15-11.8-31.7-11.8-48.6c0-52.9,38.5-96.4,87.8-100.9l0,0c2.2-0.3,4.4-0.6,6.6-0.7l0,0c50.2,3.5,89.8,47.4,89.8,101.1
		C275.4,138.5,272.7,151.9,267.7,164.5z"/>
	<path class="st9" d="M192.7,244.7c-7.5,0-14.9-2.9-20.4-8c-2.4-2.2-2.7-6.1-0.4-8.6s6.1-2.7,8.6-0.4l0,0c3.4,3.1,7.6,4.7,12.1,4.7
		h0.1c4.5,0,8.9-1.7,12.1-4.8c2.3-2.4,6.1-2.4,8.6-0.1s2.4,6.1,0.1,8.6c-0.1,0.1-0.3,0.3-0.4,0.4
		C207.7,241.8,200.3,244.6,192.7,244.7C192.7,244.6,192.8,244.7,192.7,244.7L192.7,244.7z"/>
	<path class="st0" d="M156.1,159.6c4-0.1,7.8,1,11.1,3.2c1,0.5,1.3,1.7,0.8,2.8c-0.1,0.3-0.4,0.5-0.6,0.7c-1.3,1-3.3,1-4.7,0.2
		c-1.9-1.3-4.3-1.9-6.6-1.9l0,0c-2.3,0-4.7,0.6-6.6,1.9c-1.4,0.9-3.3,0.9-4.7-0.1c-0.9-0.6-1.2-1.8-0.6-2.8c0.2-0.3,0.4-0.5,0.7-0.6
		C148.2,160.7,152.1,159.6,156.1,159.6L156.1,159.6z"/>
	<path class="st0" d="M224.6,159.6c3.9-0.1,7.8,1,11.1,3.2c1,0.5,1.3,1.7,0.8,2.8c-0.1,0.3-0.4,0.5-0.6,0.7c-1.3,1-3.3,1-4.7,0.2
		c-1.9-1.3-4.3-1.9-6.6-1.9l0,0c-2.3,0-4.7,0.6-6.6,1.9c-1.4,0.9-3.3,0.9-4.7-0.1c-0.9-0.6-1.2-1.8-0.6-2.8c0.2-0.3,0.4-0.5,0.7-0.6
		C216.7,160.7,220.6,159.6,224.6,159.6L224.6,159.6z"/>
	<path class="st10" d="M156.1,158.6c4-0.1,7.8,1,11.1,3.2c1,0.5,1.3,1.7,0.8,2.8c-0.1,0.3-0.4,0.5-0.6,0.7c-1.3,1-3.3,1-4.7,0.2
		c-1.9-1.3-4.3-1.9-6.6-1.9l0,0c-2.3,0-4.7,0.6-6.6,1.9c-1.4,0.9-3.3,0.9-4.7-0.1c-0.9-0.6-1.2-1.8-0.6-2.8c0.2-0.3,0.4-0.5,0.7-0.6
		C148.2,159.8,152.1,158.6,156.1,158.6L156.1,158.6z"/>
	<path class="st10" d="M224.6,158.6c4-0.1,7.8,1,11.1,3.2c1,0.5,1.3,1.7,0.8,2.8c-0.1,0.3-0.4,0.5-0.6,0.7c-1.3,1-3.3,1-4.7,0.2
		c-1.9-1.3-4.3-1.9-6.6-1.9l0,0c-2.3,0-4.7,0.6-6.6,1.9c-1.4,0.9-3.3,0.9-4.7-0.1c-0.9-0.6-1.2-1.8-0.6-2.8c0.2-0.3,0.4-0.5,0.7-0.6
		C216.7,159.8,220.6,158.6,224.6,158.6L224.6,158.6z"/>
	<path class="st11" d="M168.3,188.3c0-5.4-4.4-9.7-9.8-9.7s-9.7,4.4-9.7,9.8c0,5.3,4.4,9.7,9.7,9.7C164,198,168.3,193.6,168.3,188.3
		z"/>
	<path class="st11" d="M236.7,188.1c0-5.4-4.4-9.7-9.8-9.7s-9.7,4.4-9.7,9.8c0,5.3,4.4,9.7,9.7,9.7c5.3,0,9.6-4.2,9.7-9.5
		C236.7,188.2,236.7,188.1,236.7,188.1z"/>
	<path class="st4" d="M274.9,358.1c-0.7,1-2.3,3.4-3.1,4.5c-32.1,42.3-76.7-18.2-150-49.8c-64.8-28-53.6-67.5-21.6-109.9
		c0.8-1,1.6-2,2.4-3.1c-22.4,33.1-19.5,82.3,23.8,106.8C185.5,340.1,241.6,397.7,274.9,358.1z"/>
	<path class="st7" d="M100.8,135.4h-0.2c-20.9,0.1-37.7,17-37.7,37.9c-0.1,10,4,19.6,11.1,26.6c7.1,7.1,12.6,11,26.6,11h0.2
		c20.9,0,37.7-16.9,37.7-37.8S121.6,135.4,100.8,135.4L100.8,135.4z"/>
	<path class="st4" d="M89.6,293.2c0,0,22,87.2,64.6,102.9c26.6,9.8-3.8-4.5,2.8-1.7C156.9,394.2,127,379.5,89.6,293.2z"/>
	<path class="st4" d="M105,391.7c0,0,33.3,68.3,70.9,75.6c23.5,4.5-3.9-3.2,1.9-1.8C177.8,465.4,150.8,457.3,105,391.7z"/>
	<path class="st1" d="M275.4,274c0,0-0.7,74.1-32.2,93.2c-19.8,11.9,2.2-4.2-2.7-1C240.6,366.2,262,349.7,275.4,274z"/>
	<path class="st0" d="M235.9,50.7c-0.2,16.3-9.1,31.4-23.1,39.6c14.4-21.2,8.9-50.2-12.4-64.6c-14.7-10-33.8-10.7-49.2-1.8
		c14.6-21.2,43.5-26.5,64.7-11.9C228.5,20.7,236,35.3,235.9,50.7z"/>
	<path class="st10" d="M238.4,46.9c-0.2,16.3-9,31.4-23.1,39.6c14.4-21.3,8.8-50.2-12.4-64.6c-14.7-9.9-33.8-10.6-49.2-1.8
		C168.2-1,197.2-6.3,218.3,8.2C231,16.9,238.5,31.5,238.4,46.9z"/>
</g>
</svg>
