<?xml version="1.0" encoding="utf-8"?>
<!-- Generator: Adobe Illustrator 23.1.0, SVG Export Plug-In . SVG Version: 6.00 Build 0)  -->
<svg version="1.1" id="Layer_1" xmlns="http://www.w3.org/2000/svg" xmlns:xlink="http://www.w3.org/1999/xlink" x="0px" y="0px"
	 viewBox="0 0 383 508.7" style="enable-background:new 0 0 383 508.7;" xml:space="preserve">
<style type="text/css">
	.st0{fill:#261307;}
	.st1{fill:#8C5E2D;}
	.st2{clip-path:url(#SVGID_2_);}
	.st3{fill:#A57E46;}
	.st4{fill:#AA833D;}
	.st5{clip-path:url(#SVGID_4_);}
	.st6{fill:#E0B46E;}
	.st7{fill:#F0BCA6;}
	.st8{fill:#E6B09A;}
	.st9{fill:#E2A58A;}
	.st10{fill:#868686;}
	.st11{fill:#3A1E0B;}
</style>
<g>
	<title>baby</title>
	<circle class="st0" cx="188" cy="66.3" r="63.5"/>
	<path class="st1" d="M307.6,268.9v137.9c0,56.3-51.4,101.9-114.9,101.9S77.9,463.1,77.9,406.9V268.9c0-56.3,51.4-101.9,114.9-101.9
		S307.6,212.7,307.6,268.9z"/>
	<g>
		<g>
			<defs>
				<path id="SVGID_1_" d="M307.6,268.9v137.9c0,56.3-51.4,101.9-114.9,101.9S77.9,463.1,77.9,406.9V268.9
					c0-56.3,51.4-101.9,114.9-101.9S307.6,212.7,307.6,268.9z"/>
			</defs>
			<clipPath id="SVGID_2_">
				<use xlink:href="#SVGID_1_"  style="overflow:visible;"/>
			</clipPath>
			<g class="st2">
				<path class="st3" d="M99.6,167c0,0,13.1,150.9,180.4,263s-18.8,103.3-18.8,103.3L8.4,462.9L4.2,265.1L99.6,167z"/>
			</g>
		</g>
	</g>
	<path class="st4" d="M285.7,259.8v137.8c0,56.4-51.5,102-115,101.9c-12.9,0-25.6-1.9-37.7-5.7c-34.2-18.5-55.2-51.5-55.1-87V268.9
		c0-56.4,51.5-101.9,115-101.9c12.9,0,25.7,1.9,37.8,5.7c7.8,4.3,15,9.2,21.4,15C273.7,206.8,285.8,232.8,285.7,259.8z"/>
	<g>
		<g>
			<defs>
				<path id="SVGID_3_" d="M285.7,259.8v137.8c0,56.4-51.5,102-115,101.9c-12.9,0-25.6-1.9-37.7-5.7c-34.2-18.5-55.2-51.5-55.1-87
					V268.9c0-56.4,51.5-101.9,115-101.9c12.9,0,25.7,1.9,37.8,5.7c7.8,4.3,15,9.2,21.4,15C273.7,206.8,285.8,232.8,285.7,259.8z"/>
			</defs>
			<clipPath id="SVGID_4_">
				<use xlink:href="#SVGID_3_"  style="overflow:visible;"/>
			</clipPath>
			<g class="st5">
				<path class="st6" d="M99.6,167c0,0,13.1,150.9,180.4,263s-18.8,103.3-18.8,103.3L8.4,462.9L4.2,265.1L99.6,167z"/>
			</g>
		</g>
	</g>
	<path class="st7" d="M279.8,136.9h-0.2c-20.3,0.1-36.7,16.6-36.6,36.8c0,9.7,3.8,19.1,10.8,25.9c6.9,6.9,16.2,10.7,25.9,10.6h0.2
		c20.2,0,36.7-16.5,36.6-36.7C316.6,153.3,300.1,136.9,279.8,136.9L279.8,136.9z"/>
	<path class="st8" d="M279.1,165.7v24.5c0.2,52-38.6,94.4-86.2,94.5h-0.3c-2.1,0-4.1-0.1-6.3-0.2c-44.6-3.5-80-44.1-80.2-93.7
		L106,175c-7.6-14.6-11.5-30.9-11.4-47.3c0-51.5,37.5-93.7,85.4-98.1l0,0c2.1-0.3,4.3-0.5,6.5-0.7c3.2-0.2,0,0,0,0
		c2.2-0.2,4.4-0.2,6.6-0.2c51.7,0,93.5,44,93.5,98.5C286.5,140.4,284,153.5,279.1,165.7z"/>
	<path class="st7" d="M265.7,165.7v24.4c0.2,49.7-35.2,90.7-80,94.3c-44.7-3.4-80.1-44.1-80.2-93.7V175
		c-7.6-14.6-11.5-30.9-11.4-47.3c0-51.5,37.5-93.7,85.4-98.1l0,0c2.1-0.3,4.3-0.5,6.5-0.7l0,0c48.8,3.3,87.3,46,87.3,98.3
		C273.1,140.4,270.5,153.5,265.7,165.7z"/>
	<path class="st9" d="M192.6,243.7c-7.4,0-14.5-2.7-19.8-7.8c-2.4-2.2-2.5-6-0.3-8.3c2.2-2.4,5.9-2.5,8.3-0.4
		c3.2,2.9,7.5,4.7,11.8,4.6h0.1c4.5,0,8.7-1.6,11.8-4.7c2.4-2.2,6.1-2.1,8.3,0.3c2.2,2.4,2.1,6.1-0.3,8.3
		C207.2,240.9,200,243.7,192.6,243.7L192.6,243.7L192.6,243.7z"/>
	<path class="st10" d="M168.9,188.9c0-5.2-4.3-9.4-9.5-9.4c-5.2,0-9.4,4.3-9.4,9.5c0,5.2,4.3,9.4,9.5,9.4l0,0
		C164.7,198.3,168.9,194.1,168.9,188.9z"/>
	<path class="st10" d="M235.4,188.7c0-5.2-4.3-9.4-9.5-9.4c-5.2,0-9.4,4.3-9.4,9.5c0,5.2,4.3,9.4,9.5,9.4c5.2,0,9.3-4.1,9.4-9.3
		C235.4,188.8,235.4,188.8,235.4,188.7z"/>
	<path class="st4" d="M272.6,358.7c-0.7,1-2.2,3.4-3,4.5c-31.2,42.2-74.6-18.1-145.8-49.7c-62.9-27.9-52.1-67.3-20.9-109.5
		c0.7-1,1.5-2,2.3-3c-21.9,33-18.9,82,23.1,106.5C185.7,340.7,240.2,398.2,272.6,358.7z"/>
	<path class="st7" d="M103.3,137.5h-0.2c-20.2,0.1-36.6,16.6-36.6,36.8c0,9.7,3.8,19.1,10.8,25.9c7,6.9,12.3,10.6,25.9,10.6h0.1
		c20.2-0.4,36.4-17.1,36-37.4C139,153.8,123,137.8,103.3,137.5L103.3,137.5z"/>
	<path class="st4" d="M92.4,293.9c0,0,21.4,86.9,62.7,102.5c25.9,9.8-3.6-4.5,2.7-1.7C157.8,394.7,128.8,380,92.4,293.9z"/>
	<path class="st4" d="M107.4,392.2c0,0,32.4,68.1,68.9,75.3c22.9,4.5-3.7-3.1,1.9-1.8C178.2,465.6,151.9,457.6,107.4,392.2z"/>
	<path class="st1" d="M273.1,274.8c0,0-0.7,73.9-31.4,92.9c-19.2,11.9,2.1-4.1-2.5-1C239.2,366.8,260,350.4,273.1,274.8z"/>
	<path class="st11" d="M158.1,143.4c4.8-0.1,9.4,1.3,13.5,3.8c1.2,0.6,1.6,2.1,1,3.3c-0.2,0.3-0.4,0.6-0.7,0.8
		c-1.6,1.2-3.9,1.3-5.7,0.2c-2.4-1.5-5.2-2.3-8-2.3l0,0c-2.8,0-5.7,0.8-8,2.3c-1.7,1.1-3.9,1.1-5.7-0.1c-1.1-0.7-1.4-2.2-0.7-3.4
		c0.2-0.3,0.5-0.6,0.9-0.8C148.7,144.8,153.3,143.4,158.1,143.4L158.1,143.4z"/>
	<path class="st11" d="M227.2,141.5c4.8-0.1,9.4,1.3,13.5,3.8c1.2,0.6,1.6,2.1,1,3.3c-0.2,0.3-0.4,0.6-0.7,0.8
		c-1.6,1.2-3.9,1.3-5.7,0.2c-2.4-1.5-5.2-2.3-8-2.3l0,0c-2.8,0-5.7,0.8-8,2.3c-1.7,1.1-3.9,1-5.7-0.2c-1.1-0.7-1.4-2.2-0.7-3.4
		c0.2-0.3,0.5-0.6,0.9-0.8C217.7,142.8,222.4,141.4,227.2,141.5L227.2,141.5z"/>
	<path class="st0" d="M250,41.1c0,33-30.6,57.8-61.3,64.8c10.8-13.3,16.7-30,16.6-47.2c0-38.2-3.4-36.8-37.4-36.8
		c-8.8,0-21.8,3.6-29.3,7.3c12.6-16,30.9-27.1,54.3-26.3C231.1,4.2,250,2.9,250,41.1z"/>
	<path class="st11" d="M251.9,38.3c0,33-30.6,57.8-61.3,64.8c10.8-13.3,16.7-30,16.6-47.2c0-38.2-3.4-36.8-37.4-36.8
		c-8.8,0-21.8,3.6-29.3,7.3C153,10.4,171.3-0.8,194.7,0C233,1.3,251.9,0,251.9,38.3z"/>
</g>
</svg>
