<?xml version="1.0" encoding="utf-8"?>
<!-- Generator: Adobe Illustrator 19.0.0, SVG Export Plug-In . SVG Version: 6.00 Build 0)  -->
<svg version="1.1" id="Layer_1" xmlns="http://www.w3.org/2000/svg" xmlns:xlink="http://www.w3.org/1999/xlink" x="0px" y="0px"
	 viewBox="-114 142.3 383 508.7" style="enable-background:new -114 142.3 383 508.7;" xml:space="preserve">
<style type="text/css">
	.st0{fill:#261306;}
	.st1{fill:#A5652B;}
	.st2{clip-path:url(#SVGID_2_);}
	.st3{fill:#BA8050;}
	.st4{fill:#D38940;}
	.st5{clip-path:url(#SVGID_4_);}
	.st6{fill:#EAAE78;}
	.st7{fill:#C6A89C;}
	.st8{fill:#B38B7B;}
	.st9{fill:#897F79;}
	.st10{fill:#868686;}
	.st11{fill:#3F2016;}
</style>
<title>baby</title>
<circle class="st0" cx="80.6" cy="198.3" r="53.4"/>
<path class="st1" d="M191.8,405.8l-0.1,141c0,57.6-50.6,104.2-112.8,104.2S-34,604.4-33.9,546.8l0,0l0.1-141.1
	c0-57.6,50.6-104.2,112.8-104.2C141.4,301.5,191.9,348.3,191.8,405.8L191.8,405.8z"/>
<g>
	<g>
		<g>
			<g>
				<defs>
					<path id="SVGID_1_" d="M191.8,405.8l-0.1,141c0,57.6-50.6,104.2-112.8,104.2S-34,604.4-33.9,546.8l0,0l0.1-141.1
						c0-57.6,50.6-104.2,112.8-104.2C141.4,301.5,191.9,348.3,191.8,405.8L191.8,405.8z"/>
				</defs>
				<clipPath id="SVGID_2_">
					<use xlink:href="#SVGID_1_"  style="overflow:visible;"/>
				</clipPath>
				<g class="st2">
					<path class="st3" d="M-12.3,301.5c0,0,12.7,154.3,177,269s-18.6,105.7-18.6,105.7l-248.2-72.1l-4-202.4L-12.3,301.5z"/>
				</g>
			</g>
		</g>
	</g>
</g>
<path class="st4" d="M170.5,396.4l-0.1,141c0,57.6-50.7,104.2-112.9,104.2c-12.6,0-25.2-2-37.2-5.8c-33.6-19-54.1-52.7-54.1-89
	l0.1-141c0-57.6,50.7-104.2,112.9-104.1c12.6,0,25.3,2,37.3,5.9C150,326.4,170.4,360,170.5,396.4z"/>
<g>
	<g>
		<g>
			<g>
				<defs>
					<path id="SVGID_3_" d="M170.5,396.4l-0.1,141c0,57.6-50.7,104.2-112.9,104.2c-12.6,0-25.2-2-37.2-5.8
						c-33.6-19-54.1-52.7-54.1-89l0.1-141c0-57.6,50.7-104.2,112.9-104.1c12.6,0,25.3,2,37.3,5.9C150,326.4,170.4,360,170.5,396.4z"
						/>
				</defs>
				<clipPath id="SVGID_4_">
					<use xlink:href="#SVGID_3_"  style="overflow:visible;"/>
				</clipPath>
				<g class="st5">
					<path class="st6" d="M-12.3,301.5c0,0,12.7,154.3,177,269s-18.6,105.7-18.6,105.7l-248.2-72.1l-4-202.4L-12.3,301.5z"/>
				</g>
			</g>
		</g>
	</g>
</g>
<path class="st7" d="M164.6,271.9h-0.2c-20,0.1-36,16.3-36,36.2c0,9.6,3.8,18.7,10.6,25.4c6.8,6.7,15.9,10.5,25.5,10.5h0.1
	c19.9-0.3,35.8-16.8,35.4-36.8C199.6,287.8,184,272.2,164.6,271.9z"/>
<path class="st8" d="M163.8,300.1v24c0.2,51-37.8,92.8-84.7,92.9h-0.3c-2,0-4.1-0.1-6.2-0.2c-43.9-3.4-78.7-43.3-78.8-92v-15.4
	c-7.4-14.3-11.4-30.3-11.3-46.4c0-50.6,36.9-92,83.8-96.3l0,0c2.1-0.3,4.2-0.5,6.4-0.6l0,0c2.1-0.1,4.2-0.2,6.5-0.2
	c50.8,0,91.9,43.2,91.9,96.7C171.2,275.3,168.7,288.1,163.8,300.1z"/>
<path class="st7" d="M150.5,300.1v24c0.2,48.8-34.5,89-78.5,92.5c-43.9-3.4-78.7-43.3-78.8-92v-15.3c-7.4-14.3-11.4-30.3-11.3-46.4
	c0-50.6,36.9-92,83.8-96.3l0,0c2.1-0.3,4.2-0.5,6.4-0.6l0,0c47.9,3.3,85.7,45.3,85.7,96.5C157.9,275.3,155.4,288.1,150.5,300.1z"/>
<path class="st9" d="M78.9,376.7c-7.2,0-14.2-2.7-19.4-7.5c-2.5-1.9-3-5.6-1.1-8.1s5.6-3,8.1-1.1c0.2,0.2,0.5,0.4,0.7,0.6
	c3.2,3,7.3,4.6,11.7,4.5H79c4.4,0,8.5-1.6,11.7-4.6c2.3-2.1,6.1-2,8.2,0.3c2.1,2.3,2,6.1-0.3,8.2l0,0
	C93.3,374.1,86.3,376.8,78.9,376.7L78.9,376.7z"/>
<path class="st10" d="M55.7,323c0-5.1-4.1-9.2-9.2-9.2c-5.1,0-9.2,4.1-9.2,9.2c0,5.1,4.1,9.2,9.2,9.2l0,0
	C51.5,332.2,55.7,328.1,55.7,323z"/>
<path class="st10" d="M121,322.8c0-5.1-4.1-9.2-9.2-9.2s-9.2,4.1-9.2,9.2s4.1,9.2,9.2,9.2l0,0c5,0,9.1-4,9.2-9
	C121,322.9,121,322.9,121,322.8z"/>
<path class="st4" d="M157.3,497.4c-0.6,1.1-2.2,3.4-3,4.5c-30.6,43.1-73.2-18.6-143.1-50.8c-61.8-28.6-51.2-68.8-20.5-112
	c0.7-1.1,1.5-2,2.3-3.1c-21.5,33.8-18.6,83.8,22.6,108.8C72.1,479,125.6,537.9,157.3,497.4z"/>
<path class="st7" d="M-8.8,272.4L-8.8,272.4c-20.1,0.1-36.2,16.4-36.1,36.2c0,9.6,3.8,18.7,10.6,25.4c6.9,6.8,12.1,10.5,25.4,10.5
	h0.1c19.9,0,36-16.1,36-36.1S11,272.4-8.8,272.4L-8.8,272.4L-8.8,272.4z"/>
<path class="st4" d="M-19.6,431.2c0,0,20.9,88.8,61.5,104.9c25.4,10-3.6-4.6,2.7-1.8C44.7,534.3,16.2,519.3-19.6,431.2z"/>
<path class="st4" d="M-4.8,531.6c0,0,31.8,69.6,67.7,77c22.4,4.7-3.7-3.3,1.9-1.9C64.8,606.9,39,598.7-4.8,531.6z"/>
<path class="st1" d="M157.9,411.8c0,0-0.6,75.6-30.8,95c-18.8,12.1,2.1-4.4-2.4-1C124.6,505.7,145,489,157.9,411.8z"/>
<path class="st0" d="M133,200.8c-0.2,18.8-10.4,36-26.7,45.5C123,222,116.8,188.7,92.5,172c-17-11.7-39.2-12.5-56.9-2.1
	c16.7-24.3,49.9-30.5,74.3-13.9C124.6,166.2,133.3,182.9,133,200.8L133,200.8z"/>
<path class="st11" d="M136,196.4c-0.2,18.8-10.4,36-26.7,45.5c16.7-24.3,10.5-57.6-13.8-74.3c-17-11.7-39.1-12.5-56.9-2.1
	c16.7-24.3,49.9-30.5,74.3-13.9C127.5,161.8,136.2,178.6,136,196.4z"/>
<path class="st11" d="M46.4,282.7c4.6-0.1,8.9,1.2,12.7,3.7c1.2,0.6,1.6,2,1,3.2c-0.2,0.3-0.4,0.6-0.7,0.7c-1.6,1.2-3.7,1.2-5.3,0.2
	c-2.2-1.5-4.9-2.2-7.6-2.2l0,0c-2.7,0-5.3,0.7-7.6,2.2c-1.6,1.1-3.7,1-5.3-0.1c-1.1-0.7-1.4-2.1-0.6-3.2c0.2-0.3,0.5-0.5,0.8-0.7
	C37.5,284,42,282.7,46.4,282.7L46.4,282.7z"/>
<path class="st11" d="M111.8,282.7c4.6-0.1,8.9,1.2,12.7,3.7c1.2,0.6,1.6,2,1,3.2c-0.2,0.3-0.4,0.6-0.7,0.7
	c-1.6,1.2-3.7,1.2-5.3,0.2c-2.2-1.5-4.9-2.2-7.6-2.2l0,0c-2.7,0-5.3,0.7-7.6,2.2c-1.6,1.1-3.7,1-5.3-0.1c-1.1-0.7-1.4-2.1-0.6-3.2
	c0.2-0.3,0.5-0.5,0.8-0.7C102.8,284,107.3,282.7,111.8,282.7L111.8,282.7z"/>
</svg>
