<?xml version="1.0" encoding="utf-8"?>
<!-- Generator: Adobe Illustrator 19.0.0, SVG Export Plug-In . SVG Version: 6.00 Build 0)  -->
<svg version="1.1" id="Layer_1" xmlns="http://www.w3.org/2000/svg" xmlns:xlink="http://www.w3.org/1999/xlink" x="0px" y="0px"
	 viewBox="-114 142.3 383 508.7" style="enable-background:new -114 142.3 383 508.7;" xml:space="preserve">
<style type="text/css">
	.st0{fill:#191919;}
	.st1{fill:#B2B2B2;}
	.st2{clip-path:url(#SVGID_2_);}
	.st3{fill:#C9C5C6;}
	.st4{fill:#D8D8D8;}
	.st5{clip-path:url(#SVGID_4_);}
	.st6{fill:#E8E8E8;}
	.st7{fill:#BC8E79;}
	.st8{fill:#A06E5A;}
	.st9{fill:#897F79;}
	.st10{fill:#868686;}
	.st11{fill:#2B2B2B;}
	.st12{fill:#232323;}
</style>
<g>
	<title>Baby</title>
	<circle class="st0" cx="75.6" cy="200.1" r="55"/>
	<path class="st1" d="M194.8,407.5V547c0.6,56.9-50.9,103.5-115,104c-64.2,0.5-116.7-45.1-117.3-102c0-0.7,0-1.3,0-2V407.5
		c-0.6-56.9,50.9-103.5,115-104c64.2-0.5,116.7,45.1,117.3,102C194.8,406.2,194.8,406.9,194.8,407.5z"/>
	<g>
		<g>
			<g>
				<g>
					<defs>
						<path id="SVGID_1_" d="M194.8,407.5V547c0.6,56.9-50.9,103.5-115,104c-64.2,0.5-116.7-45.1-117.3-102c0-0.7,0-1.3,0-2V407.5
							c-0.6-56.9,50.9-103.5,115-104c64.2-0.5,116.7,45.1,117.3,102C194.8,406.2,194.8,406.9,194.8,407.5z"/>
					</defs>
					<clipPath id="SVGID_2_">
						<use xlink:href="#SVGID_1_"  style="overflow:visible;"/>
					</clipPath>
					<g class="st2">
						<path class="st3" d="M-15.5,304.5c0,0,13.2,152.5,182.5,266S148,675,148,675l-255.7-71.2l-4.3-200L-15.5,304.5z"/>
					</g>
				</g>
			</g>
		</g>
	</g>
	<path class="st4" d="M172.7,398.3v139.5c0,57-52,103-116.3,103c-13.1,0-26-1.9-38.3-5.8c-34.6-18.7-55.8-52-55.8-88V407.5
		c0-57,52-103,116.3-103c13.1,0,26,1.9,38.4,5.8C151.7,329,172.7,362.4,172.7,398.3z"/>
	<g>
		<g>
			<g>
				<g>
					<defs>
						<path id="SVGID_3_" d="M172.7,398.3v139.5c0,57-52.3,103-116.9,103c-13.1,0-26.1-1.9-38.5-5.8c-34.8-18.7-56.1-52-56-88V407.5
							c0-57,52.3-103,116.9-103c13.2,0,26.2,1.9,38.6,5.8C151.6,329,172.7,362.4,172.7,398.3z"/>
					</defs>
					<clipPath id="SVGID_4_">
						<use xlink:href="#SVGID_3_"  style="overflow:visible;"/>
					</clipPath>
					<g class="st5">
						<path class="st6" d="M-16.4,304.5c0,0,13.3,152.5,183.4,266S147.9,675,147.9,675l-257.1-71.2l-4.3-200L-16.4,304.5z"/>
					</g>
				</g>
			</g>
		</g>
	</g>
	<path class="st7" d="M166.8,274.1h-0.2c-20.5,0.1-37.1,16.8-37,37.3c0,9.8,3.8,19.3,10.9,26.2c7,6.9,16.4,10.8,26.2,10.7h0.2
		c20.5,0,37.1-16.7,37.1-37.1S187.3,274,166.8,274.1L166.8,274.1z"/>
	<path class="st8" d="M166.1,303.3V328c0.2,52.5-39,95.4-87.2,95.6h-0.3c-2.1,0-4.3-0.1-6.3-0.2c-45.2-3.5-81.1-44.6-81.2-94.7
		L-9,312.8c-7.7-14.8-11.6-31.2-11.6-47.9c0-52,38-94.7,86.3-99.2l0,0c2.1-0.3,4.4-0.5,6.6-0.7l0,0c2.2-0.2,4.5-0.2,6.7-0.2
		c52.3,0,94.7,44.5,94.7,99.6C173.6,277.7,171.1,290.9,166.1,303.3z"/>
	<path class="st7" d="M152.4,303.3V328c0.2,50.3-35.6,91.7-80.9,95.3c-45.2-3.5-81.1-44.6-81.2-94.7l-0.1-15.9
		c-7.7-14.8-11.6-31.2-11.6-47.9c0-52,38-94.7,86.3-99.2l0,0c2.1-0.3,4.4-0.5,6.6-0.7l0,0c49.4,3.4,88.5,46.6,88.5,99.4
		C160,277.7,157.3,290.9,152.4,303.3z"/>
	<path class="st9" d="M78.6,382.2c-7.4,0-14.6-2.7-20-7.8c-2.4-2.2-2.6-6-0.4-8.4c2.2-2.4,6-2.6,8.4-0.4l0,0c3.2,3,7.6,4.7,12,4.7
		h0.1c4.5,0,8.8-1.6,12-4.8c2.3-2.3,6.1-2.3,8.4-0.1c2.3,2.3,2.3,6.1,0.1,8.4c-0.1,0.1-0.2,0.2-0.4,0.3c-5.5,5.1-12.7,7.9-20.1,7.9
		v0.1C78.6,382.2,78.6,382.2,78.6,382.2z"/>
	<path class="st10" d="M54.6,326.8c0-5.3-4.4-9.5-9.6-9.5s-9.5,4.4-9.5,9.6c0,5.3,4.4,9.5,9.6,9.5l0,0
		C50.4,336.3,54.6,332,54.6,326.8z"/>
	<path class="st10" d="M121.9,326.6c0-5.3-4.4-9.5-9.6-9.5c-5.3,0-9.5,4.4-9.5,9.6c0,5.3,4.4,9.5,9.6,9.5l0,0c5.2,0,9.4-4.1,9.5-9.3
		C121.9,326.7,121.9,326.7,121.9,326.6z"/>
	<path class="st4" d="M159.4,498.2c-0.7,1-2.2,3.4-3,4.5C124.9,545.4,81,484.4,8.9,452.5c-63.7-28.2-52.7-68-21.2-110.8
		c0.8-1,1.6-2,2.4-3C-32,372-29,421.6,13.5,446.3C71.6,480.1,126.7,538.3,159.4,498.2z"/>
	<path class="st7" d="M-11.8,274.7H-12c-20.5,0.1-37.1,16.8-37,37.3c0,9.8,3.9,19.3,10.9,26.2c7.1,7,12.4,10.8,26.2,10.8h0.2
		c20.5,0,37.1-16.7,37.1-37.1C25.4,291.3,8.8,274.7-11.8,274.7L-11.8,274.7z"/>
	<path class="st4" d="M-22.8,432.8c0,0,21.6,87.8,63.5,103.6c26.2,9.9-3.7-4.6,2.7-1.7C43.4,534.7,14,519.9-22.8,432.8z"/>
	<path class="st4" d="M-7.6,532.1c0,0,32.8,68.8,69.6,76.1c23.1,4.6-3.8-3.1,1.9-1.8C63.9,606.5,37.4,598.3-7.6,532.1z"/>
	<path class="st1" d="M159.9,413.5c0,0-0.7,74.7-31.7,93.9c-19.4,12,2.1-4.3-2.5-1C125.7,506.4,146.7,489.9,159.9,413.5z"/>
	<path class="st0" d="M129.5,202.6c-0.3,19.3-10.7,37.1-27.4,46.9c17.2-25,10.8-59.3-14.2-76.5c-17.5-12-40.4-12.9-58.8-2.2
		c17.2-25,51.4-31.4,76.4-14.3C120.8,167,129.7,184.2,129.5,202.6L129.5,202.6z"/>
	<path class="st11" d="M132.5,198c-0.3,19.3-10.7,37.1-27.4,46.9c17.2-25,10.8-59.2-14.2-76.4c-17.5-12-40.4-13-58.8-2.2
		c17.1-25.1,51.4-31.5,76.4-14.4C123.8,162.3,132.8,179.6,132.5,198z"/>
	<path class="st12" d="M115.1,291.1c4.7-0.1,9.2,1.2,13.2,3.7c1.2,0.6,1.6,2.1,1,3.2c-0.2,0.3-0.4,0.6-0.7,0.8
		c-1.6,1.2-3.8,1.3-5.6,0.2c-2.3-1.5-5.1-2.2-7.9-2.2H115c-2.8,0-5.6,0.7-7.9,2.2c-1.7,1.1-3.8,1-5.6-0.1c-1.1-0.7-1.4-2.2-0.7-3.3
		c0.2-0.3,0.5-0.6,0.8-0.8C105.8,292.6,110.5,291.1,115.1,291.1L115.1,291.1z"/>
	<path class="st12" d="M43.7,292.8c4.7-0.1,9.2,1.2,13.2,3.7c1.2,0.6,1.6,2.1,1,3.2c-0.2,0.3-0.4,0.6-0.7,0.8
		c-1.6,1.2-3.8,1.3-5.6,0.2c-2.3-1.5-5.1-2.2-7.9-2.2l0,0c-2.8,0-5.6,0.7-7.9,2.2c-1.7,1.1-3.8,1-5.6-0.1c-1.1-0.7-1.4-2.2-0.7-3.3
		c0.2-0.3,0.5-0.6,0.8-0.8C34.4,294.1,38.9,292.8,43.7,292.8L43.7,292.8z"/>
</g>
</svg>
