<?xml version="1.0" encoding="utf-8"?>
<!-- Generator: Adobe Illustrator 19.0.0, SVG Export Plug-In . SVG Version: 6.00 Build 0)  -->
<svg version="1.1" id="Layer_1" xmlns="http://www.w3.org/2000/svg" xmlns:xlink="http://www.w3.org/1999/xlink" x="0px" y="0px"
	 viewBox="-114 142.3 383 508.7" style="enable-background:new -114 142.3 383 508.7;" xml:space="preserve">
<style type="text/css">
	.st0{fill:#842610;}
	.st1{fill:#308E7C;}
	.st2{clip-path:url(#SVGID_2_);}
	.st3{fill:#459B8E;}
	.st4{fill:#3FA899;}
	.st5{clip-path:url(#SVGID_4_);}
	.st6{fill:#5CCCBE;}
	.st7{fill:#C2B4B4;}
	.st8{fill:#867878;}
	.st9{fill:#B2A1A1;}
	.st10{fill:#6B260B;}
	.st11{fill:#868686;}
</style>
<g>
	<title>baby</title>
	<ellipse class="st0" cx="96.8" cy="208" rx="60.8" ry="62.9"/>
	<path class="st1" d="M211.6,415v135.7c0,55.4-50.9,100.3-113.8,100.3S-15.8,606.1-15.8,550.7V415c0-55.4,50.9-100.3,113.8-100.3
		S211.6,359.6,211.6,415L211.6,415z"/>
	<g>
		<g>
			<g>
				<g>
					<g>
						<defs>
							<path id="SVGID_1_" d="M211.6,415v135.7c0,55.4-50.9,100.3-113.8,100.3S-15.8,606.1-15.8,550.7V415
								c0-55.4,50.9-100.3,113.8-100.3S211.6,359.6,211.6,415L211.6,415z"/>
						</defs>
						<clipPath id="SVGID_2_">
							<use xlink:href="#SVGID_1_"  style="overflow:visible;"/>
						</clipPath>
						<g class="st2">
							<path class="st3" d="M5.7,314.7c0,0,13,148.6,178.6,258.9s-18.7,101.7-18.7,101.7L-84.8,606L-89,411.3L5.7,314.7z"/>
						</g>
					</g>
				</g>
			</g>
		</g>
	</g>
	<path class="st4" d="M190,406v135.7C190,597.1,139,642,76.1,642c-12.8,0-25.4-1.9-37.4-5.6c-34-18.2-54.6-50.7-54.6-85.7V415
		c0-55.4,51-100.3,113.9-100.3c12.9,0,25.5,1.9,37.6,5.7C169.5,338.6,190,371,190,406L190,406z"/>
	<g>
		<g>
			<g>
				<g>
					<g>
						<defs>
							<path id="SVGID_3_" d="M190,406v135.7C190,597.1,139,642,76.1,642c-12.8,0-25.4-1.9-37.4-5.6c-34-18.2-54.6-50.7-54.6-85.7
								V415c0-55.4,51-100.3,113.9-100.3c12.9,0,25.5,1.9,37.6,5.7C169.5,338.6,190,371,190,406L190,406z"/>
						</defs>
						<clipPath id="SVGID_4_">
							<use xlink:href="#SVGID_3_"  style="overflow:visible;"/>
						</clipPath>
						<g class="st5">
							<path class="st6" d="M5.7,314.7c0,0,13,148.6,178.6,258.9s-18.7,101.7-18.7,101.7L-84.8,606L-89,411.3L5.7,314.7z"/>
						</g>
					</g>
				</g>
			</g>
		</g>
	</g>
	<path class="st7" d="M184.2,284.9h-0.1c-20.1,0.1-36.3,16.3-36.3,36.5c0,9.6,3.9,19,10.6,25.6c6.8,6.8,16,10.5,25.6,10.5h0.1
		c20.1-0.4,36.1-16.9,35.7-37C219.6,300.9,203.7,285.1,184.2,284.9L184.2,284.9z"/>
	<path class="st8" d="M183.5,313.4v24.1c0.2,51.5-38.1,93.5-85.5,93.7h-0.3c-2,0-4.2-0.1-6.2-0.2c-44.3-3.4-79.4-43.7-79.5-92.8
		l-0.1-15.5C4.4,308.2,0.4,292.2,0.4,276c0-51,37.1-92.8,84.6-97l0,0c2-0.3,4.3-0.5,6.4-0.7l0,0c2.1-0.1,4.4-0.2,6.5-0.2
		c51.1,0,92.7,43.6,92.7,97.4C190.8,288.3,188.2,301.2,183.5,313.4z"/>
	<path class="st9" d="M170.1,313.5v24.1c0.2,49.3-34.9,89.7-79.2,93.4c-44.3-3.4-79.4-43.7-79.5-92.8v-15.5
		C3.9,308.2-0.1,292.2-0.1,276c0-51,37.1-92.8,84.6-97l0,0c2-0.3,4.3-0.5,6.4-0.7l0,0c48.3,3.2,86.5,45.5,86.5,97.2
		C177.4,288.3,174.9,301.2,170.1,313.5z"/>
	<path class="st10" d="M97.8,390.7c-7.3,0-14.3-2.6-19.7-7.7c-2.3-2.1-2.5-5.9-0.4-8.2c2.1-2.3,5.9-2.5,8.2-0.4
		c3.1,2.9,7.4,4.6,11.8,4.6h0.1c4.4,0,8.5-1.6,11.8-4.7c2.3-2.1,6.1-2,8.2,0.3s2,6.1-0.3,8.2c-5.4,5-12.5,7.7-19.8,7.7
		C97.9,390.5,97.9,390.6,97.8,390.7C97.9,390.7,97.9,390.7,97.8,390.7z"/>
	<path class="st11" d="M74.3,336.4c0-5.2-4.3-9.3-9.3-9.2c-5.2,0-9.3,4.3-9.2,9.3c0,5.2,4.3,9.3,9.3,9.2l0,0
		C70.1,345.7,74.3,341.5,74.3,336.4z"/>
	<path class="st11" d="M140.3,336.2c0-5.2-4.3-9.3-9.3-9.2c-5.2,0.1-9.3,4.3-9.2,9.3c0,5.2,4.3,9.3,9.3,9.2l0,0
		c5.2,0,9.2-4.2,9.2-9.1C140.3,336.3,140.3,336.2,140.3,336.2z"/>
	<path class="st4" d="M177,503.3c-0.7,1-2.1,3.3-2.9,4.4c-30.8,41.6-73.8-17.8-144.4-48.9C-32.8,431.3-21.8,392.6,8.9,351
		c0.7-1,1.5-2,2.3-3C-10.4,380.6-7.6,428.7,34,452.7C91,485.6,144.8,542.2,177,503.3z"/>
	<path class="st9" d="M9.3,285.4L9.3,285.4c-20.1,0.1-36.4,16.4-36.4,36.5c0,9.6,3.9,19,10.6,25.8c6.9,6.8,12.3,10.5,25.8,10.5h0.1
		c20.1-0.4,36.1-16.9,35.7-37C44.7,301.5,28.9,285.8,9.3,285.4L9.3,285.4z"/>
	<path class="st4" d="M-1.5,439.6c0,0,21.2,85.5,62.1,101c25.8,9.7-3.5-4.4,2.6-1.7C63.3,538.9,34.5,524.4-1.5,439.6z"/>
	<path class="st4" d="M13.5,536.4c0,0,32,67,68.1,74.1c22.6,4.4-3.8-3.1,1.8-1.8C83.5,608.7,57.5,600.7,13.5,536.4z"/>
	<path class="st1" d="M177.5,420.8c0,0-0.7,72.7-31,91.4c-19.1,11.7,2-4.1-2.4-1C143.9,511.3,164.5,495.2,177.5,420.8z"/>
	<path class="st10" d="M61.7,296c4.8-0.1,9.3,1.2,13.3,3.9c1.2,0.6,1.6,2.1,1,3.2c-0.2,0.3-0.4,0.6-0.7,0.8c-1.6,1.2-4,1.2-5.6,0.2
		c-2.3-1.5-5.2-2.3-7.9-2.2l0,0c-2.7,0-5.6,0.7-7.9,2.3c-1.7,1.1-4,1-5.6-0.1c-1.1-0.7-1.4-2.2-0.6-3.3c0.2-0.3,0.5-0.6,0.8-0.8
		C52.3,297.3,56.9,296,61.7,296L61.7,296z"/>
	<path class="st10" d="M130.9,296c4.8-0.1,9.3,1.2,13.3,3.9c1.2,0.6,1.6,2.1,0.9,3.2c-0.2,0.3-0.4,0.6-0.7,0.8
		c-1.6,1.2-4,1.2-5.6,0.2c-2.3-1.5-5.2-2.3-7.9-2.2l0,0c-2.7,0-5.6,0.7-7.9,2.3c-1.7,1.1-4,1-5.6-0.1c-1.1-0.7-1.4-2.2-0.7-3.3
		c0.2-0.3,0.5-0.6,0.8-0.8C121.5,297.3,126.2,296,130.9,296L130.9,296z"/>
	<path class="st0" d="M159,183.2c0,32.6-30.2,57.2-60.7,64.2c10.7-13.2,16.5-29.7,16.4-46.6c0-37.7-3.3-36.5-37.1-36.5
		c-8.6,0-21.6,3.5-29.1,7.2c12.6-15.8,30.5-27,53.7-26.2C140.3,146.6,159,145.3,159,183.2z"/>
	<path class="st10" d="M161,180.4c0,32.6-30.2,57.2-60.7,64.2c10.7-13.2,16.5-29.7,16.4-46.6c0-37.7-3.3-36.5-37.1-36.5
		c-8.6,0-21.6,3.5-29.1,7.2c12.5-15.9,30.6-27,53.8-26.3C142.2,143.8,161,142.4,161,180.4z"/>
</g>
</svg>
