<?xml version="1.0" encoding="utf-8"?>
<!-- Generator: Adobe Illustrator 23.1.0, SVG Export Plug-In . SVG Version: 6.00 Build 0)  -->
<svg version="1.1" id="Layer_1" xmlns="http://www.w3.org/2000/svg" xmlns:xlink="http://www.w3.org/1999/xlink" x="0px" y="0px"
	 viewBox="0 0 383 508.7" style="enable-background:new 0 0 383 508.7;" xml:space="preserve">
<style type="text/css">
	.st0{fill:#842610;}
	.st1{fill:#418C8C;}
	.st2{clip-path:url(#SVGID_2_);}
	.st3{fill:#56A5A1;}
	.st4{fill:#57A6AA;}
	.st5{clip-path:url(#SVGID_4_);}
	.st6{fill:#77C9C9;}
	.st7{fill:#F0BCA6;}
	.st8{fill:#E6B09A;}
	.st9{fill:#E2A58A;}
	.st10{fill:#868686;}
	.st11{fill:#9B3710;}
</style>
<g>
	<title>Baby</title>
	<circle class="st0" cx="192.7" cy="48.2" r="46"/>
	<path class="st1" d="M306.8,263.9v140.8c0,57.5-51,104-113.9,104S79,462.2,79,404.7V263.9c0-57.5,51-104,113.9-104.1
		S306.8,206.3,306.8,263.9L306.8,263.9z"/>
	<g>
		<g>
			<g>
				<defs>
					<path id="SVGID_1_" d="M306.8,263.9v140.8c0,57.5-51,104-113.9,104S79,462.2,79,404.7V263.9c0-57.5,51-104,113.9-104.1
						S306.8,206.3,306.8,263.9L306.8,263.9z"/>
				</defs>
				<clipPath id="SVGID_2_">
					<use xlink:href="#SVGID_1_"  style="overflow:visible;"/>
				</clipPath>
				<g class="st2">
					<path class="st3" d="M100.5,159.8c0,0,13,154,179,268.5s-18.7,105.5-18.7,105.5L10,462l-4.2-202L100.5,159.8z"/>
				</g>
			</g>
		</g>
	</g>
	<path class="st4" d="M285.2,254.5v140.8c0,57.5-51.1,104.1-114.1,104c-12.7,0-25.4-2-37.4-5.8C99.6,474.6,79,441,79,404.7V263.9
		c0-57.5,51.1-104.1,114-104.1c12.7,0,25.5,2,37.5,5.9C264.5,184.5,285.2,218.1,285.2,254.5L285.2,254.5z"/>
	<g>
		<g>
			<g>
				<defs>
					<path id="SVGID_3_" d="M285.2,254.5v140.8c0,57.5-51.1,104.1-114.1,104c-12.7,0-25.4-2-37.4-5.8C99.6,474.6,79,441,79,404.7
						V263.9c0-57.5,51.1-104.1,114-104.1c12.7,0,25.5,2,37.5,5.9C264.5,184.5,285.2,218.1,285.2,254.5L285.2,254.5z"/>
				</defs>
				<clipPath id="SVGID_4_">
					<use xlink:href="#SVGID_3_"  style="overflow:visible;"/>
				</clipPath>
				<g class="st5">
					<path class="st6" d="M100.5,159.8c0,0,13,154,179,268.5s-18.7,105.5-18.7,105.5L10,462l-4.2-202L100.5,159.8z"/>
				</g>
			</g>
		</g>
	</g>
	<path class="st7" d="M279.3,129.8h-0.1c-20.1,0.1-36.4,16.4-36.3,36.5c0,9.7,3.8,18.9,10.7,25.7c6.8,6.8,16.1,10.6,25.7,10.6h0.1
		c20.1-0.4,36.1-17,35.8-37.1C314.9,146,299,130.1,279.3,129.8L279.3,129.8z"/>
	<path class="st8" d="M278.6,158.5v24.2c0.2,51.6-38.2,93.7-85.6,93.8h-0.2c-2.1,0-4.1-0.1-6.2-0.2c-44.3-3.5-79.4-43.8-79.5-93.1
		l-0.1-15.6c-7.5-14.5-11.4-30.6-11.4-46.8c0-51.1,37.2-93,84.7-97.3l0,0c2.1-0.3,4.2-0.5,6.4-0.7l0,0c2.1-0.2,4.4-0.2,6.5-0.2
		c51.3,0.1,92.8,43.8,92.8,97.7C286,133.3,283.5,146.3,278.6,158.5z"/>
	<path class="st7" d="M265.3,158.5v24.2c0.2,49.3-34.9,89.9-79.4,93.6c-44.4-3.4-79.5-43.8-79.6-93l-0.1-15.6
		c-7.5-14.5-11.4-30.6-11.3-46.9c0-51.1,37.2-93,84.7-97.3l0,0c2.1-0.3,4.2-0.5,6.5-0.7l0,0c48.4,3.3,86.6,45.6,86.6,97.4
		C272.6,133.3,270.1,146.4,265.3,158.5z"/>
	<path class="st9" d="M192.9,235.8c-7.3,0-14.4-2.7-19.6-7.7c-2.2-2.3-2.1-6.1,0.2-8.3c2.1-2,5.5-2.1,7.7-0.3
		c3.2,2.9,7.5,4.6,11.8,4.6h0.1c4.4,0,8.6-1.6,11.7-4.7c2.3-2.2,6.1-2,8.3,0.3s2,6.1-0.3,8.3c-5.4,5-12.4,7.8-19.7,7.8
		C193,235.9,192.9,235.9,192.9,235.8L192.9,235.8z"/>
	<path class="st10" d="M169.3,181.5c0-5.2-4.2-9.3-9.4-9.3c-5.2,0-9.3,4.2-9.3,9.4c0,5.2,4.2,9.3,9.4,9.3l0,0
		C165.2,190.8,169.3,186.7,169.3,181.5z"/>
	<path class="st10" d="M235.3,181.2c0-5.2-4.2-9.3-9.4-9.3c-5.2,0-9.3,4.2-9.3,9.4c0,5.2,4.2,9.3,9.4,9.3l0,0c5.1,0,9.3-4,9.3-9.2
		C235.3,181.4,235.3,181.3,235.3,181.2z"/>
	<path class="st4" d="M272.1,355.4c-0.7,1.1-2.2,3.4-2.9,4.6c-31,43.1-74-18.5-144.7-50.7c-62.5-28.5-51.7-68.8-20.7-111.8
		c0.7-1,1.5-2,2.3-3c-21.7,33.7-18.8,83.7,22.9,108.7C185.9,337,240,395.8,272.1,355.4z"/>
	<path class="st7" d="M104.2,130.4h-0.1c-20.1,0.1-36.3,16.5-36.3,36.5c0,9.7,3.8,18.9,10.7,25.7c6.9,6.9,12.2,10.5,25.7,10.5h0.1
		c20.1-0.4,36.1-17,35.8-37.1C139.7,146.5,123.8,130.7,104.2,130.4L104.2,130.4z"/>
	<path class="st4" d="M93.5,289.4c0,0,21.1,88.7,62.2,104.7c25.7,10-3.6-4.6,2.6-1.8C158.3,392.3,129.5,377.3,93.5,289.4z"/>
	<path class="st4" d="M108.3,389.6c0,0,32.1,69.5,68.3,76.9c22.7,4.6-3.7-3.2,1.9-1.8C178.5,464.7,152.4,456.4,108.3,389.6z"/>
	<path class="st1" d="M272.6,269.8c0,0-0.7,75.5-31.1,94.8c-19,12.1,2.1-4.2-2.5-1C239.1,363.6,259.7,346.9,272.6,269.8z"/>
	<path class="st0" d="M237.8,50.4c-0.2,16.2-8.9,31.1-23,39.2c14.4-20.9,9-49.6-11.9-63.9c-14.7-10-33.7-10.7-49.1-1.9
		c14.4-20.9,43-26.2,63.9-11.8C230.6,20.5,238,35,237.8,50.4L237.8,50.4z"/>
	<path class="st11" d="M240.4,46.6c-0.2,16.2-8.9,31.1-23,39.2c14.4-20.9,9-49.6-11.9-63.9c-14.7-10-33.7-10.7-49.1-1.9
		c14.4-20.9,43-26.2,63.9-11.8C233,16.8,240.5,31.3,240.4,46.6L240.4,46.6z"/>
	<path class="st11" d="M160.7,149.5c3.8-0.1,7.7,1,10.9,3.1c1,0.5,1.3,1.7,0.8,2.7c-0.1,0.3-0.3,0.5-0.6,0.7c-1.3,1-3.1,1-4.6,0.2
		c-1.9-1.3-4.2-1.9-6.6-1.9l0,0c-2.3,0-4.7,0.6-6.6,1.9c-1.4,0.9-3.2,0.9-4.6-0.1c-0.9-0.6-1.1-1.8-0.5-2.7c0.2-0.3,0.4-0.5,0.7-0.6
		C153.1,150.5,156.8,149.4,160.7,149.5L160.7,149.5z"/>
	<path class="st11" d="M228.5,149.5c3.8-0.1,7.7,1,10.9,3.1c1,0.5,1.3,1.7,0.8,2.7c-0.1,0.3-0.3,0.5-0.6,0.7c-1.3,1-3.2,1-4.7,0.2
		c-1.9-1.3-4.2-1.9-6.6-1.9l0,0c-2.3,0-4.7,0.6-6.6,1.9c-1.4,0.9-3.2,0.9-4.6-0.1c-0.9-0.6-1.1-1.8-0.5-2.7c0.2-0.3,0.4-0.5,0.7-0.6
		C220.8,150.5,224.7,149.4,228.5,149.5L228.5,149.5z"/>
</g>
</svg>
