<?xml version="1.0" encoding="utf-8"?>
<!-- Generator: Adobe Illustrator 23.1.0, SVG Export Plug-In . SVG Version: 6.00 Build 0)  -->
<svg version="1.1" id="Layer_1" xmlns="http://www.w3.org/2000/svg" xmlns:xlink="http://www.w3.org/1999/xlink" x="0px" y="0px"
	 viewBox="0 0 383 508.7" style="enable-background:new 0 0 383 508.7;" xml:space="preserve">
<style type="text/css">
	.st0{fill:#261306;}
	.st1{fill:#A5652B;}
	.st2{clip-path:url(#SVGID_2_);}
	.st3{fill:#BA8050;}
	.st4{fill:#D38940;}
	.st5{clip-path:url(#SVGID_4_);}
	.st6{fill:#EAAE78;}
	.st7{fill:#F0BCA6;}
	.st8{fill:#E6B09A;}
	.st9{fill:#E2A58A;}
	.st10{fill:#868686;}
	.st11{fill:#3F2016;}
</style>
<title>baby</title>
<circle class="st0" cx="194.6" cy="56" r="53.4"/>
<path class="st1" d="M305.8,263.5l-0.1,141c0,57.6-50.6,104.2-112.8,104.2S80,462.1,80.1,404.5l0,0l0.1-141.1
	c0-57.6,50.6-104.2,112.8-104.2C255.4,159.2,305.9,206,305.8,263.5L305.8,263.5z"/>
<g>
	<g>
		<g>
			<defs>
				<path id="SVGID_1_" d="M305.8,263.5l-0.1,141c0,57.6-50.6,104.2-112.8,104.2S80,462.1,80.1,404.5l0,0l0.1-141.1
					c0-57.6,50.6-104.2,112.8-104.2C255.4,159.2,305.9,206,305.8,263.5L305.8,263.5z"/>
			</defs>
			<clipPath id="SVGID_2_">
				<use xlink:href="#SVGID_1_"  style="overflow:visible;"/>
			</clipPath>
			<g class="st2">
				<path class="st3" d="M101.7,159.2c0,0,12.7,154.3,177,269s-18.6,105.7-18.6,105.7L11.9,461.8l-4-202.4L101.7,159.2z"/>
			</g>
		</g>
	</g>
</g>
<path class="st4" d="M284.5,254.1l-0.1,141c0,57.6-50.7,104.2-112.9,104.2c-12.6,0-25.2-2-37.2-5.8c-33.6-19-54.1-52.7-54.1-89
	l0.1-141c0-57.6,50.7-104.2,112.9-104.1c12.6,0,25.3,2,37.3,5.9C264,184.1,284.4,217.7,284.5,254.1z"/>
<g>
	<g>
		<g>
			<defs>
				<path id="SVGID_3_" d="M284.5,254.1l-0.1,141c0,57.6-50.7,104.2-112.9,104.2c-12.6,0-25.2-2-37.2-5.8
					c-33.6-19-54.1-52.7-54.1-89l0.1-141c0-57.6,50.7-104.2,112.9-104.1c12.6,0,25.3,2,37.3,5.9C264,184.1,284.4,217.7,284.5,254.1z
					"/>
			</defs>
			<clipPath id="SVGID_4_">
				<use xlink:href="#SVGID_3_"  style="overflow:visible;"/>
			</clipPath>
			<g class="st5">
				<path class="st6" d="M101.7,159.2c0,0,12.7,154.3,177,269s-18.6,105.7-18.6,105.7L11.9,461.8l-4-202.4L101.7,159.2z"/>
			</g>
		</g>
	</g>
</g>
<path class="st7" d="M278.6,129.6h-0.2c-20,0.1-36,16.3-36,36.2c0,9.6,3.8,18.7,10.6,25.4c6.8,6.7,15.9,10.5,25.5,10.5h0.1
	c19.9-0.3,35.8-16.8,35.4-36.8C313.6,145.5,298,129.9,278.6,129.6z"/>
<path class="st8" d="M277.8,157.8v24c0.2,51-37.8,92.8-84.7,92.9h-0.3c-2,0-4.1-0.1-6.2-0.2c-43.9-3.4-78.7-43.3-78.8-92v-15.4
	c-7.4-14.3-11.4-30.3-11.3-46.4c0-50.6,36.9-92,83.8-96.3l0,0c2.1-0.3,4.2-0.5,6.4-0.6l0,0c2.1-0.1,4.2-0.2,6.5-0.2
	c50.8,0,91.9,43.2,91.9,96.7C285.2,133,282.7,145.8,277.8,157.8z"/>
<path class="st7" d="M264.5,157.8v24c0.2,48.8-34.5,89-78.5,92.5c-43.9-3.4-78.7-43.3-78.8-92V167c-7.4-14.3-11.4-30.3-11.3-46.4
	c0-50.6,36.9-92,83.8-96.3l0,0c2.1-0.3,4.2-0.5,6.4-0.6l0,0c47.9,3.3,85.7,45.3,85.7,96.5C271.9,133,269.4,145.8,264.5,157.8z"/>
<path class="st9" d="M192.9,234.4c-7.2,0-14.2-2.7-19.4-7.5c-2.5-1.9-3-5.6-1.1-8.1c1.9-2.5,5.6-3,8.1-1.1c0.2,0.2,0.5,0.4,0.7,0.6
	c3.2,3,7.3,4.6,11.7,4.5h0.1c4.4,0,8.5-1.6,11.7-4.6c2.3-2.1,6.1-2,8.2,0.3c2.1,2.3,2,6.1-0.3,8.2l0,0
	C207.3,231.8,200.3,234.5,192.9,234.4L192.9,234.4z"/>
<path class="st10" d="M169.7,180.7c0-5.1-4.1-9.2-9.2-9.2c-5.1,0-9.2,4.1-9.2,9.2s4.1,9.2,9.2,9.2l0,0
	C165.5,189.9,169.7,185.8,169.7,180.7z"/>
<path class="st10" d="M235,180.5c0-5.1-4.1-9.2-9.2-9.2s-9.2,4.1-9.2,9.2s4.1,9.2,9.2,9.2l0,0c5,0,9.1-4,9.2-9
	C235,180.6,235,180.6,235,180.5z"/>
<path class="st4" d="M271.3,355.1c-0.6,1.1-2.2,3.4-3,4.5c-30.6,43.1-73.2-18.6-143.1-50.8c-61.8-28.6-51.2-68.8-20.5-112
	c0.7-1.1,1.5-2,2.3-3.1c-21.5,33.8-18.6,83.8,22.6,108.8C186.1,336.7,239.6,395.6,271.3,355.1z"/>
<path class="st7" d="M105.2,130.1L105.2,130.1c-20.1,0.1-36.2,16.4-36.1,36.2c0,9.6,3.8,18.7,10.6,25.4c6.9,6.8,12.1,10.5,25.4,10.5
	h0.1c19.9,0,36-16.1,36-36.1S125,130.1,105.2,130.1L105.2,130.1L105.2,130.1z"/>
<path class="st4" d="M94.4,288.9c0,0,20.9,88.8,61.5,104.9c25.4,10-3.6-4.6,2.7-1.8C158.7,392,130.2,377,94.4,288.9z"/>
<path class="st4" d="M109.2,389.3c0,0,31.8,69.6,67.7,77c22.4,4.7-3.7-3.3,1.9-1.9C178.8,464.6,153,456.4,109.2,389.3z"/>
<path class="st1" d="M271.9,269.5c0,0-0.6,75.6-30.8,95c-18.8,12.1,2.1-4.4-2.4-1C238.6,363.4,259,346.7,271.9,269.5z"/>
<path class="st0" d="M247,58.5c-0.2,18.8-10.4,36-26.7,45.5c16.7-24.3,10.5-57.6-13.8-74.3c-17-11.7-39.2-12.5-56.9-2.1
	c16.7-24.3,49.9-30.5,74.3-13.9C238.6,23.9,247.3,40.6,247,58.5L247,58.5z"/>
<path class="st11" d="M250,54.1c-0.2,18.8-10.4,36-26.7,45.5C240,75.3,233.8,42,209.5,25.3c-17-11.7-39.1-12.5-56.9-2.1
	c16.7-24.3,49.9-30.5,74.3-13.9C241.5,19.5,250.2,36.3,250,54.1z"/>
<path class="st11" d="M160.4,140.4c4.6-0.1,8.9,1.2,12.7,3.7c1.2,0.6,1.6,2,1,3.2c-0.2,0.3-0.4,0.6-0.7,0.7
	c-1.6,1.2-3.7,1.2-5.3,0.2c-2.2-1.5-4.9-2.2-7.6-2.2l0,0c-2.7,0-5.3,0.7-7.6,2.2c-1.6,1.1-3.7,1-5.3-0.1c-1.1-0.7-1.4-2.1-0.6-3.2
	c0.2-0.3,0.5-0.5,0.8-0.7C151.5,141.7,156,140.4,160.4,140.4L160.4,140.4z"/>
<path class="st11" d="M225.8,140.4c4.6-0.1,8.9,1.2,12.7,3.7c1.2,0.6,1.6,2,1,3.2c-0.2,0.3-0.4,0.6-0.7,0.7
	c-1.6,1.2-3.7,1.2-5.3,0.2c-2.2-1.5-4.9-2.2-7.6-2.2l0,0c-2.7,0-5.3,0.7-7.6,2.2c-1.6,1.1-3.7,1-5.3-0.1c-1.1-0.7-1.4-2.1-0.6-3.2
	c0.2-0.3,0.5-0.5,0.8-0.7C216.8,141.7,221.3,140.4,225.8,140.4L225.8,140.4z"/>
</svg>
