<?xml version="1.0" encoding="utf-8"?>
<!-- Generator: Adobe Illustrator 19.0.0, SVG Export Plug-In . SVG Version: 6.00 Build 0)  -->
<svg version="1.1" id="Layer_1" xmlns="http://www.w3.org/2000/svg" xmlns:xlink="http://www.w3.org/1999/xlink" x="0px" y="0px"
	 viewBox="-114 142.3 383 508.7" style="enable-background:new -114 142.3 383 508.7;" xml:space="preserve">
<style type="text/css">
	.st0{fill:#261307;}
	.st1{fill:#8C5E2D;}
	.st2{clip-path:url(#SVGID_2_);}
	.st3{fill:#A57E46;}
	.st4{fill:#AA833D;}
	.st5{clip-path:url(#SVGID_4_);}
	.st6{fill:#E0B46E;}
	.st7{fill:#C6A89C;}
	.st8{fill:#B38B7B;}
	.st9{fill:#897F79;}
	.st10{fill:#868686;}
	.st11{fill:#3A1E0B;}
</style>
<g>
	<title>baby</title>
	<circle class="st0" cx="74" cy="208.6" r="63.5"/>
	<path class="st1" d="M193.6,411.2v137.9c0,56.3-51.4,101.9-114.9,101.9S-36.1,605.4-36.1,549.2v-138c0-56.3,51.4-101.9,114.9-101.9
		S193.6,355,193.6,411.2z"/>
	<g>
		<g>
			<g>
				<defs>
					<path id="SVGID_1_" d="M193.6,411.2v137.9c0,56.3-51.4,101.9-114.9,101.9S-36.1,605.4-36.1,549.2v-138
						c0-56.3,51.4-101.9,114.9-101.9S193.6,355,193.6,411.2z"/>
				</defs>
				<clipPath id="SVGID_2_">
					<use xlink:href="#SVGID_1_"  style="overflow:visible;"/>
				</clipPath>
				<g class="st2">
					<path class="st3" d="M-14.4,309.3c0,0,13.1,150.9,180.4,263s-18.8,103.3-18.8,103.3l-252.8-70.4l-4.2-197.8L-14.4,309.3z"/>
				</g>
			</g>
		</g>
	</g>
	<path class="st4" d="M171.7,402.1v137.8c0,56.4-51.5,102-115,101.9c-12.9,0-25.6-1.9-37.7-5.7c-34.2-18.5-55.2-51.5-55.1-87V411.2
		c0-56.4,51.5-101.9,115-101.9c12.9,0,25.7,1.9,37.8,5.7c7.8,4.3,15,9.2,21.4,15C159.7,349.1,171.8,375.1,171.7,402.1z"/>
	<g>
		<g>
			<g>
				<defs>
					<path id="SVGID_3_" d="M171.7,402.1v137.8c0,56.4-51.5,102-115,101.9c-12.9,0-25.6-1.9-37.7-5.7c-34.2-18.5-55.2-51.5-55.1-87
						V411.2c0-56.4,51.5-101.9,115-101.9c12.9,0,25.7,1.9,37.8,5.7c7.8,4.3,15,9.2,21.4,15C159.7,349.1,171.8,375.1,171.7,402.1z"/>
				</defs>
				<clipPath id="SVGID_4_">
					<use xlink:href="#SVGID_3_"  style="overflow:visible;"/>
				</clipPath>
				<g class="st5">
					<path class="st6" d="M-14.4,309.3c0,0,13.1,150.9,180.4,263s-18.8,103.3-18.8,103.3l-252.8-70.4l-4.2-197.8L-14.4,309.3z"/>
				</g>
			</g>
		</g>
	</g>
	<path class="st7" d="M165.8,279.2h-0.2c-20.3,0.1-36.7,16.6-36.6,36.8c0,9.7,3.8,19.1,10.8,25.9c6.9,6.9,16.2,10.7,25.9,10.6h0.2
		c20.2,0,36.7-16.5,36.6-36.7C202.6,295.6,186.1,279.2,165.8,279.2L165.8,279.2z"/>
	<path class="st8" d="M165.1,308v24.5c0.2,52-38.6,94.4-86.2,94.5h-0.3c-2.1,0-4.1-0.1-6.3-0.2c-44.6-3.5-80-44.1-80.2-93.7
		L-8,317.3c-7.6-14.6-11.5-30.9-11.4-47.3c0-51.5,37.5-93.7,85.4-98.1l0,0c2.1-0.3,4.3-0.5,6.5-0.7c3.2-0.2,0,0,0,0
		c2.2-0.2,4.4-0.2,6.6-0.2c51.7,0,93.5,44,93.5,98.5C172.5,282.7,170,295.8,165.1,308z"/>
	<path class="st7" d="M151.7,308v24.4c0.2,49.7-35.2,90.7-80,94.3C27,423.3-8.4,382.6-8.5,333v-15.7c-7.6-14.6-11.5-30.9-11.4-47.3
		c0-51.5,37.5-93.7,85.4-98.1l0,0c2.1-0.3,4.3-0.5,6.5-0.7l0,0c48.8,3.3,87.3,46,87.3,98.3C159.1,282.7,156.5,295.8,151.7,308z"/>
	<path class="st9" d="M78.6,386c-7.4,0-14.5-2.7-19.8-7.8c-2.4-2.2-2.5-6-0.3-8.3c2.2-2.4,5.9-2.5,8.3-0.4c3.2,2.9,7.5,4.7,11.8,4.6
		h0.1c4.5,0,8.7-1.6,11.8-4.7c2.4-2.2,6.1-2.1,8.3,0.3c2.2,2.4,2.1,6.1-0.3,8.3C93.2,383.2,86,386,78.6,386L78.6,386L78.6,386z"/>
	<path class="st10" d="M54.9,331.2c0-5.2-4.3-9.4-9.5-9.4s-9.4,4.3-9.4,9.5s4.3,9.4,9.5,9.4l0,0C50.7,340.6,54.9,336.4,54.9,331.2z"
		/>
	<path class="st10" d="M121.4,331c0-5.2-4.3-9.4-9.5-9.4s-9.4,4.3-9.4,9.5c0,5.2,4.3,9.4,9.5,9.4s9.3-4.1,9.4-9.3
		C121.4,331.1,121.4,331.1,121.4,331z"/>
	<path class="st4" d="M158.6,501c-0.7,1-2.2,3.4-3,4.5C124.4,547.7,81,487.4,9.8,455.8c-62.9-27.9-52.1-67.3-20.9-109.5
		c0.7-1,1.5-2,2.3-3c-21.9,33-18.9,82,23.1,106.5C71.7,483,126.2,540.5,158.6,501z"/>
	<path class="st7" d="M-10.7,279.8h-0.2c-20.2,0.1-36.6,16.6-36.6,36.8c0,9.7,3.8,19.1,10.8,25.9c7,6.9,12.3,10.6,25.9,10.6h0.1
		c20.2-0.4,36.4-17.1,36-37.4C25,296.1,9,280.1-10.7,279.8L-10.7,279.8z"/>
	<path class="st4" d="M-21.6,436.2c0,0,21.4,86.9,62.7,102.5c25.9,9.8-3.6-4.5,2.7-1.7C43.8,537,14.8,522.3-21.6,436.2z"/>
	<path class="st4" d="M-6.6,534.5c0,0,32.4,68.1,68.9,75.3c22.9,4.5-3.7-3.1,1.9-1.8C64.2,607.9,37.9,599.9-6.6,534.5z"/>
	<path class="st1" d="M159.1,417.1c0,0-0.7,73.9-31.4,92.9c-19.2,11.9,2.1-4.1-2.5-1C125.2,509.1,146,492.7,159.1,417.1z"/>
	<path class="st11" d="M44.1,285.7c4.8-0.1,9.4,1.3,13.5,3.8c1.2,0.6,1.6,2.1,1,3.3c-0.2,0.3-0.4,0.6-0.7,0.8
		c-1.6,1.2-3.9,1.3-5.7,0.2c-2.4-1.5-5.2-2.3-8-2.3l0,0c-2.8,0-5.7,0.8-8,2.3c-1.7,1.1-3.9,1.1-5.7-0.1c-1.1-0.7-1.4-2.2-0.7-3.4
		c0.2-0.3,0.5-0.6,0.9-0.8C34.7,287.1,39.3,285.7,44.1,285.7L44.1,285.7z"/>
	<path class="st11" d="M113.2,283.8c4.8-0.1,9.4,1.3,13.5,3.8c1.2,0.6,1.6,2.1,1,3.3c-0.2,0.3-0.4,0.6-0.7,0.8
		c-1.6,1.2-3.9,1.3-5.7,0.2c-2.4-1.5-5.2-2.3-8-2.3l0,0c-2.8,0-5.7,0.8-8,2.3c-1.7,1.1-3.9,1-5.7-0.2c-1.1-0.7-1.4-2.2-0.7-3.4
		c0.2-0.3,0.5-0.6,0.9-0.8C103.7,285.1,108.4,283.7,113.2,283.8L113.2,283.8z"/>
	<path class="st0" d="M136,183.4c0,33-30.6,57.8-61.3,64.8c10.8-13.3,16.7-30,16.6-47.2c0-38.2-3.4-36.8-37.4-36.8
		c-8.8,0-21.8,3.6-29.3,7.3c12.6-16,30.9-27.1,54.3-26.3C117.1,146.5,136,145.2,136,183.4z"/>
	<path class="st11" d="M137.9,180.6c0,33-30.6,57.8-61.3,64.8c10.8-13.3,16.7-30,16.6-47.2c0-38.2-3.4-36.8-37.4-36.8
		c-8.8,0-21.8,3.6-29.3,7.3c12.5-16,30.8-27.2,54.2-26.4C119,143.6,137.9,142.3,137.9,180.6z"/>
</g>
</svg>
