<?xml version="1.0" encoding="utf-8"?>
<!-- Generator: Adobe Illustrator 19.0.0, SVG Export Plug-In . SVG Version: 6.00 Build 0)  -->
<svg version="1.1" id="Layer_1" xmlns="http://www.w3.org/2000/svg" xmlns:xlink="http://www.w3.org/1999/xlink" x="0px" y="0px"
	 viewBox="-114 142.3 383 508.7" style="enable-background:new -114 142.3 383 508.7;" xml:space="preserve">
<style type="text/css">
	.st0{fill:#842610;}
	.st1{fill:#418C8C;}
	.st2{clip-path:url(#SVGID_2_);}
	.st3{fill:#56A5A1;}
	.st4{fill:#57A6AA;}
	.st5{clip-path:url(#SVGID_4_);}
	.st6{fill:#77C9C9;}
	.st7{fill:#C2B4B4;}
	.st8{fill:#B2A1A1;}
	.st9{fill:#867878;}
	.st10{fill:#868686;}
	.st11{fill:#6B260B;}
	.st12{fill:#9B3710;}
</style>
<g>
	<title>Baby</title>
	<circle class="st0" cx="88.4" cy="190.5" r="46"/>
	<path class="st1" d="M202.5,406.2V547c0,57.5-51,104-113.9,104S-25.3,604.5-25.3,547V406.2c0-57.5,51-104,113.9-104.1
		C151.5,302,202.5,348.6,202.5,406.2L202.5,406.2z"/>
	<g>
		<g>
			<g>
				<g>
					<g>
						<defs>
							<path id="SVGID_1_" d="M202.5,406.2V547c0,57.5-51,104-113.9,104S-25.3,604.5-25.3,547V406.2c0-57.5,51-104,113.9-104.1
								C151.5,302,202.5,348.6,202.5,406.2L202.5,406.2z"/>
						</defs>
						<clipPath id="SVGID_2_">
							<use xlink:href="#SVGID_1_"  style="overflow:visible;"/>
						</clipPath>
						<g class="st2">
							<path class="st3" d="M-3.8,302.1c0,0,13,154,179,268.5s-18.7,105.5-18.7,105.5l-250.8-71.8l-4.2-202L-3.8,302.1z"/>
						</g>
					</g>
				</g>
			</g>
		</g>
	</g>
	<path class="st4" d="M180.9,396.8v140.8c0,57.5-51.1,104.1-114.1,104c-12.7,0-25.4-2-37.4-5.8c-34.1-18.9-54.7-52.5-54.7-88.8
		V406.2c0-57.5,51.1-104.1,114-104.1c12.7,0,25.5,2,37.5,5.9C160.2,326.8,180.9,360.4,180.9,396.8L180.9,396.8z"/>
	<g>
		<g>
			<g>
				<g>
					<g>
						<defs>
							<path id="SVGID_3_" d="M180.9,396.8v140.8c0,57.5-51.1,104.1-114.1,104c-12.7,0-25.4-2-37.4-5.8
								c-34.1-18.9-54.7-52.5-54.7-88.8V406.2c0-57.5,51.1-104.1,114-104.1c12.7,0,25.5,2,37.5,5.9
								C160.2,326.8,180.9,360.4,180.9,396.8L180.9,396.8z"/>
						</defs>
						<clipPath id="SVGID_4_">
							<use xlink:href="#SVGID_3_"  style="overflow:visible;"/>
						</clipPath>
						<g class="st5">
							<path class="st6" d="M-3.8,302.1c0,0,13,154,179,268.5s-18.7,105.5-18.7,105.5l-250.8-71.8l-4.2-202L-3.8,302.1z"/>
						</g>
					</g>
				</g>
			</g>
		</g>
	</g>
	<path class="st7" d="M175,272.1h-0.1c-20.1,0.1-36.4,16.4-36.3,36.5c0,9.7,3.8,18.9,10.7,25.7c6.8,6.8,16.1,10.6,25.7,10.6h0.1
		c20.1-0.4,36.1-17,35.8-37.1C210.6,288.3,194.7,272.4,175,272.1L175,272.1z"/>
	<path class="st8" d="M174.3,300.8V325c0.2,51.6-38.2,93.7-85.6,93.8h-0.2c-2.1,0-4.1-0.1-6.2-0.2C38,415.1,2.9,374.8,2.8,325.5
		l-0.1-15.6c-7.5-14.5-11.4-30.6-11.4-46.8c0-51.1,37.2-93,84.7-97.3l0,0c2.1-0.3,4.2-0.5,6.4-0.7l0,0c2.1-0.2,4.4-0.2,6.5-0.2
		c51.3,0.1,92.8,43.8,92.8,97.7C181.7,275.6,179.2,288.6,174.3,300.8z"/>
	<path class="st7" d="M161,300.8V325c0.2,49.3-34.9,89.9-79.4,93.6c-44.4-3.4-79.5-43.8-79.6-93L1.9,310
		c-7.5-14.5-11.4-30.6-11.3-46.9c0-51.1,37.2-93,84.7-97.3l0,0c2.1-0.3,4.2-0.5,6.5-0.7l0,0c48.4,3.3,86.6,45.6,86.6,97.4
		C168.3,275.6,165.8,288.7,161,300.8z"/>
	<path class="st9" d="M88.6,378.1c-7.3,0-14.4-2.7-19.6-7.7c-2.2-2.3-2.1-6.1,0.2-8.3c2.1-2,5.5-2.1,7.7-0.3
		c3.2,2.9,7.5,4.6,11.8,4.6h0.1c4.4,0,8.6-1.6,11.7-4.7c2.3-2.2,6.1-2,8.3,0.3s2,6.1-0.3,8.3c-5.4,5-12.4,7.8-19.7,7.8
		C88.7,378.2,88.6,378.2,88.6,378.1L88.6,378.1z"/>
	<path class="st10" d="M65,323.8c0-5.2-4.2-9.3-9.4-9.3s-9.3,4.2-9.3,9.4c0,5.2,4.2,9.3,9.4,9.3l0,0C60.9,333.1,65,329,65,323.8z"/>
	<path class="st10" d="M131,323.5c0-5.2-4.2-9.3-9.4-9.3s-9.3,4.2-9.3,9.4c0,5.2,4.2,9.3,9.4,9.3l0,0c5.1,0,9.3-4,9.3-9.2
		C131,323.7,131,323.6,131,323.5z"/>
	<path class="st4" d="M167.8,497.7c-0.7,1.1-2.2,3.4-2.9,4.6c-31,43.1-74-18.5-144.7-50.7c-62.5-28.5-51.7-68.8-20.7-111.8
		c0.7-1,1.5-2,2.3-3c-21.7,33.7-18.8,83.7,22.9,108.7C81.6,479.3,135.7,538.1,167.8,497.7z"/>
	<path class="st7" d="M-0.1,272.7L-0.1,272.7c-20.2,0.1-36.4,16.5-36.4,36.5c0,9.7,3.8,18.9,10.7,25.7c6.9,6.9,12.2,10.5,25.7,10.5
		H0c20.1-0.4,36.1-17,35.8-37.1C35.4,288.8,19.5,273-0.1,272.7L-0.1,272.7z"/>
	<path class="st4" d="M-10.8,431.7c0,0,21.1,88.7,62.2,104.7c25.7,10-3.6-4.6,2.6-1.8C54,534.6,25.2,519.6-10.8,431.7z"/>
	<path class="st4" d="M4,531.9c0,0,32.1,69.5,68.3,76.9c22.7,4.6-3.7-3.2,1.9-1.8C74.2,607,48.1,598.7,4,531.9z"/>
	<path class="st1" d="M168.3,412.1c0,0-0.7,75.5-31.1,94.8c-19,12.1,2.1-4.2-2.5-1C134.8,505.9,155.4,489.2,168.3,412.1z"/>
	<path class="st0" d="M133.5,192.7c-0.2,16.2-8.9,31.1-23,39.2c14.4-20.9,9-49.6-11.9-63.9c-14.7-10-33.7-10.7-49.1-1.9
		c14.4-20.9,43-26.2,63.9-11.8C126.3,162.8,133.7,177.3,133.5,192.7L133.5,192.7z"/>
	<path class="st11" d="M136.1,188.9c-0.2,16.2-8.9,31.1-23,39.2c14.4-20.9,9-49.6-11.9-63.9c-14.7-10-33.7-10.7-49.1-1.9
		c14.4-20.9,43-26.2,63.9-11.8C128.7,159.1,136.2,173.6,136.1,188.9L136.1,188.9z"/>
	<path class="st12" d="M56.4,291.8c3.8-0.1,7.7,1,10.9,3.1c1,0.5,1.3,1.7,0.8,2.7c-0.1,0.3-0.3,0.5-0.6,0.7c-1.3,1-3.1,1-4.6,0.2
		c-1.9-1.3-4.2-1.9-6.6-1.9l0,0c-2.3,0-4.7,0.6-6.6,1.9c-1.4,0.9-3.2,0.9-4.6-0.1c-0.9-0.6-1.1-1.8-0.5-2.7c0.2-0.3,0.4-0.5,0.7-0.6
		C48.8,292.8,52.5,291.7,56.4,291.8L56.4,291.8z"/>
	<path class="st12" d="M124.2,291.8c3.8-0.1,7.7,1,10.9,3.1c1,0.5,1.3,1.7,0.8,2.7c-0.1,0.3-0.3,0.5-0.6,0.7c-1.3,1-3.2,1-4.7,0.2
		c-1.9-1.3-4.2-1.9-6.6-1.9l0,0c-2.3,0-4.7,0.6-6.6,1.9c-1.4,0.9-3.2,0.9-4.6-0.1c-0.9-0.6-1.1-1.8-0.5-2.7c0.2-0.3,0.4-0.5,0.7-0.6
		C116.5,292.8,120.4,291.7,124.2,291.8L124.2,291.8z"/>
</g>
</svg>
