<?xml version="1.0" encoding="utf-8"?>
<!-- Generator: Adobe Illustrator 23.1.0, SVG Export Plug-In . SVG Version: 6.00 Build 0)  -->
<svg version="1.1" id="Layer_1" xmlns="http://www.w3.org/2000/svg" xmlns:xlink="http://www.w3.org/1999/xlink" x="0px" y="0px"
	 viewBox="0 0 383 508.7" style="enable-background:new 0 0 383 508.7;" xml:space="preserve">
<style type="text/css">
	.st0{fill:#261306;}
	.st1{fill:#563217;}
	.st2{clip-path:url(#SVGID_2_);}
	.st3{fill:#96603C;}
	.st4{fill:#93592A;}
	.st5{clip-path:url(#SVGID_4_);}
	.st6{fill:#BC8053;}
	.st7{fill:#F0BCA6;}
	.st8{fill:#E6B09A;}
	.st9{fill:#E2A58A;}
	.st10{fill:#868686;}
	.st11{fill:#3A1E0B;}
</style>
<g>
	<title>Baby</title>
	<circle class="st0" cx="186.5" cy="60.3" r="56.5"/>
	<path class="st1" d="M312.1,270.5v136.4c0,55.7-53.4,100.8-119.4,100.8S73.3,462.6,73.3,406.9l0,0V270.5
		c0-55.7,53.4-100.8,119.4-100.8S312.1,214.8,312.1,270.5L312.1,270.5z"/>
	<g>
		<g>
			<defs>
				<path id="SVGID_1_" d="M312.1,270.5v136.4c0,55.7-53.4,100.8-119.4,100.8S73.3,462.6,73.3,406.9l0,0V270.5
					c0-55.7,53.4-100.8,119.4-100.8S312.1,214.8,312.1,270.5L312.1,270.5z"/>
			</defs>
			<clipPath id="SVGID_2_">
				<use xlink:href="#SVGID_1_"  style="overflow:visible;"/>
			</clipPath>
			<g class="st2">
				<path class="st3" d="M96,169.7c0,0,13.6,149.2,187.5,260.1S263.9,532,263.9,532L1.1,462.4l-4.4-195.7L96,169.7z"/>
			</g>
		</g>
	</g>
	<path class="st4" d="M289.4,261.4v136.4c-0.1,55.7-53.6,100.8-119.5,100.8c-13.4,0-26.7-1.9-39.3-5.6
		c-35.6-18.3-57.3-50.9-57.2-86.1V270.5c0-55.7,53.6-100.8,119.5-100.8c13.4,0,26.7,1.9,39.3,5.7
		C267.8,193.7,289.5,226.3,289.4,261.4L289.4,261.4z"/>
	<g>
		<g>
			<defs>
				<path id="SVGID_3_" d="M289.4,261.4v136.4c-0.1,55.7-53.6,100.8-119.5,100.8c-13.4,0-26.7-1.9-39.3-5.6
					c-35.6-18.3-57.3-50.9-57.2-86.1V270.5c0-55.7,53.6-100.8,119.5-100.8c13.4,0,26.7,1.9,39.3,5.7
					C267.8,193.7,289.5,226.3,289.4,261.4L289.4,261.4z"/>
			</defs>
			<clipPath id="SVGID_4_">
				<use xlink:href="#SVGID_3_"  style="overflow:visible;"/>
			</clipPath>
			<g class="st5">
				<path class="st6" d="M96,169.7c0,0,13.6,149.2,187.5,260.1S263.9,532,263.9,532L1.1,462.4l-4.4-195.7L96,169.7z"/>
			</g>
		</g>
	</g>
	<path class="st7" d="M283.3,138.3h-0.2c-21.1,0.1-38.1,17.2-38.1,38.3c0,10.1,4,19.8,11.2,26.9c7.1,7.1,16.8,11.1,26.9,11.1h0.2
		c21.1,0,38.1-17.1,38.1-38.2S304.3,138.4,283.3,138.3L283.3,138.3z"/>
	<path class="st8" d="M282.5,168.3v25.4c0.2,54-40.1,98.1-89.7,98.3h-0.3c-2.2,0-4.3-0.1-6.5-0.2c-46.5-3.6-83.3-45.9-83.5-97.4V178
		c-7.9-15.2-12-32.1-11.9-49.2c0-53.5,39-97.4,88.7-101.9l0,0c2.2-0.3,4.5-0.6,6.7-0.7l0,0c2.2-0.2,4.5-0.2,6.8-0.2
		c53.7,0,97.3,45.8,97.3,102.3C290.3,142,287.7,155.6,282.5,168.3z"/>
	<path class="st7" d="M268.5,168.3v25.4c0.2,51.6-36.6,94.3-83.2,98c-46.5-3.6-83.3-45.9-83.5-97.4V178
		c-7.9-15.2-11.9-32.1-11.9-49.2c0-53.5,39-97.4,88.7-101.9l0,0c2.2-0.3,4.5-0.6,6.7-0.7l0,0c50.7,3.5,90.8,47.9,90.8,102.1
		C276.2,142,273.6,155.6,268.5,168.3z"/>
	<path class="st9" d="M192.7,249.4c-7.6,0-15-2.8-20.6-8c-2.5-2.3-2.7-6.2-0.4-8.7s6.2-2.7,8.7-0.4c3.4,3.1,7.8,4.8,12.3,4.8h0.1
		c4.6,0,9-1.7,12.3-4.8c2.4-2.4,6.3-2.4,8.7,0s2.4,6.3,0,8.7c-0.1,0.1-0.2,0.2-0.3,0.3c-5.6,5.2-13,8.1-20.7,8.1
		C192.8,249.4,192.7,249.4,192.7,249.4L192.7,249.4z"/>
	<path class="st10" d="M168,192.4c0-5.4-4.4-9.8-9.8-9.8s-9.8,4.4-9.8,9.8c0,5.4,4.4,9.8,9.8,9.8S168,197.8,168,192.4z"/>
	<path class="st10" d="M237.2,192.2c0-5.4-4.4-9.8-9.8-9.8c-5.4,0-9.8,4.4-9.8,9.8c0,5.4,4.4,9.8,9.8,9.8l0,0c5.3,0,9.7-4.3,9.8-9.6
		C237.2,192.4,237.2,192.3,237.2,192.2z"/>
	<path class="st4" d="M275.7,359.2c-0.7,1-2.3,3.4-3.1,4.4c-32.4,41.8-77.5-17.9-151.6-49.1c-65.5-27.6-54.2-66.6-21.7-108.3
		c0.8-1,1.6-2,2.4-3c-22.7,32.7-19.6,81.1,24,105.2C185.4,341.4,242.1,398.3,275.7,359.2z"/>
	<path class="st7" d="M99.7,139h-0.2c-21,0.1-38,17.2-38,38.3c0,10.1,4,19.8,11.2,26.9c7.3,7.2,12.8,11.1,26.9,11.1h0.2
		c21.1,0,38.1-17.1,38.1-38.2C137.9,156.1,120.8,139,99.7,139L99.7,139L99.7,139z"/>
	<path class="st4" d="M88.4,295.2c0,0,22.2,86,65.2,101.4c26.9,9.7-3.8-4.4,2.8-1.7C156.5,394.9,126.3,380.4,88.4,295.2z"/>
	<path class="st4" d="M104,392.4c0,0,33.7,67.3,71.6,74.4c23.8,4.5-3.9-3.1,2-1.8C177.6,465,150.3,457.1,104,392.4z"/>
	<path class="st1" d="M276.2,276.3c0,0-0.7,73.1-32.5,91.9c-19.9,11.8,2.2-4.1-2.6-0.9C241,367.2,262.7,351,276.2,276.3z"/>
	<path class="st0" d="M242,62.9c-0.3,19.9-11,38.2-28.2,48.1c17.7-25.7,11.1-60.9-14.7-78.6c-18-12.3-41.4-13.2-60.3-2.3
		c17.8-25.7,53-32.2,78.7-14.6C233.1,26.2,242.3,44,242,62.9z"/>
	<path class="st11" d="M245,58.3c-0.3,19.9-11,38.2-28.2,48.1c17.7-25.7,11.1-60.9-14.6-78.6c-18-12.3-41.4-13.2-60.3-2.3
		c17.6-25.7,52.8-32.2,78.6-14.6C236.1,21.6,245.3,39.4,245,58.3z"/>
	<path class="st11" d="M156.8,154.6c4.8-0.1,9.5,1.3,13.5,3.9c1.2,0.6,1.7,2.2,1,3.4c-0.2,0.3-0.4,0.6-0.8,0.8
		c-1.7,1.2-3.9,1.3-5.7,0.2c-2.4-1.6-5.2-2.4-8.1-2.3l0,0c-2.9,0-5.7,0.8-8.1,2.3c-1.7,1.1-4,1.1-5.7-0.2c-1.1-0.7-1.4-2.3-0.7-3.4
		c0.2-0.3,0.5-0.6,0.9-0.8C147.2,156,152,154.6,156.8,154.6L156.8,154.6z"/>
	<path class="st11" d="M230.3,154.4c4.8-0.1,9.5,1.3,13.5,3.9c1.2,0.7,1.6,2.2,1,3.4c-0.2,0.3-0.4,0.6-0.7,0.8
		c-1.7,1.2-3.9,1.3-5.7,0.2c-2.4-1.6-5.2-2.4-8.1-2.3h-0.1c-2.9,0-5.7,0.8-8.1,2.3c-1.7,1.1-4,1.1-5.7-0.2c-1.1-0.7-1.4-2.3-0.7-3.4
		c0.2-0.3,0.5-0.6,0.9-0.8C220.7,155.7,225.4,154.3,230.3,154.4L230.3,154.4z"/>
</g>
</svg>
