<?xml version="1.0" encoding="utf-8"?>
<!-- Generator: Adobe Illustrator 19.0.0, SVG Export Plug-In . SVG Version: 6.00 Build 0)  -->
<svg version="1.1" id="Layer_1" xmlns="http://www.w3.org/2000/svg" xmlns:xlink="http://www.w3.org/1999/xlink" x="0px" y="0px"
	 viewBox="-114 142.3 383 508.7" style="enable-background:new -114 142.3 383 508.7;" xml:space="preserve">
<style type="text/css">
	.st0{fill:#261306;}
	.st1{fill:#563217;}
	.st2{clip-path:url(#SVGID_2_);}
	.st3{fill:#96603C;}
	.st4{fill:#93592A;}
	.st5{clip-path:url(#SVGID_4_);}
	.st6{fill:#BC8053;}
	.st7{fill:#C6A89C;}
	.st8{fill:#B38B7B;}
	.st9{fill:#897F79;}
	.st10{fill:#868686;}
	.st11{fill:#3A1E0B;}
</style>
<g>
	<title>Baby</title>
	<circle class="st0" cx="72.5" cy="202.6" r="56.5"/>
	<path class="st1" d="M198.1,412.8v136.4c0,55.7-53.4,100.8-119.4,100.8S-40.7,604.9-40.7,549.2l0,0V412.8
		c0-55.7,53.4-100.8,119.4-100.8S198.1,357.1,198.1,412.8L198.1,412.8z"/>
	<g>
		<g>
			<g>
				<defs>
					<path id="SVGID_1_" d="M198.1,412.8v136.4c0,55.7-53.4,100.8-119.4,100.8S-40.7,604.9-40.7,549.2l0,0V412.8
						c0-55.7,53.4-100.8,119.4-100.8S198.1,357.1,198.1,412.8L198.1,412.8z"/>
				</defs>
				<clipPath id="SVGID_2_">
					<use xlink:href="#SVGID_1_"  style="overflow:visible;"/>
				</clipPath>
				<g class="st2">
					<path class="st3" d="M-18,312c0,0,13.6,149.2,187.5,260.1s-19.6,102.2-19.6,102.2l-262.8-69.6l-4.4-195.7L-18,312z"/>
				</g>
			</g>
		</g>
	</g>
	<path class="st4" d="M175.4,403.7v136.4c-0.1,55.7-53.6,100.8-119.5,100.8c-13.4,0-26.7-1.9-39.3-5.6
		C-19,617-40.7,584.4-40.6,549.2V412.8C-40.6,357.1,13,312,78.9,312c13.4,0,26.7,1.9,39.3,5.7C153.8,336,175.5,368.6,175.4,403.7
		L175.4,403.7z"/>
	<g>
		<g>
			<g>
				<defs>
					<path id="SVGID_3_" d="M175.4,403.7v136.4c-0.1,55.7-53.6,100.8-119.5,100.8c-13.4,0-26.7-1.9-39.3-5.6
						C-19,617-40.7,584.4-40.6,549.2V412.8C-40.6,357.1,13,312,78.9,312c13.4,0,26.7,1.9,39.3,5.7
						C153.8,336,175.5,368.6,175.4,403.7L175.4,403.7z"/>
				</defs>
				<clipPath id="SVGID_4_">
					<use xlink:href="#SVGID_3_"  style="overflow:visible;"/>
				</clipPath>
				<g class="st5">
					<path class="st6" d="M-18,312c0,0,13.6,149.2,187.5,260.1s-19.6,102.2-19.6,102.2l-262.8-69.6l-4.4-195.7L-18,312z"/>
				</g>
			</g>
		</g>
	</g>
	<path class="st7" d="M169.3,280.6h-0.2c-21.1,0.1-38.1,17.2-38.1,38.3c0,10.1,4,19.8,11.2,26.9c7.1,7.1,16.8,11.1,26.9,11.1h0.2
		c21.1,0,38.1-17.1,38.1-38.2C207.4,297.6,190.3,280.7,169.3,280.6L169.3,280.6z"/>
	<path class="st8" d="M168.5,310.6V336c0.2,54-40.1,98.1-89.7,98.3h-0.3c-2.2,0-4.3-0.1-6.5-0.2c-46.5-3.6-83.3-45.9-83.5-97.4
		v-16.4c-7.9-15.2-12-32.1-11.9-49.2c0-53.5,39-97.4,88.7-101.9l0,0c2.2-0.3,4.5-0.6,6.7-0.7l0,0c2.2-0.2,4.5-0.2,6.8-0.2
		c53.7,0,97.3,45.8,97.3,102.3C176.3,284.3,173.7,297.9,168.5,310.6z"/>
	<path class="st7" d="M154.5,310.6V336c0.2,51.6-36.6,94.3-83.2,98c-46.5-3.6-83.3-45.9-83.5-97.4v-16.3
		c-7.9-15.2-11.9-32.1-11.9-49.2c0-53.5,39-97.4,88.7-101.9l0,0c2.2-0.3,4.5-0.6,6.7-0.7l0,0c50.7,3.5,90.8,47.9,90.8,102.1
		C162.2,284.3,159.6,297.9,154.5,310.6z"/>
	<path class="st9" d="M78.7,391.7c-7.6,0-15-2.8-20.6-8c-2.5-2.3-2.7-6.2-0.4-8.7s6.2-2.7,8.7-0.4c3.4,3.1,7.8,4.8,12.3,4.8h0.1
		c4.6,0,9-1.7,12.3-4.8c2.4-2.4,6.3-2.4,8.7,0c2.4,2.4,2.4,6.3,0,8.7c-0.1,0.1-0.2,0.2-0.3,0.3c-5.6,5.2-13,8.1-20.7,8.1
		C78.8,391.7,78.7,391.7,78.7,391.7L78.7,391.7z"/>
	<path class="st10" d="M54,334.7c0-5.4-4.4-9.8-9.8-9.8s-9.8,4.4-9.8,9.8s4.4,9.8,9.8,9.8S54,340.1,54,334.7z"/>
	<path class="st10" d="M123.2,334.5c0-5.4-4.4-9.8-9.8-9.8c-5.4,0-9.8,4.4-9.8,9.8c0,5.4,4.4,9.8,9.8,9.8l0,0c5.3,0,9.7-4.3,9.8-9.6
		C123.2,334.7,123.2,334.6,123.2,334.5z"/>
	<path class="st4" d="M161.7,501.5c-0.7,1-2.3,3.4-3.1,4.4C126.2,547.7,81.1,488,7,456.8c-65.5-27.6-54.2-66.6-21.7-108.3
		c0.8-1,1.6-2,2.4-3c-22.7,32.7-19.6,81.1,24,105.2C71.4,483.7,128.1,540.6,161.7,501.5z"/>
	<path class="st7" d="M-14.3,281.3h-0.2c-21,0.1-38,17.2-38,38.3c0,10.1,4,19.8,11.2,26.9c7.3,7.2,12.8,11.1,26.9,11.1h0.2
		c21.1,0,38.1-17.1,38.1-38.2C23.9,298.4,6.8,281.3-14.3,281.3L-14.3,281.3L-14.3,281.3z"/>
	<path class="st4" d="M-25.6,437.5c0,0,22.2,86,65.2,101.4c26.9,9.7-3.8-4.4,2.8-1.7C42.5,537.2,12.3,522.7-25.6,437.5z"/>
	<path class="st4" d="M-10,534.7c0,0,33.7,67.3,71.6,74.4c23.8,4.5-3.9-3.1,2-1.8C63.6,607.3,36.3,599.4-10,534.7z"/>
	<path class="st1" d="M162.2,418.6c0,0-0.7,73.1-32.5,91.9c-19.9,11.8,2.2-4.1-2.6-0.9C127,509.5,148.7,493.3,162.2,418.6z"/>
	<path class="st0" d="M128,205.2c-0.3,19.9-11,38.2-28.2,48.1c17.7-25.7,11.1-60.9-14.7-78.6c-18-12.3-41.4-13.2-60.3-2.3
		c17.8-25.7,53-32.2,78.7-14.6C119.1,168.5,128.3,186.3,128,205.2z"/>
	<path class="st11" d="M131,200.6c-0.3,19.9-11,38.2-28.2,48.1c17.7-25.7,11.1-60.9-14.6-78.6c-18-12.3-41.4-13.2-60.3-2.3
		c17.6-25.7,52.8-32.2,78.6-14.6C122.1,163.9,131.3,181.7,131,200.6z"/>
	<path class="st11" d="M42.8,296.9c4.8-0.1,9.5,1.3,13.5,3.9c1.2,0.6,1.7,2.2,1,3.4c-0.2,0.3-0.4,0.6-0.8,0.8
		c-1.7,1.2-3.9,1.3-5.7,0.2c-2.4-1.6-5.2-2.4-8.1-2.3l0,0c-2.9,0-5.7,0.8-8.1,2.3c-1.7,1.1-4,1.1-5.7-0.2c-1.1-0.7-1.4-2.3-0.7-3.4
		c0.2-0.3,0.5-0.6,0.9-0.8C33.2,298.3,38,296.9,42.8,296.9L42.8,296.9z"/>
	<path class="st11" d="M116.3,296.7c4.8-0.1,9.5,1.3,13.5,3.9c1.2,0.7,1.6,2.2,1,3.4c-0.2,0.3-0.4,0.6-0.7,0.8
		c-1.7,1.2-3.9,1.3-5.7,0.2c-2.4-1.6-5.2-2.4-8.1-2.3h-0.1c-2.9,0-5.7,0.8-8.1,2.3c-1.7,1.1-4,1.1-5.7-0.2c-1.1-0.7-1.4-2.3-0.7-3.4
		c0.2-0.3,0.5-0.6,0.9-0.8C106.7,298,111.4,296.6,116.3,296.7L116.3,296.7z"/>
</g>
</svg>
