<?xml version="1.0" encoding="utf-8"?>
<!-- Generator: Adobe Illustrator 23.1.0, SVG Export Plug-In . SVG Version: 6.00 Build 0)  -->
<svg version="1.1" id="Layer_1" xmlns="http://www.w3.org/2000/svg" xmlns:xlink="http://www.w3.org/1999/xlink" x="0px" y="0px"
	 viewBox="0 0 383 508.7" style="enable-background:new 0 0 383 508.7;" xml:space="preserve">
<style type="text/css">
	.st0{fill:#161616;}
	.st1{fill:#52738E;}
	.st2{clip-path:url(#SVGID_2_);}
	.st3{fill:#6593A0;}
	.st4{fill:#6896AA;}
	.st5{clip-path:url(#SVGID_4_);}
	.st6{fill:#9BCCDD;}
	.st7{fill:#F0BCA6;}
	.st8{fill:#E6B09A;}
	.st9{fill:#E2A58A;}
	.st10{fill:#868686;}
	.st11{fill:#232323;}
</style>
<g>
	<title>baby</title>
	<ellipse class="st0" cx="186.5" cy="61.2" rx="58.2" ry="58.6"/>
	<path class="st1" d="M308.1,268.5V406c0.6,56.2-50.6,102.2-114.4,102.7c-63.8,0.5-116-44.5-116.6-100.7c0-0.7,0-1.3,0-2V268.5
		c-0.6-56.2,50.6-102.1,114.4-102.7c63.8-0.6,116,44.5,116.6,100.7C308.1,267.2,308.1,267.9,308.1,268.5z"/>
	<g>
		<g>
			<g>
				<g>
					<defs>
						<path id="SVGID_1_" d="M308.1,268.5V406c0.6,56.2-50.6,102.2-114.4,102.7c-63.8,0.5-116-44.5-116.6-100.7c0-0.7,0-1.3,0-2
							V268.5c-0.6-56.2,50.6-102.1,114.4-102.7c63.8-0.6,116,44.5,116.6,100.7C308.1,267.2,308.1,267.9,308.1,268.5z"/>
					</defs>
					<clipPath id="SVGID_2_">
						<use xlink:href="#SVGID_1_"  style="overflow:visible;"/>
					</clipPath>
					<g class="st2">
						<path class="st3" d="M99.1,166.8c0,0,13.1,150.5,181.3,262.4s-19,103.1-19,103.1L7.4,462.2L3.1,264.8L99.1,166.8z"/>
					</g>
				</g>
			</g>
		</g>
	</g>
	<path class="st4" d="M286.2,259.3V397c0,56.2-51.8,101.7-115.6,101.7c-13,0-25.8-1.9-38-5.7c-34.4-18.5-55.4-51.3-55.4-86.8V268.5
		c0-56.2,51.8-101.7,115.6-101.7c13,0,25.8,1.9,38.1,5.7C265.2,191,286.1,223.9,286.2,259.3z"/>
	<g>
		<g>
			<g>
				<g>
					<defs>
						<path id="SVGID_3_" d="M286.2,259.3V397c0,56.2-51.8,101.7-115.6,101.7c-13,0-25.8-1.9-38-5.7c-34.4-18.5-55.4-51.3-55.4-86.8
							V268.5c0-56.2,51.8-101.7,115.6-101.7c13,0,25.8,1.9,38.1,5.7C265.2,191,286.1,223.9,286.2,259.3z"/>
					</defs>
					<clipPath id="SVGID_4_">
						<use xlink:href="#SVGID_3_"  style="overflow:visible;"/>
					</clipPath>
					<g class="st5">
						<path class="st6" d="M99.1,166.8c0,0,13.1,150.5,181.3,262.4s-19,103.1-19,103.1L7.4,462.2L3.1,264.8L99.1,166.8z"/>
					</g>
				</g>
			</g>
		</g>
	</g>
	<path class="st7" d="M280.2,136.4L280.2,136.4c-20.5,0.1-36.9,16.8-36.9,37.3c0,9.8,3.9,19.3,10.9,26.2
		c6.9,6.9,16.3,10.9,25.9,10.9h0.2c20.4,0,36.9-16.7,36.9-37.2C317.2,153,300.6,136.4,280.2,136.4L280.2,136.4z"/>
	<path class="st8" d="M279.5,165.6v24.7c0.2,52.5-38.7,95.5-86.7,95.6h-0.3c-2.1,0-4.2-0.1-6.3-0.2c-45-3.5-80.5-44.6-80.7-94.8V175
		c-7.6-14.8-11.6-31.2-11.6-47.8c0-52,37.7-94.8,85.8-99.3l0,0c2.1-0.3,4.3-0.5,6.5-0.7l0,0c2.2-0.2,4.4-0.2,6.6-0.2
		c51.9,0,94,44.6,94,99.7C287,140,284.4,153.2,279.5,165.6z"/>
	<path class="st7" d="M265.9,165.6l0.1,24.7c0.2,50.2-35.4,91.6-80.4,95.4c-45-3.5-80.5-44.6-80.7-94.8V175
		c-7.6-14.8-11.6-31.2-11.6-47.8c0-52,37.7-94.8,85.8-99.3l0,0c2.1-0.3,4.3-0.5,6.5-0.7c3.3-0.2,0,0,0,0c49,3.4,87.8,46.6,87.8,99.4
		C273.3,140,270.8,153.2,265.9,165.6z"/>
	<path class="st9" d="M192.6,244.6c-7.4,0-14.6-2.8-20-7.8c-2.4-2.2-2.6-6-0.4-8.4s6-2.6,8.4-0.4c3.3,3,7.5,4.6,12,4.6h0.1
		c4.4,0,8.7-1.7,12-4.7c2.4-2.2,6.2-2.1,8.4,0.3c2.2,2.4,2.1,6.2-0.3,8.4C207.2,241.7,200.1,244.5,192.6,244.6L192.6,244.6z"/>
	<path class="st10" d="M168.7,189.1c0-5.2-4.3-9.5-9.5-9.5s-9.5,4.3-9.5,9.5s4.3,9.5,9.5,9.5l0,0
		C164.5,198.7,168.7,194.3,168.7,189.1z"/>
	<path class="st10" d="M235.6,188.9c0-5.2-4.3-9.5-9.5-9.5s-9.5,4.3-9.5,9.5s4.3,9.5,9.5,9.5l0,0c5.2,0,9.4-4.1,9.5-9.3
		C235.6,189,235.6,188.9,235.6,188.9z"/>
	<path class="st4" d="M272.8,358c-0.7,1-2.3,3.4-3,4.4c-31.3,42.1-75-18.1-146.5-49.5c-63.3-27.8-52.4-67.1-21.1-109.3
		c0.8-1,1.6-2,2.4-3c-22,33-19.1,81.8,23.3,106.2C185.6,340.1,240.3,397.5,272.8,358z"/>
	<path class="st7" d="M102.8,137.1h-0.2c-20.4,0.1-36.9,16.8-36.8,37.3c0,9.8,3.9,19.3,10.9,26.2c7,7,12.4,10.7,26,10.7h0.2
		c20.4,0,36.9-16.7,36.9-37.2S123.1,137.1,102.8,137.1z"/>
	<path class="st4" d="M91.8,293.4c0,0,21.5,86.7,63.1,102.4c26,9.7-3.7-4.4,2.7-1.7C157.6,394.1,128.3,379.4,91.8,293.4z"/>
	<path class="st4" d="M106.9,391.5c0,0,32.5,67.9,69.3,75.1c23,4.5-3.8-3.1,1.9-1.8C178,464.8,151.6,456.8,106.9,391.5z"/>
	<path class="st1" d="M273.3,274.4c0,0-0.7,73.7-31.5,92.7c-19.3,11.9,2.1-4.2-2.5-1C239.4,366,260.3,349.8,273.3,274.4z"/>
	<path class="st0" d="M243.4,38c0,30.4-27.9,53.2-56.2,59.7c10-12.3,15.4-27.6,15.2-43.5c0-35.2-3.1-34.1-34.3-34.1
		c-8,0-20,3.3-26.8,6.7c11.6-14.8,28.3-25,49.8-24.3C226,4,243.4,2.7,243.4,38z"/>
	<path class="st11" d="M155.3,146.5c4.4-0.1,8.7,1.2,12.3,3.6c1.1,0.6,1.5,2,0.9,3.1c-0.2,0.3-0.4,0.6-0.7,0.8
		c-1.5,1.1-3.6,1.2-5.2,0.2c-2.2-1.4-4.8-2.2-7.4-2.1l0,0c-2.6,0-5.2,0.7-7.4,2.2c-1.6,1-3.7,1-5.2-0.1c-1-0.6-1.3-2-0.7-3
		c0.2-0.3,0.5-0.6,0.9-0.8C146.5,147.8,150.9,146.6,155.3,146.5L155.3,146.5z"/>
	<path class="st11" d="M226.1,145.4c4.4-0.1,8.6,1.2,12.3,3.6c1.1,0.6,1.5,2,0.9,3.1c-0.2,0.3-0.4,0.6-0.7,0.8
		c-1.5,1.1-3.6,1.2-5.2,0.2c-2.2-1.4-4.8-2.2-7.4-2.1l0,0c-2.6,0-5.2,0.7-7.4,2.1c-1.6,1-3.7,1-5.2-0.1c-1-0.6-1.3-2-0.7-3
		c0.2-0.3,0.5-0.6,0.9-0.8C217.4,146.7,221.7,145.4,226.1,145.4L226.1,145.4z"/>
	<path class="st11" d="M245.2,35.4c0,30.4-27.9,53.2-56.2,59.8c10-12.3,15.3-27.6,15.2-43.5c0-35.2-3.1-34.1-34.3-34.1
		c-8,0-20,3.3-26.8,6.7c11.5-14.8,28.2-25,49.7-24.3C227.7,1.2,245.2,0.1,245.2,35.4z"/>
</g>
</svg>
