<?xml version="1.0" encoding="utf-8"?>
<!-- Generator: Adobe Illustrator 23.1.0, SVG Export Plug-In . SVG Version: 6.00 Build 0)  -->
<svg version="1.1" id="Layer_1" xmlns="http://www.w3.org/2000/svg" xmlns:xlink="http://www.w3.org/1999/xlink" x="0px" y="0px"
	 viewBox="0 0 383 508.7" style="enable-background:new 0 0 383 508.7;" xml:space="preserve">
<style type="text/css">
	.st0{fill:#261307;}
	.st1{fill:#8C5E2D;}
	.st2{clip-path:url(#SVGID_2_);}
	.st3{fill:#A57E46;}
	.st4{fill:#AA833D;}
	.st5{clip-path:url(#SVGID_4_);}
	.st6{fill:#E0B46E;}
	.st7{fill:#F0BCA6;}
	.st8{fill:#E6B09A;}
	.st9{fill:#E2A58A;}
	.st10{fill:#868686;}
	.st11{fill:#3A1E0B;}
</style>
<title>baby</title>
<circle class="st0" cx="187.9" cy="65.3" r="62.5"/>
<path class="st1" d="M305.7,267.2v138.9c0,56.7-50.6,102.6-113.1,102.6s-113.1-46-113.1-102.6V267.2c0-56.7,50.6-102.6,113.1-102.6
	S305.7,210.6,305.7,267.2z"/>
<g>
	<g>
		<defs>
			<path id="SVGID_1_" d="M305.7,267.2v138.9c0,56.7-50.6,102.6-113.1,102.6s-113.1-46-113.1-102.6V267.2
				c0-56.7,50.6-102.6,113.1-102.6S305.7,210.6,305.7,267.2z"/>
		</defs>
		<clipPath id="SVGID_2_">
			<use xlink:href="#SVGID_1_"  style="overflow:visible;"/>
		</clipPath>
		<g class="st2">
			<path class="st3" d="M100.9,164.6c0,0,12.8,152,177.6,264.9s-18.6,104-18.6,104L11.1,462.7L6.8,263.4L100.9,164.6z"/>
		</g>
	</g>
</g>
<path class="st4" d="M284.2,258v138.9c0,56.7-50.7,102.7-113.3,102.6c-12.7,0-25.2-2-37.2-5.7c-33.7-18.6-54.3-51.9-54.2-87.7V267.2
	c0-56.7,50.7-102.7,113.2-102.6c12.7,0,25.4,2,37.4,5.8C263.8,189,284.2,222.2,284.2,258L284.2,258z"/>
<g>
	<g>
		<defs>
			<path id="SVGID_3_" d="M284.2,258v138.9c0,56.7-50.7,102.7-113.3,102.6c-12.7,0-25.2-2-37.2-5.7c-33.7-18.6-54.3-51.9-54.2-87.7
				V267.2c0-56.7,50.7-102.7,113.2-102.6c12.7,0,25.4,2,37.4,5.8C263.8,189,284.2,222.2,284.2,258L284.2,258z"/>
		</defs>
		<clipPath id="SVGID_4_">
			<use xlink:href="#SVGID_3_"  style="overflow:visible;"/>
		</clipPath>
		<g class="st5">
			<path class="st6" d="M100.9,164.6c0,0,12.8,152,177.6,264.9s-18.6,104-18.6,104L11.1,462.7L6.8,263.4L100.9,164.6z"/>
		</g>
	</g>
</g>
<path class="st7" d="M278.4,134.9h-0.1c-19.9,0.1-36.2,16.3-36.1,36.4c0,9.6,3.8,18.8,10.6,25.5c6.8,6.7,15.9,10.5,25.5,10.5h0.1
	c19.9,0,36.2-16.2,36.2-36.2C314.6,151,298.4,134.9,278.4,134.9L278.4,134.9z"/>
<path class="st8" d="M277.7,163.3v24.1c0.2,51.1-38,93-84.9,93.1h-0.3c-2.1,0-4.1-0.1-6.2-0.2c-44.1-3.4-78.9-43.5-79-92.3
	l-0.1-15.4c-7.4-14.4-11.4-30.4-11.4-46.6c0-50.7,37-92.3,84.1-96.6l0,0c2.1-0.3,4.2-0.5,6.4-0.7c3.2-0.2,0,0,0,0
	c2.2-0.2,4.3-0.2,6.5-0.2c50.9,0,92.2,43.4,92.2,96.9C285.1,138.3,282.6,151.2,277.7,163.3z"/>
<path class="st7" d="M264.4,163.3v24.1c0.2,49-34.7,89.3-78.8,92.9c-43.9-3.4-78.8-43.5-79-92.4v-15.4
	c-7.4-14.4-11.4-30.4-11.3-46.6c0-50.7,37-92.3,84.1-96.6l0,0c2.1-0.3,4.2-0.5,6.4-0.7c3.2-0.2,0,0,0,0c48,3.3,86.1,45.4,86.1,96.7
	C271.7,138.4,269.2,151.2,264.4,163.3z"/>
<path class="st9" d="M192.6,240.1c-7.2,0-14.3-2.7-19.5-7.6c-2.4-2.2-2.6-5.9-0.4-8.3c2.2-2.4,5.9-2.6,8.3-0.4
	c3.2,2.9,7.3,4.5,11.7,4.5h0.1c4.3,0,8.5-1.7,11.7-4.5c2.3-2.3,5.9-2.3,8.3,0c2.3,2.3,2.3,5.9,0,8.3c-0.1,0.1-0.2,0.2-0.3,0.3
	c-5.4,5-12.3,7.7-19.6,7.6v0.1C192.7,240.2,192.6,240.2,192.6,240.1z"/>
<path class="st10" d="M169.1,186.1c0-5.2-4.2-9.3-9.3-9.2c-5.2,0-9.3,4.2-9.2,9.3c0,5.2,4.2,9.3,9.3,9.2
	C165.1,195.4,169.2,191.3,169.1,186.1z"/>
<path class="st10" d="M234.7,185.9c0-5.2-4.2-9.3-9.3-9.3c-5.2,0-9.3,4.2-9.3,9.3c0,5.2,4.2,9.3,9.3,9.3l0,0c5.1,0,9.2-4,9.3-9.1
	C234.7,186.1,234.7,186,234.7,185.9z"/>
<path class="st4" d="M271.3,357.6c-0.7,1-2.2,3.4-3,4.4c-30.7,42.6-73.5-18.3-143.6-50C62.6,284,73.4,244.3,104,201.7
	c0.7-1,1.5-2.1,2.3-3c-21.5,33.2-18.6,82.6,22.7,107.1C185.8,339.4,239.4,397.4,271.3,357.6z"/>
<path class="st7" d="M104.6,135.5h-0.1c-20,0.1-36.2,16.3-36.2,36.3c0,9.6,3.8,18.8,10.6,25.5c6.9,6.8,12.1,10.5,25.5,10.5h0.1
	c19.9,0,36.2-16.2,36.2-36.2C140.7,151.6,124.5,135.5,104.6,135.5L104.6,135.5z"/>
<path class="st4" d="M93.8,292.4c0,0,21.1,87.5,61.8,103.3c25.5,9.8-3.6-4.4,2.7-1.8C158.3,393.9,129.7,379.1,93.8,292.4z"/>
<path class="st4" d="M108.6,391.3c0,0,31.9,68.6,67.8,75.8c22.5,4.5-3.7-3.2,1.9-1.8C178.3,465.4,152.4,457.2,108.6,391.3z"/>
<path class="st1" d="M271.7,273.1c0,0-0.7,74.4-30.9,93.6c-18.9,12,2.1-4.2-2.5-0.9C238.4,365.7,258.9,349.2,271.7,273.1z"/>
<path class="st11" d="M158.6,141.4c4.6-0.1,9.3,1.2,13.2,3.8c1.1,0.6,1.7,2.1,1,3.3c-0.2,0.3-0.4,0.6-0.7,0.8
	c-1.7,1.2-3.8,1.2-5.6,0.2c-2.4-1.5-5.1-2.3-8-2.3h-0.1c-2.8,0-5.6,0.7-8,2.3c-1.7,1.1-3.9,1-5.6-0.1c-1.1-0.7-1.4-2.3-0.6-3.3
	c0.2-0.3,0.5-0.6,0.8-0.8C149.2,142.6,153.8,141.3,158.6,141.4L158.6,141.4z"/>
<path class="st11" d="M226.6,139.4c4.6-0.1,9.3,1.2,13.2,3.9c1.1,0.6,1.7,2.1,1,3.3c-0.2,0.3-0.4,0.6-0.7,0.8
	c-1.7,1.2-3.8,1.2-5.6,0.2c-2.4-1.5-5.1-2.4-8-2.3l0,0c-2.8,0-5.6,0.7-8,2.3c-1.7,1.1-3.9,1-5.6-0.1c-1.1-0.7-1.4-2.3-0.6-3.3
	c0.2-0.3,0.5-0.6,0.8-0.8C217.3,140.8,221.9,139.4,226.6,139.4L226.6,139.4z"/>
<path class="st0" d="M249.1,40.5c0,32.4-30.1,56.9-60.4,63.7c10.6-13.1,16.4-29.5,16.3-46.4c0-37.6-3.4-36.3-36.9-36.3
	c-8.6,0-21.5,3.5-28.9,7.2c12.5-15.8,30.5-26.8,53.5-26C230.4,4.2,249.1,2.9,249.1,40.5z"/>
<path class="st11" d="M251,37.7c0,32.4-30.1,56.9-60.4,63.7c10.6-13.1,16.4-29.5,16.3-46.4c0-37.6-3.3-36.3-36.9-36.3
	c-8.6,0-21.5,3.5-28.9,7.2c12.5-15.8,30.5-26.8,53.6-26C232.3,1.4,251,0.1,251,37.7z"/>
</svg>
