<?xml version="1.0" encoding="utf-8"?>
<!-- Generator: Adobe Illustrator 19.0.0, SVG Export Plug-In . SVG Version: 6.00 Build 0)  -->
<svg version="1.1" id="Layer_1" xmlns="http://www.w3.org/2000/svg" xmlns:xlink="http://www.w3.org/1999/xlink" x="0px" y="0px"
	 viewBox="-114 142.3 383 508.7" style="enable-background:new -114 142.3 383 508.7;" xml:space="preserve">
<style type="text/css">
	.st0{fill:#261307;}
	.st1{fill:#8C5E2D;}
	.st2{clip-path:url(#SVGID_2_);}
	.st3{fill:#A57E46;}
	.st4{fill:#AA833D;}
	.st5{clip-path:url(#SVGID_4_);}
	.st6{fill:#E0B46E;}
	.st7{fill:#C6A89C;}
	.st8{fill:#B38B7B;}
	.st9{fill:#897F79;}
	.st10{fill:#868686;}
	.st11{fill:#3A1E0B;}
</style>
<title>baby</title>
<circle class="st0" cx="73.9" cy="207.6" r="62.5"/>
<path class="st1" d="M191.7,409.5v138.9c0,56.7-50.6,102.6-113.1,102.6S-34.5,605-34.5,548.4V409.5c0-56.7,50.6-102.6,113.1-102.6
	S191.7,352.9,191.7,409.5z"/>
<g>
	<g>
		<g>
			<defs>
				<path id="SVGID_1_" d="M191.7,409.5v138.9c0,56.7-50.6,102.6-113.1,102.6S-34.5,605-34.5,548.4V409.5
					c0-56.7,50.6-102.6,113.1-102.6S191.7,352.9,191.7,409.5z"/>
			</defs>
			<clipPath id="SVGID_2_">
				<use xlink:href="#SVGID_1_"  style="overflow:visible;"/>
			</clipPath>
			<g class="st2">
				<path class="st3" d="M-13.1,306.9c0,0,12.8,152,177.6,264.9s-18.6,104-18.6,104L-102.9,605l-4.3-199.3L-13.1,306.9z"/>
			</g>
		</g>
	</g>
</g>
<path class="st4" d="M170.2,400.3v138.9c0,56.7-50.7,102.7-113.3,102.6c-12.7,0-25.2-2-37.2-5.7c-33.7-18.6-54.3-51.9-54.2-87.7
	V409.5c0-56.7,50.7-102.7,113.2-102.6c12.7,0,25.4,2,37.4,5.8C149.8,331.3,170.2,364.5,170.2,400.3L170.2,400.3z"/>
<g>
	<g>
		<g>
			<defs>
				<path id="SVGID_3_" d="M170.2,400.3v138.9c0,56.7-50.7,102.7-113.3,102.6c-12.7,0-25.2-2-37.2-5.7
					c-33.7-18.6-54.3-51.9-54.2-87.7V409.5c0-56.7,50.7-102.7,113.2-102.6c12.7,0,25.4,2,37.4,5.8
					C149.8,331.3,170.2,364.5,170.2,400.3L170.2,400.3z"/>
			</defs>
			<clipPath id="SVGID_4_">
				<use xlink:href="#SVGID_3_"  style="overflow:visible;"/>
			</clipPath>
			<g class="st5">
				<path class="st6" d="M-13.1,306.9c0,0,12.8,152,177.6,264.9s-18.6,104-18.6,104L-102.9,605l-4.3-199.3L-13.1,306.9z"/>
			</g>
		</g>
	</g>
</g>
<path class="st7" d="M164.4,277.2h-0.1c-19.9,0.1-36.2,16.3-36.1,36.4c0,9.6,3.8,18.8,10.6,25.5c6.8,6.7,15.9,10.5,25.5,10.5h0.1
	c19.9,0,36.2-16.2,36.2-36.2C200.6,293.3,184.4,277.2,164.4,277.2L164.4,277.2z"/>
<path class="st8" d="M163.7,305.6v24.1c0.2,51.1-38,93-84.9,93.1h-0.3c-2.1,0-4.1-0.1-6.2-0.2c-44.1-3.4-78.9-43.5-79-92.3
	l-0.1-15.4c-7.4-14.4-11.4-30.4-11.4-46.6c0-50.7,37-92.3,84.1-96.6l0,0c2.1-0.3,4.2-0.5,6.4-0.7c3.2-0.2,0,0,0,0
	c2.2-0.2,4.3-0.2,6.5-0.2c50.9,0,92.2,43.4,92.2,96.9C171.1,280.6,168.6,293.5,163.7,305.6z"/>
<path class="st7" d="M150.4,305.6v24.1c0.2,49-34.7,89.3-78.8,92.9c-43.9-3.4-78.8-43.5-79-92.4v-15.4
	c-7.4-14.4-11.4-30.4-11.3-46.6c0-50.7,37-92.3,84.1-96.6l0,0c2.1-0.3,4.2-0.5,6.4-0.7c3.2-0.2,0,0,0,0c48,3.3,86.1,45.4,86.1,96.7
	C157.7,280.7,155.2,293.5,150.4,305.6z"/>
<path class="st9" d="M78.6,382.4c-7.2,0-14.3-2.7-19.5-7.6c-2.4-2.2-2.6-5.9-0.4-8.3c2.2-2.4,5.9-2.6,8.3-0.4
	c3.2,2.9,7.3,4.5,11.7,4.5h0.1c4.3,0,8.5-1.7,11.7-4.5c2.3-2.3,5.9-2.3,8.3,0c2.3,2.3,2.3,5.9,0,8.3c-0.1,0.1-0.2,0.2-0.3,0.3
	c-5.4,5-12.3,7.7-19.6,7.6v0.1C78.7,382.5,78.6,382.5,78.6,382.4z"/>
<path class="st10" d="M55.1,328.4c0-5.2-4.2-9.3-9.3-9.2c-5.2,0-9.3,4.2-9.2,9.3c0,5.2,4.2,9.3,9.3,9.2
	C51.1,337.7,55.2,333.6,55.1,328.4z"/>
<path class="st10" d="M120.7,328.2c0-5.2-4.2-9.3-9.3-9.3c-5.2,0-9.3,4.2-9.3,9.3c0,5.2,4.2,9.3,9.3,9.3l0,0c5.1,0,9.2-4,9.3-9.1
	C120.7,328.4,120.7,328.3,120.7,328.2z"/>
<path class="st4" d="M157.3,499.9c-0.7,1-2.2,3.4-3,4.4c-30.7,42.6-73.5-18.3-143.6-50c-62.1-28-51.3-67.7-20.7-110.3
	c0.7-1,1.5-2.1,2.3-3c-21.5,33.2-18.6,82.6,22.7,107.1C71.8,481.7,125.4,539.7,157.3,499.9z"/>
<path class="st7" d="M-9.4,277.8L-9.4,277.8c-20.1,0.1-36.3,16.3-36.3,36.3c0,9.6,3.8,18.8,10.6,25.5c6.9,6.8,12.1,10.5,25.5,10.5
	h0.1c19.9,0,36.2-16.2,36.2-36.2S10.5,277.8-9.4,277.8L-9.4,277.8z"/>
<path class="st4" d="M-20.2,434.7c0,0,21.1,87.5,61.8,103.3c25.5,9.8-3.6-4.4,2.7-1.8C44.3,536.2,15.7,521.4-20.2,434.7z"/>
<path class="st4" d="M-5.4,533.6c0,0,31.9,68.6,67.8,75.8c22.5,4.5-3.7-3.2,1.9-1.8C64.3,607.7,38.4,599.5-5.4,533.6z"/>
<path class="st1" d="M157.7,415.4c0,0-0.7,74.4-30.9,93.6c-18.9,12,2.1-4.2-2.5-0.9C124.4,508,144.9,491.5,157.7,415.4z"/>
<path class="st11" d="M44.6,283.7c4.6-0.1,9.3,1.2,13.2,3.8c1.1,0.6,1.7,2.1,1,3.3c-0.2,0.3-0.4,0.6-0.7,0.8
	c-1.7,1.2-3.8,1.2-5.6,0.2c-2.4-1.5-5.1-2.3-8-2.3h-0.1c-2.8,0-5.6,0.7-8,2.3c-1.7,1.1-3.9,1-5.6-0.1c-1.1-0.7-1.4-2.3-0.6-3.3
	c0.2-0.3,0.5-0.6,0.8-0.8C35.2,284.9,39.8,283.6,44.6,283.7L44.6,283.7z"/>
<path class="st11" d="M112.6,281.7c4.6-0.1,9.3,1.2,13.2,3.9c1.1,0.6,1.7,2.1,1,3.3c-0.2,0.3-0.4,0.6-0.7,0.8
	c-1.7,1.2-3.8,1.2-5.6,0.2c-2.4-1.5-5.1-2.4-8-2.3l0,0c-2.8,0-5.6,0.7-8,2.3c-1.7,1.1-3.9,1-5.6-0.1c-1.1-0.7-1.4-2.3-0.6-3.3
	c0.2-0.3,0.5-0.6,0.8-0.8C103.3,283.1,107.9,281.7,112.6,281.7L112.6,281.7z"/>
<path class="st0" d="M135.1,182.8c0,32.4-30.1,56.9-60.4,63.7C85.3,233.4,91.1,217,91,200.1c0-37.6-3.4-36.3-36.9-36.3
	c-8.6,0-21.5,3.5-28.9,7.2c12.5-15.8,30.5-26.8,53.5-26C116.4,146.5,135.1,145.2,135.1,182.8z"/>
<path class="st11" d="M137,180c0,32.4-30.1,56.9-60.4,63.7c10.6-13.1,16.4-29.5,16.3-46.4c0-37.6-3.3-36.3-36.9-36.3
	c-8.6,0-21.5,3.5-28.9,7.2c12.5-15.8,30.5-26.8,53.6-26C118.3,143.7,137,142.4,137,180z"/>
</svg>
