<?xml version="1.0" encoding="utf-8"?>
<!-- Generator: Adobe Illustrator 19.0.0, SVG Export Plug-In . SVG Version: 6.00 Build 0)  -->
<svg version="1.1" id="Layer_1" xmlns="http://www.w3.org/2000/svg" xmlns:xlink="http://www.w3.org/1999/xlink" x="0px" y="0px"
	 viewBox="-114 142.3 383 508.7" style="enable-background:new -114 142.3 383 508.7;" xml:space="preserve">
<style type="text/css">
	.st0{fill:#45403D;}
	.st1{fill:#B5813C;}
	.st2{clip-path:url(#SVGID_2_);}
	.st3{fill:#C19A4C;}
	.st4{fill:#D8AB52;}
	.st5{clip-path:url(#SVGID_4_);}
	.st6{fill:#EAC36E;}
	.st7{fill:#B8B2AF;}
	.st8{fill:#A19994;}
	.st9{fill:#897F79;}
	.st10{fill:#868686;}
	.st11{fill:#675F5B;}
</style>
<g>
	<title>baby</title>
	<circle class="st0" cx="75.9" cy="207.7" r="62.5"/>
	<path class="st1" d="M192,408.4v138.8c0.6,56.7-49.6,103.1-112,103.7S-33.6,606-34.2,549.3V408.4c-0.5-56.6,49.6-103,112.1-103.6
		c62.4-0.6,113.6,44.9,114.2,101.6C192,407.1,192,407.8,192,408.4z"/>
	<g>
		<g>
			<g>
				<g>
					<defs>
						<path id="SVGID_1_" d="M192,408.4v138.8c0.6,56.7-49.6,103.1-112,103.7S-33.6,606-34.2,549.3V408.4
							c-0.5-56.6,49.6-103,112.1-103.6c62.4-0.6,113.6,44.9,114.2,101.6C192,407.1,192,407.8,192,408.4z"/>
					</defs>
					<clipPath id="SVGID_2_">
						<use xlink:href="#SVGID_1_"  style="overflow:visible;"/>
					</clipPath>
					<g class="st2">
						<path class="st3" d="M-12.7,305.7c0,0,12.9,151.9,177.6,264.9s-18.6,104.2-18.6,104.2l-248.9-70.9l-4.1-199.2L-12.7,305.7z"/>
					</g>
				</g>
			</g>
		</g>
	</g>
	<path class="st4" d="M170.5,399.2v138.9c0,56.7-50.7,102.6-113.2,102.6c-12.7,0-25.3-1.9-37.3-5.7c-33.7-18.6-54.3-51.9-54.3-87.6
		v-139c0-56.7,50.7-102.6,113.2-102.6c12.7,0,25.4,1.9,37.4,5.8C150,330.1,170.5,363.3,170.5,399.2L170.5,399.2z"/>
	<g>
		<g>
			<g>
				<g>
					<defs>
						<path id="SVGID_3_" d="M170.5,399.2v138.9c0,56.7-50.7,102.6-113.2,102.6c-12.7,0-25.3-1.9-37.3-5.7
							c-33.7-18.6-54.3-51.9-54.3-87.6v-139c0-56.7,50.7-102.6,113.2-102.6c12.7,0,25.4,1.9,37.4,5.8
							C150,330.1,170.5,363.3,170.5,399.2L170.5,399.2z"/>
					</defs>
					<clipPath id="SVGID_4_">
						<use xlink:href="#SVGID_3_"  style="overflow:visible;"/>
					</clipPath>
					<g class="st5">
						<path class="st6" d="M-12.7,305.7c0,0,12.9,151.9,177.6,264.9s-18.6,104.2-18.6,104.2l-248.9-70.9l-4.1-199.2L-12.7,305.7z"/>
					</g>
				</g>
			</g>
		</g>
	</g>
	<path class="st7" d="M164.7,276.1h-0.2c-19.9,0.1-36.1,16.4-36.1,36.3c0,9.6,3.8,18.8,10.6,25.6c6.8,6.8,16,10.6,25.5,10.5h0.2
		c19.9-0.4,35.9-16.8,35.5-36.8C200,292.2,184.3,276.5,164.7,276.1z"/>
	<path class="st8" d="M164,304.6v24c0.2,51.2-37.9,92.9-84.9,93.1h-0.3c-2,0-4.2-0.1-6.2-0.2c-44-3.5-78.9-43.5-79-92.3v-15.4
		c-7.5-14.4-11.3-30.4-11.3-46.6c0-50.6,37-92.3,84-96.6l0,0c2.1-0.3,4.2-0.6,6.4-0.7l0,0c2.1-0.2,4.3-0.2,6.5-0.2
		c50.9,0,92.2,43.4,92.2,96.9C171.4,279.6,168.9,292.5,164,304.6z"/>
	<path class="st7" d="M150.7,304.6v24c0.2,48.9-34.7,89.4-78.8,92.8C27.9,418-7,377.9-7.2,329.1v-15.4
		c-7.5-14.4-11.3-30.4-11.3-46.6c0-50.6,37-92.3,84-96.6l0,0c2.1-0.3,4.3-0.6,6.4-0.7l0,0c48,3.3,86.1,45.3,86.1,96.7
		C158,279.6,155.6,292.5,150.7,304.6z"/>
	<path class="st9" d="M78.9,381.4c-7.3,0-14.2-2.7-19.6-7.6c-2.4-2.1-2.7-5.8-0.6-8.2c2.1-2.4,5.8-2.7,8.2-0.6
		c0.1,0.1,0.2,0.1,0.2,0.2c3.2,2.9,7.4,4.5,11.7,4.5h0.1c4.4,0,8.6-1.6,11.8-4.5c2.4-2.1,6.1-1.8,8.2,0.7c1.9,2.3,1.8,5.7-0.3,7.8
		c-5.3,4.9-12.3,7.7-19.6,7.6L78.9,381.4L78.9,381.4C79,381.4,79,381.4,78.9,381.4L78.9,381.4L78.9,381.4z"/>
	<path class="st10" d="M55.5,327.4c0-5.1-4.2-9.3-9.3-9.3s-9.3,4.2-9.3,9.3s4.2,9.3,9.3,9.3l0,0C51.4,336.7,55.5,332.6,55.5,327.4z"
		/>
	<path class="st10" d="M121.1,327.1c0-5.1-4.2-9.3-9.3-9.3s-9.3,4.2-9.3,9.3c0,5.1,4.2,9.3,9.3,9.3l0,0c5,0,9.2-4,9.2-9.1l0,0
		C121.1,327.3,121.1,327.2,121.1,327.1z"/>
	<path class="st4" d="M157.6,498.8c-0.7,1.1-2.2,3.4-3,4.5c-30.7,42.5-73.5-18.2-143.6-50C-51.1,425.2-40.3,385.5-9.6,343
		c0.8-1.1,1.5-2,2.3-3c-21.5,33.2-18.7,82.6,22.7,107.2C72.1,480.7,125.7,538.6,157.6,498.8z"/>
	<path class="st7" d="M-9.1,276.7h-0.2c-19.9,0.1-36.1,16.4-36,36.4c0,9.6,3.8,18.8,10.6,25.6s12.1,10.5,25.6,10.5h0.2
		c19.9-0.5,35.9-16.9,35.5-36.9C26.1,292.8,10.4,277.1-9.1,276.7L-9.1,276.7z"/>
	<path class="st4" d="M-19.8,433.5c0,0,21,87.5,61.8,103.3c25.6,9.9-3.6-4.5,2.6-1.7C44.6,535.1,16,520.3-19.8,433.5z"/>
	<path class="st4" d="M-5.1,532.5c0,0,31.8,68.5,67.8,75.8c22.5,4.5-3.7-3.2,1.8-1.8C64.6,606.5,38.8,598.4-5.1,532.5z"/>
	<path class="st1" d="M158,414.3c0,0-0.7,74.4-30.9,93.5c-18.9,12,2.1-4.2-2.5-1C124.6,506.8,145.2,490.4,158,414.3z"/>
	<path class="st0" d="M38.1,282.3c4.7-0.1,9.3,1.3,13.3,3.9c1.2,0.7,1.6,2.1,1,3.3l0,0c-0.2,0.3-0.4,0.6-0.8,0.9
		c-1.6,1.2-3.9,1.3-5.5,0.2c-2.3-1.5-5.1-2.3-7.9-2.2l0,0c-2.8-0.1-5.6,0.8-7.9,2.2c-1.7,1.1-3.9,1.1-5.5-0.2
		c-1.1-0.8-1.4-2.2-0.7-3.3c0.2-0.3,0.5-0.6,0.9-0.8C28.8,283.7,33.5,282.3,38.1,282.3L38.1,282.3z"/>
	<path class="st0" d="M111.8,281.1c4.6-0.1,9.3,1.3,13.3,3.8c1.2,0.7,1.6,2.1,1,3.3c-0.2,0.3-0.4,0.6-0.8,0.9
		c-1.6,1.2-3.9,1.3-5.5,0.2c-2.3-1.5-5.1-2.3-7.9-2.2l0,0c-2.8,0-5.5,0.8-7.9,2.3c-1.7,1.1-3.9,1.1-5.5-0.1
		c-1.1-0.8-1.4-2.2-0.7-3.4c0.2-0.3,0.5-0.6,0.9-0.8C102.5,282.3,107,281,111.8,281.1L111.8,281.1z"/>
	<path class="st11" d="M38.1,281.1c4.7-0.1,9.3,1.3,13.3,3.9c1.2,0.7,1.6,2.1,1,3.3l0,0c-0.2,0.3-0.4,0.6-0.8,0.9
		c-1.6,1.2-3.9,1.3-5.5,0.2c-2.3-1.5-5.1-2.3-7.9-2.2l0,0c-2.8-0.1-5.6,0.8-7.9,2.2c-1.7,1.1-3.9,1.1-5.5-0.2
		c-1.1-0.8-1.4-2.2-0.7-3.3c0.2-0.3,0.5-0.6,0.9-0.8C28.8,282.4,33.5,281.1,38.1,281.1L38.1,281.1z"/>
	<path class="st11" d="M111.8,279.8c4.6-0.1,9.3,1.3,13.3,3.8c1.2,0.7,1.6,2.1,1,3.3c-0.2,0.3-0.4,0.6-0.8,0.9
		c-1.6,1.2-3.9,1.3-5.5,0.2c-2.3-1.5-5.1-2.3-7.9-2.2l0,0c-2.8,0-5.5,0.8-7.9,2.3c-1.7,1.1-3.9,1.1-5.5-0.1
		c-1.1-0.8-1.4-2.2-0.7-3.4c0.2-0.3,0.5-0.6,0.9-0.8C102.5,281.1,107,279.7,111.8,279.8L111.8,279.8z"/>
	<path class="st0" d="M136.9,182.9c0,32.4-30,56.9-60.4,63.8c10.7-13.1,16.5-29.5,16.3-46.4c0-37.6-3.4-36.3-36.9-36.3
		c-8.6,0-21.5,3.6-28.8,7.2c12.5-15.8,30.5-26.8,53.5-25.9C118.3,146.5,136.9,145.2,136.9,182.9z"/>
	<path class="st11" d="M138.9,180.1c0,32.4-30,56.9-60.4,63.8c10.7-13.1,16.5-29.5,16.4-46.5c0-37.6-3.4-36.3-36.9-36.3
		c-8.6,0-21.5,3.6-28.8,7.2c12.3-15.7,30.3-26.7,53.3-26C120.2,143.7,138.9,142.4,138.9,180.1z"/>
</g>
</svg>
