<?xml version="1.0" encoding="utf-8"?>
<!-- Generator: Adobe Illustrator 19.0.0, SVG Export Plug-In . SVG Version: 6.00 Build 0)  -->
<svg version="1.1" id="Layer_1" xmlns="http://www.w3.org/2000/svg" xmlns:xlink="http://www.w3.org/1999/xlink" x="0px" y="0px"
	 viewBox="-114 142.3 383 508.7" style="enable-background:new -114 142.3 383 508.7;" xml:space="preserve">
<style type="text/css">
	.st0{fill:#453F3D;}
	.st1{fill:#89304A;}
	.st2{clip-path:url(#SVGID_2_);}
	.st3{fill:#AA4665;}
	.st4{fill:#C44964;}
	.st5{clip-path:url(#SVGID_4_);}
	.st6{fill:#E56E8E;}
	.st7{fill:#B8B2AF;}
	.st8{fill:#A19994;}
	.st9{fill:#897F79;}
	.st10{fill:#675F5B;}
	.st11{fill:#868686;}
</style>
<g>
	<title>Baby</title>
	<circle class="st0" cx="76.3" cy="190.8" r="46.4"/>
	<path class="st1" d="M196.9,410.4v138.4c0,56.5-52.9,102.3-118.2,102.3S-39.5,605.2-39.5,548.7V410.4
		c0-56.5,52.9-102.3,118.2-102.3S196.9,353.9,196.9,410.4z"/>
	<g>
		<g>
			<g>
				<g>
					<defs>
						<path id="SVGID_1_" d="M196.9,410.4v138.4c0,56.5-52.9,102.3-118.2,102.3S-39.5,605.2-39.5,548.7V410.4
							c0-56.5,52.9-102.3,118.2-102.3S196.9,353.9,196.9,410.4z"/>
					</defs>
					<clipPath id="SVGID_2_">
						<use xlink:href="#SVGID_1_"  style="overflow:visible;"/>
					</clipPath>
					<g class="st2">
						<path class="st3" d="M-17,308.1c0,0,13.5,151.3,185.6,263.9s-19.4,103.7-19.4,103.7l-260-70.7l-4.4-198.5L-17,308.1z"/>
					</g>
				</g>
			</g>
		</g>
	</g>
	<path class="st4" d="M174.4,401.2v138.4c0,56.5-52.9,102.3-118.3,102.3c-13.3,0-26.4-1.9-39-5.7c-35.2-18.6-56.7-51.6-56.7-87.3
		V410.4c0-56.5,52.9-102.3,118.3-102.3c13.3,0,26.5,1.9,39,5.7C153,332.5,174.4,365.5,174.4,401.2L174.4,401.2z"/>
	<g>
		<g>
			<g>
				<g>
					<defs>
						<path id="SVGID_3_" d="M174.4,401.2v138.4c0,56.5-52.9,102.3-118.3,102.3c-13.3,0-26.4-1.9-39-5.7
							c-35.2-18.6-56.7-51.6-56.7-87.3V410.4c0-56.5,52.9-102.3,118.3-102.3c13.3,0,26.5,1.9,39,5.7
							C153,332.5,174.4,365.5,174.4,401.2L174.4,401.2z"/>
					</defs>
					<clipPath id="SVGID_4_">
						<use xlink:href="#SVGID_3_"  style="overflow:visible;"/>
					</clipPath>
					<g class="st5">
						<path class="st6" d="M-17,308.1c0,0,13.5,151.3,185.6,263.9s-19.4,103.7-19.4,103.7l-260-70.7l-4.4-198.5L-17,308.1z"/>
					</g>
				</g>
			</g>
		</g>
	</g>
	<path class="st7" d="M168.4,277.1h-0.2c-20.9,0.1-37.7,17-37.7,37.9c0,10,4,19.7,11.1,26.6c7,7,16.6,11,26.6,11h0.2
		c20.9,0,37.7-16.9,37.7-37.8C206.1,293.9,189.2,277.1,168.4,277.1L168.4,277.1z"/>
	<path class="st8" d="M167.6,306.8v25.1c0.2,53.4-39.7,97.1-88.7,97.3h-0.3c-2.2,0-4.3-0.1-6.4-0.2c-46-3.6-82.4-45.4-82.6-96.4
		v-16.1c-7.9-15-11.8-31.7-11.8-48.6c0-52.9,38.5-96.4,87.8-100.9l0,0c2.2-0.3,4.4-0.6,6.6-0.7l0,0c2.2-0.2,4.5-0.2,6.7-0.2
		c53.1,0,96.3,45.4,96.3,101.3C175.2,280.7,172.7,294.1,167.6,306.8z"/>
	<path class="st7" d="M153.7,306.8v25.1c0.2,51.1-36.2,93.2-82.3,97c-46-3.6-82.4-45.4-82.6-96.4l-0.1-16.1
		c-7.9-15-11.8-31.7-11.8-48.6c0-52.9,38.5-96.4,87.8-100.9l0,0c2.2-0.3,4.4-0.6,6.6-0.7l0,0c50.2,3.5,89.8,47.4,89.8,101.1
		C161.4,280.8,158.7,294.2,153.7,306.8z"/>
	<path class="st9" d="M78.7,387c-7.5,0-14.9-2.9-20.4-8c-2.4-2.2-2.7-6.1-0.4-8.6s6.1-2.7,8.6-0.4l0,0c3.4,3.1,7.6,4.7,12.1,4.7h0.1
		c4.5,0,8.9-1.7,12.1-4.8c2.3-2.4,6.1-2.4,8.6-0.1s2.4,6.1,0.1,8.6c-0.1,0.1-0.3,0.3-0.4,0.4C93.7,384.1,86.3,386.9,78.7,387
		C78.7,386.9,78.8,387,78.7,387L78.7,387z"/>
	<path class="st0" d="M42.1,301.9c4-0.1,7.8,1,11.1,3.2c1,0.5,1.3,1.7,0.8,2.8c-0.1,0.3-0.4,0.5-0.6,0.7c-1.3,1-3.3,1-4.7,0.2
		c-1.9-1.3-4.3-1.9-6.6-1.9l0,0c-2.3,0-4.7,0.6-6.6,1.9c-1.4,0.9-3.3,0.9-4.7-0.1c-0.9-0.6-1.2-1.8-0.6-2.8c0.2-0.3,0.4-0.5,0.7-0.6
		C34.2,303,38.1,301.9,42.1,301.9L42.1,301.9z"/>
	<path class="st0" d="M110.6,301.9c3.9-0.1,7.8,1,11.1,3.2c1,0.5,1.3,1.7,0.8,2.8c-0.1,0.3-0.4,0.5-0.6,0.7c-1.3,1-3.3,1-4.7,0.2
		c-1.9-1.3-4.3-1.9-6.6-1.9l0,0c-2.3,0-4.7,0.6-6.6,1.9c-1.4,0.9-3.3,0.9-4.7-0.1c-0.9-0.6-1.2-1.8-0.6-2.8c0.2-0.3,0.4-0.5,0.7-0.6
		C102.7,303,106.6,301.9,110.6,301.9L110.6,301.9z"/>
	<path class="st10" d="M42.1,300.9c4-0.1,7.8,1,11.1,3.2c1,0.5,1.3,1.7,0.8,2.8c-0.1,0.3-0.4,0.5-0.6,0.7c-1.3,1-3.3,1-4.7,0.2
		c-1.9-1.3-4.3-1.9-6.6-1.9l0,0c-2.3,0-4.7,0.6-6.6,1.9c-1.4,0.9-3.3,0.9-4.7-0.1c-0.9-0.6-1.2-1.8-0.6-2.8c0.2-0.3,0.4-0.5,0.7-0.6
		C34.2,302.1,38.1,300.9,42.1,300.9L42.1,300.9z"/>
	<path class="st10" d="M110.6,300.9c4-0.1,7.8,1,11.1,3.2c1,0.5,1.3,1.7,0.8,2.8c-0.1,0.3-0.4,0.5-0.6,0.7c-1.3,1-3.3,1-4.7,0.2
		c-1.9-1.3-4.3-1.9-6.6-1.9l0,0c-2.3,0-4.7,0.6-6.6,1.9c-1.4,0.9-3.3,0.9-4.7-0.1c-0.9-0.6-1.2-1.8-0.6-2.8c0.2-0.3,0.4-0.5,0.7-0.6
		C102.7,302.1,106.6,300.9,110.6,300.9L110.6,300.9z"/>
	<path class="st11" d="M54.3,330.6c0-5.4-4.4-9.7-9.8-9.7s-9.7,4.4-9.7,9.8c0,5.3,4.4,9.7,9.7,9.7C50,340.3,54.3,335.9,54.3,330.6z"
		/>
	<path class="st11" d="M122.7,330.4c0-5.4-4.4-9.7-9.8-9.7s-9.7,4.4-9.7,9.8c0,5.3,4.4,9.7,9.7,9.7s9.6-4.2,9.7-9.5
		C122.7,330.5,122.7,330.4,122.7,330.4z"/>
	<path class="st4" d="M160.9,500.4c-0.7,1-2.3,3.4-3.1,4.5c-32.1,42.3-76.7-18.2-150-49.8c-64.8-28-53.6-67.5-21.6-109.9
		c0.8-1,1.6-2,2.4-3.1c-22.4,33.1-19.5,82.3,23.8,106.8C71.5,482.4,127.6,540,160.9,500.4z"/>
	<path class="st7" d="M-13.2,277.7h-0.2c-20.9,0.1-37.7,17-37.7,37.9c-0.1,10,4,19.6,11.1,26.6c7.1,7.1,12.6,11,26.6,11h0.2
		c20.9,0,37.7-16.9,37.7-37.8C24.5,294.5,7.6,277.7-13.2,277.7L-13.2,277.7z"/>
	<path class="st4" d="M-24.4,435.5c0,0,22,87.2,64.6,102.9c26.6,9.8-3.8-4.5,2.8-1.7C42.9,536.5,13,521.8-24.4,435.5z"/>
	<path class="st4" d="M-9,534c0,0,33.3,68.3,70.9,75.6c23.5,4.5-3.9-3.2,1.9-1.8C63.8,607.7,36.8,599.6-9,534z"/>
	<path class="st1" d="M161.4,416.3c0,0-0.7,74.1-32.2,93.2c-19.8,11.9,2.2-4.2-2.7-1C126.6,508.5,148,492,161.4,416.3z"/>
	<path class="st0" d="M121.9,193c-0.2,16.3-9.1,31.4-23.1,39.6c14.4-21.2,8.9-50.2-12.4-64.6c-14.7-10-33.8-10.7-49.2-1.8
		c14.6-21.2,43.5-26.5,64.7-11.9C114.5,163,122,177.6,121.9,193z"/>
	<path class="st10" d="M124.4,189.2c-0.2,16.3-9,31.4-23.1,39.6c14.4-21.3,8.8-50.2-12.4-64.6c-14.7-9.9-33.8-10.6-49.2-1.8
		c14.5-21.1,43.5-26.4,64.6-11.9C117,159.2,124.5,173.8,124.4,189.2z"/>
</g>
</svg>
