<?xml version="1.0" encoding="utf-8"?>
<!-- Generator: Adobe Illustrator 19.0.0, SVG Export Plug-In . SVG Version: 6.00 Build 0)  -->
<svg version="1.1" id="Layer_1" xmlns="http://www.w3.org/2000/svg" xmlns:xlink="http://www.w3.org/1999/xlink" x="0px" y="0px"
	 viewBox="-114 142.3 383 508.7" style="enable-background:new -114 142.3 383 508.7;" xml:space="preserve">
<style type="text/css">
	.st0{fill:#161616;}
	.st1{fill:#52738E;}
	.st2{clip-path:url(#SVGID_2_);}
	.st3{fill:#6593A0;}
	.st4{fill:#6896AA;}
	.st5{clip-path:url(#SVGID_4_);}
	.st6{fill:#9BCCDD;}
	.st7{fill:#BC8E79;}
	.st8{fill:#A06E5A;}
	.st9{fill:#897F79;}
	.st10{fill:#868686;}
	.st11{fill:#232323;}
</style>
<g>
	<title>baby</title>
	<ellipse class="st0" cx="72.5" cy="203.5" rx="58.2" ry="58.6"/>
	<path class="st1" d="M194.1,410.8v137.5c0.6,56.2-50.6,102.2-114.4,102.7s-116-44.5-116.6-100.7c0-0.7,0-1.3,0-2V410.8
		c-0.6-56.2,50.6-102.1,114.4-102.7c63.8-0.6,116,44.5,116.6,100.7C194.1,409.5,194.1,410.2,194.1,410.8z"/>
	<g>
		<g>
			<g>
				<g>
					<g>
						<defs>
							<path id="SVGID_1_" d="M194.1,410.8v137.5c0.6,56.2-50.6,102.2-114.4,102.7s-116-44.5-116.6-100.7c0-0.7,0-1.3,0-2V410.8
								c-0.6-56.2,50.6-102.1,114.4-102.7c63.8-0.6,116,44.5,116.6,100.7C194.1,409.5,194.1,410.2,194.1,410.8z"/>
						</defs>
						<clipPath id="SVGID_2_">
							<use xlink:href="#SVGID_1_"  style="overflow:visible;"/>
						</clipPath>
						<g class="st2">
							<path class="st3" d="M-14.9,309.1c0,0,13.1,150.5,181.3,262.4s-19,103.1-19,103.1l-254-70.1l-4.3-197.4L-14.9,309.1z"/>
						</g>
					</g>
				</g>
			</g>
		</g>
	</g>
	<path class="st4" d="M172.2,401.6v137.7c0,56.2-51.8,101.7-115.6,101.7c-13,0-25.8-1.9-38-5.7c-34.4-18.5-55.4-51.3-55.4-86.8
		V410.8c0-56.2,51.8-101.7,115.6-101.7c13,0,25.8,1.9,38.1,5.7C151.2,333.3,172.1,366.2,172.2,401.6z"/>
	<g>
		<g>
			<g>
				<g>
					<g>
						<defs>
							<path id="SVGID_3_" d="M172.2,401.6v137.7c0,56.2-51.8,101.7-115.6,101.7c-13,0-25.8-1.9-38-5.7
								c-34.4-18.5-55.4-51.3-55.4-86.8V410.8c0-56.2,51.8-101.7,115.6-101.7c13,0,25.8,1.9,38.1,5.7
								C151.2,333.3,172.1,366.2,172.2,401.6z"/>
						</defs>
						<clipPath id="SVGID_4_">
							<use xlink:href="#SVGID_3_"  style="overflow:visible;"/>
						</clipPath>
						<g class="st5">
							<path class="st6" d="M-14.9,309.1c0,0,13.1,150.5,181.3,262.4s-19,103.1-19,103.1l-254-70.1l-4.3-197.4L-14.9,309.1z"/>
						</g>
					</g>
				</g>
			</g>
		</g>
	</g>
	<path class="st7" d="M166.2,278.7L166.2,278.7c-20.5,0.1-36.9,16.8-36.9,37.3c0,9.8,3.9,19.3,10.9,26.2
		c6.9,6.9,16.3,10.9,25.9,10.9h0.2c20.4,0,36.9-16.7,36.9-37.2C203.2,295.3,186.6,278.7,166.2,278.7L166.2,278.7z"/>
	<path class="st8" d="M165.5,307.9v24.7c0.2,52.5-38.7,95.5-86.7,95.6h-0.3c-2.1,0-4.2-0.1-6.3-0.2c-45-3.5-80.5-44.6-80.7-94.8
		v-15.9c-7.6-14.8-11.6-31.2-11.6-47.8c0-52,37.7-94.8,85.8-99.3l0,0c2.1-0.3,4.3-0.5,6.5-0.7l0,0c2.2-0.2,4.4-0.2,6.6-0.2
		c51.9,0,94,44.6,94,99.7C173,282.3,170.4,295.5,165.5,307.9z"/>
	<path class="st7" d="M151.9,307.9l0.1,24.7c0.2,50.2-35.4,91.6-80.4,95.4c-45-3.5-80.5-44.6-80.7-94.8v-15.9
		c-7.6-14.8-11.6-31.2-11.6-47.8c0-52,37.7-94.8,85.8-99.3l0,0c2.1-0.3,4.3-0.5,6.5-0.7c3.3-0.2,0,0,0,0c49,3.4,87.8,46.6,87.8,99.4
		C159.3,282.3,156.8,295.5,151.9,307.9z"/>
	<path class="st9" d="M78.6,386.9c-7.4,0-14.6-2.8-20-7.8c-2.4-2.2-2.6-6-0.4-8.4c2.2-2.4,6-2.6,8.4-0.4c3.3,3,7.5,4.6,12,4.6h0.1
		c4.4,0,8.7-1.7,12-4.7c2.4-2.2,6.2-2.1,8.4,0.3c2.2,2.4,2.1,6.2-0.3,8.4C93.2,384,86.1,386.8,78.6,386.9L78.6,386.9z"/>
	<path class="st10" d="M54.7,331.4c0-5.2-4.3-9.5-9.5-9.5s-9.5,4.3-9.5,9.5s4.3,9.5,9.5,9.5l0,0C50.5,341,54.7,336.6,54.7,331.4z"/>
	<path class="st10" d="M121.6,331.2c0-5.2-4.3-9.5-9.5-9.5s-9.5,4.3-9.5,9.5s4.3,9.5,9.5,9.5l0,0c5.2,0,9.4-4.1,9.5-9.3
		C121.6,331.3,121.6,331.2,121.6,331.2z"/>
	<path class="st4" d="M158.8,500.3c-0.7,1-2.3,3.4-3,4.4c-31.3,42.1-75-18.1-146.5-49.5c-63.3-27.8-52.4-67.1-21.1-109.3
		c0.8-1,1.6-2,2.4-3c-22,33-19.1,81.8,23.3,106.2C71.6,482.4,126.3,539.8,158.8,500.3z"/>
	<path class="st7" d="M-11.2,279.4h-0.2c-20.4,0.1-36.9,16.8-36.8,37.3c0,9.8,3.9,19.3,10.9,26.2c7,7,12.4,10.7,26,10.7h0.2
		c20.4,0,36.9-16.7,36.9-37.2S9.1,279.4-11.2,279.4z"/>
	<path class="st4" d="M-22.2,435.7c0,0,21.5,86.7,63.1,102.4c26,9.7-3.7-4.4,2.7-1.7C43.6,536.4,14.3,521.7-22.2,435.7z"/>
	<path class="st4" d="M-7.1,533.8c0,0,32.5,67.9,69.3,75.1c23,4.5-3.8-3.1,1.9-1.8C64,607.1,37.6,599.1-7.1,533.8z"/>
	<path class="st1" d="M159.3,416.7c0,0-0.7,73.7-31.5,92.7c-19.3,11.9,2.1-4.2-2.5-1C125.4,508.3,146.3,492.1,159.3,416.7z"/>
	<path class="st0" d="M129.4,180.3c0,30.4-27.9,53.2-56.2,59.7c10-12.3,15.4-27.6,15.2-43.5c0-35.2-3.1-34.1-34.3-34.1
		c-8,0-20,3.3-26.8,6.7c11.6-14.8,28.3-25,49.8-24.3C112,146.3,129.4,145,129.4,180.3z"/>
	<path class="st11" d="M41.3,288.8c4.4-0.1,8.7,1.2,12.3,3.6c1.1,0.6,1.5,2,0.9,3.1c-0.2,0.3-0.4,0.6-0.7,0.8
		c-1.5,1.1-3.6,1.2-5.2,0.2c-2.2-1.4-4.8-2.2-7.4-2.1l0,0c-2.6,0-5.2,0.7-7.4,2.2c-1.6,1-3.7,1-5.2-0.1c-1-0.6-1.3-2-0.7-3
		c0.2-0.3,0.5-0.6,0.9-0.8C32.5,290.1,36.9,288.9,41.3,288.8L41.3,288.8z"/>
	<path class="st11" d="M112.1,287.7c4.4-0.1,8.6,1.2,12.3,3.6c1.1,0.6,1.5,2,0.9,3.1c-0.2,0.3-0.4,0.6-0.7,0.8
		c-1.5,1.1-3.6,1.2-5.2,0.2c-2.2-1.4-4.8-2.2-7.4-2.1l0,0c-2.6,0-5.2,0.7-7.4,2.1c-1.6,1-3.7,1-5.2-0.1c-1-0.6-1.3-2-0.7-3
		c0.2-0.3,0.5-0.6,0.9-0.8C103.4,289,107.7,287.7,112.1,287.7L112.1,287.7z"/>
	<path class="st11" d="M131.2,177.7c0,30.4-27.9,53.2-56.2,59.8c10-12.3,15.3-27.6,15.2-43.5c0-35.2-3.1-34.1-34.3-34.1
		c-8,0-20,3.3-26.8,6.7c11.5-14.8,28.2-25,49.7-24.3C113.7,143.5,131.2,142.4,131.2,177.7z"/>
</g>
</svg>
