<?xml version="1.0" encoding="utf-8"?>
<!-- Generator: Adobe Illustrator 23.1.0, SVG Export Plug-In . SVG Version: 6.00 Build 0)  -->
<svg version="1.1" id="Layer_1" xmlns="http://www.w3.org/2000/svg" xmlns:xlink="http://www.w3.org/1999/xlink" x="0px" y="0px"
	 viewBox="0 0 383 508.7" style="enable-background:new 0 0 383 508.7;" xml:space="preserve">
<style type="text/css">
	.st0{fill:#191919;}
	.st1{fill:#B2B2B2;}
	.st2{clip-path:url(#SVGID_2_);}
	.st3{fill:#C9C5C6;}
	.st4{fill:#D8D8D8;}
	.st5{clip-path:url(#SVGID_4_);}
	.st6{fill:#E8E8E8;}
	.st7{fill:#F0BCA6;}
	.st8{fill:#E6B09A;}
	.st9{fill:#E2A58A;}
	.st10{fill:#868686;}
	.st11{fill:#2B2B2B;}
	.st12{fill:#232323;}
</style>
<g>
	<title>Baby</title>
	<circle class="st0" cx="189.6" cy="57.8" r="55"/>
	<path class="st1" d="M308.8,265.2v139.5c0.6,56.9-50.9,103.5-115,104c-64.2,0.5-116.7-45.1-117.3-102c0-0.7,0-1.3,0-2V265.2
		c-0.6-56.9,50.9-103.5,115-104c64.2-0.5,116.7,45.1,117.3,102C308.8,263.9,308.8,264.6,308.8,265.2z"/>
	<g>
		<g>
			<g>
				<defs>
					<path id="SVGID_1_" d="M308.8,265.2v139.5c0.6,56.9-50.9,103.5-115,104c-64.2,0.5-116.7-45.1-117.3-102c0-0.7,0-1.3,0-2V265.2
						c-0.6-56.9,50.9-103.5,115-104c64.2-0.5,116.7,45.1,117.3,102C308.8,263.9,308.8,264.6,308.8,265.2z"/>
				</defs>
				<clipPath id="SVGID_2_">
					<use xlink:href="#SVGID_1_"  style="overflow:visible;"/>
				</clipPath>
				<g class="st2">
					<path class="st3" d="M98.5,162.2c0,0,13.2,152.5,182.5,266s-19,104.5-19,104.5L6.3,461.5L2,261.5L98.5,162.2z"/>
				</g>
			</g>
		</g>
	</g>
	<path class="st4" d="M286.7,256v139.5c0,57-52,103-116.3,103c-13.1,0-26-1.9-38.3-5.8c-34.6-18.7-55.8-52-55.8-88V265.2
		c0-57,52-103,116.3-103c13.1,0,26,1.9,38.4,5.8C265.7,186.7,286.7,220.1,286.7,256z"/>
	<g>
		<g>
			<g>
				<defs>
					<path id="SVGID_3_" d="M286.7,256v139.5c0,57-52.3,103-116.9,103c-13.1,0-26.1-1.9-38.5-5.8c-34.8-18.7-56.1-52-56-88V265.2
						c0-57,52.3-103,116.9-103c13.2,0,26.2,1.9,38.6,5.8C265.6,186.7,286.7,220.1,286.7,256z"/>
				</defs>
				<clipPath id="SVGID_4_">
					<use xlink:href="#SVGID_3_"  style="overflow:visible;"/>
				</clipPath>
				<g class="st5">
					<path class="st6" d="M97.6,162.2c0,0,13.3,152.5,183.4,266s-19.1,104.5-19.1,104.5L4.8,461.5l-4.3-200L97.6,162.2z"/>
				</g>
			</g>
		</g>
	</g>
	<path class="st7" d="M280.8,131.8h-0.2c-20.5,0.1-37.1,16.8-37,37.3c0,9.8,3.8,19.3,10.9,26.2c7,6.9,16.4,10.8,26.2,10.7h0.2
		c20.5,0,37.1-16.7,37.1-37.1S301.3,131.7,280.8,131.8L280.8,131.8z"/>
	<path class="st8" d="M280.1,161v24.7c0.2,52.5-39,95.4-87.2,95.6h-0.3c-2.1,0-4.3-0.1-6.3-0.2c-45.2-3.5-81.1-44.6-81.2-94.7
		l-0.1-15.9c-7.7-14.8-11.6-31.2-11.6-47.9c0-52,38-94.7,86.3-99.2l0,0c2.1-0.3,4.4-0.5,6.6-0.7l0,0c2.2-0.2,4.5-0.2,6.7-0.2
		c52.3,0,94.7,44.5,94.7,99.6C287.6,135.4,285.1,148.6,280.1,161z"/>
	<path class="st7" d="M266.4,161v24.7c0.2,50.3-35.6,91.7-80.9,95.3c-45.2-3.5-81.1-44.6-81.2-94.7l-0.1-15.9
		c-7.7-14.8-11.6-31.2-11.6-47.9c0-52,38-94.7,86.3-99.2l0,0c2.1-0.3,4.4-0.5,6.6-0.7l0,0C234.9,26,274,69.2,274,122
		C274,135.4,271.3,148.6,266.4,161z"/>
	<path class="st9" d="M192.6,239.9c-7.4,0-14.6-2.7-20-7.8c-2.4-2.2-2.6-6-0.4-8.4c2.2-2.4,6-2.6,8.4-0.4l0,0c3.2,3,7.6,4.7,12,4.7
		h0.1c4.5,0,8.8-1.6,12-4.8c2.3-2.3,6.1-2.3,8.4-0.1c2.3,2.3,2.3,6.1,0.1,8.4c-0.1,0.1-0.2,0.2-0.4,0.3c-5.5,5.1-12.7,7.9-20.1,7.9
		v0.1C192.6,239.9,192.6,239.9,192.6,239.9z"/>
	<path class="st10" d="M168.6,184.5c0-5.3-4.4-9.5-9.6-9.5s-9.5,4.4-9.5,9.6c0,5.3,4.4,9.5,9.6,9.5l0,0
		C164.4,194,168.6,189.7,168.6,184.5z"/>
	<path class="st10" d="M235.9,184.3c0-5.3-4.4-9.5-9.6-9.5c-5.3,0-9.5,4.4-9.5,9.6c0,5.3,4.4,9.5,9.6,9.5l0,0c5.2,0,9.4-4.1,9.5-9.3
		C235.9,184.4,235.9,184.4,235.9,184.3z"/>
	<path class="st4" d="M273.4,355.9c-0.7,1-2.2,3.4-3,4.5c-31.5,42.7-75.4-18.3-147.5-50.2c-63.7-28.2-52.7-68-21.2-110.8
		c0.8-1,1.6-2,2.4-3c-22.1,33.3-19.1,82.9,23.4,107.6C185.6,337.8,240.7,396,273.4,355.9z"/>
	<path class="st7" d="M102.2,132.4H102c-20.5,0.1-37.1,16.8-37,37.3c0,9.8,3.9,19.3,10.9,26.2c7.1,7,12.4,10.8,26.2,10.8h0.2
		c20.5,0,37.1-16.7,37.1-37.1C139.4,149,122.8,132.4,102.2,132.4L102.2,132.4z"/>
	<path class="st4" d="M91.2,290.5c0,0,21.6,87.8,63.5,103.6c26.2,9.9-3.7-4.6,2.7-1.7C157.4,392.4,128,377.6,91.2,290.5z"/>
	<path class="st4" d="M106.4,389.8c0,0,32.8,68.8,69.6,76.1c23.1,4.6-3.8-3.1,1.9-1.8C177.9,464.2,151.4,456,106.4,389.8z"/>
	<path class="st1" d="M273.9,271.2c0,0-0.7,74.7-31.7,93.9c-19.4,12,2.1-4.3-2.5-1C239.7,364.1,260.7,347.6,273.9,271.2z"/>
	<path class="st0" d="M243.5,60.3c-0.3,19.3-10.7,37.1-27.4,46.9c17.2-25,10.8-59.3-14.2-76.5c-17.5-12-40.4-12.9-58.8-2.2
		c17.2-25,51.4-31.4,76.4-14.3C234.8,24.7,243.7,41.9,243.5,60.3L243.5,60.3z"/>
	<path class="st11" d="M246.5,55.7c-0.3,19.3-10.7,37.1-27.4,46.9c17.2-25,10.8-59.2-14.2-76.4c-17.5-12-40.4-13-58.8-2.2
		c17.1-25.1,51.4-31.5,76.4-14.4C237.8,20,246.8,37.3,246.5,55.7z"/>
	<path class="st12" d="M229.1,148.8c4.7-0.1,9.2,1.2,13.2,3.7c1.2,0.6,1.6,2.1,1,3.2c-0.2,0.3-0.4,0.6-0.7,0.8
		c-1.6,1.2-3.8,1.3-5.6,0.2c-2.3-1.5-5.1-2.2-7.9-2.2H229c-2.8,0-5.6,0.7-7.9,2.2c-1.7,1.1-3.8,1-5.6-0.1c-1.1-0.7-1.4-2.2-0.7-3.3
		c0.2-0.3,0.5-0.6,0.8-0.8C219.8,150.3,224.5,148.8,229.1,148.8L229.1,148.8z"/>
	<path class="st12" d="M157.7,150.5c4.7-0.1,9.2,1.2,13.2,3.7c1.2,0.6,1.6,2.1,1,3.2c-0.2,0.3-0.4,0.6-0.7,0.8
		c-1.6,1.2-3.8,1.3-5.6,0.2c-2.3-1.5-5.1-2.2-7.9-2.2l0,0c-2.8,0-5.6,0.7-7.9,2.2c-1.7,1.1-3.8,1-5.6-0.1c-1.1-0.7-1.4-2.2-0.7-3.3
		c0.2-0.3,0.5-0.6,0.8-0.8C148.4,151.8,152.9,150.5,157.7,150.5L157.7,150.5z"/>
</g>
</svg>
