<?xml version="1.0" encoding="iso-8859-1"?>
<!-- Generator: Adobe Illustrator 19.0.0, SVG Export Plug-In . SVG Version: 6.00 Build 0)  -->
<svg version="1.1" id="Layer_1" xmlns="http://www.w3.org/2000/svg" xmlns:xlink="http://www.w3.org/1999/xlink" x="0px" y="0px"
	 viewBox="0 0 512 512" style="enable-background:new 0 0 512 512;" xml:space="preserve">
<path style="fill:#C7C6CC;" d="M175.926,0h-38.424c-4.661,0-8.44,3.778-8.44,8.44v302.533v104.951v45.032v7.663v17.055
	c0,14.515,11.81,26.326,26.326,26.326c14.515,0,26.325-11.81,26.325-26.326V468.62v-34.941v-58.192v-64.507
	c21.288-4.688,37.453-26.774,37.453-53.231V50.911C219.166,22.839,199.769,0,175.926,0z"/>
<path style="fill:#ADACB2;" d="M175.926,0h-0.367v502.566c3.837-4.575,6.153-10.466,6.153-16.89v-17.055V433.68v-58.192V310.98
	c21.288-4.688,37.453-26.774,37.453-53.231V50.911C219.166,22.839,199.769,0,175.926,0z"/>
<path style="fill:#915016;" d="M385.066,18.632c-10.311-3.001-21.124-1.722-30.45,3.601c-9.451,5.395-16.151,14.208-18.863,24.816
	c-23.06,90.183-64.047,178.031-121.822,261.107c-46.594,66.999-91.092,111.565-108.06,127.616
	c-7.768,7.347-9.639,19.079-4.549,28.531c3.234,6.004,8.896,10.348,15.538,11.918c1.802,0.425,3.629,0.635,5.447,0.635
	c4.811,0,9.55-1.467,13.539-4.272C346.302,324.674,399.708,137.15,412.901,63.39C416.454,43.527,404.488,24.285,385.066,18.632z"/>
<path style="fill:#6A3A0E;" d="M385.066,18.632c-10.311-3.001-21.124-1.722-30.45,3.601c-1.278,0.729-2.501,1.526-3.675,2.377
	c11.921,8.649,18.351,23.527,15.623,38.78c-12.944,72.366-64.614,254.237-265.315,400.767c0.026,0.048,0.045,0.098,0.071,0.146
	c3.234,6.004,8.896,10.348,15.538,11.918c1.802,0.425,3.629,0.635,5.447,0.635c4.811,0,9.55-1.467,13.539-4.272
	C346.302,324.674,399.708,137.15,412.901,63.39C416.454,43.527,404.488,24.285,385.066,18.632z"/>
<g>
</g>
<g>
</g>
<g>
</g>
<g>
</g>
<g>
</g>
<g>
</g>
<g>
</g>
<g>
</g>
<g>
</g>
<g>
</g>
<g>
</g>
<g>
</g>
<g>
</g>
<g>
</g>
<g>
</g>
</svg>
