<?xml version="1.0" encoding="iso-8859-1"?>
<!-- Generator: Adobe Illustrator 19.0.0, SVG Export Plug-In . SVG Version: 6.00 Build 0)  -->
<svg version="1.1" id="Layer_1" xmlns="http://www.w3.org/2000/svg" xmlns:xlink="http://www.w3.org/1999/xlink" x="0px" y="0px"
	 viewBox="0 0 512 512" style="enable-background:new 0 0 512 512;" xml:space="preserve">
<path style="fill:#FFF4CA;" d="M512,261.362c0,6.722-2.719,12.808-7.122,17.211c-4.403,4.403-10.489,7.122-17.211,7.122H24.333
	C10.888,285.695,0,274.807,0,261.362c0-6.722,2.719-12.808,7.122-17.211s10.488-7.134,17.211-7.134h463.335
	C501.112,237.018,512,247.918,512,261.362z"/>
<rect x="307.77" y="237.017" style="fill:#FFEB96;" width="133.225" height="48.677"/>
<rect x="22.352" y="285.683" style="fill:#B28965;" width="467.296" height="187.382"/>
<g>
	<rect x="307.77" y="285.683" style="fill:#A07852;" width="133.235" height="74.761"/>
	<rect x="22.35" y="342.715" style="fill:#A07852;" width="467.306" height="29.758"/>
	<rect x="22.35" y="285.693" style="fill:#A07852;" width="467.306" height="29.758"/>
	<rect x="22.35" y="407.472" style="fill:#A07852;" width="467.306" height="29.758"/>
</g>
<path style="fill:#FF0435;" d="M413.563,342.785H334.25V231.312c0-5.902,4.784-10.686,10.686-10.686h57.94
	c5.902,0,10.686,4.784,10.686,10.686L413.563,342.785L413.563,342.785z"/>
<g>
	<path style="fill:#896746;" d="M496.236,350.444H15.764c-4.267,0-7.726-3.459-7.726-7.726s3.459-7.726,7.726-7.726h480.473
		c4.268,0,7.726,3.459,7.726,7.726S500.504,350.444,496.236,350.444z"/>
	<path style="fill:#896746;" d="M496.236,415.202H273.547c-4.268,0-7.726-3.459-7.726-7.726s3.458-7.726,7.726-7.726h222.689
		c4.268,0,7.726,3.459,7.726,7.726S500.504,415.202,496.236,415.202z"/>
	<path style="fill:#896746;" d="M238.21,415.202H15.764c-4.267,0-7.726-3.459-7.726-7.726s3.459-7.726,7.726-7.726H238.21
		c4.267,0,7.726,3.459,7.726,7.726S242.477,415.202,238.21,415.202z"/>
	<path style="fill:#896746;" d="M496.236,480.608H15.764c-4.267,0-7.726-3.459-7.726-7.726s3.459-7.726,7.726-7.726h480.473
		c4.268,0,7.726,3.459,7.726,7.726S500.504,480.608,496.236,480.608z"/>
</g>
<g>
	<path style="fill:#BC9A7B;" d="M140.634,380.202h-34.538c-4.267,0-7.726-3.459-7.726-7.726s3.459-7.726,7.726-7.726h34.538
		c4.267,0,7.726,3.459,7.726,7.726S144.901,380.202,140.634,380.202z"/>
	<path style="fill:#BC9A7B;" d="M489.648,371.722v15.309c-0.33,0.051-0.67,0.072-1.01,0.072h-59.906
		c-4.265,0-7.726-3.461-7.726-7.726s3.461-7.726,7.726-7.726h59.906C488.978,371.65,489.318,371.67,489.648,371.722z"/>
	<path style="fill:#BC9A7B;" d="M302.894,451.841h-59.901c-4.267,0-7.726-3.459-7.726-7.726s3.459-7.726,7.726-7.726h59.901
		c4.268,0,7.726,3.459,7.726,7.726S307.161,451.841,302.894,451.841z"/>
	<path style="fill:#BC9A7B;" d="M226.067,323.18h-38.663c-4.267,0-7.726-3.459-7.726-7.726s3.459-7.726,7.726-7.726h38.663
		c4.267,0,7.726,3.459,7.726,7.726S230.334,323.18,226.067,323.18z"/>
</g>
<g>
	<path style="fill:#B5DFF6;" d="M476.551,182.993h-37.42c-4.268,0-7.726-3.459-7.726-7.726s3.458-7.726,7.726-7.726h37.42
		c4.268,0,7.726,3.459,7.726,7.726S480.818,182.993,476.551,182.993z"/>
	<path style="fill:#B5DFF6;" d="M350.871,189.93h-37.42c-4.268,0-7.726-3.459-7.726-7.726s3.458-7.726,7.726-7.726h37.42
		c4.268,0,7.726,3.459,7.726,7.726S355.138,189.93,350.871,189.93z"/>
	<path style="fill:#B5DFF6;" d="M498.685,136.652h-21.158c-4.268,0-7.726-3.459-7.726-7.726s3.458-7.726,7.726-7.726h21.158
		c4.268,0,7.726,3.459,7.726,7.726S502.953,136.652,498.685,136.652z"/>
	<path style="fill:#B5DFF6;" d="M379.945,136.652h-84.438c-4.268,0-7.726-3.459-7.726-7.726s3.458-7.726,7.726-7.726h84.438
		c4.268,0,7.726,3.459,7.726,7.726S384.213,136.652,379.945,136.652z"/>
	<path style="fill:#B5DFF6;" d="M207.107,182.993h-37.42c-4.267,0-7.726-3.459-7.726-7.726s3.459-7.726,7.726-7.726h37.42
		c4.267,0,7.726,3.459,7.726,7.726S211.374,182.993,207.107,182.993z"/>
	<path style="fill:#B5DFF6;" d="M106.096,189.93H34.976c-4.267,0-7.726-3.459-7.726-7.726s3.459-7.726,7.726-7.726h71.12
		c4.267,0,7.726,3.459,7.726,7.726S110.363,189.93,106.096,189.93z"/>
	<path style="fill:#B5DFF6;" d="M229.241,106.23h-21.159c-4.267,0-7.726-3.459-7.726-7.726s3.459-7.726,7.726-7.726h21.159
		c4.267,0,7.726,3.459,7.726,7.726S233.508,106.23,229.241,106.23z"/>
	<path style="fill:#B5DFF6;" d="M130.71,136.652h-24.614c-4.267,0-7.726-3.459-7.726-7.726s3.459-7.726,7.726-7.726h24.614
		c4.267,0,7.726,3.459,7.726,7.726S134.977,136.652,130.71,136.652z"/>
	<path style="fill:#B5DFF6;" d="M426.034,86.777h-21.159c-4.268,0-7.726-3.459-7.726-7.726s3.458-7.726,7.726-7.726h21.159
		c4.268,0,7.726,3.459,7.726,7.726S430.302,86.777,426.034,86.777z"/>
	<path style="fill:#B5DFF6;" d="M140.634,46.845H81.851c-4.267,0-7.726-3.459-7.726-7.726s3.459-7.726,7.726-7.726h58.784
		c4.267,0,7.726,3.459,7.726,7.726S144.901,46.845,140.634,46.845z"/>
	<path style="fill:#B5DFF6;" d="M341.84,57.726h-48c-4.268,0-7.726-3.459-7.726-7.726s3.458-7.726,7.726-7.726h48
		c4.268,0,7.726,3.459,7.726,7.726S346.108,57.726,341.84,57.726z"/>
</g>
<g>
</g>
<g>
</g>
<g>
</g>
<g>
</g>
<g>
</g>
<g>
</g>
<g>
</g>
<g>
</g>
<g>
</g>
<g>
</g>
<g>
</g>
<g>
</g>
<g>
</g>
<g>
</g>
<g>
</g>
</svg>
