<?xml version="1.0" encoding="utf-8"?>
<!-- Generator: Adobe Illustrator 19.0.0, SVG Export Plug-In . SVG Version: 6.00 Build 0)  -->
<svg version="1.1" id="Layer_1" xmlns="http://www.w3.org/2000/svg" xmlns:xlink="http://www.w3.org/1999/xlink" x="0px" y="0px"
	 viewBox="14 -14 640 640" style="enable-background:new 14 -14 640 640;" xml:space="preserve">
<style type="text/css">
	.st0{fill:#E7BB9F;}
	.st1{fill:#DA9D75;}
	.st2{fill:#E0E0E2;}
	.st3{fill:#ACABB1;}
	.st4{fill:#898890;}
	.st5{fill:#CC7400;}
	.st6{fill:#AA6100;}
	.st7{fill:#9A4C00;}
	.st8{fill:#C6C5CA;}
	.st9{fill:#D8D7DA;}
	.st10{fill:#FFE477;}
	.st11{fill:#FFDA44;}
	.st12{fill:#F0C419;}
	.st13{fill:#E64C3C;}
	.st14{fill:#F3D55B;}
	.st15{fill:#F29C1F;}
	.st16{fill:#FFBE00;}
	.st17{fill:#FFDF46;}
	.st18{fill:#FF8C00;}
	.st19{fill:#FF5A00;}
	.st20{fill:#BD2025;}
	.st21{fill:#6F0E10;}
</style>
<path class="st0" d="M387.2,488.1l-29.8,24.1c-9.5,7.7-23.6,4.7-29.1-6.2c-34-67.6-149.2-207.9-149.2-207.9l33.6-27.1
	c0,0,105.6,132,174.4,187.3C396.6,465.9,396.7,480.4,387.2,488.1L387.2,488.1z"/>
<path class="st1" d="M338.2,432.6c-10.8-14.7-22.7-31.6-28.4-48.5c-3.6-10.6-3.4-17.5-2.5-22.9c-44.4-52.2-77.3-93.2-77.3-93.2
	l-33.6,27.1c0,0,163.2,199.7,216.7,291.5c8.6,14.8,25.7,21.5,35.2,13.8l14.2-11.5C450.7,577.8,367.8,472.8,338.2,432.6L338.2,432.6z
	"/>
<path class="st2" d="M245.4,106.4c-9.4-3.5-19.7,1.3-23.1,10.7c-13.3,37.7-42.6,65.3-65.6,82.3L127.5,223
	c-21.4,19-54.6,41.7-94.3,46.8c-9.9,1.3-16.7,10.4-15.3,20.3c7.2,49.8,54,106,97.1,121.6c9.6,3.5,20.2-1.8,23.1-11.6
	c6.3-21.3,22.1-60.3,58.7-91.3l29.3-23.6c38-29.2,79.4-36.5,101.6-38.1c10.2-0.8,17.6-10,16.2-20.1
	C337.7,181.5,292.6,123.9,245.4,106.4z"/>
<g>
	<path class="st3" d="M126.9,179l-13.1,10.6c-12.3,9.9-14.2,27.9-4.3,40.2l77.2,95.6c9.9,12.3,27.9,14.2,40.2,4.3L240,319
		c12.3-9.9,14.2-27.9,4.3-40.2l-77.2-95.6C157.2,171,139.2,169,126.9,179z"/>
	<path class="st4" d="M144.9,381.1c-52.2-14.4-88.5-71.2-96.2-114.2l0,0c-5,1.3-10.2,2.2-15.5,2.9c-9.9,1.3-16.7,10.4-15.3,20.3
		c7.2,49.8,54,106,97.1,121.6c9.6,3.5,20.2-1.8,23.1-11.6C139.7,394.8,141.9,388.3,144.9,381.1z"/>
	<path class="st4" d="M245.4,106.4c-9.4-3.5-19.7,1.3-23.1,10.7c-1.6,4.5-3.4,8.8-5.4,13l0.8,0.3c40.4,16.6,88.3,64.1,91.4,118.1
		l-0.2,1c7.1-1.2,13.5-2,18.8-2.4c10.2-0.8,17.6-10,16.2-20.1C337.7,181.5,292.6,123.9,245.4,106.4L245.4,106.4z"/>
</g>
<path class="st5" d="M170.6,583.3L170.6,583.3c-6-6-6-15.6,0-21.6l323.1-323.3l21.6,21.6L192.2,583.3
	C186.2,589.2,176.5,589.2,170.6,583.3z"/>
<g>
	<path class="st6" d="M493.7,238.4L170.6,561.6c-6,6-6,15.7,0,21.6l0,0l333.9-334.1L493.7,238.4z"/>
	<path class="st6" d="M312.9,453.2l-11.9-12c-5.4-5.4-5.4-14.2,0-19.7l52.6-52.7c5.4-5.4,14.3-5.4,19.7,0l11.9,12
		c5.4,5.4,5.4,14.2,0,19.7l-52.6,52.7C327.1,458.6,318.3,458.6,312.9,453.2z"/>
</g>
<path class="st7" d="M316.7,437.3l52.6-52.7c4.8-4.8,12.1-5.4,17.6-1.7c-0.5-0.8-1.1-1.5-1.7-2.1l-11.9-12c-5.4-5.4-14.2-5.4-19.7,0
	l-52.6,52.7c-5.4,5.4-5.4,14.3,0,19.7l11.9,12c0.7,0.7,1.4,1.2,2.1,1.7C311.4,449.5,312,442.1,316.7,437.3z"/>
<polygon class="st8" points="486,289.4 464.3,267.8 519.2,212.9 540.8,234.5 "/>
<g>
	<polygon class="st3" points="530,223.7 519.2,212.9 464.3,267.8 475.1,278.6 	"/>
	<polygon class="st3" points="522.8,252.5 540.8,234.5 519.2,212.9 493.7,238.4 	"/>
	<polygon class="st3" points="482.3,249.7 464.3,267.8 486,289.4 511.4,263.9 	"/>
</g>
<g>
	<polygon class="st4" points="493.7,238.4 508.2,245.5 530,223.7 519.2,212.9 	"/>
	<polygon class="st4" points="464.3,267.8 475.1,278.6 496.9,256.8 482.3,249.7 	"/>
</g>
<path class="st2" d="M559.1,238.7c-12.1,12.1-31.8,12.1-43.9,0c-12.1-12.1-12.1-31.8,0-43.9c8.5-8.5,65-43.7,98.5-64.2
	c6.3-3.9,13.5,3.4,9.6,9.6C602.7,173.7,567.5,230.3,559.1,238.7z"/>
<path class="st9" d="M622.1,131.5c-2.1-2-5.4-2.8-8.5-0.9c-33.5,20.5-90,55.7-98.5,64.2c-12.1,12.1-12.1,31.7-0.1,43.8L622.1,131.5z
	"/>
<path class="st10" d="M484,305.3l-35.6-35.6c-6.2-6.2-6.2-16.3,0-22.5l0,0c6.2-6.2,16.3-6.2,22.5,0l35.6,35.6
	c6.2,6.2,6.2,16.3,0,22.5l0,0C500.3,311.4,490.2,311.4,484,305.3z"/>
<path class="st11" d="M466.7,265.4L466.7,265.4c6.2-6.2,16.3-6.2,22.5,0L471,247.2c-6.2-6.2-16.3-6.2-22.5,0l0,0
	c-6.2,6.2-6.2,16.3,0,22.5l18.2,18.2C460.5,281.7,460.5,271.6,466.7,265.4z"/>
<g id="_x30_07---Roman-Shield">
	<path id="Shape" class="st12" d="M226.7,554.2c22.4,44.7,214.2,44.8,236.6,0V295c-22.4-44.7-214.2-44.8-236.6,0V554.2z"/>
	<path id="Shape_1_" class="st13" d="M226.7,536.3c22.4,38.6,214.2,38.6,236.6,0V312.9c-22.4-38.6-214.2-38.6-236.6,0V536.3z"/>
	<path id="Rectangle-path" class="st12" d="M226.7,413.3h84.5v22.5h-84.5V413.3z"/>
	<path id="Rectangle-path_1_" class="st12" d="M378.8,413.3h84.5v22.5h-84.5V413.3z"/>
	<g>
		<path id="Shape_2_" class="st14" d="M333.1,377l-11.3-22.5c-1.3-2.5-4.2-3.7-6.8-2.8l-12.3,4.1l-8.6-17.3l4,1.3
			c3,1,6.1-0.6,7.1-3.6c1-3-0.6-6.1-3.6-7.1l-16.9-5.6c-1.4-0.5-3-0.4-4.3,0.3s-2.4,1.8-2.8,3.3L272,344c-0.6,1.9-0.2,4,1.1,5.5
			c1.3,1.5,3.4,2.2,5.4,1.8c2-0.4,3.6-1.8,4.2-3.7l1.3-4l10.8,21.6c1.3,2.5,4.2,3.7,6.8,2.8l12.3-4.1l9.1,18.2
			c1.4,2.8,4.8,3.9,7.6,2.5C333.4,383.2,334.5,379.8,333.1,377L333.1,377z"/>
		<path id="Shape_3_" class="st14" d="M332,327.2l7.3-7.3v59.6c0,3.1,2.5,5.6,5.6,5.6s5.6-2.5,5.6-5.6v-59.6
			c8.2,8.3,8.6,8.9,11.3,8.9c2.3,0,4.3-1.4,5.2-3.5c0.9-2.1,0.4-4.5-1.2-6.1l-16.9-16.9c-1.6-1.6-4-2.1-6.1-1.2
			c-1.5,0.6-0.4-0.2-18.7,18.1c-2.1,2.2-2.1,5.7,0.1,7.9C326.3,329.3,329.8,329.3,332,327.2L332,327.2z"/>
		<path id="Shape_4_" class="st14" d="M357.9,522l-7.3,7.3v-59.6c0-3.1-2.5-5.6-5.6-5.6s-5.6,2.5-5.6,5.6v59.6L332,522
			c-2.2-2.1-5.7-2.1-7.9,0.1c-2.2,2.2-2.2,5.7-0.1,7.9c18.5,18.5,17.3,17.5,18.7,18.1c2.1,0.9,4.5,0.4,6.1-1.2l16.9-16.9
			c2.1-2.2,2.1-5.7-0.1-7.9S360.1,519.9,357.9,522L357.9,522z"/>
		<path id="Shape_5_" class="st14" d="M361.9,385.2c2.1,0,4.1-1.2,5.1-3.1l9.1-18.2l12.3,4.1c2.7,0.9,5.6-0.3,6.8-2.8l10.8-21.6
			l1.3,4c0.6,1.9,2.2,3.3,4.2,3.7c2,0.4,4-0.3,5.4-1.8c1.3-1.5,1.8-3.6,1.1-5.5c-6.1-18.3-5.7-17.6-6.7-18.8c-1.5-1.7-3.9-2.4-6-1.7
			l-16.9,5.6c-3,1-4.6,4.2-3.6,7.1s4.2,4.6,7.1,3.6l4-1.3l-8.6,17.3l-12.3-4.1c-2.7-0.9-5.6,0.3-6.8,2.8L356.9,377
			c-0.9,1.7-0.8,3.8,0.2,5.5S359.9,385.2,361.9,385.2L361.9,385.2z"/>
		<path id="Shape_6_" class="st14" d="M330.6,464.6c-1.3-0.7-2.9-0.8-4.3-0.3c-1.4,0.5-2.6,1.5-3.3,2.8l-9.1,18.2l-12.3-4.1
			c-2.7-0.9-5.6,0.3-6.8,2.8L284,505.6l-1.3-4c-1-3-4.2-4.6-7.1-3.6c-3,1-4.6,4.2-3.6,7.1c5.9,17.8,5.6,17.4,6.7,18.7
			c0.7,0.8,1.6,1.4,2.6,1.8c2.3,0.7,1.7,0.6,20.3-5.7c3-1,4.6-4.2,3.6-7.1c-1-3-4.2-4.6-7.1-3.6l-4,1.3l8.6-17.3l12.3,4.1
			c2.7,0.9,5.6-0.3,6.8-2.8l11.3-22.5C334.5,469.4,333.4,466,330.6,464.6L330.6,464.6z"/>
		<path id="Shape_7_" class="st14" d="M414.3,498.1c-3-1-6.1,0.6-7.1,3.6l-1.3,4l-10.8-21.6c-1.3-2.5-4.2-3.7-6.8-2.8l-12.3,4.1
			l-9.1-18.2c-0.9-1.8-2.7-3-4.7-3.1c-2-0.1-3.9,0.8-5,2.5c-1.1,1.7-1.2,3.8-0.3,5.6l11.3,22.5c1.3,2.5,4.2,3.7,6.8,2.8l12.3-4.1
			l8.6,17.3l-4-1.3c-3-1-6.1,0.6-7.1,3.6c-1,3,0.6,6.1,3.6,7.1c18.5,6.2,18.1,6.5,20.7,5.5c1.5-0.6,2.7-1.8,3.3-3.4
			c0.3-0.9-1.1,3.3,5.7-17C418.9,502.3,417.3,499.1,414.3,498.1L414.3,498.1z"/>
	</g>
	<path id="Rectangle-path_2_" class="st15" d="M322.4,379.5h45.1c6.2,0,11.3,5,11.3,11.3v67.6c0,6.2-5,11.3-11.3,11.3h-45.1
		c-6.2,0-11.3-5-11.3-11.3v-67.6C311.2,384.6,316.2,379.5,322.4,379.5z"/>
	<circle id="Oval" class="st12" cx="345" cy="424.6" r="16.9"/>
</g>
<g>
	<path class="st16" d="M339.8,189.7c-3.3,0-5.9-2.7-5.9-5.9s2.7-5.9,5.9-5.9c3.7,0,6.8-3,6.8-6.8v-19.1c0-10.3,8.4-18.7,18.7-18.7
		c10.2,0,18.7,8.3,18.7,18.7v6.4c0,3.3-2.7,5.9-5.9,5.9c-3.3,0-5.9-2.7-5.9-5.9v-6.4c0-3.8-3.1-6.8-6.8-6.8c-3.7,0-6.8,3-6.8,6.8
		V171C358.4,181.3,350.1,189.7,339.8,189.7z"/>
	<path class="st17" d="M498.3,162.3V62.2c0-3.3-2.7-5.9-5.9-5.9h-44.5c-3.3,0-5.9,2.7-5.9,5.9c0,12-6.4,23.3-16.8,29.4l-22.9,13.6
		c-18.7,11.1-30.3,31.4-30.3,53.1v25.4c0,3.3,2.7,5.9,5.9,5.9h51.7c3.3,0,5.9-2.7,5.9-5.9v-0.8l37.3-28v28.8c0,3.3,2.7,5.9,5.9,5.9
		h19.9c3.3,0,5.9-2.7,5.9-5.9V180C504.7,173.5,502.5,167.3,498.3,162.3z"/>
	<path class="st16" d="M472.9,183.7c0,3.3,2.7,5.9,5.9,5.9h19.9c3.3,0,5.9-2.7,5.9-5.9V180c0-6.5-2.2-12.7-6.4-17.6V62.2
		c0-3.3-2.7-5.9-5.9-5.9H461v107.5l11.9-8.9V183.7z"/>
	<path class="st16" d="M447.3,174.1c-1.1-8.3-6.2-15.3-13.3-19l1.7-1.7c7.8-7.8,9.7-19.6,4.9-29.4c-1.5-3.2-5.6-4.6-8.7-2.5
		c-2.5,1.7-3.3,4.9-2,7.6c2.7,5.3,1.6,11.7-2.6,15.9l-9,9c-1.7,1.7-2.2,4.3-1.3,6.5c0.9,2.2,3.1,3.7,5.5,3.7
		c7.2,0,13.1,5.9,13.1,13.1v5.5L447.3,174.1z"/>
	<path class="st18" d="M467,120.5c-3.3,0-5.9,2.7-5.9,5.9v37.3l11.9-8.9v-28.4C472.9,123.2,470.3,120.5,467,120.5z"/>
	<path class="st18" d="M523.8,29c0-11.2-4.4-21.8-12.3-29.7C498.1-14.1,482.1-13,479.7-13c-27.9,0-50.4,22.5-50.4,50.5
		c0,13.9,8.2,26.6,21,32.2l17.1,7.6c11.6,5.2,19.1,16.7,19.1,29.4v19.7c0,3.3,2.7,5.9,5.9,5.9c1.6,0,3.1-0.6,4.2-1.7
		c8.7-8.7,15.4-18.8,20.1-30.1c4.7-11.3,7.1-23.3,7.1-35.5V29C523.8,29,523.8,29,523.8,29L523.8,29z"/>
	<path class="st19" d="M486.5,106.8v19.7c0,3.3,2.7,5.9,5.9,5.9c1.6,0,3.1-0.6,4.2-1.7c8.7-8.7,15.4-18.8,20.1-30.1
		c4.7-11.3,7.1-23.3,7.1-35.5V29c0,0,0,0,0,0c0-11.2-4.4-21.8-12.3-29.7C498.1-14.1,482.1-13,479.7-13c-6.6,0-12.9,1.3-18.6,3.6v84
		l6.3,2.8C479,82.5,486.5,94.1,486.5,106.8L486.5,106.8z"/>
	<path class="st16" d="M530.6,68.8h-15c-19.6,0-35.5-15.9-35.5-35.5c0-11.4,11.6-19,22-14.5L532.9,32c2.2,0.9,3.6,3.1,3.6,5.5v25.4
		C536.5,66.2,533.8,68.8,530.6,68.8z"/>
</g>
<path class="st20" d="M615.7,128.7c-21.7,13.3-53.2,32.8-74.9,47.2c1.2,2.4,1.5,5.2,0.8,7.9c0.6,0.2,1.2,0.4,1.6,0.5
	c5.8,1.4,12.8,5.1,17.1,9.3c4.2,4.1,5.6,10.9,8,15.1c-0.2-0.4,1.4,1.8,1.9,2.3c0.6,0.7,1.3,1.4,1.9,2.1c1.2,1.5,2.3,3,3,4.7
	c14.5-21.7,35.9-56.1,50.2-79.4C629.2,132,621.9,124.8,615.7,128.7z"/>
<path class="st21" d="M542.7,183.7c0.6,0.2,1.2,0.4,1.6,0.5c5.8,1.4,12.8,5.1,17.1,9.3c0,0,0,0,0,0l63.9-63.9
	c-2.1-2-5.4-2.8-8.5-0.9c-21.7,13.3-53.2,32.8-74.9,47.2C543.1,178.2,543.4,181.1,542.7,183.7z"/>
<path class="st20" d="M199.9,171.6c3.3,1.2,6.2,2,9.4,1.9c4.4-0.1,8.4-2.4,12.6-3.7c10-3,16.9,0.7,25.3,5.6
	c6.4,3.8,16.2,0.6,23.1-0.5c13.1-2,32-3.1,40.5,9.6c2.1,3.2,3.2,6.8,4.2,10.5c0.1,0,0.1-0.1,0.1-0.1c4.8-3.4,10.8-5.5,16.6-4.8
	c-17.6-36-51.6-71.4-86.8-84.5c-9.4-3.5-19.7,1.3-23.1,10.7c-6.9,19.5-18.1,36.3-30.4,50.3C193.9,168.8,196.9,170.5,199.9,171.6z"/>
<g>
	<path class="st21" d="M276.4,174.1c12.3-1.2,27.1-0.4,34.3,10.4c2.1,3.2,3.2,6.8,4.2,10.5c0.1,0,0.1-0.1,0.1-0.1
		c4.8-3.4,10.8-5.5,16.6-4.8c-17.6-36-51.6-71.4-86.8-84.5c-9.4-3.5-19.7,1.3-23.1,10.7c-1.6,4.5-3.4,8.8-5.4,13l0.8,0.3
		C237.2,137.8,259.1,153.6,276.4,174.1z"/>
</g>
</svg>
