<svg height="512pt" viewBox="0 0 512 512" width="512pt" xmlns="http://www.w3.org/2000/svg"><path d="m0 270v15c0 57.890625 47.109375 105 105 105h30v-120zm0 0" fill="#53433f"/><path d="m512 240v86.398438l-11.101562 3c-78.296876 21-74.699219 17.101562-84.898438 27.597656-2.402344 3.304687-16.5 13.5-21.601562 33.003906l-124.398438 26.699219-15 3.300781-135-30v-150zm0 0" fill="#68544f"/><path d="m512 240v86.398438l-11.101562 3c-78.296876 21-74.699219 17.101562-84.898438 27.597656-2.402344 3.304687-16.5 13.5-21.601562 33.003906l-124.398438 26.699219v-176.699219zm0 0" fill="#53433f"/><path d="m90 60h422v60h-422zm0 0" fill="#c6715a"/><path d="m90 90h422v30h-422zm0 0" fill="#99503d"/><path d="m0 120h60v30h-60zm0 0" fill="#ffbd86"/><path d="m68.296875 181.578125 13.414063 26.835937-59.996094 30-13.417969-26.835937zm0 0" fill="#ffbd86"/><path d="m240 0v180h-90v-120l30-60zm0 0" fill="#68544f"/><path d="m150 90h90v90h-90zm0 0" fill="#53433f"/><path d="m458.300781 497h-374.601562l40.800781-40.5c10.5-10.800781 10.5-30.199219 0-41l-4.5-4.199219v-21.300781h274.398438c-1.199219 4.5-2.097657 9.300781-2.097657 15 0 15.597656 6 31 16.800781 42.101562zm0 0" fill="#53433f"/><path d="m458.300781 497h-188.300781v-107h124.402344c-1.203125 4.5-2.101563 9.300781-2.101563 15 0 15.597656 6 31 16.800781 42.101562zm0 0" fill="#3e322e"/><path d="m60 482h422v30h-422zm0 0" fill="#68544f"/><path d="m270 482h212v30h-212zm0 0" fill="#53433f"/></svg>