<?xml version="1.0" encoding="UTF-8" standalone="no"?>
<!DOCTYPE svg PUBLIC "-//W3C//DTD SVG 1.1//EN" "http://www.w3.org/Graphics/SVG/1.1/DTD/svg11.dtd">
<svg version="1.1" xmlns="http://www.w3.org/2000/svg" xmlns:xlink="http://www.w3.org/1999/xlink" preserveAspectRatio="xMidYMid meet" viewBox="0 0 640 640" width="640" height="640"><defs><path d="M594.58 406.94C589.78 414.82 587.11 419.21 586.58 420.08C580.1 430.74 568.5 437.23 556.04 437.22C554.12 437.21 544.5 437.2 527.18 437.17L285 436.72C210.72 521.26 169.46 568.23 161.21 577.62C66.1 534.33 0 438.48 0 327.17C0 265.76 20.13 209.05 54.16 163.26C77.37 160.55 263.11 138.86 286.32 136.15C325.77 131.55 365.18 144.88 393.73 172.48C404.15 182.55 456.26 232.92 550.04 323.58L588.68 360.93L610.02 381.57L594.58 406.94Z" id="aGbnZiXAy"></path><path d="M390.92 263.89C381.45 261.67 375.57 252.2 377.79 242.73C377.79 242.73 377.79 242.73 377.79 242.73C401.79 248.35 415.12 251.48 417.79 252.1C427.26 254.32 433.13 263.79 430.92 273.26C430.92 273.26 430.92 273.26 430.92 273.26C406.92 267.64 393.58 264.51 390.92 263.89Z" id="h8rjgxMZoU"></path><path d="M298.07 216.74C298.07 216.74 259.27 163.93 206.46 160.69C206.46 160.69 204.69 179.46 207.64 199.95C211.07 223.73 230.69 241.87 254.68 243.28C256.35 243.38 264.7 243.87 279.75 244.76" id="c1Tm5UFKIN"></path><path d="M217.24 182.25C217.24 182.25 209.69 242.6 280.82 228.59C268.11 219.32 259.27 193.03 217.24 182.25Z" id="cBUAdNTq9"></path><path d="M594.58 406.94C586.03 401.75 580.32 392.32 580.32 381.57C580.32 373.55 583.51 366.26 588.68 360.93C590.1 362.31 597.22 369.19 610.02 381.57C600.76 396.79 595.61 405.25 594.58 406.94Z" id="a5PhR28CmC"></path><path d="M407.19 38.04C488.04 33.45 545.16 92.73 640 56.09C640 56.09 614.88 123.36 484.64 97.81C394.54 80.13 366.25 118.52 361.66 152.07C358.71 173.62 340.59 189.87 318.87 190.91C318.87 190.91 318.87 190.91 318.87 190.91C290.45 192.26 267.72 167.45 271.7 139.28C277.32 99.42 305.54 49.98 407.19 38.04Z" id="f1r05bXSLW"></path><path d="M610.55 448.22C605.91 450.89 599.98 449.31 597.3 444.67C594.87 440.47 575.48 406.86 573.05 402.66C570.37 398.02 571.96 392.09 576.6 389.41C576.6 389.41 576.6 389.41 576.6 389.41C581.24 386.74 587.17 388.32 589.85 392.96C592.28 397.16 611.68 430.77 614.1 434.97C616.78 439.61 615.19 445.54 610.55 448.22C610.55 448.22 610.55 448.22 610.55 448.22Z" id="fkHLv5lsZ"></path></defs><g><g><g><use xlink:href="#aGbnZiXAy" opacity="1" fill="#937051" fill-opacity="1"></use><g><use xlink:href="#aGbnZiXAy" opacity="1" fill-opacity="0" stroke="#000000" stroke-width="1" stroke-opacity="0"></use></g></g><g><use xlink:href="#h8rjgxMZoU" opacity="1" fill="#4d4d4d" fill-opacity="1"></use><g><use xlink:href="#h8rjgxMZoU" opacity="1" fill-opacity="0" stroke="#000000" stroke-width="1" stroke-opacity="0"></use></g></g><g><use xlink:href="#c1Tm5UFKIN" opacity="1" fill="#a07c62" fill-opacity="1"></use><g><use xlink:href="#c1Tm5UFKIN" opacity="1" fill-opacity="0" stroke="#000000" stroke-width="1" stroke-opacity="0"></use></g></g><g><use xlink:href="#cBUAdNTq9" opacity="1" fill="#6d523e" fill-opacity="1"></use><g><use xlink:href="#cBUAdNTq9" opacity="1" fill-opacity="0" stroke="#000000" stroke-width="1" stroke-opacity="0"></use></g></g><g><use xlink:href="#a5PhR28CmC" opacity="1" fill="#4d4d4d" fill-opacity="1"></use><g><use xlink:href="#a5PhR28CmC" opacity="1" fill-opacity="0" stroke="#000000" stroke-width="1" stroke-opacity="0"></use></g></g><g><use xlink:href="#f1r05bXSLW" opacity="1" fill="#efdf9a" fill-opacity="1"></use><g><use xlink:href="#f1r05bXSLW" opacity="1" fill-opacity="0" stroke="#000000" stroke-width="1" stroke-opacity="0"></use></g></g><g><use xlink:href="#fkHLv5lsZ" opacity="1" fill="#efe373" fill-opacity="1"></use><g><use xlink:href="#fkHLv5lsZ" opacity="1" fill-opacity="0" stroke="#000000" stroke-width="1" stroke-opacity="0"></use></g></g></g></g></svg>