<?xml version="1.0" encoding="UTF-8" standalone="no"?>
<!DOCTYPE svg PUBLIC "-//W3C//DTD SVG 1.1//EN" "http://www.w3.org/Graphics/SVG/1.1/DTD/svg11.dtd">
<svg version="1.1" xmlns="http://www.w3.org/2000/svg" xmlns:xlink="http://www.w3.org/1999/xlink" preserveAspectRatio="xMidYMid meet" viewBox="0 0 640 640" width="640" height="640"><defs><path d="M321.5 3C145.6 3 3 145.6 3 321.5C3 497.4 145.6 640 321.5 640C497.4 640 640 497.4 640 321.5C640 145.6 497.4 3 321.5 3Z" id="h1SWYju00C"></path><path d="M321.5 33.82C162.62 33.82 33.82 162.62 33.82 321.5C33.82 480.38 162.62 609.18 321.5 609.18C480.38 609.18 609.18 480.38 609.18 321.5C609.18 162.62 480.38 33.82 321.5 33.82Z" id="b9A16WiQuf"></path><path d="M210.29 22.99C203.4 28.61 196.89 34.83 191.1 41.83C168.38 69.27 160.44 102.08 167.53 139.34C170.04 152.56 175.59 163.67 180.97 174.41C192.36 197.17 201.35 215.15 180.11 248.32C159.16 281.01 153.79 321.37 165.37 359.05C177.9 399.86 209.11 432.75 253.24 451.67C254.55 452.24 255.93 452.51 257.28 452.51C261.27 452.51 265.06 450.17 266.73 446.27C268.96 441.06 266.55 435.02 261.33 432.78C222.85 416.29 195.74 387.96 185.01 353.02C175.21 321.12 179.73 286.99 197.4 259.4C224.96 216.39 211.35 189.2 199.34 165.21C194.38 155.29 189.69 145.92 187.71 135.5C181.83 104.54 188.29 77.43 206.91 54.93C238.17 17.18 293.54 3.07 321.26 3.01C282.23 3.03 244.85 10.12 210.29 22.99Z" id="f2axvDhXq"></path><path d="M244.37 446.83C243.36 443.57 241.98 440.39 240.27 437.34C233.34 425.01 220.79 416.69 207.48 414.51C200.8 413.38 193.8 413.73 187.23 415.59C183.93 416.5 180.8 417.83 177.85 419.43C176.42 420.25 175.01 421.13 173.65 422.04C171.65 423.64 155.69 436.4 153.69 437.99C149.61 431.38 145.45 424.81 140.87 418.4C137.46 413.66 131.6 410.9 125.42 411.77C116.56 413.03 110.39 421.23 111.64 430.09C112.99 439.67 119.14 467.59 120.22 472.22C120.23 472.28 120.3 472.57 120.43 473.09C121.07 474.69 121.43 475.57 121.5 475.75C122.31 477.56 123.31 479.34 124.46 481.01C126.76 484.38 129.74 487.33 133.11 489.65C139.84 494.33 148.29 496.55 156.77 495.54C161 495.06 165.17 493.7 168.91 491.76C170.18 491.09 176.57 487.72 188.06 481.65C199.02 516.21 205.1 535.41 206.32 539.25C214.2 564.1 240.05 578.59 265.31 572.13C324.34 557.02 428.27 504.59 498.75 333.21C501.09 327.52 504.82 322.51 509.28 318.27C501.27 320.2 461.25 329.88 389.21 347.29C311.96 400.38 263.68 433.56 244.37 446.83Z" id="bB3BFzrPk"></path><path d="M424.24 105.74C356.15 105.74 300.95 160.94 300.95 229.04C300.95 297.13 356.15 352.33 424.24 352.33C492.33 352.33 547.54 297.13 547.54 229.04C547.54 160.94 492.33 105.74 424.24 105.74Z" id="b2BREjRDYa"></path><path d="M333.66 233.81C330.35 229.2 331.4 222.79 336.02 219.48C340.62 216.17 347.04 217.21 350.36 221.83C352.22 224.44 356.42 227.22 362.56 227.22C368.7 227.22 372.89 224.44 374.76 221.83C378.06 217.21 384.47 216.17 389.09 219.48C393.71 222.79 394.76 229.2 391.45 233.81C385.18 242.55 374.38 247.77 362.56 247.77C350.74 247.77 339.93 242.55 333.66 233.81Z" id="e5FbgZpO1"></path><path d="M352.66 289.25C349.43 295.8 342.02 300.77 333.32 302.21C330.62 302.65 327.95 302.7 325.36 302.45C330.43 309.27 336.17 315.53 342.51 321.16C355.25 317.53 365.7 309.28 371.09 298.33C373.6 293.24 371.51 287.08 366.42 284.57C361.31 282.05 355.17 284.16 352.66 289.25Z" id="b1uKkiDCO9"></path><path d="M244.37 446.83C244.45 447.09 244.87 448.41 245.63 450.78C248.29 460.16 249.77 465.37 250.06 466.42C253.42 478.26 265.8 484.9 277.58 481.34C304.65 473.15 352.34 450.05 395.68 385.58C400.06 379.06 396.6 370.27 388.98 368.35C379.29 365.9 369.99 362.47 361.19 358.16C231.7 411.08 267.73 429.09 244.37 446.83Z" id="buxra7iXv"></path><path d="M248 305.2C241.47 299.62 231.67 299.45 224.94 305.2C217.49 311.57 216.61 322.77 222.98 330.22C230.55 339.09 291.14 410 298.72 418.87C300.1 420.47 301.92 421.81 304.04 422.61C304.04 422.61 328.06 432.93 372.84 434.35C375.73 429.55 398.88 391.15 401.77 386.35C370.94 376.08 339.19 372.5 327.31 372.97C311.45 359.41 255.93 311.98 248 305.2Z" id="b3BR0hqWPw"></path><path d="M347.83 3.01L360.91 4.35L373.93 6.21L386.75 8.58L399.36 11.45L411.76 14.8L423.93 18.61L435.87 22.89L447.56 27.61L459 32.77L470.18 38.36L481.1 44.36L491.73 50.76L502.07 57.55L512.12 64.72L521.87 72.26L531.29 80.16L540.4 88.4L549.17 96.97L557.6 105.86L565.68 115.07L573.41 124.57L580.76 134.36L587.74 144.43L594.33 154.76L600.52 165.35L606.32 176.18L611.7 187.24L616.65 198.51L621.18 210L625.27 221.68L628.9 233.55L632.09 245.59L634.8 257.79L637.04 270.14L638.8 282.63L640.06 295.24L640.82 307.98L641.07 320.82L640.79 333.75L639.99 346.76L638.65 359.84L636.79 372.86L634.42 385.68L631.55 398.3L628.2 410.69L624.39 422.86L620.11 434.8L615.39 446.5L610.23 457.94L604.64 469.12L598.64 480.03L592.24 490.66L585.45 501.01L578.28 511.06L570.74 520.8L562.84 530.23L554.6 539.33L546.03 548.11L537.14 556.54L527.93 564.62L518.43 572.34L508.64 579.7L498.57 586.67L488.24 593.26L477.65 599.46L466.82 605.25L455.76 610.63L444.49 615.59L433 620.11L421.32 624.2L409.45 627.84L397.41 631.02L385.21 633.74L372.86 635.97L360.37 637.73L347.76 638.99L335.02 639.75L322.18 640L309.25 639.73L296.24 638.93L283.16 637.59L270.14 635.72L257.32 633.35L244.7 630.49L232.31 627.14L220.14 623.32L208.2 619.05L196.5 614.32L185.06 609.16L173.88 603.57L162.97 597.58L152.34 591.17L141.99 584.38L131.94 577.21L122.2 569.67L112.77 561.78L103.67 553.54L94.89 544.97L86.46 536.07L78.38 526.87L70.66 517.36L63.3 507.57L56.33 497.5L49.74 487.17L43.54 476.58L37.75 465.76L32.37 454.7L27.41 443.42L22.89 431.94L18.8 420.25L15.16 408.39L11.98 396.35L9.26 384.15L7.03 371.8L5.27 359.31L4.01 346.69L3.25 333.96L3 321.12L3.27 308.19L4.07 295.17L5.41 282.09L7.28 269.07L9.65 256.25L12.51 243.64L15.86 231.24L19.68 219.07L23.95 207.13L28.68 195.44L33.84 184L39.43 172.82L45.42 161.9L51.83 151.27L58.62 140.93L65.79 130.88L73.33 121.13L81.22 111.71L89.46 102.6L98.03 93.83L106.93 85.4L116.13 77.32L125.64 69.59L135.43 62.24L145.5 55.26L155.83 48.67L166.42 42.48L177.24 36.68L188.3 31.3L199.58 26.35L211.06 21.82L222.75 17.73L234.61 14.1L246.65 10.91L258.85 8.2L271.2 5.96L283.69 4.2L296.31 2.94L309.04 2.18L321.88 1.93L334.81 2.21L347.83 3.01ZM135.19 134.66L132.04 137.86L128.95 141.11L125.92 144.42L122.93 147.78L120.01 151.19L117.14 154.65L114.32 158.16L111.57 161.73L108.87 165.34L106.23 169L103.66 172.71L101.14 176.47L98.69 180.27L96.3 184.13L93.97 188.02L91.71 191.96L89.52 195.95L87.39 199.98L85.33 204.05L83.33 208.17L81.41 212.33L79.55 216.53L77.76 220.77L76.05 225.05L74.41 229.36L72.84 233.72L71.34 238.12L69.92 242.55L68.58 247.02L67.31 251.52L66.12 256.07L65 260.64L63.97 265.25L63.01 269.9L62.13 274.57L61.34 279.28L60.63 284.02L60 288.79L58.89 299.6L58.23 310.36L58.01 321.05L58.22 331.66L58.86 342.19L59.91 352.62L61.36 362.95L63.22 373.17L65.47 383.26L68.11 393.22L71.13 403.04L74.52 412.71L78.27 422.21L82.38 431.54L86.84 440.7L91.64 449.66L96.77 458.42L102.23 466.98L108.01 475.32L114.1 483.42L120.49 491.3L127.18 498.92L134.16 506.29L141.42 513.39L148.96 520.21L156.76 526.75L164.83 533L173.14 538.94L181.7 544.56L190.5 549.86L199.52 554.83L208.77 559.46L218.23 563.74L227.9 567.65L237.77 571.19L247.84 574.35L258.08 577.12L268.51 579.5L279.1 581.46L289.86 583L294.64 583.54L299.41 584L304.17 584.37L308.92 584.65L313.66 584.85L318.38 584.96L323.09 584.98L327.79 584.92L332.46 584.78L337.13 584.56L341.77 584.25L346.4 583.87L351 583.4L355.59 582.85L360.16 582.22L364.71 581.51L369.23 580.73L373.73 579.87L378.2 578.93L382.66 577.91L387.08 576.82L391.48 575.65L395.85 574.41L400.2 573.1L404.51 571.71L408.8 570.25L413.05 568.72L417.28 567.12L421.47 565.45L425.63 563.71L429.75 561.89L433.84 560.01L437.89 558.07L441.91 556.05L445.89 553.97L449.84 551.82L453.74 549.61L457.61 547.33L461.43 544.99L465.21 542.59L141.63 128.42L138.39 131.51L135.19 134.66ZM313.44 57.09L308.97 57.27L304.53 57.53L300.09 57.87L295.68 58.27L291.28 58.75L286.9 59.31L282.54 59.93L278.2 60.63L273.88 61.4L269.58 62.24L265.31 63.15L261.05 64.13L256.82 65.18L252.62 66.3L248.43 67.49L244.28 68.74L240.15 70.06L236.05 71.45L231.97 72.9L227.93 74.42L223.91 76L219.92 77.64L215.96 79.35L212.04 81.12L208.15 82.96L204.28 84.85L200.46 86.81L196.66 88.82L192.91 90.9L189.18 93.03L185.5 95.23L508.04 508.05L511.06 505L514.03 501.91L516.95 498.77L519.83 495.57L522.65 492.33L525.42 489.05L528.14 485.71L530.81 482.33L533.43 478.91L535.99 475.44L538.49 471.92L540.95 468.36L543.34 464.76L545.68 461.12L547.96 457.43L550.18 453.7L552.34 449.93L554.44 446.12L556.48 442.27L558.46 438.38L560.38 434.45L562.24 430.48L564.03 426.48L565.76 422.44L567.42 418.36L569.02 414.24L570.55 410.09L572.01 405.91L573.41 401.68L574.73 397.43L575.99 393.14L577.18 388.82L578.3 384.47L579.34 380.08L580.31 375.67L581.21 371.22L582.04 366.75L582.79 362.24L583.47 357.7L584.07 353.14L585.17 342.33L585.83 331.58L586.05 320.89L585.84 310.27L585.21 299.75L584.16 289.31L582.7 278.98L580.84 268.77L578.59 258.67L575.95 248.71L572.93 238.9L569.55 229.23L565.79 219.73L561.69 210.39L557.23 201.24L552.43 192.27L547.3 183.51L541.84 174.96L536.06 166.62L529.97 158.51L523.57 150.64L516.88 143.02L509.9 135.65L502.64 128.55L495.1 121.72L487.3 115.18L479.24 108.94L470.92 103L462.36 97.37L453.57 92.07L444.54 87.1L435.29 82.47L425.83 78.2L416.16 74.29L406.29 70.74L396.23 67.58L385.98 64.81L375.56 62.44L364.96 60.48L354.21 58.93L349.63 58.41L345.07 57.97L340.52 57.61L335.97 57.33L331.44 57.13L326.92 57L322.41 56.95L317.92 56.98L313.44 57.09Z" id="dLre28ihc"></path></defs><g><g><g><use xlink:href="#h1SWYju00C" opacity="1" fill="#fff0cf" fill-opacity="1"></use><g><use xlink:href="#h1SWYju00C" opacity="1" fill-opacity="0" stroke="#000000" stroke-width="1" stroke-opacity="0"></use></g></g><g><use xlink:href="#b9A16WiQuf" opacity="1" fill="#ffffff" fill-opacity="1"></use><g><use xlink:href="#b9A16WiQuf" opacity="1" fill-opacity="0" stroke="#000000" stroke-width="1" stroke-opacity="0"></use></g></g><g><use xlink:href="#f2axvDhXq" opacity="1" fill="#f5b97d" fill-opacity="1"></use><g><use xlink:href="#f2axvDhXq" opacity="1" fill-opacity="0" stroke="#000000" stroke-width="1" stroke-opacity="0"></use></g></g><g><use xlink:href="#bB3BFzrPk" opacity="1" fill="#e3aa75" fill-opacity="1"></use><g><use xlink:href="#bB3BFzrPk" opacity="1" fill-opacity="0" stroke="#000000" stroke-width="1" stroke-opacity="0"></use></g></g><g><use xlink:href="#b2BREjRDYa" opacity="1" fill="#f5b97d" fill-opacity="1"></use><g><use xlink:href="#b2BREjRDYa" opacity="1" fill-opacity="0" stroke="#000000" stroke-width="1" stroke-opacity="0"></use></g></g><g><use xlink:href="#e5FbgZpO1" opacity="1" fill="#b67f5f" fill-opacity="1"></use><g><use xlink:href="#e5FbgZpO1" opacity="1" fill-opacity="0" stroke="#000000" stroke-width="1" stroke-opacity="0"></use></g></g><g><use xlink:href="#b1uKkiDCO9" opacity="1" fill="#d29b6e" fill-opacity="1"></use><g><use xlink:href="#b1uKkiDCO9" opacity="1" fill-opacity="0" stroke="#000000" stroke-width="1" stroke-opacity="0"></use></g></g><g><use xlink:href="#buxra7iXv" opacity="1" fill="#f5b97d" fill-opacity="1"></use><g><use xlink:href="#buxra7iXv" opacity="1" fill-opacity="0" stroke="#000000" stroke-width="1" stroke-opacity="0"></use></g></g><g><use xlink:href="#b3BR0hqWPw" opacity="1" fill="#e3aa75" fill-opacity="1"></use><g><use xlink:href="#b3BR0hqWPw" opacity="1" fill-opacity="0" stroke="#000000" stroke-width="1" stroke-opacity="0"></use></g></g><g><use xlink:href="#dLre28ihc" opacity="1" fill="#dd352e" fill-opacity="1"></use><g><use xlink:href="#dLre28ihc" opacity="1" fill-opacity="0" stroke="#000000" stroke-width="1" stroke-opacity="0"></use></g></g></g></g></svg>