<svg height="512pt" viewBox="-63 0 511 512" width="512pt" xmlns="http://www.w3.org/2000/svg"><path d="m132.132812 107.878906c-49.851562 0-90.40625-40.554687-90.40625-90.40625h30.074219c0 33.269532 27.0625 60.332032 60.332031 60.332032 33.265626 0 60.332032-27.0625 60.332032-60.332032h30.070312c0 49.851563-40.554687 90.40625-90.402344 90.40625zm0 0" fill="#fd982c"/><g fill="#fcbd8a"><path d="m18.433594 284.265625-17.933594-24.140625 31.59375-23.46875 43.152344-111.644531h113.238281l43.507813 97.992187h42.179687v30.074219h-61.730469l-43.511718-97.992187h-73.0625l-38.855469 100.523437zm0 0"/><path d="m82.296875 471.910156h30.074219v40.089844h-30.074219zm0 0"/><path d="m152.328125 471.910156h30.074219v40.089844h-30.074219zm0 0"/></g><path d="m202.757812 364.011719-14.964843 1.453125h-110.492188l-14.957031-1.515625-12.429688 122.996093h164.757813zm0 0" fill="#fd982c"/><path d="m152.328125 471.910156h30.074219v40.089844h-30.074219zm0 0" fill="#f4a971"/><path d="m212.441406 253.078125h61.730469v-30.074219h-42.179687l-43.507813-97.992187h-56.132813v30.074219h36.578126zm0 0" fill="#f4a971"/><path d="m214.671875 486.945312-11.914063-122.933593-14.964843 1.453125h-55.441407v121.480468zm0 0" fill="#fa502e"/><path d="m222.535156 17.472656h-30.070312c0 33.195313-26.949219 60.207032-60.113282 60.328125v30.074219c49.746094-.117188 90.183594-40.625 90.183594-90.402344zm0 0" fill="#fa502e"/><path d="m216.339844 380.5-31.769532-163.855469 10.191407-77.496093-6.277344-14.136719h-113.238281l-5.773438 14.945312 10.222656 76.707031-31.335937 163.835938zm0 0" fill="#fdbf00"/><path d="m184.570312 216.644531 10.191407-77.496093-6.277344-14.136719h-56.132813v255.488281h83.988282zm0 0" fill="#fd982c"/><path d="m132.132812 0c-29.742187 0-53.941406 24.195312-53.941406 53.9375s24.199219 53.941406 53.941406 53.941406c29.742188 0 53.9375-24.199218 53.9375-53.941406s-24.195312-53.9375-53.9375-53.9375zm0 0" fill="#fcbd8a"/><path d="m186.070312 53.9375c0-29.667969-24.078124-53.8125-53.71875-53.93359375v107.86718775c29.640626-.117188 53.71875-24.261719 53.71875-53.933594zm0 0" fill="#f4a971"/><path d="m375.832031 96.441406 10.191407-13.644531-14.800782-8.421875c-.726562-.414062-4.382812-2.414062-9.707031-3.917969.75-1.375 1.4375-2.824219 2.027344-4.363281 5.398437-14.066406.441406-28.183594-.144531-29.746094l-5.949219-15.953125-15.09375 7.878907c-1.480469.773437-14.609375 7.949218-20.003907 22.011718-.601562 1.5625-1.066406 3.121094-1.429687 4.667969-4.96875-2.421875-9.027344-3.371094-9.84375-3.546875l-16.648437-3.582031-1.496094 16.960937c-.117188 1.355469-.820313 11.503906 3.753906 21.773438l-15.753906-3.390625-1.496094 16.964843c-.128906 1.480469-.953125 13.496094 5.199219 24.675782-.710938-.191406-1.21875-.308594-1.453125-.359375l-16.644532-3.582031-1.496093 16.960937c-.148438 1.664063-1.175781 16.589844 7.765625 28.710937 2.746094 3.722657 6.015625 6.621094 9.28125 8.867188l-37.207032 97.433594 28.09375 10.726562 37.210938-97.441406c1.683594.214844 3.441406.351562 5.261719.351562 2.433593 0 4.972656-.226562 7.558593-.765624 14.746094-3.078126 23.929688-14.890626 24.929688-16.226563l10.1875-13.640625-14.796875-8.425781c-.207031-.117188-.664063-.371094-1.320313-.699219 12.039063-4.234375 19.433594-13.742188 20.324219-14.933594l10.191407-13.640625-14.003907-7.972656c10.257813-4.609375 16.5-12.644531 17.3125-13.730469zm0 0" fill="#fd982c"/><path d="m375.832031 96.441406 10.191407-13.644531-14.800782-8.421875c-.726562-.414062-4.382812-2.414062-9.707031-3.917969.75-1.375 1.4375-2.824219 2.027344-4.363281 5.398437-14.066406.441406-28.183594-.144531-29.746094l-5.949219-15.953125-15.09375 7.878907c-1.480469.773437-14.609375 7.949218-20.003907 22.011718-.601562 1.5625-1.066406 3.121094-1.429687 4.667969-4.96875-2.421875-9.027344-3.371094-9.84375-3.546875l-16.648437-3.582031-1.496094 16.960937c-.117188 1.355469-.820313 11.503906 3.753906 21.773438l-15.753906-3.390625-1.496094 16.964843c-.128906 1.480469-.953125 13.496094 5.199219 24.675782-.710938-.191406-1.21875-.308594-1.453125-.359375l-16.644532-3.582031-1.496093 16.960937c-.148438 1.664063-1.175781 16.589844 7.765625 28.710937 2.746094 3.722657 6.015625 6.621094 9.28125 8.867188l-37.207032 97.433594 28.09375 10.726562 37.210938-97.441406c1.683594.214844 3.441406.351562 5.261719.351562 2.433593 0 4.972656-.226562 7.558593-.765624 14.746094-3.078126 23.929688-14.890626 24.929688-16.226563l10.1875-13.640625-14.796875-8.425781c-.207031-.117188-.664063-.371094-1.320313-.699219 12.039063-4.234375 19.433594-13.742188 20.324219-14.933594l10.191407-13.640625-14.003907-7.972656c10.257813-4.609375 16.5-12.644531 17.3125-13.730469zm0 0" fill="#fa502e"/></svg>