<?xml version="1.0" encoding="UTF-8" standalone="no"?>
<!DOCTYPE svg PUBLIC "-//W3C//DTD SVG 1.1//EN" "http://www.w3.org/Graphics/SVG/1.1/DTD/svg11.dtd">
<svg version="1.1" xmlns="http://www.w3.org/2000/svg" xmlns:xlink="http://www.w3.org/1999/xlink" preserveAspectRatio="xMidYMid meet" viewBox="0 0 640 640" width="640" height="640"><defs><path d="M9.32 329.32C9.32 158.45 149.13 18.64 320 18.64C490.87 18.64 630.68 158.45 630.68 329.32C630.68 500.19 490.87 640 320 640C149.13 640 9.32 500.19 9.32 329.32Z" id="a9RWKYWUx"></path><path d="M320 19.68C159.28 19.68 29 149.96 29 310.68C29 471.4 159.28 601.68 320 601.68C480.72 601.68 611 471.4 611 310.68C611 149.96 480.72 19.68 320 19.68Z" id="a1jA73lxmH"></path><path d="M354.17 54.89C425.63 54.89 490.87 80.78 541.62 123.24C488.8 60.06 409.06 19.68 320 19.68C159.48 19.68 29 150.16 29 310.68C29 399.74 69.39 479.48 132.56 533.33C89.06 482.59 63.17 417.35 63.17 345.89C63.17 185.37 193.66 54.89 354.17 54.89Z" id="d43WSofwU"></path><path d="M526.08 105.63C640 219.55 640 403.88 526.08 517.8C412.17 631.72 227.83 631.72 113.92 517.8" id="e2AuZqYoaH"></path><path d="M345.38 1.03L357.88 2.31L370.22 4.09L382.41 6.34L394.43 9.07L406.27 12.26L417.93 15.91L429.38 19.99L440.63 24.51L451.66 29.46L462.46 34.81L473.02 40.57L483.34 46.72L493.39 53.25L503.18 60.15L512.68 67.41L521.9 75.02L530.81 82.98L539.42 91.26L547.7 99.87L555.66 108.78L563.27 118L570.53 127.5L577.43 137.29L583.96 147.34L590.11 157.66L595.87 168.22L601.22 179.02L606.17 190.05L610.69 201.3L614.77 212.75L618.42 224.41L621.61 236.25L624.34 248.27L626.59 260.46L628.37 272.8L629.64 285.3L630.42 297.92L630.68 310.68L630.42 323.44L629.64 336.06L628.37 348.56L626.59 360.9L624.34 373.09L621.61 385.11L618.42 396.95L614.77 408.61L610.69 420.06L606.17 431.31L601.22 442.34L595.87 453.14L590.11 463.7L583.96 474.02L577.43 484.07L570.53 493.86L563.27 503.36L555.66 512.58L547.7 521.49L539.42 530.1L530.81 538.38L521.9 546.34L512.68 553.95L503.18 561.21L493.39 568.11L483.34 574.64L473.02 580.79L462.46 586.55L451.66 591.9L440.63 596.84L429.38 601.36L417.93 605.45L406.27 609.1L394.43 612.29L382.41 615.02L370.22 617.27L357.88 619.05L345.38 620.32L332.76 621.1L320 621.36L307.24 621.1L294.62 620.32L282.12 619.05L269.78 617.27L257.59 615.02L245.57 612.29L233.73 609.1L222.07 605.45L210.62 601.36L199.37 596.84L188.34 591.9L177.54 586.55L166.98 580.79L156.66 574.64L146.61 568.11L136.82 561.21L127.32 553.95L118.1 546.34L109.19 538.38L100.58 530.1L92.3 521.49L84.34 512.58L76.73 503.36L69.47 493.86L62.57 484.07L56.04 474.02L49.89 463.7L44.13 453.14L38.78 442.34L33.83 431.31L29.31 420.06L25.23 408.61L21.58 396.95L18.39 385.11L15.66 373.09L13.41 360.9L11.63 348.56L10.36 336.06L9.58 323.44L9.32 310.68L9.58 297.92L10.36 285.3L11.63 272.8L13.41 260.46L15.66 248.27L18.39 236.25L21.58 224.41L25.23 212.75L29.31 201.3L33.83 190.05L38.78 179.02L44.13 168.22L49.89 157.66L56.04 147.34L62.57 137.29L69.47 127.5L76.73 118L84.34 108.78L92.3 99.87L100.58 91.26L109.19 82.98L118.1 75.02L127.32 67.41L136.82 60.15L146.61 53.25L156.66 46.72L166.98 40.57L177.54 34.81L188.34 29.46L199.37 24.51L210.62 19.99L222.07 15.91L233.73 12.26L245.57 9.07L257.59 6.34L269.78 4.09L282.12 2.31L294.62 1.03L307.24 0.26L320 0L332.76 0.26L345.38 1.03ZM297.7 40.26L286.74 41.37L275.91 42.92L265.23 44.89L254.7 47.28L244.32 50.07L234.12 53.25L224.09 56.83L214.26 60.78L204.61 65.1L195.17 69.77L185.94 74.8L176.94 80.18L168.16 85.88L159.62 91.91L151.33 98.26L143.3 104.91L135.52 111.86L128.03 119.09L120.81 126.61L113.88 134.4L107.25 142.45L100.93 150.75L94.93 159.3L89.25 168.08L83.9 177.08L78.9 186.31L74.25 195.74L69.95 205.37L66.03 215.19L62.48 225.2L59.31 235.37L56.54 245.71L54.17 256.21L52.22 266.84L50.68 277.62L49.57 288.52L48.9 299.55L48.67 310.68L48.9 321.89L49.58 332.97L50.7 343.94L52.24 354.77L54.22 365.45L56.6 375.98L59.39 386.36L62.58 396.56L66.15 406.59L70.1 416.42L74.42 426.07L79.09 435.51L84.12 444.74L89.5 453.74L95.2 462.52L101.23 471.06L107.58 479.35L114.23 487.38L121.18 495.16L128.41 502.65L135.93 509.87L143.72 516.8L151.77 523.43L160.07 529.75L168.62 535.75L177.4 541.43L186.4 546.78L195.63 551.78L205.06 556.43L214.69 560.73L224.51 564.65L234.52 568.2L244.69 571.37L255.03 574.14L265.53 576.51L276.17 578.46L286.94 580L297.84 581.11L308.87 581.78L320 582.01L331.13 581.78L342.16 581.1L353.06 579.98L363.83 578.44L374.47 576.46L384.97 574.08L395.31 571.29L405.48 568.1L415.49 564.53L425.31 560.58L434.94 556.26L444.37 551.58L453.6 546.55L462.6 541.18L471.38 535.48L479.93 529.45L488.23 523.1L496.28 516.45L504.07 509.5L511.59 502.27L518.82 494.75L525.77 486.96L532.42 478.91L538.77 470.61L544.8 462.06L550.5 453.28L555.88 444.28L560.91 435.05L565.58 425.62L569.9 415.99L573.85 406.17L577.42 396.16L580.61 385.99L583.4 375.65L585.78 365.15L587.76 354.51L589.3 343.74L590.42 332.83L591.1 321.81L591.33 310.68L591.1 299.55L590.43 288.52L589.32 277.62L587.78 266.84L585.83 256.21L583.46 245.71L580.69 235.37L577.52 225.2L573.97 215.19L570.05 205.37L565.75 195.74L561.1 186.31L556.1 177.08L550.75 168.08L545.07 159.3L539.07 150.75L532.75 142.45L526.12 134.4L519.19 126.61L511.97 119.09L504.48 111.86L496.7 104.91L488.67 98.26L480.38 91.91L471.84 85.88L463.06 80.18L454.06 74.8L444.83 69.77L435.39 65.1L425.74 60.78L415.91 56.83L405.88 53.25L395.68 50.07L385.3 47.28L374.77 44.89L364.09 42.92L353.26 41.37L342.3 40.26L331.21 39.58L320 39.35L308.79 39.58L297.7 40.26Z" id="a1DFjD8N0t"></path><path d="M554.05 106.67C499.16 59.03 427.7 30.03 349 30.03C296.18 30.03 247.51 43.5 204.01 66.28C239.22 48.67 278.58 39.35 320 39.35C401.81 39.35 476.38 76.63 526.08 134.63C584.08 184.34 620.32 257.86 620.32 340.71C620.32 382.14 611 421.49 594.43 456.7C617.22 413.2 630.68 363.5 630.68 310.68C630.68 231.97 601.68 160.52 554.05 106.67Z" id="b7EchU2D2u"></path><path d="M382.68 234.88C350.95 161.2 333.32 120.27 329.8 112.08C326.1 103.48 313.9 103.48 310.2 112.08C306.68 120.27 289.05 161.2 257.32 234.88C177.45 242.29 133.07 246.41 124.2 247.23C114.88 248.09 111.11 259.69 118.14 265.87C124.84 271.75 158.32 301.17 218.58 354.11C200.95 432.37 191.15 475.85 189.19 484.55C187.13 493.68 196.99 500.84 205.04 496.06C212.71 491.51 251.03 468.76 320 427.8C388.97 468.76 427.29 491.51 434.96 496.06C443.01 500.84 452.87 493.68 450.81 484.55C448.85 475.85 439.05 432.37 421.42 354.11C481.68 301.17 515.16 271.75 521.86 265.87C528.89 259.69 525.12 248.09 515.8 247.23C498.05 245.58 453.68 241.47 382.68 234.88Z" id="p2b7dSyioA"></path><path d="M310.2 112.08C306.68 120.27 289.05 161.2 257.32 234.88C177.45 242.29 133.07 246.41 124.2 247.23C114.88 248.09 111.11 259.69 118.14 265.87C124.84 271.75 158.32 301.17 218.58 354.11C200.95 432.37 191.15 475.85 189.19 484.55C187.13 493.68 196.99 500.84 205.04 496.06C207.61 494.54 228.13 482.35 230.7 480.83C234.25 334.64 302.17 231.69 355.94 172.8C354.2 168.75 345.49 148.51 329.8 112.08C319.2 106.35 312.67 106.35 310.2 112.08Z" id="b2AJIRmGRo"></path></defs><g><g><g><use xlink:href="#a9RWKYWUx" opacity="1" fill="#dbab56" fill-opacity="1"></use><g><use xlink:href="#a9RWKYWUx" opacity="1" fill-opacity="0" stroke="#000000" stroke-width="1" stroke-opacity="0"></use></g></g><g><use xlink:href="#a1jA73lxmH" opacity="1" fill="#efb30c" fill-opacity="1"></use><g><use xlink:href="#a1jA73lxmH" opacity="1" fill-opacity="0" stroke="#000000" stroke-width="1" stroke-opacity="0"></use></g></g><g><use xlink:href="#d43WSofwU" opacity="1" fill="#e5a300" fill-opacity="1"></use><g><use xlink:href="#d43WSofwU" opacity="1" fill-opacity="0" stroke="#000000" stroke-width="1" stroke-opacity="0"></use></g></g><g><use xlink:href="#e2AuZqYoaH" opacity="1" fill="#e5a300" fill-opacity="1"></use><g><use xlink:href="#e2AuZqYoaH" opacity="1" fill-opacity="0" stroke="#000000" stroke-width="1" stroke-opacity="0"></use></g></g><g><use xlink:href="#a1DFjD8N0t" opacity="1" fill="#f7d27f" fill-opacity="1"></use><g><use xlink:href="#a1DFjD8N0t" opacity="1" fill-opacity="0" stroke="#000000" stroke-width="1" stroke-opacity="0"></use></g></g><g><use xlink:href="#b7EchU2D2u" opacity="1" fill="#efc273" fill-opacity="1"></use><g><use xlink:href="#b7EchU2D2u" opacity="1" fill-opacity="0" stroke="#000000" stroke-width="1" stroke-opacity="0"></use></g></g><g><use xlink:href="#p2b7dSyioA" opacity="1" fill="#ffe0a1" fill-opacity="1"></use><g><use xlink:href="#p2b7dSyioA" opacity="1" fill-opacity="0" stroke="#000000" stroke-width="1" stroke-opacity="0"></use></g></g><g><use xlink:href="#b2AJIRmGRo" opacity="1" fill="#f7d27f" fill-opacity="1"></use><g><use xlink:href="#b2AJIRmGRo" opacity="1" fill-opacity="0" stroke="#000000" stroke-width="1" stroke-opacity="0"></use></g></g></g></g></svg>