<?xml version="1.0" encoding="utf-8"?>
<!-- Generator: Adobe Illustrator 19.0.0, SVG Export Plug-In . SVG Version: 6.00 Build 0)  -->
<svg version="1.1" id="Layer_1" xmlns="http://www.w3.org/2000/svg" xmlns:xlink="http://www.w3.org/1999/xlink" x="0px" y="0px"
	 viewBox="14 -14 640 640" style="enable-background:new 14 -14 640 640;" xml:space="preserve">
<style type="text/css">
	.st0{fill:#FBB040;}
	.st1{fill:#F7941E;}
	.st2{fill:#F9993E;}
	.st3{opacity:8.000000e-002;enable-background:new    ;}
	.st4{fill:#FBE067;}
	.st5{opacity:0.1;}
	.st6{fill:#9B6A57;}
	.st7{fill:#E15F76;}
	.st8{opacity:0.1;enable-background:new    ;}
	.st9{fill:#C20022;}
	.st10{fill:#98001B;}
	.st11{fill:#FCBF29;}
	.st12{fill:#FF9822;}
	.st13{fill:#9A4C0E;}
	.st14{fill:#713709;}
	.st15{fill:#B58D75;}
	.st16{fill-opacity:0;stroke:#000000;stroke-opacity:0;}
	.st17{fill:#414141;}
	.st18{fill:#886A57;}
	.st19{fill:#805333;}
	.st20{fill:#A5A5A4;}
	.st21{fill:#606060;}
	.st22{fill:#F9EAB0;}
	.st23{fill:#F3D55B;}
	.st24{fill:#BDC3C7;}
	.st25{fill:#AF8066;}
	.st26{fill:#CB8252;}
	.st27{fill:#7F5B53;}
	.st28{fill:#937051;}
	.st29{fill:#4D4D4D;}
	.st30{fill:#A07C62;}
	.st31{fill:#6D523E;}
	.st32{fill:#EFDF9A;}
	.st33{fill:#EFE373;}
	.st34{fill:#FFDC5D;}
	.st35{fill:#EF9645;}
	.st36{fill:#FF3501;}
	.st37{fill:#CD2A00;}
	.st38{fill:#FF6D55;}
	.st39{fill:#FF5023;}
	.st40{fill:#FFFFFF;}
	.st41{fill:#3E3D42;}
	.st42{fill:#0074E8;}
	.st43{fill:#2488FF;}
	.st44{fill:#57A4FF;}
	.st45{fill:#9BC9FF;}
</style>
<path class="st0" d="M631.7,327.2C644.2,146.5,496.3-2.9,315.9,7.9c-156.5,9.3-280.4,139.2-280.4,298c0,165,133.8,298.8,298.8,298.8
	c157.9,0,287.1-122.4,298-277.5L631.7,327.2z M503,332c-12.6,82.1-84.2,144.6-168.8,144.6c-94.1,0-170.7-76.6-170.7-170.7
	c0-90.1,70.2-164.9,159.9-170.2l10.8-0.3c47.7,0,91.9,19.2,124.4,54c32.6,34.9,48.7,80.7,45.3,128.9L503,332z"/>
<g>
	<path class="st1" d="M334.2,114.1h-0.6l-10.8,0.3l-0.6,0c-101,6-179.9,90.1-180,191.5c0,106,86.1,192,192.1,192.1
		c95.3-0.1,175.6-70.1,189.9-162.7l0.2-1.7l1-13.7c0.3-4.7,0.5-9.3,0.5-13.9c0-48.8-18.1-95.3-51.5-131
		C437.9,135.8,387.7,114,334.2,114.1z M482.7,316.9l-0.9,12.5c-11.1,71.4-73.9,126-147.6,125.9c-41.2,0-78.5-16.7-105.6-43.8
		c-27.1-27.1-43.8-64.3-43.8-105.6c0-78.8,61.4-144.2,139.7-148.9l9.8-0.3c41.9,0.1,80.1,16.7,108.7,47.2c26.1,28,40,63.6,40,101.9
		L482.7,316.9z"/>
	<path class="st1" d="M653.8,305.9c0-88.3-35.7-168.4-93.5-226.2C502.6,21.8,422.5-14,334.2-14c-6.5,0-13.1,0.2-19.6,0.6
		C146.9-3.4,14.2,135.7,14.2,305.9C14.2,482.7,157.5,626,334.3,626c169.1,0,307.6-131.1,319.3-297.3c0.1-1.1-0.4-2.1-0.5-3.2
		C653.5,318.9,653.8,312.3,653.8,305.9z M610.8,327.9c-11.2,142.8-130.7,255.4-276.5,255.4c-76.7,0-145.9-31-196.2-81.3
		c-50.3-50.3-81.3-119.5-81.3-196.2c0-147.5,115.1-268.1,260.3-276.7c5.7-0.3,11.4-0.5,17.1-0.5c76.6,0,145.7,31,195.9,81.2
		c50.1,50.2,81,119.4,81,196c0,6.6-0.2,13.2-0.7,19.9C610.4,326.5,610.7,327.2,610.8,327.9z"/>
</g>
<rect x="283.7" y="57.7" class="st2" width="101" height="93.3"/>
<path class="st3" d="M283.7,57.7v64.8c5.1-11.8,23-28.1,50.5-28.1c27.5,0,45.4,16.3,50.5,28.1V57.7H283.7z"/>
<path class="st4" d="M334.1,19c-34.6,0-62.5,28.5-62.5,63.1v60.5c0,2.4,1.3,4.7,3.4,5.9l33,19c2.7,1.5,6-0.4,6-3.5l-0.2-26.5
	c0-2.1-0.6-4.1-1.8-5.8l-19.2-28.2c-9-14.8-0.8-29.9,12.5-34.9c4.9-1.8,10.3,1.2,11.3,6.3l6.1,30.1c0.4,1.9,2,3.2,4,3.2h14.8
	c1.9,0,3.6-1.4,4-3.2l6.1-30.1c1-5.1,6.4-8.1,11.3-6.3c13.4,5,21.5,20.2,12.5,34.9l-19.2,28.2c-1.2,1.7-1.8,3.7-1.8,5.8l-0.2,26.5
	c0,3.1,3.3,5,6,3.5l33-19c2.1-1.2,3.4-3.5,3.4-5.9V81.5C396.7,47,368.7,19,334.1,19z"/>
<g class="st5">
	<path d="M350.6,59c-0.7,0-1.4-0.3-1.9-0.8c-1-1-1-2.7,0-3.7l5.2-5.2c1-1,2.7-1,3.7,0c1,1,1,2.7,0,3.7l-5.2,5.2
		C351.9,58.7,351.3,59,350.6,59z"/>
	<path d="M365.2,56.4c-0.7,0-1.4-0.3-1.9-0.8c-1-1-1-2.7,0-3.7l5.2-5.2c1-1,2.7-1,3.7,0c1,1,1,2.7,0,3.7l-5.2,5.2
		C366.6,56.1,365.9,56.4,365.2,56.4z"/>
</g>
<path class="st6" d="M356.2,131.8l11.6-17v48.4l-7.6,4.4c-2.7,1.5-6-0.4-6-3.5l0.2-26.5C354.4,135.5,355.1,133.5,356.2,131.8z"/>
<path class="st7" d="M344.1-12.7h-19.9c-3,0-5.5,2.4-5.5,5.5v31.1c0,3,2.4,5.5,5.5,5.5h19.9c3,0,5.5-2.4,5.5-5.5V-7.3
	C349.6-10.3,347.1-12.7,344.1-12.7z"/>
<path class="st6" d="M343.2,29.3h-18v12.1c0,1.3,1.1,2.4,2.4,2.4h13.2c1.3,0,2.4-1.1,2.4-2.4L343.2,29.3
	C343.2,29.3,343.2,29.3,343.2,29.3z"/>
<rect x="325.2" y="29.3" class="st8" width="18" height="5.2"/>
<path class="st3" d="M313.9,137.6c0-2.1-0.6-4.1-1.8-5.8l-19.2-28.2c-8.1-13.4-2.2-27.2,9.1-33.3c-16.8-6.1-9.7-29.5,0.2-42.4
	c-18.3,11.1-30.5,31.3-30.5,54.2v60.5c0,2.4,1.3,4.7,3.4,5.9l33,19c2.7,1.5,6-0.4,6-3.5L313.9,137.6z"/>
<path class="st8" d="M344.1,16.7h-19.9c-3,0-5.5-2.4-5.5-5.5v12.7c0,3,2.4,5.5,5.5,5.5h19.9c3,0,5.5-2.4,5.5-5.5V11.2
	C349.6,14.2,347.1,16.7,344.1,16.7z"/>
<path class="st6" d="M312.1,131.8l-11.6-17v48.4l7.6,4.4c2.7,1.5,6-0.4,6-3.5l-0.2-26.5C313.9,135.5,313.3,133.5,312.1,131.8z"/>
<path class="st9" d="M280.4,425.5c-3.4-0.5-6.8-0.8-10.1-0.8c-26.4,0-45.8,15.8-64.6,31.1c-18.1,14.8-35.2,28.7-57.9,28.7
	c0,0,0,0,0,0c-2.8,0-5.7-0.2-8.5-0.6c-1.5-0.2-3.1,0.2-4.2,1.2c-1.2,1-1.8,2.5-1.8,4v67.8c0,2.9,2.4,5.3,5.3,5.3h141.1
	c2.9,0,5.3-2.4,5.3-5.3V430.8C284.9,428.1,283,425.9,280.4,425.5z"/>
<path class="st10" d="M280.4,425.5c-3.4-0.5-6.8-0.8-10.1-0.8c-24.9,0-43.5,14-61.2,28.4v109.1h70.6c2.9,0,5.3-2.4,5.3-5.3V430.8
	C284.9,428.1,283,425.9,280.4,425.5z"/>
<g>
	<path class="st11" d="M147.9,495.2c-3.3,0-6.7-0.2-10.2-0.8c-2.9-0.4-4.9-3.1-4.4-6c0.4-2.9,3.1-4.9,6-4.4
		c27.1,4,46.2-11.6,66.4-28.1c21.1-17.2,43-35.1,74.7-30.4c2.9,0.4,4.9,3.1,4.4,6c-0.4,2.9-3.1,4.9-6,4.4
		c-27.1-4-46.2,11.6-66.5,28.1C193.6,479.4,174.2,495.2,147.9,495.2z"/>
	<path class="st11" d="M307.8,562.3H138.5c-2.9,0-5.3-2.4-5.3-5.3s2.4-5.3,5.3-5.3h169.3c2.9,0,5.3,2.4,5.3,5.3
		S310.8,562.3,307.8,562.3z"/>
</g>
<path class="st12" d="M307.8,551.8h-98.8v10.5h98.8c2.9,0,5.3-2.4,5.3-5.3S310.8,551.8,307.8,551.8z"/>
<path class="st13" d="M209.1,509.5c-26.2,0-47.6,21.4-47.6,47.6s21.4,47.6,47.6,47.6s47.6-21.4,47.6-47.6S235.3,509.5,209.1,509.5z
	 M238.7,579.3l-16.9-16.9h24C244.9,568.6,242.4,574.4,238.7,579.3z M172.4,562.3h24l-16.9,16.9C175.8,574.4,173.3,568.6,172.4,562.3
	z M179.4,534.8l16.9,16.9h-24C173.3,545.5,175.8,539.7,179.4,534.8z M214.3,520.4c6.3,0.9,12.1,3.4,16.9,7l-16.9,16.9V520.4
	L214.3,520.4z M203.8,544.3l-16.9-16.9c4.9-3.6,10.6-6.1,16.9-7V544.3z M203.8,569.8v24c-6.3-0.9-12.1-3.4-16.9-7L203.8,569.8z
	 M214.3,569.8l16.9,16.9c-4.9,3.6-10.6,6.1-16.9,7L214.3,569.8L214.3,569.8z M221.8,551.8l16.9-16.9c3.6,4.9,6.1,10.6,7,16.9H221.8z
	"/>
<path class="st14" d="M209.1,509.5v95.2c26.2,0,47.6-21.4,47.6-47.6S235.3,509.5,209.1,509.5z M245.8,551.8h-24l16.9-16.9
	C242.4,539.7,244.9,545.5,245.8,551.8z M214.3,520.4c6.3,0.9,12.1,3.4,16.9,7l-16.9,16.9V520.4L214.3,520.4z M214.3,593.7v-24
	l16.9,16.9C226.4,590.4,220.6,592.8,214.3,593.7z M238.7,579.3l-16.9-16.9h24C244.9,568.6,242.4,574.4,238.7,579.3z"/>
<path class="st12" d="M278.8,436c2.9,0.4,5.6-1.6,6-4.4c0.4-2.9-1.6-5.6-4.4-6c-30-4.5-51.2,11.3-71.3,27.6v13.6
	c1.1-0.9,2.2-1.8,3.3-2.7C232.7,447.5,251.8,431.9,278.8,436z"/>
<g>
	<g>
		<g>
			<g>
				<path id="a2FyxRygr2" class="st15" d="M545.3,539.1c-0.1-0.2-0.2-0.5-0.3-0.7C545.1,538.7,545.2,538.9,545.3,539.1z"/>
			</g>
			<g>
				<g>
					<path id="a2FyxRygr2_1_" class="st16" d="M545.3,539.1c-0.1-0.2-0.2-0.5-0.3-0.7C545.1,538.7,545.2,538.9,545.3,539.1z"/>
				</g>
			</g>
		</g>
		<g>
			<g>
				<g>
					<path id="djwvaLJyr" class="st17" d="M395.1,528.5c3.8,2,7.7,3.8,12,4.4c2,0.3,2,0.4,2.2-1.6c0.3-3-0.7-5.6-2-8.2
						c-0.1-0.3-0.5-0.6-0.8-0.6c-1-0.2-7-0.9-9-1.6"/>
				</g>
				<g>
					<g>
						<path id="djwvaLJyr_1_" class="st16" d="M395.1,528.5c3.8,2,7.7,3.8,12,4.4c2,0.3,2,0.4,2.2-1.6c0.3-3-0.7-5.6-2-8.2
							c-0.1-0.3-0.5-0.6-0.8-0.6c-1-0.2-7-0.9-9-1.6"/>
					</g>
				</g>
			</g>
			<g>
				<g>
					<path id="aJ0LthmrH" class="st15" d="M510.9,524.1c-0.2-3.1-2.5-20.1-20-26.7c-1.2-0.8-12.3-4.9-13.6-5.6
						c-3.1-1.7-6.1-3.6-9.1-5.3c-20.1-13.5-19.2-56.9-40.6-63.3c-2.5-0.4-5.1-0.6-7.7-0.4c-0.8,0.1-1.5,0.3-2.3,0.4
						c-0.3,0-0.7,0-0.9-0.2c-0.1-0.1-0.1-0.1-0.2-0.2c-0.9,0.2-1.8,0.5-2.8,0.9c1-0.3,1.9-0.6,2.8-0.9c-0.6-0.7-1.1-1.4-1.7-2.1
						c-0.3-0.3-0.3,0.1-0.6-0.2c-0.1-0.2-0.3-0.3-0.3-0.3c-0.1,0-0.2,0.2-0.2,0.4c0,0.1-0.2,0.4-0.2,0.5c0.1,0.7,0.1,0.5,0.2,1.2
						c0.2,1.5,0.2,1.5-1.3,1.7c-0.6,0.1-1.3,0.2-1.9,0.5c0,0,0,0-0.1,0c-0.6,0.3-4.9,2.7-5.5,3c0,0,0,0,0.1,0.1c1.1,1,1.2,2,0.5,3.4
						c-1,2-2.1,4-2.9,6.1c-0.4,1-0.2,2.3-0.2,3.4c0,0.5,0.1,1.1,0,1.6c-0.9,4.4-2.4,8.7-4.4,12.7c-0.3,0.7-0.6,1.4-0.9,2
						c-0.1,0.2-0.2,0.4-0.3,0.6c0,0.1-0.1,0.2-0.1,0.2c0,0.1,0,0.2,0,0.3c0,0.1,0.1,0.3,0.1,0.4c0,0.1,0.1,0.2,0.1,0.3
						c0,0,0,0.1,0.1,0.1c0.1,0.3,0.3,0.6,0.5,0.9c0.2,0.3,0.1,0.7-0.1,0.9c-0.1,0.1-0.2,0.2-0.3,0.2c-0.1,0.1-0.2,0.2-0.2,0.3
						c-0.1,0.2-0.1,0.4-0.2,0.4c0,0,0,0,0,0.1c0,0.2,0,0.6,0.2,0.7c0.7,0.6,1.5,1.2,2.3,1.9c0.2,0.1,0.2,0.3-0.1,0.4
						c-0.4,0.2-0.4,0.6-0.1,0.8c0.7,0.6,1.6,0.7,2.6,0.7c0.5,0,1,0.2,1.5,0.3c0.2,0,0.5,0.1,0.6,0c0.8-0.6,1.7-0.5,2.6-0.4
						c1.3,0.1,2.7-1.3,2.8-2.6c0.1-1.7,0.8-2.9,2.2-4c1.2-0.9,1.9-2.2,2.9-3.4c0.2-0.3,0.5-0.5,0.8-0.6c0.8-0.3,1.5-0.1,1.5,0.8
						c0.1,1.7,0.5,3.4,0.2,5.1c-0.4,2.4-1.1,4.9-1.9,7.2c-0.8,2.7-2.6,4.7-4.6,6.7c-2.2,2.2-3.7,4.8-3.7,8c0,1.8-0.3,3.5-0.6,5.3
						c0,0.3-0.4,0.8-0.7,0.9c-5.4,1.9-10.3,4.7-15.2,7.6c-0.8,0.5-1.7,0.8-2.5,1.3c-2.1,1.3-2.7,3.3-2.7,5.6c0,0.5,0,1.1,0.2,1.6
						c0.9,2.2,0.6,4.4-0.4,6.5c-1.5,3.3-2.9,6.6-4.4,9.9c-0.4,1-0.5,1.9-0.1,2.8c0.8,2.1,1.2,4.2,1.2,6.4c0,1.9,0.7,3.5,1.5,5.2
						c0.6,1.3,2.2,1.9,2.8,3.2c0.5,1.1,0,2.1,1.1,1.8c0.9-0.3,1.9-0.7,2.5-1.4c1.8-1.9,2.6-4.2,2.6-6.8c0-0.5-0.1-1.1-0.4-1.5
						c-1-1.5-2-2.9-3.1-4.3c-0.8-1-0.8-2.3-0.1-3.4c0.4-0.5,0.7-1.2,0.8-1.8c0.2-0.7,0.3-1.3,0.4-2.1c0.1-0.4,0.4-0.5,0.7-0.2
						c0.9,1.1,1.6,2.2,1.5,3.6c-0.1,2.7,1.3,4.1,3.5,5.3c0,0,4.9-7.1,3.2-7.4c-1.3-0.2-2.2-1.1-2.6-2.2c-1-2.5-1.7-5.1-2.5-7.7
						c-0.1-0.4,0.1-0.9,0.4-1.2c0.5-0.6,1.1-1.1,1.7-1.5c0.4-0.2,0.9-0.3,1.4-0.2c4,0.6,7.9,1.3,11.9,1.8c3.6,0.4,7.3,0.6,10.9,0.8
						c0.5,0,1-0.1,1.4-0.3c1.1-0.9,2.2-0.7,3.2,0.1c2.1,1.5,4.1,3,6.3,4.5c3.1,2,6.2,3.9,9.3,5.9c5.9,3.9,12.6,5.9,19.1,8.6
						c1.4,0.6,2.8,0.9,4.2,1.4c0.6,0.2,1.1,0.6,1.1,1.2c0.1,0.9,0.2,1.9,0.1,2.7c-0.6,3.2-0.2,6.3,0.9,9.3c0.4,1.1,0.7,2.1,0.9,3.2
						c0.4,2.4-0.4,4.5-2.2,6.1c-3.7,3.1-7.8,5.6-11.9,8c-1.3,0.8-2.5,1.5-3.8,2.3c-0.4,0.3-0.8,0.8-0.9,1.3
						c-0.7,2.8-1.6,5.6-2.9,8.2c-1,1.9-0.5,3.8,0,5.6c0.4,1.5,0.8,3,1.3,4.7c0.1,0.4,0.4,0.4,0.7,0.2c1.1-0.6,2.1-1.2,2.9-2
						c1.9-1.6,3.1-3.8,4.1-6c0.3-0.7,0.3-1.5,0.3-2.3c0-1-0.3-1.9-0.3-2.9c0-0.3,0.5-0.9,0.8-1c1.3-0.2,1.9-1.1,2.8-1.9
						c1.6-1.5,3.4-2.7,5.2-4c1.9-1.4,4-2.3,6.3-3c2.4-0.7,4.8-1.7,7.1-2.6c0.5-0.2,1-0.7,1.4-1.2c0.2-0.2,0.6-0.2,0.9,0
						c1.4,1.1,2.3,2.7,2.8,4.8c1,4.2-0.4,7.7-2.8,10.9c-2.2,2.9-4.5,5.7-6.8,8.6c-1.4,1.7-3.3,2.8-5.3,3.7c-0.6,0.3-1.1,0.6-1.6,1
						c-2.9,3-5.4,6.4-7.7,9.8c-0.6,0.9-0.6,1.2,0.5,1.6c1.3,0.4,2.7,0.7,4.1,0.9c2.4,0.3,4.7,0.2,6.9-1.1c1.6-0.9,2.7-2.3,2.9-4.2
						c0-0.1,0-0.2,0-0.3c-0.1-1.8,0.6-2.9,2.6-3.1c1.5-0.2,2.5-1.4,3.4-2.5c2.5-3.4,4.9-6.8,7.5-10.1c2-2.6,4.1-5.1,6.3-7.6
						c1.4-1.6,2.9-3.3,4.4-4.8c1.5-1.5,1.4-3.1,0.7-5c-1-2.5-1.8-5-2.7-7.5c-0.8-2.2,0.1-4.1,1.6-5.4c3.9-3.2,6.2-7.6,9.2-11.5
						c0.2-0.3,0.4-0.7,0.6-1"/>
				</g>
				<g>
					<g>
						<path id="aJ0LthmrH_1_" class="st16" d="M510.9,524.1c-0.2-3.1-2.5-20.1-20-26.7c-1.2-0.8-12.3-4.9-13.6-5.6
							c-3.1-1.7-6.1-3.6-9.1-5.3c-20.1-13.5-19.2-56.9-40.6-63.3c-2.5-0.4-5.1-0.6-7.7-0.4c-0.8,0.1-1.5,0.3-2.3,0.4
							c-0.3,0-0.7,0-0.9-0.2c-0.1-0.1-0.1-0.1-0.2-0.2c-0.9,0.2-1.8,0.5-2.8,0.9c1-0.3,1.9-0.6,2.8-0.9c-0.6-0.7-1.1-1.4-1.7-2.1
							c-0.3-0.3-0.3,0.1-0.6-0.2c-0.1-0.2-0.3-0.3-0.3-0.3c-0.1,0-0.2,0.2-0.2,0.4c0,0.1-0.2,0.4-0.2,0.5c0.1,0.7,0.1,0.5,0.2,1.2
							c0.2,1.5,0.2,1.5-1.3,1.7c-0.6,0.1-1.3,0.2-1.9,0.5c0,0,0,0-0.1,0c-0.6,0.3-4.9,2.7-5.5,3c0,0,0,0,0.1,0.1
							c1.1,1,1.2,2,0.5,3.4c-1,2-2.1,4-2.9,6.1c-0.4,1-0.2,2.3-0.2,3.4c0,0.5,0.1,1.1,0,1.6c-0.9,4.4-2.4,8.7-4.4,12.7
							c-0.3,0.7-0.6,1.4-0.9,2c-0.1,0.2-0.2,0.4-0.3,0.6c0,0.1-0.1,0.2-0.1,0.2c0,0.1,0,0.2,0,0.3c0,0.1,0.1,0.3,0.1,0.4
							c0,0.1,0.1,0.2,0.1,0.3c0,0,0,0.1,0.1,0.1c0.1,0.3,0.3,0.6,0.5,0.9c0.2,0.3,0.1,0.7-0.1,0.9c-0.1,0.1-0.2,0.2-0.3,0.2
							c-0.1,0.1-0.2,0.2-0.2,0.3c-0.1,0.2-0.1,0.4-0.2,0.4c0,0,0,0,0,0.1c0,0.2,0,0.6,0.2,0.7c0.7,0.6,1.5,1.2,2.3,1.9
							c0.2,0.1,0.2,0.3-0.1,0.4c-0.4,0.2-0.4,0.6-0.1,0.8c0.7,0.6,1.6,0.7,2.6,0.7c0.5,0,1,0.2,1.5,0.3c0.2,0,0.5,0.1,0.6,0
							c0.8-0.6,1.7-0.5,2.6-0.4c1.3,0.1,2.7-1.3,2.8-2.6c0.1-1.7,0.8-2.9,2.2-4c1.2-0.9,1.9-2.2,2.9-3.4c0.2-0.3,0.5-0.5,0.8-0.6
							c0.8-0.3,1.5-0.1,1.5,0.8c0.1,1.7,0.5,3.4,0.2,5.1c-0.4,2.4-1.1,4.9-1.9,7.2c-0.8,2.7-2.6,4.7-4.6,6.7c-2.2,2.2-3.7,4.8-3.7,8
							c0,1.8-0.3,3.5-0.6,5.3c0,0.3-0.4,0.8-0.7,0.9c-5.4,1.9-10.3,4.7-15.2,7.6c-0.8,0.5-1.7,0.8-2.5,1.3c-2.1,1.3-2.7,3.3-2.7,5.6
							c0,0.5,0,1.1,0.2,1.6c0.9,2.2,0.6,4.4-0.4,6.5c-1.5,3.3-2.9,6.6-4.4,9.9c-0.4,1-0.5,1.9-0.1,2.8c0.8,2.1,1.2,4.2,1.2,6.4
							c0,1.9,0.7,3.5,1.5,5.2c0.6,1.3,2.2,1.9,2.8,3.2c0.5,1.1,0,2.1,1.1,1.8c0.9-0.3,1.9-0.7,2.5-1.4c1.8-1.9,2.6-4.2,2.6-6.8
							c0-0.5-0.1-1.1-0.4-1.5c-1-1.5-2-2.9-3.1-4.3c-0.8-1-0.8-2.3-0.1-3.4c0.4-0.5,0.7-1.2,0.8-1.8c0.2-0.7,0.3-1.3,0.4-2.1
							c0.1-0.4,0.4-0.5,0.7-0.2c0.9,1.1,1.6,2.2,1.5,3.6c-0.1,2.7,1.3,4.1,3.5,5.3c0,0,4.9-7.1,3.2-7.4c-1.3-0.2-2.2-1.1-2.6-2.2
							c-1-2.5-1.7-5.1-2.5-7.7c-0.1-0.4,0.1-0.9,0.4-1.2c0.5-0.6,1.1-1.1,1.7-1.5c0.4-0.2,0.9-0.3,1.4-0.2c4,0.6,7.9,1.3,11.9,1.8
							c3.6,0.4,7.3,0.6,10.9,0.8c0.5,0,1-0.1,1.4-0.3c1.1-0.9,2.2-0.7,3.2,0.1c2.1,1.5,4.1,3,6.3,4.5c3.1,2,6.2,3.9,9.3,5.9
							c5.9,3.9,12.6,5.9,19.1,8.6c1.4,0.6,2.8,0.9,4.2,1.4c0.6,0.2,1.1,0.6,1.1,1.2c0.1,0.9,0.2,1.9,0.1,2.7
							c-0.6,3.2-0.2,6.3,0.9,9.3c0.4,1.1,0.7,2.1,0.9,3.2c0.4,2.4-0.4,4.5-2.2,6.1c-3.7,3.1-7.8,5.6-11.9,8
							c-1.3,0.8-2.5,1.5-3.8,2.3c-0.4,0.3-0.8,0.8-0.9,1.3c-0.7,2.8-1.6,5.6-2.9,8.2c-1,1.9-0.5,3.8,0,5.6c0.4,1.5,0.8,3,1.3,4.7
							c0.1,0.4,0.4,0.4,0.7,0.2c1.1-0.6,2.1-1.2,2.9-2c1.9-1.6,3.1-3.8,4.1-6c0.3-0.7,0.3-1.5,0.3-2.3c0-1-0.3-1.9-0.3-2.9
							c0-0.3,0.5-0.9,0.8-1c1.3-0.2,1.9-1.1,2.8-1.9c1.6-1.5,3.4-2.7,5.2-4c1.9-1.4,4-2.3,6.3-3c2.4-0.7,4.8-1.7,7.1-2.6
							c0.5-0.2,1-0.7,1.4-1.2c0.2-0.2,0.6-0.2,0.9,0c1.4,1.1,2.3,2.7,2.8,4.8c1,4.2-0.4,7.7-2.8,10.9c-2.2,2.9-4.5,5.7-6.8,8.6
							c-1.4,1.7-3.3,2.8-5.3,3.7c-0.6,0.3-1.1,0.6-1.6,1c-2.9,3-5.4,6.4-7.7,9.8c-0.6,0.9-0.6,1.2,0.5,1.6c1.3,0.4,2.7,0.7,4.1,0.9
							c2.4,0.3,4.7,0.2,6.9-1.1c1.6-0.9,2.7-2.3,2.9-4.2c0-0.1,0-0.2,0-0.3c-0.1-1.8,0.6-2.9,2.6-3.1c1.5-0.2,2.5-1.4,3.4-2.5
							c2.5-3.4,4.9-6.8,7.5-10.1c2-2.6,4.1-5.1,6.3-7.6c1.4-1.6,2.9-3.3,4.4-4.8c1.5-1.5,1.4-3.1,0.7-5c-1-2.5-1.8-5-2.7-7.5
							c-0.8-2.2,0.1-4.1,1.6-5.4c3.9-3.2,6.2-7.6,9.2-11.5c0.2-0.3,0.4-0.7,0.6-1"/>
					</g>
				</g>
			</g>
			<g>
				<g>
					<path id="aaNTEe9QK" class="st15" d="M402.8,445.7c-0.8,1-6.8,9-7.6,10c-2.2,2.9-1.1,7.6,2.5,10.3c3.6,2.8,8.4,2.6,10.6-0.3
						c0.8-1,6.8-9,7.6-10c2.2-2.9,1.1-7.6-2.5-10.3S405,442.7,402.8,445.7z"/>
				</g>
				<g>
					<g>
						<path id="aaNTEe9QK_1_" class="st16" d="M402.8,445.7c-0.8,1-6.8,9-7.6,10c-2.2,2.9-1.1,7.6,2.5,10.3
							c3.6,2.8,8.4,2.6,10.6-0.3c0.8-1,6.8-9,7.6-10c2.2-2.9,1.1-7.6-2.5-10.3S405,442.7,402.8,445.7z"/>
					</g>
				</g>
			</g>
			<g>
				<g>
					<path id="dO9J9dv8" class="st17" d="M408.4,465.6c0.2-0.2,1.1-1.4,2.6-3.5c-9.5-3.9-14.7-6.1-15.8-6.5c-2.2,3-1.1,7.6,2.5,10.3
						C401.4,468.7,406.1,468.6,408.4,465.6z"/>
				</g>
				<g>
					<g>
						<path id="dO9J9dv8_1_" class="st16" d="M408.4,465.6c0.2-0.2,1.1-1.4,2.6-3.5c-9.5-3.9-14.7-6.1-15.8-6.5
							c-2.2,3-1.1,7.6,2.5,10.3C401.4,468.7,406.1,468.6,408.4,465.6z"/>
					</g>
				</g>
			</g>
			<g>
				<g>
					<path id="bd0o1A3ZW" class="st17" d="M397,458.2c-0.7,0-1.3,0.6-1.3,1.3c0,0.7,0.6,1.3,1.3,1.3c0.7,0,1.3-0.6,1.3-1.3
						C398.3,458.8,397.7,458.2,397,458.2z"/>
				</g>
				<g>
					<g>
						<path id="bd0o1A3ZW_1_" class="st16" d="M397,458.2c-0.7,0-1.3,0.6-1.3,1.3c0,0.7,0.6,1.3,1.3,1.3c0.7,0,1.3-0.6,1.3-1.3
							C398.3,458.8,397.7,458.2,397,458.2z"/>
					</g>
				</g>
			</g>
			<g>
				<g>
					<path id="aTEQE7uDu" class="st17" d="M408.9,444.1c1.1-0.6,1.6-1.9,1-3c-0.3,0.1-1.6,0.8-4.1,2
						C407.1,444.1,408.1,444.5,408.9,444.1z"/>
				</g>
				<g>
					<g>
						<path id="aTEQE7uDu_1_" class="st16" d="M408.9,444.1c1.1-0.6,1.6-1.9,1-3c-0.3,0.1-1.6,0.8-4.1,2
							C407.1,444.1,408.1,444.5,408.9,444.1z"/>
					</g>
				</g>
			</g>
			<g>
				<g>
					<path id="aBhsjvchp" class="st17" d="M385.2,540.5c1.1,1.7,1.1,1.8,2.7,0.5c2.4-1.8,3.7-4.3,4.6-7.1c0.1-0.3,0.1-0.8-0.1-1
						c-0.5-0.8-4-5.8-4.8-7.7c-0.1,0.3-2.1,3.4-6.6,3.1C381.3,534.1,382.8,536.8,385.2,540.5z"/>
				</g>
				<g>
					<g>
						<path id="aBhsjvchp_1_" class="st16" d="M385.2,540.5c1.1,1.7,1.1,1.8,2.7,0.5c2.4-1.8,3.7-4.3,4.6-7.1c0.1-0.3,0.1-0.8-0.1-1
							c-0.5-0.8-4-5.8-4.8-7.7c-0.1,0.3-2.1,3.4-6.6,3.1C381.3,534.1,382.8,536.8,385.2,540.5z"/>
					</g>
				</g>
			</g>
			<g>
				<g>
					<path id="fOMI6hCf3" class="st17" d="M442.7,582.6c0,2.4-0.1,2.4,2.3,2.3c3.5-0.1,6.4-1.8,9.2-3.8c0.3-0.2,0.6-0.7,0.6-1.1
						c0-1.2-0.1-8.3,0.4-10.6c-0.3,0.2-4.7,2-8.8-1.4C442.7,573.9,442.7,577.5,442.7,582.6z"/>
				</g>
				<g>
					<g>
						<path id="fOMI6hCf3_1_" class="st16" d="M442.7,582.6c0,2.4-0.1,2.4,2.3,2.3c3.5-0.1,6.4-1.8,9.2-3.8c0.3-0.2,0.6-0.7,0.6-1.1
							c0-1.2-0.1-8.3,0.4-10.6c-0.3,0.2-4.7,2-8.8-1.4C442.7,573.9,442.7,577.5,442.7,582.6z"/>
					</g>
				</g>
			</g>
			<g>
				<g>
					<path id="b34gmxVBCZ" class="st17" d="M455.7,595.6c-1,1.9-1.1,1.9,1.1,2.9c3.2,1.5,6.7,1.3,9.8,0.2c0.4,0,2.8-1.5,3.7-3
						c1-2.6,0.4-3.3,1.2-5.3c-0.3,0-4.4-0.3-6.7-4.9C459.3,588.5,457.8,591.4,455.7,595.6z"/>
				</g>
				<g>
					<g>
						<path id="b34gmxVBCZ_1_" class="st16" d="M455.7,595.6c-1,1.9-1.1,1.9,1.1,2.9c3.2,1.5,6.7,1.3,9.8,0.2c0.4,0,2.8-1.5,3.7-3
							c1-2.6,0.4-3.3,1.2-5.3c-0.3,0-4.4-0.3-6.7-4.9C459.3,588.5,457.8,591.4,455.7,595.6z"/>
					</g>
				</g>
			</g>
			<g>
				<g>
					<path id="e5aUyPC3R" class="st18" d="M444,433c0.4,2.2,2.7,3.4,4.6,4.5c3.2,1.9,6,4.4,8.1,7.4c0.8,1.1,0.8,2.7-0.3,3.6
						c-0.3,0.3-0.5,0.6-0.6,1.1c3.6,3.9,7.2,7.9,10.8,11.8c0.5,0.5,1,1.1,1.5,1.7c1.2,1.4,0.8,3.7-0.9,4.4c-0.4,0.2-0.8,0.6-0.9,1.1
						c-0.2,0.7,0,1.5,0.4,2c0.7,0.9,6.4,8.5,7.1,9.4c1,1.4,2.1,2.8,2.9,4.3c1.4,2.7-1.2,5.7-4.1,4.8c-2.1-0.6-4-2-5.9-3.1
						c-1.8-1-3.5-2.9-5.2-4.1c-3.4-2.6-5.8-7.2-8.4-10.7c-7.6-10.2-12.1-22.3-18.6-33.2c-2.5-4.2-5.5-8.3-9.8-10.5
						c-1.6-0.8-3.4-1.4-5.1-1.8c-2.3-0.6-4.6-0.9-6.9-0.7c-1.3-1-1.9-4.4-0.3-4.8c1.8-0.5,3.5-0.9,5.1-1c9.2-0.6,18.5,2.6,25.5,8.6
						c0.9,0.7,1.7,1.5,2.4,2.4C446.2,431.5,445.4,433.1,444,433C444,433,444,433,444,433z"/>
				</g>
				<g>
					<g>
						<path id="e5aUyPC3R_1_" class="st16" d="M444,433c0.4,2.2,2.7,3.4,4.6,4.5c3.2,1.9,6,4.4,8.1,7.4c0.8,1.1,0.8,2.7-0.3,3.6
							c-0.3,0.3-0.5,0.6-0.6,1.1c3.6,3.9,7.2,7.9,10.8,11.8c0.5,0.5,1,1.1,1.5,1.7c1.2,1.4,0.8,3.7-0.9,4.4
							c-0.4,0.2-0.8,0.6-0.9,1.1c-0.2,0.7,0,1.5,0.4,2c0.7,0.9,6.4,8.5,7.1,9.4c1,1.4,2.1,2.8,2.9,4.3c1.4,2.7-1.2,5.7-4.1,4.8
							c-2.1-0.6-4-2-5.9-3.1c-1.8-1-3.5-2.9-5.2-4.1c-3.4-2.6-5.8-7.2-8.4-10.7c-7.6-10.2-12.1-22.3-18.6-33.2
							c-2.5-4.2-5.5-8.3-9.8-10.5c-1.6-0.8-3.4-1.4-5.1-1.8c-2.3-0.6-4.6-0.9-6.9-0.7c-1.3-1-1.9-4.4-0.3-4.8c1.8-0.5,3.5-0.9,5.1-1
							c9.2-0.6,18.5,2.6,25.5,8.6c0.9,0.7,1.7,1.5,2.4,2.4C446.2,431.5,445.4,433.1,444,433C444,433,444,433,444,433z"/>
					</g>
				</g>
			</g>
			<g>
				<g>
					<path id="a1KBVnUBZF" class="st18" d="M414.6,423.7c0.1-0.4,0.3-0.8,0.4-1.3c0.1-0.6,0.8-1.7,0.4-2.2c-0.5-0.5-1.9-0.1-2.5,0
						c-0.9,0.2-1.8,0.5-2.6,1c-0.8,0.4-1.6,0.9-2.4,1.4c-0.6,0.4-1.1,0.7-1.7,1.1c-1,0.6-2.1,1.3-2.8,2.3c-1.1,1.5-1.3,3.5-0.8,5.3
						c0.2,0.7,0.5,1.4,1.1,1.8c0.2,0.1,0.4,0.2,0.6,0.2c0.1,0,0.3-0.1,0.4-0.2c0.6-0.4,1.3-0.7,1.8-1.3c0.4-0.5,0.6-1,0.9-1.6
						c0.8-1.4,2-2.5,3.2-3.6c0.7-0.6,1.3-1.2,2.2-1.4c0.4-0.1,0.7-0.1,1.1-0.3C414.2,424.6,414.4,424.1,414.6,423.7z"/>
				</g>
				<g>
					<g>
						<path id="a1KBVnUBZF_1_" class="st16" d="M414.6,423.7c0.1-0.4,0.3-0.8,0.4-1.3c0.1-0.6,0.8-1.7,0.4-2.2
							c-0.5-0.5-1.9-0.1-2.5,0c-0.9,0.2-1.8,0.5-2.6,1c-0.8,0.4-1.6,0.9-2.4,1.4c-0.6,0.4-1.1,0.7-1.7,1.1c-1,0.6-2.1,1.3-2.8,2.3
							c-1.1,1.5-1.3,3.5-0.8,5.3c0.2,0.7,0.5,1.4,1.1,1.8c0.2,0.1,0.4,0.2,0.6,0.2c0.1,0,0.3-0.1,0.4-0.2c0.6-0.4,1.3-0.7,1.8-1.3
							c0.4-0.5,0.6-1,0.9-1.6c0.8-1.4,2-2.5,3.2-3.6c0.7-0.6,1.3-1.2,2.2-1.4c0.4-0.1,0.7-0.1,1.1-0.3
							C414.2,424.6,414.4,424.1,414.6,423.7z"/>
					</g>
				</g>
			</g>
			<g>
				<g>
					<path id="cbqWMgDyQ" class="st15" d="M403.3,421.2c0,0-0.4,5.3,2.6,8c3,2.7,6.7,3.5,8.3,1.8c1.6-1.7,0.4-5.3-2.6-8
						C408.6,420.2,405,421.5,403.3,421.2z"/>
				</g>
				<g>
					<g>
						<path id="cbqWMgDyQ_1_" class="st16" d="M403.3,421.2c0,0-0.4,5.3,2.6,8c3,2.7,6.7,3.5,8.3,1.8c1.6-1.7,0.4-5.3-2.6-8
							C408.6,420.2,405,421.5,403.3,421.2z"/>
					</g>
				</g>
			</g>
			<g>
				<g>
					<path id="a9L7ocKay5" class="st18" d="M516.5,577.5c0.7-1.6,1.2-3.2,1.6-4.9c1.6-7.6,7.5-21.5,5.3-34.4
						c-1-6.4-5.2-12-11.2-14.4c-0.2-0.1-0.4-0.1-0.6-0.2c-2-0.3-4.2,1.4-4.5,3.4c-2.1,24.6-8.4,32.3,0,45.8c1.1,1.7,2.3,3.4,3.4,5.1
						C512.1,580.3,515.5,580,516.5,577.5z"/>
				</g>
				<g>
					<g>
						<path id="a9L7ocKay5_1_" class="st16" d="M516.5,577.5c0.7-1.6,1.2-3.2,1.6-4.9c1.6-7.6,7.5-21.5,5.3-34.4
							c-1-6.4-5.2-12-11.2-14.4c-0.2-0.1-0.4-0.1-0.6-0.2c-2-0.3-4.2,1.4-4.5,3.4c-2.1,24.6-8.4,32.3,0,45.8
							c1.1,1.7,2.3,3.4,3.4,5.1C512.1,580.3,515.5,580,516.5,577.5z"/>
					</g>
				</g>
			</g>
		</g>
	</g>
</g>
<path class="st19" d="M523,208.7h-24.2c-1.7,0-3-1.4-3-3v-15.1L523,208.7z"/>
<path class="st20" d="M473.2,72.3l-16.8-8.9l6.1-30.3c1.2,0,2.3,0.7,2.8,1.8l12.1,33.4c0.5,1.2,0.2,2.5-0.7,3.4
	C475.7,72.7,474.4,72.9,473.2,72.3z"/>
<path class="st21" d="M538.1,205.7c-1.7,0-3-1.4-3-3s1.4-3,3-3c4.1,0,12.1-20.8,12.1-59c0-38.2-8-59-12.1-59c-1.7,0-3-1.4-3-3
	c0-1.7,1.4-3,3-3c12.5,0,18.2,33.7,18.2,65.1C556.3,172,550.6,205.7,538.1,205.7z"/>
<path class="st22" d="M444.3,193.6c-1.3,0-2.5-0.9-2.9-2.1c-0.4-1.3,0.1-2.7,1.2-3.4l18.2-12.1c1.4-0.9,3.3-0.6,4.2,0.8
	c0.9,1.4,0.6,3.3-0.8,4.2L446,193.1C445.5,193.4,444.9,193.6,444.3,193.6z"/>
<path class="st22" d="M444.3,208.7c-1.3,0-2.5-0.9-2.9-2.1c-0.4-1.3,0.1-2.7,1.2-3.4l18.2-12.1c0.9-0.6,2.1-0.7,3-0.2
	s1.6,1.4,1.7,2.5c0.1,1.1-0.4,2.1-1.3,2.7L446,208.2C445.5,208.5,444.9,208.7,444.3,208.7z"/>
<path class="st23" d="M480.6,193.6c-0.6,0-1.2-0.2-1.7-0.5L460.8,181c-0.9-0.6-1.4-1.6-1.3-2.7c0.1-1.1,0.7-2,1.7-2.5
	c1-0.5,2.1-0.4,3,0.2l18.2,12.1c1.1,0.7,1.6,2.1,1.2,3.4C483.2,192.7,482,193.6,480.6,193.6z"/>
<path class="st23" d="M480.6,208.7c-0.6,0-1.2-0.2-1.7-0.5l-18.2-12.1c-1.4-0.9-1.8-2.8-0.8-4.2c0.9-1.4,2.8-1.8,4.2-0.8l18.2,12.1
	c1.1,0.7,1.6,2.1,1.2,3.4C483.2,207.8,482,208.7,480.6,208.7z"/>
<path class="st24" d="M462.5,33.2v33.5l0,0l-10.7,5.7c-1.1,0.6-2.5,0.4-3.4-0.5c-0.9-0.9-1.2-2.2-0.7-3.4L459.7,35
	C460.2,33.9,461.3,33.2,462.5,33.2z"/>
<path class="st25" d="M462.5,211.7c-1.7,0-3-1.4-3-3V54.4c0-1.7,1.4-3,3-3c1.7,0,3,1.4,3,3v154.3
	C465.5,210.4,464.2,211.7,462.5,211.7z"/>
<path class="st25" d="M526,81.6c-0.9,0-1.8-0.4-2.4-1.1c-0.6-0.7-0.8-1.6-0.6-2.5l9.1-42.4c0.2-1.1,1-1.9,2-2.2c1-0.3,2.2-0.1,3,0.6
	c0.8,0.7,1.2,1.8,0.9,2.9L529,79.2C528.7,80.6,527.5,81.6,526,81.6z"/>
<path class="st23" d="M532.1,51.3c-0.8,0-1.6-0.3-2.1-0.9l-9.1-9.1c-1.2-1.2-1.2-3.1,0-4.3c1.2-1.2,3.1-1.2,4.3,0L533,45l10.4-2.6
	c1.6-0.4,3.2,0.6,3.7,2.2c0.4,1.6-0.6,3.3-2.2,3.7l-12.1,3C532.6,51.3,532.3,51.3,532.1,51.3z"/>
<path class="st25" d="M510.9,81.6c-1.4,0-2.6-0.9-2.9-2.2l-9.1-33.3c-0.4-1.6,0.5-3.3,2.1-3.7c1.6-0.4,3.3,0.5,3.7,2.1l9.1,33.3
	c0.2,0.9,0.1,1.9-0.5,2.6C512.7,81.2,511.9,81.6,510.9,81.6z"/>
<path class="st22" d="M504.9,60.4c-0.2,0-0.5,0-0.7-0.1l-12.1-3c-1.6-0.4-2.6-2.1-2.2-3.7c0.4-1.6,2-2.6,3.6-2.2l10.4,2.6l7.9-7.9
	c0.7-0.9,1.9-1.2,3-1c1.1,0.3,2,1.1,2.2,2.2s-0.1,2.3-1,3l-9.1,9.1C506.4,60.1,505.7,60.4,504.9,60.4z"/>
<path class="st26" d="M538.1,76.5v129.2c0,1.7-1.4,3-3,3H517l-21.2-18.2v-114c0-0.9,0.4-1.8,1.2-2.4c0.8-0.6,1.7-0.8,2.6-0.5l16.6,5
	c0.5,0.2,1.1,0.2,1.6,0l16.6-5c0.9-0.3,1.9-0.1,2.6,0.5C537.7,74.7,538.1,75.6,538.1,76.5z"/>
<g>
	<path class="st27" d="M526,172.4c-1.7,0-3-1.4-3-3V95.6l-1.7,0.8c-1,0.5-2.1,0.4-3-0.2c-0.9-0.6-1.4-1.6-1.4-2.7s0.7-2,1.7-2.5
		l1.7-0.8c1.9-0.9,4.1-0.9,5.9,0.3c1.8,1.1,2.9,3.1,2.9,5.2v73.7C529.1,171,527.7,172.4,526,172.4z"/>
	<path class="st27" d="M526,199.6c-1.7,0-3-1.4-3-3v-15.1c0-1.7,1.4-3,3-3s3,1.4,3,3v15.1C529.1,198.3,527.7,199.6,526,199.6z"/>
</g>
<g>
	<g>
		<g>
			<g>
				<path id="aGbnZiXAy" class="st28" d="M257.6,161.8c-1.5,2.4-2.3,3.8-2.5,4.1c-2,3.3-5.6,5.3-9.5,5.3c-0.6,0-3.6,0-9,0l-75.2-0.1
					c-23.1,26.2-35.9,40.8-38.4,43.7c-29.5-13.4-50-43.2-50-77.7c0-19.1,6.2-36.7,16.8-50.9c7.2-0.8,64.9-7.6,72.1-8.4
					c12.2-1.4,24.5,2.7,33.3,11.3c3.2,3.1,19.4,18.8,48.5,46.9l12,11.6l6.6,6.4L257.6,161.8z"/>
			</g>
			<g>
				<g>
					<path id="aGbnZiXAy_1_" class="st16" d="M257.6,161.8c-1.5,2.4-2.3,3.8-2.5,4.1c-2,3.3-5.6,5.3-9.5,5.3c-0.6,0-3.6,0-9,0
						l-75.2-0.1c-23.1,26.2-35.9,40.8-38.4,43.7c-29.5-13.4-50-43.2-50-77.7c0-19.1,6.2-36.7,16.8-50.9c7.2-0.8,64.9-7.6,72.1-8.4
						c12.2-1.4,24.5,2.7,33.3,11.3c3.2,3.1,19.4,18.8,48.5,46.9l12,11.6l6.6,6.4L257.6,161.8z"/>
				</g>
			</g>
		</g>
		<g>
			<g>
				<path id="h8rjgxMZoU" class="st29" d="M194.4,117.4c-2.9-0.7-4.8-3.6-4.1-6.6l0,0c7.4,1.7,11.6,2.7,12.4,2.9
					c2.9,0.7,4.8,3.6,4.1,6.6l0,0C199.4,118.5,195.2,117.6,194.4,117.4z"/>
			</g>
			<g>
				<g>
					<path id="h8rjgxMZoU_1_" class="st16" d="M194.4,117.4c-2.9-0.7-4.8-3.6-4.1-6.6l0,0c7.4,1.7,11.6,2.7,12.4,2.9
						c2.9,0.7,4.8,3.6,4.1,6.6l0,0C199.4,118.5,195.2,117.6,194.4,117.4z"/>
				</g>
			</g>
		</g>
		<g>
			<g>
				<path id="c1Tm5UFKIN" class="st30" d="M165.6,102.7c0,0-12-16.4-28.4-17.4c0,0-0.5,5.8,0.4,12.2c1.1,7.4,7.2,13,14.6,13.4
					c0.5,0,3.1,0.2,7.8,0.5"/>
			</g>
			<g>
				<g>
					<path id="c1Tm5UFKIN_1_" class="st16" d="M165.6,102.7c0,0-12-16.4-28.4-17.4c0,0-0.5,5.8,0.4,12.2c1.1,7.4,7.2,13,14.6,13.4
						c0.5,0,3.1,0.2,7.8,0.5"/>
				</g>
			</g>
		</g>
		<g>
			<g>
				<path id="cBUAdNTq9" class="st31" d="M140.5,92c0,0-2.3,18.7,19.7,14.4C156.3,103.5,153.5,95.4,140.5,92z"/>
			</g>
			<g>
				<g>
					<path id="cBUAdNTq9_1_" class="st16" d="M140.5,92c0,0-2.3,18.7,19.7,14.4C156.3,103.5,153.5,95.4,140.5,92z"/>
				</g>
			</g>
		</g>
		<g>
			<g>
				<path id="a5PhR28CmC" class="st29" d="M257.6,161.8c-2.7-1.6-4.4-4.5-4.4-7.9c0-2.5,1-4.8,2.6-6.4c0.4,0.4,2.7,2.6,6.6,6.4
					C259.5,158.6,257.9,161.3,257.6,161.8z"/>
			</g>
			<g>
				<g>
					<path id="a5PhR28CmC_1_" class="st16" d="M257.6,161.8c-2.7-1.6-4.4-4.5-4.4-7.9c0-2.5,1-4.8,2.6-6.4c0.4,0.4,2.7,2.6,6.6,6.4
						C259.5,158.6,257.9,161.3,257.6,161.8z"/>
				</g>
			</g>
		</g>
		<g>
			<g>
				<path id="f1r05bXSLW" class="st32" d="M199.4,47.3c25.1-1.4,42.8,17,72.3,5.6c0,0-7.8,20.9-48.2,13c-28-5.5-36.7,6.4-38.2,16.8
					c-0.9,6.7-6.5,11.7-13.3,12.1l0,0c-8.8,0.4-15.9-7.3-14.6-16C159.1,66.3,167.9,51,199.4,47.3z"/>
			</g>
			<g>
				<g>
					<path id="f1r05bXSLW_1_" class="st16" d="M199.4,47.3c25.1-1.4,42.8,17,72.3,5.6c0,0-7.8,20.9-48.2,13
						c-28-5.5-36.7,6.4-38.2,16.8c-0.9,6.7-6.5,11.7-13.3,12.1l0,0c-8.8,0.4-15.9-7.3-14.6-16C159.1,66.3,167.9,51,199.4,47.3z"/>
				</g>
			</g>
		</g>
		<g>
			<g>
				<path id="fkHLv5lsZ" class="st33" d="M262.6,174.6c-1.4,0.8-3.3,0.3-4.1-1.1c-0.8-1.3-6.8-11.7-7.5-13c-0.8-1.4-0.3-3.3,1.1-4.1
					l0,0c1.4-0.8,3.3-0.3,4.1,1.1c0.8,1.3,6.8,11.7,7.5,13C264.5,171.9,264,173.8,262.6,174.6L262.6,174.6z"/>
			</g>
			<g>
				<g>
					<path id="fkHLv5lsZ_1_" class="st16" d="M262.6,174.6c-1.4,0.8-3.3,0.3-4.1-1.1c-0.8-1.3-6.8-11.7-7.5-13
						c-0.8-1.4-0.3-3.3,1.1-4.1l0,0c1.4-0.8,3.3-0.3,4.1,1.1c0.8,1.3,6.8,11.7,7.5,13C264.5,171.9,264,173.8,262.6,174.6
						L262.6,174.6z"/>
				</g>
			</g>
		</g>
	</g>
</g>
<g transform="matrix(1.25 0 0 -1.25 0 45)">
	<g>
		<g>
			<path class="st34" d="M64.9-248.2c0,0-2.9,14.7,1.2,44c5.7-1.8,11.4-3.5,13.2-3.5c4,0,16.2,4,16.2,8.1c0,4-4,8.1-4,8.1l8.1,4
				c4,4,0,28.3-16.2,28.3c-28.3,0-38.7-28.3-38.7-28.3l0,0h0c0,0-24.3-44.5-24.3-80.9c0.3,0-4-20.2,0-24.3c4-4,20.2-4,20.2-4
				c40.5-16.1,115.6-4,115.6,32.4C156.3-211.8,77.1-223.9,64.9-248.2"/>
			<path class="st35" d="M93.5-289.7c-12.9,0-23.4,5.2-24,5.5c-2,1-2.8,3.4-1.8,5.4c1,2,3.4,2.8,5.4,1.8c0.2-0.1,17.2-8.3,32.2-2.6
				c8.3,3.2,14.7,10.1,18.9,20.7c0.8,2.1,3.2,3.1,5.3,2.3c2.1-0.8,3.1-3.2,2.3-5.3c-5.1-12.8-13-21.3-23.6-25.3
				C103.2-289,98.2-289.7,93.5-289.7"/>
		</g>
	</g>
</g>
<path class="st36" d="M605.5,304.5c0,0,9,14,16,27.9c1.8,3.5,6.9,2.9,7.8-0.9l3.1-13.9l15.5-1c3.7-0.2,5.3-4.7,2.6-7.2
	c-6.3-5.9-17.3-13.6-31.4-14.2C619.2,295.4,605.5,304.5,605.5,304.5z"/>
<path class="st37" d="M650.6,309.4c-6.3-5.9-17.3-13.6-31.4-14.2c0,0.1-5,3.6-9,6.2l13.6,8.2l8.7,8.1l15.5-1
	C651.6,316.4,653.2,311.9,650.6,309.4z"/>
<path class="st36" d="M517.7,266.1l11.9-13.9c5.2-6.1,13.2-8.9,21.1-7.5c10.2,1.8,24.5,5.7,36.2,14.3c3.3,2.4,5.6,5.8,6.7,9.7
	c1.4,5.1,3.3,12.1,3.3,12.1L517.7,266.1z"/>
<path class="st37" d="M563.4,247.6c-4.5-1.4-8.9-2.3-12.6-3c-7.9-1.4-15.9,1.5-21.1,7.5l-11.9,13.9l21.7,4l13.3-15.6
	C555.6,251.2,559.3,248.8,563.4,247.6z"/>
<path class="st38" d="M624,302.5c-0.7-1.4-1.6-2.9-2.5-4.4c-5.9-9.7-16.8-23-33.5-31.8c-16.4-8.8-38.6-13.1-61.2-5.9
	c-16.4,5-33,16.3-44.3,33.2c-0.3,0.7-3.2,7.4,4.4,8.8c-2.9,10.1,7.9,7.4,7.9,7.4c8.3-1.2,18.2-2.2,28.4-2.2
	c13.4-0.5,27.8-0.6,44.2-0.2c14.2,0.5,29.8,1.2,50.7,5C622.9,313.3,626.5,307.3,624,302.5z"/>
<g>
	<path class="st39" d="M623.8,309.6c1.2-2,1.5-4.7,0.2-7.1c-0.7-1.4-1.6-2.9-2.5-4.4c-5.9-9.7-16.8-23-33.5-31.8
		c-16.4-8.8-38.6-13.1-61.2-5.9c-16.4,5-33,16.3-44.3,33.2c-0.3,0.7-3.2,7.4,4.4,8.8C486.9,302.4,546.3,246.1,623.8,309.6z"/>
	<path class="st39" d="M590.9,299.8c-1.7-0.1-3.5-0.3-5.3-0.4c-1.6-0.1-2.9-1.5-2.7-3.2c0.1-1.6,1.5-2.9,3.2-2.7
		c1.8,0.1,3.6,0.3,5.4,0.4c1.6,0.1,2.9,1.6,2.7,3.2C593.7,300.2,590.9,299.8,590.9,299.8z"/>
	<path class="st39" d="M576.4,298.9c-2.6-0.1-5.3-0.2-8.8-0.3l-0.1,0c-1.7,0-3.4-0.1-5-0.1c-1.6,0-2.9-1.4-2.9-3
		c0-1.6,1.4-2.9,3-2.9c1.7,0,3.3,0.1,5.1,0.1l0.1,0c3.5,0.1,6.2,0.2,8.9,0.3c1.6,0.1,3,1.5,2.8,3.1
		C579.2,298.9,576.4,298.9,576.4,298.9z"/>
</g>
<path class="st36" d="M534.9,297.1c-5.1-1.7-7.9-7.2-6.2-12.3c1.7-5.1,7.2-7.9,12.3-6.2c5.1,1.7,15.5,9.7,13.8,14.8
	S540,298.7,534.9,297.1z"/>
<path class="st37" d="M537.9,289c-3.8-1.2-6.3-4.5-6.7-8.2c-1.1,1.1-2,2.4-2.5,4c-1.7,5.1,1.1,10.6,6.2,12.3
	c5.1,1.7,18.2,1.4,19.8-3.8c0.5-1.4,0-3.1-1-4.7C549,290.3,541.5,290.2,537.9,289z"/>
<circle class="st40" cx="500.7" cy="289.9" r="8.1"/>
<path class="st41" d="M500.7,292.8c-0.8,0-1.5-0.3-2.1-0.9c-0.6-0.5-0.9-1.3-0.9-2.1c0-0.8,0.3-1.5,0.9-2.1c0.6-0.6,1.3-0.9,2.1-0.9
	c0.8,0,1.5,0.3,2.1,0.9c0.5,0.5,0.9,1.3,0.9,2.1c0,0.8-0.3,1.5-0.9,2.1C502.3,292.5,501.5,292.8,500.7,292.8z"/>
<path class="st42" d="M506.6,364.3c0,0-9-14-16-27.9c-1.8-3.5-6.9-2.9-7.8,0.9l-3.1,13.9l-15.5,1c-3.7,0.2-5.3,4.7-2.6,7.2
	c6.3,5.9,17.3,13.6,31.4,14.2C492.9,373.4,506.6,364.3,506.6,364.3z"/>
<g>
	<path class="st43" d="M461.6,359.4c6.3,5.9,17.3,13.6,31.4,14.2c0-0.1,5-3.6,9-6.2l-13.6-8.2l-8.7-8.1l-15.5,1
		C460.5,352.4,458.9,356.9,461.6,359.4z"/>
	<path class="st43" d="M594.4,402.7l-11.9,13.9c-5.2,6.1-13.2,8.9-21.1,7.5c-10.2-1.8-24.5-5.7-36.2-14.3c-3.3-2.4-5.6-5.8-6.7-9.7
		c-1.4-5.1-3.3-12.1-3.3-12.1L594.4,402.7z"/>
</g>
<path class="st42" d="M548.7,421.1c4.5,1.4,8.9,2.3,12.6,3c7.9,1.4,15.9-1.5,21.1-7.5l11.9-13.9l-21.7-4l-13.3,15.6
	C556.6,417.6,552.8,419.9,548.7,421.1z"/>
<path class="st44" d="M488.2,366.3c0.7,1.4,1.6,2.9,2.5,4.4c5.9,9.7,16.8,23,33.5,31.8c16.4,8.8,38.6,13.1,61.2,5.9
	c16.4-5,33-16.3,44.3-33.2c0.3-0.7,3.2-7.4-4.4-8.8c2.9-10.1-7.9-7.4-7.9-7.4c-8.3,1.2-18.2,2.2-28.4,2.2
	c-13.4,0.5-27.8,0.6-44.2,0.2c-14.2-0.5-29.8-1.2-50.7-5C489.2,355.5,485.6,361.5,488.2,366.3z"/>
<g>
	<path class="st45" d="M488.4,359.2c-1.2,2-1.5,4.7-0.2,7.1c0.7,1.4,1.6,2.9,2.5,4.4c5.9,9.7,16.8,23,33.5,31.8
		c16.4,8.8,38.6,13.1,61.2,5.9c16.4-5,33-16.3,44.3-33.2c0.3-0.7,3.2-7.4-4.4-8.8C625.3,366.4,565.8,422.7,488.4,359.2z"/>
	<path class="st45" d="M526.1,375.3c-1.8-0.1-3.6-0.3-5.4-0.4c-1.6-0.1-2.8-1.6-2.7-3.2c0.1-1.6,1.6-2.8,3.2-2.7
		c1.7,0.1,3.5,0.3,5.3,0.4c1.6,0.1,2.9,1.5,2.7,3.2C529,375.3,526.2,375.3,526.1,375.3z"/>
	<path class="st45" d="M549.5,376.2c-1.7,0-3.3-0.1-5.1-0.1l-0.1,0c-3.5-0.1-6.2-0.2-8.9-0.3c-1.6-0.1-2.9-1.5-2.8-3.1
		c0.1-1.6,1.5-2.9,3.1-2.8c2.6,0.1,5.3,0.2,8.8,0.3l0.1,0c1.7,0,3.4,0.1,5,0.1c1.6,0,3,1.4,2.9,3
		C552.3,376.2,549.5,376.2,549.5,376.2z"/>
</g>
<path class="st43" d="M577.2,371.7c5.1,1.7,7.9,7.2,6.2,12.3s-7.2,7.9-12.3,6.2c-5.1-1.7-15.5-9.7-13.8-14.8
	C559,370.3,572.1,370,577.2,371.7z"/>
<path class="st42" d="M574.3,379.8c3.8,1.2,6.3,4.5,6.7,8.2c1.1-1.1,2-2.4,2.5-4c1.7-5.1-1.1-10.6-6.2-12.3
	c-5.1-1.7-18.2-1.4-19.8,3.8c-0.5,1.4,0,3.1,1,4.7C563.1,378.4,570.7,378.6,574.3,379.8z"/>
<circle class="st40" cx="611.4" cy="378.9" r="8.1"/>
<path class="st41" d="M611.4,375.9c0.8,0,1.5,0.3,2.1,0.9c0.6,0.5,0.9,1.3,0.9,2.1c0,0.8-0.3,1.5-0.9,2.1c-0.6,0.6-1.3,0.9-2.1,0.9
	c-0.8,0-1.5-0.3-2.1-0.9c-0.5-0.5-0.9-1.3-0.9-2.1s0.3-1.5,0.9-2.1C609.9,376.3,610.6,375.9,611.4,375.9z"/>
<g>
	<g>
		<polygon class="st0" points="334,195.2 415.3,244 399.3,253.9 334,293.8 268.6,253.9 252.6,244 		"/>
		<polygon class="st0" points="240.3,267.5 320.7,316.7 320.7,404.5 240.3,352.4 		"/>
		<polygon class="st0" points="427.6,352.4 347.2,404.5 347.2,316.7 427.6,267.5 		"/>
	</g>
</g>
</svg>
