<?xml version="1.0" encoding="iso-8859-1"?>
<!-- Generator: Adobe Illustrator 19.0.0, SVG Export Plug-In . SVG Version: 6.00 Build 0)  -->
<svg version="1.1" id="Capa_1" xmlns="http://www.w3.org/2000/svg" xmlns:xlink="http://www.w3.org/1999/xlink" x="0px" y="0px"
	 viewBox="0 0 512 512" style="enable-background:new 0 0 512 512;" xml:space="preserve">
<path style="fill:#C20022;" d="M418.869,2.185c-9.637-1.434-19.3-2.161-28.724-2.161c-75.21,0-130.414,45.019-183.801,88.557
	c-51.582,42.065-100.303,81.797-164.82,81.804c-0.005,0-0.011,0-0.016,0c-7.94,0-16.11-0.617-24.29-1.834
	c-4.32-0.642-8.698,0.627-12.002,3.477c-3.305,2.849-5.205,6.997-5.205,11.359v193.118c0,8.284,6.716,14.999,14.999,14.999h401.65
	c8.284,0,14.999-6.716,14.999-14.999V17.022C431.66,9.59,426.219,3.279,418.869,2.185z"/>
<path style="fill:#98001B;" d="M418.869,2.185c-9.637-1.434-19.3-2.161-28.724-2.161c-70.764,0-123.817,39.854-174.309,80.83v310.65
	h200.825c8.284,0,14.999-6.716,14.999-14.999V17.021C431.66,9.59,426.219,3.279,418.869,2.185z"/>
<g>
	<path style="fill:#FCBF29;" d="M41.781,200.408c-9.345,0-18.981-0.698-28.977-2.185c-8.194-1.22-13.847-8.851-12.628-17.044
		c1.22-8.193,8.836-13.848,17.044-12.627c77.022,11.462,131.481-32.951,189.135-79.97c60.166-49.069,122.378-99.809,212.513-86.395
		c8.193,1.219,13.847,8.85,12.628,17.044c-1.22,8.193-8.845,13.848-17.044,12.627c-77.026-11.461-131.483,32.951-189.138,79.971
		C171.822,155.455,116.694,200.402,41.781,200.408z"/>
	<path style="fill:#FCBF29;" d="M496.99,391.506H15.012c-8.284,0-14.999-6.716-14.999-14.999s6.716-14.999,14.999-14.999H496.99
		c8.284,0,14.999,6.716,14.999,14.999S505.274,391.506,496.99,391.506z"/>
</g>
<path style="fill:#FF9822;" d="M496.99,361.507H215.836v29.999H496.99c8.284,0,14.999-6.716,14.999-14.999
	S505.274,361.507,496.99,361.507z"/>
<path style="fill:#9A4C0E;" d="M215.836,241.011c-74.712,0-135.494,60.782-135.494,135.494S141.124,512,215.836,512
	S351.33,451.217,351.33,376.505S290.547,241.011,215.836,241.011z M300.252,439.708l-48.203-48.204h68.212
	C317.7,409.405,310.638,425.87,300.252,439.708z M111.413,391.506h68.212l-48.203,48.204
	C121.033,425.87,113.971,409.405,111.413,391.506z M131.42,313.303l48.205,48.204h-68.212
	C113.971,343.608,121.033,327.141,131.42,313.303z M230.835,272.082c17.899,2.559,34.365,9.622,48.205,20.009l-48.205,48.204
	L230.835,272.082L230.835,272.082z M200.837,340.294l-48.203-48.204c13.837-10.388,30.304-17.45,48.203-20.009V340.294z
	 M200.837,412.718v68.213c-17.899-2.559-34.365-9.622-48.203-20.009L200.837,412.718z M230.835,412.718l48.203,48.204
	c-13.837,10.388-30.304,17.45-48.203,20.009V412.718z M252.047,361.507l48.205-48.204c10.387,13.838,17.448,30.305,20.009,48.204
	H252.047z"/>
<path style="fill:#713709;" d="M215.836,241.011V512c74.712,0,135.494-60.783,135.494-135.495S290.547,241.011,215.836,241.011z
	 M320.26,361.507h-68.214l48.205-48.204C310.638,327.141,317.7,343.608,320.26,361.507z M230.835,272.082
	c17.899,2.559,34.365,9.622,48.205,20.009l-48.205,48.204L230.835,272.082L230.835,272.082z M230.835,480.931v-68.213l48.203,48.204
	C265.201,471.309,248.735,478.372,230.835,480.931z M300.252,439.708l-48.203-48.204h68.212
	C317.7,409.405,310.638,425.87,300.252,439.708z"/>
<path style="fill:#FF9822;" d="M414.453,31.857c8.2,1.22,15.824-4.435,17.044-12.627c1.219-8.194-4.436-15.824-12.628-17.044
	c-85.411-12.709-145.749,32.186-203.033,78.677v38.684c3.168-2.571,6.326-5.147,9.479-7.718
	C282.969,64.807,337.427,20.395,414.453,31.857z"/>
<g>
</g>
<g>
</g>
<g>
</g>
<g>
</g>
<g>
</g>
<g>
</g>
<g>
</g>
<g>
</g>
<g>
</g>
<g>
</g>
<g>
</g>
<g>
</g>
<g>
</g>
<g>
</g>
<g>
</g>
</svg>
