<?xml version="1.0" encoding="UTF-8" standalone="no"?>
<!DOCTYPE svg PUBLIC "-//W3C//DTD SVG 1.1//EN" "http://www.w3.org/Graphics/SVG/1.1/DTD/svg11.dtd">
<svg version="1.1" xmlns="http://www.w3.org/2000/svg" xmlns:xlink="http://www.w3.org/1999/xlink" preserveAspectRatio="xMidYMid meet" viewBox="0 0 640 640" width="640" height="640"><defs><path d="M515.45 404.08L515.94 405.73L516.36 407.39L516.7 409.05L516.99 410.71L517.2 412.37L517.34 414.02L517.42 415.68L517.43 417.33L517.38 418.97L517.27 420.61L517.09 422.23L516.85 423.84L516.54 425.44L516.18 427.02L515.76 428.58L515.28 430.13L514.73 431.65L514.14 433.16L513.48 434.63L512.77 436.08L512 437.51L511.18 438.9L510.31 440.27L509.38 441.6L508.41 442.89L507.38 444.15L506.3 445.37L505.17 446.55L503.99 447.69L502.77 448.79L501.49 449.84L500.18 450.84L498.81 451.79L497.4 452.7L495.95 453.55L494.46 454.35L492.92 455.09L491.34 455.78L489.72 456.41L135.38 586.9L133.83 587.43L132.27 587.9L130.71 588.29L129.14 588.62L127.58 588.89L126.01 589.09L124.44 589.22L122.88 589.3L121.32 589.31L119.77 589.26L118.22 589.15L116.69 588.98L115.17 588.76L113.66 588.47L112.17 588.13L110.69 587.73L109.23 587.27L107.79 586.76L106.37 586.2L104.97 585.58L103.6 584.91L102.26 584.18L100.94 583.41L99.65 582.58L98.4 581.71L97.17 580.78L95.99 579.81L94.83 578.79L93.72 577.72L92.64 576.61L91.61 575.46L90.61 574.25L89.67 573.01L88.77 571.72L87.91 570.39L87.11 569.02L86.35 567.61L85.65 566.15L85 564.66L84.41 563.13L83.88 561.58L83.42 560.02L83.02 558.46L82.69 556.89L82.43 555.33L82.23 553.76L82.09 552.19L82.02 550.63L82 549.07L82.05 547.52L82.16 545.98L82.33 544.44L82.56 542.92L82.84 541.41L83.19 539.92L83.59 538.44L84.04 536.98L84.55 535.54L85.12 534.12L85.74 532.73L86.41 531.36L87.13 530.01L87.91 528.69L88.73 527.41L89.61 526.15L90.53 524.93L91.5 523.74L92.52 522.59L93.59 521.47L94.7 520.39L95.86 519.36L97.06 518.37L98.31 517.42L99.6 516.52L100.93 515.66L102.3 514.86L103.71 514.1L105.16 513.4L106.65 512.76L108.18 512.16L156.31 493.11L303.21 328.76L139.42 1.33L368.83 1.33L514.89 402.44L515.45 404.08Z" id="dRVjFL69S"></path><path d="M515.45 404.08L515.94 405.73L516.36 407.39L516.7 409.05L516.99 410.71L517.2 412.37L517.34 414.02L517.42 415.68L517.43 417.33L517.38 418.97L517.27 420.61L517.09 422.23L516.85 423.84L516.54 425.44L516.18 427.02L515.76 428.58L515.28 430.13L514.73 431.65L514.14 433.16L513.48 434.63L512.77 436.08L512 437.51L511.18 438.9L510.31 440.27L509.38 441.6L508.41 442.89L507.38 444.15L506.3 445.37L505.17 446.55L503.99 447.69L502.77 448.79L501.49 449.84L500.18 450.84L498.81 451.79L497.4 452.7L495.95 453.55L494.46 454.35L492.92 455.09L491.34 455.78L489.72 456.41L135.38 586.9L133.83 587.43L132.27 587.9L130.71 588.29L129.14 588.62L127.58 588.89L126.01 589.09L124.44 589.22L122.88 589.3L121.32 589.31L119.77 589.26L118.22 589.15L116.69 588.98L115.17 588.76L113.66 588.47L112.17 588.13L110.69 587.73L109.23 587.27L107.79 586.76L106.37 586.2L104.97 585.58L103.6 584.91L102.26 584.18L100.94 583.41L99.65 582.58L98.4 581.71L97.17 580.78L95.99 579.81L94.83 578.79L93.72 577.72L92.64 576.61L91.61 575.46L90.61 574.25L89.67 573.01L88.77 571.72L87.91 570.39L87.11 569.02L86.35 567.61L85.65 566.15L85 564.66L84.41 563.13L83.88 561.58L83.42 560.02L83.02 558.46L82.69 556.89L82.43 555.33L82.23 553.76L82.09 552.19L82.02 550.63L82 549.07L82.05 547.52L82.16 545.98L82.33 544.44L82.56 542.92L82.84 541.41L83.19 539.92L83.59 538.44L84.04 536.98L84.55 535.54L85.12 534.12L85.74 532.73L86.41 531.36L87.13 530.01L87.91 528.69L88.73 527.41L89.61 526.15L90.53 524.93L91.5 523.74L92.52 522.59L93.59 521.47L94.7 520.39L95.86 519.36L97.06 518.37L98.31 517.42L99.6 516.52L100.93 515.66L102.3 514.86L103.71 514.1L105.16 513.4L106.65 512.76L108.18 512.16L156.31 493.11L303.21 328.76L139.42 1.33L368.83 1.33L514.89 402.44L515.45 404.08Z" id="e2iIIFtq8n"></path><path d="M515.6 405.42L516.02 407.07L516.37 408.73L516.65 410.39L516.86 412.05L517 413.7L517.08 415.36L517.09 417L517.04 418.65L516.93 420.28L516.75 421.9L516.51 423.51L516.21 425.11L515.84 426.69L515.42 428.25L514.94 429.8L514.4 431.32L513.8 432.82L513.14 434.3L512.43 435.75L511.67 437.17L510.85 438.56L509.98 439.93L509.05 441.25L508.07 442.55L507.04 443.81L505.97 445.03L504.84 446.21L503.66 447.34L502.44 448.44L501.17 449.49L499.85 450.49L498.49 451.45L497.08 452.35L495.63 453.2L494.13 454L492.6 454.74L491.02 455.43L489.4 456.05L439.5 474.43L267.3 1.33L368.61 1.33L514.55 402.13L515.11 403.77L515.6 405.42Z" id="aqb9yO5qM"></path><path d="M515.6 405.42L516.02 407.07L516.37 408.73L516.65 410.39L516.86 412.05L517 413.7L517.08 415.36L517.09 417L517.04 418.65L516.93 420.28L516.75 421.9L516.51 423.51L516.21 425.11L515.84 426.69L515.42 428.25L514.94 429.8L514.4 431.32L513.8 432.82L513.14 434.3L512.43 435.75L511.67 437.17L510.85 438.56L509.98 439.93L509.05 441.25L508.07 442.55L507.04 443.81L505.97 445.03L504.84 446.21L503.66 447.34L502.44 448.44L501.17 449.49L499.85 450.49L498.49 451.45L497.08 452.35L495.63 453.2L494.13 454L492.6 454.74L491.02 455.43L489.4 456.05L439.5 474.43L267.3 1.33L368.61 1.33L514.55 402.13L515.11 403.77L515.6 405.42Z" id="a197v5oYT"></path><path d="M153 598.4L561.69 448.35" id="bCZ6CC8qk"></path><path d="M153 598.4L561.69 448.35" id="c1FX9wFTZw"></path><path d="M548.22 436.92L548.91 437.02L549.6 437.15L550.28 437.3L550.95 437.48L551.61 437.69L552.26 437.92L552.91 438.17L553.54 438.45L554.16 438.75L554.77 439.08L555.37 439.43L555.96 439.8L556.53 440.2L557.08 440.61L557.62 441.05L558.15 441.51L558.66 441.99L559.14 442.5L559.61 443.02L560.07 443.56L560.5 444.13L560.91 444.71L561.3 445.31L561.66 445.93L562.01 446.57L562.33 447.23L562.62 447.91L562.89 448.6L563.14 449.3L563.35 450.01L563.53 450.72L563.68 451.43L563.8 452.14L563.9 452.85L563.96 453.56L564 454.27L564 454.97L563.98 455.68L563.94 456.38L563.86 457.07L563.76 457.76L563.63 458.45L563.48 459.13L563.3 459.8L563.09 460.46L562.86 461.11L562.61 461.76L562.33 462.39L562.03 463.01L561.7 463.62L561.35 464.22L560.98 464.81L560.58 465.38L560.17 465.93L559.73 466.47L559.27 467L558.78 467.5L558.28 467.99L557.76 468.46L557.21 468.91L556.65 469.34L556.07 469.75L555.47 470.14L554.84 470.51L554.21 470.85L553.55 471.17L552.87 471.47L552.18 471.74L159.21 615.33L159.06 615.39L158.9 615.44L158.75 615.49L158.59 615.54L158.44 615.59L158.29 615.64L158.13 615.69L157.98 615.73L157.82 615.78L157.66 615.82L157.51 615.86L157.35 615.9L157.2 615.94L157.04 615.98L156.89 616.01L156.73 616.05L156.58 616.08L156.42 616.11L156.26 616.14L156.11 616.17L155.95 616.19L155.8 616.22L155.64 616.24L155.48 616.27L155.33 616.29L155.17 616.31L155.02 616.33L154.86 616.34L154.71 616.36L154.55 616.37L154.39 616.39L154.24 616.4L154.08 616.41L153.93 616.42L153.77 616.42L153.62 616.43L153.46 616.43L153.31 616.44L153.15 616.44L153 616.44L152.45 616.43L151.9 616.41L151.35 616.36L150.81 616.31L150.27 616.23L149.73 616.14L149.2 616.03L148.67 615.91L148.15 615.77L147.63 615.62L147.12 615.45L146.61 615.27L146.11 615.07L145.61 614.85L145.12 614.62L144.64 614.38L144.16 614.12L143.69 613.85L143.23 613.56L142.78 613.27L142.34 612.95L141.91 612.63L141.48 612.28L141.07 611.93L140.67 611.56L140.27 611.19L139.89 610.79L139.52 610.39L139.16 609.97L138.81 609.54L138.48 609.1L138.15 608.65L137.84 608.18L137.55 607.71L137.26 607.22L137 606.72L136.74 606.21L136.5 605.69L136.28 605.16L136.07 604.62L135.83 603.91L135.62 603.21L135.44 602.5L135.28 601.79L135.16 601.08L135.07 600.37L135 599.66L134.97 598.95L134.96 598.24L134.98 597.54L135.03 596.84L135.1 596.15L135.2 595.45L135.33 594.77L135.49 594.09L135.67 593.42L135.87 592.76L136.1 592.11L136.35 591.46L136.63 590.83L136.94 590.21L137.26 589.6L137.61 589L137.98 588.41L138.38 587.84L138.8 587.29L139.24 586.75L139.7 586.22L140.18 585.71L140.68 585.23L141.2 584.76L141.75 584.3L142.31 583.87L142.89 583.46L143.5 583.07L144.12 582.71L144.76 582.36L145.41 582.04L146.09 581.75L146.78 581.48L539.75 437.89L540.46 437.65L541.16 437.44L541.87 437.25L542.58 437.1L543.29 436.98L544 436.89L544.71 436.82L545.42 436.79L546.13 436.78L546.83 436.8L547.53 436.85L548.22 436.92Z" id="chjbRwRLc"></path><path d="M548.22 436.92L548.91 437.02L549.6 437.15L550.28 437.3L550.95 437.48L551.61 437.69L552.26 437.92L552.91 438.17L553.54 438.45L554.16 438.75L554.77 439.08L555.37 439.43L555.96 439.8L556.53 440.2L557.08 440.61L557.62 441.05L558.15 441.51L558.66 441.99L559.14 442.5L559.61 443.02L560.07 443.56L560.5 444.13L560.91 444.71L561.3 445.31L561.66 445.93L562.01 446.57L562.33 447.23L562.62 447.91L562.89 448.6L563.14 449.3L563.35 450.01L563.53 450.72L563.68 451.43L563.8 452.14L563.9 452.85L563.96 453.56L564 454.27L564 454.97L563.98 455.68L563.94 456.38L563.86 457.07L563.76 457.76L563.63 458.45L563.48 459.13L563.3 459.8L563.09 460.46L562.86 461.11L562.61 461.76L562.33 462.39L562.03 463.01L561.7 463.62L561.35 464.22L560.98 464.81L560.58 465.38L560.17 465.93L559.73 466.47L559.27 467L558.78 467.5L558.28 467.99L557.76 468.46L557.21 468.91L556.65 469.34L556.07 469.75L555.47 470.14L554.84 470.51L554.21 470.85L553.55 471.17L552.87 471.47L552.18 471.74L159.21 615.33L159.06 615.39L158.9 615.44L158.75 615.49L158.59 615.54L158.44 615.59L158.29 615.64L158.13 615.69L157.98 615.73L157.82 615.78L157.66 615.82L157.51 615.86L157.35 615.9L157.2 615.94L157.04 615.98L156.89 616.01L156.73 616.05L156.58 616.08L156.42 616.11L156.26 616.14L156.11 616.17L155.95 616.19L155.8 616.22L155.64 616.24L155.48 616.27L155.33 616.29L155.17 616.31L155.02 616.33L154.86 616.34L154.71 616.36L154.55 616.37L154.39 616.39L154.24 616.4L154.08 616.41L153.93 616.42L153.77 616.42L153.62 616.43L153.46 616.43L153.31 616.44L153.15 616.44L153 616.44L152.45 616.43L151.9 616.41L151.35 616.36L150.81 616.31L150.27 616.23L149.73 616.14L149.2 616.03L148.67 615.91L148.15 615.77L147.63 615.62L147.12 615.45L146.61 615.27L146.11 615.07L145.61 614.85L145.12 614.62L144.64 614.38L144.16 614.12L143.69 613.85L143.23 613.56L142.78 613.27L142.34 612.95L141.91 612.63L141.48 612.28L141.07 611.93L140.67 611.56L140.27 611.19L139.89 610.79L139.52 610.39L139.16 609.97L138.81 609.54L138.48 609.1L138.15 608.65L137.84 608.18L137.55 607.71L137.26 607.22L137 606.72L136.74 606.21L136.5 605.69L136.28 605.16L136.07 604.62L135.83 603.91L135.62 603.21L135.44 602.5L135.28 601.79L135.16 601.08L135.07 600.37L135 599.66L134.97 598.95L134.96 598.24L134.98 597.54L135.03 596.84L135.1 596.15L135.2 595.45L135.33 594.77L135.49 594.09L135.67 593.42L135.87 592.76L136.1 592.11L136.35 591.46L136.63 590.83L136.94 590.21L137.26 589.6L137.61 589L137.98 588.41L138.38 587.84L138.8 587.29L139.24 586.75L139.7 586.22L140.18 585.71L140.68 585.23L141.2 584.76L141.75 584.3L142.31 583.87L142.89 583.46L143.5 583.07L144.12 582.71L144.76 582.36L145.41 582.04L146.09 581.75L146.78 581.48L539.75 437.89L540.46 437.65L541.16 437.44L541.87 437.25L542.58 437.1L543.29 436.98L544 436.89L544.71 436.82L545.42 436.79L546.13 436.78L546.83 436.8L547.53 436.85L548.22 436.92Z" id="b11KLGm51"></path><path d="M548.23 436.92L548.92 437.02L549.6 437.15L550.28 437.3L550.95 437.48L551.61 437.69L552.27 437.92L552.91 438.17L553.54 438.45L554.17 438.75L554.78 439.08L555.37 439.43L555.96 439.8L556.53 440.2L557.08 440.61L557.63 441.05L558.15 441.51L558.66 441.99L559.14 442.5L559.62 443.02L560.07 443.56L560.5 444.13L560.91 444.71L561.3 445.31L561.66 445.93L562.01 446.57L562.33 447.23L562.62 447.91L562.89 448.6L563.14 449.3L563.35 450.01L563.53 450.72L563.68 451.43L563.8 452.14L563.9 452.85L563.96 453.56L564 454.27L564 454.97L563.98 455.68L563.94 456.38L563.86 457.07L563.76 457.76L563.63 458.45L563.48 459.13L563.3 459.8L563.09 460.46L562.86 461.11L562.61 461.76L562.33 462.39L562.03 463.01L561.7 463.62L561.35 464.22L560.98 464.81L560.59 465.38L560.17 465.93L559.73 466.47L559.27 467L558.79 467.5L558.28 467.99L557.76 468.46L557.22 468.91L556.65 469.34L556.07 469.75L555.47 470.14L554.85 470.51L554.21 470.85L553.55 471.17L552.88 471.47L552.18 471.74L451.86 508.4L439.52 474.51L539.75 437.89L540.46 437.65L541.16 437.44L541.87 437.25L542.58 437.1L543.29 436.98L544 436.89L544.71 436.82L545.42 436.79L546.13 436.78L546.83 436.8L547.53 436.85L548.23 436.92Z" id="d2V3zn7MQk"></path><path d="M548.23 436.92L548.92 437.02L549.6 437.15L550.28 437.3L550.95 437.48L551.61 437.69L552.27 437.92L552.91 438.17L553.54 438.45L554.17 438.75L554.78 439.08L555.37 439.43L555.96 439.8L556.53 440.2L557.08 440.61L557.63 441.05L558.15 441.51L558.66 441.99L559.14 442.5L559.62 443.02L560.07 443.56L560.5 444.13L560.91 444.71L561.3 445.31L561.66 445.93L562.01 446.57L562.33 447.23L562.62 447.91L562.89 448.6L563.14 449.3L563.35 450.01L563.53 450.72L563.68 451.43L563.8 452.14L563.9 452.85L563.96 453.56L564 454.27L564 454.97L563.98 455.68L563.94 456.38L563.86 457.07L563.76 457.76L563.63 458.45L563.48 459.13L563.3 459.8L563.09 460.46L562.86 461.11L562.61 461.76L562.33 462.39L562.03 463.01L561.7 463.62L561.35 464.22L560.98 464.81L560.59 465.38L560.17 465.93L559.73 466.47L559.27 467L558.79 467.5L558.28 467.99L557.76 468.46L557.22 468.91L556.65 469.34L556.07 469.75L555.47 470.14L554.85 470.51L554.21 470.85L553.55 471.17L552.88 471.47L552.18 471.74L451.86 508.4L439.52 474.51L539.75 437.89L540.46 437.65L541.16 437.44L541.87 437.25L542.58 437.1L543.29 436.98L544 436.89L544.71 436.82L545.42 436.79L546.13 436.78L546.83 436.8L547.53 436.85L548.23 436.92Z" id="d1qkJOh0cB"></path><path d="M245.13 393.29L270.24 365.2L355.67 505.31L321.18 518.01L245.13 393.29Z" id="chkTawBRE"></path><path d="M245.13 393.29L270.24 365.2L355.67 505.31L321.18 518.01L245.13 393.29Z" id="h3xAv1kWL8"></path><path d="M162 486.3L186.11 459.33L281.77 532.52L241.71 547.28L162 486.3Z" id="b2YPvCYdRT"></path><path d="M162 486.3L186.11 459.33L281.77 532.52L241.71 547.28L162 486.3Z" id="cSTuMrqEH"></path><path d="M214.7 151.92L399.01 84.83L411.35 118.72L230.94 184.38L214.7 151.92Z" id="c2lUuOyyP2"></path><path d="M214.7 151.92L399.01 84.83L411.35 118.72L230.94 184.38L214.7 151.92Z" id="f46rKQn7gn"></path><path d="M178.91 80.36L371.82 10.15L384.16 44.04L195.15 112.83L178.91 80.36Z" id="c1NW9fz0tt"></path><path d="M178.91 80.36L371.82 10.15L384.16 44.04L195.15 112.83L178.91 80.36Z" id="c2OTm6j8Z2"></path><path d="M282.36 42.71L371.82 10.15L384.16 44.04L294.69 76.6L282.36 42.71Z" id="bl1pCSyRM"></path><path d="M282.36 42.71L371.82 10.15L384.16 44.04L294.69 76.6L282.36 42.71Z" id="d6AAd1EAz"></path><path d="M309.54 117.4L399.02 84.84L411.35 118.72L321.88 151.29L309.54 117.4Z" id="desYmDFDk"></path><path d="M309.54 117.4L399.02 84.84L411.35 118.72L321.88 151.29L309.54 117.4Z" id="aDyub3apg"></path><path d="M420.78 342.64L402.74 311.4" id="caH5QeBa7l"></path><path d="M420.78 342.64L402.74 311.4" id="cvZ9khIGS"></path></defs><g><g><g><use xlink:href="#dRVjFL69S" opacity="1" fill="#ffdaab" fill-opacity="1"></use><g><use xlink:href="#dRVjFL69S" opacity="1" fill-opacity="0" stroke="#000000" stroke-width="1" stroke-opacity="0"></use></g></g><g><use xlink:href="#e2iIIFtq8n" opacity="1" fill="#000000" fill-opacity="0"></use><g><use xlink:href="#e2iIIFtq8n" opacity="1" fill-opacity="0" stroke="#000000" stroke-width="1" stroke-opacity="0"></use></g></g><g><use xlink:href="#aqb9yO5qM" opacity="1" fill="#ffbe85" fill-opacity="1"></use><g><use xlink:href="#aqb9yO5qM" opacity="1" fill-opacity="0" stroke="#000000" stroke-width="1" stroke-opacity="0"></use></g></g><g><use xlink:href="#a197v5oYT" opacity="1" fill="#000000" fill-opacity="0"></use><g><use xlink:href="#a197v5oYT" opacity="1" fill-opacity="0" stroke="#000000" stroke-width="1" stroke-opacity="0"></use></g></g><g><use xlink:href="#bCZ6CC8qk" opacity="1" fill="#a15615" fill-opacity="1"></use><g><use xlink:href="#bCZ6CC8qk" opacity="1" fill-opacity="0" stroke="#000000" stroke-width="1" stroke-opacity="0"></use></g></g><g><use xlink:href="#c1FX9wFTZw" opacity="1" fill="#000000" fill-opacity="0"></use><g><use xlink:href="#c1FX9wFTZw" opacity="1" fill-opacity="0" stroke="#000000" stroke-width="1" stroke-opacity="0"></use></g></g><g><use xlink:href="#chjbRwRLc" opacity="1" fill="#a15615" fill-opacity="1"></use><g><use xlink:href="#chjbRwRLc" opacity="1" fill-opacity="0" stroke="#000000" stroke-width="1" stroke-opacity="0"></use></g></g><g><use xlink:href="#b11KLGm51" opacity="1" fill="#000000" fill-opacity="0"></use><g><use xlink:href="#b11KLGm51" opacity="1" fill-opacity="0" stroke="#000000" stroke-width="1" stroke-opacity="0"></use></g></g><g><use xlink:href="#d2V3zn7MQk" opacity="1" fill="#783207" fill-opacity="1"></use><g><use xlink:href="#d2V3zn7MQk" opacity="1" fill-opacity="0" stroke="#000000" stroke-width="1" stroke-opacity="0"></use></g></g><g><use xlink:href="#d1qkJOh0cB" opacity="1" fill="#000000" fill-opacity="0"></use><g><use xlink:href="#d1qkJOh0cB" opacity="1" fill-opacity="0" stroke="#000000" stroke-width="1" stroke-opacity="0"></use></g></g><g><use xlink:href="#chkTawBRE" opacity="1" fill="#cc8135" fill-opacity="1"></use><g><use xlink:href="#chkTawBRE" opacity="1" fill-opacity="0" stroke="#000000" stroke-width="1" stroke-opacity="0"></use></g></g><g><use xlink:href="#h3xAv1kWL8" opacity="1" fill="#000000" fill-opacity="0"></use><g><use xlink:href="#h3xAv1kWL8" opacity="1" fill-opacity="0" stroke="#000000" stroke-width="1" stroke-opacity="0"></use></g></g><g><use xlink:href="#b2YPvCYdRT" opacity="1" fill="#cc8135" fill-opacity="1"></use><g><use xlink:href="#b2YPvCYdRT" opacity="1" fill-opacity="0" stroke="#000000" stroke-width="1" stroke-opacity="0"></use></g></g><g><use xlink:href="#cSTuMrqEH" opacity="1" fill="#000000" fill-opacity="0"></use><g><use xlink:href="#cSTuMrqEH" opacity="1" fill-opacity="0" stroke="#000000" stroke-width="1" stroke-opacity="0"></use></g></g><g><use xlink:href="#c2lUuOyyP2" opacity="1" fill="#cc8135" fill-opacity="1"></use><g><use xlink:href="#c2lUuOyyP2" opacity="1" fill-opacity="0" stroke="#000000" stroke-width="1" stroke-opacity="0"></use></g></g><g><use xlink:href="#f46rKQn7gn" opacity="1" fill="#000000" fill-opacity="0"></use><g><use xlink:href="#f46rKQn7gn" opacity="1" fill-opacity="0" stroke="#000000" stroke-width="1" stroke-opacity="0"></use></g></g><g><use xlink:href="#c1NW9fz0tt" opacity="1" fill="#cc8135" fill-opacity="1"></use><g><use xlink:href="#c1NW9fz0tt" opacity="1" fill-opacity="0" stroke="#000000" stroke-width="1" stroke-opacity="0"></use></g></g><g><use xlink:href="#c2OTm6j8Z2" opacity="1" fill="#000000" fill-opacity="0"></use><g><use xlink:href="#c2OTm6j8Z2" opacity="1" fill-opacity="0" stroke="#000000" stroke-width="1" stroke-opacity="0"></use></g></g><g><use xlink:href="#bl1pCSyRM" opacity="1" fill="#a15615" fill-opacity="1"></use><g><use xlink:href="#bl1pCSyRM" opacity="1" fill-opacity="0" stroke="#000000" stroke-width="1" stroke-opacity="0"></use></g></g><g><use xlink:href="#d6AAd1EAz" opacity="1" fill="#000000" fill-opacity="0"></use><g><use xlink:href="#d6AAd1EAz" opacity="1" fill-opacity="0" stroke="#000000" stroke-width="1" stroke-opacity="0"></use></g></g><g><use xlink:href="#desYmDFDk" opacity="1" fill="#a15615" fill-opacity="1"></use><g><use xlink:href="#desYmDFDk" opacity="1" fill-opacity="0" stroke="#000000" stroke-width="1" stroke-opacity="0"></use></g></g><g><use xlink:href="#aDyub3apg" opacity="1" fill="#000000" fill-opacity="0"></use><g><use xlink:href="#aDyub3apg" opacity="1" fill-opacity="0" stroke="#000000" stroke-width="1" stroke-opacity="0"></use></g></g><g><use xlink:href="#caH5QeBa7l" opacity="1" fill="#ffffff" fill-opacity="1"></use><g><use xlink:href="#caH5QeBa7l" opacity="1" fill-opacity="0" stroke="#000000" stroke-width="1" stroke-opacity="0"></use></g></g><g><use xlink:href="#cvZ9khIGS" opacity="1" fill="#000000" fill-opacity="0"></use><g><use xlink:href="#cvZ9khIGS" opacity="1" fill-opacity="0" stroke="#000000" stroke-width="1" stroke-opacity="0"></use></g></g></g></g></svg>