<?xml version="1.0" encoding="iso-8859-1"?>
<!-- Generator: Adobe Illustrator 19.0.0, SVG Export Plug-In . SVG Version: 6.00 Build 0)  -->
<svg version="1.1" id="Capa_1" xmlns="http://www.w3.org/2000/svg" xmlns:xlink="http://www.w3.org/1999/xlink" x="0px" y="0px"
	 viewBox="0 0 512 512" style="enable-background:new 0 0 512 512;" xml:space="preserve">
<path style="fill:#FFEA84;" d="M256,284.123c-68.925,0-125-56.075-125-125s56.075-125,125-125s125,56.075,125,125
	S324.925,284.123,256,284.123z"/>
<path style="fill:#FFDC40;" d="M256,34.124v250c68.925,0,125-56.075,125-125S324.925,34.124,256,34.124z"/>
<polygon style="fill:#FFFFFF;" points="276,199.124 276,89.123 221,89.123 221,119.123 246,119.123 246,199.124 221,199.124 
	221,229.124 301,229.124 301,199.124 "/>
<g>
	<path style="fill:#8FE673;" d="M271.877,378.167c2.574-3.366,4.123-7.557,4.123-12.113c0-11.028-8.972-20-20-20s-20,8.972-20,20
		c0,4.556,1.548,8.747,4.123,12.113c-5.899,41.15-41.367,72.887-84.123,72.887v30c42.793,0,80.197-23.497,100-58.265
		c19.803,34.768,57.207,58.265,100,58.265v-30C313.244,451.055,277.776,419.318,271.877,378.167z"/>
	<path style="fill:#8FE673;" d="M305.655,306.042c-16.44,1.888-33.94,25.45-28.6,51.819
		C303.402,357.861,317.339,333.055,305.655,306.042z"/>
	<path style="fill:#8FE673;" d="M278.089,368.389c0,27.165,25.438,46.79,59.022,33.278
		C335.527,389.055,315.527,361.18,278.089,368.389z"/>
	<path style="fill:#8FE673;" d="M346.4,285.517c-19.29,9.871-22.123,39.954-12.17,57.901
		C357.455,337.138,366.36,307.888,346.4,285.517z"/>
	<path style="fill:#8FE673;" d="M338.31,353.179c6.967,23.209,33.717,36.709,66.19,14.545
		C397.86,353.471,370.86,336.388,338.31,353.179z"/>
	<path style="fill:#8FE673;" d="M379.476,253.902c-19.511,20.153-4.199,51.216,5.222,58.995
		C408.652,297.555,401.694,267.638,379.476,253.902z"/>
	<path style="fill:#8FE673;" d="M391.452,321.039c13.658,22.379,49.241,23.765,67.509-5.365
		C439.527,297.221,408.527,303.138,391.452,321.039z"/>
	<path style="fill:#8FE673;" d="M401.858,214.118c-9.665,15.521,0.502,45.188,22.192,54.834
		C441.194,246.971,427.777,220.805,401.858,214.118z"/>
	<path style="fill:#8FE673;" d="M432.88,274.779c16.73,15.026,50.397,13.192,63.059-24.848
		C468.777,235.139,438.61,260.138,432.88,274.779z"/>
	<path style="fill:#8FE673;" d="M411.554,169.545c-3.36,11.677,6.39,40.01,37.372,45.939
		C460.11,185.971,433.86,168.305,411.554,169.545z"/>
	<path style="fill:#8FE673;" d="M459.077,218.465c16.95,8.924,52.94-0.242,52.923-42.261
		C487.194,171.555,462.777,192.484,459.077,218.465z"/>
	<path style="fill:#8FE673;" d="M407.934,123.918c2.781,25.762,33.906,35.824,49.022,33.126
		C458.902,129.158,434.652,115.18,407.934,123.918z"/>
	<path style="fill:#8FE673;" d="M467.535,156.937c34.408,3.536,46.825-31.298,38.45-55.813
		C477.902,104.055,464.714,134.68,467.535,156.937z"/>
	<path style="fill:#8FE673;" d="M391.116,81.541c7.411,17.764,34.036,26.889,56.604,17.247
		C445.652,82.18,421.902,59.681,391.116,81.541z"/>
	<path style="fill:#8FE673;" d="M457.806,95.595c34.596-8.005,35.221-42.541,20.338-64.65
		C449.152,43.306,449.777,81.305,457.806,95.595z"/>
	<path style="fill:#8FE673;" d="M206.345,306.042c16.44,1.888,33.94,25.45,28.6,51.819
		C208.598,357.861,194.661,333.055,206.345,306.042z"/>
	<path style="fill:#8FE673;" d="M233.911,368.389c0,27.165-25.438,46.79-59.022,33.278
		C176.473,389.055,196.473,361.18,233.911,368.389z"/>
	<path style="fill:#8FE673;" d="M165.6,285.517c19.29,9.871,22.123,39.954,12.17,57.901
		C154.545,337.138,145.64,307.888,165.6,285.517z"/>
	<path style="fill:#8FE673;" d="M173.69,353.179c-6.967,23.209-33.717,36.709-66.19,14.545
		C114.14,353.471,141.14,336.388,173.69,353.179z"/>
	<path style="fill:#8FE673;" d="M132.524,253.902c19.511,20.153,4.199,51.216-5.222,58.995
		C103.348,297.555,110.306,267.638,132.524,253.902z"/>
	<path style="fill:#8FE673;" d="M120.548,321.039c-13.658,22.379-49.241,23.765-67.509-5.365
		C72.473,297.221,103.473,303.138,120.548,321.039z"/>
	<path style="fill:#8FE673;" d="M110.142,214.118c9.665,15.521-0.502,45.188-22.192,54.834
		C70.806,246.971,84.223,220.805,110.142,214.118z"/>
	<path style="fill:#8FE673;" d="M79.12,274.779c-16.73,15.026-50.397,13.192-63.059-24.848
		C43.223,235.139,73.39,260.138,79.12,274.779z"/>
	<path style="fill:#8FE673;" d="M100.446,169.545c3.36,11.677-6.39,40.01-37.372,45.939
		C51.89,185.971,78.14,168.305,100.446,169.545z"/>
	<path style="fill:#8FE673;" d="M52.923,218.465c-16.95,8.924-52.94-0.242-52.923-42.261
		C24.806,171.555,49.223,192.484,52.923,218.465z"/>
	<path style="fill:#8FE673;" d="M104.066,123.918c-2.781,25.762-33.906,35.824-49.022,33.126
		C53.098,129.158,77.348,115.18,104.066,123.918z"/>
	<path style="fill:#8FE673;" d="M44.465,156.937c-34.408,3.536-46.825-31.298-38.45-55.813
		C34.098,104.055,47.286,134.68,44.465,156.937z"/>
	<path style="fill:#8FE673;" d="M120.884,81.541c-7.411,17.764-34.036,26.889-56.604,17.247
		C66.348,82.18,90.098,59.681,120.884,81.541z"/>
	<path style="fill:#8FE673;" d="M54.194,95.595c-34.596-8.005-35.221-42.541-20.338-64.65
		C62.848,43.306,62.223,81.305,54.194,95.595z"/>
</g>
<g>
	<path style="fill:#76CC5B;" d="M411.554,169.545c-3.36,11.677,6.39,40.01,37.372,45.939
		C460.11,185.971,433.86,168.305,411.554,169.545z"/>
	<path style="fill:#76CC5B;" d="M401.858,214.118c-9.665,15.521,0.502,45.188,22.192,54.834
		C441.194,246.971,427.777,220.805,401.858,214.118z"/>
	<path style="fill:#76CC5B;" d="M459.077,218.465c16.949,8.924,52.94-0.243,52.923-42.261
		C487.194,171.555,462.777,192.484,459.077,218.465z"/>
	<path style="fill:#76CC5B;" d="M447.72,98.788c-2.068-16.608-25.818-39.108-56.604-17.247
		C398.527,99.305,425.152,108.43,447.72,98.788z"/>
	<path style="fill:#76CC5B;" d="M467.535,156.937c34.408,3.535,46.825-31.298,38.45-55.813
		C477.902,104.055,464.714,134.68,467.535,156.937z"/>
	<path style="fill:#76CC5B;" d="M407.934,123.918c2.781,25.762,33.906,35.824,49.022,33.126
		C458.902,129.158,434.652,115.18,407.934,123.918z"/>
	<path style="fill:#76CC5B;" d="M478.144,30.945c-28.992,12.359-28.367,50.359-20.338,64.65
		C492.402,87.59,493.027,53.056,478.144,30.945z"/>
	<path style="fill:#76CC5B;" d="M384.698,312.896c23.954-15.342,16.996-45.258-5.222-58.995
		C359.964,274.055,375.277,305.117,384.698,312.896z"/>
	<path style="fill:#76CC5B;" d="M391.452,321.039c13.658,22.379,49.241,23.765,67.509-5.365
		C439.527,297.221,408.527,303.138,391.452,321.039z"/>
	<path style="fill:#76CC5B;" d="M346.4,285.517c-19.29,9.871-22.123,39.954-12.17,57.901
		C357.455,337.138,366.36,307.888,346.4,285.517z"/>
	<path style="fill:#76CC5B;" d="M432.88,274.779c16.73,15.025,50.397,13.192,63.059-24.848
		C468.777,235.139,438.61,260.138,432.88,274.779z"/>
	<path style="fill:#76CC5B;" d="M338.31,353.18c6.967,23.208,33.717,36.708,66.19,14.545
		C397.86,353.471,370.86,336.388,338.31,353.18z"/>
	<path style="fill:#76CC5B;" d="M271.877,378.167c2.574-3.366,4.123-7.557,4.123-12.113c0-11.028-8.972-20-20-20v76.735
		c19.803,34.768,57.207,58.265,100,58.265v-30C313.244,451.055,277.776,419.318,271.877,378.167z"/>
	<path style="fill:#76CC5B;" d="M278.089,368.391c0,27.165,25.438,46.79,59.022,33.278
		C335.527,389.055,315.527,361.18,278.089,368.391z"/>
	<path style="fill:#76CC5B;" d="M305.655,306.042c-16.44,1.888-33.94,25.45-28.6,51.819
		C303.402,357.861,317.339,333.055,305.655,306.042z"/>
</g>
<polygon style="fill:#F2F2F4;" points="276,199.124 276,89.123 256,89.123 256,229.124 301,229.124 301,199.124 "/>
<g>
</g>
<g>
</g>
<g>
</g>
<g>
</g>
<g>
</g>
<g>
</g>
<g>
</g>
<g>
</g>
<g>
</g>
<g>
</g>
<g>
</g>
<g>
</g>
<g>
</g>
<g>
</g>
<g>
</g>
</svg>
