<?xml version="1.0" encoding="UTF-8" standalone="no"?>
<!DOCTYPE svg PUBLIC "-//W3C//DTD SVG 1.1//EN" "http://www.w3.org/Graphics/SVG/1.1/DTD/svg11.dtd">
<svg version="1.1" xmlns="http://www.w3.org/2000/svg" xmlns:xlink="http://www.w3.org/1999/xlink" preserveAspectRatio="xMidYMid meet" viewBox="0 0 640 640" width="640" height="640"><defs><path d="M529.66 77.24L110.34 77.24C110.34 104.98 110.34 120.38 110.34 123.46C110.54 142.45 102.7 160.63 88.76 173.52C33.27 221.44 0.96 290.83 0 364.14C0 516.49 143.27 640 320 640C496.73 640 640 516.49 640 364.14C639.04 290.83 606.73 221.44 551.24 173.52C537.3 160.63 529.46 142.45 529.66 123.46C529.66 117.3 529.66 101.89 529.66 77.24Z" id="aaA8rGE9O"></path><path d="M366.81 33C368.73 33 371.41 38.42 376.34 45.51C384.2 56.85 395.21 72.48 398.48 77.13C400.7 80.29 400.2 78.45 400.78 75.29C401.31 72.36 404.51 69.3 405.92 67.04C406.57 65.99 405.07 64.33 405.92 64.33C408.72 64.33 410.63 62.03 412.26 58.91C413.7 56.14 414.93 52.74 416.37 49.72C420.6 40.87 425.45 33 432.11 33C478.03 33 513.7 33 526.38 33C538.57 33 548.45 42.88 548.45 55.06C548.45 55.06 548.45 55.06 548.45 55.06C548.45 67.25 538.57 77.13 526.38 77.13C523.04 77.13 499 77.13 463.96 77.13C443.83 77.13 424.05 77.13 398.48 77.13C281.73 77.13 123.54 77.13 107.07 77.13C94.88 77.13 85 67.25 85 55.06C85 55.06 85 55.06 85 55.06C85 42.88 94.88 33 107.07 33C154.45 33 268.76 33 366.81 33Z" id="e1O9lVs6vp"></path><path d="M331.6 533.14C330.31 529.26 319.97 498.22 318.68 494.34C297.58 431.65 302.42 363.13 332.14 304.03C334.86 298.58 341.49 296.37 346.95 299.09C352.4 301.81 354.61 308.44 351.89 313.9C351.89 313.9 351.89 313.9 351.89 313.9C324.78 367.76 320.33 430.23 339.55 487.38C340.85 491.26 351.19 522.29 352.49 526.17C354.41 531.95 351.29 538.2 345.5 540.12C344.4 540.49 343.24 540.68 342.07 540.69C337.32 540.69 333.1 537.65 331.6 533.14Z" id="cGKWJQJXK"></path><path d="M444.84 386.99C457.77 374.06 457.77 353.1 444.84 340.17C422.78 318.1 386.36 310.97 358.48 308.97C386.33 306.95 422.78 299.81 444.84 277.75C457.77 264.82 457.77 243.86 444.84 230.93C431.92 218 410.95 218 398.02 230.93C411.18 218.23 411.54 197.27 398.84 184.12C386.14 170.97 365.18 170.61 352.03 183.31C351.75 183.57 351.48 183.85 351.22 184.12C329.15 206.19 322.01 242.6 320 270.49C317.99 242.65 310.85 206.18 288.78 184.12C275.63 171.42 254.68 171.78 241.98 184.94C229.58 197.76 229.58 218.1 241.98 230.93C229.05 218 208.08 218 195.16 230.93C182.23 243.86 182.23 264.82 195.16 277.75C217.22 299.82 253.64 306.95 281.53 308.97C253.68 310.97 217.22 318.11 195.16 340.17C182.23 353.1 182.23 374.06 195.16 386.99C208.08 399.92 229.05 399.92 241.98 386.99C229.15 400.02 229.32 420.98 242.35 433.8C255.23 446.48 275.9 446.48 288.78 433.81C310.85 411.74 317.98 375.33 320 347.44C322.01 375.28 329.15 411.74 351.22 433.81C364.25 446.63 385.21 446.46 398.03 433.42C410.7 420.54 410.7 399.87 398.02 386.99C410.95 399.92 431.92 399.92 444.84 386.99Z" id="bOZQlZCgv"></path><path d="M584.83 286.9C584.83 439.25 441.56 562.76 264.83 562.76C175.08 563.98 88.44 529.95 23.53 467.97C71.12 568.85 185.89 640 320 640C496.73 640 640 516.49 640 364.14C639.27 295.64 610.9 230.34 561.34 183.05C576.78 215.49 584.8 250.97 584.83 286.9Z" id="d1M6HBJAM"></path><path d="M368.8 77.24L305.74 322.04L368.8 322.04L323.75 498.83L494.94 254.04L404.84 254.04L467.91 77.24L368.8 77.24Z" id="ggcpJaEP0"></path></defs><g><g><g><use xlink:href="#aaA8rGE9O" opacity="1" fill="#393856" fill-opacity="1"></use><g><use xlink:href="#aaA8rGE9O" opacity="1" fill-opacity="0" stroke="#000000" stroke-width="1" stroke-opacity="0"></use></g></g><g><use xlink:href="#e1O9lVs6vp" opacity="1" fill="#6b778a" fill-opacity="1"></use><g><use xlink:href="#e1O9lVs6vp" opacity="1" fill-opacity="0" stroke="#000000" stroke-width="1" stroke-opacity="0"></use></g></g><g><use xlink:href="#cGKWJQJXK" opacity="1" fill="#1f9342" fill-opacity="1"></use><g><use xlink:href="#cGKWJQJXK" opacity="1" fill-opacity="0" stroke="#000000" stroke-width="1" stroke-opacity="0"></use></g></g><g><use xlink:href="#bOZQlZCgv" opacity="1" fill="#2cb357" fill-opacity="1"></use><g><use xlink:href="#bOZQlZCgv" opacity="1" fill-opacity="0" stroke="#000000" stroke-width="1" stroke-opacity="0"></use></g></g><g><use xlink:href="#d1M6HBJAM" opacity="1" fill="#2b2a41" fill-opacity="1"></use><g><use xlink:href="#d1M6HBJAM" opacity="1" fill-opacity="0" stroke="#000000" stroke-width="1" stroke-opacity="0"></use></g></g><g><use xlink:href="#ggcpJaEP0" opacity="1" fill="#1e1d2f" fill-opacity="1"></use></g></g></g></svg>