<?xml version="1.0" encoding="iso-8859-1"?>
<!-- Generator: Adobe Illustrator 19.0.0, SVG Export Plug-In . SVG Version: 6.00 Build 0)  -->
<svg version="1.1" id="Layer_1" xmlns="http://www.w3.org/2000/svg" xmlns:xlink="http://www.w3.org/1999/xlink" x="0px" y="0px"
	 viewBox="0 0 512 512" style="enable-background:new 0 0 512 512;" xml:space="preserve">
<path style="fill:#7FA331;" d="M432.344,272.042l-26.874,7.059l-59.018,15.516c-10.446,2.724-21.118-3.529-23.842-13.964
	c-0.438-1.658-0.64-3.328-0.64-4.963c0-8.67,5.815-16.593,14.604-18.891l25.204-6.585c10.446-2.736,16.7-13.407,13.964-23.854
	L335.153,71.099h0.012l14.9-3.932l26.862-7.106L432.344,272.042z"/>
<polygon style="fill:#9AD14B;" points="432.344,272.042 412.079,277.668 356.673,65.733 376.926,60.06 "/>
<path style="fill:#77932A;" d="M375.742,226.36c2.736,10.446-3.518,21.118-13.964,23.854l-25.204,6.585
	c-8.788,2.298-14.604,10.221-14.604,18.891c0,1.634,0.201,3.304,0.64,4.963l-14.829-56.72l44.119-11.536
	c1.658-0.426,3.316-0.64,4.951-0.64C365.52,211.757,373.444,217.572,375.742,226.36z"/>
<path style="fill:#9AD14B;" d="M375.742,226.36c-2.298-8.788-10.221-14.604-18.891-14.604c-1.634,0-3.293,0.213-4.951,0.64
	l-44.119,11.536l-138.491,36.195h-0.012L113.873,48.133L295.451,0.675c11.01-2.878,22.268,3.714,25.146,14.724l8.03,30.722
	l5.898,22.586l0.628,2.392l16.202,61.991l5.91,22.61L375.742,226.36z"/>
<polygon style="fill:#B27214;" points="169.291,260.127 232.786,503.058 198.557,512 79.656,57.087 113.873,48.133 169.279,260.127 
	"/>
<path style="fill:#0569A0;" d="M351.355,133.09c-0.959,3.624-2.227,7.154-3.766,10.553l-55.512-32.464l-16.297-62.24
	c22.089-3.387,43.858,4.465,58.746,19.767l-5.898-22.586c-18.311-11.204-40.968-15.231-63.317-9.38
	c-43.597,11.406-69.772,56.164-58.355,99.749c11.406,43.586,56.164,69.772,99.749,58.355c22.326-5.851,40.08-20.443,50.562-39.144
	L351.355,133.09z M220.587,132.924c-8.847-33.779,9.582-68.387,41.56-80.42l16.309,62.252l-32.476,55.501
	C233.899,161.397,224.661,148.51,220.587,132.924z M258.144,177.374l25.358-43.349l12.72,48.619
	C282.933,184.682,269.774,182.645,258.144,177.374z M309.854,179.068l-12.732-48.619l43.349,25.358
	C332.914,166.11,322.444,174.342,309.854,179.068z"/>
<g>
</g>
<g>
</g>
<g>
</g>
<g>
</g>
<g>
</g>
<g>
</g>
<g>
</g>
<g>
</g>
<g>
</g>
<g>
</g>
<g>
</g>
<g>
</g>
<g>
</g>
<g>
</g>
<g>
</g>
</svg>
