<?xml version="1.0" encoding="utf-8"?>
<!-- Generator: Adobe Illustrator 19.0.0, SVG Export Plug-In . SVG Version: 6.00 Build 0)  -->
<svg version="1.1" id="Capa_1" xmlns="http://www.w3.org/2000/svg" xmlns:xlink="http://www.w3.org/1999/xlink" x="0px" y="0px"
	 viewBox="-115 116.2 380.8 380.8" style="enable-background:new -115 116.2 380.8 380.8;" xml:space="preserve">
<style type="text/css">
	.st0{fill:#C06100;}
	.st1{fill:#7CB777;}
	.st2{fill:#35925D;}
	.st3{fill:#FF728B;}
	.st4{fill:#FF3F62;}
	.st5{fill:#FF0C38;}
	.st6{fill:#FFEB99;}
	.st7{fill:#FFDA44;}
</style>
<path class="st0" d="M58.6,328.9l17.4,34.5l-3.7,11.1c2.4,4.1,4.6,8.6,6.7,13.1l8.7-25.9l-9.7-19.2l9.2-27.5l-5.6-24.8l-9.2,5.2
	l4.1,18.3l-5.2,15.5l-24-47.6l-7.6,9.7l12.3,24.4l-9.4,4.3l-10.8-12.2l-5.6,12.7l14.7,16.5L58.6,328.9z"/>
<path class="st0" d="M92.2,328.9l-17.4,34.5l3.7,11.1c-2.4,4.1-4.6,8.6-6.7,13.1l-8.7-25.9l9.7-19.2l-9.2-27.5l5.6-24.8l9.2,5.2
	l-4.1,18.3l5.2,15.5l24-47.6l7.6,9.7l-12.3,24.4l9.4,4.3l10.8-12.2l5.6,12.7L110,337.1L92.2,328.9z"/>
<path class="st1" d="M109.3,339.3c-0.6,0.1-1,0.6-1.1,1.2c0,0.5-0.3,0.8-1.7,0c-0.3-0.2-0.8-0.3-1.1-0.1c-2.4,0.8-4.6,2-6.7,3.3
	c-0.7,0.5-1.1,1.4-0.9,2.2c0.2,0.8-0.1,1.2-1.4,0.8c-0.7-0.2-1.5,0-2.1,0.5c-2,1.9-3.8,3.9-5.2,6c-0.3,0.5-0.3,1.1,0,1.6
	c0.5,0.6,0.9,1.6-0.5,2.2c-0.3,0.1-0.5,0.1-0.8,0.1c-0.6-0.1-1.2,0.2-1.5,0.8c-1.2,2.9-1.7,5.7-1.2,7.9c0.3,1.5,1.4,2.9,2.9,3.3
	c3.2,0.8,6.2,0.2,9-1.4c0.5-0.3,0.8-0.8,0.8-1.4c0-0.9,0.8-0.9,1.4-0.9c0.5,0.1,1-0.1,1.3-0.4c1.6-1.4,3-3,4.4-4.8
	c0.4-0.6,0.4-1.4,0-1.9c-0.7-0.9-0.2-2.1,1.4-1.8c0.6,0.1,1.3-0.2,1.6-0.7c1.3-2.2,2.5-4.4,3.6-6.4c0.2-0.4,0.1-0.9-0.1-1.3
	c-0.7-1,0.2-1.3,0.9-1.5c0.4-0.1,0.7-0.3,0.9-0.7c1.8-4.1,2.8-7,2.8-7C113.8,338.6,111.5,338.8,109.3,339.3z"/>
<path class="st2" d="M112.9,341.3c-1.9,1.1-3.7,2.5-5.4,3.8c-2.8,2.1-5.5,4.5-7.9,7c-1.9,1.9-3.6,3.8-5.2,5.9
	c-1.2,1.5-2.3,3-3.3,4.6c-1.8,2.7-3.5,5.5-4.7,8.4c-0.3,0.6-0.5,1.1-0.8,1.7c-0.3,0.6-0.9,0.8-1.5,0.6c-0.6-0.3-0.8-0.9-0.6-1.5
	c0,0,0.3-0.6,0.8-1.7c1.3-3,3-5.8,4.8-8.5c1.1-1.7,2.4-3.3,3.6-4.9c1.7-2.1,3.5-4.1,5.5-5.9c2.6-2.5,5.4-4.9,8.5-6.9
	c1.8-1.3,3.7-2.5,5.7-3.4c0.3-0.1,0.6,0,0.7,0.2C113.2,340.9,113.1,341.2,112.9,341.3L112.9,341.3z"/>
<path class="st1" d="M123,352.1c-0.6-0.2-1.2,0.1-1.5,0.6c-0.2,0.4-0.7,0.6-1.5-0.8c-0.2-0.3-0.6-0.6-1-0.6c-2.5-0.3-5-0.3-7.5,0
	c-0.9,0.1-1.6,0.7-1.8,1.6c-0.2,0.8-0.6,1-1.6,0c-0.6-0.5-1.4-0.7-2.1-0.5c-2.7,0.8-5.1,1.8-7.4,3c-0.5,0.3-0.8,0.9-0.7,1.4
	c0.2,0.8,0.1,1.9-1.4,1.8c-0.3,0-0.5-0.1-0.7-0.2c-0.5-0.4-1.2-0.3-1.6,0.1c-2.4,2-4,4.3-4.6,6.5c-0.4,1.5-0.1,3.2,1.1,4.2
	c2.5,2.2,5.5,2.9,8.7,2.7c0.6,0,1.1-0.3,1.4-0.9c0.4-0.8,1.2-0.5,1.7-0.1c0.4,0.3,0.9,0.4,1.4,0.2c2-0.6,4.1-1.4,6.1-2.4
	c0.6-0.3,1-1,0.8-1.7c-0.2-1.2,0.7-2,2.1-1c0.5,0.4,1.2,0.4,1.8,0.1c2.2-1.3,4.2-2.8,6.1-4.2c0.4-0.3,0.5-0.7,0.4-1.2
	c-0.2-1.2,0.8-1.1,1.4-0.9c0.4,0.1,0.8,0,1.1-0.2c3.4-2.8,5.6-5,5.6-5C127.3,353.5,125.1,352.6,123,352.1z"/>
<path class="st2" d="M125.3,355.5c-2.2,0.2-4.4,0.6-6.5,1c-3.5,0.7-6.9,1.6-10.2,2.7c-2.5,0.8-4.9,1.8-7.3,3c-1.7,0.8-3.4,1.7-5,2.6
	c-2.8,1.6-5.6,3.4-8,5.5c-0.5,0.4-1,0.8-1.4,1.2c-0.5,0.4-1.2,0.3-1.6-0.2c-0.4-0.5-0.3-1.2,0.2-1.6c0,0,0.5-0.4,1.4-1.2
	c2.5-2.1,5.3-3.9,8.1-5.5c1.8-1,3.6-1.9,5.4-2.8c2.5-1.1,5-2.1,7.6-2.9c3.5-1.1,7-2,10.7-2.5c2.2-0.3,4.4-0.5,6.7-0.5
	c0.3,0,0.5,0.2,0.5,0.5C125.8,355.3,125.6,355.5,125.3,355.5L125.3,355.5z"/>
<path class="st1" d="M147.6,347.1c-0.5-0.3-1.2-0.3-1.6,0.1c-0.3,0.3-0.8,0.3-1.2-1.2c-0.1-0.4-0.4-0.7-0.7-0.9
	c-2.3-1-4.7-1.8-7.1-2.3c-0.9-0.2-1.8,0.2-2.2,0.9c-0.5,0.7-0.9,0.8-1.6-0.5c-0.4-0.7-1.1-1.1-1.8-1.1c-2.8-0.1-5.5,0.1-7.9,0.6
	c-0.6,0.1-1,0.6-1.1,1.2c-0.1,0.8-0.5,1.8-1.9,1.3c-0.3-0.1-0.5-0.3-0.6-0.5c-0.4-0.5-1-0.7-1.6-0.5c-2.9,1.2-5.2,2.9-6.4,4.8
	c-0.8,1.3-1.1,3-0.3,4.4c1.7,2.8,4.3,4.5,7.4,5.3c0.6,0.1,1.1,0,1.6-0.4c0.6-0.6,1.3-0.1,1.6,0.4c0.3,0.4,0.7,0.6,1.2,0.6
	c2.1,0.1,4.3-0.1,6.5-0.4c0.7-0.1,1.2-0.7,1.3-1.4c0.2-1.2,1.3-1.6,2.3-0.3c0.4,0.5,1,0.8,1.7,0.6c2.5-0.6,4.9-1.4,7-2.1
	c0.4-0.2,0.7-0.5,0.8-1c0.1-1.2,1.1-0.8,1.7-0.4c0.3,0.2,0.7,0.3,1.1,0.1c4.1-1.6,6.9-3,6.9-3C151.2,349.8,149.5,348.3,147.6,347.1z
	"/>
<path class="st2" d="M148.7,351.1c-2.1-0.5-4.3-0.8-6.5-1.1c-3.5-0.4-7.1-0.6-10.6-0.5c-2.6,0-5.3,0.2-7.9,0.6
	c-1.9,0.3-3.7,0.5-5.5,0.9c-3.1,0.7-6.3,1.5-9.3,2.8c-0.6,0.2-1.1,0.5-1.7,0.7c-0.6,0.2-1.2-0.1-1.4-0.6c-0.2-0.6,0.1-1.2,0.6-1.4
	c0,0,0.6-0.3,1.7-0.7c3-1.2,6.2-2.1,9.4-2.7c2-0.4,4-0.7,6-1c2.7-0.3,5.4-0.5,8.1-0.4c3.7,0,7.3,0.3,10.9,0.9
	c2.2,0.4,4.4,0.9,6.5,1.6c0.3,0.1,0.4,0.4,0.3,0.7C149.3,351,149,351.1,148.7,351.1L148.7,351.1z"/>
<path class="st1" d="M153.7,374.8c-0.2-0.6-0.8-0.9-1.4-0.8c-0.5,0.1-0.8-0.2-0.2-1.7c0.2-0.4,0.1-0.8-0.1-1.1
	c-1.2-2.2-2.7-4.2-4.4-6.1c-0.6-0.7-1.5-0.9-2.4-0.6c-0.8,0.3-1.2,0.1-1-1.3c0.1-0.8-0.2-1.5-0.8-2c-2.2-1.7-4.5-3.1-6.7-4.2
	c-0.5-0.3-1.2-0.1-1.6,0.3c-0.6,0.6-1.4,1.2-2.3-0.1c-0.2-0.3-0.2-0.5-0.2-0.7c0-0.6-0.4-1.2-1-1.3c-3.1-0.8-5.9-0.8-8,0.1
	c-1.5,0.6-2.7,1.8-2.8,3.3c-0.3,3.3,0.8,6.2,2.8,8.6c0.4,0.4,0.9,0.7,1.5,0.6c0.9-0.1,1.1,0.7,1.1,1.3c0,0.5,0.2,0.9,0.6,1.2
	c1.6,1.3,3.5,2.5,5.4,3.5c0.6,0.3,1.4,0.2,1.9-0.3c0.8-0.8,2-0.5,2,1.1c0,0.7,0.4,1.3,1,1.5c2.3,1,4.7,1.8,6.9,2.5
	c0.4,0.1,0.9,0,1.2-0.3c0.8-0.9,1.3,0,1.6,0.6c0.1,0.4,0.4,0.6,0.8,0.7c4.3,1.2,7.4,1.7,7.4,1.7C155,379.1,154.5,376.9,153.7,374.8z
	"/>
<path class="st2" d="M152.2,378.7c-1.4-1.7-3-3.2-4.6-4.7c-2.6-2.4-5.3-4.7-8.2-6.7c-2.1-1.5-4.4-2.9-6.7-4.2
	c-1.6-0.9-3.3-1.8-5-2.5c-2.9-1.3-6-2.5-9.1-3.3c-0.6-0.2-1.2-0.3-1.8-0.5c-0.6-0.2-0.9-0.8-0.8-1.4c0.2-0.6,0.8-0.9,1.4-0.8
	c0,0,0.7,0.2,1.8,0.5c3.1,0.8,6.2,2,9.1,3.4c1.8,0.8,3.6,1.8,5.4,2.8c2.3,1.4,4.6,2.8,6.7,4.5c2.9,2.2,5.7,4.6,8.2,7.2
	c1.5,1.6,3,3.3,4.3,5.1c0.2,0.2,0.1,0.6-0.1,0.7C152.7,378.9,152.4,378.9,152.2,378.7L152.2,378.7z"/>
<path class="st1" d="M171.1,344.4c-0.6-0.2-1.2,0.1-1.5,0.6c-0.2,0.4-0.7,0.6-1.5-0.8c-0.2-0.3-0.6-0.6-1-0.6c-2.5-0.3-5-0.3-7.5,0
	c-0.9,0.1-1.6,0.7-1.9,1.6c-0.2,0.8-0.6,1-1.6,0c-0.6-0.5-1.4-0.7-2.1-0.5c-2.7,0.7-5.2,1.8-7.4,3c-0.5,0.3-0.8,0.9-0.7,1.4
	c0.2,0.8,0.1,1.9-1.4,1.8c-0.3,0-0.5-0.1-0.7-0.2c-0.5-0.4-1.2-0.3-1.6,0.1c-2.4,2-4.1,4.3-4.6,6.5c-0.4,1.5-0.1,3.2,1.1,4.2
	c2.5,2.2,5.5,2.9,8.7,2.8c0.6,0,1.1-0.3,1.4-0.8c0.4-0.8,1.2-0.5,1.7-0.1c0.4,0.3,0.9,0.4,1.4,0.2c2-0.6,4.1-1.4,6.1-2.3
	c0.6-0.3,1-1,0.8-1.7c-0.2-1.2,0.8-2,2.1-1c0.5,0.4,1.2,0.4,1.8,0.1c2.2-1.3,4.2-2.8,6.1-4.2c0.4-0.3,0.5-0.7,0.4-1.2
	c-0.2-1.2,0.8-1.1,1.4-0.9c0.4,0.1,0.8,0,1.1-0.2c3.4-2.8,5.7-5,5.7-5C175.4,345.8,173.3,345,171.1,344.4z"/>
<path class="st2" d="M173.4,347.8c-2.2,0.2-4.4,0.6-6.5,1c-3.5,0.7-6.9,1.6-10.2,2.7c-2.5,0.8-4.9,1.8-7.3,2.9
	c-1.7,0.8-3.4,1.6-5,2.6c-2.8,1.6-5.6,3.4-8,5.4c-0.5,0.4-1,0.8-1.4,1.2c-0.5,0.4-1.2,0.3-1.6-0.2c-0.4-0.5-0.3-1.2,0.2-1.6
	c0,0,0.5-0.4,1.4-1.2c2.5-2.1,5.3-3.8,8.1-5.4c1.8-1,3.6-1.9,5.4-2.7c2.5-1.1,5-2.1,7.6-2.9c3.5-1.1,7-1.9,10.7-2.4
	c2.2-0.3,4.4-0.5,6.7-0.5c0.3,0,0.5,0.2,0.5,0.5C173.9,347.6,173.7,347.8,173.4,347.8L173.4,347.8z"/>
<path class="st1" d="M185.4,359.8c-0.5-0.3-1.2-0.3-1.6,0.1c-0.4,0.3-0.8,0.3-1.1-1.2c-0.1-0.4-0.3-0.7-0.7-0.9
	c-2.2-1.1-4.6-2-7-2.6c-0.9-0.2-1.8,0.1-2.3,0.8c-0.5,0.7-0.9,0.7-1.5-0.5c-0.3-0.7-1-1.1-1.8-1.2c-2.8-0.2-5.5-0.1-7.9,0.3
	c-0.6,0.1-1,0.5-1.1,1.1c-0.1,0.8-0.5,1.8-1.9,1.2c-0.3-0.1-0.5-0.3-0.6-0.5c-0.3-0.5-1-0.7-1.6-0.5c-3,1.1-5.3,2.6-6.6,4.5
	c-0.9,1.3-1.2,3-0.4,4.3c1.6,2.9,4.1,4.6,7.2,5.6c0.5,0.2,1.1,0.1,1.6-0.3c0.7-0.6,1.3,0,1.6,0.5c0.3,0.4,0.7,0.6,1.2,0.7
	c2.1,0.2,4.3,0.1,6.5-0.1c0.7-0.1,1.3-0.6,1.4-1.3c0.2-1.2,1.4-1.6,2.3-0.2c0.4,0.5,1,0.8,1.7,0.7c2.5-0.5,4.9-1.2,7.1-1.8
	c0.4-0.1,0.8-0.5,0.8-1c0.2-1.2,1.1-0.8,1.7-0.4c0.3,0.2,0.7,0.3,1.1,0.2c4.2-1.5,7-2.8,7-2.8C188.9,362.6,187.2,361.1,185.4,359.8z
	"/>
<path class="st2" d="M186.3,363.9c-2.1-0.6-4.3-1-6.5-1.3c-3.5-0.6-7-0.9-10.6-1c-2.6-0.1-5.3,0-7.9,0.3c-1.9,0.2-3.7,0.4-5.6,0.7
	c-3.1,0.6-6.4,1.3-9.4,2.4c-0.6,0.2-1.2,0.4-1.7,0.6c-0.6,0.2-1.2-0.1-1.4-0.7c-0.2-0.6,0.1-1.2,0.7-1.4c0,0,0.6-0.2,1.8-0.6
	c3.1-1.1,6.3-1.8,9.5-2.3c2-0.3,4-0.6,6.1-0.7c2.7-0.2,5.4-0.2,8.1-0.1c3.7,0.2,7.3,0.6,10.9,1.4c2.2,0.5,4.4,1,6.4,1.8
	c0.3,0.1,0.4,0.4,0.3,0.7C186.9,363.8,186.6,363.9,186.3,363.9L186.3,363.9z"/>
<path class="st1" d="M207.9,344.8c-0.5-0.3-1.2-0.1-1.6,0.3c-0.3,0.4-0.7,0.4-1.3-1c-0.1-0.4-0.4-0.7-0.8-0.8
	c-2.4-0.8-4.9-1.2-7.3-1.4c-0.9-0.1-1.7,0.4-2.1,1.2c-0.4,0.8-0.8,0.9-1.6-0.3c-0.5-0.6-1.2-1-2-0.9c-2.8,0.3-5.4,0.8-7.8,1.6
	c-0.6,0.2-0.9,0.7-0.9,1.3c0,0.8-0.2,1.9-1.7,1.5c-0.3-0.1-0.5-0.2-0.7-0.4c-0.4-0.5-1.1-0.6-1.6-0.2c-2.7,1.6-4.8,3.5-5.7,5.6
	c-0.6,1.4-0.7,3.2,0.3,4.4c2.1,2.6,4.9,3.9,8,4.3c0.6,0.1,1.1-0.1,1.5-0.6c0.6-0.7,1.2-0.3,1.7,0.2c0.3,0.3,0.8,0.5,1.3,0.5
	c2.1-0.2,4.2-0.6,6.4-1.2c0.7-0.2,1.1-0.8,1.1-1.5c0-1.2,1.1-1.8,2.2-0.6c0.4,0.5,1.1,0.6,1.7,0.4c2.4-0.9,4.7-2,6.7-3
	c0.4-0.2,0.7-0.6,0.7-1.1c0-1.2,1-0.9,1.6-0.6c0.3,0.2,0.8,0.2,1.1,0c3.9-2.1,6.5-3.9,6.5-3.9C211.8,347,209.9,345.8,207.9,344.8z"
	/>
<path class="st2" d="M209.5,348.6c-2.2-0.2-4.4-0.2-6.6-0.2c-3.5,0-7.1,0.3-10.6,0.8c-2.6,0.4-5.2,0.9-7.7,1.6
	c-1.8,0.5-3.6,1-5.4,1.6c-3,1.1-6.1,2.3-8.9,3.9c-0.5,0.3-1.1,0.6-1.6,0.9c-0.5,0.3-1.2,0.1-1.5-0.4c-0.3-0.5-0.1-1.2,0.4-1.5
	c0,0,0.6-0.3,1.6-0.9c2.8-1.6,5.9-2.8,8.9-3.9c1.9-0.7,3.9-1.2,5.8-1.7c2.6-0.6,5.3-1.1,8-1.4c3.6-0.4,7.3-0.6,10.9-0.5
	c2.2,0.1,4.5,0.3,6.6,0.7c0.3,0.1,0.5,0.3,0.4,0.6C210,348.5,209.8,348.7,209.5,348.6L209.5,348.6z"/>
<path class="st1" d="M196,378.9c-0.3-0.5-0.9-0.8-1.5-0.7c-0.5,0.1-0.9-0.1-0.4-1.6c0.1-0.4,0.1-0.8-0.2-1.1
	c-1.4-2.1-3.1-3.9-4.9-5.6c-0.7-0.6-1.6-0.7-2.4-0.3c-0.8,0.4-1.2,0.2-1.1-1.2c0-0.8-0.4-1.5-1-1.9c-2.3-1.5-4.8-2.7-7.1-3.5
	c-0.6-0.2-1.2,0-1.5,0.4c-0.5,0.7-1.3,1.3-2.3,0.1c-0.2-0.2-0.3-0.5-0.3-0.7c0-0.6-0.5-1.1-1.1-1.2c-3.1-0.5-5.9-0.2-7.9,0.9
	c-1.4,0.7-2.5,2.1-2.5,3.6c0,3.3,1.4,6,3.7,8.3c0.4,0.4,1,0.6,1.5,0.5c0.9-0.2,1.1,0.6,1.2,1.2c0.1,0.5,0.3,0.9,0.7,1.2
	c1.7,1.1,3.7,2.1,5.8,3c0.7,0.3,1.4,0.1,1.9-0.5c0.7-0.9,2-0.7,2.1,0.9c0.1,0.7,0.5,1.2,1.1,1.4c2.4,0.7,4.9,1.3,7.1,1.8
	c0.5,0.1,0.9-0.1,1.2-0.5c0.7-1,1.3-0.1,1.6,0.5c0.2,0.3,0.5,0.6,0.9,0.7c4.4,0.7,7.5,0.9,7.5,0.9C197.8,383.1,197,380.9,196,378.9z
	"/>
<path class="st2" d="M194.9,382.9c-1.6-1.5-3.3-2.9-5.1-4.3c-2.8-2.2-5.8-4.1-8.8-5.9c-2.3-1.3-4.6-2.5-7-3.5
	c-1.7-0.7-3.5-1.4-5.2-2c-3-1-6.2-1.9-9.4-2.4c-0.6-0.1-1.2-0.2-1.8-0.3c-0.6-0.1-1-0.7-0.9-1.3c0.1-0.6,0.7-1,1.3-0.9
	c0,0,0.7,0.1,1.9,0.3c3.2,0.5,6.4,1.4,9.4,2.5c1.9,0.7,3.8,1.4,5.7,2.3c2.5,1.1,4.9,2.4,7.2,3.8c3.1,1.9,6.1,4,8.9,6.4
	c1.7,1.5,3.3,3,4.8,4.7c0.2,0.2,0.2,0.6-0.1,0.7C195.4,383.2,195.1,383.1,194.9,382.9L194.9,382.9z"/>
<path class="st1" d="M221.2,367c-0.4-0.4-1.1-0.6-1.6-0.3c-0.4,0.2-0.9,0.1-0.8-1.5c0-0.4-0.2-0.8-0.5-1c-1.9-1.6-4.1-2.9-6.3-4
	c-0.8-0.4-1.8-0.3-2.4,0.3c-0.6,0.6-1.1,0.5-1.4-0.8c-0.2-0.7-0.8-1.3-1.5-1.6c-2.6-0.8-5.3-1.3-7.8-1.4c-0.6,0-1.1,0.3-1.3,0.9
	c-0.3,0.8-0.9,1.6-2.1,0.8c-0.2-0.2-0.4-0.4-0.5-0.6c-0.2-0.6-0.8-0.9-1.4-0.8c-3.1,0.4-5.7,1.4-7.4,3c-1.1,1.1-1.8,2.7-1.4,4.1
	c0.9,3.2,3.1,5.4,5.8,7c0.5,0.3,1.1,0.3,1.6,0c0.8-0.4,1.2,0.2,1.5,0.8c0.2,0.4,0.6,0.8,1,0.9c2,0.6,4.2,1,6.4,1.3
	c0.7,0.1,1.4-0.3,1.6-1c0.4-1.1,1.7-1.3,2.3,0.3c0.2,0.6,0.8,1,1.5,1c2.5,0,5-0.1,7.4-0.3c0.5,0,0.9-0.3,1-0.8
	c0.4-1.1,1.2-0.5,1.7,0c0.3,0.3,0.6,0.4,1,0.4c4.4-0.5,7.5-1.2,7.5-1.2C224,370.5,222.7,368.6,221.2,367z"/>
<path class="st2" d="M221.2,371.1c-1.9-1-4-1.9-6-2.7c-3.3-1.3-6.7-2.3-10.1-3.2c-2.5-0.6-5.1-1.1-7.7-1.4c-1.9-0.2-3.7-0.4-5.6-0.5
	c-3.2-0.1-6.5-0.1-9.7,0.3c-0.6,0.1-1.2,0.1-1.8,0.2c-0.6,0.1-1.2-0.4-1.2-1c-0.1-0.6,0.4-1.2,1-1.2c0,0,0.7-0.1,1.9-0.2
	c3.2-0.4,6.5-0.4,9.7-0.3c2,0.1,4.1,0.3,6.1,0.6c2.7,0.4,5.3,0.9,7.9,1.6c3.5,1,7,2.1,10.3,3.7c2,0.9,4,1.9,5.9,3.2
	c0.2,0.2,0.3,0.5,0.2,0.7C221.8,371.2,221.5,371.3,221.2,371.1L221.2,371.1z"/>
<path class="st1" d="M229.9,350.8c-0.6-0.2-1.2,0-1.5,0.6c-0.2,0.4-0.7,0.5-1.5-0.9c-0.2-0.3-0.5-0.6-0.9-0.7
	c-2.5-0.4-5-0.5-7.5-0.4c-0.9,0.1-1.7,0.6-1.9,1.5c-0.3,0.8-0.7,1-1.6,0c-0.5-0.6-1.3-0.8-2.1-0.6c-2.7,0.6-5.2,1.5-7.5,2.6
	c-0.5,0.3-0.8,0.8-0.7,1.4c0.1,0.8,0,1.9-1.5,1.7c-0.3,0-0.5-0.1-0.7-0.3c-0.5-0.4-1.2-0.4-1.7,0c-2.5,1.9-4.3,4.1-4.9,6.3
	c-0.4,1.5-0.2,3.2,0.9,4.3c2.4,2.3,5.3,3.2,8.5,3.2c0.6,0,1.1-0.3,1.4-0.8c0.5-0.8,1.2-0.4,1.7,0c0.4,0.3,0.9,0.4,1.3,0.3
	c2-0.5,4.1-1.2,6.2-2.1c0.7-0.3,1-1,0.9-1.7c-0.2-1.2,0.8-1.9,2.1-0.9c0.5,0.4,1.2,0.5,1.8,0.2c2.2-1.2,4.3-2.6,6.3-3.9
	c0.4-0.3,0.6-0.7,0.5-1.2c-0.2-1.2,0.8-1.1,1.5-0.8c0.4,0.1,0.8,0.1,1.1-0.2c3.6-2.6,5.9-4.7,5.9-4.7
	C234.1,352.4,232.1,351.5,229.9,350.8z"/>
<path class="st2" d="M232.1,354.4c-2.2,0.1-4.4,0.4-6.6,0.7c-3.5,0.5-7,1.3-10.4,2.2c-2.5,0.7-5,1.6-7.4,2.6
	c-1.7,0.7-3.4,1.5-5.1,2.4c-2.8,1.5-5.7,3.1-8.3,5.1c-0.5,0.4-1,0.7-1.5,1.1c-0.5,0.4-1.2,0.3-1.6-0.2c-0.4-0.5-0.3-1.2,0.2-1.6
	c0,0,0.5-0.4,1.5-1.1c2.6-1.9,5.4-3.6,8.3-5c1.8-0.9,3.7-1.7,5.6-2.5c2.5-1,5.1-1.8,7.7-2.5c3.5-0.9,7.1-1.6,10.8-1.9
	c2.2-0.2,4.5-0.3,6.7-0.2c0.3,0,0.5,0.3,0.5,0.6C232.6,354.1,232.3,354.4,232.1,354.4L232.1,354.4z"/>
<path class="st1" d="M35.7,340.7c0,0,1,2.9,2.8,7c0.2,0.4,0.5,0.6,0.9,0.7c0.7,0.1,1.6,0.5,0.9,1.5c-0.3,0.4-0.3,0.9-0.1,1.3
	c1,2.1,2.2,4.3,3.6,6.4c0.3,0.6,1,0.8,1.6,0.7c1.6-0.3,2.1,0.9,1.4,1.8c-0.4,0.6-0.4,1.4,0,1.9c1.4,1.8,2.8,3.4,4.4,4.8
	c0.4,0.3,0.8,0.5,1.3,0.4c0.6-0.1,1.4,0,1.4,0.9c0,0.6,0.3,1.1,0.8,1.4c2.8,1.6,5.8,2.2,9,1.4c1.5-0.4,2.5-1.8,2.9-3.3
	c0.5-2.2,0-5-1.2-7.9c-0.2-0.6-0.8-0.9-1.5-0.8c-0.2,0-0.5,0-0.8-0.1c-1.4-0.6-1-1.6-0.5-2.2c0.4-0.5,0.4-1.1,0-1.6
	c-1.4-2.1-3.2-4.1-5.2-6c-0.6-0.5-1.4-0.7-2.1-0.5c-1.3,0.4-1.6,0.1-1.4-0.8c0.2-0.9-0.2-1.8-0.9-2.2c-2.1-1.4-4.3-2.5-6.7-3.3
	c-0.4-0.1-0.8-0.1-1.1,0.1c-1.3,0.8-1.7,0.5-1.7,0c0-0.6-0.5-1.1-1.1-1.2C40.3,340.7,38,340.5,35.7,340.7z"/>
<path class="st2" d="M38.8,343.2c-0.2-0.1-0.3-0.4-0.2-0.7c0.1-0.3,0.4-0.4,0.7-0.2c2,1,3.9,2.2,5.7,3.4c3,2.1,5.8,4.4,8.5,6.9
	c2,1.9,3.8,3.9,5.5,5.9c1.3,1.6,2.5,3.2,3.6,4.9c1.8,2.7,3.5,5.5,4.8,8.5c0.5,1.1,0.8,1.7,0.8,1.7c0.3,0.6,0,1.2-0.6,1.5
	c-0.6,0.3-1.2,0-1.5-0.6c-0.3-0.6-0.5-1.1-0.8-1.7c-1.3-2.9-3-5.8-4.7-8.4c-1-1.6-2.2-3.1-3.3-4.6c-1.6-2.1-3.4-4-5.2-5.9
	c-2.5-2.5-5.1-4.9-7.9-7C42.5,345.6,40.7,344.3,38.8,343.2L38.8,343.2z"/>
<path class="st1" d="M22.5,356.5c0,0,2.2,2.2,5.6,5c0.3,0.2,0.7,0.3,1.1,0.2c0.7-0.2,1.7-0.3,1.4,0.9c-0.1,0.5,0.1,0.9,0.4,1.2
	c1.8,1.4,3.9,2.8,6.1,4.2c0.6,0.3,1.3,0.3,1.8-0.1c1.3-1,2.3-0.2,2.1,1c-0.1,0.7,0.2,1.4,0.8,1.7c2,1,4,1.8,6.1,2.4
	c0.5,0.1,1,0.1,1.4-0.2c0.5-0.3,1.3-0.7,1.7,0.1c0.3,0.5,0.8,0.8,1.4,0.9c3.2,0.2,6.2-0.6,8.7-2.7c1.2-1,1.5-2.7,1.1-4.2
	c-0.5-2.2-2.2-4.5-4.6-6.5c-0.5-0.4-1.2-0.4-1.6-0.1c-0.2,0.1-0.4,0.2-0.7,0.2c-1.5,0.1-1.6-1-1.4-1.8c0.1-0.6-0.2-1.2-0.7-1.4
	c-2.2-1.2-4.7-2.3-7.4-3c-0.7-0.2-1.5,0-2.1,0.5c-1,1-1.4,0.8-1.6,0c-0.2-0.9-1-1.5-1.8-1.6c-2.5-0.3-5-0.3-7.5,0
	c-0.4,0-0.7,0.3-1,0.6c-0.8,1.3-1.3,1.2-1.5,0.8c-0.3-0.5-0.9-0.8-1.5-0.6C26.6,354.5,24.5,355.3,22.5,356.5z"/>
<path class="st2" d="M26.4,357.4c-0.3,0-0.5-0.2-0.5-0.5c0-0.3,0.2-0.5,0.5-0.5c2.2,0,4.5,0.2,6.7,0.5c3.6,0.5,7.2,1.4,10.7,2.5
	c2.6,0.8,5.1,1.8,7.6,2.9c1.8,0.8,3.7,1.8,5.4,2.8c2.8,1.6,5.6,3.4,8.1,5.5c0.9,0.8,1.4,1.2,1.4,1.2c0.5,0.4,0.5,1.1,0.2,1.6
	c-0.4,0.5-1.1,0.5-1.6,0.2c-0.5-0.4-1-0.8-1.4-1.2c-2.4-2.1-5.2-3.9-8-5.5c-1.6-0.9-3.3-1.8-5-2.6c-2.4-1.1-4.8-2.1-7.3-3
	c-3.3-1.1-6.8-2.1-10.2-2.7C30.8,357.9,28.6,357.5,26.4,357.4L26.4,357.4z"/>
<path class="st1" d="M-1,353.3c0,0,2.8,1.4,6.9,3c0.4,0.1,0.8,0.1,1.1-0.1c0.6-0.4,1.5-0.8,1.7,0.4c0.1,0.5,0.4,0.9,0.8,1
	c2.2,0.8,4.6,1.5,7,2.1c0.6,0.2,1.3-0.1,1.7-0.6c1-1.4,2.1-0.9,2.3,0.3c0.1,0.7,0.6,1.3,1.3,1.4c2.2,0.3,4.4,0.5,6.5,0.4
	c0.5,0,0.9-0.2,1.2-0.6c0.4-0.5,1-1,1.6-0.4c0.4,0.4,1,0.5,1.6,0.4c3.1-0.8,5.7-2.5,7.4-5.3c0.8-1.3,0.6-3-0.3-4.4
	c-1.2-1.9-3.5-3.6-6.4-4.8c-0.6-0.2-1.2-0.1-1.6,0.5c-0.1,0.2-0.3,0.3-0.6,0.5c-1.4,0.5-1.8-0.4-1.9-1.3c-0.1-0.6-0.5-1-1.1-1.2
	c-2.5-0.5-5.2-0.7-7.9-0.6c-0.8,0-1.5,0.4-1.8,1.1c-0.7,1.2-1.1,1.2-1.6,0.5c-0.5-0.7-1.4-1.1-2.2-0.9c-2.4,0.5-4.8,1.2-7.1,2.3
	c-0.4,0.2-0.6,0.5-0.7,0.9c-0.4,1.5-0.8,1.5-1.2,1.2c-0.4-0.4-1.1-0.5-1.6-0.1C2.3,350.1,0.5,351.6-1,353.3z"/>
<path class="st2" d="M3,352.9c-0.3,0.1-0.5-0.1-0.6-0.3c-0.1-0.3,0.1-0.6,0.3-0.7c2.1-0.7,4.3-1.2,6.5-1.6c3.6-0.6,7.3-0.9,10.9-0.9
	c2.7,0,5.4,0.1,8.1,0.4c2,0.2,4,0.6,6,1c3.2,0.7,6.3,1.5,9.4,2.7c1.1,0.4,1.7,0.7,1.7,0.7c0.6,0.2,0.9,0.9,0.6,1.4
	c-0.2,0.6-0.9,0.9-1.4,0.6c-0.6-0.2-1.1-0.5-1.7-0.7c-3-1.2-6.2-2.1-9.3-2.8c-1.8-0.4-3.7-0.7-5.5-0.9c-2.6-0.4-5.2-0.5-7.9-0.6
	c-3.5,0-7.1,0.1-10.6,0.5C7.4,352.1,5.2,352.4,3,352.9L3,352.9z"/>
<path class="st1" d="M-3.5,383.3c0,0,3.1-0.5,7.4-1.7c0.4-0.1,0.7-0.4,0.8-0.7c0.2-0.7,0.8-1.5,1.6-0.6c0.3,0.3,0.8,0.5,1.2,0.3
	c2.2-0.7,4.6-1.5,6.9-2.5c0.6-0.3,1-0.8,1-1.5c0-1.7,1.2-2,2-1.1c0.5,0.5,1.3,0.7,1.9,0.3c2-1.1,3.8-2.2,5.4-3.5
	c0.4-0.3,0.6-0.8,0.6-1.2c0-0.6,0.2-1.4,1.1-1.3c0.6,0.1,1.1-0.2,1.5-0.6c2-2.5,3.1-5.4,2.8-8.6c-0.1-1.5-1.3-2.8-2.8-3.3
	c-2.1-0.8-4.9-0.8-8-0.1c-0.6,0.1-1,0.7-1,1.3c0,0.2-0.1,0.5-0.2,0.7c-0.8,1.3-1.7,0.7-2.3,0.1c-0.4-0.4-1-0.5-1.6-0.3
	c-2.3,1.1-4.6,2.5-6.7,4.2c-0.6,0.5-0.9,1.2-0.8,2c0.2,1.4-0.2,1.6-1,1.3c-0.8-0.3-1.8-0.1-2.4,0.6c-1.7,1.8-3.1,3.9-4.4,6.1
	c-0.2,0.3-0.2,0.8-0.1,1.1c0.6,1.5,0.2,1.7-0.2,1.7c-0.6-0.1-1.2,0.3-1.4,0.8C-2.8,378.7-3.3,380.9-3.5,383.3z"/>
<path class="st2" d="M-0.5,380.5c-0.2,0.2-0.5,0.2-0.7,0.1c-0.2-0.2-0.3-0.5-0.1-0.7c1.3-1.8,2.8-3.5,4.3-5.1c2.5-2.7,5.3-5,8.2-7.2
	c2.1-1.6,4.4-3.1,6.7-4.5c1.8-1,3.6-2,5.4-2.8c2.9-1.4,6-2.6,9.1-3.4c1.2-0.3,1.8-0.5,1.8-0.5c0.6-0.2,1.2,0.2,1.4,0.8
	c0.2,0.6-0.2,1.2-0.8,1.4c-0.6,0.2-1.2,0.3-1.8,0.5c-3.1,0.8-6.2,2-9.1,3.3c-1.7,0.8-3.4,1.6-5,2.5c-2.3,1.3-4.5,2.7-6.7,4.2
	c-2.9,2.1-5.6,4.3-8.2,6.7C2.5,377.3,0.9,378.9-0.5,380.5L-0.5,380.5z"/>
<path class="st1" d="M-25.7,348.9c0,0,2.2,2.2,5.7,5c0.3,0.2,0.7,0.3,1.1,0.2c0.7-0.2,1.7-0.3,1.4,0.9c-0.1,0.5,0.1,0.9,0.4,1.2
	c1.8,1.4,3.9,2.8,6.1,4.2c0.6,0.3,1.3,0.3,1.8-0.1c1.3-1,2.3-0.2,2.1,1c-0.1,0.7,0.2,1.4,0.8,1.7c2,1,4.1,1.8,6.1,2.3
	c0.5,0.1,1,0,1.4-0.2c0.5-0.4,1.3-0.7,1.7,0.1c0.3,0.5,0.8,0.8,1.4,0.8c3.2,0.2,6.2-0.6,8.7-2.8c1.2-1,1.5-2.7,1.1-4.2
	c-0.5-2.2-2.2-4.5-4.6-6.5c-0.5-0.4-1.2-0.4-1.6-0.1c-0.2,0.1-0.4,0.2-0.7,0.2c-1.5,0.1-1.6-1-1.4-1.8c0.1-0.6-0.2-1.2-0.7-1.4
	c-2.2-1.2-4.7-2.2-7.4-3c-0.7-0.2-1.5,0-2.1,0.5c-1,1-1.4,0.8-1.6,0c-0.2-0.9-1-1.5-1.9-1.6c-2.5-0.3-5-0.3-7.5,0
	c-0.4,0-0.7,0.3-1,0.6c-0.8,1.3-1.3,1.2-1.5,0.8c-0.3-0.5-0.9-0.8-1.5-0.6C-21.6,346.8-23.7,347.7-25.7,348.9z"/>
<path class="st2" d="M-21.7,349.7c-0.3,0-0.5-0.2-0.5-0.5c0-0.3,0.2-0.5,0.5-0.5c2.2,0,4.5,0.2,6.7,0.5c3.6,0.5,7.2,1.4,10.7,2.4
	c2.6,0.8,5.1,1.8,7.6,2.9c1.9,0.8,3.7,1.8,5.4,2.7c2.8,1.6,5.6,3.4,8.1,5.4c0.9,0.8,1.4,1.2,1.4,1.2c0.5,0.4,0.5,1.1,0.2,1.6
	c-0.4,0.5-1.1,0.5-1.6,0.2c-0.5-0.4-1-0.8-1.4-1.2c-2.4-2.1-5.2-3.8-8-5.4c-1.6-0.9-3.3-1.8-5-2.6c-2.4-1.1-4.8-2.1-7.3-2.9
	c-3.3-1.1-6.8-2.1-10.2-2.7C-17.3,350.2-19.5,349.8-21.7,349.7L-21.7,349.7z"/>
<path class="st1" d="M-38.6,366.3c0,0,2.8,1.3,7,2.8c0.4,0.1,0.8,0.1,1.1-0.2c0.6-0.4,1.5-0.8,1.7,0.4c0.1,0.5,0.4,0.8,0.8,1
	c2.2,0.7,4.6,1.3,7.1,1.8c0.6,0.1,1.3-0.1,1.7-0.7c0.9-1.4,2.1-1,2.3,0.2c0.1,0.7,0.7,1.3,1.4,1.3c2.2,0.2,4.4,0.3,6.5,0.1
	c0.5,0,0.9-0.3,1.2-0.7c0.4-0.5,1-1.1,1.6-0.5c0.4,0.4,1,0.5,1.6,0.3c3.1-0.9,5.6-2.7,7.2-5.6c0.7-1.3,0.4-3-0.4-4.3
	c-1.3-1.9-3.6-3.4-6.6-4.5c-0.6-0.2-1.2,0-1.6,0.5c-0.1,0.2-0.3,0.4-0.6,0.5c-1.4,0.6-1.8-0.4-1.9-1.2c-0.1-0.6-0.5-1-1.1-1.1
	c-2.5-0.4-5.2-0.5-7.9-0.3c-0.8,0.1-1.5,0.5-1.8,1.2c-0.6,1.2-1.1,1.2-1.5,0.5c-0.5-0.7-1.4-1.1-2.3-0.8c-2.4,0.6-4.8,1.4-7,2.6
	c-0.4,0.2-0.6,0.5-0.7,0.9c-0.3,1.5-0.8,1.6-1.1,1.2c-0.4-0.4-1.1-0.4-1.6-0.1C-35.4,362.9-37.1,364.5-38.6,366.3z"/>
<path class="st2" d="M-34.6,365.7c-0.3,0.1-0.5-0.1-0.6-0.3c-0.1-0.3,0-0.6,0.3-0.7c2.1-0.8,4.3-1.4,6.4-1.8
	c3.6-0.8,7.2-1.2,10.9-1.4c2.7-0.1,5.4-0.1,8.1,0.1c2,0.2,4.1,0.4,6.1,0.7c3.2,0.5,6.4,1.3,9.5,2.3c1.1,0.4,1.8,0.6,1.8,0.6
	c0.6,0.2,0.9,0.8,0.7,1.4c-0.2,0.6-0.8,0.9-1.4,0.7c-0.6-0.2-1.2-0.4-1.7-0.6c-3-1.1-6.2-1.8-9.4-2.4c-1.8-0.3-3.7-0.5-5.6-0.7
	c-2.6-0.2-5.2-0.3-7.9-0.3c-3.5,0.1-7.1,0.4-10.6,1C-30.3,364.7-32.5,365.1-34.6,365.7L-34.6,365.7z"/>
<path class="st1" d="M-61.8,350.4c0,0,2.6,1.7,6.5,3.9c0.3,0.2,0.7,0.2,1.1,0c0.6-0.3,1.6-0.6,1.6,0.6c0,0.5,0.2,0.9,0.7,1.1
	c2.1,1,4.3,2.1,6.7,3c0.6,0.2,1.3,0.1,1.7-0.4c1.1-1.2,2.2-0.6,2.2,0.6c0,0.7,0.5,1.4,1.1,1.5c2.2,0.6,4.3,1,6.4,1.2
	c0.5,0,1-0.1,1.3-0.5c0.4-0.4,1.1-0.9,1.7-0.2c0.4,0.4,0.9,0.7,1.5,0.6c3.2-0.4,6-1.7,8-4.3c1-1.2,0.9-2.9,0.3-4.4
	c-0.9-2.1-3-4-5.7-5.6c-0.5-0.3-1.2-0.2-1.6,0.2c-0.2,0.2-0.4,0.3-0.7,0.4c-1.5,0.4-1.7-0.7-1.7-1.5c0-0.6-0.4-1.1-0.9-1.3
	c-2.4-0.8-5-1.4-7.8-1.6c-0.8-0.1-1.5,0.3-2,0.9c-0.8,1.1-1.2,1-1.6,0.3c-0.4-0.8-1.2-1.3-2.1-1.2c-2.5,0.2-4.9,0.6-7.3,1.4
	c-0.4,0.1-0.7,0.4-0.8,0.8c-0.6,1.5-1,1.4-1.3,1c-0.4-0.5-1-0.6-1.6-0.3C-58.2,347.6-60.1,348.8-61.8,350.4z"/>
<path class="st2" d="M-57.8,350.5c-0.3,0-0.5-0.2-0.6-0.4c-0.1-0.3,0.1-0.6,0.4-0.6c2.2-0.4,4.4-0.6,6.6-0.7c3.7-0.2,7.3,0,10.9,0.5
	c2.7,0.3,5.3,0.8,8,1.4c2,0.5,3.9,1.1,5.8,1.7c3.1,1.1,6.1,2.3,8.9,3.9c1,0.6,1.6,0.9,1.6,0.9c0.5,0.3,0.7,1,0.4,1.5
	c-0.3,0.5-1,0.7-1.5,0.4c-0.5-0.3-1.1-0.6-1.6-0.9c-2.8-1.6-5.9-2.8-8.9-3.9c-1.8-0.6-3.6-1.2-5.4-1.6c-2.5-0.7-5.1-1.2-7.7-1.6
	c-3.5-0.5-7-0.8-10.6-0.8C-53.4,350.2-55.6,350.2-57.8,350.5L-57.8,350.5z"/>
<path class="st1" d="M-46.4,387.2c0,0,3.1-0.2,7.5-0.9c0.4-0.1,0.7-0.3,0.9-0.7c0.3-0.6,0.9-1.4,1.6-0.5c0.3,0.4,0.7,0.6,1.2,0.5
	c2.3-0.5,4.7-1,7.1-1.8c0.6-0.2,1.1-0.7,1.1-1.4c0.1-1.7,1.4-1.8,2.1-0.9c0.4,0.6,1.2,0.8,1.9,0.5c2.1-0.9,4-1.8,5.8-3
	c0.4-0.3,0.7-0.7,0.7-1.2c0.1-0.6,0.3-1.4,1.2-1.2c0.6,0.1,1.1,0,1.5-0.5c2.2-2.3,3.7-5,3.7-8.3c0-1.5-1.1-2.9-2.5-3.6
	c-2-1.1-4.8-1.3-7.9-0.9c-0.6,0.1-1.1,0.6-1.1,1.2c0,0.2-0.1,0.5-0.3,0.7c-0.9,1.2-1.8,0.5-2.3-0.1c-0.3-0.5-1-0.6-1.5-0.4
	c-2.4,0.8-4.8,2-7.1,3.5c-0.6,0.4-1,1.1-1,1.9c0,1.4-0.3,1.6-1.1,1.2c-0.8-0.4-1.7-0.3-2.4,0.3c-1.8,1.7-3.5,3.5-4.9,5.6
	c-0.2,0.3-0.3,0.7-0.2,1.1c0.4,1.5,0.1,1.7-0.4,1.6c-0.6-0.1-1.2,0.2-1.5,0.7C-45.3,382.8-46,384.9-46.4,387.2z"/>
<path class="st2" d="M-43.2,384.8c-0.2,0.2-0.5,0.2-0.7,0c-0.2-0.2-0.2-0.5-0.1-0.7c1.5-1.7,3.1-3.2,4.8-4.7
	c2.8-2.4,5.8-4.5,8.9-6.4c2.3-1.4,4.7-2.7,7.2-3.8c1.9-0.8,3.8-1.6,5.7-2.3c3.1-1.1,6.2-1.9,9.4-2.5c1.2-0.2,1.9-0.3,1.9-0.3
	c0.6-0.1,1.2,0.3,1.3,0.9c0.1,0.6-0.3,1.2-0.9,1.3c-0.6,0.1-1.2,0.2-1.8,0.3c-3.2,0.5-6.4,1.4-9.4,2.4c-1.8,0.6-3.5,1.3-5.2,2
	c-2.4,1-4.8,2.2-7,3.5c-3.1,1.8-6,3.7-8.8,5.9C-39.9,381.9-41.6,383.3-43.2,384.8L-43.2,384.8z"/>
<path class="st1" d="M-73.3,374.4c0,0,3,0.7,7.5,1.2c0.4,0,0.8-0.1,1-0.4c0.5-0.5,1.3-1.1,1.7,0c0.2,0.4,0.6,0.7,1,0.8
	c2.3,0.2,4.8,0.3,7.4,0.3c0.7,0,1.2-0.4,1.5-1c0.6-1.6,1.8-1.4,2.3-0.3c0.3,0.7,0.9,1.1,1.6,1c2.2-0.2,4.4-0.7,6.4-1.3
	c0.5-0.1,0.8-0.5,1-0.9c0.2-0.6,0.7-1.2,1.5-0.8c0.5,0.3,1.1,0.3,1.6,0c2.8-1.6,4.9-3.8,5.8-7c0.4-1.5-0.2-3.1-1.4-4.1
	c-1.6-1.6-4.3-2.6-7.4-3c-0.6-0.1-1.2,0.3-1.4,0.8c-0.1,0.2-0.2,0.4-0.5,0.6c-1.2,0.9-1.8,0-2.1-0.8c-0.2-0.5-0.7-0.9-1.3-0.9
	c-2.5,0.2-5.2,0.6-7.8,1.4c-0.7,0.2-1.3,0.8-1.5,1.6c-0.3,1.4-0.8,1.4-1.4,0.8c-0.6-0.6-1.6-0.7-2.4-0.3c-2.2,1.1-4.4,2.4-6.3,4
	c-0.3,0.3-0.5,0.6-0.5,1c0,1.6-0.4,1.7-0.8,1.5c-0.5-0.3-1.2-0.2-1.6,0.3C-70.9,370.5-72.2,372.3-73.3,374.4z"/>
<path class="st2" d="M-69.5,373c-0.2,0.1-0.5,0.1-0.7-0.2c-0.2-0.2-0.1-0.6,0.2-0.7c1.9-1.2,3.9-2.2,5.9-3.2
	c3.3-1.5,6.8-2.7,10.3-3.7c2.6-0.7,5.3-1.3,7.9-1.6c2-0.3,4.1-0.5,6.1-0.6c3.2-0.2,6.5-0.1,9.7,0.3c1.2,0.1,1.9,0.2,1.9,0.2
	c0.6,0.1,1,0.6,1,1.2c-0.1,0.6-0.6,1-1.2,1c-0.6-0.1-1.2-0.1-1.8-0.2c-3.2-0.4-6.5-0.4-9.7-0.3c-1.9,0.1-3.7,0.3-5.6,0.5
	c-2.6,0.3-5.2,0.8-7.7,1.4c-3.4,0.9-6.8,1.9-10.1,3.2C-65.5,371.1-67.6,371.9-69.5,373L-69.5,373z"/>
<path class="st1" d="M-84.3,355.6c0,0,2.3,2.1,5.9,4.7c0.3,0.2,0.7,0.3,1.1,0.2c0.7-0.2,1.7-0.4,1.5,0.8c-0.1,0.5,0.1,0.9,0.5,1.2
	c1.9,1.3,4,2.6,6.3,3.9c0.6,0.3,1.3,0.2,1.8-0.2c1.3-1.1,2.3-0.3,2.1,0.9c-0.1,0.7,0.3,1.4,0.9,1.7c2.1,0.9,4.1,1.6,6.2,2.1
	c0.5,0.1,1,0,1.3-0.3c0.5-0.4,1.2-0.7,1.7,0c0.3,0.5,0.8,0.8,1.4,0.8c3.2,0,6.1-0.9,8.5-3.2c1.1-1.1,1.3-2.8,0.9-4.3
	c-0.7-2.2-2.4-4.4-4.9-6.3c-0.5-0.4-1.2-0.4-1.7,0c-0.2,0.1-0.4,0.2-0.7,0.3c-1.5,0.2-1.6-0.9-1.5-1.7c0.1-0.6-0.2-1.1-0.7-1.4
	c-2.3-1.1-4.8-2-7.5-2.6c-0.7-0.2-1.5,0.1-2.1,0.6c-1,1-1.4,0.9-1.6,0c-0.3-0.8-1-1.4-1.9-1.5c-2.5-0.2-5-0.1-7.5,0.4
	c-0.4,0.1-0.7,0.3-0.9,0.7c-0.8,1.4-1.2,1.3-1.5,0.9c-0.3-0.5-0.9-0.7-1.5-0.6C-80.3,353.3-82.4,354.3-84.3,355.6z"/>
<path class="st2" d="M-80.3,356.2c-0.3,0-0.5-0.2-0.5-0.5c0-0.3,0.2-0.5,0.5-0.6c2.2-0.1,4.5,0,6.7,0.2c3.6,0.3,7.2,1,10.8,1.9
	c2.6,0.7,5.2,1.5,7.7,2.5c1.9,0.7,3.8,1.6,5.6,2.5c2.9,1.5,5.7,3.1,8.3,5c1,0.7,1.5,1.1,1.5,1.1c0.5,0.4,0.6,1.1,0.2,1.6
	c-0.4,0.5-1.1,0.6-1.6,0.2c-0.5-0.4-1-0.7-1.5-1.1c-2.5-2-5.4-3.6-8.3-5.1c-1.7-0.9-3.4-1.6-5.1-2.4c-2.4-1-4.9-1.9-7.4-2.6
	c-3.4-1-6.9-1.7-10.4-2.2C-75.9,356.6-78.1,356.3-80.3,356.2L-80.3,356.2z"/>
<path class="st3" d="M71.8,370.2c-6.9,12-17.5-6.3-3.6-6.3c-13.9,0-3.3-18.3,3.6-6.3c-6.9-12,14.2-12,7.2,0c6.9-12,17.5,6.3,3.6,6.3
	c13.9,0,3.3,18.3-3.6,6.3C85.9,382.2,64.8,382.2,71.8,370.2z"/>
<path class="st4" d="M82.6,363.9l-7-0.1l0,0l0,0l3.4-6.1c6.9-12-14.2-12-7.2,0l3.4,6.1l0,0l0,0l-7,0.1c-13.9,0-3.3,18.3,3.6,6.2
	l3.6-6.1l0,0l0,0l3.6,6C86,382.2,96.5,363.9,82.6,363.9z"/>
<g>
	<path class="st5" d="M75.4,373.4c-0.3,0-0.5,0.2-0.5,0.5v2c0,0.3,0.2,0.5,0.5,0.5s0.5-0.2,0.5-0.5v-2
		C75.9,373.6,75.7,373.4,75.4,373.4z"/>
	<path class="st5" d="M68,358.3l1.2,1c0.1,0.1,0.2,0.1,0.3,0.1c0.1,0,0.3-0.1,0.4-0.2c0.2-0.2,0.1-0.5-0.1-0.7l-1.2-1
		c-0.2-0.2-0.5-0.1-0.7,0.1C67.7,357.9,67.8,358.2,68,358.3z"/>
	<path class="st5" d="M67.2,367.8l-1.7,0.9c-0.2,0.1-0.3,0.4-0.2,0.6c0.1,0.2,0.2,0.2,0.4,0.2c0.1,0,0.2,0,0.2-0.1l1.7-0.9
		c0.2-0.1,0.3-0.4,0.2-0.6C67.8,367.8,67.5,367.7,67.2,367.8z"/>
	<path class="st5" d="M83.8,370.8l-1.2-1.1c-0.2-0.2-0.5-0.2-0.7,0c-0.2,0.2-0.2,0.5,0,0.7l1.2,1.1c0.1,0.1,0.2,0.1,0.3,0.1
		c0.1,0,0.3-0.1,0.3-0.2C84,371.2,84,370.9,83.8,370.8z"/>
	<path class="st5" d="M83.7,366.3l-7.2-2.5l7.3-4.6c0.2-0.1,0.3-0.4,0.1-0.6c-0.1-0.2-0.4-0.3-0.6-0.1l-7.4,4.7v-7
		c0-0.3-0.2-0.5-0.5-0.5c-0.3,0-0.5,0.2-0.5,0.5v6.8l-4-3.3c-0.2-0.2-0.5-0.1-0.7,0.1c-0.2,0.2-0.1,0.5,0.1,0.7l2.7,2.2l-6.3-2.3
		c-0.2-0.1-0.5,0-0.6,0.3c-0.1,0.2,0,0.5,0.3,0.6l7.9,2.8l-5,2.7c-0.2,0.1-0.3,0.4-0.2,0.6c0.1,0.2,0.2,0.2,0.4,0.2
		c0.1,0,0.2,0,0.2-0.1l5.2-2.8l0,7.2c0,0.3,0.2,0.5,0.5,0.5h0c0.3,0,0.5-0.2,0.5-0.5l0-6.9l4.9,4.4c0.1,0.1,0.2,0.1,0.3,0.1
		c0.1,0,0.3-0.1,0.3-0.2c0.2-0.2,0.2-0.5,0-0.7l-3.9-3.5l5.9,2.1c0.1,0,0.1,0,0.2,0c0.2,0,0.4-0.1,0.4-0.3
		C84,366.7,83.9,366.4,83.7,366.3z"/>
	<path class="st5" d="M75.4,354.4c0.3,0,0.5-0.2,0.5-0.5v-2c0-0.3-0.2-0.5-0.5-0.5c-0.3,0-0.5,0.2-0.5,0.5v2
		C74.9,354.2,75.1,354.4,75.4,354.4z"/>
</g>
<circle class="st6" cx="75.4" cy="363.9" r="3.6"/>
<path class="st7" d="M73.6,363.9c0-1.7,1.2-3.1,2.7-3.5c-0.3-0.1-0.6-0.1-0.9-0.1c-2,0-3.6,1.6-3.6,3.6c0,2,1.6,3.6,3.6,3.6
	c0.3,0,0.6,0,0.9-0.1C74.8,367,73.6,365.6,73.6,363.9z"/>
<path class="st1" d="M37.9,353c0,0,1,2.9,2.8,7c0.2,0.4,0.5,0.6,0.9,0.7c0.7,0.1,1.6,0.5,0.9,1.5c-0.3,0.4-0.3,0.9-0.1,1.3
	c1,2.1,2.2,4.3,3.6,6.4c0.3,0.6,1,0.8,1.6,0.7c1.6-0.3,2.1,0.9,1.4,1.8c-0.4,0.6-0.4,1.4,0,1.9c1.4,1.8,2.8,3.4,4.4,4.8
	c0.4,0.3,0.8,0.5,1.3,0.4c0.6-0.1,1.4,0,1.4,0.9c0,0.6,0.3,1.1,0.8,1.4c2.8,1.6,5.8,2.2,9,1.4c1.5-0.4,2.5-1.8,2.9-3.3
	c0.5-2.2,0-5-1.2-7.9c-0.2-0.6-0.8-0.9-1.5-0.8c-0.2,0-0.5,0-0.8-0.1c-1.4-0.6-1-1.6-0.5-2.2c0.4-0.5,0.4-1.1,0-1.6
	c-1.4-2.1-3.2-4.1-5.2-6c-0.6-0.5-1.4-0.7-2.1-0.5c-1.3,0.4-1.6,0.1-1.4-0.8c0.2-0.9-0.2-1.8-0.9-2.2c-2.1-1.4-4.3-2.5-6.7-3.3
	c-0.4-0.1-0.8-0.1-1.1,0.1c-1.3,0.8-1.7,0.5-1.7,0c0-0.6-0.5-1.1-1.1-1.2C42.5,353,40.2,352.9,37.9,353z"/>
<path class="st2" d="M41,355.6c-0.2-0.1-0.3-0.4-0.2-0.7c0.1-0.3,0.4-0.4,0.7-0.2c2,1,3.9,2.2,5.7,3.4c3,2.1,5.8,4.4,8.5,6.9
	c2,1.9,3.8,3.9,5.5,5.9c1.3,1.6,2.5,3.2,3.6,4.9c1.8,2.7,3.5,5.5,4.8,8.5c0.5,1.1,0.8,1.7,0.8,1.7c0.3,0.6,0,1.2-0.6,1.5
	c-0.6,0.3-1.2,0-1.5-0.6c-0.3-0.6-0.5-1.1-0.8-1.7c-1.3-2.9-3-5.8-4.7-8.4c-1-1.6-2.2-3.1-3.3-4.6c-1.6-2.1-3.4-4-5.2-5.9
	c-2.5-2.5-5.1-4.9-7.9-7C44.7,358,42.9,356.7,41,355.6L41,355.6z"/>
<path class="st1" d="M24.7,368.9c0,0,2.2,2.2,5.6,5c0.3,0.2,0.7,0.3,1.1,0.2c0.7-0.2,1.7-0.3,1.4,0.9c-0.1,0.5,0.1,0.9,0.4,1.2
	c1.8,1.4,3.9,2.8,6.1,4.2c0.6,0.3,1.3,0.3,1.8-0.1c1.3-1,2.3-0.2,2.1,1c-0.1,0.7,0.2,1.4,0.8,1.7c2,1,4,1.8,6.1,2.4
	c0.5,0.1,1,0.1,1.4-0.2c0.5-0.3,1.3-0.7,1.7,0.1c0.3,0.5,0.8,0.8,1.4,0.9c3.2,0.2,6.2-0.6,8.7-2.7c1.2-1,1.5-2.7,1.1-4.2
	c-0.5-2.2-2.2-4.5-4.6-6.5c-0.5-0.4-1.2-0.4-1.6-0.1c-0.2,0.1-0.4,0.2-0.7,0.2c-1.5,0.1-1.6-1-1.4-1.8c0.1-0.6-0.2-1.2-0.7-1.4
	c-2.2-1.2-4.7-2.3-7.4-3c-0.7-0.2-1.5,0-2.1,0.5c-1,1-1.4,0.8-1.6,0c-0.2-0.9-1-1.5-1.8-1.6c-2.5-0.3-5-0.3-7.5,0
	c-0.4,0-0.7,0.3-1,0.6c-0.8,1.3-1.3,1.2-1.5,0.8c-0.3-0.5-0.9-0.8-1.5-0.6C28.8,366.9,26.7,367.7,24.7,368.9z"/>
<path class="st2" d="M28.7,369.7c-0.3,0-0.5-0.2-0.5-0.5c0-0.3,0.2-0.5,0.5-0.5c2.2,0,4.5,0.2,6.7,0.5c3.6,0.5,7.2,1.4,10.7,2.5
	c2.6,0.8,5.1,1.8,7.6,2.9c1.8,0.8,3.7,1.8,5.4,2.8c2.8,1.6,5.6,3.4,8.1,5.5c0.9,0.8,1.4,1.2,1.4,1.2c0.5,0.4,0.5,1.1,0.2,1.6
	c-0.4,0.5-1.1,0.5-1.6,0.2c-0.5-0.4-1-0.8-1.4-1.2c-2.4-2.1-5.2-3.9-8-5.5c-1.6-0.9-3.3-1.8-5-2.6c-2.4-1.1-4.8-2.1-7.3-3
	c-3.3-1.1-6.8-2.1-10.2-2.7C33,370.3,30.8,369.9,28.7,369.7L28.7,369.7z"/>
<path class="st1" d="M1.2,365.7c0,0,2.8,1.4,6.9,3c0.4,0.1,0.8,0.1,1.1-0.1c0.6-0.4,1.5-0.8,1.7,0.4c0.1,0.5,0.4,0.9,0.8,1
	c2.2,0.8,4.6,1.5,7,2.1c0.6,0.2,1.3-0.1,1.7-0.6c1-1.4,2.1-0.9,2.3,0.3c0.1,0.7,0.6,1.3,1.3,1.4c2.2,0.3,4.4,0.5,6.5,0.4
	c0.5,0,0.9-0.2,1.2-0.6c0.4-0.5,1-1,1.6-0.4c0.4,0.4,1,0.5,1.6,0.4c3.1-0.8,5.7-2.5,7.4-5.3c0.8-1.3,0.6-3-0.3-4.4
	c-1.2-1.9-3.5-3.6-6.4-4.8c-0.6-0.2-1.2-0.1-1.6,0.5c-0.1,0.2-0.3,0.3-0.6,0.5c-1.4,0.5-1.8-0.4-1.9-1.3c-0.1-0.6-0.5-1-1.1-1.2
	c-2.5-0.5-5.2-0.7-7.9-0.6c-0.8,0-1.5,0.4-1.8,1.1c-0.7,1.2-1.1,1.2-1.6,0.5c-0.5-0.7-1.4-1.1-2.2-0.9c-2.4,0.5-4.8,1.2-7.1,2.3
	c-0.4,0.2-0.6,0.5-0.7,0.9c-0.4,1.5-0.8,1.5-1.2,1.2c-0.4-0.4-1.1-0.5-1.6-0.1C4.5,362.5,2.8,364,1.2,365.7z"/>
<path class="st2" d="M5.2,365.3c-0.3,0.1-0.5-0.1-0.6-0.3c-0.1-0.3,0.1-0.6,0.3-0.7c2.1-0.7,4.3-1.2,6.5-1.6
	c3.6-0.6,7.3-0.9,10.9-0.9c2.7,0,5.4,0.1,8.1,0.4c2,0.2,4,0.6,6,1c3.2,0.7,6.3,1.5,9.4,2.7c1.1,0.4,1.7,0.7,1.7,0.7
	c0.6,0.2,0.9,0.9,0.6,1.4c-0.2,0.6-0.9,0.9-1.4,0.6c-0.6-0.2-1.1-0.5-1.7-0.7c-3-1.2-6.2-2.1-9.3-2.8c-1.8-0.4-3.7-0.7-5.5-0.9
	c-2.6-0.4-5.2-0.5-7.9-0.6c-3.5,0-7.1,0.1-10.6,0.5C9.6,364.5,7.4,364.8,5.2,365.3L5.2,365.3z"/>
<path class="st1" d="M-1.3,395.6c0,0,3.1-0.5,7.4-1.7c0.4-0.1,0.7-0.4,0.8-0.7c0.2-0.7,0.8-1.5,1.6-0.6c0.3,0.3,0.8,0.5,1.2,0.3
	c2.2-0.7,4.6-1.5,6.9-2.5c0.6-0.3,1-0.8,1-1.5c0-1.7,1.2-2,2-1.1c0.5,0.5,1.3,0.7,1.9,0.3c2-1.1,3.8-2.2,5.4-3.5
	c0.4-0.3,0.6-0.8,0.6-1.2c0-0.6,0.2-1.4,1.1-1.3c0.6,0.1,1.1-0.2,1.5-0.6c2-2.5,3.1-5.4,2.8-8.6c-0.1-1.5-1.3-2.8-2.8-3.3
	c-2.1-0.8-4.9-0.8-8-0.1c-0.6,0.1-1,0.7-1,1.3c0,0.2-0.1,0.5-0.2,0.7c-0.8,1.3-1.7,0.7-2.3,0.1c-0.4-0.4-1-0.5-1.6-0.3
	c-2.3,1.1-4.6,2.5-6.7,4.2c-0.6,0.5-0.9,1.2-0.8,2c0.2,1.4-0.2,1.6-1,1.3c-0.8-0.3-1.8-0.1-2.4,0.6c-1.7,1.8-3.1,3.9-4.4,6.1
	c-0.2,0.3-0.2,0.8-0.1,1.1c0.6,1.5,0.2,1.7-0.2,1.7c-0.6-0.1-1.2,0.3-1.4,0.8C-0.5,391.1-1.1,393.3-1.3,395.6z"/>
<path class="st2" d="M1.7,392.9c-0.2,0.2-0.5,0.2-0.7,0.1c-0.2-0.2-0.3-0.5-0.1-0.7c1.3-1.8,2.8-3.5,4.3-5.1c2.5-2.7,5.3-5,8.2-7.2
	c2.1-1.6,4.4-3.1,6.7-4.5c1.8-1,3.6-2,5.4-2.8c2.9-1.4,6-2.6,9.1-3.4c1.2-0.3,1.8-0.5,1.8-0.5c0.6-0.2,1.2,0.2,1.4,0.8
	c0.2,0.6-0.2,1.2-0.8,1.4c-0.6,0.2-1.2,0.3-1.8,0.5c-3.1,0.8-6.2,2-9.1,3.3c-1.7,0.8-3.4,1.6-5,2.5c-2.3,1.3-4.5,2.7-6.7,4.2
	c-2.9,2.1-5.6,4.3-8.2,6.7C4.7,389.7,3.1,391.2,1.7,392.9L1.7,392.9z"/>
<path class="st1" d="M-23.4,361.2c0,0,2.2,2.2,5.7,5c0.3,0.2,0.7,0.3,1.1,0.2c0.7-0.2,1.7-0.3,1.4,0.9c-0.1,0.5,0.1,0.9,0.4,1.2
	c1.8,1.4,3.9,2.8,6.1,4.2c0.6,0.3,1.3,0.3,1.8-0.1c1.3-1,2.3-0.2,2.1,1c-0.1,0.7,0.2,1.4,0.8,1.7c2,1,4.1,1.8,6.1,2.3
	c0.5,0.1,1,0,1.4-0.2c0.5-0.4,1.3-0.7,1.7,0.1c0.3,0.5,0.8,0.8,1.4,0.8c3.2,0.2,6.2-0.6,8.7-2.8c1.2-1,1.5-2.7,1.1-4.2
	c-0.5-2.2-2.2-4.5-4.6-6.5c-0.5-0.4-1.2-0.4-1.6-0.1c-0.2,0.1-0.4,0.2-0.7,0.2c-1.5,0.1-1.6-1-1.4-1.8c0.1-0.6-0.2-1.2-0.7-1.4
	c-2.2-1.2-4.7-2.2-7.4-3c-0.7-0.2-1.5,0-2.1,0.5c-1,1-1.4,0.8-1.6,0c-0.2-0.9-1-1.5-1.9-1.6c-2.5-0.3-5-0.3-7.5,0
	c-0.4,0-0.7,0.3-1,0.6c-0.8,1.3-1.3,1.2-1.5,0.8c-0.3-0.5-0.9-0.8-1.5-0.6C-19.3,359.2-21.4,360-23.4,361.2z"/>
<path class="st2" d="M-19.5,362.1c-0.3,0-0.5-0.2-0.5-0.5c0-0.3,0.2-0.5,0.5-0.5c2.2,0,4.5,0.2,6.7,0.5c3.6,0.5,7.2,1.4,10.7,2.4
	c2.6,0.8,5.1,1.8,7.6,2.9c1.9,0.8,3.7,1.8,5.4,2.7c2.8,1.6,5.6,3.4,8.1,5.4c0.9,0.8,1.4,1.2,1.4,1.2c0.5,0.4,0.5,1.1,0.2,1.6
	c-0.4,0.5-1.1,0.5-1.6,0.2c-0.5-0.4-1-0.8-1.4-1.2c-2.4-2.1-5.2-3.8-8-5.4c-1.6-0.9-3.3-1.8-5-2.6c-2.4-1.1-4.8-2.1-7.3-2.9
	c-3.3-1.1-6.8-2.1-10.2-2.7C-15.1,362.6-17.3,362.2-19.5,362.1L-19.5,362.1z"/>
<path class="st1" d="M-36.4,378.7c0,0,2.8,1.3,7,2.8c0.4,0.1,0.8,0.1,1.1-0.2c0.6-0.4,1.5-0.8,1.7,0.4c0.1,0.5,0.4,0.8,0.8,1
	c2.2,0.7,4.6,1.3,7.1,1.8c0.6,0.1,1.3-0.1,1.7-0.7c0.9-1.4,2.1-1,2.3,0.2c0.1,0.7,0.7,1.3,1.4,1.3c2.2,0.2,4.4,0.3,6.5,0.1
	c0.5,0,0.9-0.3,1.2-0.7c0.4-0.5,1-1.1,1.6-0.5c0.4,0.4,1,0.5,1.6,0.3c3.1-0.9,5.6-2.7,7.2-5.6c0.7-1.3,0.4-3-0.4-4.3
	c-1.3-1.9-3.6-3.4-6.6-4.5c-0.6-0.2-1.2,0-1.6,0.5c-0.1,0.2-0.3,0.4-0.6,0.5c-1.4,0.6-1.8-0.4-1.9-1.2c-0.1-0.6-0.5-1-1.1-1.1
	c-2.5-0.4-5.2-0.5-7.9-0.3c-0.8,0.1-1.5,0.5-1.8,1.2c-0.6,1.2-1.1,1.2-1.5,0.5c-0.5-0.7-1.4-1.1-2.3-0.8c-2.4,0.6-4.8,1.4-7,2.6
	c-0.4,0.2-0.6,0.5-0.7,0.9c-0.3,1.5-0.8,1.6-1.1,1.2c-0.4-0.4-1.1-0.4-1.6-0.1C-33.2,375.3-34.9,376.9-36.4,378.7z"/>
<path class="st2" d="M-32.4,378.1c-0.3,0.1-0.5-0.1-0.6-0.3c-0.1-0.3,0-0.6,0.3-0.7c2.1-0.8,4.3-1.4,6.4-1.8
	c3.6-0.8,7.2-1.2,10.9-1.4c2.7-0.1,5.4-0.1,8.1,0.1c2,0.2,4.1,0.4,6.1,0.7c3.2,0.5,6.4,1.3,9.5,2.3c1.1,0.4,1.8,0.6,1.8,0.6
	c0.6,0.2,0.9,0.8,0.7,1.4c-0.2,0.6-0.8,0.9-1.4,0.7c-0.6-0.2-1.2-0.4-1.7-0.6c-3-1.1-6.2-1.8-9.4-2.4c-1.8-0.3-3.7-0.5-5.6-0.7
	c-2.6-0.2-5.2-0.3-7.9-0.3c-3.5,0.1-7.1,0.4-10.6,1C-28.1,377.1-30.3,377.5-32.4,378.1L-32.4,378.1z"/>
<path class="st1" d="M-59.6,362.7c0,0,2.6,1.7,6.5,3.9c0.3,0.2,0.7,0.2,1.1,0c0.6-0.3,1.6-0.6,1.6,0.6c0,0.5,0.2,0.9,0.7,1.1
	c2.1,1,4.3,2.1,6.7,3c0.6,0.2,1.3,0.1,1.7-0.4c1.1-1.2,2.2-0.6,2.2,0.6c0,0.7,0.5,1.4,1.1,1.5c2.2,0.6,4.3,1,6.4,1.2
	c0.5,0,1-0.1,1.3-0.5c0.4-0.4,1.1-0.9,1.7-0.2c0.4,0.4,0.9,0.7,1.5,0.6c3.2-0.4,6-1.7,8-4.3c1-1.2,0.9-2.9,0.3-4.4
	c-0.9-2.1-3-4-5.7-5.6c-0.5-0.3-1.2-0.2-1.6,0.2c-0.2,0.2-0.4,0.3-0.7,0.4c-1.5,0.4-1.7-0.7-1.7-1.5c0-0.6-0.4-1.1-0.9-1.3
	c-2.4-0.8-5-1.4-7.8-1.6c-0.8-0.1-1.5,0.3-2,0.9c-0.8,1.1-1.2,1-1.6,0.3c-0.4-0.8-1.2-1.3-2.1-1.2c-2.5,0.2-4.9,0.6-7.3,1.4
	c-0.4,0.1-0.7,0.4-0.8,0.8c-0.6,1.5-1,1.4-1.3,1c-0.4-0.5-1-0.6-1.6-0.3C-55.9,360-57.9,361.2-59.6,362.7z"/>
<path class="st2" d="M-55.6,362.8c-0.3,0-0.5-0.2-0.6-0.4c-0.1-0.3,0.1-0.6,0.4-0.6c2.2-0.4,4.4-0.6,6.6-0.7c3.7-0.2,7.3,0,10.9,0.5
	c2.7,0.3,5.3,0.8,8,1.4c2,0.5,3.9,1.1,5.8,1.7c3.1,1.1,6.1,2.3,8.9,3.9c1,0.6,1.6,0.9,1.6,0.9c0.5,0.3,0.7,1,0.4,1.5
	c-0.3,0.5-1,0.7-1.5,0.4c-0.5-0.3-1.1-0.6-1.6-0.9c-2.8-1.6-5.9-2.8-8.9-3.9c-1.8-0.6-3.6-1.2-5.4-1.6c-2.5-0.7-5.1-1.2-7.7-1.6
	c-3.5-0.5-7-0.8-10.6-0.8C-51.1,362.6-53.4,362.6-55.6,362.8L-55.6,362.8z"/>
<path class="st1" d="M-44.2,399.6c0,0,3.1-0.2,7.5-0.9c0.4-0.1,0.7-0.3,0.9-0.7c0.3-0.6,0.9-1.4,1.6-0.5c0.3,0.4,0.7,0.6,1.2,0.5
	c2.3-0.5,4.7-1,7.1-1.8c0.6-0.2,1.1-0.7,1.1-1.4c0.1-1.7,1.4-1.8,2.1-0.9c0.4,0.6,1.2,0.8,1.9,0.5c2.1-0.9,4-1.8,5.8-3
	c0.4-0.3,0.7-0.7,0.7-1.2c0.1-0.6,0.3-1.4,1.2-1.2c0.6,0.1,1.1,0,1.5-0.5c2.2-2.3,3.7-5,3.7-8.3c0-1.5-1.1-2.9-2.5-3.6
	c-2-1.1-4.8-1.3-7.9-0.9c-0.6,0.1-1.1,0.6-1.1,1.2c0,0.2-0.1,0.5-0.3,0.7c-0.9,1.2-1.8,0.5-2.3-0.1c-0.3-0.5-1-0.6-1.5-0.4
	c-2.4,0.8-4.8,2-7.1,3.5c-0.6,0.4-1,1.1-1,1.9c0,1.4-0.3,1.6-1.1,1.2c-0.8-0.4-1.7-0.3-2.4,0.3c-1.8,1.7-3.5,3.5-4.9,5.6
	c-0.2,0.3-0.3,0.7-0.2,1.1c0.4,1.5,0.1,1.7-0.4,1.6c-0.6-0.1-1.2,0.2-1.5,0.7C-43,395.1-43.8,397.3-44.2,399.6z"/>
<path class="st2" d="M-41,397.2c-0.2,0.2-0.5,0.2-0.7,0c-0.2-0.2-0.2-0.5-0.1-0.7c1.5-1.7,3.1-3.2,4.8-4.7c2.8-2.4,5.8-4.5,8.9-6.4
	c2.3-1.4,4.7-2.7,7.2-3.8c1.9-0.8,3.8-1.6,5.7-2.3c3.1-1.1,6.2-1.9,9.4-2.5c1.2-0.2,1.9-0.3,1.9-0.3c0.6-0.1,1.2,0.3,1.3,0.9
	c0.1,0.6-0.3,1.2-0.9,1.3c-0.6,0.1-1.2,0.2-1.8,0.3c-3.2,0.5-6.4,1.4-9.4,2.4c-1.8,0.6-3.5,1.3-5.2,2c-2.4,1-4.8,2.2-7,3.5
	c-3.1,1.8-6,3.7-8.8,5.9C-37.7,394.3-39.4,395.6-41,397.2L-41,397.2z"/>
<path class="st1" d="M-71.1,386.8c0,0,3,0.7,7.5,1.2c0.4,0,0.8-0.1,1-0.4c0.5-0.5,1.3-1.1,1.7,0c0.2,0.4,0.6,0.7,1,0.8
	c2.3,0.2,4.8,0.3,7.4,0.3c0.7,0,1.2-0.4,1.5-1c0.6-1.6,1.8-1.4,2.3-0.3c0.3,0.7,0.9,1.1,1.6,1c2.2-0.2,4.4-0.7,6.4-1.3
	c0.5-0.1,0.8-0.5,1-0.9c0.2-0.6,0.7-1.2,1.5-0.8c0.5,0.3,1.1,0.3,1.6,0c2.8-1.6,4.9-3.8,5.8-7c0.4-1.5-0.2-3.1-1.4-4.1
	c-1.6-1.6-4.3-2.6-7.4-3c-0.6-0.1-1.2,0.3-1.4,0.8c-0.1,0.2-0.2,0.4-0.5,0.6c-1.2,0.9-1.8,0-2.1-0.8c-0.2-0.5-0.7-0.9-1.3-0.9
	c-2.5,0.2-5.2,0.6-7.8,1.4c-0.7,0.2-1.3,0.8-1.5,1.6c-0.3,1.4-0.8,1.4-1.4,0.8c-0.6-0.6-1.6-0.7-2.4-0.3c-2.2,1.1-4.4,2.4-6.3,4
	c-0.3,0.3-0.5,0.6-0.5,1c0,1.6-0.4,1.7-0.8,1.5c-0.5-0.3-1.2-0.2-1.6,0.3C-68.7,382.8-70,384.7-71.1,386.8z"/>
<path class="st2" d="M-67.3,385.4c-0.2,0.1-0.5,0.1-0.7-0.2c-0.2-0.2-0.1-0.6,0.2-0.7c1.9-1.2,3.9-2.2,5.9-3.2
	c3.3-1.5,6.8-2.7,10.3-3.7c2.6-0.7,5.3-1.3,7.9-1.6c2-0.3,4.1-0.5,6.1-0.6c3.2-0.2,6.5-0.1,9.7,0.3c1.2,0.1,1.9,0.2,1.9,0.2
	c0.6,0.1,1,0.6,1,1.2c-0.1,0.6-0.6,1-1.2,1c-0.6-0.1-1.2-0.1-1.8-0.2c-3.2-0.4-6.5-0.4-9.7-0.3c-1.9,0.1-3.7,0.3-5.6,0.5
	c-2.6,0.3-5.2,0.8-7.7,1.4c-3.4,0.9-6.8,1.9-10.1,3.2C-63.3,383.5-65.4,384.3-67.3,385.4L-67.3,385.4z"/>
<path class="st1" d="M-82.1,367.9c0,0,2.3,2.1,5.9,4.7c0.3,0.2,0.7,0.3,1.1,0.2c0.7-0.2,1.7-0.4,1.5,0.8c-0.1,0.5,0.1,0.9,0.5,1.2
	c1.9,1.3,4,2.6,6.3,3.9c0.6,0.3,1.3,0.2,1.8-0.2c1.3-1.1,2.3-0.3,2.1,0.9c-0.1,0.7,0.3,1.4,0.9,1.7c2.1,0.9,4.1,1.6,6.2,2.1
	c0.5,0.1,1,0,1.3-0.3c0.5-0.4,1.2-0.7,1.7,0c0.3,0.5,0.8,0.8,1.4,0.8c3.2,0,6.1-0.9,8.5-3.2c1.1-1.1,1.3-2.8,0.9-4.3
	c-0.7-2.2-2.4-4.4-4.9-6.3c-0.5-0.4-1.2-0.4-1.7,0c-0.2,0.1-0.4,0.2-0.7,0.3c-1.5,0.2-1.6-0.9-1.5-1.7c0.1-0.6-0.2-1.1-0.7-1.4
	c-2.3-1.1-4.8-2-7.5-2.6c-0.7-0.2-1.5,0.1-2.1,0.6c-1,1-1.4,0.9-1.6,0c-0.3-0.8-1-1.4-1.9-1.5c-2.5-0.2-5-0.1-7.5,0.4
	c-0.4,0.1-0.7,0.3-0.9,0.7c-0.8,1.4-1.2,1.3-1.5,0.9c-0.3-0.5-0.9-0.7-1.5-0.6C-78.1,365.7-80.2,366.7-82.1,367.9z"/>
<path class="st2" d="M-78.1,368.6c-0.3,0-0.5-0.2-0.5-0.5c0-0.3,0.2-0.5,0.5-0.6c2.2-0.1,4.5,0,6.7,0.2c3.6,0.3,7.2,1,10.8,1.9
	c2.6,0.7,5.2,1.5,7.7,2.5c1.9,0.7,3.8,1.6,5.6,2.5c2.9,1.5,5.7,3.1,8.3,5c1,0.7,1.5,1.1,1.5,1.1c0.5,0.4,0.6,1.1,0.2,1.6
	c-0.4,0.5-1.1,0.6-1.6,0.2c-0.5-0.4-1-0.7-1.5-1.1c-2.5-2-5.4-3.6-8.3-5.1c-1.7-0.9-3.4-1.6-5.1-2.4c-2.4-1-4.9-1.9-7.4-2.6
	c-3.4-1-6.9-1.7-10.4-2.2C-73.7,368.9-75.9,368.6-78.1,368.6L-78.1,368.6z"/>
<path class="st1" d="M110.6,353.5c-0.6,0.1-1,0.6-1.1,1.2c0,0.5-0.3,0.8-1.7,0c-0.3-0.2-0.8-0.3-1.1-0.1c-2.4,0.8-4.6,2-6.7,3.3
	c-0.7,0.5-1.1,1.4-0.9,2.2c0.2,0.8-0.1,1.2-1.4,0.8c-0.7-0.2-1.5,0-2.1,0.5c-2,1.9-3.8,3.9-5.2,6c-0.3,0.5-0.3,1.1,0,1.6
	c0.5,0.6,0.9,1.6-0.5,2.2c-0.3,0.1-0.5,0.1-0.8,0.1c-0.6-0.1-1.2,0.2-1.5,0.8c-1.2,2.9-1.7,5.7-1.2,7.9c0.3,1.5,1.4,2.9,2.9,3.3
	c3.2,0.8,6.2,0.2,9-1.4c0.5-0.3,0.8-0.8,0.8-1.4c0-0.9,0.8-0.9,1.4-0.9c0.5,0.1,1-0.1,1.3-0.4c1.6-1.4,3-3,4.4-4.8
	c0.4-0.6,0.4-1.4,0-1.9c-0.7-0.9-0.2-2.1,1.4-1.8c0.6,0.1,1.3-0.2,1.6-0.7c1.3-2.2,2.5-4.4,3.6-6.4c0.2-0.4,0.1-0.9-0.1-1.3
	c-0.7-1,0.2-1.3,0.9-1.5c0.4-0.1,0.7-0.3,0.9-0.7c1.8-4.1,2.8-7,2.8-7C115,352.9,112.8,353,110.6,353.5z"/>
<path class="st1" d="M124.3,366.3c-0.6-0.2-1.2,0.1-1.5,0.6c-0.2,0.4-0.7,0.6-1.5-0.8c-0.2-0.3-0.6-0.6-1-0.6c-2.5-0.3-5-0.3-7.5,0
	c-0.9,0.1-1.6,0.7-1.8,1.6c-0.2,0.8-0.6,1-1.6,0c-0.6-0.5-1.4-0.7-2.1-0.5c-2.7,0.8-5.1,1.8-7.4,3c-0.5,0.3-0.8,0.9-0.7,1.4
	c0.2,0.8,0.1,1.9-1.4,1.8c-0.3,0-0.5-0.1-0.7-0.2c-0.5-0.4-1.2-0.3-1.6,0.1c-2.4,2-4,4.3-4.6,6.5c-0.4,1.5-0.1,3.2,1.1,4.2
	c2.5,2.2,5.5,2.9,8.7,2.7c0.6,0,1.1-0.3,1.4-0.9c0.4-0.8,1.2-0.5,1.7-0.1c0.4,0.3,0.9,0.4,1.4,0.2c2-0.6,4.1-1.4,6.1-2.4
	c0.6-0.3,1-1,0.8-1.7c-0.2-1.2,0.7-2,2.1-1c0.5,0.4,1.2,0.4,1.8,0.1c2.2-1.3,4.2-2.8,6.1-4.2c0.4-0.3,0.5-0.7,0.4-1.2
	c-0.2-1.2,0.8-1.1,1.4-0.9c0.4,0.1,0.8,0,1.1-0.2c3.4-2.8,5.6-5,5.6-5C128.5,367.7,126.4,366.9,124.3,366.3z"/>
<path class="st2" d="M126.6,369.7c-2.2,0.2-4.4,0.6-6.5,1c-3.5,0.7-6.9,1.6-10.2,2.7c-2.5,0.8-4.9,1.8-7.3,3c-1.7,0.8-3.4,1.7-5,2.6
	c-2.8,1.6-5.6,3.4-8,5.5c-0.5,0.4-1,0.8-1.4,1.2c-0.5,0.4-1.2,0.3-1.6-0.2c-0.4-0.5-0.3-1.2,0.2-1.6c0,0,0.5-0.4,1.4-1.2
	c2.5-2.1,5.3-3.9,8.1-5.5c1.8-1,3.6-1.9,5.4-2.8c2.5-1.1,5-2.1,7.6-2.9c3.5-1.1,7-2,10.7-2.5c2.2-0.3,4.4-0.5,6.7-0.5
	c0.3,0,0.5,0.2,0.5,0.5C127.1,369.5,126.9,369.7,126.6,369.7L126.6,369.7z"/>
<path class="st1" d="M155,389c-0.2-0.6-0.8-0.9-1.4-0.8c-0.5,0.1-0.8-0.2-0.2-1.7c0.2-0.4,0.1-0.8-0.1-1.1c-1.2-2.2-2.7-4.2-4.4-6.1
	c-0.6-0.7-1.5-0.9-2.4-0.6c-0.8,0.3-1.2,0.1-1-1.3c0.1-0.8-0.2-1.5-0.8-2c-2.2-1.7-4.5-3.1-6.7-4.2c-0.5-0.3-1.2-0.1-1.6,0.3
	c-0.6,0.6-1.4,1.2-2.3-0.1c-0.2-0.3-0.2-0.5-0.2-0.7c0-0.6-0.4-1.2-1-1.3c-3.1-0.8-5.9-0.8-8,0.1c-1.5,0.6-2.7,1.8-2.8,3.3
	c-0.3,3.3,0.8,6.2,2.8,8.6c0.4,0.4,0.9,0.7,1.5,0.6c0.9-0.1,1.1,0.7,1.1,1.3c0,0.5,0.2,0.9,0.6,1.2c1.6,1.3,3.5,2.5,5.4,3.5
	c0.6,0.3,1.4,0.2,1.9-0.3c0.8-0.8,2-0.5,2,1.1c0,0.7,0.4,1.3,1,1.5c2.3,1,4.7,1.8,6.9,2.5c0.4,0.1,0.9,0,1.2-0.3
	c0.8-0.9,1.3,0,1.6,0.6c0.1,0.4,0.4,0.6,0.8,0.7c4.3,1.2,7.4,1.7,7.4,1.7C156.3,393.3,155.8,391.1,155,389z"/>
<path class="st2" d="M153.5,392.9c-1.4-1.7-3-3.2-4.6-4.7c-2.6-2.4-5.3-4.7-8.2-6.7c-2.1-1.5-4.4-2.9-6.7-4.2
	c-1.6-0.9-3.3-1.8-5-2.5c-2.9-1.3-6-2.5-9.1-3.3c-0.6-0.2-1.2-0.3-1.8-0.5c-0.6-0.2-0.9-0.8-0.8-1.4c0.2-0.6,0.8-0.9,1.4-0.8
	c0,0,0.7,0.2,1.8,0.5c3.1,0.8,6.2,2,9.1,3.4c1.8,0.8,3.6,1.8,5.4,2.8c2.3,1.4,4.6,2.8,6.7,4.5c2.9,2.2,5.7,4.6,8.2,7.2
	c1.5,1.6,3,3.3,4.3,5.1c0.2,0.2,0.1,0.6-0.1,0.7C154,393.2,153.7,393.1,153.5,392.9L153.5,392.9z"/>
<path class="st1" d="M172.4,358.6c-0.6-0.2-1.2,0.1-1.5,0.6c-0.2,0.4-0.7,0.6-1.5-0.8c-0.2-0.3-0.6-0.6-1-0.6c-2.5-0.3-5-0.3-7.5,0
	c-0.9,0.1-1.6,0.7-1.9,1.6c-0.2,0.8-0.6,1-1.6,0c-0.6-0.5-1.4-0.7-2.1-0.5c-2.7,0.7-5.2,1.8-7.4,3c-0.5,0.3-0.8,0.9-0.7,1.4
	c0.2,0.8,0.1,1.9-1.4,1.8c-0.3,0-0.5-0.1-0.7-0.2c-0.5-0.4-1.2-0.3-1.6,0.1c-2.4,2-4.1,4.3-4.6,6.5c-0.4,1.5-0.1,3.2,1.1,4.2
	c2.5,2.2,5.5,2.9,8.7,2.8c0.6,0,1.1-0.3,1.4-0.8c0.4-0.8,1.2-0.5,1.7-0.1c0.4,0.3,0.9,0.4,1.4,0.2c2-0.6,4.1-1.4,6.1-2.3
	c0.6-0.3,1-1,0.8-1.7c-0.2-1.2,0.8-2,2.1-1c0.5,0.4,1.2,0.4,1.8,0.1c2.2-1.3,4.2-2.8,6.1-4.2c0.4-0.3,0.5-0.7,0.4-1.2
	c-0.2-1.2,0.8-1.1,1.4-0.9c0.4,0.1,0.8,0,1.1-0.2c3.4-2.8,5.7-5,5.7-5C176.7,360,174.6,359.2,172.4,358.6z"/>
<path class="st2" d="M174.7,362.1c-2.2,0.2-4.4,0.6-6.5,1c-3.5,0.7-6.9,1.6-10.2,2.7c-2.5,0.8-4.9,1.8-7.3,2.9
	c-1.7,0.8-3.4,1.6-5,2.6c-2.8,1.6-5.6,3.4-8,5.4c-0.5,0.4-1,0.8-1.4,1.2c-0.5,0.4-1.2,0.3-1.6-0.2c-0.4-0.5-0.3-1.2,0.2-1.6
	c0,0,0.5-0.4,1.4-1.2c2.5-2.1,5.3-3.8,8.1-5.4c1.8-1,3.6-1.9,5.4-2.7c2.5-1.1,5-2.1,7.6-2.9c3.5-1.1,7-1.9,10.7-2.4
	c2.2-0.3,4.4-0.5,6.7-0.5c0.3,0,0.5,0.2,0.5,0.5C175.2,361.8,175,362,174.7,362.1L174.7,362.1z"/>
<path class="st1" d="M186.6,374c-0.5-0.3-1.2-0.3-1.6,0.1c-0.4,0.3-0.8,0.3-1.1-1.2c-0.1-0.4-0.3-0.7-0.7-0.9c-2.2-1.1-4.6-2-7-2.6
	c-0.9-0.2-1.8,0.1-2.3,0.8c-0.5,0.7-0.9,0.7-1.5-0.5c-0.3-0.7-1-1.1-1.8-1.2c-2.8-0.2-5.5-0.1-7.9,0.3c-0.6,0.1-1,0.5-1.1,1.1
	c-0.1,0.8-0.5,1.8-1.9,1.2c-0.3-0.1-0.5-0.3-0.6-0.5c-0.3-0.5-1-0.7-1.6-0.5c-3,1.1-5.3,2.6-6.6,4.5c-0.9,1.3-1.2,3-0.4,4.3
	c1.6,2.9,4.1,4.6,7.2,5.6c0.5,0.2,1.1,0.1,1.6-0.3c0.7-0.6,1.3,0,1.6,0.5c0.3,0.4,0.7,0.6,1.2,0.7c2.1,0.2,4.3,0.1,6.5-0.1
	c0.7-0.1,1.3-0.6,1.4-1.3c0.2-1.2,1.4-1.6,2.3-0.2c0.4,0.5,1,0.8,1.7,0.7c2.5-0.5,4.9-1.2,7.1-1.8c0.4-0.1,0.8-0.5,0.8-1
	c0.2-1.2,1.1-0.8,1.7-0.4c0.3,0.2,0.7,0.3,1.1,0.2c4.2-1.5,7-2.8,7-2.8C190.1,376.9,188.5,375.3,186.6,374z"/>
<path class="st2" d="M187.6,378.1c-2.1-0.6-4.3-1-6.5-1.3c-3.5-0.6-7-0.9-10.6-1c-2.6-0.1-5.3,0-7.9,0.3c-1.9,0.2-3.7,0.4-5.6,0.7
	c-3.1,0.6-6.4,1.3-9.4,2.4c-0.6,0.2-1.2,0.4-1.7,0.6c-0.6,0.2-1.2-0.1-1.4-0.7c-0.2-0.6,0.1-1.2,0.7-1.4c0,0,0.6-0.2,1.8-0.6
	c3.1-1.1,6.3-1.8,9.5-2.3c2-0.3,4-0.6,6.1-0.7c2.7-0.2,5.4-0.2,8.1-0.1c3.7,0.2,7.3,0.6,10.9,1.4c2.2,0.5,4.4,1,6.4,1.8
	c0.3,0.1,0.4,0.4,0.3,0.7C188.2,378,187.9,378.2,187.6,378.1L187.6,378.1z"/>
<path class="st1" d="M209.2,359c-0.5-0.3-1.2-0.1-1.6,0.3c-0.3,0.4-0.7,0.4-1.3-1c-0.1-0.4-0.4-0.7-0.8-0.8
	c-2.4-0.8-4.9-1.2-7.3-1.4c-0.9-0.1-1.7,0.4-2.1,1.2c-0.4,0.8-0.8,0.9-1.6-0.3c-0.5-0.6-1.2-1-2-0.9c-2.8,0.3-5.4,0.8-7.8,1.6
	c-0.6,0.2-0.9,0.7-0.9,1.3c0,0.8-0.2,1.9-1.7,1.5c-0.3-0.1-0.5-0.2-0.7-0.4c-0.4-0.5-1.1-0.6-1.6-0.2c-2.7,1.6-4.8,3.5-5.7,5.6
	c-0.6,1.4-0.7,3.2,0.3,4.4c2.1,2.6,4.9,3.9,8,4.3c0.6,0.1,1.1-0.1,1.5-0.6c0.6-0.7,1.2-0.3,1.7,0.2c0.3,0.3,0.8,0.5,1.3,0.5
	c2.1-0.2,4.2-0.6,6.4-1.2c0.7-0.2,1.1-0.8,1.1-1.5c0-1.2,1.1-1.8,2.2-0.6c0.4,0.5,1.1,0.6,1.7,0.4c2.4-0.9,4.7-2,6.7-3
	c0.4-0.2,0.7-0.6,0.7-1.1c0-1.2,1-0.9,1.6-0.6c0.3,0.2,0.8,0.2,1.1,0c3.9-2.1,6.5-3.9,6.5-3.9C213.1,361.2,211.2,360,209.2,359z"/>
<path class="st1" d="M197.3,393.1c-0.3-0.5-0.9-0.8-1.5-0.7c-0.5,0.1-0.9-0.1-0.4-1.6c0.1-0.4,0.1-0.8-0.2-1.1
	c-1.4-2.1-3.1-3.9-4.9-5.6c-0.7-0.6-1.6-0.7-2.4-0.3c-0.8,0.4-1.2,0.2-1.1-1.2c0-0.8-0.4-1.5-1-1.9c-2.3-1.5-4.8-2.7-7.1-3.5
	c-0.6-0.2-1.2,0-1.5,0.4c-0.5,0.7-1.3,1.3-2.3,0.1c-0.2-0.2-0.3-0.5-0.3-0.7c0-0.6-0.5-1.1-1.1-1.2c-3.1-0.5-5.9-0.2-7.9,0.9
	c-1.4,0.7-2.5,2.1-2.5,3.6c0,3.3,1.4,6,3.7,8.3c0.4,0.4,1,0.6,1.5,0.5c0.9-0.2,1.1,0.6,1.2,1.2c0.1,0.5,0.3,0.9,0.7,1.2
	c1.7,1.1,3.7,2.1,5.8,3c0.7,0.3,1.4,0.1,1.9-0.5c0.7-0.9,2-0.7,2.1,0.9c0.1,0.7,0.5,1.2,1.1,1.4c2.4,0.7,4.9,1.3,7.1,1.8
	c0.5,0.1,0.9-0.1,1.2-0.5c0.7-1,1.3-0.1,1.6,0.5c0.2,0.3,0.5,0.6,0.9,0.7c4.4,0.7,7.5,0.9,7.5,0.9
	C199,397.3,198.3,395.1,197.3,393.1z"/>
<path class="st2" d="M196.2,397.2c-1.6-1.5-3.3-2.9-5.1-4.3c-2.8-2.2-5.8-4.1-8.8-5.9c-2.3-1.3-4.6-2.5-7-3.5
	c-1.7-0.7-3.5-1.4-5.2-2c-3-1-6.2-1.9-9.4-2.4c-0.6-0.1-1.2-0.2-1.8-0.3c-0.6-0.1-1-0.7-0.9-1.3c0.1-0.6,0.7-1,1.3-0.9
	c0,0,0.7,0.1,1.9,0.3c3.2,0.5,6.4,1.4,9.4,2.5c1.9,0.7,3.8,1.4,5.7,2.3c2.5,1.1,4.9,2.4,7.2,3.8c3.1,1.9,6.1,4,8.9,6.4
	c1.7,1.5,3.3,3,4.8,4.7c0.2,0.2,0.2,0.6-0.1,0.7C196.7,397.4,196.4,397.4,196.2,397.2L196.2,397.2z"/>
<path class="st1" d="M222.5,381.2c-0.4-0.4-1.1-0.6-1.6-0.3c-0.4,0.2-0.9,0.1-0.8-1.5c0-0.4-0.2-0.8-0.5-1c-1.9-1.6-4.1-2.9-6.3-4
	c-0.8-0.4-1.8-0.3-2.4,0.3c-0.6,0.6-1.1,0.5-1.4-0.8c-0.2-0.7-0.8-1.3-1.5-1.6c-2.6-0.8-5.3-1.3-7.8-1.4c-0.6,0-1.1,0.3-1.3,0.9
	c-0.3,0.8-0.9,1.6-2.1,0.8c-0.2-0.2-0.4-0.4-0.5-0.6c-0.2-0.6-0.8-0.9-1.4-0.8c-3.1,0.4-5.7,1.4-7.4,3c-1.1,1.1-1.8,2.7-1.4,4.1
	c0.9,3.2,3.1,5.4,5.8,7c0.5,0.3,1.1,0.3,1.6,0c0.8-0.4,1.2,0.2,1.5,0.8c0.2,0.4,0.6,0.8,1,0.9c2,0.6,4.2,1,6.4,1.3
	c0.7,0.1,1.4-0.3,1.6-1c0.4-1.1,1.7-1.3,2.3,0.3c0.2,0.6,0.8,1,1.5,1c2.5,0,5-0.1,7.4-0.3c0.5,0,0.9-0.3,1-0.8
	c0.4-1.1,1.2-0.5,1.7,0c0.3,0.3,0.6,0.4,1,0.4c4.4-0.5,7.5-1.2,7.5-1.2C225.3,384.7,224,382.8,222.5,381.2z"/>
<path class="st2" d="M222.5,385.3c-1.9-1-4-1.9-6-2.7c-3.3-1.3-6.7-2.3-10.1-3.2c-2.5-0.6-5.1-1.1-7.7-1.4c-1.9-0.2-3.7-0.4-5.6-0.5
	c-3.2-0.1-6.5-0.1-9.7,0.3c-0.6,0.1-1.2,0.1-1.8,0.2c-0.6,0.1-1.2-0.4-1.2-1c-0.1-0.6,0.4-1.2,1-1.2c0,0,0.7-0.1,1.9-0.2
	c3.2-0.4,6.5-0.4,9.7-0.3c2,0.1,4.1,0.3,6.1,0.6c2.7,0.4,5.3,0.9,7.9,1.6c3.5,1,7,2.1,10.3,3.7c2,0.9,4,1.9,5.9,3.2
	c0.2,0.2,0.3,0.5,0.2,0.7C223.1,385.4,222.8,385.5,222.5,385.3L222.5,385.3z"/>
<path class="st1" d="M231.2,365c-0.6-0.2-1.2,0-1.5,0.6c-0.2,0.4-0.7,0.5-1.5-0.9c-0.2-0.3-0.5-0.6-0.9-0.7c-2.5-0.4-5-0.5-7.5-0.4
	c-0.9,0.1-1.7,0.6-1.9,1.5c-0.3,0.8-0.7,1-1.6,0c-0.5-0.6-1.3-0.8-2.1-0.6c-2.7,0.6-5.2,1.5-7.5,2.6c-0.5,0.3-0.8,0.8-0.7,1.4
	c0.1,0.8,0,1.9-1.5,1.7c-0.3,0-0.5-0.1-0.7-0.3c-0.5-0.4-1.2-0.4-1.7,0c-2.5,1.9-4.3,4.1-4.9,6.3c-0.4,1.5-0.2,3.2,0.9,4.3
	c2.4,2.3,5.3,3.2,8.5,3.2c0.6,0,1.1-0.3,1.4-0.8c0.5-0.8,1.2-0.4,1.7,0c0.4,0.3,0.9,0.4,1.3,0.3c2-0.5,4.1-1.2,6.2-2.1
	c0.7-0.3,1-1,0.9-1.7c-0.2-1.2,0.8-1.9,2.1-0.9c0.5,0.4,1.2,0.5,1.8,0.2c2.2-1.2,4.3-2.6,6.3-3.9c0.4-0.3,0.6-0.7,0.5-1.2
	c-0.2-1.2,0.8-1.1,1.5-0.8c0.4,0.1,0.8,0.1,1.1-0.2c3.6-2.6,5.9-4.7,5.9-4.7C235.4,366.7,233.3,365.7,231.2,365z"/>
<path class="st2" d="M233.3,368.6c-2.2,0.1-4.4,0.4-6.6,0.7c-3.5,0.5-7,1.3-10.4,2.2c-2.5,0.7-5,1.6-7.4,2.6
	c-1.7,0.7-3.4,1.5-5.1,2.4c-2.8,1.5-5.7,3.1-8.3,5.1c-0.5,0.4-1,0.7-1.5,1.1c-0.5,0.4-1.2,0.3-1.6-0.2c-0.4-0.5-0.3-1.2,0.2-1.6
	c0,0,0.5-0.4,1.5-1.1c2.6-1.9,5.4-3.6,8.3-5c1.8-0.9,3.7-1.7,5.6-2.5c2.5-1,5.1-1.8,7.7-2.5c3.5-0.9,7.1-1.6,10.8-1.9
	c2.2-0.2,4.5-0.3,6.7-0.2c0.3,0,0.5,0.3,0.5,0.6C233.8,368.4,233.6,368.6,233.3,368.6L233.3,368.6z"/>
</svg>
