<?xml version="1.0" encoding="utf-8"?>
<!-- Generator: Adobe Illustrator 19.0.0, SVG Export Plug-In . SVG Version: 6.00 Build 0)  -->
<svg version="1.1" id="Capa_1" xmlns="http://www.w3.org/2000/svg" xmlns:xlink="http://www.w3.org/1999/xlink" x="0px" y="0px"
	 viewBox="-115 116.2 380.8 380.8" style="enable-background:new -115 116.2 380.8 380.8;" xml:space="preserve">
<style type="text/css">
	.st0{fill:#6D6E71;}
	.st1{fill:#808285;}
	.st2{fill:#A7A9AC;}
</style>
<path class="st0" d="M-94.2,305.6H245c12,0,20.8,9.6,20.8,20.8c0,12-9.6,20.8-20.8,20.8H-94.2c-12,0-20.8-9.6-20.8-20.8
	S-106.2,305.6-94.2,305.6z"/>
<path class="st1" d="M-99,305.6h15.4v-18.3H-99V305.6z"/>
<path class="st2" d="M-83.6,305.6h15.4v-18.3h-15.4V305.6z"/>
<path class="st1" d="M-68.3,305.6h15.4v-18.3h-15.4V305.6z"/>
<path class="st2" d="M-52.9,305.6h15.4v-18.3h-15.4V305.6z"/>
<path class="st2" d="M-99,287.3h7.7V269H-99V287.3z"/>
<g>
	<path class="st2" d="M-45.2,287.3h7.7V269h-7.7V287.3z"/>
	<path class="st1" d="M-91.3,287.3h15.4V269h-15.4V287.3z"/>
</g>
<path class="st2" d="M-75.9,287.3h15.4V269h-15.4V287.3z"/>
<path class="st1" d="M-60.6,287.3h15.4V269h-15.4V287.3z"/>
<path class="st1" d="M-99,269h15.4v-18.3H-99V269z"/>
<path class="st2" d="M-83.6,269h15.4v-18.3h-15.4V269z"/>
<path class="st1" d="M-68.3,269h15.4v-18.3h-15.4V269z"/>
<path class="st2" d="M-52.9,269h15.4v-18.3h-15.4V269z"/>
<path class="st2" d="M-99,250.7h7.7v-18.3H-99V250.7z"/>
<g>
	<path class="st2" d="M-45.2,250.7h7.7v-18.3h-7.7V250.7z"/>
	<path class="st1" d="M-91.3,250.7h15.4v-18.3h-15.4V250.7z"/>
</g>
<path class="st2" d="M-75.9,250.7h15.4v-18.3h-15.4V250.7z"/>
<path class="st1" d="M-60.6,250.7h15.4v-18.3h-15.4V250.7z"/>
<path class="st2" d="M-99,232.5h15.4v-18.3H-99V232.5z"/>
<path class="st1" d="M-83.6,232.5h15.4v-18.3h-15.4V232.5z"/>
<path class="st2" d="M-68.3,232.5h15.4v-18.3h-15.4V232.5z"/>
<path class="st1" d="M-52.9,232.5h15.4v-18.3h-15.4V232.5z"/>
<path class="st1" d="M-99,214.2h7.7v-18.3H-99V214.2z"/>
<g>
	<path class="st1" d="M-45.2,214.2h7.7v-18.3h-7.7V214.2z"/>
</g>
<path class="st2" d="M-75.9,214.2h15.4v-18.3h-15.4V214.2z"/>
<path class="st1" d="M44,305.7h15.4v-18.3H44V305.7z"/>
<path class="st2" d="M59.4,305.7h15.4v-18.3H59.4V305.7z"/>
<path class="st1" d="M74.8,305.7h15.4v-18.3H74.8V305.7z"/>
<path class="st2" d="M90.1,305.7h15.4v-18.3H90.1V305.7z"/>
<path class="st2" d="M44,287.5h7.7v-18.3H44V287.5z"/>
<g>
	<path class="st2" d="M97.8,287.5h7.7v-18.3h-7.7V287.5z"/>
	<path class="st1" d="M51.7,287.5h15.4v-18.3H51.7V287.5z"/>
</g>
<path class="st2" d="M67.1,287.5h15.4v-18.3H67.1V287.5z"/>
<path class="st1" d="M82.4,287.5h15.4v-18.3H82.4V287.5z"/>
<path class="st1" d="M44,269.2h15.4v-18.3H44V269.2z"/>
<path class="st2" d="M59.4,269.2h15.4v-18.3H59.4V269.2z"/>
<path class="st1" d="M74.8,269.2h15.4v-18.3H74.8V269.2z"/>
<path class="st2" d="M90.1,269.2h15.4v-18.3H90.1V269.2z"/>
<path class="st2" d="M44,250.9h7.7v-18.3H44V250.9z"/>
<g>
	<path class="st2" d="M97.8,250.9h7.7v-18.3h-7.7V250.9z"/>
	<path class="st1" d="M51.7,250.9h15.4v-18.3H51.7V250.9z"/>
</g>
<path class="st2" d="M67.1,250.9h15.4v-18.3H67.1V250.9z"/>
<path class="st1" d="M82.4,250.9h15.4v-18.3H82.4V250.9z"/>
<path class="st2" d="M44,232.6h15.4v-18.3H44V232.6z"/>
<path class="st1" d="M59.4,232.6h15.4v-18.3H59.4V232.6z"/>
<path class="st2" d="M74.8,232.6h15.4v-18.3H74.8V232.6z"/>
<path class="st1" d="M90.1,232.6h15.4v-18.3H90.1V232.6z"/>
<path class="st1" d="M44,214.3h7.7V196H44V214.3z"/>
<g>
	<path class="st1" d="M97.8,214.3h7.7V196h-7.7V214.3z"/>
</g>
<path class="st2" d="M67.1,214.3h15.4V196H67.1V214.3z"/>
<path class="st1" d="M187,305.6h15.4v-18.3H187V305.6z"/>
<path class="st2" d="M202.4,305.6h15.4v-18.3h-15.4V305.6z"/>
<path class="st1" d="M217.8,305.6h15.4v-18.3h-15.4V305.6z"/>
<path class="st2" d="M233.1,305.6h15.4v-18.3h-15.4V305.6z"/>
<path class="st2" d="M187,287.3h7.7V269H187V287.3z"/>
<g>
	<path class="st2" d="M240.8,287.3h7.7V269h-7.7V287.3z"/>
	<path class="st1" d="M194.7,287.3h15.4V269h-15.4V287.3z"/>
</g>
<path class="st2" d="M210.1,287.3h15.4V269h-15.4V287.3z"/>
<path class="st1" d="M225.4,287.3h15.4V269h-15.4V287.3z"/>
<path class="st1" d="M187,269h15.4v-18.3H187V269z"/>
<path class="st2" d="M202.4,269h15.4v-18.3h-15.4V269z"/>
<path class="st1" d="M217.8,269h15.4v-18.3h-15.4V269z"/>
<path class="st2" d="M233.1,269h15.4v-18.3h-15.4V269z"/>
<path class="st2" d="M187,250.7h7.7v-18.3H187V250.7z"/>
<g>
	<path class="st2" d="M240.8,250.7h7.7v-18.3h-7.7V250.7z"/>
	<path class="st1" d="M194.7,250.7h15.4v-18.3h-15.4V250.7z"/>
</g>
<path class="st2" d="M210.1,250.7h15.4v-18.3h-15.4V250.7z"/>
<path class="st1" d="M225.4,250.7h15.4v-18.3h-15.4V250.7z"/>
<path class="st2" d="M187,232.5h15.4v-18.3H187V232.5z"/>
<path class="st1" d="M202.4,232.5h15.4v-18.3h-15.4V232.5z"/>
<path class="st2" d="M217.8,232.5h15.4v-18.3h-15.4V232.5z"/>
<path class="st1" d="M233.1,232.5h15.4v-18.3h-15.4V232.5z"/>
<path class="st1" d="M187,214.2h7.7v-18.3H187V214.2z"/>
<g>
	<path class="st1" d="M240.8,214.2h7.7v-18.3h-7.7V214.2z"/>
</g>
<path class="st2" d="M210.1,214.2h15.4v-18.3h-15.4V214.2z"/>
<path class="st1" d="M-28,305.6h15.4v-18.3H-28V305.6z"/>
<path class="st2" d="M-12.6,305.6H2.8v-18.3h-15.4V305.6z"/>
<path class="st1" d="M2.8,305.6h15.4v-18.3H2.8V305.6z"/>
<path class="st2" d="M18.1,305.6h15.4v-18.3H18.1V305.6z"/>
<path class="st2" d="M-28,287.3h7.7V269H-28V287.3z"/>
<g>
	<path class="st2" d="M25.8,287.3h7.7V269h-7.7V287.3z"/>
	<path class="st1" d="M-20.3,287.3h15.4V269h-15.4V287.3z"/>
</g>
<path class="st2" d="M-4.9,287.3h15.4V269H-4.9V287.3z"/>
<path class="st1" d="M10.4,287.3h15.4V269H10.4V287.3z"/>
<path class="st1" d="M-28,269h15.4v-18.3H-28V269z"/>
<path class="st2" d="M-12.6,269H2.8v-18.3h-15.4V269z"/>
<path class="st1" d="M2.8,269h15.4v-18.3H2.8V269z"/>
<path class="st2" d="M18.1,269h15.4v-18.3H18.1V269z"/>
<path class="st2" d="M-28,250.7h7.7v-18.3H-28V250.7z"/>
<g>
	<path class="st2" d="M25.8,250.7h7.7v-18.3h-7.7V250.7z"/>
	<path class="st1" d="M-20.3,250.7h15.4v-18.3h-15.4V250.7z"/>
</g>
<path class="st2" d="M-4.9,250.7h15.4v-18.3H-4.9V250.7z"/>
<path class="st1" d="M10.4,250.7h15.4v-18.3H10.4V250.7z"/>
<path class="st2" d="M-28,232.5h15.4v-18.3H-28V232.5z"/>
<path class="st1" d="M-12.6,232.5H2.8v-18.3h-15.4V232.5z"/>
<path class="st2" d="M2.8,232.5h15.4v-18.3H2.8V232.5z"/>
<path class="st1" d="M18.1,232.5h15.4v-18.3H18.1V232.5z"/>
<path class="st1" d="M-28,214.2h7.7v-18.3H-28V214.2z"/>
<g>
	<path class="st1" d="M25.8,214.2h7.7v-18.3h-7.7V214.2z"/>
</g>
<path class="st2" d="M-4.9,214.2h15.4v-18.3H-4.9V214.2z"/>
<path class="st1" d="M115,305.6h15.4v-18.3H115V305.6z"/>
<path class="st2" d="M130.4,305.6h15.4v-18.3h-15.4V305.6z"/>
<path class="st1" d="M145.8,305.6h15.4v-18.3h-15.4V305.6z"/>
<path class="st2" d="M161.1,305.6h15.4v-18.3h-15.4V305.6z"/>
<path class="st2" d="M115,287.3h7.7V269H115V287.3z"/>
<g>
	<path class="st2" d="M168.8,287.3h7.7V269h-7.7V287.3z"/>
	<path class="st1" d="M122.7,287.3h15.4V269h-15.4V287.3z"/>
</g>
<path class="st2" d="M138.1,287.3h15.4V269h-15.4V287.3z"/>
<path class="st1" d="M153.4,287.3h15.4V269h-15.4V287.3z"/>
<path class="st1" d="M115,269h15.4v-18.3H115V269z"/>
<path class="st2" d="M130.4,269h15.4v-18.3h-15.4V269z"/>
<path class="st1" d="M145.8,269h15.4v-18.3h-15.4V269z"/>
<path class="st2" d="M161.1,269h15.4v-18.3h-15.4V269z"/>
<path class="st2" d="M115,250.7h7.7v-18.3H115V250.7z"/>
<g>
	<path class="st2" d="M168.8,250.7h7.7v-18.3h-7.7V250.7z"/>
	<path class="st1" d="M122.7,250.7h15.4v-18.3h-15.4V250.7z"/>
</g>
<path class="st2" d="M138.1,250.7h15.4v-18.3h-15.4V250.7z"/>
<path class="st1" d="M153.4,250.7h15.4v-18.3h-15.4V250.7z"/>
<path class="st2" d="M115,232.5h15.4v-18.3H115V232.5z"/>
<path class="st1" d="M130.4,232.5h15.4v-18.3h-15.4V232.5z"/>
<path class="st2" d="M145.8,232.5h15.4v-18.3h-15.4V232.5z"/>
<path class="st1" d="M161.1,232.5h15.4v-18.3h-15.4V232.5z"/>
<path class="st1" d="M115,214.2h7.7v-18.3H115V214.2z"/>
<g>
	<path class="st1" d="M168.8,214.2h7.7v-18.3h-7.7V214.2z"/>
</g>
<path class="st2" d="M138.1,214.2h15.4v-18.3h-15.4V214.2z"/>
</svg>
