<?xml version="1.0" encoding="utf-8"?>
<!-- Generator: Adobe Illustrator 19.0.0, SVG Export Plug-In . SVG Version: 6.00 Build 0)  -->
<svg version="1.1" id="Capa_1" xmlns="http://www.w3.org/2000/svg" xmlns:xlink="http://www.w3.org/1999/xlink" x="0px" y="0px"
	 viewBox="-115 116.2 380.8 380.8" style="enable-background:new -115 116.2 380.8 380.8;" xml:space="preserve">
<style type="text/css">
	.st0{fill:#E0A810;}
	.st1{fill:#802D40;}
	.st2{fill:#F3D55B;}
	.st3{fill:#B07E09;}
	.st4{fill:#7CB777;}
	.st5{fill:#35925D;}
	.st6{fill:#FFEB99;}
</style>
<g id="Page-1_1_">
	<g id="_x30_17---Corpse-Flower_1_">
		<path class="st0" d="M94.4,390.7c-1.3,0.6-2.6,1.1-3.9,1.4c-1.6,0.3-3.3,0.4-4.9,0.4c-1.1,0-2.2-0.1-3.2-0.4
			c-0.2-0.2-0.5-0.3-0.7-0.5c-0.8-0.6-1.9-0.3-1.9,0.8c0,1.3-0.4,2.5-0.6,3.7c-0.2,1-0.3,2.1-0.4,3.1c-0.2,2.2-0.5,4.4-0.9,6.6
			c-0.5,2.2-1.2,4.3-2.3,6.2c-0.1,0.2-0.2,0.3-0.3,0.5h-5.8c-2.6-4.6-3-10.8-3.9-15.7c0-0.2-0.1-0.3-0.2-0.4c0.1-1.5,0.1-3-0.1-4.4
			c-0.1-0.6-0.5-1.2-1.1-1.2c-2,0-3.9,0.8-5.9,1c-0.6,0-1.2,0-1.8,0c-0.3,0-0.5,0.1-0.7,0.2c-0.1-0.1-0.2-0.1-0.4-0.1
			c-2.2-0.2-4.3-0.3-5.8-2.2c1.4-1.7,6.3-8.6,6.3-21.8c-0.2-5.7,1.3-11.4,4.2-16.3c2.6-4.6,7.3-7.4,12.5-7.7c8.3,0,16.7,8.6,16.7,24
			c0,13.9,5.4,20.8,6.5,22.1C95.2,390.3,94.8,390.5,94.4,390.7z"/>
		<path class="st1" d="M79.7,392.4c0,1.3-0.4,2.5-0.6,3.7c-0.2,1-0.3,2.1-0.4,3.1c-0.2,2.2-0.5,4.4-0.9,6.6
			c-0.5,2.2-1.2,4.3-2.3,6.2c-0.1,0.2-0.2,0.3-0.3,0.5h-5.8c-2.6-4.6-3-10.8-3.9-15.7c0-0.2-0.1-0.3-0.2-0.4c0.1-1.5,0.1-3-0.1-4.4
			c0-0.2-0.1-0.3-0.1-0.5c4.1-2.7,5.8-6,7.4-10.2c1.6,4.2,3.4,7.5,7.6,10.3C79.8,391.8,79.7,392,79.7,392.4z"/>
		<path class="st2" d="M79.7,392.4c0,1.3-0.4,2.5-0.6,3.7c-0.2,1-0.3,2.1-0.4,3.1c-0.2,2.2-0.5,4.4-0.9,6.6
			c-0.5,2.2-1.2,4.3-2.3,6.2c-0.6,0.9-1.2,1.8-1.8,2.7c-0.4,0.6-1,0.8-1.6,1.1c0,0,0,0,0,0c-5.2-4.4-5.6-12.8-6.6-19.1
			c0-0.2-0.1-0.3-0.2-0.4c0.1-1.5,0.1-3-0.1-4.4c0-0.2-0.1-0.3-0.1-0.5c4.1-2.7,5.8-6,7.4-10.2c1.6,4.2,3.4,7.5,7.6,10.3
			C79.8,391.8,79.7,392,79.7,392.4z"/>
		<path class="st3" d="M94.4,390.7c-1.3,0.6-2.6,1.1-3.9,1.4c-1.6,0.3-3.3,0.4-4.9,0.4c-1.1,0-2.2-0.1-3.2-0.4
			c-0.2-0.2-0.5-0.3-0.7-0.5c-0.5-0.4-1.2-0.4-1.6,0c-4.3-2.8-5.9-6.1-7.6-10.3c-1.5-4-3.2-7.9-5.1-11.6c-3.1-5.7-5.6-11.7-7.3-18
			c2.6-4.6,7.3-7.4,12.5-7.7c8.3,0,16.7,8.6,16.7,24c0,13.9,5.4,20.8,6.5,22.1C95.2,390.3,94.8,390.5,94.4,390.7z"/>
	</g>
</g>
<g id="Page-1">
	<g id="_x30_17---Corpse-Flower">
		<path class="st0" d="M96.9,289.3c-1.3-0.6-2.6-1.1-3.9-1.4c-1.6-0.3-3.3-0.4-4.9-0.4c-1.1,0-2.2,0.1-3.2,0.4
			c-0.2,0.2-0.5,0.3-0.7,0.5c-0.8,0.6-1.9,0.3-1.9-0.8c0-1.3-0.4-2.5-0.6-3.7c-0.2-1-0.3-2.1-0.4-3.1c-0.2-2.2-0.5-4.4-0.9-6.6
			c-0.5-2.2-1.2-4.3-2.3-6.2c-0.1-0.2-0.2-0.3-0.3-0.5h-5.8c-2.6,4.6-3,10.8-3.9,15.7c0,0.2-0.1,0.3-0.2,0.4c0.1,1.5,0.1,3-0.1,4.4
			c-0.1,0.6-0.5,1.2-1.1,1.2c-2,0-3.9-0.8-5.9-1c-0.6,0-1.2,0-1.8,0c-0.3,0-0.5-0.1-0.7-0.2c-0.1,0.1-0.2,0.1-0.4,0.1
			c-2.2,0.2-4.3,0.3-5.8,2.2c1.4,1.7,6.3,8.6,6.3,21.8c-0.2,5.7,1.3,11.4,4.2,16.3c2.6,4.6,7.3,7.4,12.5,7.7c8.3,0,16.7-8.6,16.7-24
			c0-13.9,5.4-20.8,6.5-22.1C97.7,289.7,97.3,289.4,96.9,289.3z"/>
		<path class="st1" d="M82.2,287.6c0-1.3-0.4-2.5-0.6-3.7c-0.2-1-0.3-2.1-0.4-3.1c-0.2-2.2-0.5-4.4-0.9-6.6
			c-0.5-2.2-1.2-4.3-2.3-6.2c-0.1-0.2-0.2-0.3-0.3-0.5h-5.8c-2.6,4.6-3,10.8-3.9,15.7c0,0.2-0.1,0.3-0.2,0.4c0.1,1.5,0.1,3-0.1,4.4
			c0,0.2-0.1,0.3-0.1,0.5c4.1,2.7,5.8,6,7.4,10.2c1.6-4.2,3.4-7.5,7.6-10.3C82.3,288.1,82.2,287.9,82.2,287.6z"/>
		<path class="st2" d="M82.2,287.6c0-1.3-0.4-2.5-0.6-3.7c-0.2-1-0.3-2.1-0.4-3.1c-0.2-2.2-0.5-4.4-0.9-6.6
			c-0.5-2.2-1.2-4.3-2.3-6.2c-0.6-0.9-1.2-1.8-1.8-2.7c-0.4-0.6-1-0.8-1.6-1.1c0,0,0,0,0,0c-5.2,4.4-5.6,12.8-6.6,19.1
			c0,0.2-0.1,0.3-0.2,0.4c0.1,1.5,0.1,3-0.1,4.4c0,0.2-0.1,0.3-0.1,0.5c4.1,2.7,5.8,6,7.4,10.2c1.6-4.2,3.4-7.5,7.6-10.3
			C82.3,288.1,82.2,287.9,82.2,287.6z"/>
		<path class="st3" d="M96.9,289.3c-1.3-0.6-2.6-1.1-3.9-1.4c-1.6-0.3-3.3-0.4-4.9-0.4c-1.1,0-2.2,0.1-3.2,0.4
			c-0.2,0.2-0.5,0.3-0.7,0.5c-0.5,0.4-1.2,0.4-1.6,0c-4.3,2.8-5.9,6.1-7.6,10.3c-1.5,4-3.2,7.9-5.1,11.6c-3.1,5.7-5.6,11.7-7.3,18
			c2.6,4.6,7.3,7.4,12.5,7.7c8.3,0,16.7-8.6,16.7-24c0-13.9,5.4-20.8,6.5-22.1C97.7,289.7,97.3,289.4,96.9,289.3z"/>
	</g>
</g>
<path class="st4" d="M105,294.1c-0.6,0.1-1,0.6-1.1,1.2c0,0.5-0.3,0.8-1.7,0c-0.3-0.2-0.8-0.3-1.1-0.1c-2.4,0.8-4.6,2-6.7,3.3
	c-0.7,0.5-1.1,1.4-0.9,2.2c0.2,0.8-0.1,1.2-1.4,0.8c-0.7-0.2-1.5,0-2.1,0.5c-2,1.9-3.8,3.9-5.2,6c-0.3,0.5-0.3,1.1,0,1.6
	c0.5,0.6,0.9,1.6-0.5,2.2c-0.3,0.1-0.5,0.1-0.8,0.1c-0.6-0.1-1.2,0.2-1.5,0.8c-1.2,2.9-1.7,5.7-1.2,7.9c0.3,1.5,1.4,2.9,2.9,3.3
	c3.2,0.8,6.2,0.2,9-1.4c0.5-0.3,0.8-0.8,0.8-1.4c0-0.9,0.8-0.9,1.4-0.9c0.5,0.1,1-0.1,1.3-0.4c1.6-1.4,3-3,4.4-4.8
	c0.4-0.6,0.4-1.4,0-1.9c-0.7-0.9-0.2-2.1,1.4-1.8c0.6,0.1,1.3-0.2,1.6-0.7c1.3-2.2,2.5-4.4,3.6-6.4c0.2-0.4,0.1-0.9-0.1-1.3
	c-0.7-1,0.2-1.3,0.9-1.5c0.4-0.1,0.7-0.3,0.9-0.7c1.8-4.1,2.8-7,2.8-7C109.5,293.4,107.2,293.6,105,294.1z"/>
<path class="st5" d="M108.6,296.1c-1.9,1.1-3.7,2.5-5.4,3.8c-2.8,2.1-5.5,4.5-7.9,7c-1.9,1.9-3.6,3.8-5.2,5.9
	c-1.2,1.5-2.3,3-3.3,4.6c-1.8,2.7-3.5,5.5-4.7,8.4c-0.3,0.6-0.5,1.1-0.8,1.7s-0.9,0.8-1.5,0.6c-0.6-0.3-0.8-0.9-0.6-1.5
	c0,0,0.3-0.6,0.8-1.7c1.3-3,3-5.8,4.8-8.5c1.1-1.7,2.4-3.3,3.6-4.9c1.7-2.1,3.5-4.1,5.5-5.9c2.6-2.5,5.4-4.9,8.5-6.9
	c1.8-1.3,3.7-2.5,5.7-3.4c0.3-0.1,0.6,0,0.7,0.2C108.9,295.7,108.8,296,108.6,296.1L108.6,296.1z"/>
<path class="st4" d="M118.7,306.9c-0.6-0.2-1.2,0.1-1.5,0.6c-0.2,0.4-0.7,0.6-1.5-0.8c-0.2-0.3-0.6-0.6-1-0.6c-2.5-0.3-5-0.3-7.5,0
	c-0.9,0.1-1.6,0.7-1.8,1.6c-0.2,0.8-0.6,1-1.6,0c-0.6-0.5-1.4-0.7-2.1-0.5c-2.7,0.8-5.1,1.8-7.4,3c-0.5,0.3-0.8,0.9-0.7,1.4
	c0.2,0.8,0.1,1.9-1.4,1.8c-0.3,0-0.5-0.1-0.7-0.2c-0.5-0.4-1.2-0.3-1.6,0.1c-2.4,2-4,4.3-4.6,6.5c-0.4,1.5-0.1,3.2,1.1,4.2
	c2.5,2.2,5.5,2.9,8.7,2.7c0.6,0,1.1-0.3,1.4-0.9c0.4-0.8,1.2-0.5,1.7-0.1c0.4,0.3,0.9,0.4,1.4,0.2c2-0.6,4.1-1.4,6.1-2.4
	c0.6-0.3,1-1,0.8-1.7c-0.2-1.2,0.7-2,2.1-1c0.5,0.4,1.2,0.4,1.8,0.1c2.2-1.3,4.2-2.8,6.1-4.2c0.4-0.3,0.5-0.7,0.4-1.2
	c-0.2-1.2,0.8-1.1,1.4-0.9c0.4,0.1,0.8,0,1.1-0.2c3.4-2.8,5.6-5,5.6-5C123,308.3,120.8,307.4,118.7,306.9z"/>
<path class="st5" d="M121,310.3c-2.2,0.2-4.4,0.6-6.5,1c-3.5,0.7-6.9,1.6-10.2,2.7c-2.5,0.8-4.9,1.8-7.3,3c-1.7,0.8-3.4,1.7-5,2.6
	c-2.8,1.6-5.6,3.4-8,5.5c-0.5,0.4-1,0.8-1.4,1.2c-0.5,0.4-1.2,0.3-1.6-0.2s-0.3-1.2,0.2-1.6c0,0,0.5-0.4,1.4-1.2
	c2.5-2.1,5.3-3.9,8.1-5.5c1.8-1,3.6-1.9,5.4-2.8c2.5-1.1,5-2.1,7.6-2.9c3.5-1.1,7-2,10.7-2.5c2.2-0.3,4.4-0.5,6.7-0.5
	c0.3,0,0.5,0.2,0.5,0.5C121.5,310.1,121.3,310.3,121,310.3L121,310.3z"/>
<path class="st4" d="M143.3,301.9c-0.5-0.3-1.2-0.3-1.6,0.1c-0.3,0.3-0.8,0.3-1.2-1.2c-0.1-0.4-0.4-0.7-0.7-0.9
	c-2.3-1-4.7-1.8-7.1-2.3c-0.9-0.2-1.8,0.2-2.2,0.9c-0.5,0.7-0.9,0.8-1.6-0.5c-0.4-0.7-1.1-1.1-1.8-1.1c-2.8-0.1-5.5,0.1-7.9,0.6
	c-0.6,0.1-1,0.6-1.1,1.2c-0.1,0.8-0.5,1.8-1.9,1.3c-0.3-0.1-0.5-0.3-0.6-0.5c-0.4-0.5-1-0.7-1.6-0.5c-2.9,1.2-5.2,2.9-6.4,4.8
	c-0.8,1.3-1.1,3-0.3,4.4c1.7,2.8,4.3,4.5,7.4,5.3c0.6,0.1,1.1,0,1.6-0.4c0.6-0.6,1.3-0.1,1.6,0.4c0.3,0.4,0.7,0.6,1.2,0.6
	c2.1,0.1,4.3-0.1,6.5-0.4c0.7-0.1,1.2-0.7,1.3-1.4c0.2-1.2,1.3-1.6,2.3-0.3c0.4,0.5,1,0.8,1.7,0.6c2.5-0.6,4.9-1.4,7-2.1
	c0.4-0.2,0.7-0.5,0.8-1c0.1-1.2,1.1-0.8,1.7-0.4c0.3,0.2,0.7,0.3,1.1,0.1c4.1-1.6,6.9-3,6.9-3C146.9,304.6,145.2,303.1,143.3,301.9z
	"/>
<path class="st5" d="M144.4,305.9c-2.1-0.5-4.3-0.8-6.5-1.1c-3.5-0.4-7.1-0.6-10.6-0.5c-2.6,0-5.3,0.2-7.9,0.6
	c-1.9,0.3-3.7,0.5-5.5,0.9c-3.1,0.7-6.3,1.5-9.3,2.8c-0.6,0.2-1.1,0.5-1.7,0.7s-1.2-0.1-1.4-0.6c-0.2-0.6,0.1-1.2,0.6-1.4
	c0,0,0.6-0.3,1.7-0.7c3-1.2,6.2-2.1,9.4-2.7c2-0.4,4-0.7,6-1c2.7-0.3,5.4-0.5,8.1-0.4c3.7,0,7.3,0.3,10.9,0.9
	c2.2,0.4,4.4,0.9,6.5,1.6c0.3,0.1,0.4,0.4,0.3,0.7C145,305.8,144.7,305.9,144.4,305.9L144.4,305.9z"/>
<path class="st4" d="M149.4,329.6c-0.2-0.6-0.8-0.9-1.4-0.8c-0.5,0.1-0.8-0.2-0.2-1.7c0.2-0.4,0.1-0.8-0.1-1.1
	c-1.2-2.2-2.7-4.2-4.4-6.1c-0.6-0.7-1.5-0.9-2.4-0.6c-0.8,0.3-1.2,0.1-1-1.3c0.1-0.8-0.2-1.5-0.8-2c-2.2-1.7-4.5-3.1-6.7-4.2
	c-0.5-0.3-1.2-0.1-1.6,0.3c-0.6,0.6-1.4,1.2-2.3-0.1c-0.2-0.3-0.2-0.5-0.2-0.7c0-0.6-0.4-1.2-1-1.3c-3.1-0.8-5.9-0.8-8,0.1
	c-1.5,0.6-2.7,1.8-2.8,3.3c-0.3,3.3,0.8,6.2,2.8,8.6c0.4,0.4,0.9,0.7,1.5,0.6c0.9-0.1,1.1,0.7,1.1,1.3c0,0.5,0.2,0.9,0.6,1.2
	c1.6,1.3,3.5,2.5,5.4,3.5c0.6,0.3,1.4,0.2,1.9-0.3c0.8-0.8,2-0.5,2,1.1c0,0.7,0.4,1.3,1,1.5c2.3,1,4.7,1.8,6.9,2.5
	c0.4,0.1,0.9,0,1.2-0.3c0.8-0.9,1.3,0,1.6,0.6c0.1,0.4,0.4,0.6,0.8,0.7c4.3,1.2,7.4,1.7,7.4,1.7
	C150.7,333.9,150.2,331.7,149.4,329.6z"/>
<path class="st5" d="M147.9,333.5c-1.4-1.7-3-3.2-4.6-4.7c-2.6-2.4-5.3-4.7-8.2-6.7c-2.1-1.5-4.4-2.9-6.7-4.2
	c-1.6-0.9-3.3-1.8-5-2.5c-2.9-1.3-6-2.5-9.1-3.3c-0.6-0.2-1.2-0.3-1.8-0.5c-0.6-0.2-0.9-0.8-0.8-1.4c0.2-0.6,0.8-0.9,1.4-0.8
	c0,0,0.7,0.2,1.8,0.5c3.1,0.8,6.2,2,9.1,3.4c1.8,0.8,3.6,1.8,5.4,2.8c2.3,1.4,4.6,2.8,6.7,4.5c2.9,2.2,5.7,4.6,8.2,7.2
	c1.5,1.6,3,3.3,4.3,5.1c0.2,0.2,0.1,0.6-0.1,0.7C148.4,333.7,148.1,333.7,147.9,333.5L147.9,333.5z"/>
<path class="st4" d="M166.8,299.2c-0.6-0.2-1.2,0.1-1.5,0.6c-0.2,0.4-0.7,0.6-1.5-0.8c-0.2-0.3-0.6-0.6-1-0.6c-2.5-0.3-5-0.3-7.5,0
	c-0.9,0.1-1.6,0.7-1.9,1.6c-0.2,0.8-0.6,1-1.6,0c-0.6-0.5-1.4-0.7-2.1-0.5c-2.7,0.7-5.2,1.8-7.4,3c-0.5,0.3-0.8,0.9-0.7,1.4
	c0.2,0.8,0.1,1.9-1.4,1.8c-0.3,0-0.5-0.1-0.7-0.2c-0.5-0.4-1.2-0.3-1.6,0.1c-2.4,2-4.1,4.3-4.6,6.5c-0.4,1.5-0.1,3.2,1.1,4.2
	c2.5,2.2,5.5,2.9,8.7,2.8c0.6,0,1.1-0.3,1.4-0.8c0.4-0.8,1.2-0.5,1.7-0.1c0.4,0.3,0.9,0.4,1.4,0.2c2-0.6,4.1-1.4,6.1-2.3
	c0.6-0.3,1-1,0.8-1.7c-0.2-1.2,0.8-2,2.1-1c0.5,0.4,1.2,0.4,1.8,0.1c2.2-1.3,4.2-2.8,6.1-4.2c0.4-0.3,0.5-0.7,0.4-1.2
	c-0.2-1.2,0.8-1.1,1.4-0.9c0.4,0.1,0.8,0,1.1-0.2c3.4-2.8,5.7-5,5.7-5C171.1,300.6,169,299.8,166.8,299.2z"/>
<path class="st5" d="M169.1,302.6c-2.2,0.2-4.4,0.6-6.5,1c-3.5,0.7-6.9,1.6-10.2,2.7c-2.5,0.8-4.9,1.8-7.3,2.9
	c-1.7,0.8-3.4,1.6-5,2.6c-2.8,1.6-5.6,3.4-8,5.4c-0.5,0.4-1,0.8-1.4,1.2c-0.5,0.4-1.2,0.3-1.6-0.2c-0.4-0.5-0.3-1.2,0.2-1.6
	c0,0,0.5-0.4,1.4-1.2c2.5-2.1,5.3-3.8,8.1-5.4c1.8-1,3.6-1.9,5.4-2.7c2.5-1.1,5-2.1,7.6-2.9c3.5-1.1,7-1.9,10.7-2.4
	c2.2-0.3,4.4-0.5,6.7-0.5c0.3,0,0.5,0.2,0.5,0.5C169.6,302.4,169.4,302.6,169.1,302.6L169.1,302.6z"/>
<path class="st4" d="M181.1,314.6c-0.5-0.3-1.2-0.3-1.6,0.1c-0.4,0.3-0.8,0.3-1.1-1.2c-0.1-0.4-0.3-0.7-0.7-0.9
	c-2.2-1.1-4.6-2-7-2.6c-0.9-0.2-1.8,0.1-2.3,0.8c-0.5,0.7-0.9,0.7-1.5-0.5c-0.3-0.7-1-1.1-1.8-1.2c-2.8-0.2-5.5-0.1-7.9,0.3
	c-0.6,0.1-1,0.5-1.1,1.1c-0.1,0.8-0.5,1.8-1.9,1.2c-0.3-0.1-0.5-0.3-0.6-0.5c-0.3-0.5-1-0.7-1.6-0.5c-3,1.1-5.3,2.6-6.6,4.5
	c-0.9,1.3-1.2,3-0.4,4.3c1.6,2.9,4.1,4.6,7.2,5.6c0.5,0.2,1.1,0.1,1.6-0.3c0.7-0.6,1.3,0,1.6,0.5c0.3,0.4,0.7,0.6,1.2,0.7
	c2.1,0.2,4.3,0.1,6.5-0.1c0.7-0.1,1.3-0.6,1.4-1.3c0.2-1.2,1.4-1.6,2.3-0.2c0.4,0.5,1,0.8,1.7,0.7c2.5-0.5,4.9-1.2,7.1-1.8
	c0.4-0.1,0.8-0.5,0.8-1c0.2-1.2,1.1-0.8,1.7-0.4c0.3,0.2,0.7,0.3,1.1,0.2c4.2-1.5,7-2.8,7-2.8C184.6,317.4,182.9,315.9,181.1,314.6z
	"/>
<path class="st5" d="M182,318.7c-2.1-0.6-4.3-1-6.5-1.3c-3.5-0.6-7-0.9-10.6-1c-2.6-0.1-5.3,0-7.9,0.3c-1.9,0.2-3.7,0.4-5.6,0.7
	c-3.1,0.6-6.4,1.3-9.4,2.4c-0.6,0.2-1.2,0.4-1.7,0.6c-0.6,0.2-1.2-0.1-1.4-0.7s0.1-1.2,0.7-1.4c0,0,0.6-0.2,1.8-0.6
	c3.1-1.1,6.3-1.8,9.5-2.3c2-0.3,4-0.6,6.1-0.7c2.7-0.2,5.4-0.2,8.1-0.1c3.7,0.2,7.3,0.6,10.9,1.4c2.2,0.5,4.4,1,6.4,1.8
	c0.3,0.1,0.4,0.4,0.3,0.7C182.6,318.6,182.3,318.7,182,318.7L182,318.7z"/>
<path class="st4" d="M203.6,299.6c-0.5-0.3-1.2-0.1-1.6,0.3c-0.3,0.4-0.7,0.4-1.3-1c-0.1-0.4-0.4-0.7-0.8-0.8
	c-2.4-0.8-4.9-1.2-7.3-1.4c-0.9-0.1-1.7,0.4-2.1,1.2c-0.4,0.8-0.8,0.9-1.6-0.3c-0.5-0.6-1.2-1-2-0.9c-2.8,0.3-5.4,0.8-7.8,1.6
	c-0.6,0.2-0.9,0.7-0.9,1.3c0,0.8-0.2,1.9-1.7,1.5c-0.3-0.1-0.5-0.2-0.7-0.4c-0.4-0.5-1.1-0.6-1.6-0.2c-2.7,1.6-4.8,3.5-5.7,5.6
	c-0.6,1.4-0.7,3.2,0.3,4.4c2.1,2.6,4.9,3.9,8,4.3c0.6,0.1,1.1-0.1,1.5-0.6c0.6-0.7,1.2-0.3,1.7,0.2c0.3,0.3,0.8,0.5,1.3,0.5
	c2.1-0.2,4.2-0.6,6.4-1.2c0.7-0.2,1.1-0.8,1.1-1.5c0-1.2,1.1-1.8,2.2-0.6c0.4,0.5,1.1,0.6,1.7,0.4c2.4-0.9,4.7-2,6.7-3
	c0.4-0.2,0.7-0.6,0.7-1.1c0-1.2,1-0.9,1.6-0.6c0.3,0.2,0.8,0.2,1.1,0c3.9-2.1,6.5-3.9,6.5-3.9C207.5,301.8,205.6,300.6,203.6,299.6z
	"/>
<path class="st5" d="M205.2,303.4c-2.2-0.2-4.4-0.2-6.6-0.2c-3.5,0-7.1,0.3-10.6,0.8c-2.6,0.4-5.2,0.9-7.7,1.6
	c-1.8,0.5-3.6,1-5.4,1.6c-3,1.1-6.1,2.3-8.9,3.9c-0.5,0.3-1.1,0.6-1.6,0.9s-1.2,0.1-1.5-0.4s-0.1-1.2,0.4-1.5c0,0,0.6-0.3,1.6-0.9
	c2.8-1.6,5.9-2.8,8.9-3.9c1.9-0.7,3.9-1.2,5.8-1.7c2.6-0.6,5.3-1.1,8-1.4c3.6-0.4,7.3-0.6,10.9-0.5c2.2,0.1,4.5,0.3,6.6,0.7
	c0.3,0.1,0.5,0.3,0.4,0.6C205.7,303.3,205.5,303.5,205.2,303.4L205.2,303.4z"/>
<path class="st4" d="M191.7,333.7c-0.3-0.5-0.9-0.8-1.5-0.7c-0.5,0.1-0.9-0.1-0.4-1.6c0.1-0.4,0.1-0.8-0.2-1.1
	c-1.4-2.1-3.1-3.9-4.9-5.6c-0.7-0.6-1.6-0.7-2.4-0.3c-0.8,0.4-1.2,0.2-1.1-1.2c0-0.8-0.4-1.5-1-1.9c-2.3-1.5-4.8-2.7-7.1-3.5
	c-0.6-0.2-1.2,0-1.5,0.4c-0.5,0.7-1.3,1.3-2.3,0.1c-0.2-0.2-0.3-0.5-0.3-0.7c0-0.6-0.5-1.1-1.1-1.2c-3.1-0.5-5.9-0.2-7.9,0.9
	c-1.4,0.7-2.5,2.1-2.5,3.6c0,3.3,1.4,6,3.7,8.3c0.4,0.4,1,0.6,1.5,0.5c0.9-0.2,1.1,0.6,1.2,1.2c0.1,0.5,0.3,0.9,0.7,1.2
	c1.7,1.1,3.7,2.1,5.8,3c0.7,0.3,1.4,0.1,1.9-0.5c0.7-0.9,2-0.7,2.1,0.9c0.1,0.7,0.5,1.2,1.1,1.4c2.4,0.7,4.9,1.3,7.1,1.8
	c0.5,0.1,0.9-0.1,1.2-0.5c0.7-1,1.3-0.1,1.6,0.5c0.2,0.3,0.5,0.6,0.9,0.7c4.4,0.7,7.5,0.9,7.5,0.9
	C193.5,337.9,192.7,335.7,191.7,333.7z"/>
<path class="st5" d="M190.6,337.7c-1.6-1.5-3.3-2.9-5.1-4.3c-2.8-2.2-5.8-4.1-8.8-5.9c-2.3-1.3-4.6-2.5-7-3.5
	c-1.7-0.7-3.5-1.4-5.2-2c-3-1-6.2-1.9-9.4-2.4c-0.6-0.1-1.2-0.2-1.8-0.3c-0.6-0.1-1-0.7-0.9-1.3c0.1-0.6,0.7-1,1.3-0.9
	c0,0,0.7,0.1,1.9,0.3c3.2,0.5,6.4,1.4,9.4,2.5c1.9,0.7,3.8,1.4,5.7,2.3c2.5,1.1,4.9,2.4,7.2,3.8c3.1,1.9,6.1,4,8.9,6.4
	c1.7,1.5,3.3,3,4.8,4.7c0.2,0.2,0.2,0.6-0.1,0.7C191.1,338,190.8,337.9,190.6,337.7L190.6,337.7z"/>
<path class="st4" d="M216.9,321.8c-0.4-0.4-1.1-0.6-1.6-0.3c-0.4,0.2-0.9,0.1-0.8-1.5c0-0.4-0.2-0.8-0.5-1c-1.9-1.6-4.1-2.9-6.3-4
	c-0.8-0.4-1.8-0.3-2.4,0.3c-0.6,0.6-1.1,0.5-1.4-0.8c-0.2-0.7-0.8-1.3-1.5-1.6c-2.6-0.8-5.3-1.3-7.8-1.4c-0.6,0-1.1,0.3-1.3,0.9
	c-0.3,0.8-0.9,1.6-2.1,0.8c-0.2-0.2-0.4-0.4-0.5-0.6c-0.2-0.6-0.8-0.9-1.4-0.8c-3.1,0.4-5.7,1.4-7.4,3c-1.1,1.1-1.8,2.7-1.4,4.1
	c0.9,3.2,3.1,5.4,5.8,7c0.5,0.3,1.1,0.3,1.6,0c0.8-0.4,1.2,0.2,1.5,0.8c0.2,0.4,0.6,0.8,1,0.9c2,0.6,4.2,1,6.4,1.3
	c0.7,0.1,1.4-0.3,1.6-1c0.4-1.1,1.7-1.3,2.3,0.3c0.2,0.6,0.8,1,1.5,1c2.5,0,5-0.1,7.4-0.3c0.5,0,0.9-0.3,1-0.8
	c0.4-1.1,1.2-0.5,1.7,0c0.3,0.3,0.6,0.4,1,0.4c4.4-0.5,7.5-1.2,7.5-1.2C219.7,325.3,218.4,323.4,216.9,321.8z"/>
<path class="st5" d="M216.9,325.9c-1.9-1-4-1.9-6-2.7c-3.3-1.3-6.7-2.3-10.1-3.2c-2.5-0.6-5.1-1.1-7.7-1.4c-1.9-0.2-3.7-0.4-5.6-0.5
	c-3.2-0.1-6.5-0.1-9.7,0.3c-0.6,0.1-1.2,0.1-1.8,0.2s-1.2-0.4-1.2-1c-0.1-0.6,0.4-1.2,1-1.2c0,0,0.7-0.1,1.9-0.2
	c3.2-0.4,6.5-0.4,9.7-0.3c2,0.1,4.1,0.3,6.1,0.6c2.7,0.4,5.3,0.9,7.9,1.6c3.5,1,7,2.1,10.3,3.7c2,0.9,4,1.9,5.9,3.2
	c0.2,0.2,0.3,0.5,0.2,0.7C217.5,326,217.2,326.1,216.9,325.9L216.9,325.9z"/>
<path class="st4" d="M225.6,305.6c-0.6-0.2-1.2,0-1.5,0.6c-0.2,0.4-0.7,0.5-1.5-0.9c-0.2-0.3-0.5-0.6-0.9-0.7
	c-2.5-0.4-5-0.5-7.5-0.4c-0.9,0.1-1.7,0.6-1.9,1.5c-0.3,0.8-0.7,1-1.6,0c-0.5-0.6-1.3-0.8-2.1-0.6c-2.7,0.6-5.2,1.5-7.5,2.6
	c-0.5,0.3-0.8,0.8-0.7,1.4c0.1,0.8,0,1.9-1.5,1.7c-0.3,0-0.5-0.1-0.7-0.3c-0.5-0.4-1.2-0.4-1.7,0c-2.5,1.9-4.3,4.1-4.9,6.3
	c-0.4,1.5-0.2,3.2,0.9,4.3c2.4,2.3,5.3,3.2,8.5,3.2c0.6,0,1.1-0.3,1.4-0.8c0.5-0.8,1.2-0.4,1.7,0c0.4,0.3,0.9,0.4,1.3,0.3
	c2-0.5,4.1-1.2,6.2-2.1c0.7-0.3,1-1,0.9-1.7c-0.2-1.2,0.8-1.9,2.1-0.9c0.5,0.4,1.2,0.5,1.8,0.2c2.2-1.2,4.3-2.6,6.3-3.9
	c0.4-0.3,0.6-0.7,0.5-1.2c-0.2-1.2,0.8-1.1,1.5-0.8c0.4,0.1,0.8,0.1,1.1-0.2c3.6-2.6,5.9-4.7,5.9-4.7
	C229.8,307.2,227.8,306.3,225.6,305.6z"/>
<path class="st5" d="M227.8,309.2c-2.2,0.1-4.4,0.4-6.6,0.7c-3.5,0.5-7,1.3-10.4,2.2c-2.5,0.7-5,1.6-7.4,2.6
	c-1.7,0.7-3.4,1.5-5.1,2.4c-2.8,1.5-5.7,3.1-8.3,5.1c-0.5,0.4-1,0.7-1.5,1.1s-1.2,0.3-1.6-0.2c-0.4-0.5-0.3-1.2,0.2-1.6
	c0,0,0.5-0.4,1.5-1.1c2.6-1.9,5.4-3.6,8.3-5c1.8-0.9,3.7-1.7,5.6-2.5c2.5-1,5.1-1.8,7.7-2.5c3.5-0.9,7.1-1.6,10.8-1.9
	c2.2-0.2,4.5-0.3,6.7-0.2c0.3,0,0.5,0.3,0.5,0.6C228.3,308.9,228,309.2,227.8,309.2L227.8,309.2z"/>
<path class="st4" d="M46.4,295.5c0,0,1,2.9,2.8,7c0.2,0.4,0.5,0.6,0.9,0.7c0.7,0.1,1.6,0.5,0.9,1.5c-0.3,0.4-0.3,0.9-0.1,1.3
	c1,2.1,2.2,4.3,3.6,6.4c0.3,0.6,1,0.8,1.6,0.7c1.6-0.3,2.1,0.9,1.4,1.8c-0.4,0.6-0.4,1.4,0,1.9c1.4,1.8,2.8,3.4,4.4,4.8
	c0.4,0.3,0.8,0.5,1.3,0.4c0.6-0.1,1.4,0,1.4,0.9c0,0.6,0.3,1.1,0.8,1.4c2.8,1.6,5.8,2.2,9,1.4c1.5-0.4,2.5-1.8,2.9-3.3
	c0.5-2.2,0-5-1.2-7.9c-0.2-0.6-0.8-0.9-1.5-0.8c-0.2,0-0.5,0-0.8-0.1c-1.4-0.6-1-1.6-0.5-2.2c0.4-0.5,0.4-1.1,0-1.6
	c-1.4-2.1-3.2-4.1-5.2-6c-0.6-0.5-1.4-0.7-2.1-0.5c-1.3,0.4-1.6,0.1-1.4-0.8s-0.2-1.8-0.9-2.2c-2.1-1.4-4.3-2.5-6.7-3.3
	c-0.4-0.1-0.8-0.1-1.1,0.1c-1.3,0.8-1.7,0.5-1.7,0c0-0.6-0.5-1.1-1.1-1.2C51,295.5,48.7,295.3,46.4,295.5z"/>
<path class="st5" d="M49.5,298c-0.2-0.1-0.3-0.4-0.2-0.7c0.1-0.3,0.4-0.4,0.7-0.2c2,1,3.9,2.2,5.7,3.4c3,2.1,5.8,4.4,8.5,6.9
	c2,1.9,3.8,3.9,5.5,5.9c1.3,1.6,2.5,3.2,3.6,4.9c1.8,2.7,3.5,5.5,4.8,8.5c0.5,1.1,0.8,1.7,0.8,1.7c0.3,0.6,0,1.2-0.6,1.5
	s-1.2,0-1.5-0.6s-0.5-1.1-0.8-1.7c-1.3-2.9-3-5.8-4.7-8.4c-1-1.6-2.2-3.1-3.3-4.6c-1.6-2.1-3.4-4-5.2-5.9c-2.5-2.5-5.1-4.9-7.9-7
	C53.2,300.4,51.4,299.1,49.5,298L49.5,298z"/>
<path class="st4" d="M33.2,311.3c0,0,2.2,2.2,5.6,5c0.3,0.2,0.7,0.3,1.1,0.2c0.7-0.2,1.7-0.3,1.4,0.9c-0.1,0.5,0.1,0.9,0.4,1.2
	c1.8,1.4,3.9,2.8,6.1,4.2c0.6,0.3,1.3,0.3,1.8-0.1c1.3-1,2.3-0.2,2.1,1c-0.1,0.7,0.2,1.4,0.8,1.7c2,1,4,1.8,6.1,2.4
	c0.5,0.1,1,0.1,1.4-0.2c0.5-0.3,1.3-0.7,1.7,0.1c0.3,0.5,0.8,0.8,1.4,0.9c3.2,0.2,6.2-0.6,8.7-2.7c1.2-1,1.5-2.7,1.1-4.2
	c-0.5-2.2-2.2-4.5-4.6-6.5c-0.5-0.4-1.2-0.4-1.6-0.1c-0.2,0.1-0.4,0.2-0.7,0.2c-1.5,0.1-1.6-1-1.4-1.8c0.1-0.6-0.2-1.2-0.7-1.4
	c-2.2-1.2-4.7-2.3-7.4-3c-0.7-0.2-1.5,0-2.1,0.5c-1,1-1.4,0.8-1.6,0c-0.2-0.9-1-1.5-1.8-1.6c-2.5-0.3-5-0.3-7.5,0
	c-0.4,0-0.7,0.3-1,0.6c-0.8,1.3-1.3,1.2-1.5,0.8c-0.3-0.5-0.9-0.8-1.5-0.6C37.3,309.3,35.2,310.1,33.2,311.3z"/>
<path class="st5" d="M37.1,312.2c-0.3,0-0.5-0.2-0.5-0.5s0.2-0.5,0.5-0.5c2.2,0,4.5,0.2,6.7,0.5c3.6,0.5,7.2,1.4,10.7,2.5
	c2.6,0.8,5.1,1.8,7.6,2.9c1.8,0.8,3.7,1.8,5.4,2.8c2.8,1.6,5.6,3.4,8.1,5.5c0.9,0.8,1.4,1.2,1.4,1.2c0.5,0.4,0.5,1.1,0.2,1.6
	c-0.4,0.5-1.1,0.5-1.6,0.2c-0.5-0.4-1-0.8-1.4-1.2c-2.4-2.1-5.2-3.9-8-5.5c-1.6-0.9-3.3-1.8-5-2.6c-2.4-1.1-4.8-2.1-7.3-3
	c-3.3-1.1-6.8-2.1-10.2-2.7C41.5,312.7,39.3,312.3,37.1,312.2L37.1,312.2z"/>
<path class="st4" d="M9.7,308.1c0,0,2.8,1.4,6.9,3c0.4,0.1,0.8,0.1,1.1-0.1c0.6-0.4,1.5-0.8,1.7,0.4c0.1,0.5,0.4,0.9,0.8,1
	c2.2,0.8,4.6,1.5,7,2.1c0.6,0.2,1.3-0.1,1.7-0.6c1-1.4,2.1-0.9,2.3,0.3c0.1,0.7,0.6,1.3,1.3,1.4c2.2,0.3,4.4,0.5,6.5,0.4
	c0.5,0,0.9-0.2,1.2-0.6c0.4-0.5,1-1,1.6-0.4c0.4,0.4,1,0.5,1.6,0.4c3.1-0.8,5.7-2.5,7.4-5.3c0.8-1.3,0.6-3-0.3-4.4
	c-1.2-1.9-3.5-3.6-6.4-4.8c-0.6-0.2-1.2-0.1-1.6,0.5c-0.1,0.2-0.3,0.3-0.6,0.5c-1.4,0.5-1.8-0.4-1.9-1.3c-0.1-0.6-0.5-1-1.1-1.2
	c-2.5-0.5-5.2-0.7-7.9-0.6c-0.8,0-1.5,0.4-1.8,1.1c-0.7,1.2-1.1,1.2-1.6,0.5s-1.4-1.1-2.2-0.9c-2.4,0.5-4.8,1.2-7.1,2.3
	c-0.4,0.2-0.6,0.5-0.7,0.9c-0.4,1.5-0.8,1.5-1.2,1.2c-0.4-0.4-1.1-0.5-1.6-0.1C13,304.9,11.2,306.4,9.7,308.1z"/>
<path class="st5" d="M13.7,307.7c-0.3,0.1-0.5-0.1-0.6-0.3c-0.1-0.3,0.1-0.6,0.3-0.7c2.1-0.7,4.3-1.2,6.5-1.6
	c3.6-0.6,7.3-0.9,10.9-0.9c2.7,0,5.4,0.1,8.1,0.4c2,0.2,4,0.6,6,1c3.2,0.7,6.3,1.5,9.4,2.7c1.1,0.4,1.7,0.7,1.7,0.7
	c0.6,0.2,0.9,0.9,0.6,1.4c-0.2,0.6-0.9,0.9-1.4,0.6c-0.6-0.2-1.1-0.5-1.7-0.7c-3-1.2-6.2-2.1-9.3-2.8c-1.8-0.4-3.7-0.7-5.5-0.9
	c-2.6-0.4-5.2-0.5-7.9-0.6c-3.5,0-7.1,0.1-10.6,0.5C18.1,306.9,15.9,307.2,13.7,307.7L13.7,307.7z"/>
<path class="st4" d="M7.2,338.1c0,0,3.1-0.5,7.4-1.7c0.4-0.1,0.7-0.4,0.8-0.7c0.2-0.7,0.8-1.5,1.6-0.6c0.3,0.3,0.8,0.5,1.2,0.3
	c2.2-0.7,4.6-1.5,6.9-2.5c0.6-0.3,1-0.8,1-1.5c0-1.7,1.2-2,2-1.1c0.5,0.5,1.3,0.7,1.9,0.3c2-1.1,3.8-2.2,5.4-3.5
	c0.4-0.3,0.6-0.8,0.6-1.2c0-0.6,0.2-1.4,1.1-1.3c0.6,0.1,1.1-0.2,1.5-0.6c2-2.5,3.1-5.4,2.8-8.6c-0.1-1.5-1.3-2.8-2.8-3.3
	c-2.1-0.8-4.9-0.8-8-0.1c-0.6,0.1-1,0.7-1,1.3c0,0.2-0.1,0.5-0.2,0.7c-0.8,1.3-1.7,0.7-2.3,0.1c-0.4-0.4-1-0.5-1.6-0.3
	c-2.3,1.1-4.6,2.5-6.7,4.2c-0.6,0.5-0.9,1.2-0.8,2c0.2,1.4-0.2,1.6-1,1.3c-0.8-0.3-1.8-0.1-2.4,0.6c-1.7,1.8-3.1,3.9-4.4,6.1
	c-0.2,0.3-0.2,0.8-0.1,1.1c0.6,1.5,0.2,1.7-0.2,1.7c-0.6-0.1-1.2,0.3-1.4,0.8C7.9,333.5,7.4,335.7,7.2,338.1z"/>
<path class="st5" d="M10.2,335.3c-0.2,0.2-0.5,0.2-0.7,0.1c-0.2-0.2-0.3-0.5-0.1-0.7c1.3-1.8,2.8-3.5,4.3-5.1c2.5-2.7,5.3-5,8.2-7.2
	c2.1-1.6,4.4-3.1,6.7-4.5c1.8-1,3.6-2,5.4-2.8c2.9-1.4,6-2.6,9.1-3.4c1.2-0.3,1.8-0.5,1.8-0.5c0.6-0.2,1.2,0.2,1.4,0.8
	c0.2,0.6-0.2,1.2-0.8,1.4c-0.6,0.2-1.2,0.3-1.8,0.5c-3.1,0.8-6.2,2-9.1,3.3c-1.7,0.8-3.4,1.6-5,2.5c-2.3,1.3-4.5,2.7-6.7,4.2
	c-2.9,2.1-5.6,4.3-8.2,6.7C13.2,332.1,11.6,333.7,10.2,335.3L10.2,335.3z"/>
<path class="st4" d="M-15,303.7c0,0,2.2,2.2,5.7,5c0.3,0.2,0.7,0.3,1.1,0.2c0.7-0.2,1.7-0.3,1.4,0.9c-0.1,0.5,0.1,0.9,0.4,1.2
	c1.8,1.4,3.9,2.8,6.1,4.2c0.6,0.3,1.3,0.3,1.8-0.1c1.3-1,2.3-0.2,2.1,1c-0.1,0.7,0.2,1.4,0.8,1.7c2,1,4.1,1.8,6.1,2.3
	c0.5,0.1,1,0,1.4-0.2c0.5-0.4,1.3-0.7,1.7,0.1c0.3,0.5,0.8,0.8,1.4,0.8c3.2,0.2,6.2-0.6,8.7-2.8c1.2-1,1.5-2.7,1.1-4.2
	c-0.5-2.2-2.2-4.5-4.6-6.5c-0.5-0.4-1.2-0.4-1.6-0.1c-0.2,0.1-0.4,0.2-0.7,0.2c-1.5,0.1-1.6-1-1.4-1.8c0.1-0.6-0.2-1.2-0.7-1.4
	c-2.2-1.2-4.7-2.2-7.4-3c-0.7-0.2-1.5,0-2.1,0.5c-1,1-1.4,0.8-1.6,0c-0.2-0.9-1-1.5-1.9-1.6c-2.5-0.3-5-0.3-7.5,0
	c-0.4,0-0.7,0.3-1,0.6c-0.8,1.3-1.3,1.2-1.5,0.8c-0.3-0.5-0.9-0.8-1.5-0.6C-10.9,301.6-13,302.5-15,303.7z"/>
<path class="st5" d="M-11,304.5c-0.3,0-0.5-0.2-0.5-0.5s0.2-0.5,0.5-0.5c2.2,0,4.5,0.2,6.7,0.5c3.6,0.5,7.2,1.4,10.7,2.4
	c2.6,0.8,5.1,1.8,7.6,2.9c1.9,0.8,3.7,1.8,5.4,2.7c2.8,1.6,5.6,3.4,8.1,5.4c0.9,0.8,1.4,1.2,1.4,1.2c0.5,0.4,0.5,1.1,0.2,1.6
	c-0.4,0.5-1.1,0.5-1.6,0.2c-0.5-0.4-1-0.8-1.4-1.2c-2.4-2.1-5.2-3.8-8-5.4c-1.6-0.9-3.3-1.8-5-2.6c-2.4-1.1-4.8-2.1-7.3-2.9
	c-3.3-1.1-6.8-2.1-10.2-2.7C-6.6,305-8.8,304.6-11,304.5L-11,304.5z"/>
<path class="st4" d="M-27.9,321.1c0,0,2.8,1.3,7,2.8c0.4,0.1,0.8,0.1,1.1-0.2c0.6-0.4,1.5-0.8,1.7,0.4c0.1,0.5,0.4,0.8,0.8,1
	c2.2,0.7,4.6,1.3,7.1,1.8c0.6,0.1,1.3-0.1,1.7-0.7c0.9-1.4,2.1-1,2.3,0.2c0.1,0.7,0.7,1.3,1.4,1.3c2.2,0.2,4.4,0.3,6.5,0.1
	c0.5,0,0.9-0.3,1.2-0.7c0.4-0.5,1-1.1,1.6-0.5c0.4,0.4,1,0.5,1.6,0.3c3.1-0.9,5.6-2.7,7.2-5.6c0.7-1.3,0.4-3-0.4-4.3
	c-1.3-1.9-3.6-3.4-6.6-4.5c-0.6-0.2-1.2,0-1.6,0.5c-0.1,0.2-0.3,0.4-0.6,0.5c-1.4,0.6-1.8-0.4-1.9-1.2c-0.1-0.6-0.5-1-1.1-1.1
	c-2.5-0.4-5.2-0.5-7.9-0.3c-0.8,0.1-1.5,0.5-1.8,1.2c-0.6,1.2-1.1,1.2-1.5,0.5c-0.5-0.7-1.4-1.1-2.3-0.8c-2.4,0.6-4.8,1.4-7,2.6
	c-0.4,0.2-0.6,0.5-0.7,0.9c-0.3,1.5-0.8,1.6-1.1,1.2c-0.4-0.4-1.1-0.4-1.6-0.1C-24.7,317.7-26.4,319.3-27.9,321.1z"/>
<path class="st5" d="M-23.9,320.5c-0.3,0.1-0.5-0.1-0.6-0.3c-0.1-0.3,0-0.6,0.3-0.7c2.1-0.8,4.3-1.4,6.4-1.8
	c3.6-0.8,7.2-1.2,10.9-1.4c2.7-0.1,5.4-0.1,8.1,0.1c2,0.2,4.1,0.4,6.1,0.7c3.2,0.5,6.4,1.3,9.5,2.3c1.1,0.4,1.8,0.6,1.8,0.6
	c0.6,0.2,0.9,0.8,0.7,1.4c-0.2,0.6-0.8,0.9-1.4,0.7c-0.6-0.2-1.2-0.4-1.7-0.6c-3-1.1-6.2-1.8-9.4-2.4c-1.8-0.3-3.7-0.5-5.6-0.7
	c-2.6-0.2-5.2-0.3-7.9-0.3c-3.5,0.1-7.1,0.4-10.6,1C-19.6,319.5-21.8,319.9-23.9,320.5L-23.9,320.5z"/>
<path class="st4" d="M-51.1,305.2c0,0,2.6,1.7,6.5,3.9c0.3,0.2,0.7,0.2,1.1,0c0.6-0.3,1.6-0.6,1.6,0.6c0,0.5,0.2,0.9,0.7,1.1
	c2.1,1,4.3,2.1,6.7,3c0.6,0.2,1.3,0.1,1.7-0.4c1.1-1.2,2.2-0.6,2.2,0.6c0,0.7,0.5,1.4,1.1,1.5c2.2,0.6,4.3,1,6.4,1.2
	c0.5,0,1-0.1,1.3-0.5c0.4-0.4,1.1-0.9,1.7-0.2c0.4,0.4,0.9,0.7,1.5,0.6c3.2-0.4,6-1.7,8-4.3c1-1.2,0.9-2.9,0.3-4.4
	c-0.9-2.1-3-4-5.7-5.6c-0.5-0.3-1.2-0.2-1.6,0.2c-0.2,0.2-0.4,0.3-0.7,0.4c-1.5,0.4-1.7-0.7-1.7-1.5c0-0.6-0.4-1.1-0.9-1.3
	c-2.4-0.8-5-1.4-7.8-1.6c-0.8-0.1-1.5,0.3-2,0.9c-0.8,1.1-1.2,1-1.6,0.3c-0.4-0.8-1.2-1.3-2.1-1.2c-2.5,0.2-4.9,0.6-7.3,1.4
	c-0.4,0.1-0.7,0.4-0.8,0.8c-0.6,1.5-1,1.4-1.3,1c-0.4-0.5-1-0.6-1.6-0.3C-47.5,302.4-49.4,303.6-51.1,305.2z"/>
<path class="st5" d="M-47.1,305.3c-0.3,0-0.5-0.2-0.6-0.4c-0.1-0.3,0.1-0.6,0.4-0.6c2.2-0.4,4.4-0.6,6.6-0.7c3.7-0.2,7.3,0,10.9,0.5
	c2.7,0.3,5.3,0.8,8,1.4c2,0.5,3.9,1.1,5.8,1.7c3.1,1.1,6.1,2.3,8.9,3.9c1,0.6,1.6,0.9,1.6,0.9c0.5,0.3,0.7,1,0.4,1.5
	c-0.3,0.5-1,0.7-1.5,0.4c-0.5-0.3-1.1-0.6-1.6-0.9c-2.8-1.6-5.9-2.8-8.9-3.9c-1.8-0.6-3.6-1.2-5.4-1.6c-2.5-0.7-5.1-1.2-7.7-1.6
	c-3.5-0.5-7-0.8-10.6-0.8C-42.7,305-44.9,305-47.1,305.3L-47.1,305.3z"/>
<path class="st4" d="M-35.7,342c0,0,3.1-0.2,7.5-0.9c0.4-0.1,0.7-0.3,0.9-0.7c0.3-0.6,0.9-1.4,1.6-0.5c0.3,0.4,0.7,0.6,1.2,0.5
	c2.3-0.5,4.7-1,7.1-1.8c0.6-0.2,1.1-0.7,1.1-1.4c0.1-1.7,1.4-1.8,2.1-0.9c0.4,0.6,1.2,0.8,1.9,0.5c2.1-0.9,4-1.8,5.8-3
	c0.4-0.3,0.7-0.7,0.7-1.2c0.1-0.6,0.3-1.4,1.2-1.2c0.6,0.1,1.1,0,1.5-0.5c2.2-2.3,3.7-5,3.7-8.3c0-1.5-1.1-2.9-2.5-3.6
	c-2-1.1-4.8-1.3-7.9-0.9c-0.6,0.1-1.1,0.6-1.1,1.2c0,0.2-0.1,0.5-0.3,0.7c-0.9,1.2-1.8,0.5-2.3-0.1c-0.3-0.5-1-0.6-1.5-0.4
	c-2.4,0.8-4.8,2-7.1,3.5c-0.6,0.4-1,1.1-1,1.9c0,1.4-0.3,1.6-1.1,1.2s-1.7-0.3-2.4,0.3c-1.8,1.7-3.5,3.5-4.9,5.6
	c-0.2,0.3-0.3,0.7-0.2,1.1c0.4,1.5,0.1,1.7-0.4,1.6c-0.6-0.1-1.2,0.2-1.5,0.7C-34.6,337.6-35.3,339.7-35.7,342z"/>
<path class="st5" d="M-32.5,339.6c-0.2,0.2-0.5,0.2-0.7,0s-0.2-0.5-0.1-0.7c1.5-1.7,3.1-3.2,4.8-4.7c2.8-2.4,5.8-4.5,8.9-6.4
	c2.3-1.4,4.7-2.7,7.2-3.8c1.9-0.8,3.8-1.6,5.7-2.3c3.1-1.1,6.2-1.9,9.4-2.5c1.2-0.2,1.9-0.3,1.9-0.3c0.6-0.1,1.2,0.3,1.3,0.9
	c0.1,0.6-0.3,1.2-0.9,1.3c-0.6,0.1-1.2,0.2-1.8,0.3c-3.2,0.5-6.4,1.4-9.4,2.4c-1.8,0.6-3.5,1.3-5.2,2c-2.4,1-4.8,2.2-7,3.5
	c-3.1,1.8-6,3.7-8.8,5.9C-29.2,336.7-30.9,338.1-32.5,339.6L-32.5,339.6z"/>
<path class="st4" d="M-62.6,329.2c0,0,3,0.7,7.5,1.2c0.4,0,0.8-0.1,1-0.4c0.5-0.5,1.3-1.1,1.7,0c0.2,0.4,0.6,0.7,1,0.8
	c2.3,0.2,4.8,0.3,7.4,0.3c0.7,0,1.2-0.4,1.5-1c0.6-1.6,1.8-1.4,2.3-0.3c0.3,0.7,0.9,1.1,1.6,1c2.2-0.2,4.4-0.7,6.4-1.3
	c0.5-0.1,0.8-0.5,1-0.9c0.2-0.6,0.7-1.2,1.5-0.8c0.5,0.3,1.1,0.3,1.6,0c2.8-1.6,4.9-3.8,5.8-7c0.4-1.5-0.2-3.1-1.4-4.1
	c-1.6-1.6-4.3-2.6-7.4-3c-0.6-0.1-1.2,0.3-1.4,0.8c-0.1,0.2-0.2,0.4-0.5,0.6c-1.2,0.9-1.8,0-2.1-0.8c-0.2-0.5-0.7-0.9-1.3-0.9
	c-2.5,0.2-5.2,0.6-7.8,1.4c-0.7,0.2-1.3,0.8-1.5,1.6c-0.3,1.4-0.8,1.4-1.4,0.8c-0.6-0.6-1.6-0.7-2.4-0.3c-2.2,1.1-4.4,2.4-6.3,4
	c-0.3,0.3-0.5,0.6-0.5,1c0,1.6-0.4,1.7-0.8,1.5c-0.5-0.3-1.2-0.2-1.6,0.3C-60.2,325.3-61.5,327.1-62.6,329.2z"/>
<path class="st5" d="M-58.8,327.8c-0.2,0.1-0.5,0.1-0.7-0.2c-0.2-0.2-0.1-0.6,0.2-0.7c1.9-1.2,3.9-2.2,5.9-3.2
	c3.3-1.5,6.8-2.7,10.3-3.7c2.6-0.7,5.3-1.3,7.9-1.6c2-0.3,4.1-0.5,6.1-0.6c3.2-0.2,6.5-0.1,9.7,0.3c1.2,0.1,1.9,0.2,1.9,0.2
	c0.6,0.1,1,0.6,1,1.2c-0.1,0.6-0.6,1-1.2,1c-0.6-0.1-1.2-0.1-1.8-0.2c-3.2-0.4-6.5-0.4-9.7-0.3c-1.9,0.1-3.7,0.3-5.6,0.5
	c-2.6,0.3-5.2,0.8-7.7,1.4c-3.4,0.9-6.8,1.9-10.1,3.2C-54.8,325.9-56.9,326.7-58.8,327.8L-58.8,327.8z"/>
<path class="st4" d="M-73.6,310.4c0,0,2.3,2.1,5.9,4.7c0.3,0.2,0.7,0.3,1.1,0.2c0.7-0.2,1.7-0.4,1.5,0.8c-0.1,0.5,0.1,0.9,0.5,1.2
	c1.9,1.3,4,2.6,6.3,3.9c0.6,0.3,1.3,0.2,1.8-0.2c1.3-1.1,2.3-0.3,2.1,0.9c-0.1,0.7,0.3,1.4,0.9,1.7c2.1,0.9,4.1,1.6,6.2,2.1
	c0.5,0.1,1,0,1.3-0.3c0.5-0.4,1.2-0.7,1.7,0c0.3,0.5,0.8,0.8,1.4,0.8c3.2,0,6.1-0.9,8.5-3.2c1.1-1.1,1.3-2.8,0.9-4.3
	c-0.7-2.2-2.4-4.4-4.9-6.3c-0.5-0.4-1.2-0.4-1.7,0c-0.2,0.1-0.4,0.2-0.7,0.3c-1.5,0.2-1.6-0.9-1.5-1.7c0.1-0.6-0.2-1.1-0.7-1.4
	c-2.3-1.1-4.8-2-7.5-2.6c-0.7-0.2-1.5,0.1-2.1,0.6c-1,1-1.4,0.9-1.6,0c-0.3-0.8-1-1.4-1.9-1.5c-2.5-0.2-5-0.1-7.5,0.4
	c-0.4,0.1-0.7,0.3-0.9,0.7c-0.8,1.4-1.2,1.3-1.5,0.9c-0.3-0.5-0.9-0.7-1.5-0.6C-69.6,308.1-71.7,309.1-73.6,310.4z"/>
<path class="st5" d="M-69.6,311c-0.3,0-0.5-0.2-0.5-0.5s0.2-0.5,0.5-0.6c2.2-0.1,4.5,0,6.7,0.2c3.6,0.3,7.2,1,10.8,1.9
	c2.6,0.7,5.2,1.5,7.7,2.5c1.9,0.7,3.8,1.6,5.6,2.5c2.9,1.5,5.7,3.1,8.3,5c1,0.7,1.5,1.1,1.5,1.1c0.5,0.4,0.6,1.1,0.2,1.6
	c-0.4,0.5-1.1,0.6-1.6,0.2s-1-0.7-1.5-1.1c-2.5-2-5.4-3.6-8.3-5.1c-1.7-0.9-3.4-1.6-5.1-2.4c-2.4-1-4.9-1.9-7.4-2.6
	c-3.4-1-6.9-1.7-10.4-2.2C-65.2,311.4-67.4,311.1-69.6,311L-69.6,311z"/>
<path class="st4" d="M48.6,307.8c0,0,1,2.9,2.8,7c0.2,0.4,0.5,0.6,0.9,0.7c0.7,0.1,1.6,0.5,0.9,1.5c-0.3,0.4-0.3,0.9-0.1,1.3
	c1,2.1,2.2,4.3,3.6,6.4c0.3,0.6,1,0.8,1.6,0.7c1.6-0.3,2.1,0.9,1.4,1.8c-0.4,0.6-0.4,1.4,0,1.9c1.4,1.8,2.8,3.4,4.4,4.8
	c0.4,0.3,0.8,0.5,1.3,0.4c0.6-0.1,1.4,0,1.4,0.9c0,0.6,0.3,1.1,0.8,1.4c2.8,1.6,5.8,2.2,9,1.4c1.5-0.4,2.5-1.8,2.9-3.3
	c0.5-2.2,0-5-1.2-7.9c-0.2-0.6-0.8-0.9-1.5-0.8c-0.2,0-0.5,0-0.8-0.1c-1.4-0.6-1-1.6-0.5-2.2c0.4-0.5,0.4-1.1,0-1.6
	c-1.4-2.1-3.2-4.1-5.2-6c-0.6-0.5-1.4-0.7-2.1-0.5c-1.3,0.4-1.6,0.1-1.4-0.8c0.2-0.9-0.2-1.8-0.9-2.2c-2.1-1.4-4.3-2.5-6.7-3.3
	c-0.4-0.1-0.8-0.1-1.1,0.1c-1.3,0.8-1.7,0.5-1.7,0c0-0.6-0.5-1.1-1.1-1.2C53.2,307.8,50.9,307.7,48.6,307.8z"/>
<path class="st5" d="M51.7,310.4c-0.2-0.1-0.3-0.4-0.2-0.7c0.1-0.3,0.4-0.4,0.7-0.2c2,1,3.9,2.2,5.7,3.4c3,2.1,5.8,4.4,8.5,6.9
	c2,1.9,3.8,3.9,5.5,5.9c1.3,1.6,2.5,3.2,3.6,4.9c1.8,2.7,3.5,5.5,4.8,8.5c0.5,1.1,0.8,1.7,0.8,1.7c0.3,0.6,0,1.2-0.6,1.5
	s-1.2,0-1.5-0.6s-0.5-1.1-0.8-1.7c-1.3-2.9-3-5.8-4.7-8.4c-1-1.6-2.2-3.1-3.3-4.6c-1.6-2.1-3.4-4-5.2-5.9c-2.5-2.5-5.1-4.9-7.9-7
	C55.4,312.8,53.6,311.5,51.7,310.4L51.7,310.4z"/>
<path class="st4" d="M35.4,323.7c0,0,2.2,2.2,5.6,5c0.3,0.2,0.7,0.3,1.1,0.2c0.7-0.2,1.7-0.3,1.4,0.9c-0.1,0.5,0.1,0.9,0.4,1.2
	c1.8,1.4,3.9,2.8,6.1,4.2c0.6,0.3,1.3,0.3,1.8-0.1c1.3-1,2.3-0.2,2.1,1c-0.1,0.7,0.2,1.4,0.8,1.7c2,1,4,1.8,6.1,2.4
	c0.5,0.1,1,0.1,1.4-0.2c0.5-0.3,1.3-0.7,1.7,0.1c0.3,0.5,0.8,0.8,1.4,0.9c3.2,0.2,6.2-0.6,8.7-2.7c1.2-1,1.5-2.7,1.1-4.2
	c-0.5-2.2-2.2-4.5-4.6-6.5c-0.5-0.4-1.2-0.4-1.6-0.1c-0.2,0.1-0.4,0.2-0.7,0.2c-1.5,0.1-1.6-1-1.4-1.8c0.1-0.6-0.2-1.2-0.7-1.4
	c-2.2-1.2-4.7-2.3-7.4-3c-0.7-0.2-1.5,0-2.1,0.5c-1,1-1.4,0.8-1.6,0c-0.2-0.9-1-1.5-1.8-1.6c-2.5-0.3-5-0.3-7.5,0
	c-0.4,0-0.7,0.3-1,0.6c-0.8,1.3-1.3,1.2-1.5,0.8c-0.3-0.5-0.9-0.8-1.5-0.6C39.5,321.7,37.4,322.5,35.4,323.7z"/>
<path class="st5" d="M39.4,324.5c-0.3,0-0.5-0.2-0.5-0.5s0.2-0.5,0.5-0.5c2.2,0,4.5,0.2,6.7,0.5c3.6,0.5,7.2,1.4,10.7,2.5
	c2.6,0.8,5.1,1.8,7.6,2.9c1.8,0.8,3.7,1.8,5.4,2.8c2.8,1.6,5.6,3.4,8.1,5.5c0.9,0.8,1.4,1.2,1.4,1.2c0.5,0.4,0.5,1.1,0.2,1.6
	c-0.4,0.5-1.1,0.5-1.6,0.2c-0.5-0.4-1-0.8-1.4-1.2c-2.4-2.1-5.2-3.9-8-5.5c-1.6-0.9-3.3-1.8-5-2.6c-2.4-1.1-4.8-2.1-7.3-3
	c-3.3-1.1-6.8-2.1-10.2-2.7C43.7,325.1,41.5,324.7,39.4,324.5L39.4,324.5z"/>
<path class="st4" d="M11.9,320.5c0,0,2.8,1.4,6.9,3c0.4,0.1,0.8,0.1,1.1-0.1c0.6-0.4,1.5-0.8,1.7,0.4c0.1,0.5,0.4,0.9,0.8,1
	c2.2,0.8,4.6,1.5,7,2.1c0.6,0.2,1.3-0.1,1.7-0.6c1-1.4,2.1-0.9,2.3,0.3c0.1,0.7,0.6,1.3,1.3,1.4c2.2,0.3,4.4,0.5,6.5,0.4
	c0.5,0,0.9-0.2,1.2-0.6c0.4-0.5,1-1,1.6-0.4c0.4,0.4,1,0.5,1.6,0.4c3.1-0.8,5.7-2.5,7.4-5.3c0.8-1.3,0.6-3-0.3-4.4
	c-1.2-1.9-3.5-3.6-6.4-4.8c-0.6-0.2-1.2-0.1-1.6,0.5c-0.1,0.2-0.3,0.3-0.6,0.5c-1.4,0.5-1.8-0.4-1.9-1.3c-0.1-0.6-0.5-1-1.1-1.2
	c-2.5-0.5-5.2-0.7-7.9-0.6c-0.8,0-1.5,0.4-1.8,1.1c-0.7,1.2-1.1,1.2-1.6,0.5s-1.4-1.1-2.2-0.9c-2.4,0.5-4.8,1.2-7.1,2.3
	c-0.4,0.2-0.6,0.5-0.7,0.9c-0.4,1.5-0.8,1.5-1.2,1.2c-0.4-0.4-1.1-0.5-1.6-0.1C15.2,317.3,13.5,318.8,11.9,320.5z"/>
<path class="st5" d="M15.9,320.1c-0.3,0.1-0.5-0.1-0.6-0.3c-0.1-0.3,0.1-0.6,0.3-0.7c2.1-0.7,4.3-1.2,6.5-1.6
	c3.6-0.6,7.3-0.9,10.9-0.9c2.7,0,5.4,0.1,8.1,0.4c2,0.2,4,0.6,6,1c3.2,0.7,6.3,1.5,9.4,2.7c1.1,0.4,1.7,0.7,1.7,0.7
	c0.6,0.2,0.9,0.9,0.6,1.4c-0.2,0.6-0.9,0.9-1.4,0.6c-0.6-0.2-1.1-0.5-1.7-0.7c-3-1.2-6.2-2.1-9.3-2.8c-1.8-0.4-3.7-0.7-5.5-0.9
	c-2.6-0.4-5.2-0.5-7.9-0.6c-3.5,0-7.1,0.1-10.6,0.5C20.3,319.3,18.1,319.6,15.9,320.1L15.9,320.1z"/>
<path class="st4" d="M9.4,350.4c0,0,3.1-0.5,7.4-1.7c0.4-0.1,0.7-0.4,0.8-0.7c0.2-0.7,0.8-1.5,1.6-0.6c0.3,0.3,0.8,0.5,1.2,0.3
	c2.2-0.7,4.6-1.5,6.9-2.5c0.6-0.3,1-0.8,1-1.5c0-1.7,1.2-2,2-1.1c0.5,0.5,1.3,0.7,1.9,0.3c2-1.1,3.8-2.2,5.4-3.5
	c0.4-0.3,0.6-0.8,0.6-1.2c0-0.6,0.2-1.4,1.1-1.3c0.6,0.1,1.1-0.2,1.5-0.6c2-2.5,3.1-5.4,2.8-8.6c-0.1-1.5-1.3-2.8-2.8-3.3
	c-2.1-0.8-4.9-0.8-8-0.1c-0.6,0.1-1,0.7-1,1.3c0,0.2-0.1,0.5-0.2,0.7c-0.8,1.3-1.7,0.7-2.3,0.1c-0.4-0.4-1-0.5-1.6-0.3
	c-2.3,1.1-4.6,2.5-6.7,4.2c-0.6,0.5-0.9,1.2-0.8,2c0.2,1.4-0.2,1.6-1,1.3c-0.8-0.3-1.8-0.1-2.4,0.6c-1.7,1.8-3.1,3.9-4.4,6.1
	c-0.2,0.3-0.2,0.8-0.1,1.1c0.6,1.5,0.2,1.7-0.2,1.7c-0.6-0.1-1.2,0.3-1.4,0.8C10.2,345.9,9.6,348.1,9.4,350.4z"/>
<path class="st5" d="M12.4,347.7c-0.2,0.2-0.5,0.2-0.7,0.1c-0.2-0.2-0.3-0.5-0.1-0.7c1.3-1.8,2.8-3.5,4.3-5.1c2.5-2.7,5.3-5,8.2-7.2
	c2.1-1.6,4.4-3.1,6.7-4.5c1.8-1,3.6-2,5.4-2.8c2.9-1.4,6-2.6,9.1-3.4c1.2-0.3,1.8-0.5,1.8-0.5c0.6-0.2,1.2,0.2,1.4,0.8
	c0.2,0.6-0.2,1.2-0.8,1.4c-0.6,0.2-1.2,0.3-1.8,0.5c-3.1,0.8-6.2,2-9.1,3.3c-1.7,0.8-3.4,1.6-5,2.5c-2.3,1.3-4.5,2.7-6.7,4.2
	c-2.9,2.1-5.6,4.3-8.2,6.7C15.4,344.5,13.8,346,12.4,347.7L12.4,347.7z"/>
<path class="st4" d="M-12.7,316c0,0,2.2,2.2,5.7,5c0.3,0.2,0.7,0.3,1.1,0.2c0.7-0.2,1.7-0.3,1.4,0.9c-0.1,0.5,0.1,0.9,0.4,1.2
	c1.8,1.4,3.9,2.8,6.1,4.2c0.6,0.3,1.3,0.3,1.8-0.1c1.3-1,2.3-0.2,2.1,1c-0.1,0.7,0.2,1.4,0.8,1.7c2,1,4.1,1.8,6.1,2.3
	c0.5,0.1,1,0,1.4-0.2c0.5-0.4,1.3-0.7,1.7,0.1c0.3,0.5,0.8,0.8,1.4,0.8c3.2,0.2,6.2-0.6,8.7-2.8c1.2-1,1.5-2.7,1.1-4.2
	c-0.5-2.2-2.2-4.5-4.6-6.5c-0.5-0.4-1.2-0.4-1.6-0.1c-0.2,0.1-0.4,0.2-0.7,0.2c-1.5,0.1-1.6-1-1.4-1.8c0.1-0.6-0.2-1.2-0.7-1.4
	c-2.2-1.2-4.7-2.2-7.4-3c-0.7-0.2-1.5,0-2.1,0.5c-1,1-1.4,0.8-1.6,0c-0.2-0.9-1-1.5-1.9-1.6c-2.5-0.3-5-0.3-7.5,0
	c-0.4,0-0.7,0.3-1,0.6c-0.8,1.3-1.3,1.2-1.5,0.8c-0.3-0.5-0.9-0.8-1.5-0.6C-8.6,314-10.7,314.8-12.7,316z"/>
<path class="st5" d="M-8.8,316.9c-0.3,0-0.5-0.2-0.5-0.5s0.2-0.5,0.5-0.5c2.2,0,4.5,0.2,6.7,0.5c3.6,0.5,7.2,1.4,10.7,2.4
	c2.6,0.8,5.1,1.8,7.6,2.9c1.9,0.8,3.7,1.8,5.4,2.7c2.8,1.6,5.6,3.4,8.1,5.4c0.9,0.8,1.4,1.2,1.4,1.2c0.5,0.4,0.5,1.1,0.2,1.6
	c-0.4,0.5-1.1,0.5-1.6,0.2c-0.5-0.4-1-0.8-1.4-1.2c-2.4-2.1-5.2-3.8-8-5.4c-1.6-0.9-3.3-1.8-5-2.6c-2.4-1.1-4.8-2.1-7.3-2.9
	c-3.3-1.1-6.8-2.1-10.2-2.7C-4.4,317.4-6.6,317-8.8,316.9L-8.8,316.9z"/>
<path class="st4" d="M-25.7,333.5c0,0,2.8,1.3,7,2.8c0.4,0.1,0.8,0.1,1.1-0.2c0.6-0.4,1.5-0.8,1.7,0.4c0.1,0.5,0.4,0.8,0.8,1
	c2.2,0.7,4.6,1.3,7.1,1.8c0.6,0.1,1.3-0.1,1.7-0.7c0.9-1.4,2.1-1,2.3,0.2c0.1,0.7,0.7,1.3,1.4,1.3c2.2,0.2,4.4,0.3,6.5,0.1
	c0.5,0,0.9-0.3,1.2-0.7c0.4-0.5,1-1.1,1.6-0.5c0.4,0.4,1,0.5,1.6,0.3c3.1-0.9,5.6-2.7,7.2-5.6c0.7-1.3,0.4-3-0.4-4.3
	c-1.3-1.9-3.6-3.4-6.6-4.5c-0.6-0.2-1.2,0-1.6,0.5c-0.1,0.2-0.3,0.4-0.6,0.5c-1.4,0.6-1.8-0.4-1.9-1.2c-0.1-0.6-0.5-1-1.1-1.1
	c-2.5-0.4-5.2-0.5-7.9-0.3c-0.8,0.1-1.5,0.5-1.8,1.2c-0.6,1.2-1.1,1.2-1.5,0.5c-0.5-0.7-1.4-1.1-2.3-0.8c-2.4,0.6-4.8,1.4-7,2.6
	c-0.4,0.2-0.6,0.5-0.7,0.9c-0.3,1.5-0.8,1.6-1.1,1.2c-0.4-0.4-1.1-0.4-1.6-0.1C-22.5,330.1-24.2,331.7-25.7,333.5z"/>
<path class="st5" d="M-21.7,332.9c-0.3,0.1-0.5-0.1-0.6-0.3c-0.1-0.3,0-0.6,0.3-0.7c2.1-0.8,4.3-1.4,6.4-1.8
	c3.6-0.8,7.2-1.2,10.9-1.4c2.7-0.1,5.4-0.1,8.1,0.1c2,0.2,4.1,0.4,6.1,0.7c3.2,0.5,6.4,1.3,9.5,2.3c1.1,0.4,1.8,0.6,1.8,0.6
	c0.6,0.2,0.9,0.8,0.7,1.4s-0.8,0.9-1.4,0.7c-0.6-0.2-1.2-0.4-1.7-0.6c-3-1.1-6.2-1.8-9.4-2.4c-1.8-0.3-3.7-0.5-5.6-0.7
	c-2.6-0.2-5.2-0.3-7.9-0.3c-3.5,0.1-7.1,0.4-10.6,1C-17.4,331.9-19.6,332.3-21.7,332.9L-21.7,332.9z"/>
<path class="st4" d="M-48.9,317.5c0,0,2.6,1.7,6.5,3.9c0.3,0.2,0.7,0.2,1.1,0c0.6-0.3,1.6-0.6,1.6,0.6c0,0.5,0.2,0.9,0.7,1.1
	c2.1,1,4.3,2.1,6.7,3c0.6,0.2,1.3,0.1,1.7-0.4c1.1-1.2,2.2-0.6,2.2,0.6c0,0.7,0.5,1.4,1.1,1.5c2.2,0.6,4.3,1,6.4,1.2
	c0.5,0,1-0.1,1.3-0.5c0.4-0.4,1.1-0.9,1.7-0.2c0.4,0.4,0.9,0.7,1.5,0.6c3.2-0.4,6-1.7,8-4.3c1-1.2,0.9-2.9,0.3-4.4
	c-0.9-2.1-3-4-5.7-5.6c-0.5-0.3-1.2-0.2-1.6,0.2c-0.2,0.2-0.4,0.3-0.7,0.4c-1.5,0.4-1.7-0.7-1.7-1.5c0-0.6-0.4-1.1-0.9-1.3
	c-2.4-0.8-5-1.4-7.8-1.6c-0.8-0.1-1.5,0.3-2,0.9c-0.8,1.1-1.2,1-1.6,0.3c-0.4-0.8-1.2-1.3-2.1-1.2c-2.5,0.2-4.9,0.6-7.3,1.4
	c-0.4,0.1-0.7,0.4-0.8,0.8c-0.6,1.5-1,1.4-1.3,1c-0.4-0.5-1-0.6-1.6-0.3C-45.2,314.8-47.2,316-48.9,317.5z"/>
<path class="st5" d="M-44.9,317.6c-0.3,0-0.5-0.2-0.6-0.4c-0.1-0.3,0.1-0.6,0.4-0.6c2.2-0.4,4.4-0.6,6.6-0.7c3.7-0.2,7.3,0,10.9,0.5
	c2.7,0.3,5.3,0.8,8,1.4c2,0.5,3.9,1.1,5.8,1.7c3.1,1.1,6.1,2.3,8.9,3.9c1,0.6,1.6,0.9,1.6,0.9c0.5,0.3,0.7,1,0.4,1.5s-1,0.7-1.5,0.4
	c-0.5-0.3-1.1-0.6-1.6-0.9c-2.8-1.6-5.9-2.8-8.9-3.9c-1.8-0.6-3.6-1.2-5.4-1.6c-2.5-0.7-5.1-1.2-7.7-1.6c-3.5-0.5-7-0.8-10.6-0.8
	C-40.4,317.4-42.7,317.4-44.9,317.6L-44.9,317.6z"/>
<path class="st4" d="M-33.5,354.4c0,0,3.1-0.2,7.5-0.9c0.4-0.1,0.7-0.3,0.9-0.7c0.3-0.6,0.9-1.4,1.6-0.5c0.3,0.4,0.7,0.6,1.2,0.5
	c2.3-0.5,4.7-1,7.1-1.8c0.6-0.2,1.1-0.7,1.1-1.4c0.1-1.7,1.4-1.8,2.1-0.9c0.4,0.6,1.2,0.8,1.9,0.5c2.1-0.9,4-1.8,5.8-3
	c0.4-0.3,0.7-0.7,0.7-1.2c0.1-0.6,0.3-1.4,1.2-1.2c0.6,0.1,1.1,0,1.5-0.5c2.2-2.3,3.7-5,3.7-8.3c0-1.5-1.1-2.9-2.5-3.6
	c-2-1.1-4.8-1.3-7.9-0.9c-0.6,0.1-1.1,0.6-1.1,1.2c0,0.2-0.1,0.5-0.3,0.7c-0.9,1.2-1.8,0.5-2.3-0.1c-0.3-0.5-1-0.6-1.5-0.4
	c-2.4,0.8-4.8,2-7.1,3.5c-0.6,0.4-1,1.1-1,1.9c0,1.4-0.3,1.6-1.1,1.2s-1.7-0.3-2.4,0.3c-1.8,1.7-3.5,3.5-4.9,5.6
	c-0.2,0.3-0.3,0.7-0.2,1.1c0.4,1.5,0.1,1.7-0.4,1.6c-0.6-0.1-1.2,0.2-1.5,0.7C-32.3,349.9-33.1,352.1-33.5,354.4z"/>
<path class="st5" d="M-30.3,352c-0.2,0.2-0.5,0.2-0.7,0s-0.2-0.5-0.1-0.7c1.5-1.7,3.1-3.2,4.8-4.7c2.8-2.4,5.8-4.5,8.9-6.4
	c2.3-1.4,4.7-2.7,7.2-3.8c1.9-0.8,3.8-1.6,5.7-2.3c3.1-1.1,6.2-1.9,9.4-2.5c1.2-0.2,1.9-0.3,1.9-0.3c0.6-0.1,1.2,0.3,1.3,0.9
	c0.1,0.6-0.3,1.2-0.9,1.3c-0.6,0.1-1.2,0.2-1.8,0.3c-3.2,0.5-6.4,1.4-9.4,2.4c-1.8,0.6-3.5,1.3-5.2,2c-2.4,1-4.8,2.2-7,3.5
	c-3.1,1.8-6,3.7-8.8,5.9C-27,349.1-28.7,350.4-30.3,352L-30.3,352z"/>
<path class="st4" d="M-60.4,341.6c0,0,3,0.7,7.5,1.2c0.4,0,0.8-0.1,1-0.4c0.5-0.5,1.3-1.1,1.7,0c0.2,0.4,0.6,0.7,1,0.8
	c2.3,0.2,4.8,0.3,7.4,0.3c0.7,0,1.2-0.4,1.5-1c0.6-1.6,1.8-1.4,2.3-0.3c0.3,0.7,0.9,1.1,1.6,1c2.2-0.2,4.4-0.7,6.4-1.3
	c0.5-0.1,0.8-0.5,1-0.9c0.2-0.6,0.7-1.2,1.5-0.8c0.5,0.3,1.1,0.3,1.6,0c2.8-1.6,4.9-3.8,5.8-7c0.4-1.5-0.2-3.1-1.4-4.1
	c-1.6-1.6-4.3-2.6-7.4-3c-0.6-0.1-1.2,0.3-1.4,0.8c-0.1,0.2-0.2,0.4-0.5,0.6c-1.2,0.9-1.8,0-2.1-0.8c-0.2-0.5-0.7-0.9-1.3-0.9
	c-2.5,0.2-5.2,0.6-7.8,1.4c-0.7,0.2-1.3,0.8-1.5,1.6c-0.3,1.4-0.8,1.4-1.4,0.8c-0.6-0.6-1.6-0.7-2.4-0.3c-2.2,1.1-4.4,2.4-6.3,4
	c-0.3,0.3-0.5,0.6-0.5,1c0,1.6-0.4,1.7-0.8,1.5c-0.5-0.3-1.2-0.2-1.6,0.3C-58,337.6-59.3,339.5-60.4,341.6z"/>
<path class="st5" d="M-56.6,340.2c-0.2,0.1-0.5,0.1-0.7-0.2c-0.2-0.2-0.1-0.6,0.2-0.7c1.9-1.2,3.9-2.2,5.9-3.2
	c3.3-1.5,6.8-2.7,10.3-3.7c2.6-0.7,5.3-1.3,7.9-1.6c2-0.3,4.1-0.5,6.1-0.6c3.2-0.2,6.5-0.1,9.7,0.3c1.2,0.1,1.9,0.2,1.9,0.2
	c0.6,0.1,1,0.6,1,1.2c-0.1,0.6-0.6,1-1.2,1c-0.6-0.1-1.2-0.1-1.8-0.2c-3.2-0.4-6.5-0.4-9.7-0.3c-1.9,0.1-3.7,0.3-5.6,0.5
	c-2.6,0.3-5.2,0.8-7.7,1.4c-3.4,0.9-6.8,1.9-10.1,3.2C-52.6,338.3-54.7,339.1-56.6,340.2L-56.6,340.2z"/>
<path class="st4" d="M-71.4,322.7c0,0,2.3,2.1,5.9,4.7c0.3,0.2,0.7,0.3,1.1,0.2c0.7-0.2,1.7-0.4,1.5,0.8c-0.1,0.5,0.1,0.9,0.5,1.2
	c1.9,1.3,4,2.6,6.3,3.9c0.6,0.3,1.3,0.2,1.8-0.2c1.3-1.1,2.3-0.3,2.1,0.9c-0.1,0.7,0.3,1.4,0.9,1.7c2.1,0.9,4.1,1.6,6.2,2.1
	c0.5,0.1,1,0,1.3-0.3c0.5-0.4,1.2-0.7,1.7,0c0.3,0.5,0.8,0.8,1.4,0.8c3.2,0,6.1-0.9,8.5-3.2c1.1-1.1,1.3-2.8,0.9-4.3
	c-0.7-2.2-2.4-4.4-4.9-6.3c-0.5-0.4-1.2-0.4-1.7,0c-0.2,0.1-0.4,0.2-0.7,0.3c-1.5,0.2-1.6-0.9-1.5-1.7c0.1-0.6-0.2-1.1-0.7-1.4
	c-2.3-1.1-4.8-2-7.5-2.6c-0.7-0.2-1.5,0.1-2.1,0.6c-1,1-1.4,0.9-1.6,0c-0.3-0.8-1-1.4-1.9-1.5c-2.5-0.2-5-0.1-7.5,0.4
	c-0.4,0.1-0.7,0.3-0.9,0.7c-0.8,1.4-1.2,1.3-1.5,0.9c-0.3-0.5-0.9-0.7-1.5-0.6C-67.4,320.5-69.5,321.5-71.4,322.7z"/>
<path class="st5" d="M-67.4,323.4c-0.3,0-0.5-0.2-0.5-0.5s0.2-0.5,0.5-0.6c2.2-0.1,4.5,0,6.7,0.2c3.6,0.3,7.2,1,10.8,1.9
	c2.6,0.7,5.2,1.5,7.7,2.5c1.9,0.7,3.8,1.6,5.6,2.5c2.9,1.5,5.7,3.1,8.3,5c1,0.7,1.5,1.1,1.5,1.1c0.5,0.4,0.6,1.1,0.2,1.6
	c-0.4,0.5-1.1,0.6-1.6,0.2s-1-0.7-1.5-1.1c-2.5-2-5.4-3.6-8.3-5.1c-1.7-0.9-3.4-1.6-5.1-2.4c-2.4-1-4.9-1.9-7.4-2.6
	c-3.4-1-6.9-1.7-10.4-2.2C-63,323.7-65.2,323.4-67.4,323.4L-67.4,323.4z"/>
<path class="st4" d="M106.3,308.3c-0.6,0.1-1,0.6-1.1,1.2c0,0.5-0.3,0.8-1.7,0c-0.3-0.2-0.8-0.3-1.1-0.1c-2.4,0.8-4.6,2-6.7,3.3
	c-0.7,0.5-1.1,1.4-0.9,2.2c0.2,0.8-0.1,1.2-1.4,0.8c-0.7-0.2-1.5,0-2.1,0.5c-2,1.9-3.8,3.9-5.2,6c-0.3,0.5-0.3,1.1,0,1.6
	c0.5,0.6,0.9,1.6-0.5,2.2c-0.3,0.1-0.5,0.1-0.8,0.1c-0.6-0.1-1.2,0.2-1.5,0.8c-1.2,2.9-1.7,5.7-1.2,7.9c0.3,1.5,1.4,2.9,2.9,3.3
	c3.2,0.8,6.2,0.2,9-1.4c0.5-0.3,0.8-0.8,0.8-1.4c0-0.9,0.8-0.9,1.4-0.9c0.5,0.1,1-0.1,1.3-0.4c1.6-1.4,3-3,4.4-4.8
	c0.4-0.6,0.4-1.4,0-1.9c-0.7-0.9-0.2-2.1,1.4-1.8c0.6,0.1,1.3-0.2,1.6-0.7c1.3-2.2,2.5-4.4,3.6-6.4c0.2-0.4,0.1-0.9-0.1-1.3
	c-0.7-1,0.2-1.3,0.9-1.5c0.4-0.1,0.7-0.3,0.9-0.7c1.8-4.1,2.8-7,2.8-7C110.7,307.7,108.5,307.8,106.3,308.3z"/>
<path class="st4" d="M120,321.1c-0.6-0.2-1.2,0.1-1.5,0.6c-0.2,0.4-0.7,0.6-1.5-0.8c-0.2-0.3-0.6-0.6-1-0.6c-2.5-0.3-5-0.3-7.5,0
	c-0.9,0.1-1.6,0.7-1.8,1.6c-0.2,0.8-0.6,1-1.6,0c-0.6-0.5-1.4-0.7-2.1-0.5c-2.7,0.8-5.1,1.8-7.4,3c-0.5,0.3-0.8,0.9-0.7,1.4
	c0.2,0.8,0.1,1.9-1.4,1.8c-0.3,0-0.5-0.1-0.7-0.2c-0.5-0.4-1.2-0.3-1.6,0.1c-2.4,2-4,4.3-4.6,6.5c-0.4,1.5-0.1,3.2,1.1,4.2
	c2.5,2.2,5.5,2.9,8.7,2.7c0.6,0,1.1-0.3,1.4-0.9c0.4-0.8,1.2-0.5,1.7-0.1c0.4,0.3,0.9,0.4,1.4,0.2c2-0.6,4.1-1.4,6.1-2.4
	c0.6-0.3,1-1,0.8-1.7c-0.2-1.2,0.7-2,2.1-1c0.5,0.4,1.2,0.4,1.8,0.1c2.2-1.3,4.2-2.8,6.1-4.2c0.4-0.3,0.5-0.7,0.4-1.2
	c-0.2-1.2,0.8-1.1,1.4-0.9c0.4,0.1,0.8,0,1.1-0.2c3.4-2.8,5.6-5,5.6-5C124.2,322.5,122.1,321.7,120,321.1z"/>
<path class="st5" d="M122.3,324.5c-2.2,0.2-4.4,0.6-6.5,1c-3.5,0.7-6.9,1.6-10.2,2.7c-2.5,0.8-4.9,1.8-7.3,3c-1.7,0.8-3.4,1.7-5,2.6
	c-2.8,1.6-5.6,3.4-8,5.5c-0.5,0.4-1,0.8-1.4,1.2c-0.5,0.4-1.2,0.3-1.6-0.2s-0.3-1.2,0.2-1.6c0,0,0.5-0.4,1.4-1.2
	c2.5-2.1,5.3-3.9,8.1-5.5c1.8-1,3.6-1.9,5.4-2.8c2.5-1.1,5-2.1,7.6-2.9c3.5-1.1,7-2,10.7-2.5c2.2-0.3,4.4-0.5,6.7-0.5
	c0.3,0,0.5,0.2,0.5,0.5C122.8,324.3,122.6,324.5,122.3,324.5L122.3,324.5z"/>
<path class="st4" d="M150.7,343.8c-0.2-0.6-0.8-0.9-1.4-0.8c-0.5,0.1-0.8-0.2-0.2-1.7c0.2-0.4,0.1-0.8-0.1-1.1
	c-1.2-2.2-2.7-4.2-4.4-6.1c-0.6-0.7-1.5-0.9-2.4-0.6c-0.8,0.3-1.2,0.1-1-1.3c0.1-0.8-0.2-1.5-0.8-2c-2.2-1.7-4.5-3.1-6.7-4.2
	c-0.5-0.3-1.2-0.1-1.6,0.3c-0.6,0.6-1.4,1.2-2.3-0.1c-0.2-0.3-0.2-0.5-0.2-0.7c0-0.6-0.4-1.2-1-1.3c-3.1-0.8-5.9-0.8-8,0.1
	c-1.5,0.6-2.7,1.8-2.8,3.3c-0.3,3.3,0.8,6.2,2.8,8.6c0.4,0.4,0.9,0.7,1.5,0.6c0.9-0.1,1.1,0.7,1.1,1.3c0,0.5,0.2,0.9,0.6,1.2
	c1.6,1.3,3.5,2.5,5.4,3.5c0.6,0.3,1.4,0.2,1.9-0.3c0.8-0.8,2-0.5,2,1.1c0,0.7,0.4,1.3,1,1.5c2.3,1,4.7,1.8,6.9,2.5
	c0.4,0.1,0.9,0,1.2-0.3c0.8-0.9,1.3,0,1.6,0.6c0.1,0.4,0.4,0.6,0.8,0.7c4.3,1.2,7.4,1.7,7.4,1.7C152,348.1,151.5,345.9,150.7,343.8z
	"/>
<path class="st5" d="M149.2,347.7c-1.4-1.7-3-3.2-4.6-4.7c-2.6-2.4-5.3-4.7-8.2-6.7c-2.1-1.5-4.4-2.9-6.7-4.2
	c-1.6-0.9-3.3-1.8-5-2.5c-2.9-1.3-6-2.5-9.1-3.3c-0.6-0.2-1.2-0.3-1.8-0.5c-0.6-0.2-0.9-0.8-0.8-1.4c0.2-0.6,0.8-0.9,1.4-0.8
	c0,0,0.7,0.2,1.8,0.5c3.1,0.8,6.2,2,9.1,3.4c1.8,0.8,3.6,1.8,5.4,2.8c2.3,1.4,4.6,2.8,6.7,4.5c2.9,2.2,5.7,4.6,8.2,7.2
	c1.5,1.6,3,3.3,4.3,5.1c0.2,0.2,0.1,0.6-0.1,0.7C149.7,348,149.4,347.9,149.2,347.7L149.2,347.7z"/>
<path class="st4" d="M168.1,313.4c-0.6-0.2-1.2,0.1-1.5,0.6c-0.2,0.4-0.7,0.6-1.5-0.8c-0.2-0.3-0.6-0.6-1-0.6c-2.5-0.3-5-0.3-7.5,0
	c-0.9,0.1-1.6,0.7-1.9,1.6c-0.2,0.8-0.6,1-1.6,0c-0.6-0.5-1.4-0.7-2.1-0.5c-2.7,0.7-5.2,1.8-7.4,3c-0.5,0.3-0.8,0.9-0.7,1.4
	c0.2,0.8,0.1,1.9-1.4,1.8c-0.3,0-0.5-0.1-0.7-0.2c-0.5-0.4-1.2-0.3-1.6,0.1c-2.4,2-4.1,4.3-4.6,6.5c-0.4,1.5-0.1,3.2,1.1,4.2
	c2.5,2.2,5.5,2.9,8.7,2.8c0.6,0,1.1-0.3,1.4-0.8c0.4-0.8,1.2-0.5,1.7-0.1c0.4,0.3,0.9,0.4,1.4,0.2c2-0.6,4.1-1.4,6.1-2.3
	c0.6-0.3,1-1,0.8-1.7c-0.2-1.2,0.8-2,2.1-1c0.5,0.4,1.2,0.4,1.8,0.1c2.2-1.3,4.2-2.8,6.1-4.2c0.4-0.3,0.5-0.7,0.4-1.2
	c-0.2-1.2,0.8-1.1,1.4-0.9c0.4,0.1,0.8,0,1.1-0.2c3.4-2.8,5.7-5,5.7-5C172.4,314.8,170.3,314,168.1,313.4z"/>
<path class="st5" d="M170.4,316.9c-2.2,0.2-4.4,0.6-6.5,1c-3.5,0.7-6.9,1.6-10.2,2.7c-2.5,0.8-4.9,1.8-7.3,2.9
	c-1.7,0.8-3.4,1.6-5,2.6c-2.8,1.6-5.6,3.4-8,5.4c-0.5,0.4-1,0.8-1.4,1.2c-0.5,0.4-1.2,0.3-1.6-0.2c-0.4-0.5-0.3-1.2,0.2-1.6
	c0,0,0.5-0.4,1.4-1.2c2.5-2.1,5.3-3.8,8.1-5.4c1.8-1,3.6-1.9,5.4-2.7c2.5-1.1,5-2.1,7.6-2.9c3.5-1.1,7-1.9,10.7-2.4
	c2.2-0.3,4.4-0.5,6.7-0.5c0.3,0,0.5,0.2,0.5,0.5C170.9,316.6,170.7,316.8,170.4,316.9L170.4,316.9z"/>
<path class="st4" d="M182.3,328.8c-0.5-0.3-1.2-0.3-1.6,0.1c-0.4,0.3-0.8,0.3-1.1-1.2c-0.1-0.4-0.3-0.7-0.7-0.9
	c-2.2-1.1-4.6-2-7-2.6c-0.9-0.2-1.8,0.1-2.3,0.8c-0.5,0.7-0.9,0.7-1.5-0.5c-0.3-0.7-1-1.1-1.8-1.2c-2.8-0.2-5.5-0.1-7.9,0.3
	c-0.6,0.1-1,0.5-1.1,1.1c-0.1,0.8-0.5,1.8-1.9,1.2c-0.3-0.1-0.5-0.3-0.6-0.5c-0.3-0.5-1-0.7-1.6-0.5c-3,1.1-5.3,2.6-6.6,4.5
	c-0.9,1.3-1.2,3-0.4,4.3c1.6,2.9,4.1,4.6,7.2,5.6c0.5,0.2,1.1,0.1,1.6-0.3c0.7-0.6,1.3,0,1.6,0.5c0.3,0.4,0.7,0.6,1.2,0.7
	c2.1,0.2,4.3,0.1,6.5-0.1c0.7-0.1,1.3-0.6,1.4-1.3c0.2-1.2,1.4-1.6,2.3-0.2c0.4,0.5,1,0.8,1.7,0.7c2.5-0.5,4.9-1.2,7.1-1.8
	c0.4-0.1,0.8-0.5,0.8-1c0.2-1.2,1.1-0.8,1.7-0.4c0.3,0.2,0.7,0.3,1.1,0.2c4.2-1.5,7-2.8,7-2.8C185.8,331.7,184.2,330.1,182.3,328.8z
	"/>
<path class="st5" d="M183.3,332.9c-2.1-0.6-4.3-1-6.5-1.3c-3.5-0.6-7-0.9-10.6-1c-2.6-0.1-5.3,0-7.9,0.3c-1.9,0.2-3.7,0.4-5.6,0.7
	c-3.1,0.6-6.4,1.3-9.4,2.4c-0.6,0.2-1.2,0.4-1.7,0.6c-0.6,0.2-1.2-0.1-1.4-0.7s0.1-1.2,0.7-1.4c0,0,0.6-0.2,1.8-0.6
	c3.1-1.1,6.3-1.8,9.5-2.3c2-0.3,4-0.6,6.1-0.7c2.7-0.2,5.4-0.2,8.1-0.1c3.7,0.2,7.3,0.6,10.9,1.4c2.2,0.5,4.4,1,6.4,1.8
	c0.3,0.1,0.4,0.4,0.3,0.7C183.9,332.8,183.6,333,183.3,332.9L183.3,332.9z"/>
<path class="st4" d="M204.9,313.8c-0.5-0.3-1.2-0.1-1.6,0.3c-0.3,0.4-0.7,0.4-1.3-1c-0.1-0.4-0.4-0.7-0.8-0.8
	c-2.4-0.8-4.9-1.2-7.3-1.4c-0.9-0.1-1.7,0.4-2.1,1.2c-0.4,0.8-0.8,0.9-1.6-0.3c-0.5-0.6-1.2-1-2-0.9c-2.8,0.3-5.4,0.8-7.8,1.6
	c-0.6,0.2-0.9,0.7-0.9,1.3c0,0.8-0.2,1.9-1.7,1.5c-0.3-0.1-0.5-0.2-0.7-0.4c-0.4-0.5-1.1-0.6-1.6-0.2c-2.7,1.6-4.8,3.5-5.7,5.6
	c-0.6,1.4-0.7,3.2,0.3,4.4c2.1,2.6,4.9,3.9,8,4.3c0.6,0.1,1.1-0.1,1.5-0.6c0.6-0.7,1.2-0.3,1.7,0.2c0.3,0.3,0.8,0.5,1.3,0.5
	c2.1-0.2,4.2-0.6,6.4-1.2c0.7-0.2,1.1-0.8,1.1-1.5c0-1.2,1.1-1.8,2.2-0.6c0.4,0.5,1.1,0.6,1.7,0.4c2.4-0.9,4.7-2,6.7-3
	c0.4-0.2,0.7-0.6,0.7-1.1c0-1.2,1-0.9,1.6-0.6c0.3,0.2,0.8,0.2,1.1,0c3.9-2.1,6.5-3.9,6.5-3.9C208.8,316,206.9,314.8,204.9,313.8z"
	/>
<path class="st4" d="M193,347.9c-0.3-0.5-0.9-0.8-1.5-0.7c-0.5,0.1-0.9-0.1-0.4-1.6c0.1-0.4,0.1-0.8-0.2-1.1
	c-1.4-2.1-3.1-3.9-4.9-5.6c-0.7-0.6-1.6-0.7-2.4-0.3c-0.8,0.4-1.2,0.2-1.1-1.2c0-0.8-0.4-1.5-1-1.9c-2.3-1.5-4.8-2.7-7.1-3.5
	c-0.6-0.2-1.2,0-1.5,0.4c-0.5,0.7-1.3,1.3-2.3,0.1c-0.2-0.2-0.3-0.5-0.3-0.7c0-0.6-0.5-1.1-1.1-1.2c-3.1-0.5-5.9-0.2-7.9,0.9
	c-1.4,0.7-2.5,2.1-2.5,3.6c0,3.3,1.4,6,3.7,8.3c0.4,0.4,1,0.6,1.5,0.5c0.9-0.2,1.1,0.6,1.2,1.2c0.1,0.5,0.3,0.9,0.7,1.2
	c1.7,1.1,3.7,2.1,5.8,3c0.7,0.3,1.4,0.1,1.9-0.5c0.7-0.9,2-0.7,2.1,0.9c0.1,0.7,0.5,1.2,1.1,1.4c2.4,0.7,4.9,1.3,7.1,1.8
	c0.5,0.1,0.9-0.1,1.2-0.5c0.7-1,1.3-0.1,1.6,0.5c0.2,0.3,0.5,0.6,0.9,0.7c4.4,0.7,7.5,0.9,7.5,0.9C194.7,352.1,194,349.9,193,347.9z
	"/>
<path class="st5" d="M191.9,352c-1.6-1.5-3.3-2.9-5.1-4.3c-2.8-2.2-5.8-4.1-8.8-5.9c-2.3-1.3-4.6-2.5-7-3.5c-1.7-0.7-3.5-1.4-5.2-2
	c-3-1-6.2-1.9-9.4-2.4c-0.6-0.1-1.2-0.2-1.8-0.3c-0.6-0.1-1-0.7-0.9-1.3c0.1-0.6,0.7-1,1.3-0.9c0,0,0.7,0.1,1.9,0.3
	c3.2,0.5,6.4,1.4,9.4,2.5c1.9,0.7,3.8,1.4,5.7,2.3c2.5,1.1,4.9,2.4,7.2,3.8c3.1,1.9,6.1,4,8.9,6.4c1.7,1.5,3.3,3,4.8,4.7
	c0.2,0.2,0.2,0.6-0.1,0.7C192.4,352.2,192.1,352.2,191.9,352L191.9,352z"/>
<path class="st4" d="M218.2,336c-0.4-0.4-1.1-0.6-1.6-0.3c-0.4,0.2-0.9,0.1-0.8-1.5c0-0.4-0.2-0.8-0.5-1c-1.9-1.6-4.1-2.9-6.3-4
	c-0.8-0.4-1.8-0.3-2.4,0.3c-0.6,0.6-1.1,0.5-1.4-0.8c-0.2-0.7-0.8-1.3-1.5-1.6c-2.6-0.8-5.3-1.3-7.8-1.4c-0.6,0-1.1,0.3-1.3,0.9
	c-0.3,0.8-0.9,1.6-2.1,0.8c-0.2-0.2-0.4-0.4-0.5-0.6c-0.2-0.6-0.8-0.9-1.4-0.8c-3.1,0.4-5.7,1.4-7.4,3c-1.1,1.1-1.8,2.7-1.4,4.1
	c0.9,3.2,3.1,5.4,5.8,7c0.5,0.3,1.1,0.3,1.6,0c0.8-0.4,1.2,0.2,1.5,0.8c0.2,0.4,0.6,0.8,1,0.9c2,0.6,4.2,1,6.4,1.3
	c0.7,0.1,1.4-0.3,1.6-1c0.4-1.1,1.7-1.3,2.3,0.3c0.2,0.6,0.8,1,1.5,1c2.5,0,5-0.1,7.4-0.3c0.5,0,0.9-0.3,1-0.8
	c0.4-1.1,1.2-0.5,1.7,0c0.3,0.3,0.6,0.4,1,0.4c4.4-0.5,7.5-1.2,7.5-1.2C221,339.5,219.7,337.6,218.2,336z"/>
<path class="st5" d="M218.2,340.1c-1.9-1-4-1.9-6-2.7c-3.3-1.3-6.7-2.3-10.1-3.2c-2.5-0.6-5.1-1.1-7.7-1.4c-1.9-0.2-3.7-0.4-5.6-0.5
	c-3.2-0.1-6.5-0.1-9.7,0.3c-0.6,0.1-1.2,0.1-1.8,0.2s-1.2-0.4-1.2-1c-0.1-0.6,0.4-1.2,1-1.2c0,0,0.7-0.1,1.9-0.2
	c3.2-0.4,6.5-0.4,9.7-0.3c2,0.1,4.1,0.3,6.1,0.6c2.7,0.4,5.3,0.9,7.9,1.6c3.5,1,7,2.1,10.3,3.7c2,0.9,4,1.9,5.9,3.2
	c0.2,0.2,0.3,0.5,0.2,0.7C218.8,340.2,218.5,340.3,218.2,340.1L218.2,340.1z"/>
<path class="st4" d="M226.9,319.8c-0.6-0.2-1.2,0-1.5,0.6c-0.2,0.4-0.7,0.5-1.5-0.9c-0.2-0.3-0.5-0.6-0.9-0.7
	c-2.5-0.4-5-0.5-7.5-0.4c-0.9,0.1-1.7,0.6-1.9,1.5c-0.3,0.8-0.7,1-1.6,0c-0.5-0.6-1.3-0.8-2.1-0.6c-2.7,0.6-5.2,1.5-7.5,2.6
	c-0.5,0.3-0.8,0.8-0.7,1.4c0.1,0.8,0,1.9-1.5,1.7c-0.3,0-0.5-0.1-0.7-0.3c-0.5-0.4-1.2-0.4-1.7,0c-2.5,1.9-4.3,4.1-4.9,6.3
	c-0.4,1.5-0.2,3.2,0.9,4.3c2.4,2.3,5.3,3.2,8.5,3.2c0.6,0,1.1-0.3,1.4-0.8c0.5-0.8,1.2-0.4,1.7,0c0.4,0.3,0.9,0.4,1.3,0.3
	c2-0.5,4.1-1.2,6.2-2.1c0.7-0.3,1-1,0.9-1.7c-0.2-1.2,0.8-1.9,2.1-0.9c0.5,0.4,1.2,0.5,1.8,0.2c2.2-1.2,4.3-2.6,6.3-3.9
	c0.4-0.3,0.6-0.7,0.5-1.2c-0.2-1.2,0.8-1.1,1.5-0.8c0.4,0.1,0.8,0.1,1.1-0.2c3.6-2.6,5.9-4.7,5.9-4.7
	C231.1,321.5,229,320.5,226.9,319.8z"/>
<path class="st5" d="M229,323.4c-2.2,0.1-4.4,0.4-6.6,0.7c-3.5,0.5-7,1.3-10.4,2.2c-2.5,0.7-5,1.6-7.4,2.6c-1.7,0.7-3.4,1.5-5.1,2.4
	c-2.8,1.5-5.7,3.1-8.3,5.1c-0.5,0.4-1,0.7-1.5,1.1s-1.2,0.3-1.6-0.2c-0.4-0.5-0.3-1.2,0.2-1.6c0,0,0.5-0.4,1.5-1.1
	c2.6-1.9,5.4-3.6,8.3-5c1.8-0.9,3.7-1.7,5.6-2.5c2.5-1,5.1-1.8,7.7-2.5c3.5-0.9,7.1-1.6,10.8-1.9c2.2-0.2,4.5-0.3,6.7-0.2
	c0.3,0,0.5,0.3,0.5,0.6C229.5,323.2,229.3,323.4,229,323.4L229,323.4z"/>
<path class="st4" d="M47.1,312.1c0,0,1,2.9,2.8,7c0.2,0.4,0.5,0.6,0.9,0.7c0.7,0.1,1.6,0.5,0.9,1.5c-0.3,0.4-0.3,0.9-0.1,1.3
	c1,2.1,2.2,4.3,3.6,6.4c0.3,0.6,1,0.8,1.6,0.7c1.6-0.3,2.1,0.9,1.4,1.8c-0.4,0.6-0.4,1.4,0,1.9c1.4,1.8,2.8,3.4,4.4,4.8
	c0.4,0.3,0.8,0.5,1.3,0.4c0.6-0.1,1.4,0,1.4,0.9c0,0.6,0.3,1.1,0.8,1.4c2.8,1.6,5.8,2.2,9,1.4c1.5-0.4,2.5-1.8,2.9-3.3
	c0.5-2.2,0-5-1.2-7.9c-0.2-0.6-0.8-0.9-1.5-0.8c-0.2,0-0.5,0-0.8-0.1c-1.4-0.6-1-1.6-0.5-2.2c0.4-0.5,0.4-1.1,0-1.6
	c-1.4-2.1-3.2-4.1-5.2-6c-0.6-0.5-1.4-0.7-2.1-0.5c-1.3,0.4-1.6,0.1-1.4-0.8c0.2-0.9-0.2-1.8-0.9-2.2c-2.1-1.4-4.3-2.5-6.7-3.3
	c-0.4-0.1-0.8-0.1-1.1,0.1c-1.3,0.8-1.7,0.5-1.7,0c0-0.6-0.5-1.1-1.1-1.2C51.7,312.1,49.4,311.9,47.1,312.1z"/>
<path class="st5" d="M50.2,314.6c-0.2-0.1-0.3-0.4-0.2-0.7c0.1-0.3,0.4-0.4,0.7-0.2c2,1,3.9,2.2,5.7,3.4c3,2.1,5.8,4.4,8.5,6.9
	c2,1.9,3.8,3.9,5.5,5.9c1.3,1.6,2.5,3.2,3.6,4.9c1.8,2.7,3.5,5.5,4.8,8.5c0.5,1.1,0.8,1.7,0.8,1.7c0.3,0.6,0,1.2-0.6,1.5
	c-0.6,0.3-1.2,0-1.5-0.6s-0.5-1.1-0.8-1.7c-1.3-2.9-3-5.8-4.7-8.4c-1-1.6-2.2-3.1-3.3-4.6c-1.6-2.1-3.4-4-5.2-5.9
	c-2.5-2.5-5.1-4.9-7.9-7C53.9,317,52.1,315.7,50.2,314.6L50.2,314.6z"/>
<path class="st4" d="M33.9,327.9c0,0,2.2,2.2,5.6,5c0.3,0.2,0.7,0.3,1.1,0.2c0.7-0.2,1.7-0.3,1.4,0.9c-0.1,0.5,0.1,0.9,0.4,1.2
	c1.8,1.4,3.9,2.8,6.1,4.2c0.6,0.3,1.3,0.3,1.8-0.1c1.3-1,2.3-0.2,2.1,1c-0.1,0.7,0.2,1.4,0.8,1.7c2,1,4,1.8,6.1,2.4
	c0.5,0.1,1,0.1,1.4-0.2c0.5-0.3,1.3-0.7,1.7,0.1c0.3,0.5,0.8,0.8,1.4,0.9c3.2,0.2,6.2-0.6,8.7-2.7c1.2-1,1.5-2.7,1.1-4.2
	c-0.5-2.2-2.2-4.5-4.6-6.5c-0.5-0.4-1.2-0.4-1.6-0.1c-0.2,0.1-0.4,0.2-0.7,0.2c-1.5,0.1-1.6-1-1.4-1.8c0.1-0.6-0.2-1.2-0.7-1.4
	c-2.2-1.2-4.7-2.3-7.4-3c-0.7-0.2-1.5,0-2.1,0.5c-1,1-1.4,0.8-1.6,0c-0.2-0.9-1-1.5-1.8-1.6c-2.5-0.3-5-0.3-7.5,0
	c-0.4,0-0.7,0.3-1,0.6c-0.8,1.3-1.3,1.2-1.5,0.8c-0.3-0.5-0.9-0.8-1.5-0.6C38,325.9,35.9,326.7,33.9,327.9z"/>
<path class="st5" d="M37.8,328.8c-0.3,0-0.5-0.2-0.5-0.5s0.2-0.5,0.5-0.5c2.2,0,4.5,0.2,6.7,0.5c3.6,0.5,7.2,1.4,10.7,2.5
	c2.6,0.8,5.1,1.8,7.6,2.9c1.8,0.8,3.7,1.8,5.4,2.8c2.8,1.6,5.6,3.4,8.1,5.5c0.9,0.8,1.4,1.2,1.4,1.2c0.5,0.4,0.5,1.1,0.2,1.6
	c-0.4,0.5-1.1,0.5-1.6,0.2c-0.5-0.4-1-0.8-1.4-1.2c-2.4-2.1-5.2-3.9-8-5.5c-1.6-0.9-3.3-1.8-5-2.6c-2.4-1.1-4.8-2.1-7.3-3
	c-3.3-1.1-6.8-2.1-10.2-2.7C42.2,329.3,40,328.9,37.8,328.8L37.8,328.8z"/>
<path class="st4" d="M10.4,324.7c0,0,2.8,1.4,6.9,3c0.4,0.1,0.8,0.1,1.1-0.1c0.6-0.4,1.5-0.8,1.7,0.4c0.1,0.5,0.4,0.9,0.8,1
	c2.2,0.8,4.6,1.5,7,2.1c0.6,0.2,1.3-0.1,1.7-0.6c1-1.4,2.1-0.9,2.3,0.3c0.1,0.7,0.6,1.3,1.3,1.4c2.2,0.3,4.4,0.5,6.5,0.4
	c0.5,0,0.9-0.2,1.2-0.6c0.4-0.5,1-1,1.6-0.4c0.4,0.4,1,0.5,1.6,0.4c3.1-0.8,5.7-2.5,7.4-5.3c0.8-1.3,0.6-3-0.3-4.4
	c-1.2-1.9-3.5-3.6-6.4-4.8c-0.6-0.2-1.2-0.1-1.6,0.5c-0.1,0.2-0.3,0.3-0.6,0.5c-1.4,0.5-1.8-0.4-1.9-1.3c-0.1-0.6-0.5-1-1.1-1.2
	c-2.5-0.5-5.2-0.7-7.9-0.6c-0.8,0-1.5,0.4-1.8,1.1c-0.7,1.2-1.1,1.2-1.6,0.5s-1.4-1.1-2.2-0.9c-2.4,0.5-4.8,1.2-7.1,2.3
	c-0.4,0.2-0.6,0.5-0.7,0.9c-0.4,1.5-0.8,1.5-1.2,1.2c-0.4-0.4-1.1-0.5-1.6-0.1C13.7,321.5,11.9,323,10.4,324.7z"/>
<path class="st5" d="M14.4,324.3c-0.3,0.1-0.5-0.1-0.6-0.3c-0.1-0.3,0.1-0.6,0.3-0.7c2.1-0.7,4.3-1.2,6.5-1.6
	c3.6-0.6,7.3-0.9,10.9-0.9c2.7,0,5.4,0.1,8.1,0.4c2,0.2,4,0.6,6,1c3.2,0.7,6.3,1.5,9.4,2.7c1.1,0.4,1.7,0.7,1.7,0.7
	c0.6,0.2,0.9,0.9,0.6,1.4c-0.2,0.6-0.9,0.9-1.4,0.6c-0.6-0.2-1.1-0.5-1.7-0.7c-3-1.2-6.2-2.1-9.3-2.8c-1.8-0.4-3.7-0.7-5.5-0.9
	c-2.6-0.4-5.2-0.5-7.9-0.6c-3.5,0-7.1,0.1-10.6,0.5C18.8,323.5,16.6,323.8,14.4,324.3L14.4,324.3z"/>
<path class="st4" d="M7.9,354.7c0,0,3.1-0.5,7.4-1.7c0.4-0.1,0.7-0.4,0.8-0.7c0.2-0.7,0.8-1.5,1.6-0.6c0.3,0.3,0.8,0.5,1.2,0.3
	c2.2-0.7,4.6-1.5,6.9-2.5c0.6-0.3,1-0.8,1-1.5c0-1.7,1.2-2,2-1.1c0.5,0.5,1.3,0.7,1.9,0.3c2-1.1,3.8-2.2,5.4-3.5
	c0.4-0.3,0.6-0.8,0.6-1.2c0-0.6,0.2-1.4,1.1-1.3c0.6,0.1,1.1-0.2,1.5-0.6c2-2.5,3.1-5.4,2.8-8.6c-0.1-1.5-1.3-2.8-2.8-3.3
	c-2.1-0.8-4.9-0.8-8-0.1c-0.6,0.1-1,0.7-1,1.3c0,0.2-0.1,0.5-0.2,0.7c-0.8,1.3-1.7,0.7-2.3,0.1c-0.4-0.4-1-0.5-1.6-0.3
	c-2.3,1.1-4.6,2.5-6.7,4.2c-0.6,0.5-0.9,1.2-0.8,2c0.2,1.4-0.2,1.6-1,1.3c-0.8-0.3-1.8-0.1-2.4,0.6c-1.7,1.8-3.1,3.9-4.4,6.1
	c-0.2,0.3-0.2,0.8-0.1,1.1c0.6,1.5,0.2,1.7-0.2,1.7c-0.6-0.1-1.2,0.3-1.4,0.8C8.6,350.1,8.1,352.3,7.9,354.7z"/>
<path class="st5" d="M10.9,351.9c-0.2,0.2-0.5,0.2-0.7,0.1c-0.2-0.2-0.3-0.5-0.1-0.7c1.3-1.8,2.8-3.5,4.3-5.1c2.5-2.7,5.3-5,8.2-7.2
	c2.1-1.6,4.4-3.1,6.7-4.5c1.8-1,3.6-2,5.4-2.8c2.9-1.4,6-2.6,9.1-3.4c1.2-0.3,1.8-0.5,1.8-0.5c0.6-0.2,1.2,0.2,1.4,0.8
	c0.2,0.6-0.2,1.2-0.8,1.4c-0.6,0.2-1.2,0.3-1.8,0.5c-3.1,0.8-6.2,2-9.1,3.3c-1.7,0.8-3.4,1.6-5,2.5c-2.3,1.3-4.5,2.7-6.7,4.2
	c-2.9,2.1-5.6,4.3-8.2,6.7C13.9,348.7,12.3,350.3,10.9,351.9L10.9,351.9z"/>
<path class="st4" d="M-14.3,320.3c0,0,2.2,2.2,5.7,5c0.3,0.2,0.7,0.3,1.1,0.2c0.7-0.2,1.7-0.3,1.4,0.9c-0.1,0.5,0.1,0.9,0.4,1.2
	c1.8,1.4,3.9,2.8,6.1,4.2c0.6,0.3,1.3,0.3,1.8-0.1c1.3-1,2.3-0.2,2.1,1c-0.1,0.7,0.2,1.4,0.8,1.7c2,1,4.1,1.8,6.1,2.3
	c0.5,0.1,1,0,1.4-0.2c0.5-0.4,1.3-0.7,1.7,0.1c0.3,0.5,0.8,0.8,1.4,0.8c3.2,0.2,6.2-0.6,8.7-2.8c1.2-1,1.5-2.7,1.1-4.2
	c-0.5-2.2-2.2-4.5-4.6-6.5c-0.5-0.4-1.2-0.4-1.6-0.1c-0.2,0.1-0.4,0.2-0.7,0.2c-1.5,0.1-1.6-1-1.4-1.8c0.1-0.6-0.2-1.2-0.7-1.4
	c-2.2-1.2-4.7-2.2-7.4-3c-0.7-0.2-1.5,0-2.1,0.5c-1,1-1.4,0.8-1.6,0c-0.2-0.9-1-1.5-1.9-1.6c-2.5-0.3-5-0.3-7.5,0
	c-0.4,0-0.7,0.3-1,0.6c-0.8,1.3-1.3,1.2-1.5,0.8c-0.3-0.5-0.9-0.8-1.5-0.6C-10.2,318.2-12.3,319.1-14.3,320.3z"/>
<path class="st5" d="M-10.3,321.1c-0.3,0-0.5-0.2-0.5-0.5s0.2-0.5,0.5-0.5c2.2,0,4.5,0.2,6.7,0.5C0,321.1,3.6,322,7.1,323
	c2.6,0.8,5.1,1.8,7.6,2.9c1.9,0.8,3.7,1.8,5.4,2.7c2.8,1.6,5.6,3.4,8.1,5.4c0.9,0.8,1.4,1.2,1.4,1.2c0.5,0.4,0.5,1.1,0.2,1.6
	c-0.4,0.5-1.1,0.5-1.6,0.2c-0.5-0.4-1-0.8-1.4-1.2c-2.4-2.1-5.2-3.8-8-5.4c-1.6-0.9-3.3-1.8-5-2.6c-2.4-1.1-4.8-2.1-7.3-2.9
	c-3.3-1.1-6.8-2.1-10.2-2.7C-5.9,321.6-8.1,321.2-10.3,321.1L-10.3,321.1z"/>
<path class="st4" d="M-27.2,337.7c0,0,2.8,1.3,7,2.8c0.4,0.1,0.8,0.1,1.1-0.2c0.6-0.4,1.5-0.8,1.7,0.4c0.1,0.5,0.4,0.8,0.8,1
	c2.2,0.7,4.6,1.3,7.1,1.8c0.6,0.1,1.3-0.1,1.7-0.7c0.9-1.4,2.1-1,2.3,0.2c0.1,0.7,0.7,1.3,1.4,1.3c2.2,0.2,4.4,0.3,6.5,0.1
	c0.5,0,0.9-0.3,1.2-0.7c0.4-0.5,1-1.1,1.6-0.5c0.4,0.4,1,0.5,1.6,0.3c3.1-0.9,5.6-2.7,7.2-5.6c0.7-1.3,0.4-3-0.4-4.3
	c-1.3-1.9-3.6-3.4-6.6-4.5c-0.6-0.2-1.2,0-1.6,0.5c-0.1,0.2-0.3,0.4-0.6,0.5c-1.4,0.6-1.8-0.4-1.9-1.2c-0.1-0.6-0.5-1-1.1-1.1
	c-2.5-0.4-5.2-0.5-7.9-0.3c-0.8,0.1-1.5,0.5-1.8,1.2c-0.6,1.2-1.1,1.2-1.5,0.5c-0.5-0.7-1.4-1.1-2.3-0.8c-2.4,0.6-4.8,1.4-7,2.6
	c-0.4,0.2-0.6,0.5-0.7,0.9c-0.3,1.5-0.8,1.6-1.1,1.2c-0.4-0.4-1.1-0.4-1.6-0.1C-24,334.3-25.7,335.9-27.2,337.7z"/>
<path class="st5" d="M-23.2,337.1c-0.3,0.1-0.5-0.1-0.6-0.3c-0.1-0.3,0-0.6,0.3-0.7c2.1-0.8,4.3-1.4,6.4-1.8
	c3.6-0.8,7.2-1.2,10.9-1.4c2.7-0.1,5.4-0.1,8.1,0.1c2,0.2,4.1,0.4,6.1,0.7c3.2,0.5,6.4,1.3,9.5,2.3c1.1,0.4,1.8,0.6,1.8,0.6
	c0.6,0.2,0.9,0.8,0.7,1.4c-0.2,0.6-0.8,0.9-1.4,0.7c-0.6-0.2-1.2-0.4-1.7-0.6c-3-1.1-6.2-1.8-9.4-2.4c-1.8-0.3-3.7-0.5-5.6-0.7
	c-2.6-0.2-5.2-0.3-7.9-0.3c-3.5,0.1-7.1,0.4-10.6,1C-18.9,336.1-21.1,336.5-23.2,337.1L-23.2,337.1z"/>
<path class="st4" d="M-50.4,321.8c0,0,2.6,1.7,6.5,3.9c0.3,0.2,0.7,0.2,1.1,0c0.6-0.3,1.6-0.6,1.6,0.6c0,0.5,0.2,0.9,0.7,1.1
	c2.1,1,4.3,2.1,6.7,3c0.6,0.2,1.3,0.1,1.7-0.4c1.1-1.2,2.2-0.6,2.2,0.6c0,0.7,0.5,1.4,1.1,1.5c2.2,0.6,4.3,1,6.4,1.2
	c0.5,0,1-0.1,1.3-0.5c0.4-0.4,1.1-0.9,1.7-0.2c0.4,0.4,0.9,0.7,1.5,0.6c3.2-0.4,6-1.7,8-4.3c1-1.2,0.9-2.9,0.3-4.4
	c-0.9-2.1-3-4-5.7-5.6c-0.5-0.3-1.2-0.2-1.6,0.2c-0.2,0.2-0.4,0.3-0.7,0.4c-1.5,0.4-1.7-0.7-1.7-1.5c0-0.6-0.4-1.1-0.9-1.3
	c-2.4-0.8-5-1.4-7.8-1.6c-0.8-0.1-1.5,0.3-2,0.9c-0.8,1.1-1.2,1-1.6,0.3c-0.4-0.8-1.2-1.3-2.1-1.2c-2.5,0.2-4.9,0.6-7.3,1.4
	c-0.4,0.1-0.7,0.4-0.8,0.8c-0.6,1.5-1,1.4-1.3,1c-0.4-0.5-1-0.6-1.6-0.3C-46.8,319-48.7,320.2-50.4,321.8z"/>
<path class="st5" d="M-46.4,321.9c-0.3,0-0.5-0.2-0.6-0.4c-0.1-0.3,0.1-0.6,0.4-0.6c2.2-0.4,4.4-0.6,6.6-0.7c3.7-0.2,7.3,0,10.9,0.5
	c2.7,0.3,5.3,0.8,8,1.4c2,0.5,3.9,1.1,5.8,1.7c3.1,1.1,6.1,2.3,8.9,3.9c1,0.6,1.6,0.9,1.6,0.9c0.5,0.3,0.7,1,0.4,1.5
	c-0.3,0.5-1,0.7-1.5,0.4c-0.5-0.3-1.1-0.6-1.6-0.9c-2.8-1.6-5.9-2.8-8.9-3.9c-1.8-0.6-3.6-1.2-5.4-1.6c-2.5-0.7-5.1-1.2-7.7-1.6
	c-3.5-0.5-7-0.8-10.6-0.8C-42,321.6-44.2,321.6-46.4,321.9L-46.4,321.9z"/>
<path class="st4" d="M-35,358.6c0,0,3.1-0.2,7.5-0.9c0.4-0.1,0.7-0.3,0.9-0.7c0.3-0.6,0.9-1.4,1.6-0.5c0.3,0.4,0.7,0.6,1.2,0.5
	c2.3-0.5,4.7-1,7.1-1.8c0.6-0.2,1.1-0.7,1.1-1.4c0.1-1.7,1.4-1.8,2.1-0.9c0.4,0.6,1.2,0.8,1.9,0.5c2.1-0.9,4-1.8,5.8-3
	c0.4-0.3,0.7-0.7,0.7-1.2c0.1-0.6,0.3-1.4,1.2-1.2c0.6,0.1,1.1,0,1.5-0.5c2.2-2.3,3.7-5,3.7-8.3c0-1.5-1.1-2.9-2.5-3.6
	c-2-1.1-4.8-1.3-7.9-0.9c-0.6,0.1-1.1,0.6-1.1,1.2c0,0.2-0.1,0.5-0.3,0.7c-0.9,1.2-1.8,0.5-2.3-0.1c-0.3-0.5-1-0.6-1.5-0.4
	c-2.4,0.8-4.8,2-7.1,3.5c-0.6,0.4-1,1.1-1,1.9c0,1.4-0.3,1.6-1.1,1.2s-1.7-0.3-2.4,0.3c-1.8,1.7-3.5,3.5-4.9,5.6
	c-0.2,0.3-0.3,0.7-0.2,1.1c0.4,1.5,0.1,1.7-0.4,1.6c-0.6-0.1-1.2,0.2-1.5,0.7C-33.9,354.2-34.6,356.3-35,358.6z"/>
<path class="st5" d="M-31.8,356.2c-0.2,0.2-0.5,0.2-0.7,0s-0.2-0.5-0.1-0.7c1.5-1.7,3.1-3.2,4.8-4.7c2.8-2.4,5.8-4.5,8.9-6.4
	c2.3-1.4,4.7-2.7,7.2-3.8c1.9-0.8,3.8-1.6,5.7-2.3c3.1-1.1,6.2-1.9,9.4-2.5c1.2-0.2,1.9-0.3,1.9-0.3c0.6-0.1,1.2,0.3,1.3,0.9
	c0.1,0.6-0.3,1.2-0.9,1.3c-0.6,0.1-1.2,0.2-1.8,0.3c-3.2,0.5-6.4,1.4-9.4,2.4c-1.8,0.6-3.5,1.3-5.2,2c-2.4,1-4.8,2.2-7,3.5
	c-3.1,1.8-6,3.7-8.8,5.9C-28.5,353.3-30.2,354.7-31.8,356.2L-31.8,356.2z"/>
<path class="st4" d="M-61.9,345.8c0,0,3,0.7,7.5,1.2c0.4,0,0.8-0.1,1-0.4c0.5-0.5,1.3-1.1,1.7,0c0.2,0.4,0.6,0.7,1,0.8
	c2.3,0.2,4.8,0.3,7.4,0.3c0.7,0,1.2-0.4,1.5-1c0.6-1.6,1.8-1.4,2.3-0.3c0.3,0.7,0.9,1.1,1.6,1c2.2-0.2,4.4-0.7,6.4-1.3
	c0.5-0.1,0.8-0.5,1-0.9c0.2-0.6,0.7-1.2,1.5-0.8c0.5,0.3,1.1,0.3,1.6,0c2.8-1.6,4.9-3.8,5.8-7c0.4-1.5-0.2-3.1-1.4-4.1
	c-1.6-1.6-4.3-2.6-7.4-3c-0.6-0.1-1.2,0.3-1.4,0.8c-0.1,0.2-0.2,0.4-0.5,0.6c-1.2,0.9-1.8,0-2.1-0.8c-0.2-0.5-0.7-0.9-1.3-0.9
	c-2.5,0.2-5.2,0.6-7.8,1.4c-0.7,0.2-1.3,0.8-1.5,1.6c-0.3,1.4-0.8,1.4-1.4,0.8c-0.6-0.6-1.6-0.7-2.4-0.3c-2.2,1.1-4.4,2.4-6.3,4
	c-0.3,0.3-0.5,0.6-0.5,1c0,1.6-0.4,1.7-0.8,1.5c-0.5-0.3-1.2-0.2-1.6,0.3C-59.5,341.9-60.8,343.7-61.9,345.8z"/>
<path class="st5" d="M-58.1,344.4c-0.2,0.1-0.5,0.1-0.7-0.2c-0.2-0.2-0.1-0.6,0.2-0.7c1.9-1.2,3.9-2.2,5.9-3.2
	c3.3-1.5,6.8-2.7,10.3-3.7c2.6-0.7,5.3-1.3,7.9-1.6c2-0.3,4.1-0.5,6.1-0.6c3.2-0.2,6.5-0.1,9.7,0.3c1.2,0.1,1.9,0.2,1.9,0.2
	c0.6,0.1,1,0.6,1,1.2c-0.1,0.6-0.6,1-1.2,1c-0.6-0.1-1.2-0.1-1.8-0.2c-3.2-0.4-6.5-0.4-9.7-0.3c-1.9,0.1-3.7,0.3-5.6,0.5
	c-2.6,0.3-5.2,0.8-7.7,1.4c-3.4,0.9-6.8,1.9-10.1,3.2C-54.1,342.5-56.2,343.3-58.1,344.4L-58.1,344.4z"/>
<path class="st4" d="M-72.9,327c0,0,2.3,2.1,5.9,4.7c0.3,0.2,0.7,0.3,1.1,0.2c0.7-0.2,1.7-0.4,1.5,0.8c-0.1,0.5,0.1,0.9,0.5,1.2
	c1.9,1.3,4,2.6,6.3,3.9c0.6,0.3,1.3,0.2,1.8-0.2c1.3-1.1,2.3-0.3,2.1,0.9c-0.1,0.7,0.3,1.4,0.9,1.7c2.1,0.9,4.1,1.6,6.2,2.1
	c0.5,0.1,1,0,1.3-0.3c0.5-0.4,1.2-0.7,1.7,0c0.3,0.5,0.8,0.8,1.4,0.8c3.2,0,6.1-0.9,8.5-3.2c1.1-1.1,1.3-2.8,0.9-4.3
	c-0.7-2.2-2.4-4.4-4.9-6.3c-0.5-0.4-1.2-0.4-1.7,0c-0.2,0.1-0.4,0.2-0.7,0.3c-1.5,0.2-1.6-0.9-1.5-1.7c0.1-0.6-0.2-1.1-0.7-1.4
	c-2.3-1.1-4.8-2-7.5-2.6c-0.7-0.2-1.5,0.1-2.1,0.6c-1,1-1.4,0.9-1.6,0c-0.3-0.8-1-1.4-1.9-1.5c-2.5-0.2-5-0.1-7.5,0.4
	c-0.4,0.1-0.7,0.3-0.9,0.7c-0.8,1.4-1.2,1.3-1.5,0.9c-0.3-0.5-0.9-0.7-1.5-0.6C-68.9,324.7-71,325.7-72.9,327z"/>
<path class="st5" d="M-68.9,327.6c-0.3,0-0.5-0.2-0.5-0.5s0.2-0.5,0.5-0.6c2.2-0.1,4.5,0,6.7,0.2c3.6,0.3,7.2,1,10.8,1.9
	c2.6,0.7,5.2,1.5,7.7,2.5c1.9,0.7,3.8,1.6,5.6,2.5c2.9,1.5,5.7,3.1,8.3,5c1,0.7,1.5,1.1,1.5,1.1c0.5,0.4,0.6,1.1,0.2,1.6
	c-0.4,0.5-1.1,0.6-1.6,0.2s-1-0.7-1.5-1.1c-2.5-2-5.4-3.6-8.3-5.1c-1.7-0.9-3.4-1.6-5.1-2.4c-2.4-1-4.9-1.9-7.4-2.6
	c-3.4-1-6.9-1.7-10.4-2.2C-64.5,328-66.7,327.7-68.9,327.6L-68.9,327.6z"/>
<path class="st4" d="M49.3,324.4c0,0,1,2.9,2.8,7c0.2,0.4,0.5,0.6,0.9,0.7c0.7,0.1,1.6,0.5,0.9,1.5c-0.3,0.4-0.3,0.9-0.1,1.3
	c1,2.1,2.2,4.3,3.6,6.4c0.3,0.6,1,0.8,1.6,0.7c1.6-0.3,2.1,0.9,1.4,1.8c-0.4,0.6-0.4,1.4,0,1.9c1.4,1.8,2.8,3.4,4.4,4.8
	c0.4,0.3,0.8,0.5,1.3,0.4c0.6-0.1,1.4,0,1.4,0.9c0,0.6,0.3,1.1,0.8,1.4c2.8,1.6,5.8,2.2,9,1.4c1.5-0.4,2.5-1.8,2.9-3.3
	c0.5-2.2,0-5-1.2-7.9c-0.2-0.6-0.8-0.9-1.5-0.8c-0.2,0-0.5,0-0.8-0.1c-1.4-0.6-1-1.6-0.5-2.2c0.4-0.5,0.4-1.1,0-1.6
	c-1.4-2.1-3.2-4.1-5.2-6c-0.6-0.5-1.4-0.7-2.1-0.5c-1.3,0.4-1.6,0.1-1.4-0.8c0.2-0.9-0.2-1.8-0.9-2.2c-2.1-1.4-4.3-2.5-6.7-3.3
	c-0.4-0.1-0.8-0.1-1.1,0.1c-1.3,0.8-1.7,0.5-1.7,0c0-0.6-0.5-1.1-1.1-1.2C53.9,324.4,51.6,324.3,49.3,324.4z"/>
<path class="st5" d="M52.4,327c-0.2-0.1-0.3-0.4-0.2-0.7c0.1-0.3,0.4-0.4,0.7-0.2c2,1,3.9,2.2,5.7,3.4c3,2.1,5.8,4.4,8.5,6.9
	c2,1.9,3.8,3.9,5.5,5.9c1.3,1.6,2.5,3.2,3.6,4.9c1.8,2.7,3.5,5.5,4.8,8.5c0.5,1.1,0.8,1.7,0.8,1.7c0.3,0.6,0,1.2-0.6,1.5
	c-0.6,0.3-1.2,0-1.5-0.6s-0.5-1.1-0.8-1.7c-1.3-2.9-3-5.8-4.7-8.4c-1-1.6-2.2-3.1-3.3-4.6c-1.6-2.1-3.4-4-5.2-5.9
	c-2.5-2.5-5.1-4.9-7.9-7C56.1,329.4,54.3,328.1,52.4,327L52.4,327z"/>
<path class="st4" d="M36.1,340.3c0,0,2.2,2.2,5.6,5c0.3,0.2,0.7,0.3,1.1,0.2c0.7-0.2,1.7-0.3,1.4,0.9c-0.1,0.5,0.1,0.9,0.4,1.2
	c1.8,1.4,3.9,2.8,6.1,4.2c0.6,0.3,1.3,0.3,1.8-0.1c1.3-1,2.3-0.2,2.1,1c-0.1,0.7,0.2,1.4,0.8,1.7c2,1,4,1.8,6.1,2.4
	c0.5,0.1,1,0.1,1.4-0.2c0.5-0.3,1.3-0.7,1.7,0.1c0.3,0.5,0.8,0.8,1.4,0.9c3.2,0.2,6.2-0.6,8.7-2.7c1.2-1,1.5-2.7,1.1-4.2
	c-0.5-2.2-2.2-4.5-4.6-6.5c-0.5-0.4-1.2-0.4-1.6-0.1c-0.2,0.1-0.4,0.2-0.7,0.2c-1.5,0.1-1.6-1-1.4-1.8c0.1-0.6-0.2-1.2-0.7-1.4
	c-2.2-1.2-4.7-2.3-7.4-3c-0.7-0.2-1.5,0-2.1,0.5c-1,1-1.4,0.8-1.6,0c-0.2-0.9-1-1.5-1.8-1.6c-2.5-0.3-5-0.3-7.5,0
	c-0.4,0-0.7,0.3-1,0.6c-0.8,1.3-1.3,1.2-1.5,0.8c-0.3-0.5-0.9-0.8-1.5-0.6C40.2,338.3,38.1,339.1,36.1,340.3z"/>
<path class="st5" d="M40.1,341.1c-0.3,0-0.5-0.2-0.5-0.5s0.2-0.5,0.5-0.5c2.2,0,4.5,0.2,6.7,0.5c3.6,0.5,7.2,1.4,10.7,2.5
	c2.6,0.8,5.1,1.8,7.6,2.9c1.8,0.8,3.7,1.8,5.4,2.8c2.8,1.6,5.6,3.4,8.1,5.5c0.9,0.8,1.4,1.2,1.4,1.2c0.5,0.4,0.5,1.1,0.2,1.6
	c-0.4,0.5-1.1,0.5-1.6,0.2c-0.5-0.4-1-0.8-1.4-1.2c-2.4-2.1-5.2-3.9-8-5.5c-1.6-0.9-3.3-1.8-5-2.6c-2.4-1.1-4.8-2.1-7.3-3
	c-3.3-1.1-6.8-2.1-10.2-2.7C44.4,341.7,42.2,341.3,40.1,341.1L40.1,341.1z"/>
<path class="st4" d="M12.6,337.1c0,0,2.8,1.4,6.9,3c0.4,0.1,0.8,0.1,1.1-0.1c0.6-0.4,1.5-0.8,1.7,0.4c0.1,0.5,0.4,0.9,0.8,1
	c2.2,0.8,4.6,1.5,7,2.1c0.6,0.2,1.3-0.1,1.7-0.6c1-1.4,2.1-0.9,2.3,0.3c0.1,0.7,0.6,1.3,1.3,1.4c2.2,0.3,4.4,0.5,6.5,0.4
	c0.5,0,0.9-0.2,1.2-0.6c0.4-0.5,1-1,1.6-0.4c0.4,0.4,1,0.5,1.6,0.4c3.1-0.8,5.7-2.5,7.4-5.3c0.8-1.3,0.6-3-0.3-4.4
	c-1.2-1.9-3.5-3.6-6.4-4.8c-0.6-0.2-1.2-0.1-1.6,0.5c-0.1,0.2-0.3,0.3-0.6,0.5c-1.4,0.5-1.8-0.4-1.9-1.3c-0.1-0.6-0.5-1-1.1-1.2
	c-2.5-0.5-5.2-0.7-7.9-0.6c-0.8,0-1.5,0.4-1.8,1.1c-0.7,1.2-1.1,1.2-1.6,0.5s-1.4-1.1-2.2-0.9c-2.4,0.5-4.8,1.2-7.1,2.3
	c-0.4,0.2-0.6,0.5-0.7,0.9c-0.4,1.5-0.8,1.5-1.2,1.2c-0.4-0.4-1.1-0.5-1.6-0.1C15.9,333.9,14.2,335.4,12.6,337.1z"/>
<path class="st5" d="M16.6,336.7c-0.3,0.1-0.5-0.1-0.6-0.3c-0.1-0.3,0.1-0.6,0.3-0.7c2.1-0.7,4.3-1.2,6.5-1.6
	c3.6-0.6,7.3-0.9,10.9-0.9c2.7,0,5.4,0.1,8.1,0.4c2,0.2,4,0.6,6,1c3.2,0.7,6.3,1.5,9.4,2.7c1.1,0.4,1.7,0.7,1.7,0.7
	c0.6,0.2,0.9,0.9,0.6,1.4c-0.2,0.6-0.9,0.9-1.4,0.6c-0.6-0.2-1.1-0.5-1.7-0.7c-3-1.2-6.2-2.1-9.3-2.8c-1.8-0.4-3.7-0.7-5.5-0.9
	c-2.6-0.4-5.2-0.5-7.9-0.6c-3.5,0-7.1,0.1-10.6,0.5C21,335.9,18.8,336.2,16.6,336.7L16.6,336.7z"/>
<path class="st4" d="M10.1,367c0,0,3.1-0.5,7.4-1.7c0.4-0.1,0.7-0.4,0.8-0.7c0.2-0.7,0.8-1.5,1.6-0.6c0.3,0.3,0.8,0.5,1.2,0.3
	c2.2-0.7,4.6-1.5,6.9-2.5c0.6-0.3,1-0.8,1-1.5c0-1.7,1.2-2,2-1.1c0.5,0.5,1.3,0.7,1.9,0.3c2-1.1,3.8-2.2,5.4-3.5
	c0.4-0.3,0.6-0.8,0.6-1.2c0-0.6,0.2-1.4,1.1-1.3c0.6,0.1,1.1-0.2,1.5-0.6c2-2.5,3.1-5.4,2.8-8.6c-0.1-1.5-1.3-2.8-2.8-3.3
	c-2.1-0.8-4.9-0.8-8-0.1c-0.6,0.1-1,0.7-1,1.3c0,0.2-0.1,0.5-0.2,0.7c-0.8,1.3-1.7,0.7-2.3,0.1c-0.4-0.4-1-0.5-1.6-0.3
	c-2.3,1.1-4.6,2.5-6.7,4.2c-0.6,0.5-0.9,1.2-0.8,2c0.2,1.4-0.2,1.6-1,1.3c-0.8-0.3-1.8-0.1-2.4,0.6c-1.7,1.8-3.1,3.9-4.4,6.1
	c-0.2,0.3-0.2,0.8-0.1,1.1c0.6,1.5,0.2,1.7-0.2,1.7c-0.6-0.1-1.2,0.3-1.4,0.8C10.9,362.5,10.3,364.7,10.1,367z"/>
<path class="st5" d="M13.1,364.3c-0.2,0.2-0.5,0.2-0.7,0.1c-0.2-0.2-0.3-0.5-0.1-0.7c1.3-1.8,2.8-3.5,4.3-5.1c2.5-2.7,5.3-5,8.2-7.2
	c2.1-1.6,4.4-3.1,6.7-4.5c1.8-1,3.6-2,5.4-2.8c2.9-1.4,6-2.6,9.1-3.4c1.2-0.3,1.8-0.5,1.8-0.5c0.6-0.2,1.2,0.2,1.4,0.8
	c0.2,0.6-0.2,1.2-0.8,1.4c-0.6,0.2-1.2,0.3-1.8,0.5c-3.1,0.8-6.2,2-9.1,3.3c-1.7,0.8-3.4,1.6-5,2.5c-2.3,1.3-4.5,2.7-6.7,4.2
	c-2.9,2.1-5.6,4.3-8.2,6.7C16.1,361.1,14.5,362.6,13.1,364.3L13.1,364.3z"/>
<path class="st4" d="M-12,332.6c0,0,2.2,2.2,5.7,5c0.3,0.2,0.7,0.3,1.1,0.2c0.7-0.2,1.7-0.3,1.4,0.9c-0.1,0.5,0.1,0.9,0.4,1.2
	c1.8,1.4,3.9,2.8,6.1,4.2c0.6,0.3,1.3,0.3,1.8-0.1c1.3-1,2.3-0.2,2.1,1c-0.1,0.7,0.2,1.4,0.8,1.7c2,1,4.1,1.8,6.1,2.3
	c0.5,0.1,1,0,1.4-0.2c0.5-0.4,1.3-0.7,1.7,0.1c0.3,0.5,0.8,0.8,1.4,0.8c3.2,0.2,6.2-0.6,8.7-2.8c1.2-1,1.5-2.7,1.1-4.2
	c-0.5-2.2-2.2-4.5-4.6-6.5c-0.5-0.4-1.2-0.4-1.6-0.1c-0.2,0.1-0.4,0.2-0.7,0.2c-1.5,0.1-1.6-1-1.4-1.8c0.1-0.6-0.2-1.2-0.7-1.4
	c-2.2-1.2-4.7-2.2-7.4-3c-0.7-0.2-1.5,0-2.1,0.5c-1,1-1.4,0.8-1.6,0c-0.2-0.9-1-1.5-1.9-1.6c-2.5-0.3-5-0.3-7.5,0
	c-0.4,0-0.7,0.3-1,0.6c-0.8,1.3-1.3,1.2-1.5,0.8c-0.3-0.5-0.9-0.8-1.5-0.6C-7.9,330.6-10,331.4-12,332.6z"/>
<path class="st5" d="M-8.1,333.5c-0.3,0-0.5-0.2-0.5-0.5s0.2-0.5,0.5-0.5c2.2,0,4.5,0.2,6.7,0.5c3.6,0.5,7.2,1.4,10.7,2.4
	c2.6,0.8,5.1,1.8,7.6,2.9c1.9,0.8,3.7,1.8,5.4,2.7c2.8,1.6,5.6,3.4,8.1,5.4c0.9,0.8,1.4,1.2,1.4,1.2c0.5,0.4,0.5,1.1,0.2,1.6
	c-0.4,0.5-1.1,0.5-1.6,0.2c-0.5-0.4-1-0.8-1.4-1.2c-2.4-2.1-5.2-3.8-8-5.4c-1.6-0.9-3.3-1.8-5-2.6c-2.4-1.1-4.8-2.1-7.3-2.9
	c-3.3-1.1-6.8-2.1-10.2-2.7C-3.7,334-5.9,333.6-8.1,333.5L-8.1,333.5z"/>
<path class="st4" d="M-25,350.1c0,0,2.8,1.3,7,2.8c0.4,0.1,0.8,0.1,1.1-0.2c0.6-0.4,1.5-0.8,1.7,0.4c0.1,0.5,0.4,0.8,0.8,1
	c2.2,0.7,4.6,1.3,7.1,1.8c0.6,0.1,1.3-0.1,1.7-0.7c0.9-1.4,2.1-1,2.3,0.2c0.1,0.7,0.7,1.3,1.4,1.3c2.2,0.2,4.4,0.3,6.5,0.1
	c0.5,0,0.9-0.3,1.2-0.7c0.4-0.5,1-1.1,1.6-0.5c0.4,0.4,1,0.5,1.6,0.3c3.1-0.9,5.6-2.7,7.2-5.6c0.7-1.3,0.4-3-0.4-4.3
	c-1.3-1.9-3.6-3.4-6.6-4.5c-0.6-0.2-1.2,0-1.6,0.5c-0.1,0.2-0.3,0.4-0.6,0.5c-1.4,0.6-1.8-0.4-1.9-1.2c-0.1-0.6-0.5-1-1.1-1.1
	c-2.5-0.4-5.2-0.5-7.9-0.3c-0.8,0.1-1.5,0.5-1.8,1.2c-0.6,1.2-1.1,1.2-1.5,0.5c-0.5-0.7-1.4-1.1-2.3-0.8c-2.4,0.6-4.8,1.4-7,2.6
	c-0.4,0.2-0.6,0.5-0.7,0.9c-0.3,1.5-0.8,1.6-1.1,1.2c-0.4-0.4-1.1-0.4-1.6-0.1C-21.8,346.7-23.5,348.3-25,350.1z"/>
<path class="st5" d="M-21,349.5c-0.3,0.1-0.5-0.1-0.6-0.3c-0.1-0.3,0-0.6,0.3-0.7c2.1-0.8,4.3-1.4,6.4-1.8c3.6-0.8,7.2-1.2,10.9-1.4
	c2.7-0.1,5.4-0.1,8.1,0.1c2,0.2,4.1,0.4,6.1,0.7c3.2,0.5,6.4,1.3,9.5,2.3c1.1,0.4,1.8,0.6,1.8,0.6c0.6,0.2,0.9,0.8,0.7,1.4
	s-0.8,0.9-1.4,0.7c-0.6-0.2-1.2-0.4-1.7-0.6c-3-1.1-6.2-1.8-9.4-2.4c-1.8-0.3-3.7-0.5-5.6-0.7c-2.6-0.2-5.2-0.3-7.9-0.3
	c-3.5,0.1-7.1,0.4-10.6,1C-16.7,348.5-18.9,348.9-21,349.5L-21,349.5z"/>
<path class="st4" d="M-48.2,334.1c0,0,2.6,1.7,6.5,3.9c0.3,0.2,0.7,0.2,1.1,0c0.6-0.3,1.6-0.6,1.6,0.6c0,0.5,0.2,0.9,0.7,1.1
	c2.1,1,4.3,2.1,6.7,3c0.6,0.2,1.3,0.1,1.7-0.4c1.1-1.2,2.2-0.6,2.2,0.6c0,0.7,0.5,1.4,1.1,1.5c2.2,0.6,4.3,1,6.4,1.2
	c0.5,0,1-0.1,1.3-0.5c0.4-0.4,1.1-0.9,1.7-0.2c0.4,0.4,0.9,0.7,1.5,0.6c3.2-0.4,6-1.7,8-4.3c1-1.2,0.9-2.9,0.3-4.4
	c-0.9-2.1-3-4-5.7-5.6c-0.5-0.3-1.2-0.2-1.6,0.2c-0.2,0.2-0.4,0.3-0.7,0.4c-1.5,0.4-1.7-0.7-1.7-1.5c0-0.6-0.4-1.1-0.9-1.3
	c-2.4-0.8-5-1.4-7.8-1.6c-0.8-0.1-1.5,0.3-2,0.9c-0.8,1.1-1.2,1-1.6,0.3c-0.4-0.8-1.2-1.3-2.1-1.2c-2.5,0.2-4.9,0.6-7.3,1.4
	c-0.4,0.1-0.7,0.4-0.8,0.8c-0.6,1.5-1,1.4-1.3,1c-0.4-0.5-1-0.6-1.6-0.3C-44.5,331.4-46.5,332.6-48.2,334.1z"/>
<path class="st5" d="M-44.2,334.2c-0.3,0-0.5-0.2-0.6-0.4c-0.1-0.3,0.1-0.6,0.4-0.6c2.2-0.4,4.4-0.6,6.6-0.7c3.7-0.2,7.3,0,10.9,0.5
	c2.7,0.3,5.3,0.8,8,1.4c2,0.5,3.9,1.1,5.8,1.7c3.1,1.1,6.1,2.3,8.9,3.9c1,0.6,1.6,0.9,1.6,0.9c0.5,0.3,0.7,1,0.4,1.5s-1,0.7-1.5,0.4
	c-0.5-0.3-1.1-0.6-1.6-0.9c-2.8-1.6-5.9-2.8-8.9-3.9c-1.8-0.6-3.6-1.2-5.4-1.6c-2.5-0.7-5.1-1.2-7.7-1.6c-3.5-0.5-7-0.8-10.6-0.8
	C-39.7,334-42,334-44.2,334.2L-44.2,334.2z"/>
<path class="st4" d="M-32.8,371c0,0,3.1-0.2,7.5-0.9c0.4-0.1,0.7-0.3,0.9-0.7c0.3-0.6,0.9-1.4,1.6-0.5c0.3,0.4,0.7,0.6,1.2,0.5
	c2.3-0.5,4.7-1,7.1-1.8c0.6-0.2,1.1-0.7,1.1-1.4c0.1-1.7,1.4-1.8,2.1-0.9c0.4,0.6,1.2,0.8,1.9,0.5c2.1-0.9,4-1.8,5.8-3
	c0.4-0.3,0.7-0.7,0.7-1.2c0.1-0.6,0.3-1.4,1.2-1.2c0.6,0.1,1.1,0,1.5-0.5c2.2-2.3,3.7-5,3.7-8.3c0-1.5-1.1-2.9-2.5-3.6
	c-2-1.1-4.8-1.3-7.9-0.9c-0.6,0.1-1.1,0.6-1.1,1.2c0,0.2-0.1,0.5-0.3,0.7c-0.9,1.2-1.8,0.5-2.3-0.1c-0.3-0.5-1-0.6-1.5-0.4
	c-2.4,0.8-4.8,2-7.1,3.5c-0.6,0.4-1,1.1-1,1.9c0,1.4-0.3,1.6-1.1,1.2s-1.7-0.3-2.4,0.3c-1.8,1.7-3.5,3.5-4.9,5.6
	c-0.2,0.3-0.3,0.7-0.2,1.1c0.4,1.5,0.1,1.7-0.4,1.6c-0.6-0.1-1.2,0.2-1.5,0.7C-31.6,366.5-32.4,368.7-32.8,371z"/>
<path class="st5" d="M-29.6,368.6c-0.2,0.2-0.5,0.2-0.7,0s-0.2-0.5-0.1-0.7c1.5-1.7,3.1-3.2,4.8-4.7c2.8-2.4,5.8-4.5,8.9-6.4
	c2.3-1.4,4.7-2.7,7.2-3.8c1.9-0.8,3.8-1.6,5.7-2.3c3.1-1.1,6.2-1.9,9.4-2.5c1.2-0.2,1.9-0.3,1.9-0.3c0.6-0.1,1.2,0.3,1.3,0.9
	c0.1,0.6-0.3,1.2-0.9,1.3c-0.6,0.1-1.2,0.2-1.8,0.3c-3.2,0.5-6.4,1.4-9.4,2.4c-1.8,0.6-3.5,1.3-5.2,2c-2.4,1-4.8,2.2-7,3.5
	c-3.1,1.8-6,3.7-8.8,5.9C-26.3,365.7-28,367-29.6,368.6L-29.6,368.6z"/>
<path class="st4" d="M-59.7,358.2c0,0,3,0.7,7.5,1.2c0.4,0,0.8-0.1,1-0.4c0.5-0.5,1.3-1.1,1.7,0c0.2,0.4,0.6,0.7,1,0.8
	c2.3,0.2,4.8,0.3,7.4,0.3c0.7,0,1.2-0.4,1.5-1c0.6-1.6,1.8-1.4,2.3-0.3c0.3,0.7,0.9,1.1,1.6,1c2.2-0.2,4.4-0.7,6.4-1.3
	c0.5-0.1,0.8-0.5,1-0.9c0.2-0.6,0.7-1.2,1.5-0.8c0.5,0.3,1.1,0.3,1.6,0c2.8-1.6,4.9-3.8,5.8-7c0.4-1.5-0.2-3.1-1.4-4.1
	c-1.6-1.6-4.3-2.6-7.4-3c-0.6-0.1-1.2,0.3-1.4,0.8c-0.1,0.2-0.2,0.4-0.5,0.6c-1.2,0.9-1.8,0-2.1-0.8c-0.2-0.5-0.7-0.9-1.3-0.9
	c-2.5,0.2-5.2,0.6-7.8,1.4c-0.7,0.2-1.3,0.8-1.5,1.6c-0.3,1.4-0.8,1.4-1.4,0.8c-0.6-0.6-1.6-0.7-2.4-0.3c-2.2,1.1-4.4,2.4-6.3,4
	c-0.3,0.3-0.5,0.6-0.5,1c0,1.6-0.4,1.7-0.8,1.5c-0.5-0.3-1.2-0.2-1.6,0.3C-57.3,354.2-58.6,356.1-59.7,358.2z"/>
<path class="st5" d="M-55.9,356.8c-0.2,0.1-0.5,0.1-0.7-0.2c-0.2-0.2-0.1-0.6,0.2-0.7c1.9-1.2,3.9-2.2,5.9-3.2
	c3.3-1.5,6.8-2.7,10.3-3.7c2.6-0.7,5.3-1.3,7.9-1.6c2-0.3,4.1-0.5,6.1-0.6c3.2-0.2,6.5-0.1,9.7,0.3c1.2,0.1,1.9,0.2,1.9,0.2
	c0.6,0.1,1,0.6,1,1.2c-0.1,0.6-0.6,1-1.2,1c-0.6-0.1-1.2-0.1-1.8-0.2c-3.2-0.4-6.5-0.4-9.7-0.3c-1.9,0.1-3.7,0.3-5.6,0.5
	c-2.6,0.3-5.2,0.8-7.7,1.4c-3.4,0.9-6.8,1.9-10.1,3.2C-51.9,354.9-54,355.7-55.9,356.8L-55.9,356.8z"/>
<path class="st4" d="M-70.7,339.3c0,0,2.3,2.1,5.9,4.7c0.3,0.2,0.7,0.3,1.1,0.2c0.7-0.2,1.7-0.4,1.5,0.8c-0.1,0.5,0.1,0.9,0.5,1.2
	c1.9,1.3,4,2.6,6.3,3.9c0.6,0.3,1.3,0.2,1.8-0.2c1.3-1.1,2.3-0.3,2.1,0.9c-0.1,0.7,0.3,1.4,0.9,1.7c2.1,0.9,4.1,1.6,6.2,2.1
	c0.5,0.1,1,0,1.3-0.3c0.5-0.4,1.2-0.7,1.7,0c0.3,0.5,0.8,0.8,1.4,0.8c3.2,0,6.1-0.9,8.5-3.2c1.1-1.1,1.3-2.8,0.9-4.3
	c-0.7-2.2-2.4-4.4-4.9-6.3c-0.5-0.4-1.2-0.4-1.7,0c-0.2,0.1-0.4,0.2-0.7,0.3c-1.5,0.2-1.6-0.9-1.5-1.7c0.1-0.6-0.2-1.1-0.7-1.4
	c-2.3-1.1-4.8-2-7.5-2.6c-0.7-0.2-1.5,0.1-2.1,0.6c-1,1-1.4,0.9-1.6,0c-0.3-0.8-1-1.4-1.9-1.5c-2.5-0.2-5-0.1-7.5,0.4
	c-0.4,0.1-0.7,0.3-0.9,0.7c-0.8,1.4-1.2,1.3-1.5,0.9c-0.3-0.5-0.9-0.7-1.5-0.6C-66.7,337.1-68.8,338.1-70.7,339.3z"/>
<path class="st5" d="M-66.7,340c-0.3,0-0.5-0.2-0.5-0.5s0.2-0.5,0.5-0.6c2.2-0.1,4.5,0,6.7,0.2c3.6,0.3,7.2,1,10.8,1.9
	c2.6,0.7,5.2,1.5,7.7,2.5c1.9,0.7,3.8,1.6,5.6,2.5c2.9,1.5,5.7,3.1,8.3,5c1,0.7,1.5,1.1,1.5,1.1c0.5,0.4,0.6,1.1,0.2,1.6
	c-0.4,0.5-1.1,0.6-1.6,0.2s-1-0.7-1.5-1.1c-2.5-2-5.4-3.6-8.3-5.1c-1.7-0.9-3.4-1.6-5.1-2.4c-2.4-1-4.9-1.9-7.4-2.6
	c-3.4-1-6.9-1.7-10.4-2.2C-62.3,340.3-64.5,340-66.7,340L-66.7,340z"/>
<path class="st4" d="M108.3,311.8c-0.6,0.1-1,0.6-1.1,1.2c0,0.5-0.3,0.8-1.7,0c-0.3-0.2-0.8-0.3-1.1-0.1c-2.4,0.8-4.6,2-6.7,3.3
	c-0.7,0.5-1.1,1.4-0.9,2.2c0.2,0.8-0.1,1.2-1.4,0.8c-0.7-0.2-1.5,0-2.1,0.5c-2,1.9-3.8,3.9-5.2,6c-0.3,0.5-0.3,1.1,0,1.6
	c0.5,0.6,0.9,1.6-0.5,2.2c-0.3,0.1-0.5,0.1-0.8,0.1c-0.6-0.1-1.2,0.2-1.5,0.8c-1.2,2.9-1.7,5.7-1.2,7.9c0.3,1.5,1.4,2.9,2.9,3.3
	c3.2,0.8,6.2,0.2,9-1.4c0.5-0.3,0.8-0.8,0.8-1.4c0-0.9,0.8-0.9,1.4-0.9c0.5,0.1,1-0.1,1.3-0.4c1.6-1.4,3-3,4.4-4.8
	c0.4-0.6,0.4-1.4,0-1.9c-0.7-0.9-0.2-2.1,1.4-1.8c0.6,0.1,1.3-0.2,1.6-0.7c1.3-2.2,2.5-4.4,3.6-6.4c0.2-0.4,0.1-0.9-0.1-1.3
	c-0.7-1,0.2-1.3,0.9-1.5c0.4-0.1,0.7-0.3,0.9-0.7c1.8-4.1,2.8-7,2.8-7C112.8,311.1,110.5,311.3,108.3,311.8z"/>
<path class="st5" d="M111.9,313.8c-1.9,1.1-3.7,2.5-5.4,3.8c-2.8,2.1-5.5,4.5-7.9,7c-1.9,1.9-3.6,3.8-5.2,5.9
	c-1.2,1.5-2.3,3-3.3,4.6c-1.8,2.7-3.5,5.5-4.7,8.4c-0.3,0.6-0.5,1.1-0.8,1.7s-0.9,0.8-1.5,0.6c-0.6-0.3-0.8-0.9-0.6-1.5
	c0,0,0.3-0.6,0.8-1.7c1.3-3,3-5.8,4.8-8.5c1.1-1.7,2.4-3.3,3.6-4.9c1.7-2.1,3.5-4.1,5.5-5.9c2.6-2.5,5.4-4.9,8.5-6.9
	c1.8-1.3,3.7-2.5,5.7-3.4c0.3-0.1,0.6,0,0.7,0.2C112.2,313.4,112.1,313.7,111.9,313.8L111.9,313.8z"/>
<path class="st4" d="M122,324.6c-0.6-0.2-1.2,0.1-1.5,0.6c-0.2,0.4-0.7,0.6-1.5-0.8c-0.2-0.3-0.6-0.6-1-0.6c-2.5-0.3-5-0.3-7.5,0
	c-0.9,0.1-1.6,0.7-1.8,1.6c-0.2,0.8-0.6,1-1.6,0c-0.6-0.5-1.4-0.7-2.1-0.5c-2.7,0.8-5.1,1.8-7.4,3c-0.5,0.3-0.8,0.9-0.7,1.4
	c0.2,0.8,0.1,1.9-1.4,1.8c-0.3,0-0.5-0.1-0.7-0.2c-0.5-0.4-1.2-0.3-1.6,0.1c-2.4,2-4,4.3-4.6,6.5c-0.4,1.5-0.1,3.2,1.1,4.2
	c2.5,2.2,5.5,2.9,8.7,2.7c0.6,0,1.1-0.3,1.4-0.9c0.4-0.8,1.2-0.5,1.7-0.1c0.4,0.3,0.9,0.4,1.4,0.2c2-0.6,4.1-1.4,6.1-2.4
	c0.6-0.3,1-1,0.8-1.7c-0.2-1.2,0.7-2,2.1-1c0.5,0.4,1.2,0.4,1.8,0.1c2.2-1.3,4.2-2.8,6.1-4.2c0.4-0.3,0.5-0.7,0.4-1.2
	c-0.2-1.2,0.8-1.1,1.4-0.9c0.4,0.1,0.8,0,1.1-0.2c3.4-2.8,5.6-5,5.6-5C126.3,326,124.1,325.1,122,324.6z"/>
<path class="st5" d="M124.3,328c-2.2,0.2-4.4,0.6-6.5,1c-3.5,0.7-6.9,1.6-10.2,2.7c-2.5,0.8-4.9,1.8-7.3,3c-1.7,0.8-3.4,1.7-5,2.6
	c-2.8,1.6-5.6,3.4-8,5.5c-0.5,0.4-1,0.8-1.4,1.2c-0.5,0.4-1.2,0.3-1.6-0.2s-0.3-1.2,0.2-1.6c0,0,0.5-0.4,1.4-1.2
	c2.5-2.1,5.3-3.9,8.1-5.5c1.8-1,3.6-1.9,5.4-2.8c2.5-1.1,5-2.1,7.6-2.9c3.5-1.1,7-2,10.7-2.5c2.2-0.3,4.4-0.5,6.7-0.5
	c0.3,0,0.5,0.2,0.5,0.5C124.8,327.8,124.6,328,124.3,328L124.3,328z"/>
<path class="st4" d="M146.6,319.6c-0.5-0.3-1.2-0.3-1.6,0.1c-0.3,0.3-0.8,0.3-1.2-1.2c-0.1-0.4-0.4-0.7-0.7-0.9
	c-2.3-1-4.7-1.8-7.1-2.3c-0.9-0.2-1.8,0.2-2.2,0.9c-0.5,0.7-0.9,0.8-1.6-0.5c-0.4-0.7-1.1-1.1-1.8-1.1c-2.8-0.1-5.5,0.1-7.9,0.6
	c-0.6,0.1-1,0.6-1.1,1.2c-0.1,0.8-0.5,1.8-1.9,1.3c-0.3-0.1-0.5-0.3-0.6-0.5c-0.4-0.5-1-0.7-1.6-0.5c-2.9,1.2-5.2,2.9-6.4,4.8
	c-0.8,1.3-1.1,3-0.3,4.4c1.7,2.8,4.3,4.5,7.4,5.3c0.6,0.1,1.1,0,1.6-0.4c0.6-0.6,1.3-0.1,1.6,0.4c0.3,0.4,0.7,0.6,1.2,0.6
	c2.1,0.1,4.3-0.1,6.5-0.4c0.7-0.1,1.2-0.7,1.3-1.4c0.2-1.2,1.3-1.6,2.3-0.3c0.4,0.5,1,0.8,1.7,0.6c2.5-0.6,4.9-1.4,7-2.1
	c0.4-0.2,0.7-0.5,0.8-1c0.1-1.2,1.1-0.8,1.7-0.4c0.3,0.2,0.7,0.3,1.1,0.1c4.1-1.6,6.9-3,6.9-3C150.2,322.3,148.5,320.8,146.6,319.6z
	"/>
<path class="st5" d="M147.7,323.6c-2.1-0.5-4.3-0.8-6.5-1.1c-3.5-0.4-7.1-0.6-10.6-0.5c-2.6,0-5.3,0.2-7.9,0.6
	c-1.9,0.3-3.7,0.5-5.5,0.9c-3.1,0.7-6.3,1.5-9.3,2.8c-0.6,0.2-1.1,0.5-1.7,0.7s-1.2-0.1-1.4-0.6c-0.2-0.6,0.1-1.2,0.6-1.4
	c0,0,0.6-0.3,1.7-0.7c3-1.2,6.2-2.1,9.4-2.7c2-0.4,4-0.7,6-1c2.7-0.3,5.4-0.5,8.1-0.4c3.7,0,7.3,0.3,10.9,0.9
	c2.2,0.4,4.4,0.9,6.5,1.6c0.3,0.1,0.4,0.4,0.3,0.7C148.3,323.5,148,323.6,147.7,323.6L147.7,323.6z"/>
<path class="st4" d="M152.7,347.3c-0.2-0.6-0.8-0.9-1.4-0.8c-0.5,0.1-0.8-0.2-0.2-1.7c0.2-0.4,0.1-0.8-0.1-1.1
	c-1.2-2.2-2.7-4.2-4.4-6.1c-0.6-0.7-1.5-0.9-2.4-0.6c-0.8,0.3-1.2,0.1-1-1.3c0.1-0.8-0.2-1.5-0.8-2c-2.2-1.7-4.5-3.1-6.7-4.2
	c-0.5-0.3-1.2-0.1-1.6,0.3c-0.6,0.6-1.4,1.2-2.3-0.1c-0.2-0.3-0.2-0.5-0.2-0.7c0-0.6-0.4-1.2-1-1.3c-3.1-0.8-5.9-0.8-8,0.1
	c-1.5,0.6-2.7,1.8-2.8,3.3c-0.3,3.3,0.8,6.2,2.8,8.6c0.4,0.4,0.9,0.7,1.5,0.6c0.9-0.1,1.1,0.7,1.1,1.3c0,0.5,0.2,0.9,0.6,1.2
	c1.6,1.3,3.5,2.5,5.4,3.5c0.6,0.3,1.4,0.2,1.9-0.3c0.8-0.8,2-0.5,2,1.1c0,0.7,0.4,1.3,1,1.5c2.3,1,4.7,1.8,6.9,2.5
	c0.4,0.1,0.9,0,1.2-0.3c0.8-0.9,1.3,0,1.6,0.6c0.1,0.4,0.4,0.6,0.8,0.7c4.3,1.2,7.4,1.7,7.4,1.7C154,351.6,153.5,349.4,152.7,347.3z
	"/>
<path class="st5" d="M151.2,351.2c-1.4-1.7-3-3.2-4.6-4.7c-2.6-2.4-5.3-4.7-8.2-6.7c-2.1-1.5-4.4-2.9-6.7-4.2
	c-1.6-0.9-3.3-1.8-5-2.5c-2.9-1.3-6-2.5-9.1-3.3c-0.6-0.2-1.2-0.3-1.8-0.5c-0.6-0.2-0.9-0.8-0.8-1.4c0.2-0.6,0.8-0.9,1.4-0.8
	c0,0,0.7,0.2,1.8,0.5c3.1,0.8,6.2,2,9.1,3.4c1.8,0.8,3.6,1.8,5.4,2.8c2.3,1.4,4.6,2.8,6.7,4.5c2.9,2.2,5.7,4.6,8.2,7.2
	c1.5,1.6,3,3.3,4.3,5.1c0.2,0.2,0.1,0.6-0.1,0.7C151.7,351.4,151.4,351.4,151.2,351.2L151.2,351.2z"/>
<path class="st4" d="M170.1,316.9c-0.6-0.2-1.2,0.1-1.5,0.6c-0.2,0.4-0.7,0.6-1.5-0.8c-0.2-0.3-0.6-0.6-1-0.6c-2.5-0.3-5-0.3-7.5,0
	c-0.9,0.1-1.6,0.7-1.9,1.6c-0.2,0.8-0.6,1-1.6,0c-0.6-0.5-1.4-0.7-2.1-0.5c-2.7,0.7-5.2,1.8-7.4,3c-0.5,0.3-0.8,0.9-0.7,1.4
	c0.2,0.8,0.1,1.9-1.4,1.8c-0.3,0-0.5-0.1-0.7-0.2c-0.5-0.4-1.2-0.3-1.6,0.1c-2.4,2-4.1,4.3-4.6,6.5c-0.4,1.5-0.1,3.2,1.1,4.2
	c2.5,2.2,5.5,2.9,8.7,2.8c0.6,0,1.1-0.3,1.4-0.8c0.4-0.8,1.2-0.5,1.7-0.1c0.4,0.3,0.9,0.4,1.4,0.2c2-0.6,4.1-1.4,6.1-2.3
	c0.6-0.3,1-1,0.8-1.7c-0.2-1.2,0.8-2,2.1-1c0.5,0.4,1.2,0.4,1.8,0.1c2.2-1.3,4.2-2.8,6.1-4.2c0.4-0.3,0.5-0.7,0.4-1.2
	c-0.2-1.2,0.8-1.1,1.4-0.9c0.4,0.1,0.8,0,1.1-0.2c3.4-2.8,5.7-5,5.7-5C174.4,318.3,172.3,317.5,170.1,316.9z"/>
<path class="st5" d="M172.4,320.3c-2.2,0.2-4.4,0.6-6.5,1c-3.5,0.7-6.9,1.6-10.2,2.7c-2.5,0.8-4.9,1.8-7.3,2.9
	c-1.7,0.8-3.4,1.6-5,2.6c-2.8,1.6-5.6,3.4-8,5.4c-0.5,0.4-1,0.8-1.4,1.2c-0.5,0.4-1.2,0.3-1.6-0.2c-0.4-0.5-0.3-1.2,0.2-1.6
	c0,0,0.5-0.4,1.4-1.2c2.5-2.1,5.3-3.8,8.1-5.4c1.8-1,3.6-1.9,5.4-2.7c2.5-1.1,5-2.1,7.6-2.9c3.5-1.1,7-1.9,10.7-2.4
	c2.2-0.3,4.4-0.5,6.7-0.5c0.3,0,0.5,0.2,0.5,0.5C172.9,320.1,172.7,320.3,172.4,320.3L172.4,320.3z"/>
<path class="st4" d="M184.4,332.3c-0.5-0.3-1.2-0.3-1.6,0.1c-0.4,0.3-0.8,0.3-1.1-1.2c-0.1-0.4-0.3-0.7-0.7-0.9
	c-2.2-1.1-4.6-2-7-2.6c-0.9-0.2-1.8,0.1-2.3,0.8c-0.5,0.7-0.9,0.7-1.5-0.5c-0.3-0.7-1-1.1-1.8-1.2c-2.8-0.2-5.5-0.1-7.9,0.3
	c-0.6,0.1-1,0.5-1.1,1.1c-0.1,0.8-0.5,1.8-1.9,1.2c-0.3-0.1-0.5-0.3-0.6-0.5c-0.3-0.5-1-0.7-1.6-0.5c-3,1.1-5.3,2.6-6.6,4.5
	c-0.9,1.3-1.2,3-0.4,4.3c1.6,2.9,4.1,4.6,7.2,5.6c0.5,0.2,1.1,0.1,1.6-0.3c0.7-0.6,1.3,0,1.6,0.5c0.3,0.4,0.7,0.6,1.2,0.7
	c2.1,0.2,4.3,0.1,6.5-0.1c0.7-0.1,1.3-0.6,1.4-1.3c0.2-1.2,1.4-1.6,2.3-0.2c0.4,0.5,1,0.8,1.7,0.7c2.5-0.5,4.9-1.2,7.1-1.8
	c0.4-0.1,0.8-0.5,0.8-1c0.2-1.2,1.1-0.8,1.7-0.4c0.3,0.2,0.7,0.3,1.1,0.2c4.2-1.5,7-2.8,7-2.8C187.9,335.1,186.2,333.6,184.4,332.3z
	"/>
<path class="st5" d="M185.3,336.4c-2.1-0.6-4.3-1-6.5-1.3c-3.5-0.6-7-0.9-10.6-1c-2.6-0.1-5.3,0-7.9,0.3c-1.9,0.2-3.7,0.4-5.6,0.7
	c-3.1,0.6-6.4,1.3-9.4,2.4c-0.6,0.2-1.2,0.4-1.7,0.6c-0.6,0.2-1.2-0.1-1.4-0.7s0.1-1.2,0.7-1.4c0,0,0.6-0.2,1.8-0.6
	c3.1-1.1,6.3-1.8,9.5-2.3c2-0.3,4-0.6,6.1-0.7c2.7-0.2,5.4-0.2,8.1-0.1c3.7,0.2,7.3,0.6,10.9,1.4c2.2,0.5,4.4,1,6.4,1.8
	c0.3,0.1,0.4,0.4,0.3,0.7C185.9,336.3,185.6,336.4,185.3,336.4L185.3,336.4z"/>
<path class="st4" d="M206.9,317.3c-0.5-0.3-1.2-0.1-1.6,0.3c-0.3,0.4-0.7,0.4-1.3-1c-0.1-0.4-0.4-0.7-0.8-0.8
	c-2.4-0.8-4.9-1.2-7.3-1.4c-0.9-0.1-1.7,0.4-2.1,1.2c-0.4,0.8-0.8,0.9-1.6-0.3c-0.5-0.6-1.2-1-2-0.9c-2.8,0.3-5.4,0.8-7.8,1.6
	c-0.6,0.2-0.9,0.7-0.9,1.3c0,0.8-0.2,1.9-1.7,1.5c-0.3-0.1-0.5-0.2-0.7-0.4c-0.4-0.5-1.1-0.6-1.6-0.2c-2.7,1.6-4.8,3.5-5.7,5.6
	c-0.6,1.4-0.7,3.2,0.3,4.4c2.1,2.6,4.9,3.9,8,4.3c0.6,0.1,1.1-0.1,1.5-0.6c0.6-0.7,1.2-0.3,1.7,0.2c0.3,0.3,0.8,0.5,1.3,0.5
	c2.1-0.2,4.2-0.6,6.4-1.2c0.7-0.2,1.1-0.8,1.1-1.5c0-1.2,1.1-1.8,2.2-0.6c0.4,0.5,1.1,0.6,1.7,0.4c2.4-0.9,4.7-2,6.7-3
	c0.4-0.2,0.7-0.6,0.7-1.1c0-1.2,1-0.9,1.6-0.6c0.3,0.2,0.8,0.2,1.1,0c3.9-2.1,6.5-3.9,6.5-3.9C210.8,319.5,208.9,318.3,206.9,317.3z
	"/>
<path class="st5" d="M208.5,321.1c-2.2-0.2-4.4-0.2-6.6-0.2c-3.5,0-7.1,0.3-10.6,0.8c-2.6,0.4-5.2,0.9-7.7,1.6
	c-1.8,0.5-3.6,1-5.4,1.6c-3,1.1-6.1,2.3-8.9,3.9c-0.5,0.3-1.1,0.6-1.6,0.9s-1.2,0.1-1.5-0.4s-0.1-1.2,0.4-1.5c0,0,0.6-0.3,1.6-0.9
	c2.8-1.6,5.9-2.8,8.9-3.9c1.9-0.7,3.9-1.2,5.8-1.7c2.6-0.6,5.3-1.1,8-1.4c3.6-0.4,7.3-0.6,10.9-0.5c2.2,0.1,4.5,0.3,6.6,0.7
	c0.3,0.1,0.5,0.3,0.4,0.6C209,321,208.8,321.2,208.5,321.1L208.5,321.1z"/>
<path class="st4" d="M195,351.4c-0.3-0.5-0.9-0.8-1.5-0.7c-0.5,0.1-0.9-0.1-0.4-1.6c0.1-0.4,0.1-0.8-0.2-1.1
	c-1.4-2.1-3.1-3.9-4.9-5.6c-0.7-0.6-1.6-0.7-2.4-0.3c-0.8,0.4-1.2,0.2-1.1-1.2c0-0.8-0.4-1.5-1-1.9c-2.3-1.5-4.8-2.7-7.1-3.5
	c-0.6-0.2-1.2,0-1.5,0.4c-0.5,0.7-1.3,1.3-2.3,0.1c-0.2-0.2-0.3-0.5-0.3-0.7c0-0.6-0.5-1.1-1.1-1.2c-3.1-0.5-5.9-0.2-7.9,0.9
	c-1.4,0.7-2.5,2.1-2.5,3.6c0,3.3,1.4,6,3.7,8.3c0.4,0.4,1,0.6,1.5,0.5c0.9-0.2,1.1,0.6,1.2,1.2c0.1,0.5,0.3,0.9,0.7,1.2
	c1.7,1.1,3.7,2.1,5.8,3c0.7,0.3,1.4,0.1,1.9-0.5c0.7-0.9,2-0.7,2.1,0.9c0.1,0.7,0.5,1.2,1.1,1.4c2.4,0.7,4.9,1.3,7.1,1.8
	c0.5,0.1,0.9-0.1,1.2-0.5c0.7-1,1.3-0.1,1.6,0.5c0.2,0.3,0.5,0.6,0.9,0.7c4.4,0.7,7.5,0.9,7.5,0.9C196.8,355.6,196,353.4,195,351.4z
	"/>
<path class="st5" d="M193.9,355.4c-1.6-1.5-3.3-2.9-5.1-4.3c-2.8-2.2-5.8-4.1-8.8-5.9c-2.3-1.3-4.6-2.5-7-3.5
	c-1.7-0.7-3.5-1.4-5.2-2c-3-1-6.2-1.9-9.4-2.4c-0.6-0.1-1.2-0.2-1.8-0.3c-0.6-0.1-1-0.7-0.9-1.3c0.1-0.6,0.7-1,1.3-0.9
	c0,0,0.7,0.1,1.9,0.3c3.2,0.5,6.4,1.4,9.4,2.5c1.9,0.7,3.8,1.4,5.7,2.3c2.5,1.1,4.9,2.4,7.2,3.8c3.1,1.9,6.1,4,8.9,6.4
	c1.7,1.5,3.3,3,4.8,4.7c0.2,0.2,0.2,0.6-0.1,0.7C194.4,355.7,194.1,355.6,193.9,355.4L193.9,355.4z"/>
<path class="st4" d="M220.2,339.5c-0.4-0.4-1.1-0.6-1.6-0.3c-0.4,0.2-0.9,0.1-0.8-1.5c0-0.4-0.2-0.8-0.5-1c-1.9-1.6-4.1-2.9-6.3-4
	c-0.8-0.4-1.8-0.3-2.4,0.3c-0.6,0.6-1.1,0.5-1.4-0.8c-0.2-0.7-0.8-1.3-1.5-1.6c-2.6-0.8-5.3-1.3-7.8-1.4c-0.6,0-1.1,0.3-1.3,0.9
	c-0.3,0.8-0.9,1.6-2.1,0.8c-0.2-0.2-0.4-0.4-0.5-0.6c-0.2-0.6-0.8-0.9-1.4-0.8c-3.1,0.4-5.7,1.4-7.4,3c-1.1,1.1-1.8,2.7-1.4,4.1
	c0.9,3.2,3.1,5.4,5.8,7c0.5,0.3,1.1,0.3,1.6,0c0.8-0.4,1.2,0.2,1.5,0.8c0.2,0.4,0.6,0.8,1,0.9c2,0.6,4.2,1,6.4,1.3
	c0.7,0.1,1.4-0.3,1.6-1c0.4-1.1,1.7-1.3,2.3,0.3c0.2,0.6,0.8,1,1.5,1c2.5,0,5-0.1,7.4-0.3c0.5,0,0.9-0.3,1-0.8
	c0.4-1.1,1.2-0.5,1.7,0c0.3,0.3,0.6,0.4,1,0.4c4.4-0.5,7.5-1.2,7.5-1.2C223,343,221.7,341.1,220.2,339.5z"/>
<path class="st5" d="M220.2,343.6c-1.9-1-4-1.9-6-2.7c-3.3-1.3-6.7-2.3-10.1-3.2c-2.5-0.6-5.1-1.1-7.7-1.4c-1.9-0.2-3.7-0.4-5.6-0.5
	c-3.2-0.1-6.5-0.1-9.7,0.3c-0.6,0.1-1.2,0.1-1.8,0.2s-1.2-0.4-1.2-1c-0.1-0.6,0.4-1.2,1-1.2c0,0,0.7-0.1,1.9-0.2
	c3.2-0.4,6.5-0.4,9.7-0.3c2,0.1,4.1,0.3,6.1,0.6c2.7,0.4,5.3,0.9,7.9,1.6c3.5,1,7,2.1,10.3,3.7c2,0.9,4,1.9,5.9,3.2
	c0.2,0.2,0.3,0.5,0.2,0.7C220.8,343.7,220.5,343.8,220.2,343.6L220.2,343.6z"/>
<path class="st4" d="M228.9,323.3c-0.6-0.2-1.2,0-1.5,0.6c-0.2,0.4-0.7,0.5-1.5-0.9c-0.2-0.3-0.5-0.6-0.9-0.7
	c-2.5-0.4-5-0.5-7.5-0.4c-0.9,0.1-1.7,0.6-1.9,1.5c-0.3,0.8-0.7,1-1.6,0c-0.5-0.6-1.3-0.8-2.1-0.6c-2.7,0.6-5.2,1.5-7.5,2.6
	c-0.5,0.3-0.8,0.8-0.7,1.4c0.1,0.8,0,1.9-1.5,1.7c-0.3,0-0.5-0.1-0.7-0.3c-0.5-0.4-1.2-0.4-1.7,0c-2.5,1.9-4.3,4.1-4.9,6.3
	c-0.4,1.5-0.2,3.2,0.9,4.3c2.4,2.3,5.3,3.2,8.5,3.2c0.6,0,1.1-0.3,1.4-0.8c0.5-0.8,1.2-0.4,1.7,0c0.4,0.3,0.9,0.4,1.3,0.3
	c2-0.5,4.1-1.2,6.2-2.1c0.7-0.3,1-1,0.9-1.7c-0.2-1.2,0.8-1.9,2.1-0.9c0.5,0.4,1.2,0.5,1.8,0.2c2.2-1.2,4.3-2.6,6.3-3.9
	c0.4-0.3,0.6-0.7,0.5-1.2c-0.2-1.2,0.8-1.1,1.5-0.8c0.4,0.1,0.8,0.1,1.1-0.2c3.6-2.6,5.9-4.7,5.9-4.7
	C233.1,324.9,231.1,324,228.9,323.3z"/>
<path class="st5" d="M231.1,326.9c-2.2,0.1-4.4,0.4-6.6,0.7c-3.5,0.5-7,1.3-10.4,2.2c-2.5,0.7-5,1.6-7.4,2.6
	c-1.7,0.7-3.4,1.5-5.1,2.4c-2.8,1.5-5.7,3.1-8.3,5.1c-0.5,0.4-1,0.7-1.5,1.1s-1.2,0.3-1.6-0.2c-0.4-0.5-0.3-1.2,0.2-1.6
	c0,0,0.5-0.4,1.5-1.1c2.6-1.9,5.4-3.6,8.3-5c1.8-0.9,3.7-1.7,5.6-2.5c2.5-1,5.1-1.8,7.7-2.5c3.5-0.9,7.1-1.6,10.8-1.9
	c2.2-0.2,4.5-0.3,6.7-0.2c0.3,0,0.5,0.3,0.5,0.6C231.6,326.6,231.3,326.9,231.1,326.9L231.1,326.9z"/>
<path class="st4" d="M109.6,326c-0.6,0.1-1,0.6-1.1,1.2c0,0.5-0.3,0.8-1.7,0c-0.3-0.2-0.8-0.3-1.1-0.1c-2.4,0.8-4.6,2-6.7,3.3
	c-0.7,0.5-1.1,1.4-0.9,2.2c0.2,0.8-0.1,1.2-1.4,0.8c-0.7-0.2-1.5,0-2.1,0.5c-2,1.9-3.8,3.9-5.2,6c-0.3,0.5-0.3,1.1,0,1.6
	c0.5,0.6,0.9,1.6-0.5,2.2c-0.3,0.1-0.5,0.1-0.8,0.1c-0.6-0.1-1.2,0.2-1.5,0.8c-1.2,2.9-1.7,5.7-1.2,7.9c0.3,1.5,1.4,2.9,2.9,3.3
	c3.2,0.8,6.2,0.2,9-1.4c0.5-0.3,0.8-0.8,0.8-1.4c0-0.9,0.8-0.9,1.4-0.9c0.5,0.1,1-0.1,1.3-0.4c1.6-1.4,3-3,4.4-4.8
	c0.4-0.6,0.4-1.4,0-1.9c-0.7-0.9-0.2-2.1,1.4-1.8c0.6,0.1,1.3-0.2,1.6-0.7c1.3-2.2,2.5-4.4,3.6-6.4c0.2-0.4,0.1-0.9-0.1-1.3
	c-0.7-1,0.2-1.3,0.9-1.5c0.4-0.1,0.7-0.3,0.9-0.7c1.8-4.1,2.8-7,2.8-7C114,325.4,111.8,325.5,109.6,326z"/>
<path class="st4" d="M123.3,338.8c-0.6-0.2-1.2,0.1-1.5,0.6c-0.2,0.4-0.7,0.6-1.5-0.8c-0.2-0.3-0.6-0.6-1-0.6c-2.5-0.3-5-0.3-7.5,0
	c-0.9,0.1-1.6,0.7-1.8,1.6c-0.2,0.8-0.6,1-1.6,0c-0.6-0.5-1.4-0.7-2.1-0.5c-2.7,0.8-5.1,1.8-7.4,3c-0.5,0.3-0.8,0.9-0.7,1.4
	c0.2,0.8,0.1,1.9-1.4,1.8c-0.3,0-0.5-0.1-0.7-0.2c-0.5-0.4-1.2-0.3-1.6,0.1c-2.4,2-4,4.3-4.6,6.5c-0.4,1.5-0.1,3.2,1.1,4.2
	c2.5,2.2,5.5,2.9,8.7,2.7c0.6,0,1.1-0.3,1.4-0.9c0.4-0.8,1.2-0.5,1.7-0.1c0.4,0.3,0.9,0.4,1.4,0.2c2-0.6,4.1-1.4,6.1-2.4
	c0.6-0.3,1-1,0.8-1.7c-0.2-1.2,0.7-2,2.1-1c0.5,0.4,1.2,0.4,1.8,0.1c2.2-1.3,4.2-2.8,6.1-4.2c0.4-0.3,0.5-0.7,0.4-1.2
	c-0.2-1.2,0.8-1.1,1.4-0.9c0.4,0.1,0.8,0,1.1-0.2c3.4-2.8,5.6-5,5.6-5C127.5,340.2,125.4,339.4,123.3,338.8z"/>
<path class="st5" d="M125.6,342.2c-2.2,0.2-4.4,0.6-6.5,1c-3.5,0.7-6.9,1.6-10.2,2.7c-2.5,0.8-4.9,1.8-7.3,3c-1.7,0.8-3.4,1.7-5,2.6
	c-2.8,1.6-5.6,3.4-8,5.5c-0.5,0.4-1,0.8-1.4,1.2c-0.5,0.4-1.2,0.3-1.6-0.2s-0.3-1.2,0.2-1.6c0,0,0.5-0.4,1.4-1.2
	c2.5-2.1,5.3-3.9,8.1-5.5c1.8-1,3.6-1.9,5.4-2.8c2.5-1.1,5-2.1,7.6-2.9c3.5-1.1,7-2,10.7-2.5c2.2-0.3,4.4-0.5,6.7-0.5
	c0.3,0,0.5,0.2,0.5,0.5C126.1,342,125.9,342.2,125.6,342.2L125.6,342.2z"/>
<path class="st4" d="M154,361.5c-0.2-0.6-0.8-0.9-1.4-0.8c-0.5,0.1-0.8-0.2-0.2-1.7c0.2-0.4,0.1-0.8-0.1-1.1
	c-1.2-2.2-2.7-4.2-4.4-6.1c-0.6-0.7-1.5-0.9-2.4-0.6c-0.8,0.3-1.2,0.1-1-1.3c0.1-0.8-0.2-1.5-0.8-2c-2.2-1.7-4.5-3.1-6.7-4.2
	c-0.5-0.3-1.2-0.1-1.6,0.3c-0.6,0.6-1.4,1.2-2.3-0.1c-0.2-0.3-0.2-0.5-0.2-0.7c0-0.6-0.4-1.2-1-1.3c-3.1-0.8-5.9-0.8-8,0.1
	c-1.5,0.6-2.7,1.8-2.8,3.3c-0.3,3.3,0.8,6.2,2.8,8.6c0.4,0.4,0.9,0.7,1.5,0.6c0.9-0.1,1.1,0.7,1.1,1.3c0,0.5,0.2,0.9,0.6,1.2
	c1.6,1.3,3.5,2.5,5.4,3.5c0.6,0.3,1.4,0.2,1.9-0.3c0.8-0.8,2-0.5,2,1.1c0,0.7,0.4,1.3,1,1.5c2.3,1,4.7,1.8,6.9,2.5
	c0.4,0.1,0.9,0,1.2-0.3c0.8-0.9,1.3,0,1.6,0.6c0.1,0.4,0.4,0.6,0.8,0.7c4.3,1.2,7.4,1.7,7.4,1.7C155.3,365.8,154.8,363.6,154,361.5z
	"/>
<path class="st5" d="M152.5,365.4c-1.4-1.7-3-3.2-4.6-4.7c-2.6-2.4-5.3-4.7-8.2-6.7c-2.1-1.5-4.4-2.9-6.7-4.2
	c-1.6-0.9-3.3-1.8-5-2.5c-2.9-1.3-6-2.5-9.1-3.3c-0.6-0.2-1.2-0.3-1.8-0.5c-0.6-0.2-0.9-0.8-0.8-1.4c0.2-0.6,0.8-0.9,1.4-0.8
	c0,0,0.7,0.2,1.8,0.5c3.1,0.8,6.2,2,9.1,3.4c1.8,0.8,3.6,1.8,5.4,2.8c2.3,1.4,4.6,2.8,6.7,4.5c2.9,2.2,5.7,4.6,8.2,7.2
	c1.5,1.6,3,3.3,4.3,5.1c0.2,0.2,0.1,0.6-0.1,0.7C153,365.7,152.7,365.6,152.5,365.4L152.5,365.4z"/>
<path class="st4" d="M171.4,331.1c-0.6-0.2-1.2,0.1-1.5,0.6c-0.2,0.4-0.7,0.6-1.5-0.8c-0.2-0.3-0.6-0.6-1-0.6c-2.5-0.3-5-0.3-7.5,0
	c-0.9,0.1-1.6,0.7-1.9,1.6c-0.2,0.8-0.6,1-1.6,0c-0.6-0.5-1.4-0.7-2.1-0.5c-2.7,0.7-5.2,1.8-7.4,3c-0.5,0.3-0.8,0.9-0.7,1.4
	c0.2,0.8,0.1,1.9-1.4,1.8c-0.3,0-0.5-0.1-0.7-0.2c-0.5-0.4-1.2-0.3-1.6,0.1c-2.4,2-4.1,4.3-4.6,6.5c-0.4,1.5-0.1,3.2,1.1,4.2
	c2.5,2.2,5.5,2.9,8.7,2.8c0.6,0,1.1-0.3,1.4-0.8c0.4-0.8,1.2-0.5,1.7-0.1c0.4,0.3,0.9,0.4,1.4,0.2c2-0.6,4.1-1.4,6.1-2.3
	c0.6-0.3,1-1,0.8-1.7c-0.2-1.2,0.8-2,2.1-1c0.5,0.4,1.2,0.4,1.8,0.1c2.2-1.3,4.2-2.8,6.1-4.2c0.4-0.3,0.5-0.7,0.4-1.2
	c-0.2-1.2,0.8-1.1,1.4-0.9c0.4,0.1,0.8,0,1.1-0.2c3.4-2.8,5.7-5,5.7-5C175.7,332.5,173.6,331.7,171.4,331.1z"/>
<path class="st5" d="M173.7,334.6c-2.2,0.2-4.4,0.6-6.5,1c-3.5,0.7-6.9,1.6-10.2,2.7c-2.5,0.8-4.9,1.8-7.3,2.9
	c-1.7,0.8-3.4,1.6-5,2.6c-2.8,1.6-5.6,3.4-8,5.4c-0.5,0.4-1,0.8-1.4,1.2c-0.5,0.4-1.2,0.3-1.6-0.2c-0.4-0.5-0.3-1.2,0.2-1.6
	c0,0,0.5-0.4,1.4-1.2c2.5-2.1,5.3-3.8,8.1-5.4c1.8-1,3.6-1.9,5.4-2.7c2.5-1.1,5-2.1,7.6-2.9c3.5-1.1,7-1.9,10.7-2.4
	c2.2-0.3,4.4-0.5,6.7-0.5c0.3,0,0.5,0.2,0.5,0.5C174.2,334.3,174,334.5,173.7,334.6L173.7,334.6z"/>
<path class="st4" d="M185.6,346.5c-0.5-0.3-1.2-0.3-1.6,0.1c-0.4,0.3-0.8,0.3-1.1-1.2c-0.1-0.4-0.3-0.7-0.7-0.9
	c-2.2-1.1-4.6-2-7-2.6c-0.9-0.2-1.8,0.1-2.3,0.8c-0.5,0.7-0.9,0.7-1.5-0.5c-0.3-0.7-1-1.1-1.8-1.2c-2.8-0.2-5.5-0.1-7.9,0.3
	c-0.6,0.1-1,0.5-1.1,1.1c-0.1,0.8-0.5,1.8-1.9,1.2c-0.3-0.1-0.5-0.3-0.6-0.5c-0.3-0.5-1-0.7-1.6-0.5c-3,1.1-5.3,2.6-6.6,4.5
	c-0.9,1.3-1.2,3-0.4,4.3c1.6,2.9,4.1,4.6,7.2,5.6c0.5,0.2,1.1,0.1,1.6-0.3c0.7-0.6,1.3,0,1.6,0.5c0.3,0.4,0.7,0.6,1.2,0.7
	c2.1,0.2,4.3,0.1,6.5-0.1c0.7-0.1,1.3-0.6,1.4-1.3c0.2-1.2,1.4-1.6,2.3-0.2c0.4,0.5,1,0.8,1.7,0.7c2.5-0.5,4.9-1.2,7.1-1.8
	c0.4-0.1,0.8-0.5,0.8-1c0.2-1.2,1.1-0.8,1.7-0.4c0.3,0.2,0.7,0.3,1.1,0.2c4.2-1.5,7-2.8,7-2.8C189.1,349.4,187.5,347.8,185.6,346.5z
	"/>
<path class="st5" d="M186.6,350.6c-2.1-0.6-4.3-1-6.5-1.3c-3.5-0.6-7-0.9-10.6-1c-2.6-0.1-5.3,0-7.9,0.3c-1.9,0.2-3.7,0.4-5.6,0.7
	c-3.1,0.6-6.4,1.3-9.4,2.4c-0.6,0.2-1.2,0.4-1.7,0.6c-0.6,0.2-1.2-0.1-1.4-0.7s0.1-1.2,0.7-1.4c0,0,0.6-0.2,1.8-0.6
	c3.1-1.1,6.3-1.8,9.5-2.3c2-0.3,4-0.6,6.1-0.7c2.7-0.2,5.4-0.2,8.1-0.1c3.7,0.2,7.3,0.6,10.9,1.4c2.2,0.5,4.4,1,6.4,1.8
	c0.3,0.1,0.4,0.4,0.3,0.7C187.2,350.5,186.9,350.7,186.6,350.6L186.6,350.6z"/>
<path class="st4" d="M208.2,331.5c-0.5-0.3-1.2-0.1-1.6,0.3c-0.3,0.4-0.7,0.4-1.3-1c-0.1-0.4-0.4-0.7-0.8-0.8
	c-2.4-0.8-4.9-1.2-7.3-1.4c-0.9-0.1-1.7,0.4-2.1,1.2c-0.4,0.8-0.8,0.9-1.6-0.3c-0.5-0.6-1.2-1-2-0.9c-2.8,0.3-5.4,0.8-7.8,1.6
	c-0.6,0.2-0.9,0.7-0.9,1.3c0,0.8-0.2,1.9-1.7,1.5c-0.3-0.1-0.5-0.2-0.7-0.4c-0.4-0.5-1.1-0.6-1.6-0.2c-2.7,1.6-4.8,3.5-5.7,5.6
	c-0.6,1.4-0.7,3.2,0.3,4.4c2.1,2.6,4.9,3.9,8,4.3c0.6,0.1,1.1-0.1,1.5-0.6c0.6-0.7,1.2-0.3,1.7,0.2c0.3,0.3,0.8,0.5,1.3,0.5
	c2.1-0.2,4.2-0.6,6.4-1.2c0.7-0.2,1.1-0.8,1.1-1.5c0-1.2,1.1-1.8,2.2-0.6c0.4,0.5,1.1,0.6,1.7,0.4c2.4-0.9,4.7-2,6.7-3
	c0.4-0.2,0.7-0.6,0.7-1.1c0-1.2,1-0.9,1.6-0.6c0.3,0.2,0.8,0.2,1.1,0c3.9-2.1,6.5-3.9,6.5-3.9C212.1,333.7,210.2,332.5,208.2,331.5z
	"/>
<path class="st4" d="M196.3,365.6c-0.3-0.5-0.9-0.8-1.5-0.7c-0.5,0.1-0.9-0.1-0.4-1.6c0.1-0.4,0.1-0.8-0.2-1.1
	c-1.4-2.1-3.1-3.9-4.9-5.6c-0.7-0.6-1.6-0.7-2.4-0.3c-0.8,0.4-1.2,0.2-1.1-1.2c0-0.8-0.4-1.5-1-1.9c-2.3-1.5-4.8-2.7-7.1-3.5
	c-0.6-0.2-1.2,0-1.5,0.4c-0.5,0.7-1.3,1.3-2.3,0.1c-0.2-0.2-0.3-0.5-0.3-0.7c0-0.6-0.5-1.1-1.1-1.2c-3.1-0.5-5.9-0.2-7.9,0.9
	c-1.4,0.7-2.5,2.1-2.5,3.6c0,3.3,1.4,6,3.7,8.3c0.4,0.4,1,0.6,1.5,0.5c0.9-0.2,1.1,0.6,1.2,1.2c0.1,0.5,0.3,0.9,0.7,1.2
	c1.7,1.1,3.7,2.1,5.8,3c0.7,0.3,1.4,0.1,1.9-0.5c0.7-0.9,2-0.7,2.1,0.9c0.1,0.7,0.5,1.2,1.1,1.4c2.4,0.7,4.9,1.3,7.1,1.8
	c0.5,0.1,0.9-0.1,1.2-0.5c0.7-1,1.3-0.1,1.6,0.5c0.2,0.3,0.5,0.6,0.9,0.7c4.4,0.7,7.5,0.9,7.5,0.9
	C198,369.8,197.3,367.6,196.3,365.6z"/>
<path class="st5" d="M195.2,369.7c-1.6-1.5-3.3-2.9-5.1-4.3c-2.8-2.2-5.8-4.1-8.8-5.9c-2.3-1.3-4.6-2.5-7-3.5
	c-1.7-0.7-3.5-1.4-5.2-2c-3-1-6.2-1.9-9.4-2.4c-0.6-0.1-1.2-0.2-1.8-0.3c-0.6-0.1-1-0.7-0.9-1.3c0.1-0.6,0.7-1,1.3-0.9
	c0,0,0.7,0.1,1.9,0.3c3.2,0.5,6.4,1.4,9.4,2.5c1.9,0.7,3.8,1.4,5.7,2.3c2.5,1.1,4.9,2.4,7.2,3.8c3.1,1.9,6.1,4,8.9,6.4
	c1.7,1.5,3.3,3,4.8,4.7c0.2,0.2,0.2,0.6-0.1,0.7C195.7,369.9,195.4,369.9,195.2,369.7L195.2,369.7z"/>
<path class="st4" d="M221.5,353.7c-0.4-0.4-1.1-0.6-1.6-0.3c-0.4,0.2-0.9,0.1-0.8-1.5c0-0.4-0.2-0.8-0.5-1c-1.9-1.6-4.1-2.9-6.3-4
	c-0.8-0.4-1.8-0.3-2.4,0.3c-0.6,0.6-1.1,0.5-1.4-0.8c-0.2-0.7-0.8-1.3-1.5-1.6c-2.6-0.8-5.3-1.3-7.8-1.4c-0.6,0-1.1,0.3-1.3,0.9
	c-0.3,0.8-0.9,1.6-2.1,0.8c-0.2-0.2-0.4-0.4-0.5-0.6c-0.2-0.6-0.8-0.9-1.4-0.8c-3.1,0.4-5.7,1.4-7.4,3c-1.1,1.1-1.8,2.7-1.4,4.1
	c0.9,3.2,3.1,5.4,5.8,7c0.5,0.3,1.1,0.3,1.6,0c0.8-0.4,1.2,0.2,1.5,0.8c0.2,0.4,0.6,0.8,1,0.9c2,0.6,4.2,1,6.4,1.3
	c0.7,0.1,1.4-0.3,1.6-1c0.4-1.1,1.7-1.3,2.3,0.3c0.2,0.6,0.8,1,1.5,1c2.5,0,5-0.1,7.4-0.3c0.5,0,0.9-0.3,1-0.8
	c0.4-1.1,1.2-0.5,1.7,0c0.3,0.3,0.6,0.4,1,0.4c4.4-0.5,7.5-1.2,7.5-1.2C224.3,357.2,223,355.3,221.5,353.7z"/>
<path class="st5" d="M221.5,357.8c-1.9-1-4-1.9-6-2.7c-3.3-1.3-6.7-2.3-10.1-3.2c-2.5-0.6-5.1-1.1-7.7-1.4c-1.9-0.2-3.7-0.4-5.6-0.5
	c-3.2-0.1-6.5-0.1-9.7,0.3c-0.6,0.1-1.2,0.1-1.8,0.2s-1.2-0.4-1.2-1c-0.1-0.6,0.4-1.2,1-1.2c0,0,0.7-0.1,1.9-0.2
	c3.2-0.4,6.5-0.4,9.7-0.3c2,0.1,4.1,0.3,6.1,0.6c2.7,0.4,5.3,0.9,7.9,1.6c3.5,1,7,2.1,10.3,3.7c2,0.9,4,1.9,5.9,3.2
	c0.2,0.2,0.3,0.5,0.2,0.7C222.1,357.9,221.8,358,221.5,357.8L221.5,357.8z"/>
<path class="st4" d="M230.2,337.5c-0.6-0.2-1.2,0-1.5,0.6c-0.2,0.4-0.7,0.5-1.5-0.9c-0.2-0.3-0.5-0.6-0.9-0.7
	c-2.5-0.4-5-0.5-7.5-0.4c-0.9,0.1-1.7,0.6-1.9,1.5c-0.3,0.8-0.7,1-1.6,0c-0.5-0.6-1.3-0.8-2.1-0.6c-2.7,0.6-5.2,1.5-7.5,2.6
	c-0.5,0.3-0.8,0.8-0.7,1.4c0.1,0.8,0,1.9-1.5,1.7c-0.3,0-0.5-0.1-0.7-0.3c-0.5-0.4-1.2-0.4-1.7,0c-2.5,1.9-4.3,4.1-4.9,6.3
	c-0.4,1.5-0.2,3.2,0.9,4.3c2.4,2.3,5.3,3.2,8.5,3.2c0.6,0,1.1-0.3,1.4-0.8c0.5-0.8,1.2-0.4,1.7,0c0.4,0.3,0.9,0.4,1.3,0.3
	c2-0.5,4.1-1.2,6.2-2.1c0.7-0.3,1-1,0.9-1.7c-0.2-1.2,0.8-1.9,2.1-0.9c0.5,0.4,1.2,0.5,1.8,0.2c2.2-1.2,4.3-2.6,6.3-3.9
	c0.4-0.3,0.6-0.7,0.5-1.2c-0.2-1.2,0.8-1.1,1.5-0.8c0.4,0.1,0.8,0.1,1.1-0.2c3.6-2.6,5.9-4.7,5.9-4.7
	C234.4,339.2,232.3,338.2,230.2,337.5z"/>
<path class="st5" d="M232.3,341.1c-2.2,0.1-4.4,0.4-6.6,0.7c-3.5,0.5-7,1.3-10.4,2.2c-2.5,0.7-5,1.6-7.4,2.6
	c-1.7,0.7-3.4,1.5-5.1,2.4c-2.8,1.5-5.7,3.1-8.3,5.1c-0.5,0.4-1,0.7-1.5,1.1s-1.2,0.3-1.6-0.2c-0.4-0.5-0.3-1.2,0.2-1.6
	c0,0,0.5-0.4,1.5-1.1c2.6-1.9,5.4-3.6,8.3-5c1.8-0.9,3.7-1.7,5.6-2.5c2.5-1,5.1-1.8,7.7-2.5c3.5-0.9,7.1-1.6,10.8-1.9
	c2.2-0.2,4.5-0.3,6.7-0.2c0.3,0,0.5,0.3,0.5,0.6C232.8,340.9,232.6,341.1,232.3,341.1L232.3,341.1z"/>
<path class="st6" d="M116.3,398c-0.5,0.1-1,0.1-1.5,0c-0.1,0-0.3,0-0.4-0.1c-5.2-0.9-10-8.4-13.4-13.4c-0.5-2-1.3-4-2.7-5.7
	c-1.1-1.4-2.6-2.6-4.3-3.7c-2.6-3.5-5.3-6.9-7.9-10.4c0.9-0.5,1.6-1.2,2.1-2.1c2.2-3.8-0.2-6.9-2.3-10c2.3-4,2-11.1,1.8-15.1
	c-0.1-4.1-0.8-8.3-1.8-12.3c0,0,0,0,0,0c0.6-4.4,2.2-21-4.9-21.9c-0.1-0.9-0.6-1.7-1.7-2.1c-4.6-1.5-9.2,0.4-12,4.1
	c-3.3,4.4-3.2,10.2-3.2,15.5c0,7.5,0.1,15.1,0.9,22.6c0,0.3,0,0.6,0.1,0.8c-0.5,1.2-0.7,2.5-0.3,3.9c-0.1,0.1-0.2,0.2-0.3,0.3
	c-3,3.1-3.3,7.4-1.3,11.2c0.1,0.2,0.2,0.4,0.3,0.5c-0.2,0.3-0.3,0.7-0.3,1.1c0,0.8-0.2,1.6-0.4,2.3c-4.3,4-8.1,8.7-10.2,14.1
	c-1.8,4.5-2.6,9.4-5.2,13.5c-3,4.7-6.7,5.8-12.1,5.1c-4.5-0.6-10.2,1.1-10.6,5.7c-0.9,0.2-1.7,0.4-2.6,0.7c-3,1.1-1.7,5.9,1.3,4.8
	c6.6-2.3,13.8-1.3,20.3-3.8c4.8-1.9,8-5.6,10-10.3c2.4-5.7,2.9-12.2,6.5-17.3c2.3-3.2,4.9-5.9,6.6-9.2c0,0,0.1,0,0.1-0.1
	c0.8-0.7,1.6-1.4,2.4-2c1.8,0.7,3.7,1.1,5.7,1.2c0.4,0,0.7,0,1.1,0.1c1.5,3.3,4.3,5.9,7.4,8c2.2,1.5,4.5,2.6,6.7,4.1
	c0.9,1.2,1.9,2.5,2.8,3.7c-1.4,0.6-2.4,2.6-0.9,4c2.7,2.7,2.2,7.1,3.8,10.4c1.3,2.6,3.4,4.8,5.9,6.3c5.1,2.9,11.3,3,16.3-0.1
	C120.8,400.9,119,397.6,116.3,398z M74.1,306.6c-0.4,0.1-0.8,0.1-1.2,0.2c0.9-0.8,1.9-1.2,3.1-1.2c-0.2,0.3-0.3,0.6-0.5,0.9
	C75.1,306.5,74.6,306.6,74.1,306.6z M75.8,314c-0.1-0.4-0.3-0.8-0.6-1.1c0.2,0,0.3,0,0.5,0c0.2,0.5,0.5,1,0.7,1.5
	C76.2,314.2,76,314.1,75.8,314z"/>
<path class="st3" d="M86.5,335.2c-0.3-1.6-1-3.1-2.2-4.3c-1.3-3.1-3.5-5.6-6-8.1c-4.3-4.1-10.9-9.1-8.2-15.9c1.2-3-3.6-4.3-4.8-1.3
	c-5,12.4,10.1,17.7,14.3,27.1c0.1,0.3,0.2,0.6,0.4,0.9c0.2,0.5,0.3,1,0.4,1.5c0.2,0.8,0.7,1.3,1.3,1.6c0,0.3,0,0.6-0.1,0.9
	c-0.8,2.9,3.3,4.2,4.6,2C87.7,338.7,87.8,336.2,86.5,335.2z"/>
<path class="st3" d="M85.6,346.6c-5.7-8.5-13-15.6-21.7-21c-2.7-1.7-5.2,2.6-2.5,4.3c8,5,14.7,11.4,19.9,19.2
	C83.1,351.8,87.4,349.3,85.6,346.6z"/>
<path class="st3" d="M81.8,359c-4-3.2-16.1-7.3-12.1-14.4c1.6-2.8-2.7-5.3-4.3-2.5c-2.4,4.3-1.4,9.2,1.8,12.8
	c4.2,4.7,16.7,7.6,14.9,15.6c-0.7,3.1,4.1,4.5,4.8,1.3C88.1,366.7,85.8,362.3,81.8,359z"/>
<path class="st3" d="M107.4,395.9c-3.9-2.5-7.1-5.8-9.7-9.7c-1.7-2.7-6.1-0.2-4.3,2.5c3,4.6,6.8,8.5,11.5,11.5
	C107.5,402,110,397.6,107.4,395.9z"/>
<path class="st3" d="M44.4,396.3c-2.4,3.3-7.2,4-10.7,1.9c-2.8-1.7-5.3,2.6-2.5,4.3c5.9,3.6,13.5,1.8,17.5-3.7
	C50.7,396.3,46.3,393.8,44.4,396.3z"/>
<path class="st3" d="M60.3,369.1c-1.3-0.7-2.6-0.3-3.4,0.9c-0.7,1-1.3,2-2,3c-0.7,1.1-0.2,2.8,0.9,3.4c1.3,0.7,2.6,0.3,3.4-0.9
	c0.7-1,1.3-2,2-3C61.9,371.4,61.4,369.7,60.3,369.1z"/>
</svg>
