<?xml version="1.0" encoding="utf-8"?>
<!-- Generator: Adobe Illustrator 19.0.0, SVG Export Plug-In . SVG Version: 6.00 Build 0)  -->
<svg version="1.1" id="Capa_1" xmlns="http://www.w3.org/2000/svg" xmlns:xlink="http://www.w3.org/1999/xlink" x="0px" y="0px"
	 viewBox="-115 116.2 380.8 380.8" style="enable-background:new -115 116.2 380.8 380.8;" xml:space="preserve">
<style type="text/css">
	.st0{fill:#C06100;}
	.st1{fill:#7CB777;}
	.st2{fill:#35925D;}
	.st3{fill:#FF728B;}
	.st4{fill:#FF3F62;}
	.st5{fill:#FF0C38;}
	.st6{fill:#FFEB99;}
	.st7{fill:#FFDA44;}
	.st8{fill:#C3D4CA;}
	.st9{fill:#7CA588;}
</style>
<rect x="65" y="184.3" transform="matrix(0.6184 0.7859 -0.7859 0.6184 181.3161 22.0518)" class="st0" width="5.8" height="26.8"/>
<rect x="62.7" y="199.3" transform="matrix(-0.8266 0.5628 -0.5628 -0.8266 239.4641 351.5927)" class="st0" width="5.8" height="26.8"/>
<rect x="58.5" y="213.3" transform="matrix(0.4415 0.8973 -0.8973 0.4415 237.7384 71.5529)" class="st0" width="5.8" height="26.8"/>
<rect x="60" y="225.9" transform="matrix(-0.5807 0.8141 -0.8141 -0.5807 294.2477 327.0213)" class="st0" width="5.8" height="26.8"/>
<rect x="58.5" y="239.3" transform="matrix(0.6184 0.7859 -0.7859 0.6184 222.0101 48.1824)" class="st0" width="5.8" height="26.8"/>
<rect x="74.7" y="243.8" transform="matrix(0.8448 -0.5351 0.5351 0.8448 -125.5646 81.4267)" class="st0" width="5.8" height="26.8"/>
<rect x="119.7" y="202.3" transform="matrix(0.2452 0.9695 -0.9695 0.2452 301.6741 44.0107)" class="st0" width="5.8" height="26.8"/>
<rect x="111.4" y="215" transform="matrix(-0.9841 0.1778 -0.1778 -0.9841 267.4154 432.9059)" class="st0" width="5.8" height="26.8"/>
<rect x="101.9" y="226.2" transform="matrix(3.826841e-002 0.9993 -0.9993 3.826841e-002 340.171 125.7145)" class="st0" width="5.8" height="26.8"/>
<rect x="98.2" y="238.2" transform="matrix(-0.8617 0.5074 -0.5074 -0.8617 315.8424 417.2166)" class="st0" width="5.8" height="26.8"/>
<rect x="91.3" y="249.9" transform="matrix(0.2452 0.9695 -0.9695 0.2452 326.3646 107.3865)" class="st0" width="5.8" height="26.8"/>
<rect x="104.3" y="260.5" transform="matrix(0.9894 -0.1451 0.1451 0.9894 -38.6222 18.4559)" class="st0" width="5.8" height="26.8"/>
<rect x="163.6" y="244.9" transform="matrix(-0.2624 0.965 -0.965 -0.2624 459.4298 165.3531)" class="st0" width="5.8" height="26.8"/>
<rect x="150.2" y="251.9" transform="matrix(-0.9446 -0.3282 0.3282 -0.9446 210.6103 566.0895)" class="st0" width="5.8" height="26.8"/>
<rect x="136.4" y="256.9" transform="matrix(-0.4573 0.8893 -0.8893 -0.4573 443.3906 270.0148)" class="st0" width="5.8" height="26.8"/>
<rect x="127.2" y="265.6" transform="matrix(-0.9998 1.898808e-002 -1.898808e-002 -0.9998 265.5613 555.4607)" class="st0" width="5.8" height="26.8"/>
<rect x="115.6" y="272.4" transform="matrix(-0.2624 0.965 -0.965 -0.2624 425.3115 246.4268)" class="st0" width="5.8" height="26.8"/>
<rect x="121.6" y="288" transform="matrix(0.9332 0.3594 -0.3594 0.9332 116.6389 -24.6172)" class="st0" width="5.8" height="26.8"/>
<rect x="169.2" y="336.4" transform="matrix(-0.975 0.2223 -0.2223 -0.975 417.7456 652.5411)" class="st0" width="5.8" height="26.8"/>
<rect x="156.7" y="327.8" transform="matrix(-0.1546 -0.988 0.988 -0.1546 -152.7799 551.7089)" class="st0" width="5.8" height="26.8"/>
<rect x="145.8" y="318" transform="matrix(-0.9999 1.475089e-002 -1.475089e-002 -0.9999 302.3315 660.6238)" class="st0" width="5.8" height="26.8"/>
<rect x="133.8" y="314" transform="matrix(-0.487 -0.8734 0.8734 -0.487 -82.6238 606.3318)" class="st0" width="5.8" height="26.8"/>
<rect x="122.4" y="306.9" transform="matrix(-0.975 0.2223 -0.2223 -0.975 318.6404 604.7669)" class="st0" width="5.8" height="26.8"/>
<rect x="111.4" y="319.6" transform="matrix(0.1218 0.9926 -0.9926 0.1218 430.9401 179.0023)" class="st0" width="5.8" height="26.8"/>
<rect x="82.5" y="381.2" transform="matrix(0.4176 -0.9086 0.9086 0.4176 -308.8117 307.3664)" class="st0" width="5.8" height="26.8"/>
<rect x="76.6" y="367.2" transform="matrix(-0.9352 -0.3541 0.3541 -0.9352 19.1981 764.6932)" class="st0" width="5.8" height="26.8"/>
<rect x="69.3" y="354.5" transform="matrix(0.2196 -0.9756 0.9756 0.2196 -302.5673 357.558)" class="st0" width="5.8" height="26.8"/>
<rect x="67.8" y="341.9" transform="matrix(-0.7549 -0.6559 0.6559 -0.7549 -108.8975 670.0044)" class="st0" width="5.8" height="26.8"/>
<rect x="98.2" y="331.5" transform="matrix(-0.918 -0.3965 0.3965 -0.918 57.1233 701.5815)" class="st0" width="5.8" height="26.8"/>
<rect x="81.8" y="335.3" transform="matrix(-0.488 0.8729 -0.8729 -0.488 430.3935 444.8632)" class="st0" width="5.8" height="26.8"/>
<rect x="50.6" y="391.8" transform="matrix(-0.5378 -0.843 0.843 -0.5378 -259.2242 668.2447)" class="st0" width="5.8" height="26.8"/>
<rect x="54.5" y="377.1" transform="matrix(0.8781 -0.4785 0.4785 0.8781 -179.8684 75.0799)" class="st0" width="5.8" height="26.8"/>
<rect x="60" y="363.5" transform="matrix(-0.3508 -0.9364 0.9364 -0.3508 -267.9588 568.1253)" class="st0" width="5.8" height="26.8"/>
<rect x="59.8" y="350.9" transform="matrix(0.6582 -0.7528 0.7528 0.6582 -252.8527 171.7063)" class="st0" width="5.8" height="26.8"/>
<rect x="62.6" y="337.7" transform="matrix(-0.5378 -0.843 0.843 -0.5378 -195.2787 595.1964)" class="st0" width="5.8" height="26.8"/>
<rect x="46.9" y="331.7" transform="matrix(-0.8935 0.4491 -0.4491 -0.8935 249.3558 631.0117)" class="st0" width="5.8" height="26.8"/>
<rect x="-12.7" y="355.4" transform="matrix(0.1049 -0.9945 0.9945 0.1049 -375.5386 320.3109)" class="st0" width="5.8" height="26.8"/>
<rect x="-0.6" y="346.3" transform="matrix(0.9849 0.1732 -0.1732 0.9849 62.3234 5.0323)" class="st0" width="5.8" height="26.8"/>
<rect x="12.2" y="339.1" transform="matrix(0.3094 -0.9509 0.9509 0.3094 -324.8186 257.8513)" class="st0" width="5.8" height="26.8"/>
<rect x="19.9" y="329.1" transform="matrix(0.984 -0.1784 0.1784 0.984 -60.7467 9.5589)" class="st0" width="5.8" height="26.8"/>
<rect x="30.3" y="320.6" transform="matrix(0.1049 -0.9945 0.9945 0.1049 -302.3925 331.9456)" class="st0" width="5.8" height="26.8"/>
<rect x="21.8" y="306.1" transform="matrix(-0.9786 -0.2057 0.2057 -0.9786 -16.7944 637.1918)" class="st0" width="5.8" height="26.8"/>
<rect x="-36.2" y="285.6" transform="matrix(0.7649 -0.6442 0.6442 0.7649 -200.4155 48.8168)" class="st0" width="5.8" height="26.8"/>
<rect x="-21.2" y="287.4" transform="matrix(0.59 0.8074 -0.8074 0.59 235.4084 138.1315)" class="st0" width="5.8" height="26.8"/>
<rect x="-7" y="291.1" transform="matrix(0.8821 -0.4711 0.4711 0.8821 -143.9482 33.9715)" class="st0" width="5.8" height="26.8"/>
<rect x="5.5" y="289.2" transform="matrix(0.833 0.5533 -0.5533 0.833 168.8452 45.9166)" class="st0" width="5.8" height="26.8"/>
<rect x="18.9" y="290.3" transform="matrix(0.7649 -0.6442 0.6442 0.7649 -190.494 85.4573)" class="st0" width="5.8" height="26.8"/>
<rect x="22.8" y="274" transform="matrix(-0.5629 -0.8265 0.8265 -0.5629 -197.2714 470.3923)" class="st0" width="5.8" height="26.8"/>
<rect x="-8.5" y="215.1" transform="matrix(0.9998 1.912105e-002 -1.912105e-002 0.9998 4.3688 0.1483)" class="st0" width="5.8" height="26.8"/>
<rect x="1.6" y="226.4" transform="matrix(-8.792534e-002 0.9961 -0.9961 -8.792534e-002 243.8246 256.4606)" class="st0" width="5.8" height="26.8"/>
<rect x="9.8" y="238.6" transform="matrix(0.974 0.2266 -0.2266 0.974 57.4233 3.6668)" class="st0" width="5.8" height="26.8"/>
<rect x="20.5" y="245.3" transform="matrix(0.2623 0.965 -0.965 0.2623 266.9602 168.3043)" class="st0" width="5.8" height="26.8"/>
<rect x="29.9" y="255" transform="matrix(0.9998 1.912105e-002 -1.912105e-002 0.9998 5.1385 -0.5784)" class="st0" width="5.8" height="26.8"/>
<rect x="43.6" y="245.3" transform="matrix(0.1209 -0.9927 0.9927 0.1209 -215.9228 273.6298)" class="st0" width="5.8" height="26.8"/>
<path class="st1" d="M145.6,197c-0.3,0.1-0.5,0.3-0.5,0.6c0,0.2-0.2,0.4-0.9,0c-0.2-0.1-0.4-0.1-0.6-0.1c-1.2,0.4-2.4,1-3.5,1.7
	c-0.4,0.3-0.6,0.7-0.5,1.2c0.1,0.4-0.1,0.6-0.8,0.4c-0.4-0.1-0.8,0-1.1,0.3c-1.1,1-2,2-2.7,3.1c-0.2,0.3-0.2,0.6,0,0.8
	c0.3,0.3,0.5,0.8-0.2,1.2c-0.1,0.1-0.3,0.1-0.4,0.1c-0.3-0.1-0.6,0.1-0.8,0.4c-0.6,1.5-0.9,2.9-0.6,4.1c0.2,0.8,0.7,1.5,1.5,1.7
	c1.7,0.4,3.2,0.1,4.7-0.7c0.3-0.1,0.4-0.4,0.4-0.7c0-0.5,0.4-0.5,0.8-0.4c0.2,0,0.5,0,0.7-0.2c0.8-0.7,1.6-1.6,2.3-2.5
	c0.2-0.3,0.2-0.7,0-1c-0.4-0.5-0.1-1.1,0.7-0.9c0.3,0.1,0.7-0.1,0.9-0.4c0.7-1.1,1.3-2.3,1.9-3.3c0.1-0.2,0.1-0.5-0.1-0.7
	c-0.4-0.5,0.1-0.7,0.5-0.8c0.2,0,0.4-0.2,0.4-0.4c0.9-2.1,1.5-3.6,1.5-3.6C148,196.7,146.8,196.8,145.6,197z"/>
<path class="st2" d="M147.5,198.1c-1,0.6-1.9,1.3-2.8,2c-1.5,1.1-2.8,2.3-4.1,3.6c-1,1-1.9,2-2.7,3.1c-0.6,0.8-1.2,1.6-1.7,2.4
	c-0.9,1.4-1.8,2.9-2.5,4.4c-0.1,0.3-0.3,0.6-0.4,0.9c-0.1,0.3-0.5,0.4-0.8,0.3c-0.3-0.1-0.4-0.5-0.3-0.8c0,0,0.1-0.3,0.4-0.9
	c0.7-1.5,1.6-3,2.5-4.4c0.6-0.9,1.2-1.7,1.9-2.5c0.9-1.1,1.8-2.1,2.9-3.1c1.4-1.3,2.8-2.5,4.4-3.6c1-0.7,1.9-1.3,3-1.8
	c0.1-0.1,0.3,0,0.4,0.1C147.7,197.8,147.6,198,147.5,198.1L147.5,198.1z"/>
<path class="st1" d="M116.1,198.4c-0.3,0.2-0.4,0.5-0.2,0.8c0.1,0.2,0,0.4-0.8,0.3c-0.2,0-0.4,0-0.6,0.2c-0.9,0.9-1.8,1.9-2.4,3
	c-0.2,0.4-0.2,0.9,0,1.3c0.3,0.4,0.2,0.6-0.5,0.7c-0.4,0.1-0.7,0.3-0.9,0.7c-0.6,1.3-1,2.7-1.2,4c-0.1,0.3,0.1,0.6,0.4,0.7
	c0.4,0.2,0.8,0.6,0.3,1.1c-0.1,0.1-0.2,0.2-0.3,0.2c-0.3,0.1-0.5,0.4-0.5,0.7c0,1.6,0.4,3,1.1,4c0.5,0.6,1.3,1.1,2.1,0.9
	c1.7-0.3,3-1.3,4-2.6c0.2-0.2,0.2-0.6,0.1-0.8c-0.2-0.4,0.2-0.6,0.5-0.7c0.2-0.1,0.4-0.2,0.5-0.5c0.4-1,0.8-2.1,1-3.2
	c0.1-0.4-0.1-0.7-0.4-0.9c-0.5-0.3-0.5-0.9,0.3-1.2c0.3-0.1,0.6-0.4,0.6-0.7c0.2-1.3,0.3-2.6,0.3-3.8c0-0.2-0.1-0.5-0.3-0.6
	c-0.6-0.3-0.2-0.7,0.1-0.9c0.2-0.1,0.3-0.3,0.3-0.5c0-2.3-0.2-3.9-0.2-3.9C118.1,197.1,117,197.7,116.1,198.4z"/>
<path class="st2" d="M118.3,198.6c-0.7,0.9-1.2,2-1.8,3c-0.9,1.6-1.6,3.3-2.3,5c-0.5,1.3-0.9,2.6-1.2,3.9c-0.2,0.9-0.4,1.9-0.6,2.9
	c-0.3,1.6-0.5,3.4-0.4,5c0,0.3,0,0.6,0,1c0,0.3-0.3,0.6-0.6,0.6c-0.3,0-0.6-0.3-0.6-0.6c0,0,0-0.4,0-1c0-1.7,0.2-3.4,0.5-5
	c0.2-1,0.4-2.1,0.7-3.1c0.4-1.4,0.8-2.7,1.3-4c0.7-1.8,1.5-3.5,2.5-5.1c0.6-1,1.2-2,2-2.9c0.1-0.1,0.3-0.1,0.4,0
	C118.3,198.3,118.3,198.5,118.3,198.6L118.3,198.6z"/>
<path class="st1" d="M104.1,199.1c-0.1,0.3,0,0.6,0.2,0.8c0.2,0.1,0.3,0.4-0.5,0.7c-0.2,0.1-0.3,0.3-0.4,0.5
	c-0.3,1.3-0.4,2.6-0.4,3.9c0,0.5,0.3,0.9,0.7,1c0.4,0.2,0.5,0.4-0.1,0.8c-0.3,0.3-0.5,0.7-0.4,1.1c0.2,1.4,0.6,2.8,1.1,4
	c0.1,0.3,0.4,0.5,0.7,0.4c0.4,0,1,0,0.8,0.8c0,0.2-0.1,0.3-0.2,0.4c-0.2,0.2-0.2,0.6-0.1,0.9c0.9,1.4,2,2.3,3.1,2.8
	c0.8,0.3,1.7,0.2,2.2-0.3c1.3-1.2,1.8-2.7,1.9-4.3c0-0.3-0.1-0.6-0.4-0.8c-0.4-0.3-0.2-0.6,0-0.9c0.2-0.2,0.2-0.4,0.2-0.7
	c-0.2-1.1-0.5-2.2-0.9-3.3c-0.1-0.4-0.5-0.6-0.8-0.5c-0.6,0-1-0.5-0.4-1.1c0.2-0.2,0.3-0.6,0.1-0.9c-0.6-1.2-1.2-2.3-1.8-3.4
	c-0.1-0.2-0.4-0.3-0.6-0.3c-0.6,0-0.5-0.5-0.4-0.8c0.1-0.2,0.1-0.4-0.1-0.6c-1.3-1.9-2.3-3.2-2.3-3.2
	C105.1,197,104.5,198.1,104.1,199.1z"/>
<path class="st2" d="M106,198.2c0,1.1,0,2.3,0.1,3.4c0.1,1.8,0.4,3.7,0.8,5.5c0.3,1.3,0.6,2.7,1.1,3.9c0.3,0.9,0.7,1.8,1,2.7
	c0.7,1.5,1.4,3.1,2.3,4.5c0.2,0.3,0.3,0.5,0.5,0.8c0.2,0.3,0.1,0.6-0.2,0.8c-0.3,0.2-0.6,0.1-0.8-0.2c0,0-0.2-0.3-0.5-0.8
	c-0.9-1.4-1.7-2.9-2.3-4.5c-0.4-1-0.8-2-1.1-3c-0.4-1.3-0.8-2.7-1-4.1c-0.3-1.9-0.6-3.8-0.6-5.7c0-1.2,0-2.3,0.1-3.5
	c0-0.2,0.2-0.3,0.3-0.2C105.9,197.9,106,198,106,198.2L106,198.2z"/>
<path class="st1" d="M136.6,236.7c-0.3-0.2-0.6-0.2-0.8,0c-0.2,0.2-0.4,0.2-0.6-0.6c0-0.2-0.2-0.4-0.4-0.5c-1.2-0.6-2.4-1-3.6-1.3
	c-0.4-0.1-0.9,0.1-1.2,0.4c-0.3,0.4-0.5,0.4-0.8-0.3c-0.2-0.4-0.5-0.6-0.9-0.6c-1.4-0.1-2.8,0-4.1,0.2c-0.3,0-0.5,0.3-0.6,0.6
	c-0.1,0.4-0.3,0.9-1,0.6c-0.1-0.1-0.2-0.1-0.3-0.2c-0.2-0.3-0.5-0.4-0.8-0.3c-1.5,0.6-2.7,1.4-3.4,2.4c-0.5,0.7-0.6,1.6-0.2,2.3
	c0.8,1.5,2.2,2.4,3.8,2.9c0.3,0.1,0.6,0,0.8-0.2c0.3-0.3,0.7,0,0.8,0.2c0.1,0.2,0.4,0.3,0.6,0.4c1.1,0.1,2.2,0,3.4-0.1
	c0.4,0,0.7-0.3,0.7-0.7c0.1-0.6,0.7-0.8,1.2-0.1c0.2,0.3,0.5,0.4,0.9,0.4c1.3-0.3,2.6-0.6,3.7-1c0.2-0.1,0.4-0.3,0.4-0.5
	c0.1-0.6,0.6-0.4,0.9-0.2c0.2,0.1,0.4,0.1,0.6,0.1c2.2-0.8,3.7-1.4,3.7-1.4C138.5,238.2,137.6,237.4,136.6,236.7z"/>
<path class="st2" d="M137.1,238.8c-1.1-0.3-2.2-0.5-3.4-0.7c-1.8-0.3-3.7-0.4-5.5-0.5c-1.4,0-2.7,0-4.1,0.1c-1,0.1-1.9,0.2-2.9,0.4
	c-1.6,0.3-3.3,0.7-4.9,1.2c-0.3,0.1-0.6,0.2-0.9,0.3c-0.3,0.1-0.6-0.1-0.7-0.4c-0.1-0.3,0.1-0.6,0.4-0.7c0,0,0.3-0.1,0.9-0.3
	c1.6-0.6,3.3-0.9,4.9-1.2c1-0.2,2.1-0.3,3.1-0.4c1.4-0.1,2.8-0.1,4.2-0.1c1.9,0.1,3.8,0.3,5.7,0.7c1.1,0.2,2.3,0.5,3.3,0.9
	c0.1,0.1,0.2,0.2,0.2,0.4C137.4,238.8,137.3,238.9,137.1,238.8L137.1,238.8z"/>
<path class="st1" d="M83.5,221.1c-0.1,0.3,0.1,0.6,0.4,0.8c0.2,0.1,0.3,0.3-0.4,0.8c-0.2,0.1-0.3,0.3-0.3,0.5
	c-0.1,1.3,0,2.6,0.1,3.9c0.1,0.5,0.4,0.8,0.9,0.9c0.4,0.1,0.5,0.3,0.1,0.8c-0.3,0.3-0.3,0.7-0.2,1.1c0.4,1.4,1,2.6,1.7,3.8
	c0.2,0.3,0.5,0.4,0.8,0.3c0.4-0.1,1-0.1,1,0.7c0,0.2,0,0.3-0.1,0.4c-0.2,0.3-0.2,0.6,0.1,0.9c1.1,1.2,2.3,2,3.5,2.3
	c0.8,0.2,1.7,0,2.2-0.6c1.1-1.3,1.4-2.9,1.3-4.6c0-0.3-0.2-0.6-0.5-0.7c-0.4-0.2-0.3-0.6-0.1-0.9c0.1-0.2,0.2-0.5,0.1-0.7
	c-0.3-1-0.8-2.1-1.3-3.1c-0.2-0.3-0.6-0.5-0.9-0.4c-0.6,0.1-1-0.4-0.5-1.1c0.2-0.3,0.2-0.7,0-0.9c-0.7-1.1-1.5-2.1-2.3-3.1
	c-0.2-0.2-0.4-0.3-0.6-0.2c-0.6,0.1-0.6-0.4-0.5-0.7c0-0.2,0-0.4-0.1-0.6c-1.5-1.7-2.7-2.8-2.7-2.8C84.1,218.8,83.7,220,83.5,221.1z
	"/>
<path class="st2" d="M85.2,219.8c0.1,1.1,0.4,2.3,0.6,3.4c0.4,1.8,1,3.6,1.6,5.3c0.5,1.3,1,2.5,1.7,3.7c0.5,0.9,0.9,1.7,1.4,2.5
	c0.9,1.4,1.9,2.8,3,4.1c0.2,0.2,0.4,0.5,0.6,0.7c0.2,0.2,0.2,0.6-0.1,0.8c-0.2,0.2-0.6,0.2-0.8,0c0,0-0.2-0.3-0.6-0.7
	c-1.1-1.3-2.1-2.7-3-4.1c-0.5-0.9-1.1-1.8-1.5-2.8c-0.6-1.3-1.2-2.6-1.6-3.9c-0.6-1.8-1.1-3.6-1.5-5.5c-0.2-1.1-0.4-2.3-0.4-3.5
	c0-0.2,0.1-0.3,0.3-0.3C85.1,219.6,85.2,219.7,85.2,219.8L85.2,219.8z"/>
<path class="st1" d="M129.5,224.2c-0.3,0.1-0.5,0.3-0.5,0.6c0,0.2-0.2,0.4-0.9,0c-0.2-0.1-0.4-0.1-0.6-0.1c-1.2,0.4-2.4,1-3.5,1.7
	c-0.4,0.3-0.6,0.7-0.5,1.2c0.1,0.4-0.1,0.6-0.8,0.4c-0.4-0.1-0.8,0-1.1,0.3c-1.1,1-2,2-2.7,3.1c-0.2,0.3-0.2,0.6,0,0.8
	c0.3,0.3,0.5,0.8-0.2,1.2c-0.1,0.1-0.3,0.1-0.4,0.1c-0.3-0.1-0.6,0.1-0.8,0.4c-0.6,1.5-0.9,2.9-0.6,4.1c0.2,0.8,0.7,1.5,1.5,1.7
	c1.7,0.4,3.2,0.1,4.7-0.7c0.3-0.1,0.4-0.4,0.4-0.7c0-0.5,0.4-0.5,0.8-0.4c0.2,0,0.5,0,0.7-0.2c0.8-0.7,1.6-1.6,2.3-2.5
	c0.2-0.3,0.2-0.7,0-1c-0.4-0.5-0.1-1.1,0.7-0.9c0.3,0.1,0.7-0.1,0.9-0.4c0.7-1.1,1.3-2.3,1.9-3.3c0.1-0.2,0.1-0.5-0.1-0.7
	c-0.4-0.5,0.1-0.7,0.5-0.8c0.2,0,0.4-0.2,0.4-0.4c0.9-2.1,1.5-3.6,1.5-3.6C131.8,223.9,130.6,224,129.5,224.2z"/>
<path class="st2" d="M131.4,225.3c-1,0.6-1.9,1.3-2.8,2c-1.5,1.1-2.8,2.3-4.1,3.6c-1,1-1.9,2-2.7,3.1c-0.6,0.8-1.2,1.6-1.7,2.4
	c-0.9,1.4-1.8,2.9-2.5,4.4c-0.1,0.3-0.3,0.6-0.4,0.9c-0.1,0.3-0.5,0.4-0.8,0.3c-0.3-0.1-0.4-0.5-0.3-0.8c0,0,0.1-0.3,0.4-0.9
	c0.7-1.5,1.6-3,2.5-4.4c0.6-0.9,1.2-1.7,1.9-2.5c0.9-1.1,1.8-2.1,2.9-3.1c1.4-1.3,2.8-2.5,4.4-3.6c1-0.7,1.9-1.3,3-1.8
	c0.1-0.1,0.3,0,0.4,0.1C131.6,225.1,131.5,225.3,131.4,225.3L131.4,225.3z"/>
<path class="st1" d="M121.8,246.5c-0.3,0-0.6,0.3-0.6,0.6c0,0.2-0.2,0.4-0.9-0.1c-0.2-0.1-0.4-0.2-0.6-0.1c-1.3,0.4-2.4,0.9-3.5,1.6
	c-0.4,0.2-0.6,0.7-0.5,1.1c0.1,0.4-0.1,0.6-0.8,0.4c-0.4-0.1-0.8-0.1-1.1,0.2c-1.1,0.9-2.1,1.9-2.9,3c-0.2,0.2-0.2,0.6,0,0.8
	c0.3,0.3,0.5,0.9-0.3,1.1c-0.1,0.1-0.3,0.1-0.4,0c-0.3-0.1-0.6,0.1-0.8,0.4c-0.7,1.5-1,2.9-0.8,4.1c0.1,0.8,0.6,1.5,1.4,1.8
	c1.6,0.5,3.2,0.2,4.7-0.5c0.3-0.1,0.4-0.4,0.5-0.7c0-0.5,0.5-0.5,0.8-0.4c0.2,0,0.5,0,0.7-0.2c0.8-0.7,1.6-1.5,2.4-2.4
	c0.2-0.3,0.2-0.7,0-1c-0.3-0.5-0.1-1.1,0.8-0.9c0.3,0.1,0.7-0.1,0.9-0.3c0.7-1.1,1.4-2.2,2-3.3c0.1-0.2,0.1-0.5,0-0.7
	c-0.4-0.5,0.1-0.7,0.5-0.7c0.2,0,0.4-0.2,0.5-0.3c1-2.1,1.6-3.6,1.6-3.6C124.2,246.3,123,246.3,121.8,246.5z"/>
<path class="st2" d="M123.6,247.6c-1,0.5-2,1.2-2.9,1.8c-1.5,1-2.9,2.2-4.3,3.4c-1,0.9-2,1.9-2.9,2.9c-0.6,0.7-1.3,1.5-1.8,2.3
	c-1,1.3-1.9,2.8-2.7,4.3c-0.1,0.3-0.3,0.6-0.4,0.9c-0.1,0.3-0.5,0.4-0.8,0.3c-0.3-0.1-0.4-0.5-0.3-0.8c0,0,0.2-0.3,0.4-0.9
	c0.8-1.5,1.7-2.9,2.7-4.3c0.6-0.8,1.3-1.7,2-2.5c0.9-1,1.9-2,3-3c1.4-1.2,2.9-2.4,4.6-3.4c1-0.6,2-1.2,3.1-1.6
	c0.1-0.1,0.3,0,0.4,0.1C123.8,247.4,123.8,247.6,123.6,247.6L123.6,247.6z"/>
<path class="st1" d="M133.3,244.3c-0.2,0.2-0.3,0.6-0.1,0.8c0.1,0.2,0.1,0.4-0.8,0.4c-0.2,0-0.4,0.1-0.5,0.3c-0.8,1-1.5,2.1-2.1,3.3
	c-0.2,0.4-0.1,0.9,0.2,1.3c0.3,0.3,0.3,0.5-0.4,0.7c-0.4,0.1-0.7,0.4-0.8,0.8c-0.4,1.4-0.6,2.8-0.7,4.1c0,0.3,0.2,0.6,0.4,0.7
	c0.4,0.1,0.9,0.5,0.4,1.1c-0.1,0.1-0.2,0.2-0.3,0.3c-0.3,0.1-0.5,0.4-0.4,0.7c0.2,1.6,0.8,3,1.6,3.8c0.6,0.6,1.4,0.9,2.2,0.7
	c1.6-0.5,2.8-1.6,3.6-3.1c0.1-0.3,0.1-0.6,0-0.8c-0.2-0.4,0.1-0.6,0.4-0.8c0.2-0.1,0.4-0.3,0.5-0.5c0.3-1,0.5-2.2,0.6-3.3
	c0-0.4-0.2-0.7-0.5-0.9c-0.6-0.2-0.7-0.9,0.1-1.2c0.3-0.1,0.5-0.4,0.5-0.8c0-1.3-0.1-2.6-0.2-3.8c0-0.2-0.2-0.4-0.4-0.5
	c-0.6-0.2-0.3-0.6,0-0.9c0.1-0.1,0.2-0.3,0.2-0.5c-0.3-2.3-0.6-3.9-0.6-3.9C135.1,242.8,134.1,243.5,133.3,244.3z"/>
<path class="st2" d="M135.4,244.2c-0.5,1-1,2.1-1.4,3.1c-0.7,1.7-1.2,3.5-1.6,5.3c-0.3,1.3-0.6,2.7-0.7,4c-0.1,1-0.2,1.9-0.2,2.9
	c-0.1,1.7,0,3.4,0.2,5c0,0.3,0.1,0.6,0.1,1c0,0.3-0.2,0.6-0.5,0.6c-0.3,0-0.6-0.2-0.6-0.5c0,0,0-0.4-0.1-1c-0.2-1.7-0.2-3.4-0.2-5.1
	c0-1,0.1-2.1,0.3-3.2c0.2-1.4,0.5-2.8,0.8-4.1c0.5-1.8,1.1-3.6,1.9-5.4c0.5-1.1,1-2.1,1.6-3.1c0.1-0.1,0.3-0.2,0.4-0.1
	C135.5,243.9,135.5,244.1,135.4,244.2L135.4,244.2z"/>
<path class="st1" d="M120.5,250.4c-0.1,0.3,0.1,0.6,0.3,0.8c0.2,0.1,0.3,0.3-0.4,0.8c-0.2,0.1-0.3,0.3-0.3,0.5
	c-0.1,1.3-0.1,2.6,0.1,3.9c0.1,0.5,0.4,0.8,0.8,0.9c0.4,0.1,0.5,0.3,0,0.8c-0.3,0.3-0.4,0.7-0.2,1.1c0.4,1.4,1,2.7,1.6,3.8
	c0.2,0.3,0.5,0.4,0.8,0.3c0.4-0.1,1-0.1,0.9,0.7c0,0.2,0,0.3-0.1,0.4c-0.2,0.3-0.2,0.6,0,0.9c1.1,1.2,2.3,2.1,3.4,2.3
	c0.8,0.2,1.7,0,2.2-0.6c1.1-1.3,1.5-2.9,1.3-4.5c0-0.3-0.2-0.6-0.5-0.7c-0.4-0.2-0.3-0.6-0.1-0.9c0.1-0.2,0.2-0.5,0.1-0.7
	c-0.3-1-0.8-2.1-1.3-3.1c-0.2-0.3-0.5-0.5-0.9-0.4c-0.6,0.1-1-0.4-0.5-1.1c0.2-0.3,0.2-0.6,0-0.9c-0.7-1.1-1.5-2.2-2.2-3.1
	c-0.1-0.2-0.4-0.3-0.6-0.2c-0.6,0.1-0.6-0.4-0.5-0.7c0-0.2,0-0.4-0.1-0.6c-1.5-1.8-2.7-2.9-2.7-2.9
	C121.3,248.1,120.8,249.2,120.5,250.4z"/>
<path class="st2" d="M122.3,249.1c0.1,1.1,0.3,2.3,0.6,3.4c0.4,1.8,0.9,3.6,1.5,5.3c0.5,1.3,1,2.5,1.6,3.8c0.4,0.9,0.9,1.7,1.4,2.6
	c0.9,1.4,1.8,2.9,2.9,4.1c0.2,0.2,0.4,0.5,0.6,0.7c0.2,0.2,0.2,0.6-0.1,0.8c-0.2,0.2-0.6,0.2-0.8-0.1c0,0-0.2-0.3-0.6-0.7
	c-1.1-1.3-2.1-2.7-2.9-4.1c-0.5-0.9-1-1.8-1.5-2.8c-0.6-1.3-1.1-2.6-1.6-3.9c-0.6-1.8-1.1-3.6-1.4-5.5c-0.2-1.1-0.3-2.3-0.3-3.5
	c0-0.2,0.1-0.3,0.3-0.3C122.2,248.9,122.3,249,122.3,249.1L122.3,249.1z"/>
<path class="st1" d="M149.8,235.2c-0.1,0.3-0.1,0.6,0.2,0.8c0.2,0.2,0.2,0.4-0.5,0.7c-0.2,0.1-0.3,0.2-0.4,0.4
	c-0.4,1.2-0.6,2.5-0.7,3.8c0,0.5,0.2,0.9,0.6,1.1c0.4,0.2,0.5,0.4-0.1,0.8c-0.3,0.2-0.5,0.6-0.5,1c0.1,1.4,0.4,2.8,0.9,4
	c0.1,0.3,0.4,0.5,0.7,0.5c0.4,0,1,0.1,0.8,0.9c0,0.2-0.1,0.3-0.2,0.3c-0.2,0.2-0.3,0.6-0.1,0.8c0.8,1.4,1.8,2.5,2.9,3
	c0.7,0.3,1.6,0.3,2.3-0.2c1.3-1.1,2-2.5,2.2-4.2c0-0.3-0.1-0.6-0.3-0.8c-0.4-0.3-0.1-0.6,0.1-0.9c0.2-0.2,0.3-0.4,0.2-0.7
	c-0.1-1.1-0.3-2.2-0.6-3.3c-0.1-0.4-0.4-0.6-0.8-0.6c-0.6,0-0.9-0.6-0.3-1.2c0.2-0.2,0.3-0.6,0.2-0.9c-0.5-1.2-1-2.4-1.6-3.5
	c-0.1-0.2-0.3-0.3-0.6-0.3c-0.6,0-0.5-0.5-0.3-0.8c0.1-0.2,0.1-0.4,0-0.6c-1.1-2-2-3.4-2-3.4C150.9,233.1,150.3,234.1,149.8,235.2z"
	/>
<path class="st2" d="M151.8,234.3c-0.1,1.1-0.1,2.3-0.1,3.4c0,1.8,0.2,3.7,0.4,5.5c0.2,1.3,0.5,2.7,0.8,4c0.3,0.9,0.5,1.9,0.9,2.8
	c0.6,1.6,1.2,3.2,2.1,4.6c0.2,0.3,0.3,0.6,0.5,0.8c0.2,0.3,0.1,0.6-0.2,0.8c-0.3,0.2-0.6,0.1-0.8-0.2c0,0-0.2-0.3-0.5-0.9
	c-0.8-1.5-1.5-3.1-2-4.6c-0.3-1-0.6-2-0.9-3c-0.3-1.4-0.6-2.7-0.8-4.1c-0.2-1.9-0.3-3.8-0.3-5.7c0-1.2,0.1-2.3,0.4-3.5
	c0-0.1,0.2-0.2,0.3-0.2C151.7,234,151.8,234.2,151.8,234.3L151.8,234.3z"/>
<path class="st1" d="M191.4,245.2c-0.3,0.1-0.5,0.3-0.5,0.6c0,0.2-0.2,0.4-0.9,0c-0.2-0.1-0.4-0.1-0.6-0.1c-1.2,0.4-2.4,1-3.5,1.7
	c-0.4,0.3-0.6,0.7-0.5,1.2c0.1,0.4-0.1,0.6-0.8,0.4c-0.4-0.1-0.8,0-1.1,0.3c-1.1,1-2,2-2.7,3.1c-0.2,0.3-0.2,0.6,0,0.8
	c0.3,0.3,0.5,0.8-0.2,1.2c-0.1,0.1-0.3,0.1-0.4,0.1c-0.3-0.1-0.6,0.1-0.8,0.4c-0.6,1.5-0.9,2.9-0.6,4.1c0.2,0.8,0.7,1.5,1.5,1.7
	c1.7,0.4,3.2,0.1,4.7-0.7c0.3-0.1,0.4-0.4,0.4-0.7c0-0.5,0.4-0.5,0.8-0.4c0.2,0,0.5,0,0.7-0.2c0.8-0.7,1.6-1.6,2.3-2.5
	c0.2-0.3,0.2-0.7,0-1c-0.4-0.5-0.1-1.1,0.7-0.9c0.3,0.1,0.7-0.1,0.9-0.4c0.7-1.1,1.3-2.3,1.9-3.3c0.1-0.2,0.1-0.5-0.1-0.7
	c-0.4-0.5,0.1-0.7,0.5-0.8c0.2,0,0.4-0.2,0.4-0.4c0.9-2.1,1.5-3.6,1.5-3.6C193.8,244.9,192.6,245,191.4,245.2z"/>
<path class="st2" d="M193.3,246.3c-1,0.6-1.9,1.3-2.8,2c-1.5,1.1-2.8,2.3-4.1,3.6c-1,1-1.9,2-2.7,3.1c-0.6,0.8-1.2,1.6-1.7,2.4
	c-0.9,1.4-1.8,2.9-2.5,4.4c-0.1,0.3-0.3,0.6-0.4,0.9c-0.1,0.3-0.5,0.4-0.8,0.3c-0.3-0.1-0.4-0.5-0.3-0.8c0,0,0.1-0.3,0.4-0.9
	c0.7-1.5,1.6-3,2.5-4.4c0.6-0.9,1.2-1.7,1.9-2.5c0.9-1.1,1.8-2.1,2.9-3.1c1.4-1.3,2.8-2.5,4.4-3.6c1-0.7,1.9-1.3,3-1.8
	c0.1-0.1,0.3,0,0.4,0.1C193.5,246.1,193.4,246.3,193.3,246.3L193.3,246.3z"/>
<path class="st1" d="M196.7,253.4c-0.3-0.1-0.6,0-0.8,0.3c-0.1,0.2-0.4,0.3-0.7-0.5c-0.1-0.2-0.3-0.3-0.5-0.4
	c-1.3-0.3-2.6-0.4-3.9-0.3c-0.5,0-0.9,0.3-1,0.7c-0.2,0.4-0.4,0.5-0.8-0.1c-0.3-0.3-0.7-0.4-1.1-0.4c-1.4,0.3-2.8,0.7-3.9,1.2
	c-0.3,0.1-0.4,0.4-0.4,0.7c0.1,0.4,0,1-0.8,0.9c-0.2,0-0.3-0.1-0.4-0.2c-0.2-0.2-0.6-0.2-0.9,0c-1.3,0.9-2.3,2-2.7,3.2
	c-0.3,0.8-0.2,1.7,0.4,2.2c1.2,1.2,2.7,1.8,4.4,1.8c0.3,0,0.6-0.1,0.7-0.4c0.3-0.4,0.6-0.2,0.9,0c0.2,0.2,0.4,0.2,0.7,0.2
	c1.1-0.2,2.2-0.5,3.2-0.9c0.3-0.1,0.6-0.5,0.5-0.9c-0.1-0.6,0.5-1,1.1-0.4c0.3,0.2,0.6,0.3,0.9,0.1c1.2-0.6,2.3-1.2,3.3-1.9
	c0.2-0.1,0.3-0.4,0.3-0.6c-0.1-0.6,0.5-0.5,0.8-0.4c0.2,0.1,0.4,0,0.6-0.1c1.9-1.3,3.2-2.3,3.2-2.3
	C198.8,254.3,197.8,253.8,196.7,253.4z"/>
<path class="st2" d="M197.7,255.3c-1.1,0-2.3,0.1-3.4,0.2c-1.8,0.2-3.6,0.5-5.4,1c-1.3,0.3-2.6,0.7-3.9,1.2
	c-0.9,0.3-1.8,0.7-2.7,1.1c-1.5,0.7-3,1.5-4.4,2.5c-0.3,0.2-0.5,0.4-0.8,0.5c-0.3,0.2-0.6,0.1-0.8-0.2c-0.2-0.3-0.1-0.6,0.2-0.8
	c0,0,0.3-0.2,0.8-0.6c1.4-1,2.9-1.8,4.4-2.5c1-0.4,1.9-0.8,2.9-1.2c1.3-0.5,2.7-0.9,4.1-1.1c1.9-0.4,3.7-0.7,5.6-0.8
	c1.2-0.1,2.3-0.1,3.5,0c0.2,0,0.3,0.2,0.2,0.3C198,255.2,197.9,255.3,197.7,255.3L197.7,255.3z"/>
<path class="st1" d="M196.9,267.5c-0.2-0.3-0.5-0.4-0.8-0.3c-0.2,0.1-0.4,0-0.3-0.8c0-0.2,0-0.4-0.1-0.6c-0.8-1-1.8-1.9-2.8-2.7
	c-0.4-0.3-0.9-0.3-1.3-0.1c-0.4,0.2-0.6,0.1-0.6-0.6c0-0.4-0.2-0.8-0.6-0.9c-1.3-0.7-2.6-1.2-3.8-1.6c-0.3-0.1-0.6,0-0.8,0.3
	c-0.2,0.4-0.6,0.7-1.2,0.2c-0.1-0.1-0.2-0.2-0.2-0.4c0-0.3-0.3-0.6-0.6-0.6c-1.6-0.1-3.1,0.1-4.1,0.8c-0.7,0.4-1.2,1.2-1.1,2
	c0.1,1.7,1,3.1,2.2,4.2c0.2,0.2,0.5,0.3,0.8,0.2c0.4-0.1,0.6,0.2,0.7,0.6c0,0.2,0.2,0.5,0.4,0.6c1,0.5,2,1,3.1,1.3
	c0.4,0.1,0.7,0,0.9-0.3c0.3-0.5,1-0.5,1.1,0.4c0.1,0.3,0.3,0.6,0.6,0.7c1.3,0.3,2.6,0.5,3.8,0.7c0.2,0,0.5-0.1,0.6-0.3
	c0.3-0.5,0.7-0.1,0.9,0.2c0.1,0.2,0.3,0.3,0.5,0.3c2.3,0.2,3.9,0.2,3.9,0.2C198,269.6,197.5,268.5,196.9,267.5z"/>
<path class="st2" d="M196.5,269.6c-0.9-0.7-1.8-1.4-2.8-2c-1.5-1-3.1-1.9-4.8-2.7c-1.2-0.6-2.5-1.1-3.8-1.6
	c-0.9-0.3-1.9-0.6-2.8-0.8c-1.6-0.4-3.3-0.8-5-0.9c-0.3,0-0.6-0.1-1-0.1c-0.3,0-0.6-0.3-0.5-0.6c0-0.3,0.3-0.6,0.6-0.5
	c0,0,0.4,0,1,0.1c1.7,0.1,3.4,0.5,5,0.9c1,0.3,2,0.6,3,1c1.3,0.5,2.6,1,3.9,1.7c1.7,0.9,3.3,1.8,4.9,3c0.9,0.7,1.8,1.4,2.7,2.2
	c0.1,0.1,0.1,0.3,0,0.4C196.8,269.7,196.6,269.7,196.5,269.6L196.5,269.6z"/>
<path class="st1" d="M93.1,285.1c0.1-0.3-0.1-0.6-0.4-0.7c-0.2-0.1-0.3-0.3,0.3-0.8c0.2-0.1,0.3-0.3,0.3-0.5c0-1.3-0.1-2.6-0.4-3.9
	c-0.1-0.5-0.5-0.8-0.9-0.9c-0.4-0.1-0.5-0.3-0.1-0.8c0.2-0.3,0.3-0.7,0.2-1.1c-0.5-1.3-1.2-2.6-1.9-3.7c-0.2-0.3-0.5-0.4-0.8-0.3
	c-0.4,0.1-1,0.2-1-0.6c0-0.2,0-0.3,0.1-0.4c0.2-0.3,0.1-0.6-0.1-0.9c-1.2-1.1-2.4-1.9-3.6-2.1c-0.8-0.1-1.7,0.1-2.1,0.8
	c-1,1.4-1.2,3-1,4.6c0,0.3,0.2,0.5,0.5,0.7c0.4,0.2,0.3,0.6,0.1,0.9c-0.1,0.2-0.1,0.5,0,0.7c0.4,1,0.9,2,1.5,3
	c0.2,0.3,0.6,0.5,0.9,0.4c0.6-0.2,1.1,0.3,0.6,1c-0.2,0.3-0.2,0.7,0,0.9c0.8,1.1,1.6,2,2.5,2.9c0.2,0.2,0.4,0.2,0.6,0.2
	c0.6-0.2,0.6,0.3,0.5,0.7c0,0.2,0,0.4,0.2,0.5c1.6,1.6,2.9,2.7,2.9,2.7C92.5,287.4,92.9,286.3,93.1,285.1z"/>
<path class="st2" d="M91.4,286.5c-0.2-1.1-0.5-2.2-0.8-3.3c-0.5-1.8-1.2-3.5-1.9-5.2c-0.6-1.2-1.2-2.5-1.9-3.6
	c-0.5-0.8-1-1.7-1.6-2.5c-1-1.3-2-2.7-3.2-3.9c-0.2-0.2-0.5-0.5-0.7-0.7c-0.2-0.2-0.2-0.6,0-0.8c0.2-0.2,0.6-0.2,0.8,0
	c0,0,0.3,0.3,0.7,0.7c1.2,1.2,2.3,2.5,3.2,3.9c0.6,0.9,1.2,1.8,1.7,2.7c0.7,1.2,1.3,2.5,1.9,3.8c0.7,1.8,1.4,3.6,1.8,5.4
	c0.3,1.1,0.5,2.3,0.6,3.4c0,0.2-0.1,0.3-0.3,0.3C91.6,286.7,91.4,286.6,91.4,286.5L91.4,286.5z"/>
<path class="st1" d="M88.9,292.5c0.3,0.1,0.6,0,0.8-0.3c0.1-0.2,0.4-0.3,0.7,0.5c0.1,0.2,0.3,0.3,0.5,0.4c1.3,0.3,2.6,0.4,3.9,0.3
	c0.5,0,0.9-0.3,1-0.7c0.1-0.4,0.4-0.5,0.8,0c0.3,0.3,0.7,0.4,1.1,0.4c1.4-0.3,2.7-0.7,3.9-1.3c0.3-0.1,0.4-0.4,0.4-0.7
	c-0.1-0.4,0-1,0.8-0.9c0.2,0,0.3,0.1,0.4,0.2c0.2,0.2,0.6,0.2,0.9,0c1.3-1,2.3-2.1,2.7-3.2c0.3-0.8,0.2-1.7-0.4-2.2
	c-1.2-1.2-2.7-1.7-4.4-1.8c-0.3,0-0.6,0.1-0.7,0.4c-0.3,0.4-0.6,0.2-0.9,0c-0.2-0.2-0.4-0.2-0.7-0.2c-1.1,0.2-2.2,0.5-3.2,1
	c-0.3,0.1-0.5,0.5-0.5,0.9c0.1,0.6-0.5,1-1.1,0.4c-0.3-0.2-0.6-0.3-0.9-0.1c-1.2,0.6-2.3,1.3-3.3,1.9c-0.2,0.1-0.3,0.4-0.3,0.6
	c0.1,0.6-0.4,0.5-0.8,0.4c-0.2-0.1-0.4,0-0.6,0.1c-1.9,1.3-3.1,2.4-3.1,2.4C86.7,291.6,87.8,292.1,88.9,292.5z"/>
<path class="st2" d="M87.9,290.6c1.1,0,2.3-0.1,3.4-0.2c1.8-0.2,3.6-0.5,5.4-1c1.3-0.3,2.6-0.7,3.9-1.2c0.9-0.3,1.8-0.7,2.7-1.1
	c1.5-0.7,3-1.5,4.4-2.5c0.3-0.2,0.5-0.4,0.8-0.5c0.3-0.2,0.6-0.1,0.8,0.1c0.2,0.3,0.1,0.6-0.1,0.8c0,0-0.3,0.2-0.8,0.6
	c-1.4,1-2.9,1.8-4.4,2.5c-1,0.4-1.9,0.8-2.9,1.2c-1.3,0.5-2.7,0.9-4,1.2c-1.9,0.4-3.7,0.7-5.6,0.8c-1.2,0.1-2.3,0.1-3.5,0
	c-0.2,0-0.3-0.1-0.2-0.3C87.6,290.7,87.7,290.6,87.9,290.6L87.9,290.6z"/>
<path class="st1" d="M164.5,289.8c0-0.3-0.3-0.6-0.6-0.6c-0.2,0-0.4-0.2,0.1-0.9c0.1-0.2,0.2-0.4,0.1-0.6c-0.3-1.3-0.8-2.5-1.3-3.6
	c-0.2-0.4-0.6-0.7-1.1-0.6c-0.4,0-0.6-0.1-0.3-0.8c0.2-0.4,0.1-0.8-0.1-1.1c-0.8-1.2-1.8-2.2-2.8-3c-0.2-0.2-0.6-0.2-0.8-0.1
	c-0.4,0.2-0.9,0.4-1.1-0.4c0-0.2,0-0.3,0-0.4c0.1-0.3,0-0.6-0.3-0.8c-1.4-0.8-2.8-1.2-4-1.1c-0.8,0.1-1.6,0.5-1.9,1.3
	c-0.6,1.6-0.4,3.2,0.2,4.7c0.1,0.3,0.4,0.5,0.7,0.5c0.5,0.1,0.4,0.5,0.4,0.8c-0.1,0.2,0,0.5,0.1,0.7c0.6,0.9,1.4,1.7,2.2,2.5
	c0.3,0.3,0.7,0.3,1,0.1c0.5-0.3,1.1,0,0.9,0.8c-0.1,0.3,0,0.7,0.3,0.9c1,0.8,2.1,1.6,3.1,2.2c0.2,0.1,0.5,0.1,0.7,0
	c0.5-0.3,0.7,0.2,0.7,0.5c0,0.2,0.1,0.4,0.3,0.5c2,1.2,3.5,1.9,3.5,1.9C164.6,292.1,164.6,291,164.5,289.8z"/>
<path class="st2" d="M163.2,291.5c-0.5-1-1.1-2-1.7-3c-0.9-1.6-2-3.1-3.2-4.5c-0.9-1.1-1.8-2.1-2.8-3c-0.7-0.7-1.4-1.3-2.2-2
	c-1.3-1.1-2.7-2.1-4.1-2.9c-0.3-0.2-0.6-0.3-0.8-0.5c-0.3-0.2-0.4-0.5-0.2-0.8c0.2-0.3,0.5-0.4,0.8-0.2c0,0,0.3,0.2,0.8,0.5
	c1.5,0.8,2.8,1.9,4.1,3c0.8,0.7,1.6,1.4,2.3,2.2c1,1,1.9,2.1,2.8,3.2c1.2,1.5,2.2,3.1,3.1,4.8c0.5,1,1.1,2.1,1.4,3.2
	c0.1,0.1,0,0.3-0.2,0.4C163.4,291.7,163.3,291.7,163.2,291.5L163.2,291.5z"/>
<path class="st1" d="M151.5,297c0.2-0.3,0.2-0.6,0-0.8c-0.2-0.2-0.2-0.4,0.6-0.6c0.2,0,0.4-0.2,0.5-0.4c0.6-1.2,1-2.4,1.3-3.7
	c0.1-0.4-0.1-0.9-0.5-1.2c-0.4-0.3-0.4-0.5,0.3-0.8c0.4-0.2,0.6-0.5,0.6-0.9c0.1-1.4,0-2.8-0.2-4.1c0-0.3-0.3-0.5-0.6-0.6
	c-0.4-0.1-0.9-0.3-0.6-1c0.1-0.1,0.1-0.2,0.2-0.3c0.3-0.2,0.4-0.5,0.3-0.8c-0.6-1.5-1.4-2.7-2.4-3.4c-0.7-0.4-1.6-0.6-2.3-0.2
	c-1.5,0.8-2.4,2.2-2.9,3.8c-0.1,0.3,0,0.6,0.2,0.8c0.3,0.3,0,0.7-0.2,0.8c-0.2,0.1-0.3,0.4-0.3,0.6c-0.1,1.1,0,2.2,0.1,3.4
	c0,0.4,0.3,0.7,0.7,0.7c0.6,0.1,0.8,0.7,0.1,1.2c-0.3,0.2-0.4,0.5-0.4,0.9c0.3,1.3,0.6,2.6,1,3.7c0.1,0.2,0.3,0.4,0.5,0.4
	c0.6,0.1,0.4,0.6,0.2,0.9c-0.1,0.2-0.1,0.4-0.1,0.6c0.8,2.2,1.5,3.6,1.5,3.6C150,298.8,150.8,298,151.5,297z"/>
<path class="st2" d="M149.4,297.5c0.3-1.1,0.5-2.2,0.7-3.4c0.3-1.8,0.4-3.7,0.5-5.5c0-1.4,0-2.7-0.2-4.1c-0.1-1-0.2-1.9-0.4-2.9
	c-0.3-1.6-0.7-3.3-1.3-4.9c-0.1-0.3-0.2-0.6-0.3-0.9c-0.1-0.3,0.1-0.6,0.4-0.7c0.3-0.1,0.6,0,0.7,0.4c0,0,0.1,0.3,0.3,0.9
	c0.6,1.6,1,3.3,1.3,4.9c0.2,1,0.3,2.1,0.4,3.1c0.1,1.4,0.1,2.8,0.1,4.2c-0.1,1.9-0.3,3.8-0.7,5.7c-0.2,1.1-0.5,2.3-0.9,3.4
	c-0.1,0.1-0.2,0.2-0.4,0.2C149.4,297.8,149.3,297.7,149.4,297.5L149.4,297.5z"/>
<path class="st1" d="M146.1,302.5c-0.1-0.3-0.3-0.6-0.6-0.6c-0.2,0-0.4-0.2,0-0.9c0.1-0.2,0.1-0.4,0.1-0.6c-0.4-1.2-1-2.4-1.6-3.5
	c-0.2-0.4-0.7-0.6-1.1-0.5c-0.4,0.1-0.6-0.1-0.4-0.8c0.1-0.4,0-0.8-0.2-1.1c-0.9-1.1-2-2-3-2.8c-0.2-0.2-0.6-0.2-0.8,0
	c-0.3,0.3-0.9,0.5-1.1-0.3c-0.1-0.1-0.1-0.3,0-0.4c0.1-0.3-0.1-0.6-0.4-0.8c-1.5-0.7-2.9-1-4.1-0.8c-0.8,0.2-1.5,0.7-1.8,1.4
	c-0.5,1.6-0.2,3.2,0.6,4.7c0.1,0.3,0.4,0.4,0.7,0.5c0.5,0,0.5,0.4,0.4,0.8c0,0.2,0,0.5,0.2,0.7c0.7,0.8,1.5,1.6,2.4,2.4
	c0.3,0.2,0.7,0.2,1,0c0.5-0.4,1.1-0.1,0.9,0.8c-0.1,0.3,0.1,0.7,0.4,0.9c1.1,0.7,2.2,1.4,3.3,2c0.2,0.1,0.5,0.1,0.7,0
	c0.5-0.4,0.7,0.1,0.7,0.5c0,0.2,0.2,0.4,0.3,0.5c2.1,1,3.6,1.6,3.6,1.6C146.3,304.9,146.3,303.7,146.1,302.5z"/>
<path class="st2" d="M144.9,304.4c-0.6-1-1.2-1.9-1.9-2.9c-1.1-1.5-2.3-2.9-3.5-4.2c-0.9-1-1.9-1.9-3-2.8c-0.7-0.6-1.5-1.2-2.3-1.8
	c-1.4-1-2.8-1.9-4.3-2.6c-0.3-0.1-0.6-0.3-0.9-0.4c-0.3-0.1-0.4-0.5-0.3-0.8c0.1-0.3,0.5-0.4,0.8-0.3c0,0,0.3,0.2,0.9,0.4
	c1.5,0.7,3,1.7,4.3,2.6c0.9,0.6,1.7,1.3,2.5,2c1.1,0.9,2.1,1.9,3,3c1.3,1.4,2.5,2.9,3.5,4.5c0.6,1,1.2,2,1.7,3
	c0.1,0.1,0,0.3-0.1,0.4C145.2,304.6,145,304.5,144.9,304.4L144.9,304.4z"/>
<path class="st1" d="M100.9,309.1c0.2,0.3,0.5,0.4,0.8,0.3c0.2-0.1,0.4,0,0.3,0.8c0,0.2,0,0.4,0.2,0.6c0.9,1,1.9,1.8,3,2.5
	c0.4,0.3,0.9,0.3,1.3,0c0.4-0.3,0.6-0.2,0.7,0.5c0,0.4,0.3,0.7,0.7,0.9c1.3,0.6,2.6,1,3.9,1.3c0.3,0.1,0.6-0.1,0.7-0.3
	c0.2-0.4,0.6-0.8,1.2-0.2c0.1,0.1,0.2,0.2,0.2,0.3c0.1,0.3,0.4,0.5,0.7,0.5c1.6,0,3.1-0.3,4-1c0.7-0.5,1.1-1.3,1-2
	c-0.3-1.7-1.2-3-2.5-4c-0.2-0.2-0.5-0.2-0.8-0.1c-0.4,0.2-0.6-0.2-0.7-0.5c-0.1-0.2-0.2-0.4-0.5-0.5c-1-0.5-2.1-0.8-3.2-1.1
	c-0.4-0.1-0.7,0.1-0.9,0.4c-0.3,0.5-1,0.5-1.2-0.3c-0.1-0.3-0.3-0.6-0.7-0.6c-1.3-0.2-2.6-0.3-3.8-0.4c-0.2,0-0.5,0.1-0.6,0.3
	c-0.3,0.5-0.7,0.2-0.9-0.1c-0.1-0.2-0.3-0.3-0.5-0.3c-2.3,0-3.9,0.1-3.9,0.1C99.7,307.1,100.3,308.2,100.9,309.1z"/>
<path class="st2" d="M101.2,307c0.9,0.7,1.9,1.2,2.9,1.8c1.6,0.9,3.3,1.7,5,2.4c1.3,0.5,2.6,0.9,3.9,1.3c0.9,0.2,1.9,0.5,2.9,0.6
	c1.6,0.3,3.3,0.5,5,0.5c0.3,0,0.6,0,1,0c0.3,0,0.6,0.3,0.6,0.6c0,0.3-0.3,0.6-0.6,0.6c0,0-0.4,0-1,0c-1.7,0-3.4-0.2-5-0.6
	c-1-0.2-2.1-0.4-3.1-0.7c-1.3-0.4-2.7-0.9-4-1.4c-1.7-0.8-3.4-1.6-5.1-2.6c-1-0.6-1.9-1.3-2.8-2c-0.1-0.1-0.1-0.3,0-0.4
	C100.9,306.9,101.1,306.9,101.2,307L101.2,307z"/>
<path class="st1" d="M101.1,321.3c0.3,0.1,0.6,0.1,0.8-0.2c0.2-0.2,0.4-0.2,0.7,0.6c0.1,0.2,0.2,0.3,0.4,0.4
	c1.2,0.4,2.5,0.7,3.8,0.8c0.5,0,0.9-0.2,1.1-0.6c0.2-0.4,0.4-0.4,0.8,0.2c0.2,0.3,0.6,0.5,1,0.5c1.4-0.1,2.8-0.4,4.1-0.8
	c0.3-0.1,0.5-0.4,0.5-0.7c0-0.4,0.1-1,0.9-0.8c0.2,0,0.3,0.1,0.3,0.2c0.2,0.2,0.6,0.3,0.8,0.1c1.4-0.8,2.5-1.8,3-2.8
	c0.4-0.7,0.4-1.6-0.1-2.3c-1-1.4-2.5-2.1-4.1-2.3c-0.3,0-0.6,0.1-0.8,0.3c-0.3,0.4-0.6,0.1-0.9-0.1c-0.2-0.2-0.4-0.3-0.7-0.3
	c-1.1,0.1-2.2,0.3-3.3,0.6c-0.4,0.1-0.6,0.4-0.6,0.8c0,0.6-0.6,0.9-1.2,0.3c-0.2-0.3-0.6-0.3-0.9-0.2c-1.2,0.5-2.4,1-3.5,1.5
	c-0.2,0.1-0.4,0.3-0.4,0.6c0,0.6-0.5,0.5-0.8,0.3c-0.2-0.1-0.4-0.1-0.6,0c-2.1,1.1-3.4,1.9-3.4,1.9
	C99.1,320.1,100,320.8,101.1,321.3z"/>
<path class="st2" d="M100.3,319.3c1.1,0.1,2.3,0.2,3.4,0.2c1.8,0,3.7-0.1,5.5-0.3c1.4-0.2,2.7-0.4,4-0.7c0.9-0.2,1.9-0.5,2.8-0.8
	c1.6-0.5,3.2-1.1,4.7-1.9c0.3-0.1,0.6-0.3,0.9-0.4c0.3-0.1,0.6,0,0.8,0.2c0.1,0.3,0,0.6-0.2,0.8c0,0-0.3,0.2-0.9,0.5
	c-1.5,0.8-3.1,1.4-4.7,1.9c-1,0.3-2,0.6-3.1,0.8c-1.4,0.3-2.8,0.5-4.2,0.7c-1.9,0.2-3.8,0.2-5.7,0.1c-1.2-0.1-2.3-0.2-3.4-0.5
	c-0.1,0-0.2-0.2-0.2-0.3C100,319.4,100.1,319.3,100.3,319.3L100.3,319.3z"/>
<path class="st3" d="M66.9,253.1c-6.6,11.5-16.7-6-3.4-6c-13.2,0-3.2-17.4,3.4-6c-6.6-11.5,13.5-11.5,6.9,0c6.6-11.5,16.7,6,3.4,6
	c13.2,0,3.2,17.4-3.4,6C80.4,264.6,60.2,264.6,66.9,253.1z"/>
<path class="st4" d="M77.2,247.1l-6.7-0.1l0,0l0,0l3.3-5.9c6.6-11.5-13.5-11.5-6.9,0l3.3,5.9l0,0l0,0l-6.7,0.1
	c-13.2,0-3.1,17.4,3.5,6l3.4-5.8l0,0l0,0l3.4,5.8C80.4,264.5,90.4,247.1,77.2,247.1z"/>
<g>
	<path class="st5" d="M70.3,256.2c-0.2,0-0.4,0.2-0.4,0.4v1.9c0,0.2,0.2,0.4,0.4,0.4s0.4-0.2,0.4-0.4v-1.9
		C70.8,256.4,70.6,256.2,70.3,256.2z"/>
	<path class="st5" d="M63.2,241.8l1.1,1c0.1,0.1,0.2,0.1,0.3,0.1c0.1,0,0.3-0.1,0.3-0.2c0.2-0.2,0.1-0.5-0.1-0.6l-1.1-1
		c-0.2-0.2-0.5-0.1-0.6,0.1C63,241.4,63,241.7,63.2,241.8z"/>
	<path class="st5" d="M62.5,250.8l-1.6,0.9c-0.2,0.1-0.3,0.4-0.2,0.6c0.1,0.1,0.2,0.2,0.4,0.2c0.1,0,0.1,0,0.2-0.1l1.6-0.9
		c0.2-0.1,0.3-0.4,0.2-0.6C63,250.8,62.7,250.7,62.5,250.8z"/>
	<path class="st5" d="M78.3,253.7l-1.2-1.1c-0.2-0.2-0.5-0.1-0.6,0c-0.2,0.2-0.1,0.5,0,0.6l1.2,1.1c0.1,0.1,0.2,0.1,0.3,0.1
		c0.1,0,0.2-0.1,0.3-0.1C78.5,254.1,78.5,253.8,78.3,253.7z"/>
	<path class="st5" d="M78.2,249.4l-6.9-2.4l6.9-4.4c0.2-0.1,0.3-0.4,0.1-0.6c-0.1-0.2-0.4-0.3-0.6-0.1l-7,4.4v-6.7
		c0-0.2-0.2-0.4-0.4-0.4s-0.4,0.2-0.4,0.4v6.5l-3.8-3.1c-0.2-0.2-0.5-0.1-0.6,0.1c-0.2,0.2-0.1,0.5,0.1,0.6l2.6,2.1l-6-2.2
		c-0.2-0.1-0.5,0-0.6,0.3c-0.1,0.2,0,0.5,0.3,0.6l7.5,2.7l-4.8,2.6c-0.2,0.1-0.3,0.4-0.2,0.6c0.1,0.1,0.2,0.2,0.4,0.2
		c0.1,0,0.1,0,0.2-0.1l5-2.7l0,6.9c0,0.2,0.2,0.4,0.4,0.4h0c0.2,0,0.4-0.2,0.4-0.4l0-6.6l4.7,4.2c0.1,0.1,0.2,0.1,0.3,0.1
		c0.1,0,0.2-0.1,0.3-0.1c0.2-0.2,0.1-0.5,0-0.6l-3.7-3.3l5.6,2c0,0,0.1,0,0.1,0c0.2,0,0.4-0.1,0.4-0.3
		C78.5,249.8,78.4,249.5,78.2,249.4z"/>
	<path class="st5" d="M70.3,238c0.2,0,0.4-0.2,0.4-0.4v-1.9c0-0.2-0.2-0.4-0.4-0.4s-0.4,0.2-0.4,0.4v1.9
		C69.9,237.8,70.1,238,70.3,238z"/>
</g>
<circle class="st6" cx="70.3" cy="247.1" r="3.5"/>
<path class="st7" d="M68.6,247.1c0-1.6,1.1-3,2.6-3.4c-0.3-0.1-0.6-0.1-0.9-0.1c-1.9,0-3.5,1.6-3.5,3.5c0,1.9,1.6,3.5,3.5,3.5
	c0.3,0,0.6,0,0.9-0.1C69.7,250.1,68.6,248.7,68.6,247.1z"/>
<path class="st1" d="M159.3,304.9c-0.3,0.1-0.5,0.3-0.5,0.6c0,0.2-0.2,0.4-0.9,0c-0.2-0.1-0.4-0.1-0.6-0.1c-1.2,0.4-2.4,1-3.5,1.7
	c-0.4,0.3-0.6,0.7-0.5,1.2c0.1,0.4-0.1,0.6-0.8,0.4c-0.4-0.1-0.8,0-1.1,0.3c-1.1,1-2,2-2.7,3.1c-0.2,0.3-0.2,0.6,0,0.8
	c0.3,0.3,0.5,0.8-0.2,1.2c-0.1,0.1-0.3,0.1-0.4,0.1c-0.3-0.1-0.6,0.1-0.8,0.4c-0.6,1.5-0.9,2.9-0.6,4.1c0.2,0.8,0.7,1.5,1.5,1.7
	c1.7,0.4,3.2,0.1,4.7-0.7c0.3-0.1,0.4-0.4,0.4-0.7c0-0.5,0.4-0.5,0.8-0.4c0.2,0,0.5,0,0.7-0.2c0.8-0.7,1.6-1.6,2.3-2.5
	c0.2-0.3,0.2-0.7,0-1c-0.4-0.5-0.1-1.1,0.7-0.9c0.3,0.1,0.7-0.1,0.9-0.4c0.7-1.1,1.3-2.3,1.9-3.3c0.1-0.2,0.1-0.5-0.1-0.7
	c-0.4-0.5,0.1-0.7,0.5-0.8c0.2,0,0.4-0.2,0.4-0.4c0.9-2.1,1.5-3.6,1.5-3.6C161.6,304.6,160.4,304.7,159.3,304.9z"/>
<path class="st2" d="M161.2,306c-1,0.6-1.9,1.3-2.8,2c-1.5,1.1-2.8,2.3-4.1,3.6c-1,1-1.9,2-2.7,3.1c-0.6,0.8-1.2,1.6-1.7,2.4
	c-0.9,1.4-1.8,2.9-2.5,4.4c-0.1,0.3-0.3,0.6-0.4,0.9c-0.1,0.3-0.5,0.4-0.8,0.3c-0.3-0.1-0.4-0.5-0.3-0.8c0,0,0.1-0.3,0.4-0.9
	c0.7-1.5,1.6-3,2.5-4.4c0.6-0.9,1.2-1.7,1.9-2.5c0.9-1.1,1.8-2.1,2.9-3.1c1.4-1.3,2.8-2.5,4.4-3.6c1-0.7,1.9-1.3,3-1.8
	c0.1-0.1,0.3,0,0.4,0.1C161.3,305.7,161.3,305.9,161.2,306L161.2,306z"/>
<path class="st1" d="M73,273.6c0-0.3-0.3-0.6-0.6-0.6c-0.2,0-0.4-0.2,0.1-0.9c0.1-0.2,0.2-0.4,0.1-0.6c-0.3-1.3-0.7-2.5-1.3-3.7
	c-0.2-0.4-0.6-0.7-1.1-0.6c-0.4,0-0.6-0.1-0.3-0.8c0.2-0.4,0.1-0.8-0.1-1.1c-0.8-1.2-1.8-2.2-2.8-3.1c-0.2-0.2-0.6-0.2-0.8-0.1
	c-0.4,0.2-0.9,0.4-1.1-0.4c0-0.2,0-0.3,0-0.4c0.1-0.3,0-0.6-0.3-0.8c-1.4-0.8-2.8-1.2-4-1.1c-0.8,0.1-1.6,0.5-1.9,1.3
	c-0.6,1.6-0.5,3.2,0.2,4.7c0.1,0.3,0.4,0.5,0.7,0.5c0.5,0.1,0.4,0.5,0.4,0.8c-0.1,0.2,0,0.5,0.1,0.7c0.6,0.9,1.4,1.7,2.2,2.6
	c0.3,0.3,0.7,0.3,1,0.1c0.5-0.3,1.1,0,0.8,0.9c-0.1,0.3,0,0.7,0.3,0.9c1,0.8,2.1,1.6,3.1,2.2c0.2,0.1,0.5,0.1,0.7,0
	c0.5-0.3,0.7,0.2,0.7,0.6c0,0.2,0.1,0.4,0.3,0.5c2,1.2,3.4,1.9,3.4,1.9C73.1,276,73.1,274.8,73,273.6z"/>
<path class="st2" d="M71.7,275.3c-0.5-1-1-2-1.6-3c-0.9-1.6-2-3.1-3.1-4.5c-0.8-1.1-1.7-2.1-2.7-3.1c-0.7-0.7-1.4-1.4-2.1-2
	c-1.3-1.1-2.6-2.1-4.1-3c-0.3-0.2-0.5-0.3-0.8-0.5c-0.3-0.2-0.4-0.5-0.2-0.8c0.2-0.3,0.5-0.4,0.8-0.2c0,0,0.3,0.2,0.8,0.5
	c1.4,0.9,2.8,1.9,4.1,3c0.8,0.7,1.6,1.4,2.3,2.2c1,1,1.9,2.1,2.7,3.2c1.1,1.5,2.2,3.1,3.1,4.8c0.5,1,1,2.1,1.4,3.2
	c0,0.1,0,0.3-0.2,0.4C71.9,275.5,71.8,275.5,71.7,275.3L71.7,275.3z"/>
<path class="st1" d="M41.1,241.9c0,0.3,0.2,0.6,0.5,0.7c0.2,0.1,0.4,0.3-0.2,0.8c-0.1,0.1-0.2,0.3-0.2,0.6c0.1,1.3,0.4,2.6,0.8,3.8
	c0.1,0.4,0.5,0.8,1,0.8c0.5,0,0.6,0.2,0.2,0.8c-0.2,0.3-0.2,0.8,0,1.1c0.7,1.3,1.5,2.4,2.3,3.4c0.2,0.2,0.5,0.3,0.8,0.2
	c0.4-0.2,0.9-0.3,1.1,0.5c0,0.2,0,0.3,0,0.4c-0.1,0.3-0.1,0.6,0.2,0.8c1.3,1,2.6,1.6,3.8,1.7c0.8,0,1.6-0.3,2-1
	c0.8-1.5,0.9-3.1,0.5-4.7c-0.1-0.3-0.3-0.5-0.6-0.6c-0.4-0.1-0.4-0.5-0.2-0.8c0.1-0.2,0.1-0.5,0-0.7c-0.5-1-1.1-1.9-1.8-2.8
	c-0.2-0.3-0.6-0.4-1-0.2c-0.6,0.2-1.1-0.2-0.7-1c0.1-0.3,0.1-0.7-0.1-0.9c-0.9-1-1.9-1.9-2.8-2.6c-0.2-0.2-0.4-0.2-0.7-0.1
	c-0.6,0.2-0.6-0.3-0.6-0.6c0-0.2-0.1-0.4-0.2-0.5c-1.8-1.5-3.1-2.3-3.1-2.3C41.4,239.6,41.2,240.7,41.1,241.9z"/>
<path class="st2" d="M42.7,240.4c0.3,1.1,0.8,2.2,1.2,3.2c0.7,1.7,1.5,3.3,2.5,4.9c0.7,1.2,1.4,2.3,2.3,3.4c0.6,0.8,1.2,1.5,1.9,2.3
	c1.1,1.2,2.3,2.5,3.6,3.5c0.2,0.2,0.5,0.4,0.7,0.6c0.2,0.2,0.3,0.6,0.1,0.8c-0.2,0.2-0.6,0.3-0.8,0.1c0,0-0.3-0.2-0.8-0.6
	c-1.3-1.1-2.5-2.3-3.6-3.5c-0.7-0.8-1.4-1.6-2-2.5c-0.8-1.1-1.6-2.3-2.3-3.6c-0.9-1.7-1.7-3.4-2.4-5.2c-0.4-1.1-0.7-2.2-1-3.3
	c0-0.2,0.1-0.3,0.2-0.3C42.5,240.1,42.6,240.2,42.7,240.4L42.7,240.4z"/>
<path class="st1" d="M30,237.9c-0.2,0.3-0.1,0.6,0.1,0.8c0.2,0.2,0.2,0.4-0.6,0.7c-0.2,0.1-0.4,0.2-0.4,0.4
	c-0.5,1.2-0.8,2.5-0.9,3.8c-0.1,0.5,0.2,0.9,0.6,1.1c0.4,0.2,0.4,0.4-0.2,0.8c-0.3,0.2-0.5,0.6-0.5,1c0.1,1.4,0.3,2.8,0.6,4.1
	c0.1,0.3,0.3,0.5,0.6,0.5c0.4,0,1,0.2,0.7,0.9c0,0.2-0.1,0.3-0.2,0.3c-0.2,0.2-0.3,0.6-0.2,0.8c0.7,1.5,1.7,2.6,2.7,3.1
	c0.7,0.4,1.6,0.4,2.3,0c1.4-1,2.1-2.4,2.4-4c0.1-0.3,0-0.6-0.3-0.8c-0.3-0.3-0.1-0.6,0.1-0.9c0.2-0.2,0.3-0.4,0.3-0.7
	c0-1.1-0.2-2.2-0.5-3.4c-0.1-0.4-0.4-0.6-0.8-0.6c-0.6,0-0.9-0.6-0.2-1.2c0.3-0.2,0.4-0.6,0.3-0.9c-0.4-1.3-0.9-2.5-1.4-3.6
	c-0.1-0.2-0.3-0.4-0.6-0.4c-0.6,0-0.5-0.5-0.3-0.8c0.1-0.2,0.1-0.4,0-0.6c-1-2.1-1.8-3.5-1.8-3.5C31.2,235.9,30.5,236.9,30,237.9z"
	/>
<path class="st2" d="M32,237.1c-0.2,1.1-0.2,2.3-0.3,3.4c-0.1,1.8,0,3.7,0.1,5.5c0.1,1.4,0.3,2.7,0.6,4.1c0.2,1,0.4,1.9,0.7,2.8
	c0.5,1.6,1,3.2,1.8,4.7c0.1,0.3,0.3,0.6,0.4,0.9c0.1,0.3,0,0.6-0.3,0.8c-0.3,0.1-0.6,0-0.8-0.3c0,0-0.2-0.3-0.4-0.9
	c-0.7-1.5-1.3-3.1-1.8-4.8c-0.3-1-0.5-2-0.7-3.1c-0.3-1.4-0.4-2.8-0.5-4.2c-0.1-1.9-0.1-3.8,0.1-5.7c0.1-1.2,0.3-2.3,0.6-3.4
	c0-0.1,0.2-0.2,0.3-0.2C31.9,236.9,32,237,32,237.1L32,237.1z"/>
<path class="st1" d="M22.2,240.8c0,0.3,0.1,0.6,0.4,0.7c0.2,0.1,0.3,0.3-0.3,0.8c-0.2,0.1-0.2,0.3-0.2,0.5c0.1,1.3,0.3,2.6,0.6,3.8
	c0.1,0.4,0.5,0.8,1,0.8c0.4,0,0.6,0.2,0.2,0.8c-0.2,0.3-0.3,0.8-0.1,1.1c0.6,1.3,1.3,2.5,2.2,3.5c0.2,0.2,0.5,0.3,0.8,0.2
	c0.4-0.2,1-0.2,1,0.6c0,0.2,0,0.3-0.1,0.4c-0.2,0.3-0.1,0.6,0.2,0.8c1.2,1.1,2.5,1.7,3.7,1.8c0.8,0.1,1.7-0.2,2.1-0.9
	c0.9-1.5,1-3.1,0.7-4.7c-0.1-0.3-0.3-0.5-0.5-0.6c-0.4-0.1-0.3-0.6-0.2-0.9c0.1-0.2,0.1-0.5,0-0.7c-0.5-1-1-2-1.7-2.9
	c-0.2-0.3-0.6-0.4-1-0.3c-0.6,0.2-1.1-0.2-0.7-1c0.2-0.3,0.1-0.7-0.1-0.9c-0.9-1-1.8-1.9-2.6-2.8c-0.2-0.2-0.4-0.2-0.7-0.1
	c-0.6,0.2-0.6-0.3-0.6-0.7c0-0.2-0.1-0.4-0.2-0.5c-1.7-1.5-3-2.5-3-2.5C22.6,238.5,22.3,239.7,22.2,240.8z"/>
<path class="st2" d="M23.8,239.3c0.3,1.1,0.7,2.2,1,3.3c0.6,1.7,1.4,3.4,2.2,5c0.6,1.2,1.3,2.4,2.1,3.5c0.6,0.8,1.1,1.6,1.7,2.3
	c1.1,1.3,2.2,2.6,3.5,3.7c0.2,0.2,0.5,0.4,0.7,0.6c0.2,0.2,0.3,0.6,0,0.8c-0.2,0.2-0.6,0.3-0.8,0.1c0,0-0.3-0.2-0.7-0.6
	c-1.3-1.1-2.4-2.4-3.5-3.7c-0.7-0.8-1.3-1.7-1.9-2.6c-0.8-1.2-1.5-2.4-2.1-3.7c-0.8-1.7-1.6-3.5-2.1-5.3c-0.3-1.1-0.6-2.2-0.8-3.4
	c0-0.2,0.1-0.3,0.2-0.3C23.7,239.1,23.8,239.2,23.8,239.3L23.8,239.3z"/>
<path class="st1" d="M46.2,265.8c-0.3,0.1-0.5,0.3-0.5,0.6c0,0.2-0.2,0.4-0.9,0c-0.2-0.1-0.4-0.1-0.6-0.1c-1.2,0.4-2.4,1-3.5,1.7
	c-0.4,0.3-0.6,0.7-0.5,1.2c0.1,0.4-0.1,0.6-0.8,0.4c-0.4-0.1-0.8,0-1.1,0.3c-1.1,1-2,2-2.7,3.1c-0.2,0.3-0.2,0.6,0,0.8
	c0.3,0.3,0.5,0.8-0.2,1.2c-0.1,0.1-0.3,0.1-0.4,0.1c-0.3-0.1-0.6,0.1-0.8,0.4c-0.6,1.5-0.9,2.9-0.6,4.1c0.2,0.8,0.7,1.5,1.5,1.7
	c1.7,0.4,3.2,0.1,4.7-0.7c0.3-0.1,0.4-0.4,0.4-0.7c0-0.5,0.4-0.5,0.8-0.4c0.2,0,0.5,0,0.7-0.2c0.8-0.7,1.6-1.6,2.3-2.5
	c0.2-0.3,0.2-0.7,0-1c-0.4-0.5-0.1-1.1,0.7-0.9c0.3,0.1,0.7-0.1,0.9-0.4c0.7-1.1,1.3-2.3,1.9-3.3c0.1-0.2,0.1-0.5-0.1-0.7
	c-0.4-0.5,0.1-0.7,0.5-0.8c0.2,0,0.4-0.2,0.4-0.4c0.9-2.1,1.5-3.6,1.5-3.6C48.5,265.5,47.3,265.6,46.2,265.8z"/>
<path class="st2" d="M48.1,266.9c-1,0.6-1.9,1.3-2.8,2c-1.5,1.1-2.8,2.3-4.1,3.6c-1,1-1.9,2-2.7,3.1c-0.6,0.8-1.2,1.6-1.7,2.4
	c-0.9,1.4-1.8,2.9-2.5,4.4c-0.1,0.3-0.3,0.6-0.4,0.9c-0.1,0.3-0.5,0.4-0.8,0.3s-0.4-0.5-0.3-0.8c0,0,0.1-0.3,0.4-0.9
	c0.7-1.5,1.6-3,2.5-4.4c0.6-0.9,1.2-1.7,1.9-2.5c0.9-1.1,1.8-2.1,2.9-3.1c1.4-1.3,2.8-2.5,4.4-3.6c1-0.7,1.9-1.3,3-1.8
	c0.1-0.1,0.3,0,0.4,0.1C48.2,266.7,48.2,266.8,48.1,266.9L48.1,266.9z"/>
<path class="st1" d="M56.3,280.4c-0.2-0.2-0.6-0.2-0.8,0c-0.2,0.2-0.4,0.1-0.6-0.7c0-0.2-0.2-0.4-0.3-0.5c-1.1-0.7-2.3-1.1-3.6-1.5
	c-0.4-0.1-0.9,0-1.2,0.4c-0.3,0.4-0.5,0.4-0.8-0.3c-0.2-0.4-0.5-0.6-0.9-0.7c-1.4-0.2-2.8-0.2-4.1,0c-0.3,0-0.6,0.3-0.6,0.6
	c-0.1,0.4-0.3,0.9-1,0.6c-0.1-0.1-0.2-0.2-0.3-0.3c-0.2-0.3-0.5-0.4-0.8-0.3c-1.6,0.5-2.8,1.2-3.5,2.2c-0.5,0.7-0.7,1.5-0.3,2.2
	c0.8,1.5,2,2.5,3.6,3.1c0.3,0.1,0.6,0.1,0.8-0.1c0.4-0.3,0.7,0,0.8,0.3c0.1,0.2,0.4,0.4,0.6,0.4c1.1,0.1,2.2,0.2,3.4,0.1
	c0.4,0,0.7-0.3,0.8-0.7c0.1-0.6,0.8-0.8,1.2,0c0.2,0.3,0.5,0.5,0.8,0.4c1.3-0.2,2.6-0.5,3.7-0.8c0.2-0.1,0.4-0.2,0.5-0.5
	c0.1-0.6,0.6-0.4,0.9-0.1c0.2,0.1,0.4,0.2,0.6,0.1c2.2-0.7,3.7-1.3,3.7-1.3C58,282,57.2,281.2,56.3,280.4z"/>
<path class="st2" d="M56.7,282.6c-1.1-0.4-2.2-0.6-3.3-0.9c-1.8-0.4-3.6-0.6-5.5-0.8c-1.4-0.1-2.7-0.1-4.1-0.1c-1,0-1.9,0.1-2.9,0.2
	c-1.6,0.2-3.3,0.5-4.9,1c-0.3,0.1-0.6,0.2-0.9,0.3c-0.3,0.1-0.6-0.1-0.7-0.4c-0.1-0.3,0.1-0.6,0.4-0.7c0,0,0.3-0.1,0.9-0.3
	c1.6-0.5,3.3-0.8,5-1c1-0.1,2.1-0.2,3.2-0.2c1.4,0,2.8,0,4.2,0.2c1.9,0.2,3.8,0.5,5.6,1c1.1,0.3,2.2,0.6,3.3,1.1
	c0.1,0.1,0.2,0.2,0.1,0.4C57,282.6,56.8,282.6,56.7,282.6L56.7,282.6z"/>
<path class="st1" d="M27.7,225.3c-0.3,0.1-0.5,0.3-0.5,0.6c0,0.2-0.2,0.4-0.9,0c-0.2-0.1-0.4-0.1-0.6-0.1c-1.2,0.4-2.4,1-3.5,1.7
	c-0.4,0.3-0.6,0.7-0.5,1.2c0.1,0.4-0.1,0.6-0.8,0.4c-0.4-0.1-0.8,0-1.1,0.3c-1.1,1-2,2-2.7,3.1c-0.2,0.3-0.2,0.6,0,0.8
	c0.3,0.3,0.5,0.8-0.2,1.2c-0.1,0.1-0.3,0.1-0.4,0.1c-0.3-0.1-0.6,0.1-0.8,0.4c-0.6,1.5-0.9,2.9-0.6,4.1c0.2,0.8,0.7,1.5,1.5,1.7
	c1.7,0.4,3.2,0.1,4.7-0.7c0.3-0.1,0.4-0.4,0.4-0.7c0-0.5,0.4-0.5,0.8-0.4c0.2,0,0.5,0,0.7-0.2c0.8-0.7,1.6-1.6,2.3-2.5
	c0.2-0.3,0.2-0.7,0-1c-0.4-0.5-0.1-1.1,0.7-0.9c0.3,0.1,0.7-0.1,0.9-0.4c0.7-1.1,1.3-2.3,1.9-3.3c0.1-0.2,0.1-0.5-0.1-0.7
	c-0.4-0.5,0.1-0.7,0.5-0.8c0.2,0,0.4-0.2,0.4-0.4c0.9-2.1,1.5-3.6,1.5-3.6C30.1,225,28.9,225,27.7,225.3z"/>
<path class="st2" d="M29.6,226.4c-1,0.6-1.9,1.3-2.8,2c-1.5,1.1-2.8,2.3-4.1,3.6c-1,1-1.9,2-2.7,3.1c-0.6,0.8-1.2,1.6-1.7,2.4
	c-0.9,1.4-1.8,2.9-2.5,4.4c-0.1,0.3-0.3,0.6-0.4,0.9c-0.1,0.3-0.5,0.4-0.8,0.3c-0.3-0.1-0.4-0.5-0.3-0.8c0,0,0.1-0.3,0.4-0.9
	c0.7-1.5,1.6-3,2.5-4.4c0.6-0.9,1.2-1.7,1.9-2.5c0.9-1.1,1.8-2.1,2.9-3.1c1.4-1.3,2.8-2.5,4.4-3.6c1-0.7,1.9-1.3,3-1.8
	c0.1-0.1,0.3,0,0.4,0.1C29.8,226.1,29.7,226.3,29.6,226.4L29.6,226.4z"/>
<path class="st1" d="M4.9,278.1c0.3-0.2,0.4-0.5,0.3-0.8c-0.1-0.2,0-0.4,0.8-0.3c0.2,0,0.4,0,0.6-0.1c1-0.8,2-1.7,2.8-2.7
	c0.3-0.4,0.3-0.9,0.1-1.3c-0.2-0.4-0.1-0.6,0.6-0.6c0.4,0,0.8-0.2,1-0.6c0.7-1.2,1.3-2.5,1.6-3.8c0.1-0.3,0-0.6-0.3-0.8
	c-0.4-0.2-0.7-0.7-0.1-1.2c0.1-0.1,0.2-0.2,0.4-0.2c0.3,0,0.6-0.3,0.6-0.6c0.2-1.6-0.1-3.1-0.7-4.1c-0.4-0.7-1.1-1.2-1.9-1.2
	c-1.7,0.1-3.1,0.9-4.2,2.1c-0.2,0.2-0.3,0.5-0.2,0.8c0.1,0.4-0.3,0.6-0.6,0.7c-0.2,0-0.5,0.2-0.6,0.4c-0.5,0.9-1,2-1.4,3.1
	c-0.1,0.4,0,0.7,0.3,1c0.5,0.4,0.4,1-0.4,1.1c-0.3,0-0.6,0.3-0.7,0.6c-0.3,1.3-0.6,2.6-0.7,3.8c0,0.2,0.1,0.5,0.3,0.6
	c0.5,0.4,0.1,0.7-0.2,0.9c-0.2,0.1-0.3,0.3-0.3,0.5c-0.3,2.3-0.3,3.9-0.3,3.9C2.8,279.1,3.9,278.7,4.9,278.1z"/>
<path class="st2" d="M2.8,277.6c0.8-0.9,1.4-1.8,2.1-2.7c1.1-1.5,2-3.1,2.8-4.7c0.6-1.2,1.2-2.5,1.6-3.8c0.3-0.9,0.7-1.8,0.9-2.8
	c0.4-1.6,0.8-3.3,1-4.9c0-0.3,0.1-0.6,0.1-1c0-0.3,0.3-0.5,0.6-0.5c0.3,0,0.5,0.3,0.5,0.6c0,0,0,0.4-0.1,1c-0.2,1.7-0.6,3.3-1,5
	c-0.3,1-0.6,2-1,3c-0.5,1.3-1.1,2.6-1.8,3.8c-0.9,1.7-1.9,3.3-3.1,4.8c-0.7,0.9-1.5,1.8-2.3,2.6c-0.1,0.1-0.3,0.1-0.4,0
	C2.7,277.9,2.7,277.7,2.8,277.6L2.8,277.6z"/>
<path class="st1" d="M-5.1,255.7c0.1,0.3,0.4,0.4,0.7,0.4c0.2-0.1,0.4,0.1,0.2,0.9c-0.1,0.2,0,0.4,0.1,0.6c0.7,1.1,1.6,2.1,2.5,3
	c0.3,0.3,0.8,0.4,1.2,0.2c0.4-0.2,0.6-0.1,0.6,0.6c0,0.4,0.2,0.8,0.5,1c1.2,0.8,2.4,1.5,3.7,1.9c0.3,0.1,0.6,0,0.8-0.2
	c0.3-0.3,0.7-0.7,1.2,0c0.1,0.1,0.1,0.3,0.1,0.4c0,0.3,0.3,0.6,0.6,0.6c1.6,0.3,3.1,0.2,4.1-0.3c0.7-0.4,1.3-1.1,1.3-1.8
	c0-1.7-0.7-3.2-1.8-4.4c-0.2-0.2-0.5-0.3-0.8-0.3c-0.5,0.1-0.6-0.3-0.6-0.6c0-0.2-0.2-0.5-0.4-0.6c-0.9-0.6-1.9-1.2-3-1.6
	c-0.3-0.2-0.7,0-1,0.2c-0.4,0.5-1,0.4-1.1-0.5c0-0.3-0.2-0.6-0.6-0.7c-1.3-0.4-2.5-0.7-3.7-1c-0.2-0.1-0.5,0-0.6,0.2
	c-0.4,0.5-0.7,0.1-0.8-0.3c-0.1-0.2-0.3-0.3-0.4-0.4c-2.3-0.4-3.9-0.6-3.9-0.6C-6,253.5-5.6,254.7-5.1,255.7z"/>
<path class="st2" d="M-4.5,253.6c0.8,0.8,1.7,1.6,2.6,2.3c1.4,1.2,2.9,2.2,4.5,3.2c1.2,0.7,2.4,1.4,3.6,1.9c0.9,0.4,1.8,0.8,2.7,1.1
	c1.6,0.6,3.2,1.1,4.8,1.4c0.3,0.1,0.6,0.1,0.9,0.2c0.3,0.1,0.5,0.4,0.5,0.7c-0.1,0.3-0.4,0.5-0.7,0.5c0,0-0.3-0.1-1-0.2
	c-1.7-0.3-3.3-0.8-4.9-1.4c-1-0.4-2-0.8-2.9-1.2c-1.3-0.6-2.5-1.3-3.7-2.1c-1.6-1-3.1-2.2-4.5-3.4c-0.9-0.8-1.7-1.6-2.4-2.5
	c-0.1-0.1-0.1-0.3,0-0.4C-4.8,253.5-4.6,253.5-4.5,253.6L-4.5,253.6z"/>
<path class="st1" d="M-3.6,202.3c-0.2,0.2-0.3,0.6-0.2,0.8c0.1,0.2,0.1,0.4-0.8,0.4c-0.2,0-0.4,0.1-0.5,0.2c-0.8,1-1.6,2.1-2.1,3.2
	c-0.2,0.4-0.2,0.9,0.2,1.3c0.3,0.3,0.3,0.6-0.5,0.7c-0.4,0.1-0.7,0.4-0.8,0.8c-0.4,1.4-0.7,2.7-0.8,4.1c0,0.3,0.1,0.6,0.4,0.7
	c0.4,0.2,0.8,0.5,0.4,1.1c-0.1,0.1-0.2,0.2-0.3,0.2c-0.3,0.1-0.5,0.4-0.5,0.7c0.2,1.6,0.7,3,1.5,3.9c0.6,0.6,1.4,1,2.1,0.7
	c1.7-0.5,2.8-1.5,3.7-3c0.2-0.3,0.2-0.6,0-0.8c-0.2-0.4,0.1-0.6,0.4-0.8c0.2-0.1,0.4-0.3,0.5-0.5c0.3-1,0.6-2.2,0.7-3.3
	c0-0.4-0.2-0.7-0.5-0.9c-0.6-0.2-0.6-0.9,0.2-1.2c0.3-0.1,0.5-0.4,0.6-0.8c0-1.3,0-2.6-0.1-3.8c0-0.2-0.2-0.4-0.4-0.5
	c-0.6-0.2-0.2-0.7,0-0.9c0.2-0.1,0.2-0.3,0.2-0.5c-0.2-2.3-0.5-3.9-0.5-3.9C-1.7,200.8-2.7,201.5-3.6,202.3z"/>
<path class="st2" d="M-1.4,202.3c-0.6,1-1,2.1-1.5,3.1c-0.7,1.7-1.3,3.4-1.8,5.2c-0.4,1.3-0.6,2.7-0.8,4c-0.1,1-0.3,1.9-0.3,2.9
	c-0.1,1.7-0.1,3.4,0.1,5c0,0.3,0.1,0.6,0.1,1c0,0.3-0.2,0.6-0.5,0.6c-0.3,0-0.6-0.2-0.6-0.5c0,0,0-0.4-0.1-1c-0.2-1.7-0.2-3.4,0-5.1
	c0.1-1,0.2-2.1,0.4-3.1c0.2-1.4,0.5-2.8,0.9-4.1c0.5-1.8,1.2-3.6,2-5.3c0.5-1,1-2.1,1.7-3c0.1-0.1,0.3-0.2,0.4-0.1
	C-1.4,202-1.3,202.1-1.4,202.3L-1.4,202.3z"/>
<path class="st1" d="M-22.4,231.9c0.1,0.3,0.5,0.4,0.8,0.4c0.2-0.1,0.4,0.1,0.2,0.9c-0.1,0.2,0,0.4,0.1,0.6c0.7,1.1,1.6,2.1,2.6,2.9
	c0.3,0.3,0.8,0.4,1.3,0.2c0.4-0.2,0.6-0.1,0.6,0.6c0,0.4,0.2,0.8,0.5,1c1.2,0.8,2.5,1.4,3.7,1.9c0.3,0.1,0.6,0,0.8-0.2
	c0.3-0.3,0.7-0.7,1.2-0.1c0.1,0.1,0.1,0.2,0.2,0.4c0,0.3,0.3,0.6,0.6,0.6c1.6,0.2,3.1,0.1,4.1-0.4c0.7-0.4,1.3-1.1,1.3-1.9
	c0-1.7-0.7-3.1-1.9-4.3c-0.2-0.2-0.5-0.3-0.8-0.2c-0.5,0.1-0.6-0.3-0.6-0.6c0-0.2-0.2-0.5-0.4-0.6c-0.9-0.6-1.9-1.1-3-1.6
	c-0.3-0.1-0.7,0-1,0.3c-0.4,0.5-1,0.4-1.1-0.5c0-0.3-0.3-0.6-0.6-0.7c-1.3-0.4-2.5-0.7-3.7-0.9c-0.2,0-0.5,0-0.6,0.2
	c-0.4,0.5-0.7,0.1-0.9-0.3c-0.1-0.2-0.3-0.3-0.5-0.3c-2.3-0.4-3.9-0.5-3.9-0.5C-23.3,229.8-22.9,230.9-22.4,231.9z"/>
<path class="st2" d="M-21.9,229.8c0.8,0.8,1.7,1.5,2.6,2.2c1.4,1.1,3,2.2,4.6,3.1c1.2,0.7,2.4,1.3,3.7,1.8c0.9,0.4,1.8,0.8,2.7,1.1
	c1.6,0.5,3.2,1,4.9,1.3c0.3,0.1,0.6,0.1,0.9,0.2c0.3,0.1,0.5,0.4,0.5,0.7c-0.1,0.3-0.4,0.5-0.7,0.5c0,0-0.3-0.1-1-0.2
	c-1.7-0.3-3.3-0.7-4.9-1.3c-1-0.3-2-0.8-2.9-1.2c-1.3-0.6-2.5-1.2-3.7-2c-1.6-1-3.2-2.1-4.6-3.3c-0.9-0.8-1.7-1.6-2.5-2.4
	c-0.1-0.1-0.1-0.3,0-0.4C-22.1,229.7-22,229.7-21.9,229.8L-21.9,229.8z"/>
<path class="st1" d="M-11.1,204.3c-0.1,0.3-0.1,0.6,0.1,0.8c0.2,0.2,0.2,0.4-0.6,0.7c-0.2,0.1-0.4,0.2-0.4,0.4
	c-0.4,1.2-0.7,2.5-0.9,3.8c-0.1,0.5,0.2,0.9,0.6,1.1c0.4,0.2,0.4,0.4-0.2,0.8c-0.3,0.2-0.5,0.6-0.5,1c0.1,1.4,0.3,2.8,0.7,4.1
	c0.1,0.3,0.3,0.5,0.6,0.5c0.4,0,1,0.2,0.7,0.9c0,0.2-0.1,0.3-0.2,0.3c-0.2,0.2-0.3,0.6-0.2,0.8c0.8,1.5,1.7,2.6,2.8,3.1
	c0.7,0.4,1.6,0.4,2.3-0.1c1.4-1,2.1-2.4,2.4-4.1c0.1-0.3,0-0.6-0.3-0.8c-0.4-0.3-0.1-0.6,0.1-0.9c0.2-0.2,0.3-0.4,0.3-0.7
	c0-1.1-0.2-2.2-0.5-3.3c-0.1-0.4-0.4-0.6-0.8-0.6c-0.6,0-0.9-0.6-0.3-1.2c0.3-0.2,0.4-0.6,0.2-0.9c-0.4-1.3-0.9-2.5-1.4-3.6
	c-0.1-0.2-0.3-0.4-0.6-0.4c-0.6,0-0.5-0.5-0.3-0.8c0.1-0.2,0.1-0.4,0-0.6c-1-2.1-1.9-3.4-1.9-3.4C-9.8,202.3-10.5,203.3-11.1,204.3z
	"/>
<path class="st2" d="M-9,203.5c-0.2,1.1-0.2,2.3-0.3,3.4c-0.1,1.8,0,3.7,0.2,5.5c0.1,1.4,0.3,2.7,0.6,4c0.2,1,0.4,1.9,0.7,2.8
	c0.5,1.6,1.1,3.2,1.8,4.7c0.1,0.3,0.3,0.6,0.4,0.9c0.1,0.3,0,0.6-0.3,0.8c-0.3,0.1-0.6,0-0.8-0.3c0,0-0.2-0.3-0.4-0.9
	c-0.8-1.5-1.3-3.1-1.8-4.7c-0.3-1-0.6-2-0.8-3.1c-0.3-1.4-0.5-2.8-0.6-4.2c-0.1-1.9-0.2-3.8,0-5.7c0.1-1.2,0.2-2.3,0.5-3.4
	c0-0.1,0.2-0.2,0.3-0.2C-9.1,203.3-9,203.4-9,203.5L-9,203.5z"/>
<path class="st1" d="M85.5,206.3c-0.3,0.1-0.5,0.3-0.5,0.6c0,0.2-0.2,0.4-0.9,0c-0.2-0.1-0.4-0.1-0.6-0.1c-1.2,0.4-2.4,1-3.5,1.7
	c-0.4,0.3-0.6,0.7-0.5,1.2c0.1,0.4-0.1,0.6-0.8,0.4c-0.4-0.1-0.8,0-1.1,0.3c-1.1,1-2,2-2.7,3.1c-0.2,0.3-0.2,0.6,0,0.8
	c0.3,0.3,0.5,0.8-0.2,1.2c-0.1,0.1-0.3,0.1-0.4,0.1c-0.3-0.1-0.6,0.1-0.8,0.4c-0.6,1.5-0.9,2.9-0.6,4.1c0.2,0.8,0.7,1.5,1.5,1.7
	c1.7,0.4,3.2,0.1,4.7-0.7c0.3-0.1,0.4-0.4,0.4-0.7c0-0.5,0.4-0.5,0.8-0.4c0.2,0,0.5,0,0.7-0.2c0.8-0.7,1.6-1.6,2.3-2.5
	c0.2-0.3,0.2-0.7,0-1c-0.4-0.5-0.1-1.1,0.7-0.9c0.3,0.1,0.7-0.1,0.9-0.4c0.7-1.1,1.3-2.3,1.9-3.3c0.1-0.2,0.1-0.5-0.1-0.7
	c-0.4-0.5,0.1-0.7,0.5-0.8c0.2,0,0.4-0.2,0.4-0.4c0.9-2.1,1.5-3.6,1.5-3.6C87.8,206,86.6,206.1,85.5,206.3z"/>
<path class="st2" d="M87.4,207.4c-1,0.6-1.9,1.3-2.8,2c-1.5,1.1-2.8,2.3-4.1,3.6c-1,1-1.9,2-2.7,3.1c-0.6,0.8-1.2,1.6-1.7,2.4
	c-0.9,1.4-1.8,2.9-2.5,4.4c-0.1,0.3-0.3,0.6-0.4,0.9c-0.1,0.3-0.5,0.4-0.8,0.3c-0.3-0.1-0.4-0.5-0.3-0.8c0,0,0.1-0.3,0.4-0.9
	c0.7-1.5,1.6-3,2.5-4.4c0.6-0.9,1.2-1.7,1.9-2.5c0.9-1.1,1.8-2.1,2.9-3.1c1.4-1.3,2.8-2.5,4.4-3.6c1-0.7,1.9-1.3,3-1.8
	c0.1-0.1,0.3,0,0.4,0.1C87.5,207.2,87.5,207.3,87.4,207.4L87.4,207.4z"/>
<path class="st1" d="M33.1,220.3c0.1,0.3,0.4,0.5,0.7,0.5c0.2,0,0.4,0.1,0,0.9c-0.1,0.2-0.1,0.4,0,0.6c0.5,1.2,1.2,2.3,1.9,3.4
	c0.3,0.4,0.7,0.5,1.2,0.4c0.4-0.1,0.6,0,0.4,0.7c-0.1,0.4,0,0.8,0.3,1.1c1,1,2.1,1.9,3.3,2.5c0.3,0.2,0.6,0.1,0.8-0.1
	c0.3-0.3,0.8-0.5,1.2,0.2c0.1,0.1,0.1,0.3,0.1,0.4c0,0.3,0.1,0.6,0.5,0.7c1.5,0.6,3,0.7,4.1,0.4c0.8-0.2,1.5-0.8,1.6-1.6
	c0.3-1.7-0.1-3.2-1-4.6c-0.2-0.2-0.4-0.4-0.7-0.4c-0.5,0-0.5-0.4-0.5-0.7c0-0.2-0.1-0.5-0.3-0.7c-0.8-0.8-1.7-1.5-2.6-2.1
	c-0.3-0.2-0.7-0.2-1,0.1c-0.5,0.4-1.1,0.2-1-0.7c0-0.3-0.1-0.7-0.4-0.8c-1.2-0.6-2.3-1.2-3.5-1.7c-0.2-0.1-0.5,0-0.7,0.1
	c-0.5,0.4-0.7-0.1-0.8-0.4c-0.1-0.2-0.2-0.4-0.4-0.4c-2.2-0.8-3.7-1.3-3.7-1.3C32.7,218,32.8,219.2,33.1,220.3z"/>
<path class="st2" d="M34.1,218.4c0.6,0.9,1.4,1.8,2.1,2.7c1.2,1.4,2.5,2.7,3.9,3.9c1,0.9,2.1,1.8,3.2,2.5c0.8,0.6,1.6,1.1,2.5,1.6
	c1.4,0.8,3,1.6,4.5,2.2c0.3,0.1,0.6,0.2,0.9,0.3c0.3,0.1,0.4,0.5,0.3,0.7c-0.1,0.3-0.4,0.5-0.7,0.3c0,0-0.3-0.1-0.9-0.3
	c-1.6-0.6-3.1-1.4-4.5-2.2c-0.9-0.5-1.8-1.1-2.6-1.7c-1.1-0.8-2.2-1.7-3.3-2.7c-1.4-1.3-2.7-2.7-3.9-4.2c-0.7-0.9-1.4-1.9-1.9-2.9
	c-0.1-0.1,0-0.3,0.1-0.4C33.8,218.2,34,218.3,34.1,218.4L34.1,218.4z"/>
<path class="st1" d="M38.1,214.2c0,0.3,0.2,0.6,0.5,0.7c0.2,0.1,0.4,0.3-0.3,0.8c-0.2,0.1-0.2,0.3-0.2,0.5c0.1,1.3,0.4,2.6,0.7,3.8
	c0.1,0.4,0.5,0.8,1,0.8c0.5,0,0.6,0.2,0.2,0.8c-0.2,0.3-0.2,0.8-0.1,1.1c0.6,1.3,1.4,2.5,2.3,3.5c0.2,0.2,0.5,0.3,0.8,0.2
	c0.4-0.2,0.9-0.2,1,0.5c0,0.2,0,0.3-0.1,0.4c-0.1,0.3-0.1,0.6,0.2,0.8c1.3,1,2.6,1.6,3.8,1.7c0.8,0,1.7-0.3,2-1
	c0.9-1.5,0.9-3.1,0.5-4.7c-0.1-0.3-0.3-0.5-0.6-0.6c-0.4-0.1-0.4-0.6-0.2-0.8c0.1-0.2,0.1-0.5,0-0.7c-0.5-1-1.1-1.9-1.8-2.9
	c-0.2-0.3-0.6-0.4-1-0.3c-0.6,0.2-1.1-0.2-0.7-1c0.1-0.3,0.1-0.7-0.1-0.9c-0.9-1-1.8-1.9-2.7-2.7c-0.2-0.2-0.4-0.2-0.7-0.1
	c-0.6,0.2-0.6-0.3-0.6-0.6c0-0.2-0.1-0.4-0.2-0.5c-1.8-1.5-3.1-2.4-3.1-2.4C38.5,211.8,38.2,213,38.1,214.2z"/>
<path class="st2" d="M39.7,212.6c0.3,1.1,0.7,2.2,1.1,3.2c0.7,1.7,1.5,3.4,2.4,5c0.7,1.2,1.4,2.3,2.2,3.4c0.6,0.8,1.2,1.6,1.8,2.3
	c1.1,1.2,2.3,2.5,3.6,3.5c0.2,0.2,0.5,0.4,0.7,0.6c0.2,0.2,0.3,0.6,0.1,0.8c-0.2,0.2-0.6,0.3-0.8,0.1c0,0-0.3-0.2-0.8-0.6
	c-1.3-1.1-2.5-2.3-3.6-3.6c-0.7-0.8-1.3-1.6-1.9-2.5c-0.8-1.1-1.6-2.3-2.2-3.6c-0.9-1.7-1.7-3.4-2.3-5.2c-0.4-1.1-0.7-2.2-0.9-3.4
	c0-0.2,0.1-0.3,0.2-0.3C39.5,212.4,39.7,212.5,39.7,212.6L39.7,212.6z"/>
<path class="st1" d="M41.7,194c0.1,0.3,0.4,0.5,0.7,0.5c0.2,0,0.4,0.1,0.1,0.9c-0.1,0.2-0.1,0.4,0,0.6c0.6,1.2,1.3,2.3,2.1,3.3
	c0.3,0.4,0.8,0.5,1.2,0.4c0.4-0.1,0.6,0,0.5,0.7c-0.1,0.4,0.1,0.8,0.4,1.1c1.1,1,2.2,1.8,3.4,2.4c0.3,0.1,0.6,0.1,0.8-0.1
	c0.3-0.3,0.8-0.6,1.2,0.1c0.1,0.1,0.1,0.3,0.1,0.4c0,0.3,0.2,0.6,0.5,0.7c1.6,0.5,3,0.6,4.1,0.2c0.8-0.3,1.4-0.9,1.6-1.6
	c0.3-1.7-0.2-3.2-1.2-4.6c-0.2-0.2-0.5-0.4-0.8-0.4c-0.5,0-0.5-0.4-0.5-0.7c0-0.2-0.1-0.5-0.3-0.7c-0.8-0.7-1.7-1.4-2.7-2
	c-0.3-0.2-0.7-0.1-1,0.1c-0.4,0.4-1.1,0.2-1-0.6c0-0.3-0.2-0.7-0.5-0.8c-1.2-0.6-2.4-1.1-3.5-1.5c-0.2-0.1-0.5,0-0.7,0.1
	c-0.5,0.4-0.7,0-0.8-0.4c-0.1-0.2-0.2-0.3-0.4-0.4c-2.2-0.7-3.8-1.1-3.8-1.1C41.2,191.7,41.4,192.9,41.7,194z"/>
<path class="st2" d="M42.6,192c0.7,0.9,1.5,1.8,2.2,2.6c1.2,1.3,2.6,2.6,4,3.8c1.1,0.9,2.2,1.7,3.3,2.4c0.8,0.5,1.7,1,2.5,1.5
	c1.5,0.8,3,1.5,4.6,2c0.3,0.1,0.6,0.2,0.9,0.3c0.3,0.1,0.5,0.4,0.4,0.7c-0.1,0.3-0.4,0.5-0.7,0.4c0,0-0.3-0.1-0.9-0.3
	c-1.6-0.5-3.2-1.3-4.6-2.1c-0.9-0.5-1.8-1.1-2.7-1.6c-1.2-0.8-2.3-1.6-3.4-2.5c-1.4-1.2-2.8-2.6-4-4c-0.7-0.9-1.5-1.8-2.1-2.8
	c-0.1-0.1,0-0.3,0.1-0.4C42.3,191.9,42.5,191.9,42.6,192L42.6,192z"/>
<path class="st1" d="M88.1,175.7c-0.3,0.1-0.5,0.3-0.5,0.6c0,0.2-0.2,0.4-0.9,0c-0.2-0.1-0.4-0.1-0.6-0.1c-1.2,0.4-2.4,1-3.5,1.7
	c-0.4,0.3-0.6,0.7-0.5,1.2c0.1,0.4-0.1,0.6-0.8,0.4c-0.4-0.1-0.8,0-1.1,0.3c-1.1,1-2,2-2.7,3.1c-0.2,0.3-0.2,0.6,0,0.8
	c0.3,0.3,0.5,0.8-0.2,1.2c-0.1,0.1-0.3,0.1-0.4,0.1c-0.3-0.1-0.6,0.1-0.8,0.4c-0.6,1.5-0.9,2.9-0.6,4.1c0.2,0.8,0.7,1.5,1.5,1.7
	c1.7,0.4,3.2,0.1,4.7-0.7c0.3-0.1,0.4-0.4,0.4-0.7c0-0.5,0.4-0.5,0.8-0.4c0.2,0,0.5,0,0.7-0.2c0.8-0.7,1.6-1.6,2.3-2.5
	c0.2-0.3,0.2-0.7,0-1c-0.4-0.5-0.1-1.1,0.7-0.9c0.3,0.1,0.7-0.1,0.9-0.4c0.7-1.1,1.3-2.3,1.9-3.3c0.1-0.2,0.1-0.5-0.1-0.7
	c-0.4-0.5,0.1-0.7,0.5-0.8c0.2,0,0.4-0.2,0.4-0.4c0.9-2.1,1.5-3.6,1.5-3.6C90.4,175.3,89.2,175.4,88.1,175.7z"/>
<path class="st2" d="M90,176.7c-1,0.6-1.9,1.3-2.8,2c-1.5,1.1-2.8,2.3-4.1,3.6c-1,1-1.9,2-2.7,3.1c-0.6,0.8-1.2,1.6-1.7,2.4
	c-0.9,1.4-1.8,2.9-2.5,4.4c-0.1,0.3-0.3,0.6-0.4,0.9c-0.1,0.3-0.5,0.4-0.8,0.3c-0.3-0.1-0.4-0.5-0.3-0.8c0,0,0.1-0.3,0.4-0.9
	c0.7-1.5,1.6-3,2.5-4.4c0.6-0.9,1.2-1.7,1.9-2.5c0.9-1.1,1.8-2.1,2.9-3.1c1.4-1.3,2.8-2.5,4.4-3.6c1-0.7,1.9-1.3,3-1.8
	c0.1-0.1,0.3,0,0.4,0.1C90.1,176.5,90.1,176.7,90,176.7L90,176.7z"/>
<path class="st1" d="M80.6,170.6c-0.3,0.2-0.4,0.5-0.3,0.8c0.1,0.2,0,0.4-0.8,0.3c-0.2,0-0.4,0-0.6,0.2c-1,0.9-1.8,1.9-2.6,2.9
	c-0.3,0.4-0.3,0.9,0,1.3c0.3,0.4,0.2,0.6-0.5,0.6c-0.4,0-0.7,0.3-0.9,0.6c-0.6,1.3-1.1,2.6-1.4,3.9c-0.1,0.3,0.1,0.6,0.3,0.8
	c0.4,0.2,0.8,0.6,0.2,1.2c-0.1,0.1-0.2,0.2-0.3,0.2c-0.3,0.1-0.5,0.3-0.5,0.7c0,1.6,0.3,3.1,0.9,4c0.5,0.7,1.2,1.1,2,1
	c1.7-0.2,3-1.1,4.1-2.4c0.2-0.2,0.2-0.5,0.1-0.8c-0.2-0.4,0.2-0.6,0.5-0.7c0.2-0.1,0.4-0.2,0.6-0.5c0.5-1,0.9-2.1,1.2-3.2
	c0.1-0.4-0.1-0.7-0.4-0.9c-0.5-0.3-0.5-1,0.3-1.2c0.3-0.1,0.6-0.3,0.7-0.7c0.2-1.3,0.4-2.6,0.5-3.8c0-0.2-0.1-0.5-0.3-0.6
	c-0.5-0.3-0.2-0.7,0.1-0.9c0.2-0.1,0.3-0.3,0.3-0.5c0.1-2.3,0-3.9,0-3.9C82.6,169.4,81.6,170,80.6,170.6z"/>
<path class="st2" d="M82.7,170.9c-0.7,0.9-1.3,1.9-1.9,2.9c-0.9,1.6-1.8,3.2-2.5,4.9c-0.5,1.3-1,2.5-1.4,3.9
	c-0.3,0.9-0.5,1.9-0.7,2.8c-0.3,1.6-0.6,3.3-0.6,5c0,0.3,0,0.6,0,1c0,0.3-0.3,0.6-0.6,0.6c-0.3,0-0.6-0.3-0.6-0.6c0,0,0-0.4,0-1
	c0.1-1.7,0.3-3.4,0.7-5c0.2-1,0.5-2.1,0.8-3.1c0.4-1.3,0.9-2.7,1.5-3.9c0.8-1.7,1.7-3.4,2.7-5c0.6-1,1.3-1.9,2.1-2.8
	c0.1-0.1,0.3-0.1,0.4,0C82.8,170.6,82.8,170.8,82.7,170.9L82.7,170.9z"/>
<path class="st1" d="M81.7,203.2c-0.3,0.1-0.5,0.4-0.4,0.7c0,0.2-0.1,0.4-0.9,0.2c-0.2-0.1-0.4-0.1-0.6,0.1
	c-1.1,0.7-2.2,1.5-3.1,2.4c-0.3,0.3-0.4,0.8-0.3,1.2c0.2,0.4,0.1,0.6-0.7,0.5c-0.4,0-0.8,0.1-1,0.5c-0.9,1.2-1.6,2.4-2.1,3.6
	c-0.1,0.3-0.1,0.6,0.2,0.8c0.3,0.3,0.6,0.7,0,1.2c-0.1,0.1-0.3,0.1-0.4,0.1c-0.3,0-0.6,0.2-0.7,0.5c-0.3,1.6-0.3,3.1,0.2,4.1
	c0.3,0.7,1,1.4,1.8,1.4c1.7,0.1,3.2-0.5,4.4-1.6c0.2-0.2,0.3-0.5,0.3-0.8c-0.1-0.5,0.3-0.6,0.7-0.6c0.2,0,0.5-0.1,0.6-0.3
	c0.7-0.9,1.2-1.9,1.7-2.9c0.2-0.3,0.1-0.7-0.2-1c-0.5-0.4-0.3-1,0.5-1.1c0.3,0,0.6-0.2,0.8-0.5c0.5-1.2,0.9-2.5,1.2-3.6
	c0.1-0.2,0-0.5-0.2-0.6c-0.5-0.4,0-0.7,0.3-0.8c0.2-0.1,0.3-0.2,0.4-0.4c0.5-2.3,0.7-3.9,0.7-3.9C83.9,202.4,82.8,202.7,81.7,203.2z
	"/>
<path class="st2" d="M83.7,203.9c-0.8,0.8-1.6,1.6-2.4,2.5c-1.2,1.4-2.3,2.9-3.3,4.4c-0.8,1.1-1.5,2.3-2.1,3.5
	c-0.4,0.9-0.9,1.8-1.2,2.7c-0.6,1.5-1.2,3.2-1.6,4.8c-0.1,0.3-0.1,0.6-0.2,0.9c-0.1,0.3-0.4,0.5-0.7,0.4c-0.3-0.1-0.5-0.4-0.4-0.7
	c0,0,0.1-0.3,0.2-1c0.4-1.6,0.9-3.3,1.6-4.8c0.4-1,0.9-1.9,1.4-2.9c0.7-1.2,1.4-2.4,2.2-3.6c1.1-1.6,2.3-3,3.6-4.4
	c0.8-0.8,1.7-1.6,2.6-2.3c0.1-0.1,0.3-0.1,0.4,0.1C83.9,203.6,83.8,203.8,83.7,203.9L83.7,203.9z"/>
<path class="st1" d="M15.2,274.5c-0.2,0.2-0.2,0.6,0,0.8c0.1,0.2,0.1,0.4-0.7,0.5c-0.2,0-0.4,0.1-0.5,0.3c-0.7,1.1-1.3,2.3-1.7,3.5
	c-0.2,0.4,0,0.9,0.3,1.2c0.3,0.3,0.3,0.5-0.4,0.8c-0.4,0.1-0.6,0.5-0.7,0.9c-0.3,1.4-0.3,2.8-0.3,4.1c0,0.3,0.2,0.6,0.5,0.6
	c0.4,0.1,0.9,0.4,0.5,1.1c-0.1,0.1-0.2,0.2-0.3,0.3c-0.3,0.1-0.4,0.5-0.4,0.8c0.4,1.6,1.1,2.9,2,3.6c0.6,0.5,1.5,0.8,2.2,0.5
	c1.6-0.7,2.6-1.9,3.3-3.4c0.1-0.3,0.1-0.6-0.1-0.8c-0.3-0.4,0-0.7,0.3-0.8c0.2-0.1,0.4-0.3,0.4-0.6c0.2-1.1,0.3-2.2,0.3-3.4
	c0-0.4-0.3-0.7-0.6-0.8c-0.6-0.2-0.7-0.8,0-1.2c0.3-0.2,0.5-0.5,0.4-0.8c-0.1-1.3-0.3-2.6-0.6-3.8c0-0.2-0.2-0.4-0.5-0.5
	c-0.6-0.2-0.3-0.6-0.1-0.9c0.1-0.2,0.2-0.4,0.1-0.6c-0.5-2.3-1.1-3.8-1.1-3.8C16.9,272.9,16,273.7,15.2,274.5z"/>
<path class="st2" d="M17.4,274.3c-0.4,1.1-0.7,2.2-1,3.3c-0.5,1.8-0.8,3.6-1.1,5.4c-0.2,1.4-0.3,2.7-0.3,4.1c0,1,0,2,0.1,2.9
	c0.1,1.7,0.3,3.4,0.7,5c0.1,0.3,0.1,0.6,0.2,0.9c0.1,0.3-0.1,0.6-0.4,0.7c-0.3,0.1-0.6-0.1-0.7-0.4c0,0-0.1-0.3-0.2-0.9
	c-0.4-1.6-0.6-3.3-0.7-5c-0.1-1-0.1-2.1,0-3.2c0-1.4,0.2-2.8,0.4-4.2c0.3-1.9,0.7-3.7,1.3-5.5c0.4-1.1,0.8-2.2,1.3-3.2
	c0.1-0.1,0.2-0.2,0.4-0.1C17.4,274,17.4,274.1,17.4,274.3L17.4,274.3z"/>
<path class="st1" d="M39.3,294.9c-0.3,0.1-0.5,0.3-0.5,0.6c0,0.2-0.2,0.4-0.9,0c-0.2-0.1-0.4-0.1-0.6-0.1c-1.2,0.4-2.4,1-3.5,1.7
	c-0.4,0.3-0.6,0.7-0.5,1.2c0.1,0.4-0.1,0.6-0.8,0.4c-0.4-0.1-0.8,0-1.1,0.3c-1.1,1-2,2-2.7,3.1c-0.2,0.3-0.2,0.6,0,0.8
	c0.3,0.3,0.5,0.8-0.2,1.2c-0.1,0.1-0.3,0.1-0.4,0.1c-0.3-0.1-0.6,0.1-0.8,0.4c-0.6,1.5-0.9,2.9-0.6,4.1c0.2,0.8,0.7,1.5,1.5,1.7
	c1.7,0.4,3.2,0.1,4.7-0.7c0.3-0.1,0.4-0.4,0.4-0.7c0-0.5,0.4-0.5,0.8-0.4c0.2,0,0.5,0,0.7-0.2c0.8-0.7,1.6-1.6,2.3-2.5
	c0.2-0.3,0.2-0.7,0-1c-0.4-0.5-0.1-1.1,0.7-0.9c0.3,0.1,0.7-0.1,0.9-0.4c0.7-1.1,1.3-2.3,1.9-3.3c0.1-0.2,0.1-0.5-0.1-0.7
	c-0.4-0.5,0.1-0.7,0.5-0.8c0.2,0,0.4-0.2,0.4-0.4c0.9-2.1,1.5-3.6,1.5-3.6C41.6,294.6,40.4,294.7,39.3,294.9z"/>
<path class="st2" d="M41.1,296c-1,0.6-1.9,1.3-2.8,2c-1.5,1.1-2.8,2.3-4.1,3.6c-1,1-1.9,2-2.7,3.1c-0.6,0.8-1.2,1.6-1.7,2.4
	c-0.9,1.4-1.8,2.9-2.5,4.4c-0.1,0.3-0.3,0.6-0.4,0.9c-0.1,0.3-0.5,0.4-0.8,0.3s-0.4-0.5-0.3-0.8c0,0,0.1-0.3,0.4-0.9
	c0.7-1.5,1.6-3,2.5-4.4c0.6-0.9,1.2-1.7,1.9-2.5c0.9-1.1,1.8-2.1,2.9-3.1c1.4-1.3,2.8-2.5,4.4-3.6c1-0.7,1.9-1.3,3-1.8
	c0.1-0.1,0.3,0,0.4,0.1C41.3,295.8,41.3,296,41.1,296L41.1,296z"/>
<path class="st1" d="M45.8,304.9c-0.3-0.1-0.6,0-0.8,0.3c-0.1,0.2-0.4,0.3-0.7-0.5c-0.1-0.2-0.3-0.3-0.5-0.4
	c-1.3-0.3-2.6-0.4-3.9-0.3c-0.5,0-0.9,0.3-1,0.7c-0.2,0.4-0.4,0.5-0.8-0.1c-0.3-0.3-0.7-0.4-1.1-0.4c-1.4,0.3-2.8,0.7-4,1.2
	c-0.3,0.1-0.4,0.4-0.4,0.7c0.1,0.4,0,1-0.8,0.9c-0.2,0-0.3-0.1-0.4-0.2c-0.2-0.2-0.6-0.2-0.9,0c-1.3,0.9-2.3,2-2.7,3.2
	c-0.3,0.8-0.2,1.7,0.4,2.2c1.2,1.2,2.7,1.8,4.4,1.8c0.3,0,0.6-0.1,0.7-0.4c0.3-0.4,0.6-0.2,0.9,0c0.2,0.2,0.4,0.2,0.7,0.2
	c1.1-0.2,2.2-0.5,3.2-0.9c0.3-0.1,0.6-0.5,0.5-0.9c-0.1-0.6,0.5-1,1.1-0.4c0.3,0.2,0.6,0.3,0.9,0.1c1.2-0.6,2.3-1.2,3.3-1.9
	c0.2-0.1,0.3-0.4,0.3-0.6c-0.1-0.6,0.5-0.5,0.8-0.4c0.2,0.1,0.4,0,0.6-0.1c1.9-1.3,3.2-2.3,3.2-2.3C48,305.9,46.9,305.3,45.8,304.9z
	"/>
<path class="st2" d="M46.8,306.8c-1.1,0-2.3,0.1-3.4,0.2c-1.8,0.2-3.6,0.5-5.4,0.9c-1.3,0.3-2.6,0.7-3.9,1.2
	c-0.9,0.3-1.8,0.7-2.7,1.1c-1.5,0.7-3,1.5-4.4,2.5c-0.3,0.2-0.5,0.4-0.8,0.5c-0.3,0.2-0.6,0.1-0.8-0.2c-0.2-0.3-0.1-0.6,0.2-0.8
	c0,0,0.3-0.2,0.8-0.6c1.4-1,2.9-1.7,4.4-2.4c1-0.4,1.9-0.8,2.9-1.2c1.3-0.5,2.7-0.8,4.1-1.1c1.9-0.4,3.7-0.7,5.6-0.8
	c1.2-0.1,2.3-0.1,3.5,0.1c0.2,0,0.3,0.2,0.2,0.3C47.1,306.7,47,306.8,46.8,306.8L46.8,306.8z"/>
<path class="st1" d="M-15.6,276.2c-0.1,0.3-0.1,0.6,0.2,0.8c0.2,0.1,0.2,0.4-0.5,0.7c-0.2,0.1-0.3,0.2-0.4,0.4
	c-0.4,1.3-0.6,2.5-0.6,3.8c0,0.5,0.2,0.9,0.7,1.1c0.4,0.2,0.5,0.4-0.1,0.8c-0.3,0.2-0.5,0.6-0.4,1c0.2,1.4,0.5,2.8,0.9,4
	c0.1,0.3,0.4,0.5,0.7,0.5c0.4,0,1,0.1,0.8,0.9c0,0.2-0.1,0.3-0.2,0.4c-0.2,0.2-0.3,0.6-0.1,0.9c0.8,1.4,1.9,2.4,3,2.9
	c0.7,0.3,1.7,0.3,2.3-0.2c1.3-1.1,2-2.6,2.1-4.2c0-0.3-0.1-0.6-0.3-0.8c-0.4-0.3-0.1-0.6,0.1-0.9c0.2-0.2,0.3-0.4,0.2-0.7
	c-0.1-1.1-0.4-2.2-0.7-3.3c-0.1-0.4-0.4-0.6-0.8-0.6c-0.6,0-0.9-0.5-0.3-1.2c0.2-0.2,0.3-0.6,0.2-0.9c-0.5-1.2-1.1-2.4-1.6-3.5
	c-0.1-0.2-0.3-0.3-0.6-0.3c-0.6,0-0.5-0.5-0.3-0.8c0.1-0.2,0.1-0.4,0-0.6c-1.2-2-2.1-3.3-2.1-3.3C-14.5,274.1-15.1,275.2-15.6,276.2
	z"/>
<path class="st2" d="M-13.6,275.3c-0.1,1.1-0.1,2.3,0,3.4c0.1,1.8,0.3,3.7,0.6,5.5c0.2,1.3,0.5,2.7,0.9,4c0.3,0.9,0.6,1.9,0.9,2.8
	c0.6,1.5,1.3,3.1,2.1,4.6c0.2,0.3,0.3,0.6,0.5,0.8c0.2,0.3,0.1,0.6-0.2,0.8c-0.3,0.2-0.6,0.1-0.8-0.2c0,0-0.2-0.3-0.5-0.8
	c-0.9-1.5-1.5-3-2.1-4.6c-0.4-1-0.7-2-1-3c-0.4-1.4-0.7-2.7-0.8-4.1c-0.3-1.9-0.4-3.8-0.4-5.7c0-1.2,0.1-2.3,0.3-3.5
	c0-0.2,0.2-0.3,0.3-0.2C-13.7,275-13.6,275.2-13.6,275.3L-13.6,275.3z"/>
<path class="st1" d="M0.1,279.4c-0.3,0.1-0.5,0.3-0.5,0.6c0,0.2-0.2,0.4-0.9,0c-0.2-0.1-0.4-0.1-0.6-0.1c-1.2,0.4-2.4,1-3.5,1.7
	c-0.4,0.3-0.6,0.7-0.5,1.2c0.1,0.4-0.1,0.6-0.8,0.4c-0.4-0.1-0.8,0-1.1,0.3c-1.1,1-2,2-2.7,3.1c-0.2,0.3-0.2,0.6,0,0.8
	c0.3,0.3,0.5,0.8-0.2,1.2c-0.1,0.1-0.3,0.1-0.4,0.1c-0.3-0.1-0.6,0.1-0.8,0.4c-0.6,1.5-0.9,2.9-0.6,4.1c0.2,0.8,0.7,1.5,1.5,1.7
	c1.7,0.4,3.2,0.1,4.7-0.7c0.3-0.1,0.4-0.4,0.4-0.7c0-0.5,0.4-0.5,0.8-0.4c0.2,0,0.5,0,0.7-0.2c0.8-0.7,1.6-1.6,2.3-2.5
	c0.2-0.3,0.2-0.7,0-1c-0.4-0.5-0.1-1.1,0.7-0.9c0.3,0.1,0.7-0.1,0.9-0.4c0.7-1.1,1.3-2.3,1.9-3.3c0.1-0.2,0.1-0.5-0.1-0.7
	c-0.4-0.5,0.1-0.7,0.5-0.8c0.2,0,0.4-0.2,0.4-0.4c0.9-2.1,1.5-3.6,1.5-3.6C2.4,279.1,1.2,279.2,0.1,279.4z"/>
<path class="st2" d="M2,280.5c-1,0.6-1.9,1.3-2.8,2c-1.5,1.1-2.8,2.3-4.1,3.6c-1,1-1.9,2-2.7,3.1c-0.6,0.8-1.2,1.6-1.7,2.4
	c-0.9,1.4-1.8,2.9-2.5,4.4c-0.1,0.3-0.3,0.6-0.4,0.9c-0.1,0.3-0.5,0.4-0.8,0.3c-0.3-0.1-0.4-0.5-0.3-0.8c0,0,0.1-0.3,0.4-0.9
	c0.7-1.5,1.6-3,2.5-4.4c0.6-0.9,1.2-1.7,1.9-2.5c0.9-1.1,1.8-2.1,2.9-3.1c1.4-1.3,2.8-2.5,4.4-3.6c1-0.7,1.9-1.3,3-1.8
	c0.1-0.1,0.3,0,0.4,0.1C2.2,280.3,2.1,280.4,2,280.5L2,280.5z"/>
<path class="st1" d="M57.6,316.5c-0.3,0.1-0.5,0.3-0.5,0.6c0,0.2-0.2,0.4-0.9,0c-0.2-0.1-0.4-0.1-0.6-0.1c-1.2,0.4-2.4,1-3.5,1.7
	c-0.4,0.3-0.6,0.7-0.5,1.2c0.1,0.4-0.1,0.6-0.8,0.4c-0.4-0.1-0.8,0-1.1,0.3c-1.1,1-2,2-2.7,3.1c-0.2,0.3-0.2,0.6,0,0.8
	c0.3,0.3,0.5,0.8-0.2,1.2c-0.1,0.1-0.3,0.1-0.4,0.1c-0.3-0.1-0.6,0.1-0.8,0.4c-0.6,1.5-0.9,2.9-0.6,4.1c0.2,0.8,0.7,1.5,1.5,1.7
	c1.7,0.4,3.2,0.1,4.7-0.7c0.3-0.1,0.4-0.4,0.4-0.7c0-0.5,0.4-0.5,0.8-0.4c0.2,0,0.5,0,0.7-0.2c0.8-0.7,1.6-1.6,2.3-2.5
	c0.2-0.3,0.2-0.7,0-1c-0.4-0.5-0.1-1.1,0.7-0.9c0.3,0.1,0.7-0.1,0.9-0.4c0.7-1.1,1.3-2.3,1.9-3.3c0.1-0.2,0.1-0.5-0.1-0.7
	c-0.4-0.5,0.1-0.7,0.5-0.8c0.2,0,0.4-0.2,0.4-0.4c0.9-2.1,1.5-3.6,1.5-3.6C59.9,316.2,58.8,316.3,57.6,316.5z"/>
<path class="st2" d="M59.5,317.6c-1,0.6-1.9,1.3-2.8,2c-1.5,1.1-2.8,2.3-4.1,3.6c-1,1-1.9,2-2.7,3.1c-0.6,0.8-1.2,1.6-1.7,2.4
	c-0.9,1.4-1.8,2.9-2.5,4.4c-0.1,0.3-0.3,0.6-0.4,0.9c-0.1,0.3-0.5,0.4-0.8,0.3s-0.4-0.5-0.3-0.8c0,0,0.1-0.3,0.4-0.9
	c0.7-1.5,1.6-3,2.5-4.4c0.6-0.9,1.2-1.7,1.9-2.5c0.9-1.1,1.8-2.1,2.9-3.1c1.4-1.3,2.8-2.5,4.4-3.6c1-0.7,1.9-1.3,3-1.8
	c0.1-0.1,0.3,0,0.4,0.1C59.7,317.4,59.6,317.5,59.5,317.6L59.5,317.6z"/>
<path class="st1" d="M48.8,312.7c-0.3,0.2-0.4,0.5-0.2,0.8c0.1,0.2,0,0.4-0.8,0.4c-0.2,0-0.4,0-0.6,0.2c-0.9,0.9-1.7,2-2.4,3
	c-0.2,0.4-0.2,0.9,0,1.3c0.3,0.4,0.2,0.6-0.5,0.7c-0.4,0.1-0.7,0.3-0.9,0.7c-0.5,1.3-0.9,2.7-1.1,4c0,0.3,0.1,0.6,0.4,0.7
	c0.4,0.2,0.8,0.6,0.3,1.1c-0.1,0.1-0.2,0.2-0.3,0.2c-0.3,0.1-0.5,0.4-0.5,0.7c0.1,1.6,0.4,3,1.2,4c0.5,0.6,1.3,1.1,2.1,0.9
	c1.7-0.3,3-1.3,3.9-2.7c0.2-0.2,0.2-0.6,0.1-0.8c-0.2-0.4,0.2-0.6,0.5-0.7c0.2-0.1,0.4-0.3,0.5-0.5c0.4-1,0.7-2.1,1-3.2
	c0.1-0.4-0.1-0.7-0.4-0.9c-0.5-0.3-0.6-0.9,0.3-1.2c0.3-0.1,0.6-0.4,0.6-0.7c0.2-1.3,0.2-2.6,0.3-3.8c0-0.2-0.1-0.5-0.3-0.6
	c-0.6-0.3-0.2-0.7,0.1-0.9c0.2-0.1,0.3-0.3,0.3-0.5c0-2.3-0.2-3.9-0.2-3.9C50.8,311.4,49.7,312,48.8,312.7z"/>
<path class="st2" d="M51,312.9c-0.6,0.9-1.2,2-1.7,3c-0.9,1.6-1.6,3.3-2.2,5.1c-0.5,1.3-0.8,2.6-1.2,3.9c-0.2,1-0.4,1.9-0.5,2.9
	c-0.2,1.6-0.4,3.4-0.4,5c0,0.3,0,0.6,0,1c0,0.3-0.3,0.6-0.6,0.6c-0.3,0-0.6-0.2-0.6-0.6c0,0,0-0.4,0-1c0-1.7,0.1-3.4,0.4-5.1
	c0.2-1,0.4-2.1,0.6-3.1c0.3-1.4,0.8-2.7,1.3-4c0.7-1.8,1.5-3.5,2.4-5.1c0.6-1,1.2-2,1.9-2.9c0.1-0.1,0.3-0.1,0.4,0
	C51,312.6,51,312.8,51,312.9L51,312.9z"/>
<path class="st1" d="M62.5,321.9c-0.3,0-0.6,0.1-0.7,0.4c-0.1,0.2-0.3,0.3-0.8-0.3c-0.1-0.2-0.3-0.3-0.5-0.3c-1.3,0-2.6,0.1-3.9,0.4
	c-0.4,0.1-0.8,0.5-0.9,0.9c-0.1,0.4-0.3,0.5-0.8,0.1c-0.3-0.2-0.7-0.3-1.1-0.1c-1.3,0.5-2.6,1.2-3.6,2c-0.2,0.2-0.4,0.5-0.3,0.8
	c0.1,0.4,0.2,1-0.6,1c-0.2,0-0.3,0-0.4-0.1c-0.3-0.2-0.6-0.1-0.9,0.1c-1.1,1.2-1.9,2.4-2,3.6c-0.1,0.8,0.1,1.7,0.8,2.1
	c1.4,1,3,1.2,4.6,0.9c0.3,0,0.5-0.2,0.7-0.5c0.2-0.4,0.6-0.3,0.9-0.2c0.2,0.1,0.5,0.1,0.7,0c1-0.4,2-0.9,3-1.6
	c0.3-0.2,0.4-0.6,0.3-0.9c-0.2-0.6,0.3-1.1,1-0.6c0.3,0.2,0.7,0.2,0.9-0.1c1-0.8,2-1.7,2.9-2.5c0.2-0.2,0.2-0.4,0.2-0.6
	c-0.2-0.6,0.3-0.6,0.7-0.6c0.2,0,0.4,0,0.5-0.2c1.6-1.7,2.6-2.9,2.6-2.9C64.7,322.4,63.6,322.1,62.5,321.9z"/>
<path class="st2" d="M63.8,323.5c-1.1,0.2-2.2,0.5-3.3,0.9c-1.8,0.5-3.5,1.2-5.1,2c-1.2,0.6-2.4,1.2-3.6,1.9c-0.8,0.5-1.6,1-2.4,1.6
	c-1.3,1-2.7,2.1-3.8,3.3c-0.2,0.2-0.4,0.5-0.7,0.7c-0.2,0.2-0.6,0.2-0.8,0c-0.2-0.2-0.2-0.6,0-0.8c0,0,0.2-0.3,0.7-0.7
	c1.2-1.2,2.5-2.3,3.9-3.3c0.9-0.6,1.7-1.2,2.7-1.7c1.2-0.7,2.5-1.4,3.8-1.9c1.7-0.8,3.5-1.4,5.4-1.9c1.1-0.3,2.3-0.5,3.4-0.6
	c0.2,0,0.3,0.1,0.3,0.2C64.1,323.4,64,323.5,63.8,323.5L63.8,323.5z"/>
<path class="st1" d="M3.8,324.2c0.1,0.3,0.4,0.5,0.7,0.4c0.2,0,0.4,0.1,0.2,0.9c-0.1,0.2,0,0.4,0.1,0.6c0.7,1.1,1.5,2.1,2.4,3
	c0.3,0.3,0.8,0.4,1.2,0.2c0.4-0.2,0.6-0.1,0.5,0.7c0,0.4,0.1,0.8,0.5,1c1.2,0.8,2.4,1.5,3.6,2c0.3,0.1,0.6,0,0.8-0.2
	c0.3-0.3,0.7-0.7,1.2,0c0.1,0.1,0.1,0.3,0.1,0.4c0,0.3,0.2,0.6,0.6,0.7c1.6,0.3,3.1,0.3,4.1-0.2c0.7-0.3,1.3-1,1.4-1.8
	c0.1-1.7-0.6-3.2-1.7-4.4c-0.2-0.2-0.5-0.3-0.8-0.3c-0.5,0.1-0.6-0.3-0.6-0.6c0-0.2-0.1-0.5-0.3-0.6c-0.9-0.6-1.9-1.2-2.9-1.7
	c-0.3-0.2-0.7-0.1-1,0.2c-0.4,0.5-1,0.3-1.1-0.5c0-0.3-0.2-0.6-0.5-0.8c-1.2-0.4-2.5-0.8-3.7-1.1c-0.2-0.1-0.5,0-0.6,0.2
	c-0.4,0.5-0.7,0-0.8-0.3c-0.1-0.2-0.2-0.3-0.4-0.4c-2.3-0.5-3.9-0.7-3.9-0.7C3,322,3.4,323.1,3.8,324.2z"/>
<path class="st2" d="M4.5,322.2c0.8,0.8,1.6,1.6,2.5,2.3c1.4,1.2,2.9,2.3,4.4,3.3c1.1,0.7,2.3,1.4,3.6,2c0.9,0.4,1.8,0.8,2.7,1.2
	c1.5,0.6,3.2,1.2,4.8,1.5c0.3,0.1,0.6,0.1,0.9,0.2c0.3,0.1,0.5,0.4,0.4,0.7c-0.1,0.3-0.4,0.5-0.7,0.4c0,0-0.3-0.1-1-0.2
	c-1.6-0.4-3.3-0.9-4.8-1.5c-1-0.4-1.9-0.8-2.9-1.3c-1.2-0.6-2.5-1.4-3.6-2.2c-1.6-1.1-3.1-2.2-4.4-3.6c-0.8-0.8-1.7-1.6-2.4-2.6
	c-0.1-0.1-0.1-0.3,0.1-0.4C4.2,322,4.4,322,4.5,322.2L4.5,322.2z"/>
<path class="st1" d="M-10.3,329.1c0.3-0.1,0.5-0.3,0.5-0.6c0-0.2,0.2-0.4,0.9,0c0.2,0.1,0.4,0.1,0.6,0.1c1.2-0.5,2.4-1.1,3.5-1.8
	c0.4-0.3,0.6-0.7,0.5-1.2c-0.1-0.4,0.1-0.6,0.7-0.4c0.4,0.1,0.8,0,1.1-0.3c1.1-1,2-2.1,2.7-3.1c0.2-0.3,0.2-0.6,0-0.8
	c-0.3-0.3-0.5-0.8,0.2-1.2c0.1-0.1,0.3-0.1,0.4-0.1c0.3,0.1,0.6-0.1,0.8-0.4c0.6-1.5,0.9-2.9,0.6-4.1c-0.2-0.8-0.7-1.5-1.5-1.7
	c-1.7-0.4-3.2-0.1-4.7,0.8c-0.3,0.1-0.4,0.4-0.4,0.7c0,0.5-0.4,0.5-0.7,0.5c-0.2,0-0.5,0-0.7,0.2c-0.8,0.7-1.6,1.6-2.2,2.5
	c-0.2,0.3-0.2,0.7,0,1c0.4,0.5,0.1,1.1-0.7,0.9c-0.3-0.1-0.7,0.1-0.8,0.4c-0.7,1.1-1.3,2.3-1.8,3.4c-0.1,0.2-0.1,0.5,0.1,0.7
	c0.4,0.5-0.1,0.7-0.5,0.8c-0.2,0-0.4,0.2-0.4,0.4c-0.9,2.1-1.4,3.7-1.4,3.7C-12.6,329.5-11.4,329.4-10.3,329.1z"/>
<path class="st2" d="M-12.2,328.1c1-0.6,1.9-1.3,2.8-2c1.4-1.1,2.8-2.4,4.1-3.7c1-1,1.9-2,2.7-3.1c0.6-0.8,1.2-1.6,1.7-2.4
	c0.9-1.4,1.8-2.9,2.4-4.4c0.1-0.3,0.3-0.6,0.4-0.9c0.1-0.3,0.5-0.4,0.8-0.3c0.3,0.1,0.4,0.5,0.3,0.8c0,0-0.1,0.3-0.4,0.9
	c-0.7,1.5-1.5,3-2.4,4.4c-0.6,0.9-1.2,1.7-1.9,2.6c-0.9,1.1-1.8,2.1-2.8,3.1c-1.4,1.3-2.8,2.6-4.4,3.7c-0.9,0.7-1.9,1.3-3,1.8
	c-0.1,0.1-0.3,0-0.4-0.1C-12.3,328.3-12.3,328.1-12.2,328.1L-12.2,328.1z"/>
<path class="st1" d="M-0.3,334.2c0.2-0.2,0.3-0.6,0.1-0.8c-0.1-0.2-0.1-0.4,0.7-0.5c0.2,0,0.4-0.1,0.5-0.3c0.8-1,1.5-2.2,2-3.3
	c0.2-0.4,0.1-0.9-0.2-1.2c-0.3-0.3-0.3-0.5,0.4-0.7c0.4-0.1,0.7-0.4,0.8-0.8c0.4-1.4,0.6-2.8,0.6-4.1c0-0.3-0.2-0.6-0.5-0.7
	c-0.4-0.1-0.9-0.4-0.4-1.1c0.1-0.1,0.2-0.2,0.3-0.3c0.3-0.1,0.5-0.4,0.4-0.8c-0.3-1.6-0.8-3-1.7-3.8c-0.6-0.6-1.4-0.9-2.2-0.6
	c-1.6,0.5-2.8,1.7-3.5,3.1c-0.1,0.3-0.1,0.6,0,0.8c0.2,0.4-0.1,0.6-0.4,0.8c-0.2,0.1-0.4,0.3-0.5,0.5c-0.3,1-0.5,2.2-0.6,3.3
	c0,0.4,0.2,0.7,0.5,0.8c0.6,0.2,0.7,0.9-0.1,1.2c-0.3,0.1-0.5,0.4-0.5,0.8c0,1.3,0.1,2.6,0.2,3.8c0,0.2,0.2,0.4,0.4,0.5
	c0.6,0.2,0.3,0.6,0,0.9c-0.1,0.1-0.2,0.3-0.2,0.5c0.3,2.3,0.7,3.9,0.7,3.9C-2.1,335.7-1.1,335-0.3,334.2z"/>
<path class="st2" d="M-2.5,334.3c0.5-1,0.9-2.1,1.3-3.2c0.6-1.7,1.1-3.5,1.5-5.3c0.3-1.3,0.5-2.7,0.6-4c0.1-1,0.2-1.9,0.2-2.9
	c0-1.7,0-3.4-0.3-5c0-0.3-0.1-0.6-0.1-1c0-0.3,0.2-0.6,0.5-0.7c0.3,0,0.6,0.2,0.7,0.5c0,0,0.1,0.4,0.1,1c0.3,1.7,0.3,3.4,0.3,5.1
	c0,1-0.1,2.1-0.2,3.2c-0.2,1.4-0.4,2.8-0.7,4.1c-0.5,1.8-1,3.7-1.8,5.4c-0.5,1.1-0.9,2.1-1.6,3.1c-0.1,0.1-0.3,0.2-0.4,0.1
	C-2.5,334.6-2.5,334.4-2.5,334.3L-2.5,334.3z"/>
<path class="st1" d="M-36.5,325.4c0.3-0.1,0.5-0.4,0.4-0.7c-0.1-0.2,0.1-0.4,0.9-0.2c0.2,0.1,0.4,0,0.6-0.1c1.1-0.7,2.1-1.5,3-2.5
	c0.3-0.3,0.4-0.8,0.2-1.2c-0.2-0.4-0.1-0.6,0.6-0.6c0.4,0,0.8-0.2,1-0.5c0.8-1.2,1.5-2.4,2-3.6c0.1-0.3,0-0.6-0.2-0.8
	c-0.3-0.3-0.7-0.7,0-1.2c0.1-0.1,0.3-0.1,0.4-0.1c0.3,0,0.6-0.3,0.6-0.6c0.3-1.6,0.2-3.1-0.3-4.1c-0.4-0.7-1-1.3-1.8-1.3
	c-1.7,0-3.2,0.6-4.4,1.8c-0.2,0.2-0.3,0.5-0.3,0.8c0.1,0.5-0.3,0.6-0.6,0.6c-0.2,0-0.5,0.2-0.6,0.4c-0.6,0.9-1.2,1.9-1.7,2.9
	c-0.2,0.3-0.1,0.7,0.2,1c0.5,0.4,0.3,1-0.5,1.1c-0.3,0-0.6,0.2-0.7,0.6c-0.4,1.3-0.8,2.5-1.1,3.7c-0.1,0.2,0,0.5,0.2,0.6
	c0.5,0.4,0,0.7-0.3,0.8c-0.2,0.1-0.3,0.2-0.4,0.4c-0.5,2.3-0.6,3.9-0.6,3.9C-38.6,326.2-37.5,325.9-36.5,325.4z"/>
<path class="st2" d="M-38.5,324.8c0.8-0.8,1.6-1.7,2.3-2.5c1.2-1.4,2.2-2.9,3.2-4.5c0.7-1.2,1.4-2.4,2-3.6c0.4-0.9,0.8-1.8,1.1-2.7
	c0.6-1.6,1.1-3.2,1.4-4.8c0.1-0.3,0.1-0.6,0.2-0.9c0.1-0.3,0.4-0.5,0.7-0.5c0.3,0.1,0.5,0.4,0.5,0.7c0,0-0.1,0.3-0.2,1
	c-0.3,1.7-0.8,3.3-1.5,4.9c-0.4,1-0.8,2-1.3,2.9c-0.6,1.3-1.3,2.5-2.1,3.7c-1.1,1.6-2.2,3.1-3.5,4.5c-0.8,0.9-1.6,1.7-2.5,2.4
	c-0.1,0.1-0.3,0.1-0.4,0C-38.6,325-38.6,324.9-38.5,324.8L-38.5,324.8z"/>
<path class="st1" d="M-50.2,276.3c0,0.3,0.1,0.6,0.4,0.7c0.2,0.1,0.3,0.3-0.3,0.8c-0.2,0.1-0.3,0.3-0.3,0.5c0,1.3,0.1,2.6,0.4,3.9
	c0.1,0.5,0.5,0.8,0.9,0.9c0.4,0.1,0.5,0.3,0.1,0.8c-0.2,0.3-0.3,0.7-0.1,1.1c0.5,1.3,1.2,2.6,2,3.6c0.2,0.2,0.5,0.4,0.8,0.3
	c0.4-0.1,1-0.2,1,0.6c0,0.2,0,0.3-0.1,0.4c-0.2,0.3-0.1,0.6,0.1,0.9c1.2,1.1,2.4,1.9,3.6,2c0.8,0.1,1.7-0.1,2.1-0.8
	c1-1.4,1.2-3,0.9-4.6c0-0.3-0.2-0.5-0.5-0.7c-0.4-0.2-0.3-0.6-0.2-0.9c0.1-0.2,0.1-0.5,0-0.7c-0.4-1-0.9-2-1.6-3
	c-0.2-0.3-0.6-0.4-0.9-0.3c-0.6,0.2-1.1-0.3-0.6-1c0.2-0.3,0.2-0.7-0.1-0.9c-0.8-1-1.7-2-2.5-2.9c-0.2-0.2-0.4-0.2-0.6-0.2
	c-0.6,0.2-0.6-0.3-0.5-0.7c0-0.2,0-0.4-0.2-0.5c-1.6-1.6-2.9-2.6-2.9-2.6C-49.7,274-50,275.1-50.2,276.3z"/>
<path class="st2" d="M-48.5,274.9c0.2,1.1,0.5,2.2,0.9,3.3c0.5,1.8,1.2,3.5,2,5.1c0.6,1.2,1.2,2.5,1.9,3.6c0.5,0.8,1,1.7,1.6,2.4
	c1,1.3,2.1,2.7,3.3,3.8c0.2,0.2,0.5,0.5,0.7,0.7c0.2,0.2,0.2,0.6,0,0.8c-0.2,0.2-0.6,0.2-0.8,0c0,0-0.3-0.2-0.7-0.7
	c-1.2-1.2-2.3-2.5-3.3-3.9c-0.6-0.9-1.2-1.8-1.7-2.7c-0.7-1.2-1.3-2.5-1.9-3.8c-0.7-1.7-1.4-3.5-1.9-5.4c-0.3-1.1-0.5-2.3-0.6-3.4
	c0-0.2,0.1-0.3,0.3-0.3C-48.7,274.7-48.5,274.8-48.5,274.9L-48.5,274.9z"/>
<path class="st1" d="M-30.1,275.8c-0.3,0.1-0.5,0.3-0.5,0.6c0,0.2-0.2,0.4-0.9,0c-0.2-0.1-0.4-0.1-0.6-0.1c-1.2,0.4-2.4,1-3.5,1.7
	c-0.4,0.3-0.6,0.7-0.5,1.2c0.1,0.4-0.1,0.6-0.8,0.4c-0.4-0.1-0.8,0-1.1,0.3c-1.1,1-2,2-2.7,3.1c-0.2,0.3-0.2,0.6,0,0.8
	c0.3,0.3,0.5,0.8-0.2,1.2c-0.1,0.1-0.3,0.1-0.4,0.1c-0.3-0.1-0.6,0.1-0.8,0.4c-0.6,1.5-0.9,2.9-0.6,4.1c0.2,0.8,0.7,1.5,1.5,1.7
	c1.7,0.4,3.2,0.1,4.7-0.7c0.3-0.1,0.4-0.4,0.4-0.7c0-0.5,0.4-0.5,0.8-0.4c0.2,0,0.5,0,0.7-0.2c0.8-0.7,1.6-1.6,2.3-2.5
	c0.2-0.3,0.2-0.7,0-1c-0.4-0.5-0.1-1.1,0.7-0.9c0.3,0.1,0.7-0.1,0.9-0.4c0.7-1.1,1.3-2.3,1.9-3.3c0.1-0.2,0.1-0.5-0.1-0.7
	c-0.4-0.5,0.1-0.7,0.5-0.8c0.2,0,0.4-0.2,0.4-0.4c0.9-2.1,1.5-3.6,1.5-3.6C-27.7,275.5-28.9,275.6-30.1,275.8z"/>
<path class="st2" d="M-28.2,276.9c-1,0.6-1.9,1.3-2.8,2c-1.5,1.1-2.8,2.3-4.1,3.6c-1,1-1.9,2-2.7,3.1c-0.6,0.8-1.2,1.6-1.7,2.4
	c-0.9,1.4-1.8,2.9-2.5,4.4c-0.1,0.3-0.3,0.6-0.4,0.9c-0.1,0.3-0.5,0.4-0.8,0.3s-0.4-0.5-0.3-0.8c0,0,0.1-0.3,0.4-0.9
	c0.7-1.5,1.6-3,2.5-4.4c0.6-0.9,1.2-1.7,1.9-2.5c0.9-1.1,1.8-2.1,2.9-3.1c1.4-1.3,2.8-2.5,4.4-3.6c1-0.7,1.9-1.3,3-1.8
	c0.1-0.1,0.3,0,0.4,0.1C-28,276.7-28.1,276.8-28.2,276.9L-28.2,276.9z"/>
<path class="st1" d="M14.7,333.8c-0.3,0.1-0.5,0.3-0.5,0.6c0,0.2-0.2,0.4-0.9,0c-0.2-0.1-0.4-0.1-0.6-0.1c-1.2,0.4-2.4,1-3.5,1.7
	c-0.4,0.3-0.6,0.7-0.5,1.2c0.1,0.4-0.1,0.6-0.8,0.4c-0.4-0.1-0.8,0-1.1,0.3c-1.1,1-2,2-2.7,3.1c-0.2,0.3-0.2,0.6,0,0.8
	c0.3,0.3,0.5,0.8-0.2,1.2C3.8,343,3.6,343,3.5,343c-0.3-0.1-0.6,0.1-0.8,0.4c-0.6,1.5-0.9,2.9-0.6,4.1c0.2,0.8,0.7,1.5,1.5,1.7
	c1.7,0.4,3.2,0.1,4.7-0.7c0.3-0.1,0.4-0.4,0.4-0.7c0-0.5,0.4-0.5,0.8-0.4c0.2,0,0.5,0,0.7-0.2c0.8-0.7,1.6-1.6,2.3-2.5
	c0.2-0.3,0.2-0.7,0-1c-0.4-0.5-0.1-1.1,0.7-0.9c0.3,0.1,0.7-0.1,0.9-0.4c0.7-1.1,1.3-2.3,1.9-3.3c0.1-0.2,0.1-0.5-0.1-0.7
	c-0.4-0.5,0.1-0.7,0.5-0.8c0.2,0,0.4-0.2,0.4-0.4c0.9-2.1,1.5-3.6,1.5-3.6C17,333.5,15.8,333.5,14.7,333.8z"/>
<path class="st2" d="M16.6,334.9c-1,0.6-1.9,1.3-2.8,2c-1.5,1.1-2.8,2.3-4.1,3.6c-1,1-1.9,2-2.7,3.1c-0.6,0.8-1.2,1.6-1.7,2.4
	c-0.9,1.4-1.8,2.9-2.5,4.4c-0.1,0.3-0.3,0.6-0.4,0.9c-0.1,0.3-0.5,0.4-0.8,0.3s-0.4-0.5-0.3-0.8c0,0,0.1-0.3,0.4-0.9
	c0.7-1.5,1.6-3,2.5-4.4c0.6-0.9,1.2-1.7,1.9-2.5c0.9-1.1,1.8-2.1,2.9-3.1c1.4-1.3,2.8-2.5,4.4-3.6c1-0.7,1.9-1.3,3-1.8
	c0.1-0.1,0.3,0,0.4,0.1C16.7,334.6,16.7,334.8,16.6,334.9L16.6,334.9z"/>
<path class="st1" d="M-36.9,359.4c0.1,0.3,0.5,0.4,0.8,0.3c0.2-0.1,0.4,0.1,0.2,0.8c-0.1,0.2,0,0.4,0.1,0.6c0.8,1.1,1.7,2,2.6,2.8
	c0.4,0.3,0.9,0.4,1.3,0.1c0.4-0.2,0.6-0.1,0.6,0.6c0,0.4,0.2,0.8,0.5,1c1.2,0.7,2.5,1.3,3.8,1.7c0.3,0.1,0.6,0,0.8-0.3
	c0.2-0.4,0.7-0.7,1.2-0.1c0.1,0.1,0.2,0.2,0.2,0.4c0,0.3,0.3,0.6,0.6,0.6c1.6,0.2,3.1,0,4.1-0.6c0.7-0.4,1.3-1.1,1.2-1.9
	c-0.1-1.7-0.8-3.1-2-4.3c-0.2-0.2-0.5-0.3-0.8-0.2c-0.4,0.1-0.6-0.3-0.6-0.6c0-0.2-0.2-0.5-0.4-0.6c-0.9-0.6-2-1.1-3-1.5
	c-0.3-0.1-0.7,0-1,0.3c-0.4,0.5-1,0.4-1.1-0.4c0-0.3-0.3-0.6-0.6-0.7c-1.3-0.4-2.6-0.6-3.7-0.8c-0.2,0-0.5,0.1-0.6,0.3
	c-0.4,0.5-0.7,0.1-0.9-0.2c-0.1-0.2-0.3-0.3-0.5-0.3c-2.3-0.3-3.9-0.4-3.9-0.4C-37.8,357.3-37.4,358.4-36.9,359.4z"/>
<path class="st2" d="M-36.4,357.3c0.8,0.8,1.8,1.5,2.7,2.1c1.5,1.1,3,2.1,4.7,2.9c1.2,0.7,2.4,1.2,3.7,1.7c0.9,0.4,1.8,0.7,2.8,1
	c1.6,0.5,3.3,0.9,4.9,1.1c0.3,0,0.6,0.1,1,0.1c0.3,0,0.5,0.3,0.5,0.7c0,0.3-0.3,0.5-0.7,0.5c0,0-0.4,0-1-0.1
	c-1.7-0.2-3.3-0.6-4.9-1.2c-1-0.3-2-0.7-3-1.1c-1.3-0.5-2.6-1.2-3.8-1.9c-1.6-1-3.2-2-4.7-3.2c-0.9-0.7-1.8-1.5-2.5-2.4
	c-0.1-0.1-0.1-0.3,0-0.4C-36.6,357.2-36.5,357.2-36.4,357.3L-36.4,357.3z"/>
<path class="st1" d="M-37.9,370.6c0.3,0.2,0.6,0.1,0.8-0.1c0.2-0.2,0.4-0.2,0.6,0.6c0.1,0.2,0.2,0.4,0.4,0.4c1.2,0.5,2.5,0.8,3.7,1
	c0.5,0.1,0.9-0.1,1.1-0.5c0.2-0.4,0.4-0.4,0.8,0.2c0.2,0.3,0.6,0.5,1,0.5c1.4,0,2.8-0.2,4.1-0.5c0.3-0.1,0.5-0.3,0.5-0.6
	c0-0.4,0.2-1,0.9-0.7c0.2,0.1,0.3,0.1,0.3,0.2c0.2,0.3,0.5,0.3,0.8,0.2c1.5-0.7,2.6-1.6,3.2-2.6c0.4-0.7,0.5-1.6,0-2.3
	c-1-1.4-2.3-2.2-4-2.6c-0.3-0.1-0.6,0-0.8,0.2c-0.3,0.3-0.7,0.1-0.9-0.2c-0.2-0.2-0.4-0.3-0.7-0.3c-1.1,0-2.2,0.1-3.4,0.3
	c-0.4,0.1-0.6,0.4-0.7,0.8c-0.1,0.6-0.6,0.9-1.2,0.2c-0.2-0.3-0.6-0.4-0.9-0.3c-1.3,0.4-2.5,0.8-3.6,1.3c-0.2,0.1-0.4,0.3-0.4,0.5
	c0,0.6-0.5,0.4-0.9,0.3c-0.2-0.1-0.4-0.1-0.6,0c-2.1,0.9-3.5,1.7-3.5,1.7C-39.9,369.2-38.9,370-37.9,370.6z"/>
<path class="st2" d="M-38.6,368.5c1.1,0.2,2.3,0.3,3.4,0.4c1.8,0.1,3.7,0.1,5.5,0c1.4-0.1,2.7-0.2,4.1-0.5c1-0.2,1.9-0.4,2.9-0.6
	c1.6-0.4,3.3-0.9,4.8-1.6c0.3-0.1,0.6-0.3,0.9-0.4c0.3-0.1,0.6,0,0.8,0.3c0.1,0.3,0,0.6-0.3,0.8c0,0-0.3,0.1-0.9,0.4
	c-1.5,0.7-3.2,1.2-4.8,1.6c-1,0.3-2.1,0.5-3.1,0.6c-1.4,0.2-2.8,0.4-4.2,0.4c-1.9,0.1-3.8,0-5.7-0.2c-1.1-0.2-2.3-0.3-3.4-0.7
	c-0.1,0-0.2-0.2-0.2-0.3C-38.9,368.6-38.7,368.5-38.6,368.5L-38.6,368.5z"/>
<path class="st1" d="M37.8,340.7c-0.3,0.1-0.5,0.3-0.5,0.6c0,0.2-0.2,0.4-0.9,0c-0.2-0.1-0.4-0.1-0.6-0.1c-1.2,0.4-2.4,1-3.5,1.7
	c-0.4,0.3-0.6,0.7-0.5,1.2c0.1,0.4-0.1,0.6-0.8,0.4c-0.4-0.1-0.8,0-1.1,0.3c-1.1,1-2,2-2.7,3.1c-0.2,0.3-0.2,0.6,0,0.8
	c0.3,0.3,0.5,0.8-0.2,1.2c-0.1,0.1-0.3,0.1-0.4,0.1c-0.3-0.1-0.6,0.1-0.8,0.4c-0.6,1.5-0.9,2.9-0.6,4.1c0.2,0.8,0.7,1.5,1.5,1.7
	c1.7,0.4,3.2,0.1,4.7-0.7c0.3-0.1,0.4-0.4,0.4-0.7c0-0.5,0.4-0.5,0.8-0.4c0.2,0,0.5,0,0.7-0.2c0.8-0.7,1.6-1.6,2.3-2.5
	c0.2-0.3,0.2-0.7,0-1c-0.4-0.5-0.1-1.1,0.7-0.9c0.3,0.1,0.7-0.1,0.9-0.4c0.7-1.1,1.3-2.3,1.9-3.3c0.1-0.2,0.1-0.5-0.1-0.7
	c-0.4-0.5,0.1-0.7,0.5-0.8c0.2,0,0.4-0.2,0.4-0.4c0.9-2.1,1.5-3.6,1.5-3.6C40.2,340.4,39,340.4,37.8,340.7z"/>
<path class="st2" d="M39.7,341.8c-1,0.6-1.9,1.3-2.8,2c-1.5,1.1-2.8,2.3-4.1,3.6c-1,1-1.9,2-2.7,3.1c-0.6,0.8-1.2,1.6-1.7,2.4
	c-0.9,1.4-1.8,2.9-2.5,4.4c-0.1,0.3-0.3,0.6-0.4,0.9c-0.1,0.3-0.5,0.4-0.8,0.3s-0.4-0.5-0.3-0.8c0,0,0.1-0.3,0.4-0.9
	c0.7-1.5,1.6-3,2.5-4.4c0.6-0.9,1.2-1.7,1.9-2.5c0.9-1.1,1.8-2.1,2.9-3.1c1.4-1.3,2.8-2.5,4.4-3.6c1-0.7,1.9-1.3,3-1.8
	c0.1-0.1,0.3,0,0.4,0.1C39.9,341.5,39.8,341.7,39.7,341.8L39.7,341.8z"/>
<path class="st1" d="M44.3,359.7c-0.2-0.2-0.5-0.3-0.8-0.2c-0.2,0.1-0.4,0-0.4-0.8c0-0.2-0.1-0.4-0.2-0.5c-1-0.9-2-1.6-3.2-2.3
	c-0.4-0.2-0.9-0.2-1.3,0.1c-0.3,0.3-0.6,0.2-0.7-0.5c-0.1-0.4-0.4-0.7-0.7-0.8c-1.4-0.5-2.7-0.8-4-1c-0.3,0-0.6,0.1-0.7,0.4
	c-0.2,0.4-0.5,0.8-1.1,0.3c-0.1-0.1-0.2-0.2-0.2-0.3c-0.1-0.3-0.4-0.5-0.7-0.5c-1.6,0.1-3,0.6-3.9,1.4c-0.6,0.5-1,1.3-0.8,2.1
	c0.4,1.7,1.4,2.9,2.8,3.8c0.3,0.2,0.6,0.2,0.8,0.1c0.4-0.2,0.6,0.2,0.7,0.5c0.1,0.2,0.3,0.4,0.5,0.5c1,0.4,2.1,0.6,3.3,0.8
	c0.4,0.1,0.7-0.1,0.9-0.5c0.3-0.6,0.9-0.6,1.2,0.2c0.1,0.3,0.4,0.6,0.7,0.6c1.3,0.1,2.6,0.1,3.8,0.1c0.2,0,0.5-0.2,0.6-0.4
	c0.3-0.6,0.7-0.2,0.9,0.1c0.1,0.2,0.3,0.2,0.5,0.2c2.3-0.1,3.9-0.4,3.9-0.4C45.6,361.6,45,360.6,44.3,359.7z"/>
<path class="st2" d="M44.2,361.8c-1-0.6-2-1.1-3.1-1.6c-1.7-0.8-3.4-1.4-5.2-1.9c-1.3-0.4-2.6-0.7-4-1c-1-0.2-1.9-0.3-2.9-0.4
	c-1.7-0.2-3.4-0.3-5-0.1c-0.3,0-0.6,0-1,0.1c-0.3,0-0.6-0.2-0.6-0.5c0-0.3,0.2-0.6,0.5-0.6c0,0,0.4,0,1-0.1c1.7-0.1,3.4,0,5.1,0.1
	c1,0.1,2.1,0.3,3.1,0.5c1.4,0.3,2.7,0.6,4.1,1.1c1.8,0.6,3.6,1.3,5.3,2.2c1,0.5,2,1.1,3,1.8c0.1,0.1,0.1,0.3,0.1,0.4
	C44.5,361.9,44.3,361.9,44.2,361.8L44.2,361.8z"/>
<path class="st1" d="M6.7,388.3c0.1-0.3,0.1-0.6-0.2-0.8c-0.2-0.2-0.2-0.4,0.6-0.7c0.2-0.1,0.3-0.2,0.4-0.4c0.4-1.2,0.7-2.5,0.8-3.8
	c0-0.5-0.2-0.9-0.6-1.1c-0.4-0.2-0.4-0.4,0.2-0.8c0.3-0.2,0.5-0.6,0.5-1c-0.1-1.4-0.4-2.8-0.8-4.1c-0.1-0.3-0.4-0.5-0.7-0.5
	c-0.4,0-1-0.1-0.8-0.9c0-0.2,0.1-0.3,0.2-0.3c0.2-0.2,0.3-0.6,0.1-0.8c-0.8-1.4-1.8-2.5-2.8-3c-0.7-0.3-1.6-0.4-2.3,0.1
	c-1.4,1-2.1,2.5-2.3,4.1c0,0.3,0.1,0.6,0.3,0.8c0.4,0.3,0.1,0.6-0.1,0.9c-0.2,0.2-0.3,0.4-0.3,0.7c0.1,1.1,0.3,2.2,0.6,3.3
	c0.1,0.4,0.4,0.6,0.8,0.6c0.6,0,0.9,0.6,0.3,1.2c-0.3,0.2-0.3,0.6-0.2,0.9c0.5,1.2,1,2.4,1.5,3.5c0.1,0.2,0.3,0.3,0.6,0.4
	c0.6,0,0.5,0.5,0.3,0.8c-0.1,0.2-0.1,0.4,0,0.6c1.1,2,2,3.4,2,3.4C5.5,390.4,6.2,389.4,6.7,388.3z"/>
<path class="st2" d="M4.7,389.1c0.1-1.1,0.2-2.3,0.2-3.4c0-1.8-0.1-3.7-0.3-5.5c-0.2-1.4-0.4-2.7-0.7-4c-0.2-0.9-0.5-1.9-0.8-2.8
	c-0.5-1.6-1.1-3.2-1.9-4.6c-0.1-0.3-0.3-0.6-0.4-0.9c-0.1-0.3,0-0.6,0.2-0.8c0.3-0.1,0.6,0,0.8,0.2c0,0,0.2,0.3,0.5,0.9
	c0.8,1.5,1.4,3.1,1.9,4.7c0.3,1,0.6,2,0.8,3.1c0.3,1.4,0.5,2.8,0.7,4.2c0.2,1.9,0.3,3.8,0.1,5.7c-0.1,1.2-0.2,2.3-0.4,3.5
	c0,0.1-0.2,0.2-0.3,0.2C4.8,389.4,4.7,389.3,4.7,389.1L4.7,389.1z"/>
<path class="st1" d="M20.5,378.6c-0.1-0.3-0.4-0.5-0.7-0.4c-0.2,0-0.4-0.1-0.2-0.9c0.1-0.2,0.1-0.4-0.1-0.6
	c-0.7-1.1-1.5-2.2-2.4-3.1c-0.3-0.3-0.8-0.4-1.2-0.3c-0.4,0.2-0.6,0.1-0.5-0.7c0-0.4-0.1-0.8-0.5-1c-1.2-0.9-2.4-1.6-3.6-2.1
	c-0.3-0.1-0.6-0.1-0.8,0.2c-0.3,0.3-0.7,0.6-1.2,0c-0.1-0.1-0.1-0.3-0.1-0.4c0-0.3-0.2-0.6-0.5-0.7c-1.6-0.3-3.1-0.3-4.1,0.2
	c-0.7,0.3-1.4,1-1.4,1.8c-0.1,1.7,0.5,3.2,1.6,4.4c0.2,0.2,0.5,0.3,0.8,0.3c0.5-0.1,0.6,0.3,0.6,0.7c0,0.2,0.1,0.5,0.3,0.6
	c0.9,0.7,1.9,1.2,2.9,1.7c0.3,0.2,0.7,0.1,1-0.2c0.4-0.5,1-0.3,1.1,0.5c0,0.3,0.2,0.6,0.5,0.8c1.2,0.5,2.5,0.9,3.6,1.2
	c0.2,0.1,0.5,0,0.6-0.2c0.4-0.5,0.7,0,0.8,0.3c0.1,0.2,0.2,0.3,0.4,0.4c2.3,0.5,3.9,0.7,3.9,0.7C21.2,380.8,20.9,379.7,20.5,378.6z"
	/>
<path class="st2" d="M19.8,380.7c-0.8-0.8-1.6-1.6-2.5-2.4c-1.4-1.2-2.8-2.3-4.4-3.4c-1.1-0.8-2.3-1.5-3.5-2.1
	c-0.9-0.4-1.8-0.9-2.7-1.2c-1.5-0.6-3.2-1.2-4.8-1.6c-0.3-0.1-0.6-0.1-0.9-0.2c-0.3-0.1-0.5-0.4-0.4-0.7c0.1-0.3,0.4-0.5,0.7-0.4
	c0,0,0.3,0.1,1,0.2c1.6,0.4,3.3,0.9,4.8,1.6c1,0.4,1.9,0.9,2.9,1.4c1.2,0.7,2.4,1.4,3.6,2.2c1.6,1.1,3,2.3,4.4,3.6
	c0.8,0.8,1.6,1.7,2.3,2.6c0.1,0.1,0.1,0.3-0.1,0.4C20,380.8,19.9,380.8,19.8,380.7L19.8,380.7z"/>
<path class="st1" d="M185.2,323.8c-0.3,0-0.6,0.2-0.6,0.5c0,0.2-0.2,0.4-0.9-0.2c-0.2-0.1-0.4-0.2-0.6-0.2c-1.3,0.2-2.5,0.6-3.7,1.1
	c-0.4,0.2-0.7,0.6-0.7,1.1c0,0.5-0.2,0.6-0.8,0.3c-0.4-0.2-0.8-0.2-1.1,0.1c-1.2,0.8-2.3,1.7-3.2,2.6c-0.2,0.2-0.3,0.5-0.1,0.8
	c0.2,0.4,0.3,0.9-0.4,1.1c-0.2,0-0.3,0-0.4,0c-0.3-0.1-0.6,0-0.8,0.3c-0.9,1.4-1.4,2.7-1.3,3.9c0,0.8,0.4,1.6,1.2,1.9
	c1.6,0.7,3.2,0.6,4.7,0.1c0.3-0.1,0.5-0.3,0.6-0.6c0.1-0.5,0.5-0.4,0.8-0.3c0.2,0.1,0.5,0,0.7-0.1c0.9-0.6,1.8-1.3,2.7-2.1
	c0.3-0.3,0.3-0.7,0.2-1c-0.3-0.5,0.1-1.1,0.9-0.8c0.3,0.1,0.7,0,0.9-0.2c0.9-1,1.7-2,2.4-3c0.1-0.2,0.2-0.5,0-0.7
	c-0.3-0.6,0.2-0.7,0.6-0.7c0.2,0,0.4-0.1,0.5-0.3c1.3-1.9,2.1-3.3,2.1-3.3C187.5,323.9,186.3,323.8,185.2,323.8z"/>
<path class="st2" d="M186.8,325.2c-1.1,0.4-2.1,0.9-3.1,1.5c-1.6,0.8-3.2,1.8-4.7,2.9c-1.1,0.8-2.2,1.6-3.2,2.6
	c-0.7,0.7-1.4,1.3-2.1,2c-1.1,1.2-2.3,2.5-3.2,3.9c-0.2,0.3-0.4,0.5-0.5,0.8c-0.2,0.3-0.5,0.3-0.8,0.2c-0.3-0.2-0.3-0.5-0.2-0.8
	c0,0,0.2-0.3,0.5-0.8c0.9-1.4,2.1-2.7,3.2-3.9c0.7-0.8,1.5-1.5,2.3-2.2c1.1-0.9,2.2-1.8,3.3-2.6c1.6-1.1,3.2-2,5-2.8
	c1.1-0.5,2.1-0.9,3.3-1.2c0.1,0,0.3,0,0.3,0.2C187,325,187,325.1,186.8,325.2L186.8,325.2z"/>
<path class="st1" d="M170.3,319.5c-0.2,0.2-0.2,0.6-0.1,0.8c0.1,0.2,0.1,0.4-0.7,0.5c-0.2,0-0.4,0.1-0.5,0.3
	c-0.7,1.1-1.3,2.2-1.8,3.5c-0.2,0.4-0.1,0.9,0.3,1.2c0.3,0.3,0.3,0.5-0.4,0.8c-0.4,0.1-0.7,0.5-0.7,0.8c-0.3,1.4-0.4,2.8-0.4,4.1
	c0,0.3,0.2,0.6,0.5,0.7c0.4,0.1,0.9,0.4,0.5,1.1c-0.1,0.1-0.2,0.2-0.3,0.3c-0.3,0.1-0.4,0.5-0.4,0.8c0.4,1.6,1,2.9,1.9,3.7
	c0.6,0.5,1.5,0.8,2.2,0.5c1.6-0.6,2.7-1.8,3.3-3.4c0.1-0.3,0.1-0.6-0.1-0.8c-0.3-0.4,0.1-0.7,0.3-0.8c0.2-0.1,0.4-0.3,0.4-0.6
	c0.2-1.1,0.3-2.2,0.4-3.4c0-0.4-0.2-0.7-0.6-0.8c-0.6-0.2-0.7-0.8,0-1.2c0.3-0.2,0.5-0.5,0.5-0.8c-0.1-1.3-0.3-2.6-0.5-3.8
	c0-0.2-0.2-0.4-0.4-0.5c-0.6-0.2-0.3-0.6-0.1-0.9c0.1-0.1,0.2-0.4,0.2-0.6c-0.5-2.3-1-3.8-1-3.8C171.9,317.9,171,318.7,170.3,319.5z
	"/>
<path class="st2" d="M172.4,319.3c-0.4,1-0.8,2.2-1.1,3.3c-0.5,1.8-0.9,3.6-1.2,5.4c-0.2,1.3-0.3,2.7-0.4,4.1c0,1,0,2,0,2.9
	c0.1,1.7,0.2,3.4,0.6,5c0.1,0.3,0.1,0.6,0.2,0.9c0.1,0.3-0.1,0.6-0.4,0.7c-0.3,0.1-0.6-0.1-0.7-0.4c0,0-0.1-0.3-0.2-1
	c-0.4-1.6-0.5-3.4-0.6-5c0-1,0-2.1,0-3.2c0.1-1.4,0.2-2.8,0.5-4.2c0.3-1.9,0.8-3.7,1.4-5.5c0.4-1.1,0.8-2.2,1.4-3.2
	c0.1-0.1,0.2-0.2,0.4-0.1C172.4,319,172.5,319.2,172.4,319.3L172.4,319.3z"/>
<path class="st1" d="M191.9,370.4c-0.1-0.3-0.3-0.5-0.7-0.5c-0.2,0-0.4-0.2,0-0.9c0.1-0.2,0.1-0.4,0-0.6c-0.5-1.2-1.1-2.4-1.9-3.4
	c-0.3-0.4-0.7-0.6-1.2-0.4c-0.4,0.1-0.6,0-0.4-0.7c0.1-0.4,0-0.8-0.3-1.1c-1-1-2.1-1.9-3.2-2.6c-0.3-0.2-0.6-0.1-0.8,0.1
	c-0.3,0.3-0.8,0.5-1.2-0.2c-0.1-0.1-0.1-0.3-0.1-0.4c0-0.3-0.1-0.6-0.4-0.7c-1.5-0.6-3-0.8-4.1-0.5c-0.8,0.2-1.5,0.8-1.7,1.6
	c-0.4,1.7,0,3.2,0.9,4.6c0.2,0.3,0.4,0.4,0.7,0.4c0.5,0,0.5,0.4,0.5,0.7c0,0.2,0.1,0.5,0.2,0.7c0.8,0.8,1.6,1.5,2.6,2.2
	c0.3,0.2,0.7,0.2,1,0c0.5-0.4,1.1-0.2,1,0.7c0,0.3,0.1,0.7,0.4,0.8c1.2,0.6,2.3,1.2,3.4,1.7c0.2,0.1,0.5,0.1,0.7-0.1
	c0.5-0.4,0.7,0.1,0.8,0.4c0,0.2,0.2,0.4,0.4,0.4c2.1,0.9,3.7,1.3,3.7,1.3C192.3,372.7,192.2,371.5,191.9,370.4z"/>
<path class="st2" d="M190.9,372.3c-0.6-1-1.4-1.8-2.1-2.7c-1.2-1.4-2.5-2.7-3.8-4c-1-0.9-2.1-1.8-3.2-2.6c-0.8-0.6-1.6-1.1-2.4-1.6
	c-1.4-0.9-2.9-1.7-4.5-2.3c-0.3-0.1-0.6-0.2-0.9-0.4c-0.3-0.1-0.4-0.5-0.3-0.8c0.1-0.3,0.5-0.4,0.8-0.3c0,0,0.3,0.1,0.9,0.4
	c1.6,0.6,3.1,1.4,4.5,2.3c0.9,0.5,1.8,1.2,2.6,1.8c1.1,0.8,2.2,1.8,3.2,2.7c1.4,1.3,2.7,2.7,3.8,4.2c0.7,0.9,1.4,1.9,1.9,2.9
	c0.1,0.1,0,0.3-0.1,0.4C191.1,372.5,191,372.4,190.9,372.3L190.9,372.3z"/>
<path class="st1" d="M178.1,379.4c0.2-0.3,0.1-0.6-0.1-0.8c-0.2-0.2-0.2-0.4,0.6-0.6c0.2-0.1,0.4-0.2,0.4-0.4
	c0.5-1.2,0.9-2.5,1.1-3.7c0.1-0.5-0.1-0.9-0.5-1.2c-0.4-0.2-0.4-0.5,0.2-0.8c0.3-0.2,0.6-0.6,0.6-1c0-1.4-0.2-2.8-0.5-4.1
	c-0.1-0.3-0.3-0.5-0.6-0.5c-0.4,0-1-0.2-0.7-1c0.1-0.1,0.1-0.3,0.2-0.3c0.3-0.2,0.3-0.5,0.2-0.8c-0.7-1.5-1.6-2.6-2.6-3.2
	c-0.7-0.4-1.6-0.5-2.3-0.1c-1.4,0.9-2.2,2.3-2.6,3.9c-0.1,0.3,0,0.6,0.2,0.8c0.3,0.3,0.1,0.7-0.2,0.9c-0.2,0.2-0.3,0.4-0.3,0.6
	c0,1.1,0.1,2.2,0.3,3.4c0.1,0.4,0.4,0.6,0.7,0.7c0.6,0.1,0.9,0.7,0.2,1.2c-0.3,0.2-0.4,0.6-0.3,0.9c0.4,1.3,0.8,2.5,1.2,3.6
	c0.1,0.2,0.3,0.4,0.5,0.4c0.6,0.1,0.4,0.5,0.2,0.9c-0.1,0.2-0.1,0.4,0,0.6c0.9,2.1,1.7,3.5,1.7,3.5
	C176.8,381.4,177.5,380.4,178.1,379.4z"/>
<path class="st2" d="M176.1,380.1c0.2-1.1,0.3-2.3,0.4-3.4c0.2-1.8,0.2-3.7,0.1-5.5c-0.1-1.4-0.2-2.7-0.4-4.1
	c-0.2-1-0.3-1.9-0.6-2.9c-0.4-1.6-0.9-3.3-1.6-4.8c-0.1-0.3-0.3-0.6-0.4-0.9c-0.1-0.3,0-0.6,0.3-0.8c0.3-0.1,0.6,0,0.8,0.3
	c0,0,0.1,0.3,0.4,0.9c0.7,1.5,1.2,3.2,1.6,4.8c0.2,1,0.4,2.1,0.6,3.1c0.2,1.4,0.3,2.8,0.4,4.2c0,1.9,0,3.8-0.3,5.7
	c-0.2,1.1-0.4,2.3-0.7,3.4c0,0.1-0.2,0.2-0.3,0.2C176.1,380.4,176,380.2,176.1,380.1L176.1,380.1z"/>
<path class="st1" d="M191.9,375.7c0-0.3-0.2-0.6-0.6-0.6c-0.2,0-0.4-0.2,0.1-0.9c0.1-0.2,0.2-0.4,0.1-0.6c-0.3-1.3-0.7-2.5-1.2-3.7
	c-0.2-0.4-0.6-0.7-1.1-0.7c-0.5,0-0.6-0.1-0.3-0.8c0.2-0.4,0.1-0.8-0.1-1.1c-0.8-1.2-1.7-2.3-2.7-3.2c-0.2-0.2-0.6-0.3-0.8-0.1
	c-0.4,0.2-0.9,0.4-1.1-0.4c0-0.2,0-0.3,0-0.4c0.1-0.3,0-0.6-0.3-0.8c-1.4-0.9-2.8-1.3-4-1.2c-0.8,0.1-1.6,0.5-1.9,1.2
	c-0.7,1.6-0.6,3.2,0,4.7c0.1,0.3,0.3,0.5,0.6,0.5c0.5,0.1,0.4,0.5,0.3,0.8c-0.1,0.2,0,0.5,0.1,0.7c0.6,0.9,1.3,1.8,2.1,2.6
	c0.3,0.3,0.7,0.3,1,0.1c0.5-0.3,1.1,0.1,0.8,0.9c-0.1,0.3,0,0.7,0.2,0.9c1,0.9,2.1,1.6,3,2.3c0.2,0.1,0.5,0.1,0.7,0
	c0.5-0.3,0.7,0.2,0.7,0.6c0,0.2,0.1,0.4,0.3,0.5c1.9,1.2,3.4,2,3.4,2C191.8,378,191.9,376.8,191.9,375.7z"/>
<path class="st2" d="M190.5,377.4c-0.4-1.1-1-2.1-1.5-3.1c-0.9-1.6-1.9-3.1-3-4.6c-0.8-1.1-1.7-2.1-2.6-3.1c-0.7-0.7-1.4-1.4-2.1-2
	c-1.2-1.1-2.6-2.2-4-3.1c-0.3-0.2-0.5-0.3-0.8-0.5c-0.3-0.2-0.3-0.5-0.2-0.8c0.2-0.3,0.5-0.4,0.8-0.2c0,0,0.3,0.2,0.8,0.5
	c1.4,0.9,2.8,2,4,3.1c0.8,0.7,1.5,1.5,2.2,2.2c0.9,1,1.8,2.1,2.6,3.3c1.1,1.6,2.1,3.2,2.9,4.9c0.5,1,1,2.1,1.3,3.2
	c0,0.1,0,0.3-0.2,0.3C190.7,377.6,190.6,377.5,190.5,377.4L190.5,377.4z"/>
<path class="st1" d="M132,355.2c0.3,0,0.6-0.2,0.7-0.4c0.1-0.2,0.3-0.3,0.8,0.3c0.1,0.2,0.3,0.2,0.5,0.2c1.3-0.1,2.6-0.3,3.8-0.6
	c0.4-0.1,0.8-0.5,0.8-1c0-0.4,0.2-0.6,0.8-0.2c0.3,0.2,0.8,0.3,1.1,0.1c1.3-0.6,2.5-1.4,3.5-2.2c0.2-0.2,0.3-0.5,0.2-0.8
	c-0.2-0.4-0.2-0.9,0.6-1c0.2,0,0.3,0,0.4,0.1c0.3,0.2,0.6,0.1,0.8-0.2c1.1-1.2,1.7-2.5,1.8-3.7c0.1-0.8-0.2-1.7-0.9-2.1
	c-1.5-0.9-3.1-1-4.7-0.7c-0.3,0.1-0.5,0.3-0.6,0.6c-0.1,0.4-0.6,0.3-0.9,0.2c-0.2-0.1-0.5-0.1-0.7,0c-1,0.5-2,1.1-2.9,1.7
	c-0.3,0.2-0.4,0.6-0.3,1c0.2,0.6-0.2,1.1-1,0.7c-0.3-0.2-0.7-0.1-0.9,0.1c-1,0.9-1.9,1.8-2.8,2.7c-0.2,0.2-0.2,0.4-0.1,0.7
	c0.2,0.6-0.3,0.6-0.7,0.6c-0.2,0-0.4,0.1-0.5,0.2c-1.5,1.7-2.5,3-2.5,3C129.7,354.9,130.8,355.1,132,355.2z"/>
<path class="st2" d="M130.5,353.7c1.1-0.3,2.2-0.7,3.3-1.1c1.7-0.6,3.4-1.4,5-2.3c1.2-0.6,2.4-1.4,3.5-2.1c0.8-0.6,1.6-1.1,2.3-1.8
	c1.3-1.1,2.6-2.2,3.6-3.5c0.2-0.2,0.4-0.5,0.6-0.7c0.2-0.2,0.6-0.3,0.8-0.1c0.2,0.2,0.3,0.6,0.1,0.8c0,0-0.2,0.3-0.6,0.7
	c-1.1,1.3-2.4,2.4-3.7,3.5c-0.8,0.7-1.7,1.3-2.6,1.9c-1.2,0.8-2.4,1.5-3.6,2.1c-1.7,0.8-3.4,1.6-5.3,2.2c-1.1,0.3-2.2,0.7-3.4,0.8
	c-0.2,0-0.3-0.1-0.3-0.2C130.3,353.8,130.4,353.7,130.5,353.7L130.5,353.7z"/>
<path class="st1" d="M154.7,364.9c0.1-0.3,0.1-0.6-0.1-0.8c-0.2-0.2-0.2-0.4,0.6-0.7c0.2-0.1,0.4-0.2,0.4-0.4
	c0.4-1.2,0.7-2.5,0.9-3.8c0-0.5-0.2-0.9-0.6-1.1c-0.4-0.2-0.4-0.4,0.2-0.8c0.3-0.2,0.5-0.6,0.5-1c-0.1-1.4-0.3-2.8-0.7-4.1
	c-0.1-0.3-0.3-0.5-0.7-0.5c-0.4,0-1-0.2-0.7-0.9c0-0.2,0.1-0.3,0.2-0.3c0.2-0.2,0.3-0.6,0.2-0.8c-0.8-1.5-1.7-2.5-2.8-3.1
	c-0.7-0.4-1.6-0.4-2.3,0.1c-1.4,1-2.1,2.4-2.4,4.1c0,0.3,0,0.6,0.3,0.8c0.4,0.3,0.1,0.6-0.1,0.9c-0.2,0.2-0.3,0.4-0.3,0.7
	c0,1.1,0.2,2.2,0.5,3.3c0.1,0.4,0.4,0.6,0.8,0.6c0.6,0,0.9,0.6,0.3,1.2c-0.3,0.2-0.4,0.6-0.2,0.9c0.4,1.3,0.9,2.5,1.4,3.6
	c0.1,0.2,0.3,0.4,0.6,0.4c0.6,0,0.5,0.5,0.3,0.8c-0.1,0.2-0.1,0.4,0,0.6c1,2.1,1.9,3.4,1.9,3.4C153.5,366.9,154.1,365.9,154.7,364.9
	z"/>
<path class="st2" d="M152.7,365.6c0.2-1.1,0.2-2.3,0.3-3.4c0.1-1.8,0-3.7-0.2-5.5c-0.1-1.4-0.4-2.7-0.7-4c-0.2-1-0.5-1.9-0.7-2.8
	c-0.5-1.6-1.1-3.2-1.8-4.7c-0.1-0.3-0.3-0.6-0.4-0.9c-0.1-0.3,0-0.6,0.3-0.8c0.3-0.1,0.6,0,0.8,0.3c0,0,0.2,0.3,0.4,0.9
	c0.8,1.5,1.3,3.1,1.8,4.7c0.3,1,0.6,2,0.8,3.1c0.3,1.4,0.5,2.8,0.6,4.2c0.1,1.9,0.2,3.8,0,5.7c-0.1,1.2-0.2,2.3-0.5,3.4
	c0,0.1-0.2,0.2-0.3,0.2C152.7,365.9,152.6,365.8,152.7,365.6L152.7,365.6z"/>
<path class="st1" d="M150,365c0.2-0.3,0.2-0.6,0-0.8c-0.2-0.2-0.1-0.4,0.7-0.6c0.2,0,0.4-0.2,0.5-0.3c0.6-1.1,1.1-2.4,1.4-3.6
	c0.1-0.4,0-0.9-0.4-1.2c-0.4-0.3-0.4-0.5,0.3-0.8c0.4-0.2,0.6-0.5,0.6-0.9c0.1-1.4,0.1-2.8-0.1-4.1c0-0.3-0.3-0.5-0.6-0.6
	c-0.4-0.1-0.9-0.3-0.6-1c0.1-0.1,0.2-0.2,0.3-0.3c0.3-0.2,0.4-0.5,0.3-0.8c-0.5-1.6-1.3-2.8-2.3-3.5c-0.7-0.5-1.5-0.6-2.3-0.3
	c-1.5,0.8-2.5,2.1-3,3.7c-0.1,0.3,0,0.6,0.2,0.8c0.3,0.4,0,0.7-0.3,0.8c-0.2,0.1-0.3,0.4-0.4,0.6c-0.1,1.1-0.1,2.2,0,3.4
	c0,0.4,0.3,0.7,0.7,0.7c0.6,0.1,0.8,0.7,0.1,1.2c-0.3,0.2-0.4,0.5-0.4,0.9c0.2,1.3,0.5,2.6,0.9,3.7c0.1,0.2,0.3,0.4,0.5,0.4
	c0.6,0.1,0.4,0.6,0.2,0.9c-0.1,0.2-0.2,0.4-0.1,0.6c0.7,2.2,1.3,3.7,1.3,3.7C148.5,366.8,149.3,365.9,150,365z"/>
<path class="st2" d="M147.9,365.5c0.3-1.1,0.6-2.2,0.8-3.3c0.3-1.8,0.5-3.6,0.6-5.5c0.1-1.4,0.1-2.7,0-4.1c-0.1-1-0.2-1.9-0.3-2.9
	c-0.3-1.6-0.6-3.3-1.1-4.9c-0.1-0.3-0.2-0.6-0.3-0.9c-0.1-0.3,0.1-0.6,0.4-0.7c0.3-0.1,0.6,0.1,0.7,0.4c0,0,0.1,0.3,0.3,0.9
	c0.5,1.6,0.9,3.3,1.1,4.9c0.1,1,0.2,2.1,0.3,3.2c0.1,1.4,0.1,2.8-0.1,4.2c-0.1,1.9-0.4,3.8-0.9,5.6c-0.3,1.1-0.6,2.2-1,3.3
	c-0.1,0.1-0.2,0.2-0.4,0.2C147.9,365.7,147.8,365.6,147.9,365.5L147.9,365.5z"/>
<path class="st1" d="M125.6,351.9c0.2-0.2,0.3-0.6,0.1-0.8c-0.1-0.2-0.1-0.4,0.7-0.5c0.2,0,0.4-0.1,0.5-0.3c0.8-1.1,1.4-2.2,1.8-3.4
	c0.2-0.4,0.1-0.9-0.3-1.2c-0.3-0.3-0.3-0.5,0.4-0.8c0.4-0.1,0.7-0.4,0.7-0.8c0.3-1.4,0.5-2.8,0.4-4.1c0-0.3-0.2-0.6-0.5-0.7
	c-0.4-0.1-0.9-0.4-0.5-1.1c0.1-0.1,0.2-0.2,0.3-0.3c0.3-0.1,0.4-0.5,0.4-0.8c-0.3-1.6-1-2.9-1.8-3.7c-0.6-0.5-1.5-0.8-2.2-0.5
	c-1.6,0.6-2.7,1.8-3.4,3.3c-0.1,0.3-0.1,0.6,0.1,0.8c0.3,0.4-0.1,0.7-0.4,0.8c-0.2,0.1-0.4,0.3-0.4,0.6c-0.2,1.1-0.4,2.2-0.4,3.4
	c0,0.4,0.2,0.7,0.6,0.8c0.6,0.2,0.7,0.8-0.1,1.2c-0.3,0.1-0.5,0.5-0.5,0.8c0.1,1.3,0.2,2.6,0.4,3.8c0,0.2,0.2,0.4,0.4,0.5
	c0.6,0.2,0.3,0.6,0.1,0.9c-0.1,0.1-0.2,0.3-0.2,0.5c0.4,2.3,0.9,3.8,0.9,3.8C123.9,353.5,124.8,352.8,125.6,351.9z"/>
<path class="st2" d="M123.4,352.1c0.5-1,0.8-2.1,1.2-3.2c0.6-1.8,1-3.6,1.3-5.4c0.2-1.3,0.4-2.7,0.5-4.1c0-1,0.1-2,0-2.9
	c-0.1-1.7-0.2-3.4-0.5-5c-0.1-0.3-0.1-0.6-0.2-0.9c-0.1-0.3,0.1-0.6,0.5-0.7c0.3-0.1,0.6,0.1,0.7,0.5c0,0,0.1,0.3,0.2,1
	c0.3,1.7,0.5,3.4,0.5,5c0,1,0,2.1-0.1,3.2c-0.1,1.4-0.3,2.8-0.6,4.2c-0.4,1.9-0.8,3.7-1.5,5.5c-0.4,1.1-0.9,2.2-1.4,3.2
	c-0.1,0.1-0.2,0.2-0.4,0.1C123.4,352.4,123.4,352.3,123.4,352.1L123.4,352.1z"/>
<path class="st1" d="M84.2,323.2c0.1,0.3,0.4,0.5,0.7,0.5c0.2,0,0.4,0.1,0.1,0.9c-0.1,0.2-0.1,0.4,0,0.6c0.5,1.2,1.2,2.3,2,3.3
	c0.3,0.4,0.8,0.5,1.2,0.4c0.4-0.1,0.6,0,0.5,0.7c-0.1,0.4,0,0.8,0.3,1.1c1.1,1,2.2,1.8,3.3,2.5c0.3,0.2,0.6,0.1,0.8-0.1
	c0.3-0.3,0.8-0.6,1.2,0.1c0.1,0.1,0.1,0.3,0.1,0.4c0,0.3,0.2,0.6,0.5,0.7c1.6,0.5,3,0.6,4.1,0.3c0.8-0.2,1.5-0.8,1.6-1.6
	c0.3-1.7-0.2-3.2-1.1-4.6c-0.2-0.2-0.4-0.4-0.7-0.4c-0.5,0-0.5-0.4-0.5-0.7c0-0.2-0.1-0.5-0.3-0.7c-0.8-0.7-1.7-1.4-2.7-2.1
	c-0.3-0.2-0.7-0.2-1,0.1c-0.5,0.4-1.1,0.2-1-0.7c0-0.3-0.1-0.7-0.4-0.8c-1.2-0.6-2.4-1.1-3.5-1.6c-0.2-0.1-0.5,0-0.7,0.1
	c-0.5,0.4-0.7-0.1-0.8-0.4c-0.1-0.2-0.2-0.3-0.4-0.4c-2.2-0.8-3.8-1.2-3.8-1.2C83.7,320.9,83.9,322.1,84.2,323.2z"/>
<path class="st2" d="M85.1,321.2c0.7,0.9,1.4,1.8,2.2,2.6c1.2,1.4,2.6,2.6,4,3.8c1,0.9,2.1,1.7,3.3,2.4c0.8,0.5,1.6,1.1,2.5,1.5
	c1.5,0.8,3,1.6,4.6,2.1c0.3,0.1,0.6,0.2,0.9,0.3c0.3,0.1,0.5,0.4,0.4,0.7c-0.1,0.3-0.4,0.5-0.7,0.4c0,0-0.3-0.1-0.9-0.3
	c-1.6-0.6-3.1-1.3-4.6-2.1c-0.9-0.5-1.8-1.1-2.7-1.7c-1.2-0.8-2.3-1.7-3.3-2.6c-1.4-1.3-2.8-2.6-4-4.1c-0.7-0.9-1.4-1.8-2-2.8
	c-0.1-0.1,0-0.3,0.1-0.4C84.9,321.1,85,321.1,85.1,321.2L85.1,321.2z"/>
<path class="st8" d="M100,340.9c-6.4,0-6.4,10,0,10C106.4,350.9,106.4,340.9,100,340.9z"/>
<path class="st8" d="M87.7,346.2c-6.4,0-6.4,10,0,10C94.1,356.2,94.1,346.2,87.7,346.2z"/>
<path class="st8" d="M97,352.5c-6.4,0-6.4,10,0,10C103.4,362.5,103.4,352.5,97,352.5z"/>
<path class="st8" d="M51,341.5c-6.4,0-6.4,10,0,10C57.4,351.5,57.4,341.5,51,341.5z"/>
<path class="st8" d="M54,354.5c-6.4,0-6.4,10,0,10C60.4,364.5,60.4,354.5,54,354.5z"/>
<path class="st8" d="M64.3,346.2c-6.4,0-6.4,10,0,10C70.8,356.2,70.8,346.2,64.3,346.2z"/>
<path class="st9" d="M65.3,350c-3.2,0-3.2,5,0,5C68.6,355,68.6,350,65.3,350z"/>
<path class="st9" d="M89,349.4c-3.2,0-3.2,5,0,5C92.2,354.4,92.2,349.4,89,349.4z"/>
<path class="st9" d="M101,341.4c-3.2,0-3.2,5,0,5C104.2,346.4,104.2,341.4,101,341.4z"/>
<path class="st9" d="M98.7,354.4c-3.2,0-3.2,5,0,5C101.9,359.4,101.9,354.4,98.7,354.4z"/>
<path class="st9" d="M55.3,357.7c-3.2,0-3.2,5,0,5C58.6,362.7,58.6,357.7,55.3,357.7z"/>
<path class="st9" d="M51,346c-3.2,0-3.2,5,0,5C54.2,351,54.2,346,51,346z"/>
<path class="st8" d="M66.7,339c-3.2,0-3.2,5,0,5C69.9,344,69.9,339,66.7,339z"/>
<path class="st8" d="M68.7,333.4c-3.2,0-3.2,5,0,5C71.9,338.4,71.9,333.4,68.7,333.4z"/>
<path class="st8" d="M71,328.4c-3.2,0-3.2,5,0,5C74.2,333.4,74.2,328.4,71,328.4z"/>
<path class="st8" d="M56.3,338.7c-3.2,0-3.2,5,0,5C59.6,343.7,59.6,338.7,56.3,338.7z"/>
<path class="st8" d="M60,334.4c-3.2,0-3.2,5,0,5C63.2,339.4,63.2,334.4,60,334.4z"/>
<path class="st8" d="M63,329.7c-3.2,0-3.2,5,0,5C66.2,334.7,66.2,329.7,63,329.7z"/>
<path class="st8" d="M87.7,340c-3.2,0-3.2,5,0,5C90.9,345,90.9,340,87.7,340z"/>
<path class="st8" d="M83.3,335.4c-3.2,0-3.2,5,0,5C86.6,340.4,86.6,335.4,83.3,335.4z"/>
<path class="st8" d="M79.3,330.7c-3.2,0-3.2,5,0,5C82.6,335.7,82.6,330.7,79.3,330.7z"/>
<path class="st8" d="M94,337c-3.2,0-3.2,5,0,5C97.2,342,97.2,337,94,337z"/>
<path class="st8" d="M89,333.4c-3.2,0-3.2,5,0,5C92.2,338.4,92.2,333.4,89,333.4z"/>
<path class="st8" d="M84.7,328.4c-3.2,0-3.2,5,0,5C87.9,333.4,87.9,328.4,84.7,328.4z"/>
</svg>
