<?xml version="1.0" encoding="utf-8"?>
<!-- Generator: Adobe Illustrator 19.0.0, SVG Export Plug-In . SVG Version: 6.00 Build 0)  -->
<svg version="1.1" id="Capa_1" xmlns="http://www.w3.org/2000/svg" xmlns:xlink="http://www.w3.org/1999/xlink" x="0px" y="0px"
	 viewBox="-115 116.2 380.8 380.8" style="enable-background:new -115 116.2 380.8 380.8;" xml:space="preserve">
<style type="text/css">
	.st0{fill:#F29C1F;}
	.st1{fill:#FCBA29;}
	.st2{fill:#E99A23;}
	.st3{fill:#CE7419;}
	.st4{fill:#F3D55B;}
	.st5{fill:#F0C419;}
</style>
<rect x="129.2" y="188.5" class="st0" width="13.6" height="46.9"/>
<rect x="17.8" y="188.5" class="st0" width="13.6" height="46.9"/>
<path class="st0" d="M110.4,318.5c-0.2-1-0.4-2-0.6-3c2.8-0.9,7.4-4.7,12.1-8.8c1.8-1.5,3.7-3.2,5.7-4.8c10.9-9,13.4-24.4,6.6-41.3
	c-8.4-20.9-6.5-27.9-6.3-28.7c0.1-0.4,0.4-0.7,0.7-1l3.2-2.6c0.9-0.7,2.2-0.6,2.9,0.3c19.5,23.8,21.6,65.8,4,80.2
	c-11.4,9.3-19.7,11.5-28.1,11.1C110.6,319.5,110.5,319,110.4,318.5z"/>
<path class="st1" d="M149.8,326.8c-0.4,0.3-0.8,0.6-1,0.8c-6.2,4.2-13.6,6.3-21.1,5.9c-4.3-0.1-8.5-1.4-12.1-3.7
	c-1.1-0.7-2.2-1.3-3.4-1.7c-0.1-0.7-0.3-1.4-0.4-2c-0.5-2.5-0.9-5-1.4-7.5c-0.2-0.9-0.4-1.8-0.6-2.8c8,0.5,15.4-1.2,26.3-10.1
	c15.8-13,13.3-52.6-4.6-74.4c-0.7-0.9-0.6-2.2,0.3-2.9l3.2-2.6c0.6-0.5,1.4-0.6,2.1-0.3c1.9,0.8,3.5,1.3,5,1.9
	c7.3,2.1,13.7,6.6,18.1,12.7c10.8,14.3,15.6,32.3,13.5,50.1C172.5,303.2,164.4,315.6,149.8,326.8z"/>
<path class="st0" d="M50.2,318.5c0.2-1,0.4-2,0.6-3c-2.8-0.9-7.4-4.7-12.1-8.8c-1.8-1.5-3.7-3.2-5.7-4.8c-10.9-9-13.4-24.4-6.6-41.3
	c8.4-20.9,6.5-27.9,6.3-28.7c-0.1-0.4-0.4-0.7-0.7-1l-3.2-2.6c-0.9-0.7-2.2-0.6-2.9,0.3c-19.5,23.8-21.6,65.8-4,80.2
	c11.4,9.3,19.7,11.5,28.1,11.1C50,319.5,50.1,319,50.2,318.5z"/>
<path class="st1" d="M10.8,326.8c0.4,0.3,0.8,0.6,1,0.8c6.2,4.2,13.6,6.3,21.1,5.9c4.3-0.1,8.5-1.4,12.1-3.7
	c1.1-0.7,2.2-1.3,3.4-1.7c0.1-0.7,0.3-1.4,0.4-2c0.5-2.5,0.9-5,1.4-7.5c0.2-0.9,0.4-1.8,0.6-2.8c-8,0.5-15.4-1.2-26.3-10.1
	c-15.8-13-13.3-52.6,4.6-74.4c0.7-0.9,0.6-2.2-0.3-2.9l-3.2-2.6c-0.6-0.5-1.4-0.6-2.1-0.3c-1.9,0.8-3.5,1.3-5,1.9
	c-7.3,2.1-13.7,6.6-18.1,12.7c-10.8,14.3-15.6,32.3-13.5,50.1C-11.9,303.2-3.8,315.6,10.8,326.8z"/>
<g>
	<path class="st1" d="M81.4,307.6V202.8c-5.2,5.2-10.1,10.6-14.7,16.3c-7,9.4-13.1,19.5-18,30.2c-3.2,8.2-5.6,16.6-7,25.3
		c-0.3,3.3-0.5,6.6-0.6,9.9l9.8,23.1"/>
	<path class="st2" d="M81.4,202.8C81.3,202.8,81.3,202.9,81.4,202.8l-0.1,104.8h0.1V202.8z"/>
	<g>
		<path class="st3" d="M81.1,307.3v-71.7l-0.1-0.3l-7.5,17.5c-0.7,3.1-1.8,6-3.1,8.6c-0.3,0.6-0.6,1.2-0.9,1.7
			c-2.9,14.3-5.4,29-6.6,44.1c0-0.1,0,0,0,0.1"/>
	</g>
</g>
<g>
	<path class="st1" d="M81.3,202.6c5.2,5.2,10.2,10.7,14.9,16.5c7,9.4,13.1,19.5,18,30.2c3.2,8.2,5.6,16.6,7,25.3
		c0.3,3.3,0.5,6.6,0.6,9.9l-9.8,23.1H81.3V202.6z"/>
	<g>
		<path class="st3" d="M99.6,307.6c0-0.2,0-0.3,0-0.2c-1.2-15.1-3.8-29.7-6.6-44.1c-0.3-0.6-0.6-1.2-0.9-1.7
			c-1.3-2.5-2.3-5.4-3.1-8.6l-7.5-17.5l-0.4,0.9v71.1H99.6z"/>
	</g>
</g>
<g id="_x30_37---Kite-Base">
	<path id="Shape" class="st0" d="M54.8,227.9l26.8-49.7l26.8,49.7l-25.9,23.5c-0.5,0.4-1.2,0.4-1.7,0L54.8,227.9z"/>
	<path id="Shape_4_" class="st4" d="M54.8,227.9l26.8-49.7v49.7H54.8z"/>
	<path id="Shape_5_" class="st5" d="M81.6,227.9v-49.7l26.8,49.7H81.6z"/>
</g>
<g>
	<path class="st1" d="M220.4,306.9V202.1c-5.2,5.2-10.1,10.6-14.7,16.3c-7,9.4-13.1,19.5-18,30.2c-3.2,8.2-5.6,16.6-7,25.3
		c-0.3,3.3-0.5,6.6-0.6,9.9l9.8,23.1"/>
	<path class="st2" d="M220.4,202.1C220.3,202.1,220.3,202.2,220.4,202.1l-0.1,104.8h0.1V202.1z"/>
	<g>
		<path class="st3" d="M220.1,306.6v-71.7l-0.1-0.3l-7.5,17.5c-0.7,3.1-1.8,6-3.1,8.6c-0.3,0.6-0.6,1.2-0.9,1.7
			c-2.9,14.3-5.4,29-6.6,44.1c0-0.1,0,0,0,0.1"/>
	</g>
</g>
<g>
	<path class="st1" d="M220.3,201.9c5.2,5.2,10.2,10.7,14.9,16.5c7,9.4,13.1,19.5,18,30.2c3.2,8.2,5.6,16.6,7,25.3
		c0.3,3.3,0.5,6.6,0.6,9.9l-9.8,23.1h-30.6V201.9z"/>
	<g>
		<path class="st3" d="M238.6,306.9c0-0.2,0-0.3,0-0.2c-1.2-15.1-3.8-29.7-6.6-44.1c-0.3-0.6-0.6-1.2-0.9-1.7
			c-1.3-2.5-2.3-5.4-3.1-8.6l-7.5-17.5l-0.4,0.9v71.1H238.6z"/>
	</g>
</g>
<g id="_x30_37---Kite-Base_1_">
	<path id="Shape_3_" class="st0" d="M193.8,227.2l26.8-49.7l26.8,49.7l-25.9,23.5c-0.5,0.4-1.2,0.4-1.7,0L193.8,227.2z"/>
	<path id="Shape_2_" class="st4" d="M193.8,227.2l26.8-49.7v49.7H193.8z"/>
	<path id="Shape_1_" class="st5" d="M220.6,227.2v-49.7l26.8,49.7H220.6z"/>
</g>
<g>
	<path class="st1" d="M-62.6,307.9V203.1c-5.2,5.2-10.1,10.6-14.7,16.3c-7,9.4-13.1,19.5-18,30.2c-3.2,8.2-5.6,16.6-7,25.3
		c-0.3,3.3-0.5,6.6-0.6,9.9l9.8,23.1"/>
	<path class="st2" d="M-62.6,203.1C-62.7,203.1-62.7,203.2-62.6,203.1l-0.1,104.8h0.1V203.1z"/>
	<g>
		<path class="st3" d="M-62.9,307.6v-71.7l-0.1-0.3l-7.5,17.5c-0.7,3.1-1.8,6-3.1,8.6c-0.3,0.6-0.6,1.2-0.9,1.7
			c-2.9,14.3-5.4,29-6.6,44.1c0-0.1,0,0,0,0.1"/>
	</g>
</g>
<g>
	<path class="st1" d="M-62.7,202.9c5.2,5.2,10.2,10.7,14.9,16.5c7,9.4,13.1,19.5,18,30.2c3.2,8.2,5.6,16.6,7,25.3
		c0.3,3.3,0.5,6.6,0.6,9.9l-9.8,23.1h-30.6V202.9z"/>
	<g>
		<path class="st3" d="M-44.4,307.9c0-0.2,0-0.3,0-0.2c-1.2-15.1-3.8-29.7-6.6-44.1c-0.3-0.6-0.6-1.2-0.9-1.7
			c-1.3-2.5-2.3-5.4-3.1-8.6l-7.5-17.5l-0.4,0.9v71.1H-44.4z"/>
	</g>
</g>
<g id="_x30_37---Kite-Base_2_">
	<path id="Shape_8_" class="st0" d="M-89.2,228.2l26.8-49.7l26.8,49.7l-25.9,23.5c-0.5,0.4-1.2,0.4-1.7,0L-89.2,228.2z"/>
	<path id="Shape_7_" class="st4" d="M-89.2,228.2l26.8-49.7v49.7H-89.2z"/>
	<path id="Shape_6_" class="st5" d="M-62.4,228.2v-49.7l26.8,49.7H-62.4z"/>
</g>
<path class="st3" d="M-94.2,305.6H245c12,0,20.8,9.6,20.8,20.8c0,12-9.6,20.8-20.8,20.8H-94.2c-12,0-20.8-9.6-20.8-20.8
	S-106.2,305.6-94.2,305.6z"/>
<ellipse class="st1" cx="75.6" cy="325.8" rx="11.5" ry="4.5"/>
</svg>
