<?xml version="1.0" encoding="utf-8"?>
<!-- Generator: Adobe Illustrator 19.0.0, SVG Export Plug-In . SVG Version: 6.00 Build 0)  -->
<svg version="1.1" id="Capa_1" xmlns="http://www.w3.org/2000/svg" xmlns:xlink="http://www.w3.org/1999/xlink" x="0px" y="0px"
	 viewBox="-115 116.2 380.8 380.8" style="enable-background:new -115 116.2 380.8 380.8;" xml:space="preserve">
<style type="text/css">
	.st0{fill:#CE7419;}
	.st1{fill:#E99A23;}
	.st2{fill:#FCBA29;}
</style>
<path class="st0" d="M-94.2,305.6H245c12,0,20.8,9.6,20.8,20.8c0,12-9.6,20.8-20.8,20.8H-94.2c-12,0-20.8-9.6-20.8-20.8
	S-106.2,305.6-94.2,305.6z"/>
<polygon class="st1" points="215.1,256.6 231.3,232.6 247.6,256.6 247.6,304.6 231.3,328.6 215.1,304.6 "/>
<path class="st2" d="M231.7,232.6l-0.7,1.1c0.2,0.6,0.3,1.1,0.3,1.7V328l0.4,0.6l16.3-24v-48L231.7,232.6z"/>
<polygon class="st1" points="163,256.6 179.3,232.6 195.6,256.6 195.6,304.6 179.3,328.6 163,304.6 "/>
<path class="st2" d="M179.7,232.6l-0.7,1.1c0.2,0.6,0.3,1.1,0.3,1.7V328l0.4,0.6l16.3-24v-48L179.7,232.6z"/>
<polygon class="st1" points="111,256.6 127.3,232.6 143.5,256.6 143.5,304.6 127.3,328.6 111,304.6 "/>
<path class="st2" d="M127.7,232.6l-0.7,1.1c0.2,0.6,0.3,1.1,0.3,1.7V328l0.4,0.6l16.3-24v-48L127.7,232.6z"/>
<polygon class="st1" points="57.4,256.6 73.6,232.6 89.9,256.6 89.9,304.6 73.6,328.6 57.4,304.6 "/>
<path class="st2" d="M74.1,232.6l-0.7,1.1c0.2,0.6,0.3,1.1,0.3,1.7V328l0.4,0.6l16.3-24v-48L74.1,232.6z"/>
<polygon class="st1" points="5.3,256.6 21.5,232.6 37.8,256.6 37.8,304.6 21.5,328.6 5.3,304.6 "/>
<path class="st2" d="M22,232.6l-0.7,1.1c0.2,0.6,0.3,1.1,0.3,1.7V328l0.4,0.6l16.3-24v-48L22,232.6z"/>
<polygon class="st1" points="-47,256.6 -30.8,232.6 -14.5,256.6 -14.5,304.6 -30.8,328.6 -47,304.6 "/>
<path class="st2" d="M-30.3,232.6l-0.7,1.1c0.2,0.6,0.3,1.1,0.3,1.7V328l0.4,0.6l16.3-24v-48L-30.3,232.6z"/>
<polygon class="st1" points="-101,256.6 -84.7,232.6 -68.5,256.6 -68.5,304.6 -84.7,328.6 -101,304.6 "/>
<path class="st2" d="M-84.3,232.6l-0.7,1.1c0.2,0.6,0.3,1.1,0.3,1.7V328l0.4,0.6l16.3-24v-48L-84.3,232.6z"/>
</svg>
