<svg height="512pt" viewBox="0 -79 512 512" width="512pt" xmlns="http://www.w3.org/2000/svg"><path d="m512 17.65625v317.792969c-.027344 9.738281-7.917969 17.625-17.65625 17.652343h-476.6875c-9.738281-.027343-17.6289062-7.914062-17.65625-17.652343v-317.792969c.0273438-9.738281 7.917969-17.6289062 17.65625-17.65625h52.964844c8.828125-.00390625 16.300781 6.523438 17.476562 15.273438.105469.789062.164063 1.585937.179688 2.382812v35.308594h335.445312v-35.308594c.015625-.796875.074219-1.59375.179688-2.382812 1.175781-8.75 8.648437-15.27734425 17.476562-15.273438h52.964844c9.738281.0273438 17.628906 7.917969 17.65625 17.65625zm0 0" fill="#f29c1f"/><path d="m88.097656 15.273438c-1.175781-8.75-8.648437-15.27734425-17.476562-15.273438h3.53125c7.855468.804688 13.855468 7.375 13.945312 15.273438zm0 0" fill="#f29c1f"/><path d="m441.378906 0c-8.828125-.00390625-16.300781 6.523438-17.476562 15.273438.089844-7.898438 6.089844-14.46875 13.945312-15.273438zm0 0" fill="#f29c1f"/><path d="m88.277344 220.691406v132.410156h-70.621094c-9.738281-.027343-17.6289062-7.914062-17.65625-17.652343v-114.757813zm0 0" fill="#d25627"/><path d="m88.277344 220.691406v132.410156h-56.496094c-8.707031-1.101562-14.960938-8.917968-14.125-17.652343v-114.757813zm0 0" fill="#e57e25"/><path d="m158.898438 220.691406h203.03125v132.410156h-203.03125zm0 0" fill="#e57e25"/><path d="m512 220.691406v114.757813c-.027344 9.738281-7.917969 17.625-17.65625 17.652343h-61.792969v-132.410156zm0 0" fill="#d25627"/><path d="m494.34375 220.691406v114.757813c.917969 8.621093-5.152344 16.417969-13.730469 17.652343h-48.0625v-132.410156zm0 0" fill="#e57e25"/><path d="m432.550781 97.101562h79.449219v123.589844h-79.449219zm0 0" fill="#e57e25"/><path d="m0 97.101562h88.277344v123.589844h-88.277344zm0 0" fill="#e57e25"/><path d="m432.550781 97.101562h61.792969v123.589844h-61.792969zm0 0" fill="#f29c1f"/><path d="m17.65625 97.101562h70.621094v123.589844h-70.621094zm0 0" fill="#f29c1f"/><path d="m88.277344 52.964844h70.621094v300.136718h-70.621094zm0 0" fill="#fac176"/><path d="m361.929688 52.964844h70.621093v300.136718h-70.621093zm0 0" fill="#fac176"/><path d="m158.898438 52.964844h203.03125v44.136718h-203.03125zm0 0" fill="#d25627"/><path d="m432.550781 52.964844h79.449219v44.136718h-79.449219zm0 0" fill="#d25627"/><path d="m0 52.964844h88.277344v44.136718h-88.277344zm0 0" fill="#d25627"/><g fill="#35495e"><path d="m132.414062 158.898438c0 4.875-3.953124 8.824218-8.828124 8.824218s-8.828126-3.949218-8.828126-8.824218c0-4.878907 3.953126-8.828126 8.828126-8.828126s8.828124 3.949219 8.828124 8.828126zm0 0"/><path d="m132.414062 291.308594c0 4.878906-3.953124 8.828125-8.828124 8.828125s-8.828126-3.949219-8.828126-8.828125c0-4.875 3.953126-8.824219 8.828126-8.824219s8.828124 3.949219 8.828124 8.824219zm0 0"/><path d="m406.070312 158.898438c0 4.875-3.953124 8.824218-8.828124 8.824218s-8.828126-3.949218-8.828126-8.824218c0-4.878907 3.953126-8.828126 8.828126-8.828126s8.828124 3.949219 8.828124 8.828126zm0 0"/><path d="m406.070312 291.308594c0 4.878906-3.953124 8.828125-8.828124 8.828125s-8.828126-3.949219-8.828126-8.828125c0-4.875 3.953126-8.824219 8.828126-8.824219s8.828124 3.949219 8.828124 8.824219zm0 0"/></g><path d="m88.277344 17.65625v35.308594h-88.277344v-35.308594c.0273438-9.738281 7.917969-17.6289062 17.65625-17.65625h52.964844c9.738281.0273438 17.625 7.917969 17.65625 17.65625zm0 0" fill="#e57e25"/><path d="m88.277344 17.65625v35.308594h-70.621094v-35.308594c-.835938-8.734375 5.417969-16.554688 14.125-17.65625h42.371094c8.703125 1.101562 14.960937 8.921875 14.125 17.65625zm0 0" fill="#f29c1f"/><path d="m512 17.65625v35.308594h-88.277344v-35.308594c.03125-9.738281 7.917969-17.6289062 17.65625-17.65625h52.964844c9.738281.0273438 17.628906 7.917969 17.65625 17.65625zm0 0" fill="#e57e25"/><path d="m494.34375 17.65625v35.308594h-70.621094v-35.308594c-.835937-8.734375 5.421875-16.554688 14.125-17.65625h42.371094c8.707031 1.101562 14.960938 8.921875 14.125 17.65625zm0 0" fill="#f29c1f"/><path d="m203.035156 141.242188h-8.828125c-4.875 0-8.828125-3.953126-8.828125-8.828126s3.953125-8.828124 8.828125-8.828124h8.828125c4.875 0 8.828125 3.953124 8.828125 8.828124s-3.953125 8.828126-8.828125 8.828126zm0 0" fill="#fac176"/><path d="m326.621094 141.242188h-88.277344c-4.875 0-8.828125-3.953126-8.828125-8.828126s3.953125-8.828124 8.828125-8.828124h88.277344c4.875 0 8.828125 3.953124 8.828125 8.828124s-3.953125 8.828126-8.828125 8.828126zm0 0" fill="#fac176"/></svg>