<svg height="512pt" viewBox="0 0 512 512" width="512pt" xmlns="http://www.w3.org/2000/svg"><path d="m88.277344 123.585938v317.792968h-70.621094v-326.621094zm0 0" fill="#f29c1f"/><path d="m494.34375 114.757812v326.621094h-70.621094v-317.792968zm0 0" fill="#f29c1f"/><path d="m17.65625 52.964844h397.242188v70.621094h-397.242188zm0 0" fill="#d25627"/><path d="m185.378906 70.621094h141.242188v52.964844h-141.242188zm0 0" fill="#e4c05c"/><path d="m388.414062 52.964844h105.929688v70.621094h-105.929688zm0 0" fill="#d25627"/><path d="m17.65625 70.621094h115.738281v52.964844h-115.738281zm0 0" fill="#e4c05c"/><path d="m378.605469 70.621094h115.738281v52.964844h-115.738281zm0 0" fill="#e4c05c"/><path d="m494.34375 441.378906v52.964844c-.027344 9.738281-7.914062 17.628906-17.652344 17.65625h-441.382812c-9.738282-.027344-17.625-7.917969-17.652344-17.65625v-52.964844zm0 0" fill="#e4c05c"/><path d="m423.722656 361.929688v25.867187l-25.863281-25.867187zm0 0" fill="#d25627"/><path d="m423.722656 203.035156v79.449219h-105.3125l-79.449218-79.449219zm0 0" fill="#d25627"/><path d="m193.589844 282.484375h-105.3125v-79.449219h25.863281zm0 0" fill="#d25627"/><g fill="#e57e25"><path d="m423.722656 282.484375v79.445313h-25.863281l-79.449219-79.445313zm0 0"/><path d="m114.140625 203.035156h-25.863281v-25.867187zm0 0"/><path d="m423.722656 123.585938v79.449218h-184.761718l-63.558594-63.558594c6.089844-2.957031 9.960937-9.121093 9.976562-15.890624h141.242188c.027344 9.738281 7.914062 17.625 17.65625 17.65625h26.480468c9.738282-.03125 17.628907-7.917969 17.65625-17.65625zm0 0"/><path d="m273.039062 361.929688h-184.761718v-79.445313h105.3125zm0 0"/></g><path d="m352.484375 441.378906h-264.207031v-79.449218h184.761718zm0 0" fill="#d25627"/><path d="m61.792969 88.277344c0 4.875-3.953125 8.824218-8.828125 8.824218s-8.828125-3.949218-8.828125-8.824218 3.953125-8.828125 8.828125-8.828125 8.828125 3.953125 8.828125 8.828125zm0 0" fill="#35495e"/><path d="m467.863281 88.277344c0 4.875-3.953125 8.824218-8.828125 8.824218s-8.828125-3.949218-8.828125-8.824218 3.953125-8.828125 8.828125-8.828125 8.828125 3.953125 8.828125 8.828125zm0 0" fill="#35495e"/><path d="m61.792969 476.691406c0 4.875-3.953125 8.824219-8.828125 8.824219s-8.828125-3.949219-8.828125-8.824219c0-4.878906 3.953125-8.828125 8.828125-8.828125s8.828125 3.949219 8.828125 8.828125zm0 0" fill="#35495e"/><path d="m467.863281 476.691406c0 4.875-3.953125 8.824219-8.828125 8.824219s-8.828125-3.949219-8.828125-8.824219c0-4.878906 3.953125-8.828125 8.828125-8.828125s8.828125 3.949219 8.828125 8.828125zm0 0" fill="#35495e"/><path d="m512 17.65625v17.652344c-.027344 9.742187-7.917969 17.628906-17.65625 17.65625h-105.929688c-.027343-9.738282-7.917968-17.625-17.65625-17.65625h-26.480468c-9.742188.03125-17.628906 7.917968-17.65625 17.65625h-141.242188c-.027344-9.738282-7.914062-17.625-17.65625-17.65625h-26.480468c-9.738282.03125-17.628907 7.917968-17.65625 17.65625h-105.929688c-9.738281-.027344-17.6289062-7.914063-17.65625-17.65625v-17.652344c.0273438-9.738281 7.917969-17.6289062 17.65625-17.65625h476.6875c9.738281.0273438 17.628906 7.917969 17.65625 17.65625zm0 0" fill="#e57e25"/><path d="m321.75 52.964844h-287.65625c-9.398438-.371094-16.738281-8.253906-16.4375-17.65625v-17.652344c-.300781-9.402344 7.039062-17.285156 16.4375-17.65625h443.8125c9.398438.371094 16.738281 8.253906 16.4375 17.65625v17.652344c.300781 9.402344-7.039062 17.285156-16.4375 17.65625h-156.160156zm0 0" fill="#f29c1f"/><path d="m423.722656 387.796875v53.582031h-71.238281l-264.207031-264.210937v-53.582031h35.308594c.027343 9.738281 7.917968 17.625 17.65625 17.65625h26.480468c2.664063.011718 5.292969-.59375 7.679688-1.765626zm0 0" fill="#cb8252"/><path d="m423.722656 387.796875v53.582031h-71.238281l-264.207031-264.210937v-53.582031h35.308594c.027343 9.738281 7.917968 17.625 17.65625 17.65625h26.480468c2.664063.011718 5.292969-.59375 7.679688-1.765626zm0 0" fill="#f29c1f"/><path d="m185.378906 97.101562v26.484376c-.015625 6.769531-3.886718 12.933593-9.976562 15.890624-2.386719 1.171876-5.015625 1.777344-7.679688 1.765626h-26.480468c-9.738282-.03125-17.628907-7.917969-17.65625-17.65625v-26.484376zm0 0" fill="#f3d55b"/><path d="m388.414062 97.101562v26.484376c-.027343 9.738281-7.917968 17.625-17.65625 17.65625h-26.480468c-9.742188-.03125-17.628906-7.917969-17.65625-17.65625v-26.484376zm0 0" fill="#f3d55b"/><path d="m185.378906 52.964844v44.136718h-61.792968v-44.136718c.027343-9.738282 7.917968-17.625 17.65625-17.65625h26.480468c9.742188.03125 17.628906 7.917968 17.65625 17.65625zm0 0" fill="#f9eab0"/><path d="m388.414062 52.964844v44.136718h-61.792968v-44.136718c.027344-9.738282 7.914062-17.625 17.65625-17.65625h26.480468c9.738282.03125 17.628907 7.917968 17.65625 17.65625zm0 0" fill="#f9eab0"/></svg>