<?xml version="1.0" encoding="utf-8"?>
<!-- Generator: Adobe Illustrator 19.0.0, SVG Export Plug-In . SVG Version: 6.00 Build 0)  -->
<svg version="1.1" id="Layer_1" xmlns="http://www.w3.org/2000/svg" xmlns:xlink="http://www.w3.org/1999/xlink" x="0px" y="0px"
	 viewBox="-49 51 512 512" style="enable-background:new -49 51 512 512;" xml:space="preserve">
<style type="text/css">
	.st0{fill:#E4EAF8;}
	.st1{fill:#CCD2DB;}
	.st2{fill:#338DEF;}
	.st3{fill:#8AC2FF;}
	.st4{fill:#1C78D3;}
	.st5{fill:#54A0FF;}
	.st6{fill:#ECBA16;}
</style>
<path class="st0" d="M157.8,110.6c-85,0-154.1,68.9-154.1,154.1v22.9c0,24.7-9.8,48.4-27.3,65.9l-21.2,21.2c-9,9-2.6,24.4,10.1,24.4
	h30.5c4.4,0,7.9,3.5,7.9,7.9v26.2c0,39.1,32,71.1,71.1,71.1c15.3,0,27.7,12.4,27.7,27.7v22.7c0,4.6,3.8,8.4,8.4,8.4h131.3
	c4.7,0,8.5-3.8,8.5-8.5v-58.3c0-22.8,7.6-45.3,22.7-62.5c24-27.2,38.5-62.8,38.5-101.9v-67.2C311.9,179.6,242.9,110.6,157.8,110.6z"
	/>
<path class="st1" d="M-24.3,374.7l21.2-21.2c17.5-17.5,27.3-41.2,27.3-65.9v-22.9c0-81.8,63.6-148.5,143.9-153.7
	c-3.4-0.2-6.8-0.3-10.2-0.3c-85,0-154.1,68.9-154.1,154.1v22.9c0,24.7-9.8,48.4-27.3,65.9l-21.2,21.2c-9,9-2.6,24.4,10.1,24.4h20.5
	C-26.9,399-33.3,383.7-24.3,374.7z"/>
<path class="st1" d="M123,554.6v-22.7c0-15.3-12.4-27.7-27.7-27.7c-39.1,0-71.1-32-71.1-71.1v-26.2c0-4.4-3.5-7.9-7.9-7.9H-4.2
	c4.4,0,7.9,3.5,7.9,7.9v26.2c0,39.1,32,71.1,71.1,71.1c15.3,0,27.7,12.4,27.7,27.7v22.7c0,4.6,3.8,8.4,8.4,8.4h20.5
	C126.7,563,123,559.2,123,554.6z"/>
<path class="st2" d="M453.9,172.8c-1.2-25-21.7-45.2-46.7-46.1c-4.9-0.2-9.6,0.4-14.1,1.6c-1,0.3-2-0.5-2-1.6c0,0,0,0,0,0
	c0-36-29.2-65.2-65.2-65.2c-16.9,0-33.3,7.5-44.9,18c2.4,5.6,3.8,11.7,3.8,18.2v0c0,0.8,0.7,1.3,1.4,1.1c3.2-0.8,6.5-1.2,9.9-1.1
	c17.6,0.6,30.9,13.8,31.8,31.3c0.9,19.5-12.6,33.6-31.9,33.6c-2.3,0-121.5,0-138.5,0c-0.5,2.4-0.8,7-0.9,9.5
	c-1.3,28.1,21.1,51.4,49,51.4h200C433.1,223.6,455.2,200.7,453.9,172.8z"/>
<path class="st2" d="M453.9,172.8c-1.2-25-21.7-45.2-46.7-46.1c-4.9-0.2-9.6,0.4-14.1,1.6c-1,0.3-2-0.5-2-1.6c0,0,0,0,0,0
	c0-36-29.2-65.2-65.2-65.2c-16.9,0-33.3,7.5-44.9,18c2.4,5.6,3.8,11.7,3.8,18.2v0c0,0.8,0.7,1.3,1.4,1.1c3.2-0.8,6.5-1.2,9.9-1.1
	c17.6,0.6,30.9,13.8,31.8,31.3c0.9,19.5-12.6,33.6-31.9,33.6c-2.3,0-121.5,0-138.5,0c-0.5,2.4-0.8,7-0.9,9.5
	c-1.3,28.1,21.1,51.4,49,51.4h200C433.1,223.6,455.2,200.7,453.9,172.8z"/>
<g>
	<path class="st3" d="M421,266.3c-4.3,0-7.7-3.5-7.7-7.7v-10.4c0-4.3,3.5-7.7,7.7-7.7c4.3,0,7.7,3.5,7.7,7.7v10.4
		C428.7,262.8,425.3,266.3,421,266.3z"/>
	<path class="st3" d="M421,311.3c-4.3,0-7.7-3.5-7.7-7.7v-10.4c0-4.3,3.5-7.7,7.7-7.7c4.3,0,7.7,3.5,7.7,7.7v10.4
		C428.7,307.8,425.3,311.3,421,311.3z"/>
	<path class="st3" d="M421,356.2c-4.3,0-7.7-3.5-7.7-7.7v-10.4c0-4.3,3.5-7.7,7.7-7.7c4.3,0,7.7,3.5,7.7,7.7v10.4
		C428.7,352.8,425.3,356.2,421,356.2z"/>
	<path class="st3" d="M382.8,266.3c-4.3,0-7.7-3.5-7.7-7.7v-10.4c0-4.3,3.5-7.7,7.7-7.7c4.3,0,7.7,3.5,7.7,7.7v10.4
		C390.5,262.8,387,266.3,382.8,266.3z"/>
	<path class="st3" d="M382.8,311.3c-4.3,0-7.7-3.5-7.7-7.7v-10.4c0-4.3,3.5-7.7,7.7-7.7c4.3,0,7.7,3.5,7.7,7.7v10.4
		C390.5,307.8,387,311.3,382.8,311.3z"/>
	<path class="st3" d="M382.8,356.2c-4.3,0-7.7-3.5-7.7-7.7v-10.4c0-4.3,3.5-7.7,7.7-7.7c4.3,0,7.7,3.5,7.7,7.7v10.4
		C390.5,352.8,387,356.2,382.8,356.2z"/>
	<path class="st3" d="M344.5,266.3c-4.3,0-7.7-3.5-7.7-7.7v-10.4c0-4.3,3.5-7.7,7.7-7.7c4.3,0,7.7,3.5,7.7,7.7v10.4
		C352.2,262.8,348.8,266.3,344.5,266.3z"/>
	<path class="st3" d="M344.5,311.3c-4.3,0-7.7-3.5-7.7-7.7v-10.4c0-4.3,3.5-7.7,7.7-7.7c4.3,0,7.7,3.5,7.7,7.7v10.4
		C352.2,307.8,348.8,311.3,344.5,311.3z"/>
	<path class="st3" d="M344.5,356.2c-4.3,0-7.7-3.5-7.7-7.7v-10.4c0-4.3,3.5-7.7,7.7-7.7c4.3,0,7.7,3.5,7.7,7.7v10.4
		C352.2,352.8,348.8,356.2,344.5,356.2z"/>
	<path class="st3" d="M274.7,271.5c-4.3,0-7.7-3.5-7.7-7.7v-10.4c0-4.3,3.5-7.7,7.7-7.7c4.3,0,7.7,3.5,7.7,7.7v10.4
		C282.4,268,278.9,271.5,274.7,271.5z"/>
	<path class="st3" d="M274.7,316.5c-4.3,0-7.7-3.5-7.7-7.7v-10.4c0-4.3,3.5-7.7,7.7-7.7c4.3,0,7.7,3.5,7.7,7.7v10.4
		C282.4,313,278.9,316.5,274.7,316.5z"/>
	<path class="st3" d="M236.4,271.5c-4.3,0-7.7-3.5-7.7-7.7v-10.4c0-4.3,3.5-7.7,7.7-7.7c4.3,0,7.7,3.5,7.7,7.7v10.4
		C244.1,268,240.7,271.5,236.4,271.5z"/>
	<path class="st3" d="M236.4,316.5c-4.3,0-7.7-3.5-7.7-7.7v-10.4c0-4.3,3.5-7.7,7.7-7.7c4.3,0,7.7,3.5,7.7,7.7v10.4
		C244.1,313,240.7,316.5,236.4,316.5z"/>
	<path class="st3" d="M198.2,271.5c-4.3,0-7.7-3.5-7.7-7.7v-10.4c0-4.3,3.5-7.7,7.7-7.7c4.3,0,7.7,3.5,7.7,7.7v10.4
		C205.9,268,202.4,271.5,198.2,271.5z"/>
	<path class="st3" d="M198.2,316.5c-4.3,0-7.7-3.5-7.7-7.7v-10.4c0-4.3,3.5-7.7,7.7-7.7c4.3,0,7.7,3.5,7.7,7.7v10.4
		C205.9,313,202.4,316.5,198.2,316.5z"/>
</g>
<path class="st4" d="M350.5,128.2c-1.2-26.3-21.5-48-47.2-51.5c-1-3.2-2.3-6.2-3.7-9.2c-6.9,3.1-13.3,7.3-18.6,12.1
	c2.4,5.6,3.8,11.7,3.8,18.2v0c0,0.8,0.7,1.3,1.4,1.1c3.2-0.8,6.5-1.2,9.9-1.1c17.6,0.6,30.9,13.8,31.8,31.3
	c0.9,19.5-12.6,33.6-31.9,33.6c-2.3,0-121.5,0-138.5,0c-0.5,2.4-0.8,7-0.9,9.5c-0.2,4.5,0.2,8.9,1.1,13.2H296
	C326.4,185.4,352,160.1,350.5,128.2z"/>
<path class="st5" d="M330,129.1c-0.8-17.6-15.2-31.8-32.8-32.4c-3.4-0.1-6.8,0.3-9.9,1.1c-0.7,0.2-1.4-0.4-1.4-1.1c0,0,0,0,0,0
	c0-25.3-20.5-45.8-45.8-45.8c-20.7,0-38.1,13.7-43.8,32.5c-0.5,1.6-2.1,2.6-3.8,2.3c-9.9-2.1-20.3,1.3-27,9.5
	c-0.8,1-2.2,1.5-3.5,1.2c-20.9-4-39.9,11.7-40.8,32.1c-0.9,19.8,14.8,36.1,34.4,36.1H296C315.3,164.8,330.9,148.7,330,129.1z"/>
<path class="st2" d="M141.8,128.7c1-20.4,20-36.1,40.8-32.1c1.3,0.2,2.7-0.2,3.5-1.2c6.7-8.2,17.1-11.6,27-9.5
	c1.7,0.4,3.3-0.6,3.8-2.3c4.7-15.6,17.5-27.7,33.5-31.4c-3.3-0.8-6.8-1.2-10.3-1.2c-20.7,0-38.1,13.7-43.8,32.5
	c-0.5,1.6-2.1,2.6-3.8,2.3c-9.9-2.1-20.3,1.3-27,9.5c-0.8,1-2.2,1.5-3.5,1.2c-20.9-4-39.9,11.7-40.8,32.1
	c-0.9,19.8,14.8,36.1,34.4,36.1h20.6C156.6,164.8,140.9,148.5,141.8,128.7z"/>
<path class="st3" d="M274.7,206.6c-4.3,0-7.7-3.5-7.7-7.7v-10.4c0-4.3,3.5-7.7,7.7-7.7c4.3,0,7.7,3.5,7.7,7.7v10.4
	C282.4,203.2,278.9,206.6,274.7,206.6z"/>
<path class="st3" d="M236.4,206.6c-4.3,0-7.7-3.5-7.7-7.7v-10.4c0-4.3,3.5-7.7,7.7-7.7c4.3,0,7.7,3.5,7.7,7.7v10.4
	C244.1,203.2,240.7,206.6,236.4,206.6z"/>
<path class="st3" d="M198.2,206.6c-4.3,0-7.7-3.5-7.7-7.7v-10.4c0-4.3,3.5-7.7,7.7-7.7c4.3,0,7.7,3.5,7.7,7.7v10.4
	C205.9,203.2,202.4,206.6,198.2,206.6z"/>
<path class="st6" d="M351.9,222.2h-25.4l23.6-37.1h-29.7l-27.8,55.7h21.9l-21.9,51.9L351.9,222.2z"/>
<path class="st6" d="M288,260.7h-25.4l23.6-37.1h-29.7l-27.8,55.7h21.9l-21.9,51.9L288,260.7z"/>
<path class="st3" d="M364.3,288.4c-4.3,0-7.7-3.5-7.7-7.7v-10.4c0-4.3,3.5-7.7,7.7-7.7c4.3,0,7.7,3.5,7.7,7.7v10.4
	C372,285,368.6,288.4,364.3,288.4z"/>
<path class="st3" d="M364.3,337.1c-4.3,0-7.7-3.5-7.7-7.7V319c0-4.3,3.5-7.7,7.7-7.7c4.3,0,7.7,3.5,7.7,7.7v10.4
	C372,333.7,368.6,337.1,364.3,337.1z"/>
<path class="st3" d="M401.6,289.4c-4.3,0-7.7-3.5-7.7-7.7v-10.4c0-4.3,3.5-7.7,7.7-7.7c4.3,0,7.7,3.5,7.7,7.7v10.4
	C409.3,285.9,405.8,289.4,401.6,289.4z"/>
<path class="st3" d="M401.6,337.1c-4.3,0-7.7-3.5-7.7-7.7V319c0-4.3,3.5-7.7,7.7-7.7c4.3,0,7.7,3.5,7.7,7.7v10.4
	C409.3,333.7,405.8,337.1,401.6,337.1z"/>
<path class="st3" d="M218.5,292.2c-4.3,0-7.7-3.5-7.7-7.7V274c0-4.3,3.5-7.7,7.7-7.7c4.3,0,7.7,3.5,7.7,7.7v10.4
	C226.2,288.7,222.8,292.2,218.5,292.2z"/>
<path class="st3" d="M214.5,236.6c-4.3,0-7.7-3.5-7.7-7.7v-10.4c0-4.3,3.5-7.7,7.7-7.7c4.3,0,7.7,3.5,7.7,7.7v10.4
	C222.2,233.1,218.8,236.6,214.5,236.6z"/>
<path class="st3" d="M364.3,376.5c-4.3,0-7.7-3.5-7.7-7.7v-10.4c0-4.3,3.5-7.7,7.7-7.7c4.3,0,7.7,3.5,7.7,7.7v10.4
	C372,373.1,368.6,376.5,364.3,376.5z"/>
<path class="st3" d="M401.6,376.5c-4.3,0-7.7-3.5-7.7-7.7v-10.4c0-4.3,3.5-7.7,7.7-7.7c4.3,0,7.7,3.5,7.7,7.7v10.4
	C409.3,373.1,405.8,376.5,401.6,376.5z"/>
<path class="st3" d="M218.5,343.3c-4.3,0-7.7-3.5-7.7-7.7v-10.4c0-4.3,3.5-7.7,7.7-7.7c4.3,0,7.7,3.5,7.7,7.7v10.4
	C226.2,339.8,222.8,343.3,218.5,343.3z"/>
<path class="st3" d="M258.4,343.3c-4.3,0-7.7-3.5-7.7-7.7v-10.4c0-4.3,3.5-7.7,7.7-7.7c4.3,0,7.7,3.5,7.7,7.7v10.4
	C266.1,339.8,262.6,343.3,258.4,343.3z"/>
<path class="st3" d="M240.4,368.5c-4.3,0-7.7-3.5-7.7-7.7v-10.4c0-4.3,3.5-7.7,7.7-7.7c4.3,0,7.7,3.5,7.7,7.7v10.4
	C248.1,365.1,244.7,368.5,240.4,368.5z"/>
<path class="st3" d="M198.2,368.5c-4.3,0-7.7-3.5-7.7-7.7v-10.4c0-4.3,3.5-7.7,7.7-7.7c4.3,0,7.7,3.5,7.7,7.7v10.4
	C205.9,365.1,202.4,368.5,198.2,368.5z"/>
<path class="st3" d="M274.7,368.5c-4.3,0-7.7-3.5-7.7-7.7v-10.4c0-4.3,3.5-7.7,7.7-7.7c4.3,0,7.7,3.5,7.7,7.7v10.4
	C282.4,365.1,278.9,368.5,274.7,368.5z"/>
</svg>
