<svg height="511pt" viewBox="-131 0 511 511.99996" width="511pt" xmlns="http://www.w3.org/2000/svg"><path d="m190.789062 180.140625h-46.683593v15.222656h46.683593c23.78125 0 43.128907 19.347657 43.128907 43.128907 0 23.785156-19.347657 43.132812-43.128907 43.132812h-46.683593v15.222656h46.683593c32.175782 0 58.351563-26.175781 58.351563-58.355468 0-32.175782-26.175781-58.351563-58.351563-58.351563zm0 0" fill="#ffcb63"/><path d="m107.0625 289.238281v199.511719l-25.242188 8.414062c-3.988281 1.332032-6.140624 5.640626-4.8125 9.628907 1.328126 3.988281 5.640626 6.144531 9.625 4.8125l30.445313-10.148438c3.109375-1.035156 5.203125-3.941406 5.203125-7.21875v-205zm0 0" fill="#ffb4a9"/><path d="m183.175781 289.238281v199.511719l25.238281 8.414062c3.988282 1.332032 6.144532 5.640626 4.816407 9.628907s-5.640625 6.144531-9.628907 4.8125l-30.445312-10.148438c-3.105469-1.035156-5.203125-3.941406-5.203125-7.21875v-205zm0 0" fill="#ff8d7e"/><path d="m99.449219 180.140625c-46.167969 0-83.726563-37.5625-83.726563-83.726563 0-4.207031-3.40625-7.613281-7.609375-7.613281-4.207031 0-7.613281 3.40625-7.613281 7.613281 0 54.558594 44.386719 98.949219 98.949219 98.949219h45.671875v-15.222656zm0 0" fill="#ffb4a9"/><path d="m221.234375 129.394531c0-4.730469-1.4375-9.125-3.902344-12.769531l-34.347656-50.824219h-30.445313l7.800782 121.949219h30.449218c16.8125 0 30.445313-13.628906 30.445313-30.445312 0-5.46875-1.453125-10.601563-3.976563-15.035157 2.507813-3.667969 3.976563-8.097656 3.976563-12.875zm0 0" fill="#85453d"/><path d="m190.789062 129.394531c0-4.730469-1.441406-9.125-3.902343-12.769531l-34.347657-50.824219-53.089843 25.539063v45.667968c0 16.746094 13.699219 30.445313 30.445312 30.445313l30.445313 20.296875c16.816406 0 30.449218-13.628906 30.449218-30.445312 0-5.46875-1.453124-10.601563-3.976562-15.035157 2.507812-3.667969 3.976562-8.097656 3.976562-12.875zm0 0" fill="#a45e43"/><path d="m170.488281 167.453125h-30.445312l-10.148438 121.785156h60.894531v-101.488281c0-11.210938-9.089843-20.296875-20.300781-20.296875zm0 0" fill="#ffe2a8"/><path d="m161.144531 10.148438c-2.851562-5.996094-8.945312-10.148438-16.027343-10.148438-7.078126 0-13.171876 4.152344-16.027344 10.148438-9.808594 0-17.757813 7.953124-17.757813 17.761718s7.949219 17.757813 17.757813 17.757813h32.054687c9.808594 0 17.761719-7.949219 17.761719-17.757813s-7.953125-17.761718-17.761719-17.761718zm0 0" fill="#a45e43"/><path d="m160.339844 289.238281h-60.890625v-91.339843l60.890625-30.445313zm0 0" fill="#fff0d3"/><path d="m119.746094 167.453125c-11.210938 0-20.296875 9.085937-20.296875 20.296875v15.222656h25.371093c19.617188 0 35.519532-15.902344 35.519532-35.519531zm0 0" fill="#ffb4a9"/><path d="m190.789062 258.789062c9.464844 10.734376 15.222657 24.820313 15.222657 40.257813v164.746094c-42.039063 0-76.117188-34.078125-76.117188-76.113281 0-42.039063 0-128.890626 0-128.890626zm0 0" fill="#ffe2a8"/><path d="m99.449219 258.789062c-9.46875 10.734376-15.222657 24.820313-15.222657 40.257813v164.746094c42.035157 0 76.113282-34.078125 76.113282-76.113281 0-42.039063 0-128.890626 0-128.890626zm0 0" fill="#fff0d3"/><path d="m145.117188 45.667969v91.339843c25.222656 0 45.671874-20.449218 45.671874-45.667968 0-25.222656-20.449218-45.671875-45.671874-45.671875zm0 0" fill="#ff8d7e"/><path d="m160.339844 91.339844c0-25.222656-6.8125-45.671875-15.222656-45.671875-25.222657 0-45.667969 20.449219-45.667969 45.671875 0 25.21875 20.445312 45.667968 45.667969 45.667968 8.410156 0 15.222656-20.449218 15.222656-45.667968zm0 0" fill="#ffb4a9"/><g fill="#ffcb63"><path d="m190.789062 266.402344h-91.339843c-4.203125 0-7.609375-3.40625-7.609375-7.613282 0-4.203124 3.40625-7.609374 7.609375-7.609374h91.339843c4.203126 0 7.609376 3.40625 7.609376 7.609374 0 4.207032-3.40625 7.613282-7.609376 7.613282zm0 0"/><path d="m190.714844 83.726562h-91.195313c-4.203125 0-7.609375-3.40625-7.609375-7.613281 0-4.203125 3.40625-7.609375 7.609375-7.609375h91.195313c4.207031 0 7.613281 3.40625 7.613281 7.609375 0 4.207031-3.40625 7.613281-7.613281 7.613281zm0 0"/></g></svg>