<?xml version="1.0" encoding="utf-8"?>
<!-- Generator: Adobe Illustrator 19.0.0, SVG Export Plug-In . SVG Version: 6.00 Build 0)  -->
<svg version="1.1" id="Layer_1" xmlns="http://www.w3.org/2000/svg" xmlns:xlink="http://www.w3.org/1999/xlink" x="0px" y="0px"
	 viewBox="90 -90 792 792" style="enable-background:new 90 -90 792 792;" xml:space="preserve">
<style type="text/css">
	.st0{opacity:0.6;}
	.st1{fill:#39B54A;}
	.st2{fill:none;stroke:#000000;stroke-miterlimit:10;}
	.st3{opacity:0.42;fill:#F7941E;enable-background:new    ;}
	.st4{fill:#F0BCA6;}
	.st5{fill:#4890E3;}
	.st6{fill:#F2C5B2;}
	.st7{fill:#E6B09A;}
	.st8{fill:#E2A58A;}
	.st9{fill:#C06721;}
	.st10{fill:#9F5C2E;}
	.st11{fill:#D47A3D;}
	.st12{fill:#3C7DDA;}
	.st13{fill:#2970D6;}
	.st14{fill:#868686;}
	.st15{fill:#00A983;}
	.st16{fill:#FFC473;}
	.st17{fill:#FF9A00;}
	.st18{fill:#57555C;}
	.st19{fill:#2A2A2C;}
	.st20{fill:#54FBFF;}
</style>
<g id="XMLID_1_" class="st0">
	<circle id="XMLID_50_" class="st1" cx="486" cy="306.5" r="396"/>
	<circle id="XMLID_49_" class="st2" cx="486" cy="306.5" r="396"/>
</g>
<path class="st3" d="M638.5,231.9c28.5-17.6,62.9-18.4,92.2-2.1c28.4,15.8,45.4,44.5,45.4,76.7s-17,60.9-45.4,76.7
	c-29.2,16.3-63.7,15.5-92.2-2.1c-42.8-26.5-80.2-62.4-108.3-103.9c-36.3-53.6-84.6-100.1-139.8-134.3l0,0
	c-30.9-19.1-66.1-29.3-101.8-29.5c-33.6-0.2-66.9,8.5-96.4,24.9C130.1,172.9,93,235.8,93,306.5s37.1,133.6,99.2,168.2
	c29.3,16.3,62.3,24.9,95.5,24.9c0.3,0,0.6,0,0.9,0c35.7-0.2,70.9-10.4,101.8-29.5h0.1c35.4-22,68-49,96.4-79.7
	c-15.8-17.1-30.4-35.4-43.4-54.6c-6.9-10.1-14.3-19.9-22.2-29.3c-24.5,29.1-53.8,54.6-86.1,74.6l0,0l0,0
	c-28.5,17.6-62.9,18.4-92.2,2.1c-28.4-15.8-45.4-44.5-45.4-76.7s17-60.9,45.4-76.7c29.2-16.3,63.7-15.5,92.2,2.1l0,0
	c42.8,26.5,80.2,62.4,108.2,103.9c36.2,53.6,84.6,100,139.8,134.2c0,0,0.1,0,0.1,0.1c30.9,19.1,66.1,29.3,101.8,29.5
	c0.3,0,0.6,0,0.9,0c33.2,0,66.2-8.6,95.5-24.9c62.1-34.6,99.2-97.5,99.2-168.2s-37.1-133.6-99.2-168.2
	c-29.6-16.5-62.8-25.1-96.5-24.9c-35.7,0.2-70.9,10.4-101.8,29.5c0,0,0,0,0.1,0c0,0,0,0-0.1,0c-35.5,22-68.1,49-96.5,79.7
	c15.8,17.1,30.4,35.4,43.4,54.6c6.8,10.1,14.3,19.9,22.2,29.3C576.9,277.4,606.2,251.9,638.5,231.9z"/>
<path class="st4" d="M663.1,158.6L561.1,50c-2.7-2.9-6.1-5.1-9.8-6.4c-2-0.7-4.1-0.3-5.7,1c-1.6,1.3-2.5,3.3-2.2,5.4l7.3,60.8
	c0.2,1.3,0.7,2.5,1.6,3.4l74.5,78.6c4.5,4.8,10.7,7.6,17.4,7.8c0.3,0,0.5,0,0.8,0c6.4,0,12.4-2.4,17-6.7c4.8-4.5,7.6-10.7,7.8-17.4
	C670,169.8,667.6,163.5,663.1,158.6z"/>
<path class="st4" d="M428.9,45.4c-1.6-1.3-3.8-1.7-5.7-1c-3.7,1.3-7.1,3.5-9.8,6.4l-102,108.6c-4.5,4.8-6.9,11.2-6.7,17.8
	c0.2,6.7,3,12.8,7.8,17.4c4.6,4.4,10.7,6.7,17,6.7c0.3,0,0.5,0,0.8,0c6.7-0.2,12.8-3,17.4-7.8l74.5-78.6c0.9-0.9,1.4-2.1,1.6-3.4
	l7.3-60.8C431.3,48.7,430.5,46.7,428.9,45.4z"/>
<path class="st5" d="M559.1,203.8L511.7,160c-2.2-2-5.6-2.1-7.9-0.2l-35.6,29.5c-1.4,1.2-2.2,2.9-2.2,4.7c0,1.8,0.9,3.5,2.4,4.6
	l43.3,33c4,3,6.1,7.8,5.6,12.8l-4.4,47.5c-0.2,1.7,0.4,3.3,1.5,4.6c1.1,1.2,2.7,2,4.4,2H548c2.8,0,5.3-2,5.9-4.8l13.4-64.1
	C569.3,220.2,566.1,210.3,559.1,203.8z"/>
<path class="st5" d="M514.8,189.3l-35.6-29.5c-2.3-1.9-5.7-1.8-7.9,0.2l-47.4,43.8c-7,6.5-10.2,16.4-8.2,25.7l13.4,64.1
	c0.6,2.8,3,4.8,5.9,4.8h29.2c1.7,0,3.3-0.7,4.4-2c1.1-1.2,1.7-2.9,1.5-4.6l-4.4-47.5c-0.5-5,1.6-9.7,5.6-12.8l43.3-33
	c1.5-1.1,2.3-2.8,2.4-4.6C517,192.2,516.2,190.4,514.8,189.3z"/>
<path class="st6" d="M486.7,8.9c-45.8,0-83.1,37.3-83.1,83.2v67.8c0,45.9,37.3,83.2,83.1,83.2c45.9,0,83.2-37.3,83.2-83.2V92.1
	C569.9,46.2,532.6,8.9,486.7,8.9z"/>
<path class="st7" d="M486.7,8.9c-3.1,0-6.2,0.2-9.2,0.5c41.5,4.6,74,39.9,74,82.6v67.8c0,42.7-32.4,78-74,82.6
	c3,0.3,6.1,0.5,9.2,0.5c45.9,0,83.2-37.3,83.2-83.2V91.9C569.9,46.2,532.6,8.9,486.7,8.9z"/>
<path class="st4" d="M491.2,170.4H481c-3.3,0-6-2.7-6-6c0-3.3,2.7-6,6-6h10.2c3.3,0,6,2.7,6,6C497.2,167.7,494.5,170.4,491.2,170.4z
	"/>
<path class="st7" d="M414.2-11.2L414.2-11.2c-15.7,0-28.3,12.8-28.3,28.4s12.7,28.2,28.3,28.2h0.1c15.6,0,28.2-12.8,28.2-28.4
	C442.5,1.5,429.8-11.2,414.2-11.2z"/>
<path class="st7" d="M559.3-11.6C559.2-11.6,559.2-11.6,559.3-11.6c-7.6,0-14.7,3-20.1,8.3c-5.3,5.4-8.2,12.5-8.2,20
	c0,7.6,3,14.6,8.3,20c5.3,5.3,12.4,8.2,19.9,8.2h0.1c7.6,0,14.7-3,20-8.3c5.3-5.4,8.2-12.5,8.2-20C587.5,1,574.8-11.6,559.3-11.6z"
	/>
<path class="st8" d="M559.3-11.6C559.2-11.6,559.2-11.6,559.3-11.6c-2.5,0-4.9,0.3-7.2,0.9c12.1,3.2,21,14.2,21.1,27.3
	c0,7.6-2.9,14.7-8.2,20c-3.6,3.6-8,6.1-12.8,7.4c2.3,0.6,4.7,0.9,7.2,0.9h0.1c7.6,0,14.6-3,20-8.3c5.3-5.4,8.2-12.5,8.2-20
	C587.5,1,574.8-11.6,559.3-11.6z"/>
<path class="st9" d="M445.7,309.6l-42-72.7c-1.1-1.9-3.1-3-5.2-3s-4.1,1.1-5.2,3l-21.1,36.5l-37.1-64.2c-1.1-1.9-3.1-3-5.2-3
	s-4.1,1.1-5.2,3l-57.9,100.3c-1.1,1.9-1.1,4.1,0,6s3.1,3,5.2,3h168.4c2.1,0,4.1-1.1,5.2-3C446.7,313.7,446.7,311.4,445.7,309.6z"/>
<path class="st10" d="M353.8,273.4l9.2-15.9l-27.9-48.3c-1.1-1.9-3.1-3-5.2-3s-4.1,1.1-5.2,3l-4,6.9L353.8,273.4z"/>
<path class="st10" d="M445.7,309.6l-42-72.7c-1.1-1.9-3.1-3-5.2-3s-4.1,1.1-5.2,3l-4,6.9l38,65.7c1.1,1.9,1.1,4.1,0,6s-3.1,3-5.2,3
	h18.4c2.1,0,4.1-1.1,5.2-3C446.7,313.7,446.7,311.4,445.7,309.6z"/>
<path class="st11" d="M568,267.1h-35c-13.8,0-25,11.2-25,25v18.8c0,3.4,2.8,6.2,6.2,6.2H568c13.8,0,25-11.2,25-25
	C593,278.3,581.8,267.1,568,267.1z"/>
<path class="st11" d="M450,267.1h-35.1c-13.8,0-25,11.2-25,25s11.2,25,25,25h53.9c3.4,0,6.2-2.8,6.2-6.2v-18.8
	C475,278.3,463.8,267.1,450,267.1z"/>
<path class="st9" d="M568,267.1h-18.4c13.8,0,25,11.2,25,25s-11.2,25-25,25H568c13.8,0,25-11.2,25-25
	C593,278.3,581.8,267.1,568,267.1z"/>
<path class="st9" d="M450,267.1h-18.4c13.8,0,25,11.2,25,25v18.8c0,3.4-2.8,6.2-6.2,6.2h18.4c3.4,0,6.2-2.8,6.2-6.2v-18.8
	C475,278.3,463.8,267.1,450,267.1z"/>
<path class="st12" d="M409.5,190.6c0,0.1,0.1,0.2,0.1,0.3c6.1,15.2,16.6,28.2,30.1,37.5c13.9,9.6,30.2,14.6,47,14.6
	s33.1-5.1,47-14.6c13.6-9.3,24-22.3,30.1-37.5c0-0.1,0.1-0.2,0.1-0.3H409.5z"/>
<path class="st13" d="M545.6,190.6c0,0.1-0.1,0.2-0.1,0.3c-6.2,15.2-16.6,28.2-30.1,37.5c-11.3,7.8-24.3,12.6-37.8,14.1
	c3,0.3,6.1,0.5,9.2,0.5c16.8,0,33.1-5.1,47-14.6c13.6-9.3,24-22.3,30.1-37.5c0-0.1,0.1-0.2,0.1-0.3H545.6z"/>
<path class="st4" d="M561.9-26c0-0.2,0-0.4,0-0.6v-12.7c0-13.7-8.2-26.5-23-35.9c-14-8.9-32.3-13.8-51.7-13.8
	c-19.4,0-37.8,4.9-51.7,13.8c-14.8,9.4-23,22.2-23,35.9v13.4l0.2,60.1c0.1,41.1,33.6,74.5,74.7,74.5h0.2
	c41.2-0.1,74.6-33.7,74.5-74.9L561.9-26z"/>
<path class="st7" d="M561.9-26c0-0.2,0-0.4,0-0.6v-12.7c0-13.7-8.2-26.5-23-35.9c-14-8.9-32.3-13.8-51.7-13.8
	c-3.1,0-6.2,0.1-9.2,0.4c16,1.3,30.8,5.9,42.5,13.4c14.8,9.4,23,22.2,23,35.9v12.8c0,0.2,0,0.4,0,0.6l0.2,59.8
	c0.1,38.2-28.5,69.8-65.5,74.3c3,0.4,6.1,0.6,9.2,0.6h0.2c41.2-0.1,74.6-33.7,74.5-74.9L561.9-26z"/>
<path class="st11" d="M561.9-26c0-0.2,0-0.4,0-0.6v-12.7c0-13.7-8.2-26.5-23-35.9c-14-8.9-32.3-13.8-51.7-13.8
	c-19.4,0-37.8,4.9-51.7,13.8c-14.8,9.4-23,22.2-23,35.9v13.4v10.6c0,3.3,2.7,6,6,6h137.4c1.6,0,3.1-0.6,4.2-1.8
	c1.1-1.1,1.8-2.7,1.8-4.3V-26z"/>
<path class="st11" d="M561.9-26c0-0.2,0-0.4,0-0.6v-12.7c0-13.7-8.2-26.5-23-35.9c-14-8.9-32.3-13.8-51.7-13.8
	c-19.4,0-37.8,4.9-51.7,13.8c-14.8,9.4-23,22.2-23,35.9v13.4v10.6c0,3.3,2.7,6,6,6h137.4c1.6,0,3.1-0.6,4.2-1.8
	c1.1-1.1,1.8-2.7,1.8-4.3V-26z"/>
<path class="st9" d="M561.9-26c0-0.2,0-0.4,0-0.6v-12.7c0-13.7-8.2-26.5-23-35.9c-14-8.9-32.3-13.8-51.7-13.8
	c-3.1,0-6.2,0.1-9.2,0.4c16,1.3,30.8,5.9,42.5,13.4c14.8,9.4,23,22.2,23,35.9v12.8c0,0.2,0,0.4,0,0.6v10.7c0,1.6-0.6,3.1-1.7,4.3
	s-2.7,1.8-4.2,1.8H556c1.6,0,3.1-0.6,4.2-1.8c1.1-1.1,1.8-2.7,1.8-4.3L561.9-26z"/>
<path class="st8" d="M486.8,61.2c-5.3,0-10.3-2-14.2-5.5c-2.4-2.2-2.6-6-0.4-8.5c2.2-2.4,6-2.6,8.5-0.4c1.7,1.5,3.8,2.4,6.1,2.4l0,0
	c2.3,0,4.4-0.9,6.1-2.4c2.4-2.2,6.2-2.1,8.5,0.3c2.2,2.4,2.1,6.2-0.3,8.5C497.2,59.2,492.2,61.2,486.8,61.2
	C486.9,61.2,486.9,61.2,486.8,61.2z"/>
<path class="st14" d="M471.6,32.5c0-3.3-2.7-6-6.1-6c-3.3,0-6,2.7-6,6.1c0,3.3,2.7,6,6.1,6C469,38.5,471.7,35.8,471.6,32.5z"/>
<path class="st10" d="M472.7,25.2c-0.5,0-1-0.1-1.5-0.2L457,21.2c-3.2-0.8-5.1-4.1-4.3-7.3c0.8-3.2,4.1-5.1,7.3-4.3l14.3,3.8
	c3.2,0.8,5.1,4.1,4.3,7.3C477.8,23.4,475.4,25.2,472.7,25.2z"/>
<path class="st14" d="M514.3,32.4c0-3.3-2.7-6-6.1-6c-3.3,0-6,2.7-6,6.1c0,3.3,2.7,6,6.1,6C511.6,38.4,514.3,35.7,514.3,32.4z"/>
<path class="st10" d="M501.1,25.1c-2.6,0-5.1-1.8-5.8-4.4c-0.9-3.2,1-6.5,4.2-7.4l14.2-3.9c3.2-0.9,6.5,1,7.4,4.2s-1,6.5-4.2,7.4
	l-14.2,3.9C502.1,25,501.6,25.1,501.1,25.1z"/>
<path class="st15" d="M646.7,280.1l-11.9-8.3v-6.7l5.3,3.7c1,0.7,2.2,1.1,3.4,1.1c1.9,0,3.8-0.9,4.9-2.6c1.9-2.7,1.2-6.5-1.5-8.3
	l-12.1-8.4v-2.7c0-3.3-2.7-6-6-6s-6,2.7-6,6v2.7L611,259c-2.7,1.9-3.3,5.7-1.4,8.4c1.9,2.7,5.7,3.3,8.4,1.4l4.8-3.4v6.3l-12,8.6
	c-2.7,1.9-3.3,5.7-1.4,8.4s5.7,3.3,8.4,1.4l5-3.6v25.4c0,3.3,2.7,6,6,6s6-2.7,6-6v-25.3l5.1,3.5c1,0.7,2.2,1.1,3.4,1.1
	c1.9,0,3.8-0.9,4.9-2.6C650.1,285.7,649.4,282,646.7,280.1z"/>
<circle class="st16" cx="494.3" cy="509.3" r="185.3"/>
<path class="st17" d="M679.6,509.3c0-6.4-0.3-12.6-0.9-18.8l-64-64.2c-52,48.9-121.7,58.4-171,57.8c-54.1-0.7-96.3-13.4-97-13.6
	c0,0,0,0,0,0l-5.6,18.1l200,200C620.8,667.9,679.6,595.5,679.6,509.3z"/>
<path class="st18" d="M594.5,465.6c11.9-7.4,23-15.9,33.2-25.5l-13-13.8c-52,48.9-121.7,58.4-171,57.8c-54.1-0.7-96.3-13.4-97-13.6
	c0,0,0,0,0,0l-5.6,18.1c1.8,0.6,44.9,13.6,101.8,14.4c1.8,0,3.6,0,5.4,0c11.3,0,22.3-0.5,33-1.5l15.9,48c10.3,31.1,43.9,48,75,37.8
	l0,0c31.1-10.3,48-43.9,37.8-75L594.5,465.6z"/>
<path class="st19" d="M610,512.4c2,6.2,3,12.5,3,18.6c0,24.9-15.8,48.1-40.8,56.4c-31.1,10.3-64.7-6.6-75-37.8l-15.9-48v-19.1
	c43.5-4.4,93.6-18.7,133.4-56.2l13,13.8c-10.1,9.5-21.2,18-33.2,25.5L610,512.4z"/>
<polygon class="st20" points="544.2,566.7 557.7,539.8 584.5,553.4 591.9,538.7 565,525.2 578.6,498.3 563.9,491 550.4,517.8 
	523.5,504.3 516.2,519 543,532.5 529.5,559.4 "/>
</svg>
