<?xml version="1.0" encoding="iso-8859-1"?>
<!-- Generator: Adobe Illustrator 19.0.0, SVG Export Plug-In . SVG Version: 6.00 Build 0)  -->
<svg version="1.1" id="Capa_1" xmlns="http://www.w3.org/2000/svg" xmlns:xlink="http://www.w3.org/1999/xlink" x="0px" y="0px"
	 viewBox="0 0 512 512" style="enable-background:new 0 0 512 512;" xml:space="preserve">
<path style="fill:#E8E8EA;" d="M384.964,403.924C460.949,367.031,512,298.543,512,220.141C512,102.662,397.386,7.427,255.998,7.425
	C114.614,7.427,0,102.662,0,220.141c0,78.402,51.051,146.89,127.036,183.783c6.661,3.234,9.976,10.352,7.886,17.058
	c-4.878,15.65-10.094,31.231-13.717,47.151c-5.035,22.123,11.57,36.444,33.591,36.442c15.178-0.001,28.196-7.001,33.734-16.97
	c5.538,9.97,18.557,16.97,33.736,16.97c15.177,0,28.194-6.999,33.734-16.966c5.54,9.968,18.557,16.966,33.734,16.966
	c15.179,0,28.198-7,33.736-16.97c5.538,9.969,18.556,16.969,33.734,16.97c23.633,0.001,40.561-16.913,33.287-40.563
	c-4.417-14.36-8.942-28.687-13.413-43.03C374.988,414.276,378.303,407.158,384.964,403.924z"/>
<path style="fill:#D6D6D8;" d="M377.077,420.981c4.572,14.668,10.576,29.496,13.84,44.499c5.099,23.446-10.141,39.091-33.708,39.09
	c-6.988,0-13.521-1.483-19.07-4.067c11.849-5.624,19.704-15.608,19.704-26.987c0-3.935-0.94-7.708-2.672-11.188l-16.548-53.064
	c-2.393-7.708,1.409-15.901,9.074-19.616c87.363-42.419,146.064-121.163,146.064-211.3c0-16.503-1.967-32.61-5.711-48.189
	c15.358,27.325,23.948,57.821,23.948,89.976c0,78.406-51.052,146.901-127.035,183.785
	C378.31,407.164,374.992,414.271,377.077,420.981z"/>
<path style="fill:#57565B;" d="M285.309,373.428c-1.341-13.509-19.154-27.463-26.339-32.576c-1.781-1.268-4.166-1.268-5.947,0.001
	c-7.182,5.114-24.986,19.067-26.327,32.576c-0.942,9.49,9.512,17.99,23.908,19.446c1.694,0.171,9.102,0.171,10.796,0
	C275.797,391.418,286.251,382.918,285.309,373.428z"/>
<path style="fill:#4C4B51;" d="M261.402,392.878c-1.698,0.165-9.107,0.165-10.794,0c-6.699-0.679-12.533-2.881-16.773-5.999
	c2.223,0.144,8.829,0.134,10.414-0.031c14.396-1.451,24.85-9.95,23.914-19.448c-0.916-9.158-9.395-18.522-16.999-25.19
	c1.554-1.153,2.83-2.048,3.684-2.624c0.689-0.473,1.605-0.473,2.305,0c5.238,3.56,26.682,18.965,28.154,33.844
	C286.253,382.918,275.798,391.417,261.402,392.878z"/>
<circle style="fill:#57565B;" cx="155.41" cy="255.13" r="73.78"/>
<path style="fill:#4C4B51;" d="M229.18,255.124c0,40.745-33.022,73.781-73.766,73.781c-16.136,0-31.083-5.198-43.226-13.993
	c6.651,1.968,13.684,3.025,20.982,3.025c40.745,0,73.781-33.022,73.781-73.766c0-24.594-12.04-46.383-30.54-59.774
	C206.921,193.426,229.18,221.676,229.18,255.124z"/>
<circle style="fill:#57565B;" cx="356.59" cy="255.13" r="73.78"/>
<path style="fill:#4C4B51;" d="M430.359,255.124c0,40.745-33.022,73.781-73.766,73.781c-16.136,0-31.083-5.198-43.226-13.993
	c6.651,1.968,13.684,3.025,20.982,3.025c40.745,0,73.781-33.022,73.781-73.766c0-24.594-12.04-46.383-30.54-59.774
	C408.1,193.426,430.359,221.676,430.359,255.124z"/>
<g>
</g>
<g>
</g>
<g>
</g>
<g>
</g>
<g>
</g>
<g>
</g>
<g>
</g>
<g>
</g>
<g>
</g>
<g>
</g>
<g>
</g>
<g>
</g>
<g>
</g>
<g>
</g>
<g>
</g>
</svg>
