<svg height="512pt" viewBox="-5 0 512 512" width="512pt" xmlns="http://www.w3.org/2000/svg"><path d="m206.800781 59.589844c-85 0-154.09375 68.890625-154.09375 154.09375v22.90625c0 24.707031-9.816406 48.402344-27.285156 65.871094l-21.214844 21.214843c-8.988281 8.988281-2.621093 24.351563 10.085938 24.351563h30.511719c4.363281 0 7.902343 3.535156 7.902343 7.902344v26.175781c0 39.117187 32.003907 71.121093 71.121094 71.121093 15.25 0 27.65625 12.359376 27.65625 27.65625v22.71875c0 4.636719 3.761719 8.398438 8.398437 8.398438h131.253907c4.703125 0 8.519531-3.8125 8.519531-8.519531v-58.269531c0-22.847657 7.613281-45.332032 22.730469-62.464844 23.964843-27.15625 38.511719-62.820313 38.511719-101.890625v-67.167969c0-85.105469-68.992188-154.097656-154.097657-154.097656zm0 0" fill="#e4eaf8"/><path d="m24.683594 323.675781 21.214844-21.214843c17.46875-17.46875 27.285156-41.164063 27.285156-65.871094v-22.90625c0-81.757813 63.613281-148.476563 143.859375-153.746094-3.386719-.222656-6.800781-.347656-10.242188-.347656-85.003906 0-154.09375 68.890625-154.09375 154.09375v22.90625c0 24.707031-9.816406 48.402344-27.285156 65.871094l-21.214844 21.214843c-8.984375 8.984375-2.621093 24.351563 10.085938 24.351563h20.476562c-12.707031 0-19.070312-15.367188-10.085937-24.351563zm0 0" fill="#ccd2db"/><path d="m171.960938 503.605469v-22.722657c0-15.296874-12.40625-27.65625-27.65625-27.65625-39.117188 0-71.121094-32.003906-71.121094-71.121093v-26.175781c0-4.363282-3.539063-7.902344-7.902344-7.902344h-20.476562c4.363281 0 7.902343 3.539062 7.902343 7.902344v26.175781c0 39.117187 32.003907 71.121093 71.121094 71.121093 15.25 0 27.65625 12.359376 27.65625 27.65625v22.722657c0 4.636719 3.761719 8.394531 8.398437 8.394531h20.476563c-4.640625 0-8.398437-3.757812-8.398437-8.394531zm0 0" fill="#ccd2db"/><path d="m502.921875 121.835938c-1.171875-25.027344-21.652344-45.234376-46.691406-46.089844-4.902344-.167969-9.640625.394531-14.128907 1.582031-1.03125.273437-2.019531-.519531-2.019531-1.589844 0-.003906 0-.011719 0-.019531 0-35.984375-29.175781-65.160156-65.164062-65.160156-16.894531 0-33.308594 7.46875-44.882813 18.019531 2.421875 5.578125 3.773438 11.734375 3.773438 18.203125v.015625c0 .75.695312 1.308594 1.417968 1.117187 3.152344-.835937 6.480469-1.230468 9.921876-1.113281 17.578124.601563 30.929687 13.757813 31.753906 31.332031.914062 19.527344-12.589844 33.589844-31.914063 33.589844-2.3125 0-121.511719 0-138.492187 0-.496094 2.421875-.824219 6.972656-.945313 9.511719-1.320312 28.144531 21.105469 51.378906 48.957031 51.378906h200.023438c27.527344 0 49.695312-22.960937 48.390625-50.777343zm0 0" fill="#338def"/><path d="m502.921875 121.835938c-1.171875-25.027344-21.652344-45.234376-46.691406-46.089844-4.902344-.167969-9.640625.394531-14.128907 1.582031-1.03125.273437-2.019531-.519531-2.019531-1.589844 0-.003906 0-.011719 0-.019531 0-35.984375-29.175781-65.160156-65.164062-65.160156-16.894531 0-33.308594 7.46875-44.882813 18.019531 2.421875 5.578125 3.773438 11.734375 3.773438 18.203125v.015625c0 .75.695312 1.308594 1.417968 1.117187 3.152344-.835937 6.480469-1.230468 9.921876-1.113281 17.578124.601563 30.929687 13.757813 31.753906 31.332031.914062 19.527344-12.589844 33.589844-31.914063 33.589844-2.3125 0-121.511719 0-138.492187 0-.496094 2.421875-.824219 6.972656-.945313 9.511719-1.320312 28.144531 21.105469 51.378906 48.957031 51.378906h200.023438c27.527344 0 49.695312-22.960937 48.390625-50.777343zm0 0" fill="#338def"/><g fill="#8ac2ff"><path d="m470.015625 215.261719c-4.269531 0-7.726563-3.460938-7.726563-7.730469v-10.441406c0-4.265625 3.457032-7.726563 7.726563-7.726563 4.265625 0 7.726563 3.457031 7.726563 7.726563v10.441406c0 4.269531-3.460938 7.730469-7.726563 7.730469zm0 0"/><path d="m470.015625 260.25c-4.269531 0-7.726563-3.460938-7.726563-7.726562v-10.445313c0-4.265625 3.457032-7.726563 7.726563-7.726563 4.265625 0 7.726563 3.457032 7.726563 7.726563v10.445313c0 4.265624-3.460938 7.726562-7.726563 7.726562zm0 0"/><path d="m470.015625 305.234375c-4.269531 0-7.726563-3.457031-7.726563-7.726563v-10.441406c0-4.265625 3.457032-7.726562 7.726563-7.726562 4.265625 0 7.726563 3.457031 7.726563 7.726562v10.441406c0 4.269532-3.460938 7.726563-7.726563 7.726563zm0 0"/><path d="m431.753906 215.261719c-4.265625 0-7.726562-3.460938-7.726562-7.730469v-10.441406c0-4.265625 3.460937-7.726563 7.726562-7.726563 4.269532 0 7.726563 3.457031 7.726563 7.726563v10.441406c0 4.269531-3.457031 7.730469-7.726563 7.730469zm0 0"/><path d="m431.753906 260.25c-4.265625 0-7.726562-3.460938-7.726562-7.726562v-10.445313c0-4.265625 3.460937-7.726563 7.726562-7.726563 4.269532 0 7.726563 3.457032 7.726563 7.726563v10.445313c0 4.265624-3.457031 7.726562-7.726563 7.726562zm0 0"/><path d="m431.753906 305.234375c-4.265625 0-7.726562-3.457031-7.726562-7.726563v-10.441406c0-4.265625 3.460937-7.726562 7.726562-7.726562 4.269532 0 7.726563 3.457031 7.726563 7.726562v10.441406c0 4.269532-3.457031 7.726563-7.726563 7.726563zm0 0"/><path d="m393.496094 215.261719c-4.269532 0-7.730469-3.460938-7.730469-7.730469v-10.441406c0-4.265625 3.460937-7.726563 7.730469-7.726563 4.265625 0 7.726562 3.457031 7.726562 7.726563v10.441406c0 4.269531-3.460937 7.730469-7.726562 7.730469zm0 0"/><path d="m393.496094 260.25c-4.269532 0-7.730469-3.460938-7.730469-7.726562v-10.445313c0-4.265625 3.460937-7.726563 7.730469-7.726563 4.265625 0 7.726562 3.457032 7.726562 7.726563v10.445313c0 4.265624-3.460937 7.726562-7.726562 7.726562zm0 0"/><path d="m393.496094 305.234375c-4.269532 0-7.730469-3.457031-7.730469-7.726563v-10.441406c0-4.265625 3.460937-7.726562 7.730469-7.726562 4.265625 0 7.726562 3.457031 7.726562 7.726562v10.441406c0 4.269532-3.460937 7.726563-7.726562 7.726563zm0 0"/><path d="m323.671875 220.484375c-4.265625 0-7.726563-3.460937-7.726563-7.726563v-10.445312c0-4.265625 3.460938-7.726562 7.726563-7.726562 4.269531 0 7.730469 3.457031 7.730469 7.726562v10.445312c0 4.265626-3.460938 7.726563-7.730469 7.726563zm0 0"/><path d="m323.671875 265.46875c-4.265625 0-7.726563-3.457031-7.726563-7.726562v-10.441407c0-4.269531 3.460938-7.726562 7.726563-7.726562 4.269531 0 7.730469 3.457031 7.730469 7.726562v10.441407c0 4.269531-3.460938 7.726562-7.730469 7.726562zm0 0"/><path d="m285.414062 220.484375c-4.265624 0-7.726562-3.460937-7.726562-7.726563v-10.445312c0-4.265625 3.457031-7.726562 7.726562-7.726562 4.265626 0 7.726563 3.457031 7.726563 7.726562v10.445312c0 4.265626-3.460937 7.726563-7.726563 7.726563zm0 0"/><path d="m285.414062 265.46875c-4.265624 0-7.726562-3.457031-7.726562-7.726562v-10.441407c0-4.269531 3.457031-7.726562 7.726562-7.726562 4.265626 0 7.726563 3.457031 7.726563 7.726562v10.441407c0 4.269531-3.460937 7.726562-7.726563 7.726562zm0 0"/><path d="m247.152344 220.484375c-4.265625 0-7.726563-3.460937-7.726563-7.726563v-10.445312c0-4.265625 3.460938-7.726562 7.726563-7.726562 4.269531 0 7.726562 3.457031 7.726562 7.726562v10.445312c0 4.265626-3.457031 7.726563-7.726562 7.726563zm0 0"/><path d="m247.152344 265.46875c-4.265625 0-7.726563-3.457031-7.726563-7.726562v-10.441407c0-4.269531 3.460938-7.726562 7.726563-7.726562 4.269531 0 7.726562 3.457031 7.726562 7.726562v10.441407c0 4.269531-3.457031 7.726562-7.726562 7.726562zm0 0"/></g><path d="m399.542969 77.167969c-1.234375-26.347657-21.527344-48.023438-47.210938-51.527344-1.011719-3.175781-2.265625-6.246094-3.726562-9.199219-6.925781 3.121094-13.261719 7.296875-18.570313 12.136719 2.421875 5.578125 3.773438 11.734375 3.773438 18.203125v.015625c0 .75.695312 1.308594 1.417968 1.117187 3.152344-.835937 6.480469-1.230468 9.921876-1.113281 17.578124.601563 30.929687 13.757813 31.753906 31.332031.914062 19.527344-12.589844 33.585938-31.914063 33.585938-2.3125 0-121.511719 0-138.492187 0-.496094 2.425781-.824219 6.972656-.941406 9.515625-.214844 4.539063.199218 8.945313 1.144531 13.152344h138.285156c30.445313 0 56.054687-25.324219 54.558594-57.21875zm0 0" fill="#1c78d3"/><path d="m378.960938 78.132812c-.824219-17.574218-15.203126-31.761718-32.785157-32.363281-3.4375-.117187-6.765625.277344-9.917969 1.113281-.726562.191407-1.417968-.367187-1.417968-1.117187 0-.003906 0-.007813 0-.015625 0-25.265625-20.480469-45.75-45.75-45.75-20.671875 0-38.128906 13.710938-43.796875 32.53125-.492188 1.632812-2.144531 2.636719-3.808594 2.28125-9.851563-2.089844-20.3125 1.34375-26.980469 9.511719-.839844 1.035156-2.1875 1.484375-3.5 1.238281-20.871094-3.960938-39.867187 11.714844-40.828125 32.144531-.925781 19.757813 14.820313 36.074219 34.375 36.074219h140.433594c19.328125 0 34.890625-16.121094 33.976563-35.648438zm0 0" fill="#54a0ff"/><path d="m190.78125 77.710938c.960938-20.433594 19.953125-36.109376 40.828125-32.148438 1.308594.246094 2.65625-.203125 3.5-1.238281 6.667969-8.167969 17.128906-11.601563 26.976563-9.511719 1.667968.355469 3.320312-.648438 3.8125-2.28125 4.695312-15.589844 17.484374-27.664062 33.484374-31.355469-3.308593-.761719-6.753906-1.175781-10.292968-1.175781-20.671875 0-38.128906 13.710938-43.796875 32.53125-.492188 1.632812-2.144531 2.636719-3.8125 2.28125-9.851563-2.089844-20.3125 1.34375-26.976563 9.511719-.84375 1.035156-2.1875 1.484375-3.5 1.238281-20.875-3.960938-39.867187 11.714844-40.828125 32.148438-.929687 19.757812 14.816407 36.070312 34.371094 36.070312h20.605469c-19.554688 0-35.296875-16.3125-34.371094-36.070312zm0 0" fill="#338def"/><path d="m323.671875 155.609375c-4.265625 0-7.726563-3.457031-7.726563-7.726563v-10.441406c0-4.269531 3.460938-7.726562 7.726563-7.726562 4.269531 0 7.730469 3.457031 7.730469 7.726562v10.441406c0 4.269532-3.460938 7.726563-7.730469 7.726563zm0 0" fill="#8ac2ff"/><path d="m285.414062 155.609375c-4.265624 0-7.726562-3.457031-7.726562-7.726563v-10.441406c0-4.269531 3.457031-7.726562 7.726562-7.726562 4.265626 0 7.726563 3.457031 7.726563 7.726562v10.441406c0 4.269532-3.460937 7.726563-7.726563 7.726563zm0 0" fill="#8ac2ff"/><path d="m247.152344 155.609375c-4.265625 0-7.726563-3.457031-7.726563-7.726563v-10.441406c0-4.269531 3.460938-7.726562 7.726563-7.726562 4.269531 0 7.726562 3.457031 7.726562 7.726562v10.441406c0 4.269532-3.457031 7.726563-7.726562 7.726563zm0 0" fill="#8ac2ff"/></svg>