<svg height="512pt" viewBox="0 -16 512 512" width="512pt" xmlns="http://www.w3.org/2000/svg"><path d="m337.300781 215.097656c.296875 8.402344-6 15.300782-14.402343 15.601563 0 0-.296876 0-.597657 0h-133.199219c-8.402343-.300781-14.699218-7.199219-14.402343-15.601563 2.101562-67.5 27.902343-100.796875 69.902343-150 2.996094-3.296875 7.199219-5.097656 11.398438-5.097656s8.402344 1.800781 11.398438 5.097656c42.003906 49.203125 67.800781 82.5 69.902343 150zm0 0" fill="#fdbf00"/><path d="m322.300781 230.699219h-66.300781v-170.699219c4.199219 0 8.402344 1.800781 11.398438 5.097656 42.003906 49.203125 67.800781 82.5 69.902343 150 .296875 8.402344-6 15.300782-14.402343 15.601563 0 0-.300782 0-.597657 0zm0 0" fill="#ff7816"/><path d="m424.707031 217.589844c-49.277343-24.640625-108.148437-24.640625-157.398437 0-6.839844 3.410156-13.402344 7.25-19.6875 11.480468l113.378906 175.929688c0-49.042969 33.882812-116.746094 75.953125-127.28125l3.574219-.894531 5.34375-48.660157zm0 0" fill="#e63950"/><path d="m374.199219 435h-223.199219v-30c0-48.898438-33.898438-116.699219-75.902344-127.199219l-3.597656-.902343-5.402344-48.597657 21.300782-10.800781c49.203124-24.601562 108-24.601562 157.203124 0 3.898438 2.101562 7.796876 4.199219 11.398438 6 56.699219 33.300781 72.300781 81.300781 92.101562 141 14.097657 42 21.300782 60.898438 26.097657 70.5zm0 0" fill="#b5baf3"/><path d="m374.199219 435h-118.199219v-211.5c56.699219 33.300781 72.300781 81.300781 92.101562 141 14.097657 42 21.300782 60.898438 26.097657 70.5zm0 0" fill="#979fef"/><path d="m256 0c-24.902344 0-45 20.097656-45 45 0 24.898438 20.097656 45 45 45s45-20.101562 45-45c0-24.902344-20.097656-45-45-45zm0 0" fill="#ffd400"/><path d="m46 300c-24.8125 0-46-20.1875-46-45s21.1875-45 46-45 45 20.1875 45 45-20.1875 45-45 45zm0 0" fill="#ffd400"/><path d="m467 300c-24.8125 0-46-20.1875-46-45s21.1875-45 46-45 45 20.1875 45 45-20.1875 45-45 45zm0 0" fill="#ff9f00"/><path d="m256 90v-90c24.902344 0 45 20.097656 45 45 0 24.898438-20.097656 45-45 45zm0 0" fill="#ff9f00"/><path d="m391 450v15c0 8.398438-6.597656 15-15 15h-240c-8.402344 0-15-6.601562-15-15v-15c0-16.5 13.5-30 30-30h210c16.5 0 30 13.5 30 30zm0 0" fill="#ffd400"/><path d="m391 450v15c0 8.398438-6.597656 15-15 15h-120v-60h105c16.5 0 30 13.5 30 30zm0 0" fill="#ff9f00"/></svg>