<?xml version="1.0" encoding="utf-8"?>
<!-- Generator: Adobe Illustrator 19.0.0, SVG Export Plug-In . SVG Version: 6.00 Build 0)  -->
<svg version="1.1" id="Layer_1" xmlns="http://www.w3.org/2000/svg" xmlns:xlink="http://www.w3.org/1999/xlink" x="0px" y="0px"
	 viewBox="-139 141 512 512" style="enable-background:new -139 141 512 512;" xml:space="preserve">
<style type="text/css">
	.st0{fill:#FDBF00;}
	.st1{fill:#FF7816;}
	.st2{fill:#E63950;}
	.st3{fill:#B5BAF3;}
	.st4{fill:#979FEF;}
	.st5{fill:#FFD400;}
	.st6{fill:#FF9F00;}
	.st7{fill:#CE7419;}
	.st8{fill:#FCBA29;}
	.st9{fill:#E99A23;}
</style>
<path class="st0" d="M193.3,404.3c0.3,7.9-5.6,14.4-13.5,14.6c0,0-0.3,0-0.6,0h-125c-7.9-0.3-13.8-6.8-13.5-14.6
	c2-63.4,26.2-94.6,65.6-140.8c2.8-3.1,6.8-4.8,10.7-4.8s7.9,1.7,10.7,4.8C167.1,309.7,191.3,341,193.3,404.3z"/>
<path class="st1" d="M179.2,419H117V258.7c3.9,0,7.9,1.7,10.7,4.8c39.4,46.2,63.6,77.4,65.6,140.8c0.3,7.9-5.6,14.4-13.5,14.6
	C179.8,419,179.5,419,179.2,419z"/>
<path class="st2" d="M275.4,406.7c-46.3-23.1-101.5-23.1-147.8,0c-6.4,3.2-12.6,6.8-18.5,10.8l106.4,165.2
	c0-46,31.8-109.6,71.3-119.5l3.4-0.8l5-45.7L275.4,406.7z"/>
<path class="st3" d="M228,610.8H18.4v-28.2c0-45.9-31.8-109.6-71.3-119.4l-3.4-0.8l-5.1-45.6l20-10.1c46.2-23.1,101.4-23.1,147.6,0
	c3.7,2,7.3,3.9,10.7,5.6c53.2,31.3,67.9,76.3,86.5,132.4C216.7,584,223.5,601.7,228,610.8z"/>
<path class="st4" d="M228,610.8H117V412.2c53.2,31.3,67.9,76.3,86.5,132.4C216.7,584,223.5,601.7,228,610.8z"/>
<path class="st5" d="M117,202.4c-23.4,0-42.2,18.9-42.2,42.2c0,23.4,18.9,42.2,42.2,42.2s42.2-18.9,42.2-42.2
	C159.2,221.3,140.4,202.4,117,202.4z"/>
<path class="st5" d="M-80.1,484c-23.3,0-43.2-19-43.2-42.2c0-23.3,19.9-42.2,43.2-42.2s42.2,19,42.2,42.2
	C-37.9,465.1-56.8,484-80.1,484z"/>
<path class="st6" d="M315.1,484c-23.3,0-43.2-19-43.2-42.2c0-23.3,19.9-42.2,43.2-42.2s42.2,19,42.2,42.2
	C357.3,465.1,338.4,484,315.1,484z"/>
<path class="st6" d="M117,286.9v-84.5c23.4,0,42.2,18.9,42.2,42.2C159.2,268,140.4,286.9,117,286.9z"/>
<path class="st5" d="M243.7,624.8v14.1c0,7.9-6.2,14.1-14.1,14.1H4.4c-7.9,0-14.1-6.2-14.1-14.1v-14.1c0-15.5,12.7-28.2,28.2-28.2
	h197.1C231.1,596.7,243.7,609.3,243.7,624.8z"/>
<path class="st6" d="M243.7,624.8v14.1c0,7.9-6.2,14.1-14.1,14.1H117v-56.3h98.6C231.1,596.7,243.7,609.3,243.7,624.8z"/>
<path class="st7" d="M36.3,301.7h161.3c6.2,0,11.2,5,11.2,11.2l0,0c0,6.2-5,11.2-11.2,11.2H36.3c-6.2,0-11.2-5-11.2-11.2l0,0
	C25.1,306.7,30.1,301.7,36.3,301.7z"/>
<g>
	<path class="st8" d="M22.1,177.2L59,209.3c-5.7,10.5-1.8,23.7,8.8,29.4c10.5,5.7,23.7,1.8,29.4-8.8c5.7-10.5,1.8-23.7-8.8-29.4
		c-0.8-0.4-1.5-0.8-2.3-1.1l-3.2-18.6L117,141l34.2,39.8l-3.2,18.6c-11.1,4.4-16.6,17-12.2,28.1c4.4,11.1,17,16.6,28.1,12.2
		s16.6-17,12.2-28.1c-0.3-0.8-0.7-1.6-1.1-2.3l36.9-32.1L185,301.7H49L22.1,177.2z"/>
	<path class="st9" d="M117,141l34.2,39.8l-3.2,18.6c-11.1,4.4-16.6,17-12.2,28.1c4.4,11.1,17,16.6,28.1,12.2s16.6-17,12.2-28.1
		c-0.3-0.8-0.7-1.6-1.1-2.3l36.9-32.1L185,301.7h-68V141z"/>
	<g>
		<path class="st7" d="M164.2,257.7l5.2,7l5.3,7l-5.3,7l-5.2,7l-5.3-7l-5.3-7l5.3-7L164.2,257.7z"/>
		<path class="st7" d="M69.8,257.7l5.3,7l5.3,7l-5.3,7l-5.3,7l-5.3-7l-5.2-7l5.2-7L69.8,257.7z"/>
		<path class="st7" d="M117,165.6l7.9,9.6l7.9,9.6l-7.9,9.6l-7.9,9.6l-7.9-9.6l-7.9-9.6l7.9-9.6L117,165.6z"/>
		<path class="st7" d="M117,255.7l5.3,7l5.2,7l-5.2,7l-5.3,7l-5.3-7l-5.3-7l5.3-7L117,255.7z"/>
	</g>
</g>
</svg>
