<svg height="512pt" viewBox="-39 0 512 512.00002" width="512pt" xmlns="http://www.w3.org/2000/svg"><path d="m196.71875 392.003906h30v119.996094h-30zm0 0" fill="#fcbd8a"/><path d="m266.578125 392.003906h30v119.996094h-30zm0 0" fill="#fcbd8a"/><path d="m266.578125 392.003906h30v119.996094h-30zm0 0" fill="#f4a971"/><path d="m347.078125 228.117188-44.105469-102.164063h-112.585937l-45.550781 103.871094-40.296876 26.441406 16.460938 25.082031 47.734375-31.320312 22.964844-52.367188 2.730469 20.433594-10.066407 85.105469 124.878907-.347657-10.363282-84.800781 2.640625-19.777343 21.503907 49.8125 47.351562 31.902343 29.996094-15.230469zm0 0" fill="#fcbd8a"/><path d="m246.648438 107.617188c-49.726563 0-90.183594-40.457032-90.183594-90.1875h30c0 33.1875 27 60.1875 60.183594 60.1875 33.1875 0 60.1875-27 60.1875-60.1875h30c0 49.730468-40.457032 90.1875-90.1875 90.1875zm0 0" fill="#fd982c"/><path d="m336.835938 17.433594h-30c0 33.113281-26.882813 60.058594-59.96875 60.175781v30.003906c49.628906-.117187 89.96875-40.527343 89.96875-90.179687zm0 0" fill="#fa502e"/><path d="m246.648438 0c-29.667969 0-53.808594 24.136719-53.808594 53.808594 0 29.667968 24.140625 53.808594 53.808594 53.808594 29.671874 0 53.8125-24.140626 53.8125-53.808594 0-29.671875-24.140626-53.808594-53.8125-53.808594zm0 0" fill="#fcbd8a"/><path d="m300.460938 53.808594c0-29.597656-24.023438-53.683594-53.59375-53.8007815v107.6015625c29.570312-.117187 53.59375-24.203125 53.59375-53.800781zm0 0" fill="#f4a971"/><path d="m63.886719 232.113281c-37.617188 0-63.886719 14.554688-63.886719 35.394531 0 16.019532 17.746094 23.539063 35.105469 28.777344 12.855469 3.882813 25.492187 6.261719 26.023437 6.359375l2.753906.515625 2.753907-.515625c.535156-.097656 13.171875-2.476562 26.023437-6.359375 17.363282-5.238281 35.109375-12.757812 35.109375-28.777344 0-20.839843-26.269531-35.394531-63.882812-35.394531zm0 0" fill="#00465f"/><path d="m63.886719 232.113281v71.046875l2.753906-.515625c.53125-.097656 13.167969-2.476562 26.023437-6.355469 17.359376-5.242187 35.105469-12.761718 35.105469-28.78125 0-20.839843-26.269531-35.394531-63.882812-35.394531zm0 0" fill="#002c3c"/><path d="m347.078125 228.117188-44.105469-102.164063h-56.105468v177.070313l62.375-.171876-10.363282-84.800781 2.640625-19.777343 21.503907 49.8125 47.351562 31.902343 29.996094-15.230469zm0 0" fill="#f4a971"/><path d="m305.5625 272.886719-117.644531.265625-25.195313 134.136718 168.171875-.285156zm0 0" fill="#fdbf00"/><path d="m305.5625 272.886719-58.695312.132812v134.125l84.027343-.140625zm0 0" fill="#fd982c"/><path d="m305.5625 272.886719-117.644531.265625-25.195313 134.136718c133.855469 0 142.839844-134.402343 142.839844-134.402343zm0 0" fill="#fd982c"/><path d="m305.5625 272.886719-58.695312.132812v109.609375c53.9375-38.800781 58.695312-109.742187 58.695312-109.742187zm0 0" fill="#fa502e"/><path d="m400.371094 264.757812.003906 56.777344h-30v-41.546875zm0 0" fill="#fd982c"/><path d="m418.625 318.847656c-2.429688 0-4.828125.664063-6.96875 1.820313 3.085938-2.769531 5.101562-6.695313 4.910156-10.96875-.367187-8.128907-6.59375-15-15-15-7.847656 0-15.363281 6.898437-15 15 .171875 3.878906 1.695313 7.460937 4.140625 10.160156-1.640625-.640625-3.425781-1.011719-5.332031-1.011719-2.261719 0-4.488281.589844-6.515625 1.597656 2.949219-2.753906 4.847656-6.585937 4.660156-10.746093-.363281-8.128907-6.589843-15-15-15-7.84375 0-15.363281 6.898437-15 15 .167969 3.6875 1.546875 7.105469 3.785157 9.753906-1.308594-.382813-2.699219-.601563-4.15625-.601563-7.84375 0-15.363282 6.898438-15 15 .363281 8.125 6.589843 15 15 15 1.382812 0 2.757812-.226562 4.078124-.625-2.390624 2.652344-3.871093 6.085938-3.707031 9.777344.367188 8.125 6.59375 15 15 15 2.039063 0 4.046875-.472656 5.90625-1.304687-2.589843 2.699219-4.222656 6.277343-4.050781 10.140625.363281 8.128906 6.59375 15 15 15 7.847656 0 15.363281-6.898438 15-15-.164062-3.65625-1.523438-7.054688-3.726562-9.691406 1.523437.542968 3.167968.855468 4.917968.855468 7.84375 0 15.363282-6.902344 15-15-.191406-4.234375-1.980468-8.117187-4.832031-10.875 2.035156 1.089844 4.359375 1.722656 6.890625 1.722656 7.847656 0 15.363281-6.902343 15-15-.363281-8.128906-6.589844-15.003906-15-15.003906zm-54.183594 24.773438c2.390625-2.652344 3.871094-6.082032 3.707032-9.773438-.164063-3.6875-1.546876-7.109375-3.78125-9.753906 1.308593.382812 2.695312.601562 4.152343.601562 2.261719 0 4.488281-.585937 6.515625-1.597656-2.945312 2.753906-4.847656 6.589844-4.660156 10.75.183594 4.121094 1.882812 7.914063 4.601562 10.65625-1.929687-.953125-4.105468-1.503906-6.457031-1.503906-1.382812 0-2.753906.226562-4.078125.621094zm15.027344 24.519531c2.59375-2.699219 4.222656-6.277344 4.050781-10.140625-.183593-4.121094-1.878906-7.914062-4.597656-10.65625 1.929687.953125 4.101563 1.503906 6.453125 1.503906 1.816406 0 3.609375-.382812 5.296875-1.050781-2.625 2.707031-4.28125 6.308594-4.105469 10.203125.164063 3.65625 1.523438 7.054688 3.726563 9.691406-1.523438-.542968-3.171875-.851562-4.917969-.851562-2.035156 0-4.046875.472656-5.90625 1.300781zm22.09375-25.140625c-1.816406 0-3.609375.382812-5.296875 1.050781 2.628906-2.703125 4.285156-6.308593 4.109375-10.203125-.175781-3.878906-1.695312-7.460937-4.140625-10.160156 1.636719.640625 3.421875 1.007812 5.328125 1.007812 2.429688 0 4.828125-.664062 6.96875-1.816406-3.085938 2.765625-5.097656 6.695313-4.90625 10.96875.1875 4.234375 1.980469 8.117188 4.832031 10.875-2.035156-1.089844-4.363281-1.722656-6.894531-1.722656zm0 0" fill="#00465f"/></svg>