<svg height="511pt" viewBox="0 -2 511.99985 511" width="511pt" xmlns="http://www.w3.org/2000/svg"><path d="m480.929688 228.84375-22.054688 37.382812c-9.476562 16.0625-26.738281 25.921876-45.386719 25.921876h-92.128906c-4.605469 0-9.160156-1.09375-13.242187-3.230469-.320313-.167969-.640626-.335938-.957032-.507813-17.921875-9.648437-19.949218-34.820312-3.960937-47.410156 31.402343-24.726562 51.53125-63.121094 51.414062-106.214844-.195312-73.125-59.609375-133.253906-132.730469-134.273437-75.242187-1.046875-136.566406 59.632812-136.566406 134.636719 0 42.269531 19.476563 79.980468 49.945313 104.664062 13.378906 10.839844 15.304687 30.785156 3.796875 43.589844-9.242188 10.289062-22.085938 19.171875-37.160156 27.023437-28.914063 19.40625-47.949219 52.390625-47.949219 89.832031 0 59.707032 48.402343 108.109376 108.109375 108.109376h241.832031c59.707031 0 108.109375-48.402344 108.109375-108.109376v-162.929687c0-16.996094-22.433594-23.121094-31.070312-8.484375zm0 0" fill="#ffe675"/><path d="m480.929688 228.84375-2.921876 4.949219v134.464843c0 59.707032-48.402343 108.113282-108.109374 108.113282h-241.832032c-20.234375 0-39.164062-5.566406-55.359375-15.238282 19.46875 28.515626 52.21875 47.234376 89.347657 47.234376h241.835937c59.707031 0 108.105469-48.402344 108.105469-108.109376v-162.929687c.003906-16.996094-22.429688-23.121094-31.066406-8.484375zm0 0" fill="#dec866"/><path d="m320.625 102.785156c.113281 43.09375-20.015625 81.492188-51.417969 106.214844-15.988281 12.589844-13.957031 37.765625 3.960938 47.414062.316406.167969.636719.339844.960937.507813 4.078125 2.136719 8.632813 3.226563 13.238282 3.226563h5.191406c.808594-7.191407 4.304687-14.160157 10.640625-19.148438 31.402343-24.726562 51.53125-63.121094 51.417969-106.214844-.125-46.671875-24.378907-88.046875-60.914063-112.140625 16.820313 22.421875 26.839844 50.191407 26.921875 80.140625zm0 0" fill="#dec866"/><path d="m89.976562 101.953125c10.144532 19.636719 31.039063 34.867187 52.886719 44.910156 11.113281 5.105469 15.746094 18.503907 9.835938 29.210938-6.890625 12.472656-30.179688 34.007812-41.046875 39.0625-47.445313-13.136719-84.304688-43.683594-108.90625-71.773438-4.179688-4.777343-3.445313-12.144531 1.242187-16.425781 6.03125-5.503906 24.71875-8.550781 36.050781-7.617188 5.179688.429688 10.390626.472657 15.542969-.207031 14.582031-1.921875 25.761719-7.988281 34.394531-17.160156zm0 0" fill="#ffb258"/><path d="m142.863281 146.863281c-21.847656-10.042969-42.742187-25.273437-52.886719-44.910156-6.566406 6.976563-14.613281 12.152344-24.503906 15.078125 11.109375 12.484375 26.484375 22.53125 42.371094 29.832031 11.109375 5.105469 15.746094 18.503907 9.835938 29.210938-4.875 8.828125-17.96875 22.191406-29.054688 31.042969 7.375 3.097656 15.050781 5.808593 23.027344 8.019531 10.867187-5.050781 34.15625-26.589844 41.046875-39.0625 5.910156-10.707031 1.277343-24.105469-9.835938-29.210938zm0 0" fill="#e8a250"/><path d="m178.980469 84.699219c0 9.96875-8.078125 18.050781-18.046875 18.050781s-18.050782-8.082031-18.050782-18.050781 8.082032-18.050781 18.050782-18.050781 18.046875 8.082031 18.046875 18.050781zm0 0" fill="#475a72"/></svg>