<svg height="383pt" viewBox="-26 1 383 383.998" width="383pt" xmlns="http://www.w3.org/2000/svg"><path d="m238.84375 357.519531h-18.335938l18.335938-52.964843h-26.484375l-18.332031 52.964843h-46.347656l18.335937-52.96875h-26.480469l-18.335937 52.964844h-34.632813c-7.3125 0-13.238281 5.929687-13.238281 13.242187v13.242188h178.757813v-13.242188c0-7.3125-5.929688-13.238281-13.242188-13.238281zm0 0" fill="#d3843d"/><path d="m53.464844 19.863281-52.964844 39.722657h52.964844l19.863281-19.863282zm0 0" fill="#fdbd40"/><path d="m132.914062 19.863281v152.273438h198.617188l-39.644531 99.121093c-8.042969 20.109376-27.519531 33.296876-49.179688 33.296876h-109.792969c-43.878906 0-79.449218-35.570313-79.449218-79.449219v-165.519531l19.863281-19.863282-19.863281-19.859375c0-10.96875 8.890625-19.863281 19.863281-19.863281h39.722656c10.96875 0 19.863281 8.894531 19.863281 19.863281zm0 0" fill="#f4f4e6"/><path d="m185.878906 284.691406h-52.964844c-3.65625 0-6.621093-2.964844-6.621093-6.621094 0-3.660156 2.964843-6.621093 6.621093-6.621093h52.964844c25.582032-.03125 46.316406-20.761719 46.34375-46.347657v-19.859374h-99.308594c-3.65625 0-6.621093-2.964844-6.621093-6.621094 0-3.660156 2.964843-6.621094 6.621093-6.621094h105.929688c3.65625 0 6.621094 2.960938 6.621094 6.617188v.003906 26.484375c-.039063 32.890625-26.691406 59.546875-59.585938 59.585937zm0 0" fill="#aabece"/><path d="m79.949219 19.863281h13.238281v13.238281h-13.238281zm0 0" fill="#5a6470"/></svg>