<?xml version="1.0" encoding="iso-8859-1"?>
<!-- Generator: Adobe Illustrator 19.0.0, SVG Export Plug-In . SVG Version: 6.00 Build 0)  -->
<svg version="1.1" id="Capa_1" xmlns="http://www.w3.org/2000/svg" xmlns:xlink="http://www.w3.org/1999/xlink" x="0px" y="0px"
	 viewBox="0 0 512.001 512.001" style="enable-background:new 0 0 512.001 512.001;" xml:space="preserve">
<g>
	<path style="fill:#D96330;" d="M4.463,333.044c-5.951-5.951-5.951-15.599,0-21.55l22.028-22.028c5.951-5.951,15.599-5.951,21.55,0
		c5.951,5.951,5.951,15.599,0,21.55l-22.028,22.028C20.063,338.995,10.414,338.995,4.463,333.044z"/>
	<path style="fill:#D96330;" d="M39.363,367.943c-5.951-5.951-5.951-15.599,0-21.55l22.028-22.028c5.951-5.951,15.599-5.951,21.55,0
		c5.951,5.951,5.951,15.599,0,21.55l-22.028,22.028C54.961,373.894,45.314,373.894,39.363,367.943z"/>
	<path style="fill:#D96330;" d="M74.261,402.842c-5.951-5.951-5.951-15.599,0-21.55l22.028-22.028c5.951-5.951,15.599-5.951,21.55,0
		c5.951,5.951,5.951,15.599,0,21.55l-22.028,22.028C89.861,408.793,80.212,408.793,74.261,402.842z"/>
</g>
<g>
	<path style="fill:#A2400E;" d="M109.159,437.74c-5.951-5.951-5.951-15.599,0-21.55l22.028-22.028c5.951-5.951,15.599-5.951,21.55,0
		s5.951,15.599,0,21.55l-22.028,22.028C124.759,443.691,115.11,443.691,109.159,437.74z"/>
	<path style="fill:#A2400E;" d="M144.059,472.639c-5.951-5.951-5.951-15.599,0-21.55l22.028-22.028
		c5.951-5.951,15.599-5.951,21.55,0c5.951,5.951,5.951,15.599,0,21.55l-22.028,22.028
		C159.657,478.589,150.009,478.589,144.059,472.639z"/>
	<path style="fill:#A2400E;" d="M178.957,507.538c-5.951-5.951-5.951-15.599,0-21.55l22.028-22.028
		c5.951-5.951,15.599-5.951,21.55,0c5.951,5.951,5.951,15.599,0,21.55l-22.028,22.028
		C194.556,513.489,184.908,513.489,178.957,507.538z"/>
</g>
<g>
	<path style="fill:#D96330;" d="M289.466,48.041c-5.951-5.951-5.951-15.599,0-21.55l22.028-22.028c5.951-5.951,15.599-5.951,21.55,0
		s5.951,15.599,0,21.55l-22.027,22.028C305.066,53.992,295.417,53.992,289.466,48.041z"/>
	<path style="fill:#D96330;" d="M324.365,82.941c-5.951-5.951-5.951-15.599,0-21.55l22.028-22.028c5.951-5.951,15.599-5.951,21.55,0
		c5.951,5.951,5.951,15.599,0,21.55l-22.028,22.028C339.964,88.892,330.316,88.892,324.365,82.941z"/>
	<path style="fill:#D96330;" d="M359.264,117.839c-5.951-5.951-5.951-15.599,0-21.55l22.028-22.028
		c5.951-5.951,15.599-5.951,21.55,0c5.951,5.951,5.951,15.599,0,21.55l-22.028,22.028
		C374.863,123.79,365.215,123.79,359.264,117.839z"/>
</g>
<g>
	<path style="fill:#A2400E;" d="M394.162,152.737c-5.951-5.951-5.951-15.599,0-21.55l22.028-22.028
		c5.951-5.951,15.599-5.951,21.55,0c5.951,5.951,5.951,15.599,0,21.55l-22.028,22.028
		C409.762,158.688,400.113,158.688,394.162,152.737z"/>
	<path style="fill:#A2400E;" d="M429.061,187.637c-5.951-5.951-5.951-15.599,0-21.55l22.028-22.028
		c5.951-5.951,15.599-5.951,21.55,0s5.951,15.599,0,21.55l-22.028,22.028C444.66,193.587,435.011,193.587,429.061,187.637z"/>
	<path style="fill:#A2400E;" d="M463.96,222.535c-5.951-5.951-5.951-15.599,0-21.55l22.028-22.028c5.951-5.951,15.599-5.951,21.55,0
		c5.951,5.951,5.951,15.599,0,21.55l-22.028,22.028C479.559,228.486,469.911,228.486,463.96,222.535z"/>
</g>
<path style="fill:#FFDA68;" d="M200.987,485.513L26.491,311.017c-5.951-5.951-5.951-15.599,0-21.55L289.466,26.491
	c5.951-5.951,15.599-5.951,21.55,0l174.496,174.496c5.951,5.951,5.951,15.599,0,21.55L222.538,485.513
	C216.587,491.464,206.938,491.464,200.987,485.513z"/>
<path style="fill:#FF6A7A;" d="M452.097,256.056L255.948,59.907l-21.55,21.55l72.061,72.061H168.756
	c-8.416,0-15.238,6.822-15.238,15.238V306.46l-72.061-72.061l-21.55,21.55l196.149,196.149l21.55-21.55l-72.061-72.061
	l137.703-0.001c8.417,0,15.238-6.822,15.238-15.238l0.001-137.703l72.061,72.061L452.097,256.056z M183.995,328.009V183.995h144.015
	V328.01H183.995V328.009z"/>
<path style="fill:#FFA426;" d="M485.513,200.987l-87.251-87.251L113.736,398.261l87.251,87.251c5.951,5.951,15.599,5.951,21.55,0
	l262.976-262.974C491.464,216.587,491.464,206.938,485.513,200.987z"/>
<path style="fill:#FE2925;" d="M328.003,183.995h0.007V328.01H183.995v-0.007l-26.017,26.017l98.078,98.078l21.55-21.55
	l-72.061-72.061l137.703-0.001c8.417,0,15.238-6.822,15.238-15.238l0.001-137.703l72.061,72.061l21.55-21.55l-98.078-98.078
	L328.003,183.995z"/>
<g>
</g>
<g>
</g>
<g>
</g>
<g>
</g>
<g>
</g>
<g>
</g>
<g>
</g>
<g>
</g>
<g>
</g>
<g>
</g>
<g>
</g>
<g>
</g>
<g>
</g>
<g>
</g>
<g>
</g>
</svg>
