<svg height="438pt" viewBox="-3 1 438 438.566" width="438pt" xmlns="http://www.w3.org/2000/svg"><path d="m44.929688 334.832031h-7.4375v-7.441406c0-4.109375-3.332032-7.441406-7.441407-7.441406s-7.441406 3.332031-7.441406 7.441406v7.441406h-7.441406c-4.109375 0-7.4375 3.328125-7.4375 7.4375s3.328125 7.441407 7.4375 7.441407h7.441406v7.441406c0 4.109375 3.332031 7.4375 7.441406 7.4375s7.441407-3.328125 7.441407-7.4375v-7.441406h7.4375c4.109374 0 7.441406-3.332032 7.441406-7.441407s-3.332032-7.4375-7.441406-7.4375zm0 0" fill="#eb120d"/><path d="m402.082031 357.152344h-7.4375v-7.441406c0-4.109376-3.332031-7.4375-7.441406-7.4375s-7.441406 3.328124-7.441406 7.4375v7.441406h-7.441407c-4.109374 0-7.4375 3.332031-7.4375 7.441406s3.328126 7.4375 7.4375 7.4375h7.441407v7.441406c0 4.109375 3.332031 7.441406 7.441406 7.441406s7.441406-3.332031 7.441406-7.441406v-7.441406h7.4375c4.109375 0 7.441407-3.328125 7.441407-7.4375s-3.332032-7.441406-7.441407-7.441406zm0 0" fill="#eb120d"/><path d="m223.507812 14.882812h-7.441406v-7.441406c0-4.109375-3.332031-7.441406-7.441406-7.441406s-7.4375 3.332031-7.4375 7.441406v7.4375h-7.441406c-4.109375 0-7.441406 3.332032-7.441406 7.441406 0 4.109376 3.332031 7.441407 7.441406 7.441407h7.441406v7.441406c0 4.109375 3.328125 7.4375 7.4375 7.4375s7.441406-3.328125 7.441406-7.4375v-7.441406h7.441406c4.109376 0 7.4375-3.332031 7.4375-7.441407 0-4.109374-3.328124-7.4375-7.4375-7.4375zm0 0" fill="#eb120d"/><path d="m424.40625 275.304688h-7.441406v-7.441407c0-4.109375-3.332032-7.4375-7.441406-7.4375-4.109376 0-7.441407 3.328125-7.441407 7.4375v7.441407h-7.4375c-4.109375 0-7.441406 3.332031-7.441406 7.441406s3.332031 7.4375 7.441406 7.4375h7.4375v7.441406c0 4.109375 3.332031 7.441406 7.441407 7.441406 4.109374 0 7.441406-3.332031 7.441406-7.441406v-7.4375h7.441406c4.109375 0 7.4375-3.332031 7.4375-7.441406s-3.328125-7.441406-7.4375-7.441406zm0 0" fill="#eb120d"/><path d="m15.167969 22.320312c0 4.109376-3.332031 7.441407-7.441407 7.441407-4.109374 0-7.441406-3.332031-7.441406-7.441407 0-4.109374 3.332032-7.4375 7.441406-7.4375 4.109376 0 7.441407 3.328126 7.441407 7.4375zm0 0" fill="#ff5e5b"/><path d="m431.84375 81.847656c0 4.109375-3.328125 7.441406-7.4375 7.441406s-7.441406-3.332031-7.441406-7.441406 3.332031-7.441406 7.441406-7.441406 7.4375 3.332031 7.4375 7.441406zm0 0" fill="#ff5e5b"/><path d="m82.132812 319.949219c0 4.109375-3.332031 7.441406-7.441406 7.441406s-7.4375-3.332031-7.4375-7.441406 3.328125-7.441407 7.4375-7.441407 7.441406 3.332032 7.441406 7.441407zm0 0" fill="#ff5e5b"/><path d="m97.015625 379.472656h223.21875c24.65625 0 44.644531 19.988282 44.644531 44.644532v7.441406c0 4.109375-3.332031 7.441406-7.441406 7.441406h-297.625c-4.109375 0-7.441406-3.332031-7.441406-7.441406v-7.441406c0-24.65625 19.988281-44.644532 44.644531-44.644532zm0 0" fill="#649454"/><path d="m134.21875 334.832031h148.8125c8.21875 0 14.882812 6.660157 14.882812 14.878907v29.761718h-178.574218v-29.761718c-.003906-8.21875 6.660156-14.878907 14.878906-14.878907zm0 0" fill="#649454"/><path d="m178.863281 290.1875h59.523438v44.644531h-59.523438zm0 0" fill="#ff5e5b"/><path d="m312.792969 290.1875h-104.167969v-193.460938c0-24.65625 19.988281-44.640624 44.644531-44.640624h111.609375c8.21875 0 14.882813 6.660156 14.882813 14.878906v156.253906c0 36.984375-29.980469 66.96875-66.96875 66.96875zm0 0" fill="#649454"/><path d="m52.371094 52.085938h111.609375c24.65625 0 44.644531 19.984374 44.644531 44.640624v193.460938h-104.167969c-36.984375 0-66.96875-29.984375-66.96875-66.96875v-156.253906c0-8.21875 6.664063-14.878906 14.882813-14.878906zm0 0" fill="#649454"/><path d="m82.132812 59.527344h81.847657c24.65625 0 44.644531 19.984375 44.644531 44.640625v163.695312h-96.726562c-24.65625 0-44.644532-19.988281-44.644532-44.644531v-148.8125c0-8.21875 6.660156-14.878906 14.878906-14.878906zm0 0" fill="#075057"/><path d="m305.355469 267.863281h-96.730469v-163.695312c0-24.65625 19.988281-44.640625 44.644531-44.640625h81.847657c8.21875 0 14.882812 6.660156 14.882812 14.878906v148.8125c-.003906 24.65625-19.988281 44.644531-44.644531 44.644531zm0 0" fill="#075057"/><path d="m82.132812 52.085938h81.847657c24.65625 0 44.644531 19.984374 44.644531 44.640624v163.695313h-96.726562c-24.65625 0-44.644532-19.988281-44.644532-44.644531v-148.8125c0-8.21875 6.660156-14.878906 14.878906-14.878906zm0 0" fill="#c2d197"/><path d="m201.183594 260.425781h7.441406v-163.699219c.011719-8.773437-2.578125-17.351562-7.441406-24.65625zm0 0" fill="#9cb16a"/><path d="m305.355469 260.425781h-96.730469v-163.699219c0-24.65625 19.988281-44.640624 44.644531-44.640624h81.847657c8.21875 0 14.882812 6.660156 14.882812 14.878906v148.816406c-.003906 24.65625-19.988281 44.644531-44.644531 44.644531zm0 0" fill="#c2d197"/><path d="m216.066406 72.070312c-4.863281 7.304688-7.453125 15.882813-7.441406 24.65625v163.695313h7.441406zm0 0" fill="#9cb16a"/><g fill="#649454"><path d="m163.980469 111.609375h-52.082031c-4.109376 0-7.441407-3.332031-7.441407-7.441406 0-4.105469 3.332031-7.4375 7.441407-7.4375h52.082031c4.109375 0 7.441406 3.332031 7.441406 7.4375 0 4.109375-3.332031 7.441406-7.441406 7.441406zm0 0"/><path d="m163.980469 148.8125h-52.082031c-4.109376 0-7.441407-3.328125-7.441407-7.4375s3.332031-7.441406 7.441407-7.441406h52.082031c4.109375 0 7.441406 3.332031 7.441406 7.441406s-3.332031 7.4375-7.441406 7.4375zm0 0"/><path d="m163.980469 186.015625h-52.082031c-4.109376 0-7.441407-3.332031-7.441407-7.441406 0-4.105469 3.332031-7.4375 7.441407-7.4375h52.082031c4.109375 0 7.441406 3.332031 7.441406 7.4375 0 4.109375-3.332031 7.441406-7.441406 7.441406zm0 0"/><path d="m163.980469 223.21875h-22.320313c-4.109375 0-7.441406-3.328125-7.441406-7.4375s3.332031-7.441406 7.441406-7.441406h22.320313c4.109375 0 7.441406 3.332031 7.441406 7.441406s-3.332031 7.4375-7.441406 7.4375zm0 0"/><path d="m305.355469 111.609375h-52.085938c-4.109375 0-7.441406-3.332031-7.441406-7.441406 0-4.105469 3.332031-7.4375 7.441406-7.4375h52.085938c4.105469 0 7.4375 3.332031 7.4375 7.4375 0 4.109375-3.328125 7.441406-7.4375 7.441406zm0 0"/><path d="m305.355469 148.8125h-52.085938c-4.109375 0-7.441406-3.328125-7.441406-7.4375s3.332031-7.441406 7.441406-7.441406h52.085938c4.105469 0 7.4375 3.332031 7.4375 7.441406s-3.328125 7.4375-7.4375 7.4375zm0 0"/><path d="m305.355469 186.015625h-52.085938c-4.109375 0-7.441406-3.332031-7.441406-7.441406 0-4.105469 3.332031-7.4375 7.441406-7.4375h52.085938c4.105469 0 7.4375 3.332031 7.4375 7.4375 0 4.109375-3.328125 7.441406-7.4375 7.441406zm0 0"/><path d="m275.589844 223.21875h-22.320313c-4.109375 0-7.441406-3.328125-7.441406-7.4375s3.332031-7.441406 7.441406-7.441406h22.320313c4.109375 0 7.441406 3.332031 7.441406 7.441406s-3.332031 7.4375-7.441406 7.4375zm0 0"/></g><path d="m178.863281 290.1875h59.523438v14.878906h-59.523438zm0 0" fill="#eb120d"/><path d="m119.335938 379.472656h178.578124v14.882813c0 8.21875-6.664062 14.882812-14.882812 14.882812h-148.8125c-8.21875 0-14.882812-6.664062-14.882812-14.882812zm0 0" fill="#075057"/></svg>