<?xml version="1.0" encoding="utf-8"?>
<!-- Generator: Adobe Illustrator 19.0.0, SVG Export Plug-In . SVG Version: 6.00 Build 0)  -->
<svg version="1.1" id="Layer_1" xmlns="http://www.w3.org/2000/svg" xmlns:xlink="http://www.w3.org/1999/xlink" x="0px" y="0px"
	 viewBox="-49 51 512 512" style="enable-background:new -49 51 512 512;" xml:space="preserve">
<style type="text/css">
	.st0{fill:#333333;}
	.st1{fill:#353959;}
	.st2{fill:#555A80;}
	.st3{fill:#FFFFFF;}
	.st4{fill:#7F5B53;}
</style>
<path class="st0" d="M369.5,253l-25.1-10.4c-11-30.7-11-64.2,0-94.9l22.4-9.3c2.6-1.1,3.8-4.1,2.8-6.7c-1.1-2.6-4.1-3.8-6.7-2.8
	l-22.4,9.3c-29.5-13.9-53.2-37.7-67.1-67.1l4-9.6c1.1-2.6-0.2-5.6-2.8-6.7c-2.6-1.1-5.6,0.2-6.7,2.8l-4,9.6c-30.7,11-64.2,11-94.9,0
	l-5.4-13.1c-1.1-2.6-4.1-3.8-6.7-2.8c-2.6,1.1-3.8,4.1-2.8,6.7l5.4,13.1c-13.9,29.5-37.7,53.2-67.1,67.1l-25.1-10.4
	c-2.6-1.1-5.6,0.2-6.7,2.8c-1.1,2.6,0.2,5.6,2.8,6.7l25.1,10.4c11,30.7,11,64.2,0,94.9l-22.4,9.3c-2.6,1.1-3.8,4.1-2.8,6.7
	c0.8,2,2.7,3.2,4.7,3.2c0.7,0,1.3-0.1,2-0.4l22.4-9.3c29.5,13.9,53.2,37.7,67.1,67.1l-4,9.6c-1.1,2.6,0.2,5.6,2.8,6.7
	c0.6,0.3,1.3,0.4,2,0.4c2,0,3.9-1.2,4.7-3.2l4-9.6c30.7-11,64.2-11,94.9,0l5.4,13.1c0.8,2,2.7,3.2,4.7,3.2c0.7,0,1.3-0.1,2-0.4
	c2.6-1.1,3.8-4.1,2.8-6.7l-5.4-13.1c13.9-29.5,37.7-53.2,67.1-67.1l25.1,10.4c0.6,0.3,1.3,0.4,2,0.4c2,0,3.9-1.2,4.7-3.2
	C373.3,257.1,372.1,254.1,369.5,253z M332,237.5l-23.3-9.7c-4.2-21.7-4.2-43.6,0-65.3l23.3-9.7C323.9,180.5,323.9,209.8,332,237.5z
	 M240.5,150.3c6.4,7.4,13.3,14.3,20.7,20.7l-35.4,14.6L240.5,150.3z M216.4,181.8l-14.7-35.4c4.9,0.3,9.8,0.5,14.7,0.5
	c4.9,0,9.8-0.2,14.7-0.5L216.4,181.8z M207,185.7l-35.4-14.6c7.4-6.4,14.3-13.3,20.7-20.7L207,185.7z M203.1,195.1l-35.4,14.6
	c0.7-9.7,0.7-19.6,0-29.3L203.1,195.1z M207,204.6l-14.6,35.4c-6.4-7.4-13.3-14.3-20.7-20.7L207,204.6z M216.4,208.5l14.7,35.4
	c-4.9-0.3-9.8-0.5-14.7-0.5s-9.8,0.2-14.7,0.5L216.4,208.5z M225.9,204.6l35.4,14.6c-7.4,6.4-14.3,13.3-20.7,20.7L225.9,204.6z
	 M229.8,195.1l35.4-14.6c-0.7,9.7-0.7,19.6,0,29.3L229.8,195.1z M271.9,166.7c-9.8-8.1-18.8-17.1-26.9-26.9l9-21.7
	c11.1,15.3,24.4,28.5,39.7,39.7L271.9,166.7z M235.5,135.8c-6.3,0.6-12.7,0.9-19.1,0.9s-12.7-0.3-19.1-0.9l-9-21.7
	c18.5,2.9,37.6,2.9,56.1,0L235.5,135.8z M188,139.7c-8.1,9.8-17.1,18.8-26.9,26.9l-21.7-9c15.3-11.1,28.5-24.4,39.7-39.7L188,139.7z
	 M157.1,176.1c1.2,12.7,1.2,25.4,0,38.1l-21.7,9c2.9-18.6,2.9-37.4,0-56.1L157.1,176.1z M161,223.6c9.8,8.1,18.8,17.1,26.9,26.9
	l-9,21.7c-11.1-15.3-24.4-28.5-39.7-39.7L161,223.6z M197.4,254.5c6.3-0.6,12.7-0.9,19.1-0.9s12.7,0.3,19.1,0.9l9,21.7
	c-9.2-1.4-18.6-2.2-28-2.2c-9.4,0-18.8,0.7-28,2.2L197.4,254.5z M244.9,250.6c8.1-9.8,17.1-18.8,26.9-26.9l21.7,9
	c-15.3,11.1-28.5,24.4-39.7,39.7L244.9,250.6z M275.8,214.2c-1.2-12.7-1.2-25.4,0-38.1l21.7-9c-2.9,18.6-2.9,37.4,0,56.1
	L275.8,214.2z M328.1,143.4l-23.3,9.7c-18.3-12.4-33.8-27.9-46.2-46.2l9.7-23.3C282,108.8,302.8,129.5,328.1,143.4z M258.8,79.6
	l-9.7,23.3c-21.4,4.1-43.9,4.1-65.3,0l-9.7-23.3C201.7,87.7,231.1,87.7,258.8,79.6z M164.7,83.5l9.7,23.3
	c-12.4,18.3-27.9,33.8-46.2,46.2l-23.3-9.7C130.1,129.5,150.8,108.8,164.7,83.5z M100.9,152.8l23.3,9.7c4.2,21.7,4.2,43.6,0,65.3
	l-23.3,9.7C109,209.8,109,180.5,100.9,152.8z M104.8,246.9l23.3-9.7c18.3,12.4,33.8,27.9,46.2,46.2l-9.7,23.3
	C150.8,281.5,130.1,260.8,104.8,246.9z M216.4,304.6c-14.3,0-28.5,2-42.3,6l9.7-23.3c21.4-4.1,43.9-4.1,65.3,0l9.7,23.3
	C244.9,306.6,230.7,304.6,216.4,304.6z M268.2,306.8l-9.7-23.3c12.4-18.3,27.9-33.8,46.2-46.2l23.3,9.7
	C302.8,260.8,282,281.5,268.2,306.8z"/>
<g>
	<path class="st1" d="M115.8,501.7c-0.3,0-0.5,0-0.8-0.1c-1.8-0.4-2.9-2.2-2.4-4l12.8-51.9c0.2-1,0.9-1.8,1.8-2.2
		c0.9-0.4,2-0.4,2.9,0.1l20.8,10.7c1.6,0.8,2.3,2.8,1.4,4.4c-0.8,1.6-2.8,2.3-4.4,1.4l-17.1-8.8L119,499.2
		C118.6,500.7,117.3,501.7,115.8,501.7z"/>
	<path class="st1" d="M123,535.1c-0.4,0-0.7-0.1-1.1-0.2c-1.7-0.6-2.6-2.5-2.1-4.2l16.7-49.2c0.6-1.7,2.4-2.6,4.2-2.1l15.9,5.2
		c1.7,0.6,2.7,2.4,2.1,4.2s-2.4,2.7-4.2,2.1l-12.8-4.2l-15.7,46.1C125.7,534.2,124.4,535.1,123,535.1z"/>
	<path class="st1" d="M117.1,440.5c-0.6,0-1.3-0.2-1.9-0.6c-1.5-1-1.9-3.1-0.8-4.6l23.4-34c0.6-0.8,1.4-1.3,2.4-1.4
		c1-0.1,1.9,0.3,2.6,1l17.3,17.3c1.3,1.3,1.3,3.4,0,4.7c-1.3,1.3-3.4,1.3-4.7,0L141,408.4l-21.2,30.7
		C119.2,440,118.2,440.5,117.1,440.5z"/>
	<path class="st1" d="M322.7,501.7c-1.5,0-2.8-1-3.2-2.5l-11.8-47.9l-17.1,8.8c-1.6,0.8-3.6,0.2-4.4-1.4c-0.8-1.6-0.2-3.6,1.4-4.4
		l20.8-10.7c0.9-0.5,2-0.5,2.9-0.1c0.9,0.4,1.6,1.2,1.8,2.2l12.8,51.9c0.4,1.8-0.6,3.6-2.4,4C323.2,501.7,322.9,501.7,322.7,501.7z"
		/>
	<path class="st1" d="M315.5,535.1c-1.4,0-2.7-0.9-3.1-2.2l-15.7-46.1l-12.8,4.2c-1.7,0.6-3.6-0.4-4.2-2.1c-0.6-1.7,0.4-3.6,2.1-4.2
		l15.9-5.2c1.7-0.6,3.6,0.4,4.2,2.1l16.7,49.2c0.6,1.7-0.3,3.6-2.1,4.2C316.2,535,315.8,535.1,315.5,535.1z"/>
	<path class="st1" d="M321.3,440.5c-1,0-2.1-0.5-2.7-1.4l-21.2-30.7L283,422.9c-1.3,1.3-3.4,1.3-4.7,0c-1.3-1.3-1.3-3.4,0-4.7
		l17.3-17.3c0.7-0.7,1.7-1,2.6-1c1,0.1,1.9,0.6,2.4,1.4l23.4,34c1,1.5,0.7,3.6-0.8,4.6C322.6,440.3,322,440.5,321.3,440.5z"/>
</g>
<rect x="210.2" y="195.1" class="st0" width="10" height="234.3"/>
<path class="st2" d="M293.5,457.2c0,41-33.3,74.3-74.3,74.3c-41,0-74.3-33.3-74.3-74.3c0-39.9,31.5-72.5,71-74.2
	c1.1,0,2.2-0.1,3.3-0.1s2.2,0,3.3,0.1C262,384.7,293.5,417.3,293.5,457.2z"/>
<path class="st1" d="M232.7,530.3c-4.4,0.8-8.8,1.2-13.4,1.2c-41,0-74.3-33.3-74.3-74.3c0-41,33.3-74.3,74.3-74.3
	c4.6,0,9.1,0.4,13.4,1.2c-34.6,6.3-60.9,36.6-60.9,73.1C171.8,493.6,198,524,232.7,530.3z"/>
<g>
	<path class="st1" d="M219.2,552.2c17.8,0.2,27.7-6.9,33.2-14.5c5.7-7.8,7.5-17.8,5.8-27.4c-6.4-34.5-39-34.2-39-34.2
		s-32.6-0.3-39,34.2c-1.8,9.5,0.1,19.5,5.8,27.4C191.5,545.3,201.5,552.5,219.2,552.2z"/>
	<circle class="st3" cx="207.6" cy="506.4" r="9.5"/>
	<circle class="st3" cx="229.7" cy="506.4" r="12.6"/>
	<circle class="st4" cx="207.6" cy="506.4" r="3.2"/>
	<circle class="st4" cx="229.7" cy="506.4" r="4.7"/>
	<path class="st2" d="M217.4,544.4c-5.3,0-10.5-1.3-15.3-3.8c-0.8-0.4-1.1-1.4-0.7-2.1c0.4-0.8,1.4-1.1,2.1-0.7
		c7.1,3.7,15.2,4.4,22.9,2s13.9-7.7,17.6-14.8c0.4-0.8,1.4-1.1,2.1-0.7c0.8,0.4,1.1,1.4,0.7,2.1c-4.1,7.9-11,13.7-19.5,16.3
		C224.1,543.8,220.7,544.4,217.4,544.4z"/>
	<path class="st2" d="M201.2,544.3c-0.9,0-1.6-0.7-1.6-1.6c0-4.4,3.5-7.9,7.9-7.9c0.9,0,1.6,0.7,1.6,1.6c0,0.9-0.7,1.6-1.6,1.6
		c-2.6,0-4.7,2.1-4.7,4.7C202.8,543.6,202.1,544.3,201.2,544.3z"/>
	<path class="st2" d="M248.6,531.7c-0.9,0-1.6-0.7-1.6-1.6c0-2.6-2.1-4.7-4.7-4.7c-0.9,0-1.6-0.7-1.6-1.6c0-0.9,0.7-1.6,1.6-1.6
		c4.4,0,7.9,3.5,7.9,7.9C250.2,531,249.5,531.7,248.6,531.7z"/>
</g>
</svg>
