<?xml version="1.0" encoding="iso-8859-1"?>
<!-- Generator: Adobe Illustrator 19.0.0, SVG Export Plug-In . SVG Version: 6.00 Build 0)  -->
<svg version="1.1" id="Capa_1" xmlns="http://www.w3.org/2000/svg" xmlns:xlink="http://www.w3.org/1999/xlink" x="0px" y="0px"
	 viewBox="0 0 512 512" style="enable-background:new 0 0 512 512;" xml:space="preserve">
<path style="fill:#DEECF1;" d="M331,174.55c0,14.399-4.501,28.5-13.2,41.7l-108.6,59.7c-14.101,2.401-28.2,3.6-43.2,3.6
	c-11.4,0-23.401-0.901-36.301-2.999L61,322.45v-66.9c-38.401-19.801-61-48.9-61-81c0-58.801,73.599-105,166-105
	S331,115.749,331,174.55z"/>
<path style="fill:#C6E2E7;" d="M331,174.55c0,14.399-4.501,28.5-13.2,41.7l-108.6,59.7c-14.101,2.401-28.2,3.6-43.2,3.6v-210
	C258.401,69.55,331,115.749,331,174.55z"/>
<path style="fill:#00C0F1;" d="M346,189.55c-92.401,0-165,46.199-165,105s72.599,105,165,105c11.4,0,23.101-0.901,36.301-2.999
	L451,442.45v-66.9c38.401-19.801,61-48.9,61-81C512,235.749,438.401,189.55,346,189.55z"/>
<path style="fill:#00ABE9;" d="M512,294.55c0,32.1-22.599,61.199-61,81v66.899l-68.699-45.899
	c-13.2,2.098-24.901,2.999-36.301,2.999v-210C438.401,189.55,512,235.749,512,294.55z"/>
<g>
	<rect x="256" y="279.55" style="fill:#00465F;" width="30" height="30"/>
	<rect x="331" y="279.55" style="fill:#00465F;" width="30" height="30"/>
</g>
<g>
	<rect x="406" y="279.55" style="fill:#002C3C;" width="30" height="30"/>
	<rect x="226" y="159.55" style="fill:#002C3C;" width="30" height="30"/>
</g>
<g>
	<rect x="151" y="159.55" style="fill:#00465F;" width="30" height="30"/>
	<rect x="76" y="159.55" style="fill:#00465F;" width="30" height="30"/>
</g>
<g>
	<rect x="346" y="279.55" style="fill:#002C3C;" width="15" height="30"/>
	<rect x="166" y="159.55" style="fill:#002C3C;" width="15" height="30"/>
</g>
<g>
</g>
<g>
</g>
<g>
</g>
<g>
</g>
<g>
</g>
<g>
</g>
<g>
</g>
<g>
</g>
<g>
</g>
<g>
</g>
<g>
</g>
<g>
</g>
<g>
</g>
<g>
</g>
<g>
</g>
</svg>
