<?xml version="1.0" encoding="UTF-8" standalone="no"?>
<!DOCTYPE svg PUBLIC "-//W3C//DTD SVG 1.1//EN" "http://www.w3.org/Graphics/SVG/1.1/DTD/svg11.dtd">
<svg version="1.1" xmlns="http://www.w3.org/2000/svg" xmlns:xlink="http://www.w3.org/1999/xlink" preserveAspectRatio="xMidYMid meet" viewBox="0 0 640 640" width="640" height="640"><defs><path d="M9.32 329.32C9.32 158.45 149.13 18.64 320 18.64C490.87 18.64 630.68 158.45 630.68 329.32C630.68 500.19 490.87 640 320 640C149.13 640 9.32 500.19 9.32 329.32Z" id="cApPKFQaK"></path><path d="M320 19.68C159.28 19.68 29 149.96 29 310.68C29 471.4 159.28 601.68 320 601.68C480.72 601.68 611 471.4 611 310.68C611 149.96 480.72 19.68 320 19.68Z" id="a1b6Lbl2T5"></path><path d="M354.17 54.89C425.63 54.89 490.87 80.78 541.62 123.24C488.8 60.06 409.06 19.68 320 19.68C159.48 19.68 29 150.16 29 310.68C29 399.74 69.39 479.48 132.56 533.33C89.06 482.59 63.17 417.35 63.17 345.89C63.17 185.37 193.66 54.89 354.17 54.89Z" id="bZ6eOPJjs"></path><path d="M526.08 105.63C640 219.55 640 403.88 526.08 517.8C412.17 631.72 227.83 631.72 113.92 517.8" id="b3YMuCBsMt"></path><path d="M345.38 1.03L357.88 2.31L370.22 4.09L382.41 6.34L394.43 9.07L406.27 12.26L417.93 15.91L429.38 19.99L440.63 24.51L451.66 29.46L462.46 34.81L473.02 40.57L483.34 46.72L493.39 53.25L503.18 60.15L512.68 67.41L521.9 75.02L530.81 82.98L539.42 91.26L547.7 99.87L555.66 108.78L563.27 118L570.53 127.5L577.43 137.29L583.96 147.34L590.11 157.66L595.87 168.22L601.22 179.02L606.17 190.05L610.69 201.3L614.77 212.75L618.42 224.41L621.61 236.25L624.34 248.27L626.59 260.46L628.37 272.8L629.64 285.3L630.42 297.92L630.68 310.68L630.42 323.44L629.64 336.06L628.37 348.56L626.59 360.9L624.34 373.09L621.61 385.11L618.42 396.95L614.77 408.61L610.69 420.06L606.17 431.31L601.22 442.34L595.87 453.14L590.11 463.7L583.96 474.02L577.43 484.07L570.53 493.86L563.27 503.36L555.66 512.58L547.7 521.49L539.42 530.1L530.81 538.38L521.9 546.34L512.68 553.95L503.18 561.21L493.39 568.11L483.34 574.64L473.02 580.79L462.46 586.55L451.66 591.9L440.63 596.84L429.38 601.36L417.93 605.45L406.27 609.1L394.43 612.29L382.41 615.02L370.22 617.27L357.88 619.05L345.38 620.32L332.76 621.1L320 621.36L307.24 621.1L294.62 620.32L282.12 619.05L269.78 617.27L257.59 615.02L245.57 612.29L233.73 609.1L222.07 605.45L210.62 601.36L199.37 596.84L188.34 591.9L177.54 586.55L166.98 580.79L156.66 574.64L146.61 568.11L136.82 561.21L127.32 553.95L118.1 546.34L109.19 538.38L100.58 530.1L92.3 521.49L84.34 512.58L76.73 503.36L69.47 493.86L62.57 484.07L56.04 474.02L49.89 463.7L44.13 453.14L38.78 442.34L33.83 431.31L29.31 420.06L25.23 408.61L21.58 396.95L18.39 385.11L15.66 373.09L13.41 360.9L11.63 348.56L10.36 336.06L9.58 323.44L9.32 310.68L9.58 297.92L10.36 285.3L11.63 272.8L13.41 260.46L15.66 248.27L18.39 236.25L21.58 224.41L25.23 212.75L29.31 201.3L33.83 190.05L38.78 179.02L44.13 168.22L49.89 157.66L56.04 147.34L62.57 137.29L69.47 127.5L76.73 118L84.34 108.78L92.3 99.87L100.58 91.26L109.19 82.98L118.1 75.02L127.32 67.41L136.82 60.15L146.61 53.25L156.66 46.72L166.98 40.57L177.54 34.81L188.34 29.46L199.37 24.51L210.62 19.99L222.07 15.91L233.73 12.26L245.57 9.07L257.59 6.34L269.78 4.09L282.12 2.31L294.62 1.03L307.24 0.26L320 0L332.76 0.26L345.38 1.03ZM297.7 40.26L286.74 41.37L275.91 42.92L265.23 44.89L254.7 47.28L244.32 50.07L234.12 53.25L224.09 56.83L214.26 60.78L204.61 65.1L195.17 69.77L185.94 74.8L176.94 80.18L168.16 85.88L159.62 91.91L151.33 98.26L143.3 104.91L135.52 111.86L128.03 119.09L120.81 126.61L113.88 134.4L107.25 142.45L100.93 150.75L94.93 159.3L89.25 168.08L83.9 177.08L78.9 186.31L74.25 195.74L69.95 205.37L66.03 215.19L62.48 225.2L59.31 235.37L56.54 245.71L54.17 256.21L52.22 266.84L50.68 277.62L49.57 288.52L48.9 299.55L48.67 310.68L48.9 321.89L49.58 332.97L50.7 343.94L52.24 354.77L54.22 365.45L56.6 375.98L59.39 386.36L62.58 396.56L66.15 406.59L70.1 416.42L74.42 426.07L79.09 435.51L84.12 444.74L89.5 453.74L95.2 462.52L101.23 471.06L107.58 479.35L114.23 487.38L121.18 495.16L128.41 502.65L135.93 509.87L143.72 516.8L151.77 523.43L160.07 529.75L168.62 535.75L177.4 541.43L186.4 546.78L195.63 551.78L205.06 556.43L214.69 560.73L224.51 564.65L234.52 568.2L244.69 571.37L255.03 574.14L265.53 576.51L276.17 578.46L286.94 580L297.84 581.11L308.87 581.78L320 582.01L331.13 581.78L342.16 581.1L353.06 579.98L363.83 578.44L374.47 576.46L384.97 574.08L395.31 571.29L405.48 568.1L415.49 564.53L425.31 560.58L434.94 556.26L444.37 551.58L453.6 546.55L462.6 541.18L471.38 535.48L479.93 529.45L488.23 523.1L496.28 516.45L504.07 509.5L511.59 502.27L518.82 494.75L525.77 486.96L532.42 478.91L538.77 470.61L544.8 462.06L550.5 453.28L555.88 444.28L560.91 435.05L565.58 425.62L569.9 415.99L573.85 406.17L577.42 396.16L580.61 385.99L583.4 375.65L585.78 365.15L587.76 354.51L589.3 343.74L590.42 332.83L591.1 321.81L591.33 310.68L591.1 299.55L590.43 288.52L589.32 277.62L587.78 266.84L585.83 256.21L583.46 245.71L580.69 235.37L577.52 225.2L573.97 215.19L570.05 205.37L565.75 195.74L561.1 186.31L556.1 177.08L550.75 168.08L545.07 159.3L539.07 150.75L532.75 142.45L526.12 134.4L519.19 126.61L511.97 119.09L504.48 111.86L496.7 104.91L488.67 98.26L480.38 91.91L471.84 85.88L463.06 80.18L454.06 74.8L444.83 69.77L435.39 65.1L425.74 60.78L415.91 56.83L405.88 53.25L395.68 50.07L385.3 47.28L374.77 44.89L364.09 42.92L353.26 41.37L342.3 40.26L331.21 39.58L320 39.35L308.79 39.58L297.7 40.26Z" id="c5KUA0LSQ"></path><path d="M554.05 106.67C499.16 59.03 427.7 30.03 349 30.03C296.18 30.03 247.51 43.5 204.01 66.28C239.22 48.67 278.58 39.35 320 39.35C401.81 39.35 476.38 76.63 526.08 134.63C584.08 184.34 620.32 257.86 620.32 340.71C620.32 382.14 611 421.49 594.43 456.7C617.22 413.2 630.68 363.5 630.68 310.68C630.68 231.97 601.68 160.52 554.05 106.67Z" id="c1lN4JHAP"></path><path d="M114.95 544.72C169.84 592.36 241.29 621.36 318.96 621.36C371.78 621.36 420.45 607.9 463.95 585.11C428.74 601.68 389.39 611 347.96 611C266.15 611 191.59 573.72 141.88 515.73C83.88 466.02 46.6 392.49 46.6 309.64C46.6 268.22 55.92 228.87 72.49 193.66C51.78 238.19 38.32 287.9 38.32 340.71C38.32 419.42 67.31 490.87 114.95 544.72Z" id="a1qtUv0sMZ"></path><path d="M472.07 357.99C472.07 365.54 466.07 371.63 458.52 371.63C454.89 371.63 436.7 371.63 403.96 371.63L322.12 262.31L255.38 173.09C239.01 140.35 229.92 122.16 228.1 118.52C223.55 109.51 230.1 98.78 240.28 98.78C248.47 98.78 313.94 98.78 322.12 98.78C404.87 98.78 472.07 166.08 472.07 248.85C472.07 270.68 472.07 347.08 472.07 357.99Z" id="c24azfSC1t"></path><path d="M472.07 357.99C472.07 365.54 466.07 371.63 458.52 371.63C454.89 371.63 436.7 371.63 403.96 371.63L322.12 262.31C322.12 164.19 322.12 109.68 322.12 98.78C404.87 98.78 472.07 166.08 472.07 248.85C472.07 270.68 472.07 347.08 472.07 357.99Z" id="aJByla7jK"></path><path d="M267.56 153.35C263.29 153.35 259.2 155.35 256.65 158.81C248.47 169.72 183 257.04 174.81 267.95C170.72 273.41 171.26 280.96 176.08 285.78C178.81 288.5 200.64 310.33 203.36 313.06C207 316.7 212.46 317.97 217.28 316.33C221.54 314.92 242.85 307.82 281.2 295.05C281.2 309.68 281.2 317.8 281.2 319.43C281.2 322.97 279.75 326.52 277.2 329.07C274.15 332.12 249.7 356.57 246.65 359.63C233.74 372.54 226.64 389.64 226.64 407.92C226.64 412.02 226.64 444.84 226.64 448.94C226.64 456.49 232.74 462.58 240.28 462.58C256.65 462.58 387.6 462.58 403.96 462.58C411.51 462.58 417.51 456.49 417.51 448.94C417.51 428.93 417.51 268.86 417.51 248.85C417.51 196.19 374.77 153.35 322.12 153.35C311.21 153.35 273.02 153.35 267.56 153.35Z" id="b5UhsVLAQP"></path><path d="M417.51 448.94C417.51 456.49 411.51 462.58 403.96 462.58C398.51 462.58 371.23 462.58 322.12 462.58C322.12 277.04 322.12 173.97 322.12 153.35C374.77 153.35 417.51 196.19 417.51 248.85C417.51 288.87 417.51 428.93 417.51 448.94Z" id="a22jNMN0pW"></path><path d="M294.85 207.92C287.31 207.92 281.21 214.03 281.21 221.56C281.21 229.1 287.31 235.21 294.85 235.21C302.38 235.21 308.49 229.1 308.49 221.56C308.49 214.03 302.38 207.92 294.85 207.92Z" id="b4338RymNb"></path><path d="M240.28 435.3C217.73 435.3 199.36 453.67 199.36 476.22C199.36 478.95 199.36 500.78 199.36 503.51C199.36 511.06 205.46 517.15 213 517.15C234.83 517.15 409.42 517.15 431.24 517.15C438.79 517.15 444.79 511.06 444.79 503.51C444.79 500.78 444.79 478.95 444.79 476.22C444.79 453.67 426.51 435.3 403.96 435.3C371.23 435.3 256.65 435.3 240.28 435.3Z" id="b1wehrQxr3"></path><path d="M444.79 503.51C444.79 511.06 438.79 517.15 431.24 517.15C423.97 517.15 387.59 517.15 322.12 517.15L322.12 435.3C371.23 435.3 398.51 435.3 403.96 435.3C426.51 435.3 444.79 453.67 444.79 476.22C444.79 481.68 444.79 500.78 444.79 503.51Z" id="c2Wa08okqs"></path></defs><g><g><g><use xlink:href="#cApPKFQaK" opacity="1" fill="#d89e77" fill-opacity="1"></use><g><use xlink:href="#cApPKFQaK" opacity="1" fill-opacity="0" stroke="#000000" stroke-width="1" stroke-opacity="0"></use></g></g><g><use xlink:href="#a1b6Lbl2T5" opacity="1" fill="#d88b56" fill-opacity="1"></use><g><use xlink:href="#a1b6Lbl2T5" opacity="1" fill-opacity="0" stroke="#000000" stroke-width="1" stroke-opacity="0"></use></g></g><g><use xlink:href="#bZ6eOPJjs" opacity="1" fill="#cc7e48" fill-opacity="1"></use><g><use xlink:href="#bZ6eOPJjs" opacity="1" fill-opacity="0" stroke="#000000" stroke-width="1" stroke-opacity="0"></use></g></g><g><use xlink:href="#b3YMuCBsMt" opacity="1" fill="#cc7e48" fill-opacity="1"></use><g><use xlink:href="#b3YMuCBsMt" opacity="1" fill-opacity="0" stroke="#000000" stroke-width="1" stroke-opacity="0"></use></g></g><g><use xlink:href="#c5KUA0LSQ" opacity="1" fill="#f7c6a4" fill-opacity="1"></use><g><use xlink:href="#c5KUA0LSQ" opacity="1" fill-opacity="0" stroke="#000000" stroke-width="1" stroke-opacity="0"></use></g></g><g><use xlink:href="#c1lN4JHAP" opacity="1" fill="#e8b18b" fill-opacity="1"></use><g><use xlink:href="#c1lN4JHAP" opacity="1" fill-opacity="0" stroke="#000000" stroke-width="1" stroke-opacity="0"></use></g></g><g><use xlink:href="#a1qtUv0sMZ" opacity="1" fill="#e8b18b" fill-opacity="1"></use><g><use xlink:href="#a1qtUv0sMZ" opacity="1" fill-opacity="0" stroke="#000000" stroke-width="1" stroke-opacity="0"></use></g></g><g><use xlink:href="#c24azfSC1t" opacity="1" fill="#e8b18b" fill-opacity="1"></use><g><use xlink:href="#c24azfSC1t" opacity="1" fill-opacity="0" stroke="#000000" stroke-width="1" stroke-opacity="0"></use></g></g><g><use xlink:href="#aJByla7jK" opacity="1" fill="#e8b18b" fill-opacity="1"></use><g><use xlink:href="#aJByla7jK" opacity="1" fill-opacity="0" stroke="#000000" stroke-width="1" stroke-opacity="0"></use></g></g><g><use xlink:href="#b5UhsVLAQP" opacity="1" fill="#ffdcc5" fill-opacity="1"></use><g><use xlink:href="#b5UhsVLAQP" opacity="1" fill-opacity="0" stroke="#000000" stroke-width="1" stroke-opacity="0"></use></g></g><g><use xlink:href="#a22jNMN0pW" opacity="1" fill="#f7c6a4" fill-opacity="1"></use><g><use xlink:href="#a22jNMN0pW" opacity="1" fill-opacity="0" stroke="#000000" stroke-width="1" stroke-opacity="0"></use></g></g><g><use xlink:href="#b4338RymNb" opacity="1" fill="#e8b18b" fill-opacity="1"></use><g><use xlink:href="#b4338RymNb" opacity="1" fill-opacity="0" stroke="#000000" stroke-width="1" stroke-opacity="0"></use></g></g><g><use xlink:href="#b1wehrQxr3" opacity="1" fill="#f7c6a4" fill-opacity="1"></use><g><use xlink:href="#b1wehrQxr3" opacity="1" fill-opacity="0" stroke="#000000" stroke-width="1" stroke-opacity="0"></use></g></g><g><use xlink:href="#c2Wa08okqs" opacity="1" fill="#e8b18b" fill-opacity="1"></use><g><use xlink:href="#c2Wa08okqs" opacity="1" fill-opacity="0" stroke="#000000" stroke-width="1" stroke-opacity="0"></use></g></g></g></g></svg>