<svg height="512pt" viewBox="0 -46 512 511" width="512pt" xmlns="http://www.w3.org/2000/svg"><path d="m512 364.386719v24.300781h-196c-14.097656 18.601562-36.300781 30-60 30s-45.902344-11.398438-60-30h-196v-23.101562l31.199219-42.296876 224.800781-56.402343 235.300781 59.703125zm0 0" fill="#b35f49"/><path d="m512 364.386719v24.300781h-196c-14.097656 18.601562-36.300781 30-60 30v-151.800781l235.300781 59.703125zm0 0" fill="#99503d"/><path d="m512 34.386719v330l-8.402344-4.199219c-77.097656-38.398438-169.597656-39.597656-247.597656-3.300781-82.199219-38.097657-177.699219-33.597657-256 8.699219v-331.199219l8.402344-4.199219c77.097656-38.398438 169.597656-39.597656 247.597656-3.300781 78-36.300781 170.5-35.097657 247.597656 3.300781zm0 0" fill="#fed2a4"/><path d="m512 34.386719v330l-8.402344-4.199219c-77.097656-38.398438-169.597656-39.597656-247.597656-3.300781v-330c78-36.300781 170.5-35.097657 247.597656 3.300781zm0 0" fill="#ffbd86"/><path d="m192.644531 96.773438c-37.058593-8.496094-77.230469-8.496094-114.289062 0l-6.710938-29.238282c41.457031-9.492187 86.253907-9.492187 127.710938 0zm0 0" fill="#f6a96c"/><path d="m433.644531 96.773438c-37.058593-8.496094-77.230469-8.496094-114.289062 0l-6.710938-29.238282c41.457031-9.492187 86.253907-9.492187 127.710938 0zm0 0" fill="#ea9b58"/><path d="m192.644531 156.773438c-37.058593-8.496094-77.230469-8.496094-114.289062 0l-6.710938-29.238282c41.457031-9.492187 86.253907-9.492187 127.710938 0zm0 0" fill="#f6a96c"/><path d="m433.644531 156.773438c-37.058593-8.496094-77.230469-8.496094-114.289062 0l-6.710938-29.238282c41.457031-9.492187 86.253907-9.492187 127.710938 0zm0 0" fill="#ea9b58"/><path d="m192.644531 216.773438c-37.058593-8.496094-77.230469-8.496094-114.289062 0l-6.710938-29.238282c41.457031-9.492187 86.253907-9.492187 127.710938 0zm0 0" fill="#f6a96c"/><path d="m433.644531 216.773438c-37.058593-8.496094-77.230469-8.496094-114.289062 0l-6.710938-29.238282c41.457031-9.492187 86.253907-9.492187 127.710938 0zm0 0" fill="#ea9b58"/><path d="m192.644531 276.773438c-37.058593-8.496094-77.230469-8.496094-114.289062 0l-6.710938-29.238282c41.457031-9.492187 86.253907-9.492187 127.710938 0zm0 0" fill="#f6a96c"/><path d="m433.644531 276.773438c-37.058593-8.496094-77.230469-8.496094-114.289062 0l-6.710938-29.238282c41.457031-9.492187 86.253907-9.492187 127.710938 0zm0 0" fill="#ea9b58"/></svg>