<?xml version="1.0" encoding="iso-8859-1"?>
<!-- Generator: Adobe Illustrator 19.0.0, SVG Export Plug-In . SVG Version: 6.00 Build 0)  -->
<svg version="1.1" id="Capa_1" xmlns="http://www.w3.org/2000/svg" xmlns:xlink="http://www.w3.org/1999/xlink" x="0px" y="0px"
	 viewBox="0 0 512 512" style="enable-background:new 0 0 512 512;" xml:space="preserve">
<path style="fill:#883F2E;" d="M55.471,151.178H15.107c-8.289,0-14.996-6.707-14.996-14.996s6.707-14.996,14.996-14.996H55.47
	c8.29,0,14.996,6.707,14.996,14.996S63.76,151.178,55.471,151.178z"/>
<path style="fill:#6D3326;" d="M495.98,151.178h-39.366c-8.288,0-14.996-6.707-14.996-14.996s6.708-14.996,14.996-14.996h39.366
	c8.289,0,15.996,6.707,15.996,14.996S504.269,151.178,495.98,151.178z"/>
<path style="fill:#883F2E;" d="M271.04,15.214v29.992c0,8.397-6.597,14.996-14.996,14.996c-8.399,0-14.996-6.599-14.996-14.996
	V15.214c0-8.399,6.597-14.996,14.996-14.996C264.442,0.218,271.04,6.815,271.04,15.214z"/>
<path style="fill:#6D3326;" d="M256.044,60.202V0.218c8.399,0,14.996,6.597,14.996,14.996v29.992
	C271.04,53.603,264.442,60.202,256.044,60.202z"/>
<path style="fill:#5A5A5A;" d="M480.984,226.158c0,76.48-29.692,152.359-31.191,155.359c-2.099,5.998-7.798,9.598-13.797,9.598
	H76.091c-5.998,0-11.697-3.599-13.797-9.598c-1.5-3-31.191-78.879-31.191-155.359c0-75.881,29.391-180.652,30.593-185.151
	c1.8-6.299,7.798-10.797,14.395-10.797h359.905c6.597,0,12.596,4.498,14.395,10.797C451.593,45.506,480.984,150.277,480.984,226.158
	z"/>
<path style="fill:#444444;" d="M435.996,391.115H256.044V30.21h179.953c6.597,0,12.596,4.498,14.395,10.797
	c1.201,4.5,30.593,109.271,30.593,185.151c0,76.48-29.692,152.359-31.191,155.359C447.694,387.516,441.995,391.115,435.996,391.115z
	"/>
<path style="fill:#883F2E;" d="M420.4,409.71l-9.298,38.79c-2.998,12.296-6.897,24.294-11.397,36.289c0,0.3-0.298,0.3-0.298,0.601
	c-32.392-21.295-73.782-21.295-105.873,0.3c-5.399,3.599-11.397,6.297-17.396,8.099h-38.689c-5.998-1.802-11.998-4.5-17.396-8.099
	c-32.392-21.595-74.079-21.595-106.472,0c-0.3,0-0.3,0-0.601,0.3c0-0.3-0.3-0.3-0.3-0.601c-4.798-11.998-8.697-24.594-11.696-36.889
	l-9.298-38.79c-1.501-5.098,0-10.498,3.899-14.097c43.189-43.488,97.174-75.879,155.958-93.575c1.501-0.3,3-0.599,4.5-0.599
	s2.998,0.298,4.199,0.599c58.784,17.696,112.77,50.088,156.258,93.575C420.4,399.211,421.901,404.611,420.4,409.71z"/>
<path style="fill:#6D3326;" d="M420.4,409.71l-9.298,38.79c-2.998,12.296-6.897,24.294-11.397,36.289c0,0.3-0.298,0.3-0.298,0.601
	c-32.392-21.295-73.782-21.295-105.873,0.3c-5.399,3.599-11.397,6.297-17.396,8.099h-20.094V301.439c1.5,0,2.998,0.298,4.199,0.599
	c58.784,17.696,112.77,50.088,156.258,93.575C420.4,399.211,421.901,404.611,420.4,409.71z"/>
<path style="fill:#B35F49;" d="M286.036,301.138v195.948h-59.984V301.138c0-16.496,13.496-29.992,29.992-29.992
	S286.036,284.643,286.036,301.138z"/>
<path style="fill:#99503D;" d="M286.036,301.138v195.948h-29.992v-225.94C272.539,271.146,286.036,284.643,286.036,301.138z"/>
<g>
	<path style="fill:#E4FEFF;" d="M329.525,262.748c-3.899,7.498-12.596,10.498-20.094,6.899l-53.387-26.693l-53.387,26.693
		c-7.498,3.599-16.195,0.599-20.094-6.899c-3.599-7.198-0.599-16.195,6.899-20.094l32.99-16.496l-32.99-16.496
		c-7.498-3.899-10.498-12.899-6.899-20.096c3.899-7.498,12.897-10.496,20.094-6.897l53.387,26.693l53.387-26.693
		c7.198-3.599,16.195-0.601,20.094,6.897c3.599,7.198,0.599,16.197-6.899,20.096l-32.99,16.496l32.99,16.496
		C330.123,246.552,333.123,255.55,329.525,262.748z"/>
	<path style="fill:#E4FEFF;" d="M256.044,91.194c-24.894,0-44.988,20.094-44.988,44.988c0,24.892,20.094,44.988,44.988,44.988
		s44.988-20.096,44.988-44.988C301.032,111.288,280.938,91.194,256.044,91.194z"/>
</g>
<g>
	<path style="fill:#9BFCFF;" d="M256.044,181.17V91.194c24.894,0,44.988,20.094,44.988,44.988
		C301.032,161.073,280.938,181.17,256.044,181.17z"/>
	<path style="fill:#9BFCFF;" d="M309.43,269.647l-53.387-26.693v-33.591l53.387-26.693c7.198-3.599,16.195-0.601,20.094,6.897
		c3.599,7.198,0.599,16.197-6.899,20.096l-32.99,16.496l32.99,16.496c7.498,3.899,10.498,12.897,6.899,20.094
		C325.625,270.246,316.928,273.246,309.43,269.647z"/>
</g>
<path style="fill:#3AAAFF;" d="M502.678,489.589c-3.899,1.5-8.798,3.599-12.697,5.998c-16.195,10.797-34.79,16.195-53.385,16.195
	c-18.296,0-36.891-5.399-53.087-16.195c-22.494-14.698-50.987-14.698-73.481,0c-16.496,10.797-35.09,16.195-53.986,16.195
	c-17.994,0-36.589-5.399-52.486-16.195c-22.494-14.698-50.987-14.698-73.481,0c-32.392,21.593-74.079,21.593-106.472,0
	c-4.199-2.7-9.399-4.8-13.896-6.599c-7.798-2.998-11.697-11.697-8.697-19.496c2.998-7.498,12.696-11.395,20.494-8.397
	c6.599,2.4,12.897,5.699,18.595,9.597c22.494,14.696,50.987,14.696,73.481,0c32.392-21.595,74.079-21.595,106.472,0
	c11.097,7.198,23.695,11.097,35.991,11.097c13.197,0,26.093-3.599,37.49-11.097c32.392-21.595,74.079-21.595,106.472,0
	c22.494,14.696,50.987,14.696,73.481,0c5.399-3.599,11.097-6.599,16.796-8.998c7.498-3.3,17.495,0.599,20.496,8.097
	C514.076,477.591,510.477,486.29,502.678,489.589z"/>
<path style="fill:#0095FF;" d="M502.678,489.589c-3.899,1.5-8.798,3.599-12.697,5.998c-16.195,10.797-34.79,16.195-53.385,16.195
	c-18.296,0-36.891-5.399-53.087-16.195c-22.494-14.698-50.987-14.698-73.481,0c-16.496,10.797-35.09,16.195-53.986,16.195V481.79
	c13.197,0,26.093-3.599,37.49-11.097c32.392-21.595,74.079-21.595,106.472,0c22.494,14.696,50.987,14.696,73.481,0
	c5.399-3.599,11.097-6.599,16.796-8.998c7.498-3.3,17.495,0.599,20.496,8.097C514.076,477.591,510.477,486.29,502.678,489.589z"/>
<g>
</g>
<g>
</g>
<g>
</g>
<g>
</g>
<g>
</g>
<g>
</g>
<g>
</g>
<g>
</g>
<g>
</g>
<g>
</g>
<g>
</g>
<g>
</g>
<g>
</g>
<g>
</g>
<g>
</g>
</svg>
