<?xml version="1.0" encoding="utf-8"?>
<!-- Generator: Adobe Illustrator 19.0.0, SVG Export Plug-In . SVG Version: 6.00 Build 0)  -->
<svg version="1.1" id="Layer_1" xmlns="http://www.w3.org/2000/svg" xmlns:xlink="http://www.w3.org/1999/xlink" x="0px" y="0px"
	 viewBox="-276 278 58 58" style="enable-background:new -276 278 58 58;" xml:space="preserve">
<style type="text/css">
	.st0{fill:#FBCE9D;}
	.st1{fill:#F7B563;}
</style>
<g>
	<title>Layer 1</title>
	<g id="svg_1">
		<g id="svg_2">
			<g id="svg_3">
			</g>
			<path class="st0" d="M-264.6,325.6c0.3-2.8-0.1-5.7-0.9-8.4C-265.2,319.9-264.9,322.8-264.6,325.6z"/>
			<path class="st0" d="M-226,287l-4.8,1c-2.5,0.5-5-1.3-5.2-3.9l-1-4.4c-3.1-1.1-6.5-1.8-10-1.8c-3.6,0-7.1,0.7-10.3,1.9
				c-0.4,2.4-0.8,4.3-0.8,4.3c-0.2,2.6-2.6,4.4-5.2,3.9l-4.8-1c-3.5,3.7-6,8.3-7.2,13.4c3.2,0.9,6.3,2.5,7.8,5
				c6.2,6.9,8.7,17.7,5.4,26.4c4.4,2.7,9.5,4.2,15,4.2c6.3,0,12.2-2,16.9-5.5c-0.1-2.5-0.3-5.1-0.3-7.6c-1.5-6.1-0.4-12.7,3.7-17.4
				c1.5-2.7,4.6-4.3,7.9-5.2C-220,295.3-222.5,290.7-226,287z"/>
			<path id="svg_10_2_" class="st1" d="M-235,311c-0.6,0-1-0.4-1-1"/>
			<path id="svg_11" class="st1" d="M-252,293c-0.3,0-0.5-0.1-0.7-0.3c-1.3-1.3-3-1.8-5.2-1.7c-0.6,0-1-0.4-1.1-0.9
				c0-0.6,0.4-1,0.9-1.1c2.8-0.2,5.1,0.6,6.8,2.3c0.4,0.4,0.4,1,0,1.4C-251.5,292.9-251.7,293-252,293z"/>
			<path id="svg_12" class="st1" d="M-262.2,307.8c-0.6,0-1-0.4-1-1c0-1.8-0.8-3.4-2.5-4.9c-0.4-0.4-0.5-1-0.1-1.4
				c0.4-0.4,1-0.5,1.4-0.1c2.1,1.9,3.2,4,3.2,6.4C-261.2,307.4-261.6,307.8-262.2,307.8z"/>
			<path id="svg_13" class="st1" d="M-231,308c-0.5,0-1-0.4-1-0.9c-0.2-2.8,0.6-5.1,2.3-6.8c0.4-0.4,1-0.4,1.4,0
				c0.4,0.4,0.4,1,0,1.4c-1.3,1.3-1.8,3-1.7,5.2C-229.9,307.5-230.4,308-231,308C-230.9,308-231,308-231,308z"/>
			<path id="svg_14" class="st1" d="M-242.5,293c-0.3,0-0.5-0.1-0.7-0.3c-0.4-0.4-0.4-1,0-1.4c1.6-1.6,4.3-2.5,7.3-2.3
				c0.6,0,1,0.5,0.9,1.1c0,0.6-0.5,1-1.1,0.9c-2.4-0.1-4.6,0.5-5.8,1.7C-242,292.9-242.3,293-242.5,293z"/>
			<path id="svg_15" class="st1" d="M-246.2,325.6c-0.6,0-1-0.4-1-1v-2c0-0.6,0.4-1,1-1s1,0.4,1,1v2
				C-245.2,325.2-245.6,325.6-246.2,325.6z"/>
			<path id="svg_16" class="st1" d="M-234.9,332.6c-4.3,0-8-3.8-8-8c0-0.6,0.4-1,1-1s1,0.4,1,1c0,3.2,2.8,6,6,6c0.6,0,1,0.4,1,1
				S-234.3,332.6-234.9,332.6z"/>
			<path id="svg_17" class="st1" d="M-258.1,332.6c-0.6,0-1-0.4-1-1s0.4-1,1-1c3.2,0,6-2.8,6-6c0-0.6,0.4-1,1-1s1,0.4,1,1
				C-250.1,328.9-253.8,332.6-258.1,332.6z"/>
			<path id="svg_18" class="st1" d="M-254,288c-0.6,0-1-0.4-1-1v-2c0-0.6,0.4-1,1-1s1,0.4,1,1v2C-253,287.6-253.4,288-254,288z"/>
			<path id="svg_19" class="st1" d="M-240,288c-0.6,0-1-0.4-1-1v-2c0-0.6,0.4-1,1-1s1,0.4,1,1v2C-239,287.6-239.4,288-240,288z"/>
		</g>
	</g>
</g>
<path class="st1" d="M-238.7,310.6c2.9,0.1,5.1,0.7,6.5,1.2c-0.3,0.5-0.6,1-0.9,1.6c-1.2-0.5-3.1-1-5.6-1.1c-1.6,0-3,0.1-4.1,0.2
	v-1.7c1-0.1,2.1-0.2,3.4-0.2C-239.2,310.6-239,310.6-238.7,310.6z"/>
<path class="st1" d="M-234.7,315.9c-0.3,0.5-0.7,1-1,1.5c-1.2-0.5-2.9-1.2-4.5-1.5c-1-0.2-1.9-0.2-2.7-0.2V314c0.9,0,2,0.1,3.1,0.3
	C-237.9,314.5-236,315.3-234.7,315.9z"/>
<path class="st1" d="M-238.2,320.5c-0.5-0.4-1.2-1-2.3-1.3c-0.8-0.2-1.6-0.4-2.4-0.4v-1.7c1,0.1,2,0.2,3.1,0.6
	c1.4,0.4,2.3,1.1,3,1.6c0,0,0,0,0,0C-237.4,319.5-237.9,319.9-238.2,320.5z"/>
<path class="st1" d="M-238.9,320.9c0.2,0,0.4,0,0.5-0.1c-0.2,0.5-0.4,1.1-0.4,1.8c0,0-0.1,0-0.1,0c-0.8,0-1.5-0.1-2.3-0.4l-1.7-0.6
	v-1.9l2.5,0.8C-239.9,320.8-239.4,320.9-238.9,320.9z"/>
<path class="st1" d="M-235.2,306.2c2.2,0,4,0.3,5.2,0.7c-0.2,0.6-0.4,1.1-0.6,1.6c-1.2-0.3-3.1-0.7-5.4-0.6c-2.4,0.1-5,1-6.9,1.7
	v-1.9c1.9-0.7,4.4-1.4,6.8-1.5C-235.8,306.3-235.5,306.2-235.2,306.2z"/>
<path class="st1" d="M-234.9,291.4c0.2,0.7,0.6,1.3,1.1,1.6c-0.2,0-0.4,0-0.7,0.1c-2,0.4-3.7,1.6-4.6,2.3c-1.5,1.2-2.9,2.9-3.9,4.4
	v-3.2c0.7-0.9,1.6-1.7,2.4-2.4C-239.4,293.3-237.4,291.9-234.9,291.4C-234.9,291.4-234.9,291.4-234.9,291.4z"/>
<path class="st1" d="M-229.4,296.7c0.1,0.6,0.2,1.3,0.3,2c-0.7-0.4-2-0.8-4.3-0.8c-2.8,0-6.8,3-9.5,5.3v-2.5
	c2.7-2.2,6.3-4.6,9.5-4.6C-231.7,296.2-230.4,296.4-229.4,296.7z"/>
<path class="st1" d="M-233.7,301.5c2.1,0,3.6,0.3,4.6,0.8c0,0.7-0.1,1.3-0.2,1.9c-0.8-0.5-2.5-1.1-5.8-0.9c-3.1,0.2-5.9,1.9-7.7,3.2
	v-2.2c2-1.3,4.6-2.5,7.5-2.7C-234.8,301.5-234.2,301.5-233.7,301.5z"/>
<path class="st1" d="M-254.3,311.6c-2.9,0.1-5.1,0.7-6.5,1.2c0.3,0.5,0.6,1,0.9,1.6c1.2-0.5,3.1-1,5.6-1.1c1.6,0,3,0.1,4.1,0.2v-1.7
	c-1-0.1-2.1-0.2-3.4-0.2C-253.8,311.6-254,311.6-254.3,311.6z"/>
<path class="st1" d="M-258.3,316.9c0.3,0.5,0.7,1,1,1.5c1.2-0.5,2.9-1.2,4.5-1.5c1-0.2,1.9-0.2,2.7-0.2V315c-0.9,0-2,0.1-3.1,0.3
	C-255.1,315.5-257,316.3-258.3,316.9z"/>
<path class="st1" d="M-254.8,321.5c0.5-0.4,1.2-1,2.3-1.3c0.8-0.2,1.6-0.4,2.4-0.4v-1.7c-1,0.1-2,0.2-3.1,0.6
	c-1.4,0.4-2.3,1.1-3,1.6c0,0,0,0,0,0C-255.6,320.5-255.1,321-254.8,321.5z"/>
<path class="st1" d="M-254.1,321.9c-0.2,0-0.4,0-0.5-0.1c0.2,0.5,0.4,1.1,0.4,1.8c0,0,0.1,0,0.1,0c0.8,0,1.5-0.1,2.3-0.4l1.7-0.6
	v-1.9l-2.5,0.8C-253.1,321.8-253.6,321.9-254.1,321.9z"/>
<path class="st1" d="M-257.8,307.2c-2.2,0-4,0.3-5.2,0.7c0.2,0.6,0.4,1.1,0.6,1.6c1.2-0.3,3.1-0.7,5.4-0.6c2.4,0.1,5,1,6.9,1.7v-1.9
	c-1.9-0.7-4.4-1.4-6.8-1.5C-257.2,307.3-257.5,307.2-257.8,307.2z"/>
<path class="st1" d="M-258.1,292.4c-0.2,0.7-0.6,1.3-1.1,1.6c0.2,0,0.4,0,0.7,0.1c2,0.4,3.7,1.6,4.6,2.3c1.5,1.2,2.9,2.9,3.9,4.4
	v-3.2c-0.7-0.9-1.6-1.7-2.4-2.4C-253.6,294.3-255.6,292.9-258.1,292.4C-258.1,292.4-258.1,292.4-258.1,292.4z"/>
<path class="st1" d="M-263.6,297.7c-0.1,0.6-0.2,1.3-0.3,2c0.7-0.4,2-0.8,4.3-0.8c2.8,0,6.8,3,9.5,5.3v-2.5
	c-2.7-2.2-6.3-4.6-9.5-4.6C-261.3,297.2-262.6,297.4-263.6,297.7z"/>
<path class="st1" d="M-259.3,302.5c-2.1,0-3.6,0.3-4.6,0.8c0,0.7,0.1,1.3,0.2,1.9c0.8-0.5,2.5-1.1,5.8-0.9c3.1,0.2,5.9,1.9,7.7,3.2
	v-2.2c-2-1.3-4.6-2.5-7.5-2.7C-258.2,302.5-258.8,302.5-259.3,302.5z"/>
</svg>
