<?xml version="1.0" encoding="utf-8"?>
<!-- Generator: Adobe Illustrator 23.1.0, SVG Export Plug-In . SVG Version: 6.00 Build 0)  -->
<svg version="1.1" id="Layer_1" xmlns="http://www.w3.org/2000/svg" xmlns:xlink="http://www.w3.org/1999/xlink" x="0px" y="0px"
	 viewBox="0 0 512 512" style="enable-background:new 0 0 512 512;" xml:space="preserve">
<style type="text/css">
	.st0{fill:#E2A58A;}
	.st1{fill:#F9CD45;}
	.st2{fill:#F8B53C;}
	.st3{fill:#ECEDEF;}
	.st4{fill:#F0BCA6;}
	.st5{fill:#FFF4F1;}
	.st6{fill:#E6B09A;}
	.st7{fill:#868686;}
	.st8{fill:#F8A814;}
</style>
<path class="st0" d="M217.4,501.9c-2.1-5.8-5.4-11-9.8-15.4L99.8,378.7c-2.9-2.9-7.5-2.9-10.5-0.2c-14.5,13.7-29.3,27.5-43.5,41
	l-8,7.5c-1.5,1.4-2.3,3.3-2.4,5.4s0.8,4,2.2,5.4l72,72c1.4,1.4,3.3,2.2,5.3,2.2h95.3c2.5,0,4.8-1.2,6.2-3.2S218.3,504.2,217.4,501.9
	z"/>
<path class="st1" d="M441.3,49C409.7,17.4,367.9,0,323.5,0s-86.2,17.4-117.8,49s-49,73.4-49,117.8v238.3c0,4.2,3.4,7.5,7.5,7.5
	h318.4c4.2,0,7.5-3.4,7.5-7.5V166.7C490.3,122.4,472.9,80.6,441.3,49z"/>
<path class="st2" d="M441.3,49C409.7,17.4,367.9,0,323.5,0c-3.9,0-7.7,0.1-11.5,0.4c40,2.8,77.4,19.7,106.2,48.6
	c31.6,31.6,49,73.4,49,117.8v238.3c0,4.2-3.4,7.5-7.5,7.5h23.1c4.2,0,7.5-3.4,7.5-7.5V166.7C490.3,122.4,472.9,80.6,441.3,49z"/>
<path class="st3" d="M323.5,51c-3.9,0-7.7,0.1-11.5,0.3c86.6,4.5,155.2,59.6,155.2,126.6v29.5c0,2.1-0.8,3.9-2.2,5.3
	c1.4,1.4,3.3,2.2,5.4,2.2h12.4c4.2,0,7.5-3.4,7.5-7.5v-29.5C490.3,107.9,415.5,51,323.5,51z"/>
<path class="st4" d="M511.7,482.5c-0.1-43.7-17.4-84.9-48.6-115.9c-31.1-30.9-72.2-47.9-115.7-47.9c-0.2,0-0.3,0-0.5,0l-53.8,0.2
	c-43.7,0.1-84.9,17.4-115.9,48.6s-48,72.5-47.9,116.2l0.1,20.5c0,4.1,3.4,7.5,7.5,7.5h367.3c2,0,3.9-0.8,5.3-2.2s2.2-3.3,2.2-5.3
	L511.7,482.5z"/>
<path class="st0" d="M511.7,482.5c-0.1-43.7-17.4-84.9-48.6-115.9c-31.1-30.9-72.2-47.9-115.7-47.9c-0.2,0-0.3,0-0.5,0l-18.4,0.1
	c41.9,1.1,81.4,17.9,111.4,47.8c31.2,31,48.5,72.2,48.6,115.9l0.1,21.6c0,2-0.8,3.9-2.2,5.3c-1.4,1.4-3.3,2.2-5.3,2.2h23.1
	c2,0,3.9-0.8,5.3-2.2c1.4-1.4,2.2-3.3,2.2-5.3L511.7,482.5z"/>
<path class="st5" d="M407.4,496.9c-26.9-7.8-54.2-26.4-75.1-51c-21-24.8-33.1-53.1-33.2-77.8c0-13.4,1.7-26.8,5.1-39.7
	c0.6-2.3,0.1-4.7-1.3-6.5c-1.4-1.8-3.6-2.9-6-2.9c0,0,0,0,0,0l-3.7,0c-43.7,0.1-84.9,17.4-115.9,48.6c-31,31.2-48,72.5-47.9,116.2
	l0.1,20.5c0,4.1,3.4,7.5,7.5,7.5h268.3c3.7,0,6.9-2.8,7.5-6.5C413.3,501.4,411,497.9,407.4,496.9z"/>
<path class="st3" d="M407.4,496.9c-26.9-7.8-54.2-26.4-75.1-51c-21-24.8-33.1-53.1-33.2-77.8c0-13.4,1.7-26.8,5.1-39.7
	c0.6-2.3,0.1-4.7-1.3-6.5c-1.4-1.8-3.6-2.9-6-2.9c0,0,0,0,0,0l-3.7,0c-5.3,0-10.7,0.3-15.9,0.8c1,0.5,1.9,1.2,2.5,2.1
	c1.4,1.9,1.9,4.3,1.3,6.5c-3.4,12.9-5.1,26.3-5.1,39.7c0.1,24.7,12.2,53.1,33.2,77.8c20.9,24.6,48.2,43.2,75.1,51
	c3.6,1,5.9,4.6,5.4,8.3c-0.5,3.7-3.7,6.5-7.5,6.5h23.1c3.7,0,6.9-2.8,7.5-6.5C413.3,501.4,411,497.9,407.4,496.9z"/>
<path class="st4" d="M195.1,165.5c-0.1,0-0.1,0-0.2,0c-28.1,0.1-50.9,23-50.8,51.1c0,13.6,5.4,26.4,15,36s22.4,14.8,35.9,14.8h0.2
	c28.1-0.1,50.9-23,50.8-51.1C246,188.2,223.1,165.5,195.1,165.5z"/>
<path class="st4" d="M451,164.7c-0.1,0-0.1,0-0.2,0c-28.1,0.1-50.9,23-50.8,51.1c0,13.6,5.4,26.4,15,36s22.4,14.8,35.9,14.8h0.2
	c28.1-0.1,50.9-23,50.8-51.1C501.9,187.4,479.1,164.7,451,164.7z"/>
<path class="st4" d="M456.5,162c-0.1-26-21.3-47.2-47.3-47.2H235.8c-12.7,0-24.6,4.9-33.5,13.9s-13.9,20.9-13.8,33.6l0.2,92.1
	c0.2,73.8,60.3,133.6,134,133.6h0.4c73.9-0.2,133.9-60.5,133.7-134.4L456.5,162z"/>
<path class="st6" d="M456.5,162c-0.1-26-21.3-47.2-47.3-47.2h-23.1c26,0,47.3,21.2,47.3,47.2l0.2,91.5
	c0.2,70.2-53.8,128.1-122.5,133.9c3.8,0.3,7.6,0.5,11.5,0.5h0.4c73.9-0.2,133.9-60.5,133.7-134.4L456.5,162z"/>
<path class="st0" d="M322.5,309.9c-9.8,0-19.2-3.6-26.4-10.3c-3.1-2.8-3.3-7.6-0.5-10.6c2.8-3.1,7.6-3.3,10.6-0.5
	c4.4,4.1,10.2,6.3,16.2,6.3h0.1c6.1,0,11.8-2.3,16.3-6.4c3.1-2.8,7.8-2.6,10.6,0.4c2.8,3.1,2.6,7.8-0.4,10.6
	c-7.2,6.7-16.6,10.4-26.4,10.4C322.6,309.9,322.5,309.9,322.5,309.9z"/>
<path class="st7" d="M291.1,226.4c0-7-5.7-12.6-12.7-12.6s-12.6,5.7-12.6,12.7s5.7,12.6,12.7,12.6S291.1,233.4,291.1,226.4z"/>
<path class="st7" d="M380.6,226.1c0-7-5.7-12.7-12.7-12.6c-7,0-12.7,5.7-12.6,12.7c0,7,5.7,12.7,12.7,12.6
	C375,238.8,380.6,233.1,380.6,226.1z"/>
<path class="st8" d="M55.5,510.4c-1.1,0-2.2-0.2-3.2-0.7c-3.8-1.8-5.4-6.3-3.6-10c17.1-36.3,27.6-76.2,31.4-118.6
	c3-34,1.7-69.7-4-106c-9.6-61.9-28.6-104.6-28.8-105c-1.7-3.8,0-8.3,3.8-10s8.3,0,10,3.8c0.8,1.8,20,45,29.9,108.9
	c5.8,37.6,7.2,74.5,4.1,109.7c-3.9,44.2-14.9,85.8-32.8,123.7C61,508.8,58.3,510.4,55.5,510.4z"/>
<path class="st2" d="M132.8,178.5c-0.4-3.4-3.1-6.1-6.5-6.5c-1.2-0.1-28.9-3.4-44.9,12.6c-7.7,7.7-12,15.6-12.8,23.5
	c-0.8,7.7,1.8,15.1,7.5,20.8c5,5,11.3,7.6,17.9,7.6c0.9,0,1.9-0.1,2.9-0.2c7.9-0.9,15.8-5.2,23.4-12.9
	C136.2,207.4,132.9,179.7,132.8,178.5z"/>
<path class="st1" d="M77,208.6c-3.5-7.1-10.3-13-20.2-17.6c-20.5-9.4-45.4,3.2-46.5,3.8c-3.1,1.6-4.7,5-3.9,8.4
	c0.3,1.1,6.8,28.3,27.3,37.8c6.9,3.2,13.4,4.8,19.3,4.8c2.5,0,4.9-0.3,7.2-0.9c7.6-1.9,13.6-6.9,16.9-14.2
	C80.6,223.5,80.5,215.6,77,208.6z"/>
<path class="st1" d="M145.8,246.3c-0.4-3.4-3.1-6.1-6.5-6.5c-1.2-0.1-28.9-3.4-44.9,12.6c-7.7,7.7-12,15.6-12.8,23.5
	c-0.8,7.7,1.8,15.1,7.5,20.8c5,5,11.3,7.6,17.9,7.6c0.9,0,1.9-0.1,2.9-0.2c7.9-0.9,15.8-5.2,23.4-12.9
	C149.2,275.2,145.9,247.4,145.8,246.3z"/>
<path class="st2" d="M90,276.4c-3.6-7.1-10.3-13-20.2-17.6c-20.5-9.4-45.4,3.2-46.5,3.8c-3.1,1.6-4.7,5-3.9,8.4
	c0.3,1.2,6.8,28.3,27.3,37.8c6.9,3.2,13.4,4.8,19.3,4.8c2.5,0,4.9-0.3,7.2-0.9c7.6-1.9,13.6-6.9,16.9-14.2S93.5,283.4,90,276.4z"/>
<path class="st2" d="M146.3,321.7c-1.1-0.3-27.9-8.4-46.4,4.5c-8.9,6.2-14.5,13.2-16.8,20.8c-2.2,7.5-0.9,15.2,3.7,21.8
	c4.6,6.6,11.4,10.5,19.2,11c0.6,0,1.3,0.1,1.9,0.1c7.4,0,15.3-2.9,23.5-8.6c18.5-12.9,20.2-40.8,20.3-42
	C151.7,325.9,149.5,322.8,146.3,321.7z"/>
<g>
	<path class="st1" d="M91.3,349.1c-2.2-7.6-7.9-14.6-16.8-20.9c-18.5-12.9-45.3-4.9-46.4-4.5c-3.3,1-5.5,4.1-5.3,7.6
		c0.1,1.2,1.7,29.1,20.2,42c8.2,5.7,16.1,8.6,23.5,8.6c0.6,0,1.2,0,1.9-0.1c7.8-0.5,14.6-4.4,19.2-11
		C92.2,364.3,93.5,356.6,91.3,349.1z"/>
	<path class="st1" d="M144.8,409.7c-1-0.5-25.9-13.3-46.4-3.9c-9.9,4.5-16.7,10.4-20.2,17.5c-3.5,7-3.6,14.8-0.3,22.1
		c3.3,7.3,9.3,12.3,16.9,14.3c2.3,0.6,4.7,0.9,7.3,0.9c5.9,0,12.3-1.6,19.2-4.7c20.5-9.4,27.2-36.5,27.4-37.7
		C149.5,414.7,147.9,411.3,144.8,409.7z"/>
	<path class="st1" d="M85.9,426.8c-0.8-7.9-5.1-15.8-12.8-23.5c-15.9-16-43.7-12.9-44.8-12.7c-3.4,0.4-6.1,3.1-6.6,6.5
		c-0.2,1.2-3.5,28.9,12.4,44.9c7.6,7.7,15.5,12.1,23.4,12.9c1,0.1,2,0.2,2.9,0.2c6.7,0,12.9-2.6,17.9-7.6
		C84,441.9,86.7,434.5,85.9,426.8z"/>
	<path class="st1" d="M67.3,127.6c-9.5-20.5-36.7-26.9-37.9-27.2c-3.4-0.8-6.8,0.8-8.4,3.9c-0.5,1.1-13.1,26-3.6,46.5
		c4.6,9.8,10.5,16.6,17.6,20.1c3.5,1.7,7.3,2.6,11.1,2.6c3.7,0,7.4-0.8,11-2.5c7.3-3.4,12.3-9.4,14.1-17
		C73.2,146.3,71.8,137.4,67.3,127.6z"/>
</g>
<path class="st4" d="M121.8,383.9c-3.6-11.4-11.5-20.6-22.1-26.1s-22.8-6.5-34.1-2.9l-33.3,10.6C8.8,373-4.3,398.2,3.2,421.7
	c3.6,11.4,11.5,20.6,22.1,26.1c6.5,3.4,13.5,5.1,20.6,5.1c4.5,0,9.1-0.7,13.6-2.1l33.3-10.6C116.2,432.6,129.2,407.4,121.8,383.9z"
	/>
<path class="st6" d="M121.8,383.9c-3.6-11.4-11.5-20.6-22.1-26.1c-10-5.2-21.4-6.4-32.1-3.5c3.1,0.8,6.1,2,9.1,3.5
	c10.6,5.5,18.5,14.8,22.1,26.1c7.5,23.5-5.6,48.8-29.1,56.2l-33.3,10.6c-0.7,0.2-1.3,0.4-2,0.6c3.8,1,7.6,1.5,11.5,1.5
	c4.5,0,9.1-0.7,13.6-2.1l33.3-10.6C116.2,432.6,129.2,407.4,121.8,383.9z"/>
<path class="st5" d="M323.5,51c-91.9,0-166.7,56.9-166.7,126.9v29.5c0,4.2,3.4,7.5,7.5,7.5h12.4c2.7,0,5.2-1.5,6.6-3.8
	c10.5-18.7,28.6-32.7,53.8-41.8c23.1-8.3,52.2-12.5,86.5-12.5s63.4,4.2,86.5,12.5c25.2,9.1,43.3,23.1,53.8,41.8
	c1.3,2.4,3.8,3.8,6.6,3.8h12.4c4.2,0,7.5-3.4,7.5-7.5v-29.5C490.3,107.9,415.5,51,323.5,51z"/>
</svg>
