<?xml version="1.0" encoding="UTF-8"?>
<!-- Generator: Adobe Illustrator 19.0.0, SVG Export Plug-In . SVG Version: 6.00 Build 0)  -->
<svg version="1.1" id="Layer_1" xmlns="http://www.w3.org/2000/svg" xmlns:xlink="http://www.w3.org/1999/xlink" x="0px" y="0px" viewBox="-139 141 512 512" style="enable-background:new -139 141 512 512;" xml:space="preserve">
<style type="text/css">
	.st0{fill:#E2A58A;}
	.st1{fill:#F9CD45;}
	.st2{fill:#F8B53C;}
	.st3{fill:#ECEDEF;}
	.st4{fill:#F0BCA6;}
	.st5{fill:#E0C0DC;}
	.st6{fill:#79287C;}
	.st7{fill:#E6B09A;}
	.st8{fill:#868686;}
	.st9{fill:#F8A814;}
	.st10{fill:#A95CA4;}
	.st11{fill:#ED9A00;}
	.st12{fill:#FFDF59;}
	.st13{fill:#F69180;}
</style>
<path class="st0" d="M77.4,642.8c-2.1-5.8-5.4-11-9.8-15.4L-40.2,519.7c-2.9-2.9-7.5-2.9-10.5-0.2c-14.5,13.7-29.3,27.5-43.5,41  l-8,7.5c-1.5,1.4-2.3,3.3-2.4,5.4c-0.1,2.1,0.8,4,2.2,5.4l72,72c1.4,1.4,3.3,2.2,5.3,2.2h95.3c2.5,0,4.8-1.2,6.2-3.2  S78.3,645.2,77.4,642.8z"/>
<path class="st1" d="M301.3,189.9c-31.6-31.6-73.4-49-117.8-49s-86.2,17.4-117.8,49s-49,73.4-49,117.8V546c0,4.2,3.4,7.5,7.5,7.5  h318.4c4.2,0,7.5-3.4,7.5-7.5V307.6C350.3,263.3,332.9,221.5,301.3,189.9z"/>
<path class="st2" d="M301.3,189.9c-31.6-31.6-73.4-49-117.8-49c-3.9,0-7.7,0.1-11.5,0.4c40,2.8,77.4,19.7,106.2,48.6  c31.6,31.6,49,73.4,49,117.8V546c0,4.2-3.4,7.5-7.5,7.5h23.1c4.2,0,7.5-3.4,7.5-7.5V307.6C350.3,263.3,332.9,221.5,301.3,189.9z"/>
<path class="st3" d="M183.5,191.9c-3.9,0-7.7,0.1-11.5,0.3c86.6,4.5,155.2,59.6,155.2,126.6v29.5c0,2.1-0.8,3.9-2.2,5.3  c1.4,1.4,3.3,2.2,5.4,2.2h12.4c4.2,0,7.5-3.4,7.5-7.5v-29.5C350.3,248.8,275.5,191.9,183.5,191.9z"/>
<path class="st4" d="M371.7,623.4c-0.1-43.7-17.4-84.9-48.6-115.9c-31.1-30.9-72.2-47.9-115.7-47.9c-0.2,0-0.3,0-0.5,0l-53.8,0.2  c-43.7,0.1-84.9,17.4-115.9,48.6s-48,72.5-47.9,116.2l0.1,20.5c0,4.1,3.4,7.5,7.5,7.5h367.3c2,0,3.9-0.8,5.3-2.2s2.2-3.3,2.2-5.3  L371.7,623.4z"/>
<path class="st0" d="M371.7,623.4c-0.1-43.7-17.4-84.9-48.6-115.9c-31.1-30.9-72.2-47.9-115.7-47.9c-0.2,0-0.3,0-0.5,0l-18.4,0.1  c41.9,1.1,81.4,17.9,111.4,47.8c31.2,31,48.5,72.2,48.6,115.9l0.1,21.6c0,2-0.8,3.9-2.2,5.3c-1.4,1.4-3.3,2.2-5.3,2.2h23.1  c2,0,3.9-0.8,5.3-2.2s2.2-3.3,2.2-5.3L371.7,623.4z"/>
<path class="st5" d="M190.4,652.9c-19.1-8.3-38.3-26.4-53-50c-15.5-24.8-24.5-53.1-24.5-77.8c0-13.4,1.2-26.8,3.8-39.7  c0.4-2.3,0.1-4.7-1-6.5s-2.7-2.9-4.4-2.9l0,0h-2.8c-32.3,0.1-62.7,17.4-85.6,48.6C0,555.8-12.6,597.2-12.5,640.8v12.2h202.9V652.9z"/>
<path class="st4" d="M55.1,306.4c-0.1,0-0.1,0-0.2,0c-28.1,0.1-50.9,23-50.8,51.1c0,13.6,5.4,26.4,15,36s22.4,14.8,35.9,14.8h0.2  c28.1-0.1,50.9-23,50.8-51.1C106,329.1,83.1,306.4,55.1,306.4z"/>
<path class="st4" d="M311,305.6c-0.1,0-0.1,0-0.2,0c-28.1,0.1-50.9,23-50.8,51.1c0,13.6,5.4,26.4,15,36s22.4,14.8,35.9,14.8h0.2  c28.1-0.1,50.9-23,50.8-51.1C361.9,328.3,339.1,305.6,311,305.6z"/>
<path class="st5" d="M373,603.8c-5-30.2-16.1-58-32.4-80.7c-22.9-31.7-53.3-49.3-85.6-49.4h-2.8l0,0c-1.7,0-3.4,1.1-4.4,3  c-1.1,1.9-1.4,4.3-1,6.6c2.5,13.1,3.8,26.7,3.8,40.4c-0.1,25.1-9,54-24.5,79.2c-14.4,23.3-32.9,41.3-51.4,50.1H373V603.8z"/>
<path class="st6" d="M107.2,652.9c-2.1-7.2-3.7-14.4-5-21.8c-5.8-43.2-5.2-87,1.7-130c-0.9-19.1-28.6-40.7-42.5-9.5  c-10.6,24-7.5,103.6,5.9,161.2L107.2,652.9L107.2,652.9z"/>
<path class="st4" d="M316.5,302.9c-0.1-26-21.3-47.2-47.3-47.2H95.8c-12.7,0-24.6,4.9-33.5,13.9s-13.9,20.9-13.8,33.6l0.2,92.1  c0.2,73.8,60.3,133.6,134,133.6h0.4c73.9-0.2,133.9-60.5,133.7-134.4L316.5,302.9z"/>
<path class="st7" d="M316.5,302.9c-0.1-26-21.3-47.2-47.3-47.2h-23.1c26,0,47.3,21.2,47.3,47.2l0.2,91.5  c0.2,70.2-53.8,128.1-122.5,133.9c3.8,0.3,7.6,0.5,11.5,0.5h0.4c73.9-0.2,133.9-60.5,133.7-134.4L316.5,302.9z"/>
<path class="st0" d="M182.5,450.8c-9.8,0-19.2-3.6-26.4-10.3c-3.1-2.8-3.3-7.6-0.5-10.6c2.8-3.1,7.6-3.3,10.6-0.5  c4.4,4.1,10.2,6.3,16.2,6.3h0.1c6.1,0,11.8-2.3,16.3-6.4c3.1-2.8,7.8-2.6,10.6,0.4c2.8,3.1,2.6,7.8-0.4,10.6  c-7.2,6.7-16.6,10.4-26.4,10.4C182.6,450.8,182.5,450.8,182.5,450.8z"/>
<path class="st8" d="M151.1,367.3c0-7-5.7-12.6-12.7-12.6s-12.6,5.7-12.6,12.7s5.7,12.6,12.7,12.6S151.1,374.3,151.1,367.3z"/>
<path class="st8" d="M240.6,367c0-7-5.7-12.7-12.7-12.6c-7,0-12.7,5.7-12.6,12.7c0,7,5.7,12.7,12.7,12.6  C235,379.7,240.6,374,240.6,367z"/>
<path class="st9" d="M-84.5,651.3c-1.1,0-2.2-0.2-3.2-0.7c-3.8-1.8-5.4-6.3-3.6-10c17.1-36.3,27.6-76.2,31.4-118.6  c3-34,1.7-69.7-4-106c-9.6-61.9-28.6-104.6-28.8-105c-1.7-3.8,0-8.3,3.8-10s8.3,0,10,3.8c0.8,1.8,20,45,29.9,108.9  c5.8,37.6,7.2,74.5,4.1,109.7c-3.9,44.2-14.9,85.8-32.8,123.7C-79,649.8-81.7,651.3-84.5,651.3z"/>
<path class="st2" d="M-7.2,319.4c-0.4-3.4-3.1-6.1-6.5-6.5c-1.2-0.1-28.9-3.4-44.9,12.6c-7.7,7.7-12,15.6-12.8,23.5  c-0.8,7.7,1.8,15.1,7.5,20.8c5,5,11.3,7.6,17.9,7.6c0.9,0,1.9-0.1,2.9-0.2c7.9-0.9,15.8-5.2,23.4-12.9  C-3.8,348.3-7.1,320.6-7.2,319.4z"/>
<path class="st1" d="M-63,349.5c-3.5-7.1-10.3-13-20.2-17.6c-20.5-9.4-45.4,3.2-46.5,3.8c-3.1,1.6-4.7,5-3.9,8.4  c0.3,1.1,6.8,28.3,27.3,37.8c6.9,3.2,13.4,4.8,19.3,4.8c2.5,0,4.9-0.3,7.2-0.9c7.6-1.9,13.6-6.9,16.9-14.2  C-59.4,364.4-59.5,356.5-63,349.5z"/>
<path class="st1" d="M5.8,387.2c-0.4-3.4-3.1-6.1-6.5-6.5c-1.2-0.1-28.9-3.4-44.9,12.6c-7.7,7.7-12,15.6-12.8,23.5  c-0.8,7.7,1.8,15.1,7.5,20.8c5,5,11.3,7.6,17.9,7.6c0.9,0,1.9-0.1,2.9-0.2c7.9-0.9,15.8-5.2,23.4-12.9  C9.2,416.1,5.9,388.3,5.8,387.2z"/>
<path class="st2" d="M-50,417.3c-3.6-7.1-10.3-13-20.2-17.6c-20.5-9.4-45.4,3.2-46.5,3.8c-3.1,1.6-4.7,5-3.9,8.4  c0.3,1.2,6.8,28.3,27.3,37.8c6.9,3.2,13.4,4.8,19.3,4.8c2.5,0,4.9-0.3,7.2-0.9c7.6-1.9,13.6-6.9,16.9-14.2S-46.5,424.3-50,417.3z"/>
<path class="st2" d="M6.3,462.6c-1.1-0.3-27.9-8.4-46.4,4.5c-8.9,6.2-14.5,13.2-16.8,20.8c-2.2,7.5-0.9,15.2,3.7,21.8  c4.6,6.6,11.4,10.5,19.2,11c0.6,0,1.3,0.1,1.9,0.1c7.4,0,15.3-2.9,23.5-8.6c18.5-12.9,20.2-40.8,20.3-42  C11.7,466.8,9.5,463.7,6.3,462.6z"/>
<g>
	<path class="st1" d="M-48.7,490c-2.2-7.6-7.9-14.6-16.8-20.9c-18.5-12.9-45.3-4.9-46.4-4.5c-3.3,1-5.5,4.1-5.3,7.6   c0.1,1.2,1.7,29.1,20.2,42c8.2,5.7,16.1,8.6,23.5,8.6c0.6,0,1.2,0,1.9-0.1c7.8-0.5,14.6-4.4,19.2-11   C-47.8,505.2-46.5,497.5-48.7,490z"/>
	<path class="st1" d="M4.8,550.7c-1-0.5-25.9-13.3-46.4-3.9c-9.9,4.5-16.7,10.4-20.2,17.5c-3.5,7-3.6,14.8-0.3,22.1   c3.3,7.3,9.3,12.3,16.9,14.3c2.3,0.6,4.7,0.9,7.3,0.9c5.9,0,12.3-1.6,19.2-4.7c20.5-9.4,27.2-36.5,27.4-37.7   C9.5,555.7,7.9,552.3,4.8,550.7z"/>
	<path class="st1" d="M-54.1,567.8c-0.8-7.9-5.1-15.8-12.8-23.5c-15.9-16-43.7-12.9-44.8-12.7c-3.4,0.4-6.1,3.1-6.6,6.5   c-0.2,1.2-3.5,28.9,12.4,44.9c7.6,7.7,15.5,12.1,23.4,12.9c1,0.1,2,0.2,2.9,0.2c6.7,0,12.9-2.6,17.9-7.6   C-56,582.8-53.3,575.4-54.1,567.8z"/>
	<path class="st1" d="M-72.7,268.5c-9.5-20.5-36.7-26.9-37.9-27.2c-3.4-0.8-6.8,0.8-8.4,3.9c-0.5,1.1-13.1,26-3.6,46.5   c4.6,9.8,10.5,16.6,17.6,20.1c3.5,1.7,7.3,2.6,11.1,2.6c3.7,0,7.4-0.8,11-2.5c7.3-3.4,12.3-9.4,14.1-17   C-66.8,287.2-68.2,278.3-72.7,268.5z"/>
</g>
<path class="st4" d="M-18.3,524.8c-3.6-11.4-11.5-20.6-22.1-26.1s-22.8-6.5-34.1-2.9l-33.3,10.6c-23.5,7.5-36.6,32.7-29.1,56.2  c3.6,11.4,11.5,20.6,22.1,26.1c6.5,3.4,13.5,5.1,20.6,5.1c4.5,0,9.1-0.7,13.6-2.1l33.3-10.6C-23.8,573.5-10.8,548.3-18.3,524.8z"/>
<path class="st7" d="M-18.3,524.8c-3.6-11.4-11.5-20.6-22.1-26.1c-10-5.2-21.4-6.4-32.1-3.5c3.1,0.8,6.1,2,9.1,3.5  c10.6,5.5,18.5,14.8,22.1,26.1c7.5,23.5-5.6,48.8-29.1,56.2l-33.3,10.6c-0.7,0.2-1.3,0.4-2,0.6c3.8,1,7.6,1.5,11.5,1.5  c4.5,0,9.1-0.7,13.6-2.1l33.3-10.6C-23.8,573.5-10.8,548.3-18.3,524.8z"/>
<path class="st1" d="M183.5,191.9c-91.9,0-166.7,56.9-166.7,126.9v29.5c0,4.2,3.4,7.5,7.5,7.5h12.4c2.7,0,5.2-1.5,6.6-3.8  c10.5-18.7,28.6-32.7,53.8-41.8c23.1-8.3,52.2-12.5,86.5-12.5s63.4,4.2,86.5,12.5c25.2,9.1,43.3,23.1,53.8,41.8  c1.3,2.4,3.8,3.8,6.6,3.8h12.4c4.2,0,7.5-3.4,7.5-7.5v-29.5C350.3,248.8,275.5,191.9,183.5,191.9z"/>
<path class="st10" d="M51.3,652.9h41.9C58,574.8,81.3,497.3,81.3,497.3c-14.1-33.3-42.8-8.1-42.8-8.1c-5.5,43.2-4.6,87,2.7,129.9  C43.6,630.7,47,641.9,51.3,652.9z"/>
<path class="st6" d="M64.1,652.9c-1.1-3.9-2.1-7.8-3-11.7c-7.9-42.8-9.5-86.6-4.6-129.9c-1.8-19-30.5-39.3-42.9-7.4  c-8.8,22.8-3.3,93.4,10.7,149H64.1z"/>
<path class="st11" d="M107.2,210.7v16.4H37.6v-16.4H107.2z"/>
<path class="st11" d="M124.9,245.1h-8.5c-9.8,0-17.7-7.9-17.7-17.7v-8.5h8.5c9.8,0,17.7,7.9,17.7,17.7  C124.9,236.6,124.9,245.1,124.9,245.1z"/>
<path class="st12" d="M124.9,245.1h-8.5c-9.8,0-17.7-7.9-17.7-17.7v-0.3h8.5c9.8,0,17.7,7.9,17.7,17.7  C124.9,244.8,124.9,245.1,124.9,245.1z"/>
<path class="st11" d="M107.2,218.9h-8.5v-8.5c0-9.8,7.9-17.7,17.7-17.7h8.5v8.5C124.9,211,117,218.9,107.2,218.9z"/>
<path class="st12" d="M107.2,218.9h-8.5v-0.6c0-9.8,7.9-17.7,17.7-17.7h8.5v0.6C124.9,211,117,218.9,107.2,218.9z"/>
<path class="st11" d="M29.2,218.9c0,0.8-0.1,1.5-0.3,2.3h0.5c1.2,0,2.3-1,2.3-2.3c0-1.2-1-2.3-2.3-2.3h-0.6  C29,217.4,29.1,218.2,29.2,218.9z"/>
<path class="st11" d="M101.8,245.1h-8.5c-9.8,0-17.7-7.9-17.7-17.7v-8.5h8.5c9.8,0,17.7,7.9,17.7,17.7V245.1z"/>
<path class="st12" d="M101.8,245.1h-8.5c-9.8,0-17.7-7.9-17.7-17.7v-0.3h8.5c9.8,0,17.7,7.9,17.7,17.7V245.1z"/>
<path class="st11" d="M84.1,218.9h-8.5v-8.5c0-9.8,7.9-17.7,17.7-17.7h8.5v8.5C101.8,211,93.8,218.9,84.1,218.9z"/>
<path class="st12" d="M84.1,218.9h-8.5v-0.6c0-9.8,7.9-17.7,17.7-17.7h8.5v0.6C101.8,211,93.8,218.9,84.1,218.9z"/>
<path class="st11" d="M78.6,245.1h-8.5c-9.8,0-17.7-7.9-17.7-17.7v-8.5h8.5c9.8,0,17.7,7.9,17.7,17.7V245.1z"/>
<path class="st12" d="M78.6,245.1h-8.5c-9.8,0-17.7-7.9-17.7-17.7v-0.3h8.5c9.8,0,17.7,7.9,17.7,17.7V245.1z"/>
<path class="st11" d="M60.9,218.9h-8.5v-8.5c0-9.8,7.9-17.7,17.7-17.7h8.5v8.5C78.6,211,70.7,218.9,60.9,218.9z"/>
<path class="st12" d="M60.9,218.9h-8.5v-0.6c0-9.8,7.9-17.7,17.7-17.7h8.5v0.6C78.6,211,70.7,218.9,60.9,218.9z"/>
<path class="st11" d="M37.7,218.9h-8.5v-8.5c0-9.8,7.9-17.7,17.7-17.7h8.5v8.5C55.5,211,47.5,218.9,37.7,218.9z"/>
<path class="st12" d="M37.7,218.9h-8.5v-0.6c0-9.8,7.9-17.7,17.7-17.7h8.5v0.6C55.5,211,47.5,218.9,37.7,218.9z"/>
<path class="st11" d="M55.5,245.1H47c-9.8,0-17.7-7.9-17.7-17.7v-8.5h8.5c9.8,0,17.7,7.9,17.7,17.7V245.1z"/>
<path class="st12" d="M55.5,245.1H47c-9.8,0-17.7-7.9-17.7-17.7v-0.3h8.5c9.8,0,17.7,7.9,17.7,17.7V245.1z"/>
<path class="st11" d="M198.4,212v16.4h-69.7V212H198.4z"/>
<path class="st11" d="M216.1,246.4h-8.5c-9.8,0-17.7-7.9-17.7-17.7v-8.5h8.5c9.8,0,17.7,7.9,17.7,17.7V246.4z"/>
<path class="st12" d="M216.1,246.4h-8.5c-9.8,0-17.7-7.9-17.7-17.7v-0.3h8.5c9.8,0,17.7,7.9,17.7,17.7V246.4z"/>
<path class="st11" d="M198.4,220.2h-8.5v-8.5c0-9.8,7.9-17.7,17.7-17.7h8.5v8.5C216.1,212.3,208.1,220.2,198.4,220.2z"/>
<path class="st12" d="M198.4,220.2h-8.5v-0.6c0-9.8,7.9-17.7,17.7-17.7h8.5v0.6C216.1,212.3,208.1,220.2,198.4,220.2z"/>
<path class="st11" d="M120.3,220.2c0,0.8-0.1,1.5-0.3,2.3h0.5c1.2,0,2.3-1,2.3-2.3c0-1.2-1-2.3-2.3-2.3h-0.6  C120.1,218.6,120.2,219.4,120.3,220.2z"/>
<path class="st11" d="M192.9,246.4h-8.5c-9.8,0-17.7-7.9-17.7-17.7v-8.5h8.5c9.8,0,17.7,7.9,17.7,17.7V246.4z"/>
<path class="st12" d="M192.9,246.4h-8.5c-9.8,0-17.7-7.9-17.7-17.7v-0.3h8.5c9.8,0,17.7,7.9,17.7,17.7V246.4z"/>
<path class="st11" d="M175.2,220.2h-8.5v-8.5c0-9.8,7.9-17.7,17.7-17.7h8.5v8.5C192.9,212.3,185,220.2,175.2,220.2z"/>
<path class="st12" d="M175.2,220.2h-8.5v-0.6c0-9.8,7.9-17.7,17.7-17.7h8.5v0.6C192.9,212.3,185,220.2,175.2,220.2z"/>
<path class="st11" d="M169.7,246.4h-8.5c-9.8,0-17.7-7.9-17.7-17.7v-8.5h8.5c9.8,0,17.7,7.9,17.7,17.7V246.4z"/>
<path class="st12" d="M169.7,246.4h-8.5c-9.8,0-17.7-7.9-17.7-17.7v-0.3h8.5c9.8,0,17.7,7.9,17.7,17.7V246.4z"/>
<path class="st11" d="M152,220.2h-8.5v-8.5c0-9.8,7.9-17.7,17.7-17.7h8.5v8.5C169.7,212.3,161.8,220.2,152,220.2z"/>
<path class="st12" d="M152,220.2h-8.5v-0.6c0-9.8,7.9-17.7,17.7-17.7h8.5v0.6C169.7,212.3,161.8,220.2,152,220.2z"/>
<path class="st11" d="M128.9,220.2h-8.5v-8.5c0-9.8,7.9-17.7,17.7-17.7h8.5v8.5C146.6,212.3,138.6,220.2,128.9,220.2z"/>
<path class="st12" d="M128.9,220.2h-8.5v-0.6c0-9.8,7.9-17.7,17.7-17.7h8.5v0.6C146.6,212.3,138.6,220.2,128.9,220.2z"/>
<path class="st11" d="M146.6,246.4h-8.5c-9.8,0-17.7-7.9-17.7-17.7v-8.5h8.5c9.8,0,17.7,7.9,17.7,17.7V246.4z"/>
<path class="st12" d="M146.6,246.4h-8.5c-9.8,0-17.7-7.9-17.7-17.7v-0.3h8.5c9.8,0,17.7,7.9,17.7,17.7V246.4z"/>
<path class="st11" d="M292,214.2v16.4h-69.7v-16.4H292z"/>
<path class="st11" d="M309.7,248.6h-8.5c-9.8,0-17.7-7.9-17.7-17.7v-8.5h8.5c9.8,0,17.7,7.9,17.7,17.7V248.6z"/>
<path class="st12" d="M309.7,248.6h-8.5c-9.8,0-17.7-7.9-17.7-17.7v-0.3h8.5c9.8,0,17.7,7.9,17.7,17.7V248.6z"/>
<path class="st11" d="M292,222.5h-8.5V214c0-9.8,7.9-17.7,17.7-17.7h8.5v8.5C309.7,214.5,301.8,222.5,292,222.5z"/>
<path class="st12" d="M292,222.5h-8.5v-0.6c0-9.8,7.9-17.7,17.7-17.7h8.5v0.6C309.7,214.5,301.8,222.5,292,222.5z"/>
<path class="st11" d="M213.9,222.5c0,0.8-0.1,1.5-0.3,2.3h0.5c1.2,0,2.3-1,2.3-2.3c0-1.2-1-2.3-2.3-2.3h-0.6  C213.7,220.9,213.9,221.7,213.9,222.5z"/>
<path class="st11" d="M286.5,248.6H278c-9.8,0-17.7-7.9-17.7-17.7v-8.5h8.5c9.8,0,17.7,7.9,17.7,17.7V248.6z"/>
<path class="st12" d="M286.5,248.6H278c-9.8,0-17.7-7.9-17.7-17.7v-0.3h8.5c9.8,0,17.7,7.9,17.7,17.7V248.6z"/>
<path class="st11" d="M268.8,222.5h-8.5V214c0-9.8,7.9-17.7,17.7-17.7h8.5v8.5C286.5,214.5,278.6,222.5,268.8,222.5z"/>
<path class="st12" d="M268.8,222.5h-8.5v-0.6c0-9.8,7.9-17.7,17.7-17.7h8.5v0.6C286.5,214.5,278.6,222.5,268.8,222.5z"/>
<path class="st11" d="M263.4,248.6h-8.5c-9.8,0-17.7-7.9-17.7-17.7v-8.5h8.5c9.8,0,17.7,7.9,17.7,17.7V248.6z"/>
<path class="st12" d="M263.4,248.6h-8.5c-9.8,0-17.7-7.9-17.7-17.7v-0.3h8.5c9.8,0,17.7,7.9,17.7,17.7V248.6z"/>
<path class="st11" d="M245.6,222.5h-8.5V214c0-9.8,7.9-17.7,17.7-17.7h8.5v8.5C263.4,214.5,255.4,222.5,245.6,222.5z"/>
<path class="st12" d="M245.6,222.5h-8.5v-0.6c0-9.8,7.9-17.7,17.7-17.7h8.5v0.6C263.4,214.5,255.4,222.5,245.6,222.5z"/>
<path class="st11" d="M222.5,222.5H214V214c0-9.8,7.9-17.7,17.7-17.7h8.5v8.5C240.2,214.5,232.3,222.5,222.5,222.5z"/>
<path class="st12" d="M222.5,222.5H214v-0.6c0-9.8,7.9-17.7,17.7-17.7h8.5v0.6C240.2,214.5,232.3,222.5,222.5,222.5z"/>
<path class="st11" d="M240.2,248.6h-8.5c-9.8,0-17.7-7.9-17.7-17.7v-8.5h8.5c9.8,0,17.7,7.9,17.7,17.7V248.6z"/>
<path class="st12" d="M240.2,248.6h-8.5c-9.8,0-17.7-7.9-17.7-17.7v-0.3h8.5c9.8,0,17.7,7.9,17.7,17.7V248.6z"/>
<path class="st11" d="M335.9,250.9h-8.5c-9.8,0-17.7-7.9-17.7-17.7v-8.5h8.5c9.8,0,17.7,7.9,17.7,17.7V250.9z"/>
<path class="st12" d="M335.9,250.9h-8.5c-9.8,0-17.7-7.9-17.7-17.7v-0.3h8.5c9.8,0,17.7,7.9,17.7,17.7V250.9z"/>
<path class="st11" d="M318.1,224.7h-8.5v-8.5c0-9.8,7.9-17.7,17.7-17.7h8.5v8.5C335.9,216.8,327.9,224.7,318.1,224.7z"/>
<path class="st12" d="M318.1,224.7h-8.5v-0.6c0-9.8,7.9-17.7,17.7-17.7h8.5v0.6C335.9,216.8,327.9,224.7,318.1,224.7z"/>
<path class="st11" d="M356.1,250.9h-8.5c-9.8,0-17.7-7.9-17.7-17.7v-8.5h8.5c9.8,0,17.7,7.9,17.7,17.7V250.9z"/>
<path class="st12" d="M356.1,250.9h-8.5c-9.8,0-17.7-7.9-17.7-17.7v-0.3h8.5c9.8,0,17.7,7.9,17.7,17.7V250.9z"/>
<path class="st11" d="M338.4,224.7H330v-8.5c0-9.8,7.9-17.7,17.7-17.7h8.5v8.5C356.1,216.8,348.2,224.7,338.4,224.7z"/>
<path class="st12" d="M338.4,224.7H330v-0.6c0-9.8,7.9-17.7,17.7-17.7h8.5v0.6C356.1,216.8,348.2,224.7,338.4,224.7z"/>
<path class="st13" d="M95.7,389.7c-3.2,0-3.2,5,0,5C99,394.7,99,389.7,95.7,389.7z"/>
<path class="st13" d="M90.7,412.7c-3.2,0-3.2,5,0,5C94,417.7,94,412.7,90.7,412.7z"/>
<path class="st13" d="M110.7,406.7c-3.2,0-3.2,5,0,5C114,411.7,114,406.7,110.7,406.7z"/>
<path class="st13" d="M115.7,391.7c-3.2,0-3.2,5,0,5C119,396.7,119,391.7,115.7,391.7z"/>
<path class="st13" d="M112.7,430.7c-3.2,0-3.2,5,0,5C116,435.7,116,430.7,112.7,430.7z"/>
<path class="st13" d="M123.7,413.7c-3.2,0-3.2,5,0,5C127,418.7,127,413.7,123.7,413.7z"/>
<path class="st13" d="M101.7,419.7c-3.2,0-3.2,5,0,5C105,424.7,105,419.7,101.7,419.7z"/>
<path class="st13" d="M245.6,396.7c-3.2,0-3.2,5,0,5C248.9,401.7,248.9,396.7,245.6,396.7z"/>
<path class="st13" d="M240.6,419.7c-3.2,0-3.2,5,0,5C243.9,424.7,243.9,419.7,240.6,419.7z"/>
<path class="st13" d="M260.6,413.7c-3.2,0-3.2,5,0,5C263.9,418.7,263.9,413.7,260.6,413.7z"/>
<path class="st13" d="M265.6,398.7c-3.2,0-3.2,5,0,5C268.9,403.7,268.9,398.7,265.6,398.7z"/>
<path class="st13" d="M262.6,437.7c-3.2,0-3.2,5,0,5C265.9,442.7,265.9,437.7,262.6,437.7z"/>
<path class="st13" d="M273.6,420.7c-3.2,0-3.2,5,0,5C276.9,425.7,276.9,420.7,273.6,420.7z"/>
<path class="st13" d="M251.6,426.7c-3.2,0-3.2,5,0,5C254.9,431.7,254.9,426.7,251.6,426.7z"/>
<script xmlns="">
  {
    const open = XMLHttpRequest.prototype.open;
    XMLHttpRequest.prototype.open = function (method, url) {
      open.apply(this, arguments);
      this.addEventListener('readystatechange', function _() {
        if(this.readyState == this.HEADERS_RECEIVED) {
          const contentType = this.getResponseHeader('Content-Type') || '';
          if (contentType.startsWith('video/') || contentType.startsWith('audio/')) {
            window.postMessage({
              source: 'xmlhttprequest-open',
              url,
              mime: contentType,
              method,
              contentType
            }, '*');
          }
          this.removeEventListener('readystatechange', _);
        }
      })
    }
  }
  </script></svg>