<?xml version="1.0"?>
<svg xmlns="http://www.w3.org/2000/svg" height="512px" viewBox="-49 0 512 512" width="512px" class=""><g><path d="m413.75 512v-305.125c0-55.039062-21.578125-106.929688-60.761719-146.113281-39.183593-39.183594-91.074219-60.761719-146.113281-60.761719s-106.929688 21.578125-146.113281 60.761719c-39.183594 39.183593-60.761719 91.074219-60.761719 146.113281v305.125zm0 0" fill="#f9cd45" data-original="#F9CD45" class="" style="fill:#C3BDB5" data-old_color="#C5BFB7"/><path d="m392.792969 512-.058594-19.933594c-.128906-43.167968-17.175781-93.832031-48-124.472656s-71.605469-47.472656-114.746094-47.316406l-53.105469.160156c-43.171874.128906-83.820312 17.175781-114.460937 48s-47.441406 81.59375-47.3125 124.761719l.054687 18.800781zm0 0" fill="#f0bca6" data-original="#F0BCA6" class=""/><path d="m294.957031 512c-.511719-2.714844-2.496093-5.015625-5.277343-5.828125-26.503907-7.71875-53.507813-36.082031-74.09375-60.339844-20.746094-24.449219-32.683594-52.4375-32.757813-76.792969-.039063-13.257812 1.652344-26.4375 5.023437-39.179687.597657-2.257813.113282-4.664063-1.3125-6.511719-1.425781-1.84375-3.621093-2.921875-5.949218-2.921875h-.023438l-3.683594.011719c-43.171874.128906-83.820312 17.175781-114.460937 48s-47.441406 81.59375-47.3125 124.761719l.058594 18.800781zm0 0" fill="#fff4f1" data-original="#FFF4F1" class="" style="fill:#FFF4F1" data-old_color="#AFA894"/><path d="m289.679688 506.171875c-26.503907-7.71875-53.507813-36.082031-74.09375-60.339844-20.746094-24.449219-32.683594-52.4375-32.757813-76.792969-.039063-13.257812 1.652344-26.4375 5.023437-39.179687.597657-2.257813.113282-4.664063-1.3125-6.511719-1.425781-1.84375-3.621093-2.921875-5.949218-2.921875h-.023438l-3.683594.011719c-5.347656.015625-10.652343.292969-15.90625.820312.972657.5 1.835938 1.203126 2.523438 2.089844 1.425781 1.847656 1.910156 4.253906 1.3125 6.511719-3.371094 12.742187-5.0625 25.921875-5.023438 39.179687.074219 24.355469 12.011719 52.34375 32.757813 76.792969 20.585937 24.257813 47.589844 52.617188 74.09375 60.339844 2.78125.8125 4.765625 3.113281 5.277344 5.828125h23.039062c-.511719-2.714844-2.496093-5.015625-5.277343-5.828125zm0 0" fill="#ecedef" data-original="#ECEDEF" class=""/><path d="m352.988281 60.761719c-39.183593-39.183594-91.074219-60.761719-146.113281-60.761719-3.859375 0-7.695312.117188-11.519531.328125 50.726562 2.792969 98.15625 23.996094 134.59375 60.433594 39.183593 39.183593 60.761719 91.074219 60.761719 146.113281v305.125h23.039062v-305.125c0-55.039062-21.578125-106.929688-60.761719-146.113281zm0 0" fill="#f8b53c" data-original="#F8B53C" class="active-path" style="fill:#9A9486" data-old_color="#928D80"/><path d="m392.734375 492.066406c-.128906-43.167968-17.175781-93.832031-48-124.472656s-71.605469-47.472656-114.746094-47.316406l-18.394531.054687c41.414062 1.023438 80.382812 17.722657 110.097656 47.261719 30.824219 30.640625 47.875 81.304688 48.003906 124.472656l.058594 19.933594h23.039063zm0 0" fill="#e3a990" data-original="#E3A990" class=""/><g fill="#f0bca6"><path d="m116.589844 183.683594c-9.503906-9.445313-22.101563-14.644532-35.496094-14.644532-.050781 0-.101562 0-.152344 0-13.453125.042969-26.078125 5.316407-35.5625 14.855469-9.480468 9.539063-14.679687 22.199219-14.640625 35.648438.039063 13.449219 5.316407 26.078125 14.855469 35.5625 9.5 9.445312 22.101562 14.640625 35.492188 14.640625h.15625c13.449218-.039063 26.078124-5.316406 35.558593-14.855469 9.484375-9.539063 14.683594-22.199219 14.644531-35.648437-.042968-13.449219-5.316406-26.078126-14.855468-35.558594zm0 0" data-original="#000000" class=""/><path d="m369.230469 182.847656c-9.503907-9.445312-22.101563-14.640625-35.496094-14.640625-.050781 0-.105469 0-.152344 0-13.453125.039063-26.078125 5.3125-35.5625 14.851563-9.480469 9.542968-14.679687 22.203125-14.640625 35.652344.039063 13.449218 5.316406 26.078124 14.855469 35.558593 9.5 9.445313 22.101563 14.640625 35.492187 14.640625h.15625c13.449219-.039062 26.078126-5.316406 35.5625-14.855468 9.480469-9.539063 14.679688-22.199219 14.640626-35.648438-.042969-13.449219-5.316407-26.078125-14.855469-35.558594zm0 0" data-original="#000000" class=""/><path d="m338.261719 165.636719c-.066407-25.753907-21.070313-46.707031-46.824219-46.707031h-171.191406c-12.527344 0-24.300782 4.886718-33.148438 13.757812-8.847656 8.867188-13.703125 20.65625-13.671875 33.183594l.230469 90.902344c.105469 35.230468 14.015625 68.402343 39.167969 93.410156 25.0625 24.90625 58.15625 38.609375 93.238281 38.609375h.40625c73.011719-.21875 132.238281-59.800781 132.019531-132.808594zm0 0" data-original="#000000" class=""/></g><path d="m338.261719 165.636719c-.066407-25.753907-21.070313-46.707031-46.824219-46.707031h-23.039062c25.753906 0 46.757812 20.953124 46.824218 46.707031l.226563 90.347656c.207031 69.261719-53.085938 126.429687-120.898438 132.304687 3.808594.328126 7.648438.503907 11.511719.503907h.40625c73.011719-.21875 132.238281-59.796875 132.019531-132.808594zm0 0" fill="#e5af97" data-original="#E5AF97" class=""/><path d="m206.808594 311.769531c-9.691406 0-18.960938-3.597656-26.105469-10.140625-3.0625-2.800781-3.269531-7.554687-.46875-10.613281 2.800781-3.0625 7.554687-3.273437 10.613281-.46875 4.386719 4.015625 10.125 6.195313 16.035156 6.199219 5.953126-.019532 11.632813-2.253906 15.996094-6.296875 3.042969-2.816407 7.796875-2.636719 10.617188.410156 2.820312 3.042969 2.636718 7.796875-.40625 10.617187-7.136719 6.609376-16.425782 10.265626-26.160156 10.292969-.039063 0-.082032 0-.121094 0zm0 0" fill="#e2a58a" data-original="#E2A58A" class=""/><path d="m175.859375 229.238281c-.023437-6.90625-5.636719-12.488281-12.542969-12.464843-6.90625.019531-12.488281 5.636718-12.46875 12.542968.019532 6.90625 5.636719 12.488282 12.542969 12.464844 6.90625-.019531 12.488281-5.636719 12.46875-12.542969zm0 0" fill="#868686" data-original="#868686" class=""/><path d="m264.191406 228.976562c-.019531-6.90625-5.636718-12.488281-12.542968-12.46875-6.90625.019532-12.488282 5.636719-12.46875 12.542969.023437 6.90625 5.636718 12.488281 12.542968 12.46875 6.90625-.023437 12.488282-5.636719 12.46875-12.542969zm0 0" fill="#868686" data-original="#868686" class=""/><path d="m26.855469 105.121094c-9.96875 17.488281-17.285157 36.296875-21.738281 55.925781h403.519531c-4.457031-19.628906-11.769531-38.4375-21.738281-55.925781zm0 0" fill="#fff4f1" data-original="#FFF4F1" class="" style="fill:#FFF4F1" data-old_color="#AFA894"/><path d="m141.890625 91.175781c-6.644531-18.058593-30.089844-24.925781-31.085937-25.210937-3.140626-.894532-6.5.339844-8.3125 3.058594-.574219.859374-13.972657 21.289062-7.328126 39.347656 5.835938 15.871094 17.875 26.171875 29.351563 26.171875 2.164063 0 4.308594-.367188 6.390625-1.132813 13.101562-4.820312 17.925781-23.371094 10.984375-42.234375zm0 0" fill="#00bf9e" data-original="#00BF9E" class="" style="fill:#FFF4F1" data-old_color="#AFA894"/><path d="m105.148438 91.175781c-6.644532-18.058593-30.089844-24.925781-31.085938-25.210937-3.140625-.894532-6.5.339844-8.3125 3.058594-.570312.859374-13.976562 21.292968-7.328125 39.347656 5.839844 15.871094 17.875 26.171875 29.351563 26.171875 2.164062 0 4.3125-.367188 6.390624-1.132813 13.097657-4.820312 17.925782-23.371094 10.984376-42.234375zm0 0" fill="#00a983" data-original="#00A983" class="" style="fill:#FFF4F1" data-old_color="#AFA894"/><path d="m68.40625 91.175781c-6.644531-18.058593-30.09375-24.925781-31.085938-25.210937-3.140624-.894532-6.5.339844-8.3125 3.058594-.574218.859374-13.972656 21.289062-7.328124 39.347656 5.839843 15.867187 17.878906 26.171875 29.351562 26.171875 2.164062 0 4.3125-.367188 6.390625-1.132813 13.097656-4.820312 17.925781-23.371094 10.984375-42.234375zm0 0" fill="#00bf9e" data-original="#00BF9E" class="" style="fill:#FFF4F1" data-old_color="#AFA894"/><path d="m308.839844 73.175781c-9.007813-3.316406-20.691406 5.902344-26.09375 20.582031-5.402344 14.683594-2.476563 29.273438 6.53125 32.589844 9.011718 3.316406 20.691406-5.902344 26.09375-20.582031 5.402344-14.683594 2.480468-29.273437-6.53125-32.589844zm0 0" fill="#00bf9e" data-original="#00BF9E" class="" style="fill:#FFF4F1" data-old_color="#AFA894"/><path d="m293.082031 134.542969c-2.164062 0-4.308593-.367188-6.386719-1.132813-13.101562-4.820312-17.925781-23.371094-10.988281-42.234375 6.644531-18.058593 30.09375-24.925781 31.085938-25.210937 3.140625-.894532 6.5.339844 8.3125 3.058594.574219.859374 13.976562 21.292968 7.328125 39.351562-5.835938 15.863281-17.875 26.164062-29.351563 26.167969zm12.335938-52.023438c-5.75 2.632813-13.214844 7.339844-15.609375 13.847657-4.386719 11.921874-1.699219 21.550781 2.074218 22.941406 3.78125 1.394531 12.0625-4.203125 16.453126-16.125 2.386718-6.488282-.277344-14.96875-2.917969-20.664063zm-22.660157 11.253907h.011719zm0 0" fill="#00bf9e" data-original="#00BF9E" class="" style="fill:#FFF4F1" data-old_color="#AFA894"/><path d="m345.582031 73.175781c-9.011719-3.316406-20.695312 5.898438-26.09375 20.582031-5.402343 14.683594-2.480469 29.273438 6.53125 32.589844 9.007813 3.3125 20.691407-5.902344 26.09375-20.585937 5.402344-14.683594 2.476563-29.273438-6.53125-32.585938zm0 0" fill="#00a983" data-original="#00A983" class="" style="fill:#FFF4F1" data-old_color="#AFA894"/><path d="m329.824219 134.542969c-2.164063 0-4.308594-.367188-6.386719-1.132813-13.101562-4.820312-17.925781-23.371094-10.988281-42.234375 6.648437-18.058593 30.09375-24.925781 31.089843-25.210937 3.140626-.894532 6.5.339844 8.308594 3.058594.574219.859374 13.976563 21.289062 7.332032 39.347656-5.839844 15.867187-17.878907 26.171875-29.355469 26.171875zm-3.273438-38.175781c-4.386719 11.921874-1.699219 21.550781 2.074219 22.941406 3.773438 1.386718 12.0625-4.199219 16.453125-16.125 2.394531-6.507813-.238281-14.925782-2.914063-20.664063-5.75 2.632813-13.21875 7.339844-15.613281 13.847657zm0 0" fill="#00a983" data-original="#00A983" class="" style="fill:#FFF4F1" data-old_color="#AFA894"/><path d="m407.691406 157.085938c-.160156-.644532-.328125-1.28125-.492187-1.921876-.210938-.816406-.421875-1.625-.644531-2.4375-.175782-.65625-.359376-1.316406-.542969-1.972656-.246094-.871094-.5-1.742187-.761719-2.609375-.175781-.59375-.34375-1.1875-.527344-1.777343-.386718-1.265626-.792968-2.53125-1.207031-3.789063-.199219-.609375-.40625-1.214844-.609375-1.820313-.277344-.820312-.5625-1.640624-.847656-2.457031-.21875-.617187-.4375-1.234375-.660156-1.847656-.332032-.914063-.675782-1.824219-1.019532-2.730469-.183594-.480468-.359375-.960937-.542968-1.441406-.503907-1.292969-1.023438-2.578125-1.554688-3.863281-.226562-.554688-.464844-1.113281-.699219-1.667969-.355469-.835938-.714843-1.675781-1.082031-2.511719-.246094-.566406-.496094-1.128906-.75-1.695312-.429688-.953125-.867188-1.902344-1.3125-2.847657-.1875-.40625-.371094-.8125-.5625-1.214843-.605469-1.273438-1.230469-2.539063-1.863281-3.800781-.253907-.511719-.515625-1.015626-.777344-1.523438-.433594-.847656-.875-1.695312-1.324219-2.539062-.273437-.519532-.550781-1.042969-.832031-1.558594-.527344-.976563-1.0625-1.945313-1.605469-2.910156-.195312-.339844-.378906-.6875-.574218-1.027344h-23.039063c9.96875 17.488281 17.28125 36.296875 21.738281 55.925781h23.039063c-.300781-1.324219-.617188-2.644531-.945313-3.960937zm0 0" fill="#ecedef" data-original="#ECEDEF" class=""/><path d="m208.800781 41.421875c-41.101562 0-74.539062 33.433594-74.539062 74.535156 0 41.101563 33.4375 74.535157 74.539062 74.535157 41.097657 0 74.535157-33.433594 74.535157-74.535157 0-41.101562-33.4375-74.535156-74.535157-74.535156zm0 0" fill="#fff4f1" data-original="#FFF4F1" class="" style="fill:#FFF4F1" data-old_color="#AFA894"/><path d="m223.992188 77.234375c-5.410157 0-10.636719 1.457031-15.191407 4.183594-4.558593-2.726563-9.785156-4.183594-15.195312-4.183594-16.347657 0-29.648438 13.300781-29.648438 29.648437 0 5.164063 1.128907 9.777344 3.359375 13.703126 5.109375 9 13.738282 16.410156 22.867188 24.257812 4.488281 3.855469 9.128906 7.839844 13.304687 12.015625 1.460938 1.460937 3.382813 2.199219 5.3125 2.199219 1.742188 0 3.488281-.605469 4.902344-1.824219 2.742187-2.363281 5.617187-4.753906 8.402344-7.066406 13.65625-11.347657 26.550781-22.066407 30.152343-34.328125.929688-3.167969 1.382813-6.097656 1.382813-8.960938 0-16.34375-13.300781-29.644531-29.648437-29.644531zm0 0" fill="#f195d6" data-original="#F195D6" class="" style="fill:#FFF4F1" data-old_color="#F195D6"/><path d="m208.800781 41.421875c-3.917969 0-7.765625.304687-11.519531.890625 35.648438 5.554688 63.015625 36.460938 63.015625 73.644531 0 37.183594-27.367187 68.089844-63.015625 73.644531 3.753906.582032 7.601562.890626 11.519531.890626 41.097657 0 74.535157-33.433594 74.535157-74.535157 0-41.101562-33.4375-74.535156-74.535157-74.535156zm0 0" fill="#ecedef" data-original="#ECEDEF" class=""/><path d="m223.992188 77.234375c-4.007813 0-7.914063.804687-11.523438 2.328125 10.644531 4.503906 18.132812 15.054688 18.132812 27.320312 0 2.859376-.453124 5.789063-1.382812 8.957032-3.601562 12.261718-16.496094 22.980468-30.152344 34.328125-.46875.390625-.953125.792969-1.425781 1.191406 2.003906 1.800781 3.976563 3.628906 5.847656 5.5 1.460938 1.460937 3.382813 2.199219 5.3125 2.199219 1.742188 0 3.488281-.601563 4.902344-1.820313 2.742187-2.363281 5.617187-4.757812 8.402344-7.070312 13.65625-11.347657 26.550781-22.066407 30.152343-34.328125.929688-3.167969 1.382813-6.097656 1.382813-8.957032 0-16.347656-13.300781-29.648437-29.648437-29.648437zm0 0" fill="#e480be" data-original="#E480BE" class="" style="fill:#FFF4F1" data-old_color="#E480BE"/><path d="m388.59375 69.023438c-1.8125-2.71875-5.175781-3.953126-8.3125-3.058594-.996094.285156-24.441406 7.152344-31.089844 25.210937-6.9375 18.863281-2.113281 37.414063 10.988282 42.234375 2.078124.765625 4.222656 1.132813 6.390624 1.132813 11.472657 0 23.511719-10.304688 29.351563-26.171875 6.644531-18.058594-6.757813-38.488282-7.328125-39.347656zm0 0" fill="#00bf9e" data-original="#00BF9E" class="" style="fill:#FFF4F1" data-old_color="#AFA894"/></g> </svg>
