<svg height="511pt" viewBox="0 -125 511.99975 511" width="511pt" xmlns="http://www.w3.org/2000/svg"><path d="m18.234375 87.078125 25.316406 96.296875c7.875 29.945312 34.945313 50.820312 65.910157 50.820312h236.335937c30.964844 0 58.039063-20.875 65.910156-50.820312l25.320313-96.296875zm0 0" fill="#dd9f80"/><path d="m43.554688 183.375c7.871093 29.945312 34.941406 50.820312 65.90625 50.820312h67.636718c-3.171875-4.273437-5.96875-8.671874-8.429687-13.101562-15.109375-27.179688-7.707031-61.355469 16.871093-80.410156 21.019532-16.292969 33.027344-33.609375 33.027344-33.609375l-.539062-19.996094h-199.792969zm0 0" fill="#c68d6d"/><path d="m265.011719 37.878906c0 20.644532-16.738281 37.378906-37.378907 37.378906-20.644531 0-37.382812-16.734374-37.382812-37.378906 0-20.644531 16.738281-37.378906 37.382812-37.378906 20.640626 0 37.378907 16.734375 37.378907 37.378906zm0 0" fill="#eaeaea"/><path d="m423.445312 107.074219h-391.628906c-17.570312 0-31.816406-14.246094-31.816406-31.816407 0-17.570312 14.246094-31.816406 31.816406-31.816406h391.628906c17.570313 0 31.816407 14.246094 31.816407 31.816406 0 17.570313-14.246094 31.816407-31.816407 31.816407zm0 0" fill="#eab9a4"/><path d="m95.03125 75.257812c0-17.570312 14.246094-31.816406 31.816406-31.816406h-95.03125c-17.570312 0-31.816406 14.246094-31.816406 31.816406 0 17.574219 14.246094 31.816407 31.816406 31.816407h95.03125c-17.570312 0-31.816406-14.246094-31.816406-31.816407zm0 0" fill="#dd9f80"/><path d="m421.273438 146.996094h-387.285157l9.566407 36.378906c.992187 3.785156 2.296874 7.425781 3.875 10.898438h360.402343c1.578125-3.472657 2.882813-7.113282 3.878907-10.898438zm0 0" fill="#c68d6d"/><path d="m479.984375 229.730469c-7.5 8.351562-20.472656 9.046875-28.824219 1.542969l-201.59375-181.074219c-8.351562-7.503907-9.046875-20.472657-1.542968-28.824219 7.5-8.351562 20.472656-9.046875 28.824218-1.546875l201.59375 181.078125c8.351563 7.5 9.046875 20.472656 1.542969 28.824219zm0 0" fill="#ffdaaa"/><path d="m476.222656 165.917969c18.472656 16.59375 47.421875 69.652343 30.832032 88.125-16.59375 18.472656-72.445313-4.640625-90.917969-21.230469-18.472657-16.59375-6.746094-33.117188 9.84375-51.589844 16.59375-18.472656 31.769531-31.898437 50.242187-15.304687zm0 0" fill="#ffc477"/><path d="m178.53125 146.996094h-144.542969l9.566407 36.378906c.992187 3.785156 2.296874 7.425781 3.875 10.898438h113.507812c-.921875-17.210938 5.292969-34.445313 17.59375-47.277344zm0 0" fill="#b2785b"/></svg>