<svg height="480pt" viewBox="0 0 480 480" width="480pt" xmlns="http://www.w3.org/2000/svg"><path d="m232 224h16v256h-16zm0 0" fill="#bc8f6f"/><path d="m232 224h8v256h-8zm0 0" fill="#cb9e78"/><path d="m40 320h16v160h-16zm0 0" fill="#bc8f6f"/><path d="m40 320h8v160h-8zm0 0" fill="#cb9e78"/><path d="m424 320h16v160h-16zm0 0" fill="#bc8f6f"/><path d="m424 320h8v160h-8zm0 0" fill="#cb9e78"/><path d="m384 464c0 8.835938-7.164062 16-16 16s-16-7.164062-16-16 7.164062-16 16-16 16 7.164062 16 16zm0 0" fill="#a795e6"/><path d="m336 400c0 17.671875-14.328125 32-32 32s-32-14.328125-32-32 14.328125-32 32-32 32 14.328125 32 32zm0 0" fill="#a795e6"/><path d="m128 464c0 8.835938-7.164062 16-16 16s-16-7.164062-16-16 7.164062-16 16-16 16 7.164062 16 16zm0 0" fill="#df9363"/><path d="m208 400c0 17.671875-14.328125 32-32 32s-32-14.328125-32-32 14.328125-32 32-32 32 14.328125 32 32zm0 0" fill="#df9363"/><path d="m400 192c0 8.835938-7.164062 16-16 16s-16-7.164062-16-16 7.164062-16 16-16 16 7.164062 16 16zm0 0" fill="#cb9e78"/><path d="m480 128c0 17.671875-14.328125 32-32 32s-32-14.328125-32-32 14.328125-32 32-32 32 14.328125 32 32zm0 0" fill="#cb9e78"/><path d="m112 192c0 8.835938-7.164062 16-16 16s-16-7.164062-16-16 7.164062-16 16-16 16 7.164062 16 16zm0 0" fill="#699ce6"/><path d="m64 128c0 17.671875-14.328125 32-32 32s-32-14.328125-32-32 14.328125-32 32-32 32 14.328125 32 32zm0 0" fill="#699ce6"/><path d="m96 240v48c0 26.511719-21.488281 48-48 48s-48-21.488281-48-48v-48l32 40 16-40 16 40zm0 0" fill="#eebc5a"/><path d="m64 280-8-20-16 20-4-10-4 10-16-20-8 20-8-10v18c0 22.359375 15.3125 41.089844 36 46.425781 20.6875-5.335937 36-24.066406 36-46.425781v-18zm0 0" fill="#f8cf6a"/><g fill="#5da351"><path d="m64 400h-16c0-17.671875 14.328125-32 32-32h16c0 17.671875-14.328125 32-32 32zm0 0"/><path d="m32 400h16c0-17.671875-14.328125-32-32-32h-16c0 17.671875 14.328125 32 32 32zm0 0"/><path d="m448 400h-16c0-17.671875 14.328125-32 32-32h16c0 17.671875-14.328125 32-32 32zm0 0"/><path d="m416 400h16c0-17.671875-14.328125-32-32-32h-16c0 17.671875 14.328125 32 32 32zm0 0"/></g><path d="m52.441406 384h11.558594c11.816406 0 22.015625-6.472656 27.558594-16h-11.558594c-11.816406 0-22.015625 6.472656-27.558594 16zm0 0" fill="#74c865"/><path d="m16 368h-11.558594c5.542969 9.527344 15.742188 16 27.558594 16h11.558594c-5.542969-9.527344-15.742188-16-27.558594-16zm0 0" fill="#74c865"/><path d="m436.441406 384h11.558594c11.816406 0 22.015625-6.472656 27.558594-16h-11.558594c-11.816406 0-22.015625 6.472656-27.558594 16zm0 0" fill="#74c865"/><path d="m400 368h-11.558594c5.542969 9.527344 15.742188 16 27.558594 16h11.558594c-5.542969-9.527344-15.742188-16-27.558594-16zm0 0" fill="#74c865"/><path d="m480 240v48c0 26.511719-21.488281 48-48 48s-48-21.488281-48-48v-48l32 40 16-40 16 40zm0 0" fill="#ca5057"/><path d="m448 280-8-20-16 20-4-10-4 10-16-20-8 20-8-10v18c0 22.359375 15.3125 41.089844 36 46.425781 20.6875-5.335937 36-24.066406 36-46.425781v-18zm0 0" fill="#dc6068"/><path d="m352 272h-48c-35.34375 0-64 28.65625-64 64h48c35.34375 0 64-28.65625 64-64zm0 0" fill="#5da351"/><path d="m240 336h-48c-35.34375 0-64-28.65625-64-64h48c35.34375 0 64 28.65625 64 64zm0 0" fill="#5da351"/><path d="m242.097656 320h45.902344c29.808594 0 54.785156-20.40625 61.902344-48h-45.902344c-29.808594 0-54.785156 20.40625-61.902344 48zm0 0" fill="#74c865"/><path d="m176 272h-45.902344c7.109375 27.59375 32.085938 48 61.902344 48h45.902344c-7.117188-27.59375-32.09375-48-61.902344-48zm0 0" fill="#74c865"/><path d="m352 0v128c0 61.855469-50.144531 112-112 112s-112-50.144531-112-112v-128l72 96 40-96 40 96zm0 0" fill="#599072"/><path d="m228 239.335938c56.207031-5.992188 100-53.535157 100-111.335938v-96l-48 64-8.566406-20.566406-15.433594 20.566406-28-67.199219-28 67.199219-15.433594-20.566406-8.566406 20.566406-48-64v96c0 57.800781 43.792969 105.34375 100 111.335938zm0 0" fill="#70b48f"/></svg>