<?xml version="1.0" encoding="UTF-8" standalone="no"?>
<!DOCTYPE svg PUBLIC "-//W3C//DTD SVG 1.1//EN" "http://www.w3.org/Graphics/SVG/1.1/DTD/svg11.dtd">
<svg version="1.1" xmlns="http://www.w3.org/2000/svg" xmlns:xlink="http://www.w3.org/1999/xlink" preserveAspectRatio="xMidYMid meet" viewBox="0 0 640 640" width="640" height="640"><defs><path d="M9.32 329.32C9.32 158.45 149.13 18.64 320 18.64C490.87 18.64 630.68 158.45 630.68 329.32C630.68 500.19 490.87 640 320 640C149.13 640 9.32 500.19 9.32 329.32Z" id="b9orr8m2l"></path><path d="M320 19.68C159.28 19.68 29 149.96 29 310.68C29 471.4 159.28 601.68 320 601.68C480.72 601.68 611 471.4 611 310.68C611 149.96 480.72 19.68 320 19.68Z" id="d7ptxcsvq"></path><path d="M354.17 54.89C425.63 54.89 490.87 80.78 541.62 123.24C488.8 60.06 409.06 19.68 320 19.68C159.48 19.68 29 150.16 29 310.68C29 399.74 69.39 479.48 132.56 533.33C89.06 482.59 63.17 417.35 63.17 345.89C63.17 185.37 193.66 54.89 354.17 54.89Z" id="a4tsMiYOO"></path><path d="M526.08 105.63C640 219.55 640 403.88 526.08 517.8C412.17 631.72 227.83 631.72 113.92 517.8" id="e2HogwucYv"></path><path d="M345.38 1.03L357.88 2.31L370.22 4.09L382.41 6.34L394.43 9.07L406.27 12.26L417.93 15.91L429.38 19.99L440.63 24.51L451.66 29.46L462.46 34.81L473.02 40.57L483.34 46.72L493.39 53.25L503.18 60.15L512.68 67.41L521.9 75.02L530.81 82.98L539.42 91.26L547.7 99.87L555.66 108.78L563.27 118L570.53 127.5L577.43 137.29L583.96 147.34L590.11 157.66L595.87 168.22L601.22 179.02L606.17 190.05L610.69 201.3L614.77 212.75L618.42 224.41L621.61 236.25L624.34 248.27L626.59 260.46L628.37 272.8L629.64 285.3L630.42 297.92L630.68 310.68L630.42 323.44L629.64 336.06L628.37 348.56L626.59 360.9L624.34 373.09L621.61 385.11L618.42 396.95L614.77 408.61L610.69 420.06L606.17 431.31L601.22 442.34L595.87 453.14L590.11 463.7L583.96 474.02L577.43 484.07L570.53 493.86L563.27 503.36L555.66 512.58L547.7 521.49L539.42 530.1L530.81 538.38L521.9 546.34L512.68 553.95L503.18 561.21L493.39 568.11L483.34 574.64L473.02 580.79L462.46 586.55L451.66 591.9L440.63 596.84L429.38 601.36L417.93 605.45L406.27 609.1L394.43 612.29L382.41 615.02L370.22 617.27L357.88 619.05L345.38 620.32L332.76 621.1L320 621.36L307.24 621.1L294.62 620.32L282.12 619.05L269.78 617.27L257.59 615.02L245.57 612.29L233.73 609.1L222.07 605.45L210.62 601.36L199.37 596.84L188.34 591.9L177.54 586.55L166.98 580.79L156.66 574.64L146.61 568.11L136.82 561.21L127.32 553.95L118.1 546.34L109.19 538.38L100.58 530.1L92.3 521.49L84.34 512.58L76.73 503.36L69.47 493.86L62.57 484.07L56.04 474.02L49.89 463.7L44.13 453.14L38.78 442.34L33.83 431.31L29.31 420.06L25.23 408.61L21.58 396.95L18.39 385.11L15.66 373.09L13.41 360.9L11.63 348.56L10.36 336.06L9.58 323.44L9.32 310.68L9.58 297.92L10.36 285.3L11.63 272.8L13.41 260.46L15.66 248.27L18.39 236.25L21.58 224.41L25.23 212.75L29.31 201.3L33.83 190.05L38.78 179.02L44.13 168.22L49.89 157.66L56.04 147.34L62.57 137.29L69.47 127.5L76.73 118L84.34 108.78L92.3 99.87L100.58 91.26L109.19 82.98L118.1 75.02L127.32 67.41L136.82 60.15L146.61 53.25L156.66 46.72L166.98 40.57L177.54 34.81L188.34 29.46L199.37 24.51L210.62 19.99L222.07 15.91L233.73 12.26L245.57 9.07L257.59 6.34L269.78 4.09L282.12 2.31L294.62 1.03L307.24 0.26L320 0L332.76 0.26L345.38 1.03ZM297.7 40.26L286.74 41.37L275.91 42.92L265.23 44.89L254.7 47.28L244.32 50.07L234.12 53.25L224.09 56.83L214.26 60.78L204.61 65.1L195.17 69.77L185.94 74.8L176.94 80.18L168.16 85.88L159.62 91.91L151.33 98.26L143.3 104.91L135.52 111.86L128.03 119.09L120.81 126.61L113.88 134.4L107.25 142.45L100.93 150.75L94.93 159.3L89.25 168.08L83.9 177.08L78.9 186.31L74.25 195.74L69.95 205.37L66.03 215.19L62.48 225.2L59.31 235.37L56.54 245.71L54.17 256.21L52.22 266.84L50.68 277.62L49.57 288.52L48.9 299.55L48.67 310.68L48.9 321.89L49.58 332.97L50.7 343.94L52.24 354.77L54.22 365.45L56.6 375.98L59.39 386.36L62.58 396.56L66.15 406.59L70.1 416.42L74.42 426.07L79.09 435.51L84.12 444.74L89.5 453.74L95.2 462.52L101.23 471.06L107.58 479.35L114.23 487.38L121.18 495.16L128.41 502.65L135.93 509.87L143.72 516.8L151.77 523.43L160.07 529.75L168.62 535.75L177.4 541.43L186.4 546.78L195.63 551.78L205.06 556.43L214.69 560.73L224.51 564.65L234.52 568.2L244.69 571.37L255.03 574.14L265.53 576.51L276.17 578.46L286.94 580L297.84 581.11L308.87 581.78L320 582.01L331.13 581.78L342.16 581.1L353.06 579.98L363.83 578.44L374.47 576.46L384.97 574.08L395.31 571.29L405.48 568.1L415.49 564.53L425.31 560.58L434.94 556.26L444.37 551.58L453.6 546.55L462.6 541.18L471.38 535.48L479.93 529.45L488.23 523.1L496.28 516.45L504.07 509.5L511.59 502.27L518.82 494.75L525.77 486.96L532.42 478.91L538.77 470.61L544.8 462.06L550.5 453.28L555.88 444.28L560.91 435.05L565.58 425.62L569.9 415.99L573.85 406.17L577.42 396.16L580.61 385.99L583.4 375.65L585.78 365.15L587.76 354.51L589.3 343.74L590.42 332.83L591.1 321.81L591.33 310.68L591.1 299.55L590.43 288.52L589.32 277.62L587.78 266.84L585.83 256.21L583.46 245.71L580.69 235.37L577.52 225.2L573.97 215.19L570.05 205.37L565.75 195.74L561.1 186.31L556.1 177.08L550.75 168.08L545.07 159.3L539.07 150.75L532.75 142.45L526.12 134.4L519.19 126.61L511.97 119.09L504.48 111.86L496.7 104.91L488.67 98.26L480.38 91.91L471.84 85.88L463.06 80.18L454.06 74.8L444.83 69.77L435.39 65.1L425.74 60.78L415.91 56.83L405.88 53.25L395.68 50.07L385.3 47.28L374.77 44.89L364.09 42.92L353.26 41.37L342.3 40.26L331.21 39.58L320 39.35L308.79 39.58L297.7 40.26Z" id="a4rIL7D2xQ"></path><path d="M554.05 106.67C499.16 59.03 427.7 30.03 349 30.03C296.18 30.03 247.51 43.5 204.01 66.28C239.22 48.67 278.58 39.35 320 39.35C401.81 39.35 476.38 76.63 526.08 134.63C584.08 184.34 620.32 257.86 620.32 340.71C620.32 382.14 611 421.49 594.43 456.7C617.22 413.2 630.68 363.5 630.68 310.68C630.68 231.97 601.68 160.52 554.05 106.67Z" id="c1MKza4Cbr"></path><path d="M114.95 544.72C169.84 592.36 241.29 621.36 318.96 621.36C371.78 621.36 420.45 607.9 463.95 585.11C428.74 601.68 389.39 611 347.96 611C266.15 611 191.59 573.72 141.88 515.73C83.88 466.02 46.6 392.49 46.6 309.64C46.6 268.22 55.92 228.87 72.49 193.66C51.78 238.19 38.32 287.9 38.32 340.71C38.32 419.42 67.31 490.87 114.95 544.72Z" id="b2jNymTRsY"></path><path d="M307.17 581.85C309.86 581.89 313.79 582.26 317.11 582.21C319.46 582.17 322.18 581.81 323.25 581.85C334.76 582.31 344.36 581.3 353.38 580.15C369.13 578.14 381.83 575.68 389.98 573.11C392.29 572.39 402.38 569.34 409.01 567C412.59 565.74 414.84 564.69 416 564.32C420.04 563.01 418.53 563.73 418.53 560.03C418.53 546.74 413.26 437.06 413.26 423.77C413.26 403.85 420.26 391.38 431.14 376.98C443.14 360.94 449.78 341.06 449.78 321.01C449.78 318.75 449.78 307.47 449.78 287.17L254.99 299.34C286.71 487.64 304.1 581.81 307.17 581.85Z" id="g4R7FHOsEl"></path><path d="M372.27 200.73L372.27 179.63L323.57 179.63L303.69 179.63L254.99 179.63L254.99 295.29L303.69 295.29L323.57 295.29L372.27 295.29L372.27 294.47L418.53 294.47L418.53 200.73L372.27 200.73Z" id="aHUsMvb4P"></path><path d="M258.04 323.69C242.91 323.69 230.65 311.43 230.65 296.3C230.65 284.73 230.65 192.21 230.65 180.65C230.65 165.52 242.91 153.26 258.04 153.26C258.04 153.26 258.04 153.26 258.04 153.26C273.17 153.26 285.43 165.52 285.43 180.65C285.43 192.21 285.43 284.73 285.43 296.3C285.43 311.43 273.17 323.69 258.04 323.69C258.04 323.69 258.04 323.69 258.04 323.69Z" id="eft3xDhds"></path><path d="M312.82 323.69C297.69 323.69 285.43 311.43 285.43 296.3C285.43 284.73 285.43 192.21 285.43 180.65C285.43 165.52 297.69 153.26 312.82 153.26C312.82 153.26 312.82 153.26 312.82 153.26C327.95 153.26 340.21 165.52 340.21 180.65C340.21 192.21 340.21 284.73 340.21 296.3C340.21 311.43 327.95 323.69 312.82 323.69C312.82 323.69 312.82 323.69 312.82 323.69Z" id="a1ENG1Xs4X"></path><path d="M367.6 323.69C352.48 323.69 340.21 311.43 340.21 296.3C340.21 284.73 340.21 192.21 340.21 180.65C340.21 165.52 352.48 153.26 367.6 153.26C367.6 153.26 367.6 153.26 367.6 153.26C382.73 153.26 394.99 165.52 394.99 180.65C394.99 192.21 394.99 284.73 394.99 296.3C394.99 311.43 382.73 323.69 367.6 323.69C367.6 323.69 367.6 323.69 367.6 323.69Z" id="f3FkAxT4F"></path><path d="M422.39 323.69C407.26 323.69 394.99 311.43 394.99 296.3C394.99 287.17 394.99 214.13 394.99 205C394.99 189.87 407.26 177.6 422.39 177.6C422.39 177.6 422.39 177.6 422.39 177.6C437.51 177.6 449.78 189.87 449.78 205C449.78 214.13 449.78 287.17 449.78 296.3C449.78 311.43 437.51 323.69 422.39 323.69C422.39 323.69 422.39 323.69 422.39 323.69Z" id="b27Y7Kutm9"></path><path d="M232.36 250.65C259.97 250.65 277.11 250.65 303.69 250.65C317.08 250.65 328.04 239.69 328.04 226.3C328.04 212.91 317.08 201.95 303.69 201.95C274.85 201.95 259.02 201.95 230.65 201.95C188.62 210.32 169.78 237.96 169.78 268.67C169.78 272.71 169.78 305.04 169.78 309.08C169.78 338.06 182.92 364.84 205.81 382.61C221.39 394.79 230.65 415.97 230.65 439.1C230.65 450.85 230.65 544.87 230.65 556.62C230.65 559.65 231.46 562.65 232.96 565.03C234.84 568.01 237.79 570.05 241.57 570.05C243.45 570.05 238.6 569.32 240.4 570.05C241.31 570.41 245.41 571.55 249.32 572.6C250.39 572.89 251.45 573.02 252.42 573.31C252.88 573.44 253.34 573.58 253.79 573.71C264.65 576.9 279.62 579.69 286.45 579.49C286.79 579.48 279.92 578.93 280.33 578.98C280.81 579.03 290.16 580.37 290.67 580.48C291.54 580.65 283.56 579.36 284.22 579.49C287.33 580.11 290.3 580.42 292.89 580.89C297.08 581.64 301.94 581.64 306.84 581.55C307.48 581.54 306.8 581.2 307.49 581.2C307.49 496.28 303.69 425.12 303.69 341.95C303.69 315.01 287.83 290.39 262.84 279.03C250.79 273.55 235.88 263.02 232.36 250.65Z" id="a3DcYU87qj"></path></defs><g><g><g><use xlink:href="#b9orr8m2l" opacity="1" fill="#d89e77" fill-opacity="1"></use><g><use xlink:href="#b9orr8m2l" opacity="1" fill-opacity="0" stroke="#000000" stroke-width="1" stroke-opacity="0"></use></g></g><g><use xlink:href="#d7ptxcsvq" opacity="1" fill="#d88b56" fill-opacity="1"></use><g><use xlink:href="#d7ptxcsvq" opacity="1" fill-opacity="0" stroke="#000000" stroke-width="1" stroke-opacity="0"></use></g></g><g><use xlink:href="#a4tsMiYOO" opacity="1" fill="#cc7e48" fill-opacity="1"></use><g><use xlink:href="#a4tsMiYOO" opacity="1" fill-opacity="0" stroke="#000000" stroke-width="1" stroke-opacity="0"></use></g></g><g><use xlink:href="#e2HogwucYv" opacity="1" fill="#cc7e48" fill-opacity="1"></use><g><use xlink:href="#e2HogwucYv" opacity="1" fill-opacity="0" stroke="#000000" stroke-width="1" stroke-opacity="0"></use></g></g><g><use xlink:href="#a4rIL7D2xQ" opacity="1" fill="#f7c6a4" fill-opacity="1"></use><g><use xlink:href="#a4rIL7D2xQ" opacity="1" fill-opacity="0" stroke="#000000" stroke-width="1" stroke-opacity="0"></use></g></g><g><use xlink:href="#c1MKza4Cbr" opacity="1" fill="#e8b18b" fill-opacity="1"></use><g><use xlink:href="#c1MKza4Cbr" opacity="1" fill-opacity="0" stroke="#000000" stroke-width="1" stroke-opacity="0"></use></g></g><g><use xlink:href="#b2jNymTRsY" opacity="1" fill="#e8b18b" fill-opacity="1"></use><g><use xlink:href="#b2jNymTRsY" opacity="1" fill-opacity="0" stroke="#000000" stroke-width="1" stroke-opacity="0"></use></g></g><g><use xlink:href="#g4R7FHOsEl" opacity="1" fill="#e8b18b" fill-opacity="1"></use><g><use xlink:href="#g4R7FHOsEl" opacity="1" fill-opacity="0" stroke="#000000" stroke-width="1" stroke-opacity="0"></use></g></g><g><use xlink:href="#aHUsMvb4P" opacity="1" fill="#f7c6a4" fill-opacity="1"></use><g><use xlink:href="#aHUsMvb4P" opacity="1" fill-opacity="0" stroke="#000000" stroke-width="1" stroke-opacity="0"></use></g></g><g><use xlink:href="#eft3xDhds" opacity="1" fill="#f7c6a4" fill-opacity="1"></use><g><use xlink:href="#eft3xDhds" opacity="1" fill-opacity="0" stroke="#000000" stroke-width="1" stroke-opacity="0"></use></g></g><g><use xlink:href="#a1ENG1Xs4X" opacity="1" fill="#f7c6a4" fill-opacity="1"></use><g><use xlink:href="#a1ENG1Xs4X" opacity="1" fill-opacity="0" stroke="#000000" stroke-width="1" stroke-opacity="0"></use></g></g><g><use xlink:href="#f3FkAxT4F" opacity="1" fill="#f7c6a4" fill-opacity="1"></use><g><use xlink:href="#f3FkAxT4F" opacity="1" fill-opacity="0" stroke="#000000" stroke-width="1" stroke-opacity="0"></use></g></g><g><use xlink:href="#b27Y7Kutm9" opacity="1" fill="#f7c6a4" fill-opacity="1"></use><g><use xlink:href="#b27Y7Kutm9" opacity="1" fill-opacity="0" stroke="#000000" stroke-width="1" stroke-opacity="0"></use></g></g><g><use xlink:href="#a3DcYU87qj" opacity="1" fill="#ffdcc5" fill-opacity="1"></use><g><use xlink:href="#a3DcYU87qj" opacity="1" fill-opacity="0" stroke="#000000" stroke-width="1" stroke-opacity="0"></use></g></g></g></g></svg>