<?xml version="1.0" encoding="iso-8859-1"?>
<!-- Generator: Adobe Illustrator 19.0.0, SVG Export Plug-In . SVG Version: 6.00 Build 0)  -->
<svg version="1.1" id="Capa_1" xmlns="http://www.w3.org/2000/svg" xmlns:xlink="http://www.w3.org/1999/xlink" x="0px" y="0px"
	 viewBox="0 0 512 512" style="enable-background:new 0 0 512 512;" xml:space="preserve">
<path style="fill:#B2CAD8;" d="M304.899,202.464c1.666-6.315,25.285-80.511-74.758-110.947S105.453,0,105.453,0
	s-93.445,220.822,98.643,253.099C295.42,268.445,304.899,202.464,304.899,202.464z"/>
<path style="fill:#E1EFFB;" d="M454.374,128.041c-7.779-19.843-31.927-34.034-60.261-33.512
	c-46.393,0.855-71.933,34.656-89.049,61.15c-17.684-21.41-49.141-39.876-105.165-40.943C69.031,112.244,18.497,47.104,18.497,47.104
	S3.022,261.622,155.15,302.708c0,0-23.445,11.267-45.76,32.247c-48.305,45.417-81.906,93.293-100.719,123.63
	c-3.326,5.363-4.667,11.752-3.585,17.969c0.451,2.592,1.281,4.961,6.68,8.706c4.292,2.978,12.779,0.85,19.475,3.982
	c5.094,2.383,8.677,10.469,15.337,12.601c5.511,1.764,13.167-2.589,19.843-1.181c5.752,1.213,10.929,8.366,17.605,9.199
	c5.895,0.736,12.712-4.864,19.367-4.502c5.976,0.325,12.113,6.673,18.731,6.64c1.138-0.006,2.278-0.238,3.425-0.613
	c6.318-2.069,10.558-8.039,10.825-14.683c1.477-36.743,8.175-93.762,34.938-108.467c36.771,32.737,118.098,35.95,166.514-1.738
	c69.566-54.151,62.109-112.152,72.878-152.309c19.343-72.132,96.577-66.484,96.577-66.484
	C469.851,150.294,463.066,142.274,454.374,128.041z"/>
<g>
	<path style="fill:#CCDFED;" d="M81.863,496.704c-0.16,3.975-1.75,7.701-4.348,10.502c2.048,1.304,4.188,2.366,6.512,2.656
		c5.895,0.736,12.712-4.864,19.367-4.502c5.976,0.325,12.113,6.673,18.731,6.64c1.138-0.006,2.278-0.238,3.425-0.613
		c6.318-2.069,10.558-8.039,10.825-14.683c1.477-36.743,8.175-93.762,34.938-108.467C116.016,410.729,83.34,459.961,81.863,496.704z
		"/>
	<path style="fill:#CCDFED;" d="M371.717,195.204c-10.769,40.157-3.312,98.158-72.878,152.309
		c-39.165,30.487-89.965,51.306-127.413,40.822c36.824,32.643,118.032,35.813,166.399-1.837
		c69.566-54.151,62.109-112.152,72.878-152.309c19.343-72.132,96.577-66.484,96.577-66.484c-1.611-0.75-3.146-1.476-4.646-2.192
		C466.119,155.297,386.525,139.987,371.717,195.204z"/>
	<path style="fill:#CCDFED;" d="M199.899,114.736C69.031,112.244,18.497,47.104,18.497,47.104S46.957,232.232,204.096,253.1
		s100.969-97.42,100.969-97.42C287.38,134.269,255.923,115.803,199.899,114.736z"/>
</g>
<path style="fill:#4D4A5B;" d="M418.234,148.231c-2.568,0-4.658-2.089-4.658-4.658c0-7.039-5.727-12.766-12.766-12.766
	s-12.765,5.727-12.765,12.766c0,2.568-2.089,4.658-4.658,4.658c-2.568,0-4.658-2.089-4.658-4.658
	c0-12.176,9.905-22.081,22.08-22.081c12.176,0,22.081,9.905,22.081,22.081C422.891,146.142,420.802,148.231,418.234,148.231z"/>
<g>
</g>
<g>
</g>
<g>
</g>
<g>
</g>
<g>
</g>
<g>
</g>
<g>
</g>
<g>
</g>
<g>
</g>
<g>
</g>
<g>
</g>
<g>
</g>
<g>
</g>
<g>
</g>
<g>
</g>
</svg>
