<svg height="512pt" viewBox="-26 0 512 512" width="512pt" xmlns="http://www.w3.org/2000/svg"><path d="m317.792969 167.722656h70.621093v238.347656h-70.621093zm0 0" fill="#b19046"/><path d="m406.070312 123.585938v31.78125l-17.65625 21.183593h-70.621093l-17.65625-21.183593v-31.78125zm0 0" fill="#2c3e50"/><path d="m388.414062 176.550781v44.140625l-70.621093 52.964844v-44.140625zm0 0" fill="#e4c05c"/><path d="m388.414062 264.828125v44.136719l-70.621093 52.964844v-44.136719zm0 0" fill="#e4c05c"/><path d="m388.414062 353.101562v44.140626h-58.792968zm0 0" fill="#e4c05c"/><path d="m70.621094 167.722656h70.621094v238.347656h-70.621094zm0 0" fill="#b19046"/><path d="m397.242188 406.070312v35.308594h-335.449219v-35.308594c.015625-4.871093 3.957031-8.816406 8.828125-8.828124h317.792968c4.871094.011718 8.8125 3.957031 8.828126 8.828124zm0 0" fill="#95a5a5"/><path d="m432.550781 476.691406h17.65625c4.871094.011719 8.8125 3.957032 8.828125 8.824219v26.484375h-459.035156v-26.484375c.015625-4.867187 3.957031-8.8125 8.828125-8.824219zm0 0" fill="#2c3e50"/><g fill="#41767f"><path d="m432.550781 476.691406v-26.484375c-.011719-4.871093-3.957031-8.8125-8.828125-8.828125h-388.414062c-4.867188.015625-8.8125 3.957032-8.824219 8.828125v26.484375zm0 0"/><path d="m105.929688 397.242188v17.65625c0 4.875-3.949219 8.824218-8.828126 8.824218-4.875 0-8.824218-3.949218-8.824218-8.824218v-17.65625zm0 0"/><path d="m150.070312 397.242188v8.828124c0 4.875-3.953124 8.828126-8.828124 8.828126s-8.828126-3.953126-8.828126-8.828126v-8.828124zm0 0"/><path d="m194.207031 397.242188v17.65625c0 4.875-3.953125 8.824218-8.828125 8.824218s-8.828125-3.949218-8.828125-8.824218v-17.65625zm0 0"/><path d="m282.484375 397.242188v17.65625c0 4.875-3.953125 8.824218-8.828125 8.824218s-8.828125-3.949218-8.828125-8.824218v-17.65625zm0 0"/><path d="m326.621094 397.242188v8.828124c0 4.875-3.953125 8.828126-8.828125 8.828126s-8.828125-3.953126-8.828125-8.828126v-8.828124zm0 0"/><path d="m370.757812 397.242188v17.65625c0 4.875-3.953124 8.824218-8.828124 8.824218s-8.828126-3.949218-8.828126-8.824218v-17.65625zm0 0"/><path d="m238.34375 397.242188v8.828124c0 4.875-3.949219 8.828126-8.828125 8.828126-4.875 0-8.824219-3.953126-8.824219-8.828126v-8.828124zm0 0"/></g><path d="m158.898438 123.585938v31.78125l-17.65625 21.183593h-70.621094l-17.65625-21.183593v-31.78125zm0 0" fill="#2c3e50"/><path d="m35.308594 79.449219h388.414062c4.875 0 8.828125 3.953125 8.828125 8.828125v35.308594c0 4.875-3.953125 8.828124-8.828125 8.828124h-388.414062c-4.875 0-8.824219-3.953124-8.824219-8.828124v-35.308594c0-4.875 3.949219-8.828125 8.824219-8.828125zm0 0" fill="#41767f"/><path d="m406.070312 79.449219-114.761718-79.449219h-123.585938l-114.757812 79.449219zm0 0" fill="#95a5a5"/><path d="m229.515625 52.964844c-14.617187-.015625-26.464844-11.863282-26.480469-26.480469 0-4.878906 3.953125-8.828125 8.828125-8.828125s8.828125 3.949219 8.828125 8.828125c0 4.875 3.949219 8.824219 8.824219 8.824219 4.878906 0 8.828125-3.949219 8.828125-8.824219 0-4.878906 3.953125-8.828125 8.828125-8.828125s8.828125 3.949219 8.828125 8.828125c-.015625 14.617187-11.863281 26.464844-26.484375 26.480469zm0 0" fill="#2c3e50"/><path d="m79.449219 79.449219v17.652343c0 4.878907-3.953125 8.828126-8.828125 8.828126s-8.828125-3.949219-8.828125-8.828126v-17.652343zm0 0" fill="#2c3e50"/><path d="m397.242188 79.449219v17.652343c0 4.878907-3.953126 8.828126-8.828126 8.828126s-8.828124-3.949219-8.828124-8.828126v-17.652343zm0 0" fill="#2c3e50"/><path d="m238.34375 79.449219v26.480469c0 4.875-3.949219 8.828124-8.828125 8.828124-4.875 0-8.824219-3.953124-8.824219-8.828124v-26.480469zm0 0" fill="#2c3e50"/><path d="m141.242188 176.550781v44.140625l-70.621094 52.964844v-44.140625zm0 0" fill="#e4c05c"/><path d="m141.242188 264.828125v44.136719l-70.621094 52.964844v-44.136719zm0 0" fill="#e4c05c"/><path d="m141.242188 353.101562v44.140626h-58.792969zm0 0" fill="#e4c05c"/></svg>