<?xml version="1.0" encoding="UTF-8" standalone="no"?>
<!DOCTYPE svg PUBLIC "-//W3C//DTD SVG 1.1//EN" "http://www.w3.org/Graphics/SVG/1.1/DTD/svg11.dtd">
<svg version="1.1" xmlns="http://www.w3.org/2000/svg" xmlns:xlink="http://www.w3.org/1999/xlink" preserveAspectRatio="xMidYMid meet" viewBox="0 0 640 640" width="640" height="640"><defs><path d="M297.97 468.87C139.55 468.87 11.11 401.92 11.11 325.44C11.11 334.76 11.11 409.33 11.11 418.65C11.11 495.13 139.55 557.14 297.97 557.14C456.4 557.14 584.83 495.13 584.83 418.65C584.83 409.33 584.83 334.76 584.83 325.44C584.83 401.92 456.4 468.87 297.97 468.87" id="a2zw0cn3Ep"></path><path d="M66.28 500.8C66.28 491.65 66.28 418.47 66.28 409.32C58.1 403.7 50.72 397.79 44.21 391.65C44.21 397.79 44.21 428.49 44.21 483.75C53.47 491.51 60.83 497.2 66.28 500.8Z" id="a26vfGOail"></path><path d="M353.14 358.54C194.71 358.54 66.28 291.59 66.28 215.11C66.28 224.43 66.28 299 66.28 308.32C66.28 384.8 194.71 446.8 353.14 446.8C511.56 446.8 640 384.8 640 308.32C640 299 640 224.43 640 215.11C640 291.59 511.56 358.54 353.14 358.54" id="dELSnhT6m"></path><path d="M529.67 409.32C529.67 464.21 529.67 494.7 529.67 500.8C537.84 495.41 545.23 489.7 551.73 483.75C551.73 474.54 551.73 400.85 551.73 391.64C545.24 397.79 537.86 403.7 529.67 409.32" id="j8xyiKEnD"></path><path d="M110.41 523.91C110.41 514.88 110.41 442.56 110.41 433.52C102.69 430.12 95.32 426.54 88.34 422.76C88.34 428.82 88.34 459.12 88.34 513.66C97.9 518.34 105.26 521.76 110.41 523.91Z" id="a1qWfX4XwE"></path><path d="M507.6 513.65C507.6 504.56 507.6 431.84 507.6 422.75C500.63 426.53 493.26 430.12 485.54 433.51C485.54 439.54 485.54 469.67 485.54 523.9C495.6 519.48 502.95 516.07 507.6 513.65Z" id="axXIfTcnV"></path><path d="M154.54 539.09C154.54 530.13 154.54 458.51 154.54 449.56C146.96 447.31 139.6 444.9 132.48 442.32C132.48 448.32 132.48 478.3 132.48 532.26C142.13 535.4 149.49 537.67 154.54 539.09Z" id="djDBGzbMM"></path><path d="M463.47 532.26C463.47 523.26 463.47 451.32 463.47 442.32C456.34 444.9 448.98 447.31 441.4 449.56C441.4 455.53 441.4 485.37 441.4 539.09C451.36 536.16 458.72 533.88 463.47 532.26Z" id="b1TwwhULV6"></path><path d="M209.71 550.95C209.71 542.07 209.71 471.07 209.71 462.2C202.22 460.95 194.85 459.56 187.64 458.01C187.64 463.95 187.64 493.62 187.64 547.03C197.36 548.87 204.71 550.17 209.71 550.95Z" id="a1nnKZowd"></path><path d="M408.3 547.04C408.3 538.14 408.3 466.92 408.3 458.01C401.1 459.56 393.73 460.95 386.24 462.21C386.24 468.12 386.24 497.71 386.24 550.96C396.15 549.31 403.5 548 408.3 547.04Z" id="k4LwH3Gjt"></path><path d="M275.91 557.21C275.91 548.38 275.91 477.74 275.91 468.91C268.47 468.63 261.1 468.23 253.84 467.65C253.84 473.54 253.84 503 253.84 556.03C263.59 556.64 270.95 557.04 275.91 557.21Z" id="a3dD0voHTo"></path><path d="M342.1 556.03C342.1 547.19 342.1 476.47 342.1 467.63C334.85 468.22 327.47 468.62 320.04 468.91C320.04 474.8 320.04 504.23 320.04 557.21C329.91 556.79 337.27 556.39 342.1 556.03Z" id="a1bwb6Zzcp"></path><path d="M353.14 446.88C194.71 446.88 66.28 384.87 66.28 308.39C66.28 302.16 66.28 252.27 66.28 246.03C31.62 267.76 11.11 295 11.11 325.52C11.11 402 139.55 468.95 297.97 468.95C374.26 468.95 443.52 453.4 494.9 428.76C453.08 440.27 404.72 446.88 353.14 446.88" id="c10W86jGnY"></path><path d="M121.44 390.47C121.44 381.32 121.44 308.14 121.44 298.99C113.27 293.37 105.89 287.46 99.38 281.32C99.38 287.46 99.38 318.16 99.38 373.42C108.64 381.18 115.99 386.86 121.44 390.47Z" id="a1q9Mlzl4L"></path><path d="M165.57 413.58C165.57 404.54 165.57 332.23 165.57 323.19C157.85 319.79 150.48 316.2 143.51 312.43C143.51 318.49 143.51 348.79 143.51 403.33C153.07 408.01 160.43 411.43 165.57 413.58Z" id="c2LnrUrrD"></path><path d="M562.77 403.32C562.77 394.23 562.77 321.51 562.77 312.42C555.79 316.19 548.42 319.79 540.7 323.18C540.7 329.2 540.7 359.34 540.7 413.57C550.76 409.15 558.12 405.73 562.77 403.32Z" id="aegcCMqkV"></path><path d="M209.71 428.75C209.71 419.8 209.71 348.18 209.71 339.23C202.13 336.98 194.77 334.56 187.64 331.99C187.64 337.99 187.64 367.97 187.64 421.92C197.3 425.07 204.65 427.34 209.71 428.75Z" id="anzLYMJdT"></path><path d="M518.64 421.92C518.64 412.93 518.64 340.99 518.64 331.99C511.51 334.56 504.15 336.98 496.57 339.23C496.57 345.2 496.57 375.04 496.57 428.75C506.53 425.83 513.88 423.55 518.64 421.92Z" id="a1FIFDQG1v"></path><path d="M264.87 440.61C264.87 431.74 264.87 360.74 264.87 351.86C257.38 350.62 250.01 349.23 242.81 347.68C242.81 353.62 242.81 383.29 242.81 436.7C252.52 438.54 259.88 439.84 264.87 440.61Z" id="lRiQwrZY"></path><path d="M463.47 436.71C463.47 427.81 463.47 356.58 463.47 347.68C456.26 349.23 448.89 350.62 441.4 351.87C441.4 357.79 441.4 387.38 441.4 440.63C451.31 438.98 458.67 437.67 463.47 436.71Z" id="j2o5COygHG"></path><path d="M331.07 446.88C331.07 438.05 331.07 367.41 331.07 358.58C323.64 358.3 316.27 357.9 309.01 357.31C309.01 363.21 309.01 392.67 309.01 445.7C318.76 446.31 326.11 446.7 331.07 446.88Z" id="a39yHWYVNV"></path><path d="M397.27 445.7C397.27 436.86 397.27 366.14 397.27 357.3C390.01 357.89 382.64 358.29 375.2 358.58C375.2 364.47 375.2 393.9 375.2 446.88C385.08 446.45 392.43 446.06 397.27 445.7Z" id="f3ou7sBB1a"></path><path d="M640 215.19C640 291.67 511.56 358.62 353.14 358.62C194.71 358.62 66.28 291.67 66.28 215.19C66.28 138.7 194.71 82.79 353.14 82.79C511.56 82.79 640 138.7 640 215.19" id="axdcyXR1e"></path><path d="M353.14 314.11C202.18 314.11 110.41 255.52 110.41 215.19C110.41 174.86 202.18 115.89 353.14 115.89C504.09 115.89 595.87 174.86 595.87 215.19C595.87 255.52 504.09 314.11 353.14 314.11" id="a2q2JZrMjh"></path><path d="M584.83 298.99C584.83 353.88 584.83 384.37 584.83 390.47C593.01 385.07 600.39 379.37 606.9 373.42C606.9 364.21 606.9 290.52 606.9 281.31C600.4 287.46 593.02 293.37 584.83 298.99" id="a5v3lZ5Tx"></path></defs><g><g><g><use xlink:href="#a2zw0cn3Ep" opacity="1" fill="#e4af18" fill-opacity="1"></use><g><use xlink:href="#a2zw0cn3Ep" opacity="1" fill-opacity="0" stroke="#000000" stroke-width="1" stroke-opacity="0"></use></g></g><g><use xlink:href="#a26vfGOail" opacity="1" fill="#ce9912" fill-opacity="1"></use><g><use xlink:href="#a26vfGOail" opacity="1" fill-opacity="0" stroke="#000000" stroke-width="1" stroke-opacity="0"></use></g></g><g><use xlink:href="#dELSnhT6m" opacity="1" fill="#e4af18" fill-opacity="1"></use><g><use xlink:href="#dELSnhT6m" opacity="1" fill-opacity="0" stroke="#000000" stroke-width="1" stroke-opacity="0"></use></g></g><g><use xlink:href="#j8xyiKEnD" opacity="1" fill="#ce9912" fill-opacity="1"></use><g><use xlink:href="#j8xyiKEnD" opacity="1" fill-opacity="0" stroke="#000000" stroke-width="1" stroke-opacity="0"></use></g></g><g><use xlink:href="#a1qWfX4XwE" opacity="1" fill="#ce9912" fill-opacity="1"></use><g><use xlink:href="#a1qWfX4XwE" opacity="1" fill-opacity="0" stroke="#000000" stroke-width="1" stroke-opacity="0"></use></g></g><g><use xlink:href="#axXIfTcnV" opacity="1" fill="#ce9912" fill-opacity="1"></use><g><use xlink:href="#axXIfTcnV" opacity="1" fill-opacity="0" stroke="#000000" stroke-width="1" stroke-opacity="0"></use></g></g><g><use xlink:href="#djDBGzbMM" opacity="1" fill="#ce9912" fill-opacity="1"></use><g><use xlink:href="#djDBGzbMM" opacity="1" fill-opacity="0" stroke="#000000" stroke-width="1" stroke-opacity="0"></use></g></g><g><use xlink:href="#b1TwwhULV6" opacity="1" fill="#ce9912" fill-opacity="1"></use><g><use xlink:href="#b1TwwhULV6" opacity="1" fill-opacity="0" stroke="#000000" stroke-width="1" stroke-opacity="0"></use></g></g><g><use xlink:href="#a1nnKZowd" opacity="1" fill="#ce9912" fill-opacity="1"></use><g><use xlink:href="#a1nnKZowd" opacity="1" fill-opacity="0" stroke="#000000" stroke-width="1" stroke-opacity="0"></use></g></g><g><use xlink:href="#k4LwH3Gjt" opacity="1" fill="#ce9912" fill-opacity="1"></use><g><use xlink:href="#k4LwH3Gjt" opacity="1" fill-opacity="0" stroke="#000000" stroke-width="1" stroke-opacity="0"></use></g></g><g><use xlink:href="#a3dD0voHTo" opacity="1" fill="#ce9912" fill-opacity="1"></use><g><use xlink:href="#a3dD0voHTo" opacity="1" fill-opacity="0" stroke="#000000" stroke-width="1" stroke-opacity="0"></use></g></g><g><use xlink:href="#a1bwb6Zzcp" opacity="1" fill="#ce9912" fill-opacity="1"></use><g><use xlink:href="#a1bwb6Zzcp" opacity="1" fill-opacity="0" stroke="#000000" stroke-width="1" stroke-opacity="0"></use></g></g><g><use xlink:href="#c10W86jGnY" opacity="1" fill="#ffd949" fill-opacity="1"></use><g><use xlink:href="#c10W86jGnY" opacity="1" fill-opacity="0" stroke="#000000" stroke-width="1" stroke-opacity="0"></use></g></g><g><use xlink:href="#a1q9Mlzl4L" opacity="1" fill="#ce9912" fill-opacity="1"></use><g><use xlink:href="#a1q9Mlzl4L" opacity="1" fill-opacity="0" stroke="#000000" stroke-width="1" stroke-opacity="0"></use></g></g><g><use xlink:href="#c2LnrUrrD" opacity="1" fill="#ce9912" fill-opacity="1"></use><g><use xlink:href="#c2LnrUrrD" opacity="1" fill-opacity="0" stroke="#000000" stroke-width="1" stroke-opacity="0"></use></g></g><g><use xlink:href="#aegcCMqkV" opacity="1" fill="#ce9912" fill-opacity="1"></use><g><use xlink:href="#aegcCMqkV" opacity="1" fill-opacity="0" stroke="#000000" stroke-width="1" stroke-opacity="0"></use></g></g><g><use xlink:href="#anzLYMJdT" opacity="1" fill="#ce9912" fill-opacity="1"></use><g><use xlink:href="#anzLYMJdT" opacity="1" fill-opacity="0" stroke="#000000" stroke-width="1" stroke-opacity="0"></use></g></g><g><use xlink:href="#a1FIFDQG1v" opacity="1" fill="#ce9912" fill-opacity="1"></use><g><use xlink:href="#a1FIFDQG1v" opacity="1" fill-opacity="0" stroke="#000000" stroke-width="1" stroke-opacity="0"></use></g></g><g><use xlink:href="#lRiQwrZY" opacity="1" fill="#ce9912" fill-opacity="1"></use><g><use xlink:href="#lRiQwrZY" opacity="1" fill-opacity="0" stroke="#000000" stroke-width="1" stroke-opacity="0"></use></g></g><g><use xlink:href="#j2o5COygHG" opacity="1" fill="#ce9912" fill-opacity="1"></use><g><use xlink:href="#j2o5COygHG" opacity="1" fill-opacity="0" stroke="#000000" stroke-width="1" stroke-opacity="0"></use></g></g><g><use xlink:href="#a39yHWYVNV" opacity="1" fill="#ce9912" fill-opacity="1"></use><g><use xlink:href="#a39yHWYVNV" opacity="1" fill-opacity="0" stroke="#000000" stroke-width="1" stroke-opacity="0"></use></g></g><g><use xlink:href="#f3ou7sBB1a" opacity="1" fill="#ce9912" fill-opacity="1"></use><g><use xlink:href="#f3ou7sBB1a" opacity="1" fill-opacity="0" stroke="#000000" stroke-width="1" stroke-opacity="0"></use></g></g><g><use xlink:href="#axdcyXR1e" opacity="1" fill="#fcc62d" fill-opacity="1"></use><g><use xlink:href="#axdcyXR1e" opacity="1" fill-opacity="0" stroke="#000000" stroke-width="1" stroke-opacity="0"></use></g></g><g><use xlink:href="#a2q2JZrMjh" opacity="1" fill="#ffd949" fill-opacity="1"></use><g><use xlink:href="#a2q2JZrMjh" opacity="1" fill-opacity="0" stroke="#000000" stroke-width="1" stroke-opacity="0"></use></g></g><g><use xlink:href="#a5v3lZ5Tx" opacity="1" fill="#ce9912" fill-opacity="1"></use><g><use xlink:href="#a5v3lZ5Tx" opacity="1" fill-opacity="0" stroke="#000000" stroke-width="1" stroke-opacity="0"></use></g></g></g></g></svg>