<?xml version="1.0" encoding="UTF-8" standalone="no"?>
<!DOCTYPE svg PUBLIC "-//W3C//DTD SVG 1.1//EN" "http://www.w3.org/Graphics/SVG/1.1/DTD/svg11.dtd">
<svg version="1.1" xmlns="http://www.w3.org/2000/svg" xmlns:xlink="http://www.w3.org/1999/xlink" preserveAspectRatio="xMidYMid meet" viewBox="0 0 640 640" width="640" height="640"><defs><path d="M360.5 402.74L364.29 402.93L368.08 403.19L371.85 403.52L375.61 403.93L379.35 404.41L383.07 404.96L386.78 405.58L390.47 406.28L394.14 407.04L397.79 407.88L401.41 408.79L405.02 409.77L408.61 410.81L412.17 411.93L415.71 413.12L419.22 414.38L422.7 415.7L426.17 417.09L429.6 418.55L433 420.08L436.38 421.68L439.72 423.34L443.04 425.07L446.32 426.87L449.58 428.73L452.79 430.66L455.98 432.65L459.13 434.71L462.24 436.83L465.32 439.02L468.36 441.27L471.36 443.58L474.33 445.96L477.25 448.4L480.13 450.9L482.98 453.46L485.78 456.09L488.53 458.78L491.25 461.53L493.9 464.32L496.49 467.16L499.02 470.04L501.48 472.96L503.89 475.92L506.23 478.92L508.5 481.96L510.71 485.04L512.86 488.16L514.94 491.31L516.96 494.49L518.91 497.71L520.79 500.97L522.61 504.26L524.36 507.58L526.05 510.93L527.67 514.31L529.22 517.72L530.7 521.16L532.11 524.63L533.46 528.12L534.74 531.64L535.94 535.19L537.08 538.76L538.15 542.35L539.14 545.97L540.07 549.61L540.92 553.27L541.71 556.95L542.42 560.65L543.06 564.37L543.62 568.11L544.12 571.86L544.54 575.63L544.88 579.42L545.16 583.22L545.36 587.03L545.48 590.86L545.53 594.7L545.61 622.46L545.61 622.65L545.61 622.83L545.6 623.01L545.59 623.2L545.57 623.38L545.55 623.56L545.53 623.74L545.5 623.92L545.47 624.1L545.44 624.28L545.4 624.46L545.36 624.64L545.32 624.82L545.27 624.99L545.22 625.17L545.17 625.34L545.11 625.51L545.05 625.68L544.98 625.85L544.92 626.02L544.85 626.19L544.77 626.35L544.69 626.52L544.61 626.68L544.53 626.84L544.44 627L544.35 627.16L544.26 627.32L544.17 627.47L544.07 627.62L543.96 627.77L543.86 627.92L543.75 628.07L543.64 628.21L543.53 628.36L543.41 628.5L543.29 628.64L543.16 628.78L543.04 628.91L542.91 629.04L542.78 629.17L542.64 629.3L542.51 629.42L542.37 629.54L542.23 629.66L542.09 629.78L541.94 629.89L541.8 630L541.65 630.1L541.5 630.21L541.35 630.31L541.19 630.4L541.04 630.5L540.88 630.59L540.72 630.68L540.56 630.76L540.4 630.84L540.23 630.92L540.07 630.99L539.9 631.07L539.73 631.13L539.57 631.2L539.39 631.26L539.22 631.32L539.05 631.37L538.88 631.43L538.7 631.47L538.52 631.52L538.35 631.56L538.17 631.6L537.99 631.63L537.81 631.66L537.63 631.69L537.45 631.72L537.27 631.74L537.08 631.75L536.9 631.77L536.72 631.78L536.53 631.78L536.35 631.79L106.64 633.07L106.62 633.07L106.23 633.06L105.86 633.04L105.48 633L105.11 632.95L104.75 632.88L104.39 632.8L104.03 632.71L103.68 632.6L103.34 632.48L103 632.34L102.68 632.2L102.35 632.04L102.04 631.87L101.73 631.68L101.43 631.49L101.14 631.29L100.85 631.07L100.58 630.84L100.31 630.61L100.05 630.36L99.81 630.1L99.57 629.84L99.34 629.56L99.12 629.28L98.92 628.99L98.72 628.69L98.54 628.38L98.37 628.07L98.21 627.74L98.06 627.42L97.92 627.08L97.8 626.74L97.69 626.39L97.6 626.03L97.51 625.67L97.45 625.31L97.39 624.94L97.35 624.57L97.33 624.19L97.32 623.8L97.24 596.04L97.26 592.2L97.37 588.37L97.54 584.56L97.79 580.75L98.12 576.97L98.52 573.19L98.99 569.44L99.53 565.7L100.15 561.97L100.84 558.27L101.6 554.58L102.43 550.92L103.34 547.27L104.31 543.65L105.36 540.05L106.47 536.47L107.66 532.92L108.91 529.39L110.24 525.89L111.63 522.41L113.09 518.97L114.62 515.55L116.22 512.15L117.89 508.79L119.62 505.46L121.42 502.17L123.28 498.9L125.21 495.67L127.21 492.47L129.27 489.31L131.4 486.18L133.59 483.09L135.85 480.03L138.17 477.02L140.56 474.04L143 471.11L145.51 468.21L148.09 465.36L150.72 462.55L153.42 459.78L156.17 457.07L158.97 454.41L161.8 451.82L164.68 449.3L167.61 446.83L170.57 444.43L173.57 442.09L176.61 439.81L179.68 437.6L182.8 435.46L185.95 433.37L189.14 431.36L192.36 429.41L195.61 427.52L198.9 425.7L202.22 423.95L205.57 422.26L208.95 420.65L212.36 419.1L215.8 417.61L219.27 416.2L222.76 414.85L226.28 413.58L229.83 412.37L233.4 411.23L236.99 410.17L240.61 409.17L244.25 408.24L247.91 407.39L251.59 406.61L255.29 405.89L259.01 405.26L262.75 404.69L266.5 404.19L270.27 403.77L274.06 403.43L277.86 403.15L281.67 402.96L285.5 402.83L289.34 402.78L352.27 402.59L352.86 402.59L356.68 402.63L360.5 402.74Z" id="cCpr6CwtT"></path><path d="M360.5 402.74L364.29 402.93L368.08 403.19L371.85 403.52L375.61 403.93L379.35 404.41L383.07 404.96L386.78 405.58L390.47 406.28L394.14 407.04L397.79 407.88L401.41 408.79L405.02 409.77L408.61 410.81L412.17 411.93L415.71 413.12L419.22 414.38L422.7 415.7L426.17 417.09L429.6 418.55L433 420.08L436.38 421.68L439.72 423.34L443.04 425.07L446.32 426.87L449.58 428.73L452.79 430.66L455.98 432.65L459.13 434.71L462.24 436.83L465.32 439.02L468.36 441.27L471.36 443.58L474.33 445.96L477.25 448.4L480.13 450.9L482.98 453.46L485.78 456.09L488.53 458.78L491.25 461.53L493.9 464.32L496.49 467.16L499.02 470.04L501.48 472.96L503.89 475.92L506.23 478.92L508.5 481.96L510.71 485.04L512.86 488.16L514.94 491.31L516.96 494.49L518.91 497.71L520.79 500.97L522.61 504.26L524.36 507.58L526.05 510.93L527.67 514.31L529.22 517.72L530.7 521.16L532.11 524.63L533.46 528.12L534.74 531.64L535.94 535.19L537.08 538.76L538.15 542.35L539.14 545.97L540.07 549.61L540.92 553.27L541.71 556.95L542.42 560.65L543.06 564.37L543.62 568.11L544.12 571.86L544.54 575.63L544.88 579.42L545.16 583.22L545.36 587.03L545.48 590.86L545.53 594.7L545.61 622.46L545.61 622.65L545.6 622.83L545.6 623.01L545.58 623.2L545.57 623.38L545.55 623.56L545.53 623.74L545.5 623.92L545.47 624.1L545.44 624.28L545.4 624.46L545.36 624.64L545.31 624.82L545.27 624.99L545.22 625.17L545.16 625.34L545.11 625.51L545.04 625.68L544.98 625.85L544.91 626.02L544.84 626.19L544.77 626.35L544.69 626.52L544.61 626.68L544.53 626.84L544.44 627L544.35 627.16L544.26 627.32L544.16 627.47L544.06 627.62L543.96 627.77L543.86 627.92L543.75 628.07L543.64 628.21L543.52 628.36L543.41 628.5L543.29 628.64L543.16 628.78L543.04 628.91L542.91 629.04L542.78 629.17L542.64 629.3L542.51 629.42L542.37 629.54L542.23 629.66L542.09 629.78L541.94 629.89L541.8 630L541.65 630.1L541.5 630.21L541.34 630.31L541.19 630.4L541.03 630.5L540.88 630.59L540.72 630.68L540.56 630.76L540.39 630.84L540.23 630.92L540.06 630.99L539.9 631.07L539.73 631.13L539.56 631.2L539.39 631.26L539.22 631.32L539.05 631.37L538.87 631.43L538.7 631.47L538.52 631.52L538.34 631.56L538.16 631.6L537.99 631.63L537.81 631.66L537.62 631.69L537.44 631.72L537.26 631.74L537.08 631.75L536.9 631.77L536.71 631.78L536.53 631.78L536.34 631.79L106.64 633.07L106.58 633.07L106.55 633.07L106.52 633.07L106.49 633.07L106.46 633.07L106.43 633.07L106.4 633.07L106.37 633.07L106.34 633.07L106.31 633.07L106.29 633.06L106.26 633.06L106.23 633.06L106.2 633.06L106.17 633.06L106.14 633.06L106.11 633.05L106.08 633.05L106.05 633.05L106.02 633.05L105.99 633.05L105.96 633.04L105.93 633.04L105.9 633.04L105.87 633.04L105.85 633.03L105.82 633.03L105.79 633.03L105.76 633.03L105.73 633.02L105.7 633.02L105.67 633.02L105.64 633.01L105.61 633.01L105.59 633.01L105.56 633L105.53 633L105.5 633L105.47 632.99L105.44 632.99L507.85 631.79L508.03 631.78L508.22 631.78L508.4 631.77L508.58 631.75L508.77 631.74L508.95 631.72L509.13 631.69L509.31 631.66L509.49 631.63L509.67 631.6L509.85 631.56L510.02 631.52L510.2 631.47L510.38 631.43L510.55 631.37L510.72 631.32L510.89 631.26L511.07 631.2L511.23 631.13L511.4 631.07L511.57 630.99L511.73 630.92L511.9 630.84L512.06 630.76L512.22 630.68L512.38 630.59L512.54 630.5L512.69 630.4L512.85 630.31L513 630.21L513.15 630.1L513.3 630L513.44 629.89L513.59 629.78L513.73 629.66L513.87 629.54L514.01 629.42L514.14 629.3L514.28 629.17L514.41 629.04L514.54 628.91L514.66 628.78L514.79 628.64L514.91 628.5L515.03 628.36L515.14 628.21L515.25 628.07L515.36 627.92L515.46 627.77L515.57 627.62L515.67 627.47L515.76 627.32L515.85 627.16L515.94 627L516.03 626.84L516.11 626.68L516.19 626.52L516.27 626.35L516.35 626.19L516.42 626.02L516.48 625.85L516.55 625.68L516.61 625.51L516.67 625.34L516.72 625.17L516.77 624.99L516.82 624.82L516.86 624.64L516.9 624.46L516.94 624.28L516.97 624.1L517 623.92L517.03 623.74L517.05 623.56L517.07 623.38L517.09 623.2L517.1 623.01L517.11 622.83L517.11 622.65L517.12 622.46L517.03 594.7L516.98 590.86L516.86 587.03L516.66 583.22L516.38 579.42L516.04 575.63L515.62 571.86L515.12 568.1L514.56 564.37L513.92 560.65L513.21 556.95L512.42 553.27L511.57 549.61L510.64 545.97L509.65 542.35L508.58 538.76L507.44 535.18L506.24 531.64L504.96 528.12L503.61 524.62L502.2 521.16L500.72 517.72L499.17 514.31L497.55 510.92L495.86 507.57L494.11 504.25L492.29 500.97L490.41 497.71L488.46 494.49L486.44 491.31L484.36 488.15L482.21 485.04L480 481.96L477.73 478.92L475.39 475.92L472.99 472.96L470.52 470.04L467.99 467.16L465.4 464.32L462.75 461.53L460.03 458.78L457.37 456.18L454.66 453.64L451.92 451.15L449.14 448.73L446.32 446.36L443.46 444.05L440.56 441.8L437.63 439.61L434.67 437.48L431.67 435.41L428.64 433.4L425.57 431.45L422.47 429.56L419.34 427.73L416.18 425.96L412.99 424.26L409.77 422.61L406.53 421.03L403.25 419.52L399.95 418.06L396.62 416.67L393.27 415.34L389.89 414.08L386.49 412.88L383.07 411.74L379.62 410.67L376.15 409.67L372.67 408.73L369.16 407.85L365.63 407.04L362.08 406.3L358.52 405.63L354.93 405.02L351.34 404.48L347.72 404.01L344.09 403.6L340.45 403.26L336.79 403L333.12 402.8L329.44 402.67L352.27 402.59L352.86 402.59L356.68 402.63L360.5 402.74Z" id="e8nLpaMMg7"></path><path d="M294.34 402.79L294.56 402.8L294.77 402.82L294.98 402.85L295.19 402.88L295.39 402.91L295.6 402.95L295.81 403L296.01 403.05L296.22 403.1L296.42 403.16L296.62 403.23L296.82 403.3L297.02 403.37L297.22 403.45L297.41 403.53L297.61 403.62L297.8 403.71L297.99 403.8L298.18 403.9L298.36 404.01L298.54 404.12L298.72 404.23L298.9 404.34L299.08 404.47L299.25 404.59L299.42 404.72L299.59 404.85L299.75 404.99L299.91 405.13L300.07 405.27L300.23 405.42L300.38 405.57L300.53 405.73L300.67 405.89L300.82 406.05L300.95 406.22L301.09 406.39L301.22 406.56L301.35 406.73L301.47 406.91L301.58 407.09L301.7 407.27L301.8 407.46L301.91 407.64L302.01 407.83L302.1 408.02L302.19 408.22L302.28 408.41L302.36 408.61L302.43 408.8L302.51 409L302.57 409.2L302.64 409.4L302.7 409.61L302.75 409.81L302.8 410.02L302.84 410.22L302.88 410.43L302.92 410.64L302.95 410.85L302.97 411.06L302.99 411.27L303.01 411.48L303.02 411.69L303.02 411.9L303.03 412.11L303.02 412.33L303.01 412.54L303 412.75L302.98 412.96L302.96 413.18L302.93 413.39L302.9 413.6L302.86 413.81L302.82 414.02L302.77 414.23L302.72 414.44L302.42 415.58L302.13 416.71L301.85 417.84L301.58 418.98L301.31 420.12L301.06 421.26L300.81 422.4L300.56 423.54L300.33 424.69L300.1 425.83L299.88 426.98L299.67 428.13L299.46 429.28L299.26 430.44L299.07 431.59L298.89 432.74L298.71 433.9L298.55 435.06L298.39 436.22L298.23 437.38L298.09 438.54L297.95 439.7L297.82 440.87L297.7 442.03L297.58 443.2L297.48 444.36L297.38 445.53L297.29 446.7L297.2 447.87L297.12 449.04L297.05 450.21L296.99 451.38L296.94 452.55L296.89 453.72L296.85 454.9L296.82 456.07L296.8 457.25L296.78 458.42L296.78 459.6L296.77 460.77L296.81 463.07L296.9 465.38L297.06 467.71L297.26 470.05L297.53 472.41L297.85 474.77L298.23 477.15L298.66 479.54L299.14 481.93L299.69 484.33L300.28 486.74L300.93 489.16L301.64 491.59L302.39 494.01L303.2 496.45L304.07 498.88L304.98 501.32L305.95 503.76L306.97 506.2L308.03 508.64L309.15 511.08L310.32 513.52L311.54 515.95L312.81 518.38L314.13 520.81L315.5 523.23L316.91 525.65L318.37 528.06L319.89 530.46L321.44 532.85L323.05 535.24L324.7 537.61L326.4 539.98L328.14 542.33L329.93 544.67L331.76 546.99L333.64 549.3L335.56 551.6L337.53 553.88L339.54 556.14L341.58 558.4L343.65 560.66L345.74 562.93L347.86 565.21L350 567.49L352.16 569.76L354.35 572.03L356.56 574.3L358.79 576.55L361.04 578.79L363.31 581.02L365.6 583.23L367.91 585.41L370.23 587.57L372.57 589.71L374.92 591.82L377.29 593.89L379.68 595.93L382.07 597.93L384.48 599.88L386.9 601.8L389.32 603.67L391.76 605.48L394.21 607.25L396.66 608.96L399.12 610.61L401.59 612.21L404.06 613.73L406.54 615.2L409.02 616.59L411.5 617.91L413.99 619.15L416.48 620.32L418.96 621.41L421.45 622.41L423.94 623.33L426.42 624.16L428.9 624.89L431.38 625.54L433.85 626.08L434.13 626.14L434.4 626.21L434.67 626.28L434.93 626.37L435.2 626.46L435.46 626.55L435.71 626.66L435.96 626.77L436.2 626.89L436.45 627.02L436.68 627.15L436.91 627.29L437.14 627.43L437.36 627.59L437.58 627.74L437.79 627.91L438 628.08L438.2 628.25L438.4 628.43L438.59 628.62L438.77 628.81L438.95 629.01L439.13 629.21L439.3 629.41L439.46 629.62L439.61 629.84L439.76 630.06L439.91 630.28L440.05 630.51L440.18 630.74L440.3 630.98L440.42 631.22L440.53 631.46L440.63 631.71L440.73 631.96L440.82 632.21L440.9 632.47L440.98 632.72L441.04 632.99L441.1 633.25L97.32 633.25L97.24 596.04L97.26 592.2L97.37 588.37L97.54 584.56L97.79 580.75L98.12 576.97L98.51 573.19L98.98 569.44L99.53 565.7L100.15 561.97L100.84 558.27L101.6 554.58L102.43 550.92L103.33 547.27L104.31 543.65L105.35 540.05L106.47 536.47L107.65 532.92L108.91 529.39L110.23 525.89L111.63 522.41L113.09 518.96L114.62 515.54L116.22 512.15L117.88 508.79L119.61 505.46L121.41 502.16L123.28 498.9L125.21 495.67L127.21 492.47L129.27 489.3L131.4 486.18L133.59 483.09L135.85 480.03L138.17 477.02L140.55 474.04L143 471.11L145.51 468.21L148.09 465.36L150.72 462.55L153.42 459.78L156.17 457.07L158.97 454.41L161.8 451.82L164.68 449.3L167.61 446.83L170.57 444.43L173.57 442.09L176.61 439.81L179.68 437.6L182.8 435.46L185.95 433.37L189.14 431.36L192.36 429.41L195.61 427.52L198.9 425.7L202.22 423.95L205.57 422.26L208.95 420.65L212.36 419.1L215.8 417.61L219.27 416.2L222.76 414.85L226.28 413.58L229.83 412.37L233.4 411.23L236.99 410.17L240.61 409.17L244.25 408.24L247.91 407.39L251.59 406.61L255.29 405.89L259.01 405.26L262.75 404.69L266.5 404.19L270.27 403.77L274.06 403.43L277.86 403.15L281.67 402.96L285.5 402.83L289.34 402.78L293.71 402.77L293.92 402.77L294.13 402.78L294.34 402.79Z" id="a8feFfkEGR"></path><path d="M294.34 402.79L294.56 402.8L294.77 402.82L294.98 402.85L295.19 402.88L295.39 402.91L295.6 402.95L295.81 403L296.01 403.05L296.22 403.1L296.42 403.16L296.62 403.23L296.82 403.3L297.02 403.37L297.22 403.45L297.41 403.53L297.61 403.62L297.8 403.71L297.99 403.8L298.18 403.9L298.36 404.01L298.54 404.12L298.72 404.23L298.9 404.34L299.08 404.47L299.25 404.59L299.42 404.72L299.59 404.85L299.75 404.99L299.91 405.13L300.07 405.27L300.23 405.42L300.38 405.57L300.53 405.73L300.67 405.89L300.82 406.05L300.95 406.22L301.09 406.39L301.22 406.56L301.35 406.73L301.47 406.91L301.58 407.09L301.7 407.27L301.8 407.46L301.91 407.64L302.01 407.83L302.1 408.02L302.19 408.22L302.28 408.41L302.36 408.61L302.43 408.8L302.51 409L302.57 409.2L302.64 409.4L302.7 409.61L302.75 409.81L302.8 410.02L302.84 410.22L302.88 410.43L302.92 410.64L302.95 410.85L302.97 411.06L302.99 411.27L303.01 411.48L303.02 411.69L303.02 411.9L303.03 412.11L303.02 412.33L303.01 412.54L303 412.75L302.98 412.96L302.96 413.18L302.93 413.39L302.9 413.6L302.86 413.81L302.82 414.02L302.77 414.23L302.72 414.44L302.42 415.58L302.13 416.71L301.85 417.84L301.58 418.98L301.31 420.12L301.06 421.26L300.81 422.4L300.56 423.54L300.33 424.69L300.1 425.83L299.88 426.98L299.67 428.13L299.46 429.28L299.26 430.44L299.07 431.59L298.89 432.74L298.71 433.9L298.55 435.06L298.39 436.22L298.23 437.38L298.09 438.54L297.95 439.7L297.82 440.87L297.7 442.03L297.58 443.2L297.48 444.36L297.38 445.53L297.29 446.7L297.2 447.87L297.12 449.04L297.05 450.21L296.99 451.38L296.94 452.55L296.89 453.72L296.85 454.9L296.82 456.07L296.8 457.25L296.78 458.42L296.78 459.6L296.77 460.77L296.81 463.07L296.9 465.38L297.06 467.71L297.26 470.05L297.53 472.41L297.85 474.77L298.23 477.15L298.66 479.54L299.14 481.93L299.69 484.33L300.28 486.74L300.93 489.16L301.64 491.59L302.39 494.01L303.2 496.45L304.07 498.88L304.98 501.32L305.95 503.76L306.97 506.2L308.03 508.64L309.15 511.08L310.32 513.52L311.54 515.95L312.81 518.38L314.13 520.81L315.5 523.23L316.91 525.65L318.37 528.06L319.89 530.46L321.44 532.85L323.05 535.24L324.7 537.61L326.4 539.98L328.14 542.33L329.93 544.67L331.76 546.99L333.64 549.3L335.56 551.6L337.53 553.88L339.54 556.14L341.58 558.4L343.65 560.66L345.74 562.93L347.86 565.21L350 567.49L352.16 569.76L354.35 572.03L356.56 574.3L358.79 576.55L361.04 578.79L363.31 581.02L365.6 583.23L367.91 585.41L370.23 587.57L372.57 589.71L374.92 591.82L377.29 593.89L379.68 595.93L382.07 597.93L384.48 599.88L386.9 601.8L389.32 603.67L391.76 605.48L394.21 607.25L396.66 608.96L399.12 610.61L401.59 612.21L404.06 613.73L406.54 615.2L409.02 616.59L411.5 617.91L413.99 619.15L416.48 620.32L418.96 621.41L421.45 622.41L423.94 623.33L426.42 624.16L428.9 624.89L431.38 625.54L433.85 626.08L434.13 626.14L434.4 626.21L434.67 626.28L434.93 626.37L435.2 626.46L435.46 626.55L435.71 626.66L435.96 626.77L436.2 626.89L436.45 627.02L436.68 627.15L436.91 627.29L437.14 627.43L437.36 627.59L437.58 627.74L437.79 627.91L438 628.08L438.2 628.25L438.4 628.43L438.59 628.62L438.77 628.81L438.95 629.01L439.13 629.21L439.3 629.41L439.46 629.62L439.61 629.84L439.76 630.06L439.91 630.28L440.05 630.51L440.18 630.74L440.3 630.98L440.42 631.22L440.53 631.46L440.63 631.71L440.73 631.96L440.82 632.21L440.9 632.47L440.98 632.72L441.04 632.99L441.1 633.25L412.61 633.25L412.55 632.99L412.48 632.72L412.41 632.47L412.32 632.21L412.23 631.96L412.14 631.71L412.03 631.46L411.92 631.22L411.8 630.98L411.68 630.74L411.55 630.51L411.41 630.28L411.27 630.06L411.12 629.84L410.96 629.62L410.8 629.41L410.63 629.21L410.46 629.01L410.28 628.81L410.09 628.62L409.9 628.43L409.7 628.25L409.5 628.08L409.29 627.91L409.08 627.74L408.86 627.59L408.64 627.43L408.42 627.29L408.18 627.15L407.95 627.02L407.71 626.89L407.46 626.77L407.21 626.66L406.96 626.55L406.7 626.46L406.44 626.37L406.17 626.28L405.9 626.21L405.63 626.14L405.35 626.08L402.88 625.54L400.4 624.89L397.92 624.16L395.44 623.33L392.96 622.41L390.47 621.41L387.98 620.32L385.49 619.15L383.01 617.91L380.53 616.59L378.04 615.2L375.57 613.73L373.09 612.21L370.63 610.61L368.17 608.96L365.71 607.25L363.26 605.48L360.83 603.67L358.4 601.8L355.98 599.88L353.57 597.93L351.18 595.93L348.79 593.89L346.43 591.82L344.07 589.71L341.73 587.57L339.41 585.41L337.1 583.23L334.81 581.02L332.54 578.79L330.29 576.55L328.06 574.3L325.85 572.03L323.66 569.76L321.5 567.49L319.36 565.21L317.24 562.93L315.15 560.66L313.08 558.4L311.04 556.14L309.03 553.88L307.07 551.6L305.14 549.3L303.27 546.99L301.43 544.67L299.64 542.33L297.9 539.98L296.2 537.61L294.55 535.24L292.95 532.85L291.39 530.46L289.88 528.06L288.42 525.65L287 523.23L285.63 520.81L284.32 518.38L283.05 515.95L281.83 513.52L280.66 511.08L279.54 508.64L278.47 506.2L277.45 503.76L276.49 501.32L275.57 498.88L274.71 496.44L273.9 494.01L273.14 491.58L272.44 489.16L271.79 486.74L271.19 484.33L270.65 481.93L270.16 479.53L269.73 477.14L269.35 474.77L269.03 472.4L268.77 470.05L268.56 467.71L268.41 465.38L268.32 463.07L268.28 460.77L268.28 459.59L268.29 458.42L268.3 457.24L268.33 456.07L268.36 454.89L268.4 453.72L268.44 452.55L268.5 451.38L268.56 450.21L268.63 449.04L268.7 447.87L268.79 446.7L268.88 445.53L268.98 444.36L269.09 443.19L269.2 442.03L269.32 440.86L269.45 439.7L269.59 438.54L269.74 437.38L269.89 436.22L270.05 435.06L270.22 433.9L270.39 432.74L270.57 431.59L270.77 430.43L270.96 429.28L271.17 428.13L271.38 426.98L271.6 425.83L271.83 424.68L272.06 423.54L272.31 422.4L272.56 421.25L272.82 420.11L273.08 418.98L273.35 417.84L273.63 416.7L273.92 415.57L274.22 414.44L274.27 414.23L274.32 414.02L274.36 413.81L274.4 413.6L274.43 413.39L274.46 413.17L274.48 412.96L274.5 412.75L274.52 412.54L274.52 412.32L274.53 412.11L274.53 411.9L274.52 411.69L274.51 411.48L274.49 411.27L274.47 411.06L274.45 410.85L274.42 410.64L274.38 410.43L274.34 410.22L274.3 410.02L274.25 409.81L274.2 409.61L274.14 409.4L274.08 409.2L274.01 409L273.94 408.8L273.86 408.6L273.78 408.41L273.69 408.21L273.6 408.02L273.51 407.83L273.41 407.64L273.31 407.46L273.2 407.27L273.08 407.09L272.97 406.91L272.85 406.73L272.72 406.55L272.59 406.38L272.53 406.3L272.47 406.22L272.4 406.15L272.34 406.07L272.27 405.99L272.21 405.92L272.14 405.84L272.07 405.77L272.01 405.7L271.94 405.63L271.87 405.56L271.8 405.49L271.73 405.42L271.65 405.35L271.58 405.28L271.51 405.21L271.43 405.15L271.36 405.08L271.28 405.02L271.21 404.95L271.13 404.89L271.05 404.83L270.98 404.77L270.9 404.71L270.82 404.65L270.74 404.59L270.66 404.53L270.58 404.47L270.5 404.42L270.41 404.36L270.33 404.31L270.25 404.25L270.16 404.2L270.08 404.15L270 404.1L269.91 404.05L269.83 404L269.74 403.95L269.65 403.9L269.57 403.85L270.05 403.8L270.54 403.75L271.03 403.71L271.53 403.66L272.02 403.61L272.51 403.57L273 403.52L273.49 403.48L273.98 403.44L274.47 403.4L274.97 403.36L275.46 403.32L275.95 403.29L276.44 403.25L276.94 403.22L277.43 403.19L277.92 403.15L278.42 403.12L278.91 403.1L279.41 403.07L279.9 403.04L280.4 403.02L280.89 402.99L281.39 402.97L281.88 402.95L282.38 402.93L282.87 402.91L283.37 402.89L283.87 402.88L284.36 402.86L284.86 402.85L285.36 402.83L285.85 402.82L286.35 402.81L286.85 402.81L287.35 402.8L287.84 402.79L288.34 402.79L288.84 402.78L289.34 402.78L293.71 402.77L293.92 402.77L294.13 402.78L294.34 402.79Z" id="d2K9dSYgqE"></path><path d="M161 223.38L162.2 223.42L163.38 223.48L164.57 223.56L165.75 223.66L166.92 223.79L168.09 223.93L169.26 224.11L170.41 224.3L171.57 224.51L172.71 224.75L173.85 225.01L174.99 225.3L176.11 225.6L177.23 225.93L178.35 226.27L179.45 226.64L180.55 227.03L181.64 227.44L182.72 227.88L183.79 228.33L184.85 228.81L185.9 229.3L186.95 229.82L187.98 230.36L189 230.92L190.02 231.49L191.02 232.09L192.01 232.71L192.99 233.35L193.96 234.01L194.92 234.69L195.87 235.39L196.8 236.11L197.73 236.85L198.64 237.61L199.53 238.39L200.42 239.18L201.29 240L202.14 240.84L202.99 241.69L203.81 242.56L204.62 243.44L205.4 244.34L206.17 245.25L206.92 246.17L207.64 247.1L208.35 248.05L209.04 249.01L209.71 249.98L210.35 250.96L210.98 251.95L211.59 252.96L212.17 253.97L212.74 255L213.28 256.03L213.81 257.08L214.31 258.13L214.79 259.2L215.25 260.27L215.69 261.35L216.11 262.44L216.51 263.54L216.88 264.65L217.24 265.76L217.57 266.89L217.88 268.02L218.17 269.15L218.43 270.3L218.68 271.45L218.9 272.6L219.1 273.77L219.27 274.93L219.43 276.11L219.56 277.29L219.67 278.47L219.75 279.66L219.81 280.85L219.85 282.05L219.87 283.25L219.86 284.45L219.83 285.65L219.77 286.84L219.69 288.03L219.59 289.22L219.47 290.4L219.32 291.57L219.15 292.74L218.96 293.91L218.75 295.06L218.51 296.22L218.25 297.36L217.97 298.5L217.67 299.63L217.34 300.76L216.99 301.87L216.63 302.98L216.24 304.08L215.82 305.18L215.39 306.26L214.94 307.34L214.46 308.41L213.96 309.46L213.45 310.51L212.91 311.55L212.35 312.58L211.77 313.6L211.17 314.6L210.55 315.6L209.91 316.59L209.25 317.56L208.56 318.52L207.86 319.47L207.14 320.41L206.4 321.34L205.64 322.25L204.86 323.15L204.06 324.04L203.24 324.92L202.4 325.78L201.55 326.62L200.68 327.44L199.79 328.25L198.9 329.04L197.99 329.8L197.07 330.55L196.13 331.28L195.19 331.98L194.23 332.67L193.26 333.34L192.28 333.98L191.28 334.61L190.28 335.22L189.26 335.8L188.24 336.37L187.2 336.91L186.16 337.44L185.1 337.94L184.04 338.42L182.97 338.88L181.88 339.32L180.79 339.74L179.69 340.14L178.59 340.51L177.47 340.87L176.35 341.2L175.22 341.51L174.08 341.79L172.94 342.06L171.79 342.3L170.63 342.52L169.47 342.72L168.3 342.9L167.13 343.05L165.95 343.18L164.76 343.29L163.57 343.38L162.38 343.44L161.18 343.48L159.98 343.49L159.8 343.49L157.33 343.44L154.89 343.29L152.48 343.05L150.09 342.71L147.74 342.27L145.42 341.75L143.13 341.14L140.88 340.44L138.67 339.65L136.49 338.78L134.36 337.83L132.28 336.81L130.24 335.7L128.25 334.52L126.31 333.26L124.42 331.93L122.58 330.54L120.8 329.07L119.08 327.54L117.42 325.95L115.82 324.29L114.29 322.58L112.81 320.8L111.41 318.97L110.08 317.09L108.82 315.15L107.63 313.16L106.52 311.12L105.48 309.04L104.52 306.91L103.65 304.74L102.85 302.53L102.15 300.28L101.53 298L101 295.68L100.56 293.32L100.21 290.94L99.95 288.52L99.8 286.08L99.74 283.61L99.75 282.41L99.78 281.21L99.84 280.02L99.91 278.83L100.01 277.65L100.14 276.47L100.28 275.29L100.45 274.12L100.64 272.96L100.86 271.8L101.1 270.65L101.35 269.5L101.64 268.36L101.94 267.23L102.26 266.11L102.61 264.99L102.98 263.88L103.37 262.78L103.78 261.68L104.21 260.6L104.67 259.52L105.14 258.46L105.64 257.4L106.16 256.35L106.7 255.31L107.26 254.28L107.84 253.27L108.44 252.26L109.06 251.26L109.7 250.28L110.36 249.3L111.04 248.34L111.74 247.39L112.47 246.45L113.21 245.52L113.97 244.61L114.75 243.71L115.55 242.82L116.37 241.95L117.21 241.09L118.06 240.24L118.93 239.42L119.81 238.61L120.71 237.83L121.62 237.06L122.54 236.31L123.47 235.59L124.42 234.88L125.38 234.19L126.35 233.53L127.33 232.88L128.32 232.25L129.33 231.65L130.34 231.06L131.37 230.49L132.4 229.95L133.45 229.43L134.5 228.92L135.57 228.44L136.64 227.98L137.72 227.54L138.81 227.12L139.91 226.73L141.02 226.35L142.13 226L143.26 225.67L144.39 225.36L145.52 225.07L146.67 224.8L147.82 224.56L148.97 224.34L150.14 224.14L151.31 223.96L152.48 223.81L153.66 223.68L154.84 223.57L156.03 223.49L157.23 223.42L158.42 223.39L159.62 223.37L159.81 223.37L161 223.38Z" id="b3FbJ3fz7M"></path><path d="M492.39 222.42L493.58 222.47L494.77 222.54L495.96 222.64L497.13 222.77L498.31 222.91L499.48 223.08L500.64 223.27L501.8 223.48L502.95 223.72L504.09 223.98L505.23 224.26L506.36 224.56L507.49 224.89L508.61 225.23L509.72 225.6L510.82 225.99L511.91 226.41L513 226.84L514.07 227.29L515.14 227.77L516.2 228.27L517.25 228.79L518.29 229.32L519.32 229.88L520.33 230.47L521.34 231.07L522.34 231.69L523.33 232.33L524.3 232.99L525.26 233.67L526.21 234.38L527.15 235.1L528.08 235.84L528.99 236.6L529.9 237.38L530.78 238.18L531.66 239L532.52 239.84L533.36 240.7L534.19 241.57L534.99 242.45L535.78 243.34L536.54 244.25L537.29 245.17L538.02 246.11L538.72 247.06L539.41 248.01L540.08 248.98L540.73 249.97L541.35 250.96L541.96 251.96L542.55 252.98L543.11 254L543.66 255.04L544.18 256.08L544.68 257.14L545.17 258.2L545.63 259.27L546.07 260.36L546.48 261.45L546.88 262.55L547.26 263.65L547.61 264.77L547.94 265.89L548.25 267.02L548.54 268.16L548.81 269.3L549.05 270.45L549.27 271.61L549.47 272.77L549.65 273.94L549.8 275.12L549.93 276.29L550.04 277.48L550.12 278.67L550.18 279.86L550.22 281.06L550.24 282.26L550.23 283.46L550.2 284.66L550.14 285.85L550.07 287.04L549.96 288.23L549.84 289.41L549.69 290.58L549.52 291.75L549.33 292.91L549.12 294.07L548.88 295.22L548.62 296.37L548.34 297.51L548.04 298.64L547.71 299.76L547.37 300.88L547 301.99L546.61 303.09L546.2 304.19L545.76 305.27L545.31 306.35L544.83 307.41L544.34 308.47L543.82 309.52L543.28 310.56L542.72 311.59L542.14 312.6L541.54 313.61L540.92 314.61L540.28 315.59L539.62 316.57L538.94 317.53L538.24 318.48L537.51 319.42L536.77 320.35L536.01 321.26L535.23 322.16L534.43 323.05L533.61 323.92L532.77 324.79L531.92 325.63L531.05 326.45L530.17 327.26L529.27 328.04L528.36 328.81L527.44 329.56L526.51 330.28L525.56 330.99L524.6 331.68L523.63 332.35L522.65 332.99L521.66 333.62L520.65 334.23L519.64 334.81L518.61 335.38L517.58 335.92L516.53 336.45L515.48 336.95L514.41 337.43L513.34 337.89L512.26 338.33L511.17 338.75L510.07 339.15L508.96 339.52L507.84 339.87L506.72 340.21L505.59 340.52L504.46 340.8L503.31 341.07L502.16 341.31L501 341.53L499.84 341.73L498.67 341.91L497.5 342.06L496.32 342.19L495.14 342.3L493.95 342.39L492.75 342.45L491.56 342.49L490.35 342.5L490.17 342.5L488.97 342.49L487.78 342.46L486.59 342.4L485.41 342.32L484.23 342.21L483.05 342.09L481.89 341.94L480.72 341.77L479.56 341.57L478.41 341.36L477.26 341.12L476.12 340.86L474.99 340.58L473.86 340.27L472.74 339.95L471.63 339.6L470.53 339.23L469.43 338.84L468.34 338.43L467.26 337.99L466.19 337.54L465.13 337.06L464.07 336.57L463.03 336.05L462 335.51L460.97 334.96L459.96 334.38L458.96 333.78L457.96 333.16L456.98 332.52L456.01 331.86L455.05 331.18L454.11 330.48L453.17 329.76L452.25 329.02L451.34 328.26L450.44 327.49L449.56 326.69L448.69 325.87L447.83 325.04L446.99 324.18L446.16 323.31L445.36 322.43L444.57 321.53L443.8 320.62L443.06 319.7L442.33 318.77L441.62 317.82L440.94 316.86L440.27 315.89L439.62 314.91L438.99 313.92L438.39 312.91L437.8 311.9L437.24 310.88L436.69 309.84L436.17 308.8L435.67 307.74L435.18 306.68L434.72 305.6L434.28 304.52L433.87 303.43L433.47 302.33L433.09 301.22L432.74 300.11L432.41 298.99L432.1 297.86L431.81 296.72L431.55 295.58L431.3 294.43L431.08 293.27L430.88 292.11L430.71 290.94L430.55 289.76L430.42 288.59L430.31 287.4L430.23 286.21L430.17 285.02L430.13 283.82L430.11 282.62L430.12 281.42L430.15 280.22L430.21 279.03L430.29 277.84L430.39 276.66L430.51 275.48L430.66 274.3L430.83 273.13L431.02 271.97L431.23 270.81L431.47 269.66L431.73 268.51L432.01 267.37L432.31 266.24L432.64 265.12L432.98 264L433.35 262.89L433.74 261.79L434.15 260.69L434.59 259.61L435.04 258.53L435.52 257.47L436.01 256.41L436.53 255.36L437.07 254.32L437.63 253.29L438.21 252.28L438.81 251.27L439.43 250.27L440.07 249.29L440.73 248.31L441.41 247.35L442.12 246.4L442.84 245.46L443.58 244.53L444.34 243.62L445.12 242.72L445.92 241.83L446.74 240.96L447.58 240.1L448.43 239.25L449.3 238.43L450.19 237.62L451.08 236.84L451.99 236.07L452.91 235.32L453.85 234.6L454.79 233.89L455.75 233.2L456.72 232.54L457.7 231.89L458.7 231.26L459.7 230.66L460.71 230.07L461.74 229.5L462.77 228.96L463.82 228.44L464.87 227.93L465.94 227.45L467.01 226.99L468.09 226.55L469.19 226.13L470.28 225.74L471.39 225.36L472.51 225.01L473.63 224.68L474.76 224.37L475.9 224.08L477.04 223.81L478.19 223.57L479.35 223.35L480.51 223.15L481.68 222.97L482.85 222.82L484.03 222.69L485.22 222.58L486.4 222.5L487.6 222.43L488.8 222.4L490 222.38L491.2 222.39L492.39 222.42Z" id="bnLZe8dfe"></path><path d="M332.61 16.41L335.87 16.57L339.13 16.79L342.38 17.08L345.61 17.43L348.83 17.84L352.03 18.31L355.22 18.85L358.39 19.45L361.55 20.11L364.69 20.83L367.81 21.61L370.91 22.45L374 23.35L377.06 24.31L380.11 25.34L383.13 26.42L386.13 27.56L389.1 28.75L392.06 30.01L394.99 31.33L397.89 32.7L400.77 34.13L403.62 35.62L406.45 37.16L409.24 38.77L412.01 40.42L414.75 42.14L417.46 43.91L420.14 45.73L422.79 47.61L425.4 49.55L427.99 51.54L430.54 53.58L433.05 55.68L435.53 57.84L437.98 60.04L440.39 62.3L442.76 64.61L445.09 66.98L447.37 69.39L449.6 71.83L451.78 74.3L453.9 76.82L455.96 79.36L457.98 81.95L459.93 84.56L461.84 87.21L463.68 89.89L465.47 92.6L467.21 95.34L468.89 98.11L470.51 100.91L472.07 103.74L473.58 106.59L475.03 109.48L476.42 112.39L477.76 115.32L479.03 118.28L480.25 121.26L481.41 124.27L482.5 127.3L483.54 130.35L484.52 133.42L485.44 136.51L486.3 139.62L487.09 142.75L487.83 145.9L488.5 149.07L489.11 152.25L489.66 155.45L490.15 158.67L490.57 161.9L490.94 165.14L491.23 168.4L491.47 171.67L491.64 174.95L491.75 178.24L491.79 181.55L492.21 321.37L492.09 328.19L491.7 334.95L491.04 341.63L490.12 348.23L488.94 354.74L487.5 361.17L485.82 367.5L483.9 373.73L481.74 379.86L479.36 385.87L476.74 391.76L473.91 397.54L470.86 403.18L467.6 408.69L464.14 414.07L460.48 419.3L456.62 424.38L452.58 429.3L448.36 434.07L443.96 438.67L439.38 443.1L434.64 447.35L429.74 451.42L424.68 455.31L419.47 459L414.12 462.49L408.63 465.79L403 468.87L397.25 471.74L391.37 474.39L385.37 476.81L379.26 479L373.04 480.96L366.72 482.68L360.3 484.15L353.79 485.37L347.2 486.33L340.52 487.03L333.77 487.47L326.95 487.62L326.44 487.62L319.63 487.49L312.9 487.08L306.24 486.4L299.65 485.46L293.15 484.27L286.74 482.82L280.43 481.13L274.22 479.2L268.11 477.03L262.12 474.63L256.24 472.01L250.48 469.17L244.86 466.12L239.36 462.86L234 459.39L228.79 455.73L223.73 451.87L218.82 447.83L214.06 443.61L209.48 439.21L205.06 434.64L200.82 429.9L196.77 425L192.9 419.95L189.22 414.75L185.73 409.4L182.45 403.91L179.38 398.29L176.52 392.54L173.88 386.67L171.47 380.68L169.28 374.58L167.33 368.37L165.62 362.06L164.15 355.66L162.93 349.16L161.97 342.57L161.28 335.91L160.85 329.17L160.69 322.36L160.27 182.54L160.29 179.23L160.38 175.94L160.53 172.66L160.75 169.39L161.03 166.13L161.37 162.88L161.77 159.65L162.24 156.43L162.77 153.23L163.36 150.04L164.02 146.87L164.74 143.72L165.51 140.58L166.35 137.47L167.25 134.37L168.21 131.29L169.23 128.24L170.31 125.2L171.45 122.19L172.65 119.2L173.91 116.23L175.22 113.29L176.6 110.37L178.03 107.48L179.52 104.61L181.07 101.78L182.67 98.97L184.33 96.19L186.05 93.44L187.83 90.71L189.66 88.02L191.54 85.36L193.49 82.74L195.48 80.14L197.53 77.58L199.64 75.06L201.8 72.57L204.02 70.11L206.28 67.7L208.6 65.31L210.97 62.98L213.38 60.7L215.82 58.47L218.29 56.29L220.81 54.17L223.35 52.11L225.94 50.09L228.55 48.14L231.2 46.24L233.88 44.39L236.59 42.6L239.33 40.86L242.1 39.18L244.9 37.56L247.73 36L250.58 34.49L253.47 33.04L256.38 31.65L259.31 30.32L262.27 29.04L265.25 27.82L268.26 26.67L271.29 25.57L274.34 24.53L277.41 23.55L280.5 22.63L283.61 21.78L286.74 20.98L289.89 20.24L293.06 19.57L296.24 18.96L299.44 18.41L302.66 17.92L305.89 17.5L309.13 17.13L312.39 16.84L315.66 16.6L318.94 16.43L322.23 16.32L325.54 16.28L326.04 16.28L329.33 16.31L332.61 16.41Z" id="dibPQD0D"></path><path d="M439.96 214.33L440.33 214.37L440.69 214.42L441.06 214.49L441.41 214.57L441.76 214.66L442.11 214.77L442.45 214.89L442.79 215.02L443.11 215.16L443.43 215.32L443.75 215.49L444.06 215.67L444.35 215.86L444.65 216.06L444.93 216.28L445.2 216.5L445.47 216.74L445.73 216.98L445.97 217.23L446.21 217.49L446.44 217.77L446.65 218.05L446.86 218.33L447.06 218.63L447.24 218.93L447.41 219.25L447.58 219.57L447.73 219.89L447.86 220.22L447.99 220.56L448.1 220.91L448.2 221.26L448.28 221.61L448.35 221.98L448.41 222.34L448.45 222.71L448.48 223.09L448.49 223.47L448.5 223.78L448.5 223.85L448.51 223.9L448.51 223.95L448.51 224L448.51 224.05L448.51 224.07L448.51 224.12L448.52 224.17L448.52 224.19L448.52 224.24L448.52 224.26L448.52 224.31L448.52 224.34L448.52 224.39L448.52 224.41L448.52 224.46L448.52 224.48L448.52 224.51L448.52 224.55L448.52 224.58L448.52 224.6L448.52 224.63L448.53 224.68L448.53 224.7L448.53 224.72L448.53 224.75L448.95 365.64L448.95 366.29L448.95 366.94L448.94 367.59L448.93 368.25L448.92 368.9L448.9 369.55L448.88 370.2L448.85 370.86L448.82 371.51L448.79 372.16L448.76 372.82L448.72 373.47L448.67 374.12L448.63 374.78L448.58 375.43L448.53 376.08L448.47 376.74L448.41 377.39L448.35 378.04L448.28 378.7L448.21 379.35L448.13 380L448.06 380.65L447.97 381.31L447.89 381.96L447.8 382.61L447.71 383.26L447.61 383.91L447.52 384.56L447.41 385.21L447.31 385.86L447.2 386.51L447.08 387.16L446.97 387.81L446.85 388.46L446.73 389.11L446.6 389.76L446.47 390.4L446.33 391.05L446.2 391.69L446.14 391.96L446.07 392.22L445.99 392.48L445.91 392.73L445.82 392.98L445.72 393.23L445.62 393.48L445.51 393.72L445.39 393.95L445.27 394.19L445.14 394.42L445.01 394.64L444.87 394.86L444.72 395.08L444.57 395.29L444.41 395.5L444.24 395.7L444.07 395.9L443.9 396.09L443.72 396.28L443.53 396.46L443.34 396.64L443.14 396.81L442.94 396.98L442.74 397.14L442.53 397.29L442.31 397.44L442.09 397.59L441.87 397.72L441.64 397.86L441.41 397.98L441.17 398.1L440.93 398.21L440.69 398.32L440.44 398.42L440.19 398.51L439.94 398.59L439.68 398.67L439.42 398.74L439.16 398.81L439.11 398.82L439.06 398.83L439.01 398.84L438.95 398.85L438.9 398.86L438.85 398.87L438.8 398.88L438.75 398.89L438.7 398.9L438.65 398.91L438.6 398.91L438.55 398.92L438.49 398.93L438.44 398.94L438.39 398.95L438.34 398.95L438.29 398.96L438.24 398.97L438.19 398.97L438.14 398.98L438.08 398.98L438.03 398.99L437.98 398.99L437.93 399L437.88 399L437.83 399.01L437.78 399.01L437.73 399.01L437.67 399.02L437.62 399.02L437.57 399.02L437.52 399.02L437.47 399.03L437.42 399.03L437.37 399.03L437.32 399.03L437.27 399.03L437.22 399.03L437.16 399.03L437.11 399.03L436.9 399.03L436.69 399.02L436.48 399.01L436.26 398.99L436.05 398.97L435.84 398.95L435.63 398.91L435.43 398.88L435.22 398.84L435.01 398.79L434.81 398.74L434.61 398.69L434.4 398.63L434.2 398.57L434 398.5L433.81 398.43L433.61 398.35L433.42 398.27L433.22 398.18L433.03 398.09L432.85 398L432.66 397.9L432.48 397.79L432.29 397.69L432.11 397.57L431.94 397.46L431.76 397.34L431.59 397.21L431.42 397.09L431.25 396.95L431.09 396.82L430.93 396.68L430.77 396.53L430.61 396.38L430.46 396.23L430.31 396.07L430.17 395.91L430.03 395.75L429.89 395.58L429.75 395.41L427.93 393.13L426.07 390.94L424.15 388.84L422.19 386.82L420.18 384.9L418.12 383.05L416.01 381.29L413.85 379.61L411.65 378.01L409.39 376.49L407.1 375.04L404.75 373.67L402.36 372.36L399.92 371.13L397.43 369.97L394.9 368.88L392.32 367.85L389.69 366.88L387.02 365.97L384.3 365.13L381.54 364.35L378.73 363.62L375.88 362.94L372.98 362.32L370.04 361.75L367.05 361.24L364.01 360.76L360.94 360.34L357.82 359.96L354.65 359.63L351.44 359.33L348.19 359.08L344.89 358.86L341.55 358.68L338.17 358.53L334.75 358.42L331.28 358.34L327.77 358.28L324.21 358.26L320.62 358.26L317.36 358.27L314.14 358.29L310.96 358.33L307.83 358.37L304.73 358.43L301.68 358.51L298.66 358.61L295.69 358.73L292.75 358.87L289.86 359.03L287 359.22L284.19 359.44L281.41 359.7L278.67 359.98L275.97 360.3L273.32 360.65L270.7 361.05L268.12 361.48L265.57 361.96L263.07 362.48L260.6 363.05L258.18 363.66L255.79 364.33L253.44 365.05L251.12 365.82L248.85 366.65L246.61 367.53L244.41 368.48L242.24 369.49L240.12 370.56L238.03 371.7L235.97 372.91L233.96 374.18L231.98 375.53L230.03 376.95L228.13 378.45L226.26 380.03L224.42 381.68L222.62 383.42L220.86 385.24L220.67 385.43L220.47 385.62L220.28 385.81L220.08 385.98L219.87 386.15L219.66 386.31L219.44 386.47L219.23 386.62L219 386.76L218.78 386.9L218.55 387.03L218.32 387.15L218.08 387.27L217.85 387.38L217.6 387.48L217.36 387.58L217.12 387.67L216.87 387.75L216.62 387.82L216.37 387.89L216.11 387.95L215.86 388L215.6 388.05L215.34 388.09L215.08 388.12L214.82 388.15L214.56 388.16L214.3 388.17L214.04 388.18L213.77 388.17L213.51 388.16L213.25 388.14L212.98 388.11L212.72 388.08L212.46 388.03L212.2 387.98L211.93 387.92L211.67 387.86L211.41 387.78L211.15 387.7L210.9 387.61L210.65 387.52L210.4 387.42L210.15 387.31L209.91 387.19L209.68 387.07L209.45 386.94L209.22 386.8L209 386.66L208.78 386.52L208.56 386.36L208.35 386.2L208.15 386.04L207.95 385.87L207.76 385.7L207.57 385.51L207.38 385.33L207.21 385.14L207.03 384.94L206.87 384.74L206.7 384.54L206.55 384.33L206.4 384.12L206.25 383.9L206.12 383.67L205.98 383.45L205.86 383.22L205.74 382.99L205.63 382.75L205.52 382.51L205.42 382.26L205.33 382.02L205.24 381.77L205.17 381.51L205.09 381.26L205.03 381L204.97 380.73L204.92 380.47L204.88 380.2L204.85 379.93L204.81 379.59L204.77 379.24L204.73 378.9L204.69 378.55L204.66 378.2L204.63 377.86L204.59 377.51L204.56 377.17L204.53 376.82L204.5 376.48L204.47 376.14L204.44 375.79L204.41 375.45L204.39 375.11L204.36 374.77L204.33 374.42L204.31 374.08L204.29 373.74L204.27 373.4L204.25 373.06L204.23 372.72L204.21 372.38L204.19 372.04L204.17 371.71L204.15 371.37L204.14 371.03L204.13 370.69L204.11 370.36L204.1 370.02L204.09 369.69L204.08 369.35L204.07 369.02L204.06 368.69L204.05 368.35L204.05 368.02L204.04 367.69L204.04 367.36L204.03 367.03L204.03 366.7L204.03 366.37L203.61 225.48L203.61 225.46L203.61 225.43L203.61 225.41L203.61 225.39L203.61 225.36L203.61 225.34L203.61 225.29L203.61 225.26L203.61 225.24L203.61 225.22L203.61 225.19L203.61 225.14L203.61 225.12L203.61 225.1L203.61 225.07L203.61 225.02L203.61 225L203.61 224.95L203.61 224.93L203.61 224.88L203.61 224.85L203.61 224.81L203.62 224.76L203.62 224.71L203.62 224.66L203.62 224.56L203.62 224.52L203.63 224.2L203.64 223.82L203.67 223.45L203.71 223.07L203.76 222.71L203.83 222.34L203.92 221.99L204.01 221.64L204.12 221.29L204.24 220.95L204.38 220.62L204.53 220.29L204.69 219.97L204.86 219.65L205.04 219.35L205.24 219.05L205.44 218.76L205.66 218.48L205.89 218.21L206.12 217.94L206.37 217.69L206.62 217.44L206.89 217.21L207.16 216.98L207.45 216.77L207.74 216.56L208.04 216.37L208.34 216.19L208.66 216.02L208.98 215.86L209.31 215.71L209.64 215.58L209.98 215.46L210.33 215.35L210.68 215.26L211.04 215.18L211.4 215.11L211.77 215.05L212.14 215.02L212.52 214.99L212.9 214.98L439.17 214.3L439.2 214.3L439.58 214.31L439.96 214.33Z" id="a2e6WqN9MS"></path><path d="M439.96 214.33L440.33 214.37L440.69 214.42L441.06 214.49L441.41 214.57L441.76 214.66L442.11 214.77L442.45 214.89L442.79 215.02L443.11 215.16L443.43 215.32L443.75 215.49L444.06 215.67L444.35 215.86L444.65 216.06L444.93 216.28L445.2 216.5L445.47 216.74L445.73 216.98L445.97 217.23L446.21 217.49L446.44 217.77L446.65 218.05L446.86 218.33L447.06 218.63L447.24 218.93L447.41 219.25L447.58 219.57L447.73 219.89L447.86 220.22L447.99 220.56L448.1 220.91L448.2 221.26L448.28 221.61L448.35 221.98L448.41 222.34L448.45 222.71L448.48 223.09L448.49 223.47L448.5 223.78L448.5 223.85L448.51 223.9L448.51 223.95L448.51 224L448.51 224.05L448.51 224.07L448.51 224.12L448.52 224.17L448.52 224.19L448.52 224.24L448.52 224.26L448.52 224.31L448.52 224.34L448.52 224.39L448.52 224.41L448.52 224.46L448.52 224.48L448.52 224.51L448.52 224.55L448.52 224.58L448.52 224.6L448.52 224.63L448.53 224.68L448.53 224.7L448.53 224.72L448.53 224.75L448.95 365.64L448.95 366.29L448.95 366.94L448.94 367.59L448.93 368.25L448.92 368.9L448.9 369.55L448.88 370.2L448.85 370.86L448.82 371.51L448.79 372.16L448.76 372.82L448.72 373.47L448.67 374.12L448.63 374.78L448.58 375.43L448.52 376.08L448.47 376.74L448.41 377.39L448.34 378.04L448.28 378.7L448.21 379.35L448.13 380L448.05 380.65L447.97 381.31L447.89 381.96L447.8 382.61L447.71 383.26L447.61 383.91L447.51 384.56L447.41 385.21L447.31 385.86L447.2 386.51L447.08 387.16L446.97 387.81L446.85 388.46L446.72 389.11L446.6 389.76L446.47 390.4L446.33 391.05L446.2 391.69L446.14 391.96L446.07 392.22L445.99 392.48L445.91 392.73L445.82 392.98L445.72 393.23L445.62 393.48L445.51 393.72L445.39 393.95L445.27 394.19L445.14 394.42L445.01 394.64L444.87 394.86L444.72 395.08L444.57 395.29L444.41 395.5L444.24 395.7L444.07 395.9L443.9 396.09L443.72 396.28L443.53 396.46L443.34 396.64L443.14 396.81L442.94 396.98L442.74 397.14L442.53 397.29L442.31 397.44L442.09 397.59L441.87 397.72L441.64 397.86L441.41 397.98L441.17 398.1L440.93 398.21L440.69 398.32L440.44 398.42L440.19 398.51L439.94 398.59L439.68 398.67L439.42 398.74L439.16 398.81L439.11 398.82L439.06 398.83L439 398.84L438.95 398.85L438.9 398.86L438.85 398.87L438.8 398.88L438.75 398.89L438.7 398.9L438.65 398.91L438.59 398.91L438.54 398.92L438.49 398.93L438.44 398.94L438.39 398.95L438.34 398.95L438.29 398.96L438.24 398.97L438.18 398.97L438.13 398.98L438.08 398.98L438.03 398.99L437.98 398.99L437.93 399L437.88 399L437.83 399.01L437.77 399.01L437.72 399.01L437.67 399.02L437.62 399.02L437.57 399.02L437.52 399.02L437.47 399.03L437.42 399.03L437.36 399.03L437.31 399.03L437.26 399.03L437.21 399.03L437.16 399.03L437.11 399.03L436.9 399.03L436.68 399.02L436.47 399.01L436.26 398.99L436.05 398.97L435.84 398.95L435.63 398.91L435.42 398.88L435.22 398.84L435.01 398.79L434.81 398.74L434.6 398.69L434.4 398.63L434.2 398.57L434 398.5L433.8 398.43L433.61 398.35L433.41 398.27L433.22 398.18L433.03 398.09L432.84 398L432.66 397.9L432.47 397.79L432.29 397.69L432.11 397.57L431.93 397.46L431.76 397.34L431.59 397.21L431.42 397.09L431.25 396.95L431.09 396.82L430.93 396.68L430.77 396.53L430.61 396.38L430.46 396.23L430.31 396.07L430.17 395.91L430.02 395.75L429.89 395.58L429.75 395.41L429.5 395.09L429.25 394.77L429 394.45L428.75 394.14L428.5 393.83L428.25 393.52L427.99 393.21L427.74 392.9L427.48 392.59L427.23 392.29L426.97 391.99L426.71 391.69L426.45 391.39L426.19 391.09L425.93 390.79L425.67 390.5L425.4 390.21L425.14 389.92L424.88 389.63L424.61 389.34L424.34 389.06L424.07 388.77L423.81 388.49L423.54 388.21L423.27 387.93L422.99 387.65L422.72 387.38L422.45 387.11L422.17 386.83L421.9 386.56L421.62 386.29L421.35 386.03L421.07 385.76L420.79 385.5L420.51 385.23L420.23 384.97L419.95 384.71L419.67 384.46L419.38 384.2L419.1 383.94L419.17 383.49L419.23 383.03L419.29 382.57L419.36 382.12L419.42 381.66L419.48 381.2L419.53 380.75L419.59 380.29L419.64 379.83L419.7 379.37L419.75 378.91L419.79 378.46L419.84 378L419.89 377.54L419.93 377.08L419.97 376.62L420.01 376.17L420.05 375.71L420.09 375.25L420.12 374.79L420.16 374.33L420.19 373.88L420.22 373.42L420.24 372.96L420.27 372.5L420.3 372.04L420.32 371.59L420.34 371.13L420.36 370.67L420.38 370.21L420.39 369.76L420.4 369.3L420.42 368.84L420.43 368.38L420.44 367.93L420.44 367.47L420.45 367.01L420.45 366.56L420.45 366.1L420.45 365.64L420.03 224.75L420.03 224.72L420.03 224.7L420.03 224.68L420.03 224.63L420.03 224.6L420.02 224.58L420.02 224.55L420.02 224.51L420.02 224.48L420.02 224.46L420.02 224.41L420.02 224.39L420.02 224.34L420.02 224.31L420.02 224.26L420.02 224.24L420.02 224.19L420.02 224.17L420.01 224.12L420.01 224.07L420.01 224.05L420.01 224L420.01 223.95L420.01 223.9L420 223.85L420 223.81L420 223.78L419.99 223.47L419.98 223.12L419.96 222.77L419.92 222.43L419.87 222.09L419.81 221.76L419.74 221.43L419.65 221.1L419.56 220.78L419.45 220.46L419.33 220.15L419.21 219.85L419.07 219.55L418.92 219.26L418.76 218.97L418.59 218.69L418.41 218.41L418.22 218.15L418.03 217.89L417.82 217.63L417.61 217.39L417.39 217.15L417.15 216.92L416.92 216.7L416.67 216.48L416.42 216.28L416.16 216.08L415.89 215.89L415.61 215.72L415.33 215.55L415.04 215.39L414.75 215.24L414.45 215.1L414.15 214.97L413.84 214.85L413.52 214.75L413.2 214.65L412.88 214.57L412.55 214.5L412.21 214.43L411.88 214.38L439.17 214.3L439.2 214.3L439.58 214.31L439.96 214.33Z" id="beex7yMdq"></path><path d="M332.61 16.41L335.87 16.57L339.13 16.79L342.38 17.08L345.61 17.43L348.83 17.84L352.03 18.31L355.22 18.85L358.39 19.45L361.55 20.11L364.69 20.83L367.81 21.61L370.91 22.45L374 23.35L377.06 24.31L380.11 25.34L383.13 26.42L386.13 27.56L389.1 28.75L392.06 30.01L394.99 31.33L397.89 32.7L400.77 34.13L403.62 35.62L406.45 37.16L409.24 38.77L412.01 40.42L414.75 42.14L417.46 43.91L420.14 45.73L422.79 47.61L425.4 49.55L427.99 51.54L430.54 53.58L433.05 55.68L435.53 57.84L437.98 60.04L440.39 62.3L442.76 64.61L445.09 66.98L447.37 69.39L449.6 71.83L451.78 74.3L453.9 76.82L455.96 79.36L457.98 81.95L459.93 84.56L461.84 87.21L463.68 89.89L465.47 92.6L467.21 95.34L468.89 98.11L470.51 100.91L472.07 103.74L473.58 106.59L475.03 109.48L476.42 112.39L477.76 115.32L479.03 118.28L480.25 121.26L481.41 124.27L482.5 127.3L483.54 130.35L484.52 133.42L485.44 136.51L486.3 139.62L487.09 142.75L487.83 145.9L488.5 149.07L489.11 152.25L489.66 155.45L490.15 158.67L490.57 161.9L490.94 165.14L491.23 168.4L491.47 171.67L491.64 174.95L491.75 178.24L491.79 181.55L492.21 321.37L492.09 328.19L491.7 334.95L491.04 341.63L490.12 348.23L488.94 354.74L487.5 361.17L485.82 367.5L483.9 373.73L481.75 379.86L479.36 385.87L476.74 391.77L473.91 397.54L470.86 403.18L467.6 408.7L464.14 414.07L460.48 419.3L456.63 424.38L452.58 429.31L448.36 434.07L443.96 438.67L439.38 443.1L434.64 447.36L429.74 451.43L424.68 455.31L419.48 459L414.12 462.5L408.63 465.79L403 468.87L397.25 471.74L391.37 474.39L385.37 476.81L379.26 479.01L373.04 480.97L366.72 482.68L360.3 484.16L353.79 485.38L347.2 486.34L340.52 487.04L333.77 487.47L326.95 487.63L326.44 487.63L326.08 487.63L325.72 487.63L325.37 487.63L325.01 487.62L324.65 487.62L324.29 487.61L323.93 487.61L323.57 487.6L323.21 487.6L322.86 487.59L322.5 487.58L322.14 487.57L321.78 487.56L321.43 487.55L321.07 487.54L320.71 487.53L320.36 487.51L320 487.5L319.64 487.49L319.29 487.47L318.93 487.45L318.58 487.44L318.22 487.42L317.87 487.4L317.51 487.38L317.16 487.36L316.8 487.34L316.45 487.32L316.09 487.3L315.74 487.28L315.39 487.25L315.03 487.23L314.68 487.2L314.33 487.18L313.97 487.15L313.62 487.13L313.27 487.1L312.91 487.07L312.56 487.04L312.21 487.01L318.55 486.35L324.81 485.44L331 484.31L337.11 482.95L343.12 481.36L349.05 479.56L354.89 477.54L360.62 475.32L366.24 472.89L371.76 470.26L377.17 467.44L382.45 464.42L387.62 461.22L392.65 457.84L397.55 454.28L402.32 450.55L406.94 446.65L411.42 442.59L415.75 438.37L419.92 434L423.93 429.48L427.78 424.81L431.46 420L434.96 415.06L438.29 409.99L441.44 404.79L444.39 399.47L447.16 394.04L449.73 388.49L452.1 382.83L454.26 377.07L456.21 371.22L457.95 365.26L459.47 359.22L460.76 353.1L461.83 346.89L462.66 340.61L463.25 334.26L463.6 327.85L463.71 321.37L463.29 181.55L463.25 178.24L463.15 174.95L462.97 171.67L462.74 168.4L462.44 165.14L462.08 161.9L461.65 158.67L461.17 155.45L460.62 152.25L460 149.07L459.33 145.9L458.59 142.75L457.8 139.62L456.94 136.51L456.02 133.42L455.04 130.35L454.01 127.3L452.91 124.27L451.75 121.26L450.53 118.28L449.26 115.32L447.92 112.39L446.53 109.48L445.08 106.59L443.58 103.74L442.01 100.91L440.39 98.11L438.71 95.34L436.98 92.6L435.19 89.89L433.34 87.21L431.44 84.56L429.48 81.95L427.47 79.36L425.4 76.82L423.28 74.3L421.1 71.83L418.87 69.39L416.59 66.98L414.26 64.61L412.15 62.55L410 60.53L407.83 58.55L405.64 56.61L403.41 54.72L401.16 52.87L398.88 51.06L396.57 49.3L394.24 47.58L391.88 45.9L389.49 44.26L387.08 42.68L384.65 41.13L382.2 39.63L379.72 38.17L377.22 36.76L374.7 35.4L372.15 34.08L369.59 32.8L367 31.57L364.4 30.39L361.77 29.25L359.13 28.16L356.47 27.12L353.79 26.12L351.09 25.17L348.37 24.26L345.64 23.41L342.9 22.6L340.13 21.84L337.36 21.12L334.57 20.46L331.76 19.84L328.94 19.28L326.11 18.76L323.27 18.29L320.41 17.87L317.55 17.49L314.67 17.17L311.78 16.9L312.12 16.87L312.46 16.84L312.81 16.81L313.15 16.79L313.49 16.76L313.83 16.74L314.17 16.71L314.52 16.69L314.86 16.66L315.2 16.64L315.54 16.62L315.89 16.6L316.23 16.58L316.57 16.56L316.92 16.54L317.26 16.52L317.6 16.5L317.95 16.48L318.29 16.47L318.63 16.45L318.98 16.43L319.32 16.42L319.66 16.41L320.01 16.39L320.35 16.38L320.7 16.37L321.04 16.36L321.39 16.35L321.73 16.34L322.08 16.33L322.42 16.32L322.77 16.31L323.11 16.31L323.46 16.3L323.81 16.3L324.15 16.29L324.5 16.29L324.84 16.29L325.19 16.28L325.54 16.28L326.04 16.28L329.33 16.31L332.61 16.41Z" id="b5tPODXMbL"></path><path d="M352.25 385.8L352.68 385.86L353.11 385.93L353.53 386.03L353.95 386.14L354.36 386.28L354.77 386.44L355.17 386.61L355.57 386.81L355.95 387.02L356.33 387.26L356.7 387.51L357.06 387.78L357.41 388.08L357.74 388.39L358.06 388.72L358.37 389.07L358.66 389.43L358.92 389.8L359.17 390.18L359.4 390.57L359.6 390.96L359.78 391.36L359.95 391.77L360.09 392.19L360.22 392.6L360.32 393.03L360.41 393.45L360.47 393.88L360.51 394.32L360.54 394.75L360.54 395.18L360.52 395.61L360.49 396.04L360.43 396.47L360.35 396.9L360.26 397.32L360.14 397.74L360.01 398.15L359.85 398.56L359.68 398.96L359.48 399.36L359.26 399.75L359.03 400.12L358.78 400.49L358.5 400.85L358.21 401.2L357.89 401.54L357.56 401.86L356.78 402.57L355.98 403.26L355.17 403.93L354.35 404.57L353.52 405.2L352.67 405.81L351.81 406.4L350.94 406.97L350.05 407.52L349.16 408.04L348.25 408.55L347.34 409.04L346.41 409.5L345.47 409.94L344.53 410.37L343.58 410.77L342.61 411.15L341.64 411.5L340.66 411.84L339.68 412.15L338.68 412.44L337.68 412.71L336.67 412.96L335.66 413.18L334.64 413.38L333.61 413.56L332.58 413.72L331.54 413.85L330.5 413.96L329.46 414.04L328.41 414.11L327.35 414.14L326.3 414.16L326.16 414.16L325.11 414.15L324.06 414.11L323.01 414.05L321.97 413.97L320.93 413.87L319.9 413.74L318.87 413.59L317.85 413.41L316.84 413.22L315.82 413L314.82 412.76L313.82 412.49L312.83 412.21L311.84 411.9L310.87 411.57L309.9 411.22L308.94 410.84L307.99 410.45L307.04 410.03L306.11 409.6L305.18 409.14L304.27 408.66L303.36 408.16L302.47 407.64L301.59 407.1L300.72 406.53L299.86 405.95L299.01 405.35L298.17 404.73L297.35 404.09L296.54 403.42L295.74 402.74L294.96 402.04L294.62 401.72L294.31 401.39L294.01 401.04L293.74 400.68L293.48 400.32L293.24 399.94L293.03 399.55L292.83 399.16L292.65 398.76L292.49 398.35L292.35 397.94L292.24 397.52L292.14 397.1L292.06 396.67L292 396.24L291.96 395.81L291.94 395.38L291.94 394.95L291.96 394.52L292 394.08L292.06 393.66L292.15 393.23L292.25 392.8L292.37 392.38L292.51 391.97L292.67 391.56L292.86 391.16L293.06 390.76L293.28 390.37L293.52 389.99L293.79 389.62L294.07 389.26L294.38 388.91L294.7 388.58L295.03 388.26L295.38 387.97L295.74 387.69L296.1 387.43L296.48 387.2L296.87 386.98L297.26 386.78L297.66 386.61L298.07 386.45L298.48 386.31L298.9 386.19L299.32 386.09L299.75 386.01L300.17 385.95L300.6 385.92L301.04 385.9L301.47 385.9L301.9 385.92L302.33 385.96L302.76 386.02L303.19 386.1L303.61 386.2L304.03 386.32L304.45 386.47L304.86 386.63L305.26 386.81L305.66 387.01L306.04 387.24L306.42 387.48L306.79 387.74L307.16 388.03L307.51 388.33L307.97 388.75L308.45 389.16L308.93 389.55L309.43 389.94L309.93 390.31L310.43 390.67L310.95 391.02L311.47 391.35L312 391.68L312.53 391.99L313.07 392.29L313.62 392.57L314.17 392.85L314.73 393.11L315.29 393.36L315.86 393.59L316.44 393.81L317.02 394.02L317.6 394.22L318.19 394.41L318.78 394.58L319.38 394.73L319.98 394.88L320.59 395.01L321.19 395.13L321.81 395.23L322.42 395.32L323.04 395.4L323.66 395.46L324.28 395.51L324.9 395.55L325.53 395.57L326.16 395.57L326.24 395.57L326.87 395.56L327.5 395.54L328.13 395.5L328.75 395.45L329.38 395.39L330 395.31L330.61 395.22L331.23 395.11L331.84 394.99L332.44 394.85L333.05 394.71L333.65 394.55L334.24 394.37L334.83 394.19L335.42 393.98L336 393.77L336.57 393.54L337.14 393.31L337.71 393.05L338.27 392.79L338.82 392.51L339.37 392.22L339.91 391.92L340.44 391.6L340.97 391.27L341.49 390.94L342.01 390.58L342.51 390.22L343.01 389.84L343.51 389.45L343.99 389.06L344.47 388.64L344.93 388.22L345.28 387.91L345.64 387.63L346.01 387.36L346.39 387.12L346.78 386.89L347.17 386.68L347.57 386.5L347.98 386.34L348.4 386.19L348.82 386.07L349.24 385.96L349.66 385.88L350.09 385.82L350.53 385.77L350.96 385.75L351.39 385.75L351.82 385.76L352.25 385.8Z" id="e13l9DpfhO"></path><path d="M277.58 281.71L278.85 281.99L280.09 282.39L281.27 282.89L282.4 283.48L283.47 284.16L284.47 284.93L285.41 285.79L286.26 286.71L287.04 287.71L287.73 288.78L288.33 289.9L288.84 291.08L289.24 292.31L289.53 293.59L289.71 294.9L289.78 296.25L289.72 297.6L289.55 298.92L289.26 300.19L288.87 301.42L288.37 302.61L287.78 303.74L287.09 304.81L286.32 305.81L285.47 306.74L284.54 307.6L283.54 308.38L282.48 309.07L281.35 309.67L280.17 310.17L278.94 310.57L277.67 310.87L276.35 311.05L275.01 311.11L273.66 311.06L272.34 310.88L271.06 310.59L269.83 310.2L268.65 309.7L267.52 309.11L266.45 308.43L265.45 307.66L264.51 306.8L263.65 305.88L262.88 304.88L262.19 303.81L261.59 302.69L261.08 301.51L260.68 300.28L260.39 299L260.2 297.69L260.14 296.34L260.2 294.99L260.37 293.67L260.66 292.4L261.05 291.16L261.55 289.98L262.14 288.85L262.82 287.78L263.6 286.78L264.45 285.85L265.38 284.99L266.38 284.21L267.44 283.52L268.57 282.92L269.75 282.42L270.98 282.02L272.25 281.72L273.56 281.54L274.91 281.48L276.26 281.53L277.58 281.71Z" id="c59P8SKtsz"></path><path d="M258.57 244.98L259.15 245.07L259.72 245.2L294.72 254.47L295.29 254.64L295.83 254.84L296.36 255.07L296.86 255.33L297.35 255.62L297.81 255.93L298.25 256.27L298.67 256.64L299.06 257.03L299.43 257.44L299.77 257.87L300.09 258.31L300.38 258.78L300.64 259.26L300.87 259.76L301.08 260.27L301.25 260.79L301.39 261.33L301.5 261.87L301.58 262.42L301.63 262.98L301.64 263.54L301.62 264.11L301.56 264.68L301.46 265.26L301.33 265.83L301.19 266.3L301.03 266.76L300.85 267.21L300.64 267.65L300.42 268.07L300.17 268.47L299.91 268.86L299.63 269.23L299.33 269.59L299.01 269.93L298.68 270.26L298.33 270.56L297.97 270.85L297.6 271.12L297.21 271.37L296.81 271.6L296.4 271.81L295.98 272L295.55 272.17L295.12 272.32L294.67 272.45L294.22 272.56L293.76 272.64L293.3 272.7L292.83 272.73L292.35 272.75L292.26 272.75L292.17 272.75L292.08 272.74L291.99 272.74L291.9 272.74L291.81 272.73L291.72 272.72L291.62 272.72L291.53 272.71L291.44 272.7L291.35 272.69L291.26 272.68L291.16 272.67L291.07 272.66L290.98 272.64L290.89 272.63L290.8 272.62L290.7 272.6L290.61 272.58L290.52 272.56L290.43 272.55L290.34 272.53L290.24 272.51L290.15 272.48L290.06 272.46L289.97 272.44L254.97 263.17L254.4 263L253.86 262.8L253.33 262.57L252.83 262.31L252.34 262.02L251.88 261.71L251.44 261.37L251.02 261L250.63 260.61L250.26 260.2L249.92 259.77L249.6 259.32L249.31 258.86L249.05 258.38L248.81 257.88L248.61 257.37L248.44 256.84L248.29 256.31L248.18 255.77L248.1 255.22L248.06 254.66L248.05 254.09L248.07 253.52L248.13 252.95L248.22 252.38L248.36 251.81L248.52 251.24L248.72 250.7L248.96 250.17L249.22 249.67L249.5 249.18L249.82 248.72L250.16 248.28L250.53 247.86L250.92 247.47L251.32 247.1L251.75 246.76L252.2 246.44L252.67 246.15L253.15 245.89L253.65 245.66L254.16 245.45L254.68 245.28L255.22 245.14L255.76 245.03L256.31 244.95L256.87 244.9L257.43 244.89L258 244.92L258.57 244.98Z" id="b3vqlOzf9m"></path><path d="M382.26 281.39L383.54 281.68L384.77 282.07L385.95 282.57L387.08 283.16L388.15 283.85L389.15 284.62L390.09 285.47L390.95 286.4L391.72 287.4L392.41 288.46L393.01 289.59L393.52 290.77L393.92 292L394.21 293.27L394.39 294.59L394.46 295.94L394.4 297.29L394.23 298.6L393.94 299.88L393.55 301.11L393.05 302.29L392.46 303.42L391.77 304.49L391 305.49L390.15 306.43L389.22 307.29L388.22 308.06L387.16 308.75L386.03 309.35L384.85 309.86L383.62 310.26L382.35 310.55L381.03 310.73L379.68 310.8L378.34 310.74L377.02 310.57L375.74 310.28L374.51 309.89L373.33 309.39L372.2 308.8L371.13 308.11L370.13 307.34L369.19 306.49L368.34 305.56L367.56 304.56L366.87 303.5L366.27 302.37L365.77 301.19L365.36 299.96L365.07 298.69L364.89 297.37L364.82 296.02L364.88 294.68L365.05 293.36L365.34 292.08L365.73 290.85L366.23 289.67L366.82 288.54L367.51 287.47L368.28 286.47L369.13 285.53L370.06 284.68L371.06 283.9L372.12 283.21L373.25 282.61L374.43 282.11L375.66 281.7L376.93 281.41L378.25 281.23L379.6 281.16L380.95 281.22L382.26 281.39Z" id="a8kPNFfAF"></path><path d="M397.98 244.52L398.53 244.6L399.07 244.71L399.61 244.85L400.13 245.02L400.64 245.22L401.14 245.45L401.62 245.71L402.09 245.99L402.54 246.31L402.97 246.65L403.38 247.01L403.77 247.4L404.14 247.82L404.48 248.26L404.8 248.72L405.09 249.2L405.36 249.7L405.59 250.23L405.8 250.77L405.97 251.33L406.1 251.91L406.2 252.48L406.26 253.05L406.29 253.62L406.28 254.18L406.24 254.74L406.17 255.29L406.06 255.84L405.92 256.37L405.75 256.9L405.55 257.41L405.32 257.91L405.06 258.39L404.77 258.86L404.46 259.31L404.12 259.74L403.75 260.15L403.36 260.54L402.95 260.91L402.51 261.25L402.05 261.57L401.56 261.86L401.06 262.13L400.54 262.36L399.99 262.57L399.43 262.74L364.48 272.21L364.39 272.24L364.29 272.26L364.2 272.28L364.11 272.31L364.01 272.33L363.92 272.35L363.82 272.37L363.73 272.38L363.64 272.4L363.54 272.42L363.45 272.43L363.35 272.45L363.26 272.46L363.17 272.47L363.07 272.48L362.98 272.49L362.88 272.5L362.79 272.51L362.7 272.52L362.6 272.52L362.51 272.53L362.42 272.53L362.32 272.53L362.23 272.54L362.14 272.54L362.05 272.54L361.57 272.53L361.11 272.49L360.65 272.43L360.19 272.35L359.74 272.25L359.3 272.12L358.86 271.97L358.43 271.8L358.01 271.61L357.61 271.4L357.21 271.18L356.82 270.93L356.45 270.66L356.09 270.37L355.74 270.07L355.41 269.75L355.1 269.41L354.8 269.06L354.52 268.68L354.25 268.3L354.01 267.9L353.78 267.48L353.57 267.05L353.39 266.6L353.22 266.15L353.08 265.67L352.95 265.1L352.85 264.53L352.79 263.96L352.76 263.39L352.77 262.83L352.81 262.27L352.88 261.71L352.99 261.17L353.13 260.64L353.3 260.11L353.5 259.6L353.73 259.1L353.99 258.62L354.28 258.15L354.59 257.7L354.93 257.27L355.3 256.86L355.69 256.47L356.1 256.1L356.54 255.75L357 255.44L357.49 255.14L357.99 254.88L358.51 254.65L359.06 254.44L359.62 254.27L394.57 244.8L395.14 244.66L395.71 244.56L396.29 244.5L396.85 244.47L397.42 244.48L397.98 244.52Z" id="aXQLpoYJ"></path><path d="M483.07 93.3L484.79 93.47L486.49 93.72L488.16 94.02L489.82 94.4L491.44 94.83L493.05 95.33L494.62 95.89L496.17 96.51L497.69 97.19L499.17 97.92L500.62 98.71L502.04 99.55L503.42 100.44L504.77 101.39L506.07 102.38L507.34 103.42L508.57 104.51L509.75 105.65L510.89 106.83L511.98 108.05L513.03 109.31L514.03 110.62L514.98 111.96L515.88 113.34L516.72 114.75L517.51 116.2L518.25 117.69L518.93 119.2L519.56 120.74L520.12 122.32L520.62 123.92L521.07 125.55L521.44 127.2L521.76 128.88L522.01 130.57L522.19 132.29L522.3 134.03L522.34 135.79L522.33 136.64L522.31 137.49L522.27 138.34L522.21 139.18L522.14 140.02L522.05 140.86L521.95 141.7L521.83 142.53L521.69 143.35L521.54 144.18L521.37 145L521.18 145.81L520.98 146.62L520.77 147.42L520.53 148.22L520.29 149.02L520.02 149.81L519.74 150.59L519.45 151.37L519.14 152.14L518.82 152.9L518.48 153.66L518.12 154.42L517.75 155.16L517.37 155.9L516.97 156.63L516.56 157.36L516.13 158.07L515.69 158.78L515.23 159.49L514.76 160.18L514.27 160.87L513.77 161.54L513.26 162.21L512.73 162.87L512.18 163.52L511.63 164.17L511.06 164.8L510.47 165.42L509.87 166.04L509.26 166.64L508.64 167.23L508.01 167.8L507.37 168.36L506.73 168.91L506.07 169.44L505.4 169.96L504.73 170.47L504.04 170.96L503.35 171.43L502.65 171.9L501.95 172.34L501.23 172.78L500.51 173.19L499.78 173.6L499.04 173.99L498.3 174.36L497.55 174.72L496.79 175.06L496.03 175.39L495.26 175.71L494.48 176L493.7 176.29L492.91 176.56L492.12 176.81L491.32 177.04L490.52 177.27L489.71 177.47L488.9 177.66L488.08 177.83L487.26 177.99L486.44 178.13L485.61 178.26L484.77 178.37L483.93 178.46L483.09 178.54L482.25 178.6L481.4 178.64L480.55 178.67L479.7 178.68L171.8 179.6L171.67 179.6L170.82 179.6L169.98 179.57L169.14 179.53L168.29 179.47L167.46 179.4L166.62 179.31L165.79 179.2L164.97 179.08L164.14 178.94L163.32 178.79L162.51 178.62L161.7 178.43L160.89 178.23L160.09 178.01L159.3 177.78L158.51 177.53L157.72 177.27L156.94 176.99L156.17 176.7L155.4 176.39L154.64 176.06L153.88 175.73L153.13 175.37L152.39 175L151.65 174.62L150.93 174.22L150.2 173.81L149.49 173.38L148.78 172.94L148.08 172.48L147.39 172.01L146.71 171.53L146.04 171.03L145.37 170.51L144.71 169.99L144.06 169.45L143.42 168.89L142.79 168.32L142.17 167.74L141.56 167.14L140.96 166.53L140.37 165.91L139.79 165.28L139.23 164.65L138.69 164L138.15 163.34L137.63 162.67L137.13 162L136.64 161.32L136.16 160.63L135.7 159.93L135.25 159.22L134.82 158.5L134.4 157.78L134 157.05L133.61 156.32L133.24 155.57L132.88 154.82L132.53 154.06L132.2 153.3L131.89 152.53L131.59 151.76L131.31 150.97L131.04 150.19L130.79 149.39L130.55 148.6L130.33 147.79L130.13 146.99L129.94 146.17L129.76 145.36L129.61 144.53L129.46 143.71L129.34 142.88L129.23 142.04L129.14 141.21L129.06 140.37L129 139.52L128.95 138.68L128.93 137.83L128.92 136.97L128.95 135.21L129.05 133.47L129.22 131.75L129.46 130.04L129.76 128.36L130.13 126.7L130.56 125.07L131.06 123.46L131.62 121.88L132.23 120.33L132.91 118.81L133.64 117.32L134.42 115.87L135.26 114.44L136.16 113.06L137.1 111.71L138.1 110.4L139.14 109.13L140.23 107.9L141.36 106.71L142.54 105.57L143.77 104.47L145.03 103.42L146.34 102.42L147.68 101.47L149.06 100.56L150.48 99.72L151.93 98.92L153.41 98.18L154.93 97.5L156.48 96.87L158.05 96.3L159.66 95.8L161.29 95.36L162.94 94.98L164.62 94.66L166.32 94.41L168.05 94.23L169.79 94.12L171.55 94.08L479.45 93.16L479.58 93.16L481.33 93.19L483.07 93.3Z" id="acfKMvwlH"></path><path d="M483.07 93.3L484.79 93.47L486.49 93.72L488.16 94.02L489.82 94.4L491.44 94.83L493.05 95.33L494.62 95.89L496.17 96.51L497.69 97.19L499.17 97.92L500.62 98.71L502.04 99.55L503.42 100.44L504.77 101.39L506.07 102.38L507.34 103.42L508.57 104.51L509.75 105.65L510.89 106.83L511.98 108.05L513.03 109.31L514.03 110.62L514.98 111.96L515.88 113.34L516.72 114.75L517.51 116.2L518.25 117.69L518.93 119.2L519.56 120.75L520.12 122.32L520.62 123.92L521.07 125.55L521.44 127.2L521.76 128.88L522.01 130.58L522.19 132.3L522.3 134.04L522.34 135.79L522.33 136.65L522.31 137.5L522.27 138.34L522.21 139.19L522.14 140.03L522.05 140.87L521.95 141.7L521.83 142.53L521.69 143.36L521.54 144.18L521.37 145L521.19 145.81L520.99 146.62L520.77 147.43L520.54 148.23L520.29 149.02L520.03 149.81L519.75 150.59L519.45 151.37L519.15 152.14L518.82 152.91L518.48 153.67L518.13 154.42L517.76 155.16L517.37 155.9L516.97 156.63L516.56 157.36L516.13 158.08L515.69 158.79L515.23 159.49L514.76 160.18L514.27 160.87L513.77 161.55L513.26 162.21L512.73 162.87L512.18 163.53L511.63 164.17L511.06 164.8L510.47 165.42L509.87 166.04L509.26 166.64L508.64 167.23L508.01 167.8L507.37 168.36L506.73 168.91L506.07 169.44L505.4 169.96L504.73 170.47L504.05 170.96L503.35 171.43L502.65 171.9L501.95 172.34L501.23 172.78L500.51 173.2L499.78 173.6L499.04 173.99L498.3 174.36L497.55 174.72L496.79 175.06L496.03 175.39L495.26 175.71L494.48 176.01L493.7 176.29L492.92 176.56L492.12 176.81L491.33 177.05L490.52 177.27L489.71 177.47L488.9 177.66L488.08 177.84L487.26 177.99L486.44 178.14L485.61 178.26L484.77 178.37L483.94 178.46L483.1 178.54L482.25 178.6L481.4 178.65L480.55 178.67L479.7 178.69L171.81 179.61L171.61 179.61L171.55 179.61L171.49 179.61L171.43 179.61L171.36 179.61L171.3 179.61L171.24 179.61L171.18 179.61L171.12 179.6L171.06 179.6L170.99 179.6L170.93 179.6L170.87 179.6L170.81 179.6L170.75 179.6L170.68 179.59L170.62 179.59L170.56 179.59L170.5 179.59L170.44 179.59L170.38 179.58L170.31 179.58L170.25 179.58L170.19 179.58L170.13 179.57L170.07 179.57L170.01 179.57L169.94 179.57L169.88 179.56L169.82 179.56L169.76 179.56L169.7 179.55L169.64 179.55L169.57 179.55L169.51 179.54L169.45 179.54L169.39 179.54L169.33 179.53L169.27 179.53L169.21 179.53L451.2 178.69L452.05 178.67L452.9 178.65L453.75 178.6L454.6 178.54L455.44 178.46L456.27 178.37L457.11 178.26L457.94 178.14L458.76 177.99L459.58 177.84L460.4 177.66L461.21 177.47L462.02 177.27L462.83 177.05L463.62 176.81L464.42 176.56L465.2 176.29L465.99 176.01L466.76 175.71L467.53 175.39L468.29 175.06L469.05 174.72L469.8 174.36L470.54 173.99L471.28 173.6L472.01 173.2L472.73 172.78L473.45 172.34L474.16 171.9L474.85 171.43L475.55 170.96L476.23 170.47L476.9 169.96L477.57 169.44L478.23 168.91L478.87 168.36L479.51 167.8L480.14 167.23L480.76 166.64L481.37 166.04L481.97 165.42L482.56 164.8L483.13 164.17L483.68 163.53L484.23 162.87L484.76 162.21L485.27 161.55L485.77 160.87L486.26 160.18L486.73 159.49L487.19 158.79L487.63 158.08L488.06 157.36L488.47 156.63L488.87 155.9L489.26 155.16L489.63 154.42L489.98 153.67L490.32 152.91L490.65 152.14L490.95 151.37L491.25 150.59L491.53 149.81L491.79 149.02L492.04 148.23L492.27 147.43L492.49 146.62L492.69 145.81L492.87 145L493.04 144.18L493.19 143.36L493.33 142.53L493.45 141.7L493.55 140.87L493.64 140.03L493.72 139.19L493.77 138.34L493.81 137.5L493.83 136.65L493.84 135.79L493.8 134.1L493.7 132.42L493.53 130.76L493.3 129.12L493.01 127.5L492.65 125.9L492.24 124.33L491.77 122.77L491.24 121.25L490.66 119.75L490.03 118.28L489.34 116.83L488.59 115.42L487.8 114.04L486.96 112.69L486.07 111.38L485.14 110.1L484.16 108.86L483.13 107.65L482.06 106.48L480.95 105.36L479.8 104.27L478.61 103.23L477.38 102.23L476.12 101.28L474.82 100.37L473.48 99.52L472.11 98.71L470.71 97.95L469.28 97.24L467.82 96.58L466.33 95.98L464.82 95.43L463.28 94.94L461.71 94.5L460.12 94.13L458.51 93.81L456.88 93.56L455.23 93.36L453.56 93.23L479.45 93.16L479.58 93.16L481.33 93.19L483.07 93.3Z" id="c1HP0O5kuc"></path><path d="M333.78 0.33L337.79 0.74L341.75 1.3L345.66 2.02L349.52 2.89L353.32 3.91L357.06 5.07L360.74 6.38L364.35 7.82L367.89 9.4L371.35 11.11L374.74 12.95L378.05 14.91L381.27 17L384.41 19.2L387.46 21.52L390.42 23.96L393.28 26.5L396.04 29.15L398.7 31.9L401.25 34.75L403.69 37.7L406.02 40.74L408.24 43.88L410.34 47.09L412.31 50.4L414.16 53.78L415.88 57.24L417.47 60.78L418.92 64.38L420.24 68.05L421.42 71.79L422.45 75.59L423.33 79.45L424.06 83.36L424.64 87.32L425.06 91.33L425.32 95.39L425.41 99.49L425.4 101.49L425.35 103.48L425.26 105.46L425.13 107.44L424.96 109.41L424.75 111.37L424.51 113.32L424.23 115.26L423.91 117.2L423.55 119.12L423.16 121.03L422.73 122.94L422.26 124.83L421.76 126.71L421.22 128.58L420.64 130.43L420.03 132.28L419.38 134.11L418.7 135.92L417.98 137.73L417.22 139.51L416.43 141.29L415.61 143.04L414.75 144.79L413.85 146.51L412.92 148.22L411.96 149.91L410.96 151.58L409.93 153.24L408.87 154.88L407.77 156.5L406.64 158.1L405.47 159.68L404.27 161.24L403.04 162.77L401.78 164.29L400.48 165.79L399.15 167.26L397.79 168.71L396.4 170.14L394.97 171.55L393.53 172.92L392.06 174.25L390.58 175.56L389.07 176.83L387.53 178.07L385.98 179.28L384.41 180.46L382.82 181.6L381.2 182.71L379.57 183.78L377.92 184.83L376.26 185.83L374.57 186.81L372.87 187.75L371.15 188.65L369.41 189.52L367.66 190.36L365.89 191.16L364.11 191.92L362.31 192.65L360.5 193.35L358.67 194.01L356.83 194.63L354.98 195.22L353.11 195.77L351.23 196.29L349.35 196.76L347.44 197.21L345.53 197.61L343.61 197.98L341.68 198.31L339.74 198.6L337.79 198.86L335.83 199.07L333.86 199.25L331.89 199.39L329.9 199.5L327.91 199.56L325.92 199.59L325.62 199.59L321.52 199.5L317.46 199.26L313.45 198.85L309.49 198.28L305.58 197.56L301.72 196.69L297.92 195.67L294.18 194.51L290.5 193.21L286.89 191.76L283.35 190.19L279.89 188.48L276.5 186.64L273.19 184.67L269.97 182.59L266.83 180.38L263.78 178.06L260.82 175.63L257.96 173.09L255.2 170.44L252.54 167.68L249.99 164.83L247.55 161.88L245.22 158.84L243 155.71L240.9 152.49L238.93 149.19L237.08 145.8L235.36 142.34L233.77 138.81L232.32 135.2L231 131.53L229.82 127.79L228.79 123.99L227.91 120.14L227.18 116.22L226.6 112.26L226.18 108.25L225.92 104.19L225.83 100.09L225.9 95.98L226.13 91.92L226.53 87.9L227.09 83.92L227.8 80L228.66 76.13L229.67 72.32L230.83 68.57L232.13 64.88L233.57 61.26L235.14 57.71L236.85 54.24L238.68 50.84L240.64 47.52L242.73 44.28L244.93 41.14L247.25 38.08L249.68 35.11L252.23 32.24L254.88 29.47L257.63 26.81L260.49 24.25L263.44 21.79L266.48 19.46L269.62 17.23L272.84 15.13L276.15 13.15L279.53 11.29L283 9.57L286.54 7.97L290.15 6.51L293.83 5.19L297.57 4.01L301.38 2.98L305.24 2.09L309.16 1.36L313.13 0.78L317.15 0.36L321.22 0.1L325.32 0L325.62 0L329.72 0.08L333.78 0.33Z" id="b15whezuwK"></path><path d="M333.78 0.33L337.79 0.74L341.75 1.3L345.66 2.02L349.52 2.89L353.32 3.91L357.06 5.07L360.74 6.38L364.35 7.82L367.89 9.4L371.35 11.11L374.74 12.95L378.05 14.91L381.27 17L384.41 19.2L387.46 21.52L390.42 23.96L393.28 26.5L396.04 29.15L398.7 31.9L401.25 34.75L403.69 37.7L406.02 40.74L408.24 43.88L410.34 47.09L412.31 50.4L414.16 53.78L415.88 57.24L417.47 60.78L418.92 64.38L420.24 68.05L421.42 71.79L422.45 75.59L423.33 79.45L424.06 83.36L424.64 87.32L425.06 91.33L425.32 95.39L425.41 99.49L425.4 101.49L425.35 103.48L425.26 105.46L425.13 107.44L424.96 109.41L424.75 111.37L424.51 113.32L424.23 115.26L423.91 117.2L423.55 119.12L423.16 121.03L422.73 122.94L422.26 124.83L421.76 126.71L421.22 128.58L420.64 130.43L420.03 132.28L419.38 134.11L418.7 135.92L417.98 137.73L417.22 139.51L416.43 141.29L415.61 143.04L414.75 144.79L413.85 146.51L412.92 148.22L411.96 149.91L410.96 151.58L409.93 153.24L408.87 154.88L407.77 156.5L406.64 158.1L405.47 159.68L404.27 161.24L403.04 162.77L401.78 164.29L400.48 165.79L399.15 167.26L397.79 168.71L396.4 170.14L394.97 171.55L393.53 172.92L392.06 174.25L390.58 175.56L389.07 176.83L387.53 178.07L385.98 179.28L384.41 180.46L382.82 181.6L381.2 182.71L379.57 183.78L377.92 184.83L376.26 185.83L374.57 186.81L372.87 187.75L371.15 188.65L369.41 189.52L367.66 190.36L365.89 191.16L364.11 191.92L362.31 192.65L360.5 193.35L358.67 194.01L356.83 194.63L354.98 195.22L353.11 195.77L351.23 196.29L349.35 196.76L347.44 197.21L345.53 197.61L343.61 197.98L341.68 198.31L339.74 198.6L337.79 198.86L335.83 199.07L333.86 199.25L331.89 199.39L329.9 199.5L327.91 199.56L325.92 199.59L325.62 199.59L325.26 199.59L324.9 199.58L324.53 199.58L324.17 199.58L323.81 199.57L323.45 199.56L323.09 199.55L322.73 199.54L322.38 199.53L322.02 199.52L321.66 199.51L321.3 199.49L320.94 199.47L320.59 199.46L320.23 199.44L319.87 199.42L319.52 199.39L319.16 199.37L318.8 199.35L318.45 199.32L318.09 199.3L317.74 199.27L317.39 199.24L317.03 199.21L316.68 199.18L316.32 199.14L315.97 199.11L315.62 199.07L315.27 199.04L314.92 199L314.56 198.96L314.21 198.92L313.86 198.88L313.51 198.84L313.16 198.79L312.81 198.75L312.46 198.7L312.11 198.66L311.77 198.61L311.42 198.56L313.02 198.32L314.61 198.05L316.19 197.76L317.77 197.44L319.34 197.1L320.9 196.73L322.45 196.34L324 195.93L325.54 195.49L327.07 195.02L328.59 194.53L330.1 194.02L331.61 193.48L333.1 192.92L334.59 192.33L336.06 191.72L337.53 191.09L338.98 190.43L340.43 189.75L341.86 189.04L343.28 188.31L344.69 187.56L346.09 186.79L347.48 185.99L348.86 185.17L350.22 184.32L351.57 183.45L352.91 182.56L354.24 181.65L355.55 180.72L356.85 179.76L358.13 178.78L359.41 177.78L360.66 176.75L361.91 175.71L363.13 174.64L364.35 173.55L365.55 172.43L366.73 171.3L367.9 170.14L369.29 168.71L370.65 167.26L371.98 165.79L373.28 164.29L374.54 162.77L375.77 161.24L376.97 159.68L378.14 158.1L379.27 156.5L380.37 154.88L381.43 153.24L382.47 151.58L383.46 149.91L384.43 148.22L385.36 146.51L386.25 144.78L387.11 143.04L387.94 141.28L388.73 139.51L389.48 137.72L390.2 135.92L390.88 134.1L391.53 132.27L392.14 130.43L392.72 128.57L393.26 126.71L393.76 124.83L394.23 122.93L394.66 121.03L395.05 119.12L395.41 117.19L395.73 115.26L396.01 113.32L396.25 111.36L396.46 109.4L396.63 107.44L396.76 105.46L396.85 103.48L396.9 101.49L396.91 99.49L396.83 95.75L396.62 92.05L396.26 88.38L395.78 84.75L395.17 81.17L394.43 77.63L393.57 74.13L392.58 70.69L391.48 67.29L390.26 63.96L388.92 60.67L387.48 57.45L385.92 54.29L384.26 51.19L382.49 48.16L380.61 45.2L378.64 42.3L376.58 39.49L374.41 36.75L372.16 34.08L369.81 31.5L367.38 29L364.86 26.59L362.26 24.26L359.58 22.03L356.82 19.89L353.98 17.84L351.07 15.89L348.1 14.04L345.05 12.3L341.94 10.66L338.76 9.13L335.53 7.7L332.24 6.39L328.89 5.2L325.48 4.12L322.03 3.16L318.53 2.33L314.98 1.62L311.39 1.03L311.73 0.99L312.07 0.94L312.42 0.89L312.76 0.85L313.1 0.8L313.45 0.76L313.79 0.72L314.13 0.68L314.48 0.64L314.82 0.6L315.17 0.56L315.51 0.53L315.86 0.49L316.21 0.46L316.55 0.42L316.9 0.39L317.25 0.36L317.59 0.33L317.94 0.3L318.29 0.28L318.64 0.25L318.99 0.23L319.34 0.2L319.69 0.18L320.04 0.16L320.39 0.14L320.74 0.12L321.09 0.11L321.44 0.09L321.79 0.08L322.14 0.06L322.49 0.05L322.85 0.04L323.2 0.03L323.55 0.02L323.91 0.01L324.26 0.01L324.61 0L324.97 0L325.32 0L325.62 0L329.72 0.08L333.78 0.33Z" id="a44VbGkCD3"></path><path d="M349.4 68.59C337.72 41.46 331.23 26.39 329.93 23.37C328.57 20.21 324.08 20.21 322.71 23.37C321.42 26.39 314.92 41.46 303.24 68.59C273.83 71.32 257.49 72.83 254.22 73.13C250.79 73.45 249.4 77.72 251.99 80C254.45 82.16 266.78 92.99 288.98 112.49C282.48 141.3 278.87 157.31 278.15 160.51C277.39 163.88 281.03 166.52 283.99 164.76C286.81 163.08 300.92 154.7 326.32 139.62C351.72 154.7 365.83 163.08 368.65 164.76C371.62 166.52 375.25 163.88 374.49 160.51C373.77 157.31 370.16 141.3 363.67 112.49C385.86 92.99 398.19 82.16 400.65 80C403.24 77.72 401.86 73.45 398.42 73.13C391.89 72.53 375.55 71.01 349.4 68.59Z" id="dEaO5xIME"></path><path d="M322.71 23.37C321.42 26.39 314.92 41.46 303.24 68.59C273.83 71.32 257.49 72.83 254.22 73.13C250.79 73.45 249.4 77.72 251.99 80C254.45 82.16 266.78 92.99 288.98 112.49C282.48 141.3 278.87 157.31 278.15 160.51C277.39 163.88 281.03 166.52 283.99 164.76C284.93 164.19 292.49 159.71 293.44 159.15C294.75 105.32 319.76 67.41 339.56 45.73C338.92 44.24 335.71 36.79 329.93 23.37C326.03 21.26 323.62 21.26 322.71 23.37Z" id="elmas8lTD"></path></defs><g><g><g><use xlink:href="#cCpr6CwtT" opacity="1" fill="#f0bca6" fill-opacity="1"></use><g><use xlink:href="#cCpr6CwtT" opacity="1" fill-opacity="0" stroke="#000000" stroke-width="1" stroke-opacity="0"></use></g></g><g><use xlink:href="#e8nLpaMMg7" opacity="1" fill="#e9baa7" fill-opacity="1"></use><g><use xlink:href="#e8nLpaMMg7" opacity="1" fill-opacity="0" stroke="#000000" stroke-width="1" stroke-opacity="0"></use></g></g><g><use xlink:href="#a8feFfkEGR" opacity="1" fill="#fff4f1" fill-opacity="1"></use><g><use xlink:href="#a8feFfkEGR" opacity="1" fill-opacity="0" stroke="#000000" stroke-width="1" stroke-opacity="0"></use></g></g><g><use xlink:href="#d2K9dSYgqE" opacity="1" fill="#ecedef" fill-opacity="1"></use><g><use xlink:href="#d2K9dSYgqE" opacity="1" fill-opacity="0" stroke="#000000" stroke-width="1" stroke-opacity="0"></use></g></g><g><use xlink:href="#b3FbJ3fz7M" opacity="1" fill="#f0bca6" fill-opacity="1"></use><g><use xlink:href="#b3FbJ3fz7M" opacity="1" fill-opacity="0" stroke="#000000" stroke-width="1" stroke-opacity="0"></use></g></g><g><use xlink:href="#bnLZe8dfe" opacity="1" fill="#f0bca6" fill-opacity="1"></use><g><use xlink:href="#bnLZe8dfe" opacity="1" fill-opacity="0" stroke="#000000" stroke-width="1" stroke-opacity="0"></use></g></g><g><use xlink:href="#dibPQD0D" opacity="1" fill="#dcdbdd" fill-opacity="1"></use><g><use xlink:href="#dibPQD0D" opacity="1" fill-opacity="0" stroke="#000000" stroke-width="1" stroke-opacity="0"></use></g></g><g><use xlink:href="#a2e6WqN9MS" opacity="1" fill="#f0bca6" fill-opacity="1"></use><g><use xlink:href="#a2e6WqN9MS" opacity="1" fill-opacity="0" stroke="#000000" stroke-width="1" stroke-opacity="0"></use></g></g><g><use xlink:href="#beex7yMdq" opacity="1" fill="#e9bba8" fill-opacity="1"></use><g><use xlink:href="#beex7yMdq" opacity="1" fill-opacity="0" stroke="#000000" stroke-width="1" stroke-opacity="0"></use></g></g><g><use xlink:href="#b5tPODXMbL" opacity="1" fill="#d0cfd1" fill-opacity="1"></use><g><use xlink:href="#b5tPODXMbL" opacity="1" fill-opacity="0" stroke="#000000" stroke-width="1" stroke-opacity="0"></use></g></g><g><use xlink:href="#e13l9DpfhO" opacity="1" fill="#979797" fill-opacity="1"></use><g><use xlink:href="#e13l9DpfhO" opacity="1" fill-opacity="0" stroke="#000000" stroke-width="1" stroke-opacity="0"></use></g></g><g><use xlink:href="#c59P8SKtsz" opacity="1" fill="#868686" fill-opacity="1"></use><g><use xlink:href="#c59P8SKtsz" opacity="1" fill-opacity="0" stroke="#000000" stroke-width="1" stroke-opacity="0"></use></g></g><g><use xlink:href="#b3vqlOzf9m" opacity="1" fill="#fff4f1" fill-opacity="1"></use><g><use xlink:href="#b3vqlOzf9m" opacity="1" fill-opacity="0" stroke="#000000" stroke-width="1" stroke-opacity="0"></use></g></g><g><use xlink:href="#a8kPNFfAF" opacity="1" fill="#868686" fill-opacity="1"></use><g><use xlink:href="#a8kPNFfAF" opacity="1" fill-opacity="0" stroke="#000000" stroke-width="1" stroke-opacity="0"></use></g></g><g><use xlink:href="#aXQLpoYJ" opacity="1" fill="#fff4f1" fill-opacity="1"></use><g><use xlink:href="#aXQLpoYJ" opacity="1" fill-opacity="0" stroke="#000000" stroke-width="1" stroke-opacity="0"></use></g></g><g><use xlink:href="#acfKMvwlH" opacity="1" fill="#ecedef" fill-opacity="1"></use><g><use xlink:href="#acfKMvwlH" opacity="1" fill-opacity="0" stroke="#000000" stroke-width="1" stroke-opacity="0"></use></g></g><g><use xlink:href="#c1HP0O5kuc" opacity="1" fill="#d6d5d7" fill-opacity="1"></use><g><use xlink:href="#c1HP0O5kuc" opacity="1" fill-opacity="0" stroke="#000000" stroke-width="1" stroke-opacity="0"></use></g></g><g><use xlink:href="#b15whezuwK" opacity="1" fill="#fff4f1" fill-opacity="1"></use><g><use xlink:href="#b15whezuwK" opacity="1" fill-opacity="0" stroke="#000000" stroke-width="1" stroke-opacity="0"></use></g></g><g><use xlink:href="#a44VbGkCD3" opacity="1" fill="#ecedef" fill-opacity="1"></use><g><use xlink:href="#a44VbGkCD3" opacity="1" fill-opacity="0" stroke="#000000" stroke-width="1" stroke-opacity="0"></use></g></g><g><use xlink:href="#dEaO5xIME" opacity="1" fill="#ffdcc5" fill-opacity="1"></use><g><use xlink:href="#dEaO5xIME" opacity="1" fill-opacity="0" stroke="#000000" stroke-width="1" stroke-opacity="0"></use></g></g><g><use xlink:href="#elmas8lTD" opacity="1" fill="#f7c6a4" fill-opacity="1"></use><g><use xlink:href="#elmas8lTD" opacity="1" fill-opacity="0" stroke="#000000" stroke-width="1" stroke-opacity="0"></use></g></g></g></g></svg>