<?xml version="1.0" encoding="UTF-8" standalone="no"?>
<!DOCTYPE svg PUBLIC "-//W3C//DTD SVG 1.1//EN" "http://www.w3.org/Graphics/SVG/1.1/DTD/svg11.dtd">
<svg version="1.1" xmlns="http://www.w3.org/2000/svg" xmlns:xlink="http://www.w3.org/1999/xlink" preserveAspectRatio="xMidYMid meet" viewBox="0 0 640 640" width="640" height="640"><defs><path d="M4.79 329.32C4.79 158.45 144.6 18.64 315.47 18.64C486.35 18.64 626.15 158.45 626.15 329.32C626.15 500.19 486.35 640 315.47 640C144.6 640 4.79 500.19 4.79 329.32Z" id="d9OkDQQv"></path><path d="M315.47 19.68C154.76 19.68 24.47 149.96 24.47 310.68C24.47 471.4 154.76 601.68 315.47 601.68C476.19 601.68 606.48 471.4 606.48 310.68C606.48 149.96 476.19 19.68 315.47 19.68Z" id="e1WJC3Gvak"></path><path d="M349.65 54.89C421.11 54.89 486.35 80.78 537.09 123.24C484.28 60.06 404.54 19.68 315.47 19.68C154.96 19.68 24.47 150.16 24.47 310.68C24.47 399.74 64.86 479.48 128.03 533.33C84.54 482.59 58.65 417.35 58.65 345.89C58.65 185.37 189.13 54.89 349.65 54.89Z" id="g1Kv2V1GOT"></path><path d="M521.56 105.63C635.47 219.55 635.47 403.88 521.56 517.8C407.64 631.72 223.31 631.72 109.39 517.8" id="bWROLJSkC"></path><path d="M340.86 1.03L353.35 2.31L365.7 4.09L377.88 6.34L389.9 9.07L401.75 12.26L413.4 15.91L424.86 19.99L436.11 24.51L447.14 29.46L457.94 34.81L468.5 40.57L478.81 46.72L488.87 53.25L498.65 60.15L508.16 67.41L517.37 75.02L526.29 82.98L534.89 91.26L543.18 99.87L551.13 108.78L558.74 118L566.01 127.5L572.91 137.29L579.44 147.34L585.59 157.66L591.34 168.22L596.7 179.02L601.64 190.05L606.16 201.3L610.25 212.75L613.89 224.41L617.08 236.25L619.81 248.27L622.07 260.46L623.84 272.8L625.12 285.3L625.89 297.92L626.15 310.68L625.89 323.44L625.12 336.06L623.84 348.56L622.07 360.9L619.81 373.09L617.08 385.11L613.89 396.95L610.25 408.61L606.16 420.06L601.64 431.31L596.7 442.34L591.34 453.14L585.59 463.7L579.44 474.02L572.91 484.07L566.01 493.86L558.74 503.36L551.13 512.58L543.18 521.49L534.89 530.1L526.29 538.38L517.37 546.34L508.16 553.95L498.65 561.21L488.87 568.11L478.81 574.64L468.5 580.79L457.94 586.55L447.14 591.9L436.11 596.84L424.86 601.36L413.4 605.45L401.75 609.1L389.9 612.29L377.88 615.02L365.7 617.27L353.35 619.05L340.86 620.32L328.23 621.1L315.47 621.36L302.72 621.1L290.09 620.32L277.6 619.05L265.25 617.27L253.07 615.02L241.05 612.29L229.2 609.1L217.55 605.45L206.09 601.36L194.84 596.84L183.81 591.9L173.01 586.55L162.45 580.79L152.14 574.64L142.08 568.11L132.3 561.21L122.79 553.95L113.58 546.34L104.66 538.38L96.06 530.1L87.77 521.49L79.82 512.58L72.2 503.36L64.94 493.86L58.04 484.07L51.51 474.02L45.36 463.7L39.61 453.14L34.25 442.34L29.31 431.31L24.79 420.06L20.7 408.61L17.06 396.95L13.86 385.11L11.14 373.09L8.88 360.9L7.11 348.56L5.83 336.06L5.06 323.44L4.79 310.68L5.06 297.92L5.83 285.3L7.11 272.8L8.88 260.46L11.14 248.27L13.86 236.25L17.06 224.41L20.7 212.75L24.79 201.3L29.31 190.05L34.25 179.02L39.61 168.22L45.36 157.66L51.51 147.34L58.04 137.29L64.94 127.5L72.2 118L79.82 108.78L87.77 99.87L96.06 91.26L104.66 82.98L113.58 75.02L122.79 67.41L132.3 60.15L142.08 53.25L152.14 46.72L162.45 40.57L173.01 34.81L183.81 29.46L194.84 24.51L206.09 19.99L217.55 15.91L229.2 12.26L241.05 9.07L253.07 6.34L265.25 4.09L277.6 2.31L290.09 1.03L302.72 0.26L315.47 0L328.23 0.26L340.86 1.03ZM293.18 40.26L282.22 41.37L271.39 42.92L260.7 44.89L250.17 47.28L239.8 50.07L229.59 53.25L219.57 56.83L209.73 60.78L200.09 65.1L190.65 69.77L181.42 74.8L172.41 80.18L163.64 85.88L155.1 91.91L146.81 98.26L138.77 104.91L131 111.86L123.5 119.09L116.28 126.61L109.36 134.4L102.73 142.45L96.41 150.75L90.4 159.3L84.72 168.08L79.38 177.08L74.37 186.31L69.72 195.74L65.43 205.37L61.5 215.19L57.95 225.2L54.79 235.37L52.01 245.71L49.65 256.21L47.69 266.84L46.15 277.62L45.04 288.52L44.37 299.55L44.15 310.68L44.37 321.89L45.05 332.97L46.17 343.94L47.72 354.77L49.69 365.45L52.07 375.98L54.86 386.36L58.05 396.56L61.62 406.59L65.57 416.42L69.89 426.07L74.57 435.51L79.6 444.74L84.97 453.74L90.68 462.52L96.71 471.06L103.05 479.35L109.7 487.38L116.65 495.16L123.89 502.65L131.41 509.87L139.19 516.8L147.24 523.43L155.54 529.75L164.09 535.75L172.87 541.43L181.88 546.78L191.1 551.78L200.54 556.43L210.17 560.73L219.99 564.65L229.99 568.2L240.17 571.37L250.51 574.14L261 576.51L271.64 578.46L282.42 580L293.32 581.11L304.34 581.78L315.47 582.01L326.61 581.78L337.63 581.1L348.53 579.98L359.31 578.44L369.95 576.46L380.44 574.08L390.78 571.29L400.96 568.1L410.96 564.53L420.78 560.58L430.41 556.26L439.85 551.58L449.07 546.55L458.08 541.18L466.86 535.48L475.4 529.45L483.71 523.1L491.76 516.45L499.54 509.5L507.06 502.27L514.3 494.75L521.25 486.96L527.9 478.91L534.24 470.61L540.27 462.06L545.98 453.28L551.35 444.28L556.38 435.05L561.06 425.62L565.38 415.99L569.33 406.17L572.9 396.16L576.08 385.99L578.87 375.65L581.26 365.15L583.23 354.51L584.78 343.74L585.9 332.83L586.57 321.81L586.8 310.68L586.58 299.55L585.9 288.52L584.8 277.62L583.26 266.84L581.3 256.21L578.93 245.71L576.16 235.37L573 225.2L569.45 215.19L565.52 205.37L561.23 195.74L556.58 186.31L551.57 177.08L546.22 168.08L540.55 159.3L534.54 150.75L528.22 142.45L521.59 134.4L514.67 126.61L507.45 119.09L499.95 111.86L492.18 104.91L484.14 98.26L475.85 91.91L467.31 85.88L458.54 80.18L449.53 74.8L440.3 69.77L430.86 65.1L421.22 60.78L411.38 56.83L401.35 53.25L391.15 50.07L380.78 47.28L370.25 44.89L359.56 42.92L348.73 41.37L337.77 40.26L326.68 39.58L315.47 39.35L304.27 39.58L293.18 40.26Z" id="bbQcBQEbNY"></path><path d="M549.52 106.67C494.63 59.03 423.18 30.03 344.47 30.03C291.66 30.03 242.98 43.5 199.49 66.28C234.7 48.67 274.05 39.35 315.47 39.35C397.29 39.35 471.85 76.63 521.56 134.63C579.55 184.34 615.8 257.86 615.8 340.71C615.8 382.14 606.48 421.49 589.91 456.7C612.69 413.2 626.15 363.5 626.15 310.68C626.15 231.97 597.16 160.52 549.52 106.67Z" id="a1X4cZgi5M"></path><path d="M110.43 544.72C165.31 592.36 236.77 621.36 314.44 621.36C367.25 621.36 415.93 607.9 459.42 585.11C424.21 601.68 384.86 611 343.44 611C261.62 611 187.06 573.72 137.35 515.73C79.36 466.02 42.08 392.49 42.08 309.64C42.08 268.22 51.4 228.87 67.97 193.66C47.25 238.19 33.79 287.9 33.79 340.71C33.79 419.42 62.79 490.87 110.43 544.72Z" id="aa9e0c8sn0"></path><path d="M164.23 406.69C151.82 377.42 148.27 343.73 154.48 311.81C160.68 279.88 174.87 249.73 195.27 224.02C193.49 246.19 201.47 269.24 216.55 286.09C207.68 243.53 221.87 197.42 250.24 163.72C278.62 130.02 317.64 107.85 358.43 92.78C338.03 114.06 335.37 147.76 343.35 176.13C351.33 204.51 368.18 229.34 383.25 255.05C398.33 280.77 412.52 307.37 413.4 336.63C421.38 321.56 430.25 306.48 435.57 289.64C440.89 272.79 443.55 255.05 439.12 238.2C455.08 257.71 463.95 277.22 468.38 302.05C472.82 326.88 471.93 352.59 469.27 377.42C465.72 404.91 458.63 433.29 443.55 456.34C425.82 483.83 397.44 503.34 366.41 513.98C311.43 523.74 257.34 515.76 215.66 479.4C196.15 457.23 176.65 434.18 164.23 406.69Z" id="c1yIt5x1GN"></path><path d="M395.9 386.97C395.9 386.08 395.01 386.08 395.01 385.19C398.56 421.55 389.69 448.15 372.84 463.23C381.71 441.94 375.5 417.12 364.86 395.83C354.22 375.44 339.15 356.82 327.62 337.31C316.09 316.91 307.23 293.86 312.55 270.8C291.26 286.76 276.19 310.71 269.98 336.42C263.78 362.14 267.32 390.51 278.85 414.45C265.55 404.7 255.8 388.74 254.91 371.89C240.72 388.74 231.85 410.91 232.74 433.08C232.74 467.66 260.23 498.7 291.26 511.11C363.98 539.49 435.8 453.47 395.9 386.97Z" id="d7H804vj1"></path></defs><g><g><g><g><use xlink:href="#d9OkDQQv" opacity="1" fill="#dbab56" fill-opacity="1"></use><g><use xlink:href="#d9OkDQQv" opacity="1" fill-opacity="0" stroke="#000000" stroke-width="1" stroke-opacity="0"></use></g></g><g><use xlink:href="#e1WJC3Gvak" opacity="1" fill="#efb30c" fill-opacity="1"></use><g><use xlink:href="#e1WJC3Gvak" opacity="1" fill-opacity="0" stroke="#000000" stroke-width="1" stroke-opacity="0"></use></g></g><g><use xlink:href="#g1Kv2V1GOT" opacity="1" fill="#e5a300" fill-opacity="1"></use><g><use xlink:href="#g1Kv2V1GOT" opacity="1" fill-opacity="0" stroke="#000000" stroke-width="1" stroke-opacity="0"></use></g></g><g><use xlink:href="#bWROLJSkC" opacity="1" fill="#e5a300" fill-opacity="1"></use><g><use xlink:href="#bWROLJSkC" opacity="1" fill-opacity="0" stroke="#000000" stroke-width="1" stroke-opacity="0"></use></g></g><g><use xlink:href="#bbQcBQEbNY" opacity="1" fill="#f7d27f" fill-opacity="1"></use><g><use xlink:href="#bbQcBQEbNY" opacity="1" fill-opacity="0" stroke="#000000" stroke-width="1" stroke-opacity="0"></use></g></g><g><use xlink:href="#a1X4cZgi5M" opacity="1" fill="#efc273" fill-opacity="1"></use><g><use xlink:href="#a1X4cZgi5M" opacity="1" fill-opacity="0" stroke="#000000" stroke-width="1" stroke-opacity="0"></use></g></g><g><use xlink:href="#aa9e0c8sn0" opacity="1" fill="#eac06c" fill-opacity="1"></use><g><use xlink:href="#aa9e0c8sn0" opacity="1" fill-opacity="0" stroke="#000000" stroke-width="1" stroke-opacity="0"></use></g></g></g><g><g><use xlink:href="#c1yIt5x1GN" opacity="1" fill="#ebbc53" fill-opacity="1"></use><g><use xlink:href="#c1yIt5x1GN" opacity="1" fill-opacity="0" stroke="#000000" stroke-width="1" stroke-opacity="0"></use></g></g><g><use xlink:href="#d7H804vj1" opacity="1" fill="#fde0a7" fill-opacity="1"></use><g><use xlink:href="#d7H804vj1" opacity="1" fill-opacity="0" stroke="#000000" stroke-width="1" stroke-opacity="0"></use></g></g></g></g></g></svg>