<svg height="512pt" viewBox="-12 0 512 512.00004" width="512pt" xmlns="http://www.w3.org/2000/svg"><path d="m387.449219 354.96875c86.886719-66.070312 103.765625-190.066406 37.695312-276.957031-37.414062-49.199219-95.691406-78.0664065-157.5-78.011719-105.324219 0-191.175781 82.378906-197.230469 186.183594h-.589843l-67.625 97.59375c-6.285157 15.71875 1.359375 33.5625 17.082031 39.847656 3.617188 1.449219 7.484375 2.191406 11.382812 2.195312h39.160157v36.902344c0 43.882813 35.574219 79.460938 79.457031 79.460938h36.90625l14.148438 42.433594c5.449218 16.351562 20.753906 27.382812 37.988281 27.382812h140.546875c22.117187 0 40.042968-17.929688 40.046875-40.046875 0-4.304687-.695313-8.582031-2.058594-12.664063zm0 0" fill="#c26765"/><path d="m267.644531 0h-.179687c-.371094 0-.738282 0-1.105469.00390625h-.121094c-12.851562.15234375-23.148437 10.69531275-22.996093 23.54687475.152343 12.773438 10.566406 23.035157 23.339843 22.996094h1.0625c83.410157 0 151.273438 67.859375 151.273438 151.269531 0 47.386719-21.765625 91.183594-59.714844 120.160156-15.171875 11.582032-21.730469 31.253907-16.550781 49.625l23.546875 83.527344c3.492187 12.367188 16.351562 19.566406 28.71875 16.074219 12.359375-3.488281 19.554687-16.324219 16.085937-28.6875l-18.855468-66.882813-.007813-.027343-.046875-.167969-.011719-.035156-.019531-.074219-.003906-.007813-.359375-1.273437-1.097657-3.898437-.019531-.066407-.03125-.117187-.015625-.046875-.015625-.058594-.011719-.042969-.007812-.019531-.015625-.054687-.179687-.640626-.011719-.046874-.007813-.015626-.035156-.140624-.015625-.042969-.085937-.304688-.128907-.460937-.015625-.054688-.019531-.070312-.023437-.09375c-.054688-.191406-.109376-.382813-.164063-.570313l-.007813-.039062-.019531-.058594-.046875-.171875-.007812-.03125-.011719-.035156-.011719-.046875-.011718-.03125-.007813-.039063-.011719-.042968-.03125-.101563-.015625-.058594-.074219-.257812v-.007813l-.082031-.285156-.003906-.011719c-.050781-.1875-.101563-.371093-.152344-.550781l-.007812-.027344-.011719-.039062-.003906-.019532-.132813-.460937-.007812-.027344c-.222657-.796875-.429688-1.523437-.613281-2.179687l-.003907-.003906-.054687-.195313-.011719-.046875c-.316406-1.128906-.566406-2.015625-.738281-2.621094v-.003906l-.265625-.9375c86.886719-66.070312 103.765625-190.066406 37.695312-276.957031-37.414062-49.199219-95.691406-78.0664065-157.5-78.011719zm0 0" fill="#b13b39"/><path d="m394.179688 294.777344c-6.382813-.007813-12.484376 2.613281-16.875 7.242187-16.429688 17.273438-36.6875 30.441407-59.144532 38.445313-12.121094 4.28125-18.476562 17.574218-14.195312 29.695312 4.28125 12.117188 17.578125 18.472656 29.695312 14.191406.011719-.003906.023438-.007812.035156-.011718 20.550782-7.285156 39.75-17.921875 56.820313-31.480469l.003906-.003906c.1875-.148438.375-.296875.5625-.449219.046875-.035156.09375-.074219.140625-.109375l.003906-.003906c.042969-.035157.089844-.074219.136719-.109375l.003907-.003906c.140624-.113282.277343-.222657.417968-.335938l.011719-.007812c.039063-.03125.078125-.066407.121094-.097657l.023437-.019531.125-.101562.003906-.007813c.09375-.074219.183594-.148437.277344-.222656l.011719-.007813.121094-.101562.023437-.019532.113282-.089843.023437-.019531.128906-.105469h.003907c.089843-.074219.179687-.148438.269531-.222657l.027343-.023437.105469-.085937.027344-.023438c.039063-.03125.074219-.0625.113281-.09375l.019532-.015625.269531-.222656.015625-.011719.117187-.097656.027344-.023438.105469-.085937.03125-.027344.109375-.089844.023437-.019531.128906-.109375.011719-.007813.117188-.097656.035156-.03125.097656-.078125.039063-.035156.09375-.078125.035156-.03125.109375-.089844.023437-.019531c.042969-.035156.085938-.070313.128907-.109375l.023437-.019531.101563-.085938.042969-.035156.089843-.074219.042969-.035156.089844-.078125.039062-.03125.125-.109375.003906-.003906.125-.105469.039063-.03125.085937-.074219.046876-.039062.082031-.070313.050781-.042969.089844-.074218.035156-.03125.125-.105469.042969-.039063.136719-.117187.070312-.058594.058594-.050781.070312-.0625.054688-.046875.089844-.074219.054687-.046875.101563-.089843.050781-.042969.074219-.066407.058593-.046874.070313-.0625.050781-.042969.082031-.070313.046875-.042968.175781-.152344.0625-.054688.070313-.058594.058594-.050781.066406-.058593.054687-.050782.066407-.058594.058593-.046874.121094-.105469.058594-.054688.070312-.0625.050782-.042969.070312-.0625.050782-.042968.074218-.066406.042969-.039063.078125-.070313.027344-.019531.171875-.15625.03125-.023437.078125-.070313.042968-.039062.074219-.066407.050781-.042968.074219-.066406.035157-.03125c.09375-.082032.183593-.164063.277343-.246094l.035157-.035156.082031-.070313.039062-.035156.082031-.074219.035157-.03125c.09375-.085938.199219-.179688.296875-.265625l.011718-.011719.082032-.074218.039062-.035157.082032-.074219.035156-.03125.082031-.074218.03125-.027344c.097656-.089844.195313-.175781.289063-.261719l.023437-.019531.082031-.078125.039063-.03125.082031-.078125.027344-.027344c.136718-.125.273437-.246094.410156-.371094l.015625-.015624.09375-.085938.023437-.019531.09375-.085938.015626-.015625c.140624-.128906.277343-.257812.417968-.386718l.011719-.007813.097656-.09375.011719-.011719c.140625-.128906.285156-.261718.425781-.394531l.003907-.003906c.035156-.03125.066406-.058594.101562-.09375l.011719-.011719.101562-.09375.003907-.003906c.179687-.167969.359374-.335938.539062-.503906.179688-.171876.359375-.339844.539062-.507813v-.003906c2.519532-2.386719 4.976563-4.84375 7.371094-7.359375 8.839844-9.332032 8.445313-24.0625-.886718-32.902344-4.320313-4.09375-10.046876-6.375-16-6.378906zm0 0" fill="#b13b39"/><path d="m169.671875 349.089844h-6.753906v-7.382813c-.007813-12.851562-10.433594-23.265625-23.289063-23.257812-12.839844.007812-23.25 10.414062-23.257812 23.257812v21.019531c-.003906 18.171876 14.722656 32.90625 32.890625 32.910157h.019531 20.390625c12.851563 0 23.273437-10.417969 23.273437-23.273438 0-12.851562-10.421874-23.273437-23.273437-23.273437zm0 0" fill="#d2908a"/><path d="m243.542969 465.453125h-.53125l-10.492188-31.464844c-4.0625-12.195312-17.242187-18.785156-29.4375-14.71875-12.1875 4.0625-18.777343 17.234375-14.722656 29.421875l7.703125 23.105469v.011719l.066406.195312v.003906l.039063.117188.039062.109375.015625.050781c.015625.042969.03125.085938.042969.128906l.0625.179688.007813.03125.023437.0625c.003906.019531.011719.042969.019531.0625l.003906.015625c.007813.019531.011719.039063.019532.054687l.386718 1.164063v.003906l.03125.085938c.003907.015625.007813.027343.011719.042969l.011719.027343c.007812.027344.015625.050781.023438.078125l.003906.011719c.019531.058594.039062.117187.058594.175781l.011718.03125.023438.074219.003906.003906c.007812.023438.011719.046875.023438.070313l.015624.046875c.003907.019531.011719.039062.019532.058593l.066406.207032c.027344.085937.058594.171875.085938.257812l.011718.039063c.019532.054687.039063.109375.054688.164062l.003906.007813c.015625.050781.035156.097656.050781.148437l.03125.09375c.011719.039063.027344.082031.039063.121094l.003906.011719c.019531.054687.039062.109375.054688.164062l.011718.039063c.007813.019531.015625.042969.023438.066406v.003906l.023437.0625.089844.269531.011719.039063c.007812.019531.015625.042969.019531.0625l.011719.027344c.015625.050781.03125.101562.050781.148437l.007813.035156c.03125.09375.0625.1875.09375.277344l.035156.097656c.03125.097657.0625.195313.097656.292969l.011719.03125c.011719.050781.03125.101563.046875.148438l.007812.023437c.011719.042969.027344.082032.039063.121094l.023437.0625c.035156.105469.066406.207031.101563.308594v.003906c.019531.054688.039062.109375.054687.164062v.003907c.011719.023437.015625.046875.027344.070312l.007812.027344.011719.03125.019531.0625c.011719.039063.027344.078125.039063.117187l.039063.113282c0 .011718.003906.027344.011718.039062l.015625.046875c.023438.078125.050781.164063.078125.242188l.039063.117187c.007812.023438.015625.046875.023437.070313l.015625.039062c.011719.042969.027344.085938.042969.128907l.007812.027343.09375.28125.003907.015625c.066406.199219.132812.390625.195312.578125l.003907.011719c.125.378906.246093.738281.359374 1.078125l.003907.011719c.226562.679687.421875 1.269531.582031 1.757812l.007812.015625c.324219.976563.511719 1.535157.511719 1.535157 5.449219 16.351562 20.753907 27.382812 37.992188 27.382812h5.214843c12.855469.003906 23.277344-10.410156 23.285157-23.265625.003906-12.851563-10.414063-23.277344-23.265625-23.28125-.003906 0-.011719 0-.015625 0zm0 0" fill="#b13b39"/><path d="m116.371094 256c0 12.851562-10.417969 23.273438-23.273438 23.273438-12.851562 0-23.273437-10.421876-23.273437-23.273438s10.421875-23.273438 23.273437-23.273438c12.855469 0 23.273438 10.421876 23.273438 23.273438zm0 0" fill="#d2908a"/><path d="m239.257812 232.726562h86.554688c12.855469 0 23.273438-10.417968 23.273438-23.273437 0-1.902344-.230469-3.796875-.695313-5.644531l-11.636719-46.542969c-2.589844-10.363281-11.898437-17.628906-22.574218-17.628906h-162.886719c-10.679688 0-19.988281 7.265625-22.578125 17.628906l-11.636719 46.542969c-3.117187 12.472656 4.464844 25.105468 16.933594 28.222656 1.84375.460938 3.742187.695312 5.644531.695312zm0 0" fill="#e1811c"/><path d="m244.371094 209.453125h46.546875c6.425781 0 11.636719 5.210937 11.636719 11.636719 0 6.425781-5.210938 11.636718-11.636719 11.636718h-46.546875c-6.425782 0-11.636719-5.210937-11.636719-11.636718 0-6.425782 5.210937-11.636719 11.636719-11.636719zm0 0" fill="#db6600"/><path d="m221.097656 139.636719h46.546875c6.425781 0 11.636719 5.210937 11.636719 11.636719 0 6.425781-5.210938 11.636718-11.636719 11.636718h-46.546875c-6.425781 0-11.636718-5.210937-11.636718-11.636718 0-6.425782 5.210937-11.636719 11.636718-11.636719zm0 0" fill="#db6600"/><path d="m117.078125 203.808594 11.636719-46.542969c2.589844-10.363281 11.898437-17.628906 22.578125-17.628906h69.792969c10.679687 0 19.988281 7.265625 22.578124 17.628906l11.636719 46.542969c3.117188 12.472656-4.464843 25.105468-16.933593 28.222656-1.847657.460938-3.742188.695312-5.644532.695312h-93.066406c-12.855469 0-23.273438-10.417968-23.273438-23.273437 0-1.902344.234376-3.796875.695313-5.644531zm0 0" fill="#f0a319"/><path d="m151.28125 139.636719h69.816406c6.425782 0 11.636719 5.210937 11.636719 11.636719 0 6.425781-5.210937 11.636718-11.636719 11.636718h-69.816406c-6.429688 0-11.636719-5.210937-11.636719-11.636718 0-6.425782 5.207031-11.636719 11.636719-11.636719zm0 0" fill="#f3b553"/><path d="m151.28125 209.453125h69.816406c6.425782 0 11.636719 5.210937 11.636719 11.636719 0 6.425781-5.210937 11.636718-11.636719 11.636718h-69.816406c-6.429688 0-11.636719-5.210937-11.636719-11.636718 0-6.425782 5.207031-11.636719 11.636719-11.636719zm0 0" fill="#e1811c"/><path d="m134.253906 96.894531c-7.09375 16.738281-20.417968 30.058594-37.152344 37.15625-3.03125 1.132813-4.570312 4.511719-3.433593 7.539063.59375 1.589844 1.84375 2.839844 3.433593 3.433594 16.734376 7.097656 30.058594 20.421874 37.152344 37.15625 1.136719 3.03125 4.511719 4.566406 7.542969 3.433593 1.585937-.59375 2.839844-1.847656 3.433594-3.433593 7.09375-16.734376 20.417969-30.058594 37.152343-37.15625 3.03125-1.132813 4.566407-4.507813 3.433594-7.539063-.59375-1.585937-1.84375-2.839844-3.433594-3.433594-16.734374-7.09375-30.058593-20.417969-37.152343-37.15625-1.136719-3.027343-4.511719-4.566406-7.542969-3.429687-1.585938.59375-2.835938 1.84375-3.433594 3.429687zm0 0" fill="#fbe9cc"/><path d="m139.742188 127.902344c0 6.425781-5.210938 11.636718-11.636719 11.636718s-11.636719-5.210937-11.636719-11.636718c0-6.425782 5.210938-11.636719 11.636719-11.636719s11.636719 5.210937 11.636719 11.636719zm0 0" fill="#f2f9f6"/><path d="m378.894531 232.726562h86.554688c12.855469 0 23.273437-10.417968 23.273437-23.273437 0-1.902344-.234375-3.796875-.695312-5.644531l-11.636719-46.542969c-2.589844-10.363281-11.898437-17.628906-22.578125-17.628906h-162.882812c-10.679688 0-19.988282 7.265625-22.578126 17.628906l-11.636718 46.542969c-3.117188 12.472656 4.460937 25.105468 16.933594 28.222656 1.84375.460938 3.738281.695312 5.644531.695312zm0 0" fill="#e1811c"/><path d="m256.714844 203.808594 11.636718-46.542969c2.589844-10.363281 11.898438-17.628906 22.578126-17.628906h69.792968c10.679688 0 19.988282 7.265625 22.578125 17.628906l11.636719 46.542969c3.117188 12.472656-4.464844 25.105468-16.933594 28.222656-1.847656.460938-3.742187.695312-5.644531.695312h-93.066406c-12.855469 0-23.273438-10.417968-23.273438-23.273437 0-1.902344.234375-3.796875.695313-5.644531zm0 0" fill="#f0a319"/><path d="m290.917969 209.453125h69.816406c6.425781 0 11.636719 5.210937 11.636719 11.636719 0 6.425781-5.210938 11.636718-11.636719 11.636718h-69.816406c-6.429688 0-11.636719-5.210937-11.636719-11.636718 0-6.425782 5.207031-11.636719 11.636719-11.636719zm0 0" fill="#e1811c"/><path d="m290.917969 139.636719h69.816406c6.425781 0 11.636719 5.210937 11.636719 11.636719 0 6.425781-5.210938 11.636718-11.636719 11.636718h-69.816406c-6.429688 0-11.636719-5.210937-11.636719-11.636718 0-6.425782 5.207031-11.636719 11.636719-11.636719zm0 0" fill="#f3b553"/><path d="m407.28125 139.636719h46.542969c6.429687 0 11.636719 5.210937 11.636719 11.636719 0 6.425781-5.210938 11.636718-11.636719 11.636718h-46.542969c-6.429688 0-11.636719-5.210937-11.636719-11.636718 0-6.425782 5.207031-11.636719 11.636719-11.636719zm0 0" fill="#db6600"/><path d="m407.28125 209.453125h46.542969c6.429687 0 11.636719 5.210937 11.636719 11.636719 0 6.425781-5.210938 11.636718-11.636719 11.636718h-46.542969c-6.429688 0-11.636719-5.210937-11.636719-11.636718 0-6.425782 5.207031-11.636719 11.636719-11.636719zm0 0" fill="#db6600"/><path d="m309.074219 139.636719h86.558593c12.851563 0 23.273438-10.417969 23.273438-23.273438 0-1.902343-.234375-3.796875-.695312-5.644531l-11.636719-46.546875c-2.589844-10.359375-11.898438-17.625-22.578125-17.625h-162.886719c-10.679687 0-19.988281 7.265625-22.578125 17.625l-11.636719 46.546875c-3.117187 12.46875 4.464844 25.105469 16.933594 28.222656 1.847656.460938 3.742187.695313 5.644531.695313zm0 0" fill="#e1811c"/><path d="m186.894531 110.71875 11.636719-46.546875c2.589844-10.359375 11.898438-17.625 22.578125-17.625h69.796875c10.675781 0 19.984375 7.265625 22.578125 17.625l11.632813 46.546875c3.117187 12.46875-4.460938 25.105469-16.933594 28.222656-1.84375.460938-3.738282.695313-5.644532.695313h-93.066406c-12.851562 0-23.273437-10.417969-23.273437-23.273438 0-1.902343.234375-3.796875.695312-5.644531zm0 0" fill="#f0a319"/><path d="m221.097656 116.363281h69.820313c6.425781 0 11.632812 5.210938 11.632812 11.636719s-5.207031 11.636719-11.632812 11.636719h-69.820313c-6.425781 0-11.636718-5.210938-11.636718-11.636719s5.210937-11.636719 11.636718-11.636719zm0 0" fill="#e1811c"/><path d="m221.097656 46.546875h69.820313c6.425781 0 11.632812 5.207031 11.632812 11.636719 0 6.425781-5.207031 11.632812-11.632812 11.632812h-69.820313c-6.425781 0-11.636718-5.207031-11.636718-11.632812 0-6.429688 5.210937-11.636719 11.636718-11.636719zm0 0" fill="#f3b553"/><path d="m337.460938 46.546875h46.546874c6.425782 0 11.636719 5.207031 11.636719 11.636719 0 6.425781-5.210937 11.632812-11.636719 11.632812h-46.546874c-6.425782 0-11.636719-5.207031-11.636719-11.632812 0-6.429688 5.210937-11.636719 11.636719-11.636719zm0 0" fill="#f0a319"/><path d="m337.460938 116.363281h46.546874c6.425782 0 11.636719 5.210938 11.636719 11.636719s-5.210937 11.636719-11.636719 11.636719h-46.546874c-6.425782 0-11.636719-5.210938-11.636719-11.636719s5.210937-11.636719 11.636719-11.636719zm0 0" fill="#db6600"/><path d="m436.703125 96.996094c-7.097656 16.734375-20.421875 30.058594-37.15625 37.152344-3.03125 1.136718-4.566406 4.511718-3.433594 7.542968.59375 1.585938 1.847657 2.839844 3.433594 3.433594 16.734375 7.09375 30.058594 20.417969 37.15625 37.152344 1.132813 3.03125 4.507813 4.566406 7.539063 3.433594 1.585937-.59375 2.839843-1.847657 3.433593-3.433594 7.097657-16.734375 20.417969-30.058594 37.15625-37.152344 3.03125-1.136719 4.566407-4.511719 3.433594-7.542969-.597656-1.585937-1.847656-2.839843-3.433594-3.433593-16.738281-7.09375-30.058593-20.417969-37.15625-37.152344-1.132812-3.03125-4.511719-4.570313-7.539062-3.433594-1.589844.59375-2.839844 1.84375-3.433594 3.433594zm0 0" fill="#fbe9cc"/><path d="m442.1875 128c0 6.425781-5.207031 11.636719-11.636719 11.636719-6.425781 0-11.632812-5.210938-11.632812-11.636719s5.207031-11.636719 11.632812-11.636719c6.429688 0 11.636719 5.210938 11.636719 11.636719zm0 0" fill="#f2f9f6"/><path d="m297.066406 3.902344c-7.097656 16.738281-20.421875 30.058594-37.15625 37.15625-3.03125 1.132812-4.566406 4.511718-3.433594 7.539062.59375 1.589844 1.847657 2.839844 3.433594 3.433594 16.734375 7.097656 30.058594 20.421875 37.15625 37.15625 1.132813 3.03125 4.507813 4.566406 7.539063 3.433594 1.585937-.59375 2.839843-1.847656 3.433593-3.433594 7.097657-16.734375 20.417969-30.058594 37.15625-37.15625 3.027344-1.132812 4.566407-4.507812 3.433594-7.539062-.597656-1.585938-1.847656-2.839844-3.433594-3.433594-16.738281-7.097656-30.058593-20.417969-37.15625-37.15625-1.132812-3.027344-4.511718-4.566406-7.539062-3.429688-1.589844.59375-2.839844 1.84375-3.433594 3.429688zm0 0" fill="#fbe9cc"/><path d="m302.550781 34.910156c0 6.425782-5.207031 11.636719-11.632812 11.636719-6.429688 0-11.636719-5.210937-11.636719-11.636719 0-6.425781 5.207031-11.636718 11.636719-11.636718 6.425781 0 11.632812 5.210937 11.632812 11.636718zm0 0" fill="#f2f9f6"/></svg>