<?xml version="1.0" encoding="iso-8859-1"?>
<!-- Generator: Adobe Illustrator 19.0.0, SVG Export Plug-In . SVG Version: 6.00 Build 0)  -->
<svg version="1.1" id="Capa_1" xmlns="http://www.w3.org/2000/svg" xmlns:xlink="http://www.w3.org/1999/xlink" x="0px" y="0px"
	 viewBox="0 0 512 512" style="enable-background:new 0 0 512 512;" xml:space="preserve">
<path style="fill:#73BCFF;" d="M106,90c-41.422,0-75,33.578-75,75v165c0,16.567,13.431,30,30,30v152h45V360h30v152h45l30-30V121.582
	L181,90H106z"/>
<polygon style="fill:#8C4A37;" points="331,90 331,512 271,512 271,360 241,360 241,512 181,512 181,90 "/>
<path style="fill:#FF7816;" d="M406,90c41.422,0,75,33.578,75,75v165c0,16.567-13.431,30-30,30v152h-45V360h-30v152h-45l-30-30
	V121.582L331,90H406z"/>
<polygon style="fill:#804231;" points="331,90 331,512 271,512 271,360 256,360 256,90 "/>
<circle style="fill:#73BCFF;" cx="136" cy="45" r="45"/>
<path style="fill:#8C4A37;" d="M301,45c0,24.901-20.099,45-45,45s-45-20.099-45-45s20.099-45,45-45S301,20.099,301,45z"/>
<circle style="fill:#FF7816;" cx="376" cy="45" r="45"/>
<path style="fill:#804231;" d="M301,45c0,24.901-20.099,45-45,45V0C280.901,0,301,20.099,301,45z"/>
<path style="fill:#8C4A37;" d="M31,210H0v-60h31c16.569,0,30,13.431,30,30l0,0C61,196.569,47.569,210,31,210z"/>
<path style="fill:#804231;" d="M512,210h-31c-16.569,0-30-13.431-30-30l0,0c0-16.569,13.431-30,30-30h31V210z"/>
<g>
</g>
<g>
</g>
<g>
</g>
<g>
</g>
<g>
</g>
<g>
</g>
<g>
</g>
<g>
</g>
<g>
</g>
<g>
</g>
<g>
</g>
<g>
</g>
<g>
</g>
<g>
</g>
<g>
</g>
</svg>
