<svg height="512pt" viewBox="-26 0 512 512" width="512pt" xmlns="http://www.w3.org/2000/svg"><path d="m229.515625 0c-121.882813 0-220.6875 98.808594-220.6875 220.691406 0 77.75 40.253906 146.066406 101.011719 185.378906h4.917968v8.828126h229.519532v-8.828126h4.914062c60.761719-39.3125 101.015625-107.628906 101.015625-185.378906 0-121.882812-98.808593-220.691406-220.691406-220.691406zm0 0" fill="#c6e2f7"/><path d="m79.449219 406.070312h300.136719v44.136719h-300.136719zm0 0" fill="#7383bf"/><path d="m132.421875 88.277344c-2.789063 0-5.535156-1.316406-7.253906-3.789063-2.792969-4-1.800781-9.496093 2.195312-12.289062 26.828125-18.6875 61.230469-27.832031 102.164063-28.0625 4.878906.011719 8.828125 3.964843 8.816406 8.847656-.007812 4.871094-3.953125 8.808594-8.828125 8.808594-.113281 0-.253906 0-.386719 0-37.109375 0-67.953125 8.378906-91.675781 24.894531-1.535156 1.066406-3.292969 1.589844-5.03125 1.589844zm0 0" fill="#8aacc1"/><path d="m61.792969 229.515625c-4.871094 0-8.828125-3.945313-8.828125-8.824219-.007813-35.753906 8.625-64.503906 27.992187-93.222656 2.726563-4.042969 8.210938-5.09375 12.253907-2.382812 4.042968 2.730468 5.109374 8.21875 2.382812 12.261718-17.285156 25.617188-24.980469 51.324219-24.972656 83.34375 0 4.871094-3.957032 8.824219-8.828125 8.824219zm0 0" fill="#8aacc1"/><g fill="#fff"><path d="m344.277344 206.6875-38.964844-38.964844 38.964844-38.964844 38.964844 38.964844zm-14.003906-38.964844 14.003906 14.003906 14-14.003906-14-14zm0 0"/><path d="m344.277344 150.070312c-4.875 0-8.828125-3.949218-8.828125-8.828124v-17.65625c0-4.882813 3.953125-8.828126 8.828125-8.828126 4.871094 0 8.824218 3.945313 8.824218 8.828126v17.65625c0 4.878906-3.953124 8.828124-8.824218 8.828124zm0 0"/><path d="m388.414062 176.550781h-17.65625c-4.871093 0-8.828124-3.945312-8.828124-8.828125 0-4.878906 3.957031-8.824218 8.828124-8.824218h17.65625c4.871094 0 8.828126 3.945312 8.828126 8.824218 0 4.882813-3.957032 8.828125-8.828126 8.828125zm0 0"/><path d="m344.277344 220.691406c-4.875 0-8.828125-3.949218-8.828125-8.828125v-17.65625c0-4.882812 3.953125-8.828125 8.828125-8.828125 4.871094 0 8.824218 3.945313 8.824218 8.828125v17.65625c0 4.878907-3.953124 8.828125-8.824218 8.828125zm0 0"/><path d="m317.792969 176.550781h-17.65625c-4.871094 0-8.828125-3.945312-8.828125-8.828125 0-4.878906 3.957031-8.824218 8.828125-8.824218h17.65625c4.871093 0 8.828125 3.945312 8.828125 8.824218 0 4.882813-3.957032 8.828125-8.828125 8.828125zm0 0"/><path d="m229.515625 347.929688-38.964844-38.964844 38.964844-38.964844 38.964844 38.964844zm-14-38.964844 14 14 14.003906-14-14.003906-14zm0 0"/><path d="m229.515625 291.308594c-4.871094 0-8.824219-3.945313-8.824219-8.824219v-17.65625c0-4.882813 3.953125-8.828125 8.824219-8.828125 4.875 0 8.828125 3.945312 8.828125 8.828125v17.65625c0 4.878906-3.953125 8.824219-8.828125 8.824219zm0 0"/><path d="m273.65625 317.792969h-17.65625c-4.871094 0-8.828125-3.945313-8.828125-8.828125 0-4.882813 3.957031-8.828125 8.828125-8.828125h17.65625c4.871094 0 8.828125 3.945312 8.828125 8.828125 0 4.882812-3.957031 8.828125-8.828125 8.828125zm0 0"/><path d="m229.515625 361.929688c-4.871094 0-8.824219-3.945313-8.824219-8.828126v-17.652343c0-4.882813 3.953125-8.828125 8.824219-8.828125 4.875 0 8.828125 3.945312 8.828125 8.828125v17.652343c0 4.882813-3.953125 8.828126-8.828125 8.828126zm0 0"/><path d="m203.035156 317.792969h-17.65625c-4.871094 0-8.828125-3.945313-8.828125-8.828125 0-4.882813 3.957031-8.828125 8.828125-8.828125h17.65625c4.871094 0 8.828125 3.945312 8.828125 8.828125 0 4.882812-3.957031 8.828125-8.828125 8.828125zm0 0"/></g><path d="m423.722656 485.515625h-388.414062v-26.382813c0-9.808593 7.945312-17.753906 17.753906-17.753906h352.988281c9.765625 0 17.671875 7.910156 17.671875 17.671875zm0 0" fill="#556080"/><path d="m0 476.691406h459.035156v35.308594h-459.035156zm0 0" fill="#7383bf"/></svg>