<?xml version="1.0" encoding="utf-8"?>
<!-- Generator: Adobe Illustrator 19.0.0, SVG Export Plug-In . SVG Version: 6.00 Build 0)  -->
<svg version="1.1" id="Capa_1" xmlns="http://www.w3.org/2000/svg" xmlns:xlink="http://www.w3.org/1999/xlink" x="0px" y="0px"
	 viewBox="-49 51 512 512" style="enable-background:new -49 51 512 512;" xml:space="preserve">
<style type="text/css">
	.st0{fill:#FCBF29;}
	.st1{fill:#FF9822;}
	.st2{fill:#9A4C0E;}
	.st3{fill:#C20022;}
	.st4{fill:#713709;}
	.st5{fill:#98001B;}
	.st6{fill:#56B48C;}
	.st7{fill:#FFFFFF;}
	.st8{fill:none;stroke:#FFFFFF;stroke-width:2;stroke-linecap:round;stroke-linejoin:round;stroke-miterlimit:10;}
</style>
<circle class="st0" cx="207" cy="307" r="241"/>
<path class="st1" d="M207,66v482c133.1,0,241-107.9,241-241C448,173.9,340.1,66,207,66z"/>
<path class="st2" d="M207,563c-68.4,0-132.7-26.6-181-75c-48.4-48.4-75-112.6-75-181c0-68.4,26.6-132.7,75-181
	c48.4-48.4,112.6-75,181-75s132.7,26.6,181,75c48.4,48.4,75,112.6,75,181c0,68.4-26.6,132.7-75,181C339.7,536.4,275.4,563,207,563z
	 M207,81C82.4,81-19,182.4-19,307S82.4,533,207,533s226-101.4,226-226S331.6,81,207,81z"/>
<path class="st3" d="M338.7,378.8H332L220.4,155.7c-2.5-5.1-7.7-8.3-13.4-8.3c-5.7,0-10.9,3.2-13.4,8.3L82,378.8h-6.8
	c-8.3,0-15,6.7-15,15s6.7,15,15,15h16c0,0,0,0,0.1,0c0,0,0.1,0,0.1,0h16c8.3,0,15-6.7,15-15c0-5.6-3.1-10.6-7.7-13.1L207,195.9
	l92.4,184.7c-4.6,2.6-7.7,7.5-7.7,13.1c0,8.3,6.7,15,15,15h32.1c8.3,0,15-6.7,15-15C353.7,385.5,347,378.8,338.7,378.8z"/>
<path class="st4" d="M388,126c-48.4-48.4-112.6-75-181-75v30c124.6,0,226,101.4,226,226S331.6,533,207,533v30
	c68.4,0,132.7-26.6,181-75c48.4-48.4,75-112.6,75-181C463,238.6,436.4,174.3,388,126z"/>
<path class="st5" d="M291.6,393.8c0,8.3,6.7,15,15,15h32.1c8.3,0,15-6.7,15-15s-6.7-15-15-15H332L220.4,155.7
	c-2.5-5.1-7.7-8.3-13.4-8.3v48.5l92.4,184.7C294.7,383.2,291.6,388.1,291.6,393.8z"/>
<path class="st6" d="M330,303c-71.8,0-130,58.2-130,130s58.2,130,130,130s130-58.2,130-130S401.8,303,330,303z"/>
<path class="st7" d="M369.5,380.1c-2.2-1.5-5.8-2.3-10.7-2.3h-51.1c-4,0-7.2,0.5-9.4,1.5c-2.3,1-3.4,3.3-3.4,6.8
	c0,3.3,1.1,5.8,3.2,7.3c2.1,1.6,5.3,2.3,9.6,2.3h41.1c-6.4,8.2-12,16.4-16.7,24.7c-4.7,8.3-8.6,16.3-11.7,24.2
	c-3.1,7.9-5.4,14.6-6.8,20.2s-2.1,10.1-2.1,13.4c0,4.2,0.9,7.5,2.8,9.6c1.9,2.2,4.4,3.3,7.5,3.3c3.3,0,5.9-1,7.9-3s3.5-5.6,4.6-10.9
	c0.5-2.3,1-5.5,1.6-9.7s1.2-7.7,1.7-10.4c0.5-2.7,1.4-6,2.6-10.1c2.9-9.2,6.1-16.9,9.6-23.3c3.5-6.3,6.9-11.7,10.2-15.9
	c3.3-4.3,6.2-8.2,8.8-11.7c2.6-3.5,3.9-6.4,3.9-8.5C372.8,384.2,371.7,381.7,369.5,380.1z"/>
<circle class="st6" cx="406.2" cy="434.5" r="41.9"/>
<line class="st8" x1="406.2" y1="414.4" x2="406.2" y2="456.3"/>
<line class="st8" x1="427.1" y1="434.5" x2="385.2" y2="434.5"/>
</svg>
