<?xml version="1.0" encoding="UTF-8" standalone="no"?>
<!DOCTYPE svg PUBLIC "-//W3C//DTD SVG 1.1//EN" "http://www.w3.org/Graphics/SVG/1.1/DTD/svg11.dtd">
<svg version="1.1" xmlns="http://www.w3.org/2000/svg" xmlns:xlink="http://www.w3.org/1999/xlink" preserveAspectRatio="xMidYMid meet" viewBox="0 0 640 640" width="640" height="640"><defs><path d="M617.9 429.76C605.92 375.73 562.78 333.43 508.3 322.67C508.3 322.67 508.3 322.66 508.3 322.66C499.47 320.92 490.35 320 481.01 320C471.66 320 424.9 320 340.73 320L340.73 172.94C415.17 159.8 456.53 152.5 464.8 151.04C470.63 150.01 474.88 144.95 474.88 139.03C474.88 134.19 474.88 95.46 474.88 90.62C474.88 83.04 468.03 77.3 460.56 78.61C448.47 80.75 351.7 97.82 339.6 99.96C333.58 65.61 303.63 39.5 267.55 39.5C254.14 39.5 146.82 39.5 133.4 39.5C92.99 39.5 60.23 72.26 60.23 112.67C60.23 154.14 60.23 485.86 60.23 527.33C60.23 534.52 62.5 545.04 62.73 546.25C62.73 546.26 62.72 546.27 62.72 546.27C69.45 571.45 89.27 591.28 114.46 598.01C114.46 598.01 114.46 598 114.47 598L114.47 598C114.47 598 114.47 598 114.47 598C115.68 598.23 126.21 600.5 133.4 600.5C143.97 600.5 196.82 600.5 291.94 600.5C335.85 600.5 360.24 600.5 365.12 600.5C365.12 600.5 482.41 600.48 483.12 600.47C483.12 600.47 483.12 600.47 483.12 600.47C508.6 600.1 532.42 592.93 552.88 580.7C552.88 580.7 552.88 580.69 552.88 580.68C593.81 556.19 621.23 511.42 621.23 460.25C621.23 449.78 620.07 439.58 617.9 429.76Z" id="b4kzVxJIXa"></path><path d="M621.23 460.25C621.23 511.42 593.81 556.19 552.88 580.68C552.88 580.69 552.88 580.7 552.88 580.7C532.43 592.93 508.6 600.1 483.12 600.47C483.12 600.47 483.12 600.47 483.12 600.47C482.41 600.48 365.12 600.5 365.12 600.5C360.24 600.5 335.85 600.5 291.94 600.5C196.82 600.5 143.97 600.5 133.4 600.5C126.21 600.5 115.68 598.23 114.47 598C114.47 598 114.46 598.01 114.46 598.01C89.27 591.28 69.45 571.45 62.72 546.27C62.72 546.27 62.73 546.26 62.73 546.26C62.5 545.04 60.23 534.52 60.23 527.33C60.23 485.86 60.23 154.14 60.23 112.67C60.23 72.26 92.99 39.5 133.4 39.5C137.47 39.5 157.79 39.5 194.38 39.5C194.38 259.02 194.38 380.98 194.38 405.37C194.38 418.84 205.3 429.76 218.77 429.76C245.38 429.76 378.42 429.76 617.9 429.76C620.12 443.11 621.23 453.27 621.23 460.25Z" id="aEFejiWHw"></path><path d="M60.23 295.61L60.23 222.43L194.38 198.76L340.73 172.93L340.73 246.83L194.38 272.28L60.23 295.61Z" id="i2MWusGrN"></path><path d="M278.09 330.89L194.38 345.45L60.23 368.78C60.23 463.91 60.23 516.76 60.23 527.33C60.23 534.52 62.5 545.04 62.73 546.25C71.51 537.48 115.39 493.6 194.38 414.61L278.09 330.89Z" id="gXv6g9R5t"></path><path d="M267.55 39.5C254.14 39.5 146.82 39.5 133.4 39.5C92.99 39.5 60.23 72.26 60.23 112.67C60.23 115.11 60.23 127.31 60.23 149.26L194.38 125.59L339.6 99.96C315.62 59.65 291.6 39.5 267.55 39.5Z" id="c3sUykO050"></path><path d="M329.83 382.64L282.71 429.76L114.46 598.01C114.47 598 114.47 598 114.47 598C115.68 598.23 126.21 600.5 133.4 600.5C143.97 600.5 196.82 600.5 291.94 600.5L321.64 429.76L321.64 429.76L329.83 382.64Z" id="ausTXnqEw"></path><path d="M434.69 320L413.9 320L394.81 429.76L394.81 429.76C377 532.2 367.1 589.12 365.12 600.5C365.12 600.5 482.41 600.48 483.12 600.47C483.12 600.47 483.12 600.47 483.12 600.47L453.64 429.76L453.64 429.76L434.69 320Z" id="aX9ds6L0Z"></path><path d="M508.3 322.67C509.54 329.81 515.7 365.51 526.8 429.76L526.8 429.76C542.45 520.31 551.14 570.62 552.88 580.68C593.81 556.19 621.23 511.42 621.23 460.25C621.23 449.78 620.07 439.58 617.9 429.76C605.92 375.73 562.78 333.43 508.3 322.67Z" id="dpoUNBS7P"></path><path d="M60.23 527.33C60.23 516.76 60.23 463.91 60.23 368.78L194.38 345.45C194.38 381.4 194.38 401.38 194.38 405.37C194.38 408.14 194.86 410.79 195.71 413.27C195.62 413.36 195.18 413.81 194.38 414.61L62.73 546.25C61.06 538.43 60.23 532.12 60.23 527.33Z" id="fTq0SjpkO"></path><path d="M60.23 149.26C60.23 127.31 60.23 115.11 60.23 112.67C60.23 72.26 92.99 39.5 133.4 39.5C137.47 39.5 157.79 39.5 194.38 39.5L194.38 125.59L60.23 149.26Z" id="a9LizD23Q"></path><path d="M60.23 295.61L60.23 222.43L194.38 198.76L194.38 272.28L60.23 295.61Z" id="a2HixwHAS4"></path><path d="M552.88 580.68C552.88 580.68 552.88 580.69 552.88 580.7L526.8 429.76L526.8 429.76C581.46 429.76 611.83 429.76 617.9 429.76C620.08 439.58 621.23 449.78 621.23 460.25C621.23 511.42 593.81 556.19 552.88 580.68Z" id="h2n0Yq05Bs"></path><path d="M365.12 600.5C367.1 589.12 377 532.2 394.81 429.76L394.81 429.76L453.64 429.76L483.12 600.47C420.19 600.49 380.85 600.5 365.12 600.5Z" id="b1m6RSqOKN"></path><path d="M291.94 600.5C196.82 600.5 143.97 600.5 133.4 600.5C126.21 600.5 115.68 598.23 114.47 598C114.47 598 114.47 598 114.46 598.01L282.71 429.76L321.64 429.76L291.94 600.5Z" id="m60fjGtxDd"></path><path d="M60.23 222.43L194.38 198.76L340.73 172.93L340.73 222.43L60.23 222.43Z" id="ahF3QXeX"></path><path d="M292.03 600.5L291.93 600.5C196.81 600.5 143.96 600.5 133.39 600.5C126.19 600.5 115.67 598.23 114.46 598C117.55 594.91 133.01 579.49 160.84 551.72L300.51 551.72L292.03 600.5Z" id="mgC6AeTeE"></path><path d="M552.95 580.63C552.62 578.7 550.96 569.06 547.96 551.72L587.27 551.72C573.02 565.82 561.58 575.46 552.95 580.63Z" id="a5orIePJgB"></path><path d="M483.11 600.47C482.4 600.48 368.95 600.5 365.2 600.5C365.77 597.25 368.6 580.99 373.69 551.72L474.79 551.72C479.84 580.97 482.65 597.22 483.21 600.47C483.17 600.47 483.14 600.47 483.11 600.47C483.11 600.47 483.11 600.47 483.11 600.47Z" id="a3XDiCq3n"></path><path d="M344.34 0.92L357.36 2.17L370.22 3.93L382.9 6.19L395.39 8.94L407.7 12.17L419.8 15.87L431.68 20.03L443.34 24.63L454.77 29.68L465.96 35.14L476.89 41.03L487.56 47.31L497.95 53.99L508.07 61.06L517.89 68.5L527.4 76.3L536.61 84.45L545.49 92.94L554.03 101.76L562.24 110.91L570.09 120.36L577.58 130.11L584.7 140.14L591.43 150.46L597.77 161.04L603.71 171.87L609.24 182.95L614.35 194.27L619.02 205.81L623.25 217.56L627.03 229.52L630.35 241.66L633.2 253.99L635.56 266.49L637.43 279.15L638.8 291.96L639.66 304.9L640 317.98L639.81 331.17L639.08 344.34L637.83 357.36L636.07 370.22L633.81 382.9L631.06 395.39L627.83 407.7L624.13 419.8L619.97 431.68L615.37 443.34L610.33 454.77L604.86 465.96L598.98 476.89L592.69 487.56L586.01 497.95L578.94 508.07L571.51 517.89L563.71 527.4L555.55 536.61L547.06 545.49L538.24 554.03L529.1 562.24L519.65 570.09L509.9 577.58L499.86 584.7L489.55 591.43L478.97 597.77L468.13 603.71L457.05 609.24L445.73 614.35L434.19 619.02L422.44 623.25L410.49 627.03L398.34 630.35L386.01 633.2L373.51 635.56L360.85 637.43L348.05 638.8L335.1 639.66L322.02 640L308.83 639.81L295.66 639.08L282.64 637.83L269.79 636.07L257.11 633.81L244.61 631.06L232.31 627.83L220.21 624.13L208.32 619.97L196.66 615.37L185.23 610.33L174.04 604.86L163.11 598.98L152.44 592.69L142.05 586.01L131.94 578.94L122.12 571.51L112.6 563.71L103.4 555.55L94.52 547.06L85.97 538.24L77.76 529.1L69.91 519.65L62.42 509.9L55.31 499.86L48.57 489.55L42.23 478.97L36.29 468.13L30.76 457.05L25.66 445.73L20.98 434.19L16.75 422.44L12.97 410.49L9.65 398.34L6.81 386.01L4.44 373.51L2.57 360.85L1.2 348.05L0.34 335.1L0 322.02L0.2 308.83L0.92 295.66L2.17 282.64L3.93 269.79L6.19 257.11L8.94 244.61L12.17 232.31L15.87 220.21L20.03 208.32L24.63 196.66L29.68 185.23L35.14 174.04L41.03 163.11L47.31 152.44L53.99 142.05L61.06 131.94L68.5 122.12L76.3 112.6L84.45 103.4L92.94 94.52L101.76 85.97L110.91 77.76L120.36 69.91L130.11 62.42L140.14 55.31L150.46 48.57L161.04 42.23L171.87 36.29L182.95 30.76L194.27 25.66L205.81 20.98L217.56 16.75L229.52 12.97L241.66 9.65L253.99 6.81L266.49 4.44L279.15 2.57L291.96 1.2L304.9 0.34L317.98 0L331.17 0.2L344.34 0.92ZM112.32 155.97L109.67 159.37L107.08 162.81L104.54 166.29L102.05 169.82L99.63 173.39L97.26 177L94.94 180.65L92.69 184.34L90.49 188.08L88.35 191.85L86.27 195.65L84.26 199.5L82.3 203.39L80.41 207.31L78.58 211.26L76.81 215.25L75.1 219.28L73.47 223.34L71.89 227.43L70.38 231.56L68.94 235.72L67.57 239.91L66.27 244.13L65.03 248.38L63.86 252.67L62.77 256.98L61.74 261.32L60.79 265.68L59.91 270.08L59.1 274.5L58.36 278.95L57.7 283.42L57.11 287.92L56.6 292.44L56.17 296.99L55.81 301.56L55.53 306.15L55.33 310.76L55.17 321.66L55.46 332.46L56.17 343.16L57.31 353.75L58.86 364.22L60.82 374.55L63.18 384.75L65.93 394.79L69.06 404.68L72.57 414.41L76.45 423.95L80.68 433.32L85.26 442.49L90.18 451.45L95.43 460.21L101.01 468.75L106.91 477.06L113.11 485.13L119.62 492.96L126.41 500.53L133.49 507.83L140.84 514.87L148.46 521.62L156.34 528.08L164.47 534.24L172.84 540.09L181.44 545.63L190.27 550.84L199.31 555.71L208.57 560.24L218.02 564.42L227.67 568.24L237.5 571.68L247.5 574.75L257.68 577.42L268.01 579.7L278.49 581.57L289.12 583.03L299.87 584.07L310.76 584.67L315.37 584.79L319.97 584.83L324.56 584.79L329.12 584.68L333.67 584.49L338.2 584.21L342.7 583.87L347.19 583.44L351.66 582.95L356.1 582.37L360.53 581.73L364.93 581.01L369.31 580.21L373.66 579.35L377.99 578.41L382.29 577.4L386.57 576.33L390.81 575.18L395.04 573.96L399.23 572.68L403.4 571.33L407.53 569.91L411.64 568.42L415.71 566.87L419.75 565.26L423.77 563.58L427.74 561.83L431.69 560.03L435.6 558.16L439.48 556.23L443.32 554.23L447.12 552.18L450.89 550.07L454.62 547.89L458.31 545.66L461.97 543.37L465.58 541.03L469.15 538.62L472.69 536.16L476.18 533.65L117.77 149.31L115.02 152.62L112.32 155.97ZM310.05 55.35L305.3 55.57L300.57 55.87L295.86 56.26L291.17 56.73L286.51 57.28L281.87 57.91L277.26 58.62L272.67 59.41L268.1 60.28L263.57 61.23L259.06 62.26L254.58 63.36L250.13 64.54L245.71 65.8L241.31 67.13L236.96 68.53L232.63 70.01L228.33 71.56L224.07 73.18L219.85 74.88L215.66 76.64L211.5 78.47L207.38 80.37L203.3 82.34L199.26 84.38L195.26 86.49L191.29 88.66L187.37 90.89L183.49 93.19L179.65 95.56L175.85 97.99L172.1 100.48L168.39 103.03L164.73 105.64L161.11 108.32L157.54 111.05L517.11 496.64L520.09 493.27L523.01 489.85L525.87 486.38L528.67 482.86L531.42 479.29L534.11 475.67L536.73 472L539.3 468.29L541.8 464.54L544.25 460.73L546.62 456.89L548.94 453L551.19 449.06L553.37 445.09L555.49 441.07L557.54 437.01L559.53 432.92L561.44 428.78L563.29 424.6L565.06 420.39L566.77 416.14L568.4 411.85L569.96 407.53L571.45 403.17L572.86 398.78L574.2 394.35L575.47 389.89L576.65 385.4L577.76 380.88L578.8 376.32L579.75 371.74L580.62 367.13L581.42 362.48L582.13 357.81L582.76 353.12L583.31 348.39L583.78 343.64L584.16 338.87L584.46 334.07L584.67 329.24L584.83 318.34L584.55 307.54L583.83 296.84L582.7 286.25L581.14 275.78L579.18 265.45L576.82 255.26L574.07 245.21L570.94 235.32L567.43 225.6L563.56 216.05L559.33 206.69L554.74 197.52L549.82 188.55L544.57 179.79L538.99 171.25L533.09 162.94L526.89 154.87L520.39 147.05L513.59 139.48L506.51 132.17L499.16 125.14L491.54 118.38L483.66 111.92L475.54 105.76L467.17 99.91L458.56 94.37L449.73 89.16L440.69 84.29L431.44 79.76L421.98 75.58L412.33 71.77L402.5 68.32L392.5 65.26L382.33 62.58L371.99 60.3L361.51 58.43L350.89 56.97L340.13 55.94L329.24 55.33L324.42 55.21L319.61 55.17L314.82 55.22L310.05 55.35Z" id="btvnUL9T1"></path></defs><g><g><g><g><use xlink:href="#b4kzVxJIXa" opacity="1" fill="#d7e2d9" fill-opacity="1"></use><g><use xlink:href="#b4kzVxJIXa" opacity="1" fill-opacity="0" stroke="#000000" stroke-width="1" stroke-opacity="0"></use></g></g><g><use xlink:href="#aEFejiWHw" opacity="1" fill="#b6d3bd" fill-opacity="1"></use><g><use xlink:href="#aEFejiWHw" opacity="1" fill-opacity="0" stroke="#000000" stroke-width="1" stroke-opacity="0"></use></g></g><g><use xlink:href="#i2MWusGrN" opacity="1" fill="#97c1ab" fill-opacity="1"></use><g><use xlink:href="#i2MWusGrN" opacity="1" fill-opacity="0" stroke="#000000" stroke-width="1" stroke-opacity="0"></use></g></g><g><use xlink:href="#gXv6g9R5t" opacity="1" fill="#97c1ab" fill-opacity="1"></use><g><use xlink:href="#gXv6g9R5t" opacity="1" fill-opacity="0" stroke="#000000" stroke-width="1" stroke-opacity="0"></use></g></g><g><use xlink:href="#c3sUykO050" opacity="1" fill="#97c1ab" fill-opacity="1"></use><g><use xlink:href="#c3sUykO050" opacity="1" fill-opacity="0" stroke="#000000" stroke-width="1" stroke-opacity="0"></use></g></g><g><use xlink:href="#ausTXnqEw" opacity="1" fill="#97c1ab" fill-opacity="1"></use><g><use xlink:href="#ausTXnqEw" opacity="1" fill-opacity="0" stroke="#000000" stroke-width="1" stroke-opacity="0"></use></g></g><g><use xlink:href="#aX9ds6L0Z" opacity="1" fill="#97c1ab" fill-opacity="1"></use><g><use xlink:href="#aX9ds6L0Z" opacity="1" fill-opacity="0" stroke="#000000" stroke-width="1" stroke-opacity="0"></use></g></g><g><use xlink:href="#dpoUNBS7P" opacity="1" fill="#97c1ab" fill-opacity="1"></use><g><use xlink:href="#dpoUNBS7P" opacity="1" fill-opacity="0" stroke="#000000" stroke-width="1" stroke-opacity="0"></use></g></g><g><use xlink:href="#fTq0SjpkO" opacity="1" fill="#84b29b" fill-opacity="1"></use><g><use xlink:href="#fTq0SjpkO" opacity="1" fill-opacity="0" stroke="#000000" stroke-width="1" stroke-opacity="0"></use></g></g><g><use xlink:href="#a9LizD23Q" opacity="1" fill="#84b29b" fill-opacity="1"></use><g><use xlink:href="#a9LizD23Q" opacity="1" fill-opacity="0" stroke="#000000" stroke-width="1" stroke-opacity="0"></use></g></g><g><use xlink:href="#a2HixwHAS4" opacity="1" fill="#84b29b" fill-opacity="1"></use><g><use xlink:href="#a2HixwHAS4" opacity="1" fill-opacity="0" stroke="#000000" stroke-width="1" stroke-opacity="0"></use></g></g><g><use xlink:href="#h2n0Yq05Bs" opacity="1" fill="#84b29b" fill-opacity="1"></use><g><use xlink:href="#h2n0Yq05Bs" opacity="1" fill-opacity="0" stroke="#000000" stroke-width="1" stroke-opacity="0"></use></g></g><g><use xlink:href="#b1m6RSqOKN" opacity="1" fill="#84b29b" fill-opacity="1"></use><g><use xlink:href="#b1m6RSqOKN" opacity="1" fill-opacity="0" stroke="#000000" stroke-width="1" stroke-opacity="0"></use></g></g><g><use xlink:href="#m60fjGtxDd" opacity="1" fill="#84b29b" fill-opacity="1"></use><g><use xlink:href="#m60fjGtxDd" opacity="1" fill-opacity="0" stroke="#000000" stroke-width="1" stroke-opacity="0"></use></g></g><g><use xlink:href="#ahF3QXeX" opacity="1" fill="#749e88" fill-opacity="1"></use><g><use xlink:href="#ahF3QXeX" opacity="1" fill-opacity="0" stroke="#000000" stroke-width="1" stroke-opacity="0"></use></g></g><g><use xlink:href="#mgC6AeTeE" opacity="1" fill="#749e88" fill-opacity="1"></use><g><use xlink:href="#mgC6AeTeE" opacity="1" fill-opacity="0" stroke="#000000" stroke-width="1" stroke-opacity="0"></use></g></g><g><use xlink:href="#a5orIePJgB" opacity="1" fill="#749e88" fill-opacity="1"></use><g><use xlink:href="#a5orIePJgB" opacity="1" fill-opacity="0" stroke="#000000" stroke-width="1" stroke-opacity="0"></use></g></g><g><use xlink:href="#a3XDiCq3n" opacity="1" fill="#749e88" fill-opacity="1"></use><g><use xlink:href="#a3XDiCq3n" opacity="1" fill-opacity="0" stroke="#000000" stroke-width="1" stroke-opacity="0"></use></g></g></g><g><use xlink:href="#btvnUL9T1" opacity="1" fill="#dd352e" fill-opacity="1"></use><g><use xlink:href="#btvnUL9T1" opacity="1" fill-opacity="0" stroke="#000000" stroke-width="1" stroke-opacity="0"></use></g></g></g></g></svg>