<?xml version="1.0" encoding="UTF-8" standalone="no"?>
<!DOCTYPE svg PUBLIC "-//W3C//DTD SVG 1.1//EN" "http://www.w3.org/Graphics/SVG/1.1/DTD/svg11.dtd">
<svg version="1.1" xmlns="http://www.w3.org/2000/svg" xmlns:xlink="http://www.w3.org/1999/xlink" preserveAspectRatio="xMidYMid meet" viewBox="-2.0000019531288147 53.99960742110824 516.0010000019532 406.1023473561473" width="512" height="402.1"><defs><path d="M430.14 196.85L429.69 204.17L429.07 211.42L428.28 218.59L427.32 225.68L426.19 232.69L424.89 239.6L423.44 246.43L421.83 253.16L420.06 259.8L418.14 266.33L416.07 272.76L413.85 279.08L411.48 285.29L408.98 291.39L406.33 297.37L403.55 303.22L400.63 308.96L397.57 314.56L394.39 320.04L391.09 325.38L387.66 330.58L384.1 335.64L380.43 340.56L376.64 345.33L372.74 349.94L368.73 354.41L364.61 358.71L360.38 362.86L356.05 366.84L351.63 370.65L347.1 374.29L342.48 377.76L337.76 381.04L332.96 384.15L328.07 387.07L323.09 389.81L318.04 392.35L312.9 394.7L314.29 395.63L315.66 396.59L317.02 397.56L318.36 398.56L319.69 399.58L321 400.61L322.29 401.67L323.57 402.75L324.83 403.85L326.07 404.97L327.3 406.1L328.51 407.26L329.7 408.44L330.87 409.63L332.02 410.85L333.16 412.08L334.27 413.33L335.37 414.6L336.44 415.89L337.5 417.2L338.54 418.53L339.55 419.87L340.55 421.23L341.52 422.61L342.47 424L343.4 425.42L344.31 426.85L345.2 428.29L346.06 429.76L346.9 431.24L347.72 432.73L348.52 434.24L349.29 435.77L350.03 437.32L350.76 438.88L351.46 440.45L352.13 442.04L352.78 443.65L353.4 445.27L354 446.9L325.8 457.1L324.98 454.87L324.09 452.68L323.14 450.52L322.13 448.41L321.05 446.34L319.91 444.3L318.71 442.32L317.46 440.37L316.15 438.47L314.78 436.62L313.36 434.81L311.89 433.05L310.36 431.34L308.79 429.68L307.17 428.07L305.5 426.51L303.79 425L302.03 423.55L300.23 422.15L298.39 420.8L296.51 419.52L294.59 418.28L292.63 417.11L290.64 416L288.61 414.95L286.55 413.95L284.46 413.02L282.33 412.16L280.18 411.35L278 410.61L275.8 409.94L273.57 409.33L271.31 408.8L269.04 408.33L266.74 407.93L264.43 407.6L262.09 407.34L259.74 407.15L257.38 407.04L255 407L252.62 407.04L250.26 407.15L247.91 407.34L245.57 407.6L243.26 407.93L240.96 408.33L238.69 408.8L236.43 409.33L234.2 409.94L232 410.61L229.82 411.35L227.67 412.16L225.55 413.02L223.45 413.95L221.39 414.95L219.36 416L217.37 417.11L215.41 418.28L213.49 419.52L211.61 420.8L209.77 422.15L207.97 423.55L206.21 425L204.5 426.51L202.83 428.07L201.21 429.68L199.64 431.34L198.11 433.05L196.64 434.81L195.22 436.62L193.85 438.47L192.54 440.37L191.29 442.32L190.09 444.3L188.95 446.34L187.87 448.41L186.86 450.52L185.91 452.68L185.02 454.87L184.2 457.1L156 446.9L156.6 445.27L157.22 443.65L157.87 442.04L158.54 440.45L159.24 438.88L159.97 437.32L160.71 435.77L161.48 434.24L162.28 432.73L163.1 431.24L163.94 429.76L164.8 428.29L165.69 426.85L166.6 425.42L167.53 424L168.48 422.61L169.45 421.23L170.45 419.87L171.46 418.53L172.5 417.2L173.56 415.89L174.63 414.6L175.73 413.33L176.84 412.08L177.98 410.85L179.13 409.63L180.3 408.44L181.5 407.26L182.7 406.1L183.93 404.97L185.17 403.85L186.43 402.75L187.71 401.67L189 400.61L190.32 399.58L191.64 398.56L192.98 397.56L194.34 396.59L195.71 395.63L197.1 394.7L191.97 392.35L186.91 389.81L181.93 387.07L177.04 384.15L172.24 381.04L167.52 377.76L162.9 374.29L158.38 370.65L153.95 366.84L149.62 362.86L145.39 358.71L141.27 354.41L137.26 349.94L133.36 345.33L129.57 340.56L125.9 335.64L122.35 330.58L118.91 325.38L115.61 320.04L112.43 314.56L109.37 308.96L106.46 303.22L103.67 297.37L101.02 291.39L98.52 285.29L96.15 279.08L93.93 272.76L91.86 266.33L89.94 259.8L88.17 253.16L86.56 246.43L85.11 239.6L83.81 232.69L82.69 225.68L81.72 218.59L80.93 211.42L80.31 204.17L79.86 196.85L79.59 189.46L79.5 182L109.5 182L109.53 186.08L109.62 190.15L109.77 194.19L109.97 198.2L110.23 202.19L110.56 206.16L110.93 210.1L111.36 214.01L111.85 217.9L112.4 221.76L112.99 225.58L113.65 229.38L114.35 233.15L115.11 236.89L115.92 240.59L116.79 244.27L117.7 247.91L118.67 251.51L119.68 255.08L120.75 258.61L121.87 262.11L123.03 265.57L124.24 268.99L125.51 272.38L126.81 275.72L128.17 279.02L129.57 282.28L131.02 285.5L132.51 288.68L134.05 291.82L135.64 294.9L137.26 297.95L138.93 300.95L140.65 303.9L142.4 306.81L144.2 309.67L146.04 312.47L147.92 315.23L149.84 317.94L151.8 320.6L153.78 323.21L155.79 325.76L157.84 328.26L159.93 330.71L162.05 333.1L164.21 335.44L166.41 337.72L168.64 339.94L170.9 342.11L173.2 344.22L175.53 346.27L177.89 348.26L180.28 350.19L182.71 352.06L185.16 353.87L187.65 355.62L190.17 357.3L192.71 358.92L195.29 360.47L197.89 361.96L200.52 363.39L203.17 364.74L205.86 366.03L208.56 367.26L211.3 368.41L214.06 369.49L216.84 370.51L219.65 371.45L222.48 372.32L225.33 373.12L228.21 373.85L231.11 374.5L234.02 375.08L236.96 375.59L239.92 376.02L242.9 376.37L245.9 376.64L248.91 376.84L251.95 376.96L255 377L261.09 376.84L267.1 376.37L273.04 375.58L278.9 374.5L284.68 373.11L290.37 371.44L295.97 369.47L301.47 367.23L306.87 364.72L312.16 361.93L317.34 358.88L322.41 355.58L327.36 352.02L332.19 348.22L336.9 344.17L341.47 339.9L345.9 335.39L350.2 330.66L354.35 325.72L358.35 320.56L362.2 315.2L365.89 309.64L369.42 303.89L372.78 297.94L375.98 291.82L379 285.52L381.84 279.05L384.49 272.41L386.96 265.61L389.24 258.66L391.32 251.57L393.2 244.33L394.88 236.95L396.34 229.45L397.6 221.82L398.63 214.07L399.44 206.21L400.03 198.24L400.38 190.17L400.5 182L430.5 182L430.41 189.46L430.14 196.85Z" id="b44qbojKjw"></path><path d="M430.14 196.86L429.69 204.18L429.07 211.42L428.28 218.59L427.32 225.68L426.19 232.69L424.89 239.61L423.44 246.43L421.83 253.16L420.06 259.8L418.14 266.33L416.07 272.76L413.85 279.08L411.48 285.29L408.98 291.39L406.33 297.37L403.55 303.22L400.63 308.96L397.57 314.56L394.39 320.04L391.09 325.38L387.66 330.58L384.1 335.64L380.43 340.56L376.64 345.33L372.74 349.94L368.73 354.41L364.61 358.71L360.38 362.86L356.05 366.84L351.63 370.65L347.1 374.29L342.48 377.76L337.76 381.04L332.96 384.15L328.07 387.07L323.09 389.81L318.04 392.35L312.9 394.7L314.29 395.63L315.66 396.59L317.02 397.56L318.36 398.56L319.69 399.58L321 400.61L322.29 401.67L323.57 402.75L324.83 403.85L326.07 404.97L327.3 406.1L328.51 407.26L329.7 408.44L330.87 409.63L332.02 410.85L333.16 412.08L334.27 413.33L335.37 414.6L336.44 415.89L337.5 417.2L338.54 418.53L339.55 419.87L340.55 421.23L341.52 422.61L342.47 424L343.4 425.42L344.31 426.85L345.2 428.29L346.06 429.76L346.9 431.24L347.72 432.73L348.52 434.24L349.29 435.77L350.03 437.32L350.76 438.88L351.46 440.45L352.13 442.04L352.78 443.65L353.4 445.27L354 446.9L325.8 457.1L324.98 454.87L324.09 452.68L323.14 450.52L322.13 448.41L321.05 446.34L319.91 444.3L318.71 442.32L317.46 440.37L316.15 438.47L314.78 436.62L313.36 434.81L311.89 433.05L310.36 431.34L308.79 429.68L307.17 428.07L305.5 426.51L303.79 425L302.03 423.55L300.23 422.15L298.39 420.8L296.51 419.52L294.59 418.28L292.63 417.11L290.64 416L288.61 414.95L286.55 413.95L284.46 413.02L282.33 412.16L280.18 411.35L278 410.61L275.8 409.94L273.57 409.33L271.31 408.8L269.04 408.33L266.74 407.93L264.43 407.6L262.09 407.34L259.74 407.15L257.38 407.04L255 407L255 377L261.09 376.84L267.1 376.37L273.04 375.59L278.9 374.5L284.68 373.12L290.37 371.44L295.97 369.48L301.47 367.24L306.87 364.72L312.16 361.93L317.34 358.88L322.41 355.58L327.36 352.02L332.19 348.22L336.9 344.18L341.47 339.9L345.9 335.39L350.2 330.67L354.35 325.72L358.35 320.57L362.2 315.2L365.89 309.64L369.42 303.89L372.78 297.95L375.98 291.82L379 285.52L381.84 279.05L384.49 272.41L386.96 265.62L389.24 258.67L391.32 251.57L393.2 244.33L394.88 236.96L396.34 229.45L397.6 221.82L398.63 214.07L399.44 206.21L400.03 198.24L400.38 190.17L400.5 182L430.5 182L430.41 189.46L430.14 196.86Z" id="fPXIWznW7"></path><path d="M398.12 318.08L399.16 318.1L400.26 318.13L401.42 318.19L402.64 318.26L403.91 318.37L405.25 318.5L406.64 318.67L408.1 318.87L409.6 319.12L411.17 319.42L412.79 319.77L414.47 320.17L416.2 320.63L417.99 321.16L419.84 321.75L421.73 322.41L423.69 323.15L425.69 323.96L427.75 324.86L429.86 325.85L432.02 326.93L434.24 328.1L436.5 329.37L438.82 330.75L441.19 332.23L443.61 333.82L446.07 335.53L448.59 337.36L451.16 339.31L453.77 341.39L456.43 343.6L459.14 345.94L461.9 348.42L464.7 351.05L467.55 353.82L470.44 356.75L473.38 359.83L476.37 363.07L474.33 365.3L472.3 367.47L470.28 369.59L468.26 371.64L466.26 373.64L464.26 375.59L462.27 377.48L460.28 379.31L458.3 381.08L456.32 382.8L454.35 384.46L452.38 386.06L450.42 387.61L448.45 389.1L446.49 390.53L444.53 391.91L442.57 393.23L440.61 394.5L438.64 395.7L436.68 396.86L434.72 397.95L432.75 398.99L430.78 399.97L428.8 400.9L426.82 401.77L424.84 402.58L422.85 403.34L420.86 404.04L418.86 404.68L416.85 405.27L414.83 405.8L412.8 406.28L410.77 406.7L408.73 407.06L406.67 407.37L404.61 407.62L402.53 407.82L400.44 407.96L398.34 408.04L396.23 408.07L395.31 408.07L394.33 408.06L393.29 408.04L392.19 408.01L391.03 407.95L389.82 407.88L388.54 407.78L387.2 407.64L385.81 407.48L384.36 407.27L382.85 407.02L381.28 406.72L379.66 406.38L377.98 405.97L376.25 405.51L374.46 404.99L372.62 404.4L370.72 403.74L368.77 403L366.76 402.18L364.71 401.28L362.6 400.3L360.43 399.22L358.22 398.05L355.95 396.78L353.64 395.4L351.27 393.92L348.85 392.33L346.39 390.62L343.87 388.79L341.3 386.84L338.69 384.76L336.03 382.55L333.32 380.21L330.57 377.72L327.76 375.09L324.92 372.32L322.02 369.39L319.08 366.31L316.1 363.07L318.14 360.84L320.16 358.67L322.18 356.56L324.2 354.5L326.2 352.5L328.2 350.55L330.19 348.67L332.17 346.83L334.15 345.06L336.13 343.34L338.1 341.68L340.07 340.08L342.04 338.53L344 337.04L345.96 335.61L347.92 334.23L349.88 332.91L351.84 331.64L353.8 330.44L355.77 329.29L357.73 328.19L359.7 327.15L361.67 326.17L363.64 325.24L365.62 324.37L367.61 323.56L369.6 322.8L371.59 322.1L373.59 321.46L375.6 320.87L377.62 320.34L379.65 319.86L381.68 319.44L383.72 319.08L385.78 318.77L387.84 318.52L389.92 318.32L392.01 318.18L394.11 318.1L396.23 318.07L397.14 318.07L398.12 318.08Z" id="c5pT82zOSD"></path><path d="M476.77 198.12L480.09 198.32L483.53 198.6L487.09 198.97L490.76 199.42L494.56 199.96L498.48 200.6L502.52 201.33L506.7 202.17L511 203.11L510.61 206.1L510.2 209.05L509.76 211.94L509.3 214.78L508.81 217.57L508.29 220.31L507.75 223L507.19 225.64L506.59 228.22L505.97 230.77L505.32 233.26L504.64 235.7L503.93 238.1L503.19 240.44L502.42 242.74L501.62 245L500.79 247.21L499.93 249.37L499.03 251.48L498.1 253.55L497.13 255.58L496.13 257.56L495.1 259.49L494.03 261.38L492.92 263.23L491.78 265.03L490.6 266.8L489.38 268.51L488.12 270.19L486.83 271.83L485.49 273.42L484.12 274.97L482.7 276.48L481.24 277.95L479.74 279.38L478.2 280.78L476.62 282.13L474.99 283.44L473.32 284.71L471.61 285.95L469.52 287.36L467.41 288.69L465.29 289.94L463.14 291.11L460.98 292.2L458.8 293.21L456.61 294.15L454.4 295.02L452.17 295.82L449.93 296.54L447.68 297.21L445.42 297.8L443.14 298.33L440.86 298.8L438.56 299.21L436.26 299.56L433.95 299.86L431.62 300.1L429.3 300.28L426.96 300.42L424.62 300.5L422.28 300.54L419.93 300.53L417.58 300.48L415.23 300.38L412.87 300.25L410.52 300.07L408.16 299.86L405.8 299.61L403.45 299.33L401.1 299.01L398.75 298.67L396.4 298.3L394.06 297.9L391.73 297.47L389.4 297.03L387.08 296.56L384.76 296.07L382.45 295.56L380.16 295.04L380.55 292.05L380.96 289.11L381.41 286.22L381.87 283.38L382.37 280.59L382.89 277.85L383.44 275.16L384.02 272.53L384.62 269.94L385.25 267.4L385.92 264.91L386.61 262.47L387.33 260.07L388.09 257.72L388.87 255.42L389.69 253.17L390.53 250.96L391.41 248.8L392.33 246.69L393.28 244.62L394.26 242.6L395.27 240.62L396.32 238.68L397.41 236.79L398.53 234.94L399.69 233.14L400.88 231.38L402.11 229.66L403.38 227.98L404.69 226.35L406.04 224.75L407.42 223.2L408.85 221.69L410.31 220.22L411.82 218.79L413.36 217.4L414.95 216.05L416.58 214.73L418.25 213.46L419.97 212.22L420.72 211.7L421.53 211.15L422.38 210.57L423.3 209.96L424.27 209.34L425.31 208.71L426.4 208.06L427.56 207.4L428.79 206.74L430.09 206.08L431.46 205.42L432.89 204.76L434.41 204.12L436 203.48L437.67 202.87L439.42 202.27L441.25 201.7L443.17 201.15L445.18 200.64L447.27 200.16L449.46 199.71L451.74 199.31L454.11 198.95L456.58 198.64L459.15 198.38L461.82 198.18L464.6 198.04L467.48 197.95L470.47 197.94L473.56 197.99L476.77 198.12Z" id="b2Puo3BjKU"></path><path d="M476.99 60.55L478.06 63.27L479.07 65.96L480.04 68.63L480.95 71.26L481.82 73.86L482.64 76.44L483.41 78.98L484.13 81.5L484.8 83.99L485.42 86.45L486 88.88L486.52 91.29L486.99 93.68L487.41 96.04L487.77 98.37L488.09 100.68L488.36 102.97L488.57 105.24L488.73 107.48L488.84 109.7L488.9 111.9L488.9 114.09L488.86 116.25L488.76 118.39L488.6 120.51L488.39 122.61L488.13 124.7L487.82 126.77L487.45 128.82L487.02 130.86L486.54 132.88L486.01 134.89L485.42 136.88L484.78 138.86L484.08 140.82L483.32 142.77L482.51 144.71L481.64 146.64L481.25 147.47L480.83 148.35L480.37 149.29L479.88 150.27L479.34 151.3L478.76 152.37L478.12 153.48L477.44 154.64L476.7 155.83L475.9 157.06L475.03 158.32L474.1 159.61L473.1 160.93L472.03 162.28L470.88 163.66L469.65 165.06L468.33 166.48L466.93 167.92L465.44 169.38L463.85 170.85L462.16 172.33L460.38 173.83L458.49 175.33L456.49 176.85L454.38 178.36L452.15 179.88L449.81 181.4L447.34 182.92L444.75 184.43L442.03 185.94L439.18 187.44L436.19 188.93L433.07 190.41L429.8 191.88L426.38 193.32L422.82 194.76L419.1 196.17L415.23 197.55L411.19 198.92L406.99 200.25L405.84 197.46L404.73 194.71L403.66 191.98L402.65 189.29L401.68 186.62L400.77 183.99L399.9 181.38L399.08 178.81L398.31 176.27L397.59 173.75L396.91 171.26L396.29 168.8L395.72 166.36L395.2 163.95L394.73 161.56L394.31 159.21L393.94 156.87L393.63 154.56L393.36 152.27L393.15 150L392.99 147.76L392.88 145.54L392.82 143.34L392.81 141.16L392.86 138.99L392.96 136.85L393.12 134.73L393.33 132.63L393.59 130.54L393.9 128.47L394.27 126.42L394.7 124.38L395.18 122.36L395.71 120.35L396.3 118.36L396.94 116.38L397.64 114.42L398.4 112.47L399.21 110.53L400.08 108.6L400.47 107.77L400.89 106.88L401.35 105.95L401.84 104.97L402.38 103.94L402.96 102.87L403.59 101.76L404.28 100.6L405.02 99.41L405.82 98.18L406.68 96.92L407.62 95.63L408.62 94.3L409.69 92.95L410.84 91.58L412.07 90.18L413.39 88.76L414.79 87.32L416.28 85.86L417.87 84.39L419.55 82.9L421.34 81.41L423.23 79.9L425.23 78.39L427.34 76.88L429.56 75.36L431.91 73.84L434.37 72.32L436.96 70.81L439.68 69.3L442.53 67.8L445.52 66.31L448.65 64.83L451.92 63.37L455.33 61.92L458.9 60.49L462.62 59.08L466.49 57.7L470.53 56.33L474.73 55L475.89 57.79L476.99 60.55Z" id="cN4RYK83R"></path><path d="M115.63 318.08L116.66 318.1L117.76 318.13L118.92 318.19L120.14 318.26L121.42 318.37L122.75 318.5L124.15 318.67L125.6 318.87L127.11 319.12L128.67 319.42L130.3 319.77L131.97 320.17L133.71 320.63L135.5 321.16L137.34 321.75L139.24 322.41L141.19 323.15L143.19 323.96L145.25 324.86L147.36 325.85L149.53 326.93L151.74 328.1L154.01 329.37L156.32 330.75L158.69 332.23L161.11 333.82L163.58 335.53L166.09 337.36L168.66 339.31L171.27 341.39L173.93 343.6L176.64 345.94L179.4 348.42L182.2 351.05L185.05 353.82L187.95 356.75L190.89 359.83L193.87 363.07L191.83 365.3L189.8 367.47L187.78 369.59L185.77 371.64L183.76 373.64L181.76 375.59L179.77 377.48L177.79 379.31L175.8 381.08L173.83 382.8L171.86 384.46L169.89 386.06L167.92 387.61L165.96 389.1L163.99 390.53L162.03 391.91L160.07 393.23L158.11 394.5L156.15 395.7L154.18 396.86L152.22 397.95L150.25 398.99L148.28 399.97L146.31 400.9L144.33 401.77L142.34 402.58L140.36 403.34L138.36 404.04L136.36 404.68L134.35 405.27L132.33 405.8L130.31 406.28L128.27 406.7L126.23 407.06L124.18 407.37L122.11 407.62L120.03 407.82L117.95 407.96L115.84 408.04L113.73 408.07L112.81 408.07L111.84 408.06L110.8 408.04L109.7 408.01L108.54 407.95L107.32 407.88L106.04 407.78L104.71 407.64L103.31 407.48L101.86 407.27L100.35 407.02L98.79 406.72L97.17 406.38L95.49 405.97L93.75 405.51L91.96 404.99L90.12 404.4L88.22 403.74L86.27 403L84.27 402.18L82.21 401.28L80.1 400.3L77.94 399.22L75.72 398.05L73.46 396.78L71.14 395.4L68.77 393.92L66.36 392.33L63.89 390.62L61.37 388.79L58.81 386.84L56.19 384.76L53.53 382.55L50.83 380.21L48.07 377.72L45.27 375.09L42.42 372.32L39.53 369.39L36.59 366.31L33.6 363.07L35.64 360.84L37.67 358.67L39.69 356.56L41.7 354.5L43.7 352.5L45.7 350.55L47.69 348.67L49.68 346.83L51.66 345.06L53.63 343.34L55.6 341.68L57.57 340.08L59.54 338.53L61.5 337.04L63.46 335.61L65.43 334.23L67.39 332.91L69.35 331.64L71.31 330.44L73.27 329.29L75.24 328.19L77.2 327.15L79.17 326.17L81.15 325.24L83.13 324.37L85.11 323.56L87.1 322.8L89.09 322.1L91.1 321.46L93.11 320.87L95.12 320.34L97.15 319.86L99.18 319.44L101.23 319.08L103.28 318.77L105.35 318.52L107.43 318.32L109.51 318.18L111.62 318.1L113.73 318.07L114.65 318.07L115.63 318.08Z" id="c1eCSCPk86"></path><path d="M46.08 197.89L48.36 198.03L50.61 198.21L52.83 198.44L55.02 198.72L57.18 199.05L59.31 199.42L61.41 199.84L63.49 200.31L65.54 200.83L67.56 201.4L69.55 202.02L71.52 202.69L73.47 203.41L75.39 204.19L77.29 205.01L79.16 205.88L81.02 206.81L82.84 207.78L84.65 208.81L86.44 209.9L88.21 211.03L89.96 212.22L90.71 212.75L91.5 213.32L92.34 213.93L93.22 214.59L94.14 215.3L95.1 216.06L96.08 216.87L97.1 217.75L98.15 218.68L99.22 219.69L100.31 220.76L101.42 221.9L102.55 223.11L103.7 224.4L104.85 225.78L106.02 227.23L107.19 228.77L108.36 230.4L109.54 232.13L110.71 233.95L111.88 235.86L113.04 237.88L114.2 240L115.34 242.23L116.47 244.58L117.57 247.03L118.66 249.6L119.73 252.29L120.77 255.11L121.78 258.05L122.77 261.12L123.72 264.32L124.63 267.65L125.5 271.13L126.33 274.74L127.12 278.5L127.87 282.41L128.56 286.47L129.2 290.68L129.79 295.04L129.46 295.1L128.97 295.21L128.3 295.37L127.47 295.58L126.49 295.84L125.35 296.13L124.07 296.44L122.65 296.79L121.1 297.15L119.42 297.52L117.61 297.9L115.69 298.28L113.66 298.66L111.52 299.03L109.28 299.38L106.95 299.7L104.53 300L102.02 300.27L99.44 300.5L96.78 300.68L94.06 300.81L91.28 300.88L88.45 300.9L85.56 300.84L82.63 300.71L79.67 300.5L76.67 300.2L73.64 299.82L70.6 299.33L67.54 298.75L64.47 298.05L61.39 297.24L58.32 296.31L55.25 295.25L52.2 294.07L49.17 292.74L46.16 291.27L43.18 289.65L40.24 287.88L37.34 285.95L36.59 285.42L35.8 284.85L34.97 284.24L34.11 283.58L33.21 282.88L32.29 282.11L31.33 281.3L30.34 280.42L29.34 279.48L28.31 278.48L27.26 277.41L26.19 276.27L25.11 275.05L24.02 273.76L22.91 272.39L21.8 270.93L20.68 269.39L19.56 267.76L18.44 266.04L17.33 264.22L16.21 262.3L15.1 260.28L14.01 258.16L12.92 255.92L11.84 253.58L10.79 251.13L9.75 248.56L8.73 245.86L7.74 243.05L6.77 240.11L5.82 237.04L4.91 233.84L4.03 230.5L3.19 227.03L2.39 223.41L1.62 219.65L0.9 215.74L0.22 211.69L-0.42 207.48L-1 203.11L1.94 202.46L4.85 201.84L7.71 201.27L10.53 200.74L13.31 200.25L16.05 199.81L18.75 199.41L21.41 199.05L24.04 198.73L26.63 198.46L29.18 198.23L31.7 198.05L34.18 197.91L36.63 197.81L39.04 197.77L41.42 197.76L43.76 197.81L46.08 197.89Z" id="b2HN6WrQSP"></path><path d="M40.92 56.83L43.69 57.76L46.41 58.72L49.07 59.69L51.67 60.68L54.22 61.68L56.72 62.71L59.17 63.75L61.56 64.82L63.9 65.9L66.18 67.01L68.41 68.14L70.6 69.29L72.72 70.46L74.8 71.65L76.83 72.87L78.8 74.11L80.73 75.38L82.6 76.67L84.42 77.99L86.2 79.34L87.92 80.71L89.59 82.11L91.22 83.53L92.79 84.98L94.32 86.47L95.8 87.98L97.23 89.52L98.61 91.09L99.95 92.7L101.23 94.33L102.47 96L103.67 97.7L104.82 99.43L105.92 101.19L106.97 102.99L107.98 104.82L108.94 106.69L109.86 108.6L110.25 109.43L110.65 110.32L111.08 111.27L111.51 112.28L111.95 113.35L112.4 114.49L112.84 115.69L113.29 116.96L113.72 118.29L114.15 119.69L114.56 121.17L114.95 122.71L115.32 124.33L115.67 126.02L115.98 127.79L116.26 129.63L116.51 131.55L116.71 133.55L116.86 135.63L116.97 137.79L117.03 140.04L117.02 142.37L116.96 144.79L116.83 147.29L116.64 149.88L116.37 152.56L116.03 155.33L115.61 158.2L115.1 161.16L114.51 164.21L113.83 167.36L113.05 170.61L112.17 173.95L111.19 177.4L110.11 180.95L108.91 184.6L107.6 188.35L106.17 192.21L104.62 196.18L102.95 200.25L100.07 199.35L97.24 198.42L94.47 197.49L91.76 196.53L89.1 195.56L86.49 194.57L83.94 193.56L81.44 192.53L79 191.49L76.61 190.42L74.27 189.34L71.98 188.23L69.75 187.1L67.57 185.95L65.44 184.78L63.36 183.58L61.34 182.37L59.36 181.12L57.44 179.85L55.56 178.56L53.74 177.24L51.97 175.9L50.25 174.53L48.57 173.13L46.95 171.71L45.37 170.25L43.85 168.77L42.37 167.26L40.94 165.72L39.55 164.14L38.22 162.54L36.93 160.91L35.69 159.24L34.5 157.54L33.35 155.81L32.25 154.05L31.19 152.25L30.18 150.41L29.22 148.54L28.3 146.64L27.92 145.81L27.51 144.92L27.09 143.97L26.66 142.96L26.21 141.89L25.77 140.75L25.32 139.55L24.88 138.28L24.44 136.95L24.01 135.55L23.6 134.07L23.21 132.53L22.84 130.91L22.5 129.22L22.18 127.46L21.9 125.61L21.66 123.69L21.46 121.69L21.3 119.61L21.19 117.45L21.14 115.21L21.14 112.88L21.2 110.46L21.33 107.96L21.52 105.37L21.79 102.69L22.13 99.91L22.55 97.05L23.06 94.09L23.65 91.04L24.34 87.89L25.11 84.64L25.99 81.3L26.97 77.85L28.06 74.31L29.25 70.66L30.56 66.9L31.99 63.04L33.54 59.07L35.21 55L38.1 55.9L40.92 56.83Z" id="a2F8FIbGjt"></path></defs><g><g><use xlink:href="#b44qbojKjw" opacity="1" fill="#ff9f00" fill-opacity="1"></use><g><use xlink:href="#b44qbojKjw" opacity="1" fill-opacity="0" stroke="#000000" stroke-width="1" stroke-opacity="0"></use></g></g><g><use xlink:href="#fPXIWznW7" opacity="1" fill="#ff9f00" fill-opacity="1"></use><g><use xlink:href="#fPXIWznW7" opacity="1" fill-opacity="0" stroke="#000000" stroke-width="1" stroke-opacity="0"></use></g></g><g><use xlink:href="#c5pT82zOSD" opacity="1" fill="#ff9f00" fill-opacity="1"></use><g><use xlink:href="#c5pT82zOSD" opacity="1" fill-opacity="0" stroke="#000000" stroke-width="1" stroke-opacity="0"></use></g></g><g><use xlink:href="#b2Puo3BjKU" opacity="1" fill="#ff9f00" fill-opacity="1"></use><g><use xlink:href="#b2Puo3BjKU" opacity="1" fill-opacity="0" stroke="#000000" stroke-width="1" stroke-opacity="0"></use></g></g><g><use xlink:href="#cN4RYK83R" opacity="1" fill="#ff9f00" fill-opacity="1"></use><g><use xlink:href="#cN4RYK83R" opacity="1" fill-opacity="0" stroke="#000000" stroke-width="1" stroke-opacity="0"></use></g></g><g><use xlink:href="#c1eCSCPk86" opacity="1" fill="#ff9f00" fill-opacity="1"></use><g><use xlink:href="#c1eCSCPk86" opacity="1" fill-opacity="0" stroke="#000000" stroke-width="1" stroke-opacity="0"></use></g></g><g><use xlink:href="#b2HN6WrQSP" opacity="1" fill="#ff9f00" fill-opacity="1"></use><g><use xlink:href="#b2HN6WrQSP" opacity="1" fill-opacity="0" stroke="#000000" stroke-width="1" stroke-opacity="0"></use></g></g><g><use xlink:href="#a2F8FIbGjt" opacity="1" fill="#ff9f00" fill-opacity="1"></use><g><use xlink:href="#a2F8FIbGjt" opacity="1" fill-opacity="0" stroke="#000000" stroke-width="1" stroke-opacity="0"></use></g></g></g></svg>