<svg height="512pt" viewBox="-57 0 511 512" width="512pt" xmlns="http://www.w3.org/2000/svg"><g fill="#fcbd8a"><path d="m155.46875 0c-29.742188 0-53.941406 24.195312-53.941406 53.9375s24.199218 53.941406 53.941406 53.941406 53.9375-24.199218 53.9375-53.941406-24.195312-53.9375-53.9375-53.9375zm0 0"/><path d="m46.78125 284.265625-17.933594-24.140625 31.59375-23.46875 43.152344-111.644531h101.257812l59.671876 85.097656h37.179687v30.074219h-52.824219l-59.671875-85.097656h-64.992187l-38.855469 100.523437zm0 0"/><path d="m110.878906 471.910156h30.070313v40.089844h-30.070313zm0 0"/><path d="m172.90625 471.910156h30.070312v40.089844h-30.070312zm0 0"/></g><path d="m108.117188 217.253906-10.332032-77.207031 5.808594-15.035156h101.257812l9.273438 13.226562-11.304688 79.015625zm0 0" fill="#dce1eb"/><path d="m108.117188 217.253906-30.027344 269.691406h155.167968l-30.4375-269.691406zm0 0" fill="#b6c4cf"/><path d="m172.90625 471.910156h30.070312v40.089844h-30.070312zm0 0" fill="#f4a971"/><path d="m209.40625 53.9375c0-29.578125-23.933594-53.660156-53.453125-53.9257812v107.8554692c29.519531-.265626 53.453125-24.347657 53.453125-53.929688zm0 0" fill="#f4a971"/><path d="m264.523438 210.109375-59.671876-85.097656h-48.898437v30.074219h33.253906l59.671875 85.097656h52.824219v-30.074219zm0 0" fill="#f4a971"/><path d="m202.820312 217.253906 11.304688-79.015625-9.273438-13.226562h-48.898437v92.242187zm0 0" fill="#b6c4cf"/><path d="m202.820312 217.253906h-46.867187v269.691406h77.304687zm0 0" fill="#96a3ab"/><path d="m108.117188 217.253906 96.734374-92.242187 9.273438 13.226562-11.304688 79.015625zm0 0" fill="#b6c4cf"/><path d="m204.851562 125.011719-48.898437 46.625v45.617187h46.867187l11.304688-79.015625zm0 0" fill="#96a3ab"/><path d="m8.601562 52.878906 30.015626-1.863281 28.4375 458.558594-30.015626 1.863281zm0 0" fill="#b6c4cf"/><path d="m37.699219 25.589844c-4.917969-3.753906-11.007813-5.367188-17.132813-4.539063-6.132812.820313-11.578125 3.984375-15.328125 8.902344-7.746093 10.15625-5.789062 24.71875 4.363281 32.464844 4.078126 3.109375 8.957032 4.75 14 4.75 1.042969 0 2.089844-.070313 3.136719-.210938 6.132813-.824219 11.574219-3.988281 15.328125-8.90625 7.746094-10.152343 5.785156-24.714843-4.367187-32.460937zm0 0" fill="#96a3ab"/><path d="m334.648438 175.976562c-37.703126 0-64.039063 14.589844-64.039063 35.480469s26.335937 35.476563 64.039063 35.476563c37.707031 0 64.042968-14.589844 64.042968-35.476563 0-20.890625-26.335937-35.480469-64.042968-35.480469zm0 0" fill="#b6c4cf"/><path d="m108.117188 217.253906-30.027344 269.691406h94.816406l29.914062-269.691406zm0 0" fill="#dce1eb"/><path d="m155.953125 486.945312h16.953125l29.914062-269.691406h-46.867187zm0 0" fill="#b6c4cf"/></svg>