<?xml version="1.0" encoding="utf-8"?>
<!-- Generator: Adobe Illustrator 19.0.0, SVG Export Plug-In . SVG Version: 6.00 Build 0)  -->
<svg version="1.1" id="Layer_1" xmlns="http://www.w3.org/2000/svg" xmlns:xlink="http://www.w3.org/1999/xlink" x="0px" y="0px"
	 viewBox="-49 51 512 512" style="enable-background:new -49 51 512 512;" xml:space="preserve">
<style type="text/css">
	.st0{fill:#AB2300;}
	.st1{fill:#E4EAF8;}
	.st2{fill:#CCD2DB;}
	.st3{fill:#1DD1A1;}
	.st4{fill:#FF6B6B;}
	.st5{fill:#FECA57;}
	.st6{fill:#15BA8B;}
	.st7{fill:#EE5253;}
	.st8{fill:#F4B537;}
</style>
<circle class="st0" cx="207" cy="307" r="256"/>
<path class="st1" d="M136.2,157.8c-76.1,0-138,61.7-138,138v20.5c0,22.1-8.8,43.4-24.4,59l-19,19c-8.1,8-2.4,21.8,9,21.8h27.3
	c3.9,0,7.1,3.2,7.1,7.1v23.4c0,35,28.7,63.7,63.7,63.7c13.7,0,24.8,11.1,24.8,24.8v20.4c0,4.2,3.4,7.5,7.5,7.5h117.6
	c4.2,0,7.6-3.4,7.6-7.6v-52.2c0-20.5,6.8-40.6,20.4-55.9c21.5-24.3,34.5-56.3,34.5-91.3v-60.2C274.3,219.6,212.5,157.8,136.2,157.8z
	"/>
<path class="st2" d="M-24.8,394.3l19-19c15.6-15.6,24.4-36.9,24.4-59v-20.5c0-72.9,56.4-132.4,127.8-137.6
	c-3.4-0.2-6.8-0.4-10.2-0.4c-76.1,0-138,61.7-138,138v20.5c0,22.1-8.8,43.4-24.4,59l-19,19c-8.1,8-2.4,21.8,9,21.8h20.5
	C-27.1,416.1-32.8,402.4-24.8,394.3z"/>
<path class="st2" d="M107.2,555.5v-20.4c0-13.7-11.1-24.8-24.8-24.8c-35,0-63.7-28.7-63.7-63.7v-23.4c0-3.9-3.2-7.1-7.1-7.1H-8.9
	c3.9,0,7.1,3.2,7.1,7.1v23.4c0,35,28.7,63.7,63.7,63.7c13.7,0,24.8,11.1,24.8,24.8v20.4c0,4.2,3.4,7.5,7.5,7.5h20.5
	C110.5,563,107.2,559.6,107.2,555.5z"/>
<path class="st3" d="M219.5,150.2h-38.8c-1.2,0-2.2-1-2.2-2.2V53.2c0-2.3-3.1-3.1-4.2-1.1l-69.6,126.2c-0.8,1.5,0.3,3.3,2,3.3h38.8
	c1.2,0,2.2,1,2.2,2.2v94.7c0,2.3,3.1,3.1,4.2,1.1l69.6-126.2C222.3,152,221.2,150.2,219.5,150.2z"/>
<path class="st4" d="M335.5,403.3l-4-31.8c-0.1-1,0.6-1.9,1.6-2.1l77.5-9.8c1.9-0.2,2.2-2.8,0.5-3.5l-110.5-43.9
	c-1.3-0.5-2.7,0.6-2.5,1.9l4,31.8c0.1,1-0.6,1.9-1.6,2.1l-77.5,9.8c-1.9,0.2-2.2,2.8-0.4,3.5L333,405.3
	C334.3,405.8,335.7,404.7,335.5,403.3z"/>
<path class="st5" d="M372.7,219.7l-29.3-25.5c-0.9-0.8-0.8-2.4,0.2-3.6l80.1-91.9c2-2.2,0.3-5-2.2-3.8l-159.2,76.7
	c-1.9,0.9-2.6,3.4-1.3,4.5l29.3,25.5c0.9,0.8,0.8,2.4-0.2,3.6l-80.1,91.9c-2,2.2-0.3,5,2.3,3.8l159.2-76.7
	C373.2,223.3,373.9,220.9,372.7,219.7z"/>
<path class="st6" d="M125.2,178.3l53.2-96.4V53.2c0-2.3-3.1-3.1-4.2-1.1l-69.6,126.2c-0.8,1.5,0.3,3.3,2,3.3h20.6
	C125.4,181.6,124.4,179.8,125.2,178.3z"/>
<path class="st6" d="M168.2,183.9c0-1.2-1-2.2-2.2-2.2h-20.6c1.2,0,2.2,1,2.2,2.2v94.7c0,2.3,3.1,3.1,4.2,1.1l16.4-29.7V183.9z"/>
<path class="st7" d="M302,346.9l16.9-2.1c1-0.1,1.7-1.1,1.6-2.1l-3-23.8l-16.9-6.7c-1.3-0.5-2.7,0.6-2.5,1.9l4,31.8
	C302.1,346.3,302.1,346.6,302,346.9z"/>
<path class="st7" d="M240.9,358.1c-1.1-0.4-1.4-1.6-1-2.4l-16.9,2.1c-1.9,0.2-2.2,2.8-0.5,3.5L333,405.3c1.3,0.5,2.7-0.6,2.5-1.9
	l-1-8L240.9,358.1z"/>
<path class="st8" d="M310.6,205.2c1-1.2,1.1-2.8,0.2-3.6L281.5,176c-1.3-1.1-0.6-3.6,1.3-4.5l133.3-64.2l7.6-8.7
	c2-2.2,0.3-5-2.2-3.8l-159.2,76.7c-1.9,0.9-2.6,3.4-1.3,4.5l29.3,25.5c0.9,0.8,0.8,2.4-0.2,3.6l-80.1,91.9c-2,2.2-0.3,5,2.3,3.8
	l25.9-12.5L310.6,205.2z"/>
</svg>
