<?xml version="1.0" encoding="utf-8"?>
<!-- Generator: Adobe Illustrator 19.0.0, SVG Export Plug-In . SVG Version: 6.00 Build 0)  -->
<svg version="1.1" id="Layer_1" xmlns="http://www.w3.org/2000/svg" xmlns:xlink="http://www.w3.org/1999/xlink" x="0px" y="0px"
	 viewBox="0 0 792 792" style="enable-background:new 0 0 792 792;" xml:space="preserve">
<style type="text/css">
	.st0{opacity:0.6;}
	.st1{fill:#39B54A;}
	.st2{fill:none;stroke:#000000;stroke-miterlimit:10;}
	.st3{opacity:0.41;}
	.st4{fill:#F7941E;}
	.st5{fill:#FFD15D;}
	.st6{fill:#F3715B;}
	.st7{fill:#FFCF56;}
	.st8{fill:#E889B8;}
	.st9{fill:#D670AC;}
	.st10{fill:#F8BCCC;}
	.st11{fill:#D1EDF6;}
	.st12{fill:#010101;}
	.st13{fill:#F6A2B9;}
	.st14{fill:#FFFFFF;}
</style>
<g id="XMLID_1_" class="st0">
	<circle id="XMLID_50_" class="st1" cx="396" cy="396" r="396"/>
	<circle id="XMLID_49_" class="st2" cx="396" cy="396" r="396"/>
</g>
<g id="XMLID_43_" class="st3">
	<g id="XMLID_44_">
		<path id="XMLID_45_" class="st4" d="M55.1,191.7L392.8,792l337.7-600.3L55.1,191.7L55.1,191.7z M181.7,266.7h422L392.8,641.9
			L181.7,266.7z"/>
	</g>
</g>
<path id="XMLID_14_" class="st5" d="M396,192.2c-4.1-0.8-9.1-1.6-15.7-2.5c-31.4-2.5-62.7,6.6-87.5,25.6c-6.6,5-13.2,9.9-21.5,16.5
	c-9.9,8.3-19,5.8-30.5,0.8c-5-2.5-10.7-4.1-18.2-5.8c-42.9-9.9-90.8,14-97.4,28.9c0,0-9.1-7.4-19.8-3.3c0,0,17.3-20.6,7.4-89.1
	c0,0-3.3-70.1,29.7-80.9c0,0,19.8-5,28.9,5s38,7.4,38,7.4s24.8,0,32.2,3.3c7.4,3.3,32.2-9.9,32.2-9.9s8.3-13.2-3.3-14
	c0,0,20.6-7.4,11.6-15.7L251.6,2.4c0,0-13.2-8.3-68.5,5.8C127.9,23,132,15.6,98.2,47C64.3,77.5,19.8,174,19.8,174
	S-8.3,254.9,2.4,314.3c2.5,14.9,4.1,29.7,3.3,44.6c0,0.8,0,1.6,0,3.3c-0.8,8.3,7.4,14.9,16.5,18.2c13.2,5.8,28.1,6.6,42.1,3.3
	c9.1-1.6,24.8,0,30.5,2.5c10.7,4.1,64.4,27.2,160.9-9.1c10.7-4.1,21.5-9.1,32.2-14.9c11.6-6.6,35.5-11.6,51.2,33.8H396V192.2z"/>
<g id="XMLID_3_">
	<path id="XMLID_11_" class="st6" d="M156.7,320.1c0,0,1.6,0,4.1,0.8s6.6,0.8,11.6,1.6c5,0.8,9.9,0.8,15.7,0.8c1.6,0,3.3,0,4.1,0
		c1.6,0,3.3,0,4.1,0c3.3,0,5.8,0,9.1-0.8c3.3,0,5.8-0.8,9.1-1.6c1.6,0,3.3-0.8,4.1-0.8c1.6-0.8,2.5-0.8,4.1-0.8
		c2.5-0.8,5.8-1.6,8.3-2.5c0.8-0.8,2.5-0.8,3.3-1.6c0.8-0.8,2.5-0.8,3.3-1.6c0.8-0.8,1.6-0.8,3.3-1.6c0.8-0.8,1.6-0.8,2.5-1.6
		c1.6-0.8,3.3-1.6,4.1-2.5c2.5-1.6,4.1-2.5,4.1-2.5s-0.8,1.6-2.5,3.3c-0.8,0.8-2.5,2.5-3.3,4.1c-1.6,1.6-3.3,3.3-5,4.1
		c-0.8,0.8-1.6,1.6-3.3,2.5c-0.8,0.8-2.5,1.6-3.3,2.5c-2.5,1.6-5,2.5-8.3,4.1c-3.3,0.8-5.8,2.5-9.1,3.3c-2.5,0.8-5.8,1.6-9.1,1.6
		c-3.3,0-6.6,0.8-9.9,0.8c-3.3,0-6.6,0-9.9-0.8c-3.3,0-5.8-0.8-9.1-1.6c-2.5-0.8-5-1.6-7.4-2.5c-2.5-0.8-4.1-1.6-6.6-2.5
		c-1.6-0.8-3.3-1.6-5-2.5C158.4,321.7,156.7,320.1,156.7,320.1z"/>
	<path id="XMLID_9_" class="st6" d="M396,389.4c-1.6-3.3-4.1-6.6-6.6-9.9c-2.5-3.3-5.8-7.4-9.1-10.7c-3.3-3.3-6.6-7.4-10.7-10.7
		c-4.1-3.3-8.3-7.4-13.2-9.9c-5-3.3-9.9-5.8-14.9-9.1c-2.5-1.6-5-2.5-7.4-3.3c-2.5-0.8-5-2.5-7.4-3.3c-2.5-1.6-5-2.5-6.6-4.1
		c-0.8-0.8-2.5-1.6-3.3-2.5c-0.8-0.8-2.5-1.6-3.3-2.5c-2.5-1.6-4.1-3.3-5.8-5c-1.6-1.6-3.3-3.3-5-5c-3.3-3.3-5.8-6.6-8.3-9.9
		c-0.8-1.6-1.6-3.3-3.3-5c-0.8-1.6-1.6-3.3-2.5-5c-0.8-3.3-2.5-5.8-2.5-8.3c-0.8-2.5-0.8-4.1-0.8-5.8c0-1.6,0-1.6,0-1.6s0,0.8,0,1.6
		c0,0.8,0,1.6,0,2.5c0,0.8,0,2.5,0,3.3c0,2.5,0.8,5.8,0.8,9.1c0.8,1.6,0.8,3.3,1.6,5.8c0.8,1.6,1.6,4.1,2.5,5.8
		c1.6,4.1,5,8.3,8.3,11.6c1.6,1.6,3.3,4.1,5,5.8c1.6,1.6,4.1,4.1,5.8,5c0.8,0.8,2.5,1.6,3.3,2.5c0.8,0.8,2.5,1.6,3.3,2.5
		c2.5,1.6,5,3.3,7.4,4.1c2.5,1.6,5,2.5,7.4,4.1c2.5,1.6,5,2.5,7.4,4.1c5,2.5,9.9,5,14,8.3c2.5,1.6,4.1,3.3,6.6,4.1
		c2.5,1.6,4.1,3.3,6.6,5c4.1,3.3,7.4,6.6,11.6,9.9c3.3,3.3,6.6,6.6,9.1,9.9c2.5,3.3,5,5.8,7.4,8.3c0.8,1.6,1.6,2.5,2.5,3.3
		L396,389.4L396,389.4z"/>
	<path id="XMLID_8_" class="st6" d="M168.3,67.6c0,0,0.8,0,3.3,0c0.8,0,2.5,0,3.3,0c1.6,0,2.5,0,4.1,0c3.3,0,7.4-0.8,10.7-1.6
		c1.6-0.8,4.1-1.6,5.8-2.5c0.8,0,1.6-0.8,2.5-1.6c0.8,0,0.8-0.8,1.6-0.8l0.8-0.8l1.6-0.8l0.8-0.8c0.8-0.8,1.6-1.6,2.5-2.5
		c0.8,0,0.8-0.8,1.6-0.8l1.6-0.8c0.8,0,0.8-0.8,1.6-0.8s0.8-0.8,1.6-0.8c2.5-0.8,4.1-0.8,6.6-0.8c1.6,0,4.1,0,5.8,0.8
		c1.6,0,3.3,0.8,4.1,1.6c1.6,0.8,2.5,0.8,3.3,1.6c1.6,0.8,2.5,1.6,2.5,1.6s-0.8,0-3.3-0.8c-0.8,0-2.5,0-3.3-0.8
		c-1.6,0-2.5,0-4.1-0.8c-1.6,0-3.3,0-5,0c-0.8,0-0.8,0-1.6,0c-0.8,0-0.8,0-1.6,0s-1.6,0.8-2.5,0.8s-0.8,0-1.6,0.8c0,0-0.8,0-0.8,0.8
		l-0.8,0.8l-0.8,0.8l-0.8,0.8l0,0l0,0l0,0l0,0l0,0l0,0l-1.6,0.8c-0.8,0.8-0.8,0.8-1.6,1.6l-1.6,0.8l-1.6,0.8c-0.8,0-0.8,0.8-1.6,0.8
		c0,0.8-0.8,1.6-2.5,1.6c-0.8,0.8-2.5,0.8-3.3,0.8c-0.8,0-2.5,0.8-3.3,0.8c-2.5,0.8-4.1,0.8-5.8,0.8c-1.6,0-4.1,0-5.8,0
		c-1.6,0-3.3,0-5-0.8c-1.6,0-2.5-0.8-3.3-0.8C169.9,68.4,169.9,68.4,168.3,67.6L168.3,67.6z"/>
	<path id="XMLID_5_" class="st6" d="M216.1,64.3c0,0,0.8,0,1.6,0s2.5,0,4.1,0.8c0.8,0,1.6,0.8,2.5,0.8c0.8,0.8,1.6,0.8,2.5,1.6
		c0.8,0.8,1.6,0.8,2.5,1.6c0.8,0.8,1.6,1.6,1.6,1.6c0,0.8,0,1.6,0.8,1.6c0.8,0.8,1.6,0.8,1.6,1.6c0.8,0,1.6,0.8,1.6,0.8
		c0.8,0,1.6,0.8,1.6,0.8c0.8,0,1.6,0,1.6,0.8c0.8,0,0.8,0,1.6,0c0.8,0,1.6,0,1.6,0s0,0-0.8,0.8c-0.8,0-0.8,0-1.6,0.8
		c-0.8,0-1.6,0-2.5,0s-1.6,0-2.5,0c-0.8,0-1.6-0.8-2.5-0.8c-0.8-0.8-1.6-0.8-2.5-1.6c-0.8-0.8-1.6-1.6-2.5-2.5l-0.8-0.8
		c-0.8-0.8-0.8-0.8-0.8-0.8c-0.8-0.8-0.8-1.6-1.6-1.6c-0.8-0.8-0.8-1.6-1.6-2.5c-0.8,0-0.8-0.8-1.6-0.8c-0.8-0.8-1.6-1.6-2.5-1.6
		C217,64.3,216.1,64.3,216.1,64.3z"/>
	<path id="XMLID_4_" class="st6" d="M212,54.4c0.8-1.6,3.3-1.6,5-3.3c0.8-0.8,1.6-1.6,1.6-2.5c0.8-1.6,1.6-4.1,2.5-6.6
		c0-0.8,0.8-1.6,0.8-1.6c1.6-0.8,3.3,0.8,3.3,1.6c0,1.6,0,3.3,0.8,4.1c0.8,1.6,2.5,2.5,4.1,3.3c4.1,0.8,9.1-1.6,9.9-5.8
		c0,2.5,0.8,5,2.5,6.6c0.8,1.6,3.3,2.5,2.5,4.1c-0.8,1.6-2.5,1.6-4.1,1.6c-3.3,0-6.6,0.8-9.9-0.8c-0.8,0-1.6-0.8-3.3-0.8
		c-0.8,0-1.6,0-2.5,0c-1.6,0-3.3,0-4.1,0s-1.6,0-2.5,0c-1.6,0.8-2.5,2.5-2.5,5c-1.6,0-3.3-0.8-4.1-1.6
		C211.2,57.7,211.2,55.2,212,54.4"/>
</g>
<polygon id="XMLID_30_" class="st7" points="564.8,179.2 512.1,328.7 545.2,328.7 528.6,395 644.7,279 611.5,279 677.9,179.2 "/>
<path id="XMLID_29_" class="st8" d="M566.2,244.2c-19.7,0-37.9-9-49.9-24.7l-3.1-4l-5,0.9c-2.8,0.5-5.6,0.8-8.4,0.8
	c-25.2,0-45.8-20.5-45.8-45.7c0-14.8,7.2-28.8,19.3-37.3l3.5-2.5l-0.1-4.7c0-0.2,0-0.4,0-0.6c0-42.5,34.5-77,77-77
	c2.1,0,4.2,0.1,6.3,0.3l4.6,0.4l2.7-3.7c7-9.4,16.2-17.2,26.7-22.5c10.9-5.6,22.7-8.4,35-8.4c13.4,0,26.7,3.5,38.3,10.2
	c11.2,6.4,20.8,15.7,27.5,26.8l1.9,3.1l3.6,0.7c36.2,6.9,62.5,38.7,62.5,75.6c0,4.5-0.4,9-1.2,13.4l-0.9,5.3l4.5,3
	c12.8,8.5,20.4,22.8,20.4,38.1c0,25.2-20.5,45.8-45.8,45.8c-10.9,0-21.5-3.9-29.8-11l-5.3-4.5l-5.4,4.4
	c-11.2,9.2-25.3,14.2-39.8,14.2c-14.4,0-28.1-4.8-39.3-13.8l-5.6-4.6l-5.3,5C597.7,238.1,582.3,244.2,566.2,244.2z"/>
<g id="XMLID_24_">
	<path id="XMLID_26_" class="st9" d="M769.9,146.5c0.9-4.8,1.3-9.8,1.3-14.9c0-41.6-29.8-76.3-69.2-83.8C687,23.4,659.9,7,629.1,7
		c-28,0-52.8,13.5-68.3,34.3c-2.3-0.2-4.6-0.3-6.9-0.3c-47.1,0-85.3,38.2-85.3,85.3c0,0.4,0,0.7,0,1.1
		c-13.8,9.8-22.8,25.9-22.8,44.1c0,29.8,24.2,54,54,54c3.4,0,6.7-0.3,9.9-0.9c13,17,33.4,27.9,56.5,27.9c19,0,36.2-7.4,48.9-19.5
		c12.2,9.8,27.7,15.7,44.5,15.7c17.1,0,32.8-6,45.1-16.1c9.5,8.1,21.8,13.1,35.2,13.1c29.8,0,54-24.2,54-54
		C793.9,172.8,784.4,156.2,769.9,146.5z M739.9,229c-9,0-17.6-3.2-24.4-9l-10.6-9.1l-10.8,8.8c-9.8,8.1-21.8,12.4-34.6,12.4
		c-12.6,0-24.3-4.2-34.1-12l-11.3-9.1l-10.5,10c-10.2,9.6-23.5,15-37.5,15c-8.6,0-16.9-1.9-24.5-5.8c-7.3-3.7-13.8-9.1-18.8-15.6
		l-6.2-8.1l-10,1.9c-2.3,0.4-4.6,0.6-6.9,0.6c-20.7,0-37.5-16.8-37.5-37.5c0-12.1,5.9-23.5,15.8-30.6l7.1-5l-0.1-8.7l0-0.4
		c0-0.1,0-0.3,0-0.4c0-18.4,7.2-35.6,20.1-48.6c13-13,30.2-20.1,48.6-20.1c1.8,0,3.7,0.1,5.6,0.2l9.1,0.7l5.5-7.3
		c6.3-8.4,14.5-15.3,23.8-20.1c9.7-5,20.3-7.5,31.3-7.5c12,0,23.8,3.1,34.1,9.1c10,5.8,18.5,14,24.6,23.9l3.8,6.3l7.2,1.4
		c32.3,6.2,55.7,34.6,55.7,67.5c0,4-0.4,8.1-1,12l-1.9,10.6l9,6c10.5,7,16.7,18.6,16.7,31.2C777.3,212.2,760.5,229,739.9,229z"/>
	<path id="XMLID_25_" class="st9" d="M714.3,88c-0.7-14.2-4.9-27.5-11.7-39h-20.1c9,11.1,14.3,24.7,15.2,39H714.3z"/>
</g>
<path id="XMLID_23_" class="st8" d="M516.4,269.4c-19.7,0-37.9-9-49.9-24.7l-3.1-4l-5,0.9c-2.8,0.5-5.6,0.8-8.4,0.8
	c-25.2,0-45.8-20.5-45.8-45.8c0-14.8,7.2-28.8,19.3-37.3l3.5-2.5l-0.1-4.7c0-0.2,0-0.4,0-0.6c0-42.5,34.5-77,77-77
	c2.1,0,4.2,0.1,6.3,0.3l4.6,0.4l2.7-3.7c7-9.4,16.2-17.2,26.7-22.5c10.9-5.6,22.7-8.4,35-8.4c13.4,0,26.7,3.5,38.3,10.2
	c11.2,6.4,20.8,15.7,27.5,26.8l1.9,3.1l3.6,0.7c36.2,6.9,62.5,38.7,62.5,75.6c0,4.5-0.4,9-1.2,13.4l-0.9,5.3l4.5,3
	c12.8,8.5,20.4,22.8,20.4,38.1c0,25.2-20.5,45.7-45.8,45.7c-10.9,0-21.5-3.9-29.8-11l-5.3-4.5l-5.4,4.4
	c-11.2,9.2-25.3,14.2-39.8,14.2c-14.5,0-28.1-4.8-39.3-13.8l-5.7-4.6l-5.3,5C547.9,263.3,532.6,269.4,516.4,269.4z"/>
<g id="XMLID_15_">
	<path id="XMLID_20_" class="st9" d="M720.1,171.7c0.9-4.8,1.3-9.8,1.3-14.9c0-41.6-29.8-76.2-69.2-83.8c-15-24.5-42-40.9-72.8-40.9
		c-28,0-52.8,13.5-68.3,34.3c-2.3-0.2-4.6-0.3-6.9-0.3c-47.1,0-85.3,38.2-85.3,85.3c0,0.4,0,0.7,0,1.1
		c-13.8,9.8-22.8,25.9-22.8,44.1c0,29.8,24.2,54,54,54c3.4,0,6.7-0.3,9.9-0.9c13,17,33.4,27.9,56.5,27.9c19,0,36.2-7.4,48.9-19.5
		c12.2,9.8,27.7,15.7,44.5,15.7c17.1,0,32.8-6.1,45.1-16.1c9.5,8.1,21.8,13.1,35.2,13.1c29.8,0,54-24.2,54-54.1
		C744.2,197.9,734.6,181.4,720.1,171.7z M690.1,254.2c-9,0-17.6-3.2-24.4-9l-10.6-9.1l-10.8,8.9c-9.8,8.1-21.8,12.4-34.6,12.4
		c-12.5,0-24.3-4.2-34.1-12l-11.3-9.1l-10.5,10c-10.2,9.6-23.5,15-37.5,15c-8.6,0-16.9-2-24.5-5.8c-7.3-3.7-13.8-9.1-18.8-15.6
		l-6.2-8.1l-10,1.9c-2.3,0.4-4.6,0.6-6.9,0.6c-20.7,0-37.5-16.8-37.5-37.5c0-12.1,5.9-23.5,15.8-30.6l7.1-5l-0.1-8.7l0-0.4
		c0-0.1,0-0.3,0-0.4c0-18.4,7.2-35.6,20.1-48.6c13-13,30.2-20.1,48.6-20.1c1.8,0,3.7,0.1,5.6,0.2l9.1,0.7l5.5-7.3
		c6.3-8.4,14.5-15.3,23.8-20.1c9.7-5,20.2-7.5,31.3-7.5c12,0,23.8,3.1,34.1,9.1c10,5.8,18.5,14,24.6,23.9l3.8,6.3l7.2,1.4
		c32.3,6.2,55.7,34.6,55.7,67.5c0,4-0.4,8.1-1,12l-1.9,10.6l9,6c10.5,7,16.7,18.6,16.7,31.2C727.6,237.4,710.8,254.2,690.1,254.2z"
		/>
	<path id="XMLID_19_" class="st9" d="M652.7,216.8c0-4.3,0.8-8.5,2.1-12.3h-17.3c-0.9,4-1.4,8.1-1.4,12.3c0,16.1,7.1,30.6,18.3,40.5
		l13.6-10.3C658.8,240.2,652.7,229.2,652.7,216.8z"/>
	<path id="XMLID_18_" class="st9" d="M515.1,66.7v16.7c14.2,2.3,27.3,8.9,37.7,19.3c3.2,3.2,6.1,6.7,8.6,10.5h19.1
		C568,88.3,543.8,70.3,515.1,66.7z"/>
	<path id="XMLID_17_" class="st9" d="M664.5,113.2c-0.7-14.2-4.9-27.5-11.7-39h-20.1c9,11.1,14.3,24.7,15.2,39H664.5z"/>
	<path id="XMLID_16_" class="st9" d="M469,179.5h-18.4c-3.4,8.3-5.3,17.5-5.3,27c0,18.6,7.1,35.5,18.8,48.1l10.9-12.7
		c-8.5-9.9-13.1-22.3-13.1-35.4C461.9,196.9,464.4,187.6,469,179.5z"/>
</g>
<g id="XMLID_31_" transform="matrix(1 0 0 1 0 0)">
	<path id="XMLID_40_" class="st10" d="M534,629.1c65.9-66.4,78.9-160.4,29-210c-49.9-49.5-143.8-35.9-209.8,30.6
		c-47.2,47.5-67.2,109.2-56.5,158.5c4.6,21.2-4.2,43-22.1,55.3c-32.3,22.2-63.5,47.2-71.6,55.5c-17.3,17.4-17.1,45.5,0.2,62.7
		c17.4,17.3,45.5,17.1,62.7-0.2c8.2-8.3,33-39.6,54.9-72.1c12.1-18,33.9-27,55.1-22.6C425.4,697.2,486.9,676.7,534,629.1z"/>
	<path id="XMLID_39_" class="st11" d="M346.7,637.2c-16.9-16.8-23.9-42.3-19.9-71.8c4.5-32.9,21.9-66,49-93.3
		c27.1-27.3,60.1-44.9,92.9-49.7c29.5-4.3,55,2.6,71.9,19.3c16.9,16.8,23.9,42.2,19.9,71.8c-4.5,32.9-21.9,66-49,93.3
		c-27.1,27.3-60.1,44.9-92.9,49.7C389.1,660.8,363.5,653.9,346.7,637.2z"/>
	<g id="XMLID_35_">
		<path id="XMLID_38_" class="st12" d="M497.8,500.7c-2.4,2.4-6.2,2.4-8.6,0l-7.2-7.1c-2.4-2.4-2.4-6.2,0-8.6c2.4-2.4,6.2-2.4,8.6,0
			l7.2,7.1C500.1,494.5,500.2,498.3,497.8,500.7z"/>
		<path id="XMLID_37_" class="st12" d="M405.3,593.9c-2.4,2.4-6.2,2.4-8.6,0l-7.2-7.1c-2.4-2.4-2.4-6.2,0-8.6c2.4-2.4,6.2-2.4,8.6,0
			l7.2,7.1C407.7,587.6,407.7,591.5,405.3,593.9z"/>
		<path id="XMLID_36_" class="st12" d="M456.1,551.8c-5.6,5.6-12.9,9.4-21.2,10.5c-3.3,0.4-6.4-1.9-6.8-5.3
			c-0.4-3.3,1.9-6.4,5.3-6.8c11-1.4,19.6-10.1,21-21.2c0.4-3.3,3.5-5.7,6.8-5.3c3.3,0.4,5.7,3.5,5.3,6.8
			C465.4,538.8,461.7,546.2,456.1,551.8z"/>
	</g>
	<path id="XMLID_34_" class="st13" d="M297.8,615.9c1.3,18.7-7.5,36.9-23.2,47.7c-10.9,7.5-21.7,15.3-31.4,22.6
		c13,1.4,29,5.3,45,14.3c11.8,6.7,22.1,10.2,30.7,11.9c0.7-1,1.4-2,2-3c12.1-18,33.9-27,55.1-22.6
		C315.8,674.1,301.2,633,297.8,615.9z"/>
	<path id="XMLID_33_" class="st14" d="M532.7,581.5h-63.8c-11.2,0-20.3,9.1-20.3,20.3c0,11.2,9.1,20.3,20.3,20.3h25.5
		c5.9-4.7,11.6-9.8,17-15.3C519.4,598.8,526.5,590.3,532.7,581.5z"/>
	<path id="XMLID_32_" class="st14" d="M439.4,465.9c0-11.2-9.1-20.3-20.3-20.3h-10.6c-11.5,7.4-22.6,16.3-32.7,26.5
		c-4.5,4.5-8.7,9.2-12.7,14.1h56C430.3,486.2,439.4,477,439.4,465.9z"/>
</g>
</svg>
