<svg height="512pt" viewBox="0 -44 512.0005 512" width="512pt" xmlns="http://www.w3.org/2000/svg"><path d="m411.597656 266.027344-128.1875-128.1875c-2.933594-2.933594-21.546875-80.007813-24.574218-82.84375-7.242188-6.785156-20.097657-12.574219-38.207032-17.203125-11.070312-2.828125-23.019531-.980469-32.792968 5.066406-9.40625 5.824219-21.5 4.488281-29.40625-3.25l-38.292969-37.46875c-2.941407-2.875-7.652344-2.851563-10.5625.058594l-107.375 107.375c-2.933594 2.933593-2.933594 7.6875 0 10.621093l33.546875 33.542969c6.855468 6.855469 11.101562 15.988281 11.953125 25.71875 3.710937 42.355469 30.917969 77.660157 42.445312 90.875 1.484375 1.699219 143.628907 144.03125 143.628907 144.03125 6.507812 6.507813 15.164062 10.09375 24.367187 10.09375 9.207031 0 17.859375-3.585937 24.367187-10.09375 6.507813-6.507812 10.09375-15.164062 10.09375-24.367187 0-.695313-.027343-1.386719-.066406-2.074219 1.894532.316406 3.828125.492187 5.792969.492187 9.203125 0 17.859375-3.585937 24.367187-10.09375 6.152344-6.152343 9.476563-14.070312 9.996094-22.132812 3.773438 1.351562 7.730469 2.035156 11.695313 2.035156 8.824219 0 17.648437-3.359375 24.367187-10.074218 6.707032-6.707032 10.0625-15.511719 10.074219-24.320313 2.71875.679687 5.53125 1.027344 8.402344 1.027344 9.207031 0 17.859375-3.582031 24.371093-10.09375 13.433594-13.4375 13.433594-35.300781-.003906-48.734375zm0 0" fill="#f4b184"/><path d="m204.902344 300.203125 87.730468 87.730469c1.867188.308594 3.765626.480468 5.695313.480468 9.125 0 17.703125-3.527343 24.195313-9.929687l-79.003907-79.003906c-10.464843-10.464844-27.753906-10.140625-38.617187.722656zm0 0" fill="#eaa678"/><path d="m258.445312 281.84375 74.390626 74.390625c3.726562 1.320313 7.636718 1.988281 11.546874 1.988281 8.757813 0 17.511719-3.308594 24.210938-9.921875l-69.402344-69.402343c-10.4375-10.4375-30.308594-7.492188-40.746094 2.945312zm0 0" fill="#eaa678"/><path d="m299.519531 240.769531-1.851562 1.851563 81.21875 81.222656c2.695312.664062 5.492187 1.011719 8.34375 1.011719 9.136719 0 17.726562-3.535157 24.222656-9.953125l-74.132813-74.132813c-10.4375-10.4375-27.363281-10.4375-37.800781 0zm0 0" fill="#eaa678"/><path d="m2.199219 109.574219c-2.933594 2.933593-2.933594 7.6875 0 10.621093l33.546875 33.542969c6.855468 6.855469 11.101562 15.988281 11.953125 25.71875 3.710937 42.355469 30.917969 77.660157 42.445312 90.875 1.484375 1.699219 143.628907 144.03125 143.628907 144.03125 6.507812 6.507813 15.164062 10.09375 24.367187 10.09375 9.207031 0 17.859375-3.585937 24.367187-10.09375 2.886719-2.886719 5.195313-6.195312 6.875-9.789062-8.429687 1.558593-17.453124-.910157-23.972656-7.429688l-22.253906-22.253906-128.238281-128.613281c-10.742188-12.316406-37.089844-46.269532-40.621094-86.589844-.996094-11.367188-5.929687-22.175781-14.125-30.375l-38.855469-38.855469zm0 0" fill="#eaa678"/><path d="m391.808594 2.199219-42.914063 42.914062c-9.050781 9.046875-21.902343 12.765625-34.386719 9.941407l-13.269531-3c-31.515625-7.128907-64.871093 1.292968-89.222656 22.53125l-30.859375 26.90625c-7.300781 6.367187-11.503906 15.59375-11.503906 25.292968v63.976563c0 11.152343 9.074218 20.226562 20.230468 20.226562 16.542969 0 31.070313-10.578125 36.15625-26.320312l10.785157-33.40625c9.226562.59375 27.710937 1.207031 48.09375-1.28125l118.175781 118.414062c-.003906 0-.003906.003907-.007812.003907l10.621093 10.621093c.003907-.003906.003907-.003906.007813-.007812 1.875-1.875 45.945312-46.609375 50.585937-99.554688.855469-9.730469 5.097657-18.863281 11.953125-25.71875l33.546875-33.542969c2.933594-2.933593 2.933594-7.6875 0-10.621093l-107.375-107.375c-2.933593-2.933594-7.6875-2.933594-10.617187 0zm0 0" fill="#ffc89f"/><path d="m476.253906 153.738281 33.546875-33.546875c2.933594-2.929687 2.933594-7.6875 0-10.617187l-19.117187-19.117188-38.855469 38.855469c-8.199219 8.195312-13.128906 19.007812-14.125 30.371094-4.410156 50.351562-47.582031 94.0625-48.402344 94.890625l13.792969 13.820312c-.003906 0-.003906 0-.007812.003907l10.621093 10.621093c.003907-.003906.003907-.003906.007813-.007812 1.875-1.878907 45.945312-46.613281 50.585937-99.554688.855469-9.730469 5.097657-18.863281 11.953125-25.71875zm0 0" fill="#f7bc94"/><path d="m104.320312 234.316406-6.839843 6.839844c-5.957031 5.953125-9.234375 13.875-9.234375 22.296875s3.277344 16.34375 9.234375 22.296875c5.957031 5.957031 13.875 9.238281 22.300781 9.238281 8.421875 0 16.34375-3.28125 22.296875-9.238281l6.839844-6.835938c12.296875-12.296874 12.296875-32.304687 0-44.597656-12.296875-12.296875-32.300781-12.296875-44.597657 0zm0 0" fill="#ffc89f"/><path d="m153.894531 252.695312-38.03125 38.035157c-12.296875 12.292969-12.296875 32.300781 0 44.597656 12.296875 12.292969 32.300781 12.292969 44.597657 0l38.03125-38.035156c12.296874-12.292969 12.296874-32.300781 0-44.597657-12.296876-12.292968-32.304688-12.292968-44.597657 0zm0 0" fill="#ffc89f"/><path d="m173.542969 301.003906-16.152344 16.152344c-12.292969 12.292969-12.292969 32.300781 0 44.59375 12.296875 12.296875 32.304687 12.296875 44.597656 0l16.152344-16.148438c12.292969-12.296874 12.292969-32.300781 0-44.597656-12.296875-12.292968-32.300781-12.292968-44.597656 0zm0 0" fill="#ffc89f"/><path d="m207.519531 334.984375-14.167969 14.164063c-12.296874 12.296874-12.296874 32.304687 0 44.597656 12.296876 12.296875 32.304688 12.296875 44.597657 0l14.167969-14.164063c12.296874-12.296875 12.296874-32.304687 0-44.601562-12.292969-12.292969-32.300782-12.292969-44.597657.003906zm0 0" fill="#ffc89f"/><g fill="#f7bc94"><path d="m129.585938 259.578125-6.839844 6.839844c-5.957032 5.957031-13.875 9.238281-22.300782 9.238281-3.609374 0-7.125-.605469-10.4375-1.765625 1.542969 4.414063 4.070313 8.457031 7.472657 11.863281 5.957031 5.957032 13.875 9.234375 22.300781 9.234375 8.421875 0 16.34375-3.277343 22.296875-9.234375l6.839844-6.839844c12.292969-12.296874 12.292969-32.300781 0-44.597656-3.460938-3.460937-7.535157-5.949218-11.875-7.460937 3.863281 11.074219 1.375 23.890625-7.457031 32.722656zm0 0"/><path d="m179.160156 277.960938-38.035156 38.03125c-8.832031 8.835937-21.648438 11.320312-32.722656 7.460937 1.511718 4.339844 4 8.410156 7.460937 11.875 12.296875 12.292969 32.300781 12.292969 44.597657 0l38.03125-38.035156c12.296874-12.292969 12.296874-32.300781 0-44.597657-3.460938-3.460937-7.535157-5.945312-11.875-7.460937 3.863281 11.078125 1.375 23.894531-7.457032 32.726563zm0 0"/><path d="m198.804688 326.269531-16.148438 16.148438c-8.832031 8.835937-21.648438 11.320312-32.722656 7.460937 1.511718 4.339844 4 8.414063 7.460937 11.875 12.292969 12.292969 32.300781 12.292969 44.597657 0l16.148437-16.152344c12.296875-12.292968 12.296875-32.300781 0-44.597656-3.460937-3.460937-7.535156-5.945312-11.875-7.460937 3.863281 11.078125 1.375 23.890625-7.460937 32.726562zm0 0"/><path d="m232.785156 360.246094-14.167968 14.167968c-8.835938 8.835938-21.648438 11.320313-32.726563 7.460938 1.515625 4.339844 4 8.414062 7.460937 11.875 12.296876 12.292969 32.304688 12.292969 44.597657 0l14.167969-14.167969c12.296874-12.296875 12.296874-32.304687 0-44.597656-3.460938-3.460937-7.53125-5.949219-11.871094-7.460937 3.859375 11.074218 1.371094 23.890624-7.460938 32.722656zm0 0"/><path d="m189.882812 210.988281c16.542969 0 31.070313-10.578125 36.152344-26.316406l10.789063-33.410156c8.644531.558593 25.417969 1.128906 44.261719-.847657 1.347656-.277343 2.628906-.433593 3.832031-.433593 36.054687 0 46.324219-19.0625 46.324219-19.0625l-101.722657-14.402344c-7.738281-1.046875-15.132812 3.527344-17.65625 10.914063l-12.089843 35.816406c-3.390626 10.507812-19.636719 19.832031-30.121094 22.082031v5.433594c0 11.152343 9.074218 20.226562 20.230468 20.226562zm0 0"/></g></svg>