<?xml version="1.0" encoding="UTF-8" standalone="no"?>
<!DOCTYPE svg PUBLIC "-//W3C//DTD SVG 1.1//EN" "http://www.w3.org/Graphics/SVG/1.1/DTD/svg11.dtd">
<svg version="1.1" xmlns="http://www.w3.org/2000/svg" xmlns:xlink="http://www.w3.org/1999/xlink" preserveAspectRatio="xMidYMid meet" viewBox="0 0 640 640" width="640" height="640"><defs><path d="M619.2 416.04C618.98 415.28 618.63 414.56 618.22 413.88C618.54 414.6 618.87 415.32 619.2 416.04Z" id="a2FyxRygr2"></path><path d="M153.46 383.1C165.33 389.37 177.36 394.85 190.8 396.83C197.02 397.75 197.02 398.11 197.71 391.77C198.72 382.54 195.57 374.29 191.36 366.37C190.9 365.51 189.75 364.63 188.8 364.47C185.79 363.94 166.94 361.7 160.96 359.49" id="djwvaLJyr"></path><path d="M512.6 369.32C511.89 359.64 504.97 306.92 450.43 286.53C446.76 284.03 412.19 271.42 408.23 269.18C398.74 263.82 389.46 258.11 379.99 252.72C317.65 210.71 320.55 76.19 254.17 56.34C246.27 55.11 238.32 54.43 230.25 55.06C227.87 55.25 225.55 56.12 223.16 56.45C222.25 56.58 220.9 56.44 220.34 55.86C220.17 55.68 220.01 55.49 219.84 55.31C217.09 56.03 214.22 56.92 211.24 57.99C214.22 56.92 217.09 56.03 219.84 55.31C217.98 53.27 216.29 51.07 214.57 48.91C213.76 47.9 213.59 49.31 212.8 48.28C212.41 47.76 211.94 47.42 211.73 47.49C211.51 47.57 211.25 48.13 211.14 48.73C211.08 49.1 210.64 50.03 210.67 50.4C210.83 52.63 210.92 51.81 211.16 54.04C211.65 58.66 211.63 58.58 207 59.2C205.01 59.46 202.85 59.81 201.16 60.81C201.09 60.85 201.03 60.88 200.96 60.92C199.25 61.86 185.61 69.33 183.9 70.27C183.97 70.33 184.04 70.39 184.11 70.46C187.44 73.64 187.76 76.75 185.71 80.9C182.6 87.19 179.23 93.4 176.77 99.94C175.59 103.1 176.21 106.94 176.08 110.48C176.02 112.09 176.43 113.76 176.12 115.31C173.38 129.09 168.66 142.19 162.39 154.75C161.33 156.88 160.45 159.08 159.68 160.94C159.42 161.57 158.99 162.33 158.81 162.71C158.7 162.94 158.61 163.18 158.57 163.42C158.52 163.69 158.51 163.95 158.53 164.2C158.56 164.64 158.73 165.24 158.85 165.55C158.96 165.86 159.13 166.31 159.2 166.56C159.25 166.71 159.3 166.86 159.38 167.01C159.8 167.93 160.3 168.8 160.82 169.65C161.32 170.48 161.15 171.7 160.41 172.33C160.14 172.57 159.86 172.8 159.58 173.03C159.26 173.3 159.01 173.61 158.82 173.95C158.51 174.54 158.38 175.16 158.32 175.26C158.26 175.33 158.23 175.39 158.22 175.46C158.08 176.18 158.24 177.29 158.73 177.71C161.01 179.7 163.41 181.55 165.94 183.57C166.47 183.98 166.41 184.56 165.77 184.86C164.6 185.41 164.43 186.58 165.44 187.4C167.74 189.25 170.47 189.62 173.39 189.69C174.92 189.73 176.43 190.25 177.95 190.52C178.63 190.63 179.54 190.95 179.96 190.65C182.51 188.86 185.19 189.12 188.12 189.3C192.16 189.56 196.52 185.34 196.71 181.22C196.95 175.82 199.21 172.12 203.64 168.79C207.22 166.1 209.62 161.87 212.62 158.36C213.33 157.53 214.2 156.84 215.2 156.41C217.7 155.33 219.72 156.21 219.88 158.77C220.2 164.02 221.31 169.41 220.5 174.49C219.29 182.09 216.95 189.55 214.64 196.92C212.04 205.2 206.49 211.58 200.49 217.67C193.73 224.52 189.13 232.42 188.99 242.53C188.92 248.01 188.02 253.48 187.27 258.93C187.12 259.96 186.11 261.4 185.18 261.72C168.44 267.61 153.19 276.45 137.9 285.22C135.34 286.69 132.52 287.7 130.01 289.23C123.46 293.21 121.56 299.57 121.59 306.74C121.59 308.35 121.72 310.09 122.31 311.55C125.11 318.48 124.08 325.07 121.11 331.63C116.5 341.83 112.09 352.11 107.37 362.25C105.99 365.2 105.86 368 106.97 370.81C109.51 377.26 110.71 383.92 110.7 390.81C110.69 396.6 112.91 401.7 115.32 406.81C117.18 410.76 122.13 412.85 123.9 416.85C125.37 420.19 123.8 423.42 127.24 422.31C130.06 421.41 133.1 420.07 135.1 418C140.71 412.21 143.25 404.94 143.18 396.88C143.17 395.31 142.85 393.48 142.01 392.23C138.91 387.64 135.7 383.11 132.24 378.79C129.83 375.78 129.62 371.56 131.79 368.37C132.93 366.7 133.84 364.78 134.41 362.85C135 360.83 135.32 358.73 135.7 356.39C135.93 355.01 136.9 354.71 137.83 355.76C140.77 359.08 142.7 362.61 142.57 366.78C142.32 375.04 146.65 379.5 153.46 383.1C153.46 383.1 168.76 361.16 163.35 360.17C159.29 359.43 156.52 356.82 155.23 353.41C152.28 345.62 149.88 337.61 147.51 329.62C147.18 328.53 147.96 326.74 148.8 325.75C150.28 323.98 152.06 322.33 154 321.09C155.14 320.36 156.9 320.13 158.29 320.34C170.6 322.12 182.85 324.39 195.19 325.84C206.41 327.15 217.72 327.66 228.99 328.4C230.42 328.49 232.24 328.18 233.29 327.33C236.8 324.47 240.05 325.15 243.33 327.49C249.81 332.09 256.13 336.94 262.76 341.3C272.29 347.56 282.14 353.32 291.68 359.57C310.03 371.58 330.92 377.92 350.86 386.37C355.06 388.15 359.54 389.31 363.93 390.62C365.93 391.22 367.22 392.37 367.37 394.4C367.59 397.22 368.05 400.15 367.56 402.88C365.76 412.8 367.02 422.32 370.31 431.72C371.44 434.98 372.54 438.3 373.12 441.68C374.41 449.2 372.01 455.54 366.17 460.49C354.77 470.15 342.07 477.9 329.24 485.46C325.3 487.79 321.34 490.12 317.59 492.75C316.3 493.65 315.15 495.32 314.75 496.86C312.48 505.66 309.94 514.34 305.65 522.42C302.57 528.23 304.23 534.09 305.74 539.9C306.96 544.6 308.25 549.28 309.68 554.53C309.98 555.64 310.91 555.87 311.91 555.3C315.44 553.32 318.41 551.47 321.04 549.19C326.84 544.18 330.56 537.48 333.84 530.64C334.83 528.56 334.84 525.87 334.77 523.47C334.67 520.46 333.78 517.46 333.76 514.45C333.76 513.41 335.25 511.58 336.23 511.45C340.19 510.93 342.12 508.02 344.77 505.66C349.84 501.14 355.45 497.21 360.95 493.19C366.84 488.88 373.43 486.07 380.44 483.93C387.93 481.64 395.24 478.74 402.48 475.73C404.13 475.05 405.46 473.59 406.93 472.15C407.66 471.44 408.9 471.38 409.7 472.01C414.08 475.47 416.97 480.47 418.45 486.76C421.47 499.65 417.3 510.53 409.82 520.48C403.03 529.52 395.79 538.22 388.71 547.04C384.38 552.44 378.49 555.64 372.34 558.47C370.62 559.27 368.81 560.21 367.52 561.56C358.55 570.91 350.88 581.3 343.55 591.95C341.6 594.78 341.68 595.74 345.01 596.81C349.15 598.15 353.48 599.06 357.79 599.66C365.19 600.68 372.47 600.16 379.14 596.31C384.19 593.4 387.55 589.29 388.13 583.28C388.15 582.97 388.23 582.67 388.22 582.36C388.05 576.74 390.09 573.33 396.3 572.64C401.01 572.11 404.17 568.44 406.87 564.82C414.67 554.37 422.12 543.67 430.06 533.34C436.27 525.26 442.93 517.54 449.53 509.79C453.9 504.68 458.42 499.69 463.06 494.83C467.57 490.11 467.53 485.13 465.19 479.39C462.08 471.77 459.52 463.92 456.69 456.18C454.18 449.31 457 443.32 461.72 439.36C473.71 429.3 480.9 415.68 490.11 403.56C490.83 402.61 491.37 401.52 492.12 400.54" id="aJ0LthmrH"></path><path d="M177.14 126.04C174.8 129.13 156.03 153.82 153.68 156.91C146.73 166.06 150.23 180.43 161.51 189C172.79 197.57 187.57 197.1 194.53 187.95C196.87 184.86 215.64 160.17 217.99 157.08C224.94 147.93 221.44 133.56 210.16 124.99C198.88 116.42 184.1 116.89 177.14 126.04Z" id="aaNTEe9QK"></path><path d="M194.53 187.95C195.07 187.24 197.8 183.66 202.7 177.21C173.29 165.03 156.95 158.27 153.68 156.91C146.73 166.07 150.23 180.43 161.51 189C172.79 197.58 187.58 197.1 194.53 187.95Z" id="dO9J9dv8"></path><path d="M159.09 165C156.79 165 154.93 166.87 154.93 169.16C154.93 171.46 156.79 173.32 159.09 173.32C161.39 173.32 163.25 171.46 163.25 169.16C163.25 166.87 161.39 165 159.09 165Z" id="bd0o1A3ZW"></path><path d="M195.98 121.14C199.48 119.42 200.93 115.18 199.2 111.68C198.35 112.09 194.13 114.18 186.52 117.93C190.49 121.22 193.65 122.29 195.98 121.14Z" id="aTEQE7uDu"></path><path d="M122.73 420.12C126.27 425.31 126.01 425.56 131.14 421.77C138.61 416.25 142.53 408.34 145.51 399.88C145.83 398.95 145.69 397.52 145.17 396.7C143.52 394.13 132.71 378.84 130.28 372.95C129.89 373.76 123.76 383.61 109.94 382.47C110.55 400.36 115.07 408.89 122.73 420.12Z" id="aBhsjvchp"></path><path d="M300.97 550.91C300.95 558.31 300.52 558.37 308.03 558.11C318.96 557.74 328.03 552.68 336.55 546.44C337.48 545.76 338.31 544.28 338.35 543.14C338.46 539.55 338.15 517.5 339.72 510.17C338.8 510.7 325.08 516.24 312.42 505.93C301.1 523.7 301.02 534.91 300.97 550.91Z" id="fOMI6hCf3"></path><path d="M341.19 591.08C338.16 597.03 337.76 596.89 344.54 600.11C354.41 604.8 365.2 604.29 375.02 600.78C376.12 600.66 383.67 596.06 386.62 591.44C389.81 583.33 387.99 581.11 390.31 575.15C389.28 575.17 376.73 574.14 369.66 560.04C352.37 569.19 347.74 578.2 341.19 591.08Z" id="b34gmxVBCZ"></path><path d="M304.96 86.63C306.07 93.44 313.2 97.19 319.15 100.69C329.03 106.52 337.66 114.44 344.36 123.75C346.87 127.24 346.71 132.18 343.52 135.07C342.57 135.93 341.9 137.06 341.72 138.36C352.93 150.55 364.15 162.74 375.36 174.93C376.93 176.63 378.53 178.38 380.02 180.2C383.66 184.65 382.44 191.53 377.25 194C375.88 194.65 374.82 195.76 374.34 197.52C373.74 199.7 374.35 202.04 375.71 203.84C377.9 206.77 395.49 230.17 397.68 233.09C400.88 237.35 404.15 241.81 406.54 246.56C410.74 254.93 402.89 264.24 393.92 261.52C387.54 259.58 381.55 255.28 375.74 252.02C370.23 248.93 364.73 243.05 359.7 239.22C349.03 231.11 341.66 216.9 333.68 206.13C310.24 174.5 296.19 136.99 275.84 103.29C268.05 90.38 258.81 77.56 245.43 70.6C240.43 68 235 66.31 229.53 64.97C222.53 63.26 215.32 62.09 208.14 62.68C203.96 59.65 202.19 49.02 207.19 47.72C212.66 46.29 217.95 44.82 223.1 44.51C251.55 42.8 280.51 52.58 302.1 71.18C304.74 73.46 307.33 75.96 309.41 78.75C311.94 82.14 309.26 86.94 305.05 86.64C305.03 86.64 304.97 86.63 304.96 86.63Z" id="e5aUyPC3R"></path><path d="M213.71 57.87C214.16 56.59 214.54 55.3 214.85 53.98C215.31 52.01 217.48 48.75 216.06 47.3C214.64 45.85 210.32 46.91 208.35 47.36C205.51 48.01 202.77 49.05 200.16 50.35C197.63 51.61 195.23 53.11 192.83 54.6C191.07 55.7 189.3 56.8 187.54 57.89C184.38 59.86 181.15 61.9 178.93 64.89C175.53 69.46 175.05 75.74 176.55 81.24C177.13 83.39 178.07 85.57 179.86 86.9C180.36 87.27 180.96 87.58 181.58 87.51C182 87.46 182.38 87.25 182.75 87.03C184.73 85.89 186.76 84.71 188.23 82.95C189.44 81.5 190.21 79.73 191.15 78.08C193.66 73.71 197.46 70.25 201.19 66.86C203.22 65.02 205.36 63.11 208.02 62.43C209.12 62.14 210.3 62.07 211.28 61.49C212.55 60.73 213.21 59.26 213.71 57.87Z" id="a1KBVnUBZF"></path><path d="M178.78 50.12C178.78 50.12 177.59 66.63 186.91 75.02C196.23 83.4 207.69 85.85 212.52 80.48C217.35 75.12 213.71 63.97 204.39 55.59C195.08 47.2 183.9 51.21 178.78 50.12Z" id="cbqWMgDyQ"></path><path d="M529.98 534.99C532.01 530.15 533.72 525.16 534.87 519.69C539.79 496.17 557.99 452.95 551.44 413.12C548.19 393.33 535.31 375.85 516.61 368.59C516.02 368.36 515.42 368.18 514.79 368.08C508.6 367.04 501.78 372.49 500.78 378.69C494.17 455.07 474.65 478.74 500.91 520.9C504.25 526.28 508.05 531.45 511.52 536.77C516.12 543.83 526.72 542.76 529.98 534.99Z" id="a9L7ocKay5"></path></defs><g><g><g><use xlink:href="#a2FyxRygr2" opacity="1" fill="#b58d75" fill-opacity="1"></use><g><use xlink:href="#a2FyxRygr2" opacity="1" fill-opacity="0" stroke="#000000" stroke-width="1" stroke-opacity="0"></use></g></g><g><g><use xlink:href="#djwvaLJyr" opacity="1" fill="#414141" fill-opacity="1"></use><g><use xlink:href="#djwvaLJyr" opacity="1" fill-opacity="0" stroke="#000000" stroke-width="1" stroke-opacity="0"></use></g></g><g><use xlink:href="#aJ0LthmrH" opacity="1" fill="#b58d75" fill-opacity="1"></use><g><use xlink:href="#aJ0LthmrH" opacity="1" fill-opacity="0" stroke="#000000" stroke-width="1" stroke-opacity="0"></use></g></g><g><use xlink:href="#aaNTEe9QK" opacity="1" fill="#b58d75" fill-opacity="1"></use><g><use xlink:href="#aaNTEe9QK" opacity="1" fill-opacity="0" stroke="#000000" stroke-width="1" stroke-opacity="0"></use></g></g><g><use xlink:href="#dO9J9dv8" opacity="1" fill="#414141" fill-opacity="1"></use><g><use xlink:href="#dO9J9dv8" opacity="1" fill-opacity="0" stroke="#000000" stroke-width="1" stroke-opacity="0"></use></g></g><g><use xlink:href="#bd0o1A3ZW" opacity="1" fill="#414141" fill-opacity="1"></use><g><use xlink:href="#bd0o1A3ZW" opacity="1" fill-opacity="0" stroke="#000000" stroke-width="1" stroke-opacity="0"></use></g></g><g><use xlink:href="#aTEQE7uDu" opacity="1" fill="#414141" fill-opacity="1"></use><g><use xlink:href="#aTEQE7uDu" opacity="1" fill-opacity="0" stroke="#000000" stroke-width="1" stroke-opacity="0"></use></g></g><g><use xlink:href="#aBhsjvchp" opacity="1" fill="#414141" fill-opacity="1"></use><g><use xlink:href="#aBhsjvchp" opacity="1" fill-opacity="0" stroke="#000000" stroke-width="1" stroke-opacity="0"></use></g></g><g><use xlink:href="#fOMI6hCf3" opacity="1" fill="#414141" fill-opacity="1"></use><g><use xlink:href="#fOMI6hCf3" opacity="1" fill-opacity="0" stroke="#000000" stroke-width="1" stroke-opacity="0"></use></g></g><g><use xlink:href="#b34gmxVBCZ" opacity="1" fill="#414141" fill-opacity="1"></use><g><use xlink:href="#b34gmxVBCZ" opacity="1" fill-opacity="0" stroke="#000000" stroke-width="1" stroke-opacity="0"></use></g></g><g><use xlink:href="#e5aUyPC3R" opacity="1" fill="#886a57" fill-opacity="1"></use><g><use xlink:href="#e5aUyPC3R" opacity="1" fill-opacity="0" stroke="#000000" stroke-width="1" stroke-opacity="0"></use></g></g><g><use xlink:href="#a1KBVnUBZF" opacity="1" fill="#886a57" fill-opacity="1"></use><g><use xlink:href="#a1KBVnUBZF" opacity="1" fill-opacity="0" stroke="#000000" stroke-width="1" stroke-opacity="0"></use></g></g><g><use xlink:href="#cbqWMgDyQ" opacity="1" fill="#b58d75" fill-opacity="1"></use><g><use xlink:href="#cbqWMgDyQ" opacity="1" fill-opacity="0" stroke="#000000" stroke-width="1" stroke-opacity="0"></use></g></g><g><use xlink:href="#a9L7ocKay5" opacity="1" fill="#886a57" fill-opacity="1"></use><g><use xlink:href="#a9L7ocKay5" opacity="1" fill-opacity="0" stroke="#000000" stroke-width="1" stroke-opacity="0"></use></g></g></g></g></g></svg>