<?xml version="1.0" encoding="utf-8"?>
<!-- Generator: Adobe Illustrator 19.0.0, SVG Export Plug-In . SVG Version: 6.00 Build 0)  -->
<svg version="1.1" id="Layer_1" xmlns="http://www.w3.org/2000/svg" xmlns:xlink="http://www.w3.org/1999/xlink" x="0px" y="0px"
	 viewBox="-49 51 512 512" style="enable-background:new -49 51 512 512;" xml:space="preserve">
<style type="text/css">
	.st0{fill:#E6B09A;}
	.st1{fill:#AA315E;}
	.st2{fill:#DF3F7C;}
	.st3{fill:#FFFFFF;}
	.st4{fill:#162029;}
	.st5{fill:#782141;}
	.st6{fill:#52DDDC;}
	.st7{fill:#000004;}
	.st8{fill:#F0BCA6;}
	.st9{fill:#F4A32C;}
	.st10{fill:#E89528;}
	.st11{fill:#F7E7A1;}
	.st12{fill:#EAD786;}
	.st13{fill:#F4D44E;}
	.st14{fill:#E8C842;}
	.st15{fill:#0DF74E;}
</style>
<circle class="st0" cx="212" cy="435" r="127.4"/>
<path class="st1" d="M322.1,243.2c10.8-18.6,17-40.2,17.2-63.2c0.5-70.2-55.8-128-125.6-129c-71.9-0.9-130.2,57.9-129.1,130.1
	c1.1,70,58.6,126.4,128.3,125.9c20.3-0.2,39.5-5.1,56.5-13.8l33.8-0.1c10.5,0,19.1-8.6,19-19.2L322.1,243.2z"/>
<path class="st2" d="M213.9,51c-0.1,0-0.2,0-0.3,0c-71.9-0.9-130.2,57.9-129.1,130.1c1.1,70,58.6,126.4,128.3,125.9c0.3,0,0.7,0,1,0
	L213.9,51z"/>
<circle class="st3" cx="159.5" cy="156" r="37.3"/>
<circle class="st4" cx="159.5" cy="156" r="13"/>
<path class="st1" d="M201,145.1c-6-22.9-29.5-36.6-52.4-30.6c-22.9,6-36.6,29.5-30.6,52.4L201,145.1z"/>
<circle class="st3" cx="269" cy="156" r="37.3"/>
<circle class="st4" cx="269" cy="156" r="13"/>
<path class="st5" d="M227.5,145.1c6-22.9,29.5-36.6,52.4-30.6c22.9,6,36.6,29.5,30.6,52.4L227.5,145.1z"/>
<path class="st6" d="M102.6,77.3c-13.8,13.8-13.2,36.5,1.8,49.5c12.8,11.1,31.6,11.1,44.3,0c14.9-13,15.5-35.7,1.8-49.5
	c-2.9-2.9-14.8-17.8-20.3-24.8c-1.5-1.9-4.3-1.9-5.9-0.1C118.4,59.2,106,73.9,102.6,77.3z"/>
<path class="st7" d="M268,255.7c-1.9,0-3.8-0.6-5.4-1.9l-10.8-8.6c-4.2-3.3-12.8-3.3-17.1-0.1c-10.6,8.1-27.7,8.1-38.3,0
	c-4.3-3.3-12.9-3.2-17.1,0.1l-10.8,8.6c-3.8,3-9.3,2.3-12.3-1.5c-3-3.8-2.3-9.3,1.5-12.3l10.8-8.6c10.4-8.2,28-8.3,38.6-0.2
	c4.2,3.2,12.8,3.2,17,0c10.5-8.1,28.2-8,38.6,0.2l10.8,8.6c3.8,3,4.4,8.5,1.5,12.3C273.1,254.5,270.6,255.7,268,255.7z"/>
<path class="st4" d="M213.9,233.6c-2.7-0.2-5.2-1-7-2.4c-10.5-8.1-28.2-8-38.6,0.2l-10.8,8.6c-3.8,3-4.5,8.5-1.5,12.3
	c3,3.8,8.5,4.4,12.3,1.5l10.8-8.6c4.2-3.3,12.8-3.3,17.1-0.1c4.9,3.7,11.2,5.7,17.6,6L213.9,233.6z"/>
<path class="st7" d="M213.9,528c-12.6,0-24.7-4.7-34-13.2c-4.1-3.8-4.4-10.2-0.6-14.3c3.8-4.1,10.2-4.4,14.3-0.6
	c5.6,5.1,12.8,7.9,20.3,7.9h0.1c7.6,0,14.8-2.9,20.4-8c4.1-3.8,10.5-3.6,14.3,0.5c3.8,4.1,3.6,10.5-0.5,14.3
	c-9.3,8.6-21.4,13.4-34.1,13.4C214,528,213.9,528,213.9,528z"/>
<path class="st8" d="M213.9,307c-0.1,0-0.2,0-0.3,0c-71.9-0.9-130.2,57.9-129.1,130.1c1.1,70,58.6,126.4,128.3,125.9
	c0.3,0,0.7,0,1,0L213.9,307z"/>
<circle class="st3" cx="159.5" cy="412" r="37.3"/>
<path class="st4" d="M179.8,500.3c3.8-4.1,10.2-4.3,14.3-0.5c5.6,5.1,12.8,8,20.4,8h0V528h-0.1c-12.7,0-24.8-4.8-34.1-13.4
	C176.3,510.8,176,504.4,179.8,500.3z"/>
<circle class="st4" cx="159.5" cy="412" r="13"/>
<circle class="st3" cx="268.9" cy="412" r="37.3"/>
<circle class="st4" cx="268.9" cy="412" r="13"/>
<path id="SVGCleanerId_0" class="st9" d="M160.6,346.4c-2.7-0.5-5.3-1.1-7.7-2c-17.8-6-27.9-20.5-31.2-39.3c-0.3-1.8-2.9-1.8-3.2,0
	c-3.8,21.8-16.7,37.2-38.8,41.3c-1.8,0.3-1.8,2.9,0,3.2c21.9,4,34.9,19.4,38.8,41c0.2,1.4,1.7,1.4,1.6,1.3c0.8,0,1.5-0.6,1.6-1.3
	c2-11.1,7.4-26.3,22.5-35.1c4.8-2.8,10.3-4.8,16.4-5.9c0.8-0.1,1.3-0.8,1.3-1.6C161.9,347.2,161.4,346.5,160.6,346.4z"/>
<g>
	<path id="SVGCleanerId_0_1_" class="st9" d="M160.6,346.4c-2.7-0.5-5.3-1.1-7.7-2c-17.8-6-27.9-20.5-31.2-39.3
		c-0.3-1.8-2.9-1.8-3.2,0c-3.8,21.8-16.7,37.2-38.8,41.3c-1.8,0.3-1.8,2.9,0,3.2c21.9,4,34.9,19.4,38.8,41c0.2,1.4,1.7,1.4,1.6,1.3
		c0.8,0,1.5-0.6,1.6-1.3c2-11.1,7.4-26.3,22.5-35.1c4.8-2.8,10.3-4.8,16.4-5.9c0.8-0.1,1.3-0.8,1.3-1.6
		C161.9,347.2,161.4,346.5,160.6,346.4z"/>
</g>
<path class="st10" d="M96.7,340.1c-5.2,3.2-10.9,5.2-16.9,6.3c-1.8,0.3-1.8,2.9,0,3.2c21.9,4,34.9,19.4,38.8,41
	c0.2,1.4,1.7,1.4,1.6,1.3c0.8,0,1.5-0.6,1.6-1.3c1.1-6.2,3.2-13.6,7.5-20.4C123.5,354.1,112.4,344,96.7,340.1z"/>
<path class="st11" d="M89.5,388.4c-6.3-2.1-10.5-6.8-12.5-13.3c-0.4-1.2-1.6-1.2-1.5-1.1c-0.7,0-1.3,0.5-1.5,1.1
	c-2,6.3-6.1,11.1-12.5,13.3c-1.5,0.5-1.5,2.6,0,3.1c6.4,2.2,10.5,6.9,12.5,13.3c0.4,1.2,1.6,1.2,1.5,1.1c0.7,0,1.3-0.5,1.5-1.1
	c1.5-4.7,4-8.4,7.7-10.9c0,0,0,0,0,0c4-2.7,5.9-1.9,5.9-3.9C90.6,389.2,90.2,388.6,89.5,388.4z"/>
<path class="st12" d="M67.9,384.9c0,0-0.1,0-0.1-0.1c-1.9,1.6-4,2.8-6.3,3.6c-1.5,0.5-1.5,2.6,0,3.1c6.4,2.2,10.5,6.9,12.5,13.3
	c0.4,1.2,1.6,1.2,1.5,1.1c2.3,0,1.1-2.7,4.9-7.8C78.3,391.7,74.1,387,67.9,384.9z"/>
<path class="st13" d="M67.8,314.5c-6.3-2.1-10.5-6.8-12.5-13.3c-0.4-1.2-1.6-1.2-1.5-1.1c-0.7,0-1.3,0.5-1.5,1.1
	c-2,6.3-6.1,11.1-12.5,13.3c-1.5,0.5-1.5,2.6,0,3.1c6.4,2.2,10.5,7,12.5,13.3c0.4,1.2,1.6,1.2,1.5,1.1c0.7,0,1.3-0.5,1.5-1.1
	c2.4-7.8,7.3-10.5,7.7-10.9c4-2.7,5.9-1.9,5.9-3.9C68.9,315.4,68.5,314.7,67.8,314.5z"/>
<path class="st14" d="M45.6,311.4c-4.5,3.6-6.9,2.6-6.9,4.7c0,0.7,0.4,1.3,1.1,1.5c6.4,2.2,10.5,7,12.5,13.3
	c0.4,1.2,1.6,1.2,1.5,1.1c2.2,0,1.1-2.5,4.6-7.4C54.8,313.7,46.4,311.9,45.6,311.4z"/>
<g>
	<path class="st15" d="M366.4,411.6l65.2-19.6c1.6-0.5,2.8-1.4,3.6-2.9c0.8-1.4,0.9-3,0.4-4.6c-0.5-1.6-1.4-2.8-2.9-3.6l-21.2-11.4
		l10-18.5c21.2-39.4,23.1-69.5,5.6-90.4c-5.8-6.9-14.2-13.3-25.2-19.2c-9.2-4.9-23.5-8.1-43-9.6c-0.5,0-1.3-0.1-2.5-0.2
		c-1.2-0.1-2.2-0.2-3.1-0.2c-0.9-0.1-1.7,0-2.4,0.1c-1.3,0.2-2.2,0.7-2.7,1.6c-0.4,0.8-0.5,1.6-0.2,2.4c0.3,0.8,0.9,1.4,1.7,1.8
		c0.5,0.3,1.3,0.6,2.3,1c1,0.4,1.7,0.7,2.1,0.8c3.9,1.7,7.4,3.4,10.4,5.1c5.6,3,10.3,6.2,14.2,9.5c3.9,3.3,7,6.7,9.3,10.2
		c2.3,3.4,3.9,7.2,4.8,11.1c0.9,4,1.2,7.9,1.1,11.8c-0.2,3.9-1,8.2-2.4,12.9c-1.4,4.7-3.1,9.3-5.1,13.7s-4.4,9.4-7.3,14.8l-10,18.5
		L348,335.4c-1.4-0.8-3-0.9-4.6-0.4c-1.6,0.5-2.8,1.4-3.6,2.9c-0.8,1.4-0.9,3-0.4,4.6l19.6,65.2c0.5,1.6,1.4,2.8,2.9,3.6
		C363.3,412,364.8,412.1,366.4,411.6z"/>
</g>
</svg>
