<?xml version="1.0" encoding="iso-8859-1"?>
<!-- Generator: Adobe Illustrator 19.0.0, SVG Export Plug-In . SVG Version: 6.00 Build 0)  -->
<svg version="1.1" id="Layer_1" xmlns="http://www.w3.org/2000/svg" xmlns:xlink="http://www.w3.org/1999/xlink" x="0px" y="0px"
	 viewBox="0 0 512.001 512.001" style="enable-background:new 0 0 512.001 512.001;" xml:space="preserve">
<path style="fill:#AA315E;" d="M476.34,384.373c21.522-37.236,34.025-80.386,34.361-126.454
	c1.021-140.356-111.64-256.057-251.28-257.897C115.695-1.869-1.016,115.844,1.327,260.255
	C3.6,400.292,118.597,513.047,257.942,511.993c40.643-0.307,78.979-10.235,112.963-27.536l67.512-0.147
	c21.064-0.046,38.103-17.245,38.056-38.416L476.34,384.373z"/>
<path style="fill:#DF3F7C;" d="M259.954,0.031c-0.177-0.002-0.355-0.005-0.533-0.007C115.695-1.869-1.016,115.844,1.327,260.255
	C3.6,400.292,118.597,513.047,257.942,511.993c0.673-0.005,1.345-0.013,2.017-0.023L259.954,0.031z"/>
<circle style="fill:#FFFFFF;" cx="151.14" cy="209.976" r="74.588"/>
<circle style="fill:#162029;" cx="151.14" cy="209.976" r="26.022"/>
<path style="fill:#AA315E;" d="M234.086,188.17c-12.043-45.808-58.939-73.18-104.746-61.138s-73.18,58.938-61.138,104.746
	L234.086,188.17z"/>
<circle style="fill:#FFFFFF;" cx="369.991" cy="209.976" r="74.588"/>
<circle style="fill:#162029;" cx="369.991" cy="209.976" r="26.022"/>
<path style="fill:#782141;" d="M287.051,188.17c12.043-45.808,58.939-73.18,104.746-61.138s73.18,58.938,61.138,104.746
	L287.051,188.17z"/>
<path style="fill:#52DDDC;" d="M37.34,52.5c-27.551,27.551-26.382,72.948,3.509,98.985c25.538,22.245,63.149,22.246,88.688,0.002
	c29.894-26.036,31.064-71.435,3.513-98.988c-5.866-5.865-29.558-35.59-40.657-49.604c-2.998-3.784-8.698-3.875-11.815-0.188
	C68.961,16.456,44.012,45.828,37.34,52.5z"/>
<path style="fill:#000004;" d="M368.023,409.329c-3.798,0-7.621-1.229-10.835-3.763l-21.696-17.109
	c-8.382-6.608-25.648-6.674-34.213-0.13c-21.114,16.132-55.47,16.132-76.585,0c-8.565-6.543-25.831-6.477-34.212,0.131
	l-21.698,17.109c-7.596,5.989-18.612,4.689-24.602-2.909c-5.99-7.597-4.688-18.612,2.909-24.602l21.697-17.109
	c20.745-16.359,56.087-16.57,77.175-0.459c8.432,6.442,25.613,6.442,34.045,0c21.088-16.111,56.427-15.901,77.175,0.459
	l21.697,17.109c7.597,5.99,8.899,17.005,2.908,24.602C378.332,407.042,373.202,409.329,368.023,409.329z"/>
<path style="fill:#162029;" d="M259.957,365.189c-5.345-0.425-10.444-1.989-13.994-4.701c-21.088-16.111-56.43-15.9-77.175,0.459
	l-21.697,17.109c-7.597,5.99-8.9,17.006-2.909,24.602c5.991,7.598,17.006,8.899,24.602,2.909l21.698-17.109
	c8.38-6.608,25.647-6.674,34.212-0.131c9.789,7.48,22.424,11.484,35.265,12.027L259.957,365.189z"/>
<g>
</g>
<g>
</g>
<g>
</g>
<g>
</g>
<g>
</g>
<g>
</g>
<g>
</g>
<g>
</g>
<g>
</g>
<g>
</g>
<g>
</g>
<g>
</g>
<g>
</g>
<g>
</g>
<g>
</g>
</svg>
