<?xml version="1.0" encoding="UTF-8" standalone="no"?>
<!DOCTYPE svg PUBLIC "-//W3C//DTD SVG 1.1//EN" "http://www.w3.org/Graphics/SVG/1.1/DTD/svg11.dtd">
<svg version="1.1" xmlns="http://www.w3.org/2000/svg" xmlns:xlink="http://www.w3.org/1999/xlink" preserveAspectRatio="xMidYMid meet" viewBox="0 0 640 640" width="640" height="640"><defs><path d="M5.93 329.32C5.93 158.45 145.73 18.64 316.61 18.64C487.48 18.64 627.29 158.45 627.29 329.32C627.29 500.19 487.48 640 316.61 640C145.73 640 5.93 500.19 5.93 329.32Z" id="a7zetdG5A"></path><path d="M316.61 19.68C155.89 19.68 25.6 149.96 25.6 310.68C25.6 471.4 155.89 601.68 316.61 601.68C477.32 601.68 607.61 471.4 607.61 310.68C607.61 149.96 477.32 19.68 316.61 19.68Z" id="ah0A9gc8Q"></path><path d="M350.78 54.89C422.24 54.89 487.48 80.78 538.22 123.24C485.41 60.06 405.67 19.68 316.61 19.68C156.09 19.68 25.6 150.16 25.6 310.68C25.6 399.74 65.99 479.48 129.16 533.33C85.67 482.59 59.78 417.35 59.78 345.89C59.78 185.37 190.26 54.89 350.78 54.89Z" id="e3dk6JzkqN"></path><path d="M522.69 105.63C636.61 219.55 636.61 403.88 522.69 517.8C408.77 631.72 224.44 631.72 110.52 517.8" id="g4kWY8xUqW"></path><path d="M341.99 1.03L354.48 2.31L366.83 4.09L379.01 6.34L391.03 9.07L402.88 12.26L414.53 15.91L425.99 19.99L437.24 24.51L448.27 29.46L459.07 34.81L469.63 40.57L479.94 46.72L490 53.25L499.78 60.15L509.29 67.41L518.5 75.02L527.42 82.98L536.02 91.26L544.31 99.87L552.26 108.78L559.88 118L567.14 127.5L574.04 137.29L580.57 147.34L586.72 157.66L592.47 168.22L597.83 179.02L602.77 190.05L607.29 201.3L611.38 212.75L615.02 224.41L618.22 236.25L620.94 248.27L623.2 260.46L624.97 272.8L626.25 285.3L627.02 297.92L627.29 310.68L627.02 323.44L626.25 336.06L624.97 348.56L623.2 360.9L620.94 373.09L618.22 385.11L615.02 396.95L611.38 408.61L607.29 420.06L602.77 431.31L597.83 442.34L592.47 453.14L586.72 463.7L580.57 474.02L574.04 484.07L567.14 493.86L559.88 503.36L552.26 512.58L544.31 521.49L536.02 530.1L527.42 538.38L518.5 546.34L509.29 553.95L499.78 561.21L490 568.11L479.94 574.64L469.63 580.79L459.07 586.55L448.27 591.9L437.24 596.84L425.99 601.36L414.53 605.45L402.88 609.1L391.03 612.29L379.01 615.02L366.83 617.27L354.48 619.05L341.99 620.32L329.36 621.1L316.61 621.36L303.85 621.1L291.22 620.32L278.73 619.05L266.38 617.27L254.2 615.02L242.18 612.29L230.33 609.1L218.68 605.45L207.22 601.36L195.97 596.84L184.94 591.9L174.14 586.55L163.58 580.79L153.27 574.64L143.21 568.11L133.43 561.21L123.92 553.95L114.71 546.34L105.79 538.38L97.19 530.1L88.9 521.49L80.95 512.58L73.34 503.36L66.07 493.86L59.17 484.07L52.64 474.02L46.49 463.7L40.74 453.14L35.38 442.34L30.44 431.31L25.92 420.06L21.83 408.61L18.19 396.95L15 385.11L12.27 373.09L10.01 360.9L8.24 348.56L6.96 336.06L6.19 323.44L5.93 310.68L6.19 297.92L6.96 285.3L8.24 272.8L10.01 260.46L12.27 248.27L15 236.25L18.19 224.41L21.83 212.75L25.92 201.3L30.44 190.05L35.38 179.02L40.74 168.22L46.49 157.66L52.64 147.34L59.17 137.29L66.07 127.5L73.34 118L80.95 108.78L88.9 99.87L97.19 91.26L105.79 82.98L114.71 75.02L123.92 67.41L133.43 60.15L143.21 53.25L153.27 46.72L163.58 40.57L174.14 34.81L184.94 29.46L195.97 24.51L207.22 19.99L218.68 15.91L230.33 12.26L242.18 9.07L254.2 6.34L266.38 4.09L278.73 2.31L291.22 1.03L303.85 0.26L316.61 0L329.36 0.26L341.99 1.03ZM294.31 40.26L283.35 41.37L272.52 42.92L261.83 44.89L251.3 47.28L240.93 50.07L230.73 53.25L220.7 56.83L210.86 60.78L201.22 65.1L191.78 69.77L182.55 74.8L173.54 80.18L164.77 85.88L156.23 91.91L147.94 98.26L139.9 104.91L132.13 111.86L124.63 119.09L117.41 126.61L110.49 134.4L103.86 142.45L97.54 150.75L91.53 159.3L85.86 168.08L80.51 177.08L75.5 186.31L70.85 195.74L66.56 205.37L62.63 215.19L59.08 225.2L55.92 235.37L53.15 245.71L50.78 256.21L48.82 266.84L47.28 277.62L46.18 288.52L45.5 299.55L45.28 310.68L45.51 321.89L46.18 332.97L47.3 343.94L48.85 354.77L50.82 365.45L53.21 375.98L56 386.36L59.18 396.56L62.75 406.59L66.7 416.42L71.02 426.07L75.7 435.51L80.73 444.74L86.1 453.74L91.81 462.52L97.84 471.06L104.18 479.35L110.83 487.38L117.78 495.16L125.02 502.65L132.54 509.87L140.32 516.8L148.37 523.43L156.68 529.75L165.22 535.75L174 541.43L183.01 546.78L192.23 551.78L201.67 556.43L211.3 560.73L221.12 564.65L231.12 568.2L241.3 571.37L251.64 574.14L262.13 576.51L272.77 578.46L283.55 580L294.45 581.11L305.47 581.78L316.61 582.01L327.74 581.78L338.76 581.1L349.66 579.98L360.44 578.44L371.08 576.46L381.57 574.08L391.91 571.29L402.09 568.1L412.09 564.53L421.91 560.58L431.54 556.26L440.98 551.58L450.2 546.55L459.21 541.18L467.99 535.48L476.54 529.45L484.84 523.1L492.89 516.45L500.67 509.5L508.19 502.27L515.43 494.75L522.38 486.96L529.03 478.91L535.37 470.61L541.4 462.06L547.11 453.28L552.48 444.28L557.51 435.05L562.19 425.62L566.51 415.99L570.46 406.17L574.03 396.16L577.22 385.99L580.01 375.65L582.39 365.15L584.36 354.51L585.91 343.74L587.03 332.83L587.7 321.81L587.93 310.68L587.71 299.55L587.04 288.52L585.93 277.62L584.39 266.84L582.43 256.21L580.06 245.71L577.29 235.37L574.13 225.2L570.58 215.19L566.65 205.37L562.36 195.74L557.71 186.31L552.7 177.08L547.36 168.08L541.68 159.3L535.67 150.75L529.35 142.45L522.72 134.4L515.8 126.61L508.58 119.09L501.08 111.86L493.31 104.91L485.27 98.26L476.98 91.91L468.44 85.88L459.67 80.18L450.66 74.8L441.43 69.77L431.99 65.1L422.35 60.78L412.51 56.83L402.49 53.25L392.28 50.07L381.91 47.28L371.38 44.89L360.69 42.92L349.86 41.37L338.9 40.26L327.81 39.58L316.61 39.35L305.4 39.58L294.31 40.26Z" id="d6FQ3prbc0"></path><path d="M550.65 106.67C495.76 59.03 424.31 30.03 345.6 30.03C292.79 30.03 244.11 43.5 200.62 66.28C235.83 48.67 275.18 39.35 316.61 39.35C398.42 39.35 472.98 76.63 522.69 134.63C580.68 184.34 616.93 257.86 616.93 340.71C616.93 382.14 607.61 421.49 591.04 456.7C613.82 413.2 627.29 363.5 627.29 310.68C627.29 231.97 598.29 160.52 550.65 106.67Z" id="b5cuYI2MRO"></path><path d="M111.56 544.72C166.44 592.36 237.9 621.36 315.57 621.36C368.39 621.36 417.06 607.9 460.55 585.11C425.34 601.68 385.99 611 344.57 611C262.75 611 188.19 573.72 138.48 515.73C80.49 466.02 43.21 392.49 43.21 309.64C43.21 268.22 52.53 228.87 69.1 193.66C48.39 238.19 34.92 287.9 34.92 340.71C34.92 419.42 63.92 490.87 111.56 544.72Z" id="a2TOugP1mf"></path><path d="M165.96 414.61C153.54 385.34 150 351.65 156.2 319.73C162.41 287.8 176.6 257.65 196.99 231.94C195.22 254.11 203.2 277.16 218.27 294.01C209.41 251.45 223.6 205.34 251.97 171.64C280.35 137.94 319.36 115.77 360.15 100.7C339.76 121.98 337.1 155.68 345.08 184.05C353.06 212.43 369.91 237.26 384.98 262.97C400.05 288.69 414.24 315.29 415.13 344.55C423.11 329.48 431.98 314.4 437.3 297.56C442.62 280.71 445.28 262.97 440.85 246.12C456.81 265.63 465.67 285.14 470.11 309.97C474.54 334.8 473.65 360.52 470.99 385.34C467.45 412.83 460.35 441.21 445.28 464.26C427.55 491.75 399.17 511.26 368.13 521.9C313.16 531.66 259.06 523.68 217.39 487.32C197.88 465.15 178.37 442.1 165.96 414.61Z" id="cbwdNsjQC"></path><path d="M396.49 396.02C396.49 395.13 395.61 395.13 395.61 394.24C399.15 430.6 390.29 457.2 373.44 472.28C382.31 451 376.1 426.17 365.46 404.88C354.82 384.49 339.74 365.87 328.21 346.36C316.69 325.96 307.82 302.91 313.14 279.85C291.86 295.82 276.78 319.76 270.58 345.47C264.37 371.19 267.92 399.56 279.44 423.51C266.14 413.75 256.39 397.79 255.5 380.94C241.31 397.79 232.45 419.96 233.33 442.13C233.33 476.71 260.82 507.75 291.86 520.16C364.57 548.54 436.4 462.52 396.49 396.02Z" id="abWZDgQZI"></path></defs><g><g><g><g><use xlink:href="#a7zetdG5A" opacity="1" fill="#90aeaf" fill-opacity="1"></use><g><use xlink:href="#a7zetdG5A" opacity="1" fill-opacity="0" stroke="#000000" stroke-width="1" stroke-opacity="0"></use></g></g><g><use xlink:href="#ah0A9gc8Q" opacity="1" fill="#7d979e" fill-opacity="1"></use><g><use xlink:href="#ah0A9gc8Q" opacity="1" fill-opacity="0" stroke="#000000" stroke-width="1" stroke-opacity="0"></use></g></g><g><use xlink:href="#e3dk6JzkqN" opacity="1" fill="#688389" fill-opacity="1"></use><g><use xlink:href="#e3dk6JzkqN" opacity="1" fill-opacity="0" stroke="#000000" stroke-width="1" stroke-opacity="0"></use></g></g><g><use xlink:href="#g4kWY8xUqW" opacity="1" fill="#688389" fill-opacity="1"></use><g><use xlink:href="#g4kWY8xUqW" opacity="1" fill-opacity="0" stroke="#000000" stroke-width="1" stroke-opacity="0"></use></g></g><g><use xlink:href="#d6FQ3prbc0" opacity="1" fill="#b6cbce" fill-opacity="1"></use><g><use xlink:href="#d6FQ3prbc0" opacity="1" fill-opacity="0" stroke="#000000" stroke-width="1" stroke-opacity="0"></use></g></g><g><use xlink:href="#b5cuYI2MRO" opacity="1" fill="#a3bfc1" fill-opacity="1"></use><g><use xlink:href="#b5cuYI2MRO" opacity="1" fill-opacity="0" stroke="#000000" stroke-width="1" stroke-opacity="0"></use></g></g><g><use xlink:href="#a2TOugP1mf" opacity="1" fill="#a3bfc1" fill-opacity="1"></use><g><use xlink:href="#a2TOugP1mf" opacity="1" fill-opacity="0" stroke="#000000" stroke-width="1" stroke-opacity="0"></use></g></g></g><g><g><use xlink:href="#cbwdNsjQC" opacity="1" fill="#b6cbce" fill-opacity="1"></use><g><use xlink:href="#cbwdNsjQC" opacity="1" fill-opacity="0" stroke="#000000" stroke-width="1" stroke-opacity="0"></use></g></g><g><use xlink:href="#abWZDgQZI" opacity="1" fill="#c7e0e2" fill-opacity="1"></use><g><use xlink:href="#abWZDgQZI" opacity="1" fill-opacity="0" stroke="#000000" stroke-width="1" stroke-opacity="0"></use></g></g></g></g></g></svg>