<?xml version="1.0" encoding="iso-8859-1"?>
<!-- Generator: Adobe Illustrator 19.0.0, SVG Export Plug-In . SVG Version: 6.00 Build 0)  -->
<svg version="1.1" id="Capa_1" xmlns="http://www.w3.org/2000/svg" xmlns:xlink="http://www.w3.org/1999/xlink" x="0px" y="0px"
	 viewBox="0 0 512 512" style="enable-background:new 0 0 512 512;" xml:space="preserve">
<path style="fill:#D9D9D9;" d="M217.024,50.005h-25.903c-5.728,0-10.371,4.643-10.371,10.371v67.253h46.645V60.376
	C227.395,54.648,222.752,50.005,217.024,50.005z"/>
<path style="opacity:0.1;enable-background:new    ;" d="M211.724,50.005H191.12c-5.728,0-10.371,4.643-10.371,10.371v67.253h20.604
	V60.376C201.353,54.648,205.996,50.005,211.724,50.005z"/>
<path style="fill:#CCCCCC;" d="M484.922,117.327H88.43c-14.955,0-27.078,12.123-27.078,27.078v121.92l157.563,30.607l21.222,165.063
	h35.48l49.749-33.364l52.085,33.364h35.48l16.011-25.224l20.851,25.224H512V144.406C512,129.45,499.877,117.327,484.922,117.327z"/>
<g style="opacity:0.1;">
	<path d="M102.559,266.326v-121.92c0-14.955,12.123-27.078,27.078-27.078H88.43c-14.955,0-27.078,12.123-27.078,27.078v121.92
		H102.559z"/>
</g>
<g>
	<rect x="340.588" y="255.279" style="fill:#6D4C41;" width="36.863" height="57.422"/>
	<rect x="268.249" y="255.279" style="fill:#6D4C41;" width="36.863" height="57.422"/>
	<rect x="412.927" y="255.279" style="fill:#6D4C41;" width="36.863" height="57.422"/>
	<rect x="412.927" y="312.701" style="fill:#6D4C41;" width="36.863" height="149.294"/>
</g>
<rect x="412.927" y="312.701" style="opacity:0.1;enable-background:new    ;" width="36.863" height="51.465"/>
<path style="fill:#855C4F;" d="M465.808,292.142H227.395v41.118h238.413c6.68,0,12.094-5.415,12.094-12.094v-16.93
	C477.902,297.556,472.487,292.142,465.808,292.142z"/>
<g>
	<path style="fill:#029BE5;" d="M300.838,152.501h-28.324c-6.036,0-10.929,4.893-10.929,10.929v41.137
		c0,6.036,4.893,10.929,10.929,10.929h28.325c6.036,0,10.929-4.893,10.929-10.929V163.43
		C311.768,157.394,306.874,152.501,300.838,152.501z"/>
	<path style="fill:#029BE5;" d="M152.094,152.501h-28.325c-6.036,0-10.929,4.893-10.929,10.929v41.137
		c0,6.036,4.893,10.929,10.929,10.929h28.325c6.036,0,10.929-4.893,10.929-10.929V163.43
		C163.023,157.394,158.13,152.501,152.094,152.501z"/>
	<path style="fill:#029BE5;" d="M421.258,152.501h28.325c6.036,0,10.929,4.893,10.929,10.929v41.137
		c0,6.036-4.893,10.929-10.929,10.929h-28.325c-6.036,0-10.929-4.893-10.929-10.929V163.43
		C410.328,157.394,415.222,152.501,421.258,152.501z"/>
	<path style="fill:#029BE5;" d="M351.24,363.83h-49.414c-14.475,0-26.21,11.735-26.21,26.21v71.955H377.45V390.04
		C377.45,375.565,365.715,363.83,351.24,363.83z"/>
</g>
<path style="fill:#D9D9D9;" d="M213.058,244.504H27.078C12.124,244.504,0,256.627,0,271.583v190.412h31.334l30.017-41.725
	l35.262,41.725h46.91l34.183-49.083l31.096,49.083h31.334V271.583C240.136,256.627,228.013,244.504,213.058,244.504z"/>
<g>
	<path style="fill:#029BE5;" d="M46.25,321.916h35.448c8.238,0,14.916,6.679,14.916,14.916v125.163H31.334V336.832
		C31.334,328.595,38.012,321.916,46.25,321.916z"/>
	<path style="fill:#029BE5;" d="M193.886,321.916h-35.447c-8.238,0-14.916,6.679-14.916,14.916v125.163h65.279V336.832
		C208.803,328.595,202.125,321.916,193.886,321.916z"/>
</g>
<g style="opacity:0.1;">
	<path d="M51.509,271.583c0-14.955,12.124-27.078,27.078-27.078H27.078C12.124,244.504,0,256.627,0,271.583v190.412h51.509V271.583z
		"/>
</g>
<g>
</g>
<g>
</g>
<g>
</g>
<g>
</g>
<g>
</g>
<g>
</g>
<g>
</g>
<g>
</g>
<g>
</g>
<g>
</g>
<g>
</g>
<g>
</g>
<g>
</g>
<g>
</g>
<g>
</g>
</svg>
