<svg height="512pt" viewBox="0 0 512 512" width="512pt" xmlns="http://www.w3.org/2000/svg"><path d="m256 0c-140.699219 0-256 47.101562-256 105s115.300781 105 256 105 256-47.101562 256-105-115.300781-105-256-105zm0 150c-107.699219 0-196-20.101562-196-45 0-24.902344 88.300781-45 196-45s196 20.097656 196 45c0 24.898438-88.300781 45-196 45zm0 0" fill="#ffd400"/><path d="m512 105c0 57.898438-115.300781 105-256 105v-60c107.699219 0 196-20.101562 196-45 0-24.902344-88.300781-45-196-45v-60c140.699219 0 256 47.101562 256 105zm0 0" fill="#fdbf00"/><path d="m286 150v122h-60v-122c0-16.5 13.5-30 30-30s30 13.5 30 30zm0 0" fill="#ffe470"/><path d="m361 442.097656-105 69.902344-105-69.902344 60-32.097656 45-30 45 30zm0 0" fill="#ff4949"/><path d="m361 305.898438-60 32.101562-45 30-45-30-60-32.101562 105-69.898438zm0 0" fill="#ff4949"/><path d="m211 338.082031-60-32.109375v136.054688l60-32.109375 30-35.917969zm0 0" fill="#ff6c6c"/><path d="m301 338.082031-30 35.917969 30 35.917969 60 32.109375v-136.054688zm0 0" fill="#ff4949"/><path d="m286 272h-30v-152c16.5 0 30 13.5 30 30zm0 0" fill="#ffd400"/><path d="m256 236 105 69.898438-60 32.101562-45 30zm0 0" fill="#ff193d"/><path d="m361 442.097656-105 69.902344v-132l45 30zm0 0" fill="#ff193d"/><path d="m301 338v72l-45 30-45-30v-72l45-30zm0 0" fill="#ff8597"/><path d="m301 338v72l-45 30v-132zm0 0" fill="#ff6c6c"/></svg>