<?xml version="1.0" encoding="UTF-8" standalone="no"?>
<!DOCTYPE svg PUBLIC "-//W3C//DTD SVG 1.1//EN" "http://www.w3.org/Graphics/SVG/1.1/DTD/svg11.dtd">
<svg version="1.1" xmlns="http://www.w3.org/2000/svg" xmlns:xlink="http://www.w3.org/1999/xlink" preserveAspectRatio="xMidYMid meet" viewBox="0 0 640 640" width="640" height="640"><defs><path d="M315.38 164.61L316.77 164.71L318.13 164.86L319.45 165.04L320.75 165.26L322 165.53L323.22 165.83L324.4 166.18L325.54 166.56L326.64 166.98L327.69 167.44L328.7 167.93L329.66 168.46L330.56 169.03L331.42 169.64L332.22 170.28L332.96 170.95L333.65 171.66L334.28 172.4L334.84 173.18L335.34 173.99L335.78 174.83L336.15 175.71L336.45 176.61L336.67 177.54L336.82 178.48L336.9 179.42L336.91 180.38L336.84 181.34L336.7 182.3L336.49 183.26L336.22 184.23L335.88 185.2L335.47 186.16L335.01 187.13L334.48 188.09L333.89 189.04L333.24 189.98L332.53 190.92L331.76 191.85L330.94 192.77L330.07 193.67L329.15 194.56L328.17 195.44L327.14 196.3L326.07 197.14L324.94 197.96L323.78 198.76L322.56 199.53L321.31 200.29L320.01 201.02L318.67 201.72L317.3 202.39L315.88 203.04L314.43 203.65L312.95 204.23L311.43 204.78L309.88 205.29L308.29 205.77L306.7 206.2L305.11 206.59L303.53 206.93L301.97 207.22L300.41 207.47L298.87 207.68L297.35 207.83L295.84 207.95L294.35 208.02L292.89 208.04L291.45 208.03L290.03 207.97L288.65 207.87L287.29 207.72L285.97 207.54L284.67 207.32L283.42 207.05L282.2 206.75L281.02 206.4L279.88 206.02L278.78 205.6L277.73 205.14L276.72 204.65L275.76 204.12L274.86 203.55L274 202.94L273.2 202.3L272.46 201.63L271.77 200.92L271.14 200.17L270.58 199.4L270.07 198.59L269.64 197.74L269.27 196.87L268.97 195.96L268.74 195.04L268.59 194.1L268.52 193.15L268.51 192.2L268.58 191.24L268.72 190.28L268.92 189.31L269.2 188.35L269.54 187.38L269.94 186.41L270.41 185.45L270.94 184.49L271.53 183.54L272.18 182.59L272.89 181.66L273.65 180.73L274.47 179.81L275.35 178.91L276.27 178.02L277.25 177.14L278.28 176.28L279.35 175.44L280.47 174.62L281.64 173.82L282.85 173.05L284.11 172.29L285.41 171.56L286.74 170.86L288.12 170.19L289.54 169.54L290.99 168.93L292.47 168.35L293.99 167.8L295.54 167.29L297.12 166.81L298.72 166.38L300.31 165.99L301.88 165.65L303.45 165.36L305.01 165.11L306.55 164.9L308.07 164.75L309.58 164.63L311.07 164.56L312.53 164.54L313.97 164.55L315.38 164.61Z" id="i2m4qVUps"></path><path d="M339.49 181.67L340.51 181.8L341.51 182L342.49 182.27L343.44 182.6L344.38 182.99L345.28 183.46L346.16 183.98L346.99 184.56L347.77 185.2L348.51 185.89L349.21 186.63L349.87 187.42L350.48 188.26L351.05 189.14L351.58 190.08L352.06 191.05L352.5 192.07L352.89 193.13L353.24 194.22L353.55 195.36L353.81 196.53L354.03 197.74L354.21 198.97L354.34 200.24L354.43 201.54L354.48 202.87L354.48 204.22L354.44 205.6L354.35 207L354.22 208.42L354.05 209.86L353.83 211.32L353.57 212.8L353.26 214.29L352.91 215.8L352.52 217.31L352.08 218.84L351.6 220.38L351.07 221.92L350.5 223.47L349.88 225.03L349.22 226.59L348.52 228.14L347.77 229.7L346.98 231.26L346.15 232.81L345.27 234.34L344.37 235.83L343.45 237.29L342.5 238.71L341.53 240.1L340.54 241.44L339.53 242.75L338.49 244.01L337.45 245.24L336.38 246.42L335.3 247.56L334.21 248.65L333.11 249.7L331.99 250.71L330.87 251.67L329.74 252.58L328.6 253.44L327.46 254.26L326.32 255.02L325.17 255.74L324.02 256.4L322.87 257.02L321.73 257.58L320.58 258.08L319.44 258.54L318.31 258.93L317.19 259.27L316.07 259.56L314.96 259.78L313.87 259.95L312.78 260.06L311.71 260.11L310.66 260.09L309.62 260.02L308.61 259.88L307.61 259.68L306.63 259.42L305.67 259.09L304.74 258.69L303.83 258.23L302.96 257.71L302.13 257.13L301.35 256.49L300.6 255.8L299.91 255.06L299.25 254.27L298.64 253.43L298.07 252.54L297.54 251.61L297.06 250.64L296.62 249.62L296.23 248.56L295.88 247.46L295.57 246.33L295.31 245.16L295.09 243.95L294.91 242.71L294.78 241.44L294.69 240.15L294.64 238.82L294.64 237.47L294.68 236.09L294.77 234.69L294.9 233.27L295.07 231.82L295.29 230.36L295.55 228.89L295.86 227.39L296.21 225.89L296.6 224.37L297.04 222.84L297.52 221.3L298.05 219.76L298.62 218.21L299.24 216.65L299.9 215.1L300.6 213.54L301.35 211.98L302.14 210.43L302.97 208.88L303.85 207.35L304.75 205.85L305.67 204.39L306.62 202.97L307.59 201.58L308.58 200.24L309.59 198.93L310.63 197.67L311.67 196.45L312.74 195.26L313.82 194.13L314.91 193.03L316.01 191.98L317.12 190.98L318.25 190.02L319.38 189.1L320.52 188.24L321.66 187.43L322.8 186.66L323.95 185.94L325.1 185.28L326.25 184.67L327.39 184.11L328.54 183.6L329.68 183.15L330.81 182.75L331.93 182.41L333.05 182.13L334.16 181.9L335.25 181.74L336.34 181.63L337.4 181.58L338.46 181.59L339.49 181.67Z" id="cNWXwoeXk"></path><path d="M451.04 49.06L451.5 49.1L451.96 49.17L452.42 49.25L452.88 49.35L453.34 49.46L453.79 49.6L454.24 49.75L454.69 49.92L455.13 50.11L455.57 50.32L456 50.55L474.48 60.79L474.9 61.04L475.31 61.3L475.71 61.57L476.09 61.86L476.46 62.16L476.81 62.48L477.15 62.8L477.48 63.14L477.79 63.48L478.09 63.84L478.37 64.21L478.64 64.59L478.89 64.97L479.13 65.37L479.35 65.77L479.56 66.18L479.75 66.6L479.92 67.02L480.08 67.45L480.22 67.89L480.35 68.33L480.46 68.77L480.55 69.22L480.62 69.67L480.68 70.13L480.72 70.58L480.75 71.04L480.75 71.5L480.74 71.97L480.72 72.43L480.67 72.89L480.61 73.36L480.52 73.82L480.42 74.28L480.3 74.73L480.17 75.19L480.01 75.64L479.83 76.09L479.64 76.54L479.43 76.98L326.5 377.1L287.56 453.52L229.45 567.55L228.62 569.11L227.72 570.62L226.78 572.09L225.78 573.5L224.73 574.86L223.63 576.16L222.49 577.42L221.3 578.62L220.07 579.76L218.81 580.85L217.5 581.89L216.15 582.87L214.78 583.8L213.37 584.66L211.92 585.47L210.46 586.22L208.96 586.91L207.44 587.55L205.9 588.12L204.33 588.63L202.75 589.08L201.15 589.47L199.54 589.8L197.91 590.06L196.27 590.26L194.62 590.39L192.97 590.46L191.31 590.47L189.65 590.41L187.98 590.28L186.32 590.08L184.66 589.82L183.01 589.49L181.36 589.09L179.72 588.62L178.09 588.08L176.47 587.47L174.87 586.78L173.28 586.03L171.71 585.2L170.18 584.31L168.7 583.37L167.27 582.37L165.9 581.32L164.58 580.23L163.31 579.08L162.09 577.9L160.94 576.67L159.83 575.4L158.79 574.09L157.8 572.75L156.86 571.37L155.99 569.96L155.17 568.52L154.41 567.06L153.72 565.56L153.08 564.04L152.5 562.5L151.98 560.94L151.52 559.36L151.13 557.76L150.8 556.15L150.53 554.52L150.32 552.89L150.18 551.24L150.1 549.59L150.09 547.94L150.14 546.28L150.26 544.62L150.45 542.96L150.7 541.31L151.02 539.66L151.41 538.01L151.87 536.38L152.39 534.76L152.99 533.15L153.66 531.55L154.39 529.97L155.2 528.41L156.09 526.87L439.65 54.93L439.91 54.52L440.19 54.12L440.48 53.73L440.78 53.36L441.09 53L441.42 52.65L441.75 52.33L442.1 52.01L442.46 51.71L442.83 51.43L443.2 51.16L443.59 50.9L443.98 50.67L444.39 50.44L444.8 50.24L445.21 50.04L445.64 49.87L446.07 49.71L446.5 49.57L446.94 49.44L447.39 49.33L447.83 49.24L448.29 49.16L448.74 49.1L449.2 49.06L449.66 49.03L450.12 49.02L450.58 49.03L451.04 49.06Z" id="a3FkeqQBw"></path><path d="M444.52 83.77L445.3 83.93L446.08 84.15L446.84 84.45L447.59 84.82L448.3 85.25L448.95 85.74L449.55 86.28L450.1 86.86L450.59 87.49L451.02 88.15L451.39 88.84L451.69 89.55L451.94 90.29L452.12 91.05L452.24 91.82L452.29 92.6L452.28 93.39L452.19 94.17L452.04 94.96L451.81 95.73L451.52 96.49L451.15 97.24L442.29 113.22L441.85 113.93L441.36 114.59L440.83 115.19L440.24 115.73L439.62 116.22L438.96 116.65L438.27 117.02L437.55 117.33L436.81 117.57L436.06 117.76L435.29 117.88L434.5 117.93L433.72 117.91L432.93 117.83L432.15 117.67L431.38 117.45L430.61 117.15L429.87 116.78L429.16 116.35L428.5 115.86L427.9 115.32L427.36 114.74L426.87 114.12L426.44 113.46L426.07 112.77L425.76 112.05L425.51 111.31L425.33 110.55L425.21 109.78L425.16 109L425.18 108.22L425.26 107.43L425.41 106.65L425.64 105.87L425.94 105.11L426.31 104.36L435.17 88.38L435.6 87.67L436.09 87.02L436.63 86.41L437.21 85.87L437.83 85.38L438.49 84.95L439.18 84.58L439.9 84.27L440.64 84.03L441.4 83.84L442.17 83.73L442.95 83.67L443.73 83.69L444.52 83.77Z" id="abBbyvDgU"></path><path d="M373.44 220.28L373.79 220.32L374.14 220.36L374.5 220.42L374.85 220.49L375.2 220.58L375.55 220.68L375.89 220.8L376.24 220.93L376.58 221.07L376.91 221.24L377.25 221.41L377.57 221.6L377.89 221.8L378.19 222.01L378.49 222.23L378.77 222.47L379.04 222.71L379.3 222.96L379.55 223.22L379.78 223.49L380.01 223.76L380.22 224.05L380.43 224.34L380.62 224.64L380.79 224.94L380.96 225.25L381.11 225.57L381.25 225.89L381.38 226.22L381.5 226.55L381.6 226.88L381.69 227.22L381.77 227.56L381.83 227.91L381.88 228.26L381.92 228.61L381.95 228.96L381.96 229.31L381.95 229.66L381.94 230.02L381.91 230.37L381.86 230.73L381.8 231.08L381.73 231.43L381.64 231.78L381.54 232.13L381.42 232.48L381.29 232.82L381.15 233.16L380.99 233.5L380.81 233.83L335.4 315.75L335.21 316.08L335.01 316.4L334.8 316.7L334.58 316.99L334.34 317.27L334.1 317.55L333.85 317.81L333.59 318.05L333.32 318.29L333.05 318.52L332.76 318.73L332.47 318.93L332.17 319.12L331.87 319.3L331.56 319.47L331.24 319.62L330.92 319.76L330.59 319.89L330.26 320L329.93 320.11L329.59 320.2L329.24 320.27L328.9 320.34L328.55 320.39L328.2 320.43L327.85 320.45L327.5 320.46L327.14 320.46L326.79 320.44L326.44 320.41L326.08 320.37L325.73 320.31L325.38 320.24L325.03 320.15L324.68 320.05L324.33 319.93L323.99 319.8L323.65 319.65L323.31 319.49L322.98 319.32L322.65 319.13L322.34 318.93L322.03 318.72L321.74 318.49L321.46 318.26L321.19 318.02L320.93 317.77L320.68 317.51L320.44 317.24L320.21 316.96L320 316.68L319.8 316.39L319.61 316.09L319.43 315.78L319.27 315.47L319.11 315.16L318.97 314.84L318.84 314.51L318.73 314.18L318.62 313.84L318.53 313.5L318.46 313.16L318.39 312.82L318.34 312.47L318.3 312.12L318.28 311.77L318.27 311.42L318.27 311.06L318.29 310.71L318.32 310.35L318.36 310L318.42 309.65L318.5 309.29L318.58 308.94L318.69 308.6L318.8 308.25L318.93 307.91L319.08 307.57L319.24 307.23L319.42 306.9L364.83 224.97L365.02 224.65L365.22 224.33L365.43 224.03L365.65 223.73L365.88 223.45L366.12 223.18L366.38 222.92L366.64 222.67L366.9 222.44L367.18 222.21L367.46 222L367.76 221.79L368.05 221.6L368.36 221.43L368.67 221.26L368.99 221.11L369.31 220.97L369.63 220.84L369.97 220.72L370.3 220.62L370.64 220.53L370.98 220.45L371.33 220.39L371.67 220.34L372.02 220.3L372.38 220.28L372.73 220.26L373.08 220.27L373.44 220.28Z" id="a21yd96UWB"></path><path d="M311.48 373.73L313.04 373.87L314.61 374.07L316.16 374.32L317.72 374.63L319.26 375L320.8 375.43L322.33 375.93L323.85 376.48L325.36 377.09L286.42 453.52L284.96 452.6L283.54 451.64L282.18 450.63L280.86 449.57L279.6 448.47L278.38 447.32L277.22 446.14L276.11 444.91L275.05 443.65L274.04 442.36L273.09 441.03L272.19 439.66L271.34 438.27L270.55 436.85L269.82 435.41L269.14 433.93L268.52 432.44L267.95 430.92L267.44 429.39L266.99 427.84L266.6 426.27L266.26 424.69L265.99 423.09L265.77 421.48L265.62 419.87L265.53 418.25L265.49 416.62L265.52 414.99L265.62 413.36L265.77 411.72L265.99 410.09L266.27 408.47L266.62 406.84L267.03 405.23L267.51 403.62L268.05 402.03L268.66 400.44L269.34 398.88L270.08 397.32L270.89 395.79L271.73 394.35L272.61 392.95L273.53 391.61L274.5 390.3L275.51 389.04L276.56 387.83L277.65 386.66L278.78 385.54L279.94 384.47L281.14 383.45L282.37 382.47L283.63 381.54L284.92 380.66L286.24 379.83L287.59 379.06L288.96 378.33L290.36 377.65L291.77 377.02L293.21 376.45L294.67 375.92L296.14 375.45L297.63 375.03L299.13 374.67L300.65 374.36L302.17 374.1L303.71 373.9L305.26 373.76L306.81 373.67L308.36 373.63L309.92 373.66L311.48 373.73Z" id="axIHmqZZW"></path><path d="M311.48 373.73L313.04 373.87L314.61 374.07L316.16 374.32L317.72 374.63L319.26 375L320.8 375.43L322.33 375.93L323.85 376.48L325.36 377.09L322.14 383.42L321.11 383.52L320.08 383.65L319.06 383.8L318.04 383.97L317.02 384.17L316.02 384.39L315.01 384.64L314.02 384.91L313.03 385.21L312.05 385.52L311.07 385.87L310.11 386.23L309.15 386.62L308.2 387.03L307.26 387.47L306.33 387.92L305.41 388.4L304.5 388.9L303.61 389.43L302.72 389.98L301.85 390.55L300.99 391.14L300.15 391.75L299.31 392.39L298.49 393.04L297.69 393.72L296.9 394.42L296.13 395.14L295.37 395.88L294.63 396.65L293.91 397.43L293.2 398.23L292.51 399.06L291.84 399.9L291.19 400.77L290.56 401.65L289.94 402.56L289.35 403.49L288.78 404.43L288.23 405.4L287.67 406.45L287.13 407.5L286.63 408.57L286.17 409.64L285.73 410.72L285.33 411.81L284.95 412.9L284.61 414L284.3 415.1L284.01 416.21L283.76 417.32L283.54 418.43L283.35 419.54L283.19 420.66L283.06 421.78L282.96 422.9L282.89 424.01L282.85 425.13L282.83 426.25L282.85 427.36L282.89 428.48L282.97 429.59L283.07 430.69L283.2 431.79L283.36 432.89L283.54 433.98L283.76 435.07L284 436.15L284.27 437.23L284.57 438.29L284.89 439.35L285.24 440.4L285.62 441.44L286.02 442.47L286.46 443.49L286.91 444.5L287.4 445.5L287.91 446.49L288.44 447.46L289 448.42L286.42 453.52L284.96 452.6L283.54 451.64L282.18 450.63L280.86 449.57L279.6 448.47L278.38 447.32L277.22 446.14L276.11 444.91L275.05 443.65L274.04 442.36L273.09 441.03L272.19 439.66L271.34 438.27L270.55 436.85L269.82 435.41L269.14 433.93L268.52 432.44L267.95 430.92L267.44 429.39L266.99 427.84L266.6 426.27L266.26 424.69L265.99 423.09L265.77 421.48L265.62 419.87L265.53 418.25L265.49 416.62L265.52 414.99L265.62 413.36L265.77 411.72L265.99 410.09L266.27 408.47L266.62 406.84L267.03 405.23L267.51 403.62L268.05 402.03L268.66 400.44L269.34 398.88L270.08 397.32L270.89 395.79L271.73 394.35L272.61 392.95L273.53 391.61L274.5 390.3L275.51 389.04L276.56 387.83L277.65 386.66L278.78 385.54L279.94 384.47L281.14 383.45L282.37 382.47L283.63 381.54L284.92 380.66L286.24 379.83L287.59 379.06L288.96 378.33L290.36 377.65L291.77 377.02L293.21 376.45L294.67 375.92L296.14 375.45L297.63 375.03L299.13 374.67L300.65 374.36L302.17 374.1L303.71 373.9L305.26 373.76L306.81 373.67L308.36 373.63L309.92 373.66L311.48 373.73Z" id="g2Dz4ekTA6"></path><path d="M625.77 178.25L626.32 178.41L626.85 178.6L627.37 178.82L627.87 179.05L628.36 179.31L628.83 179.58L629.29 179.87L629.73 180.19L630.15 180.52L630.55 180.87L630.94 181.23L631.31 181.61L631.66 182.01L631.99 182.41L632.3 182.84L632.59 183.27L632.87 183.72L633.12 184.18L633.35 184.64L633.56 185.12L633.76 185.61L633.93 186.1L634.07 186.6L634.2 187.11L634.31 187.62L634.39 188.14L634.45 188.66L634.48 189.19L634.5 189.72L634.48 190.25L634.45 190.78L634.39 191.31L634.3 191.85L634.2 192.38L634.06 192.91L633.9 193.43L633.71 193.96L633.5 194.48L633.26 194.99L632.99 195.5L540.63 362.13L540.32 362.66L539.99 363.17L539.63 363.65L539.26 364.11L538.87 364.54L538.46 364.96L538.04 365.34L537.6 365.71L537.15 366.05L536.68 366.37L536.2 366.66L535.71 366.93L535.21 367.17L534.7 367.39L534.18 367.59L533.65 367.76L533.11 367.91L532.57 368.03L532.03 368.12L531.48 368.2L530.93 368.24L530.38 368.26L529.83 368.26L529.27 368.23L528.72 368.17L528.17 368.09L527.63 367.99L527.08 367.85L526.55 367.7L526.02 367.51L525.49 367.3L524.98 367.06L524.47 366.8L523.97 366.51L523.49 366.19L523.01 365.85L522.55 365.48L522.11 365.08L521.68 364.66L521.26 364.21L419.68 248.29L393.23 218.1L443.4 127.6L482.14 138.36L625.77 178.25Z" id="b2jAmoYcjs"></path><path d="M482.11 138.46L482.07 138.57L482.03 138.67L482 138.77L481.96 138.88L481.92 138.98L481.88 139.08L481.84 139.18L481.8 139.29L481.76 139.39L481.72 139.49L481.68 139.59L481.64 139.7L481.6 139.8L481.55 139.9L481.51 140L481.47 140.1L481.42 140.21L481.38 140.31L481.33 140.41L481.29 140.51L481.24 140.61L481.2 140.71L481.15 140.81L481.1 140.92L481.05 141.02L481.01 141.12L480.96 141.22L480.91 141.32L480.86 141.42L480.81 141.52L480.76 141.62L480.71 141.72L480.65 141.82L480.6 141.92L480.55 142.02L480.5 142.12L480.44 142.22L480.39 142.32L480.33 142.42L425.69 241L425.57 241.22L425.44 241.43L425.32 241.64L425.2 241.85L425.07 242.06L424.94 242.26L424.81 242.47L424.68 242.67L424.55 242.87L424.41 243.07L424.28 243.27L424.14 243.46L424 243.66L423.86 243.85L423.71 244.04L423.57 244.23L423.42 244.42L423.28 244.61L423.13 244.79L422.98 244.97L422.83 245.15L422.67 245.33L422.52 245.51L422.36 245.69L422.21 245.86L422.05 246.04L421.89 246.21L421.72 246.38L421.56 246.55L421.4 246.71L421.23 246.88L421.06 247.04L420.9 247.2L420.73 247.36L420.56 247.52L420.38 247.68L420.21 247.83L420.04 247.99L419.86 248.14L419.68 248.29L393.23 218.1L443.4 127.6L482.14 138.36L482.11 138.46Z" id="e26WhDf8AZ"></path><path d="M626.32 178.41L626.85 178.6L627.37 178.82L627.87 179.05L628.36 179.31L628.83 179.58L629.29 179.87L629.73 180.19L630.15 180.52L630.55 180.87L630.94 181.23L631.31 181.61L631.66 182.01L631.99 182.41L632.3 182.84L632.59 183.27L632.87 183.72L633.12 184.18L633.35 184.64L633.56 185.12L633.76 185.61L633.93 186.1L634.07 186.6L634.2 187.11L634.31 187.62L634.39 188.14L634.45 188.66L634.48 189.19L634.5 189.72L634.48 190.25L634.45 190.78L634.39 191.31L634.3 191.85L634.2 192.38L634.06 192.91L633.9 193.43L633.71 193.96L633.5 194.48L633.26 194.99L632.99 195.5L540.63 362.13L540.32 362.66L539.99 363.17L539.63 363.65L539.26 364.11L538.87 364.54L538.46 364.96L538.04 365.34L537.6 365.71L537.15 366.05L536.68 366.37L536.2 366.66L535.71 366.93L535.21 367.17L534.7 367.39L534.18 367.59L533.65 367.76L533.11 367.91L532.57 368.03L532.03 368.12L531.48 368.2L530.93 368.24L530.38 368.26L529.83 368.26L529.27 368.23L528.72 368.17L528.17 368.09L527.63 367.99L527.08 367.85L526.55 367.7L526.02 367.51L525.49 367.3L524.98 367.06L524.47 366.8L523.97 366.51L523.49 366.19L523.01 365.85L522.55 365.48L522.11 365.08L521.68 364.66L521.26 364.21L509.14 350.38L509.24 350.31L509.34 350.23L509.44 350.16L509.54 350.08L509.63 350L509.73 349.92L509.83 349.84L509.92 349.76L510.01 349.68L510.11 349.59L510.2 349.51L510.29 349.42L510.38 349.33L510.47 349.25L510.56 349.16L510.65 349.07L510.74 348.97L510.83 348.88L510.91 348.79L511 348.69L511.08 348.59L511.16 348.5L511.25 348.4L511.33 348.3L511.41 348.2L511.49 348.1L511.57 347.99L511.65 347.89L511.72 347.78L511.8 347.68L511.88 347.57L511.95 347.46L512.02 347.35L512.1 347.24L512.17 347.12L512.24 347.01L512.31 346.9L512.38 346.78L512.44 346.66L512.51 346.54L604.88 179.91L604.97 179.74L605.06 179.57L605.15 179.4L605.23 179.22L605.31 179.05L605.39 178.88L605.46 178.7L605.53 178.53L605.6 178.35L605.67 178.18L605.73 178L605.79 177.82L605.85 177.65L605.9 177.47L605.95 177.29L606 177.11L606.04 176.93L606.08 176.76L606.12 176.58L606.16 176.4L606.19 176.22L606.22 176.04L606.25 175.86L606.28 175.68L606.3 175.5L606.32 175.32L606.33 175.14L606.35 174.96L606.36 174.79L606.37 174.61L606.37 174.43L606.38 174.25L606.38 174.07L606.38 173.89L606.37 173.72L606.36 173.54L606.35 173.36L606.34 173.19L606.32 173.01L606.31 172.83L625.77 178.25L626.32 178.41Z" id="bs2vdPCbB"></path><path d="M349.35 80.6L350.27 80.68L351.19 80.79L352.11 80.94L353.03 81.14L353.95 81.36L354.85 81.63L355.76 81.93L356.65 82.27L357.54 82.65L358.42 83.07L359.29 83.53L407.89 110.47L360.2 196.5L311.6 169.56L310.75 169.07L309.93 168.54L309.14 167.99L308.37 167.41L307.64 166.81L306.93 166.18L306.25 165.53L305.61 164.85L304.99 164.15L304.4 163.43L303.84 162.69L303.32 161.93L302.82 161.15L302.36 160.36L301.93 159.55L301.53 158.72L301.16 157.88L300.83 157.03L300.52 156.17L300.26 155.29L300.02 154.41L299.82 153.52L299.65 152.62L299.52 151.71L299.42 150.8L299.36 149.89L299.33 148.97L299.34 148.05L299.38 147.12L299.46 146.2L299.58 145.28L299.73 144.36L299.92 143.44L300.15 142.53L300.42 141.62L300.72 140.72L301.06 139.82L301.44 138.94L301.86 138.06L302.32 137.19L326.92 92.81L327.41 91.97L327.93 91.15L328.48 90.35L329.06 89.59L329.67 88.85L330.3 88.15L330.95 87.47L331.63 86.82L332.32 86.21L333.05 85.62L333.79 85.06L334.54 84.53L335.32 84.04L336.12 83.58L336.93 83.14L337.75 82.74L338.59 82.38L339.44 82.04L340.3 81.74L341.18 81.47L342.06 81.24L342.95 81.03L343.85 80.87L344.76 80.73L345.67 80.64L346.58 80.57L347.5 80.54L348.43 80.55L349.35 80.6Z" id="b1iae1Ifr"></path><path d="M360.2 196.5L330.76 180.18L378.45 94.15L407.89 110.47L360.2 196.5Z" id="emsRBgYZh"></path><path d="M405.65 88.69L406.11 88.73L406.57 88.79L407.03 88.87L407.49 88.96L407.94 89.08L408.4 89.21L408.85 89.36L409.3 89.53L409.74 89.72L410.18 89.93L410.61 90.16L463.19 119.31L463.62 119.55L464.03 119.81L464.43 120.09L464.81 120.38L465.18 120.68L465.53 121L465.87 121.32L466.19 121.66L466.5 122.01L466.8 122.37L467.07 122.74L467.34 123.12L467.58 123.51L467.82 123.91L468.03 124.31L468.23 124.72L468.42 125.14L468.58 125.57L468.73 126L468.87 126.44L468.99 126.88L469.09 127.32L469.17 127.77L469.24 128.23L469.28 128.68L469.32 129.14L469.33 129.6L469.33 130.06L469.3 130.52L469.26 130.98L469.2 131.44L469.13 131.9L469.03 132.36L468.92 132.82L468.79 133.27L468.63 133.72L468.46 134.17L468.27 134.61L468.06 135.05L467.83 135.49L413.19 234.08L412.94 234.5L412.68 234.91L412.4 235.31L412.11 235.69L411.81 236.06L411.5 236.41L411.17 236.75L410.83 237.07L410.48 237.38L410.12 237.68L409.75 237.95L409.37 238.22L408.98 238.46L408.59 238.7L408.18 238.91L407.77 239.11L407.35 239.3L406.93 239.46L406.49 239.62L406.06 239.75L405.62 239.87L405.17 239.97L404.72 240.05L404.27 240.12L403.81 240.17L403.35 240.2L402.89 240.21L402.43 240.21L401.97 240.19L401.51 240.15L401.05 240.09L400.59 240.01L400.13 239.92L399.67 239.81L399.22 239.67L398.77 239.52L398.32 239.35L397.88 239.16L397.44 238.95L397 238.72L344.42 209.57L344 209.33L343.59 209.07L343.19 208.79L342.81 208.5L342.44 208.2L342.09 207.88L341.75 207.56L341.42 207.22L341.12 206.87L340.82 206.51L340.54 206.14L340.28 205.76L340.03 205.37L339.8 204.97L339.59 204.57L339.39 204.15L339.2 203.74L339.03 203.31L338.88 202.88L338.75 202.44L338.63 202L338.53 201.55L338.45 201.1L338.38 200.65L338.33 200.19L338.3 199.74L338.29 199.28L338.29 198.82L338.31 198.35L338.35 197.89L338.41 197.43L338.49 196.97L338.58 196.51L338.7 196.06L338.83 195.6L338.98 195.15L339.15 194.7L339.34 194.26L339.55 193.82L339.78 193.39L394.43 94.8L394.67 94.37L394.94 93.96L395.21 93.57L395.5 93.18L395.8 92.82L396.12 92.46L396.44 92.13L396.78 91.8L397.13 91.49L397.49 91.2L397.86 90.92L398.24 90.66L398.63 90.41L399.03 90.18L399.43 89.96L399.85 89.76L400.27 89.58L400.69 89.41L401.12 89.26L401.56 89.13L402 89.01L402.45 88.91L402.9 88.83L403.35 88.76L403.81 88.71L404.26 88.68L404.72 88.67L405.18 88.67L405.65 88.69Z" id="ayrDzkcTO"></path><path d="M413.18 234.08L412.94 234.5L412.68 234.91L412.4 235.31L412.11 235.69L411.81 236.06L411.49 236.41L411.17 236.75L410.83 237.08L410.48 237.39L410.12 237.68L409.75 237.96L409.37 238.22L408.98 238.47L408.59 238.7L408.18 238.92L407.77 239.12L407.35 239.3L406.92 239.47L406.49 239.62L406.06 239.75L405.62 239.87L405.17 239.97L404.72 240.05L404.27 240.12L403.81 240.17L403.35 240.2L402.89 240.22L402.43 240.21L401.97 240.19L401.51 240.15L401.05 240.09L400.59 240.01L400.13 239.92L399.67 239.81L399.22 239.67L398.77 239.52L398.32 239.35L397.88 239.16L397.44 238.95L397 238.72L344.42 209.57L344 209.33L343.59 209.07L343.19 208.79L342.81 208.5L342.44 208.2L342.09 207.88L341.75 207.56L341.42 207.22L341.12 206.87L340.82 206.51L340.54 206.14L340.28 205.76L340.03 205.37L339.8 204.97L339.59 204.57L339.39 204.16L339.2 203.74L339.03 203.31L338.88 202.88L338.75 202.44L338.63 202L338.53 201.56L338.45 201.11L338.38 200.65L338.33 200.2L338.3 199.74L338.28 199.28L338.29 198.82L338.31 198.36L338.35 197.9L338.41 197.43L338.48 196.97L338.58 196.52L338.69 196.06L338.83 195.61L338.98 195.15L339.15 194.71L339.34 194.26L339.55 193.82L339.78 193.39L347.01 180.35L431.53 200.98L413.18 234.08Z" id="d1317fcoee"></path><path d="M347.7 171.24L348.07 171.27L348.43 171.32L348.8 171.39L349.17 171.47L433.7 192.11L434.06 192.21L434.42 192.32L434.76 192.44L435.11 192.58L435.44 192.72L435.76 192.89L436.08 193.06L436.39 193.24L436.69 193.44L436.98 193.65L437.26 193.86L437.53 194.09L437.79 194.33L438.04 194.58L438.28 194.83L438.52 195.1L438.74 195.37L438.95 195.65L439.15 195.94L439.33 196.24L439.51 196.54L439.67 196.85L439.83 197.17L439.97 197.49L440.1 197.82L440.21 198.15L440.32 198.49L440.41 198.83L440.48 199.18L440.55 199.53L440.6 199.88L440.64 200.24L440.66 200.59L440.67 200.96L440.66 201.32L440.64 201.68L440.6 202.05L440.55 202.42L440.49 202.78L440.4 203.15L440.31 203.52L440.2 203.87L440.07 204.22L439.94 204.56L439.79 204.9L439.63 205.22L439.45 205.54L439.27 205.85L439.07 206.15L438.86 206.44L438.65 206.72L438.42 206.99L438.18 207.25L437.93 207.5L437.68 207.74L437.41 207.97L437.14 208.2L436.86 208.41L436.57 208.6L436.27 208.79L435.97 208.97L435.66 209.13L435.34 209.29L435.02 209.43L434.7 209.56L434.36 209.67L434.03 209.77L433.68 209.86L433.34 209.94L432.99 210.01L432.64 210.06L432.28 210.09L431.92 210.12L431.56 210.12L431.2 210.12L430.83 210.1L430.47 210.06L430.1 210.01L429.73 209.94L429.36 209.86L344.84 189.22L344.78 189.21L344.72 189.19L344.66 189.18L344.6 189.16L344.54 189.15L344.48 189.13L344.42 189.11L344.36 189.09L344.3 189.08L344.24 189.06L344.18 189.04L344.12 189.02L344.06 189L344.01 188.98L343.95 188.96L343.89 188.94L343.83 188.92L343.78 188.9L343.72 188.88L343.66 188.85L343.6 188.83L343.55 188.81L343.49 188.79L343.44 188.76L343.38 188.74L343.32 188.71L343.27 188.69L343.21 188.67L343.16 188.64L343.1 188.61L343.05 188.59L342.99 188.56L342.94 188.54L342.89 188.51L342.83 188.48L342.78 188.45L342.72 188.43L342.67 188.4L342.62 188.37L342.57 188.34L342.31 188.19L342.05 188.03L341.8 187.87L341.56 187.69L341.33 187.51L341.1 187.32L340.88 187.13L340.66 186.93L340.45 186.72L340.25 186.51L340.06 186.29L339.87 186.06L339.69 185.83L339.52 185.59L339.36 185.35L339.2 185.1L339.05 184.85L338.91 184.59L338.78 184.33L338.66 184.07L338.54 183.8L338.43 183.52L338.34 183.25L338.25 182.97L338.17 182.68L338.1 182.39L338.04 182.11L337.98 181.81L337.94 181.52L337.91 181.22L337.88 180.92L337.87 180.62L337.87 180.32L337.87 180.02L337.89 179.72L337.92 179.41L337.95 179.1L338 178.8L338.06 178.49L338.13 178.18L338.23 177.82L338.34 177.46L338.46 177.11L338.6 176.77L338.75 176.44L338.91 176.11L339.08 175.8L339.27 175.49L339.46 175.19L339.67 174.9L339.89 174.62L340.12 174.35L340.35 174.08L340.6 173.83L340.86 173.59L341.12 173.36L341.39 173.14L341.68 172.93L341.96 172.73L342.26 172.54L342.56 172.37L342.87 172.2L343.19 172.05L343.51 171.91L343.84 171.78L344.17 171.66L344.51 171.56L344.85 171.47L345.2 171.39L345.55 171.33L345.9 171.28L346.26 171.24L346.61 171.22L346.97 171.21L347.34 171.22L347.7 171.24Z" id="jsOnDyvJH"></path><path d="M444.36 177.85L370.95 137.15L386.54 109.03L459.95 149.73L444.36 177.85Z" id="b1SVPQUtZ4"></path><path d="M371.57 128.04L371.92 128.07L372.27 128.11L372.63 128.17L372.98 128.24L373.33 128.33L373.68 128.43L374.03 128.55L374.37 128.68L374.71 128.83L375.05 128.99L375.38 129.16L445.78 168.18L446.1 168.37L446.42 168.57L446.72 168.79L447.01 169.01L447.3 169.24L447.57 169.48L447.83 169.73L448.08 169.99L448.31 170.26L448.54 170.54L448.75 170.82L448.95 171.11L449.14 171.41L449.32 171.72L449.49 172.03L449.64 172.34L449.78 172.66L449.91 172.99L450.03 173.32L450.13 173.66L450.22 174L450.3 174.34L450.36 174.68L450.41 175.03L450.45 175.38L450.47 175.73L450.48 176.08L450.48 176.44L450.46 176.79L450.43 177.15L450.39 177.5L450.33 177.85L450.26 178.21L450.17 178.56L450.07 178.9L449.95 179.25L449.82 179.59L449.67 179.93L449.51 180.27L449.34 180.6L449.15 180.93L448.95 181.24L448.74 181.55L448.51 181.84L448.28 182.12L448.04 182.4L447.79 182.66L447.53 182.9L447.26 183.14L446.99 183.37L446.7 183.58L446.41 183.78L446.11 183.97L445.81 184.15L445.5 184.32L445.18 184.47L444.86 184.61L444.53 184.74L444.2 184.85L443.87 184.96L443.53 185.05L443.18 185.12L442.84 185.19L442.49 185.24L442.14 185.28L441.79 185.3L441.44 185.31L441.08 185.31L440.73 185.29L440.38 185.26L440.02 185.22L439.67 185.16L439.32 185.09L438.97 185L438.62 184.9L438.27 184.78L437.93 184.65L437.59 184.5L437.25 184.34L436.92 184.17L366.52 145.14L366.19 144.96L365.88 144.75L365.58 144.54L365.28 144.32L365 144.09L364.73 143.85L364.47 143.6L364.22 143.34L363.98 143.07L363.76 142.79L363.54 142.51L363.34 142.22L363.15 141.92L362.98 141.61L362.81 141.3L362.66 140.99L362.52 140.66L362.39 140.34L362.27 140.01L362.17 139.67L362.08 139.33L362 138.99L361.94 138.64L361.89 138.3L361.85 137.95L361.82 137.6L361.81 137.24L361.82 136.89L361.83 136.54L361.86 136.18L361.91 135.83L361.97 135.47L362.04 135.12L362.13 134.77L362.23 134.42L362.34 134.08L362.48 133.73L362.62 133.39L362.78 133.06L362.96 132.72L363.15 132.4L363.35 132.08L363.56 131.78L363.78 131.49L364.01 131.2L364.25 130.93L364.51 130.67L364.77 130.42L365.03 130.19L365.31 129.96L365.59 129.75L365.89 129.55L366.18 129.36L366.49 129.18L366.8 129.01L367.12 128.86L367.44 128.72L367.76 128.59L368.1 128.47L368.43 128.37L368.77 128.28L369.11 128.2L369.46 128.14L369.81 128.09L370.16 128.05L370.51 128.03L370.86 128.02L371.21 128.02L371.57 128.04Z" id="dSmakVMJT"></path><path d="M387.15 99.92L387.51 99.95L387.86 99.99L388.21 100.05L388.57 100.12L388.92 100.21L389.27 100.31L389.61 100.43L389.95 100.56L390.3 100.71L390.63 100.87L390.97 101.04L461.36 140.07L461.69 140.25L462 140.46L462.31 140.67L462.6 140.89L462.88 141.12L463.15 141.36L463.41 141.61L463.66 141.87L463.9 142.14L464.13 142.42L464.34 142.7L464.54 142.99L464.73 143.29L464.91 143.6L465.07 143.91L465.23 144.22L465.37 144.55L465.5 144.87L465.61 145.2L465.72 145.54L465.81 145.88L465.88 146.22L465.95 146.57L466 146.91L466.04 147.26L466.06 147.61L466.07 147.97L466.07 148.32L466.05 148.67L466.02 149.03L465.98 149.38L465.92 149.74L465.84 150.09L465.76 150.44L465.65 150.79L465.54 151.13L465.41 151.48L465.26 151.82L465.1 152.15L464.92 152.49L464.73 152.81L464.53 153.13L464.32 153.43L464.1 153.72L463.87 154.01L463.63 154.28L463.38 154.54L463.12 154.79L462.85 155.02L462.57 155.25L462.29 155.46L462 155.66L461.7 155.85L461.39 156.03L461.08 156.2L460.77 156.35L460.45 156.49L460.12 156.62L459.79 156.74L459.45 156.84L459.11 156.93L458.77 157.01L458.43 157.07L458.08 157.12L457.73 157.16L457.38 157.18L457.02 157.19L456.67 157.19L456.32 157.17L455.96 157.14L455.61 157.1L455.26 157.04L454.9 156.97L454.55 156.88L454.2 156.78L453.86 156.66L453.51 156.53L453.17 156.38L452.84 156.22L452.5 156.05L382.11 117.03L381.78 116.84L381.47 116.64L381.16 116.42L380.87 116.2L380.59 115.97L380.32 115.73L380.06 115.48L379.81 115.22L379.57 114.95L379.34 114.67L379.13 114.39L378.93 114.1L378.74 113.8L378.56 113.5L378.4 113.18L378.24 112.87L378.1 112.55L377.97 112.22L377.86 111.89L377.75 111.55L377.66 111.21L377.59 110.87L377.52 110.53L377.47 110.18L377.43 109.83L377.41 109.48L377.4 109.13L377.4 108.77L377.42 108.42L377.45 108.06L377.49 107.71L377.55 107.36L377.63 107L377.71 106.65L377.81 106.31L377.93 105.96L378.06 105.62L378.21 105.28L378.37 104.94L378.54 104.61L378.73 104.28L378.93 103.96L379.15 103.66L379.37 103.37L379.6 103.09L379.84 102.81L380.09 102.55L380.35 102.31L380.62 102.07L380.9 101.84L381.18 101.63L381.47 101.43L381.77 101.24L382.08 101.06L382.39 100.89L382.7 100.74L383.02 100.6L383.35 100.47L383.68 100.36L384.02 100.25L384.36 100.16L384.7 100.09L385.04 100.02L385.39 99.97L385.74 99.93L386.09 99.91L386.45 99.9L386.8 99.9L387.15 99.92Z" id="a25AsgEieQ"></path><path d="M492.76 166.25L493.2 166.3L493.64 166.37L494.08 166.46L494.52 166.57L547.12 181.52L547.55 181.66L547.98 181.81L548.39 181.99L548.79 182.18L549.18 182.39L549.55 182.62L549.91 182.86L550.26 183.12L550.59 183.39L550.91 183.68L551.21 183.98L551.5 184.3L551.77 184.63L552.03 184.97L552.27 185.32L552.49 185.68L552.7 186.05L552.89 186.43L553.06 186.82L553.22 187.22L553.35 187.62L553.47 188.03L553.57 188.45L553.64 188.87L553.7 189.3L553.74 189.73L553.76 190.17L553.75 190.6L553.73 191.04L553.68 191.48L553.62 191.93L553.52 192.37L553.41 192.81L553.28 193.25L553.12 193.67L552.95 194.08L552.75 194.48L552.54 194.87L552.32 195.24L552.07 195.6L551.82 195.95L551.54 196.28L551.25 196.6L550.95 196.9L550.64 197.19L550.31 197.46L549.97 197.72L549.62 197.96L549.26 198.18L548.88 198.39L548.5 198.58L548.11 198.75L547.72 198.91L547.31 199.04L546.9 199.16L546.48 199.26L546.06 199.33L545.63 199.39L545.2 199.43L544.77 199.45L544.33 199.44L543.89 199.42L543.45 199.37L543.01 199.3L542.57 199.21L542.12 199.1L489.53 184.15L489.47 184.13L489.4 184.11L489.34 184.09L489.28 184.07L489.22 184.05L489.16 184.03L489.09 184.01L489.03 183.99L488.97 183.97L488.91 183.95L488.85 183.93L488.79 183.91L488.73 183.88L488.67 183.86L488.61 183.84L488.55 183.81L488.5 183.79L488.44 183.76L488.38 183.74L488.32 183.71L488.26 183.69L488.2 183.66L488.15 183.63L488.09 183.61L488.03 183.58L487.98 183.55L487.92 183.52L487.86 183.5L487.81 183.47L487.75 183.44L487.7 183.41L487.64 183.38L487.59 183.35L487.26 183.16L486.95 182.96L486.64 182.75L486.35 182.52L486.06 182.28L485.79 182.04L485.52 181.78L485.27 181.52L485.03 181.24L484.8 180.95L484.58 180.66L484.38 180.36L484.18 180.05L484 179.73L483.83 179.41L483.68 179.08L483.54 178.74L483.41 178.4L483.29 178.06L483.19 177.7L483.1 177.35L483.03 176.99L482.97 176.62L482.93 176.25L482.9 175.88L482.89 175.51L482.89 175.14L482.9 174.76L482.94 174.38L482.99 174L483.05 173.62L483.14 173.24L483.23 172.87L483.37 172.43L483.52 172.01L483.7 171.59L483.89 171.19L484.1 170.81L484.33 170.43L484.57 170.07L484.83 169.73L485.1 169.39L485.39 169.07L485.7 168.77L486.01 168.48L486.34 168.21L486.68 167.95L487.03 167.71L487.39 167.49L487.76 167.28L488.14 167.09L488.53 166.92L488.93 166.76L489.33 166.63L489.75 166.51L490.16 166.42L490.58 166.34L491.01 166.28L491.44 166.24L491.88 166.22L492.32 166.23L492.76 166.25Z" id="a16SYtLJqf"></path><path d="M238.77 431.48L239.55 431.63L240.33 431.86L241.09 432.15L241.84 432.52L242.55 432.96L243.2 433.45L243.8 433.99L244.35 434.57L244.83 435.19L245.26 435.85L245.63 436.54L245.94 437.26L246.19 438L246.37 438.75L246.49 439.53L246.54 440.31L246.53 441.09L246.44 441.88L246.29 442.66L246.07 443.44L245.77 444.2L245.4 444.95L237.44 459.31L237 460.02L236.51 460.67L235.97 461.27L235.39 461.82L234.77 462.31L234.11 462.74L233.42 463.1L232.7 463.41L231.96 463.66L231.21 463.84L230.43 463.96L229.65 464.01L228.87 464L228.08 463.91L227.3 463.76L226.52 463.54L225.76 463.24L225.02 462.87L224.31 462.43L223.65 461.94L223.05 461.41L222.5 460.82L222.02 460.2L221.59 459.54L221.22 458.85L220.91 458.13L220.66 457.4L220.48 456.64L220.36 455.87L220.31 455.09L220.32 454.3L220.41 453.51L220.56 452.73L220.79 451.96L221.08 451.19L221.45 450.45L229.42 436.09L229.85 435.38L230.34 434.72L230.88 434.12L231.46 433.57L232.08 433.09L232.74 432.66L233.43 432.29L234.15 431.98L234.89 431.73L235.65 431.55L236.42 431.43L237.2 431.38L237.98 431.4L238.77 431.48Z" id="b2e531Ctvt"></path><path d="M220.66 467.81L221.89 468.38L222 468.44L223.13 469.18L224.12 470.06L224.96 471.05L225.64 472.14L226.16 473.3L226.51 474.53L226.68 475.79L226.68 477.08L226.5 478.36L226.13 479.63L225.56 480.86L224.82 481.99L223.94 482.98L222.95 483.82L221.86 484.5L220.69 485.02L219.47 485.37L218.2 485.54L216.92 485.54L215.64 485.36L214.37 484.99L213.14 484.42L213.03 484.36L211.9 483.62L210.91 482.74L210.07 481.75L209.39 480.66L208.87 479.49L208.52 478.27L208.34 477L208.34 475.72L208.53 474.43L208.9 473.17L209.47 471.94L210.21 470.81L211.09 469.82L212.08 468.98L213.17 468.3L214.33 467.78L215.56 467.43L216.82 467.25L218.11 467.25L219.39 467.44L220.66 467.81Z" id="c9nm30ulS7"></path><path d="M156.42 227.92L204.28 196.84L235.36 244.7L187.49 275.78L156.42 227.92Z" id="d1YPaz75D"></path><path d="M156.42 227.92L204.28 196.84L235.36 244.7L187.49 275.78L156.42 227.92Z" id="b1XVFqwEvk"></path><path d="M434.22 524.79L434.66 525.54L435.07 526.31L435.48 527.08L435.87 527.85L436.24 528.63L436.59 529.41L436.93 530.2L437.25 530.99L437.55 531.78L437.84 532.58L438.11 533.39L438.36 534.19L438.6 535L438.81 535.81L439.01 536.63L439.2 537.44L439.38 538.26L439.53 539.08L439.66 539.91L439.78 540.73L439.88 541.55L439.97 542.38L440.05 543.21L440.11 544.03L440.15 544.86L440.17 545.68L440.18 546.51L440.17 547.33L440.15 548.15L440.11 548.97L440.06 549.8L439.98 550.62L439.9 551.44L439.79 552.26L439.68 553.07L439.54 553.88L439.39 554.68L439.24 555.49L439.06 556.3L438.86 557.1L438.65 557.89L438.43 558.68L438.19 559.47L437.93 560.25L437.67 561.03L437.38 561.81L437.08 562.57L436.77 563.33L436.45 564.08L436.1 564.83L435.74 565.58L435.36 566.32L434.98 567.05L434.58 567.77L434.16 568.49L433.74 569.2L433.29 569.91L432.82 570.6L432.36 571.29L431.86 571.97L431.37 572.63L430.84 573.3L430.32 573.95L429.77 574.6L429.22 575.23L428.64 575.85L428.06 576.46L427.45 577.07L426.84 577.66L426.21 578.25L425.58 578.82L424.91 579.38L424.25 579.93L423.57 580.47L422.87 580.98L422.16 581.5L421.44 582L420.71 582.5L419.98 582.95L419.25 583.4L418.52 583.82L417.77 584.23L417.03 584.64L416.27 585.01L415.51 585.38L414.75 585.73L413.97 586.07L413.2 586.38L412.42 586.69L411.63 586.98L410.84 587.24L410.05 587.51L409.26 587.74L408.44 587.96L407.64 588.18L406.83 588.37L406.01 588.54L405.2 588.7L404.38 588.84L403.56 588.98L402.73 589.08L401.9 589.18L401.08 589.26L400.24 589.32L399.41 589.36L398.57 589.4L397.74 589.41L396.9 589.41L396.06 589.39L395.22 589.35L394.38 589.3L393.54 589.23L392.69 589.14L391.85 589.04L391.02 588.92L390.18 588.78L389.34 588.63L388.5 588.46L387.66 588.27L386.84 588.07L386.01 587.85L385.2 587.62L384.38 587.37L383.58 587.11L382.78 586.84L382 586.54L381.22 586.23L380.44 585.91L379.67 585.57L378.91 585.21L378.16 584.85L377.42 584.47L376.68 584.07L375.96 583.66L375.24 583.24L374.54 582.8L373.84 582.35L373.14 581.89L372.47 581.41L371.79 580.92L371.12 580.41L370.48 579.9L369.84 579.36L369.2 578.82L368.58 578.26L367.97 577.69L367.36 577.11L366.77 576.51L366.2 575.91L365.63 575.29L365.07 574.66L364.53 574.02L363.99 573.36L363.47 572.69L362.96 572.01L362.46 571.32L361.98 570.62L361.5 569.9L136.69 223.73L208.47 177.11L433.29 523.3L433.76 524.04L434.22 524.79Z" id="d1E0D3Z5WZ"></path><path d="M436.49 524.79L436.93 525.54L437.34 526.31L437.75 527.08L438.14 527.85L438.51 528.63L438.86 529.41L439.2 530.2L439.52 530.99L439.82 531.78L440.11 532.58L440.38 533.39L440.63 534.19L440.87 535L441.08 535.81L441.28 536.63L441.47 537.44L441.65 538.26L441.8 539.08L441.93 539.91L442.05 540.73L442.15 541.55L442.25 542.38L442.32 543.21L442.38 544.03L442.42 544.86L442.44 545.68L442.45 546.51L442.44 547.33L442.42 548.15L442.38 548.97L442.33 549.8L442.25 550.62L442.17 551.44L442.06 552.26L441.95 553.07L441.81 553.88L441.67 554.68L441.51 555.49L441.33 556.3L441.13 557.1L440.92 557.89L440.7 558.68L440.46 559.47L440.21 560.25L439.94 561.03L439.65 561.81L439.35 562.57L439.04 563.33L438.72 564.08L438.37 564.83L438.01 565.58L437.63 566.32L437.25 567.05L436.85 567.77L436.43 568.49L436.01 569.2L435.56 569.91L435.09 570.6L434.63 571.29L434.13 571.97L433.64 572.63L433.11 573.3L432.59 573.95L432.04 574.6L431.49 575.23L430.91 575.85L430.33 576.46L429.73 577.07L429.11 577.66L428.48 578.25L427.85 578.82L427.18 579.38L426.52 579.93L425.84 580.47L425.14 580.98L424.43 581.5L423.71 582L422.98 582.5L422.25 582.95L421.52 583.4L420.79 583.82L420.04 584.23L419.3 584.64L418.54 585.01L417.78 585.38L417.02 585.73L416.24 586.07L415.47 586.38L414.69 586.69L413.9 586.98L413.11 587.24L412.32 587.51L411.53 587.74L410.71 587.96L409.91 588.18L409.1 588.37L408.28 588.54L407.47 588.7L406.65 588.84L405.83 588.98L405 589.08L404.17 589.18L403.35 589.26L402.51 589.32L401.68 589.36L400.84 589.4L400.01 589.41L399.17 589.41L398.33 589.39L397.49 589.35L396.65 589.3L395.81 589.23L394.97 589.14L394.13 589.04L393.29 588.92L392.45 588.78L391.61 588.63L390.77 588.46L389.93 588.27L389.11 588.07L388.28 587.85L387.47 587.62L386.65 587.37L385.85 587.11L385.05 586.84L384.27 586.54L383.49 586.23L382.71 585.91L381.94 585.57L381.18 585.21L380.43 584.85L379.69 584.47L378.95 584.07L378.23 583.66L377.52 583.24L376.81 582.8L376.11 582.35L375.41 581.89L374.74 581.41L374.06 580.92L373.4 580.41L372.75 579.9L372.11 579.36L371.47 578.82L370.85 578.26L370.24 577.69L369.63 577.11L369.04 576.51L368.47 575.91L367.9 575.29L367.34 574.66L366.8 574.02L366.26 573.36L365.74 572.69L365.23 572.01L364.73 571.32L364.25 570.62L363.77 569.9L138.96 223.73L210.75 177.11L435.56 523.3L436.03 524.04L436.49 524.79Z" id="k3pYgFvv9d"></path><path d="M434.22 524.79L434.66 525.54L435.07 526.31L435.48 527.08L435.87 527.85L436.24 528.63L436.59 529.41L436.93 530.2L437.25 530.99L437.55 531.78L437.84 532.58L438.11 533.39L438.36 534.19L438.6 535L438.81 535.81L439.01 536.63L439.2 537.44L439.38 538.26L439.53 539.08L439.66 539.91L439.78 540.73L439.88 541.55L439.97 542.38L440.05 543.21L440.11 544.03L440.15 544.86L440.17 545.68L440.18 546.51L440.17 547.33L440.15 548.15L440.11 548.97L440.06 549.8L439.98 550.62L439.9 551.44L439.79 552.26L439.68 553.07L439.54 553.88L439.39 554.68L439.24 555.49L439.06 556.3L438.86 557.1L438.65 557.89L438.43 558.68L438.19 559.47L437.93 560.25L437.67 561.03L437.38 561.81L437.08 562.57L436.77 563.33L436.45 564.08L436.1 564.83L435.74 565.58L435.36 566.32L434.98 567.05L434.58 567.77L434.16 568.49L433.74 569.2L433.29 569.91L432.82 570.6L432.36 571.29L431.86 571.97L431.37 572.63L430.84 573.3L430.32 573.95L429.77 574.6L429.22 575.23L428.64 575.85L428.06 576.46L427.45 577.07L426.84 577.66L426.21 578.25L425.58 578.82L424.91 579.38L424.25 579.93L423.57 580.47L422.87 580.98L422.16 581.5L421.44 582L420.71 582.5L172.59 200.42L208.47 177.11L433.29 523.3L433.76 524.04L434.22 524.79Z" id="aNKxznoji"></path><path d="M436.49 524.79L436.93 525.54L437.34 526.31L437.75 527.08L438.14 527.85L438.51 528.63L438.86 529.41L439.2 530.2L439.52 530.99L439.82 531.78L440.11 532.58L440.38 533.39L440.63 534.19L440.87 535L441.08 535.81L441.28 536.63L441.47 537.44L441.65 538.26L441.8 539.08L441.93 539.91L442.05 540.73L442.15 541.55L442.25 542.38L442.32 543.21L442.38 544.03L442.42 544.86L442.44 545.68L442.45 546.51L442.44 547.33L442.42 548.15L442.38 548.97L442.33 549.8L442.25 550.62L442.17 551.44L442.06 552.26L441.95 553.07L441.81 553.88L441.67 554.68L441.51 555.49L441.33 556.3L441.13 557.1L440.92 557.89L440.7 558.68L440.46 559.47L440.21 560.25L439.94 561.03L439.65 561.81L439.35 562.57L439.04 563.33L438.72 564.08L438.37 564.83L438.01 565.58L437.63 566.32L437.25 567.05L436.85 567.77L436.43 568.49L436.01 569.2L435.56 569.91L435.09 570.6L434.63 571.29L434.13 571.97L433.64 572.63L433.11 573.3L432.59 573.95L432.04 574.6L431.49 575.23L430.91 575.85L430.33 576.46L429.73 577.07L429.11 577.66L428.48 578.25L427.85 578.82L427.18 579.38L426.52 579.93L425.84 580.47L425.14 580.98L424.43 581.5L423.71 582L422.98 582.5C418.56 575.69 395.67 540.44 354.32 476.77C312.96 413.09 253.14 320.97 174.86 200.42L210.75 177.11L435.56 523.3L436.03 524.04L436.49 524.79Z" id="bdlPUq8rP"></path><path d="M175.54 283.56L247.32 236.94L278.4 284.8L206.62 331.41L175.54 283.56Z" id="az0Sp3UlE"></path><path d="M175.54 283.56L247.32 236.94L278.4 284.8L206.62 331.41L175.54 283.56Z" id="aNKQsWGi6"></path><path d="M211.44 260.24L247.32 236.94L278.4 284.8L242.51 308.1L211.44 260.24Z" id="a15E2e5Z8g"></path><path d="M210.75 260.24L246.63 236.94L277.71 284.8L241.82 308.1L210.75 260.24Z" id="a2rFVzmqXz"></path><path d="M199.26 50.65L199.53 50.68L199.81 50.71L200.09 50.75L200.37 50.79L200.65 50.84L200.93 50.9L240.39 59.29L240.67 59.35L240.94 59.42L241.22 59.49L241.48 59.57L241.75 59.65L242.02 59.74L242.29 59.83L242.55 59.93L242.8 60.04L243.06 60.15L243.32 60.26L243.58 60.37L243.82 60.49L244.07 60.62L244.32 60.75L244.56 60.89L244.8 61.03L245.03 61.18L245.27 61.33L245.5 61.49L245.73 61.65L245.96 61.81L246.17 61.98L246.4 62.15L246.61 62.33L246.82 62.51L247.03 62.69L247.23 62.88L247.43 63.08L247.63 63.28L247.83 63.49L248.01 63.68L248.19 63.9L248.38 64.11L248.56 64.33L248.73 64.55L248.9 64.78L249.07 65.01L249.22 65.23L249.38 65.47L280.47 113.35L280.63 113.58L280.77 113.83L280.91 114.08L281.05 114.32L281.18 114.57L281.31 114.82L281.43 115.07L281.55 115.32L281.66 115.59L281.76 115.84L281.86 116.11L281.96 116.36L282.06 116.63L282.14 116.9L282.22 117.16L282.29 117.43L282.36 117.7L282.42 117.97L282.48 118.25L282.53 118.52L282.58 118.79L282.62 119.07L282.66 119.34L282.69 119.62L282.73 119.89L282.75 120.18L282.76 120.45L282.77 120.73L282.78 121.01L282.78 121.29L282.77 121.57L282.76 121.84L282.74 122.12L282.72 122.4L282.69 122.68L282.66 122.96L282.62 123.24L282.57 123.52L282.52 123.8L282.46 124.08L274.07 163.54L274.01 163.82L273.95 164.09L273.87 164.37L273.8 164.64L273.71 164.91L273.62 165.17L273.53 165.43L273.43 165.7L273.33 165.96L273.22 166.21L273.11 166.47L272.99 166.73L272.87 166.97L272.75 167.22L272.61 167.47L272.48 167.71L272.33 167.95L272.18 168.19L272.03 168.42L271.88 168.65L271.72 168.88L271.56 169.11L271.39 169.32L271.21 169.55L271.04 169.76L270.85 169.97L270.66 170.18L270.48 170.39L270.29 170.58L270.09 170.78L269.88 170.98L269.68 171.16L269.47 171.35L269.25 171.53L269.03 171.71L268.82 171.89L268.59 172.05L268.36 172.22L268.13 172.38L267.89 172.54L108.34 276.15L108.1 276.3L107.87 276.44L107.62 276.58L107.37 276.73L107.12 276.86L106.87 276.98L106.62 277.1L106.36 277.22L106.11 277.33L105.85 277.44L105.59 277.54L105.32 277.64L105.06 277.72L104.8 277.81L104.53 277.89L104.26 277.96L103.99 278.03L103.72 278.1L103.45 278.16L103.17 278.21L102.9 278.26L102.63 278.3L102.35 278.34L102.07 278.37L101.79 278.4L101.52 278.42L101.24 278.43L100.96 278.44L100.69 278.45L100.4 278.45L100.12 278.44L99.84 278.43L99.56 278.41L99.28 278.39L99 278.36L98.72 278.33L98.44 278.29L98.17 278.24L97.89 278.19L97.61 278.14L58.15 269.75L57.87 269.68L57.61 269.63L57.33 269.56L57.06 269.48L56.79 269.39L56.52 269.31L56.25 269.21L56 269.11L55.74 269.01L55.48 268.9L55.22 268.79L54.97 268.67L54.72 268.55L54.47 268.42L54.23 268.28L53.98 268.15L53.75 268L53.51 267.86L53.27 267.71L53.04 267.56L52.81 267.4L52.59 267.23L52.37 267.06L52.15 266.88L51.93 266.72L51.72 266.53L51.51 266.34L51.31 266.15L51.11 265.96L50.91 265.77L50.72 265.56L50.53 265.35L50.34 265.14L50.17 264.93L49.98 264.71L49.81 264.49L49.64 264.26L49.47 264.04L49.31 263.8L49.16 263.57L18.07 215.7L17.92 215.45L17.77 215.21L17.62 214.97L17.49 214.72L17.36 214.48L17.23 214.22L17.11 213.97L16.99 213.71L16.88 213.46L16.78 213.2L16.68 212.94L16.58 212.67L16.49 212.41L16.41 212.14L16.33 211.88L16.25 211.61L16.18 211.34L16.12 211.07L16.06 210.8L16 210.52L15.96 210.25L15.92 209.98L15.88 209.69L15.85 209.42L15.82 209.15L15.8 208.87L15.78 208.59L15.77 208.31L15.77 208.03L15.77 207.75L15.78 207.47L15.79 207.19L15.81 206.91L15.83 206.63L15.86 206.35L15.89 206.07L15.92 205.8L15.97 205.52L16.02 205.24L16.07 204.96L24.46 165.5L24.52 165.22L24.59 164.95L24.66 164.68L24.74 164.41L24.82 164.14L24.91 163.87L25.01 163.6L25.1 163.34L25.21 163.09L25.32 162.83L25.43 162.57L25.55 162.32L25.67 162.07L25.8 161.82L25.93 161.58L26.06 161.33L26.21 161.09L26.35 160.86L26.51 160.62L26.66 160.39L26.82 160.16L26.99 159.94L27.16 159.71L27.32 159.5L27.5 159.28L27.69 159.07L27.87 158.86L28.07 158.66L28.25 158.45L28.45 158.26L28.66 158.07L28.87 157.87L29.07 157.69L29.29 157.5L29.51 157.33L29.73 157.16L29.95 156.99L30.18 156.82L30.42 156.66L30.65 156.51L190.19 52.9L190.44 52.74L190.68 52.59L190.92 52.45L191.17 52.32L191.41 52.19L191.67 52.05L191.93 51.93L192.18 51.82L192.44 51.71L192.69 51.6L192.95 51.51L193.22 51.4L193.48 51.31L193.75 51.23L194.01 51.15L194.28 51.08L194.55 51.01L194.82 50.94L195.1 50.89L195.37 50.83L195.64 50.79L195.91 50.74L196.19 50.71L196.47 50.67L196.74 50.64L197.02 50.62L197.31 50.6L197.58 50.59L197.86 50.59L198.14 50.59L198.42 50.6L198.7 50.61L198.98 50.62L199.26 50.65Z" id="e14GDiYJAv"></path><path d="M199.26 50.65L199.53 50.68L199.81 50.71L200.09 50.75L200.37 50.79L200.65 50.84L200.93 50.9L240.39 59.29L240.67 59.35L240.94 59.42L241.22 59.49L241.48 59.57L241.75 59.65L242.02 59.74L242.29 59.83L242.55 59.93L242.8 60.04L243.06 60.15L243.32 60.26L243.58 60.37L243.82 60.49L244.07 60.62L244.32 60.75L244.56 60.89L244.8 61.03L245.03 61.18L245.27 61.33L245.5 61.49L245.73 61.65L245.96 61.81L246.17 61.98L246.4 62.15L246.61 62.33L246.82 62.51L247.03 62.69L247.23 62.88L247.43 63.08L247.63 63.28L247.83 63.49L248.01 63.68L248.19 63.9L248.38 64.11L248.56 64.33L248.73 64.55L248.9 64.78L249.07 65.01L249.22 65.23L249.38 65.47L280.47 113.35L280.63 113.58L280.77 113.83L280.91 114.08L281.05 114.32L281.18 114.57L281.31 114.82L281.43 115.07L281.55 115.32L281.66 115.59L281.76 115.84L281.86 116.11L281.96 116.36L282.06 116.63L282.14 116.9L282.22 117.16L282.29 117.43L282.36 117.7L282.42 117.97L282.48 118.25L282.53 118.52L282.58 118.79L282.62 119.07L282.66 119.34L282.69 119.62L282.73 119.89L282.75 120.18L282.76 120.45L282.77 120.73L282.78 121.01L282.78 121.29L282.77 121.57L282.76 121.84L282.74 122.12L282.72 122.4L282.69 122.68L282.66 122.96L282.62 123.24L282.57 123.52L282.52 123.8L282.46 124.08L274.07 163.54L274.01 163.82L273.95 164.09L273.87 164.37L273.8 164.64L273.71 164.91L273.62 165.17L273.53 165.43L273.43 165.7L273.33 165.96L273.22 166.21L273.11 166.47L272.99 166.73L272.87 166.97L272.75 167.22L272.61 167.47L272.48 167.71L272.33 167.95L272.18 168.19L272.03 168.42L271.88 168.65L271.72 168.88L271.56 169.11L271.39 169.32L271.21 169.55L271.04 169.76L270.85 169.97L270.66 170.18L270.48 170.39L270.29 170.58L270.09 170.78L269.88 170.98L269.68 171.16L269.47 171.35L269.25 171.53L269.03 171.71L268.82 171.89L268.59 172.05L268.36 172.22L268.13 172.38L267.89 172.54L108.34 276.15L108.1 276.3L107.87 276.44L107.62 276.58L107.37 276.73L107.12 276.86L106.87 276.98L106.62 277.1L106.36 277.22L106.11 277.33L105.85 277.44L105.59 277.54L105.32 277.64L105.06 277.72L104.8 277.81L104.53 277.89L104.26 277.96L103.99 278.03L103.72 278.1L103.45 278.16L103.17 278.21L102.9 278.26L102.63 278.3L102.35 278.34L102.07 278.37L101.79 278.4L101.52 278.42L101.24 278.43L100.96 278.44L100.69 278.45L100.4 278.45L100.12 278.44L99.84 278.43L99.56 278.41L99.28 278.39L99 278.36L98.72 278.33L98.44 278.29L98.17 278.24L97.89 278.19L97.61 278.14L58.15 269.75L57.87 269.68L57.61 269.63L57.33 269.56L57.06 269.48L56.79 269.39L56.52 269.31L56.25 269.21L56 269.11L55.74 269.01L55.48 268.9L55.22 268.79L54.97 268.67L54.72 268.55L54.47 268.42L54.23 268.28L53.98 268.15L53.75 268L53.51 267.86L53.27 267.71L53.04 267.56L52.81 267.4L52.59 267.23L52.37 267.06L52.15 266.88L51.93 266.72L51.72 266.53L51.51 266.34L51.31 266.15L51.11 265.96L50.91 265.77L50.72 265.56L50.53 265.35L50.34 265.14L50.17 264.93L49.98 264.71L49.81 264.49L49.64 264.26L49.47 264.04L49.31 263.8L49.16 263.57L18.07 215.7L17.92 215.45L17.77 215.21L17.62 214.97L17.49 214.72L17.36 214.48L17.23 214.22L17.11 213.97L16.99 213.71L16.88 213.46L16.78 213.2L16.68 212.94L16.58 212.67L16.49 212.41L16.41 212.14L16.33 211.88L16.25 211.61L16.18 211.34L16.12 211.07L16.06 210.8L16 210.52L15.96 210.25L15.92 209.98L15.88 209.69L15.85 209.42L15.82 209.15L15.8 208.87L15.78 208.59L15.77 208.31L15.77 208.03L15.77 207.75L15.78 207.47L15.79 207.19L15.81 206.91L15.83 206.63L15.86 206.35L15.89 206.07L15.92 205.8L15.97 205.52L16.02 205.24L16.07 204.96L24.46 165.5L24.52 165.22L24.59 164.95L24.66 164.68L24.74 164.41L24.82 164.14L24.91 163.87L25.01 163.6L25.1 163.34L25.21 163.09L25.32 162.83L25.43 162.57L25.55 162.32L25.67 162.07L25.8 161.82L25.93 161.58L26.06 161.33L26.21 161.09L26.35 160.86L26.51 160.62L26.66 160.39L26.82 160.16L26.99 159.94L27.16 159.71L27.32 159.5L27.5 159.28L27.69 159.07L27.87 158.86L28.07 158.66L28.25 158.45L28.45 158.26L28.66 158.07L28.87 157.87L29.07 157.69L29.29 157.5L29.51 157.33L29.73 157.16L29.95 156.99L30.18 156.82L30.42 156.66L30.65 156.51L190.19 52.9L190.44 52.74L190.68 52.59L190.92 52.45L191.17 52.32L191.41 52.19L191.67 52.05L191.93 51.93L192.18 51.82L192.44 51.71L192.69 51.6L192.95 51.51L193.22 51.4L193.48 51.31L193.75 51.23L194.01 51.15L194.28 51.08L194.55 51.01L194.82 50.94L195.1 50.89L195.37 50.83L195.64 50.79L195.91 50.74L196.19 50.71L196.47 50.67L196.74 50.64L197.02 50.62L197.31 50.6L197.58 50.59L197.86 50.59L198.14 50.59L198.42 50.6L198.7 50.61L198.98 50.62L199.26 50.65Z" id="b2RnA0zRFR"></path><path d="M199.26 50.65L199.53 50.68L199.81 50.71L200.09 50.75L200.37 50.79L200.65 50.84L200.93 50.9L240.39 59.29L240.67 59.35L240.94 59.42L241.22 59.49L241.48 59.57L241.75 59.65L242.02 59.74L242.29 59.83L242.55 59.93L242.8 60.04L243.06 60.14L243.32 60.26L243.58 60.37L243.82 60.49L244.07 60.62L244.32 60.75L244.56 60.89L244.8 61.03L245.03 61.18L245.27 61.33L245.5 61.49L245.73 61.65L245.96 61.81L246.17 61.98L246.4 62.15L246.61 62.33L246.82 62.51L247.03 62.69L247.23 62.88L247.43 63.08L247.63 63.28L247.83 63.48L248.01 63.68L248.2 63.89L248.38 64.11L248.56 64.33L248.73 64.54L248.91 64.77L249.07 65.01L249.23 65.23L249.38 65.47L280.47 113.35L280.63 113.58L280.78 113.83L280.92 114.08L281.05 114.32L281.18 114.57L281.32 114.82L281.44 115.07L281.55 115.32L281.66 115.59L281.76 115.84L281.86 116.11L281.96 116.36L282.06 116.63L282.14 116.89L282.22 117.16L282.29 117.43L282.36 117.7L282.43 117.98L282.48 118.24L282.54 118.51L282.58 118.79L282.63 119.07L282.66 119.34L282.69 119.62L282.73 119.89L282.75 120.18L282.77 120.45L282.78 120.73L282.78 121.01L282.78 121.29L282.77 121.56L282.76 121.84L282.74 122.12L282.72 122.4L282.69 122.68L282.66 122.96L282.62 123.24L282.57 123.52L282.52 123.8L282.47 124.08L274.08 163.54L274.02 163.81L273.95 164.09L273.88 164.36L273.8 164.64L273.72 164.91L273.63 165.17L273.53 165.43L273.44 165.7L273.33 165.96L273.22 166.21L273.11 166.47L272.99 166.73L272.88 166.98L272.75 167.22L272.62 167.47L272.48 167.71L272.34 167.95L272.19 168.19L272.04 168.42L271.88 168.65L271.72 168.88L271.56 169.11L271.39 169.32L271.22 169.55L271.04 169.76L270.85 169.97L270.67 170.18L270.48 170.39L270.29 170.58L270.09 170.78L269.88 170.98L269.68 171.16L269.47 171.35L269.26 171.53L269.03 171.71L268.82 171.89L268.59 172.05L268.36 172.22L268.13 172.38L267.89 172.54L188.11 224.34L110.43 104.7L190.19 52.89L190.44 52.73L190.68 52.59L190.92 52.45L191.17 52.31L191.41 52.18L191.67 52.05L191.93 51.93L192.18 51.82L192.44 51.71L192.69 51.6L192.96 51.5L193.22 51.4L193.48 51.31L193.75 51.23L194.01 51.15L194.29 51.07L194.55 51L194.82 50.94L195.1 50.88L195.37 50.83L195.64 50.78L195.91 50.74L196.19 50.71L196.47 50.66L196.74 50.64L197.02 50.62L197.31 50.6L197.58 50.59L197.86 50.59L198.14 50.59L198.42 50.6L198.7 50.61L198.98 50.62L199.26 50.65Z" id="fdnkQzCPT"></path><path d="M199.26 50.65L199.53 50.68L199.81 50.71L200.09 50.75L200.37 50.79L200.65 50.84L200.93 50.9L240.39 59.29L240.67 59.35L240.94 59.42L241.22 59.49L241.48 59.57L241.75 59.65L242.02 59.74L242.29 59.83L242.55 59.93L242.8 60.04L243.06 60.14L243.32 60.26L243.58 60.37L243.82 60.49L244.07 60.62L244.32 60.75L244.56 60.89L244.8 61.03L245.03 61.18L245.27 61.33L245.5 61.49L245.73 61.65L245.96 61.81L246.17 61.98L246.4 62.15L246.61 62.33L246.82 62.51L247.03 62.69L247.23 62.88L247.43 63.08L247.63 63.28L247.83 63.48L248.01 63.68L248.2 63.89L248.38 64.11L248.56 64.33L248.73 64.54L248.91 64.77L249.07 65.01L249.23 65.23L249.38 65.47L280.47 113.35L280.63 113.58L280.78 113.83L280.92 114.08L281.05 114.32L281.18 114.57L281.32 114.82L281.44 115.07L281.55 115.32L281.66 115.59L281.76 115.84L281.86 116.11L281.96 116.36L282.06 116.63L282.14 116.89L282.22 117.16L282.29 117.43L282.36 117.7L282.43 117.98L282.48 118.24L282.54 118.51L282.58 118.79L282.63 119.07L282.66 119.34L282.69 119.62L282.73 119.89L282.75 120.18L282.77 120.45L282.78 120.73L282.78 121.01L282.78 121.29L282.77 121.56L282.76 121.84L282.74 122.12L282.72 122.4L282.69 122.68L282.66 122.96L282.62 123.24L282.57 123.52L282.52 123.8L282.47 124.08L274.08 163.54L274.02 163.81L273.95 164.09L273.88 164.36L273.8 164.64L273.72 164.91L273.63 165.17L273.53 165.43L273.44 165.7L273.33 165.96L273.22 166.21L273.11 166.47L272.99 166.73L272.88 166.98L272.75 167.22L272.62 167.47L272.48 167.71L272.34 167.95L272.19 168.19L272.04 168.42L271.88 168.65L271.72 168.88L271.56 169.11L271.39 169.32L271.22 169.55L271.04 169.76L270.85 169.97L270.67 170.18L270.48 170.39L270.29 170.58L270.09 170.78L269.88 170.98L269.68 171.16L269.47 171.35L269.26 171.53L269.03 171.71L268.82 171.89L268.59 172.05L268.36 172.22L268.13 172.38L267.89 172.54L188.11 224.34L110.43 104.7L190.19 52.89L190.44 52.73L190.68 52.59L190.92 52.45L191.17 52.31L191.41 52.18L191.67 52.05L191.93 51.93L192.18 51.82L192.44 51.71L192.69 51.6L192.96 51.5L193.22 51.4L193.48 51.31L193.75 51.23L194.01 51.15L194.29 51.07L194.55 51L194.82 50.94L195.1 50.88L195.37 50.83L195.64 50.78L195.91 50.74L196.19 50.71L196.47 50.66L196.74 50.64L197.02 50.62L197.31 50.6L197.58 50.59L197.86 50.59L198.14 50.59L198.42 50.6L198.7 50.61L198.98 50.62L199.26 50.65Z" id="deW2bKl7T"></path><path d="M54.59 140.96L166.26 68.44L243.96 188.08L132.28 260.6L54.59 140.96Z" id="c19ACnjuA"></path><path d="M54.59 140.96L166.26 68.44L243.96 188.08L132.28 260.6L54.59 140.96Z" id="d4KmF8k6P6"></path><path d="M110.43 104.7L166.26 68.44L243.96 188.08L188.11 224.35L110.43 104.7Z" id="bAvJphQfy"></path><path d="M110.43 104.7L166.26 68.44L243.96 188.08L188.11 224.35L110.43 104.7Z" id="cdMjsM0CI"></path></defs><g><g><g><g><use xlink:href="#i2m4qVUps" opacity="1" fill="#e81610" fill-opacity="1"></use><g><use xlink:href="#i2m4qVUps" opacity="1" fill-opacity="0" stroke="#000000" stroke-width="1" stroke-opacity="0"></use></g></g><g><use xlink:href="#cNWXwoeXk" opacity="1" fill="#fc4830" fill-opacity="1"></use><g><use xlink:href="#cNWXwoeXk" opacity="1" fill-opacity="0" stroke="#000000" stroke-width="1" stroke-opacity="0"></use></g></g><g><use xlink:href="#a3FkeqQBw" opacity="1" fill="#a15615" fill-opacity="1"></use><g><use xlink:href="#a3FkeqQBw" opacity="1" fill-opacity="0" stroke="#000000" stroke-width="1" stroke-opacity="0"></use></g></g><g><use xlink:href="#abBbyvDgU" opacity="1" fill="#783207" fill-opacity="1"></use><g><use xlink:href="#abBbyvDgU" opacity="1" fill-opacity="0" stroke="#000000" stroke-width="1" stroke-opacity="0"></use></g></g><g><use xlink:href="#a21yd96UWB" opacity="1" fill="#783207" fill-opacity="1"></use><g><use xlink:href="#a21yd96UWB" opacity="1" fill-opacity="0" stroke="#000000" stroke-width="1" stroke-opacity="0"></use></g></g><g><use xlink:href="#axIHmqZZW" opacity="1" fill="#be7560" fill-opacity="1"></use><g><use xlink:href="#axIHmqZZW" opacity="1" fill-opacity="0" stroke="#000000" stroke-width="1" stroke-opacity="0"></use></g></g><g><use xlink:href="#g2Dz4ekTA6" opacity="1" fill="#a15615" fill-opacity="1"></use><g><use xlink:href="#g2Dz4ekTA6" opacity="1" fill-opacity="0" stroke="#000000" stroke-width="1" stroke-opacity="0"></use></g></g><g><use xlink:href="#b2jAmoYcjs" opacity="1" fill="#82807f" fill-opacity="1"></use><g><use xlink:href="#b2jAmoYcjs" opacity="1" fill-opacity="0" stroke="#000000" stroke-width="1" stroke-opacity="0"></use></g></g><g><use xlink:href="#e26WhDf8AZ" opacity="1" fill="#6d6d6d" fill-opacity="1"></use><g><use xlink:href="#e26WhDf8AZ" opacity="1" fill-opacity="0" stroke="#000000" stroke-width="1" stroke-opacity="0"></use></g></g><g><use xlink:href="#bs2vdPCbB" opacity="1" fill="#dad0cd" fill-opacity="1"></use><g><use xlink:href="#bs2vdPCbB" opacity="1" fill-opacity="0" stroke="#000000" stroke-width="1" stroke-opacity="0"></use></g></g><g><use xlink:href="#b1iae1Ifr" opacity="1" fill="#82807f" fill-opacity="1"></use><g><use xlink:href="#b1iae1Ifr" opacity="1" fill-opacity="0" stroke="#000000" stroke-width="1" stroke-opacity="0"></use></g></g><g><use xlink:href="#emsRBgYZh" opacity="1" fill="#6d6d6d" fill-opacity="1"></use><g><use xlink:href="#emsRBgYZh" opacity="1" fill-opacity="0" stroke="#000000" stroke-width="1" stroke-opacity="0"></use></g></g><g><use xlink:href="#ayrDzkcTO" opacity="1" fill="#c1bab8" fill-opacity="1"></use><g><use xlink:href="#ayrDzkcTO" opacity="1" fill-opacity="0" stroke="#000000" stroke-width="1" stroke-opacity="0"></use></g></g><g><use xlink:href="#d1317fcoee" opacity="1" fill="#b7a6a3" fill-opacity="1"></use><g><use xlink:href="#d1317fcoee" opacity="1" fill-opacity="0" stroke="#000000" stroke-width="1" stroke-opacity="0"></use></g></g><g><use xlink:href="#jsOnDyvJH" opacity="1" fill="#f1eded" fill-opacity="1"></use><g><use xlink:href="#jsOnDyvJH" opacity="1" fill-opacity="0" stroke="#000000" stroke-width="1" stroke-opacity="0"></use></g></g><g><use xlink:href="#b1SVPQUtZ4" opacity="1" fill="#f1eded" fill-opacity="1"></use><g><use xlink:href="#b1SVPQUtZ4" opacity="1" fill-opacity="0" stroke="#000000" stroke-width="1" stroke-opacity="0"></use></g></g><g><use xlink:href="#dSmakVMJT" opacity="1" fill="#b7a6a3" fill-opacity="1"></use><g><use xlink:href="#dSmakVMJT" opacity="1" fill-opacity="0" stroke="#000000" stroke-width="1" stroke-opacity="0"></use></g></g><g><use xlink:href="#a25AsgEieQ" opacity="1" fill="#b7a6a3" fill-opacity="1"></use><g><use xlink:href="#a25AsgEieQ" opacity="1" fill-opacity="0" stroke="#000000" stroke-width="1" stroke-opacity="0"></use></g></g><g><use xlink:href="#a16SYtLJqf" opacity="1" fill="#6d6d6d" fill-opacity="1"></use><g><use xlink:href="#a16SYtLJqf" opacity="1" fill-opacity="0" stroke="#000000" stroke-width="1" stroke-opacity="0"></use></g></g><g><use xlink:href="#b2e531Ctvt" opacity="1" fill="#783207" fill-opacity="1"></use><g><use xlink:href="#b2e531Ctvt" opacity="1" fill-opacity="0" stroke="#000000" stroke-width="1" stroke-opacity="0"></use></g></g><g><use xlink:href="#c9nm30ulS7" opacity="1" fill="#783207" fill-opacity="1"></use><g><use xlink:href="#c9nm30ulS7" opacity="1" fill-opacity="0" stroke="#000000" stroke-width="1" stroke-opacity="0"></use></g></g></g><g><g><use xlink:href="#d1YPaz75D" opacity="1" fill="#000000" fill-opacity="0"></use><g><use xlink:href="#d1YPaz75D" opacity="1" fill-opacity="0" stroke="#000000" stroke-width="1" stroke-opacity="0"></use></g></g><g><use xlink:href="#b1XVFqwEvk" opacity="1" fill="#000000" fill-opacity="0"></use><g><use xlink:href="#b1XVFqwEvk" opacity="1" fill-opacity="0" stroke="#000000" stroke-width="30" stroke-opacity="1"></use></g></g><g><use xlink:href="#d1E0D3Z5WZ" opacity="1" fill="#a15615" fill-opacity="1"></use><g><use xlink:href="#d1E0D3Z5WZ" opacity="1" fill-opacity="0" stroke="#000000" stroke-width="1" stroke-opacity="0"></use></g></g><g><use xlink:href="#k3pYgFvv9d" opacity="1" fill="#000000" fill-opacity="0"></use><g><use xlink:href="#k3pYgFvv9d" opacity="1" fill-opacity="0" stroke="#000000" stroke-width="1" stroke-opacity="0"></use></g></g><g><use xlink:href="#aNKxznoji" opacity="1" fill="#783207" fill-opacity="1"></use><g><use xlink:href="#aNKxznoji" opacity="1" fill-opacity="0" stroke="#000000" stroke-width="1" stroke-opacity="0"></use></g></g><g><use xlink:href="#bdlPUq8rP" opacity="1" fill="#000000" fill-opacity="0"></use><g><use xlink:href="#bdlPUq8rP" opacity="1" fill-opacity="0" stroke="#000000" stroke-width="1" stroke-opacity="0"></use></g></g><g><use xlink:href="#az0Sp3UlE" opacity="1" fill="#783207" fill-opacity="1"></use><g><use xlink:href="#az0Sp3UlE" opacity="1" fill-opacity="0" stroke="#000000" stroke-width="1" stroke-opacity="0"></use></g></g><g><use xlink:href="#aNKQsWGi6" opacity="1" fill="#000000" fill-opacity="0"></use><g><use xlink:href="#aNKQsWGi6" opacity="1" fill-opacity="0" stroke="#000000" stroke-width="1" stroke-opacity="0"></use></g></g><g><use xlink:href="#a15E2e5Z8g" opacity="1" fill="#542000" fill-opacity="1"></use><g><use xlink:href="#a15E2e5Z8g" opacity="1" fill-opacity="0" stroke="#000000" stroke-width="1" stroke-opacity="0"></use></g></g><g><use xlink:href="#a2rFVzmqXz" opacity="1" fill="#000000" fill-opacity="0"></use><g><use xlink:href="#a2rFVzmqXz" opacity="1" fill-opacity="0" stroke="#000000" stroke-width="1" stroke-opacity="0"></use></g></g><g><use xlink:href="#e14GDiYJAv" opacity="1" fill="#c9c5b1" fill-opacity="1"></use><g><use xlink:href="#e14GDiYJAv" opacity="1" fill-opacity="0" stroke="#000000" stroke-width="1" stroke-opacity="0"></use></g></g><g><use xlink:href="#b2RnA0zRFR" opacity="1" fill="#000000" fill-opacity="0"></use><g><use xlink:href="#b2RnA0zRFR" opacity="1" fill-opacity="0" stroke="#000000" stroke-width="1" stroke-opacity="0"></use></g></g><g><use xlink:href="#fdnkQzCPT" opacity="1" fill="#b0ac9b" fill-opacity="1"></use><g><use xlink:href="#fdnkQzCPT" opacity="1" fill-opacity="0" stroke="#000000" stroke-width="1" stroke-opacity="0"></use></g></g><g><use xlink:href="#deW2bKl7T" opacity="1" fill="#000000" fill-opacity="0"></use><g><use xlink:href="#deW2bKl7T" opacity="1" fill-opacity="0" stroke="#000000" stroke-width="1" stroke-opacity="0"></use></g></g><g><use xlink:href="#c19ACnjuA" opacity="1" fill="#e5e2d6" fill-opacity="1"></use><g><use xlink:href="#c19ACnjuA" opacity="1" fill-opacity="0" stroke="#000000" stroke-width="1" stroke-opacity="0"></use></g></g><g><use xlink:href="#d4KmF8k6P6" opacity="1" fill="#000000" fill-opacity="0"></use><g><use xlink:href="#d4KmF8k6P6" opacity="1" fill-opacity="0" stroke="#000000" stroke-width="1" stroke-opacity="0"></use></g></g><g><use xlink:href="#bAvJphQfy" opacity="1" fill="#c9c5b1" fill-opacity="1"></use><g><use xlink:href="#bAvJphQfy" opacity="1" fill-opacity="0" stroke="#000000" stroke-width="1" stroke-opacity="0"></use></g></g><g><use xlink:href="#cdMjsM0CI" opacity="1" fill="#000000" fill-opacity="0"></use><g><use xlink:href="#cdMjsM0CI" opacity="1" fill-opacity="0" stroke="#000000" stroke-width="1" stroke-opacity="0"></use></g></g></g></g></g></svg>