<?xml version="1.0" encoding="utf-8"?>
<!-- Generator: Adobe Illustrator 19.0.0, SVG Export Plug-In . SVG Version: 6.00 Build 0)  -->
<svg version="1.1" id="Layer_1" xmlns="http://www.w3.org/2000/svg" xmlns:xlink="http://www.w3.org/1999/xlink" x="0px" y="0px"
	 viewBox="-49 51 512 512" style="enable-background:new -49 51 512 512;" xml:space="preserve">
<style type="text/css">
	.st0{fill:#56B48C;}
	.st1{fill:none;stroke:#FFFFFF;stroke-width:2;stroke-linecap:round;stroke-miterlimit:10;}
	.st2{fill:#FFFFFF;}
	.st3{fill:none;stroke:#FFFFFF;stroke-width:2;stroke-linecap:round;stroke-linejoin:round;stroke-miterlimit:10;}
	.st4{fill:#D9D9D9;}
	.st5{opacity:0.1;enable-background:new    ;}
	.st6{fill:#CCCCCC;}
	.st7{opacity:0.1;}
	.st8{fill:#6D4C41;}
	.st9{fill:#855C4F;}
	.st10{fill:#029BE5;}
</style>
<circle class="st0" cx="116.5" cy="483.5" r="48.5"/>
<polyline class="st1" points="99,501 116.5,483.5 133.9,466 "/>
<polyline class="st1" points="99,466 116.5,483.5 133.9,501 "/>
<path class="st0" d="M212.7,433.8c-26.7,0-48.3,21.6-48.3,48.3c0,26.7,21.6,48.3,48.3,48.3c26.7,0,48.3-21.6,48.3-48.3
	C261.1,455.4,239.4,433.8,212.7,433.8z"/>
<path class="st2" d="M218.7,462.1c-0.6-0.8-1.4-1.2-2.4-1.2c-0.9,0-1.5,0.2-1.8,0.5c-0.3,0.3-1,1.3-2.1,2.7c-1.1,1.5-2.3,2.8-3.7,4
	c-1.4,1.2-3.2,2.3-5.5,3.4c-1.5,0.7-2.6,1.3-3.2,1.8c-0.6,0.5-0.9,1.2-0.9,2.1c0,0.8,0.3,1.6,0.9,2.2c0.6,0.6,1.3,1,2.1,1
	c1.7,0,4.9-1.9,9.8-5.6v26c0,1.5,0.4,2.7,1.1,3.5c0.7,0.8,1.6,1.2,2.8,1.2c2.6,0,3.9-1.9,3.9-5.7v-32.7
	C219.6,464,219.3,462.9,218.7,462.1z"/>
<circle class="st0" cx="308.2" cy="480.9" r="47.1"/>
<line class="st3" x1="308.2" y1="458.3" x2="308.2" y2="505.4"/>
<line class="st3" x1="331.7" y1="480.9" x2="284.6" y2="480.9"/>
<path class="st4" d="M172.2,51h-23.1c-5.1,0-9.3,4.1-9.3,9.3v60h41.6v-60C181.5,55.1,177.3,51,172.2,51z"/>
<path class="st5" d="M167.5,51h-18.4c-5.1,0-9.3,4.1-9.3,9.3v60h18.4v-60C158.3,55.1,162.4,51,167.5,51z"/>
<path class="st6" d="M411.2,111.1H57.5c-13.3,0-24.2,10.8-24.2,24.2V244l140.6,27.3l18.9,147.2h31.6l44.4-29.8l46.5,29.8H347
	l14.3-22.5l18.6,22.5h55.5V135.2C435.4,121.9,424.5,111.1,411.2,111.1z"/>
<g class="st7">
	<path d="M70.1,244V135.2c0-13.3,10.8-24.2,24.2-24.2H57.5c-13.3,0-24.2,10.8-24.2,24.2V244H70.1z"/>
</g>
<g>
	<rect x="282.5" y="234.1" class="st8" width="32.9" height="51.2"/>
	<rect x="217.9" y="234.1" class="st8" width="32.9" height="51.2"/>
	<rect x="347" y="234.1" class="st8" width="32.9" height="51.2"/>
	<rect x="347" y="285.3" class="st8" width="32.9" height="133.2"/>
</g>
<rect x="347" y="285.3" class="st5" width="32.9" height="45.9"/>
<path class="st9" d="M394.2,267H181.5v36.7h212.7c6,0,10.8-4.8,10.8-10.8v-15.1C404.9,271.8,400.1,267,394.2,267z"/>
<g>
	<path class="st10" d="M247,142.4h-25.3c-5.4,0-9.7,4.4-9.7,9.7v36.7c0,5.4,4.4,9.7,9.7,9.7H247c5.4,0,9.7-4.4,9.7-9.7v-36.7
		C256.7,146.8,252.4,142.4,247,142.4z"/>
	<path class="st10" d="M114.3,142.4H89c-5.4,0-9.7,4.4-9.7,9.7v36.7c0,5.4,4.4,9.7,9.7,9.7h25.3c5.4,0,9.7-4.4,9.7-9.7v-36.7
		C124.1,146.8,119.7,142.4,114.3,142.4z"/>
	<path class="st10" d="M354.4,142.4h25.3c5.4,0,9.7,4.4,9.7,9.7v36.7c0,5.4-4.4,9.7-9.7,9.7h-25.3c-5.4,0-9.7-4.4-9.7-9.7v-36.7
		C344.7,146.8,349,142.4,354.4,142.4z"/>
	<path class="st10" d="M292,330.9h-44.1c-12.9,0-23.4,10.5-23.4,23.4v64.2h90.8v-64.2C315.3,341.4,304.9,330.9,292,330.9z"/>
</g>
<path class="st4" d="M168.7,224.5H2.8c-13.3,0-24.2,10.8-24.2,24.2v169.9h28l26.8-37.2l31.5,37.2h41.8l30.5-43.8l27.7,43.8h28V248.7
	C192.8,235.3,182,224.5,168.7,224.5z"/>
<g>
	<path class="st10" d="M19.9,293.6h31.6c7.3,0,13.3,6,13.3,13.3v111.6H6.6V306.9C6.6,299.5,12.5,293.6,19.9,293.6z"/>
	<path class="st10" d="M151.6,293.6H120c-7.3,0-13.3,6-13.3,13.3v111.6h58.2V306.9C164.9,299.5,158.9,293.6,151.6,293.6z"/>
</g>
<g class="st7">
	<path d="M24.6,248.7c0-13.3,10.8-24.2,24.2-24.2H2.8c-13.3,0-24.2,10.8-24.2,24.2v169.9h45.9V248.7z"/>
</g>
</svg>
