<?xml version="1.0" encoding="utf-8"?>
<!-- Generator: Adobe Illustrator 19.0.0, SVG Export Plug-In . SVG Version: 6.00 Build 0)  -->
<svg version="1.1" id="Layer_1" xmlns="http://www.w3.org/2000/svg" xmlns:xlink="http://www.w3.org/1999/xlink" x="0px" y="0px"
	 viewBox="0 0 612 612" style="enable-background:new 0 0 612 612;" xml:space="preserve">
<style type="text/css">
	.st0{fill:#82C457;}
	.st1{fill:#C7C8CA;}
	.st2{fill:#323233;stroke:#C7C8C9;stroke-miterlimit:10;}
	.st3{fill:#656566;}
	.st4{fill:#C7C8C9;}
	.st5{fill:#85B440;}
	.st6{fill:#9CCC4E;}
	.st7{fill:#5A493A;}
	.st8{fill:#231F20;}
	.st9{fill:#766E65;}
	.st10{fill:#1F2322;}
</style>
<path id="XMLID_19_" class="st0" d="M602.2,340.4c-1.5-0.8-2.9-1.6-4.4-2.4c-0.5-0.2-1.1-0.5-1.5-0.7c-3.5-1.7-7.1-3.4-10.6-5
	c-8.6-4.1-17.3-8.1-25.8-12.4l0,0c-0.2-0.1-0.3-0.2-0.6-0.3c-1.7-0.8-3.4-1.7-5.1-2.5c-3.2-1.5-6.3-2.9-9.5-4.4
	c-6.4-2.8-12.8-5.5-19.3-8c-13.3-5.1-26.8-9.5-40.5-12.6c-4.3-1-8.5-1.8-12.8-2.6c-0.4-0.1-0.7-0.1-1-0.2c-1.2-0.2-2.4-0.4-3.6-0.5
	c-7.1-1-14.2-2-21.3-2.8c-14.9-1.7-29.9-2.9-44.9-3.7c-29.7-1.6-59.5-1.6-89.3-0.6c-27.1,0.9-54.1-0.2-81.2,0.4
	c-7.1,0.2-14.2,0.5-21.2,1c-1.7,0.1-19,0.7-19.3,2.1c4-0.7,4.6-0.7,1.7-0.3c-1.2,0.2-2.3,0.4-3.4,0.6c-1.1,0.2-2.3,0.4-3.4,0.7
	c-3.4,0.7-6.8,1.5-10.2,2.4c-6.2,1.6-12.3,3.6-18.3,6c-13.1,5.2-26.1,11.4-39,17.1c-6.2,2.8-12.4,5.6-18.5,8.4
	c-3.3,1.6-6.7,3.1-10,4.7c-0.7,0.3-1.4,0.6-2,0.9c-0.1,0.1-0.6,0.3-1.7,0.9c-25.3,12.8-50.3,27.1-72.7,46.1c-1.6,1.3-4.5,3-5.6,4.8
	c0.3-0.5,4.8-4.5,1.2-1.1c-2.7,2.5-5.3,5-8,7.6l-0.1,0.1V612h612V345.7C608.7,343.9,605.5,342.1,602.2,340.4z"/>
<path id="XMLID_3_" class="st1" d="M443,65.4c-1.5,0-3.1,0.2-4.6,0.5c-1.1-5.6-4.8-10.4-9.9-13s-11.2-2.7-16.4-0.3
	c-4.7-13-19.1-19.7-32.1-15s-19.7,19.1-15,32.1c-11.4,0.4-20.4,9.8-20.2,21.2c0.2,11.4,9.4,20.5,20.8,20.6H443c12.7,0,23-10.3,23-23
	S455.7,65.4,443,65.4z"/>
<path id="XMLID_2_" class="st1" d="M229,56.4c-1.5,0-3.1,0.2-4.6,0.5c-1.1-5.6-4.8-10.4-9.9-13c-5.1-2.6-11.2-2.7-16.4-0.3
	c-4.7-13-19.1-19.7-32.1-15s-19.7,19.1-15,32.1c-11.4,0.4-20.4,9.8-20.2,21.2s9.4,20.5,20.8,20.6H229c12.7,0,23-10.3,23-23
	S241.7,56.4,229,56.4z"/>
<path id="XMLID_4_" class="st1" d="M181,67.3c-1.5,0-3.1,0.1-4.6,0.3c-1.1-4.3-4.8-7.9-9.9-9.9c-5.1-2-11.2-2.1-16.4-0.2
	c-4.7-9.9-19.1-15-32.1-11.4s-19.7,14.5-15,24.4C91.7,70.8,82.7,78,82.9,86.7c0.2,8.7,9.4,15.6,20.8,15.7H181c12.7,0,23-7.8,23-17.5
	S193.7,67.3,181,67.3z"/>
<polygon id="XMLID_128_" class="st2" points="0,384.6 82,329.9 56.3,291.4 0,329 "/>
<path id="XMLID_129_" class="st3" d="M2.1,362.7c-0.6-0.8-1.3-1.5-2.1-2v13.2C3.4,371.5,4.7,366.2,2.1,362.7z"/>
<path id="XMLID_20_" class="st3" d="M17.1,341.2c-2.6-3.6-7.5-4.8-11.3-2.3c-3.5,2.4-4.9,7.7-2.3,11.3c2.6,3.6,7.5,4.8,11.3,2.3
	C18.4,350.1,19.7,344.7,17.1,341.2z"/>
<path id="XMLID_18_" class="st3" d="M21.4,316.9c-2.6-3.6-7.5-4.8-11.3-2.3c-3.5,2.4-4.9,7.7-2.3,11.3c2.6,3.6,7.5,4.8,11.3,2.3
	C22.7,325.8,24,320.5,21.4,316.9z"/>
<path id="XMLID_17_" class="st3" d="M44.3,341.2c-2.6-3.6-7.5-4.8-11.3-2.3c-3.5,2.4-4.9,7.7-2.3,11.3c2.6,3.6,7.5,4.8,11.3,2.3
	C45.6,350.2,46.9,344.8,44.3,341.2z"/>
<path id="XMLID_16_" class="st3" d="M49.1,318.4c-2.6-3.6-7.5-4.8-11.3-2.3c-3.5,2.4-4.9,7.7-2.3,11.3c2.6,3.6,7.5,4.8,11.3,2.3
	C50.4,327.4,51.7,322,49.1,318.4z"/>
<path id="XMLID_15_" class="st3" d="M64.7,335.2c-2.6-3.6-7.5-4.8-11.3-2.3c-3.5,2.4-4.9,7.7-2.3,11.3c2.6,3.6,7.5,4.8,11.3,2.3
	C66,344.1,67.3,338.7,64.7,335.2z"/>
<path id="XMLID_14_" class="st3" d="M25.6,362.6c-2.6-3.6-7.5-4.8-11.3-2.3c-3.5,2.4-4.9,7.7-2.3,11.3c2.6,3.6,7.5,4.8,11.3,2.3
	C26.9,371.5,28.2,366.2,25.6,362.6z"/>
<path id="XMLID_13_" class="st3" d="M56.4,296.7c-2.6-3.6-7.5-4.8-11.3-2.3c-3.5,2.4-4.9,7.7-2.3,11.3c2.6,3.6,7.5,4.8,11.3,2.3
	C57.7,305.6,59,300.2,56.4,296.7z"/>
<path id="XMLID_12_" class="st3" d="M74,312.5c-2.6-3.6-7.5-4.8-11.3-2.3c-3.5,2.4-4.9,7.7-2.3,11.3c2.6,3.6,7.5,4.8,11.3,2.3
	C75.3,321.4,76.6,316,74,312.5z"/>
<path id="XMLID_127_" class="st4" d="M25.6,345.8c0.7-0.2,1.3-0.6,1.9-1c4.2-2.8,5.7-9.2,2.7-13.4c-3.1-4.2-8.9-5.7-13.4-2.7
	c-4.2,2.8-5.7,9.2-2.7,13.4c1.2,1.6,2.8,2.8,4.5,3.5c-0.7,0.2-1.3,0.6-1.9,1c-3,2-4.6,5.8-4.2,9.4c-3.1-3.1-7.9-4.1-11.8-1.7
	c0.3-1.8,0.1-3.6-0.7-5.2v34.6c3.2,2.3,7.4,2.6,10.9,0.3c4.2-2.8,5.7-9.2,2.7-13.4c-0.3-0.5-0.7-0.9-1.1-1.3c2-2.1,3-5.2,2.7-8.1
	c3.2,3.3,8.3,4.1,12.3,1.5c4.2-2.8,5.7-9.2,2.7-13.4C28.9,347.7,27.4,346.5,25.6,345.8z"/>
<path id="XMLID_10_" class="st4" d="M52.4,330c-3.1-4.2-8.9-5.7-13.4-2.7c-4.2,2.8-5.7,9.2-2.7,13.4c0.5,0.6,1,1.2,1.6,1.7
	c-0.4,0.2-0.9,0.4-1.3,0.7c-4.2,2.8-5.7,9.2-2.7,13.4c3.1,4.2,8.9,5.7,13.4,2.7c4.2-2.8,5.7-9.2,2.7-13.4c-0.5-0.6-1-1.2-1.6-1.7
	c0.4-0.2,0.9-0.4,1.3-0.7C53.9,340.6,55.5,334.2,52.4,330z"/>
<path id="XMLID_9_" class="st4" d="M60.8,309.3c-3.1-4.2-8.9-5.7-13.4-2.7c-4.2,2.8-5.7,9.2-2.7,13.4c3.1,4.2,8.9,5.7,13.4,2.7
	C62.3,319.8,63.9,313.5,60.8,309.3z"/>
<path id="XMLID_8_" class="st4" d="M37.3,312.1c-3.1-4.2-8.9-5.7-13.4-2.7c-4.2,2.8-5.7,9.2-2.7,13.4c3.1,4.2,8.9,5.7,13.4,2.7
	C38.8,322.6,40.4,316.3,37.3,312.1z"/>
<path id="XMLID_126_" class="st4" d="M4.7,329.4c-1.2-1.7-2.9-2.9-4.7-3.6v18c0.7-0.3,1.4-0.6,2.1-1C6.3,339.9,7.8,333.5,4.7,329.4z
	"/>
<path id="XMLID_6_" class="st4" d="M76.3,326.5c-3.1-4.2-8.9-5.7-13.4-2.7c-4.2,2.8-5.7,9.2-2.7,13.4c3.1,4.2,8.9,5.7,13.4,2.7
	C77.8,337.1,79.4,330.7,76.3,326.5z"/>
<rect id="XMLID_39_" x="60.8" y="276.2" transform="matrix(0.943 -0.3329 0.3329 0.943 -93.3215 54.0391)" class="st2" width="100.5" height="46.3"/>
<path id="XMLID_38_" class="st3" d="M70.3,290.8c-1.7-4.1-6.1-6.5-10.4-5c-4,1.4-6.6,6.3-5,10.4c1.7,4.1,6.1,6.5,10.4,5
	C69.4,299.7,72,294.9,70.3,290.8z"/>
<path id="XMLID_37_" class="st3" d="M80.6,316.6c-1.7-4.1-6.1-6.5-10.4-5c-4,1.4-6.6,6.3-5,10.4c1.7,4.1,6.1,6.5,10.4,5
	C79.7,325.6,82.3,320.7,80.6,316.6z"/>
<path id="XMLID_36_" class="st3" d="M100.4,299.4c-1.7-4.1-6.1-6.5-10.4-5c-4,1.4-6.6,6.3-5,10.4c1.7,4.1,6.1,6.5,10.4,5
	C99.5,308.4,102.1,303.5,100.4,299.4z"/>
<path id="XMLID_35_" class="st3" d="M110.6,276.9c-1.7-4.1-6.1-6.5-10.4-5c-4,1.4-6.6,6.3-5,10.4c1.7,4.1,6.1,6.5,10.4,5
	C109.6,285.9,112.2,281,110.6,276.9z"/>
<path id="XMLID_34_" class="st3" d="M126.8,306.2c-1.7-4.1-6.1-6.5-10.4-5c-4,1.4-6.6,6.3-5,10.4c1.7,4.1,6.1,6.5,10.4,5
	C125.8,315.1,128.4,310.3,126.8,306.2z"/>
<path id="XMLID_33_" class="st3" d="M137.1,285.3c-1.7-4.1-6.1-6.5-10.4-5c-4,1.4-6.6,6.3-5,10.4c1.7,4.1,6.1,6.5,10.4,5
	C136.1,294.2,138.7,289.3,137.1,285.3z"/>
<path id="XMLID_32_" class="st3" d="M148.1,305.3c-1.7-4.1-6.1-6.5-10.4-5c-4,1.4-6.6,6.3-5,10.4c1.7,4.1,6.1,6.5,10.4,5
	C147.1,314.3,149.7,309.4,148.1,305.3z"/>
<path id="XMLID_31_" class="st3" d="M103.4,322.3c-1.7-4.1-6.1-6.5-10.4-5c-4,1.4-6.6,6.3-5,10.4c1.7,4.1,6.1,6.5,10.4,5
	C102.5,331.2,105.1,326.4,103.4,322.3z"/>
<path id="XMLID_30_" class="st3" d="M149.5,266c-1.7-4.1-6.1-6.5-10.4-5c-4,1.4-6.6,6.3-5,10.4c1.7,4.1,6.1,6.5,10.4,5
	C148.5,274.9,151.2,270,149.5,266z"/>
<path id="XMLID_29_" class="st3" d="M162.7,285.6c-1.7-4.1-6.1-6.5-10.4-5c-4,1.4-6.6,6.3-5,10.4c1.7,4.1,6.1,6.5,10.4,5
	C161.8,294.6,164.4,289.7,162.7,285.6z"/>
<path id="XMLID_28_" class="st4" d="M115.6,293.3c-2-4.8-7.2-7.7-12.3-5.9c-4.7,1.7-7.8,7.5-5.9,12.3c0.7,1.9,2,3.4,3.5,4.5
	c-0.7,0.1-1.4,0.2-2.1,0.5c-3.4,1.2-5.9,4.5-6.4,8c-2.2-3.8-6.7-5.9-11-4.6c0.9-2.1,1.1-4.5,0.2-6.8c-2-4.8-7.2-7.7-12.3-5.9
	c-4.7,1.7-7.8,7.5-5.9,12.3c1.9,4.7,6.8,7.5,11.7,6c-0.9,2.1-1.1,4.5-0.2,6.8c0.2,0.5,0.5,1.1,0.8,1.5c-3.7,2.3-5.7,7.2-4.1,11.4
	c2,4.8,7.2,7.7,12.3,5.9c4.7-1.7,7.8-7.5,5.9-12.3c-0.2-0.5-0.5-1.1-0.8-1.5c2.5-1.6,4.2-4.3,4.6-7.2c2.3,3.9,7,6.1,11.6,4.4
	c4.7-1.7,7.8-7.5,5.9-12.3c-0.7-1.9-2-3.4-3.5-4.5c0.7-0.1,1.4-0.2,2.1-0.5C114.4,303.9,117.5,298.1,115.6,293.3z"/>
<path id="XMLID_27_" class="st4" d="M137.4,297.3c-2-4.8-7.2-7.7-12.3-5.9c-4.7,1.7-7.8,7.5-5.9,12.3c0.3,0.7,0.7,1.4,1.1,2.1
	c-0.5,0.1-1,0.2-1.4,0.4c-4.7,1.7-7.8,7.5-5.9,12.3c2,4.8,7.2,7.7,12.3,5.9c4.7-1.7,7.8-7.5,5.9-12.3c-0.3-0.7-0.7-1.4-1.1-2.1
	c0.5-0.1,1-0.2,1.4-0.4C136.3,307.9,139.4,302.1,137.4,297.3z"/>
<path id="XMLID_26_" class="st4" d="M150.7,279.3c-2-4.8-7.2-7.7-12.3-5.9c-4.7,1.7-7.8,7.5-5.9,12.3c2,4.8,7.2,7.7,12.3,5.9
	C149.5,289.9,152.6,284.1,150.7,279.3z"/>
<path id="XMLID_25_" class="st4" d="M127.2,276.2c-2-4.8-7.2-7.7-12.3-5.9c-4.7,1.7-7.8,7.5-5.9,12.3c2,4.8,7.2,7.7,12.3,5.9
	C126.1,286.8,129.1,281,127.2,276.2z"/>
<path id="XMLID_24_" class="st4" d="M91.4,284.9c-2-4.8-7.2-7.7-12.3-5.9c-4.7,1.7-7.8,7.5-5.9,12.3c2,4.8,7.2,7.7,12.3,5.9
	C90.3,295.5,93.4,289.7,91.4,284.9z"/>
<path id="XMLID_5_" class="st4" d="M161.5,299.8c-2-4.8-7.2-7.7-12.3-5.9c-4.7,1.7-7.8,7.5-5.9,12.3c2,4.8,7.2,7.7,12.3,5.9
	C160.3,310.4,163.4,304.6,161.5,299.8z"/>
<rect id="XMLID_56_" x="154.5" y="251.2" transform="matrix(0.9862 -0.1654 0.1654 0.9862 -42.5547 37.6439)" class="st2" width="100.5" height="46.3"/>
<path id="XMLID_55_" class="st3" d="M166.1,258.9c-0.9-4.3-4.9-7.4-9.4-6.7c-4.2,0.7-7.6,5.1-6.7,9.4c0.9,4.3,4.9,7.4,9.4,6.7
	C163.6,267.6,167,263.2,166.1,258.9z"/>
<path id="XMLID_54_" class="st3" d="M171.8,286.1c-0.9-4.3-4.9-7.4-9.4-6.7c-4.2,0.7-7.6,5.1-6.7,9.4c0.9,4.3,4.9,7.4,9.4,6.7
	C169.3,294.8,172.7,290.4,171.8,286.1z"/>
<path id="XMLID_53_" class="st3" d="M194.3,272.6c-0.9-4.3-4.9-7.4-9.4-6.7c-4.2,0.7-7.6,5.1-6.7,9.4c0.9,4.3,4.9,7.4,9.4,6.7
	C191.8,281.2,195.2,276.9,194.3,272.6z"/>
<path id="XMLID_52_" class="st3" d="M208.1,252.2c-0.9-4.3-4.9-7.4-9.4-6.7c-4.2,0.7-7.6,5.1-6.7,9.4c0.9,4.3,4.9,7.4,9.4,6.7
	C205.6,260.9,209,256.5,208.1,252.2z"/>
<path id="XMLID_51_" class="st3" d="M219.1,283.8c-0.9-4.3-4.9-7.4-9.4-6.7c-4.2,0.7-7.6,5.1-6.7,9.4c0.9,4.3,4.9,7.4,9.4,6.7
	C216.6,292.5,220,288.1,219.1,283.8z"/>
<path id="XMLID_50_" class="st3" d="M232.8,265c-0.9-4.3-4.9-7.4-9.4-6.7c-4.2,0.7-7.6,5.1-6.7,9.4c0.9,4.3,4.9,7.4,9.4,6.7
	C230.3,273.6,233.7,269.3,232.8,265z"/>
<path id="XMLID_49_" class="st3" d="M240.2,286.6c-0.9-4.3-4.9-7.4-9.4-6.7c-4.2,0.7-7.6,5.1-6.7,9.4c0.9,4.3,4.9,7.4,9.4,6.7
	C237.7,295.3,241.1,290.9,240.2,286.6z"/>
<path id="XMLID_48_" class="st3" d="M193.3,295.6c-0.9-4.3-4.9-7.4-9.4-6.7c-4.2,0.7-7.6,5.1-6.7,9.4c0.9,4.3,4.9,7.4,9.4,6.7
	C190.8,304.3,194.2,299.9,193.3,295.6z"/>
<path id="XMLID_47_" class="st3" d="M248.4,248.1c-0.9-4.3-4.9-7.4-9.4-6.7c-4.2,0.7-7.6,5.1-6.7,9.4c0.9,4.3,4.9,7.4,9.4,6.7
	C245.9,256.8,249.3,252.4,248.4,248.1z"/>
<path id="XMLID_46_" class="st3" d="M258,269.7c-0.9-4.3-4.9-7.4-9.4-6.7c-4.2,0.7-7.6,5.1-6.7,9.4c0.9,4.3,4.9,7.4,9.4,6.7
	C255.5,278.4,258.9,274.1,258,269.7z"/>
<path id="XMLID_45_" class="st4" d="M210.2,269.1c-1.1-5.1-5.8-8.8-11.1-7.9c-5,0.8-9,6-7.9,11.1c0.4,2,1.4,3.7,2.7,5.1
	c-0.7,0-1.4,0-2.2,0.1c-3.6,0.6-6.6,3.4-7.7,6.8c-1.6-4.1-5.5-7-10.1-6.5c1.2-1.9,1.8-4.3,1.3-6.6c-1.1-5.1-5.8-8.8-11.1-7.9
	c-5,0.8-9,6-7.9,11.1c1.1,4.9,5.4,8.5,10.5,8c-1.2,1.9-1.8,4.3-1.3,6.6c0.1,0.6,0.3,1.1,0.5,1.7c-4,1.7-6.9,6.1-6,10.5
	c1.1,5.1,5.8,8.8,11.1,7.9c5-0.8,9-6,7.9-11.1c-0.1-0.6-0.3-1.1-0.5-1.7c2.7-1.1,4.9-3.5,5.7-6.3c1.6,4.3,5.9,7.2,10.6,6.4
	c5-0.8,9-6,7.9-11.1c-0.4-2-1.4-3.7-2.7-5.1c0.7,0,1.4,0,2.2-0.1C207.3,279.4,211.3,274.2,210.2,269.1z"/>
<path id="XMLID_44_" class="st4" d="M231,276.9c-1.1-5.1-5.8-8.8-11.1-7.9c-5,0.8-9,6-7.9,11.1c0.2,0.8,0.4,1.5,0.7,2.2
	c-0.5,0-1,0-1.5,0.1c-5,0.8-9,6-7.9,11.1s5.8,8.8,11.1,7.9c5-0.8,9-6,7.9-11.1c-0.2-0.8-0.4-1.5-0.7-2.2c0.5,0,1,0,1.5-0.1
	C228.1,287.2,232.1,282,231,276.9z"/>
<path id="XMLID_43_" class="st4" d="M247.2,261.4c-1.1-5.1-5.8-8.8-11.1-7.9c-5,0.8-9,6-7.9,11.1s5.8,8.8,11.1,7.9
	C244.3,271.7,248.3,266.5,247.2,261.4z"/>
<path id="XMLID_42_" class="st4" d="M224.6,254.3c-1.1-5.1-5.8-8.8-11.1-7.9c-5,0.8-9,6-7.9,11.1c1.1,5.1,5.8,8.8,11.1,7.9
	C221.7,264.6,225.7,259.4,224.6,254.3z"/>
<path id="XMLID_41_" class="st4" d="M187.9,256.7c-1.1-5.1-5.8-8.8-11.1-7.9c-5,0.8-9,6-7.9,11.1s5.8,8.8,11.1,7.9
	C184.9,267,189,261.8,187.9,256.7z"/>
<path id="XMLID_40_" class="st4" d="M254.3,283.5c-1.1-5.1-5.8-8.8-11.1-7.9c-5,0.8-9,6-7.9,11.1s5.8,8.8,11.1,7.9
	C251.4,293.8,255.4,288.6,254.3,283.5z"/>
<rect id="XMLID_73_" x="247.9" y="245.4" class="st2" width="100.5" height="46.3"/>
<path id="XMLID_72_" class="st3" d="M262.6,246.8c-0.2-4.4-3.6-8.1-8.1-8.1c-4.3,0-8.3,3.7-8.1,8.1c0.2,4.4,3.6,8.1,8.1,8.1
	C258.7,255,262.8,251.2,262.6,246.8z"/>
<path id="XMLID_71_" class="st3" d="M263.7,274.6c-0.2-4.4-3.6-8.1-8.1-8.1c-4.3,0-8.3,3.7-8.1,8.1s3.6,8.1,8.1,8.1
	C259.9,282.8,263.9,279,263.7,274.6z"/>
<path id="XMLID_70_" class="st3" d="M288.2,265c-0.2-4.4-3.6-8.1-8.1-8.1c-4.3,0-8.3,3.7-8.1,8.1c0.2,4.4,3.6,8.1,8.1,8.1
	C284.3,273.1,288.4,269.4,288.2,265z"/>
<path id="XMLID_69_" class="st3" d="M305.2,247.2c-0.2-4.4-3.6-8.1-8.1-8.1c-4.3,0-8.3,3.7-8.1,8.1c0.2,4.4,3.6,8.1,8.1,8.1
	C301.3,255.4,305.4,251.6,305.2,247.2z"/>
<path id="XMLID_68_" class="st3" d="M310.8,280.2c-0.2-4.4-3.6-8.1-8.1-8.1c-4.3,0-8.3,3.7-8.1,8.1c0.2,4.4,3.6,8.1,8.1,8.1
	C306.9,288.3,311,284.6,310.8,280.2z"/>
<path id="XMLID_67_" class="st3" d="M327.4,263.9c-0.2-4.4-3.6-8.1-8.1-8.1c-4.3,0-8.3,3.7-8.1,8.1c0.2,4.4,3.6,8.1,8.1,8.1
	C323.5,272,327.6,268.3,327.4,263.9z"/>
<path id="XMLID_66_" class="st3" d="M331.1,286.5c-0.2-4.4-3.6-8.1-8.1-8.1c-4.3,0-8.3,3.7-8.1,8.1c0.2,4.4,3.6,8.1,8.1,8.1
	C327.2,294.6,331.3,290.9,331.1,286.5z"/>
<path id="XMLID_65_" class="st3" d="M283.4,287.6c-0.2-4.4-3.6-8.1-8.1-8.1c-4.3,0-8.3,3.7-8.1,8.1c0.2,4.4,3.6,8.1,8.1,8.1
	C279.5,295.7,283.6,292,283.4,287.6z"/>
<path id="XMLID_64_" class="st3" d="M345.6,249.8c-0.2-4.4-3.6-8.1-8.1-8.1c-4.3,0-8.3,3.7-8.1,8.1c0.2,4.4,3.6,8.1,8.1,8.1
	C341.7,258,345.8,254.2,345.6,249.8z"/>
<path id="XMLID_63_" class="st3" d="M351.5,272.8c-0.2-4.4-3.6-8.1-8.1-8.1c-4.3,0-8.3,3.7-8.1,8.1c0.2,4.4,3.6,8.1,8.1,8.1
	C347.6,280.9,351.7,277.2,351.5,272.8z"/>
<path id="XMLID_62_" class="st4" d="M304.5,264.3c-0.2-5.2-4.2-9.6-9.6-9.6c-5,0-9.9,4.4-9.6,9.6c0.1,2,0.7,3.9,1.8,5.4
	c-0.7-0.2-1.4-0.2-2.2-0.2c-3.6,0-7.1,2.3-8.7,5.5c-0.8-4.3-4.3-7.8-8.9-8c1.6-1.7,2.5-3.9,2.4-6.3c-0.2-5.2-4.2-9.6-9.6-9.6
	c-5,0-9.9,4.4-9.6,9.6c0.2,5,4,9.3,9.1,9.6c-1.6,1.7-2.5,3.9-2.4,6.3c0,0.6,0.1,1.2,0.2,1.7c-4.2,1-7.8,4.9-7.6,9.4
	c0.2,5.2,4.2,9.6,9.6,9.6c5,0,9.9-4.4,9.6-9.6c0-0.6-0.1-1.2-0.2-1.7c2.8-0.7,5.4-2.6,6.7-5.2c0.9,4.5,4.6,8,9.4,8
	c5,0,9.9-4.4,9.6-9.6c-0.1-2-0.7-3.9-1.8-5.4c0.7,0.2,1.4,0.2,2.2,0.2C299.9,273.9,304.7,269.4,304.5,264.3z"/>
<path id="XMLID_61_" class="st4" d="M323.7,275.4c-0.2-5.2-4.2-9.6-9.6-9.6c-5,0-9.9,4.4-9.6,9.6c0,0.8,0.2,1.6,0.4,2.3
	c-0.5-0.1-1-0.1-1.5-0.1c-5,0-9.9,4.4-9.6,9.6c0.2,5.2,4.2,9.6,9.6,9.6c5,0,9.9-4.4,9.6-9.6c0-0.8-0.2-1.6-0.4-2.3
	c0.5,0.1,1,0.1,1.5,0.1C319.1,285,324,280.6,323.7,275.4z"/>
<path id="XMLID_60_" class="st4" d="M342.2,262.8c-0.2-5.2-4.2-9.6-9.6-9.6c-5,0-9.9,4.4-9.6,9.6c0.2,5.2,4.2,9.6,9.6,9.6
	C337.6,272.4,342.5,268,342.2,262.8z"/>
<path id="XMLID_59_" class="st4" d="M321.1,252c-0.2-5.2-4.2-9.6-9.6-9.6c-5,0-9.9,4.4-9.6,9.6c0.2,5.2,4.2,9.6,9.6,9.6
	C316.5,261.7,321.4,257.2,321.1,252z"/>
<path id="XMLID_58_" class="st4" d="M284.5,248.3c-0.2-5.2-4.2-9.6-9.6-9.6c-5,0-9.9,4.4-9.6,9.6c0.2,5.2,4.2,9.6,9.6,9.6
	C279.9,258,284.7,253.5,284.5,248.3z"/>
<path id="XMLID_57_" class="st4" d="M345.6,285.7c-0.2-5.2-4.2-9.6-9.6-9.6c-5,0-9.9,4.4-9.6,9.6c0.2,5.2,4.2,9.6,9.6,9.6
	C341,295.4,345.8,290.9,345.6,285.7z"/>
<rect id="XMLID_90_" x="343.9" y="251.7" transform="matrix(0.9965 8.417477e-002 -8.417477e-002 0.9965 24.5348 -32.2038)" class="st2" width="100.5" height="46.3"/>
<path id="XMLID_89_" class="st3" d="M360.6,250.3c0.2-4.4-2.9-8.4-7.4-8.8c-4.2-0.4-8.6,3-8.8,7.4c-0.2,4.4,2.9,8.4,7.4,8.8
	C356.1,258.1,360.4,254.7,360.6,250.3z"/>
<path id="XMLID_88_" class="st3" d="M359.4,278c0.2-4.4-2.9-8.4-7.4-8.8c-4.2-0.4-8.6,3-8.8,7.4c-0.2,4.4,2.9,8.4,7.4,8.8
	C354.8,285.8,359.2,282.4,359.4,278z"/>
<path id="XMLID_87_" class="st3" d="M384.5,270.5c0.2-4.4-2.9-8.4-7.4-8.8c-4.2-0.4-8.6,3-8.8,7.4c-0.2,4.4,2.9,8.4,7.4,8.8
	C380,278.3,384.4,274.9,384.5,270.5z"/>
<path id="XMLID_86_" class="st3" d="M403,254.2c0.2-4.4-2.9-8.4-7.4-8.8c-4.2-0.4-8.6,3-8.8,7.4c-0.2,4.4,2.9,8.4,7.4,8.8
	C398.4,262,402.8,258.6,403,254.2z"/>
<path id="XMLID_85_" class="st3" d="M405.8,287.5c0.2-4.4-2.9-8.4-7.4-8.8c-4.2-0.4-8.6,3-8.8,7.4c-0.2,4.4,2.9,8.4,7.4,8.8
	C401.2,295.3,405.6,291.9,405.8,287.5z"/>
<path id="XMLID_84_" class="st3" d="M423.7,272.7c0.2-4.4-2.9-8.4-7.4-8.8c-4.2-0.4-8.6,3-8.8,7.4c-0.2,4.4,2.9,8.4,7.4,8.8
	C419.2,280.5,423.6,277.1,423.7,272.7z"/>
<path id="XMLID_83_" class="st3" d="M425.5,295.5c0.2-4.4-2.9-8.4-7.4-8.8c-4.2-0.4-8.6,3-8.8,7.4c-0.2,4.4,2.9,8.4,7.4,8.8
	C421,303.3,425.4,299.9,425.5,295.5z"/>
<path id="XMLID_82_" class="st3" d="M377.8,292.6c0.2-4.4-2.9-8.4-7.4-8.8c-4.2-0.4-8.6,3-8.8,7.4c-0.2,4.4,2.9,8.4,7.4,8.8
	C373.3,300.4,377.7,297,377.8,292.6z"/>
<path id="XMLID_81_" class="st3" d="M443,260.2c0.2-4.4-2.9-8.4-7.4-8.8c-4.2-0.4-8.6,3-8.8,7.4c-0.2,4.4,2.9,8.4,7.4,8.8
	C438.4,268,442.8,264.6,443,260.2z"/>
<path id="XMLID_80_" class="st3" d="M447,283.6c0.2-4.4-2.9-8.4-7.4-8.8c-4.2-0.4-8.6,3-8.8,7.4c-0.2,4.4,2.9,8.4,7.4,8.8
	C442.4,291.4,446.8,288,447,283.6z"/>
<path id="XMLID_79_" class="st4" d="M400.8,271.1c0.2-5.2-3.4-9.9-8.8-10.4c-5-0.4-10.2,3.6-10.4,8.8c-0.1,2,0.4,3.9,1.3,5.6
	c-0.7-0.2-1.4-0.4-2.1-0.4c-3.6-0.3-7.3,1.7-9.1,4.7c-0.5-4.4-3.6-8.1-8.2-8.8c1.7-1.6,2.8-3.7,2.9-6.1c0.2-5.2-3.4-9.9-8.8-10.4
	c-5-0.4-10.2,3.6-10.4,8.8c-0.2,5,3.2,9.6,8.2,10.3c-1.7,1.6-2.8,3.7-2.9,6.1c0,0.6,0,1.2,0.1,1.7c-4.3,0.6-8.2,4.2-8.4,8.7
	c-0.2,5.2,3.4,9.9,8.8,10.4c5,0.4,10.2-3.6,10.4-8.8c0-0.6,0-1.2-0.1-1.7c2.9-0.4,5.6-2.2,7.1-4.6c0.5,4.6,3.9,8.4,8.7,8.8
	c5,0.4,10.2-3.6,10.4-8.8c0.1-2-0.4-3.9-1.3-5.6c0.7,0.2,1.4,0.4,2.1,0.4C395.4,280.4,400.6,276.3,400.8,271.1z"/>
<path id="XMLID_78_" class="st4" d="M419.1,283.8c0.2-5.2-3.4-9.9-8.8-10.4c-5-0.4-10.2,3.6-10.4,8.8c0,0.8,0,1.6,0.2,2.4
	c-0.5-0.1-1-0.2-1.5-0.2c-5-0.4-10.2,3.6-10.4,8.8c-0.2,5.2,3.4,9.9,8.8,10.4c5,0.4,10.2-3.6,10.4-8.8c0-0.8,0-1.6-0.2-2.4
	c0.5,0.1,1,0.2,1.5,0.2C413.7,293,418.9,289,419.1,283.8z"/>
<path id="XMLID_77_" class="st4" d="M438.6,272.8c0.2-5.2-3.4-9.9-8.8-10.4c-5-0.4-10.2,3.6-10.4,8.8c-0.2,5.2,3.4,9.9,8.8,10.4
	C433.2,282.1,438.4,278,438.6,272.8z"/>
<path id="XMLID_76_" class="st4" d="M418.5,260.4c0.2-5.2-3.4-9.9-8.8-10.4c-5-0.4-10.2,3.6-10.4,8.8c-0.2,5.2,3.4,9.9,8.8,10.4
	C413.1,269.6,418.3,265.6,418.5,260.4z"/>
<path id="XMLID_75_" class="st4" d="M382.3,253.6c0.2-5.2-3.4-9.9-8.8-10.4c-5-0.4-10.2,3.6-10.4,8.8c-0.2,5.2,3.4,9.9,8.8,10.4
	C376.9,262.8,382,258.8,382.3,253.6z"/>
<path id="XMLID_74_" class="st4" d="M440,296c0.2-5.2-3.4-9.9-8.8-10.4c-5-0.4-10.2,3.6-10.4,8.8c-0.2,5.2,3.4,9.9,8.8,10.4
	C434.6,305.2,439.8,301.2,440,296z"/>
<rect id="XMLID_107_" x="440.1" y="265.2" transform="matrix(0.9866 0.1629 -0.1629 0.9866 53.5318 -76.0286)" class="st2" width="100.5" height="46.3"/>
<path id="XMLID_106_" class="st3" d="M458.8,261.2c0.5-4.4-2.2-8.6-6.7-9.4c-4.2-0.7-8.8,2.3-9.4,6.7c-0.5,4.4,2.2,8.6,6.7,9.4
	C453.7,268.6,458.3,265.6,458.8,261.2z"/>
<path id="XMLID_105_" class="st3" d="M455.4,288.8c0.5-4.4-2.2-8.6-6.7-9.4c-4.2-0.7-8.8,2.3-9.4,6.7c-0.5,4.4,2.2,8.6,6.7,9.4
	C450.2,296.2,454.9,293.2,455.4,288.8z"/>
<path id="XMLID_104_" class="st3" d="M481.1,283.3c0.5-4.4-2.2-8.6-6.7-9.4c-4.2-0.7-8.8,2.3-9.4,6.7c-0.5,4.4,2.2,8.6,6.7,9.4
	C475.9,290.7,480.5,287.7,481.1,283.3z"/>
<path id="XMLID_103_" class="st3" d="M500.8,268.5c0.5-4.4-2.2-8.6-6.7-9.4c-4.2-0.7-8.8,2.3-9.4,6.7c-0.5,4.4,2.2,8.6,6.7,9.4
	C495.6,275.9,500.2,272.9,500.8,268.5z"/>
<path id="XMLID_102_" class="st3" d="M500.9,302c0.5-4.4-2.2-8.6-6.7-9.4c-4.2-0.7-8.8,2.3-9.4,6.7c-0.5,4.4,2.2,8.6,6.7,9.4
	C495.7,309.4,500.4,306.3,500.9,302z"/>
<path id="XMLID_101_" class="st3" d="M520,288.6c0.5-4.4-2.2-8.6-6.7-9.4c-4.2-0.7-8.8,2.3-9.4,6.7c-0.5,4.4,2.2,8.6,6.7,9.4
	C514.8,296,519.4,293,520,288.6z"/>
<path id="XMLID_100_" class="st3" d="M519.9,311.5c0.5-4.4-2.2-8.6-6.7-9.4c-4.2-0.7-8.8,2.3-9.4,6.7c-0.5,4.4,2.2,8.6,6.7,9.4
	C514.8,318.9,519.4,315.9,519.9,311.5z"/>
<path id="XMLID_99_" class="st3" d="M472.6,304.8c0.5-4.4-2.2-8.6-6.7-9.4c-4.2-0.7-8.8,2.3-9.4,6.7c-0.5,4.4,2.2,8.6,6.7,9.4
	C467.5,312.2,472.1,309.2,472.6,304.8z"/>
<path id="XMLID_98_" class="st3" d="M540.2,277.7c0.5-4.4-2.2-8.6-6.7-9.4c-4.2-0.7-8.8,2.3-9.4,6.7c-0.5,4.4,2.2,8.6,6.7,9.4
	C535,285.1,539.6,282,540.2,277.7z"/>
<path id="XMLID_97_" class="st3" d="M542.3,301.3c0.5-4.4-2.2-8.6-6.7-9.4c-4.2-0.7-8.8,2.3-9.4,6.7c-0.5,4.4,2.2,8.6,6.7,9.4
	C537.1,308.7,541.7,305.7,542.3,301.3z"/>
<path id="XMLID_96_" class="st4" d="M497.3,285.2c0.6-5.2-2.6-10.2-7.9-11.1c-5-0.8-10.4,2.8-11.1,7.9c-0.2,2,0.1,3.9,0.9,5.7
	c-0.7-0.3-1.4-0.5-2.1-0.6c-3.6-0.6-7.4,1.1-9.5,4c-0.1-4.4-3-8.4-7.4-9.4c1.8-1.4,3.1-3.5,3.4-5.8c0.6-5.2-2.6-10.2-7.9-11.1
	c-5-0.8-10.4,2.8-11.1,7.9c-0.6,5,2.4,9.8,7.4,11c-1.8,1.4-3.1,3.5-3.4,5.8c-0.1,0.6-0.1,1.2-0.1,1.7c-4.3,0.3-8.5,3.6-9.1,8
	c-0.6,5.2,2.6,10.2,7.9,11.1c5,0.8,10.4-2.8,11.1-7.9c0.1-0.6,0.1-1.2,0.1-1.7c2.9-0.2,5.7-1.7,7.5-4.1c0.1,4.6,3.2,8.7,8,9.5
	c5,0.8,10.4-2.8,11.1-7.9c0.2-2-0.1-3.9-0.9-5.7c0.7,0.3,1.4,0.5,2.1,0.6C491.2,294,496.6,290.4,497.3,285.2z"/>
<path id="XMLID_95_" class="st4" d="M514.4,299.3c0.6-5.2-2.6-10.2-7.9-11.1c-5-0.8-10.4,2.8-11.1,7.9c-0.1,0.8-0.1,1.6,0,2.4
	c-0.5-0.2-0.9-0.3-1.4-0.4c-5-0.8-10.4,2.8-11.1,7.9c-0.6,5.2,2.6,10.2,7.9,11.1c5,0.8,10.4-2.8,11.1-7.9c0.1-0.8,0.1-1.6,0-2.4
	c0.5,0.2,0.9,0.3,1.4,0.4C508.3,308.1,513.8,304.5,514.4,299.3z"/>
<path id="XMLID_94_" class="st4" d="M534.8,289.9c0.6-5.2-2.6-10.2-7.9-11.1c-5-0.8-10.4,2.8-11.1,7.9c-0.6,5.2,2.6,10.2,7.9,11.1
	C528.7,298.7,534.1,295.1,534.8,289.9z"/>
<path id="XMLID_93_" class="st4" d="M515.7,275.9c0.6-5.2-2.6-10.2-7.9-11.1c-5-0.8-10.4,2.8-11.1,7.9c-0.6,5.2,2.6,10.2,7.9,11.1
	C509.6,284.6,515.1,281.1,515.7,275.9z"/>
<path id="XMLID_92_" class="st4" d="M480.1,266.3c0.6-5.2-2.6-10.2-7.9-11.1c-5-0.8-10.4,2.8-11.1,7.9c-0.6,5.2,2.6,10.2,7.9,11.1
	C474,275,479.5,271.4,480.1,266.3z"/>
<path id="XMLID_91_" class="st4" d="M534.3,313.1c0.6-5.2-2.6-10.2-7.9-11.1c-5-0.8-10.4,2.8-11.1,7.9c-0.6,5.2,2.6,10.2,7.9,11.1
	C528.2,321.9,533.7,318.3,534.3,313.1z"/>
<path id="XMLID_108_" class="st2" d="M612,304c0-2.4,0.3-4.7,0.9-6.9l-78.3-21l-12,44.7l89.4,23.9L612,304L612,304z"/>
<path id="XMLID_123_" class="st3" d="M548.4,281.4c1-4.3-1.4-8.8-5.8-10c-4.1-1.1-9,1.5-10,5.8s1.4,8.8,5.8,10
	C542.6,288.2,547.5,285.7,548.4,281.4z"/>
<path id="XMLID_122_" class="st3" d="M542.3,308.5c1-4.3-1.4-8.8-5.8-10c-4.1-1.1-9,1.5-10,5.8s1.4,8.8,5.8,10
	C536.5,315.3,541.4,312.8,542.3,308.5z"/>
<path id="XMLID_121_" class="st3" d="M568.4,305.5c1-4.3-1.4-8.8-5.8-10c-4.1-1.1-9,1.5-10,5.8s1.4,8.8,5.8,10
	C562.6,312.4,567.5,309.8,568.4,305.5z"/>
<path id="XMLID_120_" class="st3" d="M589.5,292.7c1-4.3-1.4-8.8-5.8-10c-4.1-1.1-9,1.5-10,5.8s1.4,8.8,5.8,10
	C583.6,299.6,588.5,297,589.5,292.7z"/>
<path id="XMLID_119_" class="st3" d="M586.3,326c1-4.3-1.4-8.8-5.8-10c-4.1-1.1-9,1.5-10,5.8s1.4,8.8,5.8,10
	C580.5,332.9,585.4,330.3,586.3,326z"/>
<path id="XMLID_118_" class="st3" d="M606.6,314.6c0.9-4.3-1.4-8.8-5.8-10c-4.1-1.1-9,1.5-10,5.8s1.4,8.8,5.8,10
	C600.8,321.4,605.7,318.9,606.6,314.6z"/>
<path id="XMLID_117_" class="st3" d="M604.4,337.3c1-4.3-1.4-8.8-5.8-10c-4.1-1.1-9,1.5-10,5.8s1.4,8.8,5.8,10
	C598.5,344.2,603.4,341.6,604.4,337.3z"/>
<path id="XMLID_116_" class="st3" d="M557.9,326.1c1-4.3-1.4-8.8-5.8-10c-4.1-1.1-9,1.5-10,5.8s1.4,8.8,5.8,10
	C552.1,332.9,557,330.4,557.9,326.1z"/>
<path id="XMLID_125_" class="st3" d="M612,304c0-1,0.1-2,0.2-2.9c0,0.1-0.1,0.2-0.1,0.4c-0.3,1.2-0.3,2.4,0,3.6V304H612z"/>
<path id="XMLID_124_" class="st3" d="M612,324.6c-0.1,0.2-0.1,0.4-0.2,0.6c-0.3,1.5-0.3,3.1,0.2,4.5V324.6z"/>
<path id="XMLID_113_" class="st4" d="M584.4,309c1.1-5.1-1.6-10.4-6.8-11.8c-4.9-1.3-10.7,1.7-11.8,6.8c-0.4,2-0.3,3.9,0.3,5.7
	c-0.6-0.3-1.3-0.6-2-0.8c-3.5-0.9-7.4,0.4-9.8,3c0.3-4.4-2.2-8.6-6.5-10.1c1.9-1.2,3.4-3.1,4-5.5c1.1-5.1-1.6-10.4-6.8-11.8
	c-4.9-1.3-10.7,1.7-11.8,6.8c-1.1,4.9,1.4,10,6.3,11.6c-1.9,1.2-3.4,3.1-4,5.5c-0.1,0.6-0.2,1.1-0.2,1.7c-4.3-0.2-8.8,2.7-9.8,7.1
	c-1.1,5.1,1.6,10.4,6.8,11.8c4.9,1.3,10.7-1.7,11.8-6.8c0.1-0.6,0.2-1.1,0.2-1.7c2.9,0.1,5.9-1.2,7.8-3.3c-0.3,4.6,2.4,9,7,10.2
	c4.9,1.3,10.7-1.7,11.8-6.8c0.4-2,0.3-3.9-0.3-5.7c0.6,0.3,1.3,0.6,2,0.8C577.4,317.1,583.2,314.1,584.4,309z"/>
<path id="XMLID_112_" class="st4" d="M600.1,324.7c1.1-5.1-1.6-10.4-6.8-11.8c-4.9-1.3-10.7,1.7-11.8,6.8c-0.2,0.8-0.3,1.6-0.2,2.3
	c-0.4-0.2-0.9-0.4-1.4-0.5c-4.9-1.3-10.7,1.7-11.8,6.8c-1.1,5.1,1.6,10.4,6.8,11.8c4.9,1.3,10.7-1.7,11.8-6.8
	c0.2-0.8,0.3-1.6,0.2-2.3c0.4,0.2,0.9,0.4,1.4,0.5C593.2,332.8,599,329.8,600.1,324.7z"/>
<path id="XMLID_115_" class="st4" d="M612,305.2c-4.2,0-8.4,2.8-9.4,7.1c-1.1,5.1,1.6,10.4,6.8,11.8c0.8,0.2,1.7,0.3,2.6,0.3
	L612,305.2L612,305.2z"/>
<path id="XMLID_110_" class="st4" d="M603.6,301.5c1.1-5.1-1.6-10.4-6.8-11.8c-4.9-1.3-10.7,1.7-11.8,6.8
	c-1.1,5.1,1.6,10.4,6.8,11.8C596.7,309.6,602.5,306.6,603.6,301.5z"/>
<path id="XMLID_109_" class="st4" d="M569.2,288.4c1.1-5.1-1.6-10.4-6.8-11.8c-4.9-1.3-10.7,1.7-11.8,6.8
	c-1.1,5.1,1.6,10.4,6.8,11.8C562.2,296.6,568,293.5,569.2,288.4z"/>
<path id="XMLID_114_" class="st4" d="M612,328.7c-0.1,0-0.2-0.1-0.3-0.1c-4.9-1.3-10.7,1.7-11.8,6.8c-1.1,5.1,1.6,10.4,6.8,11.8
	c1.7,0.5,3.6,0.4,5.3-0.2V328.7z"/>
<path id="XMLID_133_" class="st5" d="M73.5,534c0.8-6.4-1-18.4-2.1-20.9c5.5,5.3,7.6,14.6,8.4,20.9"/>
<path id="XMLID_132_" class="st5" d="M92.2,534c-0.8-6.4,1-18.4,2.1-20.9c-5.5,5.3-7.6,14.6-8.4,20.9"/>
<g id="XMLID_21_">
	<path id="XMLID_131_" class="st6" d="M86.2,534c0.1-3.8-0.9-18.2-3.3-23.9c-2.4,5.7-3.4,20.1-3.3,23.9"/>
	<path id="XMLID_130_" class="st6" d="M69.4,534c0-7.4-4.9-17.8-4.9-17.8c6.5,3.2,10.2,12.9,10.8,17.8"/>
	<path id="XMLID_111_" class="st6" d="M96.4,534c0-7.4,4.9-17.8,4.9-17.8c-6.5,3.2-10.2,12.9-10.8,17.8"/>
	<path id="XMLID_23_" class="st6" d="M92.2,534h-1.7c0.2-2,0.7-4,1.5-5.9c-0.1,1.6,0,3.2,0,4.9C92.1,533.3,92.2,533.6,92.2,534z"/>
	<path id="XMLID_22_" class="st6" d="M92.2,534H92c0-0.3,0.1-0.7,0.2-1.1C92.1,533.3,92.2,533.6,92.2,534z"/>
</g>
<path id="XMLID_11_" class="st5" d="M106.8,534.7H59c-0.4,0-0.7-0.3-0.7-0.7s0.3-0.7,0.7-0.7h47.8c0.4,0,0.7,0.3,0.7,0.7
	S107.2,534.7,106.8,534.7z"/>
<path id="XMLID_141_" class="st5" d="M143,496.2c0.8-6.4-1-18.4-2.1-20.9c5.5,5.3,7.6,14.6,8.4,20.9"/>
<path id="XMLID_140_" class="st5" d="M161.7,496.2c-0.8-6.4,1-18.4,2.1-20.9c-5.5,5.3-7.6,14.6-8.4,20.9"/>
<g id="XMLID_134_">
	<path id="XMLID_139_" class="st6" d="M155.7,496.2c0.1-3.8-0.9-18.2-3.3-23.9c-2.4,5.7-3.4,20.1-3.3,23.9"/>
	<path id="XMLID_138_" class="st6" d="M138.9,496.2c0-7.4-4.9-17.8-4.9-17.8c6.5,3.2,10.2,12.9,10.8,17.8"/>
	<path id="XMLID_137_" class="st6" d="M165.9,496.2c0-7.4,4.9-17.8,4.9-17.8c-6.5,3.2-10.2,12.9-10.8,17.8"/>
	<path id="XMLID_136_" class="st6" d="M161.7,496.2H160c0.2-2,0.7-4,1.5-5.9c-0.1,1.6,0,3.2,0,4.9
		C161.6,495.5,161.7,495.8,161.7,496.2z"/>
	<path id="XMLID_135_" class="st6" d="M161.7,496.2h-0.2c0-0.3,0.1-0.7,0.2-1.1C161.6,495.5,161.7,495.8,161.7,496.2z"/>
</g>
<path id="XMLID_7_" class="st5" d="M176.3,496.9h-47.8c-0.4,0-0.7-0.3-0.7-0.7s0.3-0.7,0.7-0.7h47.8c0.4,0,0.7,0.3,0.7,0.7
	S176.7,496.9,176.3,496.9z"/>
<path id="XMLID_150_" class="st5" d="M185.1,554.9c0.8-6.4-1-18.4-2.1-20.9c5.5,5.3,7.6,14.6,8.4,20.9"/>
<path id="XMLID_149_" class="st5" d="M203.8,554.9c-0.8-6.4,1-18.4,2.1-20.9c-5.5,5.3-7.6,14.6-8.4,20.9"/>
<g id="XMLID_143_">
	<path id="XMLID_148_" class="st6" d="M197.7,554.9c0.1-3.8-0.9-18.2-3.3-23.9c-2.4,5.7-3.4,20.1-3.3,23.9"/>
	<path id="XMLID_147_" class="st6" d="M180.9,554.9c0-7.4-4.9-17.8-4.9-17.8c6.5,3.2,10.2,12.9,10.8,17.8"/>
	<path id="XMLID_146_" class="st6" d="M207.9,554.9c0-7.4,4.9-17.8,4.9-17.8c-6.5,3.2-10.2,12.9-10.8,17.8"/>
	<path id="XMLID_145_" class="st6" d="M203.8,554.9h-1.7c0.2-2,0.7-4,1.5-5.9c-0.1,1.6,0,3.2,0,4.9
		C203.7,554.2,203.7,554.5,203.8,554.9z"/>
	<path id="XMLID_144_" class="st6" d="M203.8,554.9h-0.2c0-0.3,0.1-0.7,0.2-1.1C203.7,554.2,203.7,554.5,203.8,554.9z"/>
</g>
<path id="XMLID_142_" class="st5" d="M218.3,555.6h-47.8c-0.4,0-0.7-0.3-0.7-0.7s0.3-0.7,0.7-0.7h47.8c0.4,0,0.7,0.3,0.7,0.7
	S218.7,555.6,218.3,555.6z"/>
<path id="XMLID_159_" class="st5" d="M228.4,445.8c0.8-6.4-1-18.4-2.1-20.9c5.5,5.3,7.6,14.6,8.4,20.9"/>
<path id="XMLID_158_" class="st5" d="M247.1,445.8c-0.8-6.4,1-18.4,2.1-20.9c-5.5,5.3-7.6,14.6-8.4,20.9"/>
<g id="XMLID_152_">
	<path id="XMLID_157_" class="st6" d="M241,445.8c0.1-3.8-0.9-18.2-3.3-23.9c-2.4,5.7-3.4,20.1-3.3,23.9"/>
	<path id="XMLID_156_" class="st6" d="M224.2,445.8c0-7.4-4.9-17.8-4.9-17.8c6.5,3.2,10.2,12.9,10.8,17.8"/>
	<path id="XMLID_155_" class="st6" d="M251.2,445.8c0-7.4,4.9-17.8,4.9-17.8c-6.5,3.2-10.2,12.9-10.8,17.8"/>
	<path id="XMLID_154_" class="st6" d="M247.1,445.8h-1.7c0.2-2,0.7-4,1.5-5.9c-0.1,1.6,0,3.2,0,4.9C247,445.1,247,445.4,247.1,445.8
		z"/>
	<path id="XMLID_153_" class="st6" d="M247.1,445.8h-0.2c0-0.3,0.1-0.7,0.2-1.1C247,445.1,247,445.4,247.1,445.8z"/>
</g>
<path id="XMLID_151_" class="st5" d="M261.6,446.5h-47.8c-0.4,0-0.7-0.3-0.7-0.7s0.3-0.7,0.7-0.7h47.8c0.4,0,0.7,0.3,0.7,0.7
	S262,446.5,261.6,446.5z"/>
<path id="XMLID_168_" class="st5" d="M254.4,497.3c0.8-6.4-1-18.4-2.1-20.9c5.5,5.3,7.6,14.6,8.4,20.9"/>
<path id="XMLID_167_" class="st5" d="M273.1,497.3c-0.8-6.4,1-18.4,2.1-20.9c-5.5,5.3-7.6,14.6-8.4,20.9"/>
<g id="XMLID_161_">
	<path id="XMLID_166_" class="st6" d="M267.1,497.3c0.1-3.8-0.9-18.2-3.3-23.9c-2.4,5.7-3.4,20.1-3.3,23.9"/>
	<path id="XMLID_165_" class="st6" d="M250.3,497.3c0-7.4-4.9-17.8-4.9-17.8c6.5,3.2,10.2,12.9,10.8,17.8"/>
	<path id="XMLID_164_" class="st6" d="M277.2,497.3c0-7.4,4.9-17.8,4.9-17.8c-6.5,3.2-10.2,12.9-10.8,17.8"/>
	<path id="XMLID_163_" class="st6" d="M273.1,497.3h-1.7c0.2-2,0.7-4,1.5-5.9c-0.1,1.6,0,3.2,0,4.9C273,496.6,273.1,497,273.1,497.3
		z"/>
	<path id="XMLID_162_" class="st6" d="M273.1,497.3h-0.2c0-0.3,0.1-0.7,0.2-1.1C273,496.6,273.1,497,273.1,497.3z"/>
</g>
<path id="XMLID_160_" class="st5" d="M287.6,498h-47.8c-0.4,0-0.7-0.3-0.7-0.7s0.3-0.7,0.7-0.7h47.8c0.4,0,0.7,0.3,0.7,0.7
	S288,498,287.6,498z"/>
<path id="XMLID_177_" class="st5" d="M339.1,448.5c0.8-6.4-1-18.4-2.1-20.9c5.5,5.3,7.6,14.6,8.4,20.9"/>
<path id="XMLID_176_" class="st5" d="M357.8,448.5c-0.8-6.4,1-18.4,2.1-20.9c-5.5,5.3-7.6,14.6-8.4,20.9"/>
<g id="XMLID_170_">
	<path id="XMLID_175_" class="st6" d="M351.8,448.5c0.1-3.8-0.9-18.2-3.3-23.9c-2.4,5.7-3.4,20.1-3.3,23.9"/>
	<path id="XMLID_174_" class="st6" d="M334.9,448.5c0-7.4-4.9-17.8-4.9-17.8c6.5,3.2,10.2,12.9,10.8,17.8"/>
	<path id="XMLID_173_" class="st6" d="M361.9,448.5c0-7.4,4.9-17.8,4.9-17.8c-6.5,3.2-10.2,12.9-10.8,17.8"/>
	<path id="XMLID_172_" class="st6" d="M357.8,448.5h-1.7c0.2-2,0.7-4,1.5-5.9c-0.1,1.6,0,3.2,0,4.9
		C357.7,447.8,357.7,448.1,357.8,448.5z"/>
	<path id="XMLID_171_" class="st6" d="M357.8,448.5h-0.2c0-0.3,0.1-0.7,0.2-1.1C357.7,447.8,357.7,448.1,357.8,448.5z"/>
</g>
<path id="XMLID_169_" class="st5" d="M372.3,449.2h-47.8c-0.4,0-0.7-0.3-0.7-0.7s0.3-0.7,0.7-0.7h47.8c0.4,0,0.7,0.3,0.7,0.7
	C373.1,448.9,372.7,449.2,372.3,449.2z"/>
<path id="XMLID_186_" class="st5" d="M94.6,439.2c0.8-6.4-1-18.4-2.1-20.9c5.5,5.3,7.6,14.6,8.4,20.9"/>
<path id="XMLID_185_" class="st5" d="M113.3,439.2c-0.8-6.4,1-18.4,2.1-20.9c-5.5,5.3-7.6,14.6-8.4,20.9"/>
<g id="XMLID_179_">
	<path id="XMLID_184_" class="st6" d="M107.2,439.2c0.1-3.8-0.9-18.2-3.3-23.9c-2.4,5.7-3.4,20.1-3.3,23.9"/>
	<path id="XMLID_183_" class="st6" d="M90.4,439.2c0-7.4-4.9-17.8-4.9-17.8c6.5,3.2,10.2,12.9,10.8,17.8"/>
	<path id="XMLID_182_" class="st6" d="M117.4,439.2c0-7.4,4.9-17.8,4.9-17.8c-6.5,3.2-10.2,12.9-10.8,17.8"/>
	<path id="XMLID_181_" class="st6" d="M113.3,439.2h-1.7c0.2-2,0.7-4,1.5-5.9c-0.1,1.6,0,3.2,0,4.9
		C113.2,438.5,113.2,438.8,113.3,439.2z"/>
	<path id="XMLID_180_" class="st6" d="M113.3,439.2H113c0-0.3,0.1-0.7,0.2-1.1C113.2,438.5,113.2,438.8,113.3,439.2z"/>
</g>
<path id="XMLID_178_" class="st5" d="M127.8,439.9H80c-0.4,0-0.7-0.3-0.7-0.7s0.3-0.7,0.7-0.7h47.8c0.4,0,0.7,0.3,0.7,0.7
	S128.2,439.9,127.8,439.9z"/>
<path id="XMLID_195_" class="st5" d="M162.6,397.1c0.8-6.4-1-18.4-2.1-20.9c5.5,5.3,7.6,14.6,8.4,20.9"/>
<path id="XMLID_194_" class="st5" d="M181.3,397.1c-0.8-6.4,1-18.4,2.1-20.9c-5.5,5.3-7.6,14.6-8.4,20.9"/>
<g id="XMLID_188_">
	<path id="XMLID_193_" class="st6" d="M175.2,397.1c0.1-3.8-0.9-18.2-3.3-23.9c-2.4,5.7-3.4,20.1-3.3,23.9"/>
	<path id="XMLID_192_" class="st6" d="M158.4,397.1c0-7.4-4.9-17.8-4.9-17.8c6.5,3.2,10.2,12.9,10.8,17.8"/>
	<path id="XMLID_191_" class="st6" d="M185.4,397.1c0-7.4,4.9-17.8,4.9-17.8c-6.5,3.2-10.2,12.9-10.8,17.8"/>
	<path id="XMLID_190_" class="st6" d="M181.3,397.1h-1.7c0.2-2,0.7-4,1.5-5.9c-0.1,1.6,0,3.2,0,4.9
		C181.2,396.4,181.2,396.8,181.3,397.1z"/>
	<path id="XMLID_189_" class="st6" d="M181.3,397.1H181c0-0.3,0.1-0.7,0.2-1.1C181.2,396.4,181.2,396.8,181.3,397.1z"/>
</g>
<path id="XMLID_187_" class="st5" d="M195.8,397.9H148c-0.4,0-0.7-0.3-0.7-0.7s0.3-0.7,0.7-0.7h47.8c0.4,0,0.7,0.3,0.7,0.7
	S196.2,397.9,195.8,397.9z"/>
<path id="XMLID_204_" class="st5" d="M270.7,402.8c0.8-6.4-1-18.4-2.1-20.9c5.5,5.3,7.6,14.6,8.4,20.9"/>
<path id="XMLID_203_" class="st5" d="M289.4,402.8c-0.8-6.4,1-18.4,2.1-20.9c-5.5,5.3-7.6,14.6-8.4,20.9"/>
<g id="XMLID_197_">
	<path id="XMLID_202_" class="st6" d="M283.4,402.8c0.1-3.8-0.9-18.2-3.3-23.9c-2.4,5.7-3.4,20.1-3.3,23.9"/>
	<path id="XMLID_201_" class="st6" d="M266.5,402.8c0-7.4-4.9-17.8-4.9-17.8c6.5,3.2,10.2,12.9,10.8,17.8"/>
	<path id="XMLID_200_" class="st6" d="M293.5,402.8c0-7.4,4.9-17.8,4.9-17.8c-6.5,3.2-10.2,12.9-10.8,17.8"/>
	<path id="XMLID_199_" class="st6" d="M289.4,402.8h-1.7c0.2-2,0.7-4,1.5-5.9c-0.1,1.6,0,3.2,0,4.9
		C289.3,402.1,289.3,402.5,289.4,402.8z"/>
	<path id="XMLID_198_" class="st6" d="M289.4,402.8h-0.2c0-0.3,0.1-0.7,0.2-1.1C289.3,402.1,289.3,402.5,289.4,402.8z"/>
</g>
<path id="XMLID_196_" class="st5" d="M303.9,403.5h-47.8c-0.4,0-0.7-0.3-0.7-0.7s0.3-0.7,0.7-0.7h47.8c0.4,0,0.7,0.3,0.7,0.7
	S304.3,403.5,303.9,403.5z"/>
<path id="XMLID_213_" class="st5" d="M335,521.7c0.8-6.4-1-18.4-2.1-20.9c5.5,5.3,7.6,14.6,8.4,20.9"/>
<path id="XMLID_212_" class="st5" d="M353.7,521.7c-0.8-6.4,1-18.4,2.1-20.9c-5.5,5.3-7.6,14.6-8.4,20.9"/>
<g id="XMLID_206_">
	<path id="XMLID_211_" class="st6" d="M347.7,521.7c0.1-3.8-0.9-18.2-3.3-23.9c-2.4,5.7-3.4,20.1-3.3,23.9"/>
	<path id="XMLID_210_" class="st6" d="M330.9,521.7c0-7.4-4.9-17.8-4.9-17.8c6.5,3.2,10.2,12.9,10.8,17.8"/>
	<path id="XMLID_209_" class="st6" d="M357.9,521.7c0-7.4,4.9-17.8,4.9-17.8c-6.5,3.2-10.2,12.9-10.8,17.8"/>
	<path id="XMLID_208_" class="st6" d="M353.7,521.7H352c0.2-2,0.7-4,1.5-5.9c-0.1,1.6,0,3.2,0,4.9
		C353.6,521,353.7,521.3,353.7,521.7z"/>
	<path id="XMLID_207_" class="st6" d="M353.7,521.7h-0.2c0-0.3,0.1-0.7,0.2-1.1C353.6,521,353.7,521.3,353.7,521.7z"/>
</g>
<path id="XMLID_205_" class="st5" d="M368.3,522.4h-47.8c-0.4,0-0.7-0.3-0.7-0.7s0.3-0.7,0.7-0.7h47.8c0.4,0,0.7,0.3,0.7,0.7
	S368.7,522.4,368.3,522.4z"/>
<path id="XMLID_222_" class="st5" d="M367.1,365.5c0.8-6.4-1-18.4-2.1-20.9c5.5,5.3,7.6,14.6,8.4,20.9"/>
<path id="XMLID_221_" class="st5" d="M385.8,365.5c-0.8-6.4,1-18.4,2.1-20.9c-5.5,5.3-7.6,14.6-8.4,20.9"/>
<g id="XMLID_215_">
	<path id="XMLID_220_" class="st6" d="M379.7,365.5c0.1-3.8-0.9-18.2-3.3-23.9c-2.4,5.7-3.4,20.1-3.3,23.9"/>
	<path id="XMLID_219_" class="st6" d="M362.9,365.5c0-7.4-4.9-17.8-4.9-17.8c6.5,3.2,10.2,12.9,10.8,17.8"/>
	<path id="XMLID_218_" class="st6" d="M389.9,365.5c0-7.4,4.9-17.8,4.9-17.8c-6.5,3.2-10.2,12.9-10.8,17.8"/>
	<path id="XMLID_217_" class="st6" d="M385.8,365.5h-1.7c0.2-2,0.7-4,1.5-5.9c-0.1,1.6,0,3.2,0,4.9
		C385.7,364.8,385.7,365.1,385.8,365.5z"/>
	<path id="XMLID_216_" class="st6" d="M385.8,365.5h-0.2c0-0.3,0.1-0.7,0.2-1.1C385.7,364.8,385.7,365.1,385.8,365.5z"/>
</g>
<path id="XMLID_214_" class="st5" d="M400.3,366.2h-47.8c-0.4,0-0.7-0.3-0.7-0.7s0.3-0.7,0.7-0.7h47.8c0.4,0,0.7,0.3,0.7,0.7
	S400.7,366.2,400.3,366.2z"/>
<path id="XMLID_231_" class="st5" d="M406.3,409.4c0.8-6.4-1-18.4-2.1-20.9c5.5,5.3,7.6,14.6,8.4,20.9"/>
<path id="XMLID_230_" class="st5" d="M425,409.4c-0.8-6.4,1-18.4,2.1-20.9c-5.5,5.3-7.6,14.6-8.4,20.9"/>
<g id="XMLID_224_">
	<path id="XMLID_229_" class="st6" d="M418.9,409.4c0.1-3.8-0.9-18.2-3.3-23.9c-2.4,5.7-3.4,20.1-3.3,23.9"/>
	<path id="XMLID_228_" class="st6" d="M402.1,409.4c0-7.4-4.9-17.8-4.9-17.8c6.5,3.2,10.2,12.9,10.8,17.8"/>
	<path id="XMLID_227_" class="st6" d="M429.1,409.4c0-7.4,4.9-17.8,4.9-17.8c-6.5,3.2-10.2,12.9-10.8,17.8"/>
	<path id="XMLID_226_" class="st6" d="M425,409.4h-1.7c0.2-2,0.7-4,1.5-5.9c-0.1,1.6,0,3.2,0,4.9C424.9,408.7,424.9,409.1,425,409.4
		z"/>
	<path id="XMLID_225_" class="st6" d="M425,409.4h-0.2c0-0.3,0.1-0.7,0.2-1.1C424.9,408.7,424.9,409.1,425,409.4z"/>
</g>
<path id="XMLID_223_" class="st5" d="M439.5,410.1h-47.8c-0.4,0-0.7-0.3-0.7-0.7s0.3-0.7,0.7-0.7h47.8c0.4,0,0.7,0.3,0.7,0.7
	C440.3,409.9,439.9,410.1,439.5,410.1z"/>
<path id="XMLID_240_" class="st5" d="M421,483.9c0.8-6.4-1-18.4-2.1-20.9c5.5,5.3,7.6,14.6,8.4,20.9"/>
<path id="XMLID_239_" class="st5" d="M439.7,483.9c-0.8-6.4,1-18.4,2.1-20.9c-5.5,5.3-7.6,14.6-8.4,20.9"/>
<g id="XMLID_233_">
	<path id="XMLID_238_" class="st6" d="M433.7,483.9c0.1-3.8-0.9-18.2-3.3-23.9c-2.4,5.7-3.4,20.1-3.3,23.9"/>
	<path id="XMLID_237_" class="st6" d="M416.9,483.9c0-7.4-4.9-17.8-4.9-17.8c6.5,3.2,10.2,12.9,10.8,17.8"/>
	<path id="XMLID_236_" class="st6" d="M443.9,483.9c0-7.4,4.9-17.8,4.9-17.8c-6.5,3.2-10.2,12.9-10.8,17.8"/>
	<path id="XMLID_235_" class="st6" d="M439.7,483.9H438c0.2-2,0.7-4,1.5-5.9c-0.1,1.6,0,3.2,0,4.9
		C439.6,483.2,439.7,483.5,439.7,483.9z"/>
	<path id="XMLID_234_" class="st6" d="M439.7,483.9h-0.2c0-0.3,0.1-0.7,0.2-1.1C439.6,483.2,439.7,483.5,439.7,483.9z"/>
</g>
<path id="XMLID_232_" class="st5" d="M454.3,484.6h-47.8c-0.4,0-0.7-0.3-0.7-0.7s0.3-0.7,0.7-0.7h47.8c0.4,0,0.7,0.3,0.7,0.7
	C455,484.3,454.7,484.6,454.3,484.6z"/>
<path id="XMLID_249_" class="st5" d="M475.3,548.7c0.8-6.4-1-18.4-2.1-20.9c5.5,5.3,7.6,14.6,8.4,20.9"/>
<path id="XMLID_248_" class="st5" d="M494,548.7c-0.8-6.4,1-18.4,2.1-20.9c-5.5,5.3-7.6,14.6-8.4,20.9"/>
<g id="XMLID_242_">
	<path id="XMLID_247_" class="st6" d="M488,548.7c0.1-3.8-0.9-18.2-3.3-23.9c-2.4,5.7-3.4,20.1-3.3,23.9"/>
	<path id="XMLID_246_" class="st6" d="M471.1,548.7c0-7.4-4.9-17.8-4.9-17.8c6.5,3.2,10.2,12.9,10.8,17.8"/>
	<path id="XMLID_245_" class="st6" d="M498.1,548.7c0-7.4,4.9-17.8,4.9-17.8c-6.5,3.2-10.2,12.9-10.8,17.8"/>
	<path id="XMLID_244_" class="st6" d="M494,548.7h-1.7c0.2-2,0.7-4,1.5-5.9c-0.1,1.6,0,3.2,0,4.9C493.9,548,493.9,548.3,494,548.7z"
		/>
	<path id="XMLID_243_" class="st6" d="M494,548.7h-0.2c0-0.3,0.1-0.7,0.2-1.1C493.9,548,493.9,548.3,494,548.7z"/>
</g>
<path id="XMLID_241_" class="st5" d="M508.5,549.4h-47.8c-0.4,0-0.7-0.3-0.7-0.7s0.3-0.7,0.7-0.7h47.8c0.4,0,0.7,0.3,0.7,0.7
	S508.9,549.4,508.5,549.4z"/>
<path id="XMLID_258_" class="st5" d="M513.3,483.5c0.8-6.4-1-18.4-2.1-20.9c5.5,5.3,7.6,14.6,8.4,20.9"/>
<path id="XMLID_257_" class="st5" d="M532,483.5c-0.8-6.4,1-18.4,2.1-20.9c-5.5,5.3-7.6,14.6-8.4,20.9"/>
<g id="XMLID_251_">
	<path id="XMLID_256_" class="st6" d="M526,483.5c0.1-3.8-0.9-18.2-3.3-23.9c-2.4,5.7-3.4,20.1-3.3,23.9"/>
	<path id="XMLID_255_" class="st6" d="M509.1,483.5c0-7.4-4.9-17.8-4.9-17.8c6.5,3.2,10.2,12.9,10.8,17.8"/>
	<path id="XMLID_254_" class="st6" d="M536.1,483.5c0-7.4,4.9-17.8,4.9-17.8c-6.5,3.2-10.2,12.9-10.8,17.8"/>
	<path id="XMLID_253_" class="st6" d="M532,483.5h-1.7c0.2-2,0.7-4,1.5-5.9c-0.1,1.6,0,3.2,0,4.9C531.9,482.8,531.9,483.2,532,483.5
		z"/>
	<path id="XMLID_252_" class="st6" d="M532,483.5h-0.2c0-0.3,0.1-0.7,0.2-1.1C531.9,482.8,531.9,483.2,532,483.5z"/>
</g>
<path id="XMLID_250_" class="st5" d="M546.5,484.2h-47.8c-0.4,0-0.7-0.3-0.7-0.7s0.3-0.7,0.7-0.7h47.8c0.4,0,0.7,0.3,0.7,0.7
	S546.9,484.2,546.5,484.2z"/>
<path id="XMLID_267_" class="st5" d="M496.8,418.1c0.8-6.4-1-18.4-2.1-20.9c5.5,5.3,7.6,14.6,8.4,20.9"/>
<path id="XMLID_266_" class="st5" d="M515.5,418.1c-0.8-6.4,1-18.4,2.1-20.9c-5.5,5.3-7.6,14.6-8.4,20.9"/>
<g id="XMLID_260_">
	<path id="XMLID_265_" class="st6" d="M509.5,418.1c0.1-3.8-0.9-18.2-3.3-23.9c-2.4,5.7-3.4,20.1-3.3,23.9"/>
	<path id="XMLID_264_" class="st6" d="M492.7,418.1c0-7.4-4.9-17.8-4.9-17.8c6.5,3.2,10.2,12.9,10.8,17.8"/>
	<path id="XMLID_263_" class="st6" d="M519.7,418.1c0-7.4,4.9-17.8,4.9-17.8c-6.5,3.2-10.2,12.9-10.8,17.8"/>
	<path id="XMLID_262_" class="st6" d="M515.5,418.1h-1.7c0.2-2,0.7-4,1.5-5.9c-0.1,1.6,0,3.2,0,4.9
		C515.5,417.4,515.5,417.7,515.5,418.1z"/>
	<path id="XMLID_261_" class="st6" d="M515.5,418.1h-0.2c0-0.3,0.1-0.7,0.2-1.1C515.5,417.4,515.5,417.7,515.5,418.1z"/>
</g>
<path id="XMLID_259_" class="st5" d="M530.1,418.8h-47.8c-0.4,0-0.7-0.3-0.7-0.7s0.3-0.7,0.7-0.7h47.8c0.4,0,0.7,0.3,0.7,0.7
	S530.5,418.8,530.1,418.8z"/>
<path id="XMLID_276_" class="st5" d="M441.4,357.3c0.8-6.4-1-18.4-2.1-20.9c5.5,5.3,7.6,14.6,8.4,20.9"/>
<path id="XMLID_275_" class="st5" d="M460.1,357.3c-0.8-6.4,1-18.4,2.1-20.9c-5.5,5.3-7.6,14.6-8.4,20.9"/>
<g id="XMLID_269_">
	<path id="XMLID_274_" class="st6" d="M454.1,357.3c0.1-3.8-0.9-18.2-3.3-23.9c-2.4,5.7-3.4,20.1-3.3,23.9"/>
	<path id="XMLID_273_" class="st6" d="M437.3,357.3c0-7.4-4.9-17.8-4.9-17.8c6.5,3.2,10.2,12.9,10.8,17.8"/>
	<path id="XMLID_272_" class="st6" d="M464.3,357.3c0-7.4,4.9-17.8,4.9-17.8c-6.5,3.2-10.2,12.9-10.8,17.8"/>
	<path id="XMLID_271_" class="st6" d="M460.1,357.3h-1.7c0.2-2,0.7-4,1.5-5.9c-0.1,1.6,0,3.2,0,4.9C460,356.6,460.1,357,460.1,357.3
		z"/>
	<path id="XMLID_270_" class="st6" d="M460.1,357.3h-0.2c0-0.3,0.1-0.7,0.2-1.1C460,356.6,460.1,357,460.1,357.3z"/>
</g>
<path id="XMLID_268_" class="st5" d="M474.7,358.1h-47.8c-0.4,0-0.7-0.3-0.7-0.7s0.3-0.7,0.7-0.7h47.8c0.4,0,0.7,0.3,0.7,0.7
	C475.4,357.8,475.1,358.1,474.7,358.1z"/>
<ellipse class="st7" cx="347.2" cy="439.2" rx="58.2" ry="20.4"/>
<ellipse cx="346.1" cy="439.6" rx="26.9" ry="8.9"/>
<path d="M375.6,295.2c0,21.8-5,39.3-10.4,36.3c-1.6,11.4-4.7,18.7-8,18.7v82.6c0,5.1-1,9.2-2.3,9.2h-18.5c-1.3,0-2.3-4-2.3-9.2
	v-82.6c-3.4,0-6.4-7.3-8-18.7c-5.4,2.9-10.4-14.5-10.4-36.3s5-40.1,10.4-37c2-13.8,6.2-21.7,10.2-17.6c2.2-12.1,5.6-19.5,9.4-19.5
	s7.2,7.3,9.4,19.5c4-4,8.2,3.9,10.2,17.6C370.6,255.1,375.6,273.3,375.6,295.2z"/>
<path class="st8" d="M375.6,295.2c0,21.8-5,39.3-10.4,36.3c-1.6,11.4-4.7,18.7-8,18.7v82.6c0,5.1-1,9.2-2.3,9.2h-9.2V221.1
	c3.8,0,7.2,7.3,9.4,19.5c4-4,8.2,3.9,10.2,17.6C370.6,255.1,375.6,273.3,375.6,295.2z"/>
<path class="st9" d="M347.9,341.1v36.7c0,5.1-1,9.2-2.3,9.2s-2.3-4-2.3-9.2v-36.7c0-5.1,1-9.2,2.3-9.2S347.9,335.9,347.9,341.1z"/>
<path class="st10" d="M347.9,341.1v36.7c0,5.1-1,9.2-2.3,9.2v-55.1C346.9,331.9,347.9,335.9,347.9,341.1z"/>
<path id="XMLID_280_" class="st5" d="M150.8,517.3c0.8-6.4-1-18.4-2.1-20.9c5.5,5.3,7.6,14.6,8.4,20.9"/>
<path id="XMLID_279_" class="st6" d="M163.5,517.3c0.1-3.8-0.9-18.2-3.3-23.9c-2.4,5.7-3.4,20.1-3.3,23.9"/>
<path id="XMLID_278_" class="st6" d="M146.6,517.3c0-7.4-4.9-17.8-4.9-17.8c6.5,3.2,10.2,12.9,10.8,17.8"/>
<path id="XMLID_277_" class="st5" d="M184,518h-47.8c-0.4,0-0.7-0.3-0.7-0.7s0.3-0.7,0.7-0.7H184c0.4,0,0.7,0.3,0.7,0.7
	C184.8,517.7,184.4,518,184,518z"/>
<ellipse class="st7" cx="158.9" cy="508" rx="58.2" ry="20.4"/>
<ellipse cx="157.9" cy="508.4" rx="26.9" ry="8.9"/>
<path d="M187.3,364c0,21.8-5,39.3-10.4,36.3c-1.6,11.4-4.7,18.7-8,18.7v82.6c0,5.1-1,9.2-2.3,9.2h-18.5c-1.3,0-2.3-4-2.3-9.2V419
	c-3.4,0-6.4-7.3-8-18.7c-5.4,2.9-10.4-14.5-10.4-36.3s5-40.1,10.4-37c2-13.8,6.2-21.7,10.2-17.6c2.2-12.1,5.6-19.5,9.4-19.5
	c3.8,0,7.2,7.3,9.4,19.5c4-4,8.2,3.9,10.2,17.6C182.3,323.9,187.3,342.2,187.3,364z"/>
<path class="st8" d="M187.3,364c0,21.8-5,39.3-10.4,36.3c-1.6,11.4-4.7,18.7-8,18.7v82.6c0,5.1-1,9.2-2.3,9.2h-9.2V290
	c3.8,0,7.2,7.3,9.4,19.5c4-4,8.2,3.9,10.2,17.6C182.3,323.9,187.3,342.2,187.3,364z"/>
<path class="st9" d="M159.6,409.9v36.7c0,5.1-1,9.2-2.3,9.2s-2.3-4-2.3-9.2v-36.7c0-5.1,1-9.2,2.3-9.2
	C158.6,400.7,159.6,404.8,159.6,409.9z"/>
<path class="st10" d="M159.6,409.9v36.7c0,5.1-1,9.2-2.3,9.2v-55.1C158.6,400.7,159.6,404.8,159.6,409.9z"/>
<path id="XMLID_284_" class="st5" d="M465.1,557.3c0.8-6.4-1-18.4-2.1-20.9c5.5,5.3,7.6,14.6,8.4,20.9"/>
<path id="XMLID_283_" class="st6" d="M477.8,557.3c0.1-3.8-0.9-18.2-3.3-23.9c-2.4,5.7-3.4,20.1-3.3,23.9"/>
<path id="XMLID_282_" class="st6" d="M460.9,557.3c0-7.4-4.9-17.8-4.9-17.8c6.5,3.2,10.2,12.9,10.8,17.8"/>
<path id="XMLID_281_" class="st5" d="M498.3,558h-47.8c-0.4,0-0.7-0.3-0.7-0.7s0.3-0.7,0.7-0.7h47.8c0.4,0,0.7,0.3,0.7,0.7
	C499.1,557.7,498.7,558,498.3,558z"/>
<ellipse class="st7" cx="473.2" cy="548" rx="58.2" ry="20.4"/>
<ellipse cx="472.2" cy="548.4" rx="26.9" ry="8.9"/>
<path d="M501.6,404c0,21.8-5,39.3-10.4,36.3c-1.6,11.4-4.7,18.7-8,18.7v82.6c0,5.1-1,9.2-2.3,9.2h-18.5c-1.3,0-2.3-4-2.3-9.2V459
	c-3.4,0-6.4-7.3-8-18.7c-5.4,2.9-10.4-14.5-10.4-36.3s5-40.1,10.4-37c2-13.8,6.2-21.7,10.2-17.6c2.2-12.1,5.6-19.5,9.4-19.5
	s7.2,7.3,9.4,19.5c4-4,8.2,3.9,10.2,17.6C496.6,363.9,501.6,382.2,501.6,404z"/>
<path class="st8" d="M501.6,404c0,21.8-5,39.3-10.4,36.3c-1.6,11.4-4.7,18.7-8,18.7v82.6c0,5.1-1,9.2-2.3,9.2h-9.2V330
	c3.8,0,7.2,7.3,9.4,19.5c4-4,8.2,3.9,10.2,17.6C496.6,363.9,501.6,382.2,501.6,404z"/>
<path class="st9" d="M473.9,449.9v36.7c0,5.1-1,9.2-2.3,9.2s-2.3-4-2.3-9.2v-36.7c0-5.1,1-9.2,2.3-9.2
	C472.9,440.7,473.9,444.8,473.9,449.9z"/>
<path class="st10" d="M473.9,449.9v36.7c0,5.1-1,9.2-2.3,9.2v-55.1C472.9,440.7,473.9,444.8,473.9,449.9z"/>
</svg>
