<svg height="480pt" viewBox="0 0 480 480" width="480pt" xmlns="http://www.w3.org/2000/svg"><path d="m8.667969 276.738281 64.027343-143.984375 14.621094 6.5-64.027344 143.988282zm0 0" fill="#cb9e78"/><path d="m88.683594 139.25 14.617187-6.496094 63.996094 144-14.621094 6.5zm0 0" fill="#bc8f6f"/><path d="m312.664062 276.75 64.023438-143.984375 14.621094 6.5-64.027344 143.984375zm0 0" fill="#cb9e78"/><path d="m392.679688 139.261719 14.621093-6.496094 63.992188 144-14.621094 6.496094zm0 0" fill="#bc8f6f"/><path d="m176 272h-176c0 26.511719 21.488281 48 48 48h80c26.511719 0 48-21.488281 48-48zm0 0" fill="#bc8f6f"/><path d="m480 272h-176c0 26.511719 21.488281 48 48 48h80c26.511719 0 48-21.488281 48-48zm0 0" fill="#bc8f6f"/><path d="m152 272h-152c0 26.511719 21.488281 48 48 48h56c26.511719 0 48-21.488281 48-48zm0 0" fill="#cb9e78"/><path d="m456 272h-152c0 26.511719 21.488281 48 48 48h56c26.511719 0 48-21.488281 48-48zm0 0" fill="#cb9e78"/><path d="m328 448h-176c-17.671875 0-32 14.328125-32 32h240c0-17.671875-14.328125-32-32-32zm0 0" fill="#bc8f6f"/><path d="m280 416h-80c-17.671875 0-32 14.328125-32 32h144c0-17.671875-14.328125-32-32-32zm0 0" fill="#cb9e78"/><path d="m112 96h112v-40h32v40h112v32h-112v288h-32v-288h-112zm0 0" fill="#7e4e4d"/><path d="m112 112h112v-56h16v56h128v16h-128v288h-16v-288h-112zm0 0" fill="#8d5655"/><path d="m272 32c0 17.671875-14.328125 32-32 32s-32-14.328125-32-32 14.328125-32 32-32 32 14.328125 32 32zm0 0" fill="#bc8f6f"/><path d="m424 112c0 17.671875-14.328125 32-32 32s-32-14.328125-32-32 14.328125-32 32-32 32 14.328125 32 32zm0 0" fill="#bc8f6f"/><path d="m120 112c0 17.671875-14.328125 32-32 32s-32-14.328125-32-32 14.328125-32 32-32 32 14.328125 32 32zm0 0" fill="#bc8f6f"/><g fill="#cb9e78"><path d="m104 112c0 8.835938-7.164062 16-16 16s-16-7.164062-16-16 7.164062-16 16-16 16 7.164062 16 16zm0 0"/><path d="m256 32c0 8.835938-7.164062 16-16 16s-16-7.164062-16-16 7.164062-16 16-16 16 7.164062 16 16zm0 0"/><path d="m408 112c0 8.835938-7.164062 16-16 16s-16-7.164062-16-16 7.164062-16 16-16 16 7.164062 16 16zm0 0"/></g></svg>