<?xml version="1.0" encoding="UTF-8" standalone="no"?>
<!DOCTYPE svg PUBLIC "-//W3C//DTD SVG 1.1//EN" "http://www.w3.org/Graphics/SVG/1.1/DTD/svg11.dtd">
<svg version="1.1" xmlns="http://www.w3.org/2000/svg" xmlns:xlink="http://www.w3.org/1999/xlink" preserveAspectRatio="xMidYMid meet" viewBox="0 0 640 640" width="640" height="640"><defs><path d="M315.47 18.64C486.35 18.64 626.15 158.45 626.15 329.32C626.15 500.19 486.35 640 315.47 640C144.6 640 4.79 500.19 4.79 329.32C4.79 158.45 144.6 18.64 315.47 18.64Z" id="e161uykcSm"></path><path d="M315.47 18.64C486.35 18.64 626.15 158.45 626.15 329.32C626.15 500.19 486.35 640 315.47 640C144.6 640 4.79 500.19 4.79 329.32C4.79 158.45 144.6 18.64 315.47 18.64Z" id="g4I4eARjCt"></path><path d="M24.47 310.68C24.47 471.4 154.76 601.68 315.47 601.68C476.19 601.68 606.48 471.4 606.48 310.68C606.48 149.96 476.19 19.68 315.47 19.68C154.76 19.68 24.47 149.96 24.47 310.68Z" id="bSvRmz0mN"></path><path d="M28.99 310.68C28.99 471.4 159.28 601.68 319.99 601.68C480.71 601.68 611 471.4 611 310.68C611 149.96 480.71 19.68 319.99 19.68C159.28 19.68 28.99 149.96 28.99 310.68Z" id="a2mw6Sf4rp"></path><path d="M537.09 123.24C484.28 60.06 404.54 19.68 315.47 19.68C154.96 19.68 24.47 150.16 24.47 310.68C24.47 399.74 64.86 479.48 128.03 533.33C84.54 482.59 58.65 417.35 58.65 345.89C58.65 185.37 189.13 54.89 349.65 54.89C421.11 54.89 486.35 80.78 537.09 123.24Z" id="a1jQCCeJn"></path><path d="M537.09 123.24C484.28 60.06 404.54 19.68 315.47 19.68C154.96 19.68 24.47 150.16 24.47 310.68C24.47 399.74 64.86 479.48 128.03 533.33C84.54 482.59 58.65 417.35 58.65 345.89C58.65 185.37 189.13 54.89 349.65 54.89C421.11 54.89 486.35 80.78 537.09 123.24Z" id="ghTauKTdA"></path><path d="M521.56 105.63C635.47 219.55 635.47 403.88 521.56 517.8C407.64 631.72 223.31 631.72 109.39 517.8" id="b1dykcNIez"></path><path d="M511.95 105.63C623.2 216.89 623.2 396.93 511.95 508.19C400.69 619.46 220.65 619.46 109.39 508.19" id="f3FjpWc16"></path><path d="M340.86 1.03L353.35 2.31L365.7 4.09L377.88 6.34L389.9 9.07L401.75 12.26L413.4 15.91L424.86 19.99L436.11 24.51L447.14 29.46L457.94 34.81L468.5 40.57L478.81 46.72L488.87 53.25L498.65 60.15L508.16 67.41L517.37 75.02L526.29 82.98L534.89 91.26L543.18 99.87L551.13 108.78L558.74 118L566.01 127.5L572.91 137.29L579.44 147.34L585.59 157.66L591.34 168.22L596.7 179.02L601.64 190.05L606.16 201.3L610.25 212.75L613.89 224.41L617.08 236.25L619.81 248.27L622.07 260.46L623.84 272.8L625.12 285.3L625.89 297.92L626.15 310.68L625.89 323.44L625.12 336.06L623.84 348.56L622.07 360.9L619.81 373.09L617.08 385.11L613.89 396.95L610.25 408.61L606.16 420.06L601.64 431.31L596.7 442.34L591.34 453.14L585.59 463.7L579.44 474.02L572.91 484.07L566.01 493.86L558.74 503.36L551.13 512.58L543.18 521.49L534.89 530.1L526.29 538.38L517.37 546.34L508.16 553.95L498.65 561.21L488.87 568.11L478.81 574.64L468.5 580.79L457.94 586.55L447.14 591.9L436.11 596.84L424.86 601.36L413.4 605.45L401.75 609.1L389.9 612.29L377.88 615.02L365.7 617.27L353.35 619.05L340.86 620.32L328.23 621.1L315.47 621.36L302.72 621.1L290.09 620.32L277.6 619.05L265.25 617.27L253.07 615.02L241.05 612.29L229.2 609.1L217.55 605.45L206.09 601.36L194.84 596.84L183.81 591.9L173.01 586.55L162.45 580.79L152.14 574.64L142.08 568.11L132.3 561.21L122.79 553.95L113.58 546.34L104.66 538.38L96.06 530.1L87.77 521.49L79.82 512.58L72.2 503.36L64.94 493.86L58.04 484.07L51.51 474.02L45.36 463.7L39.61 453.14L34.25 442.34L29.31 431.31L24.79 420.06L20.7 408.61L17.06 396.95L13.86 385.11L11.14 373.09L8.88 360.9L7.11 348.56L5.83 336.06L5.06 323.44L4.79 310.68L5.06 297.92L5.83 285.3L7.11 272.8L8.88 260.46L11.14 248.27L13.86 236.25L17.06 224.41L20.7 212.75L24.79 201.3L29.31 190.05L34.25 179.02L39.61 168.22L45.36 157.66L51.51 147.34L58.04 137.29L64.94 127.5L72.2 118L79.82 108.78L87.77 99.87L96.06 91.26L104.66 82.98L113.58 75.02L122.79 67.41L132.3 60.15L142.08 53.25L152.14 46.72L162.45 40.57L173.01 34.81L183.81 29.46L194.84 24.51L206.09 19.99L217.55 15.91L229.2 12.26L241.05 9.07L253.07 6.34L265.25 4.09L277.6 2.31L290.09 1.03L302.72 0.26L315.47 0L328.23 0.26L340.86 1.03ZM293.18 40.26L282.22 41.37L271.39 42.92L260.7 44.89L250.17 47.28L239.8 50.07L229.59 53.25L219.57 56.83L209.73 60.78L200.09 65.1L190.65 69.77L181.42 74.8L172.41 80.18L163.64 85.88L155.1 91.91L146.81 98.26L138.77 104.91L131 111.86L123.5 119.09L116.28 126.61L109.36 134.4L102.73 142.45L96.41 150.75L90.4 159.3L84.72 168.08L79.38 177.08L74.37 186.31L69.72 195.74L65.43 205.37L61.5 215.19L57.95 225.2L54.79 235.37L52.01 245.71L49.65 256.21L47.69 266.84L46.15 277.62L45.04 288.52L44.37 299.55L44.15 310.68L44.37 321.89L45.05 332.97L46.17 343.94L47.72 354.77L49.69 365.45L52.07 375.98L54.86 386.36L58.05 396.56L61.62 406.59L65.57 416.42L69.89 426.07L74.57 435.51L79.6 444.74L84.97 453.74L90.68 462.52L96.71 471.06L103.05 479.35L109.7 487.38L116.65 495.16L123.89 502.65L131.41 509.87L139.19 516.8L147.24 523.43L155.54 529.75L164.09 535.75L172.87 541.43L181.88 546.78L191.1 551.78L200.54 556.43L210.17 560.73L219.99 564.65L229.99 568.2L240.17 571.37L250.51 574.14L261 576.51L271.64 578.46L282.42 580L293.32 581.11L304.34 581.78L315.47 582.01L326.61 581.78L337.63 581.1L348.53 579.98L359.31 578.44L369.95 576.46L380.44 574.08L390.78 571.29L400.96 568.1L410.96 564.53L420.78 560.58L430.41 556.26L439.85 551.58L449.07 546.55L458.08 541.18L466.86 535.48L475.4 529.45L483.71 523.1L491.76 516.45L499.54 509.5L507.06 502.27L514.3 494.75L521.25 486.96L527.9 478.91L534.24 470.61L540.27 462.06L545.98 453.28L551.35 444.28L556.38 435.05L561.06 425.62L565.38 415.99L569.33 406.17L572.9 396.16L576.08 385.99L578.87 375.65L581.26 365.15L583.23 354.51L584.78 343.74L585.9 332.83L586.57 321.81L586.8 310.68L586.58 299.55L585.9 288.52L584.8 277.62L583.26 266.84L581.3 256.21L578.93 245.71L576.16 235.37L573 225.2L569.45 215.19L565.52 205.37L561.23 195.74L556.58 186.31L551.57 177.08L546.22 168.08L540.55 159.3L534.54 150.75L528.22 142.45L521.59 134.4L514.67 126.61L507.45 119.09L499.95 111.86L492.18 104.91L484.14 98.26L475.85 91.91L467.31 85.88L458.54 80.18L449.53 74.8L440.3 69.77L430.86 65.1L421.22 60.78L411.38 56.83L401.35 53.25L391.15 50.07L380.78 47.28L370.25 44.89L359.56 42.92L348.73 41.37L337.77 40.26L326.68 39.58L315.47 39.35L304.27 39.58L293.18 40.26Z" id="b116vhPjhe"></path><path d="M340.86 1.03L353.35 2.31L365.7 4.09L377.88 6.34L389.9 9.07L401.75 12.26L413.4 15.91L424.86 19.99L436.11 24.51L447.14 29.46L457.94 34.81L468.5 40.57L478.81 46.72L488.87 53.25L498.65 60.15L508.16 67.41L517.37 75.02L526.29 82.98L534.89 91.26L543.18 99.87L551.13 108.78L558.74 118L566.01 127.5L572.91 137.29L579.44 147.34L585.59 157.66L591.34 168.22L596.7 179.02L601.64 190.05L606.16 201.3L610.25 212.75L613.89 224.41L617.08 236.25L619.81 248.27L622.07 260.46L623.84 272.8L625.12 285.3L625.89 297.92L626.15 310.68L625.89 323.44L625.12 336.06L623.84 348.56L622.07 360.9L619.81 373.09L617.08 385.11L613.89 396.95L610.25 408.61L606.16 420.06L601.64 431.31L596.7 442.34L591.34 453.14L585.59 463.7L579.44 474.02L572.91 484.07L566.01 493.86L558.74 503.36L551.13 512.58L543.18 521.49L534.89 530.1L526.29 538.38L517.37 546.34L508.16 553.95L498.65 561.21L488.87 568.11L478.81 574.64L468.5 580.79L457.94 586.55L447.14 591.9L436.11 596.84L424.86 601.36L413.4 605.45L401.75 609.1L389.9 612.29L377.88 615.02L365.7 617.27L353.35 619.05L340.86 620.32L328.23 621.1L315.47 621.36L302.72 621.1L290.09 620.32L277.6 619.05L265.25 617.27L253.07 615.02L241.05 612.29L229.2 609.1L217.55 605.45L206.09 601.36L194.84 596.84L183.81 591.9L173.01 586.55L162.45 580.79L152.14 574.64L142.08 568.11L132.3 561.21L122.79 553.95L113.58 546.34L104.66 538.38L96.06 530.1L87.77 521.49L79.82 512.58L72.2 503.36L64.94 493.86L58.04 484.07L51.51 474.02L45.36 463.7L39.61 453.14L34.25 442.34L29.31 431.31L24.79 420.06L20.7 408.61L17.06 396.95L13.86 385.11L11.14 373.09L8.88 360.9L7.11 348.56L5.83 336.06L5.06 323.44L4.79 310.68L5.06 297.92L5.83 285.3L7.11 272.8L8.88 260.46L11.14 248.27L13.86 236.25L17.06 224.41L20.7 212.75L24.79 201.3L29.31 190.05L34.25 179.02L39.61 168.22L45.36 157.66L51.51 147.34L58.04 137.29L64.94 127.5L72.2 118L79.82 108.78L87.77 99.87L96.06 91.26L104.66 82.98L113.58 75.02L122.79 67.41L132.3 60.15L142.08 53.25L152.14 46.72L162.45 40.57L173.01 34.81L183.81 29.46L194.84 24.51L206.09 19.99L217.55 15.91L229.2 12.26L241.05 9.07L253.07 6.34L265.25 4.09L277.6 2.31L290.09 1.03L302.72 0.26L315.47 0L328.23 0.26L340.86 1.03ZM293.18 40.26L282.22 41.37L271.39 42.92L260.7 44.89L250.17 47.28L239.8 50.07L229.59 53.25L219.57 56.83L209.73 60.78L200.09 65.1L190.65 69.77L181.42 74.8L172.41 80.18L163.64 85.88L155.1 91.91L146.81 98.26L138.77 104.91L131 111.86L123.5 119.09L116.28 126.61L109.36 134.4L102.73 142.45L96.41 150.75L90.4 159.3L84.72 168.08L79.38 177.08L74.37 186.31L69.72 195.74L65.43 205.37L61.5 215.19L57.95 225.2L54.79 235.37L52.01 245.71L49.65 256.21L47.69 266.84L46.15 277.62L45.04 288.52L44.37 299.55L44.15 310.68L44.37 321.89L45.05 332.97L46.17 343.94L47.72 354.77L49.69 365.45L52.07 375.98L54.86 386.36L58.05 396.56L61.62 406.59L65.57 416.42L69.89 426.07L74.57 435.51L79.6 444.74L84.97 453.74L90.68 462.52L96.71 471.06L103.05 479.35L109.7 487.38L116.65 495.16L123.89 502.65L131.41 509.87L139.19 516.8L147.24 523.43L155.54 529.75L164.09 535.75L172.87 541.43L181.88 546.78L191.1 551.78L200.54 556.43L210.17 560.73L219.99 564.65L229.99 568.2L240.17 571.37L250.51 574.14L261 576.51L271.64 578.46L282.42 580L293.32 581.11L304.34 581.78L315.47 582.01L326.61 581.78L337.63 581.1L348.53 579.98L359.31 578.44L369.95 576.46L380.44 574.08L390.78 571.29L400.96 568.1L410.96 564.53L420.78 560.58L430.41 556.26L439.85 551.58L449.07 546.55L458.08 541.18L466.86 535.48L475.4 529.45L483.71 523.1L491.76 516.45L499.54 509.5L507.06 502.27L514.3 494.75L521.25 486.96L527.9 478.91L534.24 470.61L540.27 462.06L545.98 453.28L551.35 444.28L556.38 435.05L561.06 425.62L565.38 415.99L569.33 406.17L572.9 396.16L576.08 385.99L578.87 375.65L581.26 365.15L583.23 354.51L584.78 343.74L585.9 332.83L586.57 321.81L586.8 310.68L586.58 299.55L585.9 288.52L584.8 277.62L583.26 266.84L581.3 256.21L578.93 245.71L576.16 235.37L573 225.2L569.45 215.19L565.52 205.37L561.23 195.74L556.58 186.31L551.57 177.08L546.22 168.08L540.55 159.3L534.54 150.75L528.22 142.45L521.59 134.4L514.67 126.61L507.45 119.09L499.95 111.86L492.18 104.91L484.14 98.26L475.85 91.91L467.31 85.88L458.54 80.18L449.53 74.8L440.3 69.77L430.86 65.1L421.22 60.78L411.38 56.83L401.35 53.25L391.15 50.07L380.78 47.28L370.25 44.89L359.56 42.92L348.73 41.37L337.77 40.26L326.68 39.58L315.47 39.35L304.27 39.58L293.18 40.26Z" id="bZ35w1kTV"></path><path d="M344.47 30.03C291.66 30.03 242.98 43.5 199.49 66.28C234.7 48.67 274.05 39.35 315.47 39.35C397.29 39.35 471.85 76.63 521.56 134.63C579.55 184.34 615.8 257.86 615.8 340.71C615.8 382.14 606.48 421.49 589.91 456.7C612.69 413.2 626.15 363.5 626.15 310.68C626.15 231.97 597.16 160.52 549.52 106.67C494.63 59.03 423.18 30.03 344.47 30.03Z" id="ayX0xmXhh"></path><path d="M344.47 30.03C291.66 30.03 242.98 43.5 199.49 66.28C234.7 48.67 274.05 39.35 315.47 39.35C397.29 39.35 471.85 76.63 521.56 134.63C579.55 184.34 615.8 257.86 615.8 340.71C615.8 382.14 606.48 421.49 589.91 456.7C612.69 413.2 626.15 363.5 626.15 310.68C626.15 231.97 597.16 160.52 549.52 106.67C494.63 59.03 423.18 30.03 344.47 30.03Z" id="c1PUQ9u7y8"></path><path d="M314.44 621.36C367.25 621.36 415.93 607.9 459.42 585.11C424.21 601.68 384.86 611 343.44 611C261.62 611 187.06 573.72 137.35 515.73C79.36 466.02 42.08 392.49 42.08 309.64C42.08 268.22 51.4 228.87 67.97 193.66C47.25 238.19 33.79 287.9 33.79 340.71C33.79 419.42 62.79 490.87 110.43 544.72C165.31 592.36 236.77 621.36 314.44 621.36Z" id="a475M8cIqd"></path><path d="M314.44 621.36C367.25 621.36 415.93 607.9 459.42 585.11C424.21 601.68 384.86 611 343.44 611C261.62 611 187.06 573.72 137.35 515.73C79.36 466.02 42.08 392.49 42.08 309.64C42.08 268.22 51.4 228.87 67.97 193.66C47.25 238.19 33.79 287.9 33.79 340.71C33.79 419.42 62.79 490.87 110.43 544.72C165.31 592.36 236.77 621.36 314.44 621.36Z" id="b1AhasomcI"></path><path d="M483.08 308.44C509.31 283.42 523.89 269.52 526.8 266.74C528.41 265.2 529.07 262.94 528.54 260.79C528.01 258.64 526.36 256.93 524.23 256.32C520.35 255.2 500.95 249.6 466.04 239.52C478.94 205.73 486.11 186.96 487.54 183.21C488.33 181.14 487.95 178.81 486.55 177.09C485.14 175.38 482.92 174.54 480.72 174.89C476.74 175.53 456.8 178.75 420.91 184.53C417.99 148.51 416.37 128.49 416.05 124.49C415.87 122.28 414.52 120.34 412.51 119.39C410.5 118.44 408.13 118.63 406.3 119.89C402.98 122.17 386.35 133.57 356.43 154.1C338.25 122.8 328.15 105.4 326.13 101.93C325.02 100.01 322.96 98.83 320.74 98.83C318.51 98.83 316.45 100.01 315.34 101.93C313.02 105.92 301.43 125.88 280.56 161.81C244.47 140.98 224.42 129.41 220.41 127.1C218.48 125.98 216.11 125.98 214.18 127.08C212.25 128.18 211.06 130.23 211.05 132.44C211.04 136.45 210.99 156.53 210.91 192.68C174.68 189.69 154.55 188.03 150.52 187.7C148.31 187.52 146.16 188.53 144.89 190.35C143.62 192.16 143.43 194.52 144.38 196.52C146.1 200.15 154.72 218.31 170.23 251C136.21 263.75 117.31 270.83 113.53 272.25C111.45 273.03 109.95 274.86 109.58 277.04C109.22 279.22 110.06 281.43 111.78 282.84C114.9 285.38 130.52 298.11 158.64 321.03C133.41 347.05 119.39 361.51 116.59 364.4C115.04 365.99 114.47 368.29 115.08 370.41C115.7 372.54 117.41 374.18 119.57 374.71C123.49 375.68 143.09 380.52 178.37 389.23C166.8 423.5 160.38 442.54 159.09 446.34C158.38 448.44 158.85 450.76 160.33 452.41C161.8 454.07 164.05 454.83 166.23 454.39C170.19 453.59 189.99 449.61 225.62 442.43C229.95 478.32 232.35 498.26 232.84 502.25C233.1 504.44 234.52 506.33 236.57 507.2C238.62 508.07 240.98 507.79 242.76 506.47C245.99 504.06 262.15 492.02 291.25 470.35C310.64 499.92 321.41 516.35 323.57 519.64C324.71 521.44 326.7 522.53 328.84 522.53C328.92 522.53 329 522.53 329.08 522.53C331.3 522.44 333.31 521.18 334.35 519.22C336.23 515.78 345.64 498.56 362.58 467.58C393.28 486.93 410.34 497.68 413.75 499.83C415.63 501.02 418 501.11 419.98 500.09C421.95 499.06 423.22 497.07 423.31 494.86C423.48 490.84 424.31 470.78 425.82 434.67C461.9 439.06 481.95 441.49 485.96 441.98C488.16 442.25 490.35 441.33 491.69 439.56C493.03 437.79 493.32 435.45 492.45 433.41C490.87 429.71 482.97 411.23 468.75 377.97C503.24 366.55 522.41 360.2 526.24 358.93C528.35 358.23 529.93 356.47 530.37 354.3C530.82 352.13 530.07 349.89 528.41 348.42C522.36 343.09 507.25 329.77 483.08 308.44Z" id="a5XLj6Pss"></path><path d="M446.85 309.6C446.85 380.41 389.4 437.82 318.52 437.82C247.65 437.82 190.2 380.41 190.2 309.6C190.2 238.78 247.65 181.37 318.52 181.37C389.4 181.37 446.85 238.78 446.85 309.6Z" id="a8xSz8QLH"></path><path d="M308.98 181.73C375.39 186.61 427.75 241.99 427.75 309.6C427.75 377.2 375.39 432.59 308.98 437.47C312.13 437.7 315.31 437.82 318.53 437.82C389.4 437.82 446.85 380.42 446.85 309.6C446.85 238.78 389.4 181.37 318.53 181.37C315.31 181.37 312.13 181.49 308.98 181.73Z" id="b1owWLIQxV"></path></defs><g><g><g><use xlink:href="#e161uykcSm" opacity="1" fill="#dbab56" fill-opacity="1"></use><g><use xlink:href="#e161uykcSm" opacity="1" fill-opacity="0" stroke="#000000" stroke-width="1" stroke-opacity="0"></use></g></g><g><use xlink:href="#g4I4eARjCt" opacity="1" fill="#000000" fill-opacity="0"></use><g><use xlink:href="#g4I4eARjCt" opacity="1" fill-opacity="0" stroke="#000000" stroke-width="1" stroke-opacity="0"></use></g></g><g><use xlink:href="#bSvRmz0mN" opacity="1" fill="#efb30c" fill-opacity="1"></use><g><use xlink:href="#bSvRmz0mN" opacity="1" fill-opacity="0" stroke="#000000" stroke-width="1" stroke-opacity="0"></use></g></g><g><use xlink:href="#a2mw6Sf4rp" opacity="1" fill="#000000" fill-opacity="0"></use><g><use xlink:href="#a2mw6Sf4rp" opacity="1" fill-opacity="0" stroke="#000000" stroke-width="1" stroke-opacity="0"></use></g></g><g><use xlink:href="#a1jQCCeJn" opacity="1" fill="#e5a300" fill-opacity="1"></use><g><use xlink:href="#a1jQCCeJn" opacity="1" fill-opacity="0" stroke="#000000" stroke-width="1" stroke-opacity="0"></use></g></g><g><use xlink:href="#ghTauKTdA" opacity="1" fill="#000000" fill-opacity="0"></use><g><use xlink:href="#ghTauKTdA" opacity="1" fill-opacity="0" stroke="#000000" stroke-width="1" stroke-opacity="0"></use></g></g><g><use xlink:href="#b1dykcNIez" opacity="1" fill="#e5a300" fill-opacity="1"></use><g><use xlink:href="#b1dykcNIez" opacity="1" fill-opacity="0" stroke="#000000" stroke-width="1" stroke-opacity="0"></use></g></g><g><use xlink:href="#f3FjpWc16" opacity="1" fill="#000000" fill-opacity="0"></use><g><use xlink:href="#f3FjpWc16" opacity="1" fill-opacity="0" stroke="#000000" stroke-width="1" stroke-opacity="0"></use></g></g><g><use xlink:href="#b116vhPjhe" opacity="1" fill="#f7d27f" fill-opacity="1"></use><g><use xlink:href="#b116vhPjhe" opacity="1" fill-opacity="0" stroke="#000000" stroke-width="1" stroke-opacity="0"></use></g></g><g><use xlink:href="#bZ35w1kTV" opacity="1" fill="#000000" fill-opacity="0"></use><g><use xlink:href="#bZ35w1kTV" opacity="1" fill-opacity="0" stroke="#000000" stroke-width="1" stroke-opacity="0"></use></g></g><g><use xlink:href="#ayX0xmXhh" opacity="1" fill="#efc273" fill-opacity="1"></use><g><use xlink:href="#ayX0xmXhh" opacity="1" fill-opacity="0" stroke="#000000" stroke-width="1" stroke-opacity="0"></use></g></g><g><use xlink:href="#c1PUQ9u7y8" opacity="1" fill="#000000" fill-opacity="0"></use><g><use xlink:href="#c1PUQ9u7y8" opacity="1" fill-opacity="0" stroke="#000000" stroke-width="1" stroke-opacity="0"></use></g></g><g><use xlink:href="#a475M8cIqd" opacity="1" fill="#eac06c" fill-opacity="1"></use><g><use xlink:href="#a475M8cIqd" opacity="1" fill-opacity="0" stroke="#000000" stroke-width="1" stroke-opacity="0"></use></g></g><g><use xlink:href="#b1AhasomcI" opacity="1" fill="#000000" fill-opacity="0"></use><g><use xlink:href="#b1AhasomcI" opacity="1" fill-opacity="0" stroke="#000000" stroke-width="1" stroke-opacity="0"></use></g></g><g><g><use xlink:href="#a5XLj6Pss" opacity="1" fill="#f2c256" fill-opacity="1"></use><g><use xlink:href="#a5XLj6Pss" opacity="1" fill-opacity="0" stroke="#000000" stroke-width="1" stroke-opacity="0"></use></g></g><g><use xlink:href="#a8xSz8QLH" opacity="1" fill="#ffe0a1" fill-opacity="1"></use><g><use xlink:href="#a8xSz8QLH" opacity="1" fill-opacity="0" stroke="#000000" stroke-width="1" stroke-opacity="0"></use></g></g><g><use xlink:href="#b1owWLIQxV" opacity="1" fill="#f5ce7e" fill-opacity="1"></use><g><use xlink:href="#b1owWLIQxV" opacity="1" fill-opacity="0" stroke="#000000" stroke-width="1" stroke-opacity="0"></use></g></g></g></g></g></svg>