<?xml version="1.0" encoding="utf-8"?>
<!-- Generator: Adobe Illustrator 19.0.0, SVG Export Plug-In . SVG Version: 6.00 Build 0)  -->
<svg version="1.1" id="Layer_1" xmlns="http://www.w3.org/2000/svg" xmlns:xlink="http://www.w3.org/1999/xlink" x="0px" y="0px"
	 viewBox="-49 51 512 512" style="enable-background:new -49 51 512 512;" xml:space="preserve">
<style type="text/css">
	.st0{fill:#56B48C;}
	.st1{fill:none;stroke:#FFFFFF;stroke-width:2;stroke-linecap:round;stroke-miterlimit:10;}
	.st2{fill:#FFFFFF;}
	.st3{fill:none;stroke:#FFFFFF;stroke-width:2;stroke-linecap:round;stroke-linejoin:round;stroke-miterlimit:10;}
	.st4{fill:#AF5C0B;}
	.st5{fill:#BE6904;}
	.st6{fill:#F3D9AB;}
	.st7{fill:#E8CEA6;}
	.st8{fill:#BD3D36;}
	.st9{fill:#B6261B;}
	.st10{fill:#F3EEEB;}
	.st11{fill:#99E8ED;}
	.st12{fill:#64DAE9;}
</style>
<circle class="st0" cx="111.8" cy="499.5" r="48.5"/>
<polyline class="st1" points="94.3,517 111.8,499.5 129.2,482 "/>
<polyline class="st1" points="94.3,482 111.8,499.5 129.2,517 "/>
<path class="st0" d="M208,449.8c-26.7,0-48.3,21.6-48.3,48.3c0,26.7,21.6,48.3,48.3,48.3s48.3-21.6,48.3-48.3
	C256.5,471.4,234.7,449.8,208,449.8z"/>
<path class="st2" d="M214,478.1c-0.6-0.8-1.4-1.2-2.4-1.2c-0.9,0-1.5,0.2-1.8,0.5s-1,1.3-2.1,2.7c-1.1,1.5-2.3,2.8-3.7,4
	s-3.2,2.3-5.5,3.4c-1.5,0.7-2.6,1.3-3.2,1.8c-0.6,0.5-0.9,1.2-0.9,2.1c0,0.8,0.3,1.6,0.9,2.2c0.6,0.6,1.3,1,2.1,1
	c1.7,0,4.9-1.9,9.8-5.6v26c0,1.5,0.4,2.7,1.1,3.5c0.7,0.8,1.6,1.2,2.8,1.2c2.6,0,3.9-1.9,3.9-5.7v-32.7
	C214.9,480,214.6,478.9,214,478.1z"/>
<circle class="st0" cx="303.5" cy="496.9" r="47.1"/>
<line class="st3" x1="303.5" y1="474.3" x2="303.5" y2="521.4"/>
<line class="st3" x1="327" y1="496.9" x2="280" y2="496.9"/>
<path class="st4" d="M220.2,80.6V60.8c0-3.2-2.6-5.8-5.8-5.8h-28.4c-3.2,0-5.8,2.6-5.8,5.8v19.8H220.2z"/>
<path class="st4" d="M180.3,114.3h39.9v16.6h-39.9V114.3z"/>
<path class="st4" d="M180.3,309v31.1c0,3.2,2.6,5.8,5.8,5.8v1.4h28.4v-1c3.2,0,5.8-2.6,5.8-5.8V309H180.3z"/>
<path class="st5" d="M392,211.6c-0.3-2.4-2-4.4-4.3-5c-0.6-0.2-15.4-3.7-29.9,7.6c-17.8,13.8-26.8,43-26.8,86.6
	c0,6.6-2.7,12.2-8.3,17c-17.8,15.3-62.5,22.2-129.2,19.8c-43.5-1.6-83.4-6.7-94.9-8.3c-2.7-6.5-9.5-21.9-19.1-37.6
	c-17.3-28.2-34.8-42.6-51.8-42.6c-1.9,0-3.7,1-4.8,2.6c-1.1,1.6-1.3,3.6-0.5,5.4c0.2,0.4,15.9,38.5,10.6,67.5
	c-0.7,3.8-1.5,7.8-2.3,12c-6.1,30.4-13.6,68.3,4.7,90.7c9.3,11.4,24.2,17.3,44.4,17.5c55.6,0.5,104.9,0.7,147.5,0.7
	c42.6,0,78.6-0.2,107.6-0.7c23.9-0.4,33.8-9.2,39.1-15.8c10.3-12.7,22-40.2,4.4-131.2c-0.2-1.5-2.8-19.1-2.5-37.7
	c0.3-23.6,4.9-38.7,13-42.7C391,216.3,392.3,214,392,211.6z"/>
<path class="st4" d="M61.8,291.7c9.6,15.7,16.4,31.1,19.1,37.6c11.4,1.6,29,1.6,17.6,0c-2.7-6.5-9.5-21.9-19.1-37.6
	c-17.3-28.2-34.8-42.6-51.8-42.6c-1.9,0-3.7,1-4.8,2.6c0,0,0,0.1-0.1,0.1C35.8,257.1,48.8,270.5,61.8,291.7z"/>
<path class="st4" d="M392,211.6c-0.3-2.4-2-4.4-4.3-5c-0.4-0.1-7.3-1.7-16.1,0.6c1.5,0.9,2.6,2.5,2.8,4.3c0.3,2.4-1,4.7-3.2,5.8
	c-8,4-12.6,19.1-13,42.7c-0.3,18.7,2.3,36.2,2.5,37.7c17.6,91.1,5.9,118.5-4.4,131.2c-5.3,6.6-15.2,15.4-39.1,15.8
	c-27,0.4-60,0.7-98.8,0.7c3,0,6,0,8.9,0c42.6,0,78.6-0.2,107.6-0.7c23.9-0.4,33.8-9.2,39.1-15.8c10.3-12.7,22-40.2,4.4-131.2
	c-0.2-1.5-2.8-19.1-2.5-37.7c0.3-23.6,4.9-38.7,13-42.7C391,216.3,392.3,214,392,211.6z"/>
<path class="st6" d="M269.2,130.2c-3.9-1.7-8.1-2.6-12.5-2.6H107.2c-3.2,0-5.8,2.6-5.8,5.8v1.4c0,2.2,1.2,4.2,3.2,5.1
	c30.3,15.1,49.1,45.5,49.1,79.4c0,33.8-18.8,64.2-49.1,79.4c-1.9,1-3.2,3-3.2,5.1v3.8c0,1.5,0.6,3,1.7,4.1c1.1,1.1,2.5,1.7,4.1,1.7
	h0l149.7-0.5c4.2,0,8.3-0.8,12.1-2.2c36-13.8,58.4-49.2,58.4-92.4C327.3,158.9,278.9,134.5,269.2,130.2z"/>
<path class="st7" d="M269.2,130.2c-3.9-1.7-8.1-2.6-12.5-2.6h-17.6c4.3,0,8.6,0.9,12.5,2.6c9.7,4.3,58.1,28.7,58.1,88
	c0,43.2-22.4,78.6-58.4,92.4c-3.8,1.5-7.9,2.2-12.1,2.2l-132.8,0.4c0.2,0,0.5,0.1,0.7,0.1h0l149.7-0.5c4.2,0,8.3-0.8,12.1-2.2
	c36-13.8,58.4-49.2,58.4-92.4C327.3,158.9,278.9,134.5,269.2,130.2z"/>
<path class="st8" d="M214.5,76.7h-73.6c-3.2,0-5.8,2.6-5.8,5.8v29.6c0,3.2,2.6,5.8,5.8,5.8h73.6c3.2,0,5.8-2.6,5.8-5.8V82.4
	C220.3,79.3,217.7,76.7,214.5,76.7z"/>
<path class="st9" d="M214.5,76.7h-17.6c3.2,0,5.8,2.6,5.8,5.8v29.6c0,3.2-2.6,5.8-5.8,5.8h17.6c3.2,0,5.8-2.6,5.8-5.8V82.4
	C220.3,79.3,217.7,76.7,214.5,76.7z"/>
<path class="st10" d="M289.3,172.5h-90.9c-3.2,0-5.8-2.6-5.8-5.8c0-3.2,2.6-5.8,5.8-5.8h90.9c3.2,0,5.8,2.6,5.8,5.8
	C295.1,169.9,292.5,172.5,289.3,172.5z"/>
<path class="st10" d="M256.2,268.6h-84.4c-3.2,0-5.8-2.6-5.8-5.8c0-3.2,2.6-5.8,5.8-5.8h84.4c3.2,0,5.8,2.6,5.8,5.8
	C261.9,266.1,259.3,268.6,256.2,268.6z"/>
<g>
	<path class="st4" d="M141.7,385.2H48.1c-3.2,0-5.8-2.6-5.8-5.8c0-3.2,2.6-5.8,5.8-5.8h93.6c3.2,0,5.8,2.6,5.8,5.8
		C147.4,382.6,144.8,385.2,141.7,385.2z"/>
	<path class="st4" d="M141.7,408.2H48.1c-3.2,0-5.8-2.6-5.8-5.8c0-3.2,2.6-5.8,5.8-5.8h93.6c3.2,0,5.8,2.6,5.8,5.8
		C147.4,405.6,144.8,408.2,141.7,408.2z"/>
	<path class="st4" d="M363.1,385.2h-93.6c-3.2,0-5.8-2.6-5.8-5.8c0-3.2,2.6-5.8,5.8-5.8h93.6c3.2,0,5.8,2.6,5.8,5.8
		C368.9,382.6,366.3,385.2,363.1,385.2z"/>
	<path class="st4" d="M242.4,408.2h-70.6c-3.2,0-5.8-2.6-5.8-5.8c0-3.2,2.6-5.8,5.8-5.8h70.6c3.2,0,5.8,2.6,5.8,5.8
		C248.2,405.6,245.6,408.2,242.4,408.2z"/>
	<path class="st4" d="M363.1,408.2h-97.5c-3.2,0-5.8-2.6-5.8-5.8c0-3.2,2.6-5.8,5.8-5.8h97.5c3.2,0,5.8,2.6,5.8,5.8
		C368.9,405.6,366.3,408.2,363.1,408.2z"/>
</g>
<path class="st11" d="M261.7,363.2c-15.5,0-28.1,12.6-28.1,28.1c0,15.5,12.6,28.1,28.1,28.1c15.5,0,28.1-12.6,28.1-28.1
	C289.7,375.8,277.2,363.2,261.7,363.2z"/>
<path class="st11" d="M149.5,363.2c-15.5,0-28.1,12.6-28.1,28.1c0,15.5,12.6,28.1,28.1,28.1c15.5,0,28.1-12.6,28.1-28.1
	C177.6,375.8,165,363.2,149.5,363.2z"/>
<path class="st12" d="M261.7,363.2c-3.1,0-6,0.5-8.8,1.4c11.2,3.7,19.2,14.2,19.2,26.6c0,12.4-8.1,22.9-19.2,26.6
	c2.8,0.9,5.7,1.4,8.8,1.4c15.5,0,28.1-12.6,28.1-28.1C289.7,375.8,277.2,363.2,261.7,363.2z"/>
<path class="st12" d="M149.5,363.2c-3.1,0-6,0.5-8.8,1.4c11.2,3.7,19.2,14.2,19.2,26.6c0,12.4-8.1,22.9-19.2,26.6
	c2.8,0.9,5.7,1.4,8.8,1.4c15.5,0,28.1-12.6,28.1-28.1C177.6,375.8,165,363.2,149.5,363.2z"/>
</svg>
