<svg height="512pt" viewBox="-115 0 512 512" width="512pt" xmlns="http://www.w3.org/2000/svg"><path d="m282.484375 52.964844v379.585937c0 61.351563-43.523437 79.183594-139.210937 79.449219h-2.296876c-96.925781 0-140.976562-17.742188-140.976562-79.449219v-379.585937c0-35.308594 44.136719-52.964844 141.242188-52.964844 97.101562 0 141.242187 17.65625 141.242187 52.964844zm0 0" fill="#ed634c"/><g fill="#eaca6f"><path d="m220.691406 72.316406c-.761718-1.398437-2.425781-2.03125-3.921875-1.496094-1.496093.539063-2.378906 2.089844-2.074219 3.648438 3.648438 19.109375 5.652344 38.496094 5.996094 57.945312 0 36.105469-23.625 54.492188-46.71875 74.476563 15.167969 5.492187 27.457032 19.015625 28.832032 51.855469 27.433593-18.410156 44.03125-49.160156 44.367187-82.195313-.425781-36.355469-9.503906-72.085937-26.480469-104.234375zm0 0"/><path d="m61.792969 72.316406c.757812-1.398437 2.425781-2.03125 3.921875-1.496094 1.496094.539063 2.375 2.089844 2.070312 3.648438-3.644531 19.109375-5.652344 38.496094-5.992187 57.945312 0 36.105469 23.621093 54.492188 46.714843 74.476563-15.164062 5.492187-27.453124 19.015625-28.828124 51.855469-27.433594-18.410156-44.03125-49.160156-44.371094-82.195313.429687-36.355469 9.507812-72.085937 26.484375-104.234375zm0 0"/><path d="m220.691406 457.339844c-.761718 1.398437-2.425781 2.03125-3.921875 1.492187-1.496093-.535156-2.378906-2.085937-2.074219-3.644531 3.648438-19.109375 5.652344-38.496094 5.996094-57.945312 0-36.105469-23.625-54.492188-46.71875-74.480469 15.167969-5.488281 27.457032-19.011719 28.832032-51.851563 27.433593 18.410156 44.03125 49.15625 44.367187 82.191406-.425781 36.355469-9.503906 72.085938-26.480469 104.238282zm0 0"/><path d="m61.792969 457.339844c.757812 1.398437 2.425781 2.03125 3.921875 1.492187 1.496094-.535156 2.375-2.085937 2.070312-3.644531-3.644531-19.109375-5.652344-38.496094-5.992187-57.945312 0-36.105469 23.621093-54.492188 46.714843-74.480469-15.164062-5.488281-27.453124-19.011719-28.828124-51.851563-27.433594 18.410156-44.03125 49.15625-44.371094 82.191406.429687 36.355469 9.507812 72.085938 26.484375 104.238282zm0 0"/><path d="m35.308594 264.828125c0 4.875-3.949219 8.828125-8.824219 8.828125h-26.484375v-17.65625h26.484375c4.875 0 8.824219 3.953125 8.824219 8.828125zm0 0"/><path d="m282.484375 256v17.65625h-26.484375c-4.875 0-8.828125-3.953125-8.828125-8.828125s3.953125-8.828125 8.828125-8.828125zm0 0"/><path d="m141.242188 485.515625c-4.875 0-8.828126-3.949219-8.828126-8.824219v-150.070312c0-4.875 3.953126-8.828125 8.828126-8.828125s8.828124 3.953125 8.828124 8.828125v150.070312c0 4.875-3.953124 8.824219-8.828124 8.824219zm0 0"/><path d="m141.242188 211.863281c-4.875 0-8.828126-3.953125-8.828126-8.828125v-150.070312c0-4.875 3.953126-8.828125 8.828126-8.828125s8.828124 3.953125 8.828124 8.828125v150.070312c0 4.875-3.953124 8.828125-8.828124 8.828125zm0 0"/></g><path d="m203.035156 264.828125c0 34.125-27.667968 61.792969-61.792968 61.792969-34.128907 0-61.792969-27.667969-61.792969-61.792969 0-34.128906 27.664062-61.792969 61.792969-61.792969 34.125 0 61.792968 27.664063 61.792968 61.792969zm0 0" fill="#919d9e"/><path d="m167.722656 264.828125c0-9.75-11.855468-17.65625-26.480468-17.65625s-26.484376 7.90625-26.484376 17.65625 11.859376 17.65625 26.484376 17.65625 26.480468-7.90625 26.480468-17.65625zm0 0" fill="#a5b4b4"/></svg>