<svg height="512pt" viewBox="-91 0 512 512.00127" width="512pt" xmlns="http://www.w3.org/2000/svg"><path d="m234.316406 503.324219h-69.421875c-4.792969 0-8.679687-3.886719-8.679687-8.679688v-43.390625zm0 0" fill="#805333"/><path d="m91.566406 112.207031-48.164062-25.425781 17.355468-86.78125c3.480469-.0585938 6.628907 2.050781 7.898438 5.292969l34.796875 95.71875c1.457031 3.359375.652344 7.265625-2.011719 9.777343-2.664062 2.507813-6.613281 3.074219-9.875 1.417969zm0 0" fill="#a5a5a4"/><path d="m277.707031 494.644531c-4.792969 0-8.679687-3.882812-8.679687-8.675781s3.886718-8.679688 8.679687-8.679688c11.777344 0 34.710938-59.730468 34.710938-169.21875 0-109.492187-22.933594-169.222656-34.710938-169.222656-4.792969 0-8.679687-3.882812-8.679687-8.675781s3.886718-8.679687 8.679687-8.679687c35.777344 0 52.066407 96.714843 52.066407 186.578124 0 89.859376-16.289063 186.574219-52.066407 186.574219zm0 0" fill="#606060"/><path d="m8.691406 459.933594c-3.828125.003906-7.203125-2.496094-8.316406-6.15625-1.109375-3.664063.308594-7.621094 3.488281-9.742188l52.070313-34.710937c3.988281-2.660157 9.375-1.585938 12.035156 2.402343 2.660156 3.988282 1.585938 9.378907-2.402344 12.039063l-52.070312 34.710937c-1.421875.949219-3.09375 1.457032-4.804688 1.457032zm0 0" fill="#f9eab0"/><path d="m8.691406 503.324219c-3.828125.003906-7.203125-2.496094-8.316406-6.160157-1.109375-3.660156.308594-7.617187 3.488281-9.738281l52.070313-34.710937c2.578125-1.722656 5.878906-1.9375 8.660156-.5625s4.617188 4.125 4.816406 7.21875c.199219 3.09375-1.265625 6.0625-3.84375 7.78125l-52.070312 34.714844c-1.421875.949218-3.09375 1.453124-4.804688 1.457031zm0 0" fill="#f9eab0"/><path d="m112.824219 459.933594c-1.710938 0-3.382813-.507813-4.804688-1.457032l-52.070312-34.710937c-2.578125-1.722656-4.042969-4.6875-3.84375-7.78125.199219-3.097656 2.035156-5.847656 4.816406-7.222656 2.78125-1.371094 6.082031-1.160157 8.660156.5625l52.070313 34.710937c3.179687 2.121094 4.597656 6.078125 3.488281 9.742188-1.113281 3.660156-4.488281 6.160156-8.316406 6.15625zm0 0" fill="#f3d55b"/><path d="m112.824219 503.324219c-1.710938-.003907-3.382813-.507813-4.804688-1.457031l-52.070312-34.714844c-3.988281-2.660156-5.0625-8.046875-2.402344-12.035156 2.660156-3.988282 8.046875-5.0625 12.035156-2.402344l52.070313 34.710937c3.179687 2.121094 4.597656 6.078125 3.488281 9.738281-1.113281 3.664063-4.488281 6.164063-8.316406 6.160157zm0 0" fill="#f3d55b"/><path d="m60.757812 0v95.980469l-.085937-.085938-30.722656 16.3125c-3.261719 1.65625-7.210938 1.089844-9.875-1.417969-2.664063-2.511718-3.46875-6.417968-2.011719-9.777343l34.625-95.71875c1.371094-3.234375 4.554688-5.324219 8.070312-5.292969zm0 0" fill="#bdc3c7"/><path d="m60.757812 512c-4.792968 0-8.679687-3.882812-8.679687-8.675781v-442.578125c0-4.792969 3.886719-8.675782 8.679687-8.675782 4.792969 0 8.679688 3.882813 8.679688 8.675782v442.578125c0 4.792969-3.886719 8.675781-8.679688 8.675781zm0 0" fill="#af8066"/><path d="m242.996094 138.847656c-2.621094.003906-5.105469-1.179687-6.753906-3.214844-1.652344-2.039062-2.289063-4.710937-1.742188-7.277343l26.03125-121.488281c.652344-3.035157 2.871094-5.488282 5.820312-6.441407 2.949219-.953125 6.183594-.261719 8.488282 1.816407 2.300781 2.078124 3.316406 5.226562 2.667968 8.257812l-26.035156 121.492188c-.859375 3.996093-4.390625 6.855468-8.476562 6.855468zm0 0" fill="#af8066"/><path d="m260.351562 52.070312c-2.300781 0-4.507812-.917968-6.136718-2.542968l-26.03125-26.035156c-3.398438-3.386719-3.402344-8.886719-.015625-12.285157 3.390625-3.394531 8.890625-3.398437 12.285156-.011719l22.5625 22.5625 29.9375-7.488281c4.632813-1.125 9.308594 1.699219 10.46875 6.324219 1.15625 4.625-1.632813 9.320312-6.25 10.511719l-34.710937 8.675781c-.691407.183594-1.398438.277344-2.109376.289062zm0 0" fill="#f3d55b"/><path d="m199.605469 138.847656c-3.910157-.003906-7.335938-2.621094-8.367188-6.394531l-26.03125-95.457031c-1.261719-4.625 1.464844-9.398438 6.089844-10.65625 4.625-1.261719 9.398437 1.464844 10.65625 6.089844l26.035156 95.457031c.710938 2.613281.164063 5.40625-1.480469 7.554687-1.644531 2.152344-4.195312 3.410156-6.902343 3.40625zm0 0" fill="#af8066"/><path d="m182.25 78.101562c-.710938 0-1.417969-.085937-2.109375-.257812l-34.710937-8.679688c-4.617188-1.191406-7.410157-5.886718-6.25-10.511718 1.160156-4.625 5.832031-7.449219 10.464843-6.324219l29.941407 7.492187 22.5625-22.566406c2.121093-2.460937 5.4375-3.535156 8.601562-2.777344 3.160156.757813 5.632812 3.21875 6.40625 6.375s-.285156 6.480469-2.738281 8.613282l-26.035157 26.035156c-1.617187 1.648438-3.824218 2.585938-6.132812 2.601562zm0 0" fill="#f9eab0"/><path d="m277.707031 124.269531v370.375c0 4.792969-3.886719 8.679688-8.679687 8.679688h-52.066406l-60.746094-52.070313v-326.984375c.007812-2.710937 1.28125-5.261719 3.445312-6.898437 2.164063-1.632813 4.964844-2.164063 7.578125-1.433594l47.464844 14.234375c1.472656.433594 3.042969.433594 4.515625 0l47.46875-14.234375c2.609375-.730469 5.410156-.199219 7.574219 1.433594 2.164062 1.636718 3.4375 4.1875 3.445312 6.898437zm0 0" fill="#cb8252"/><g fill="#7f5b53"><path d="m242.996094 399.1875c-4.792969 0-8.679688-3.886719-8.679688-8.679688v-211.429687l-4.796875 2.335937c-2.777343 1.414063-6.101562 1.230469-8.707031-.480468-2.601562-1.710938-4.089844-4.6875-3.894531-7.796875.195312-3.109375 2.042969-5.875 4.84375-7.246094l4.746093-2.371094c5.390626-2.714843 11.804688-2.4375 16.9375.738281 5.132813 3.171876 8.25 8.785157 8.226563 14.820313v211.429687c0 4.792969-3.882813 8.679688-8.675781 8.679688zm0 0"/><path d="m242.996094 477.289062c-4.792969 0-8.679688-3.886718-8.679688-8.675781v-43.390625c0-4.792968 3.886719-8.679687 8.679688-8.679687 4.792968 0 8.675781 3.886719 8.675781 8.679687v43.390625c0 4.789063-3.882813 8.675781-8.675781 8.675781zm0 0"/></g></svg>