<?xml version="1.0"?>
<svg xmlns="http://www.w3.org/2000/svg" height="512px" viewBox="-10 0 512 512.00075" width="512px" class=""><g><path d="m7.042969 144.324219 236.601562-143.589844c1.617188-.980469 3.644531-.980469 5.261719 0l236.601562 143.59375c4.382813 2.660156 2.5 9.402344-2.628906 9.402344h-473.203125c-5.128906 0-7.015625-6.742188-2.632812-9.40625zm0 0" fill="#aabfd5" data-original="#AABFD5" class="" style="fill:#EF9241" data-old_color="#F87707"/><path d="m65.714844 411.046875v29.089844c0 1.398437 1.132812 2.535156 2.535156 2.535156h84.390625c1.402344 0 2.535156-1.136719 2.535156-2.535156v-29.089844c0-4.277344-3.46875-7.746094-7.746093-7.746094h-73.96875c-4.28125 0-7.746094 3.46875-7.746094 7.746094zm0 0" fill="#aa7d95" data-original="#AA7D95" class=""/><path d="m201.546875 411.046875v29.089844c0 1.398437 1.132813 2.535156 2.535156 2.535156h84.390625c1.402344 0 2.535156-1.136719 2.535156-2.535156v-29.089844c0-4.277344-3.46875-7.746094-7.746093-7.746094h-73.96875c-4.28125 0-7.746094 3.46875-7.746094 7.746094zm0 0" fill="#aa7d95" data-original="#AA7D95" class=""/><path d="m337.378906 411.046875v29.089844c0 1.398437 1.132813 2.535156 2.535156 2.535156h84.390626c1.402343 0 2.535156-1.136719 2.535156-2.535156v-29.089844c0-4.277344-3.46875-7.746094-7.746094-7.746094h-73.96875c-4.28125 0-7.746094 3.46875-7.746094 7.746094zm0 0" fill="#aa7d95" data-original="#AA7D95" class=""/><path d="m419.09375 403.300781h-25.15625c4.28125 0 7.746094 3.46875 7.746094 7.746094v29.089844c0 1.398437-1.132813 2.535156-2.535156 2.535156h25.15625c1.398437 0 2.535156-1.136719 2.535156-2.535156v-29.089844c0-4.277344-3.46875-7.746094-7.746094-7.746094zm0 0" fill="#804c68" data-original="#804C68" class=""/><path d="m283.261719 403.300781h-25.15625c4.28125 0 7.746093 3.46875 7.746093 7.746094v29.089844c0 1.398437-1.132812 2.535156-2.53125 2.535156h25.152344c1.398438 0 2.535156-1.136719 2.535156-2.535156v-29.089844c0-4.277344-3.46875-7.746094-7.746093-7.746094zm0 0" fill="#804c68" data-original="#804C68" class=""/><path d="m147.429688 403.300781h-25.15625c4.28125 0 7.746093 3.46875 7.746093 7.746094v29.089844c0 1.398437-1.132812 2.535156-2.53125 2.535156h25.152344c1.398437 0 2.535156-1.136719 2.535156-2.535156v-29.089844c0-4.277344-3.46875-7.746094-7.746093-7.746094zm0 0" fill="#804c68" data-original="#804C68" class=""/><path d="m65.714844 187.523438v18.824218c0 9.902344 8.023437 17.925782 17.925781 17.925782h53.609375c9.898438 0 17.925781-8.023438 17.925781-17.925782v-18.824218zm0 0" fill="#aa7d95" data-original="#AA7D95" class=""/><path d="m201.546875 187.523438v18.824218c0 9.902344 8.023437 17.925782 17.925781 17.925782h53.609375c9.898438 0 17.925781-8.023438 17.925781-17.925782v-18.824218zm0 0" fill="#aa7d95" data-original="#AA7D95" class=""/><path d="m337.378906 187.523438v18.824218c0 9.902344 8.023438 17.925782 17.925782 17.925782h53.609374c9.898438 0 17.925782-8.023438 17.925782-17.925782v-18.824218zm0 0" fill="#aa7d95" data-original="#AA7D95" class=""/><path d="m402.785156 187.523438v18.824218c0 9.898438-8.027344 17.925782-17.929687 17.925782h24.058593c9.898438 0 17.925782-8.027344 17.925782-17.925782v-18.824218zm0 0" fill="#804c68" data-original="#804C68" class=""/><path d="m266.949219 187.523438v18.824218c0 9.898438-8.023438 17.925782-17.925781 17.925782h24.058593c9.898438 0 17.925781-8.027344 17.925781-17.925782v-18.824218zm0 0" fill="#804c68" data-original="#804C68" class=""/><path d="m131.117188 187.523438v18.824218c0 9.898438-8.023438 17.925782-17.925782 17.925782h24.058594c9.898438 0 17.925781-8.027344 17.925781-17.925782v-18.824218zm0 0" fill="#804c68" data-original="#804C68" class=""/><g fill="#aabfd5"><path d="m80.5 403.300781 11.402344-179.027343h37.082031l11.40625 179.027343zm0 0" data-original="#000000" class="" style="fill:#F6874F" data-old_color="#FF5600"/><path d="m216.332031 403.300781 11.402344-179.027343h37.082031l11.40625 179.027343zm0 0" data-original="#000000" class="" style="fill:#F6874F" data-old_color="#FF5600"/><path d="m352.164062 403.300781 11.402344-179.027343h37.082032l11.40625 179.027343zm0 0" data-original="#000000" class="" style="fill:#F6874F" data-old_color="#FF5600"/></g><path d="m400.648438 224.273438h-20.601563l11.40625 179.027343h20.601563zm0 0" fill="#7d8eb0" data-original="#7D8EB0" class="active-path" style="fill:#9B7F42" data-old_color="#907B4E"/><path d="m264.816406 224.273438h-20.601562l11.40625 179.027343h20.601562zm0 0" fill="#7d8eb0" data-original="#7D8EB0" class="active-path" style="fill:#9B7F42" data-old_color="#907B4E"/><path d="m128.984375 224.273438h-20.601563l11.40625 179.027343h20.601563zm0 0" fill="#7d8eb0" data-original="#7D8EB0" class="active-path" style="fill:#9B7F42" data-old_color="#907B4E"/><path d="m39.707031 153.730469v29.671875c0 2.277344 1.847657 4.121094 4.121094 4.121094h404.894531c2.277344 0 4.121094-1.84375 4.121094-4.121094v-29.671875zm0 0" fill="#3a4d7b" data-original="#3A4D7B" class="" style="fill:#C97B14" data-old_color="#C87B15"/><path d="m426.839844 153.730469v29.671875c0 2.277344-1.84375 4.121094-4.121094 4.121094h26.003906c2.277344 0 4.121094-1.84375 4.121094-4.121094v-29.671875zm0 0" fill="#242e5b" data-original="#242E5B" class="" style="fill:#5B4E28" data-old_color="#463B1D"/><path d="m409.992188 126.210938-162.648438-98.707032c-.65625-.398437-1.480469-.398437-2.136719 0l-162.648437 98.707032c-1.78125 1.082031-1.011719 3.824218 1.070312 3.824218h55.480469c2.84375 0 5.148437-2.304687 5.148437-5.152344v-8.074218c0-2.84375 2.308594-5.148438 5.152344-5.148438h18.847656c2.84375 0 5.148438 2.304688 5.148438 5.148438v8.074218c0 2.847657 2.308594 5.152344 5.152344 5.152344h18.847656c2.84375 0 5.148438-2.304687 5.148438-5.152344v-8.074218c0-2.84375 2.308593-5.148438 5.152343-5.148438h18.84375c2.847657 0 5.152344 2.304688 5.152344 5.148438v8.074218c0 2.847657 2.304687 5.152344 5.152344 5.152344h18.84375c2.847656 0 5.152343-2.304687 5.152343-5.152344v-8.074218c0-2.84375 2.304688-5.148438 5.152344-5.148438h18.84375c2.847656 0 5.152344 2.304688 5.152344 5.148438v8.074218c0 2.847657 2.304688 5.152344 5.148438 5.152344h18.847656c2.84375 0 5.152344-2.304687 5.152344-5.152344v-8.074218c0-2.84375 2.304687-5.148438 5.148437-5.148438h18.847656c2.84375 0 5.152344 2.304688 5.152344 5.148438v8.074218c0 2.847657 2.304687 5.152344 5.148437 5.152344h55.480469c2.082031 0 2.847657-2.742187 1.066407-3.824218zm0 0" fill="#7d8eb0" data-original="#7D8EB0" class="active-path" style="fill:#9B7F42" data-old_color="#907B4E"/><path d="m25.769531 463.890625v10.464844h441.015625v-10.464844c0-11.71875-9.5-21.21875-21.21875-21.21875h-398.578125c-11.71875 0-21.21875 9.5-21.21875 21.21875zm0 0" fill="#aabfd5" data-original="#AABFD5" class="" style="fill:#EF9241" data-old_color="#F87707"/><path d="m445.566406 442.671875h-24.726562c11.71875 0 21.222656 9.5 21.222656 21.21875v10.464844h24.722656v-10.464844c0-11.71875-9.5-21.21875-21.21875-21.21875zm0 0" fill="#7d8eb0" data-original="#7D8EB0" class="active-path" style="fill:#9B7F42" data-old_color="#907B4E"/><path d="m0 496v13.464844c0 1.402344 1.136719 2.535156 2.535156 2.535156h487.484375c1.398438 0 2.535157-1.132812 2.535157-2.535156v-13.464844c0-11.957031-9.691407-21.648438-21.648438-21.648438h-449.257812c-11.957032 0-21.648438 9.691407-21.648438 21.648438zm0 0" fill="#3a4d7b" data-original="#3A4D7B" class="" style="fill:#C97B14" data-old_color="#C87B15"/><path d="m470.90625 474.351562h-25.769531c11.957031 0 21.648437 9.691407 21.648437 21.648438v13.464844c0 1.402344-1.136718 2.535156-2.535156 2.535156h25.765625c1.402344 0 2.535156-1.132812 2.535156-2.535156v-13.464844c0-11.957031-9.691406-21.648438-21.644531-21.648438zm0 0" fill="#242e5b" data-original="#242E5B" class="" style="fill:#5B4E28" data-old_color="#463B1D"/></g> </svg>
