<?xml version="1.0" encoding="utf-8"?>
<!-- Generator: Adobe Illustrator 23.1.0, SVG Export Plug-In . SVG Version: 6.00 Build 0)  -->
<svg version="1.1" id="Layer_1" xmlns="http://www.w3.org/2000/svg" xmlns:xlink="http://www.w3.org/1999/xlink" x="0px" y="0px"
	 viewBox="0 0 512 512" style="enable-background:new 0 0 512 512;" xml:space="preserve">
<style type="text/css">
	.st0{fill:#F9CD45;}
	.st1{fill:#E0A632;}
	.st2{fill:#E2A58A;}
	.st3{fill:#F0BCA6;}
	.st4{fill:#E6B09A;}
	.st5{fill:#FFF4F1;}
	.st6{fill:#ECEDEF;}
	.st7{fill:#BBBBBB;}
	.st8{fill:#D47A3D;}
	.st9{fill:#D0CFD1;}
	.st10{fill:#868686;}
	.st11{fill:#BCBCBC;}
	.st12{fill:#646464;}
	.st13{fill:#727374;}
	.st14{fill:#F45A3C;}
	.st15{fill:#EB4C36;}
</style>
<path class="st0" d="M3118.3-581.6c-31.6-31.6-73.4-49-117.8-49s-86.2,17.4-117.8,49s-49,73.4-49,117.8v238.2c0,4.2,3.4,7.5,7.5,7.5
	h318.5c4.2,0,7.5-3.4,7.5-7.5v-238.3C3167.3-508.2,3149.9-550.1,3118.3-581.6z"/>
<ellipse class="st1" cx="2488.4" cy="-825.5" rx="144.2" ry="86.9"/>
<ellipse class="st1" cx="2285.6" cy="-392.9" rx="51" ry="41.8"/>
<path class="st2" d="M114.8,512h106c1-1.8,1.2-3.9,0.6-5.9c-2-6.4-5.6-12.2-10.3-16.9L95.9,374c-16.4-16.4-43.1-16.4-59.6,0
	c-7.9,7.9-12.3,18.5-12.3,29.8c0,11.3,4.4,21.9,12.3,29.8L114.8,512z"/>
<path class="st3" d="M149.4,512h353.7c1.4-0.3,2.6-1,3.6-2c1.4-1.4,2.2-3.3,2.2-5.3l-0.1-22.5c-0.1-41.5-16.5-80.6-46.1-110
	c-29.5-29.3-68.5-45.5-109.8-45.5c-0.2,0-0.3,0-0.5,0l-50.9,0.2c-41.5,0.1-80.6,16.5-110,46.1c-29.5,29.6-45.6,68.8-45.5,110.3
	l0.1,22.5C146.1,508.4,147.4,510.7,149.4,512z"/>
<path class="st4" d="M508.9,482.2c-0.1-41.5-16.5-80.6-46.1-110c-29.5-29.3-68.5-45.5-109.8-45.5c-0.2,0-0.3,0-0.5,0l-18.5,0.1
	c39.8,1,77.2,17.1,105.7,45.4c29.6,29.5,46,68.5,46.1,110l0.1,22.5c0,2-0.8,3.9-2.2,5.3c-1,1-2.2,1.7-3.6,2h23.1
	c1.4-0.3,2.6-1,3.6-2c1.4-1.4,2.2-3.3,2.2-5.3L508.9,482.2z"/>
<path class="st5" d="M148.3,511.1c0.4,0.4,0.7,0.7,1.1,0.9h270.2c2.6-1,4.6-3.4,4.9-6.3c0.4-3.8-2.2-7.3-6-8.1
	c-26.7-5.3-54.5-22.3-76.3-46.6c-21.9-24.3-34.5-52.5-34.6-77.2c0-12.7,1.6-25.3,4.8-37.5c0.6-2.3,0.1-4.7-1.3-6.5
	c-1.4-1.8-3.6-2.9-6-2.9h0l-3.5,0c-41.5,0.1-80.6,16.5-110,46.1s-45.6,68.8-45.5,110.3l0.1,22.5
	C146.1,507.8,146.9,509.7,148.3,511.1z"/>
<path class="st6" d="M418.5,497.6c-26.7-5.3-54.5-22.3-76.3-46.6c-21.9-24.3-34.5-52.5-34.6-77.2c0-12.7,1.6-25.3,4.8-37.5
	c0.6-2.3,0.1-4.7-1.3-6.5c-1.4-1.8-3.6-2.9-6-2.9h0l-3.5,0c-5.4,0-10.7,0.3-16,0.9c0.9,0.5,1.8,1.2,2.4,2c1.4,1.9,1.9,4.3,1.3,6.5
	c-3.2,12.2-4.8,24.8-4.8,37.5c0.1,24.7,12.7,52.9,34.6,77.2c21.9,24.3,49.7,41.3,76.3,46.6c3.8,0.8,6.4,4.3,6,8.1
	c-0.3,2.9-2.3,5.4-4.9,6.3h23.1c2.6-1,4.6-3.4,4.9-6.3C424.9,501.8,422.3,498.3,418.5,497.6z"/>
<path class="st7" d="M89.1,512c0.6-1.1,0.9-2.3,0.9-3.6V196.9c0-4.2-3.4-7.5-7.5-7.5H47.9c-4.2,0-7.5,3.4-7.5,7.5v311.5
	c0,1.3,0.3,2.6,0.9,3.6H89.1z"/>
<path class="st3" d="M463.4,147.7c-0.1-35.3-13.8-58.7-41.9-71.6C396.2,64.5,362,63,328.8,63.1c-33.2,0.1-67.4,1.8-92.5,13.6
	c-27.9,13.1-41.4,36.6-41.3,71.8l0.3,113.2c0.2,73.9,60.4,133.8,134.2,133.8h0.4c74-0.2,134-60.6,133.8-134.6L463.4,147.7z"/>
<path class="st8" d="M327.6,191.2c-0.1-0.1-13.4-13.5-13.4-44.2c0-4.2-3.4-7.5-7.5-7.5h-45.9c-2.4,0-4.6,1.1-6,3
	c-1.4,1.9-1.9,4.4-1.2,6.6c0.2,0.6,4.2,13.9,14.4,27.3c13.9,18.2,32.7,27.8,54.3,27.8c3.1,0,5.8-1.9,7-4.7S329.8,193.3,327.6,191.2z
	"/>
<path class="st8" d="M389.2,191.2c-0.1-0.1-13.3-13.5-13.3-44.2c0-4.2-3.4-7.5-7.5-7.5h-45.9c-2.4,0-4.6,1.1-6,3
	c-1.4,1.9-1.9,4.4-1.2,6.6c0.2,0.6,4.2,13.9,14.4,27.3c13.9,18.2,32.7,27.8,54.3,27.8c3.1,0,5.8-1.9,7-4.7S391.4,193.3,389.2,191.2z
	"/>
<path class="st9" d="M463.4,147.7c-0.1-35.3-13.8-58.7-41.9-71.6C396.2,64.5,362,63,328.8,63.1c-33.2,0.1-67.4,1.8-92.5,13.6
	c-27.9,13.1-41.4,36.6-41.3,71.8l0.3,113.2c0.1,33.9,13,66.2,36.3,91.1c1.5,1.6,3.5,2.4,5.5,2.4c0.9,0,1.9-0.2,2.8-0.5
	c2.9-1.1,4.8-3.9,4.8-7V154.5h170.3v192.6c0,3.1,1.9,5.9,4.8,7c2.9,1.1,6.2,0.4,8.3-1.9c23.1-25,35.8-57.5,35.7-91.3L463.4,147.7z"
	/>
<path class="st2" d="M329.3,336c-9.4,0-18.3-3.5-25.3-9.8c-3.1-2.8-3.3-7.6-0.5-10.6c2.8-3.1,7.6-3.3,10.6-0.5
	c4.1,3.8,9.5,5.9,15.1,5.9h0.1c5.6,0,11-2.1,15.1-6c3-2.8,7.8-2.6,10.6,0.4c2.8,3,2.6,7.8-0.4,10.6c-6.9,6.4-15.9,9.9-25.3,10
	C329.4,336,329.3,336,329.3,336z"/>
<path class="st10" d="M299.1,266.3c0-6.6-5.4-12-12-12s-12,5.4-12,12s5.4,12,12,12S299.1,272.9,299.1,266.3z"/>
<path class="st8" d="M301.2,247.3c-0.6,0-1.3-0.1-1.9-0.3l-28.3-7.5c-4-1.1-6.4-5.2-5.3-9.2s5.2-6.4,9.2-5.3l28.3,7.5
	c4,1.1,6.4,5.2,5.3,9.2C307.5,245,304.5,247.3,301.2,247.3z"/>
<path class="st10" d="M383.8,266c0-6.6-5.4-12-12-12s-12,5.4-12,12s5.4,12,12,12S383.8,272.7,383.8,266z"/>
<path class="st8" d="M357.6,247.1c-3.3,0-6.3-2.2-7.3-5.6c-1.1-4,1.3-8.1,5.3-9.2l28.3-7.7c4-1.1,8.1,1.3,9.2,5.3
	c1.1,4-1.3,8.1-5.3,9.2l-28.3,7.7C358.9,247,358.2,247.1,357.6,247.1z"/>
<path class="st9" d="M66.9,196.9c0-4.2-3.4-7.5-7.5-7.5H47.9c-4.2,0-7.5,3.4-7.5,7.5v311.5c0,1.3,0.3,2.6,0.9,3.6H66
	c0.6-1.1,0.9-2.3,0.9-3.6V196.9z"/>
<path class="st4" d="M463.4,147.7c-0.1-35.3-13.8-58.7-41.9-71.6C396.2,64.5,362,63,328.8,63.1c-3.1,0-6.2,0-9.4,0.1
	c28.7,0.4,57.2,2.9,79,13c28.1,12.9,41.7,36.3,41.9,71.6l0.3,113.2c0.2,70.2-53.9,128.2-122.6,134.1c3.8,0.3,7.6,0.5,11.5,0.5h0.4
	c74-0.2,134-60.6,133.8-134.6L463.4,147.7z"/>
<path class="st11" d="M221.6,340.8c3.1,4.2,6.4,8.2,10.1,12.1c1.5,1.6,3.5,2.4,5.5,2.4c0.9,0,1.9-0.2,2.8-0.5c2.9-1.1,4.8-3.9,4.8-7
	V154.5h-23.1V340.8z"/>
<path class="st11" d="M463.4,147.7c-0.1-35.3-13.8-58.7-41.9-71.6C396.2,64.5,362,63,328.8,63.1c-3.1,0-6.2,0-9.3,0.1
	c28.7,0.4,57.1,2.9,78.9,13c28.1,12.9,41.7,36.3,41.9,71.6l0.3,113.2c0.1,28.6-8.9,56.2-25.7,79.1v7.1c0,3.1,1.9,5.9,4.8,7
	c2.9,1.1,6.2,0.4,8.3-1.9c23.1-25,35.8-57.5,35.7-91.3L463.4,147.7z"/>
<path class="st12" d="M70,4.9c-1.4-1.9-3.7-3.1-6.1-3.1s-4.7,1.2-6.1,3.1c-1.5,2.1-36.4,50.9-36.4,112.1c0,31.1,4.1,60,11.6,81.4
	c1.1,3,3.9,5,7.1,5h47.6c3.2,0,6-2,7.1-5c7.5-21.4,11.6-50.3,11.6-81.4C106.4,55.7,71.5,6.9,70,4.9z"/>
<path class="st13" d="M70,4.9c-1.4-1.9-3.7-3.1-6.1-3.1s-4.7,1.2-6.1,3.1c-0.3,0.5-2.4,3.4-5.4,8.3c10.2,16.7,31,56.5,31,103.7
	c0,31.1-4.1,60-11.6,81.4c-1.1,3-3.9,5-7.1,5h23.1c3.2,0,6-2,7.1-5c7.5-21.4,11.6-50.3,11.6-81.4C106.4,55.7,71.5,6.9,70,4.9z"/>
<path class="st14" d="M97.9,175.9H32.5c-4.2,0-7.5,3.4-7.5,7.5v89.2c0,4.2,3.4,7.5,7.5,7.5h65.4c4.2,0,7.5-3.4,7.5-7.5v-89.2
	C105.4,179.2,102.1,175.9,97.9,175.9z"/>
<path class="st15" d="M97.9,175.9H74.8c4.2,0,7.5,3.4,7.5,7.5v89.2c0,4.2-3.4,7.5-7.5,7.5h23.1c4.2,0,7.5-3.4,7.5-7.5v-89.2
	C105.4,179.2,102.1,175.9,97.9,175.9z"/>
<path class="st14" d="M379.1,2.6c-1.4-1.6-3.5-2.6-5.7-2.6h-92.3c-2.2,0-4.3,0.9-5.7,2.6c-1.4,1.6-2.1,3.8-1.8,6l20.1,139.5
	c0.5,3.7,3.7,6.5,7.4,6.5h52.1c3.7,0,6.9-2.8,7.4-6.5L380.9,8.6C381.2,6.4,380.6,4.2,379.1,2.6z"/>
<g>
	<path class="st15" d="M359.8,48.7h-28.5c-4.2,0-7.5-3.4-7.5-7.5s3.4-7.5,7.5-7.5h28.5c4.2,0,7.5,3.4,7.5,7.5S363.9,48.7,359.8,48.7
		z"/>
	<path class="st15" d="M333,95h-28.5c-4.2,0-7.5-3.4-7.5-7.5c0-4.2,3.4-7.5,7.5-7.5H333c4.2,0,7.5,3.4,7.5,7.5
		C340.5,91.7,337.2,95,333,95z"/>
	<path class="st15" d="M379.1,2.6c-1.4-1.6-3.5-2.6-5.7-2.6h-23.1c2.2,0,4.3,0.9,5.7,2.6c1.4,1.6,2.1,3.8,1.8,6l-20.1,139.5
		c-0.5,3.7-3.7,6.5-7.4,6.5h23.1c3.7,0,6.9-2.8,7.4-6.5L380.9,8.6C381.2,6.4,380.6,4.2,379.1,2.6z"/>
</g>
<path class="st3" d="M83,349.4H48.4C23.9,349.4,4,369.3,4,393.8c0,24.5,19.9,44.4,44.4,44.4H83c24.5,0,44.4-19.9,44.4-44.4
	C127.4,369.3,107.5,349.4,83,349.4z"/>
<path class="st4" d="M83,349.4H59.9c24.5,0,44.4,19.9,44.4,44.4c0,24.5-19.9,44.4-44.4,44.4H83c24.5,0,44.4-19.9,44.4-44.4
	C127.4,369.3,107.5,349.4,83,349.4z"/>
</svg>
