<?xml version="1.0"?>
<svg xmlns="http://www.w3.org/2000/svg" height="512px" viewBox="-72 0 512 512" width="512px" class=""><g transform="matrix(1 0 0 1 0 0)"><path d="m183.730469 179.296875c-47.484375 0-86.117188 38.632813-86.117188 86.113281v69.085938c0 47.480468 38.632813 86.113281 86.117188 86.113281s86.113281-38.632813 86.113281-86.113281v-69.085938c0-47.484375-38.628906-86.113281-86.113281-86.113281zm0 0" fill="#f0bca6" data-original="#F0BCA6" class="" style="fill:#F0BCA6"/><g fill="#e6b09a"><path d="m183.730469 179.296875c-3.921875 0-7.773438.289063-11.554688.796875 42.039063 5.664062 74.5625 41.753906 74.5625 85.316406v69.085938c0 43.5625-32.523437 79.652344-74.5625 85.316406 3.78125.507812 7.632813.796875 11.554688.796875 47.484375 0 86.113281-38.632813 86.113281-86.117187v-69.082032c0-47.484375-38.628906-86.113281-86.113281-86.113281zm0 0" data-original="#000000" class=""/><path d="m153.347656 187.828125-67.710937.636719c-.429688-.011719-.640625-.171875-.789063-.320313-.152344-.148437-.332031-.40625-.332031-.792969v-122.121093c0-2.117188-.890625-4.140625-2.457031-5.566407-1.566406-1.425781-3.65625-2.132812-5.769532-1.933593-.523437.046875-12.921874 1.292969-25.09375 10.882812-19.839843 15.621094-24.003906 40.847657-24.003906 59.257813v97.546875c0 16.476562 13.40625 29.882812 29.886719 29.882812h96.339844c4.164062 0 7.535156-3.371093 7.535156-7.53125v-52.40625c0-2.011719-.804687-3.9375-2.230469-5.351562-1.429687-1.417969-3.382812-2.246094-5.375-2.183594zm0 0" data-original="#000000" class=""/><path d="m315.566406 68.613281c-12.171875-9.589843-24.574218-10.835937-25.09375-10.882812-2.117187-.195313-4.207031.507812-5.773437 1.933593-1.566407 1.425782-2.457031 3.449219-2.457031 5.566407v122.125c0 .382812-.179688.640625-.328126.789062-.148437.148438-.417968.320313-.792968.320313l-67.710938-.636719c-2.015625-.066406-3.941406.765625-5.371094 2.179687-1.429687 1.414063-2.234374 3.34375-2.234374 5.351563v52.40625c0 4.160156 3.375 7.535156 7.535156 7.535156h96.34375c16.476562 0 29.882812-13.40625 29.882812-29.886719v-97.542968c0-18.410156-4.164062-43.636719-24-59.257813zm0 0" data-original="#000000" class=""/></g><path d="m183.378906 0c-70.050781 0-127.042968 56.988281-127.042968 127.042969 0 70.050781 56.992187 127.039062 127.042968 127.039062 70.050782 0 127.042969-56.988281 127.042969-127.039062 0-70.054688-56.992187-127.042969-127.042969-127.042969zm0 0" fill="#4890e3" data-original="#4890E3" class="" style="fill:#4890E3" data-old_color="#2970D6"/><path d="m315.566406 68.613281c-12.171875-9.589843-24.574218-10.835937-25.09375-10.882812-2.117187-.195313-4.207031.507812-5.773437 1.933593-.871094.792969-1.523438 1.777344-1.941407 2.851563 3.09375 1.515625 6.40625 3.496094 9.703126 6.097656 19.839843 15.621094 24.003906 40.847657 24.003906 59.257813v97.542968c0 16.480469-13.40625 29.886719-29.886719 29.886719h23.105469c16.480468 0 29.886718-13.40625 29.886718-29.886719v-97.542968c-.003906-18.410156-4.167968-43.636719-24.003906-59.257813zm0 0" fill="#e2a58a" data-original="#E2A58A" class=""/><path d="m258.015625 188.464844c.285156 0 .503906-.097656.664063-.210938l-45.269532-.425781c-.628906-.019531-1.246094.054687-1.84375.199219zm0 0" fill="#e2a58a" data-original="#E2A58A" class=""/><path d="m183.378906 0c-3.894531 0-7.746094.1875-11.550781.53125 64.65625 5.855469 115.488281 60.351562 115.488281 126.507812s-50.832031 120.65625-115.488281 126.511719c3.804687.34375 7.65625.53125 11.550781.53125 70.050782 0 127.042969-56.992187 127.042969-127.042969 0-70.050781-56.992187-127.039062-127.042969-127.039062zm0 0" fill="#2970d6" data-original="#2970D6" class="active-path" style="fill:#2970D6" data-old_color="#4890E3"/><path d="m168.484375 347.75h-96.339844c-16.480469 0-29.886719 13.40625-29.886719 29.886719v104.25c0 4.023437 3.160157 7.335937 7.175782 7.527343l42.257812 2.007813c.121094.007813.242188.007813.359375.007813 1.929688 0 3.792969-.742188 5.199219-2.078126 1.492188-1.425781 2.335938-3.394531 2.335938-5.453124v-68.199219c0-.382813.175781-.644531.328124-.792969.148438-.148438.398438-.335938.792969-.320312l67.707031.640624c1.980469.035157 3.945313-.769531 5.375-2.183593 1.425782-1.414063 2.230469-3.339844 2.230469-5.351563v-52.40625c0-4.160156-3.371093-7.535156-7.535156-7.535156zm0 0" fill="#f0bca6" data-original="#F0BCA6" class="" style="fill:#F0BCA6"/><path d="m77.507812 447.753906h-45.386718c-17.710938 0-32.121094 14.410156-32.121094 32.125 0 17.710938 14.410156 32.121094 32.121094 32.121094h69.773437c4.265625 0 7.734375-3.46875 7.734375-7.734375v-26.398437c0-17.710938-14.410156-30.113282-32.121094-30.113282zm0 0" fill="#c06721" data-original="#C06721" class="" style="fill:#F0BCA6" data-old_color="#706456"/><path d="m295.3125 347.75h-96.339844c-4.164062 0-7.535156 3.375-7.535156 7.535156v52.40625c0 2.007813.804688 3.9375 2.230469 5.351563 1.429687 1.414062 3.339843 2.21875 5.375 2.179687l67.710937-.636718c.367188-.023438.640625.171874.792969.320312.148437.148438.328125.40625.328125.789062v68.199219c0 2.0625.84375 4.03125 2.332031 5.453125 1.40625 1.339844 3.269531 2.082032 5.199219 2.082032.121094 0 .238281-.003907.359375-.007813l42.257813-2.011719c4.015624-.1875 7.175781-3.5 7.175781-7.523437v-104.25c0-16.480469-13.40625-29.886719-29.886719-29.886719zm0 0" fill="#f0bca6" data-original="#F0BCA6" class="" style="fill:#F0BCA6"/><path d="m267.652344 331.292969c-1.417969-1.457031-3.363282-2.277344-5.394532-2.277344h-157.058593c-2.03125 0-3.976563.820313-5.394531 2.277344-1.417969 1.457031-2.1875 3.421875-2.136719 5.453125.585937 22.445312 9.820312 43.511718 25.996093 59.3125 16.214844 15.832031 37.542969 24.550781 60.066407 24.550781 22.519531 0 43.847656-8.71875 60.0625-24.550781 16.175781-15.800782 25.410156-36.863282 25.996093-59.3125.050782-2.03125-.71875-3.996094-2.136718-5.453125zm0 0" fill="#fff4f1" data-original="#FFF4F1" class=""/><path d="m119.84375 164.082031c-6.359375-6.320312-14.785156-9.796875-23.746094-9.796875-.035156 0-.070312 0-.105468 0-18.574219.054688-33.640626 15.214844-33.585938 33.789063.054688 18.539062 15.15625 33.585937 33.6875 33.585937h.101562c18.574219-.054687 33.640626-15.210937 33.585938-33.789062-.027344-9-3.554688-17.445313-9.9375-23.789063zm0 0" fill="#e2a58a" data-original="#E2A58A" class=""/><path d="m290.039062 163.570312c-6.355468-6.320312-14.785156-9.792968-23.746093-9.792968-.03125 0-.070313 0-.101563 0-18.578125.054687-33.644531 15.210937-33.589844 33.789062.027344 8.996094 3.558594 17.445313 9.941407 23.789063 6.355469 6.320312 14.785156 9.796875 23.746093 9.796875h.105469c8.996094-.027344 17.445313-3.558594 23.789063-9.9375 6.34375-6.382813 9.824218-14.855469 9.796875-23.851563-.027344-9-3.558594-17.449219-9.941407-23.792969zm0 0" fill="#e2a58a" data-original="#E2A58A" class=""/><path d="m269.875 137.394531c-.011719-4.152343-3.378906-7.511719-7.535156-7.511719h-161.210938c-2.003906 0-3.921875.796876-5.335937 2.214844-1.414063 1.417969-2.207031 3.339844-2.199219 5.339844l.210938 70.601562c.144531 48.511719 39.65625 87.875 88.136718 87.875h.269532c23.453124-.070312 45.535156-9.328124 62.175781-26.070312s25.769531-38.878906 25.699219-62.335938zm0 0" fill="#f0bca6" data-original="#F0BCA6" class="" style="fill:#F0BCA6"/><path d="m181.328125 230.90625c-6.65625 0-13.019531-2.46875-17.929687-6.964844-3.070313-2.808594-3.28125-7.574218-.46875-10.644531 2.808593-3.070313 7.574218-3.277344 10.644531-.46875 2.121093 1.941406 4.875 3.011719 7.753906 3.011719h.035156c2.890625-.007813 5.652344-1.09375 7.769531-3.058594 3.054688-2.824219 7.820313-2.644531 10.648438.410156 2.828125 3.050782 2.644531 7.820313-.40625 10.648438-4.902344 4.539062-11.28125 7.050781-17.964844 7.070312-.027344-.003906-.054687-.003906-.082031-.003906zm0 0" fill="#e2a58a" data-original="#E2A58A" class=""/><path d="m162.105469 194.605469c-.011719-4.21875-3.4375-7.625-7.65625-7.613281-4.214844.011718-7.625 3.441406-7.609375 7.65625.011718 4.21875 3.4375 7.625 7.65625 7.613281 4.214844-.011719 7.625-3.441407 7.609375-7.65625zm0 0" fill="#868686" data-original="#868686" class=""/><path d="m163.433594 185.242188c-.636719 0-1.285156-.082032-1.929688-.25l-18.035156-4.773438c-4.023438-1.066406-6.421875-5.1875-5.355469-9.210938 1.066407-4.019531 5.183594-6.421874 9.210938-5.355468l18.035156 4.773437c4.019531 1.0625 6.417969 5.1875 5.355469 9.207031-.894532 3.378907-3.945313 5.609376-7.28125 5.609376zm0 0" fill="#9f5c2e" data-original="#9F5C2E" class="" style="fill:#F0BCA6" data-old_color="#F7E8DE"/><path d="m216.035156 194.441406c-.011718-4.214844-3.441406-7.625-7.65625-7.609375-4.21875.011719-7.625 3.441407-7.613281 7.65625.015625 4.214844 3.441406 7.625 7.660156 7.613281 4.214844-.015624 7.621094-3.441406 7.609375-7.660156zm0 0" fill="#868686" data-original="#868686" class=""/><path d="m199.335938 185.136719c-3.320313 0-6.359376-2.210938-7.265626-5.566407-1.089843-4.015624 1.28125-8.15625 5.296876-9.242187l18.003906-4.878906c4.011718-1.09375 8.15625 1.28125 9.242187 5.296875 1.089844 4.015625-1.28125 8.15625-5.296875 9.242187l-18.007812 4.882813c-.65625.179687-1.320313.265625-1.972656.265625zm0 0" fill="#9f5c2e" data-original="#9F5C2E" class="" style="fill:#F0BCA6" data-old_color="#F7E8DE"/><path d="m243.648438 414.585938-46.417969.4375c.585937.136718 1.191406.214843 1.8125.199218l45.269531-.425781c-.160156-.117187-.382812-.226563-.664062-.210937zm0 0" fill="#e6b09a" data-original="#E6B09A" class=""/><path d="m295.3125 347.75h-23.101562c16.476562 0 29.882812 13.40625 29.882812 29.886719v104.25c0 4.023437-3.15625 7.335937-7.175781 7.527343l-23.105469 1.097657c1.097656.597656 2.332031.917969 3.59375.917969.117188 0 .238281 0 .359375-.007813l42.257813-2.007813c4.015624-.191406 7.175781-3.503906 7.175781-7.527343v-104.25c0-16.480469-13.40625-29.886719-29.886719-29.886719zm0 0" fill="#e6b09a" data-original="#E6B09A" class=""/><path d="m267.652344 331.292969c-1.417969-1.457031-3.363282-2.277344-5.394532-2.277344h-23.105468c2.03125 0 3.980468.820313 5.398437 2.277344s2.1875 3.421875 2.132813 5.453125c-.585938 22.445312-9.816406 43.511718-25.996094 59.3125-13.410156 13.09375-30.324219 21.304687-48.511719 23.757812 3.804688.515625 7.660157.792969 11.554688.792969 22.519531 0 43.847656-8.71875 60.0625-24.550781 16.175781-15.800782 25.410156-36.863282 25.996093-59.3125.050782-2.03125-.71875-3.996094-2.136718-5.453125zm0 0" fill="#ecedef" data-original="#ECEDEF" class=""/><path d="m269.875 137.394531c-.011719-4.152343-3.378906-7.511719-7.535156-7.511719h-23.101563c4.152344 0 7.519531 3.359376 7.53125 7.511719l.210938 70.113281c.070312 23.457032-9.054688 45.59375-25.695313 62.335938-13.960937 14.042969-31.757812 22.796875-50.972656 25.300781 3.808594.503907 7.6875.769531 11.628906.769531h.269532c23.453124-.070312 45.535156-9.328124 62.175781-26.070312 16.644531-16.742188 25.769531-38.878906 25.699219-62.335938zm0 0" fill="#e6b09a" data-original="#E6B09A" class=""/><path d="m202.859375 247.144531h-23.101563c4.160157 0 7.53125 3.371094 7.53125 7.53125v31.238281c0 10.105469-9.835937 21.878907-17 29.113282 2.96875 3 5.484376 5.226562 6.640626 6.222656 1.410156 1.210938 3.160156 1.816406 4.910156 1.816406s3.496094-.605468 4.910156-1.816406c3.949219-3.394531 23.644531-21.039062 23.644531-35.335938v-31.238281c0-4.160156-3.375-7.53125-7.535156-7.53125zm0 0" fill="#9f5c2e" data-original="#9F5C2E" class="" style="fill:#F0BCA6" data-old_color="#F7E8DE"/><path d="m335.335938 447.753906h-45.386719c-17.710938 0-32.121094 14.410156-32.121094 32.125v24.386719c0 4.265625 3.46875 7.734375 7.734375 7.734375h69.769531c17.714844 0 32.125-14.410156 32.125-32.121094 0-17.710937-14.410156-32.125-32.121093-32.125zm0 0" fill="#c06721" data-original="#C06721" class="" style="fill:#F0BCA6" data-old_color="#706456"/><path d="m335.335938 447.753906h-23.105469c17.714843 0 32.125 14.410156 32.125 32.125 0 17.710938-14.410157 32.121094-32.125 32.121094h23.105469c17.710937 0 32.121093-14.410156 32.121093-32.121094 0-17.710937-14.410156-32.125-32.121093-32.125zm0 0" fill="#9f5c2e" data-original="#9F5C2E" class="" style="fill:#F0BCA6" data-old_color="#F7E8DE"/><path d="m202.859375 247.144531h-42.039063c-4.164062 0-7.535156 3.371094-7.535156 7.53125v31.238281c0 14.296876 19.695313 31.941407 23.644532 35.335938 1.410156 1.210938 3.160156 1.816406 4.910156 1.816406s3.496094-.605468 4.910156-1.816406c3.949219-3.394531 23.644531-21.039062 23.644531-35.335938v-31.238281c0-4.160156-3.375-7.53125-7.535156-7.53125zm0 0" fill="#c06721" data-original="#C06721" class="" style="fill:#F0BCA6" data-old_color="#706456"/><path d="m242.679688 79.199219c-16.460938-10.472657-38.109376-16.242188-60.960938-16.242188-22.855469 0-44.503906 5.769531-60.960938 16.242188-17.519531 11.140625-27.164062 26.261719-27.164062 42.566406v15.742187c0 4.160157 3.371094 7.535157 7.535156 7.535157h161.179688c4.160156 0 7.535156-3.375 7.535156-7.535157v-15.742187c0-16.304687-9.648438-31.425781-27.164062-42.566406zm0 0" fill="#d47a3d" data-original="#D47A3D" class="" style="fill:#F0BCA6" data-old_color="#956D6D"/><path d="m242.679688 79.199219c-16.460938-10.472657-38.109376-16.242188-60.960938-16.242188-3.894531 0-7.75.183594-11.554688.511719 18.523438 1.605469 35.757813 7.042969 49.414063 15.730469 17.515625 11.140625 27.160156 26.261719 27.160156 42.566406v15.742187c0 4.160157-3.371093 7.535157-7.53125 7.535157h23.101563c4.164062 0 7.535156-3.375 7.535156-7.535157v-15.742187c0-16.304687-9.648438-31.425781-27.164062-42.566406zm0 0" fill="#c06721" data-original="#C06721" class="" style="fill:#F0BCA6" data-old_color="#706456"/></g> </svg>
