<?xml version="1.0" encoding="UTF-8"?>
<!-- Generator: Adobe Illustrator 19.0.0, SVG Export Plug-In . SVG Version: 6.00 Build 0)  -->
<svg version="1.1" id="Layer_1" xmlns="http://www.w3.org/2000/svg" xmlns:xlink="http://www.w3.org/1999/xlink" x="0px" y="0px" viewBox="0 0 792 792" style="enable-background:new 0 0 792 792;" xml:space="preserve">
<style type="text/css">
	.st0{fill:#D47A3D;}
	.st1{fill:#E6B19B;}
	.st2{fill:#E2A68B;}
	.st3{fill:#F0BCA6;}
	.st4{fill:#231F20;}
	.st5{fill:#A7A5A6;}
	.st6{fill:#D1D3D4;}
	.st7{fill:#79287C;}
	.st8{fill:#BCBCBB;}
	.st9{fill:#868686;}
	.st10{fill:#D1D0D1;}
	.st11{fill:#656565;}
	.st12{fill:#737475;}
	.st13{fill:#F15C3D;}
	.st14{fill:#EB4D37;}
	.st15{fill:#A95CA4;}
	.st16{fill:#ED9B21;}
	.st17{fill:#FFDF5A;}
	.st18{fill:#A8742A;}
	.st19{fill:#D19529;}
	.st20{fill:#C95B28;}
</style>
<path id="XMLID_85_" class="st0" d="M721.9,125.3c-7.2-7.2-19-12.6-29.3-12.2c-22.5,1-41.5,18.2-41.5,41.5v169.5  c0,10.6,4.6,21.8,12.2,29.3c7.2,7.2,19,12.6,29.3,12.2c22.5-1,41.5-18.2,41.5-41.5V154.6C734.1,144,729.4,132.8,721.9,125.3z"/>
<path id="XMLID_84_" class="st0" d="M344.4,143.3c-7.2-7.2-19-12.6-29.3-12.2c-22.5,1-41.5,18.2-41.5,41.5v166.5  c0,10.6,4.6,21.8,12.2,29.3c7.2,7.2,19,12.6,29.3,12.2c22.5-1,41.5-18.2,41.5-41.5V172.6C356.6,162,352,150.8,344.4,143.3z"/>
<circle id="XMLID_5_" class="st1" cx="708.6" cy="368.2" r="47.3"/>
<circle id="XMLID_1_" class="st1" cx="295.9" cy="371.6" r="47.3"/>
<path id="XMLID_31_" class="st2" d="M170,792h163.7c1.5-2.8,1.9-6.1,0.9-9.1c-3.1-9.8-8.6-18.9-15.9-26.2L140.8,578.8  c-25.4-25.4-66.7-25.4-92,0c-12.3,12.3-19,28.6-19,46s6.7,33.8,19,46L170,792z"/>
<path id="XMLID_30_" class="st3" d="M223.5,792H770c2.1-0.5,4-1.6,5.6-3.1c2.2-2.2,3.4-5.1,3.4-8.2l-0.1-34.7  c-0.2-64.1-25.5-124.5-71.3-170c-45.6-45.3-105.8-70.3-169.7-70.3c-0.2,0-0.5,0-0.7,0l-78.7,0.2c-64.1,0.2-124.5,25.5-170,71.3  C242.9,623,218,683.5,218.2,747.6l0.1,34.7C218.3,786.4,220.3,789.9,223.5,792z"/>
<path id="XMLID_8_" class="st4" d="M536.5,647.3c9.3-0.3,17.6-4.9,24.7-10.7c7.6-6.1,14.3-13.3,21.1-20.4  c14.1-14.8,25.7-31.3,32.8-50.6c3.8-10.3,6.3-21,7.5-31.9c0.1-1.3,2.3-1.4,2.1,0c-2.2,20-8.7,39.5-19.2,56.7  c-5.6,9.2-12.4,17.4-19.7,25.3c-7,7.4-14.1,15-21.9,21.5c-7.8,6.5-16.8,11.8-27.2,12.2C535.1,649.4,535.2,647.3,536.5,647.3z"/>
<path id="XMLID_50_" class="st5" d="M186.4,792.6h276.9c1.4-1.7,2.4-4.1,2.6-6.8c0.4-5.3-2.2-10.1-6.1-11.2  c-26.9-7.4-55.1-30.8-77.2-64.3c-22.2-33.6-34.9-72.4-35-106.5c0-17.5,1.6-34.9,4.9-51.7c0.6-3.1,0.1-6.4-1.3-9c-1.4-2.5-3.7-4-6-4  l0,0h-3.6c-41.9,0.2-81.4,22.8-111.2,63.6c-29.8,40.9-46.1,94.9-46,152.2l0.1,31C184.5,788.3,185.2,790.7,186.4,792.6z"/>
<path class="st6" d="M408.5,793.1c-14.7-13.6-28.7-32.9-40.8-56.3c-20.3-39.5-31.8-85.1-31.6-125c0.1-20.5,1.8-40.9,4.9-60.6  c0.6-3.6,0.1-7.5-1.1-10.6c-1.3-2.9-3.4-4.7-5.5-4.7l-3.3,0c-38.8,0-75.6,26.2-103.5,73.8c-27.9,47.7-43.5,110.9-43.8,178.1l0,5.3  H408.5z"/>
<path id="XMLID_32_" class="st0" d="M626.8,345.4V456c0,79.2-56.6,145.1-131.6,159.5c-75-14.4-131.6-80.4-131.6-159.5V345.4  c0-79.2,56.6-145.1,131.6-159.5c32.5,6.2,61.5,22.2,84,44.7C608.7,259.9,626.8,300.5,626.8,345.4z"/>
<path id="XMLID_29_" class="st1" d="M778.8,746c-0.2-64.1-25.5-124.5-71.3-170c-45.6-45.3-105.8-70.3-169.7-70.3c-0.2,0-0.5,0-0.7,0  l-28.6,0.1c61.5,1.6,119.2,26.4,163.3,70.2c45.8,45.5,71.1,105.9,71.3,170l0.1,34.7c0,3.1-1.2,6-3.4,8.2c-1.5,1.5-3.5,2.6-5.6,3.1  H770c2.1-0.5,4-1.6,5.6-3.1c2.2-2.2,3.4-5.1,3.4-8.2L778.8,746z"/>
<path id="XMLID_27_" class="st3" d="M639.1,769.7c-41.2-8.2-84.2-34.5-117.9-72c-33.9-37.6-53.4-81.1-53.5-119.3  c-0.1-19.6,2.4-39.1,7.4-57.9c0.9-3.5,0.2-7.2-2-10.1c-2.2-2.8-5.6-4.5-9.2-4.5l0,0h-5.5c-8.3,0-16.6,0.5-24.7,1.3  c1.5,0.8,2.8,1.8,3.8,3.2c2.2,2.9,3,6.6,2,10.1c-5,18.8-7.5,38.3-7.4,57.9c0.1,38.2,19.6,81.7,53.5,119.3  c33.8,37.5,76.8,63.7,117.9,72c5.8,1.2,9.9,6.6,9.3,12.5c-0.4,4.6-3.5,8.3-7.6,9.8h35.6c4.1-1.5,7.1-5.2,7.6-9.8  C649,776.3,645,770.9,639.1,769.7z"/>
<path id="XMLID_36_" class="st4" d="M471,647.3c-9.3-0.3-17.6-4.9-24.7-10.7c-7.6-6.1-14.3-13.3-21.1-20.4  c-14.1-14.8-25.7-31.3-32.8-50.6c-3.8-10.3-6.3-21-7.5-31.9c-0.1-1.3-2.3-1.4-2.1,0c2.2,20,8.7,39.5,19.2,56.7  c5.6,9.2,12.4,17.4,19.7,25.3c7,7.4,14.1,15,21.9,21.5c7.8,6.5,16.8,11.8,27.2,12.2C472.4,649.4,472.4,647.3,471,647.3z"/>
<path id="XMLID_47_" class="st5" d="M544.2,792.6h245.9c1.2-1.9,1.9-4.5,1.9-7.1l0.1-30.9c0.1-57-14.4-110.7-40.9-151.4  s-61.6-63.2-99-63.3H649l0,0c-2.1,0-4.1,1.5-5.4,4c-1.3,2.5-1.7,5.8-1.2,9c2.9,16.7,4.4,34.1,4.3,51.5c-0.1,33.9-11.4,72.6-31.1,106  c-19.7,33.3-44.7,56.6-68.7,63.9c-3.4,1-5.7,5.8-5.4,11.1C541.7,788.3,542.7,790.9,544.2,792.6z"/>
<path class="st6" d="M763.6,794.6l0.1-30.3c0.1-57-14.4-110.7-40.9-151.4s-61.6-63.2-99-63.3h-3.2c-2.1,0-4.1,1.5-5.4,4  c-1.3,2.5-1.7,5.8-1.2,9c2.9,16.7,4.4,34.1,4.3,51.5c-0.1,33.9-11.4,72.6-31.1,106c-19.7,33.3-44.7,56.6-68.7,63.9  c-3.3,1-5.6,5.5-5.4,10.6H763.6z"/>
<path id="XMLID_44_" class="st7" d="M467.9,792.6c33.8-14.1,68.4-33.5,97.9-60.1c57.4-51.6,99.4-110.8,123.6-174  c0.2-5.2-2.7-10.1-7.9-13.8s-12.3-5.7-19.6-5.5c-68.7-9.7-82.4,96.7-151.1,164.4s-178.6,58-206.1,87c-0.7,0.7-1.3,1.4-1.9,2.1  L467.9,792.6L467.9,792.6z"/>
<path id="XMLID_4_" class="st0" d="M708.6,290.9v130.2c0,93.2-72.3,170.8-168,187.8c-12.7,2.3-25.9,3.4-39.4,3.4  c-114.5,0-207.4-85.6-207.4-191.2V290.9c0-105.6,92.8-191.2,207.4-191.2c13.5,0,26.7,1.2,39.4,3.4c41.5,7.3,78.6,26.1,107.3,52.6  C685.4,190.3,708.6,238.1,708.6,290.9z"/>
<path id="XMLID_26_" class="st8" d="M130.2,792c0.9-1.7,1.5-3.6,1.5-5.6V305.2c0-6.4-5.2-11.6-11.6-11.6H66.6  c-6.4,0-11.6,5.2-11.6,11.6v481.2c0,2,0.5,4,1.5,5.6H130.2z"/>
<path id="XMLID_25_" class="st3" d="M708.5,229.3c-0.2-54.5-21.3-90.6-64.7-110.6c-39.1-18-91.9-20.3-143.3-20.2  c-51.3,0.2-104.1,2.8-142.9,21c-43.1,20.2-63.9,56.5-63.8,111l0.5,174.9c0.3,114.1,93.3,206.7,207.3,206.7h0.6  c114.3-0.3,207-93.6,206.7-207.9L708.5,229.3z"/>
<path id="XMLID_24_" class="st0" d="M498.7,296.4c-0.2-0.2-20.6-20.9-20.6-68.3c0-6.4-5.2-11.6-11.6-11.6h-70.8  c-3.7,0-7.1,1.7-9.3,4.7c-2.2,2.9-2.9,6.7-1.8,10.2c0.3,0.9,6.5,21.5,22.3,42.1c21.5,28.1,50.6,42.9,83.9,42.9c4.8,0,9-2.9,10.8-7.3  C503.3,304.7,502.2,299.7,498.7,296.4z"/>
<path id="XMLID_23_" class="st0" d="M593.8,296.4c-0.2-0.2-20.6-20.9-20.6-68.3c0-6.4-5.2-11.6-11.6-11.6h-70.8  c-3.7,0-7.1,1.7-9.3,4.7c-2.2,2.9-2.9,6.7-1.8,10.2c0.3,0.9,6.5,21.5,22.3,42.1c21.5,28.1,50.6,42.9,83.9,42.9c4.8,0,9-2.9,10.8-7.3  C598.4,304.7,597.3,299.7,593.8,296.4z"/>
<path id="XMLID_21_" class="st2" d="M501.3,541.5c-14.5,0-28.3-5.4-39-15.2c-4.7-4.3-5.1-11.7-0.7-16.4c4.3-4.7,11.7-5.1,16.4-0.7  c6.4,5.8,14.7,9.1,23.3,9.1h0.1c8.7,0,17-3.3,23.4-9.2c4.7-4.4,12.1-4.1,16.4,0.6c4.4,4.7,4.1,12.1-0.6,16.4  c-10.7,9.9-24.6,15.3-39.1,15.4C501.4,541.5,501.4,541.5,501.3,541.5z"/>
<path id="XMLID_20_" class="st9" d="M454.7,412.4c0-10.2-8.4-18.5-18.6-18.5s-18.5,8.4-18.5,18.6S426,431,436.2,431  C446.4,431,454.7,422.6,454.7,412.4z"/>
<path id="XMLID_19_" class="st0" d="M457.9,383c-1,0-2-0.1-3-0.4L411.1,371c-6.2-1.6-9.9-8-8.3-14.2s8-9.9,14.2-8.3l43.8,11.6  c6.2,1.6,9.9,8,8.3,14.2C467.7,379.6,463,383,457.9,383z"/>
<path id="XMLID_18_" class="st9" d="M585.6,412c0-10.2-8.4-18.5-18.6-18.5c-10.2,0-18.5,8.4-18.5,18.6s8.4,18.5,18.6,18.5  S585.6,422.2,585.6,412z"/>
<path id="XMLID_17_" class="st0" d="M545,382.8c-5.1,0-9.8-3.4-11.2-8.6c-1.7-6.2,2-12.6,8.2-14.3l43.7-11.9  c6.2-1.7,12.6,2,14.3,8.2s-2,12.6-8.2,14.3l-43.7,11.8C547.1,382.6,546,382.8,545,382.8z"/>
<path id="XMLID_16_" class="st10" d="M96,305.2c0-6.4-5.2-11.6-11.6-11.6H66.6c-6.4,0-11.6,5.2-11.6,11.6v481.2c0,2,0.5,4,1.5,5.6  h38.2c0.9-1.7,1.5-3.6,1.5-5.6V305.2H96z"/>
<path id="XMLID_15_" class="st1" d="M708.5,229.3c-0.2-54.5-21.3-90.6-64.7-110.6c-39.1-18-91.9-20.3-143.3-20.2  c-4.8,0-9.6,0.1-14.4,0.1c44.4,0.7,88.4,4.5,122.1,20c43.3,20,64.5,56.1,64.7,110.6l0.5,174.9c0.3,108.5-83.2,198.1-189.5,207.2  c5.9,0.5,11.8,0.8,17.8,0.8h0.6c114.3-0.3,207-93.6,206.7-207.9L708.5,229.3z"/>
<path id="XMLID_14_" class="st3" d="M334.9,527.5c4.8,6.5,10,12.7,15.5,18.6c2.2,2.4,5.3,3.7,8.5,3.7c1.4,0,2.9-0.3,4.3-0.8  c4.4-1.8,7.4-6,7.4-10.8V239.7H335L334.9,527.5L334.9,527.5z"/>
<path id="XMLID_12_" class="st11" d="M100.8,8.5c-2.2-3-5.7-4.8-9.4-4.8c-3.7,0-7.2,1.8-9.4,4.8c-2.3,3.2-56.2,78.6-56.2,173.1  c0,48.1,6.4,92.7,17.9,125.8c1.6,4.7,6,7.8,11,7.8h73.5c4.9,0,9.3-3.1,11-7.8c11.6-33.1,18-77.7,18-125.8  C157,87.1,103.1,11.7,100.8,8.5z"/>
<path id="XMLID_11_" class="st12" d="M100.8,8.5c-2.2-3-5.7-4.8-9.4-4.8c-3.7,0-7.2,1.8-9.4,4.8c-0.5,0.7-3.7,5.2-8.4,12.9  c15.7,25.8,47.8,87.3,47.8,160.3c0,48.1-6.4,92.7-18,125.8c-1.6,4.7-6,7.8-11,7.8H128c4.9,0,9.3-3.1,11-7.8  c11.6-33.1,18-77.7,18-125.8C157,87.1,103.1,11.7,100.8,8.5z"/>
<path id="XMLID_10_" class="st13" d="M143.9,272.7H42.8c-6.4,0-11.6,5.2-11.6,11.6v137.8c0,6.4,5.2,11.6,11.6,11.6h101.1  c6.4,0,11.6-5.2,11.6-11.6V284.3C155.5,277.9,150.3,272.7,143.9,272.7z"/>
<path id="XMLID_9_" class="st14" d="M143.9,272.7h-35.6c6.4,0,11.6,5.2,11.6,11.6v137.8c0,6.4-5.2,11.6-11.6,11.6h35.6  c6.4,0,11.6-5.2,11.6-11.6V284.3C155.5,277.9,150.3,272.7,143.9,272.7z"/>
<path id="XMLID_3_" class="st3" d="M120.8,540.8H67.3c-37.8,0-68.6,30.8-68.6,68.6S29.5,678,67.3,678h53.5  c37.8,0,68.6-30.8,68.6-68.6C189.4,571.5,158.6,540.8,120.8,540.8z"/>
<path id="XMLID_2_" class="st1" d="M120.8,540.8H85.2c37.8,0,68.6,30.8,68.6,68.6S123,678,85.2,678h35.6c37.8,0,68.6-30.8,68.6-68.6  C189.4,571.5,158.6,540.8,120.8,540.8z"/>
<path id="XMLID_33_" class="st0" d="M685.4,3.1l-91.1,91.1c-7.7-18.9-26.3-32.3-48-32.3c-17.8,0-33.5,9-42.9,22.7  c-23.8-29.3-60.1-48.1-100.8-48.1c-71.7,0-129.9,58.1-129.9,129.9s58.3,129.8,130,129.8c30,0,57.5-10.2,79.5-27.2  c64.5,37,148.2,27.9,203.2-27.1C751.3,175.9,751.3,69,685.4,3.1z"/>
<path id="XMLID_45_" class="st15" d="M521,792.6c97.9-48,158-140.1,201.6-218.2c0.1-9.9-4.4-19.6-12.8-27.5c-12.8-9.2-38.4,0-38.4,0  c-22.6,59.9-61.7,116-115.2,164.8c-50.3,46.3-116.7,69.4-165.3,80.9H521z"/>
<path id="XMLID_52_" class="st7" d="M580.7,792.6c13.3-8,24.6-15.9,32.7-23.3c46.9-42.7,106.6-129.8,128.9-162.1  c35.2-51.2-35.2-34.1-35.2-34.1c-40.5,73.7-96.3,160.5-187.5,204.8c-11.7,5.2-23.5,10.1-35.6,14.8L580.7,792.6L580.7,792.6z"/>
<path id="XMLID_64_" class="st16" d="M437.8,101l19.2,16.1L388.5,199l-19.2-16.1L437.8,101z"/>
<path id="XMLID_63_" class="st16" d="M495.7,114l-8.3,10c-9.6,11.5-26.8,13-38.3,3.4l-10-8.3l8.3-10c9.6-11.5,26.8-13,38.3-3.4  L495.7,114z"/>
<path id="XMLID_62_" class="st17" d="M495.7,114l-8.3,10c-9.6,11.5-26.8,13-38.3,3.4l-0.4-0.3l8.3-10c9.6-11.5,26.8-13,38.3-3.4  L495.7,114z"/>
<path id="XMLID_61_" class="st16" d="M447.5,109.1l-8.3,10l-10-8.3c-11.5-9.6-13-26.8-3.4-38.3l8.3-10l10,8.3  C455.6,80.4,457.2,97.6,447.5,109.1z"/>
<path id="XMLID_60_" class="st17" d="M447.5,109.1l-8.3,10l-0.8-0.6c-11.5-9.6-13-26.8-3.4-38.3l8.3-10l0.8,0.6  C455.6,80.4,457.2,97.6,447.5,109.1z"/>
<path id="XMLID_59_" class="st16" d="M326.4,253.7c-1.5-1.2-1.7-3.4-0.4-4.9l42.1-50.3c1.2-1.5,3.4-1.7,4.9-0.4  c1.5,1.2,1.7,3.4,0.4,4.9l-42.1,50.3C330.1,254.7,327.9,254.9,326.4,253.7z"/>
<path id="XMLID_58_" class="st16" d="M472.9,141.3l-8.3,10c-9.6,11.5-26.8,13-38.3,3.4l-10-8.3l8.3-10c9.6-11.5,26.8-13,38.3-3.4  L472.9,141.3z"/>
<path id="XMLID_57_" class="st17" d="M472.9,141.3l-8.3,10c-9.6,11.5-26.8,13-38.3,3.4l-0.4-0.3l8.3-10c9.6-11.5,26.8-13,38.3-3.4  L472.9,141.3z"/>
<path id="XMLID_56_" class="st16" d="M424.7,136.3l-8.3,10l-10-8.3c-11.5-9.6-13-26.8-3.4-38.3l8.3-10l10,8.3  C432.8,107.7,434.3,124.8,424.7,136.3z"/>
<path id="XMLID_55_" class="st17" d="M424.7,136.3l-8.3,10l-0.8-0.6c-11.5-9.6-13-26.8-3.4-38.3l8.3-10l0.8,0.6  C432.8,107.7,434.3,124.8,424.7,136.3z"/>
<path id="XMLID_54_" class="st16" d="M450.1,168.5l-8.3,10c-9.6,11.5-26.8,13-38.3,3.4l-10-8.3l8.3-10c9.6-11.5,26.8-13,38.3-3.4  L450.1,168.5z"/>
<path id="XMLID_53_" class="st17" d="M450.1,168.5l-8.3,10c-9.6,11.5-26.8,13-38.3,3.4l-0.4-0.3l8.3-10c9.6-11.5,26.8-13,38.3-3.4  L450.1,168.5z"/>
<path id="XMLID_51_" class="st16" d="M401.9,163.5l-8.3,10l-10-8.3c-11.5-9.6-13-26.8-3.4-38.3l8.3-10l10,8.3  C410,134.9,411.5,152,401.9,163.5z"/>
<path id="XMLID_49_" class="st17" d="M401.9,163.5l-8.3,10l-0.8-0.6c-11.5-9.6-13-26.8-3.4-38.3l8.3-10l0.8,0.6  C410,134.9,411.5,152,401.9,163.5z"/>
<path id="XMLID_48_" class="st16" d="M379.1,190.8l-8.3,10l-10-8.3c-11.5-9.6-13-26.8-3.4-38.3l8.3-10l10,8.3  C387.2,162.2,388.7,179.3,379.1,190.8z"/>
<path id="XMLID_46_" class="st17" d="M379.1,190.8l-8.3,10l-0.8-0.6c-11.5-9.6-13-26.8-3.4-38.3l8.3-10l0.8,0.6  C387.2,162.2,388.7,179.3,379.1,190.8z"/>
<path id="XMLID_43_" class="st16" d="M427.3,195.7l-8.3,10c-9.6,11.5-26.8,13-38.3,3.4l-10-8.3l8.3-10c9.6-11.5,26.8-13,38.3-3.4  L427.3,195.7z"/>
<path id="XMLID_7_" class="st17" d="M427.3,195.7l-8.3,10c-9.6,11.5-26.8,13-38.3,3.4l-0.4-0.3l8.3-10c9.6-11.5,26.8-13,38.3-3.4  L427.3,195.7z"/>
<path id="XMLID_81_" class="st16" d="M652.3,172.2L633,188.3l-68.6-81.9l19.2-16.1L652.3,172.2z"/>
<path id="XMLID_80_" class="st16" d="M535.7,95c11.5-9.6,28.6-8.1,38.3,3.4l8.3,10l-10,8.3c-11.5,9.6-28.6,8.1-38.3-3.4l-8.3-10  L535.7,95z"/>
<path id="XMLID_79_" class="st17" d="M526.2,103c11.5-9.6,28.6-8.1,38.3,3.4l8.3,10l-0.4,0.3c-11.5,9.6-28.6,8.1-38.3-3.4l-8.3-10  L526.2,103z"/>
<path id="XMLID_78_" class="st16" d="M577.4,60.1l10-8.3l8.3,10c9.6,11.5,8.1,28.6-3.4,38.3l-10,8.3l-8.3-10  C564.3,86.9,565.9,69.7,577.4,60.1z"/>
<path id="XMLID_77_" class="st17" d="M577.4,60.1l0.8-0.6l8.3,10c9.6,11.5,8.1,28.6-3.4,38.3l-0.8,0.6l-8.3-10  C564.3,86.9,565.9,69.7,577.4,60.1z"/>
<path id="XMLID_76_" class="st16" d="M690.2,242.5l-42.1-50.3c-1.2-1.5-1-3.6,0.4-4.9s3.6-1,4.9,0.4l42.1,50.3  c1.2,1.5,1,3.6-0.4,4.9C693.6,244.2,691.4,244,690.2,242.5z"/>
<path id="XMLID_75_" class="st16" d="M558.5,122.2c11.5-9.6,28.6-8.1,38.3,3.4l8.3,10l-10,8.3c-11.5,9.6-28.6,8.1-38.3-3.4l-8.3-10  L558.5,122.2z"/>
<path id="XMLID_74_" class="st17" d="M549,130.2c11.5-9.6,28.6-8.1,38.3,3.4l8.3,10l-0.4,0.3c-11.5,9.6-28.6,8.1-38.3-3.4l-8.3-10  L549,130.2z"/>
<path id="XMLID_73_" class="st16" d="M600.2,87.3l10-8.3l8.3,10c9.6,11.5,8.1,28.6-3.4,38.3l-10,8.3l-8.3-10  C587.2,114.1,588.7,97,600.2,87.3z"/>
<path id="XMLID_72_" class="st17" d="M600.2,87.3l0.8-0.6l8.3,10c9.6,11.5,8.1,28.6-3.4,38.3l-0.8,0.6l-8.3-10  C587.2,114.1,588.7,97,600.2,87.3z"/>
<path id="XMLID_71_" class="st16" d="M581.3,149.5c11.5-9.6,28.6-8.1,38.3,3.4l8.3,10l-10,8.3c-11.5,9.6-28.6,8.1-38.3-3.4l-8.3-10  L581.3,149.5z"/>
<path id="XMLID_70_" class="st17" d="M571.8,157.5c11.5-9.6,28.6-8.1,38.3,3.4l8.3,10l-0.4,0.3c-11.5,9.6-28.6,8.1-38.3-3.4l-8.3-10  L571.8,157.5z"/>
<path id="XMLID_69_" class="st16" d="M623,114.6l10-8.3l8.3,10c9.6,11.5,8.1,28.6-3.4,38.3l-10,8.3l-8.3-10  C610,141.3,611.5,124.2,623,114.6z"/>
<path id="XMLID_68_" class="st17" d="M623,114.6l0.8-0.6l8.3,10c9.6,11.5,8.1,28.6-3.4,38.3l-0.8,0.6l-8.3-10  C610,141.3,611.5,124.2,623,114.6z"/>
<path id="XMLID_67_" class="st16" d="M645.8,141.8l10-8.3l8.3,10c9.6,11.5,8.1,28.6-3.4,38.3l-10,8.3l-8.3-10  C632.8,168.6,634.3,151.4,645.8,141.8z"/>
<path id="XMLID_66_" class="st17" d="M645.8,141.8l0.8-0.6l8.3,10c9.6,11.5,8.1,28.6-3.4,38.3l-0.8,0.6l-8.3-10  C632.8,168.6,634.3,151.4,645.8,141.8z"/>
<path id="XMLID_65_" class="st16" d="M604.1,176.7c11.5-9.6,28.6-8.1,38.3,3.4l8.3,10l-10,8.3c-11.5,9.6-28.6,8.1-38.3-3.4l-8.3-10  L604.1,176.7z"/>
<path id="XMLID_6_" class="st17" d="M594.6,184.7c11.5-9.6,28.6-8.1,38.3,3.4l8.3,10l-0.4,0.3c-11.5,9.6-28.6,8.1-38.3-3.4l-8.3-10  L594.6,184.7z"/>
<rect id="XMLID_35_" x="462.7" y="637.2" class="st18" width="79.6" height="45.8"/>
<rect id="XMLID_34_" x="465.6" y="647.1" class="st19" width="74.1" height="35.3"/>
<circle id="XMLID_28_" class="st18" cx="502.5" cy="722.1" r="65.9"/>
<path id="XMLID_22_" class="st19" d="M529.2,722.8c-0.5-4.1-1.1-8.2-1.6-12.2c-2.2-7.8-6.1-14.6-11.8-20.3c-3.1-2.4-6.2-4.8-9.3-7.2  c-7.2-4.2-14.9-6.3-23.2-6.3c-6.3-0.2-12.2,1.1-17.7,4c-5.7,1.9-10.6,5-14.8,9.5c-4.5,4.2-7.7,9.1-9.5,14.8  c-2.9,5.5-4.2,11.4-4,17.7c0.5,4.1,1.1,8.2,1.6,12.2c2.2,7.8,6.1,14.6,11.8,20.3c3.1,2.4,6.2,4.8,9.3,7.2c7.2,4.2,14.9,6.3,23.2,6.3  c6.3,0.2,12.2-1.1,17.7-4c5.7-1.9,10.6-5,14.8-9.5c4.5-4.2,7.7-9.1,9.5-14.8C528.1,735,529.4,729.1,529.2,722.8z"/>
<path id="XMLID_13_" class="st18" d="M452.3,707.9c-7.8,0-15.2,6.8-14.9,14.9c0.4,8.1,6.5,14.9,14.9,14.9c7.8,0,15.2-6.8,14.9-14.9  C466.8,714.7,460.6,707.9,452.3,707.9z"/>
<path class="st20" d="M734.8,111.6c0.2-10.3-2.5-20.2-5.3-30c-2.7-9.7-5.7-19.3-9.7-28.6c-7.3-16.7-18.3-31.7-31.6-44.1  c-4.7-4.4-11.8,2.7-7.1,7.1c12.4,11.5,22.3,25.2,29.3,40.6c3.8,8.3,6.4,17.1,8.9,25.9c2.7,9.6,5.6,19.1,5.4,29.1  c0,0.4,0,0.7,0.1,1.1c-0.2,0.6-0.3,1.2-0.3,1.9v202.5c0,6.4,10,6.4,10,0V114.6c0-0.4,0-0.8-0.1-1.1  C734.7,112.9,734.8,112.3,734.8,111.6z"/>
<script xmlns="">
  {
    const open = XMLHttpRequest.prototype.open;
    XMLHttpRequest.prototype.open = function (method, url) {
      open.apply(this, arguments);
      this.addEventListener('readystatechange', function _() {
        if(this.readyState == this.HEADERS_RECEIVED) {
          const contentType = this.getResponseHeader('Content-Type') || '';
          if (contentType.startsWith('video/') || contentType.startsWith('audio/')) {
            window.postMessage({
              source: 'xmlhttprequest-open',
              url,
              mime: contentType,
              method,
              contentType
            }, '*');
          }
          this.removeEventListener('readystatechange', _);
        }
      })
    }
  }
  </script></svg>