<?xml version="1.0"?>
<svg xmlns="http://www.w3.org/2000/svg" height="512px" viewBox="-73 0 512 512" width="512px" class=""><g><path d="m362.457031 480.828125c-.121093-41.449219-16.488281-80.472656-46.082031-109.894531-29.484375-29.304688-68.421875-45.425782-109.695312-45.425782-.15625 0-.316407 0-.476563 0l-50.882813.152344c-41.449218.125-80.476562 16.492188-109.894531 46.085938-29.414062 29.597656-45.546875 68.71875-45.425781 110.167968l.0664062 22.449219c.0117188 4.144531 3.3749998 7.492188 7.5156248 7.492188h.023438l347.429687-1.039063c1.992188-.007812 3.902344-.804687 5.304688-2.21875 1.40625-1.414062 2.191406-3.328125 2.1875-5.320312zm0 0" fill="#f0bca6" data-original="#F0BCA6" class="" style="fill:#F0BCA6"/><path d="m362.457031 480.828125c-.121093-41.449219-16.488281-80.472656-46.082031-109.894531-29.484375-29.304688-68.421875-45.425782-109.695312-45.425782-.15625 0-.316407 0-.476563 0l-18.457031.058594c39.742187 1.03125 77.082031 17.039063 105.585937 45.367188 29.59375 29.417968 45.960938 68.445312 46.082031 109.894531l.070313 22.449219c.003906 1.992187-.78125 3.90625-2.1875 5.320312-1.402344 1.414063-3.3125 2.210938-5.304687 2.21875l-325.359376.972656c.308594.039063.625.066407.945313.066407h.023437l347.429688-1.039063c1.992188-.007812 3.902344-.804687 5.308594-2.21875 1.402344-1.414062 2.191406-3.328125 2.183594-5.320312zm0 0" fill="#e9baa7" data-original="#E9BAA7" style="fill:#E9BAA7" class=""/><path d="m278.027344 512c-.609375-2.859375-2.859375-5.195312-5.867188-5.796875-26.621094-5.328125-54.410156-32.304687-76.25-56.546875-21.902344-24.304688-34.503906-52.410156-34.578125-77.109375-.035156-12.675781 1.578125-25.277344 4.804688-37.457031.597656-2.261719.109375-4.667969-1.316407-6.515625-1.429687-1.847657-3.675781-2.953125-5.96875-2.921875l-3.53125.007812c-41.449218.125-80.476562 16.492188-109.894531 46.085938s-45.550781 68.71875-45.425781 110.167968l.0625 30.085938zm0 0" fill="#fff4f1" data-original="#FFF4F1" class="active-path" style="fill:#ECEDEF" data-old_color="#FFF4F1"/><path d="m272.160156 506.203125c-26.621094-5.328125-54.410156-32.304687-76.25-56.546875-21.902344-24.304688-34.503906-52.410156-34.578125-77.109375-.035156-12.675781 1.578125-25.277344 4.804688-37.457031.597656-2.261719.109375-4.667969-1.316407-6.515625-1.429687-1.847657-3.675781-2.953125-5.96875-2.921875l-3.53125.007812c-5.375.015625-10.710937.3125-15.988281.867188.941407.5 1.785157 1.1875 2.445313 2.042968 1.429687 1.851563 1.914062 4.257813 1.316406 6.515626-3.222656 12.183593-4.839844 24.785156-4.800781 37.457031.074219 24.699219 12.675781 52.808593 34.574219 77.113281 21.839843 24.242188 49.632812 51.21875 76.253906 56.546875 3.003906.601563 5.253906 2.9375 5.867187 5.796875h23.039063c-.609375-2.859375-2.859375-5.195312-5.867188-5.796875zm0 0" fill="#ecedef" data-original="#ECEDEF" class="" style="fill:#ECEDEF"/><path d="m50.589844 180.601562c-.050782 0-.101563 0-.148438 0-12.972656.039063-25.152344 5.125-34.296875 14.324219s-14.160156 21.410157-14.121093 34.382813c.082031 26.726562 21.851562 48.414062 48.558593 48.414062h.148438c12.972656-.039062 25.152343-5.125 34.296875-14.324218 9.144531-9.199219 14.15625-21.410157 14.121094-34.382813-.039063-12.96875-5.128907-25.148437-14.328126-34.292969-9.164062-9.113281-21.316406-14.121094-34.230468-14.121094zm0 0" fill="#f0bca6" data-original="#F0BCA6" class="" style="fill:#F0BCA6"/><path d="m317.558594 179.800781c-12.972656.039063-25.152344 5.125-34.296875 14.324219s-14.160157 21.410156-14.121094 34.382812c.039063 12.96875 5.125 25.148438 14.324219 34.292969 9.167968 9.109375 21.316406 14.121094 34.234375 14.121094h.148437c12.972656-.039063 25.152344-5.125 34.296875-14.324219 9.144531-9.203125 14.15625-21.410156 14.121094-34.382812-.039063-12.972656-5.128906-25.152344-14.328125-34.296875s-21.429688-14.183594-34.378906-14.117188zm0 0" fill="#f0bca6" data-original="#F0BCA6" class="" style="fill:#F0BCA6"/><path d="m319.007812 146.785156c-.105468-35.660156-14.1875-69.234375-39.644531-94.542968-25.363281-25.210938-58.859375-39.078126-94.371093-39.078126-.132813 0-.273438 0-.40625 0-35.660157.105469-69.234376 14.1875-94.542969 39.644532-25.308594 25.460937-39.1875 59.121094-39.078125 94.777344l.335937 113.050781c.222657 73.765625 60.304688 133.625 134.015625 133.621093h.410156c73.898438-.21875 133.84375-60.523437 133.621094-134.421874zm0 0" fill="#dcdbdd" data-original="#DCDBDD" class="" style="fill:#DCDBDD"/><path d="m284.027344 181.714844c0-.261719-.007813-.519532-.019532-.78125l-.007812-.253906c-.054688-4.109376-3.40625-7.410157-7.511719-7.410157-.007812 0-.015625 0-.023437 0l-182.949219.550781c-4.121094.011719-7.460937 3.335938-7.492187 7.453126l-.007813.253906c-.007813.261718-.015625.519531-.011719.78125l.339844 113.914062c.011719 3.539063.234375 7.226563.660156 10.964844.332032 2.910156 2.324219 5.363281 5.101563 6.28125 2.78125.921875 5.839843.144531 7.84375-1.992188 18.824219-20.085937 45.304687-21.714843 80.660156-21.816406 38.988281-.136718 68.910156 4.945313 88.238281 30.039063 1.441406 1.875 3.652344 2.929687 5.953125 2.929687.546875 0 1.105469-.058594 1.652344-.183594 2.855469-.644531 5.074219-2.886718 5.691406-5.75 1.5-6.957031 2.246094-14.046874 2.226563-21.066406zm0 0" fill="#f0bca6" data-original="#F0BCA6" class="" style="fill:#F0BCA6"/><path d="m284.027344 181.714844c0-.261719-.007813-.519532-.019532-.78125l-.007812-.253906c-.054688-4.109376-3.40625-7.410157-7.511719-7.410157-.007812 0-.015625 0-.023437 0l-22.070313.066407c3.660157.464843 6.511719 3.558593 6.5625 7.34375l.007813.253906c.011718.261718.019531.519531.019531.78125l.34375 113.917968c.015625 4.917969-.359375 9.875-1.09375 14.796876 3.066406 2.738281 5.945313 5.808593 8.613281 9.269531 1.4375 1.875 3.652344 2.929687 5.949219 2.929687.550781 0 1.105469-.058594 1.65625-.183594 2.855469-.644531 5.074219-2.886718 5.691406-5.75 1.496094-6.957031 2.246094-14.046874 2.226563-21.066406zm0 0" fill="#e9bba8" data-original="#E9BBA8" class="" style="fill:#E9BBA8"/><path d="m319.007812 146.785156c-.105468-35.660156-14.1875-69.234375-39.644531-94.542968-25.363281-25.210938-58.859375-39.078126-94.371093-39.078126-.132813 0-.273438 0-.40625 0-3.734376.011719-7.441407.183594-11.121094.5 31.1875 2.664063 60.253906 16.109376 82.855468 38.578126 25.460938 25.308593 39.539063 58.882812 39.648438 94.542968l.335938 113.050782c.210937 70.152343-53.796876 128.042968-122.492188 133.925781 3.792969.324219 7.628906.5 11.507812.5h.40625c73.902344-.222657 133.84375-60.523438 133.621094-134.425781zm0 0" fill="#d0cfd1" data-original="#D0CFD1" class="" style="fill:#D0CFD1"/><path d="m185.089844 334.859375c-9.367188 0-18.320313-3.476563-25.226563-9.796875-3.0625-2.804688-3.273437-7.554688-.46875-10.617188 2.800781-3.058593 7.550781-3.269531 10.613281-.46875 4.128907 3.777344 9.484376 5.855469 15.082032 5.855469h.066406c5.625-.015625 10.992188-2.128906 15.113281-5.945312 3.046875-2.820313 7.800781-2.636719 10.617188.40625 2.820312 3.046875 2.640625 7.800781-.40625 10.621093-6.894531 6.386719-15.871094 9.917969-25.277344 9.945313-.039063 0-.074219 0-.113281 0zm0 0" fill="#979797" data-original="#979797" class="" style="fill:#979797"/><path d="m155.675781 239.527344c-.019531-6.617188-5.402343-11.964844-12.019531-11.945313s-11.964844 5.398438-11.945312 12.015625c.019531 6.617188 5.402343 11.964844 12.019531 11.945313 6.617187-.019531 11.964843-5.398438 11.945312-12.015625zm0 0" fill="#868686" data-original="#868686" class="" style="fill:#868686"/><path d="m157.757812 220.523438c-.636718 0-1.285156-.082032-1.929687-.25l-28.300781-7.492188c-4.011719-1.0625-6.402344-5.175781-5.34375-9.1875 1.0625-4.011719 5.175781-6.402344 9.1875-5.339844l28.300781 7.492188c4.011719 1.058594 6.402344 5.171875 5.34375 9.183594-.890625 3.367187-3.933594 5.59375-7.257813 5.59375zm0 0" fill="#fff4f1" data-original="#FFF4F1" class="active-path" style="fill:#ECEDEF" data-old_color="#FFF4F1"/><path d="m240.3125 239.273438c-.019531-6.617188-5.398438-11.964844-12.015625-11.945313s-11.96875 5.398437-11.945313 12.015625c.019532 6.617188 5.398438 11.964844 12.015626 11.945312 6.617187-.019531 11.964843-5.398437 11.945312-12.015624zm0 0" fill="#868686" data-original="#868686" class="" style="fill:#868686"/><path d="m214.105469 220.355469c-3.308594 0-6.339844-2.203125-7.246094-5.550781-1.085937-4.007813 1.28125-8.132813 5.285156-9.21875l28.257813-7.660157c4.007812-1.085937 8.128906 1.28125 9.214844 5.285157 1.085937 4.007812-1.28125 8.132812-5.285157 9.21875l-28.257812 7.660156c-.65625.179687-1.320313.265625-1.96875.265625zm0 0" fill="#fff4f1" data-original="#FFF4F1" class="active-path" style="fill:#ECEDEF" data-old_color="#FFF4F1"/><path d="m309.132812 75.320312c-.035156 0-.070312 0-.105468 0l-248.945313.746094c-19.0625.058594-34.527343 15.613282-34.46875 34.679688.023438 9.207031 3.65625 17.867187 10.222657 24.394531 6.539062 6.5 15.183593 10.074219 24.347656 10.074219h.105468l248.945313-.746094c9.203125-.027344 17.867187-3.65625 24.394531-10.222656 6.523438-6.566406 10.101563-15.25 10.078125-24.457032-.058593-19.027343-15.558593-34.46875-34.574219-34.46875zm0 0" fill="#ecedef" data-original="#ECEDEF" class="" style="fill:#ECEDEF"/><path d="m309.132812 75.320312c-.035156 0-.070312 0-.105468 0l-20.929688.0625c18.085938 1.042969 32.511719 16.054688 32.566406 34.410157.027344 9.203125-3.550781 17.890625-10.078124 24.453125-6.527344 6.566406-15.1875 10.195312-24.394532 10.226562l-228.003906.679688c.664062.039062 1.328125.066406 1.996094.066406h.109375l248.941406-.746094c9.207031-.03125 17.867187-3.660156 24.394531-10.226562 6.527344-6.5625 10.105469-15.25 10.078125-24.453125-.058593-19.03125-15.558593-34.472657-34.574219-34.472657zm0 0" fill="#d6d5d7" data-original="#D6D5D7" class="" style="fill:#D6D5D7" data-old_color="#F3F3F4"/><path d="m184.65625 0c-.078125 0-.164062 0-.242188 0-44.492187.132812-80.578124 36.4375-80.445312 80.925781.132812 44.410157 36.304688 80.445313 80.683594 80.445313h.242187c21.554688-.066406 41.789063-8.519532 56.984375-23.804688 15.191406-15.285156 23.523438-35.570312 23.460938-57.125-.132813-44.40625-36.304688-80.441406-80.683594-80.441406zm0 0" fill="#fff4f1" data-original="#FFF4F1" class="active-path" style="fill:#ECEDEF" data-old_color="#FFF4F1"/><path d="m208.621094 80.5625h-6.664063l13.710938-37.039062c.855469-2.304688.523437-4.882813-.878907-6.902344-1.40625-2.015625-3.707031-3.21875-6.167968-3.21875h-52.945313c-2.300781 0-4.476562 1.054687-5.902343 2.863281-1.425782 1.808594-1.941407 4.167969-1.40625 6.40625l21.507812 89.464844c.683594 2.835937 2.945312 5.019531 5.800781 5.605469.503907.101562 1.007813.152343 1.507813.152343 2.347656 0 4.59375-1.101562 6.027344-3.03125l31.441406-42.308593c1.691406-2.277344 1.957031-5.316407.679687-7.855469-1.273437-2.539063-3.871093-4.136719-6.710937-4.136719zm0 0" fill="#f9cd45" data-original="#F9CD45" class="" style="fill:#ECEDEF" data-old_color="#F9CD45"/><path d="m184.65625 0c-.078125 0-.164062 0-.242188 0-3.824218.0117188-7.582031.308594-11.265624.835938 38.941406 5.601562 69.027343 39.117187 69.148437 79.605468.0625 21.550782-8.265625 41.839844-23.460937 57.125-12.5 12.574219-28.414063 20.511719-45.664063 22.972656 3.75.539063 7.582031.832032 11.480469.832032h.242187c21.554688-.066406 41.789063-8.519532 56.984375-23.804688 15.191406-15.285156 23.523438-35.570312 23.460938-57.125-.132813-44.40625-36.304688-80.441406-80.683594-80.441406zm0 0" fill="#ecedef" data-original="#ECEDEF" class="" style="fill:#ECEDEF"/><path d="m208.621094 80.5625h-6.664063l13.710938-37.039062c.855469-2.304688.523437-4.882813-.878907-6.902344-1.40625-2.015625-3.707031-3.21875-6.167968-3.21875h-23.039063c2.457031 0 4.761719 1.203125 6.164063 3.21875 1.40625 2.019531 1.734375 4.597656.878906 6.902344l-13.710938 37.039062h6.664063c2.839844 0 5.4375 1.597656 6.714844 4.136719 1.273437 2.539062 1.011719 5.578125-.683594 7.855469l-23.609375 31.773437 1.875 7.808594c.683594 2.835937 2.945312 5.019531 5.800781 5.605469.503907.101562 1.007813.152343 1.507813.152343 2.347656 0 4.59375-1.101562 6.027344-3.03125l31.441406-42.308593c1.691406-2.277344 1.957031-5.316407.679687-7.855469-1.273437-2.539063-3.871093-4.136719-6.710937-4.136719zm0 0" fill="#f8b53c" data-original="#F8B53C" class="" style="fill:#ECEDEF" data-old_color="#F8B53C"/></g> </svg>
