<svg width="58" height="58" xmlns="http://www.w3.org/2000/svg">

 <g>
  <title>background</title>
  <rect fill="none" id="canvas_background" height="514.004215" width="514.004215" y="-1" x="-1"/>
 </g>
 <g>
  <title>Layer 1</title>
  <g id="svg_1">
   <g id="svg_2">
    <g id="svg_3"/>
    <path id="svg_8" fill="#FBCE9D" class="active-path" d="m57.228,22.365c-1.195,-5.103 -3.735,-9.684 -7.228,-13.354l-4.776,0.995c-2.534,0.528 -4.959,-1.281 -5.174,-3.861l-1.031,-4.367c-3.123,-1.149 -6.498,-1.778 -10.019,-1.778c-3.626,0 -7.093,0.671 -10.292,1.886c-0.435,2.445 -0.758,4.259 -0.758,4.259c-0.215,2.58 -2.64,4.389 -5.174,3.861l-4.776,-0.995c-3.494,3.669 -6.034,8.251 -7.229,13.353c4.16,1.193 8.135,3.427 8.737,7.637c0.497,3.478 1.577,14.655 2.406,22.426c4.793,3.502 10.696,5.573 17.086,5.573s12.293,-2.071 17.086,-5.573c0.828,-7.771 1.909,-18.948 2.406,-22.426c0.601,-4.209 4.576,-6.443 8.736,-7.636z"/>
    <circle id="svg_9" fill="#F7B563" r="1" cy="32" cx="18"/>
    <circle stroke="null" id="svg_10" fill="#F7B563" r="1" cy="32" cx="41"/>
    <path id="svg_11" fill="#F7B563" d="m24,15.02c-0.256,0 -0.512,-0.098 -0.707,-0.293c-1.263,-1.262 -3.02,-1.838 -5.235,-1.709c-0.554,0.025 -1.024,-0.389 -1.057,-0.94c-0.032,-0.551 0.389,-1.023 0.94,-1.056c2.805,-0.171 5.082,0.607 6.765,2.291c0.391,0.391 0.391,1.023 0,1.414c-0.194,0.195 -0.45,0.293 -0.706,0.293z"/>
    <path id="svg_12" fill="#F7B563" d="m13.829,29.825c-0.552,0 -1,-0.447 -1,-1c0,-1.785 -0.839,-3.437 -2.493,-4.909c-0.413,-0.367 -0.45,-0.999 -0.083,-1.412c0.367,-0.411 0.999,-0.45 1.412,-0.082c2.1,1.868 3.164,4.022 3.164,6.403c0,0.553 -0.448,1 -1,1z"/>
    <path id="svg_13" fill="#F7B563" d="m45.019,29.99c-0.526,0 -0.966,-0.41 -0.998,-0.942c-0.163,-2.806 0.608,-5.082 2.291,-6.765c0.391,-0.391 1.023,-0.391 1.414,0s0.391,1.023 0,1.414c-1.262,1.262 -1.837,3.023 -1.708,5.235c0.032,0.551 -0.389,1.023 -0.94,1.056c-0.02,0.001 -0.04,0.002 -0.059,0.002z"/>
    <path id="svg_14" fill="#F7B563" d="m33.472,15.02c-0.256,0 -0.512,-0.098 -0.707,-0.293c-0.391,-0.391 -0.391,-1.023 0,-1.414c1.606,-1.607 4.334,-2.467 7.293,-2.291c0.551,0.032 0.972,0.505 0.94,1.056c-0.032,0.552 -0.495,0.963 -1.057,0.94c-2.401,-0.142 -4.554,0.499 -5.763,1.709c-0.194,0.195 -0.45,0.293 -0.706,0.293z"/>
    <path id="svg_15" fill="#F7B563" d="m29,31c-0.552,0 -1,-0.447 -1,-1l0,-2c0,-0.553 0.448,-1 1,-1s1,0.447 1,1l0,2c0,0.553 -0.448,1 -1,1z"/>
    <path id="svg_16" fill="#F7B563" d="m41,51c-4.262,0 -8,-3.756 -8,-8.038c0,-0.553 0.448,-1 1,-1s1,0.447 1,1c0,3.217 2.804,6.038 6,6.038c0.552,0 1,0.447 1,1s-0.448,1 -1,1z"/>
    <path id="svg_17" fill="#F7B563" d="m17,51c-0.552,0 -1,-0.447 -1,-1s0.448,-1 1,-1c3.196,0 6,-2.821 6,-6.038c0,-0.553 0.448,-1 1,-1s1,0.447 1,1c0,4.282 -3.738,8.038 -8,8.038z"/>
    <path id="svg_18" fill="#F7B563" d="m22,10c-0.552,0 -1,-0.447 -1,-1l0,-2c0,-0.553 0.448,-1 1,-1s1,0.447 1,1l0,2c0,0.553 -0.448,1 -1,1z"/>
    <path id="svg_19" fill="#F7B563" d="m36,10c-0.552,0 -1,-0.447 -1,-1l0,-2c0,-0.553 0.448,-1 1,-1s1,0.447 1,1l0,2c0,0.553 -0.448,1 -1,1z"/>
   </g>
  </g>
 </g>
</svg>