<svg height="464pt" viewBox="-60 0 464 464" width="464pt" xmlns="http://www.w3.org/2000/svg"><path d="m112 0h112v112h-112zm0 0" fill="#f6bf9b"/><path d="m96 144h144v144h-144zm0 0" fill="#143441"/><path d="m96 288v72l-64 72 32 32 80-96v-80zm0 0" fill="#5a6470"/><path d="m240 288h-64l64 64v80h48v-96zm0 0" fill="#5a6470"/><path d="m96 144-96 104 24 24 72-80zm0 0" fill="#5a6470"/><path d="m240 144 96 104-24 24-72-80zm0 0" fill="#5a6470"/><g fill="#e9686a"><path d="m144 56v16h32v16h16v-32zm0 0"/><path d="m160 184v8c-8.835938 0-16 7.164062-16 16s7.164062 16 16 16v8c0 4.417969 3.582031 8 8 8h16c4.417969 0 8-3.582031 8-8v-8h8c4.417969 0 8-3.582031 8-8v-24c0-8.835938-7.164062-16-16-16h-24c-4.417969 0-8 3.582031-8 8zm0 0"/><path d="m24 104h16v16h-16zm0 0"/><path d="m72 40h16v16h-16zm0 0"/><path d="m312 392h16v16h-16zm0 0"/><path d="m328 376h16v16h-16zm0 0"/><path d="m56 312h16v16h-16zm0 0"/><path d="m256 120h16v16h-16zm0 0"/><path d="m272 104h16v16h-16zm0 0"/><path d="m256 72h16v16h-16zm0 0"/></g></svg>