<svg height="414pt" viewBox="0 0 414.09701 414" width="414pt" xmlns="http://www.w3.org/2000/svg"><path d="m207 117.304688-172.5 234.601562 172.5-41.402344zm0 0" fill="#d3843d"/><path d="m207 117.304688 172.5 234.601562h-172.5zm0 0" fill="#d3843d"/><path d="m207 351.90625 55.199219-55.203125-55.199219-179.398437zm0 0" fill="#ad6327"/><path d="m206.789062 101.832031-13.796874-55.203125c-.925782-3.695312-4.667969-5.941406-8.363282-5.019531-1.214844.304687-2.324218.929687-3.207031 1.816406l-41.402344 41.402344c-2.695312 2.691406-2.695312 7.058594-.003906 9.753906.886719.886719 1.996094 1.515625 3.210937 1.816407l55.199219 13.800781c3.699219.921875 7.441407-1.328125 8.367188-5.023438.273437-1.097656.273437-2.246093-.003907-3.34375zm0 0" fill="#dd3e46"/><path d="m110.191406 129.429688c-.925781-3.695313-4.667968-5.941407-8.363281-5.019532-1.214844.300782-2.324219.929688-3.207031 1.816406l-41.402344 41.398438c-2.695312 2.691406-2.695312 7.0625-.003906 9.753906.886718.886719 1.996094 1.515625 3.210937 1.820313l55.199219 13.796875c3.699219.925781 7.441406-1.324219 8.367188-5.019532.273437-1.097656.273437-2.25-.003907-3.347656zm0 0" fill="#dd3e46"/><path d="m165.390625 143.230469-13.800781-55.199219c-.921875-3.695312-4.664063-5.941406-8.363282-5.019531-1.210937.300781-2.320312.929687-3.207031 1.816406l-41.398437 41.398437c-2.695313 2.691407-2.699219 7.058594-.007813 9.753907.886719.886719 1.996094 1.515625 3.214844 1.820312l55.199219 13.796875c3.695312.925782 7.441406-1.324218 8.363281-5.019531.277344-1.097656.273437-2.25 0-3.347656zm0 0" fill="#f49e21"/><path d="m68.789062 170.832031c-.921874-3.695312-4.664062-5.945312-8.359374-5.023437-1.214844.304687-2.324219.929687-3.210938 1.816406l-41.398438 41.402344c-2.695312 2.691406-2.699218 7.058594-.003906 9.753906.882813.886719 1.996094 1.515625 3.210938 1.816406l55.199218 13.800782c3.695313.921874 7.441407-1.324219 8.363282-5.023438.277344-1.097656.277344-2.246094 0-3.34375zm0 0" fill="#f49e21"/><path d="m232.578125 43.425781c-2.691406-2.695312-7.058594-2.695312-9.753906-.003906-.886719.886719-1.511719 1.992187-1.816407 3.207031l-13.800781 55.203125c-.925781 3.695313 1.320313 7.441407 5.015625 8.367188 1.097656.273437 2.25.273437 3.347656 0l55.199219-13.800781c3.695313-.917969 5.949219-4.664063 5.027344-8.359376-.304687-1.214843-.933594-2.328124-1.816406-3.210937zm0 0" fill="#f49e21"/><path d="m356.777344 167.628906-41.398438-41.402344c-2.691406-2.695312-7.058594-2.695312-9.753906-.003906-.886719.886719-1.511719 1.992188-1.816406 3.207032l-13.800782 55.203124c-.925781 3.691407 1.320313 7.4375 5.015626 8.367188 1.097656.273438 2.246093.273438 3.347656 0l55.199218-13.800781c3.695313-.917969 5.949219-4.664063 5.027344-8.359375-.304687-1.21875-.933594-2.328125-1.820312-3.210938zm0 0" fill="#f49e21"/><path d="m273.976562 84.828125c-2.691406-2.695313-7.058593-2.699219-9.75-.003906-.886718.882812-1.515624 1.992187-1.816406 3.207031l-13.800781 55.199219c-.925781 3.695312 1.316406 7.441406 5.011719 8.367187 1.101562.277344 2.25.277344 3.351562.003906l55.199219-13.800781c3.695313-.921875 5.945313-4.664062 5.023437-8.363281-.300781-1.214844-.929687-2.324219-1.816406-3.210938zm0 0" fill="#dd3e46"/><path d="m398.175781 209.027344-41.398437-41.402344c-2.691406-2.695312-7.058594-2.695312-9.753906-.003906-.882813.886718-1.511719 1.996094-1.816407 3.210937l-13.796875 55.199219c-.925781 3.695312 1.316406 7.441406 5.011719 8.367188 1.097656.273437 2.25.277343 3.347656 0l55.199219-13.800782c3.699219-.917968 5.949219-4.664062 5.027344-8.359375-.304688-1.214843-.929688-2.328125-1.820313-3.210937zm0 0" fill="#dd3e46"/><g fill="#d3843d"><path d="m13.796875 372.605469h27.601563v13.800781h-27.601563zm0 0"/><path d="m41.398438 400.207031h13.800781v13.796875h-13.800781zm0 0"/><path d="m69 386.40625h27.597656v13.800781h-27.597656zm0 0"/><path d="m179.398438 386.40625h27.601562v13.800781h-27.601562zm0 0"/><path d="m220.800781 372.605469h20.699219v13.800781h-20.699219zm0 0"/><path d="m365.699219 400.207031h34.5v13.796875h-34.5zm0 0"/><path d="m400.199219 358.804688h13.800781v13.800781h-13.800781zm0 0"/><path d="m324.300781 386.40625h13.800781v13.800781h-13.800781zm0 0"/></g><path d="m6.898438 234.605469c-3.8125 0-6.898438-3.089844-6.898438-6.902344 0-1.828125.726562-3.582031 2.019531-4.875l220.800781-220.800781c2.71875-2.671875 7.085938-2.632813 9.757813.085937 2.636719 2.683594 2.636719 6.984375 0 9.667969l-220.800781 220.800781c-1.292969 1.296875-3.046875 2.023438-4.878906 2.023438zm0 0" fill="#dd3e46"/><path d="m407.101562 234.605469c-1.832031 0-3.589843-.726563-4.878906-2.023438l-220.800781-220.800781c-2.671875-2.71875-2.632813-7.085938.085937-9.753906 2.683594-2.636719 6.984376-2.636719 9.667969 0l220.800781 220.796875c2.695313 2.695312 2.695313 7.066406 0 9.757812-1.292968 1.296875-3.046874 2.023438-4.875 2.023438zm0 0" fill="#dd3e46"/></svg>