<?xml version="1.0" encoding="iso-8859-1"?>
<!-- Generator: Adobe Illustrator 19.0.0, SVG Export Plug-In . SVG Version: 6.00 Build 0)  -->
<svg version="1.1" id="Capa_1" xmlns="http://www.w3.org/2000/svg" xmlns:xlink="http://www.w3.org/1999/xlink" x="0px" y="0px"
	 viewBox="0 0 512.004 512.004" style="enable-background:new 0 0 512.004 512.004;" xml:space="preserve">
<g>
	<path style="fill:#FC9D9A;" d="M21.109,279.385l-19.54-2.383c8.509-69.039,50.336-129.509,111.92-161.842l9.14,17.452
		c-17.215,9.031-32.963,20.633-46.702,34.391C45.504,197.218,26.191,236.819,21.109,279.385z"/>
	<path style="fill:#FC9D9A;" d="M0.565,318.307c-0.502-6.894-0.67-13.788-0.502-20.682l19.697,0.473
		c-0.158,6.195,0,12.498,0.443,18.712L0.565,318.307z"/>
	<path style="fill:#FC9D9A;" d="M418.993,390.083l-10.952-16.359c10.371-6.914,20.032-14.832,28.847-23.637
		c34.933-34.766,54.827-81.852,55.418-131.134l19.697,0.295c-0.67,54.374-22.632,106.326-61.17,144.696
		C441.103,373.685,430.437,382.441,418.993,390.083z"/>
	<path style="fill:#FC9D9A;" d="M491.647,200.232c-0.532-6.264-1.389-12.557-2.531-18.712l19.372-3.605
		c1.261,6.805,2.196,13.788,2.777,20.682L491.647,200.232z"/>
</g>
<path style="fill:#D8445E;" d="M512.004,35.149L484.152,7.297L456.29,35.149L428.438,7.297l-27.862,27.852l27.862,27.862
	l-28.817,28.817c-68.546-53.379-167.377-41.088-220.757,27.458c-8.45,10.853-15.443,22.77-20.8,35.445
	c16.24-5.889,33.347-9.071,50.622-9.415c39.207-52.178,113.298-62.696,165.476-23.489s62.696,113.298,23.489,165.476
	s-113.298,62.696-165.476,23.489c-38.232-28.728-55.379-77.656-43.452-123.965c-15.246,3.004-29.743,9.002-42.654,17.649
	c-6.539,86.737,58.481,162.345,145.208,168.874c86.727,6.53,162.345-58.481,168.874-145.208
	c2.935-38.961-8.716-77.617-32.688-108.463l28.817-28.817l27.862,27.862l27.852-27.862l-27.852-27.852L512.004,35.149z"/>
<path style="fill:#F07A87;" d="M306.079,373.656c-39.197,52.188-113.279,62.726-165.476,23.528s-62.726-113.279-23.528-165.476
	s113.279-62.726,165.476-23.528c38.242,28.719,55.398,77.646,43.482,123.965c15.246-3.004,29.753-9.002,42.664-17.649
	c6.52-86.737-58.511-162.325-145.247-168.845c-86.737-6.52-162.325,58.52-168.845,145.257
	c-2.925,38.951,8.726,77.587,32.688,108.433l-35.78,35.77v-5.279c0.246-11.543-8.903-21.096-20.436-21.352
	S9.98,417.384,9.724,428.917c-0.01,0.305-0.01,0.601,0,0.906v74.879h74.918c11.543,0.246,21.096-8.903,21.352-20.436
	c0.256-11.533-8.903-21.096-20.436-21.352c-0.305-0.01-0.601-0.01-0.906,0h-5.289l35.741-35.78
	c68.546,53.379,167.377,41.088,220.757-27.458c8.45-10.853,15.443-22.77,20.8-35.445
	C340.431,370.13,323.344,373.311,306.079,373.656z"/>
<g>
</g>
<g>
</g>
<g>
</g>
<g>
</g>
<g>
</g>
<g>
</g>
<g>
</g>
<g>
</g>
<g>
</g>
<g>
</g>
<g>
</g>
<g>
</g>
<g>
</g>
<g>
</g>
<g>
</g>
</svg>
