<svg height="511pt" viewBox="-49 1 511 511.999" width="511pt" xmlns="http://www.w3.org/2000/svg"><path d="m399.082031 253.347656h-63.613281l-251.9375-77.109375-78.910156-83.140625c-5.539063-5.839844-5.488282-15.007812.117187-20.78125 21.976563-22.632812 47.742188-40.421875 76.582031-52.878906 29.867188-12.898438 61.636719-19.4375 94.425782-19.4375 72.878906 0 134.0625 24.265625 176.929687 70.179688 39.601563 42.414062 61.410157 102.136718 61.410157 168.164062 0 8.285156-6.714844 15.003906-15.003907 15.003906zm0 0" fill="#ff826e"/><path d="m199.441406.902344v210.8125l136.027344 41.632812h63.617188c8.285156 0 15.003906-6.71875 15.003906-15.003906 0-66.027344-21.8125-125.75-61.414063-168.164062-38.132812-40.84375-90.769531-64.539063-153.234375-69.277344zm0 0" fill="#d9311c"/><path d="m318.222656 350.429688c-5.574218-12.902344-4.871094-27.726563 2.160156-39.894532 8.195313-14.171875 17.378907-37.332031 16.675782-69.261718-1.652344-75.285157-62.097656-136.765626-137.402344-136.875-76.125-.109376-137.871094 61.570312-137.871094 137.671874v269.929688l127.578125-166.027344v-18.175781c0-22.402344 23.203125-37.277344 43.5625-27.925781l.007813.003906c10.90625 5.007812 17.898437 15.90625 17.90625 27.910156l.03125 46.84375 69.9375 23.976563c8.222656 2.816406 15.878906-5.460938 12.433594-13.4375zm0 0" fill="#e5e2d6"/><path d="m61.785156 262.285156 56.148438.003906c8.289062 0 15.003906 6.71875 15.003906 15.003907 0 8.289062-6.71875 15.003906-15.003906 15.003906l-56.148438-.003906zm0 0" fill="#49545c"/><path d="m337.0625 241.273438c-1.65625-75.285157-62.101562-136.765626-137.40625-136.875-.070312 0-.140625.003906-.214844.003906v200.644531c8.644532-7.804687 21.550782-10.65625 33.484375-5.175781l.007813.003906c10.90625 5.007812 17.898437 15.910156 17.90625 27.910156l.03125 46.847656 69.9375 23.972657c8.222656 2.820312 15.878906-5.460938 12.433594-13.4375l-15.015626-34.738281c-5.578124-12.902344-4.875-27.726563 2.160157-39.894532 8.191406-14.171875 17.375-37.332031 16.675781-69.261718zm0 0" fill="#c9c5b1"/></svg>