<svg height="511pt" viewBox="-25 0 511 511.99893" width="511pt" xmlns="http://www.w3.org/2000/svg"><path d="m378.042969 195.367188h-137.011719c-12.589844 0-22.835938-10.246094-22.835938-22.835938h15.222657c0 4.199219 3.414062 7.613281 7.613281 7.613281h137.011719zm0 0" fill="#f9b589"/><path d="m42.109375 466.34375c-4.203125 0-7.609375 3.40625-7.609375 7.613281 0 4.203125 3.40625 7.609375 7.609375 7.609375h30.449219v-15.222656zm0 0" fill="#893a31"/><path d="m214.644531 390.226562h-30.449219v15.226563h30.449219c4.203125 0 7.609375-3.410156 7.609375-7.613281s-3.40625-7.613282-7.609375-7.613282zm0 0" fill="#762916"/><path d="m222.253906 367.394531c0-4.207031-3.40625-7.613281-7.609375-7.613281h-30.449219v15.222656h30.449219c4.203125 0 7.609375-3.40625 7.609375-7.609375zm0 0" fill="#762916"/><path d="m416.101562 299.039062h-15.226562v139.378907l15.226562 20.300781zm0 0" fill="#f9b589"/><path d="m456.5625 497.164062-17.625-5.875v-52.871093h-38.0625v50.742187c0 3.277344 2.097656 6.1875 5.207031 7.222656l45.667969 15.222657c3.984375 1.332031 8.296875-.824219 9.628906-4.8125 1.328125-3.988281-.828125-8.300781-4.816406-9.628907zm0 0" fill="#da521b"/><path d="m339.984375 299.039062h15.222656v139.378907l-15.222656 20.300781zm0 0" fill="#fcd0ac"/><path d="m299.519531 497.164062 17.628907-5.875v-52.871093h38.058593v50.742187c0 3.277344-2.097656 6.1875-5.207031 7.222656l-45.667969 15.222657c-3.984375 1.332031-8.296875-.824219-9.628906-4.8125-1.328125-3.988281.828125-8.300781 4.816406-9.628907zm0 0" fill="#f0651f"/><path d="m241.03125 279.097656v-30.449218h-30.449219l-20.296875 15.226562 20.296875 15.222656zm0 0" fill="#cb9851"/><path d="m210.582031 279.097656h-194.859375l-15.222656-15.222656 15.222656-15.226562h194.859375zm0 0" fill="#e5ac52"/><path d="m286.699219 256.261719h-38.058594v-22.835938c0-4.203125-3.40625-7.613281-7.609375-7.613281-4.207031 0-7.613281 3.410156-7.613281 7.613281v60.894531c0 4.203126 3.40625 7.609376 7.613281 7.609376 4.203125 0 7.609375-3.40625 7.609375-7.609376v-22.835937h38.058594c4.207031 0 7.613281-3.40625 7.613281-7.609375 0-4.207031-3.40625-7.613281-7.613281-7.613281zm0 0" fill="#4a333a"/><path d="m181.660156 309.542969-58.359375 97.429687 58.359375 97.433594h22.832032v-194.863281zm0 0" fill="#762916"/><path d="m166.433594 309.542969h-15.222656l-7.609376 20.046875-7.613281-20.046875h-15.222656l-7.613281 20.046875-7.609375-20.046875h-15.226563l-7.609375 20.046875-7.613281-20.046875h-22.835938v194.863281h114.175782l7.613281-17.761719v-157.054687zm-91.339844 194.859375 7.613281-17.757813 7.609375 17.757813zm30.449219 0 7.609375-17.757813 7.613281 17.757813zm30.445312 0 7.613281-17.757813 7.609376 17.757813zm0 0" fill="#893a31"/><g fill="#54231d"><path d="m75.09375 395.34375c0 4.203125 3.40625 7.609375 7.613281 7.609375 4.203125 0 7.609375-3.40625 7.609375-7.609375v-85.800781h-15.222656zm0 0"/><path d="m105.542969 309.542969v72.066406c0 4.207031 3.40625 7.613281 7.609375 7.613281 4.207031 0 7.613281-3.40625 7.613281-7.613281v-72.066406zm0 0"/><path d="m181.660156 504.402344h-15.226562v-48.207032c0-20.984374-17.070313-38.058593-38.058594-38.058593-20.984375 0-38.058594 17.074219-38.058594 38.058593v48.207032h-15.222656v-48.207032c0-29.378906 23.902344-53.28125 53.28125-53.28125 29.382812 0 53.285156 23.902344 53.285156 53.28125zm0 0"/><path d="m151.210938 504.402344h-15.222657v-48.207032c0-4.195312-3.414062-7.609374-7.613281-7.609374-4.195312 0-7.609375 3.414062-7.609375 7.609374v48.207032h-15.222656v-48.207032c0-12.589843 10.242187-22.835937 22.832031-22.835937 12.59375 0 22.835938 10.246094 22.835938 22.835937zm0 0"/><path d="m158.824219 393.019531c-12.589844 0-22.835938-10.246093-22.835938-22.835937v-60.640625h15.222657v60.640625c0 4.195312 3.414062 7.609375 7.613281 7.609375 4.195312 0 7.609375-3.414063 7.609375-7.609375v-60.640625h15.226562v60.640625c0 12.589844-10.246094 22.835937-22.835937 22.835937zm0 0"/></g><path d="m362.816406 319.691406 30.449219 45.671875h30.445313v-30.445312zm0 0" fill="#f9d4a0"/><path d="m332.371094 334.917969v30.445312h60.894531v-45.671875zm0 0" fill="#ffebcf"/><path d="m362.816406 243.574219 30.449219 91.34375h30.445313v-60.894531zm0 0" fill="#da521b"/><path d="m332.371094 274.023438v60.894531h60.894531v-91.34375zm0 0" fill="#f0651f"/><path d="m418.636719 167.457031h-30.445313l5.074219 106.566407h30.445313c8.152343-6.121094 13.8125-15.367188 15.226562-25.953126v-60.3125c0-11.214843-9.085938-20.300781-20.300781-20.300781zm0 0" fill="#f69b65"/><path d="m408.488281 187.757812v60.3125c-1.410156 10.585938-7.074219 19.832032-15.222656 25.953126h-60.894531c-8.148438-6.121094-13.8125-15.367188-15.222656-25.953126v-60.3125c0-11.214843 9.082031-20.300781 20.296874-20.300781h50.746094c11.214844 0 20.296875 9.085938 20.296875 20.300781zm0 0" fill="#f9b589"/><path d="m355.230469 197.90625c0 4.203125-3.40625 7.609375-7.609375 7.609375s-7.613282-3.40625-7.613282-7.609375 3.410157-7.613281 7.613282-7.613281 7.609375 3.410156 7.609375 7.613281zm0 0" fill="#f69b65"/><path d="m416.101562 197.90625c0 4.203125-3.410156 7.609375-7.613281 7.609375s-7.613281-3.40625-7.613281-7.609375 3.410156-7.613281 7.613281-7.613281 7.613281 3.410156 7.613281 7.613281zm0 0" fill="#f38042"/><path d="m248.640625 55.820312v131.953126c0 4.203124 3.410156 7.609374 7.613281 7.609374s7.613282-3.40625 7.613282-7.609374v-131.953126zm0 0" fill="#893a31"/><path d="m414.957031 30.378906c1.515625-5.886718-.011719-12.394531-4.621093-17.003906-4.609376-4.605469-11.117188-6.136719-17.003907-4.617188-3.089843-5.234374-8.773437-8.757812-15.289062-8.757812-6.519531 0-12.203125 3.523438-15.292969 8.757812-5.886719-1.519531-12.394531.007813-17.003906 4.617188-4.605469 4.609375-6.132813 11.117188-4.617188 17.003906-5.234375 3.089844-8.757812 8.773438-8.757812 15.292969v45.667969h91.339844s0-35.859375 0-45.667969c0-6.519531-3.523438-12.203125-8.753907-15.292969zm0 0" fill="#893a31"/><path d="m378.042969 45.671875v102.503906l45.667969-46.6875v-10.148437c0-25.222656-20.445313-45.667969-45.667969-45.667969zm0 0" fill="#f69b65"/><path d="m378.042969 45.671875c-25.222657 0-45.671875 20.445313-45.671875 45.667969v10.148437l60.894531 46.6875v-56.835937c0-25.222656-6.816406-45.667969-15.222656-45.667969zm0 0" fill="#f9b589"/><path d="m397.027344 101.488281c-1.066406-1.59375-2.335938-3.046875-3.761719-4.324219l-15.226563 70.292969c25.226563 0 45.671876-20.445312 45.671876-45.667969v-20.300781zm0 0" fill="#762916"/><path d="m393.265625 121.789062v-24.625c-4.039063-3.617187-9.375-5.824218-15.222656-5.824218-7.917969 0-14.890625 4.03125-18.988281 10.148437h-26.683594v20.300781c0 25.222657 20.449218 45.667969 45.671875 45.667969 8.40625 0 15.222656-20.445312 15.222656-45.667969zm0 0" fill="#893a31"/><path d="m271.476562 35.519531-15.222656 20.300781 15.222656 20.296876h30.449219v-40.597657zm0 0" fill="#4a333a"/><path d="m210.582031 35.519531h60.894531v40.597657h-60.894531zm0 0" fill="#624950"/><path d="m225.808594 180.144531c-4.207032 0-7.613282-3.40625-7.613282-7.613281 0-12.589844 10.246094-22.835938 22.835938-22.835938h15.222656c4.203125 0 7.613282 3.40625 7.613282 7.613282 0 4.203125-3.410157 7.613281-7.613282 7.613281h-15.222656c-4.199219 0-7.613281 3.414063-7.613281 7.609375 0 4.207031-3.40625 7.613281-7.609375 7.613281zm0 0" fill="#f9b589"/></svg>