<?xml version="1.0" encoding="utf-8"?>
<!-- Generator: Adobe Illustrator 19.0.0, SVG Export Plug-In . SVG Version: 6.00 Build 0)  -->
<svg version="1.1" id="Layer_1" xmlns="http://www.w3.org/2000/svg" xmlns:xlink="http://www.w3.org/1999/xlink" x="0px" y="0px"
	 viewBox="90 0 792 792" style="enable-background:new 90 0 792 792;" xml:space="preserve">
<style type="text/css">
	.st0{opacity:0.75;}
	.st1{fill:#ED1C24;}
	.st2{fill:none;stroke:#000000;stroke-miterlimit:10;}
	.st3{opacity:0.41;fill:#FFFFFF;}
	.st4{fill:#BC705F;}
	.st5{fill:#E4B19B;}
	.st6{fill:#FBC4AC;}
	.st7{fill:#E3B098;}
	.st8{fill:#FF5E6B;}
	.st9{fill:#E63E4C;}
	.st10{fill:#3B484A;}
	.st11{fill:#F2BEA6;}
	.st12{fill:#999999;}
	.st13{fill:#B3B3B3;}
	.st14{fill:#53433F;}
	.st15{fill:#68544F;}
	.st16{fill:#C6715A;}
	.st17{fill:#99503D;}
	.st18{fill:#FFBD86;}
	.st19{fill:#3E322E;}
</style>
<g id="XMLID_1_" class="st0">
	<circle id="XMLID_68_" class="st1" cx="486" cy="396" r="396"/>
	<circle id="XMLID_67_" class="st2" cx="486" cy="396" r="396"/>
</g>
<path class="st3" d="M638.4,321c28.6-17.7,63.3-18.5,92.7-2.1c28.6,15.9,45.7,44.8,45.7,77.1c0,32.4-17.1,61.2-45.7,77.1
	c-29.4,16.4-64,15.6-92.7-2.1c-43-26.6-80.6-62.7-108.8-104.4C493.1,312.6,444.5,266,389,231.6c0,0,0,0,0,0
	c-31.1-19.2-66.4-29.5-102.3-29.7c-33.7-0.2-67.2,8.5-96.9,25C127.3,261.7,90,324.9,90,396s37.3,134.3,99.7,169.1
	c29.4,16.4,62.6,25,96,25c0.3,0,0.6,0,0.9,0c35.9-0.2,71.3-10.4,102.3-29.7l0.1,0c35.6-22.1,68.4-49.2,96.9-80.1
	c-15.9-17.2-30.5-35.5-43.6-54.8c-6.9-10.2-14.3-20-22.3-29.5c-24.6,29.3-54,54.8-86.5,75c0,0,0,0,0,0h0
	c-28.6,17.7-63.3,18.5-92.7,2.1c-28.6-15.9-45.7-44.8-45.7-77.1c0-32.4,17.1-61.2,45.7-77.1c29.4-16.4,64-15.6,92.7,2.2c0,0,0,0,0,0
	c43,26.6,80.6,62.7,108.8,104.4c36.4,53.9,85,100.5,140.5,134.9c0,0,0.1,0,0.1,0.1c31.1,19.2,66.4,29.5,102.3,29.7
	c0.3,0,0.6,0,0.9,0c33.4,0,66.6-8.7,96-25c62.4-34.8,99.7-98,99.7-169.1s-37.3-134.3-99.7-169.1c-29.7-16.5-63.2-25.2-97-25
	c-35.9,0.2-71.3,10.4-102.3,29.7c0,0,0,0,0.1,0c0,0,0,0-0.1,0c-35.6,22.1-68.4,49.2-97,80.1c15.9,17.2,30.5,35.5,43.6,54.8
	c6.9,10.2,14.3,20,22.3,29.5C576.4,366.7,605.9,341.2,638.4,321z"/>
<g>
	<g>
		<path class="st4" d="M438.1,361.6L417.4,375c-9.1,0-16.5,7.4-16.5,16.5v13.2h45.9c6.6,0,11.9-5.3,11.9-11.9V375L438.1,361.6z"/>
		<path class="st4" d="M531.5,361.6l20.7,13.3c9.1,0,16.5,7.4,16.5,16.5v13.2h-45.9c-6.6,0-11.9-5.3-11.9-11.9V375L531.5,361.6z"/>
	</g>
	<g>
		<rect x="417.4" y="321.3" class="st5" width="41.4" height="53.7"/>
		<rect x="510.8" y="321.3" class="st5" width="41.4" height="53.7"/>
	</g>
	<path class="st6" d="M354.6,284.4c-16,30.9,13.6,41,30.8,32.5l15.2-27.6l-10-24L354.6,284.4z"/>
	<path class="st7" d="M370.9,284.4l22.7-12l-2.9-7.1l-36,19.1c-14.7,28.3,8.9,39.1,26.2,34.3C369,315.3,360.7,304,370.9,284.4z"/>
	<path class="st6" d="M614.9,284.4c16,30.9-13.6,41-30.8,32.5l-15.2-27.6l10-24L614.9,284.4z"/>
	<path class="st6" d="M408.2,211.3c0,0-60.8,13.7-53.5,73.1h30.2l27.1-22.3L408.2,211.3z"/>
	<path class="st6" d="M408.6,217.2l-0.4-5.9c0,0-60.8,13.7-53.5,73.1h16.3C366.1,245.1,391.2,225.8,408.6,217.2z"/>
	<path class="st6" d="M561.4,211.3c0,0,60.8,13.7,53.5,73.1h-30.2L557.7,262L561.4,211.3z"/>
	<path class="st5" d="M484.8,284.4l-100.1,16.8c0.2,7.4,0.6,15.4,1.5,24l98.6,10.1l98.6-10.1c0.8-8.6,1.3-16.6,1.5-24L484.8,284.4z"
		/>
	<g>
		<path class="st7" d="M403.1,134.7l-19-21.6c-3.8-4.3-10.8-2.5-12.1,3c-5.3,21.8-9.8,64.4,36.2,62.6l15.1-17.8L403.1,134.7z"/>
		<path class="st7" d="M566.5,134.7l19-21.6c3.8-4.3,10.8-2.5,12.1,3c5.3,21.8,9.8,64.4-36.2,62.6l-15.1-17.8L566.5,134.7z"/>
	</g>
	<path class="st6" d="M561.4,178.6c3.2-13.3,5.1-27.9,5.1-43.9H403.1c0,16,1.9,30.7,5.1,43.9l76.6,71.6L561.4,178.6z"/>
	<path class="st8" d="M493.8,4.4c-4.6-6-13.5-6-18.1,0c-18.6,24.2-60.2,82.2-72.6,130.3c0,0,37,7.2,81.7,7.2s81.7-7.2,81.7-7.2
		C554,86.6,512.4,28.6,493.8,4.4z"/>
	<path class="st9" d="M484.6,0c-3.3,0.1-6.6,1.5-8.8,4.5c-18.6,24.2-60.2,82.2-72.6,130.3c0,0,10.5,2,27.1,4
		C440.4,91.8,464.3,39.2,484.6,0z"/>
	<g>
		<path class="st10" d="M445.8,170.4c-3.4,0-6.1-2.7-6.1-6.1v-7.1c0-3.4,2.7-6.1,6.1-6.1s6.1,2.7,6.1,6.1v7.1
			C451.9,167.7,449.2,170.4,445.8,170.4z"/>
		<path class="st10" d="M523.8,170.4c-3.4,0-6.1-2.7-6.1-6.1v-7.1c0-3.4,2.7-6.1,6.1-6.1s6.1,2.7,6.1,6.1v7.1
			C529.9,167.7,527.1,170.4,523.8,170.4z"/>
	</g>
	<g>
		<path class="st11" d="M583.4,325.2c0,0.5-0.1,0.9-0.1,1.4c-1.1,10.6-10,18.7-20.7,18.7H407c-10.7,0-19.6-8.1-20.7-18.7
			c0-0.5-0.1-0.9-0.1-1.4H583.4z"/>
		<path class="st11" d="M584.9,301.2H384.7c-1.8-79.7,31.8-97,31.8-97H553C553,204.2,586.7,221.5,584.9,301.2z"/>
	</g>
	<path class="st5" d="M414.8,326.6c0-0.5-0.1-0.9-0.1-1.4c-0.8-8.6-1.3-16.6-1.5-24c0-1.6-0.1-3.2-0.1-4.8l-28.4,4.8
		c0,1.9,0.1,3.8,0.2,5.7c0.1,1.9,0.2,3.9,0.3,5.9c0.2,3,0.4,6.1,0.7,9.2c0.1,1.1,0.2,2.1,0.3,3.2l28.9,2.9
		C414.9,327.6,414.9,327.1,414.8,326.6z"/>
	<g>
		<path class="st5" d="M384.7,301.2h28.5l0,0c-1.8-79.7,31.8-97,31.8-97h-28.5c0,0-13.8,7.1-23.2,33.1c-0.2,0.6-0.5,1.3-0.7,1.9
			c-0.9,2.6-1.8,5.4-2.5,8.5c-0.8,3-1.5,6.2-2.2,9.6c-0.3,1.7-0.6,3.5-0.9,5.3c-0.7,4.5-1.3,9.4-1.7,14.6s-0.6,10.8-0.7,16.7
			C384.6,296.3,384.6,298.7,384.7,301.2L384.7,301.2z"/>
		<path class="st5" d="M435.5,345.3c-10.7,0-19.6-8.1-20.7-18.7c0-0.5-0.1-0.9-0.1-1.4h-28.5c0,0.5,0.1,0.9,0.1,1.4
			c0.1,0.7,0.2,1.3,0.3,2c1.9,9.6,10.4,16.8,20.4,16.8L435.5,345.3L435.5,345.3z"/>
	</g>
	<path class="st12" d="M561.4,178.6c-17.9,74-76.6,105.7-76.6,105.7s-58.7-31.7-76.6-105.7c25.8,17.9,51.2,0,51.2,0h50.8
		C510.2,178.6,535.5,196.5,561.4,178.6z"/>
	<path class="st13" d="M484.8,196.7c27.3,15.6,36.4,2.1,36.4,2.1c-15-2.3,0-37-36.4-27c-36.4-9.9-21.4,24.7-36.4,27
		C448.4,198.8,457.5,212.3,484.8,196.7z"/>
</g>
<path class="st14" d="M281.3,608.9v11.3c0,43.8,35.6,79.4,79.4,79.4h22.7v-90.8H281.3z"/>
<path class="st15" d="M668.7,586.2v65.4l-8.4,2.3c-59.2,15.9-56.5,12.9-64.2,20.9c-1.8,2.5-12.5,10.2-16.3,25l-94.1,20.2l-11.3,2.5
	l-102.1-22.7V586.2H668.7z"/>
<path class="st14" d="M668.7,586.2v65.4l-8.4,2.3c-59.2,15.9-56.5,12.9-64.2,20.9c-1.8,2.5-12.5,10.2-16.3,25l-94.1,20.2V586.2
	H668.7z"/>
<path class="st16" d="M349.4,450h319.3v45.4H349.4V450z"/>
<path class="st17" d="M349.4,472.7h319.3v22.7H349.4V472.7z"/>
<path class="st18" d="M281.3,495.4h45.4v22.7h-45.4V495.4z"/>
<path class="st18" d="M333,542l10.1,20.3L297.7,585l-10.2-20.3L333,542z"/>
<path class="st15" d="M462.9,404.6v136.2h-68.1V450l22.7-45.4H462.9z"/>
<path class="st14" d="M394.8,472.7h68.1v68.1h-68.1V472.7z"/>
<path class="st14" d="M628.1,780.6H344.6l30.9-30.6c7.9-8.2,7.9-22.8,0-31l-3.4-3.2v-16.1h207.6c-0.9,3.4-1.6,7-1.6,11.3
	c0,11.8,4.5,23.5,12.7,31.9L628.1,780.6z"/>
<path class="st19" d="M628.1,780.6H485.6v-81h94.1c-0.9,3.4-1.6,7-1.6,11.3c0,11.8,4.5,23.5,12.7,31.9L628.1,780.6z"/>
<path class="st15" d="M326.7,769.3H646V792H326.7V769.3z"/>
<path class="st14" d="M485.6,769.3H646V792H485.6V769.3z"/>
</svg>
