<?xml version="1.0" encoding="iso-8859-1"?>
<!-- Generator: Adobe Illustrator 19.0.0, SVG Export Plug-In . SVG Version: 6.00 Build 0)  -->
<svg version="1.1" id="Capa_1" xmlns="http://www.w3.org/2000/svg" xmlns:xlink="http://www.w3.org/1999/xlink" x="0px" y="0px"
	 viewBox="0 0 512 512" style="enable-background:new 0 0 512 512;" xml:space="preserve">
<path style="fill:#136EF1;" d="M211,145.3V316l-23.699,12.299c-3.9-2.699-6.301-7.2-6.301-12.299V175.3L211,145.3z"/>
<path style="fill:#17ACE8;" d="M380.799,159.401L256,117.7l-55.201-18.3C191.201,96.099,181,103.299,181,113.5v61.8l75,24.901
	L371.201,238.6L391,245.501V173.5C391,166.901,386.8,161.201,380.799,159.401z"/>
<path style="fill:#136EF1;" d="M391,245.501V383.5l-23.699,4.799c-3.9-2.699-6.301-7.2-6.301-12.299V200.501L391,245.501z"/>
<path style="fill:#1689FC;" d="M331,428.5c-33.647,0-60-19.761-60-45s26.353-45,60-45s60,19.761,60,45S364.647,428.5,331,428.5z"/>
<path style="fill:#17ACE8;" d="M151,361c-33.647,0-60-19.761-60-45s26.353-45,60-45s60,19.761,60,45S184.647,361,151,361z"/>
<path style="fill:#1689FC;" d="M391,173.5v72.001l-19.799-6.901L256,200.2v-82.5l124.799,41.7C386.8,161.201,391,166.901,391,173.5z
	"/>
<path style="fill:#FD4E26;" d="M256,0C115,0,0,114.699,0,256c0,140.7,115,256,256,256c141.301,0,256-115.6,256-256
	C512,115,396.7,0,256,0z M256,482C132.1,482.3,29.7,380.2,30,256c0-57.301,22.599-109.501,56.8-147.9L256,277.299L403.9,425.2
	C365.501,459.399,313.299,482,256,482z M425.2,403.9L108.1,86.8C146.499,52.599,198.701,30,256,30c124.2,0,226,101.8,226,226
	C482,313.599,459.401,365.499,425.2,403.9z"/>
<path style="fill:#FD3018;" d="M512,256c0,140.4-114.699,256-256,256v-30c57.299,0,109.501-22.601,147.9-56.8L256,277.299V234.7
	l169.2,169.2C459.4,365.499,482,313.6,482,256c0-124.2-101.8-226-226-226V0C396.7,0,512,115,512,256z"/>
<g>
</g>
<g>
</g>
<g>
</g>
<g>
</g>
<g>
</g>
<g>
</g>
<g>
</g>
<g>
</g>
<g>
</g>
<g>
</g>
<g>
</g>
<g>
</g>
<g>
</g>
<g>
</g>
<g>
</g>
</svg>
