<?xml version="1.0" encoding="utf-8"?>
<!-- Generator: Adobe Illustrator 19.0.0, SVG Export Plug-In . SVG Version: 6.00 Build 0)  -->
<svg version="1.1" id="Layer_1" xmlns="http://www.w3.org/2000/svg" xmlns:xlink="http://www.w3.org/1999/xlink" x="0px" y="0px"
	 viewBox="0 0 612 612" style="enable-background:new 0 0 612 612;" xml:space="preserve">
<style type="text/css">
	.st0{fill:#4E4E4E;}
	.st1{fill:#010101;}
	.st2{fill:#231F20;}
	.st3{fill:#C1282D;}
	.st4{opacity:0.64;fill:#010101;enable-background:new    ;}
	.st5{fill:#FFFFFF;}
	.st6{opacity:0.62;fill:#FFFFFF;enable-background:new    ;}
	.st7{fill:#FFD782;}
	.st8{fill:#010101;fill-opacity:0;stroke:#010101;stroke-opacity:0;}
	.st9{fill:#F3BB59;}
	.st10{fill:#DD372D;}
	.st11{fill:#FED2A4;}
	.st12{fill:#FCBC86;}
</style>
<g id="XMLID_23_">
	<path id="XMLID_21_" class="st0" d="M191.3,509.7c0,0,126.7-29.8,244.7,0c0,0-26.6-72.5-21.3-75.2c5.3-2.7,40.3-80.9,38-82.2
		s-33.1-66.9-35.8-68.5c-2.7-1.6-132.2,41.1-134.7,41.1c-2.6,0-56-41.1-64.4-41.1c-29.6-0.1-96.5,77.1-37.6,108.3l24,50.3
		L191.3,509.7z"/>
	<path id="XMLID_20_" class="st1" d="M414.7,434.6c0,0-58.6-5.3-75.1,56.7c0,0-85.8-8.9-144.1,17.6l-30.8-58.4c0,0-9.4-76.3-8-80
		c1.3-3.6,3.1-49.4,12.9-56.2c9.8-6.7,64.3-27.8,85.6-33c21.2-5.3,118.3,0.4,135.2,2.6c16.9,2.2,49.9,17.2,47.8,22.3
		c-2.1,5.1,24.1,46.3,24.1,46.3L414.7,434.6z"/>
	<path id="XMLID_19_" class="st2" d="M306,163.4L306,163.4c0,0-151-1.6-162.3,163.9c0,0,62.6-31,66.5-33.4
		c3.9-2.4,59.3-16.3,59.3-16.3l36.5,26.5l0,0l36.5-26.5c0,0,55.5,13.9,59.3,16.3c3.9,2.4,66.5,33.4,66.5,33.4
		C457,161.8,306.1,163.4,306,163.4z"/>
	<path id="XMLID_18_" class="st2" d="M306,228.2v176.2l-17.5-15.3c0,0,18.2-45.1-21.9-65.7c-40.1-20.6-83.2,10-86.1,16.7
		c0,0,1.5,33.6,45.2,44v207.3c0,0-58.4-37.3-88.3-92.3V323.5C137.4,323.5,198.7,253.3,306,228.2z"/>
	<path id="XMLID_17_" class="st2" d="M306,228.2v176.2l17.5-15.3c0,0-18.2-45.1,21.9-65.7c40.1-20.6,83.2,10,86.1,16.7
		c0,0-1.5,33.6-45.2,44v207.3c0,0,58.4-37.3,88.3-92.3V323.5C474.5,323.5,413.2,253.3,306,228.2z"/>
	<g id="XMLID_38_">
		<rect id="XMLID_16_" x="288.1" y="154.2" class="st2" width="36.8" height="30.9"/>
		<path id="XMLID_15_" class="st3" d="M280.3,5.3c4.8,22.8,7.8,56.1,7.8,56.1c-3-19-11-42.1-15.9-55.1c-17.1,2.6-26.4,6.6-26.4,6.6
			c37.9,63,42.3,141.3,42.3,141.3H325c3.3-51.4,41.2-141.3,41.2-141.3C330.1,3.5,300.9,3.2,280.3,5.3z"/>
	</g>
	<path id="XMLID_14_" class="st4" d="M308.9,396.7V231.9c0,0,35.3,8.6,74.4,28.1c0,0-54.2,10-65.2,78.3c-6.3,39.1,2.4,49.8,2.4,49.8
		L308.9,396.7z"/>
	<path id="XMLID_13_" class="st5" d="M303.8,396.7V231.9c0,0-19.3,4.9-33.9,10.4c0,0,17-2.5,21.2,6.1
		c9.5,19.9,12.8,149.6,12.8,149.6"/>
	<path id="XMLID_12_" class="st1" d="M421.6,370.5c0,0-11,12.5-31.4,15.9v196.4c0,0,16.8-9.2,31.4-23.2c0,0-18.4,5.6-17.8-82.9
		C404.1,434.6,408.6,385.4,421.6,370.5z"/>
	<path id="XMLID_11_" class="st5" d="M451.9,306.1c0,0,15.3,13.5,19,17.9v173.7c0,0-9.2,18.4-23.3,33c0,0,10.7-19.6,11.7-48.1
		s0-150.9,0-150.9S457.3,314.7,451.9,306.1z"/>
	<path id="XMLID_10_" class="st1" d="M339.6,234.8c0,0,52.5-6.1,43.8-46.9c0,0,66.4,32.6,78.8,118.3
		C462.1,306.1,420.3,260.5,339.6,234.8z"/>
	<path id="XMLID_9_" class="st1" d="M351,235c0,0,46.5-6.9,36.7-41.6c0,0,21.4,13.7,29.2,24.3c0,0-12.4-7.1-17.5-8
		C399.4,209.7,394.5,233.5,351,235z"/>
	<path id="XMLID_8_" class="st6" d="M230,219.4c-10,6.8-22.4,7.9-27.5,2.5c-5.2-5.4-1.2-15.2,8.8-22s22.4-7.9,27.5-2.5
		C244,202.8,240.1,212.7,230,219.4z"/>
	<path id="XMLID_7_" class="st1" d="M210.8,263.4c0,0-28.5-3.1-39.8-21.4c0,0-15,24.2-21.5,66.4C149.5,308.4,177,277.8,210.8,263.4z
		"/>
	<path id="XMLID_6_" class="st1" d="M171.4,247.2c0,0,7.1,11.6,30.5,17.1c0,0-13.7,5.5-19.5,10.9c0,0,1.4-4.9,1.5-8.9
		c0.1-8.7-13.1-12.4-17.9-7.6C165.9,258.7,169.4,249.1,171.4,247.2z"/>
	<path id="XMLID_5_" class="st1" d="M327.4,335.1c0,0,14.1-24.6,60.3-20.1c0,0,30.6,4.9,45.5,23.8c0,0-0.5,8.8-2.9,13.7
		c0,0,7.3-6.3,7.8-17.5c0,0-14.6-20.8-52-23C348.6,309.6,332.5,325.5,327.4,335.1z"/>
	<path id="XMLID_4_" class="st1" d="M283.2,335.1c0,0-14.1-24.6-60.3-20.1c0,0-30.6,4.9-45.5,23.8c0,0,0.5,8.8,2.9,13.7
		c0,0-7.3-6.3-7.8-17.5c0,0,14.6-20.8,52-23C262.1,309.6,278.1,325.5,283.2,335.1z"/>
	<path id="XMLID_3_" class="st5" d="M165.9,301.6c0,0-12.4,11.8-22.2,21.8v172.7c0,0,23.7,40.4,44.9,57.5c0,0-18.2-47.1-22.6-86.2
		s0-135.4,0-135.4s2.4-24.6,14.2-40.5C180.1,291.5,170.4,297.3,165.9,301.6z"/>
	<polygon id="XMLID_2_" class="st1" points="303.8,183.4 311.6,155 323.5,155 323.5,183.4 	"/>
	<path id="XMLID_1_" class="st1" d="M291.1,151.2h29.5c0,0,12.5-84.7,40-134.9c0,0-18.7-6.7-35.6-6.3c0,0-12.9,62.4-14.9,90.9
		l-3.5-74.2l-7.5,93c0,0-11-50.3-30.5-106.9l-13.5,3.8C255.1,16.6,289.1,79.9,291.1,151.2z"/>
</g>
<g id="XMLID_24_">
	<g id="XMLID_25_">
		<g id="XMLID_48_">
			<g id="XMLID_102_">
				<g id="XMLID_107_">
					<path id="d2aK7M1SL1" class="st7" d="M178.1,427.2c0-3.1-2.6-5.7-5.7-5.7s-5.7,2.6-5.7,5.7c0-3.1-2.6-5.7-5.7-5.7
						s-5.7,2.6-5.7,5.7c0-3.1-2.6-5.7-5.7-5.7s-5.7,2.6-5.7,5.7c0,0.7,0,4.6,0,11.4c-3.4,0-5.3,0-5.7,0c-3.1,0-5.7,2.6-5.7,5.7
						c0,0.7,0,4.6,0,11.4l2.8,8.5c10.2,8.5,15.9,13.3,17.1,14.2c0,0,5.7,37,5.7,54c-2.8,0-14.7-6.1-19.9-8.5
						c-22-10.3-31.3-14.3-39.8-19.9c-11.8-8.5-24.1-16.1-37-22.8c-17.1-8.5-37-2.8-37-2.8c0,4.7,0,28.4,0,71.1c5.1-5.1,8-8,8.5-8.5
						c14.2-14.2,25.6-8.5,25.6-8.5c62.6,31.3,91,28.4,110.9,28.4s19.9-8.5,19.9-28.4c0-8.5-2.8-28.4-8.5-54c0.6-1,3.4-5.7,8.5-14.2
						c0-22.2,0-34.5,0-37c0-3.1-2.6-5.7-5.7-5.7C180.6,421.6,178.1,424.1,178.1,427.2z"/>
				</g>
				<g id="XMLID_103_">
					<g id="XMLID_104_">
						<path id="d2aK7M1SL1_1_" class="st8" d="M178.1,427.2c0-3.1-2.6-5.7-5.7-5.7s-5.7,2.6-5.7,5.7c0-3.1-2.6-5.7-5.7-5.7
							s-5.7,2.6-5.7,5.7c0-3.1-2.6-5.7-5.7-5.7s-5.7,2.6-5.7,5.7c0,0.7,0,4.6,0,11.4c-3.4,0-5.3,0-5.7,0c-3.1,0-5.7,2.6-5.7,5.7
							c0,0.7,0,4.6,0,11.4l2.8,8.5c10.2,8.5,15.9,13.3,17.1,14.2c0,0,5.7,37,5.7,54c-2.8,0-14.7-6.1-19.9-8.5
							c-22-10.3-31.3-14.3-39.8-19.9c-11.8-8.5-24.1-16.1-37-22.8c-17.1-8.5-37-2.8-37-2.8c0,4.7,0,28.4,0,71.1c5.1-5.1,8-8,8.5-8.5
							c14.2-14.2,25.6-8.5,25.6-8.5c62.6,31.3,91,28.4,110.9,28.4s19.9-8.5,19.9-28.4c0-8.5-2.8-28.4-8.5-54c0.6-1,3.4-5.7,8.5-14.2
							c0-22.2,0-34.5,0-37c0-3.1-2.6-5.7-5.7-5.7C180.6,421.6,178.1,424.1,178.1,427.2z"/>
					</g>
				</g>
			</g>
			<g id="XMLID_96_">
				<g id="XMLID_101_">
					<path id="c6Cm2Dp8" class="st9" d="M158.1,427.2L158.1,427.2c0,5.1,0,8,0,8.5l0,0c-3.4,0-5.3,0-5.7,0l0,0c0-5.1,0-8,0-8.5l0,0
						C155.9,427.2,157.8,427.2,158.1,427.2z"/>
				</g>
				<g id="XMLID_97_">
					<g id="XMLID_98_">
						<path id="c6Cm2Dp8_1_" class="st8" d="M158.1,427.2L158.1,427.2c0,5.1,0,8,0,8.5l0,0c-3.4,0-5.3,0-5.7,0l0,0c0-5.1,0-8,0-8.5
							l0,0C155.9,427.2,157.8,427.2,158.1,427.2z"/>
					</g>
				</g>
			</g>
			<g id="XMLID_90_">
				<g id="XMLID_95_">
					<path id="bsdXWxqNz" class="st9" d="M169.5,427.2L169.5,427.2c0,5.1,0,8,0,8.5l0,0c-3.4,0-5.3,0-5.7,0l0,0c0-5.1,0-8,0-8.5l0,0
						C167.2,427.2,169.2,427.2,169.5,427.2z"/>
				</g>
				<g id="XMLID_91_">
					<g id="XMLID_92_">
						<path id="bsdXWxqNz_1_" class="st8" d="M169.5,427.2L169.5,427.2c0,5.1,0,8,0,8.5l0,0c-3.4,0-5.3,0-5.7,0l0,0c0-5.1,0-8,0-8.5
							l0,0C167.2,427.2,169.2,427.2,169.5,427.2z"/>
					</g>
				</g>
			</g>
			<g id="XMLID_84_">
				<g id="XMLID_89_">
					<path id="gUEs2k9ED" class="st9" d="M180.9,427.2L180.9,427.2c0,5.1,0,8,0,8.5l0,0c-3.4,0-5.3,0-5.7,0l0,0c0-5.1,0-8,0-8.5l0,0
						C178.6,427.2,180.5,427.2,180.9,427.2z"/>
				</g>
				<g id="XMLID_85_">
					<g id="XMLID_86_">
						<path id="gUEs2k9ED_1_" class="st8" d="M180.9,427.2L180.9,427.2c0,5.1,0,8,0,8.5l0,0c-3.4,0-5.3,0-5.7,0l0,0c0-5.1,0-8,0-8.5
							l0,0C178.6,427.2,180.5,427.2,180.9,427.2z"/>
					</g>
				</g>
			</g>
			<g id="XMLID_78_">
				<g id="XMLID_83_">
					<path id="beMLrqToD" class="st9" d="M146.8,438.6L146.8,438.6c0,8.5,0,13.3,0,14.2l0,0c-3.4,0-5.3,0-5.7,0l0,0
						c0-8.5,0-13.3,0-14.2l0,0C144.5,438.6,146.4,438.6,146.8,438.6z"/>
				</g>
				<g id="XMLID_79_">
					<g id="XMLID_80_">
						<path id="beMLrqToD_1_" class="st8" d="M146.8,438.6L146.8,438.6c0,8.5,0,13.3,0,14.2l0,0c-3.4,0-5.3,0-5.7,0l0,0
							c0-8.5,0-13.3,0-14.2l0,0C144.5,438.6,146.4,438.6,146.8,438.6z"/>
					</g>
				</g>
			</g>
			<g id="XMLID_72_">
				<g id="XMLID_77_">
					<path id="b2arKkpLwe" class="st9" d="M158.1,441.5L158.1,441.5c0,3.4,0,5.3,0,5.7l0,0c-3.4,0-5.3,0-5.7,0l0,0
						c0-3.4,0-5.3,0-5.7l0,0C155.9,441.5,157.8,441.5,158.1,441.5z"/>
				</g>
				<g id="XMLID_73_">
					<g id="XMLID_74_">
						<path id="b2arKkpLwe_1_" class="st8" d="M158.1,441.5L158.1,441.5c0,3.4,0,5.3,0,5.7l0,0c-3.4,0-5.3,0-5.7,0l0,0
							c0-3.4,0-5.3,0-5.7l0,0C155.9,441.5,157.8,441.5,158.1,441.5z"/>
					</g>
				</g>
			</g>
			<g id="XMLID_66_">
				<g id="XMLID_71_">
					<path id="dM4FPWTJP" class="st9" d="M169.5,441.5L169.5,441.5c0,3.4,0,5.3,0,5.7l0,0c-3.4,0-5.3,0-5.7,0l0,0c0-3.4,0-5.3,0-5.7
						l0,0C167.2,441.5,169.2,441.5,169.5,441.5z"/>
				</g>
				<g id="XMLID_67_">
					<g id="XMLID_68_">
						<path id="dM4FPWTJP_1_" class="st8" d="M169.5,441.5L169.5,441.5c0,3.4,0,5.3,0,5.7l0,0c-3.4,0-5.3,0-5.7,0l0,0
							c0-3.4,0-5.3,0-5.7l0,0C167.2,441.5,169.2,441.5,169.5,441.5z"/>
					</g>
				</g>
			</g>
			<g id="XMLID_49_">
				<g id="XMLID_65_">
					<path id="f6CZ3i8lsP" class="st9" d="M180.9,441.5L180.9,441.5c0,3.4,0,5.3,0,5.7l0,0c-3.4,0-5.3,0-5.7,0l0,0
						c0-3.4,0-5.3,0-5.7l0,0C178.6,441.5,180.5,441.5,180.9,441.5z"/>
				</g>
				<g id="XMLID_50_">
					<g id="XMLID_62_">
						<path id="f6CZ3i8lsP_1_" class="st8" d="M180.9,441.5L180.9,441.5c0,3.4,0,5.3,0,5.7l0,0c-3.4,0-5.3,0-5.7,0l0,0
							c0-3.4,0-5.3,0-5.7l0,0C178.6,441.5,180.5,441.5,180.9,441.5z"/>
					</g>
				</g>
			</g>
		</g>
		<g id="XMLID_26_">
			<g id="XMLID_44_">
				<path id="b19ZMkXrgV" class="st10" d="M128,377.9l4.6,0.5l4.6,0.6l4.5,0.8l4.4,1l4.3,1.2l4.3,1.3l4.2,1.5l4.1,1.6l4.1,1.8l3.9,2
					l3.9,2.1l3.8,2.2l3.7,2.4l3.6,2.5l3.5,2.7l3.4,2.8l3.3,2.9l3.2,3l3,3.1l2.9,3.3l2.8,3.4l2.7,3.5l2.5,3.6l2.4,3.7l2.2,3.8
					l2.1,3.9l2,3.9l1.8,4.1l1.6,4.1l1.5,4.2l1.3,4.3l1.2,4.3l1,4.4l0.8,4.5l0.6,4.6l0.5,4.6l0.3,4.6l0.1,4.7l-0.1,4.7l-0.3,4.6
					l-0.5,4.6l-0.6,4.6l-0.8,4.5l-1,4.4l-1.2,4.3l-1.3,4.3l-1.5,4.2l-1.6,4.1l-1.8,4.1l-2,3.9l-2.1,3.9l-2.2,3.8l-2.4,3.7l-2.5,3.6
					l-2.7,3.5l-2.8,3.4l-2.9,3.3l-3,3.2l-3.2,3l-3.3,2.9l-3.4,2.8l-3.5,2.7l-3.6,2.5l-3.7,2.4l-3.8,2.2l-3.9,2.1l-3.9,2l-4.1,1.8
					l-4.1,1.6l-4.2,1.5l-4.3,1.3l-4.3,1.2l-4.4,1l-4.5,0.8l-4.6,0.6L128,605l-4.6,0.3l-4.7,0.1l-4.7-0.1l-4.6-0.3l-4.6-0.5l-4.6-0.6
					l-4.5-0.8l-4.4-1l-4.3-1.2l-4.3-1.3l-4.2-1.5l-4.1-1.6l-4.1-1.8l-3.9-2l-3.9-2.1l-3.8-2.2L55,586l-3.6-2.5l-3.5-2.7l-3.4-2.8
					l-3.3-2.9l-3.1-3l-3-3.2l-2.9-3.2l-2.8-3.4l-2.7-3.5l-2.5-3.6l-2.4-3.7l-2.2-3.8l-2.1-3.9l-2-3.9l-1.8-4.1l-1.6-4.1l-1.5-4.2
					l-1.3-4.3l-1.2-4.3l-1-4.4L6.3,510l-0.6-4.6l-0.5-4.6L5,495.9l-0.1-4.7l0.1-4.7l0.3-4.6l0.5-4.6l0.6-4.6l0.8-4.5l1-4.4l1.2-4.3
					l1.3-4.3l1.5-4.2l1.6-4.1l1.8-4.1l2-3.9l2.1-3.9l2.2-3.8l2.4-3.7l2.5-3.6l2.7-3.5l2.8-3.4l2.9-3.3l3-3.1l3.1-3l3.3-2.9l3.4-2.8
					l3.5-2.7l3.6-2.5l3.7-2.4l3.8-2.2l3.9-2.1l3.9-2l4.1-1.8l4.1-1.6l4.2-1.5L87,382l4.3-1.2l4.4-1l4.5-0.8l4.6-0.6l4.6-0.5l4.6-0.3
					l4.7-0.1l4.7,0.1L128,377.9z M61.8,566.1L63,567l1.2,0.9l1.2,0.9l1.3,0.9l1.3,0.9l1.3,0.8l1.3,0.8l1.3,0.8l1.4,0.7l1.4,0.7
					l1.4,0.7l1.4,0.7l1.4,0.7l1.4,0.6l1.4,0.6l1.4,0.6l1.5,0.6l1.5,0.6l1.5,0.5l1.5,0.5l1.5,0.5l1.5,0.5l1.5,0.4l1.5,0.4l1.5,0.4
					l1.5,0.4l1.5,0.4l1.6,0.3l1.6,0.3l1.6,0.2l1.6,0.2l1.6,0.2l1.6,0.2l1.6,0.1l1.6,0.1l1.6,0.1l1.6,0.1h1.6h1.6l3.9-0.1l3.8-0.2
					l3.8-0.4l3.7-0.5l3.7-0.7l3.7-0.8l3.6-1l3.5-1.1l3.5-1.2l3.4-1.4l3.3-1.5l3.3-1.6l3.2-1.7l3.1-1.8l3.1-2l3-2.1l2.9-2.2l2.8-2.3
					l2.7-2.4l2.6-2.5l2.5-2.6l2.4-2.7l2.3-2.8l2.2-2.9l2.1-3l2-3.1l1.8-3.1l1.7-3.2l1.6-3.3l1.5-3.3l1.4-3.4l1.2-3.5l1.1-3.5l1-3.6
					l0.8-3.7l0.7-3.7l0.5-3.7l0.4-3.8l0.2-3.8l0.1-3.9v-1.6V488l-0.1-1.6l-0.1-1.6l-0.1-1.6l-0.1-1.6l-0.2-1.6l-0.2-1.6l-0.2-1.6
					l-0.2-1.6l-0.3-1.6l-0.3-1.6l-0.4-1.5l-0.4-1.5l-0.4-1.5l-0.4-1.5l-0.4-1.5l-0.5-1.5l-0.5-1.5l-0.5-1.5l-0.5-1.5l-0.6-1.5
					l-0.6-1.4l-0.6-1.4l-0.6-1.4l-0.6-1.4l-0.7-1.4l-0.7-1.4l-0.7-1.4l-0.7-1.4l-0.7-1.4l-0.8-1.3l-0.8-1.3l-0.8-1.3l-0.9-1.3
					l-0.9-1.3l-0.9-1.2l-0.9-1.2l-0.9-1.2l-0.9-1.2L60.6,565.2L61.8,566.1z M111,397.4l-3.8,0.4l-3.7,0.5l-3.7,0.7l-3.7,0.8l-3.6,1
					l-3.5,1.1l-3.5,1.2l-3.4,1.4l-3.3,1.5l-3.3,1.6l-3.2,1.7l-3.1,1.8l-3.1,2l-3,2.1l-2.9,2.2l-2.8,2.3l-2.7,2.4l-2.6,2.5l-2.5,2.6
					l-2.4,2.7l-2.3,2.8l-2.2,2.9l-2.1,3l-2,3.1l-1.8,3.1L35,448l-1.6,3.3l-1.5,3.3l-1.4,3.4l-1.2,3.5l-1.1,3.5l-1,3.6l-0.8,3.7
					l-0.7,3.7l-0.5,3.7l-0.4,3.8l-0.2,3.8l-0.1,3.9v1.7v1.7l0.1,1.7l0.1,1.7l0.1,1.7l0.2,1.7l0.2,1.7l0.2,1.7l0.2,1.6L26,508
					l0.3,1.6l0.4,1.6l0.4,1.6l0.4,1.6l0.4,1.6l0.5,1.6l0.5,1.6l0.5,1.6l0.5,1.5l0.6,1.5l0.6,1.5l0.6,1.5l0.6,1.5l0.6,1.5l0.7,1.5
					l0.7,1.5l0.7,1.5l0.7,1.4l0.8,1.4l0.8,1.4l0.8,1.4l0.9,1.4l0.9,1.4l0.9,1.4l0.9,1.3l0.9,1.3l1,1.3l1,1.3l1,1.2l1,1.2L179,419
					l-1.2-1l-1.2-1l-1.3-1l-1.3-1l-1.3-0.9l-1.3-0.9l-1.4-0.9l-1.4-0.9l-1.4-0.9l-1.4-0.8l-1.4-0.8l-1.4-0.8l-1.4-0.7l-1.5-0.7
					l-1.5-0.7l-1.5-0.7l-1.5-0.6l-1.5-0.6l-1.5-0.6l-1.5-0.6l-1.5-0.6l-1.5-0.5l-1.6-0.5l-1.6-0.5l-1.6-0.5l-1.6-0.4l-1.6-0.4
					l-1.6-0.4l-1.6-0.3l-1.6-0.3l-1.6-0.3l-1.6-0.2l-1.7-0.2l-1.7-0.2l-1.7-0.2l-1.7-0.1l-1.7-0.1l-1.7-0.1h-1.7h-1.7l-3.9,0.1
					L111,397.4z"/>
			</g>
			<g id="XMLID_27_">
				<g id="XMLID_28_">
					<path id="b19ZMkXrgV_1_" class="st8" d="M128,377.9l4.6,0.5l4.6,0.6l4.5,0.8l4.4,1l4.3,1.2l4.3,1.3l4.2,1.5l4.1,1.6l4.1,1.8
						l3.9,2l3.9,2.1l3.8,2.2l3.7,2.4l3.6,2.5l3.5,2.7l3.4,2.8l3.3,2.9l3.2,3l3,3.1l2.9,3.3l2.8,3.4l2.7,3.5l2.5,3.6l2.4,3.7l2.2,3.8
						l2.1,3.9l2,3.9l1.8,4.1l1.6,4.1l1.5,4.2l1.3,4.3l1.2,4.3l1,4.4l0.8,4.5l0.6,4.6l0.5,4.6l0.3,4.6l0.1,4.7l-0.1,4.7l-0.3,4.6
						l-0.5,4.6l-0.6,4.6l-0.8,4.5l-1,4.4l-1.2,4.3l-1.3,4.3l-1.5,4.2l-1.6,4.1l-1.8,4.1l-2,3.9l-2.1,3.9l-2.2,3.8l-2.4,3.7l-2.5,3.6
						l-2.7,3.5l-2.8,3.4l-2.9,3.3l-3,3.2l-3.2,3l-3.3,2.9l-3.4,2.8l-3.5,2.7l-3.6,2.5l-3.7,2.4l-3.8,2.2l-3.9,2.1l-3.9,2l-4.1,1.8
						l-4.1,1.6l-4.2,1.5l-4.3,1.3l-4.3,1.2l-4.4,1l-4.5,0.8l-4.6,0.6L128,605l-4.6,0.3l-4.7,0.1l-4.7-0.1l-4.6-0.3l-4.6-0.5
						l-4.6-0.6l-4.5-0.8l-4.4-1l-4.3-1.2l-4.3-1.3l-4.2-1.5l-4.1-1.6l-4.1-1.8l-3.9-2l-3.9-2.1l-3.8-2.2L55,586l-3.6-2.5l-3.5-2.7
						l-3.4-2.8l-3.3-2.9l-3.1-3l-3-3.2l-2.9-3.2l-2.8-3.4l-2.7-3.5l-2.5-3.6l-2.4-3.7l-2.2-3.8l-2.1-3.9l-2-3.9l-1.8-4.1l-1.6-4.1
						l-1.5-4.2l-1.3-4.3l-1.2-4.3l-1-4.4L6.3,510l-0.6-4.6l-0.5-4.6L5,495.9l-0.1-4.7l0.1-4.7l0.3-4.6l0.5-4.6l0.6-4.6l0.8-4.5
						l1-4.4l1.2-4.3l1.3-4.3l1.5-4.2l1.6-4.1l1.8-4.1l2-3.9l2.1-3.9l2.2-3.8l2.4-3.7l2.5-3.6l2.7-3.5l2.8-3.4l2.9-3.3l3-3.1l3.1-3
						l3.3-2.9l3.4-2.8l3.5-2.7l3.6-2.5l3.7-2.4l3.8-2.2l3.9-2.1l3.9-2l4.1-1.8l4.1-1.6l4.2-1.5L87,382l4.3-1.2l4.4-1l4.5-0.8
						l4.6-0.6l4.6-0.5l4.6-0.3l4.7-0.1l4.7,0.1L128,377.9z M61.8,566.1L63,567l1.2,0.9l1.2,0.9l1.3,0.9l1.3,0.9l1.3,0.8l1.3,0.8
						l1.3,0.8l1.4,0.7l1.4,0.7l1.4,0.7l1.4,0.7l1.4,0.7l1.4,0.6l1.4,0.6l1.4,0.6l1.5,0.6l1.5,0.6l1.5,0.5l1.5,0.5l1.5,0.5l1.5,0.5
						l1.5,0.4l1.5,0.4l1.5,0.4l1.5,0.4l1.5,0.4l1.6,0.3l1.6,0.3l1.6,0.2l1.6,0.2l1.6,0.2l1.6,0.2l1.6,0.1l1.6,0.1l1.6,0.1l1.6,0.1
						h1.6h1.6l3.9-0.1l3.8-0.2l3.8-0.4l3.7-0.5l3.7-0.7l3.7-0.8l3.6-1l3.5-1.1l3.5-1.2l3.4-1.4l3.3-1.5l3.3-1.6l3.2-1.7l3.1-1.8
						l3.1-2l3-2.1l2.9-2.2l2.8-2.3l2.7-2.4l2.6-2.5l2.5-2.6l2.4-2.7l2.3-2.8l2.2-2.9l2.1-3l2-3.1l1.8-3.1l1.7-3.2l1.6-3.3l1.5-3.3
						l1.4-3.4l1.2-3.5l1.1-3.5l1-3.6l0.8-3.7l0.7-3.7l0.5-3.7l0.4-3.8l0.2-3.8l0.1-3.9v-1.6V488l-0.1-1.6l-0.1-1.6l-0.1-1.6
						l-0.1-1.6l-0.2-1.6l-0.2-1.6l-0.2-1.6l-0.2-1.6l-0.3-1.6l-0.3-1.6l-0.4-1.5l-0.4-1.5l-0.4-1.5l-0.4-1.5l-0.4-1.5l-0.5-1.5
						l-0.5-1.5l-0.5-1.5l-0.5-1.5l-0.6-1.5l-0.6-1.4l-0.6-1.4l-0.6-1.4l-0.6-1.4l-0.7-1.4l-0.7-1.4l-0.7-1.4l-0.7-1.4l-0.7-1.4
						l-0.8-1.3l-0.8-1.3l-0.8-1.3l-0.9-1.3l-0.9-1.3l-0.9-1.2l-0.9-1.2l-0.9-1.2l-0.9-1.2L60.6,565.2L61.8,566.1z M111,397.4
						l-3.8,0.4l-3.7,0.5l-3.7,0.7l-3.7,0.8l-3.6,1l-3.5,1.1l-3.5,1.2l-3.4,1.4l-3.3,1.5l-3.3,1.6l-3.2,1.7l-3.1,1.8l-3.1,2l-3,2.1
						l-2.9,2.2l-2.8,2.3l-2.7,2.4l-2.6,2.5l-2.5,2.6l-2.4,2.7l-2.3,2.8l-2.2,2.9l-2.1,3l-2,3.1l-1.8,3.1L35,448l-1.6,3.3l-1.5,3.3
						l-1.4,3.4l-1.2,3.5l-1.1,3.5l-1,3.6l-0.8,3.7l-0.7,3.7l-0.5,3.7l-0.4,3.8l-0.2,3.8l-0.1,3.9v1.7v1.7l0.1,1.7l0.1,1.7l0.1,1.7
						l0.2,1.7l0.2,1.7l0.2,1.7l0.2,1.6L26,508l0.3,1.6l0.4,1.6l0.4,1.6l0.4,1.6l0.4,1.6l0.5,1.6l0.5,1.6l0.5,1.6l0.5,1.5l0.6,1.5
						l0.6,1.5l0.6,1.5l0.6,1.5l0.6,1.5l0.7,1.5l0.7,1.5l0.7,1.5l0.7,1.4l0.8,1.4l0.8,1.4l0.8,1.4l0.9,1.4l0.9,1.4l0.9,1.4l0.9,1.3
						l0.9,1.3l1,1.3l1,1.3l1,1.2l1,1.2L179,419l-1.2-1l-1.2-1l-1.3-1l-1.3-1l-1.3-0.9l-1.3-0.9l-1.4-0.9l-1.4-0.9l-1.4-0.9l-1.4-0.8
						l-1.4-0.8l-1.4-0.8l-1.4-0.7l-1.5-0.7l-1.5-0.7l-1.5-0.7l-1.5-0.6l-1.5-0.6l-1.5-0.6l-1.5-0.6l-1.5-0.6l-1.5-0.5l-1.6-0.5
						l-1.6-0.5l-1.6-0.5l-1.6-0.4l-1.6-0.4l-1.6-0.4l-1.6-0.3l-1.6-0.3l-1.6-0.3l-1.6-0.2l-1.7-0.2l-1.7-0.2l-1.7-0.2l-1.7-0.1
						l-1.7-0.1l-1.7-0.1h-1.7h-1.7l-3.9,0.1L111,397.4z"/>
				</g>
			</g>
		</g>
	</g>
</g>
<g id="XMLID_30_">
	<g id="XMLID_31_">
		<g id="XMLID_129_">
			<g id="XMLID_171_">
				<g id="XMLID_176_">
					<path id="f7hLi0onKg" class="st11" d="M541.1,577.5c-2.5,0-22.1,0-24.5,0c-5.8,0-11.6-1.4-16.9-4c-13.9-7.2-25.5,1.3-26.9,1.7
						c-0.2,0.1-0.4,0.2-0.6,0.2c-2.9,1.4-6,2.1-9.3,2.1c0,0,0,0-0.1,0c-13.1,0-22.3-10.2-22.3-21.9c0-8,1.6-15.4,4.6-22.3
						c3.5-7.8,5.5-16.2,5.8-24.7c0.2-3,2.6-5.3,5.6-5.1c3.3,0,29.4,0,32.6,0c3,0.1,5.2,2.5,5.1,5.5c-0.1,5.2,2.2,10.1,6.3,13.2
						c2.1,1.6,12.7,9.4,31.8,23.6c5.2,0,8.2,0,8.8,0c8.8,0,15.8,7.1,15.8,15.8S549.9,577.5,541.1,577.5z"/>
				</g>
				<g id="XMLID_172_">
					<g id="XMLID_173_">
						<path id="f7hLi0onKg_1_" class="st8" d="M541.1,577.5c-2.5,0-22.1,0-24.5,0c-5.8,0-11.6-1.4-16.9-4
							c-13.9-7.2-25.5,1.3-26.9,1.7c-0.2,0.1-0.4,0.2-0.6,0.2c-2.9,1.4-6,2.1-9.3,2.1c0,0,0,0-0.1,0c-13.1,0-22.3-10.2-22.3-21.9
							c0-8,1.6-15.4,4.6-22.3c3.5-7.8,5.5-16.2,5.8-24.7c0.2-3,2.6-5.3,5.6-5.1c3.3,0,29.4,0,32.6,0c3,0.1,5.2,2.5,5.1,5.5
							c-0.1,5.2,2.2,10.1,6.3,13.2c2.1,1.6,12.7,9.4,31.8,23.6c5.2,0,8.2,0,8.8,0c8.8,0,15.8,7.1,15.8,15.8S549.9,577.5,541.1,577.5
							z"/>
					</g>
				</g>
			</g>
			<g id="XMLID_165_">
				<g id="XMLID_170_">
					<path id="f2hFXRRFDV" class="st12" d="M541.1,577.5c-2.5,0-22.1,0-24.5,0c-5.8,0-11.6-1.4-16.9-4c-13.9-7.2-25.5,1.3-26.9,1.7
						c-0.2,0.1-0.4,0.2-0.6,0.2c0-4.8,0-28.7,0-71.8c10.2,0,15.9,0,17,0c3,0.1,5.2,2.5,5.1,5.5c-0.1,5.2,2.2,10.1,6.3,13.2
						c2.1,1.6,12.7,9.4,31.8,23.6c5.2,0,8.2,0,8.8,0c8.8,0,15.8,7.1,15.8,15.8C557,570.4,549.9,577.5,541.1,577.5z"/>
				</g>
				<g id="XMLID_166_">
					<g id="XMLID_167_">
						<path id="f2hFXRRFDV_1_" class="st8" d="M541.1,577.5c-2.5,0-22.1,0-24.5,0c-5.8,0-11.6-1.4-16.9-4
							c-13.9-7.2-25.5,1.3-26.9,1.7c-0.2,0.1-0.4,0.2-0.6,0.2c0-4.8,0-28.7,0-71.8c10.2,0,15.9,0,17,0c3,0.1,5.2,2.5,5.1,5.5
							c-0.1,5.2,2.2,10.1,6.3,13.2c2.1,1.6,12.7,9.4,31.8,23.6c5.2,0,8.2,0,8.8,0c8.8,0,15.8,7.1,15.8,15.8
							C557,570.4,549.9,577.5,541.1,577.5z"/>
					</g>
				</g>
			</g>
			<g id="XMLID_159_">
				<g id="XMLID_164_">
					<path id="cuGPZO3A5" class="st11" d="M496.1,488.2c-0.2,2.6-2.5,4.8-5.3,4.8c-3.5,0-31.1,0-34.5,0c-2.9,0-5.3-2.3-5.3-5.3
						c0-5.9-1-12.3-2.9-19.2c-5.2-18.9-7.7-38.5-7.7-57.1c0-0.9,0-8,0-8.9c0-3,2.3-5.3,5.3-5.3c5.3,0,47.5,0,52.8,0
						c1.5,0,2.9,0.6,3.9,1.7c1,1.2,1.5,2.6,1.4,4.1C502.3,420.1,496.9,479.7,496.1,488.2z"/>
				</g>
				<g id="XMLID_160_">
					<g id="XMLID_161_">
						<path id="cuGPZO3A5_1_" class="st8" d="M496.1,488.2c-0.2,2.6-2.5,4.8-5.3,4.8c-3.5,0-31.1,0-34.5,0c-2.9,0-5.3-2.3-5.3-5.3
							c0-5.9-1-12.3-2.9-19.2c-5.2-18.9-7.7-38.5-7.7-57.1c0-0.9,0-8,0-8.9c0-3,2.3-5.3,5.3-5.3c5.3,0,47.5,0,52.8,0
							c1.5,0,2.9,0.6,3.9,1.7c1,1.2,1.5,2.6,1.4,4.1C502.3,420.1,496.9,479.7,496.1,488.2z"/>
					</g>
				</g>
			</g>
			<g id="XMLID_153_">
				<g id="XMLID_158_">
					<path id="a8SwxwtB2" class="st12" d="M472.1,397.2c15.8,0,24.6,0,26.4,0c1.5,0,2.9,0.6,3.9,1.7c1,1.2,1.5,2.6,1.4,4.1
						c-0.8,8.5-6.9,76.7-7.7,85.2c-0.2,2.6-2.5,4.8-5.3,4.8c-1.2,0-7.5,0-18.7,0L472.1,397.2L472.1,397.2z"/>
				</g>
				<g id="XMLID_154_">
					<g id="XMLID_155_">
						<path id="a8SwxwtB2_1_" class="st8" d="M472.1,397.2c15.8,0,24.6,0,26.4,0c1.5,0,2.9,0.6,3.9,1.7c1,1.2,1.5,2.6,1.4,4.1
							c-0.8,8.5-6.9,76.7-7.7,85.2c-0.2,2.6-2.5,4.8-5.3,4.8c-1.2,0-7.5,0-18.7,0L472.1,397.2L472.1,397.2z"/>
					</g>
				</g>
			</g>
			<g id="XMLID_147_">
				<g id="XMLID_152_">
					<path id="b1q4MqWg1H" class="st11" d="M452.8,479c-3,0-1.1,15.4-1.1,18.3c0,1.1,0,5.2,0,6.2c0,3-1.9,6.3,1.1,6.3
						c5.3,0,33.6-1.1,38.8-1.1c3,0-1-7.7-1-10.7c0-1.1,2.7-3.4,2.7-4.5c0-3,3-5.2,0-5.2C482.8,488.5,458,479,452.8,479z"/>
				</g>
				<g id="XMLID_148_">
					<g id="XMLID_149_">
						<path id="b1q4MqWg1H_1_" class="st8" d="M452.8,479c-3,0-1.1,15.4-1.1,18.3c0,1.1,0,5.2,0,6.2c0,3-1.9,6.3,1.1,6.3
							c5.3,0,33.6-1.1,38.8-1.1c3,0-1-7.7-1-10.7c0-1.1,2.7-3.4,2.7-4.5c0-3,3-5.2,0-5.2C482.8,488.5,458,479,452.8,479z"/>
					</g>
				</g>
			</g>
			<g id="XMLID_130_">
				<g id="XMLID_146_">
					<path id="cfMEkddB8" class="st12" d="M494.3,501.5c0,1.2,0,2.8,0,4.7v1.8c0.3,0.6,0.3,0.9,0,0.9c-1.8,0-9.2,0.2-22.2,0.7v-26.3
						c13.6,0.4,21.2,0.6,23,0.6c3,0,0.4,5.6,0.4,8.6C495.5,494.5,494.3,500.4,494.3,501.5z"/>
				</g>
				<g id="XMLID_142_">
					<g id="XMLID_143_">
						<path id="cfMEkddB8_1_" class="st8" d="M494.3,501.5c0,1.2,0,2.8,0,4.7v1.8c0.3,0.6,0.3,0.9,0,0.9c-1.8,0-9.2,0.2-22.2,0.7
							v-26.3c13.6,0.4,21.2,0.6,23,0.6c3,0,0.4,5.6,0.4,8.6C495.5,494.5,494.3,500.4,494.3,501.5z"/>
					</g>
				</g>
			</g>
		</g>
		<g id="XMLID_32_">
			<g id="XMLID_125_">
				<path id="d1nlJUDros" class="st10" d="M500.8,378.6l4.6,0.5l4.5,0.6l4.4,0.8l4.4,1l4.3,1.2l4.3,1.3l4.2,1.5l4.1,1.7l4,1.8
					l3.9,1.9l3.8,2.1l3.8,2.2l3.7,2.4l3.6,2.5l3.5,2.6l3.3,2.7l3.2,2.9l3.1,3l3,3.1l2.9,3.2l2.8,3.3l2.6,3.5l2.5,3.6l2.4,3.7
					l2.2,3.8l2.1,3.8l1.9,3.9l1.8,4l1.7,4.1l1.5,4.2l1.3,4.3l1.2,4.3l1,4.4l0.8,4.4l0.6,4.5l0.5,4.6l0.3,4.6v4.6l-0.1,4.6l-0.3,4.6
					l-0.5,4.6l-0.6,4.5l-0.8,4.4l-1,4.4l-1.2,4.3l-1.3,4.3l-1.5,4.2l-1.7,4.1l-1.8,4l-1.9,3.9l-2.1,3.8l-2.2,3.8l-2.4,3.7l-2.5,3.6
					l-2.6,3.5l-2.8,3.3l-2.9,3.2l-3,3.1l-3.1,3l-3.2,2.9l-3.3,2.8l-3.5,2.6l-3.6,2.5l-3.7,2.4l-3.8,2.2l-3.8,2.1l-3.9,1.9l-4,1.8
					l-4.1,1.7l-4.2,1.5l-4.3,1.3l-4.3,1.2l-4.4,1l-4.4,0.8l-4.5,0.6l-4.6,0.5l-4.6,0.3l-4.6,0.1l-4.6-0.1l-4.6-0.3l-4.6-0.5
					l-4.5-0.6l-4.4-0.8l-4.4-1l-4.3-1.2l-4.3-1.3l-4.2-1.5l-4.1-1.7l-4-1.8l-3.9-1.9l-3.8-2.1l-3.8-2.2l-3.7-2.4l-3.6-2.5l-3.5-2.6
					l-3.3-2.8l-3.2-2.9l-3.1-3l-3-3.1l-2.9-3.2l-2.7-3.3l-2.6-3.5l-2.5-3.6l-2.4-3.7l-2.2-3.8l-2.1-3.8l-1.9-3.9l-1.8-4l-1.7-4.1
					l-1.5-4.2l-1.3-4.3l-1.2-4.3l-1-4.4l-0.8-4.4l-0.6-4.5l-0.5-4.6l-0.3-4.6l-0.1-4.6l0.1-4.6l0.3-4.6l0.5-4.6l0.6-4.5l0.8-4.4
					l1-4.4l1.2-4.3l1.3-4.3l1.5-4.2l1.7-4.1l1.8-4l1.9-3.9l2.1-3.8l2.2-3.8l2.4-3.7l2.5-3.6l2.6-3.5l2.7-3.3l2.9-3.2l3-3.1l3.1-3
					l3.2-2.9l3.3-2.7l3.5-2.6l3.6-2.5l3.7-2.4l3.8-2.2l3.8-2.1l3.9-1.9l4-1.8l4.1-1.7l4.2-1.5l4.3-1.3l4.3-1.2l4.4-1l4.4-0.8
					l4.5-0.6l4.6-0.5l4.6-0.3l4.6-0.1l4.6,0.1L500.8,378.6z M434.9,565.7l1.2,0.9l1.2,0.9l1.2,0.9l1.3,0.8l1.3,0.8l1.3,0.8l1.3,0.8
					l1.3,0.8l1.3,0.7l1.3,0.7l1.4,0.7l1.4,0.7l1.4,0.7l1.4,0.6l1.4,0.6l1.4,0.6l1.4,0.6l1.4,0.6l1.4,0.5l1.5,0.5l1.5,0.5l1.5,0.5
					l1.5,0.4l1.5,0.4l1.5,0.4l1.5,0.4l1.5,0.4l1.5,0.3l1.5,0.3l1.5,0.2l1.6,0.2l1.6,0.2l1.6,0.2l1.6,0.1l1.6,0.1l1.6,0.1l1.6,0.1
					h1.6h1.6l3.8-0.1l3.8-0.2l3.8-0.4l3.7-0.5l3.7-0.7l3.6-0.8l3.6-1l3.5-1.1l3.5-1.2l3.4-1.3l3.3-1.5l3.2-1.6l3.2-1.7l3.1-1.9l3-2
					l3-2.1l2.9-2.2l2.8-2.3l2.7-2.4l2.6-2.5l2.5-2.6l2.4-2.7l2.3-2.8l2.2-2.9l2.1-3l2-3l1.9-3.1l1.7-3.2l1.6-3.2l1.5-3.3l1.3-3.4
					l1.2-3.5l1.1-3.5l1-3.6l0.8-3.6l0.7-3.7l0.5-3.7l0.4-3.8l0.2-3.8l0.1-3.8v-1.6v-1.6l-0.1-1.6l-0.1-1.6l-0.1-1.6l-0.1-1.6
					l-0.2-1.6l-0.2-1.6l-0.2-1.6l-0.2-1.5l-0.3-1.5l-0.3-1.5l-0.4-1.5l-0.4-1.5l-0.4-1.5l-0.4-1.5l-0.4-1.5l-0.5-1.5l-0.5-1.5
					l-0.5-1.5l-0.5-1.4l-0.6-1.4L578,456l-0.6-1.4l-0.6-1.4l-0.6-1.4l-0.7-1.4l-0.7-1.4l-0.7-1.4l-0.7-1.3l-0.7-1.3l-0.8-1.3
					l-0.8-1.3l-0.8-1.3l-0.8-1.3l-0.8-1.3l-0.9-1.2l-0.9-1.2l-0.9-1.2l-0.9-1.2l-131.4,131L434.9,565.7z M483.8,398l-3.8,0.4
					l-3.7,0.5l-3.7,0.7l-3.6,0.8l-3.6,1l-3.5,1.1l-3.5,1.2l-3.4,1.4l-3.3,1.5l-3.3,1.6l-3.2,1.7l-3.1,1.9l-3,2l-3,2.1l-2.9,2.2
					l-2.8,2.3l-2.7,2.4l-2.6,2.5l-2.5,2.6l-2.4,2.7l-2.3,2.8L416,436l-2.1,3l-2,3l-1.9,3.1l-1.7,3.2l-1.6,3.2l-1.5,3.3l-1.3,3.4
					l-1.2,3.5l-1.1,3.5l-1,3.6l-0.8,3.6l-0.7,3.7l-0.5,3.7l-0.4,3.8l-0.2,3.8l-0.1,3.8v1.7v1.7l0.1,1.7l0.1,1.7l0.1,1.7l0.2,1.7
					l0.2,1.7l0.2,1.7l0.2,1.6l0.3,1.6l0.3,1.6l0.4,1.6l0.4,1.6l0.4,1.6l0.4,1.6l0.5,1.6l0.5,1.5l0.5,1.5l0.5,1.5l0.6,1.5l0.6,1.5
					l0.6,1.5l0.6,1.5l0.6,1.5l0.7,1.4l0.7,1.4l0.7,1.4l0.7,1.4l0.8,1.4l0.8,1.4l0.8,1.4l0.9,1.4l0.8,1.3l0.9,1.3l0.9,1.3l0.9,1.3
					l1,1.3l1,1.3l1,1.2l1,1.2l131.7-131.7l-1.2-1l-1.2-1l-1.3-1l-1.3-1l-1.3-0.9l-1.3-0.9l-1.3-0.9l-1.4-0.8l-1.4-0.8l-1.4-0.8
					l-1.4-0.8l-1.4-0.8l-1.4-0.7l-1.4-0.7l-1.4-0.7l-1.4-0.7l-1.5-0.6l-1.5-0.6l-1.5-0.6l-1.5-0.6l-1.5-0.6l-1.5-0.5l-1.5-0.5
					l-1.5-0.5l-1.6-0.5l-1.6-0.4l-1.6-0.4l-1.6-0.4l-1.6-0.4l-1.6-0.3l-1.6-0.3l-1.7-0.2l-1.7-0.2l-1.7-0.2l-1.7-0.2l-1.7-0.1
					l-1.7-0.1l-1.7-0.1h-1.7h-1.7l-3.8,0.1L483.8,398z"/>
			</g>
			<g id="XMLID_33_">
				<g id="XMLID_34_">
					<path id="d1nlJUDros_1_" class="st8" d="M500.8,378.6l4.6,0.5l4.5,0.6l4.4,0.8l4.4,1l4.3,1.2l4.3,1.3l4.2,1.5l4.1,1.7l4,1.8
						l3.9,1.9l3.8,2.1l3.8,2.2l3.7,2.4l3.6,2.5l3.5,2.6l3.3,2.7l3.2,2.9l3.1,3l3,3.1l2.9,3.2l2.8,3.3l2.6,3.5l2.5,3.6l2.4,3.7
						l2.2,3.8l2.1,3.8l1.9,3.9l1.8,4l1.7,4.1l1.5,4.2l1.3,4.3l1.2,4.3l1,4.4l0.8,4.4l0.6,4.5l0.5,4.6l0.3,4.6v4.6l-0.1,4.6l-0.3,4.6
						l-0.5,4.6l-0.6,4.5l-0.8,4.4l-1,4.4l-1.2,4.3l-1.3,4.3l-1.5,4.2l-1.7,4.1l-1.8,4l-1.9,3.9l-2.1,3.8l-2.2,3.8l-2.4,3.7l-2.5,3.6
						l-2.6,3.5l-2.8,3.3l-2.9,3.2l-3,3.1l-3.1,3l-3.2,2.9l-3.3,2.8l-3.5,2.6l-3.6,2.5l-3.7,2.4l-3.8,2.2l-3.8,2.1l-3.9,1.9l-4,1.8
						l-4.1,1.7l-4.2,1.5l-4.3,1.3l-4.3,1.2l-4.4,1l-4.4,0.8l-4.5,0.6l-4.6,0.5l-4.6,0.3l-4.6,0.1l-4.6-0.1l-4.6-0.3l-4.6-0.5
						l-4.5-0.6l-4.4-0.8l-4.4-1l-4.3-1.2l-4.3-1.3l-4.2-1.5l-4.1-1.7l-4-1.8l-3.9-1.9l-3.8-2.1l-3.8-2.2l-3.7-2.4l-3.6-2.5l-3.5-2.6
						l-3.3-2.8l-3.2-2.9l-3.1-3l-3-3.1l-2.9-3.2l-2.7-3.3l-2.6-3.5l-2.5-3.6l-2.4-3.7l-2.2-3.8l-2.1-3.8l-1.9-3.9l-1.8-4l-1.7-4.1
						l-1.5-4.2l-1.3-4.3l-1.2-4.3l-1-4.4l-0.8-4.4l-0.6-4.5l-0.5-4.6l-0.3-4.6l-0.1-4.6l0.1-4.6l0.3-4.6l0.5-4.6l0.6-4.5l0.8-4.4
						l1-4.4l1.2-4.3l1.3-4.3l1.5-4.2l1.7-4.1l1.8-4l1.9-3.9l2.1-3.8l2.2-3.8l2.4-3.7l2.5-3.6l2.6-3.5l2.7-3.3l2.9-3.2l3-3.1l3.1-3
						l3.2-2.9l3.3-2.7l3.5-2.6l3.6-2.5l3.7-2.4l3.8-2.2l3.8-2.1l3.9-1.9l4-1.8l4.1-1.7l4.2-1.5l4.3-1.3l4.3-1.2l4.4-1l4.4-0.8
						l4.5-0.6l4.6-0.5l4.6-0.3l4.6-0.1l4.6,0.1L500.8,378.6z M434.9,565.7l1.2,0.9l1.2,0.9l1.2,0.9l1.3,0.8l1.3,0.8l1.3,0.8l1.3,0.8
						l1.3,0.8l1.3,0.7l1.3,0.7l1.4,0.7l1.4,0.7l1.4,0.7l1.4,0.6l1.4,0.6l1.4,0.6l1.4,0.6l1.4,0.6l1.4,0.5l1.5,0.5l1.5,0.5l1.5,0.5
						l1.5,0.4l1.5,0.4l1.5,0.4l1.5,0.4l1.5,0.4l1.5,0.3l1.5,0.3l1.5,0.2l1.6,0.2l1.6,0.2l1.6,0.2l1.6,0.1l1.6,0.1l1.6,0.1l1.6,0.1
						h1.6h1.6l3.8-0.1l3.8-0.2l3.8-0.4l3.7-0.5l3.7-0.7l3.6-0.8l3.6-1l3.5-1.1l3.5-1.2l3.4-1.3l3.3-1.5l3.2-1.6l3.2-1.7l3.1-1.9l3-2
						l3-2.1l2.9-2.2l2.8-2.3l2.7-2.4l2.6-2.5l2.5-2.6l2.4-2.7l2.3-2.8l2.2-2.9l2.1-3l2-3l1.9-3.1l1.7-3.2l1.6-3.2l1.5-3.3l1.3-3.4
						l1.2-3.5l1.1-3.5l1-3.6l0.8-3.6l0.7-3.7l0.5-3.7l0.4-3.8l0.2-3.8l0.1-3.8v-1.6v-1.6l-0.1-1.6l-0.1-1.6l-0.1-1.6l-0.1-1.6
						l-0.2-1.6l-0.2-1.6l-0.2-1.6l-0.2-1.5l-0.3-1.5l-0.3-1.5l-0.4-1.5l-0.4-1.5l-0.4-1.5l-0.4-1.5l-0.4-1.5l-0.5-1.5l-0.5-1.5
						l-0.5-1.5l-0.5-1.4l-0.6-1.4L578,456l-0.6-1.4l-0.6-1.4l-0.6-1.4l-0.7-1.4l-0.7-1.4l-0.7-1.4l-0.7-1.3l-0.7-1.3l-0.8-1.3
						l-0.8-1.3l-0.8-1.3l-0.8-1.3l-0.8-1.3l-0.9-1.2l-0.9-1.2l-0.9-1.2l-0.9-1.2l-131.4,131L434.9,565.7z M483.8,398l-3.8,0.4
						l-3.7,0.5l-3.7,0.7l-3.6,0.8l-3.6,1l-3.5,1.1l-3.5,1.2l-3.4,1.4l-3.3,1.5l-3.3,1.6l-3.2,1.7l-3.1,1.9l-3,2l-3,2.1l-2.9,2.2
						l-2.8,2.3l-2.7,2.4l-2.6,2.5l-2.5,2.6l-2.4,2.7l-2.3,2.8L416,436l-2.1,3l-2,3l-1.9,3.1l-1.7,3.2l-1.6,3.2l-1.5,3.3l-1.3,3.4
						l-1.2,3.5l-1.1,3.5l-1,3.6l-0.8,3.6l-0.7,3.7l-0.5,3.7l-0.4,3.8l-0.2,3.8l-0.1,3.8v1.7v1.7l0.1,1.7l0.1,1.7l0.1,1.7l0.2,1.7
						l0.2,1.7l0.2,1.7l0.2,1.6l0.3,1.6l0.3,1.6l0.4,1.6l0.4,1.6l0.4,1.6l0.4,1.6l0.5,1.6l0.5,1.5l0.5,1.5l0.5,1.5l0.6,1.5l0.6,1.5
						l0.6,1.5l0.6,1.5l0.6,1.5l0.7,1.4l0.7,1.4l0.7,1.4l0.7,1.4l0.8,1.4l0.8,1.4l0.8,1.4l0.9,1.4l0.8,1.3l0.9,1.3l0.9,1.3l0.9,1.3
						l1,1.3l1,1.3l1,1.2l1,1.2l131.7-131.7l-1.2-1l-1.2-1l-1.3-1l-1.3-1l-1.3-0.9l-1.3-0.9l-1.3-0.9l-1.4-0.8l-1.4-0.8l-1.4-0.8
						l-1.4-0.8l-1.4-0.8l-1.4-0.7l-1.4-0.7l-1.4-0.7l-1.4-0.7l-1.5-0.6l-1.5-0.6l-1.5-0.6l-1.5-0.6l-1.5-0.6l-1.5-0.5l-1.5-0.5
						l-1.5-0.5l-1.6-0.5l-1.6-0.4l-1.6-0.4l-1.6-0.4l-1.6-0.4l-1.6-0.3l-1.6-0.3l-1.7-0.2l-1.7-0.2l-1.7-0.2l-1.7-0.2l-1.7-0.1
						l-1.7-0.1l-1.7-0.1h-1.7h-1.7l-3.8,0.1L483.8,398z"/>
				</g>
			</g>
		</g>
	</g>
</g>
</svg>
