<?xml version="1.0" encoding="UTF-8" standalone="no"?>
<!DOCTYPE svg PUBLIC "-//W3C//DTD SVG 1.1//EN" "http://www.w3.org/Graphics/SVG/1.1/DTD/svg11.dtd">
<svg version="1.1" xmlns="http://www.w3.org/2000/svg" xmlns:xlink="http://www.w3.org/1999/xlink" preserveAspectRatio="xMidYMid meet" viewBox="0 0 640 640" width="640" height="640"><defs><path d="M487.05 140C487.05 131.16 479.88 124 471.05 124C462.21 124 455.05 131.16 455.05 140C455.05 131.16 447.88 124 439.05 124C430.21 124 423.05 131.16 423.05 140C423.05 131.16 415.88 124 407.05 124C398.21 124 391.05 131.16 391.05 140C391.05 142.13 391.05 152.8 391.05 172C381.45 172 376.11 172 375.05 172C366.21 172 359.05 179.16 359.05 188C359.05 190.13 359.05 200.8 359.05 220L367.05 244C395.85 268 411.85 281.33 415.05 284C415.05 284 431.05 388 431.05 436C423.05 436 389.66 418.87 375.05 412C313.23 382.98 286.96 371.72 263.05 356C229.94 332.17 195.18 310.72 159.05 291.81C111.05 267.81 55.05 283.81 55.05 283.81C55.05 297.14 55.05 363.81 55.05 483.81C69.45 469.41 77.45 461.41 79.05 459.81C119.05 419.81 151.05 435.81 151.05 435.81C327.05 523.81 407.05 515.81 463.05 515.81C519.05 515.81 519.05 492 519.05 436C519.05 412 511.05 356 495.05 284C496.65 281.33 504.65 268 519.05 244C519.05 181.6 519.05 146.93 519.05 140C519.05 131.16 511.88 124 503.05 124C494.21 124 487.05 131.16 487.05 140Z" id="d2aK7M1SL1"></path><path d="M431.05 140C431.05 140 431.05 140 431.05 140C431.05 154.4 431.05 162.4 431.05 164C431.05 164 431.05 164 431.05 164C421.45 164 416.11 164 415.05 164C415.05 164 415.05 164 415.05 164C415.05 149.6 415.05 141.6 415.05 140C415.05 140 415.05 140 415.05 140C424.65 140 429.98 140 431.05 140Z" id="c6Cm2Dp8"></path><path d="M463.05 140C463.05 140 463.05 140 463.05 140C463.05 154.4 463.05 162.4 463.05 164C463.05 164 463.05 164 463.05 164C453.45 164 448.11 164 447.05 164C447.05 164 447.05 164 447.05 164C447.05 149.6 447.05 141.6 447.05 140C447.05 140 447.05 140 447.05 140C456.65 140 461.98 140 463.05 140Z" id="bsdXWxqNz"></path><path d="M495.05 140C495.05 140 495.05 140 495.05 140C495.05 154.4 495.05 162.4 495.05 164C495.05 164 495.05 164 495.05 164C485.45 164 480.11 164 479.05 164C479.05 164 479.05 164 479.05 164C479.05 149.6 479.05 141.6 479.05 140C479.05 140 479.05 140 479.05 140C488.65 140 493.98 140 495.05 140Z" id="gUEs2k9ED"></path><path d="M399.05 172C399.05 172 399.05 172 399.05 172C399.05 196 399.05 209.33 399.05 212C399.05 212 399.05 212 399.05 212C389.45 212 384.11 212 383.05 212C383.05 212 383.05 212 383.05 212C383.05 188 383.05 174.67 383.05 172C383.05 172 383.05 172 383.05 172C392.65 172 397.98 172 399.05 172Z" id="beMLrqToD"></path><path d="M431.05 180C431.05 180 431.05 180 431.05 180C431.05 189.6 431.05 194.93 431.05 196C431.05 196 431.05 196 431.05 196C421.45 196 416.11 196 415.05 196C415.05 196 415.05 196 415.05 196C415.05 186.4 415.05 181.07 415.05 180C415.05 180 415.05 180 415.05 180C424.65 180 429.98 180 431.05 180Z" id="b2arKkpLwe"></path><path d="M463.05 180C463.05 180 463.05 180 463.05 180C463.05 189.6 463.05 194.93 463.05 196C463.05 196 463.05 196 463.05 196C453.45 196 448.11 196 447.05 196C447.05 196 447.05 196 447.05 196C447.05 186.4 447.05 181.07 447.05 180C447.05 180 447.05 180 447.05 180C456.65 180 461.98 180 463.05 180Z" id="dM4FPWTJP"></path><path d="M495.05 180C495.05 180 495.05 180 495.05 180C495.05 189.6 495.05 194.93 495.05 196C495.05 196 495.05 196 495.05 196C485.45 196 480.11 196 479.05 196C479.05 196 479.05 196 479.05 196C479.05 186.4 479.05 181.07 479.05 180C479.05 180 479.05 180 479.05 180C488.65 180 493.98 180 495.05 180Z" id="f6CZ3i8lsP"></path><path d="M346.24 1.06L359.15 2.37L371.91 4.19L384.49 6.5L396.9 9.3L409.12 12.57L421.14 16.31L432.96 20.51L444.56 25.15L455.93 30.22L467.06 35.72L477.94 41.63L488.56 47.94L498.91 54.65L508.99 61.74L518.77 69.21L528.25 77.03L537.42 85.21L546.27 93.73L554.79 102.58L562.97 111.75L570.79 121.23L578.26 131.01L585.35 141.09L592.06 151.44L598.37 162.06L604.28 172.94L609.78 184.07L614.85 195.44L619.49 207.04L623.69 218.86L627.43 230.88L630.7 243.1L633.5 255.51L635.81 268.09L637.63 280.85L638.94 293.76L639.73 306.81L640 320L639.73 333.19L638.94 346.24L637.63 359.15L635.81 371.91L633.5 384.49L630.7 396.9L627.43 409.12L623.69 421.14L619.49 432.96L614.85 444.56L609.78 455.93L604.28 467.06L598.37 477.94L592.06 488.56L585.35 498.91L578.26 508.99L570.79 518.77L562.97 528.25L554.79 537.42L546.27 546.27L537.42 554.79L528.25 562.97L518.77 570.79L508.99 578.26L498.91 585.35L488.56 592.06L477.94 598.37L467.06 604.28L455.93 609.78L444.56 614.85L432.96 619.49L421.14 623.69L409.12 627.43L396.9 630.7L384.49 633.5L371.91 635.81L359.15 637.63L346.24 638.94L333.19 639.73L320 640L306.81 639.73L293.76 638.94L280.85 637.63L268.09 635.81L255.51 633.5L243.1 630.7L230.88 627.43L218.86 623.69L207.04 619.49L195.44 614.85L184.07 609.78L172.94 604.28L162.06 598.37L151.44 592.06L141.09 585.35L131.01 578.26L121.23 570.79L111.75 562.97L102.58 554.79L93.73 546.27L85.21 537.42L77.03 528.25L69.21 518.77L61.74 508.99L54.65 498.91L47.94 488.56L41.63 477.94L35.72 467.06L30.22 455.93L25.15 444.56L20.51 432.96L16.31 421.14L12.57 409.12L9.3 396.9L6.5 384.49L4.19 371.91L2.37 359.15L1.06 346.24L0.27 333.19L0 320L0.27 306.81L1.06 293.76L2.37 280.85L4.19 268.09L6.5 255.51L9.3 243.1L12.57 230.88L16.31 218.86L20.51 207.04L25.15 195.44L30.22 184.07L35.72 172.94L41.63 162.06L47.94 151.44L54.65 141.09L61.74 131.01L69.21 121.23L77.03 111.75L85.21 102.58L93.73 93.73L102.58 85.21L111.75 77.03L121.23 69.21L131.01 61.74L141.09 54.65L151.44 47.94L162.06 41.63L172.94 35.72L184.07 30.22L195.44 25.15L207.04 20.51L218.86 16.31L230.88 12.57L243.1 9.3L255.51 6.5L268.09 4.19L280.85 2.37L293.76 1.06L306.81 0.27L320 0L333.19 0.27L346.24 1.06ZM159.87 530.7L163.32 533.28L166.8 535.81L170.33 538.28L173.9 540.7L177.52 543.06L181.17 545.36L184.86 547.6L188.59 549.79L192.36 551.91L196.16 553.98L200.01 555.98L203.89 557.93L207.8 559.81L211.75 561.63L215.73 563.38L219.75 565.07L223.8 566.7L227.89 568.26L232 569.76L236.15 571.19L240.33 572.55L244.53 573.85L248.77 575.07L253.03 576.23L257.33 577.32L261.64 578.33L265.99 579.28L270.36 580.15L274.76 580.95L279.19 581.68L283.63 582.33L288.1 582.91L292.6 583.42L297.11 583.85L301.65 584.2L306.21 584.47L310.78 584.67L315.38 584.79L320 584.83L330.9 584.61L341.69 583.95L352.36 582.86L362.9 581.36L373.3 579.44L383.56 577.12L393.67 574.4L403.61 571.3L413.39 567.83L422.98 563.98L432.39 559.78L441.6 555.22L450.6 550.33L459.39 545.09L467.96 539.54L476.3 533.66L484.4 527.48L492.25 521L499.84 514.23L507.17 507.17L514.23 499.84L521 492.25L527.48 484.4L533.66 476.3L539.54 467.96L545.09 459.39L550.33 450.6L555.22 441.6L559.78 432.39L563.98 422.98L567.83 413.39L571.3 403.61L574.4 393.67L577.12 383.56L579.44 373.3L581.36 362.9L582.86 352.36L583.95 341.69L584.61 330.9L584.83 320L584.79 315.38L584.67 310.78L584.47 306.21L584.2 301.65L583.85 297.11L583.42 292.6L582.91 288.1L582.33 283.63L581.68 279.18L580.95 274.76L580.15 270.36L579.28 265.99L578.33 261.64L577.32 257.32L576.23 253.03L575.07 248.77L573.85 244.53L572.55 240.32L571.19 236.15L569.76 232L568.26 227.89L566.7 223.8L565.07 219.75L563.38 215.73L561.63 211.75L559.81 207.8L557.93 203.88L555.98 200L553.98 196.16L551.91 192.35L549.79 188.59L547.6 184.85L545.36 181.16L543.06 177.51L540.7 173.9L538.28 170.33L535.81 166.8L533.28 163.31L530.7 159.86L528.07 156.46L156.47 528.07L159.87 530.7ZM298.31 56.05L287.64 57.14L277.1 58.64L266.7 60.56L256.44 62.88L246.33 65.6L236.39 68.7L226.61 72.17L217.02 76.02L207.61 80.22L198.4 84.78L189.4 89.67L180.61 94.91L172.04 100.46L163.7 106.34L155.6 112.52L147.75 119L140.16 125.77L132.83 132.83L125.77 140.16L119 147.75L112.52 155.6L106.34 163.7L100.46 172.04L94.91 180.61L89.67 189.4L84.78 198.4L80.22 207.61L76.02 217.02L72.17 226.61L68.7 236.39L65.6 246.33L62.88 256.44L60.56 266.7L58.64 277.1L57.14 287.64L56.05 298.31L55.39 309.1L55.17 320L55.21 324.83L55.34 329.63L55.56 334.42L55.86 339.18L56.24 343.92L56.71 348.64L57.26 353.33L57.89 358L58.61 362.64L59.4 367.25L60.27 371.84L61.22 376.4L62.25 380.93L63.36 385.43L64.54 389.9L65.8 394.34L67.14 398.75L68.55 403.12L70.03 407.46L71.58 411.77L73.21 416.04L74.91 420.28L76.68 424.48L78.52 428.65L80.43 432.78L82.4 436.86L84.45 440.91L86.56 444.92L88.74 448.89L90.98 452.82L93.29 456.7L95.66 460.55L98.1 464.34L100.59 468.1L103.15 471.81L105.77 475.47L108.45 479.09L111.19 482.66L113.99 486.18L116.85 489.65L489.65 116.85L486.18 113.99L482.66 111.19L479.09 108.45L475.47 105.77L471.81 103.15L468.1 100.59L464.35 98.1L460.55 95.66L456.7 93.29L452.82 90.98L448.89 88.74L444.92 86.56L440.92 84.45L436.87 82.4L432.78 80.43L428.65 78.52L424.49 76.68L420.29 74.91L416.05 73.21L411.78 71.58L407.47 70.03L403.13 68.55L398.75 67.14L394.34 65.8L389.9 64.54L385.43 63.36L380.93 62.25L376.4 61.22L371.84 60.27L367.26 59.4L362.64 58.61L358 57.89L353.33 57.26L348.64 56.71L343.92 56.24L339.18 55.86L334.42 55.56L329.64 55.34L324.83 55.21L320 55.17L309.1 55.39L298.31 56.05Z" id="b19ZMkXrgV"></path></defs><g><g><g><g><use xlink:href="#d2aK7M1SL1" opacity="1" fill="#ffd782" fill-opacity="1"></use><g><use xlink:href="#d2aK7M1SL1" opacity="1" fill-opacity="0" stroke="#000000" stroke-width="1" stroke-opacity="0"></use></g></g><g><use xlink:href="#c6Cm2Dp8" opacity="1" fill="#f3bb59" fill-opacity="1"></use><g><use xlink:href="#c6Cm2Dp8" opacity="1" fill-opacity="0" stroke="#000000" stroke-width="1" stroke-opacity="0"></use></g></g><g><use xlink:href="#bsdXWxqNz" opacity="1" fill="#f3bb59" fill-opacity="1"></use><g><use xlink:href="#bsdXWxqNz" opacity="1" fill-opacity="0" stroke="#000000" stroke-width="1" stroke-opacity="0"></use></g></g><g><use xlink:href="#gUEs2k9ED" opacity="1" fill="#f3bb59" fill-opacity="1"></use><g><use xlink:href="#gUEs2k9ED" opacity="1" fill-opacity="0" stroke="#000000" stroke-width="1" stroke-opacity="0"></use></g></g><g><use xlink:href="#beMLrqToD" opacity="1" fill="#f3bb59" fill-opacity="1"></use><g><use xlink:href="#beMLrqToD" opacity="1" fill-opacity="0" stroke="#000000" stroke-width="1" stroke-opacity="0"></use></g></g><g><use xlink:href="#b2arKkpLwe" opacity="1" fill="#f3bb59" fill-opacity="1"></use><g><use xlink:href="#b2arKkpLwe" opacity="1" fill-opacity="0" stroke="#000000" stroke-width="1" stroke-opacity="0"></use></g></g><g><use xlink:href="#dM4FPWTJP" opacity="1" fill="#f3bb59" fill-opacity="1"></use><g><use xlink:href="#dM4FPWTJP" opacity="1" fill-opacity="0" stroke="#000000" stroke-width="1" stroke-opacity="0"></use></g></g><g><use xlink:href="#f6CZ3i8lsP" opacity="1" fill="#f3bb59" fill-opacity="1"></use><g><use xlink:href="#f6CZ3i8lsP" opacity="1" fill-opacity="0" stroke="#000000" stroke-width="1" stroke-opacity="0"></use></g></g></g><g><use xlink:href="#b19ZMkXrgV" opacity="1" fill="#dd352e" fill-opacity="1"></use><g><use xlink:href="#b19ZMkXrgV" opacity="1" fill-opacity="0" stroke="#000000" stroke-width="1" stroke-opacity="0"></use></g></g></g></g></svg>