<?xml version="1.0" encoding="UTF-8" standalone="no"?>
<!DOCTYPE svg PUBLIC "-//W3C//DTD SVG 1.1//EN" "http://www.w3.org/Graphics/SVG/1.1/DTD/svg11.dtd">
<svg version="1.1" xmlns="http://www.w3.org/2000/svg" xmlns:xlink="http://www.w3.org/1999/xlink" preserveAspectRatio="xMidYMid meet" viewBox="0 0 640 640" width="640" height="640"><defs><path d="M462 566C455.03 566 399.27 566 392.3 566C375.8 566 359.3 562.1 344.3 554.6C304.7 534.2 272 558.2 267.8 559.4C267.2 559.7 266.6 560 266 560C257.9 563.9 248.9 566 239.6 566C239.6 566 239.6 566 239.3 566C202.1 566 176 536.9 176 503.9C176 481.1 180.5 460.1 189.2 440.6C199.1 418.4 204.8 394.7 205.7 370.4C206.3 362 213.2 355.4 221.6 356C230.87 356 305.03 356 314.3 356C322.7 356.3 329 363.2 328.7 371.6C328.4 386.3 335 400.4 346.7 409.1C352.73 413.56 382.86 435.86 437.1 476C452.04 476 460.34 476 462 476C486.9 476 507 496.1 507 521C507 545.9 486.9 566 462 566Z" id="f7hLi0onKg"></path><path d="M462 566C455.03 566 399.27 566 392.3 566C375.8 566 359.3 562.1 344.3 554.6C304.7 534.2 272 558.2 267.8 559.4C267.2 559.7 266.6 560 266 560C266 546.4 266 478.4 266 356C294.98 356 311.08 356 314.3 356C322.7 356.3 329 363.2 328.7 371.6C328.4 386.3 335 400.4 346.7 409.1C352.73 413.56 382.86 435.86 437.1 476C452.04 476 460.34 476 462 476C486.9 476 507 496.1 507 521C507 545.9 486.9 566 462 566Z" id="f2hFXRRFDV"></path><path d="M334.1 312.5C333.5 320 326.9 326 319.1 326C309.29 326 230.81 326 221 326C212.9 326 206 319.4 206 311C206 294.2 203.3 276.2 197.9 256.4C183.2 202.7 176 147 176 94.2C176 91.68 176 71.52 176 69C176 60.6 182.6 54 191 54C206 54 326 54 341 54C345.2 54 349.1 55.8 352.1 58.8C354.8 62.1 356.3 66.3 356 70.5C351.62 118.9 336.29 288.3 334.1 312.5Z" id="cuGPZO3A5"></path><path d="M266 54C311 54 336 54 341 54C345.2 54 349.1 55.8 352.1 58.8C354.8 62.1 356.3 66.3 356 70.5C353.81 94.7 336.29 288.3 334.1 312.5C333.5 320 326.9 326 319.1 326C315.56 326 297.86 326 266 326L266 54Z" id="a8SwxwtB2"></path><path d="M211 286.33C202.6 286.33 208 329.93 208 338.33C208 341.33 208 353 208 356C208 364.4 202.6 374 211 374C226 374 306.33 371 321.33 371C329.73 371 318.67 349.07 318.67 340.67C318.67 337.67 326.33 331 326.33 328C326.33 319.6 334.73 313.33 326.33 313.33C296.33 313.33 226 286.33 211 286.33Z" id="b1q4MqWg1H"></path><path d="M329 350C329 353.53 329 357.98 329 363.34L329 368.38C329.81 370.13 329.81 371 329 371C324 371 303 371.67 266 373L266 298.33C304.56 299.44 326.33 300 331.33 300C339.73 300 332.33 315.93 332.33 324.33C332.33 330.33 329 347 329 350Z" id="cfMEkddB8"></path><path d="M347.33 1.06L360.28 2.38L373.07 4.2L385.69 6.52L398.14 9.33L410.4 12.61L422.46 16.37L434.31 20.57L445.95 25.23L457.35 30.32L468.52 35.83L479.43 41.76L490.09 48.09L500.47 54.82L510.58 61.94L520.39 69.42L529.9 77.27L539.1 85.47L547.98 94.02L556.53 102.9L564.73 112.1L572.58 121.61L580.06 131.42L587.18 141.53L593.91 151.91L600.24 162.57L606.17 173.48L611.68 184.65L616.77 196.05L621.43 207.69L625.63 219.54L629.39 231.6L632.67 243.86L635.48 256.31L637.8 268.93L639.62 281.72L640.94 294.67L641.73 307.77L642 321L641.73 334.23L640.94 347.33L639.62 360.28L637.8 373.07L635.48 385.69L632.67 398.14L629.39 410.4L625.63 422.46L621.43 434.31L616.77 445.95L611.68 457.35L606.17 468.52L600.24 479.43L593.91 490.09L587.18 500.47L580.06 510.58L572.58 520.39L564.73 529.9L556.53 539.1L547.98 547.98L539.1 556.53L529.9 564.73L520.39 572.58L510.58 580.06L500.47 587.18L490.09 593.91L479.43 600.24L468.52 606.17L457.35 611.68L445.95 616.77L434.31 621.43L422.46 625.63L410.4 629.39L398.14 632.67L385.69 635.48L373.07 637.8L360.28 639.62L347.33 640.94L334.23 641.73L321 642L307.77 641.73L294.67 640.94L281.72 639.62L268.93 637.8L256.31 635.48L243.86 632.67L231.6 629.39L219.54 625.63L207.69 621.43L196.05 616.77L184.65 611.68L173.48 606.17L162.57 600.24L151.91 593.91L141.53 587.18L131.42 580.06L121.61 572.58L112.1 564.73L102.9 556.53L94.02 547.98L85.47 539.1L77.27 529.9L69.42 520.39L61.94 510.58L54.82 500.47L48.09 490.09L41.76 479.43L35.83 468.52L30.32 457.35L25.23 445.95L20.57 434.31L16.37 422.46L12.61 410.4L9.33 398.14L6.52 385.69L4.2 373.07L2.38 360.28L1.06 347.33L0.27 334.23L0 321L0.27 307.77L1.06 294.67L2.38 281.72L4.2 268.93L6.52 256.31L9.33 243.86L12.61 231.6L16.37 219.54L20.57 207.69L25.23 196.05L30.32 184.65L35.83 173.48L41.76 162.57L48.09 151.91L54.82 141.53L61.94 131.42L69.42 121.61L77.27 112.1L85.47 102.9L94.02 94.02L102.9 85.47L112.1 77.27L121.61 69.42L131.42 61.94L141.53 54.82L151.91 48.09L162.57 41.76L173.48 35.83L184.65 30.32L196.05 25.23L207.69 20.57L219.54 16.37L231.6 12.61L243.86 9.33L256.31 6.52L268.93 4.2L281.72 2.38L294.67 1.06L307.77 0.27L321 0L334.23 0.27L347.33 1.06ZM160.37 532.36L163.83 534.95L167.33 537.48L170.87 539.96L174.45 542.39L178.07 544.75L181.73 547.06L185.44 549.31L189.18 551.5L192.96 553.64L196.78 555.71L200.63 557.72L204.52 559.67L208.45 561.56L212.41 563.38L216.41 565.14L220.44 566.84L224.5 568.47L228.6 570.04L232.73 571.54L236.89 572.97L241.08 574.34L245.3 575.64L249.55 576.87L253.82 578.03L258.13 579.12L262.46 580.14L266.82 581.09L271.21 581.96L275.62 582.77L280.06 583.5L284.52 584.15L289 584.73L293.51 585.24L298.04 585.67L302.59 586.02L307.16 586.3L311.76 586.5L316.37 586.62L321 586.66L331.93 586.43L342.76 585.77L353.46 584.68L364.03 583.17L374.47 581.25L384.76 578.92L394.9 576.2L404.88 573.09L414.68 569.6L424.3 565.75L433.74 561.53L442.98 556.96L452.01 552.05L460.83 546.8L469.43 541.22L477.79 535.33L485.91 529.13L493.79 522.63L501.41 515.83L508.76 508.76L515.83 501.41L522.63 493.79L529.13 485.91L535.33 477.79L541.22 469.43L546.8 460.83L552.05 452.01L556.96 442.98L561.53 433.74L565.75 424.3L569.6 414.68L573.09 404.88L576.2 394.9L578.92 384.76L581.25 374.47L583.17 364.03L584.68 353.46L585.77 342.76L586.43 331.93L586.66 321L586.62 316.37L586.5 311.76L586.3 307.16L586.02 302.59L585.67 298.04L585.24 293.51L584.73 289L584.15 284.52L583.5 280.06L582.77 275.62L581.96 271.21L581.09 266.82L580.14 262.46L579.12 258.13L578.03 253.82L576.87 249.54L575.64 245.3L574.34 241.08L572.97 236.89L571.54 232.73L570.04 228.6L568.47 224.5L566.84 220.44L565.14 216.41L563.38 212.41L561.56 208.45L559.67 204.52L557.72 200.63L555.71 196.77L553.64 192.96L551.5 189.17L549.31 185.43L547.06 181.73L544.75 178.07L542.39 174.44L539.96 170.86L537.48 167.32L534.95 163.82L532.36 160.36L529.72 156.95L156.96 529.72L160.37 532.36ZM299.24 56.23L288.54 57.32L277.97 58.83L267.53 60.75L257.24 63.08L247.1 65.8L237.12 68.91L227.32 72.4L217.7 76.25L208.26 80.47L199.02 85.04L189.99 89.95L181.17 95.2L172.57 100.78L164.21 106.67L156.09 112.87L148.21 119.37L140.59 126.17L133.24 133.24L126.17 140.59L119.37 148.21L112.87 156.09L106.67 164.21L100.78 172.57L95.2 181.17L89.95 189.99L85.04 199.02L80.47 208.26L76.25 217.7L72.4 227.32L68.91 237.12L65.8 247.1L63.08 257.24L60.75 267.53L58.83 277.97L57.32 288.54L56.23 299.24L55.57 310.07L55.34 321L55.39 325.84L55.52 330.66L55.73 335.46L56.03 340.24L56.42 345L56.89 349.73L57.44 354.43L58.07 359.12L58.79 363.77L59.58 368.4L60.46 373L61.41 377.58L62.45 382.12L63.56 386.63L64.74 391.12L66.01 395.57L67.35 399.99L68.76 404.38L70.25 408.74L71.81 413.06L73.44 417.35L75.14 421.6L76.92 425.81L78.76 429.99L80.68 434.13L82.66 438.23L84.71 442.29L86.83 446.31L89.02 450.29L91.27 454.23L93.58 458.13L95.96 461.99L98.4 465.8L100.91 469.56L103.47 473.28L106.1 476.96L108.79 480.59L111.54 484.17L114.35 487.7L117.21 491.18L491.18 117.21L487.7 114.35L484.17 111.54L480.59 108.79L476.96 106.1L473.28 103.47L469.56 100.91L465.8 98.4L461.99 95.96L458.13 93.58L454.23 91.27L450.3 89.02L446.31 86.83L442.29 84.71L438.23 82.66L434.13 80.68L429.99 78.76L425.81 76.92L421.6 75.14L417.35 73.44L413.06 71.81L408.74 70.25L404.39 68.76L400 67.35L395.58 66.01L391.12 64.74L386.64 63.56L382.12 62.45L377.58 61.41L373.01 60.46L368.4 59.58L363.78 58.79L359.12 58.07L354.44 57.44L349.73 56.89L345 56.42L340.24 56.03L335.47 55.73L330.67 55.52L325.84 55.39L321 55.34L310.07 55.57L299.24 56.23Z" id="d1nlJUDros"></path></defs><g><g><g><g><use xlink:href="#f7hLi0onKg" opacity="1" fill="#fed2a4" fill-opacity="1"></use><g><use xlink:href="#f7hLi0onKg" opacity="1" fill-opacity="0" stroke="#000000" stroke-width="1" stroke-opacity="0"></use></g></g><g><use xlink:href="#f2hFXRRFDV" opacity="1" fill="#ffbd86" fill-opacity="1"></use><g><use xlink:href="#f2hFXRRFDV" opacity="1" fill-opacity="0" stroke="#000000" stroke-width="1" stroke-opacity="0"></use></g></g><g><use xlink:href="#cuGPZO3A5" opacity="1" fill="#fed2a4" fill-opacity="1"></use><g><use xlink:href="#cuGPZO3A5" opacity="1" fill-opacity="0" stroke="#000000" stroke-width="1" stroke-opacity="0"></use></g></g><g><use xlink:href="#a8SwxwtB2" opacity="1" fill="#ffbd86" fill-opacity="1"></use><g><use xlink:href="#a8SwxwtB2" opacity="1" fill-opacity="0" stroke="#000000" stroke-width="1" stroke-opacity="0"></use></g></g><g><use xlink:href="#b1q4MqWg1H" opacity="1" fill="#fed2a4" fill-opacity="1"></use><g><use xlink:href="#b1q4MqWg1H" opacity="1" fill-opacity="0" stroke="#000000" stroke-width="1" stroke-opacity="0"></use></g></g><g><use xlink:href="#cfMEkddB8" opacity="1" fill="#ffbd86" fill-opacity="1"></use><g><use xlink:href="#cfMEkddB8" opacity="1" fill-opacity="0" stroke="#000000" stroke-width="1" stroke-opacity="0"></use></g></g></g><g><use xlink:href="#d1nlJUDros" opacity="1" fill="#dd352e" fill-opacity="1"></use><g><use xlink:href="#d1nlJUDros" opacity="1" fill-opacity="0" stroke="#000000" stroke-width="1" stroke-opacity="0"></use></g></g></g></g></svg>