<?xml version="1.0" encoding="utf-8"?>
<!-- Generator: Adobe Illustrator 19.0.0, SVG Export Plug-In . SVG Version: 6.00 Build 0)  -->
<svg version="1.1" id="Layer_1" xmlns="http://www.w3.org/2000/svg" xmlns:xlink="http://www.w3.org/1999/xlink" x="0px" y="0px"
	 viewBox="-53 55 504 504" style="enable-background:new -53 55 504 504;" xml:space="preserve">
<style type="text/css">
	.st0{fill:#FED2A4;}
	.st1{fill-opacity:0;stroke:#000000;stroke-opacity:0;}
	.st2{fill:#FFBD86;}
	.st3{fill:#DD352E;}
	.st4{fill:#4E4E4E;}
	.st5{fill:#010101;}
	.st6{fill:#231F20;}
	.st7{fill:#C1282D;}
	.st8{opacity:0.64;fill:#010101;enable-background:new    ;}
	.st9{fill:#FFFFFF;}
	.st10{opacity:0.62;fill:#FFFFFF;enable-background:new    ;}
</style>
<g>
	<g>
		<g>
			<g>
				<g>
					<path id="f7hLi0onKg" class="st0" d="M309.3,497.2c-5.5,0-49,0-54.5,0c-12.9,0-25.8-3-37.5-8.9c-31-16-56.5,2.8-59.8,3.8
						c-0.5,0.2-0.9,0.5-1.4,0.5c-6.3,3-13.4,4.7-20.6,4.7c0,0,0,0-0.2,0c-29.1,0-49.5-22.8-49.5-48.6c0-17.8,3.5-34.2,10.3-49.5
						c7.7-17.4,12.2-35.9,12.9-54.9c0.5-6.6,5.9-11.7,12.4-11.3c7.3,0,65.2,0,72.5,0c6.6,0.2,11.5,5.6,11.3,12.2
						c-0.2,11.5,4.9,22.5,14.1,29.3c4.7,3.5,28.3,21,70.7,52.3c11.7,0,18.1,0,19.5,0c19.5,0,35.2,15.7,35.2,35.2
						S328.7,497.2,309.3,497.2z"/>
				</g>
				<g>
					<g>
						<path id="f7hLi0onKg_1_" class="st1" d="M309.3,497.2c-5.5,0-49,0-54.5,0c-12.9,0-25.8-3-37.5-8.9c-31-16-56.5,2.8-59.8,3.8
							c-0.5,0.2-0.9,0.5-1.4,0.5c-6.3,3-13.4,4.7-20.6,4.7c0,0,0,0-0.2,0c-29.1,0-49.5-22.8-49.5-48.6c0-17.8,3.5-34.2,10.3-49.5
							c7.7-17.4,12.2-35.9,12.9-54.9c0.5-6.6,5.9-11.7,12.4-11.3c7.3,0,65.2,0,72.5,0c6.6,0.2,11.5,5.6,11.3,12.2
							c-0.2,11.5,4.9,22.5,14.1,29.3c4.7,3.5,28.3,21,70.7,52.3c11.7,0,18.1,0,19.5,0c19.5,0,35.2,15.7,35.2,35.2
							S328.7,497.2,309.3,497.2z"/>
					</g>
				</g>
			</g>
			<g>
				<g>
					<path id="f2hFXRRFDV" class="st2" d="M309.3,497.2c-5.5,0-49,0-54.5,0c-12.9,0-25.8-3-37.5-8.9c-31-16-56.5,2.8-59.8,3.8
						c-0.5,0.2-0.9,0.5-1.4,0.5c0-10.6,0-63.8,0-159.5c22.7,0,35.3,0,37.8,0c6.6,0.2,11.5,5.6,11.3,12.2
						c-0.2,11.5,4.9,22.5,14.1,29.3c4.7,3.5,28.3,21,70.7,52.3c11.7,0,18.1,0,19.5,0c19.5,0,35.2,15.7,35.2,35.2
						C344.4,481.5,328.7,497.2,309.3,497.2z"/>
				</g>
				<g>
					<g>
						<path id="f2hFXRRFDV_1_" class="st1" d="M309.3,497.2c-5.5,0-49,0-54.5,0c-12.9,0-25.8-3-37.5-8.9c-31-16-56.5,2.8-59.8,3.8
							c-0.5,0.2-0.9,0.5-1.4,0.5c0-10.6,0-63.8,0-159.5c22.7,0,35.3,0,37.8,0c6.6,0.2,11.5,5.6,11.3,12.2
							c-0.2,11.5,4.9,22.5,14.1,29.3c4.7,3.5,28.3,21,70.7,52.3c11.7,0,18.1,0,19.5,0c19.5,0,35.2,15.7,35.2,35.2
							C344.4,481.5,328.7,497.2,309.3,497.2z"/>
					</g>
				</g>
			</g>
			<g>
				<g>
					<path id="cuGPZO3A5" class="st0" d="M209.2,299c-0.5,5.9-5.6,10.6-11.7,10.6c-7.7,0-69,0-76.7,0c-6.3,0-11.7-5.2-11.7-11.7
						c0-13.1-2.1-27.2-6.3-42.7c-11.5-42-17.1-85.5-17.1-126.8c0-2,0-17.7,0-19.7c0-6.6,5.2-11.7,11.7-11.7c11.7,0,105.6,0,117.3,0
						c3.3,0,6.3,1.4,8.7,3.8c2.1,2.6,3.3,5.9,3,9.1C222.9,147.6,211,280,209.2,299z"/>
				</g>
				<g>
					<g>
						<path id="cuGPZO3A5_1_" class="st1" d="M209.2,299c-0.5,5.9-5.6,10.6-11.7,10.6c-7.7,0-69,0-76.7,0c-6.3,0-11.7-5.2-11.7-11.7
							c0-13.1-2.1-27.2-6.3-42.7c-11.5-42-17.1-85.5-17.1-126.8c0-2,0-17.7,0-19.7c0-6.6,5.2-11.7,11.7-11.7c11.7,0,105.6,0,117.3,0
							c3.3,0,6.3,1.4,8.7,3.8c2.1,2.6,3.3,5.9,3,9.1C222.9,147.6,211,280,209.2,299z"/>
					</g>
				</g>
			</g>
			<g>
				<g>
					<path id="a8SwxwtB2" class="st2" d="M156,96.8c35.2,0,54.7,0,58.6,0c3.3,0,6.3,1.4,8.7,3.8c2.1,2.6,3.3,5.9,3,9.1
						C224.6,128.7,211,280,209.2,299c-0.5,5.9-5.6,10.6-11.7,10.6c-2.7,0-16.6,0-41.5,0V96.8z"/>
				</g>
				<g>
					<g>
						<path id="a8SwxwtB2_1_" class="st1" d="M156,96.8c35.2,0,54.7,0,58.6,0c3.3,0,6.3,1.4,8.7,3.8c2.1,2.6,3.3,5.9,3,9.1
							C224.6,128.7,211,280,209.2,299c-0.5,5.9-5.6,10.6-11.7,10.6c-2.7,0-16.6,0-41.5,0V96.8z"/>
					</g>
				</g>
			</g>
			<g>
				<g>
					<path id="b1q4MqWg1H" class="st0" d="M113,278.5c-6.6,0-2.3,34.1-2.3,40.7c0,2.3,0,11.5,0,13.8c0,6.6-4.2,14.1,2.3,14.1
						c11.7,0,74.5-2.3,86.2-2.3c6.6,0-2.1-17.1-2.1-23.7c0-2.3,6-7.6,6-9.9c0-6.6,6.6-11.5,0-11.5
						C179.7,299.6,124.7,278.5,113,278.5z"/>
				</g>
				<g>
					<g>
						<path id="b1q4MqWg1H_1_" class="st1" d="M113,278.5c-6.6,0-2.3,34.1-2.3,40.7c0,2.3,0,11.5,0,13.8c0,6.6-4.2,14.1,2.3,14.1
							c11.7,0,74.5-2.3,86.2-2.3c6.6,0-2.1-17.1-2.1-23.7c0-2.3,6-7.6,6-9.9c0-6.6,6.6-11.5,0-11.5
							C179.7,299.6,124.7,278.5,113,278.5z"/>
					</g>
				</g>
			</g>
			<g>
				<g>
					<path id="cfMEkddB8" class="st2" d="M205.3,328.3c0,2.7,0,6.3,0,10.4v3.9c0.6,1.4,0.6,2,0,2c-3.9,0-20.3,0.5-49.3,1.6v-58.4
						c30.2,0.9,47.2,1.3,51.1,1.3c6.6,0,0.8,12.4,0.8,19C207.8,312.9,205.3,325.9,205.3,328.3z"/>
				</g>
				<g>
					<g>
						<path id="cfMEkddB8_1_" class="st1" d="M205.3,328.3c0,2.7,0,6.3,0,10.4v3.9c0.6,1.4,0.6,2,0,2c-3.9,0-20.3,0.5-49.3,1.6
							v-58.4c30.2,0.9,47.2,1.3,51.1,1.3c6.6,0,0.8,12.4,0.8,19C207.8,312.9,205.3,325.9,205.3,328.3z"/>
					</g>
				</g>
			</g>
		</g>
		<g>
			<g>
				<path id="d1nlJUDros" class="st3" d="M219.6,55.5l10.2,1l10,1.4l9.9,1.8l9.8,2.2l9.6,2.6l9.5,3l9.3,3.3l9.1,3.7l8.9,4l8.8,4.3
					l8.5,4.6l8.4,4.9l8.1,5.2l7.9,5.6l7.7,5.9l7.4,6.1l7.2,6.4l7,6.6l6.7,7l6.4,7.2l6.2,7.4l5.9,7.7l5.6,7.9l5.2,8.1l4.9,8.4
					l4.6,8.5l4.3,8.8l4,8.9l3.7,9.1l3.3,9.2l3,9.5l2.6,9.6l2.2,9.8l1.8,9.9l1.4,10l1,10.2l0.6,10.2l0,10.3l-0.2,10.3l-0.6,10.2
					l-1,10.2l-1.4,10l-1.8,9.9l-2.2,9.8l-2.6,9.6l-3,9.5l-3.3,9.3l-3.7,9.1l-4,8.9l-4.3,8.8l-4.6,8.5l-4.9,8.4l-5.2,8.1l-5.6,7.9
					l-5.9,7.7l-6.2,7.4l-6.4,7.2l-6.6,6.8l-7,6.7l-7.2,6.4l-7.4,6.2l-7.7,5.9l-7.9,5.6l-8.1,5.2l-8.4,4.9l-8.5,4.6l-8.8,4.3l-8.9,4
					l-9.1,3.7l-9.3,3.3l-9.5,3l-9.6,2.6l-9.8,2.2l-9.9,1.8l-10,1.4l-10.2,1l-10.2,0.6l-10.2,0.2l-10.3-0.2l-10.2-0.6l-10.2-1
					l-10-1.4l-9.9-1.8l-9.7-2.2l-9.6-2.6l-9.5-3l-9.2-3.3l-9.1-3.7l-8.9-4l-8.8-4.3l-8.5-4.6l-8.4-4.9l-8.1-5.2l-7.9-5.6l-7.7-5.9
					l-7.4-6.2l-7.2-6.4l-7-6.6l-6.6-7L8.4,469l-6.1-7.4l-5.9-7.7l-5.6-7.9l-5.2-8.1l-4.9-8.4l-4.6-8.5l-4.3-8.8l-4-8.9l-3.7-9.1
					l-3.3-9.3l-3-9.5l-2.6-9.6l-2.2-9.8l-1.8-9.9l-1.4-10l-1-10.2l-0.6-10.2l-0.3-10.2l0.2-10.3l0.6-10.2l1-10.2l1.4-10l1.8-9.9
					l2.2-9.8l2.6-9.6l3-9.5l3.3-9.2l3.7-9.1l4-8.9l4.3-8.8l4.6-8.5l4.9-8.4l5.2-8.1l5.6-7.9l5.9-7.7l6.1-7.4l6.4-7.2l6.7-6.9l7-6.6
					l7.2-6.4l7.4-6.1l7.7-5.9l7.9-5.6l8.1-5.2l8.4-4.9l8.5-4.6l8.8-4.3l8.9-4l9.1-3.7l9.2-3.3l9.5-3l9.6-2.6l9.7-2.2l9.9-1.8l10-1.4
					l10.2-1l10.2-0.6l10.3-0.3l10.3,0.2L219.6,55.5z M73.4,470.9l2.7,2l2.7,2l2.7,2l2.8,1.9l2.8,1.9l2.9,1.8l2.9,1.8l2.9,1.7l3,1.6
					l3,1.6l3,1.6l3,1.6l3,1.5l3.1,1.4l3.1,1.4l3.1,1.3l3.2,1.3l3.2,1.3l3.2,1.2l3.3,1.1l3.3,1.1l3.3,1l3.4,0.9l3.4,0.9l3.4,0.9
					l3.4,0.8l3.4,0.8l3.4,0.7l3.4,0.6l3.4,0.5l3.5,0.5l3.5,0.5l3.5,0.4l3.5,0.3l3.5,0.3l3.6,0.2l3.6,0.2l3.6,0.1h3.6l8.5-0.2
					l8.4-0.5l8.4-0.9l8.3-1.2l8.1-1.5l8.1-1.8l7.9-2.1l7.8-2.4l7.7-2.7l7.5-3l7.4-3.3l7.2-3.6l7-3.8l6.9-4.1l6.7-4.4l6.6-4.6
					l6.3-4.8l6.2-5.1l5.9-5.3l5.8-5.6l5.6-5.7l5.3-5.9l5.1-6.2l4.8-6.3l4.6-6.6l4.4-6.7l4.1-6.9l3.8-7l3.6-7.2l3.3-7.4l3-7.5
					l2.7-7.7l2.4-7.8l2.1-7.9l1.8-8.1l1.5-8.1l1.2-8.3l0.9-8.4l0.5-8.4l0.2-8.5v-3.6l-0.1-3.6l-0.2-3.6l-0.2-3.6l-0.3-3.5l-0.3-3.5
					l-0.4-3.5l-0.5-3.5l-0.5-3.5l-0.5-3.4l-0.6-3.4l-0.7-3.4l-0.8-3.4l-0.8-3.4l-0.9-3.4l-0.9-3.4l-0.9-3.3l-1-3.3l-1.1-3.3
					l-1.1-3.3l-1.2-3.2l-1.3-3.2l-1.3-3.2l-1.3-3.1l-1.4-3.1L387,218l-1.5-3l-1.6-3l-1.6-3l-1.6-3l-1.6-3l-1.7-2.9l-1.8-2.9
					l-1.8-2.9l-1.9-2.8l-1.9-2.8l-2-2.7l-2-2.7l-2-2.7l-2-2.7l-291.3,291L73.4,470.9z M182,98.6l-8.4,0.9l-8.3,1.2l-8.1,1.5
					l-8.1,1.8l-7.9,2.1l-7.8,2.4l-7.7,2.7l-7.5,3l-7.4,3.3l-7.3,3.6l-7,3.8l-6.9,4.1l-6.7,4.4l-6.6,4.6l-6.3,4.8l-6.2,5.1l-5.9,5.3
					l-5.7,5.6l-5.6,5.7l-5.3,5.9l-5.1,6.2l-4.8,6.3l-4.6,6.6l-4.4,6.7l-4.1,6.9l-3.8,7l-3.6,7.2l-3.3,7.4l-3,7.5l-2.7,7.7l-2.4,7.8
					l-2.1,7.9l-1.8,8.1l-1.5,8.1l-1.2,8.3l-0.9,8.4l-0.5,8.4l-0.2,8.5v3.8l0.1,3.8l0.2,3.8l0.2,3.8l0.3,3.8l0.4,3.7l0.4,3.7l0.5,3.7
					l0.5,3.6l0.6,3.6l0.7,3.6l0.8,3.6l0.8,3.5l0.9,3.5l0.9,3.5l1,3.5l1,3.4l1.1,3.4l1.2,3.4l1.3,3.4l1.3,3.4l1.3,3.4l1.4,3.3
					l1.4,3.3l1.5,3.2l1.6,3.2l1.6,3.2l1.6,3.1l1.7,3.1l1.8,3l1.8,3l2,3.2l1.9,3l2,3l2,2.9l2,2.9l2.1,2.8l2.2,2.8l2.2,2.7l2.3,2.7
					l292.4-292.4l-2.7-2.3l-2.7-2.2l-2.8-2.2l-2.8-2.1l-2.9-2l-2.9-2l-3-2l-3-1.8l-3-1.9l-3-1.8l-3-1.8l-3.1-1.7l-3.1-1.6l-3.2-1.6
					l-3.2-1.6l-3.2-1.5l-3.3-1.4l-3.3-1.4l-3.4-1.3l-3.4-1.3l-3.4-1.3l-3.4-1.2l-3.4-1.1l-3.4-1l-3.5-1l-3.5-0.9l-3.5-0.9l-3.5-0.8
					l-3.6-0.8l-3.6-0.7l-3.6-0.6l-3.7-0.5l-3.7-0.5l-3.7-0.5l-3.7-0.4l-3.8-0.3l-3.8-0.2l-3.8-0.2l-3.8-0.1l-3.8-0.1l-8.5,0.2
					L182,98.6z"/>
			</g>
			<g>
				<g>
					<path id="d1nlJUDros_1_" class="st1" d="M219.6,55.5l10.2,1l10,1.4l9.9,1.8l9.8,2.2l9.6,2.6l9.5,3l9.3,3.3l9.1,3.7l8.9,4
						l8.8,4.3l8.5,4.6l8.4,4.9l8.1,5.2l7.9,5.6l7.7,5.9l7.4,6.1l7.2,6.4l7,6.6l6.7,7l6.4,7.2l6.2,7.4l5.9,7.7l5.6,7.9l5.2,8.1
						l4.9,8.4l4.6,8.5l4.3,8.8l4,8.9l3.7,9.1l3.3,9.2l3,9.5l2.6,9.6l2.2,9.8l1.8,9.9l1.4,10l1,10.2l0.6,10.2l0,10.3l-0.2,10.3
						l-0.6,10.2l-1,10.2l-1.4,10l-1.8,9.9l-2.2,9.8l-2.6,9.6l-3,9.5l-3.3,9.3l-3.7,9.1l-4,8.9l-4.3,8.8l-4.6,8.5l-4.9,8.4l-5.2,8.1
						l-5.6,7.9l-5.9,7.7l-6.2,7.4l-6.4,7.2l-6.6,6.8l-7,6.7l-7.2,6.4l-7.4,6.2l-7.7,5.9l-7.9,5.6l-8.1,5.2l-8.4,4.9l-8.5,4.6
						l-8.8,4.3l-8.9,4l-9.1,3.7l-9.3,3.3l-9.5,3l-9.6,2.6l-9.8,2.2l-9.9,1.8l-10,1.4l-10.2,1l-10.2,0.6l-10.2,0.2l-10.3-0.2
						l-10.2-0.6l-10.2-1l-10-1.4l-9.9-1.8l-9.7-2.2l-9.6-2.6l-9.5-3l-9.2-3.3l-9.1-3.7l-8.9-4l-8.8-4.3l-8.5-4.6l-8.4-4.9l-8.1-5.2
						l-7.9-5.6l-7.7-5.9l-7.4-6.2l-7.2-6.4l-7-6.6l-6.6-7L8.4,469l-6.1-7.4l-5.9-7.7l-5.6-7.9l-5.2-8.1l-4.9-8.4l-4.6-8.5l-4.3-8.8
						l-4-8.9l-3.7-9.1l-3.3-9.3l-3-9.5l-2.6-9.6l-2.2-9.8l-1.8-9.9l-1.4-10l-1-10.2l-0.6-10.2l-0.3-10.2l0.2-10.3l0.6-10.2l1-10.2
						l1.4-10l1.8-9.9l2.2-9.8l2.6-9.6l3-9.5l3.3-9.2l3.7-9.1l4-8.9l4.3-8.8l4.6-8.5l4.9-8.4l5.2-8.1l5.6-7.9l5.9-7.7l6.1-7.4
						l6.4-7.2l6.7-6.9l7-6.6l7.2-6.4l7.4-6.1l7.7-5.9l7.9-5.6l8.1-5.2l8.4-4.9l8.5-4.6l8.8-4.3l8.9-4l9.1-3.7l9.2-3.3l9.5-3l9.6-2.6
						l9.7-2.2l9.9-1.8l10-1.4l10.2-1l10.2-0.6l10.3-0.3l10.3,0.2L219.6,55.5z M73.4,470.9l2.7,2l2.7,2l2.7,2l2.8,1.9l2.8,1.9
						l2.9,1.8l2.9,1.8l2.9,1.7l3,1.6l3,1.6l3,1.6l3,1.6l3,1.5l3.1,1.4l3.1,1.4l3.1,1.3l3.2,1.3l3.2,1.3l3.2,1.2l3.3,1.1l3.3,1.1
						l3.3,1l3.4,0.9l3.4,0.9l3.4,0.9l3.4,0.8l3.4,0.8l3.4,0.7l3.4,0.6l3.4,0.5l3.5,0.5l3.5,0.5l3.5,0.4l3.5,0.3l3.5,0.3l3.6,0.2
						l3.6,0.2l3.6,0.1h3.6l8.5-0.2l8.4-0.5l8.4-0.9l8.3-1.2l8.1-1.5l8.1-1.8l7.9-2.1l7.8-2.4l7.7-2.7l7.5-3l7.4-3.3l7.2-3.6l7-3.8
						l6.9-4.1l6.7-4.4l6.6-4.6l6.3-4.8l6.2-5.1l5.9-5.3l5.8-5.6l5.6-5.7l5.3-5.9l5.1-6.2l4.8-6.3l4.6-6.6l4.4-6.7l4.1-6.9l3.8-7
						l3.6-7.2l3.3-7.4l3-7.5l2.7-7.7l2.4-7.8l2.1-7.9l1.8-8.1l1.5-8.1l1.2-8.3l0.9-8.4l0.5-8.4l0.2-8.5v-3.6l-0.1-3.6l-0.2-3.6
						l-0.2-3.6l-0.3-3.5l-0.3-3.5l-0.4-3.5l-0.5-3.5l-0.5-3.5l-0.5-3.4l-0.6-3.4l-0.7-3.4l-0.8-3.4l-0.8-3.4l-0.9-3.4l-0.9-3.4
						l-0.9-3.3l-1-3.3l-1.1-3.3l-1.1-3.3l-1.2-3.2l-1.3-3.2l-1.3-3.2l-1.3-3.1l-1.4-3.1L387,218l-1.5-3l-1.6-3l-1.6-3l-1.6-3l-1.6-3
						l-1.7-2.9l-1.8-2.9l-1.8-2.9l-1.9-2.8l-1.9-2.8l-2-2.7l-2-2.7l-2-2.7l-2-2.7l-291.3,291L73.4,470.9z M182,98.6l-8.4,0.9
						l-8.3,1.2l-8.1,1.5l-8.1,1.8l-7.9,2.1l-7.8,2.4l-7.7,2.7l-7.5,3l-7.4,3.3l-7.3,3.6l-7,3.8l-6.9,4.1l-6.7,4.4l-6.6,4.6l-6.3,4.8
						l-6.2,5.1l-5.9,5.3l-5.7,5.6l-5.6,5.7l-5.3,5.9l-5.1,6.2l-4.8,6.3l-4.6,6.6l-4.4,6.7l-4.1,6.9l-3.8,7l-3.6,7.2l-3.3,7.4l-3,7.5
						l-2.7,7.7l-2.4,7.8l-2.1,7.9l-1.8,8.1l-1.5,8.1l-1.2,8.3l-0.9,8.4l-0.5,8.4l-0.2,8.5v3.8l0.1,3.8l0.2,3.8l0.2,3.8l0.3,3.8
						l0.4,3.7l0.4,3.7l0.5,3.7l0.5,3.6l0.6,3.6l0.7,3.6l0.8,3.6l0.8,3.5l0.9,3.5l0.9,3.5l1,3.5l1,3.4l1.1,3.4l1.2,3.4l1.3,3.4
						l1.3,3.4l1.3,3.4l1.4,3.3l1.4,3.3l1.5,3.2l1.6,3.2l1.6,3.2l1.6,3.1l1.7,3.1l1.8,3l1.8,3l2,3.2l1.9,3l2,3l2,2.9l2,2.9l2.1,2.8
						l2.2,2.8l2.2,2.7l2.3,2.7l292.4-292.4l-2.7-2.3l-2.7-2.2l-2.8-2.2l-2.8-2.1l-2.9-2l-2.9-2l-3-2l-3-1.8l-3-1.9l-3-1.8l-3-1.8
						l-3.1-1.7l-3.1-1.6l-3.2-1.6l-3.2-1.6l-3.2-1.5l-3.3-1.4l-3.3-1.4l-3.4-1.3l-3.4-1.3l-3.4-1.3l-3.4-1.2l-3.4-1.1l-3.4-1l-3.5-1
						l-3.5-0.9l-3.5-0.9l-3.5-0.8l-3.6-0.8l-3.6-0.7l-3.6-0.6l-3.7-0.5l-3.7-0.5l-3.7-0.5l-3.7-0.4l-3.8-0.3l-3.8-0.2l-3.8-0.2
						l-3.8-0.1l-3.8-0.1l-8.5,0.2L182,98.6z"/>
				</g>
			</g>
		</g>
	</g>
</g>
<g id="XMLID_23_">
	<path id="XMLID_21_" class="st4" d="M273.5,506.7c0,0,78.1-18.4,150.8,0c0,0-16.4-44.7-13.1-46.3c3.3-1.7,24.8-49.8,23.4-50.6
		c-1.4-0.8-20.4-41.2-22.1-42.2c-1.7-1-81.5,25.3-83,25.3c-1.6,0-34.5-25.3-39.7-25.3c-18.2-0.1-59.5,47.5-23.2,66.7l14.8,31
		L273.5,506.7z"/>
	<path id="XMLID_20_" class="st5" d="M411.2,460.4c0,0-36.1-3.3-46.3,34.9c0,0-52.9-5.5-88.8,10.8l-19-36c0,0-5.8-47-4.9-49.3
		c0.8-2.2,1.9-30.4,7.9-34.6c6-4.1,39.6-17.1,52.7-20.3c13.1-3.3,72.9,0.2,83.3,1.6c10.4,1.4,30.7,10.6,29.5,13.7
		c-1.3,3.1,14.8,28.5,14.8,28.5L411.2,460.4z"/>
	<path id="XMLID_19_" class="st6" d="M344.2,293.3L344.2,293.3c0,0-93-1-100,101c0,0,38.6-19.1,41-20.6c2.4-1.5,36.5-10,36.5-10
		l22.5,16.3l0,0l22.5-16.3c0,0,34.2,8.6,36.5,10c2.4,1.5,41,20.6,41,20.6C437.3,292.3,344.3,293.3,344.2,293.3z"/>
	<path id="XMLID_18_" class="st6" d="M344.2,333.2v108.6l-10.8-9.4c0,0,11.2-27.8-13.5-40.5s-51.3,6.2-53.1,10.3
		c0,0,0.9,20.7,27.9,27.1V557c0,0-36-23-54.4-56.9V391.9C240.3,391.9,278.1,348.7,344.2,333.2z"/>
	<path id="XMLID_17_" class="st6" d="M344.2,333.2v108.6l10.8-9.4c0,0-11.2-27.8,13.5-40.5s51.3,6.2,53.1,10.3
		c0,0-0.9,20.7-27.9,27.1V557c0,0,36-23,54.4-56.9V391.9C448,391.9,410.3,348.7,344.2,333.2z"/>
	<g id="XMLID_38_">
		<rect id="XMLID_16_" x="333.2" y="287.6" class="st6" width="22.7" height="19"/>
		<path id="XMLID_15_" class="st7" d="M328.4,195.9c3,14,4.8,34.6,4.8,34.6c-1.8-11.7-6.8-25.9-9.8-34c-10.5,1.6-16.3,4.1-16.3,4.1
			c23.4,38.8,26.1,87.1,26.1,87.1h22.7c2-31.7,25.4-87.1,25.4-87.1C359.1,194.8,341.1,194.6,328.4,195.9z"/>
	</g>
	<path id="XMLID_14_" class="st8" d="M346,437V335.5c0,0,21.8,5.3,45.8,17.3c0,0-33.4,6.2-40.2,48.2c-3.9,24.1,1.5,30.7,1.5,30.7
		L346,437z"/>
	<path id="XMLID_13_" class="st9" d="M342.9,437V335.5c0,0-11.9,3-20.9,6.4c0,0,10.5-1.5,13.1,3.8c5.9,12.3,7.9,92.2,7.9,92.2"/>
	<path id="XMLID_12_" class="st5" d="M415.4,420.9c0,0-6.8,7.7-19.3,9.8v121c0,0,10.4-5.7,19.3-14.3c0,0-11.3,3.5-11-51.1
		C404.7,460.4,407.4,430.1,415.4,420.9z"/>
	<path id="XMLID_11_" class="st9" d="M434.1,381.2c0,0,9.4,8.3,11.7,11v107c0,0-5.7,11.3-14.4,20.3c0,0,6.6-12.1,7.2-29.6s0-93,0-93
		S437.4,386.5,434.1,381.2z"/>
	<path id="XMLID_10_" class="st5" d="M364.9,337.3c0,0,32.3-3.8,27-28.9c0,0,40.9,20.1,48.6,72.9
		C440.4,381.2,414.6,353.1,364.9,337.3z"/>
	<path id="XMLID_9_" class="st5" d="M371.9,337.4c0,0,28.7-4.3,22.6-25.6c0,0,13.2,8.4,18,15c0,0-7.6-4.4-10.8-4.9
		C401.8,321.8,398.7,336.5,371.9,337.4z"/>
	<path id="XMLID_8_" class="st10" d="M297.4,327.8c-6.2,4.2-13.8,4.9-16.9,1.5c-3.2-3.3-0.7-9.4,5.4-13.6s13.8-4.9,16.9-1.5
		C306,317.6,303.6,323.7,297.4,327.8z"/>
	<path id="XMLID_7_" class="st5" d="M285.6,354.9c0,0-17.6-1.9-24.5-13.2c0,0-9.2,14.9-13.2,40.9
		C247.8,382.6,264.7,363.8,285.6,354.9z"/>
	<path id="XMLID_6_" class="st5" d="M261.3,344.9c0,0,4.4,7.1,18.8,10.5c0,0-8.4,3.4-12,6.7c0,0,0.9-3,0.9-5.5
		c0.1-5.4-8.1-7.6-11-4.7C257.9,352,260.1,346.1,261.3,344.9z"/>
	<path id="XMLID_5_" class="st5" d="M357.4,399.1c0,0,8.7-15.2,37.2-12.4c0,0,18.9,3,28,14.7c0,0-0.3,5.4-1.8,8.4
		c0,0,4.5-3.9,4.8-10.8c0,0-9-12.8-32-14.2C370.5,383.4,360.5,393.2,357.4,399.1z"/>
	<path id="XMLID_4_" class="st5" d="M330.2,399.1c0,0-8.7-15.2-37.2-12.4c0,0-18.9,3-28,14.7c0,0,0.3,5.4,1.8,8.4
		c0,0-4.5-3.9-4.8-10.8c0,0,9-12.8,32-14.2C317.2,383.4,327,393.2,330.2,399.1z"/>
	<path id="XMLID_3_" class="st9" d="M257.9,378.4c0,0-7.6,7.3-13.7,13.4v106.4c0,0,14.6,24.9,27.7,35.4c0,0-11.2-29-13.9-53.1
		c-2.7-24.1,0-83.4,0-83.4s1.5-15.2,8.7-25C266.6,372.2,260.7,375.8,257.9,378.4z"/>
	<polygon id="XMLID_2_" class="st5" points="342.9,305.6 347.7,288.1 355,288.1 355,305.6 	"/>
	<path id="XMLID_1_" class="st5" d="M335,285.8h18.2c0,0,7.7-52.2,24.6-83.1c0,0-11.5-4.1-21.9-3.9c0,0-7.9,38.4-9.2,56l-2.2-45.7
		l-4.6,57.3c0,0-6.8-31-18.8-65.9l-8.3,2.3C312.9,202.8,333.8,241.8,335,285.8z"/>
</g>
</svg>
