<?xml version="1.0" encoding="utf-8"?>
<!-- Generator: Adobe Illustrator 23.1.0, SVG Export Plug-In . SVG Version: 6.00 Build 0)  -->
<svg version="1.1" id="Layer_1" xmlns="http://www.w3.org/2000/svg" xmlns:xlink="http://www.w3.org/1999/xlink" x="0px" y="0px"
	 viewBox="0 0 383 508.7" style="enable-background:new 0 0 383 508.7;" xml:space="preserve">
<style type="text/css">
	.st0{fill:#DCDBDD;}
	.st1{fill:#F0BCA6;}
	.st2{fill:#E2A58A;}
	.st3{fill:#6BBBCE;}
	.st4{clip-path:url(#SVGID_2_);fill:#378D9B;}
	.st5{fill:#F8A814;}
	.st6{fill:#F8B53C;}
	.st7{fill:#F9CD45;}
	.st8{fill:#1D4E96;}
	.st9{fill:#EFEFEF;}
	.st10{fill:#E6B09A;}
	.st11{fill:#ECEDEF;}
	.st12{fill:#868686;}
	.st13{fill:#4C350C;}
	.st14{fill:#BABABA;}
	.st15{fill:#825308;}
</style>
<g>
	<path class="st0" d="M313.2,48.3C282,23.1,240.6,9.2,196.7,9.2S111.5,23.1,80.1,48.4C48.9,73.6,31.7,107,31.7,142.4v190.4
		c0,3.4,3.4,6,7.4,6H354c4.2,0,7.4-2.7,7.4-6V142.4C361.5,106.9,344.4,73.6,313.2,48.3z"/>
	<path class="st1" d="M84.8,172.4L84.8,172.4c-22.4,0.1-40.5,22.8-40.5,50.5c0,13.5,4.3,26.1,11.9,35.6c7.7,9.5,17.8,14.6,28.6,14.6
		h0.1c22.3-0.1,40.4-22.8,40.4-50.5C125.2,195,107.1,172.4,84.8,172.4z"/>
	<path class="st1" d="M379.3,479.9c-0.1-42.4-16.9-82.3-47.1-112.3c-30.1-29.9-70-46.4-112.1-46.4c-0.2,0-0.3,0-0.5,0l-52.1,0.2
		c-42.4,0.1-82.3,16.9-112.3,47.1C25.2,398.6,8.7,438.6,8.8,481l0.1,19.9c0,4,3.3,7.3,7.3,7.3h356c1.9,0,3.8-0.8,5.1-2.1
		c1.4-1.4,2.1-3.2,2.1-5.1L379.3,479.9z"/>
	<path class="st2" d="M379.3,479.9c-0.1-42.4-16.9-82.3-47.1-112.3c-30.1-29.9-70-46.4-112.1-46.4c-0.2,0-0.3,0-0.5,0l-17.8,0.1
		c40.6,1.1,78.9,17.3,108,46.3c30.2,30,47,70,47.1,112.3l0.1,20.9c0,1.9-0.8,3.8-2.1,5.1c-1.4,1.4-3.2,2.1-5.1,2.1h22.4
		c1.9,0,3.8-0.8,5.1-2.1c1.4-1.4,2.1-3.2,2.1-5.1L379.3,479.9z"/>
	<g>
		<g>
			<path id="XMLID_43_" class="st3" d="M379.3,478.8c-0.1-42.1-16.9-81.7-47.1-111.6c-9-8.9-18.9-16.6-29.5-23.1
				c-7.5,29.3-39.1,52.7-80.2,60.3c-9.2,1.7-18.8,2.6-28.8,2.6c-9.9,0-19.4-0.9-28.6-2.5c-41-7.5-72.7-30.8-80.3-59.8
				c-10.7,6.5-20.4,14.3-29.6,23.4c-30,30-46.5,69.8-46.4,111.8L9,502.6c0.1,2.6,1.5,4.9,3.5,6.3h361.1c1.4-0.3,2.6-1.1,3.7-2
				c1.5-1.5,2.2-3.4,2.2-5.4L379.3,478.8z"/>
		</g>
		<g>
			<g>
				<g>
					<g>
						<g>
							<g>
								<defs>
									<path id="SVGID_1_" d="M379.3,478.8c-0.1-42.1-16.9-81.7-47.1-111.6c-9-8.9-18.9-16.6-29.5-23.1
										c-7.5,29.3-39.1,52.7-80.2,60.3c-9.2,1.7-18.8,2.6-28.8,2.6c-9.9,0-19.4-0.9-28.6-2.5c-41-7.5-72.7-30.8-80.3-59.8
										c-10.7,6.5-20.4,14.3-29.6,23.4c-30,30-46.5,69.8-46.4,111.8L9,502.6c0.1,2.6,1.5,4.9,3.5,6.3h361.1c1.4-0.3,2.6-1.1,3.7-2
										c1.5-1.5,2.2-3.4,2.2-5.4L379.3,478.8z"/>
								</defs>
								<clipPath id="SVGID_2_">
									<use xlink:href="#SVGID_1_"  style="overflow:visible;"/>
								</clipPath>
								<path class="st4" d="M380.3,479.4c-0.1-42.1-16.9-81.7-47.1-111.6c-30.1-29.8-70-46.1-112.1-46.1c-0.2,0-0.3,0-0.5,0
									l-18.8,0.1c40.6,1.1,78.8,17.3,108,46c30.2,29.9,46.9,69.5,47.1,111.6l0.1,22.8c0,2-0.8,4-2.2,5.4c-1,1-2.2,1.7-3.7,2h23.6
									c1.4-0.3,2.6-1.1,3.7-2c1.5-1.5,2.2-3.4,2.2-5.4L380.3,479.4z"/>
							</g>
						</g>
					</g>
				</g>
			</g>
		</g>
	</g>
	<g>
		<path class="st5" d="M164.9,495.3c-0.1-0.3-0.1-0.5-0.1-0.8c0.1-1.1,1.2-1.8,2.2-1.7c10.8,0.6,21.9-0.8,33-3.9
			c9-2.5,18-6.1,26.8-10.9c15-8,24.4-16.4,24.5-16.5c0.9-0.8,2.1-0.8,2.9-0.1c0.8,0.7,0.7,1.9-0.1,2.6c-0.4,0.4-9.9,8.8-25.4,17.1
			c-9.1,4.8-18.5,8.6-27.7,11.2c-11.6,3.2-23.3,4.6-34.4,4C165.9,496.4,165.3,495.9,164.9,495.3z"/>
		<path class="st6" d="M256.5,482c0.9-0.4,1.3-1.3,1.2-2.1c-0.1-0.3-1.6-7-7-9.2c-2.6-1.1-5-1.3-7.1-0.8s-3.7,1.8-4.7,3.7
			c-0.9,1.6-1,3.3-0.5,4.8c0.1,0.2,0.2,0.4,0.3,0.7c0.9,1.7,2.6,3.2,5.2,4.2C249.4,485.5,256.3,482.3,256.5,482z"/>
		<path class="st7" d="M244.2,472c1.6-1.5,2.4-3.6,2.8-6.3c0.7-5.6-4.7-10.2-4.8-10.4c-0.7-0.6-1.6-0.6-2.5-0.1
			c-0.3,0.2-6.7,4.3-7.4,9.8c-0.2,1.9-0.1,3.5,0.4,4.9c0.2,0.6,0.5,1.1,0.8,1.6c1.2,1.6,2.9,2.5,5,2.6
			C240.7,474.3,242.6,473.5,244.2,472z"/>
		<path class="st7" d="M240.3,491.4c0.9-0.4,1.3-1.3,1.2-2.1c-0.1-0.3-1.6-7-7-9.2c-2.6-1.1-5-1.3-7.1-0.8s-3.7,1.8-4.7,3.7
			c-0.9,1.6-1,3.3-0.5,4.8c0.1,0.2,0.2,0.4,0.3,0.7c0.9,1.7,2.6,3.2,5.2,4.2C233.1,494.9,239.9,491.5,240.3,491.4z"/>
		<path class="st6" d="M227.9,481.4c1.6-1.5,2.4-3.6,2.8-6.3c0.7-5.6-4.7-10.2-4.8-10.4c-0.7-0.6-1.6-0.6-2.5-0.1
			c-0.3,0.2-6.7,4.3-7.4,9.8c-0.2,1.9-0.1,3.5,0.4,4.9c0.2,0.6,0.5,1.1,0.8,1.6c1.2,1.6,2.9,2.5,5,2.6S226.3,482.9,227.9,481.4z"/>
		<path class="st6" d="M220.9,498.6c0-0.3-0.2-7.3-5-10.3c-2.3-1.5-4.7-2.1-6.8-1.9s-4,1.3-5.2,2.9c-1.3,1.6-1.7,3.6-1.2,5.4
			c0,0.2,0.1,0.3,0.1,0.5c0.6,1.7,2,3.3,4.2,4.7c4.8,3.1,12.1,0.9,12.5,0.8C220.4,500.3,220.9,499.4,220.9,498.6z"/>
		<g>
			<path class="st7" d="M209.4,488.4c1.7-1.3,3.1-3.2,4-5.8c1.7-5.5-2.5-10.9-2.7-11.1c-0.6-0.7-1.6-0.9-2.4-0.5
				c-0.3,0.1-7.3,3.1-9,8.6c-0.8,2.4-0.9,4.6-0.2,6.2c0.1,0.1,0.1,0.3,0.2,0.4c0.8,1.7,2.3,2.9,4.5,3.4
				C205.4,490.1,207.6,489.8,209.4,488.4z"/>
			<path class="st7" d="M198.3,506.4c0.1-0.3,1.3-7.3-2.9-11c-1.9-1.8-4.1-2.9-6.2-3c-2-0.2-4.1,0.6-5.7,2c-1.6,1.5-2.4,3.3-2.2,5.2
				c0,0.6,0.2,1.2,0.4,1.7c0.5,1.4,1.5,2.7,2.8,4c4.2,3.9,11.6,2.8,11.9,2.8C197.4,508,198.2,507.4,198.3,506.4z"/>
			<path class="st7" d="M188.9,494.4c1.9-1,3.6-2.6,4.9-5.1c2.8-5.1-0.4-11.2-0.5-11.5c-0.4-0.8-1.4-1.2-2.2-0.9
				c-0.3,0.1-7.7,1.8-10.5,7.1c-1.4,2.5-1.7,4.7-1.4,6.6c0.1,0.2,0.1,0.5,0.2,0.7c0.6,1.6,1.7,2.7,3.5,3.4
				C184.9,495.4,187.1,495.4,188.9,494.4z"/>
			<path class="st7" d="M264,462.3c4.5-4.1,3.8-11,3.8-11.2c-0.1-0.9-0.8-1.5-1.7-1.6c-0.3,0-7.8-0.6-12.2,3.5
				c-2.1,1.9-3.4,4-3.7,5.9c-0.2,1-0.1,1.9,0.3,2.8c0.3,0.9,0.9,1.6,1.6,2.3c1.5,1.4,3.5,1.9,5.5,1.6
				C259.8,465.4,261.8,464.3,264,462.3z"/>
		</g>
	</g>
	<path class="st8" d="M148.2,326.9c1.5,1.9,1.9,4.6,1.4,6.8c-3.3,12.9-4.9,26.2-4.8,39.4c0.1,26.1,13,55.6,35.3,81.2
		c22.3,25.5,50.6,43.3,77.8,48.9c3.7,0.8,6.2,4.2,6.2,7.8h23.4c0-3.5-2.2-6.6-5.4-7.6c-0.2-0.1-0.5-0.1-0.7-0.2
		c-27.1-5.7-55.5-23.4-77.8-48.9s-35.2-55.2-35.3-81.2c0-13.4,1.6-26.6,4.8-39.4c0.6-2.4,0.1-4.9-1.4-6.8s-3.7-3.1-6-3.1H162
		c-3.9,0-7.7,0.2-11.4,0.5c-0.2,0-0.3,0-0.5,0c-0.5,0-1.1,0.1-1.6,0.1c-1,0.1-1.8,0.2-2.8,0.3C146.7,325.3,147.6,326,148.2,326.9z"
		/>
	<path class="st9" d="M257.7,501.6c-27.1-5.7-55.5-23.4-77.8-48.9s-35.2-55.2-35.3-81.2c-0.1-13.3,1.6-26.5,4.8-39.4
		c0.6-2.3,0.1-4.9-1.4-6.8c-0.7-0.9-1.6-1.6-2.5-2.1c1-0.1,1.8-0.2,2.8-0.3c-37.2,3.4-71.8,20.1-98.7,47.9
		c-29.7,31.2-46.2,72.2-46,116l0.1,22.8h260.2C264,505.8,261.3,502.4,257.7,501.6z"/>
	<path class="st1" d="M305.6,171.6L305.6,171.6c-23.2,0.1-41.8,22.8-41.7,50.5c0,13.5,4.5,26.1,12.3,35.6c8,9.5,18.3,14.6,29.5,14.6
		h0.1c23.1-0.1,41.7-22.8,41.6-50.5C347.4,194.1,328.6,171.6,305.6,171.6z"/>
	<path class="st1" d="M310.2,153.3c-0.1-24.5-18.2-44.5-40.3-44.5H122.1c-10.8,0-20.9,4.7-28.6,13.2s-11.7,19.7-11.7,31.6l0.2,86.8
		c0.2,69.6,51.4,126.1,114.3,126.1h0.4c63-0.2,114.1-57,113.9-126.7L310.2,153.3z"/>
	<path class="st10" d="M310.2,153.3c-0.1-24.5-17-44.5-37.8-44.5H254c20.8,0,37.8,20,37.8,44.5l0.2,86.3
		c0.2,66.1-43.1,120.7-97.8,126.4c3.1,0.3,6.1,0.5,9.2,0.5h0.3c59.1-0.2,106.9-57,106.8-126.7L310.2,153.3z"/>
	<path class="st2" d="M195.9,315.2c-9.7,0-19-3.6-26.1-10.2c-3.1-2.8-3.3-7.6-0.5-10.5c2.8-3.1,7.6-3.3,10.5-0.5
		c4.4,4.1,10.1,6.2,16,6.2h0.1c6,0,11.6-2.2,16.1-6.3c3.1-2.8,7.8-2.6,10.5,0.4c2.8,3.1,2.6,7.8-0.4,10.5
		C215,311.4,205.7,315.1,195.9,315.2C196,315.2,195.9,315.2,195.9,315.2z"/>
	<path class="st11" d="M151.5,193.9c9.7,0,19,1.7,26.1,5c3.1,1.4,3.3,3.8,0.5,5.2s-7.6,1.6-10.5,0.2c-4.4-1.9-10.1-3.2-16-3.2h-0.1
		c-6,0-11.6,1.1-16.1,3.2c-3.1,1.4-7.8,1.3-10.5-0.2c-2.8-1.5-2.6-3.9,0.4-5.2C132.4,195.6,141.7,193.8,151.5,193.9L151.5,193.9z"/>
	<path class="st11" d="M244.2,193.9c9.7,0,19,1.7,26.1,5c3.1,1.4,3.3,3.8,0.5,5.2c-2.8,1.5-7.6,1.6-10.5,0.2
		c-4.4-1.9-10.1-3.2-16-3.2h-0.1c-6,0-11.6,1.1-16.1,3.2c-3.1,1.4-7.8,1.3-10.5-0.2c-2.8-1.5-2.6-3.9,0.4-5.2
		C225.1,195.6,234.4,193.8,244.2,193.9C244.1,193.9,244.2,193.9,244.2,193.9z"/>
	<path class="st12" d="M164.9,232.6c0-6.9-5.6-12.4-12.5-12.4s-12.4,5.6-12.4,12.5s5.6,12.4,12.5,12.4S165,239.6,164.9,232.6z"/>
	<path class="st12" d="M253.4,232.4c0-6.9-5.6-12.5-12.5-12.4c-6.9,0-12.5,5.6-12.4,12.5c0,6.9,5.6,12.5,12.5,12.4
		C247.9,244.9,253.4,239.4,253.4,232.4z"/>
	<g>
		<path class="st5" d="M261.2,450.1c-0.2-0.1-0.4-0.3-0.6-0.6c-0.6-0.9-0.3-2.1,0.6-2.8c8.4-6.6,16-14.9,22.4-24.5
			c5.1-7.8,9.6-16.4,13.2-25.8c6.1-15.9,7.7-28.4,7.7-28.5c0.1-1.1,1.1-1.9,2.1-1.9c1.1,0,1.7,1,1.6,2.1c-0.1,0.5-1.6,13.1-7.9,29.6
			c-3.7,9.7-8.3,18.6-13.6,26.7c-6.7,10.1-14.5,18.7-23.4,25.6C262.5,450.4,261.8,450.5,261.2,450.1z"/>
		<path class="st6" d="M321.7,380.3c0.4-0.9,0.1-1.8-0.6-2.3c-0.2-0.2-5.8-4.3-11.3-2.3c-2.6,0.9-4.7,2.3-5.8,4.1
			c-1.2,1.7-1.6,3.8-1.2,5.8c0.4,1.7,1.5,3.2,2.8,4c0.2,0.1,0.4,0.2,0.7,0.3c1.8,0.8,4.1,0.7,6.8-0.3
			C318.5,387.5,321.5,380.5,321.7,380.3z"/>
		<path class="st7" d="M305.7,380.8c0.2-2.1-0.5-4.4-2-6.6c-3.2-4.7-10.2-4.7-10.5-4.7c-0.9,0-1.6,0.7-1.9,1.6
			c-0.1,0.3-2.2,7.6,0.9,12.2c1.1,1.6,2.2,2.7,3.5,3.4c0.6,0.3,1.1,0.5,1.6,0.7c1.8,0.5,3.9,0,5.5-1.4
			C304.5,384.8,305.5,382.9,305.7,380.8z"/>
		<path class="st7" d="M315.5,397.9c0.4-0.9,0.1-1.8-0.6-2.3c-0.2-0.2-5.8-4.3-11.3-2.3c-2.6,0.9-4.7,2.3-5.8,4.1
			c-1.2,1.7-1.6,3.8-1.2,5.8c0.4,1.7,1.5,3.2,2.8,4c0.2,0.1,0.4,0.2,0.7,0.3c1.8,0.8,4.1,0.7,6.8-0.3
			C312.3,405.3,315.3,398.3,315.5,397.9z"/>
		<path class="st6" d="M299.5,398.5c0.2-2.1-0.5-4.4-2-6.6c-3.2-4.7-10.2-4.7-10.5-4.7c-0.9,0-1.6,0.7-1.9,1.6
			c-0.1,0.3-2.2,7.6,0.9,12.2c1.1,1.6,2.2,2.7,3.5,3.4c0.6,0.3,1.1,0.5,1.6,0.7c1.8,0.5,3.9,0,5.5-1.4
			C298.3,402.4,299.3,400.5,299.5,398.5z"/>
		<path class="st6" d="M305.5,415.9c-0.2-0.2-4.8-5.3-10.6-4.5c-2.7,0.4-4.8,1.5-6.4,3c-1.5,1.6-2.2,3.5-2.1,5.6
			c0.1,2.1,1.1,3.9,2.6,4.9c0.1,0.1,0.3,0.2,0.4,0.2c1.6,0.9,3.7,1.2,6.2,0.8c5.7-0.9,9.7-7.4,9.9-7.6
			C306.3,417.6,306.2,416.6,305.5,415.9z"/>
		<g>
			<path class="st7" d="M290.2,415.9c0.5-2.1,0.3-4.5-0.9-7c-2.2-5.3-9.1-6.6-9.4-6.6c-0.9-0.2-1.7,0.3-2.1,1.2
				c-0.1,0.3-3.5,7.2-1.2,12.4c1,2.3,2.3,4,3.9,4.8c0.1,0.1,0.3,0.1,0.4,0.2c1.7,0.8,3.7,0.7,5.5-0.3
				C288.5,419.8,289.7,418,290.2,415.9z"/>
			<path class="st7" d="M293.7,436.9c-0.2-0.3-3.8-6.3-9.5-6.5c-2.7-0.1-4.9,0.5-6.7,1.7c-1.6,1.3-2.7,3.1-3,5.2s0.4,4.1,1.7,5.4
				c0.4,0.4,0.9,0.8,1.5,1.1c1.3,0.7,2.8,1.1,4.7,1.2c5.6,0.2,10.7-5.5,10.9-5.7C294,438.5,294.2,437.5,293.7,436.9z"/>
			<path class="st7" d="M278.8,433.9c0.9-1.9,1-4.4,0.4-7.2c-1.3-5.7-7.7-8.2-7.9-8.3c-0.8-0.3-1.7,0-2.2,0.8
				c-0.2,0.3-4.6,6.5-3.3,12.2c0.6,2.7,1.7,4.7,3.3,5.9c0.2,0.1,0.4,0.3,0.6,0.4c1.5,0.8,3.1,0.9,4.8,0.3
				C276.5,437.3,278,435.9,278.8,433.9z"/>
			<path class="st7" d="M314.3,360.3c0.7-6-4.4-10.8-4.6-11c-0.6-0.6-1.6-0.6-2.3-0.1c-0.3,0.2-6.3,4.7-6.9,10.7
				c-0.3,2.9,0.1,5.2,1.2,6.9c0.5,0.9,1.3,1.5,2,1.9c0.8,0.5,1.7,0.7,2.7,0.7c2,0.1,3.9-0.8,5.2-2.3
				C313.2,365.4,314,363.1,314.3,360.3z"/>
		</g>
	</g>
	<circle class="st13" cx="259.5" cy="448.6" r="16.8"/>
	<ellipse transform="matrix(0.5 -0.866 0.866 0.5 -123.872 152.3275)" class="st14" cx="70" cy="183.4" rx="23.6" ry="26"/>
	<ellipse transform="matrix(0.5 -0.866 0.866 0.5 -121.615 147.1806)" class="st0" cx="66.7" cy="178.9" rx="23.6" ry="26"/>
	<circle class="st15" cx="259.3" cy="448.4" r="10.3"/>
	<ellipse transform="matrix(0.5 -0.866 0.866 0.5 -77.1544 144.6227)" class="st14" cx="86.7" cy="139.1" rx="36.2" ry="40.1"/>
	<ellipse transform="matrix(0.5 -0.866 0.866 0.5 -73.882 136.946)" class="st0" cx="81.7" cy="132.5" rx="36.2" ry="40.1"/>
	<ellipse transform="matrix(0.866 -0.5 0.5 0.866 -50.7628 182.3621)" class="st14" cx="314.9" cy="185.9" rx="27.7" ry="25"/>
	<ellipse transform="matrix(0.866 -0.5 0.5 0.866 -47.9072 183.3997)" class="st0" cx="318.3" cy="181.1" rx="27.7" ry="25"/>
	<ellipse transform="matrix(0.866 -0.5 0.5 0.866 -30.1367 170.1644)" class="st14" cx="302.5" cy="141.3" rx="40.1" ry="36.2"/>
	<ellipse transform="matrix(0.866 -0.5 0.5 0.866 -25.7025 168.5403)" class="st0" cx="301.6" cy="132.2" rx="40.1" ry="36.2"/>
	<ellipse class="st14" cx="288.4" cy="90.6" rx="59" ry="53.3"/>
	<ellipse class="st0" cx="284.9" cy="81.7" rx="59" ry="53.3"/>
	<ellipse class="st14" cx="97.5" cy="91.1" rx="53.2" ry="48.1"/>
	<ellipse class="st0" cx="94.2" cy="86.6" rx="53.2" ry="48.1"/>
	<ellipse class="st14" cx="190.7" cy="76.6" rx="96.5" ry="72"/>
	<ellipse class="st0" cx="194.1" cy="68.1" rx="96.5" ry="68.1"/>
</g>
</svg>
