<?xml version="1.0" encoding="utf-8"?>
<!-- Generator: Adobe Illustrator 19.0.0, SVG Export Plug-In . SVG Version: 6.00 Build 0)  -->
<svg version="1.1" id="Layer_1" xmlns="http://www.w3.org/2000/svg" xmlns:xlink="http://www.w3.org/1999/xlink" x="0px" y="0px"
	 viewBox="-114 142.3 383 508.7" style="enable-background:new -114 142.3 383 508.7;" xml:space="preserve">
<style type="text/css">
	.st0{fill:#DCDBDD;}
	.st1{fill:#BC8E79;}
	.st2{fill:#A06E5A;}
	.st3{fill:#6BBBCE;}
	.st4{clip-path:url(#SVGID_2_);fill:#378D9B;}
	.st5{fill:#F8A814;}
	.st6{fill:#F8B53C;}
	.st7{fill:#F9CD45;}
	.st8{fill:#1D4E96;}
	.st9{fill:#EFEFEF;}
	.st10{fill:#A8765D;}
	.st11{fill:#897F79;}
	.st12{fill:#ECEDEF;}
	.st13{fill:#868686;}
	.st14{fill:#4C350C;}
	.st15{fill:#BABABA;}
	.st16{fill:#825308;}
</style>
<g>
	<path class="st0" d="M199.2,190.6c-31.2-25.2-72.6-39.1-116.5-39.1s-85.2,13.9-116.6,39.2c-31.2,25.2-48.4,58.6-48.4,94v190.4
		c0,3.4,3.4,6,7.4,6H240c4.2,0,7.4-2.7,7.4-6V284.7C247.5,249.2,230.4,215.9,199.2,190.6z"/>
	<path class="st1" d="M-29.2,314.7L-29.2,314.7c-22.4,0.1-40.5,22.8-40.5,50.5c0,13.5,4.3,26.1,11.9,35.6
		c7.7,9.5,17.8,14.6,28.6,14.6h0.1c22.3-0.1,40.4-22.8,40.4-50.5C11.2,337.3-6.9,314.7-29.2,314.7z"/>
	<path class="st1" d="M265.3,622.2c-0.1-42.4-16.9-82.3-47.1-112.3c-30.1-29.9-70-46.4-112.1-46.4c-0.2,0-0.3,0-0.5,0l-52.1,0.2
		c-42.4,0.1-82.3,16.9-112.3,47.1c-30,30.1-46.5,70.1-46.4,112.5l0.1,19.9c0,4,3.3,7.3,7.3,7.3h356c1.9,0,3.8-0.8,5.1-2.1
		c1.4-1.4,2.1-3.2,2.1-5.1L265.3,622.2z"/>
	<path class="st2" d="M265.3,622.2c-0.1-42.4-16.9-82.3-47.1-112.3c-30.1-29.9-70-46.4-112.1-46.4c-0.2,0-0.3,0-0.5,0l-17.8,0.1
		c40.6,1.1,78.9,17.3,108,46.3c30.2,30,47,70,47.1,112.3l0.1,20.9c0,1.9-0.8,3.8-2.1,5.1c-1.4,1.4-3.2,2.1-5.1,2.1h22.4
		c1.9,0,3.8-0.8,5.1-2.1c1.4-1.4,2.1-3.2,2.1-5.1L265.3,622.2z"/>
	<g>
		<g>
			<path id="XMLID_43_" class="st3" d="M265.3,621.1c-0.1-42.1-16.9-81.7-47.1-111.6c-9-8.9-18.9-16.6-29.5-23.1
				c-7.5,29.3-39.1,52.7-80.2,60.3c-9.2,1.7-18.8,2.6-28.8,2.6c-9.9,0-19.4-0.9-28.6-2.5c-41-7.5-72.7-30.8-80.3-59.8
				c-10.7,6.5-20.4,14.3-29.6,23.4c-30,30-46.5,69.8-46.4,111.8l0.2,22.7c0.1,2.6,1.5,4.9,3.5,6.3h361.1c1.4-0.3,2.6-1.1,3.7-2
				c1.5-1.5,2.2-3.4,2.2-5.4L265.3,621.1z"/>
		</g>
		<g>
			<g>
				<g>
					<g>
						<g>
							<g>
								<g>
									<defs>
										<path id="SVGID_1_" d="M265.3,621.1c-0.1-42.1-16.9-81.7-47.1-111.6c-9-8.9-18.9-16.6-29.5-23.1
											c-7.5,29.3-39.1,52.7-80.2,60.3c-9.2,1.7-18.8,2.6-28.8,2.6c-9.9,0-19.4-0.9-28.6-2.5c-41-7.5-72.7-30.8-80.3-59.8
											c-10.7,6.5-20.4,14.3-29.6,23.4c-30,30-46.5,69.8-46.4,111.8l0.2,22.7c0.1,2.6,1.5,4.9,3.5,6.3h361.1
											c1.4-0.3,2.6-1.1,3.7-2c1.5-1.5,2.2-3.4,2.2-5.4L265.3,621.1z"/>
									</defs>
									<clipPath id="SVGID_2_">
										<use xlink:href="#SVGID_1_"  style="overflow:visible;"/>
									</clipPath>
									<path class="st4" d="M266.3,621.7c-0.1-42.1-16.9-81.7-47.1-111.6c-30.1-29.8-70-46.1-112.1-46.1c-0.2,0-0.3,0-0.5,0
										l-18.8,0.1c40.6,1.1,78.8,17.3,108,46c30.2,29.9,46.9,69.5,47.1,111.6l0.1,22.8c0,2-0.8,4-2.2,5.4c-1,1-2.2,1.7-3.7,2h23.6
										c1.4-0.3,2.6-1.1,3.7-2c1.5-1.5,2.2-3.4,2.2-5.4L266.3,621.7z"/>
								</g>
							</g>
						</g>
					</g>
				</g>
			</g>
		</g>
	</g>
	<g>
		<path class="st5" d="M50.9,637.6c-0.1-0.3-0.1-0.5-0.1-0.8c0.1-1.1,1.2-1.8,2.2-1.7c10.8,0.6,21.9-0.8,33-3.9
			c9-2.5,18-6.1,26.8-10.9c15-8,24.4-16.4,24.5-16.5c0.9-0.8,2.1-0.8,2.9-0.1c0.8,0.7,0.7,1.9-0.1,2.6c-0.4,0.4-9.9,8.8-25.4,17.1
			c-9.1,4.8-18.5,8.6-27.7,11.2c-11.6,3.2-23.3,4.6-34.4,4C51.9,638.7,51.3,638.2,50.9,637.6z"/>
		<path class="st6" d="M142.5,624.3c0.9-0.4,1.3-1.3,1.2-2.1c-0.1-0.3-1.6-7-7-9.2c-2.6-1.1-5-1.3-7.1-0.8s-3.7,1.8-4.7,3.7
			c-0.9,1.6-1,3.3-0.5,4.8c0.1,0.2,0.2,0.4,0.3,0.7c0.9,1.7,2.6,3.2,5.2,4.2C135.4,627.8,142.3,624.6,142.5,624.3z"/>
		<path class="st7" d="M130.2,614.3c1.6-1.5,2.4-3.6,2.8-6.3c0.7-5.6-4.7-10.2-4.8-10.4c-0.7-0.6-1.6-0.6-2.5-0.1
			c-0.3,0.2-6.7,4.3-7.4,9.8c-0.2,1.9-0.1,3.5,0.4,4.9c0.2,0.6,0.5,1.1,0.8,1.6c1.2,1.6,2.9,2.5,5,2.6
			C126.7,616.6,128.6,615.8,130.2,614.3z"/>
		<path class="st7" d="M126.3,633.7c0.9-0.4,1.3-1.3,1.2-2.1c-0.1-0.3-1.6-7-7-9.2c-2.6-1.1-5-1.3-7.1-0.8s-3.7,1.8-4.7,3.7
			c-0.9,1.6-1,3.3-0.5,4.8c0.1,0.2,0.2,0.4,0.3,0.7c0.9,1.7,2.6,3.2,5.2,4.2C119.1,637.2,125.9,633.8,126.3,633.7z"/>
		<path class="st6" d="M113.9,623.7c1.6-1.5,2.4-3.6,2.8-6.3c0.7-5.6-4.7-10.2-4.8-10.4c-0.7-0.6-1.6-0.6-2.5-0.1
			c-0.3,0.2-6.7,4.3-7.4,9.8c-0.2,1.9-0.1,3.5,0.4,4.9c0.2,0.6,0.5,1.1,0.8,1.6c1.2,1.6,2.9,2.5,5,2.6S112.3,625.2,113.9,623.7z"/>
		<path class="st6" d="M106.9,640.9c0-0.3-0.2-7.3-5-10.3c-2.3-1.5-4.7-2.1-6.8-1.9s-4,1.3-5.2,2.9c-1.3,1.6-1.7,3.6-1.2,5.4
			c0,0.2,0.1,0.3,0.1,0.5c0.6,1.7,2,3.3,4.2,4.7c4.8,3.1,12.1,0.9,12.5,0.8C106.4,642.6,106.9,641.7,106.9,640.9z"/>
		<g>
			<path class="st7" d="M95.4,630.7c1.7-1.3,3.1-3.2,4-5.8c1.7-5.5-2.5-10.9-2.7-11.1c-0.6-0.7-1.6-0.9-2.4-0.5
				c-0.3,0.1-7.3,3.1-9,8.6c-0.8,2.4-0.9,4.6-0.2,6.2c0.1,0.1,0.1,0.3,0.2,0.4c0.8,1.7,2.3,2.9,4.5,3.4
				C91.4,632.4,93.6,632.1,95.4,630.7z"/>
			<path class="st7" d="M84.3,648.7c0.1-0.3,1.3-7.3-2.9-11c-1.9-1.8-4.1-2.9-6.2-3c-2-0.2-4.1,0.6-5.7,2c-1.6,1.5-2.4,3.3-2.2,5.2
				c0,0.6,0.2,1.2,0.4,1.7c0.5,1.4,1.5,2.7,2.8,4c4.2,3.9,11.6,2.8,11.9,2.8C83.4,650.3,84.2,649.7,84.3,648.7z"/>
			<path class="st7" d="M74.9,636.7c1.9-1,3.6-2.6,4.9-5.1c2.8-5.1-0.4-11.2-0.5-11.5c-0.4-0.8-1.4-1.2-2.2-0.9
				c-0.3,0.1-7.7,1.8-10.5,7.1c-1.4,2.5-1.7,4.7-1.4,6.6c0.1,0.2,0.1,0.5,0.2,0.7c0.6,1.6,1.7,2.7,3.5,3.4
				C70.9,637.7,73.1,637.7,74.9,636.7z"/>
			<path class="st7" d="M150,604.6c4.5-4.1,3.8-11,3.8-11.2c-0.1-0.9-0.8-1.5-1.7-1.6c-0.3,0-7.8-0.6-12.2,3.5
				c-2.1,1.9-3.4,4-3.7,5.9c-0.2,1-0.1,1.9,0.3,2.8c0.3,0.9,0.9,1.6,1.6,2.3c1.5,1.4,3.5,1.9,5.5,1.6
				C145.8,607.7,147.8,606.6,150,604.6z"/>
		</g>
	</g>
	<path class="st8" d="M34.2,469.2c1.5,1.9,1.9,4.6,1.4,6.8c-3.3,12.9-4.9,26.2-4.8,39.4c0.1,26.1,13,55.6,35.3,81.2
		c22.3,25.5,50.6,43.3,77.8,48.9c3.7,0.8,6.2,4.2,6.2,7.8h23.4c0-3.5-2.2-6.6-5.4-7.6c-0.2-0.1-0.5-0.1-0.7-0.2
		c-27.1-5.7-55.5-23.4-77.8-48.9s-35.2-55.2-35.3-81.2c0-13.4,1.6-26.6,4.8-39.4c0.6-2.4,0.1-4.9-1.4-6.8s-3.7-3.1-6-3.1H48
		c-3.9,0-7.7,0.2-11.4,0.5c-0.2,0-0.3,0-0.5,0c-0.5,0-1.1,0.1-1.6,0.1c-1,0.1-1.8,0.2-2.8,0.3C32.7,467.6,33.6,468.3,34.2,469.2z"/>
	<path class="st9" d="M143.7,643.9c-27.1-5.7-55.5-23.4-77.8-48.9s-35.2-55.2-35.3-81.2c-0.1-13.3,1.6-26.5,4.8-39.4
		c0.6-2.3,0.1-4.9-1.4-6.8c-0.7-0.9-1.6-1.6-2.5-2.1c1-0.1,1.8-0.2,2.8-0.3c-37.2,3.4-71.8,20.1-98.7,47.9
		c-29.7,31.2-46.2,72.2-46,116l0.1,22.8h260.2C150,648.1,147.3,644.7,143.7,643.9z"/>
	<path class="st1" d="M191.6,313.9L191.6,313.9c-23.2,0.1-41.8,22.8-41.7,50.5c0,13.5,4.5,26.1,12.3,35.6c8,9.5,18.3,14.6,29.5,14.6
		h0.1c23.1-0.1,41.7-22.8,41.6-50.5C233.4,336.4,214.6,313.9,191.6,313.9z"/>
	<path class="st1" d="M196.2,295.6c-0.1-24.5-18.2-44.5-40.3-44.5H8.1c-10.8,0-20.9,4.7-28.6,13.2s-11.7,19.7-11.7,31.6l0.2,86.8
		c0.2,69.6,51.4,126.1,114.3,126.1h0.4c63-0.2,114.1-57,113.9-126.7L196.2,295.6z"/>
	<path class="st10" d="M196.2,295.6c-0.1-24.5-17-44.5-37.8-44.5H140c20.8,0,37.8,20,37.8,44.5l0.2,86.3
		c0.2,66.1-43.1,120.7-97.8,126.4c3.1,0.3,6.1,0.5,9.2,0.5h0.3c59.1-0.2,106.9-57,106.8-126.7L196.2,295.6z"/>
	<path class="st11" d="M81.9,457.5c-9.7,0-19-3.6-26.1-10.2c-3.1-2.8-3.3-7.6-0.5-10.5c2.8-3.1,7.6-3.3,10.5-0.5
		c4.4,4.1,10.1,6.2,16,6.2h0.1c6,0,11.6-2.2,16.1-6.3c3.1-2.8,7.8-2.6,10.5,0.4c2.8,3.1,2.6,7.8-0.4,10.5
		C101,453.7,91.7,457.4,81.9,457.5C82,457.5,81.9,457.5,81.9,457.5z"/>
	<path class="st12" d="M37.5,336.2c9.7,0,19,1.7,26.1,5c3.1,1.4,3.3,3.8,0.5,5.2c-2.8,1.4-7.6,1.6-10.5,0.2
		c-4.4-1.9-10.1-3.2-16-3.2h-0.1c-6,0-11.6,1.1-16.1,3.2c-3.1,1.4-7.8,1.3-10.5-0.2c-2.8-1.5-2.6-3.9,0.4-5.2
		C18.4,337.9,27.7,336.1,37.5,336.2L37.5,336.2z"/>
	<path class="st12" d="M130.2,336.2c9.7,0,19,1.7,26.1,5c3.1,1.4,3.3,3.8,0.5,5.2c-2.8,1.5-7.6,1.6-10.5,0.2
		c-4.4-1.9-10.1-3.2-16-3.2h-0.1c-6,0-11.6,1.1-16.1,3.2c-3.1,1.4-7.8,1.3-10.5-0.2c-2.8-1.5-2.6-3.9,0.4-5.2
		C111.1,337.9,120.4,336.1,130.2,336.2C130.1,336.2,130.2,336.2,130.2,336.2z"/>
	<path class="st13" d="M50.9,374.9c0-6.9-5.6-12.4-12.5-12.4S26,368.1,26,375s5.6,12.4,12.5,12.4S51,381.9,50.9,374.9z"/>
	<path class="st13" d="M139.4,374.7c0-6.9-5.6-12.5-12.5-12.4c-6.9,0-12.5,5.6-12.4,12.5c0,6.9,5.6,12.5,12.5,12.4
		C133.9,387.2,139.4,381.7,139.4,374.7z"/>
	<g>
		<path class="st5" d="M147.2,592.4c-0.2-0.1-0.4-0.3-0.6-0.6c-0.6-0.9-0.3-2.1,0.6-2.8c8.4-6.6,16-14.9,22.4-24.5
			c5.1-7.8,9.6-16.4,13.2-25.8c6.1-15.9,7.7-28.4,7.7-28.5c0.1-1.1,1.1-1.9,2.1-1.9c1.1,0,1.7,1,1.6,2.1c-0.1,0.5-1.6,13.1-7.9,29.6
			c-3.7,9.7-8.3,18.6-13.6,26.7c-6.7,10.1-14.5,18.7-23.4,25.6C148.5,592.7,147.8,592.8,147.2,592.4z"/>
		<path class="st6" d="M207.7,522.6c0.4-0.9,0.1-1.8-0.6-2.3c-0.2-0.2-5.8-4.3-11.3-2.3c-2.6,0.9-4.7,2.3-5.8,4.1
			c-1.2,1.7-1.6,3.8-1.2,5.8c0.4,1.7,1.5,3.2,2.8,4c0.2,0.1,0.4,0.2,0.7,0.3c1.8,0.8,4.1,0.7,6.8-0.3
			C204.5,529.8,207.5,522.8,207.7,522.6z"/>
		<path class="st7" d="M191.7,523.1c0.2-2.1-0.5-4.4-2-6.6c-3.2-4.7-10.2-4.7-10.5-4.7c-0.9,0-1.6,0.7-1.9,1.6
			c-0.1,0.3-2.2,7.6,0.9,12.2c1.1,1.6,2.2,2.7,3.5,3.4c0.6,0.3,1.1,0.5,1.6,0.7c1.8,0.5,3.9,0,5.5-1.4
			C190.5,527.1,191.5,525.2,191.7,523.1z"/>
		<path class="st7" d="M201.5,540.2c0.4-0.9,0.1-1.8-0.6-2.3c-0.2-0.2-5.8-4.3-11.3-2.3c-2.6,0.9-4.7,2.3-5.8,4.1
			c-1.2,1.7-1.6,3.8-1.2,5.8c0.4,1.7,1.5,3.2,2.8,4c0.2,0.1,0.4,0.2,0.7,0.3c1.8,0.8,4.1,0.7,6.8-0.3
			C198.3,547.6,201.3,540.6,201.5,540.2z"/>
		<path class="st6" d="M185.5,540.8c0.2-2.1-0.5-4.4-2-6.6c-3.2-4.7-10.2-4.7-10.5-4.7c-0.9,0-1.6,0.7-1.9,1.6
			c-0.1,0.3-2.2,7.6,0.9,12.2c1.1,1.6,2.2,2.7,3.5,3.4c0.6,0.3,1.1,0.5,1.6,0.7c1.8,0.5,3.9,0,5.5-1.4
			C184.3,544.7,185.3,542.8,185.5,540.8z"/>
		<path class="st6" d="M191.5,558.2c-0.2-0.2-4.8-5.3-10.6-4.5c-2.7,0.4-4.8,1.5-6.4,3c-1.5,1.6-2.2,3.5-2.1,5.6s1.1,3.9,2.6,4.9
			c0.1,0.1,0.3,0.2,0.4,0.2c1.6,0.9,3.7,1.2,6.2,0.8c5.7-0.9,9.7-7.4,9.9-7.6C192.3,559.9,192.2,558.9,191.5,558.2z"/>
		<g>
			<path class="st7" d="M176.2,558.2c0.5-2.1,0.3-4.5-0.9-7c-2.2-5.3-9.1-6.6-9.4-6.6c-0.9-0.2-1.7,0.3-2.1,1.2
				c-0.1,0.3-3.5,7.2-1.2,12.4c1,2.3,2.3,4,3.9,4.8c0.1,0.1,0.3,0.1,0.4,0.2c1.7,0.8,3.7,0.7,5.5-0.3
				C174.5,562.1,175.7,560.3,176.2,558.2z"/>
			<path class="st7" d="M179.7,579.2c-0.2-0.3-3.8-6.3-9.5-6.5c-2.7-0.1-4.9,0.5-6.7,1.7c-1.6,1.3-2.7,3.1-3,5.2
				c-0.3,2.1,0.4,4.1,1.7,5.4c0.4,0.4,0.9,0.8,1.5,1.1c1.3,0.7,2.8,1.1,4.7,1.2c5.6,0.2,10.7-5.5,10.9-5.7
				C180,580.8,180.2,579.8,179.7,579.2z"/>
			<path class="st7" d="M164.8,576.2c0.9-1.9,1-4.4,0.4-7.2c-1.3-5.7-7.7-8.2-7.9-8.3c-0.8-0.3-1.7,0-2.2,0.8
				c-0.2,0.3-4.6,6.5-3.3,12.2c0.6,2.7,1.7,4.7,3.3,5.9c0.2,0.1,0.4,0.3,0.6,0.4c1.5,0.8,3.1,0.9,4.8,0.3
				C162.5,579.6,164,578.2,164.8,576.2z"/>
			<path class="st7" d="M200.3,502.6c0.7-6-4.4-10.8-4.6-11c-0.6-0.6-1.6-0.6-2.3-0.1c-0.3,0.2-6.3,4.7-6.9,10.7
				c-0.3,2.9,0.1,5.2,1.2,6.9c0.5,0.9,1.3,1.5,2,1.9c0.8,0.5,1.7,0.7,2.7,0.7c2,0.1,3.9-0.8,5.2-2.3
				C199.2,507.7,200,505.4,200.3,502.6z"/>
		</g>
	</g>
	<circle class="st14" cx="145.5" cy="590.9" r="16.8"/>
	<ellipse transform="matrix(-0.866 -0.5 0.5 -0.866 -245.051 585.7521)" class="st15" cx="-44" cy="325.7" rx="26" ry="23.6"/>
	<ellipse transform="matrix(-0.866 -0.5 0.5 -0.866 -248.9206 575.637)" class="st0" cx="-47.3" cy="321.2" rx="26" ry="23.6"/>
	<circle class="st16" cx="145.3" cy="590.7" r="10.3"/>
	<ellipse transform="matrix(-0.866 -0.5 0.5 -0.866 -191.7224 511.4078)" class="st15" cx="-27.3" cy="281.4" rx="40.1" ry="36.2"/>
	<ellipse transform="matrix(-0.866 -0.5 0.5 -0.866 -197.6231 496.5333)" class="st0" cx="-32.3" cy="274.7" rx="40.1" ry="36.2"/>
	<ellipse transform="matrix(-0.5 -0.866 0.866 -0.5 17.1094 666.2809)" class="st15" cx="200.9" cy="328.2" rx="25" ry="27.7"/>
	<ellipse transform="matrix(-0.5 -0.866 0.866 -0.5 26.3829 661.9966)" class="st0" cx="204.3" cy="323.4" rx="25" ry="27.7"/>
	<ellipse transform="matrix(-0.5 -0.866 0.866 -0.5 37.1337 588.5992)" class="st15" cx="188.5" cy="283.6" rx="36.2" ry="40.1"/>
	<ellipse transform="matrix(-0.5 -0.866 0.866 -0.5 43.6324 574.2418)" class="st0" cx="187.6" cy="274.5" rx="36.2" ry="40.1"/>
	<ellipse class="st15" cx="174.4" cy="232.9" rx="59" ry="53.3"/>
	<ellipse class="st0" cx="170.9" cy="224" rx="59" ry="53.3"/>
	<ellipse class="st15" cx="-16.5" cy="233.4" rx="53.2" ry="48.1"/>
	<ellipse class="st0" cx="-19.8" cy="228.9" rx="53.2" ry="48.1"/>
	<ellipse class="st15" cx="76.7" cy="218.9" rx="96.5" ry="72"/>
	<ellipse class="st0" cx="80.1" cy="210.4" rx="96.5" ry="68.1"/>
</g>
</svg>
