<?xml version="1.0" encoding="utf-8"?>
<!-- Generator: Adobe Illustrator 19.0.0, SVG Export Plug-In . SVG Version: 6.00 Build 0)  -->
<svg version="1.1" id="Layer_1" xmlns="http://www.w3.org/2000/svg" xmlns:xlink="http://www.w3.org/1999/xlink" x="0px" y="0px"
	 viewBox="-114 142.3 383 508.7" style="enable-background:new -114 142.3 383 508.7;" xml:space="preserve">
<style type="text/css">
	.st0{fill:#C6A89C;}
	.st1{fill:#B38B7B;}
	.st2{fill:#563B2D;}
	.st3{fill:#664242;}
	.st4{clip-path:url(#SVGID_2_);}
	.st5{fill:#4C2C2C;}
	.st6{fill:#FFF4F1;}
	.st7{fill:#ECEDEF;}
	.st8{fill:#897F79;}
	.st9{fill:#868686;}
	.st10{fill:#7F7771;}
</style>
<title>old</title>
<path class="st0" d="M-107.7,650.8h368.9c1.4-0.4,2.7-1.1,3.8-2.1c1.5-1.5,2.3-3.5,2.3-5.6l-0.1-23.6
	c-0.5-90.2-73.1-172.9-162.7-173.2H104l-53.1,0.2c-89.8,0.5-162.4,83.8-162.4,174.2l0.1,23.6C-111.4,646.8-110,649.3-107.7,650.8z"
	/>
<path class="st1" d="M268.1,619.8c-0.5-90.2-73.2-172.9-162.7-173.2h-0.5l-19.2,0.1c87.8,2.6,158,84.7,158.5,173.1l0.1,23.6
	c0,2.1-0.8,4.1-2.3,5.6c-1.1,1.1-2.4,1.8-3.8,2.1h24c1.4-0.4,2.7-1.1,3.8-2.1c1.5-1.5,2.3-3.5,2.3-5.6L268.1,619.8z"/>
<path class="st2" d="M268,619.8c-0.1-43.4-17.4-95-48.2-125.5c-9.1-9.1-19.2-17.1-30.1-23.9c-7.6,30.3-39.8,64.6-82,72.4
	c-9.7,1.8-19.6,2.7-29.4,2.7c-9.8,0-19.6-0.9-29.2-2.6C7.2,535.1-25.2,501-33,471c-11,6.9-21.2,15-30.2,24.2
	c-30.5,30.6-47.5,82.4-47.4,125.8l0.1,23.6c0.1,2.6,1.4,5.1,3.6,6.5H262c1.4-0.4,2.7-1.1,3.8-2.1c1.5-1.5,2.3-3.5,2.3-5.6L268,619.8
	z"/>
<path class="st3" d="M268,619.8c-0.1-43.4-17.4-95-48.2-125.5c-9.1-9.1-19.2-17.1-30.1-23.9c-7.6,30.3-39.8,64.6-82,72.4
	c-9.7,1.8-19.6,2.7-29.4,2.7c-9.8,0-19.6-0.9-29.2-2.6C7.2,535.1-25.2,501-33,471c-11,6.9-21.2,15-30.2,24.2
	c-30.5,30.6-47.5,82.4-47.4,125.8l0.1,23.6c0.1,2.6,1.4,5.1,3.6,6.5H262c1.4-0.4,2.7-1.1,3.8-2.1c1.5-1.5,2.3-3.5,2.3-5.6L268,619.8
	z"/>
<g>
	<g>
		<g>
			<defs>
				<path id="SVGID_1_" d="M268,619.8c-0.1-43.4-17.4-95-48.2-125.5c-9.1-9.1-19.2-17.1-30.1-23.9c-7.6,30.3-39.8,64.6-82,72.4
					c-9.7,1.8-19.6,2.7-29.4,2.7c-9.8,0-19.6-0.9-29.2-2.6C7.2,535.1-25.2,501-33,471c-11,6.9-21.2,15-30.2,24.2
					c-30.5,30.6-47.5,82.4-47.4,125.8l0.1,23.6c0.1,2.6,1.4,5.1,3.6,6.5H262c1.4-0.4,2.7-1.1,3.8-2.1c1.5-1.5,2.3-3.5,2.3-5.6
					L268,619.8z"/>
			</defs>
			<clipPath id="SVGID_2_">
				<use xlink:href="#SVGID_1_"  style="overflow:visible;"/>
			</clipPath>
			<g class="st4">
				<path class="st5" d="M269.1,620.5c-0.5-90.2-73.1-173-162.7-173.2h-0.5l-19.2,0.1c87.8,2.6,157.9,84.7,158.4,173.1l0.1,23.6
					c0,2.1-0.8,4.1-2.3,5.6c-1.1,1.1-2.4,1.8-3.8,2.1h24c1.4-0.4,2.7-1.1,3.8-2.1c1.5-1.5,2.3-3.5,2.3-5.6L269.1,620.5L269.1,620.5z
					"/>
			</g>
		</g>
	</g>
</g>
<path class="st6" d="M148.5,642.7c-27.9-5.9-57.1-24.4-80-51c-22.9-26.6-36.2-67.5-36.3-94.7c-0.1-13.9,1.6-27.7,5-41.2
	c0.6-2.5,0.1-5.1-1.4-7.1c-0.7-0.9-1.6-1.7-2.6-2.2l2.9-0.3c-38.2,3.5-73.8,20.9-101.5,50c-30.9,32.7-47.9,86.1-47.6,131l0.1,23.8
	h267.7C155,647.1,152.4,643.5,148.5,642.7z"/>
<path class="st7" d="M34.8,449.9c1.5,2,2,4.6,1.4,7.1c-3.4,13.5-5,27.3-5,41.2c0.1,27.2,13.4,68,36.3,94.6
	c22.9,26.6,52.1,45.2,80,51c3.8,0.9,6.5,4.4,6.4,8.2h24c0-3.6-2.2-6.8-5.6-7.9c-0.2-0.1-0.5-0.1-0.7-0.2c-27.9-5.9-57.1-24.4-80-51
	s-36.2-67.5-36.3-94.6c0-13.9,1.7-27.7,5-41.2c0.6-2.5,0.1-5.1-1.4-7.1c-1.4-2-3.7-3.2-6.2-3.2h-3.6c-4,0-7.9,0.2-11.8,0.5h-0.5
	c-0.5,0-1.1,0.1-1.6,0.1l-2.9,0.3C33.3,448.3,34.1,449.1,34.8,449.9z"/>
<path class="st1" d="M269,643.4c0,2-0.8,4.1-2.2,5.6c-1,1-2.2,1.7-3.5,2.1h-22.8c1.4-0.4,2.7-1.1,3.6-2.1c1.4-1.5,2.2-3.6,2.2-5.6
	l0.3-21c8.1-9.4,14.8-20.1,19.7-31.6c0-0.1,0-0.1,0.1-0.2c1.7,9.6,2.5,19.4,2.5,29.2L269,643.4z"/>
<path class="st0" d="M246.7,643.4c0,2.1-0.9,4.2-2.4,5.6c-1.1,1.1-2.5,1.8-4,2.1h-34.5c15.3-6.9,29.2-16.6,40.9-28.8V643.4z"/>
<path class="st0" d="M-41.6,296.4h-0.2c-28.2,0.1-51.1,23.1-51,51.3c-0.1,13.5,5.3,26.5,15,36.1s17.1,14.8,36.1,14.8h0.2
	c28.2-0.4,50.8-23.6,50.4-51.8C8.4,319.1-13.9,296.7-41.6,296.4z"/>
<path class="st0" d="M204.1,295.5h-0.2c-28.2,0.1-51.1,23.1-51,51.3c0,13.5,5.4,26.5,15,36s22.5,14.9,36,14.8h0.2
	c28.2,0,51.1-22.9,51-51.1C255.2,318.3,232.3,295.5,204.1,295.5L204.1,295.5z"/>
<path class="st1" d="M203.1,335.7l0.1,34c0.3,72.3-53.6,131.3-120,131.6h-0.4c-2.9,0-5.8-0.1-8.7-0.3
	c-62.2-4.9-111.5-61.4-111.7-130.4l-0.1-21.8c-10.6-20.3-16.1-42.9-16-65.8c0-71.6,52.2-130.4,118.8-136.4h0.1c3-0.4,6-0.8,9-1l0,0
	c3-0.2,6.1-0.3,9.1-0.3c71.9,0,130.2,61.3,130.2,137C213.4,300.5,209.9,318.6,203.1,335.7z"/>
<path class="st0" d="M184.3,335.7l0.1,34c0.3,69.1-49,126.1-111.3,131.2C10.8,496-38.5,439.5-38.7,370.5l-0.1-21.8
	c-10.6-20.3-16.1-42.9-16-65.8c0-71.6,52.2-130.4,118.8-136.4h0.1c3-0.4,6-0.8,9-1l0,0c67.8,4.6,121.5,64,121.5,136.6
	C194.6,300.4,191.1,318.6,184.3,335.7z"/>
<path class="st0" d="M175.7,270c0-0.3,0-0.6,0-0.9v-0.3c0-4.8-3.3-8.6-7.2-8.6l0,0l-175.9,0.6c-4,0-7.2,3.9-7.2,8.6v0.3
	c0,0.3,0,0.6,0,0.9l0.3,131.7c0,4.1,0.2,8.4,0.6,12.7c0.2,3.1,2.1,5.9,4.9,7.3c2.7,1,5.8,0.1,7.5-2.3c18.1-23.2,43.6-25.1,77.6-25.2
	c37.5-0.2,66.3,5.7,84.9,34.7c1.2,2,3.4,3.3,5.7,3.4c0.5,0,1.1-0.1,1.6-0.2c2.9-1,5.1-3.6,5.5-6.6c1.4-8,2.2-16.2,2.1-24.4
	L175.7,270z"/>
<path class="st8" d="M82.8,444.2c-10.2,0-20.1-3.8-27.6-10.8c-3.3-3.1-3.6-8.3-0.5-11.6c3.1-3.3,8.3-3.6,11.6-0.5
	c4.5,4.1,10.4,6.4,16.5,6.4h0.1c6.1,0,12-2.3,16.5-6.5c3.5-2.9,8.6-2.5,11.6,1c2.7,3.2,2.6,8-0.4,11c-7.5,7-17.4,10.9-27.7,10.9
	C82.9,444.2,82.9,444.2,82.8,444.2L82.8,444.2z"/>
<path class="st9" d="M49.8,368c0-7.2-5.9-13.1-13.2-13.1s-13.1,5.9-13.1,13.2c0,7.2,5.9,13.1,13.2,13.1l0,0
	C43.9,381,49.8,375.2,49.8,368z"/>
<path class="st7" d="M52.1,347.2c-0.7,0-1.4-0.1-2.1-0.3l-30.9-8.2c-4.4-1.2-7-5.6-5.9-10s5.6-7,10-5.9l0,0l30.9,8.1
	c4.4,1.2,7,5.7,5.9,10.1C59.1,344.6,55.8,347.1,52.1,347.2L52.1,347.2z"/>
<path class="st9" d="M142.3,367.7c0-7.2-5.9-13.1-13.2-13s-13.1,5.9-13,13.2c0,7.2,5.9,13.1,13.2,13c7.2,0,13-5.8,13.1-12.9
	C142.3,367.8,142.3,367.7,142.3,367.7z"/>
<path class="st7" d="M113.7,346.9c-4.6,0-8.3-3.7-8.3-8.2c0-3.7,2.5-7,6.1-8l30.9-8.4c4.4-1.1,8.9,1.6,10,6c1.1,4.3-1.4,8.6-5.6,9.9
	l-30.9,8.4C115.2,346.9,114.4,347,113.7,346.9z"/>
<path class="st8" d="M34.5,284.9h95.2c1.1,0,2.1,0.9,2.1,2.1v1.5c0,1.1-0.9,2.1-2.1,2.1H34.5c-1.1,0-2.1-0.9-2.1-2.1V287
	C32.5,285.9,33.4,284.9,34.5,284.9z"/>
<path class="st10" d="M50.1,415.6l0.5,0.4c0.4,0.3,0.4,0.9,0.1,1.2l-12.1,13.7c-0.3,0.4-0.9,0.4-1.2,0.1l-0.5-0.4
	c-0.4-0.3-0.4-0.9-0.1-1.2l12.1-13.7C49.2,415.3,49.7,415.3,50.1,415.6z"/>
<path class="st10" d="M128.5,430.5l-0.5,0.4c-0.4,0.3-0.9,0.3-1.2-0.1l-12.1-13.7c-0.3-0.4-0.3-0.9,0.1-1.2l0.5-0.4
	c0.4-0.3,0.9-0.3,1.2,0.1l12.1,13.7C128.9,429.7,128.9,430.2,128.5,430.5z"/>
</svg>
