<?xml version="1.0" encoding="utf-8"?>
<!-- Generator: Adobe Illustrator 23.1.0, SVG Export Plug-In . SVG Version: 6.00 Build 0)  -->
<svg version="1.1" id="Layer_1" xmlns="http://www.w3.org/2000/svg" xmlns:xlink="http://www.w3.org/1999/xlink" x="0px" y="0px"
	 viewBox="0 0 383 508.7" style="enable-background:new 0 0 383 508.7;" xml:space="preserve">
<style type="text/css">
	.st0{fill:#E6B09A;}
	.st1{fill:#F0BCA6;}
	.st2{fill:#ECEDEF;}
	.st3{fill:#E5775A;}
	.st4{clip-path:url(#SVGID_2_);}
	.st5{fill:#DBDCDD;}
	.st6{clip-path:url(#SVGID_4_);}
	.st7{fill:#BA5743;}
	.st8{clip-path:url(#SVGID_6_);}
	.st9{fill:#FFF4F1;}
	.st10{fill:#CCA95A;}
	.st11{fill:#F7D789;}
	.st12{fill:#C6943C;}
	.st13{fill:#F7B93E;}
	.st14{fill:#D0CFD1;}
	.st15{fill:#DCDBDD;}
	.st16{fill:#979797;}
	.st17{fill:#868686;}
	.st18{fill:#BF736A;}
	.st19{fill:none;}
</style>
<title>old</title>
<path class="st0" d="M302.3,200.8l0.1,34.5c0.3,73.4-54.5,133.4-121.9,133.6h-0.4c-3,0-5.9-0.1-8.8-0.3
	C107.9,363.6,58,306.3,57.8,236.1L57.7,214c-10.7-20.6-16.3-43.6-16.2-66.8c0-72.7,53-132.4,120.6-138.6h0.1c3-0.4,6-0.8,9.1-1l0,0
	c3.1-0.2,6.1-0.3,9.3-0.3c73-0.1,132.2,62.2,132.2,139C312.8,165.1,309.1,183.6,302.3,200.8z"/>
<path class="st1" d="M283.1,200.9l0.1,34.5c0.3,70.2-49.8,128.1-113.1,133.2c-63.2-4.9-113.3-62.3-113.5-132.4L56.6,214
	c-10.7-20.6-16.3-43.6-16.2-66.8c0-72.7,53-132.4,120.6-138.6h0.1c3-0.4,6.1-0.8,9.1-1l0,0c68.9,4.7,123.4,65.1,123.4,138.8
	C293.6,165.1,290.1,183.6,283.1,200.9z"/>
<path class="st2" d="M67.3,506.6H12.6c-6.5,0-11.8-5.3-11.8-11.8v-86.4c0.1-27.2,22.1-49.2,49.2-49.2h17.2c6.5,0,11.8,5.3,11.8,11.8
	v123.9C79.1,501.5,73.8,506.6,67.3,506.6z"/>
<path class="st1" d="M10.1,506.5h364.3c1.4-0.3,2.7-1.1,3.7-2.1c1.5-1.5,2.3-3.4,2.3-5.5l-0.1-23.1c-0.5-88.5-72.3-160-160.7-160.3
	h-0.5l-52.5,0.2C77.9,316.3,6.3,388.3,6.3,476.9L6.4,500C6.6,502.5,7.8,505,10.1,506.5z"/>
<path class="st0" d="M380.5,475.6c-0.5-88.4-72.2-159.9-160.7-160.2h-0.5l-19,0.1c86.8,2.5,155.9,73.3,156.5,160.1l0.1,23.1
	c0,2.1-0.8,4-2.3,5.5c-1,1-2.3,1.8-3.8,2.1h23.7c1.4-0.4,2.7-1.1,3.7-2.1c1.5-1.5,2.3-3.4,2.3-5.5L380.5,475.6z"/>
<path class="st3" d="M380.3,475.6c-0.1-42.6-17.2-83.4-47.6-113.3c-3.1-3-6.2-5.9-9.4-8.6c-24.2,27.3-73.4,46-130,46
	S87.8,381.1,63.5,353.9c-3.6,3-6.9,6.1-10.2,9.5C23,393.5,6.3,434.4,6.3,477l0.1,23.1c0.1,2.6,1.4,5,3.6,6.4h364.3
	c1.4-0.4,2.7-1.1,3.7-2.1c1.5-1.5,2.3-3.4,2.3-5.5L380.3,475.6z"/>
<g>
	<g>
		<defs>
			<path id="SVGID_1_" d="M380.3,475.6c-0.1-42.6-17.2-83.4-47.6-113.3c-3.1-3-6.2-5.9-9.4-8.6c-24.2,27.3-73.4,46-130,46
				S87.8,381.1,63.5,353.9c-3.6,3-6.9,6.1-10.2,9.5C23,393.5,6.3,434.4,6.3,477l0.1,23.1c0.1,2.6,1.4,5,3.6,6.4h364.3
				c1.4-0.4,2.7-1.1,3.7-2.1c1.5-1.5,2.3-3.4,2.3-5.5L380.3,475.6z"/>
		</defs>
		<clipPath id="SVGID_2_">
			<use xlink:href="#SVGID_1_"  style="overflow:visible;"/>
		</clipPath>
		<g class="st4">
			<path class="st5" d="M78.2,387H50.5c-13.2,0-23.9-10.7-23.9-23.9v-0.2c0-13.2,10.7-23.9,23.9-23.9h27.6
				c13.2,0,23.9,10.7,23.9,23.9v0.2C102.1,376.3,91.3,387,78.2,387z"/>
		</g>
	</g>
</g>
<g>
	<g>
		<defs>
			<path id="SVGID_3_" d="M380.3,475.6c-0.1-42.6-17.2-83.4-47.6-113.3c-3.1-3-6.2-5.9-9.4-8.6c-24.2,27.3-73.4,46-130,46
				S87.8,381.1,63.5,353.9c-3.6,3-6.9,6.1-10.2,9.5C23,393.5,6.3,434.4,6.3,477l0.1,23.1c0.1,2.6,1.4,5,3.6,6.4h364.3
				c1.4-0.4,2.7-1.1,3.7-2.1c1.5-1.5,2.3-3.4,2.3-5.5L380.3,475.6z"/>
		</defs>
		<clipPath id="SVGID_4_">
			<use xlink:href="#SVGID_3_"  style="overflow:visible;"/>
		</clipPath>
		<g class="st6">
			<path class="st7" d="M382,477.3c-0.5-88.4-72.3-159.9-160.7-160.2h-0.5l-19,0.1c86.8,2.5,155.9,73.3,156.5,160.1l0.1,23.1
				c0,2.1-0.8,4-2.3,5.5c-1,1-2.3,1.8-3.7,2.1h23.7c1.4-0.4,2.7-1.1,3.7-2.1c1.5-1.5,2.3-3.4,2.3-5.5L382,477.3z"/>
		</g>
	</g>
</g>
<g>
	<g>
		<defs>
			<path id="SVGID_5_" d="M380.3,475.6c-0.1-42.6-17.2-83.4-47.6-113.3c-3.1-3-6.2-5.9-9.4-8.6c-24.2,27.3-73.4,46-130,46
				S87.8,381.1,63.5,353.9c-3.6,3-6.9,6.1-10.2,9.5C23,393.5,6.3,434.4,6.3,477l0.1,23.1c0.1,2.6,1.4,5,3.6,6.4h364.3
				c1.4-0.4,2.7-1.1,3.7-2.1c1.5-1.5,2.3-3.4,2.3-5.5L380.3,475.6z"/>
		</defs>
		<clipPath id="SVGID_6_">
			<use xlink:href="#SVGID_5_"  style="overflow:visible;"/>
		</clipPath>
		<g class="st8">
			<path class="st9" d="M79.2,385H51.5c-13.2,0-23.9-10.7-23.9-23.9v-0.2c0-13.2,10.7-23.9,23.9-23.9h27.6
				c13.2,0,23.9,10.7,23.9,23.9v0.2C103.1,374.1,92.3,384.9,79.2,385z"/>
		</g>
	</g>
</g>
<path class="st1" d="M89.1,506L89.1,506c0,0.7-0.6,1.4-1.3,1.4c0,0,0,0-0.1,0h-80c-0.7,0-1.4-0.6-1.4-1.3c0,0,0,0,0-0.1v-51.7
	c0-6.6,1.6-13.1,4.6-18.9c0.8-1.5,2.1-2.7,3.7-3.3c0.5-0.2,1.1-0.1,1.6,0.3l72.6,72.7C88.9,505.4,89.1,505.6,89.1,506z"/>
<path class="st9" d="M123.9,498.5c27.6-5.8,56.4-23.9,79.1-50.1s35.8-56.5,35.8-83.1c0.1-13.6-1.6-27.2-4.9-40.4
	c-0.6-2.4-0.1-5,1.4-7c0.7-0.9,1.6-1.6,2.6-2.2c-1-0.1-1.9-0.2-2.9-0.3c37.8,3.5,73,20.6,100.3,49c30.5,32,47.4,74.6,47,118.8
	l-0.1,23.3H117.8C117.7,502.6,120.3,499.4,123.9,498.5z"/>
<path class="st10" d="M93.9,506.5L93.9,506.5c-0.1-3.5,2.1-6.7,5.5-7.8C96.2,499.9,93.8,503,93.9,506.5z"/>
<path class="st10" d="M234.9,315.5c-0.5,0-1.1-0.1-1.6-0.1C233.9,315.4,234.4,315.5,234.9,315.5z"/>
<path class="st10" d="M232.9,315.3c-3.9-0.3-7.7-0.5-11.6-0.5C225.1,314.8,229.1,315,232.9,315.3z"/>
<path class="st2" d="M235.3,318c-1.5,2-2,4.6-1.4,7c3.4,13.2,5,26.8,4.9,40.4c-0.1,26.7-13.2,56.9-35.9,83.1s-51.4,44.3-79.1,50.1
	c-3.7,0.9-6.4,4.2-6.3,8.1H93.8c0-3.5,2.2-6.7,5.5-7.8c0.2-0.1,0.5-0.1,0.7-0.2c27.6-5.8,56.4-23.9,79.1-50.1s35.8-56.5,35.9-83.1
	c0-13.6-1.7-27.2-4.9-40.4c-0.6-2.4-0.1-5,1.4-7c1.4-2,3.7-3.1,6.1-3.1h3.6c3.9,0,7.8,0.2,11.6,0.5h0.5c0.5,0,1.1,0.1,1.6,0.1
	l2.9,0.3C236.6,316.3,235.9,317,235.3,318z"/>
<path class="st11" d="M93.9,507.3v-0.7H94C94.1,506.8,93.9,507,93.9,507.3"/>
<path class="st12" d="M48,359.9c0-3.9,1.3-7.6,3.7-10.6c-7.5,5.7-8.9,16.4-3.2,23.8s16.4,8.9,23.8,3.2c1-0.8,1.9-1.6,2.7-2.6
	c-7.6,5.6-18.2,4-23.8-3.6C49,367.1,48,363.5,48,359.9L48,359.9z"/>
<path class="st13" d="M61.7,346c-3.6,0-7.1,1.2-10,3.4c-5.8,7.4-4.6,18,2.7,23.9c6,4.7,14.4,4.9,20.6,0.4c5.9-7.3,4.7-18-2.6-23.9
	C69.3,347.4,65.7,346,61.7,346L61.7,346z"/>
<circle class="st13" cx="61.7" cy="363" r="17"/>
<circle class="st13" cx="61.7" cy="363" r="17"/>
<path class="st1" d="M53.7,161.6h-0.2c-28.7,0.1-51.9,23.4-51.8,52.1c-0.1,13.8,5.5,27,15.3,36.6c9.9,9.8,17.4,15.1,36.6,15.1h0.2
	c28.7-0.4,51.6-24,51.1-52.7C104.6,184.6,81.8,161.9,53.7,161.6L53.7,161.6z"/>
<path class="st1" d="M303.1,160.6h-0.2c-28.7,0.1-51.9,23.4-51.8,52.1c0,13.8,5.5,27,15.3,36.6c9.7,9.7,22.9,15.1,36.6,15.1h0.2
	c28.7-0.8,51.2-24.7,50.4-53.4C352.9,183.6,330.6,161.4,303.1,160.6z"/>
<path class="st14" d="M302.1,201.4l0.1,34.5c0.3,73.5-54.5,133.4-121.9,133.6H180c-3,0-5.9-0.1-8.8-0.3h-0.5
	C107.7,364,58,306.7,57.8,236.8l-0.1-22.1C35.8,172.4,36,122.1,58,80c9.7,9.5,21,17.4,33.3,23.3c15.8-22.2,48.2-37.4,85.4-37.4
	c35.5,0,66.6,13.8,83.1,34.4c7.3-4,14.2-8.6,20.6-13.9c4.6-3.8,8.8-8,12.6-12.5C315.5,112.6,318.9,159.8,302.1,201.4L302.1,201.4z"
	/>
<path class="st15" d="M57.3,79.3c-22.5,42.2-22.8,92.8-0.9,135.3l0.1,22.1c0.2,70.1,50.3,127.5,113.5,132.4h0.5
	c42.4-3.6,78.8-31,98-69.8c1.7-3.4,3.2-6.9,4.6-10.5c6.6-16.9,10-34.8,9.9-52.9l-0.1-34.5c14.9-37.1,13.9-78.6-2.7-115
	c-6.4,5.3-13.3,10-20.6,13.9c-16.5-20.6-47.6-34.4-83.1-34.4c-37.3,0-69.6,15.2-85.4,37.4C78.9,97.4,67.8,89.6,58,80L57.3,79.3z"/>
<path class="st16" d="M179.9,311.6c-10.4,0-20.4-3.9-28-10.9c-3.5-3-3.8-8.3-0.8-11.8s8.3-3.8,11.8-0.8c0.1,0.1,0.2,0.2,0.3,0.2
	c4.6,4.2,10.6,6.5,16.8,6.5h0.1c6.2,0,12.2-2.3,16.8-6.6c3.3-3.2,8.5-3.2,11.8,0s3.2,8.5,0,11.8c-0.1,0.1-0.3,0.3-0.4,0.4
	c-7.6,7.1-17.7,11-28.1,11C180.1,311.6,179.9,311.6,179.9,311.6z"/>
<path class="st1" d="M274.6,268.5c0,6.8-0.5,13.6-1.5,20.4c-0.2,1.5-0.4,2.9-0.7,4.4c-0.4,2.5-1.8,4.7-3.9,6.1
	c-0.5,0.3-1,0.5-1.6,0.7c-0.5,0.1-1.1,0.2-1.6,0.2c-2.4-0.1-4.6-1.4-5.9-3.4c-18.9-29.5-48.1-35.5-86.2-35.3
	c-34.5,0.1-60.4,2-78.8,25.6c-1.7,2.4-4.9,3.4-7.7,2.3c-2.9-1.3-4.8-4.2-5-7.4c-0.4-4.4-0.6-8.7-0.6-12.9l-0.3-133.8
	c0-0.2,0-0.5,0-0.7v-0.2c0-0.1,0-0.2,0-0.2c0-11.1,3.7-21.7,10.4-30.9C107.1,81.2,139.4,66,176.6,66c35.5,0,66.6,13.8,83.1,34.4
	c6.4,7.7,10.5,16.9,12.1,26.8c1.6,1.8,2.4,4.1,2.4,6.4v0.3c0,0.3,0,0.6,0,0.9L274.6,268.5z"/>
<path class="st17" d="M146.4,234.3c0-7.4-6-13.3-13.4-13.3c-7.4,0-13.3,6-13.3,13.4s6,13.3,13.4,13.3
	C140.4,247.6,146.4,241.6,146.4,234.3z"/>
<path class="st2" d="M148.8,213.1c-0.7,0-1.4-0.1-2.1-0.3l-31.4-8.3c-4.5-1.2-7.1-5.8-5.9-10.2s5.8-7.1,10.2-5.9l31.4,8.3
	c4.5,1.2,7.1,5.8,5.9,10.3C155.8,210.6,152.4,213.1,148.8,213.1L148.8,213.1z"/>
<path class="st17" d="M240.4,233.9c0-7.4-6-13.3-13.4-13.3s-13.3,6-13.3,13.4s6,13.3,13.4,13.3c7.3,0.1,13.2-5.8,13.3-13
	C240.4,234.1,240.4,233.9,240.4,233.9z"/>
<path class="st2" d="M211.4,212.9c-4.6,0-8.4-3.8-8.4-8.4c0-3.7,2.5-7,6.1-8l31.4-8.5c4.5-1.2,9.1,1.4,10.3,5.8
	c1.2,4.5-1.4,9.1-5.8,10.3l-31.4,8.5C212.9,212.8,212.1,212.9,211.4,212.9z"/>
<path class="st18" d="M131.1,149.9h96.4c1.2,0,2.2,1,2.2,2.2v1.2c0,1.2-1,2.2-2.2,2.2h-96.4c-1.2,0-2.2-1-2.2-2.2v-1.2
	C128.9,150.9,129.9,149.9,131.1,149.9z"/>
<path class="st16" d="M146.8,282.6l0.4,0.3c0.4,0.3,0.4,0.9,0.1,1.3L135.1,298c-0.3,0.4-0.9,0.4-1.3,0.1l-0.4-0.3
	c-0.4-0.3-0.4-0.9-0.1-1.3l12.2-13.8C145.9,282.4,146.4,282.4,146.8,282.6z"/>
<path class="st16" d="M226.4,297.9l-0.4,0.3c-0.4,0.3-1,0.3-1.3-0.1l-12.2-13.8c-0.3-0.4-0.3-1,0.1-1.3l0.4-0.3
	c0.4-0.3,1-0.3,1.3,0.1l12.2,13.8C226.8,296.9,226.8,297.5,226.4,297.9z"/>
<path class="st1" d="M259.9,100.3c-23.7,13-54.1,20.8-87.1,20.8c-30.4,0-58.6-6.6-81.4-17.8c15.8-22.2,48.2-37.4,85.4-37.4
	C212.3,65.9,243.4,79.7,259.9,100.3z"/>
<path class="st19" d="M58,80l-0.7-0.7"/>
</svg>
