<?xml version="1.0" encoding="utf-8"?>
<!-- Generator: Adobe Illustrator 19.0.0, SVG Export Plug-In . SVG Version: 6.00 Build 0)  -->
<svg version="1.1" id="Layer_1" xmlns="http://www.w3.org/2000/svg" xmlns:xlink="http://www.w3.org/1999/xlink" x="0px" y="0px"
	 viewBox="-114 142.3 383 508.7" style="enable-background:new -114 142.3 383 508.7;" xml:space="preserve">
<style type="text/css">
	.st0{fill:#BC8E79;}
	.st1{fill:#A06E5A;}
	.st2{fill:#AEAEAF;}
	.st3{fill:#2657A5;}
	.st4{clip-path:url(#SVGID_2_);}
	.st5{fill:#1E4987;}
	.st6{fill:#FFF4F1;}
	.st7{fill:#ECEDEF;}
	.st8{fill:#D0CFD1;}
	.st9{fill:#DCDBDD;}
	.st10{fill:#979797;}
	.st11{fill:#868686;}
	.st12{fill:#BF736A;}
</style>
<title>old</title>
<path class="st0" d="M-107.1,651.4h368.8c1.4-0.4,2.8-1.1,3.8-2.2c1.5-1.6,2.3-3.6,2.3-5.8l-0.1-24.1
	c-0.6-92.2-73.2-166.6-162.6-166.9h-0.5l-53.2,0.2c-89.8,0.7-162.2,75.6-162.2,168l0.1,24.1C-110.7,647.5-109.4,650-107.1,651.4z"/>
<path class="st1" d="M268.7,619.8c-0.6-92.2-73.2-166.6-162.6-166.9h-0.5L86.4,453c87.8,2.6,157.9,76.4,158.3,166.8l0.1,24.1
	c0,2.2-0.9,4.2-2.3,5.8c-1,1.1-2.4,1.9-3.8,2.2h24c1.4-0.4,2.8-1.1,3.8-2.2c1.5-1.6,2.3-3.6,2.3-5.8L268.7,619.8z"/>
<path class="st2" d="M268.6,619.8c-0.1-44.4-17.4-86.9-48.1-118.1c-9.1-9.3-19.1-17.5-30.1-24.4c-7.6,31-39.9,55.8-81.9,63.8
	c-9.7,1.9-19.5,2.8-29.4,2.7c-9.8,0-19.5-0.9-29.2-2.6c-41.8-7.9-74.2-32.7-82-63.3c-11,7-21.2,15.3-30.2,24.7
	c-30.5,31.4-47.5,74-47.4,118.4l0.1,24.1c0.1,2.6,1.4,5.2,3.6,6.7h368.8c1.4-0.4,2.8-1.1,3.8-2.2c1.5-1.6,2.3-3.6,2.3-5.8
	L268.6,619.8z"/>
<path class="st3" d="M268.6,619.8c-0.1-44.4-17.4-86.9-48.1-118.1c-9.1-9.3-19.1-17.5-30.1-24.4c-7.6,31-39.9,55.8-81.9,63.8
	c-9.7,1.9-19.5,2.8-29.4,2.7c-9.8,0-19.5-0.9-29.2-2.6c-41.8-7.9-74.2-32.7-82-63.3c-11,7-21.2,15.3-30.2,24.7
	c-30.5,31.4-47.5,74-47.4,118.4l0.1,24.1c0.1,2.6,1.4,5.2,3.6,6.7h368.8c1.4-0.4,2.8-1.1,3.8-2.2c1.5-1.6,2.3-3.6,2.3-5.8
	L268.6,619.8z"/>
<g>
	<g>
		<g>
			<g>
				<defs>
					<path id="SVGID_1_" d="M268.6,619.8c-0.1-44.4-17.4-86.9-48.1-118.1c-9.1-9.3-19.1-17.5-30.1-24.4c-7.6,31-39.9,55.8-81.9,63.8
						c-9.7,1.9-19.5,2.8-29.4,2.7c-9.8,0-19.5-0.9-29.2-2.6c-41.8-7.9-74.2-32.7-82-63.3c-11,7-21.2,15.3-30.2,24.7
						c-30.5,31.4-47.5,74-47.4,118.4l0.1,24.1c0.1,2.6,1.4,5.2,3.6,6.7h368.8c1.4-0.4,2.8-1.1,3.8-2.2c1.5-1.6,2.3-3.6,2.3-5.8
						L268.6,619.8z"/>
				</defs>
				<clipPath id="SVGID_2_">
					<use xlink:href="#SVGID_1_"  style="overflow:visible;"/>
				</clipPath>
				<g class="st4">
					<path class="st5" d="M269.6,620.4C269,528.2,196.4,453.8,107,453.5h-0.5l-19.2,0.1c87.8,2.6,157.9,76.4,158.3,166.8l0.1,24.1
						c0,2.2-0.9,4.2-2.3,5.8c-1,1.1-2.4,1.9-3.8,2.2h24c1.4-0.4,2.8-1.1,3.8-2.2c1.5-1.6,2.3-3.6,2.3-5.8L269.6,620.4z"/>
				</g>
			</g>
		</g>
	</g>
</g>
<path class="st6" d="M149,644.5c-28.1-6.1-57.5-25-80.7-52.5s-36.5-59.2-36.6-87.1c-0.1-14.2,1.6-28.4,5-42.3
	c0.6-2.5,0.1-5.2-1.4-7.4c-0.7-1-1.6-1.7-2.6-2.3l3-0.3c-38.6,3.6-74.5,21.6-102.3,51.4c-31.1,33.6-48.3,78.3-47.9,124.6l0.1,24.4
	h269.8C155.6,648.9,152.9,645.3,149,644.5z"/>
<path class="st7" d="M35.4,456.3c1.5,2.1,2,4.8,1.4,7.3c-3.4,13.7-5,27.9-5,42.1c0.1,27.9,13.3,59.3,36.3,86.6s52,46.2,80,52.3
	c3.8,0.9,6.5,4.4,6.4,8.4h23.9c0-3.6-2.2-7-5.6-8.1c-0.2-0.1-0.5-0.1-0.7-0.2c-27.9-6.1-57.1-24.9-80-52.3s-36.2-58.8-36.3-86.6
	c0-14.1,1.7-28.2,5-42.1c0.6-2.5,0.1-5.2-1.4-7.3c-1.4-2.1-3.7-3.2-6.2-3.2h-3.7c-4,0-7.9,0.2-11.8,0.5h-0.5c-0.5,0-1,0.1-1.6,0.1
	l-2.9,0.3C33.9,454.7,34.8,455.4,35.4,456.3z"/>
<path class="st1" d="M269.5,643.9c0,2.2-0.8,4.2-2.2,5.8c-1,1.1-2.2,1.8-3.6,2.2h-22.8c1.3-0.4,2.6-1.1,3.6-2.2
	c1.4-1.6,2.2-3.6,2.2-5.8l0.3-21.6c8.2-9.6,14.8-20.6,19.6-32.4c0-0.1,0-0.1,0.1-0.2c1.7,9.9,2.6,19.9,2.5,29.9L269.5,643.9z"/>
<path class="st0" d="M247.2,643.9c0,2.2-0.9,4.2-2.4,5.8c-1,1.1-2.5,1.9-4,2.2h-34.5c15.3-7,29.2-17,40.9-29.4V643.9L247.2,643.9z"
	/>
<path class="st0" d="M-45.8,297.9H-46c-29.1,0.1-52.5,23.7-52.5,52.8c-0.1,14,5.5,27.3,15.5,37.1c10,9.9,17.7,15.3,37.1,15.3h0.2
	c29.1-0.4,52.2-24.4,51.8-53.3C5.6,321.2-17.4,298.3-45.8,297.9L-45.8,297.9z"/>
<path class="st0" d="M206.9,296.9h-0.2c-29.1,0.1-52.5,23.7-52.5,52.8c-0.1,14,5.5,27.3,15.5,37.1c9.9,9.9,23.2,15.3,37.1,15.3h0.2
	c29.1,0,52.6-23.6,52.5-52.6S236,296.9,206.9,296.9z"/>
<path class="st8" d="M205.9,338.2l0.1,34.9c0.3,74.4-55.2,135.1-123.4,135.3h-0.4c-3,0-6-0.1-8.9-0.3C9.3,503.1-41.5,445-41.6,374
	l-0.1-22.4c-10.9-20.9-16.5-44.1-16.4-67.7c-0.1-73.6,53.7-134,122.1-140.3h0.1c3.1-0.4,6.2-0.8,9.2-1l0,0c3.1-0.2,6.3-0.3,9.4-0.3
	c74,0,133.9,63.1,133.9,140.9C216.6,302,213,320.7,205.9,338.2z"/>
<path class="st9" d="M186.5,338.2l0.1,34.9c0.3,71.1-50.3,129.8-114.5,135C8.1,503.1-42.6,445-42.8,374l-0.1-22.4
	c-10.9-20.9-16.5-44.1-16.4-67.7c0-73.6,53.7-134,122.2-140.3H63c3.1-0.4,6.2-0.8,9.2-1l0,0c69.8,4.8,125,66,125,140.6
	C197.2,302.1,193.6,320.8,186.5,338.2z"/>
<path class="st10" d="M82.1,446.6c-10.2,0-20.1-3.8-27.6-10.8c-3.3-3.1-3.6-8.3-0.5-11.6c3.1-3.3,8.3-3.6,11.6-0.5
	c4.5,4.2,10.4,6.4,16.5,6.4h0.1c6.1,0,12-2.3,16.5-6.5c3.2-3.2,8.4-3.2,11.6,0s3.2,8.4,0,11.6c-0.1,0.1-0.3,0.3-0.5,0.4
	c-7.5,7-17.4,10.9-27.7,10.9C82.1,446.5,82.1,446.6,82.1,446.6L82.1,446.6z"/>
<path class="st0" d="M178.1,406.3c0,8.4-0.7,16.7-2.2,25.1c-0.4,3.2-2.6,5.9-5.7,6.9c-0.5,0.1-1.1,0.2-1.6,0.2
	c-2.5-0.1-4.6-1.3-5.9-3.5c-19.1-29.9-48.7-35.9-87.3-35.8c-34.9,0.1-61.1,2.1-79.8,26c-1.7,2.5-4.9,3.4-7.8,2.4
	c-3-1.3-4.9-4.2-5-7.5c-0.4-4.4-0.6-8.8-0.6-13l-0.3-135.5c0-0.2,0-0.5,0-0.7v-0.2c0-0.1,0-0.2,0-0.2c0-38.2,43.5-69.2,97-69.2
	c50.1,0,91.3,27.1,96.5,62c1.5,1.7,2.5,4.1,2.5,6.5v0.3c0,0.3,0,0.6,0,0.9L178.1,406.3z"/>
<path class="st11" d="M48.2,371.4c0-7.5-6.1-13.5-13.6-13.5s-13.5,6.1-13.5,13.6S27.2,385,34.7,385C42.1,385,48.2,378.9,48.2,371.4z
	"/>
<path class="st7" d="M50.5,350.1c-0.7,0-1.4-0.1-2.2-0.3l-31.9-8.4c-4.5-1.2-7.2-5.9-6.1-10.3c1.1-4.4,5.9-7.2,10.3-6.1l31.9,8.4
	c4.5,1.2,7.2,5.9,6.1,10.4C57.7,347.5,54.4,350.1,50.5,350.1L50.5,350.1z"/>
<path class="st11" d="M143.3,371.1c0-7.5-6.1-13.5-13.6-13.5s-13.5,6.1-13.5,13.6s6.1,13.5,13.6,13.5l0,0c7.4,0,13.4-5.9,13.5-13.3
	C143.4,371.3,143.4,371.2,143.3,371.1z"/>
<path class="st7" d="M113.9,349.9c-4.7,0-8.5-3.8-8.5-8.4c0-3.8,2.6-7.2,6.3-8.2l31.9-8.6c4.5-1.3,9.2,1.2,10.5,5.8
	c1.3,4.5-1.2,9.2-5.8,10.5c-0.1,0-0.2,0.1-0.3,0.1l-31.9,8.6C115.5,349.8,114.7,349.9,113.9,349.9z"/>
<path class="st12" d="M32.7,286h97.6c1.2,0,2.3,1,2.3,2.3v1.1c0,1.2-1,2.3-2.3,2.3H32.7c-1.2,0-2.3-1-2.3-2.3v-1.1
	C30.3,287.1,31.3,286,32.7,286z"/>
<path class="st10" d="M48.6,420.5l0.4,0.3c0.4,0.3,0.4,0.9,0.1,1.3l-12.3,14c-0.3,0.4-0.9,0.4-1.3,0.1l-0.4-0.3
	c-0.4-0.3-0.4-0.9-0.1-1.3l12.3-14C47.6,420.2,48.2,420.2,48.6,420.5z"/>
<path class="st10" d="M129.2,435.9l-0.4,0.3c-0.4,0.3-1,0.3-1.3-0.1l-12.3-14c-0.3-0.4-0.3-1,0.1-1.3l0.4-0.3c0.4-0.3,1-0.3,1.3,0.1
	l12.3,14C129.6,434.9,129.6,435.5,129.2,435.9z"/>
</svg>
