<?xml version="1.0" encoding="utf-8"?>
<!-- Generator: Adobe Illustrator 19.0.0, SVG Export Plug-In . SVG Version: 6.00 Build 0)  -->
<svg version="1.1" id="Layer_1" xmlns="http://www.w3.org/2000/svg" xmlns:xlink="http://www.w3.org/1999/xlink" x="0px" y="0px"
	 viewBox="-114 142.3 383 508.7" style="enable-background:new -114 142.3 383 508.7;" xml:space="preserve">
<style type="text/css">
	.st0{fill:#BABABA;}
	.st1{fill:#3F2016;}
	.st2{fill:#C6A89C;}
	.st3{fill:#B38B7B;}
	.st4{fill:#E8E8E8;}
	.st5{clip-path:url(#SVGID_2_);fill:#C2C6CC;}
	.st6{fill:#F8A814;}
	.st7{fill:#F8B53C;}
	.st8{fill:#F9CD45;}
	.st9{fill:#D8C58F;}
	.st10{fill:#F7E8A9;}
	.st11{fill:#4C350C;}
	.st12{fill:#825308;}
	.st13{fill:#897F79;}
	.st14{fill:#ECEDEF;}
	.st15{fill:#868686;}
	.st16{fill:#DCDBDD;}
</style>
<g>
	<ellipse class="st0" cx="-39.5" cy="384" rx="32" ry="35.9"/>
	<ellipse class="st0" cx="-11.5" cy="411.5" rx="32" ry="35.9"/>
	<ellipse class="st0" cx="202.3" cy="377.1" rx="32" ry="35.9"/>
	<ellipse class="st0" cx="172.3" cy="411.5" rx="32" ry="35.9"/>
	<circle class="st1" cx="83.4" cy="317" r="141.5"/>
	<path class="st2" d="M257,622.8c-0.1-40.3-16.1-78.4-44.9-107c-28.7-28.5-66.7-44.2-106.8-44.2c-0.2,0-0.3,0-0.5,0l-49.7,0.2
		c-40.3,0.1-78.4,16.1-107,44.9c-28.6,28.8-44.3,66.9-44.2,107.3l0.1,18.9c0,3.8,3.1,6.9,6.9,6.9H250c1.8,0,3.6-0.7,4.9-2s2-3,2-4.9
		L257,622.8z"/>
	<path class="st3" d="M257,622.8c-0.1-40.3-16.1-78.4-44.9-107c-28.7-28.5-66.7-44.2-106.8-44.2c-0.2,0-0.3,0-0.5,0l-17,0.1
		c38.7,1,75.2,16.5,102.9,44.1c28.8,28.6,44.8,66.7,44.9,107l0.1,19.9c0,1.8-0.7,3.6-2,4.9s-3,2-4.9,2H250c1.8,0,3.6-0.7,4.9-2
		s2-3,2-4.9v-19.9H257z"/>
	<g>
		<g>
			<path id="XMLID_40_" class="st4" d="M256.8,621.9c-0.1-40.1-16.1-77.8-44.9-106.3c-8.6-8.5-18-15.8-28.1-22
				c-7.1,27.9-37.2,50.2-76.4,57.4c-8.8,1.7-17.9,2.5-27.4,2.5c-9.4,0-18.5-0.8-27.2-2.4c-39.1-7.1-69.2-29.4-76.5-57
				c-10.2,6.2-19.5,13.7-28.2,22.3c-28.7,28.7-44.4,66.5-44.3,106.6l0.1,21.7c0.1,2.5,1.4,4.7,3.3,6h344c1.3-0.3,2.5-1,3.5-1.9
				c1.4-1.4,2.1-3.2,2.1-5.2L256.8,621.9L256.8,621.9z"/>
		</g>
		<g>
			<g>
				<g>
					<g>
						<defs>
							<path id="SVGID_1_" d="M256.8,621.9c-0.1-40.1-16.1-77.8-44.9-106.3c-8.6-8.5-18-15.8-28.1-22c-7.1,27.9-37.2,50.2-76.4,57.4
								c-8.8,1.7-17.9,2.5-27.4,2.5c-9.4,0-18.5-0.8-27.2-2.4c-39.1-7.1-69.2-29.4-76.5-57c-10.2,6.2-19.5,13.7-28.2,22.3
								c-28.7,28.7-44.4,66.5-44.3,106.6l0.1,21.7c0.1,2.5,1.4,4.7,3.3,6h344c1.3-0.3,2.5-1,3.5-1.9c1.4-1.4,2.1-3.2,2.1-5.2
								L256.8,621.9L256.8,621.9z"/>
						</defs>
						<clipPath id="SVGID_2_">
							<use xlink:href="#SVGID_1_"  style="overflow:visible;"/>
						</clipPath>
						<path class="st5" d="M259,623.1c-0.1-40.1-16.1-77.8-44.9-106.3c-28.7-28.3-66.7-43.9-106.8-43.9c-0.2,0-0.3,0-0.5,0L88.9,473
							c38.7,1,75.1,16.4,102.9,43.9c28.8,28.4,44.7,66.2,44.9,106.3l0.1,21.7c0,1.9-0.7,3.8-2.1,5.2c-0.9,0.9-2.1,1.7-3.5,1.9h22.4
							c1.3-0.3,2.5-1,3.5-1.9c1.4-1.4,2.1-3.2,2.1-5.2L259,623.1z"/>
					</g>
				</g>
			</g>
		</g>
	</g>
	<path class="st6" d="M54.4,638.5c-0.1-0.3-0.1-0.5-0.1-0.7c0.1-1,1.1-1.8,2.1-1.7c10.2,0.6,20.9-0.7,31.5-3.7
		c8.6-2.4,17.2-5.8,25.6-10.3c14.3-7.7,23.3-15.6,23.4-15.7c0.8-0.7,2-0.7,2.8-0.1c0.8,0.6,0.6,1.8-0.1,2.5
		c-0.4,0.4-9.4,8.4-24.2,16.2c-8.7,4.6-17.6,8.2-26.4,10.7c-11.1,3-22.2,4.3-32.8,3.8C55.3,639.6,54.8,639.1,54.4,638.5z"/>
	<path class="st7" d="M141.7,625.9c0.8-0.4,1.2-1.2,1.1-2c-0.1-0.3-1.5-6.6-6.6-8.8c-2.5-1-4.8-1.2-6.7-0.7s-3.5,1.8-4.4,3.5
		c-0.8,1.6-0.9,3.1-0.5,4.6c0.1,0.2,0.2,0.4,0.3,0.6c0.8,1.7,2.5,3,5,4C134.9,629.3,141.4,626.1,141.7,625.9z"/>
	<path class="st8" d="M129.9,616.4c1.5-1.4,2.3-3.4,2.7-6c0.6-5.4-4.4-9.7-4.6-9.9c-0.6-0.6-1.6-0.6-2.4-0.1c-0.3,0.2-6.4,4.1-7,9.3
		c-0.2,1.8-0.1,3.3,0.4,4.7c0.2,0.6,0.5,1,0.7,1.5c1.1,1.5,2.8,2.4,4.8,2.5C126.6,618.5,128.4,617.8,129.9,616.4z"/>
	<path class="st8" d="M126.2,634.9c0.8-0.4,1.2-1.2,1.1-2c-0.1-0.3-1.5-6.6-6.6-8.8c-2.5-1-4.8-1.2-6.7-0.7s-3.5,1.8-4.4,3.5
		c-0.8,1.6-0.9,3.1-0.5,4.6c0.1,0.2,0.2,0.4,0.3,0.6c0.8,1.7,2.5,3,5,4C119.4,638.2,125.9,635,126.2,634.9z"/>
	<path class="st7" d="M114.4,625.3c1.5-1.4,2.3-3.4,2.7-6c0.6-5.4-4.4-9.7-4.6-9.9c-0.6-0.6-1.6-0.6-2.4-0.1c-0.3,0.2-6.4,4.1-7,9.3
		c-0.2,1.8-0.1,3.3,0.4,4.7c0.2,0.6,0.5,1,0.7,1.5c1.1,1.5,2.8,2.4,4.8,2.5S112.9,626.7,114.4,625.3z"/>
	<path class="st9" d="M35.7,475.4c1.4,1.8,1.8,4.3,1.3,6.6c-3.1,12.4-4.7,25.1-4.6,37.9c0.1,25,12.4,53.4,33.6,77.9
		s48.2,41.5,74.1,47c3.5,0.7,5.9,4,5.9,7.6h22.3c0-3.3-2.1-6.4-5.2-7.3c-0.2-0.1-0.5-0.1-0.6-0.2c-25.9-5.4-52.9-22.4-74.1-47
		c-21.2-24.6-33.5-53-33.6-77.9c0-12.8,1.6-25.6,4.6-37.9c0.6-2.3,0.1-4.7-1.3-6.6s-3.5-3-5.7-3H49c-3.7,0-7.3,0.2-10.9,0.5
		c-0.2,0-0.3,0-0.5,0c-0.5,0-1,0.1-1.5,0.1c-0.9,0.1-1.8,0.2-2.7,0.3C34.3,473.8,35.1,474.5,35.7,475.4z"/>
	<path class="st10" d="M140.1,644.6c-25.9-5.4-52.9-22.4-74.1-47s-33.5-53-33.6-77.9c-0.1-12.7,1.5-25.5,4.6-37.9
		c0.6-2.2,0.1-4.7-1.3-6.6c-0.6-0.8-1.5-1.6-2.4-2c0.9-0.1,1.8-0.2,2.7-0.3c-35.5,3.2-68.4,19.3-94,46
		c-28.4,30-44.1,69.4-43.9,111.4l0.1,21.9H146C146,648.6,143.5,645.3,140.1,644.6z"/>
	<path class="st6" d="M146.2,595.6c-0.2-0.1-0.4-0.3-0.6-0.6c-0.6-0.8-0.3-2,0.6-2.7c8-6.3,15.2-14.2,21.3-23.4
		c4.9-7.4,9.1-15.6,12.6-24.6c5.8-15.1,7.3-27.1,7.3-27.1c0.1-1,1-1.8,2-1.8s1.7,0.9,1.6,2c-0.1,0.5-1.6,12.5-7.6,28.2
		c-3.5,9.2-7.9,17.7-12.9,25.4c-6.4,9.6-13.8,17.8-22.3,24.4C147.5,595.8,146.7,595.9,146.2,595.6z"/>
	<path class="st7" d="M203.8,528.9c0.4-0.8,0.1-1.8-0.6-2.2c-0.2-0.2-5.5-4.1-10.8-2.2c-2.5,0.8-4.4,2.2-5.5,3.9s-1.6,3.6-1.1,5.5
		c0.4,1.7,1.4,3,2.7,3.8c0.2,0.1,0.4,0.2,0.6,0.3c1.8,0.7,3.9,0.6,6.5-0.3C200.8,535.9,203.7,529.2,203.8,528.9z"/>
	<path class="st8" d="M188.5,529.5c0.2-2-0.5-4.2-1.9-6.3c-3-4.4-9.7-4.4-10-4.4c-0.8,0-1.6,0.6-1.8,1.5c-0.1,0.3-2.1,7.2,0.8,11.6
		c1,1.5,2.1,2.6,3.3,3.2c0.6,0.3,1,0.5,1.6,0.6c1.8,0.5,3.7,0,5.3-1.3C187.3,533.2,188.3,531.4,188.5,529.5z"/>
	<path class="st8" d="M197.8,545.8c0.4-0.8,0.1-1.8-0.6-2.2c-0.2-0.2-5.5-4.1-10.8-2.2c-2.5,0.8-4.4,2.2-5.5,3.9
		c-1.1,1.7-1.6,3.6-1.1,5.5c0.4,1.7,1.4,3,2.7,3.8c0.2,0.1,0.4,0.2,0.6,0.3c1.8,0.7,3.9,0.6,6.5-0.3
		C194.8,552.7,197.8,546.1,197.8,545.8z"/>
	<path class="st7" d="M182.7,546.4c0.2-2-0.5-4.2-1.9-6.3c-3-4.4-9.7-4.4-10-4.4c-0.8,0-1.6,0.6-1.8,1.5c-0.1,0.3-2.1,7.2,0.8,11.6
		c1,1.5,2.1,2.6,3.3,3.2c0.6,0.3,1,0.5,1.6,0.6c1.8,0.5,3.7,0,5.3-1.3C181.5,550.1,182.5,548.3,182.7,546.4z"/>
	<path class="st7" d="M188.3,563c-0.2-0.2-4.6-5.1-10.1-4.2c-2.6,0.4-4.6,1.4-6.1,2.9c-1.4,1.5-2.1,3.3-2,5.4c0.1,2,1,3.7,2.5,4.7
		c0.1,0.1,0.3,0.2,0.4,0.2c1.5,0.8,3.5,1.1,5.9,0.7c5.4-0.8,9.2-7,9.4-7.2C189,564.5,189,563.6,188.3,563z"/>
	<g>
		<path class="st8" d="M173.8,563c0.5-2,0.3-4.2-0.8-6.6c-2.1-5.1-8.7-6.3-9-6.3c-0.8-0.2-1.7,0.3-2,1.1c-0.1,0.3-3.3,6.8-1.1,11.8
			c0.9,2.2,2.2,3.8,3.7,4.6c0.1,0.1,0.3,0.1,0.4,0.2c1.7,0.7,3.5,0.6,5.3-0.3C172,566.6,173.3,564.9,173.8,563z"/>
		<path class="st8" d="M177,582.8c-0.2-0.3-3.6-6-9-6.2c-2.6-0.1-4.7,0.5-6.4,1.7c-1.6,1.2-2.6,3-2.9,5s0.4,3.9,1.7,5.2
			c0.4,0.4,0.8,0.7,1.4,1c1.2,0.6,2.7,1,4.5,1.1c5.4,0.2,10.2-5.3,10.3-5.4C177.5,584.5,177.5,583.6,177,582.8z"/>
		<path class="st8" d="M162.8,580.1c0.8-1.8,0.9-4.2,0.4-6.8c-1.2-5.4-7.3-7.8-7.6-7.9c-0.7-0.3-1.7,0-2.1,0.7
			c-0.2,0.3-4.3,6.2-3.1,11.6c0.6,2.6,1.7,4.5,3.1,5.6c0.2,0.1,0.4,0.3,0.6,0.4c1.4,0.7,3,0.8,4.6,0.3
			C160.7,583.3,162,581.9,162.8,580.1z"/>
		<path class="st8" d="M196.8,509.9c0.6-5.7-4.2-10.2-4.3-10.4c-0.6-0.6-1.5-0.6-2.2-0.1c-0.3,0.2-6,4.4-6.6,10.2
			c-0.3,2.8,0.1,5,1.1,6.6c0.5,0.8,1.2,1.4,1.9,1.8c0.7,0.5,1.7,0.6,2.6,0.6c1.9,0.1,3.7-0.7,5-2.2S196.5,512.7,196.8,509.9z"/>
	</g>
	<circle class="st11" cx="144.5" cy="594.1" r="16"/>
	<circle class="st12" cx="144.3" cy="593.9" r="9.8"/>
	<path class="st2" d="M-21.5,330.1L-21.5,330.1c-21,0.1-37.9,21.2-37.9,47.2c0,12.6,4,24.4,11.2,33.2c7.1,8.9,16.6,13.7,26.7,13.7
		h0.1c20.9-0.1,37.8-21.2,37.8-47.2C16.3,351.2-0.7,330.1-21.5,330.1z"/>
	<path class="st2" d="M184.7,329.4L184.7,329.4c-21.6,0.1-39.1,21.2-39,47.2c0,12.6,4.2,24.4,11.5,33.2c7.4,8.9,17.1,13.7,27.5,13.7
		h0.1c21.5-0.1,39-21.2,38.9-47.2C223.5,350.3,206,329.4,184.7,329.4z"/>
	<path class="st2" d="M187,312.2c-0.1-22.9-16.8-41.5-37.3-41.5H13c-10,0-19.4,4.3-26.4,12.3c-7,7.9-10.9,18.4-10.9,29.5l0.2,81.1
		c0.1,65,47.5,117.7,105.7,117.7H82c58.3-0.2,105.5-53.3,105.3-118.4L187,312.2z"/>
	<path class="st13" d="M82.3,463.4c-9,0-17.7-3.3-24.4-9.5c-2.9-2.6-3-7-0.5-9.8c2.6-2.9,7-3,9.8-0.5c4.1,3.8,9.4,5.8,15,5.8h0.1
		c5.6,0,10.9-2.1,15-5.9c2.9-2.6,7.2-2.4,9.8,0.4c2.6,2.9,2.4,7.2-0.4,9.8C100.1,459.9,91.4,463.4,82.3,463.4
		C82.4,463.4,82.3,463.4,82.3,463.4z"/>
	<path class="st14" d="M40.7,350.2c9,0,17.7,1.7,24.4,4.7c2.9,1.3,3,3.5,0.5,4.9c-2.6,1.4-7,1.5-9.8,0.2c-4.1-1.8-9.4-3-15-3h-0.1
		c-5.6,0-10.9,1-15,3c-2.9,1.3-7.2,1.2-9.8-0.2c-2.6-1.4-2.4-3.6,0.4-4.9C22.9,351.8,31.6,350.1,40.7,350.2L40.7,350.2z"/>
	<path class="st14" d="M127.3,350.2c9,0,17.7,1.7,24.4,4.7c2.9,1.3,3,3.5,0.5,4.9c-2.6,1.4-7,1.5-9.8,0.2c-4.1-1.8-9.4-3-15-3h-0.1
		c-5.6,0-10.9,1-15,3c-2.9,1.3-7.2,1.2-9.8-0.2c-2.6-1.4-2.4-3.6,0.4-4.9C109.4,351.8,118.2,350.1,127.3,350.2
		C127.2,350.2,127.3,350.2,127.3,350.2z"/>
	<path class="st15" d="M53.3,386.4c0-6.5-5.3-11.6-11.7-11.6S30,380.1,30,386.5c0,6.5,5.3,11.6,11.7,11.6S53.4,392.8,53.3,386.4z"/>
	<path class="st15" d="M135.9,386.2c0-6.5-5.3-11.7-11.7-11.6c-6.5,0-11.7,5.3-11.6,11.7c0,6.5,5.3,11.7,11.7,11.6
		C130.7,397.8,135.9,392.6,135.9,386.2z"/>
	<circle class="st16" cx="26.8" cy="217.3" r="70.4"/>
	<circle class="st16" cx="133.9" cy="216.2" r="67.6"/>
	<circle class="st16" cx="201.5" cy="311.7" r="28"/>
	<circle class="st16" cx="206.3" cy="341.1" r="23.4"/>
	<circle class="st16" cx="187.3" cy="271.3" r="43.7"/>
	<circle class="st16" cx="83.4" cy="245.3" r="55.6"/>
	<circle class="st16" cx="165.5" cy="266" r="47.5"/>
	<circle class="st16" cx="160" cy="254.3" r="47.5"/>
	<circle class="st16" cx="6.2" cy="271.6" r="44"/>
	<ellipse class="st16" cx="-49.9" cy="306.7" rx="34.4" ry="34.4"/>
	<circle class="st16" cx="-55.4" cy="344.1" r="28.6"/>
	<circle class="st16" cx="-41" cy="261.1" r="43.8"/>
</g>
</svg>
