<?xml version="1.0" encoding="utf-8"?>
<!-- Generator: Adobe Illustrator 19.0.0, SVG Export Plug-In . SVG Version: 6.00 Build 0)  -->
<svg version="1.1" id="Layer_1" xmlns="http://www.w3.org/2000/svg" xmlns:xlink="http://www.w3.org/1999/xlink" x="0px" y="0px"
	 viewBox="-114 142.3 383 508.7" style="enable-background:new -114 142.3 383 508.7;" xml:space="preserve">
<style type="text/css">
	.st0{fill:#F0BCA6;}
	.st1{fill:#E6B09A;}
	.st2{fill:#F2CA70;}
	.st3{clip-path:url(#SVGID_2_);}
	.st4{fill:#D8AD56;}
	.st5{fill:#FFF4F1;}
	.st6{fill:#ECEDEF;}
	.st7{fill:#B2A1A1;}
	.st8{fill:#C2B4B4;}
	.st9{fill:#D0CFD1;}
	.st10{fill:#DCDBDD;}
	.st11{fill:#979797;}
	.st12{fill:#868686;}
	.st13{fill:#6B260B;}
	.st14{fill:none;}
</style>
<title>old</title>
<path class="st0" d="M-108.4,650.9H262c1.4-0.4,2.7-1.1,3.8-2.1c1.5-1.5,2.3-3.5,2.3-5.6l-0.1-23.5
	c-0.5-89.9-73.4-162.6-163.4-162.9h-0.5L50.7,457c-90,0.6-162.8,73.8-162.8,163.9l0.1,23.5C-111.9,647.1-110.6,649.5-108.4,650.9z"
	/>
<path class="st1" d="M268,619.7c-0.5-89.9-73.4-162.6-163.4-162.9h-0.5l-19.3,0.1c88.2,2.6,158.6,74.5,159.1,162.8l0.1,23.5
	c0,2.1-0.8,4.1-2.3,5.6c-1,1.1-2.4,1.8-3.8,2.1H262c1.4-0.4,2.7-1.1,3.8-2.1c1.5-1.5,2.3-3.5,2.3-5.6L268,619.7z"/>
<path class="st2" d="M269,619.7c-0.1-43.3-17.5-84.8-48.4-115.2c-9.3-9.2-19.6-17.3-30.7-24.1c0.4,1.6,0.5,3.3,0.5,5
	c0,30-56.1,54.4-125.1,54.4c-58.8,0-108-17.6-121.5-41.3c-2.5,2.2-4.9,4.5-7.3,6.9c-30.7,30.5-47.9,72.1-47.7,115.4l0.1,23.5
	c0.1,2.6,1.4,5,3.6,6.5h370.4c1.4-0.4,2.7-1.1,3.8-2.1c1.5-1.5,2.3-3.5,2.3-5.6L269,619.7z"/>
<g>
	<g>
		<g>
			<g>
				<defs>
					<path id="SVGID_1_" d="M269,619.7c-0.1-43.3-17.5-84.8-48.4-115.2c-9.3-9.2-19.6-17.3-30.7-24.1c0.4,1.6,0.5,3.3,0.5,5
						c0,30-56.1,54.4-125.1,54.4c-58.8,0-108-17.6-121.5-41.3c-2.5,2.2-4.9,4.5-7.3,6.9c-30.7,30.5-47.9,72.1-47.7,115.4l0.1,23.5
						c0.1,2.6,1.4,5,3.6,6.5h370.4c1.4-0.4,2.7-1.1,3.8-2.1c1.5-1.5,2.3-3.5,2.3-5.6L269,619.7z"/>
				</defs>
				<clipPath id="SVGID_2_">
					<use xlink:href="#SVGID_1_"  style="overflow:visible;"/>
				</clipPath>
				<g class="st3">
					<path class="st4" d="M268,619.7c-0.5-89.9-73.4-162.6-163.4-162.9h-0.5l-19.3,0.1c88.2,2.6,158.6,74.5,159.1,162.8l0.1,23.5
						c0,2.1-0.8,4.1-2.3,5.6c-1,1.1-2.4,1.8-3.8,2.1H262c1.4-0.4,2.7-1.1,3.8-2.1c1.5-1.5,2.3-3.5,2.3-5.6L268,619.7z"/>
				</g>
			</g>
		</g>
	</g>
</g>
<path class="st5" d="M148.5,642.6c-28-5.9-57.4-24.3-80.4-51s-36.3-57.5-36.4-84.5c-0.1-13.8,1.6-27.6,5-41c0.6-2.5,0.1-5.1-1.4-7.1
	c-0.7-0.9-1.6-1.7-2.6-2.2l2.9-0.3c-38.4,3.5-74.2,20.9-101.9,49.9c-30.9,32.6-48,75.9-47.7,120.9l0.1,23.7h268.8
	C155,647,152.4,643.5,148.5,642.6z"/>
<path class="st6" d="M35.4,459.1c1.5,2,2,4.6,1.4,7.1c-3.4,13.4-5.1,27.2-5,41c0.1,27.1,13.4,57.9,36.4,84.5s52.3,45,80.4,51
	c3.8,0.9,6.5,4.3,6.4,8.2h24.1c0-3.6-2.2-6.8-5.6-7.9c-0.2-0.1-0.5-0.1-0.7-0.2c-28-5.9-57.4-24.3-80.4-51S56.1,534.3,56,507.3
	c0-13.8,1.7-27.6,5-41c0.6-2.5,0.1-5.1-1.4-7.1s-3.8-3.2-6.2-3.2h-3.7c-4,0-7.9,0.2-11.8,0.5h-0.5c-0.5,0-1.1,0.1-1.6,0.1l-2.9,0.3
	C33.8,457.5,34.7,458.2,35.4,459.1z"/>
<path class="st7" d="M269,643.2c0,2.1-0.8,4.1-2.3,5.6c-1.1,1-2.4,1.8-3.8,2.1h-24.1c1.4-0.3,2.8-1.1,3.8-2.1
	c1.5-1.5,2.3-3.5,2.3-5.6l0.3-21c8.6-9.3,15.6-20,20.8-31.5c0-0.1,0-0.1,0.1-0.2c1.8,9.6,2.7,19.4,2.6,29.1L269,643.2z"/>
<path class="st8" d="M245.4,643.2c0,2.1-0.9,4.2-2.5,5.6c-1.2,1.1-2.6,1.8-4.2,2.1h-36.5c16.1-6.7,30.8-16.5,43.3-28.7L245.4,643.2
	L245.4,643.2z"/>
<path class="st1" d="M212,372.4l0.1,35.1c0.3,74.7-55.4,135.6-123.9,135.9h-0.4c-3,0-6-0.1-9-0.4c-64.3-5-115.1-63.4-115.3-134.6
	l-0.1-22.5c-10.9-21-16.6-44.3-16.5-68C-53.1,244,0.8,183.3,69.5,177h0.1c3-0.5,6.1-0.8,9.3-1l0,0c3.1-0.2,6.3-0.3,9.4-0.3
	c74.2,0,134.4,63.3,134.4,141.4C222.8,336,219.1,354.8,212,372.4z"/>
<path class="st0" d="M192.6,372.4l0.1,35.1C193,478.9,142.1,537.8,77.8,543c-64.3-5-115.2-63.4-115.3-134.6l-0.1-22.5
	c-10.9-21-16.6-44.3-16.5-68C-54.1,244-0.2,183.3,68.5,177l0,0c3.1-0.5,6.1-0.8,9.3-1l0,0c70.1,4.8,125.5,66.2,125.5,141.1
	C203.3,336,199.7,354.8,192.6,372.4z"/>
<path class="st7" d="M-40.7,332.4h-0.2c-29.2,0.1-52.7,23.8-52.7,53c-0.1,14,5.6,27.4,15.5,37.2c10,9.9,17.7,15.3,37.2,15.3h0.2
	c29.1-0.4,52.4-24.4,52-53.5C11,355.8-12.1,332.8-40.7,332.4L-40.7,332.4z"/>
<path class="st7" d="M213,331.6h-0.2c-29.2,0.1-52.7,23.8-52.7,53c-0.1,14,5.5,27.4,15.5,37.3c9.9,9.9,23.3,15.4,37.2,15.3h0.2
	c29.1,0,52.7-23.7,52.7-52.8C265.8,355.2,242.1,331.6,213,331.6L213,331.6L213,331.6z"/>
<path class="st9" d="M212,373l0.1,35.1c0.3,74.7-55.4,135.6-123.9,135.9h-0.4c-3,0-6-0.1-9-0.4h-0.6c-64-5.3-114.6-63.5-114.8-134.6
	l-0.1-22.5c-22.2-43-22-94,0.5-136.8c9.9,9.7,21.3,17.7,33.8,23.6c16.1-22.5,48.9-38,86.8-38c36.1,0,67.7,14.1,84.5,34.9
	c7.4-4,14.4-8.8,20.9-14.2c4.6-3.9,8.9-8.1,12.8-12.7C225.5,282.8,229,330.6,212,373L212,373z"/>
<path class="st10" d="M-36.9,248.9c-22.8,42.9-23.2,94.3-0.9,137.5l0.1,22.5c0.2,71.3,51.1,129.6,115.3,134.6h0.5
	c43.1-3.7,80.1-31.5,99.7-71c1.7-3.5,3.3-7,4.7-10.6c6.7-17.1,10.1-35.4,10-53.8l-0.1-35c15.2-37.7,14.2-80-2.7-117
	c-6.5,5.4-13.5,10.1-20.9,14.2c-16.8-20.9-48.4-34.9-84.5-34.9c-37.9,0-70.7,15.4-86.8,38c-12.5-6-23.9-14-33.8-23.7L-36.9,248.9z"
	/>
<path class="st11" d="M87.7,485.1c-10.6,0-20.7-3.9-28.5-11.1c-3.4-3.2-3.6-8.6-0.4-12c3.2-3.4,8.4-3.6,11.9-0.5
	c4.6,4.3,10.7,6.6,17.1,6.6h0.1c6.3,0,12.4-2.4,17-6.7c3.4-3.2,8.8-3,12,0.5s3,8.8-0.5,12C108.6,481.1,98.4,485.1,87.7,485.1
	C87.8,485.1,87.8,485.1,87.7,485.1z"/>
<path class="st7" d="M184.1,441.2c0,6.9-0.5,13.8-1.5,20.7c-0.2,1.5-0.4,3-0.7,4.5c-0.4,2.5-1.8,4.8-4,6.2c-1,0.6-2.1,0.9-3.3,0.9
	c-2.4-0.1-4.7-1.4-5.9-3.5c-19.2-30-48.9-36-87.6-35.9C46,434.2,19.7,436.2,1,460.2c-1.8,2.5-5,3.4-7.8,2.4
	c-2.9-1.4-4.9-4.3-5.1-7.5c-0.4-4.5-0.6-8.9-0.6-13.1l-0.3-136c0-0.2,0-0.5,0-0.7v-0.2c0-0.1,0-0.2,0-0.3c0-11.3,3.8-22,10.6-31.5
	c16.1-22.5,48.9-38,86.8-38c36.1,0,67.7,14.1,84.5,34.9c6.5,7.8,10.7,17.2,12.3,27.2c1.6,1.8,2.4,4.1,2.4,6.5v0.3c0,0.3,0,0.6,0,0.9
	L184.1,441.2z"/>
<path class="st12" d="M53.6,406.3c0-7.5-6.1-13.5-13.6-13.5s-13.5,6.1-13.5,13.6s6.1,13.5,13.6,13.5S53.6,413.8,53.6,406.3z"/>
<path class="st6" d="M56,384.9c-0.7,0-1.5-0.1-2.2-0.3l-31.9-8.4c-4.5-1.2-7.2-5.9-6-10.4s5.8-7.1,10.3-6l31.9,8.4
	c4.5,1.2,7.3,5.8,6.1,10.4C63.2,382.2,59.9,384.8,56,384.9z"/>
<path class="st12" d="M149.2,406c0-7.5-6.1-13.5-13.6-13.5s-13.5,6.1-13.5,13.6s6.1,13.5,13.6,13.5l0,0c7.4,0.1,13.4-5.9,13.5-13.3
	C149.2,406.2,149.2,406.1,149.2,406z"/>
<path class="st6" d="M119.7,384.6c-4.7,0-8.5-3.9-8.5-8.6c0-3.8,2.6-7.1,6.2-8.2l31.9-8.6c4.5-1.4,9.3,1.2,10.6,5.7
	c1.4,4.5-1.2,9.3-5.7,10.6c-0.1,0-0.3,0.1-0.4,0.1l-31.9,8.6C121.2,384.5,120.4,384.6,119.7,384.6z"/>
<path class="st13" d="M38,320.6h98.1c1.2,0,2.2,1,2.2,2.2v1.3c0,1.2-1,2.2-2.2,2.2H38c-1.2,0-2.2-1-2.2-2.2v-1.3
	C35.8,321.6,36.8,320.6,38,320.6z"/>
<path class="st11" d="M54,455.6l0.4,0.4c0.4,0.3,0.4,0.9,0.1,1.3L42,471.4c-0.3,0.4-0.9,0.4-1.3,0.1l-0.4-0.4
	c-0.4-0.3-0.4-0.9-0.1-1.3l12.5-14.1C53,455.3,53.6,455.2,54,455.6z"/>
<path class="st11" d="M134.9,471l-0.4,0.4c-0.4,0.3-1,0.3-1.3-0.1l-12.5-14.1c-0.3-0.4-0.3-1,0.1-1.3l0.4-0.4c0.4-0.3,1-0.3,1.3,0.1
	l12.5,14.1C135.4,470,135.3,470.6,134.9,471z"/>
<path class="st8" d="M168.9,270.2c-24.1,13.2-55,21.1-88.6,21.1c-30.9,0-59.6-6.7-82.7-18.1c16.1-22.5,48.9-38,86.8-38
	C120.6,235.2,152.1,249.3,168.9,270.2z"/>
<path class="st14" d="M-36.2,249.6l-0.7-0.7"/>
<circle class="st9" cx="5.7" cy="240.9" r="58.1"/>
<circle class="st10" cx="3" cy="234.2" r="58.1"/>
<circle class="st9" cx="161.4" cy="240.9" r="60.3"/>
<circle class="st10" cx="161.4" cy="232.2" r="60.3"/>
<circle class="st9" cx="90.1" cy="219.9" r="69.9"/>
<circle class="st10" cx="90.1" cy="212.2" r="69.9"/>
</svg>
