<?xml version="1.0" encoding="utf-8"?>
<!-- Generator: Adobe Illustrator 19.0.0, SVG Export Plug-In . SVG Version: 6.00 Build 0)  -->
<svg version="1.1" id="Layer_1" xmlns="http://www.w3.org/2000/svg" xmlns:xlink="http://www.w3.org/1999/xlink" x="0px" y="0px"
	 viewBox="-114 142.3 383 508.7" style="enable-background:new -114 142.3 383 508.7;" xml:space="preserve">
<style type="text/css">
	.st0{fill:#DCDBDD;}
	.st1{fill:#A19994;}
	.st2{fill:#897F79;}
	.st3{fill:#D38537;}
	.st4{clip-path:url(#SVGID_2_);fill:#9B5A1F;}
	.st5{fill:#F8A814;}
	.st6{fill:#F8B53C;}
	.st7{fill:#F9CD45;}
	.st8{fill:#DDDDDD;}
	.st9{fill:#F4F0EF;}
	.st10{fill:#BABABA;}
	.st11{fill:#ECEDEF;}
	.st12{fill:#868686;}
	.st13{fill:#4C350C;}
	.st14{fill:#825308;}
</style>
<g>
	<path class="st0" d="M198.6,196.7c-31-31-72.1-48.1-115.7-48.1s-84.6,17.2-115.7,48.1s-48.1,72.1-48.1,115.7v233.9
		c0,4.1,3.3,7.4,7.4,7.4h312.7c4.1,0,7.4-3.3,7.4-7.4v-234C246.8,268.7,229.6,227.6,198.6,196.7z"/>
	<path class="st1" d="M-34.3,311.1c-0.1,0-0.1,0-0.2,0c-27.6,0.1-50,22.6-49.9,50.2c0,13.4,5.3,25.9,14.7,35.3
		c9.4,9.4,22,14.5,35.2,14.5h0.2c27.6-0.1,50-22.6,49.9-50.2C15.8,333.4-6.8,311.1-34.3,311.1z"/>
	<path class="st1" d="M267.8,622.4c-0.1-42.9-17.1-83.4-47.7-113.8c-30.5-30.3-70.9-47-113.6-47c-0.2,0-0.3,0-0.5,0l-52.8,0.2
		c-42.9,0.1-83.4,17.1-113.8,47.7s-47.1,71.2-47,114.1l0.1,20.1c0,4,3.3,7.4,7.4,7.4h360.6c2,0,3.8-0.8,5.2-2.2
		c1.4-1.4,2.2-3.2,2.2-5.2v-21.4L267.8,622.4L267.8,622.4z"/>
	<path class="st2" d="M267.8,622.4c-0.1-42.9-17.1-83.4-47.7-113.8c-30.5-30.3-70.9-47-113.6-47c-0.2,0-0.3,0-0.5,0l-18.1,0.1
		c41.1,1.1,79.9,17.6,109.4,46.9c30.6,30.4,47.6,70.9,47.7,113.8l0.1,21.2c0,2-0.8,3.8-2.2,5.2c-1.4,1.4-3.2,2.2-5.2,2.2h22.7
		c2,0,3.8-0.8,5.2-2.2c1.4-1.4,2.2-3.2,2.2-5.2V622.4z"/>
	<g>
		<g>
			<path id="XMLID_49_" class="st3" d="M267.8,621.3c-0.1-42.6-17.1-82.8-47.7-113c-9.1-9-19.1-16.8-29.8-23.4
				c-7.6,29.6-39.6,53.4-81.3,61.1c-9.3,1.8-19,2.7-29.2,2.7c-10,0-19.6-0.9-29-2.6c-41.5-7.6-73.6-31.2-81.4-60.6
				c-10.8,6.6-20.7,14.5-29.9,23.7c-30.5,30.4-47.2,70.7-47.1,113.3l0.1,23.1c0.1,2.7,1.5,5,3.5,6.4h365.8c1.4-0.3,2.7-1.1,3.7-2.1
				c1.5-1.5,2.3-3.4,2.3-5.5V621.3z"/>
		</g>
		<g>
			<g>
				<g>
					<g>
						<g>
							<g>
								<g>
									<g>
										<defs>
											<path id="SVGID_1_" d="M267.8,621.3c-0.1-42.6-17.1-82.8-47.7-113c-9.1-9-19.1-16.8-29.8-23.4
												c-7.6,29.6-39.6,53.4-81.3,61.1c-9.3,1.8-19,2.7-29.2,2.7c-10,0-19.6-0.9-29-2.6c-41.5-7.6-73.6-31.2-81.4-60.6
												c-10.8,6.6-20.7,14.5-29.9,23.7c-30.5,30.4-47.2,70.7-47.1,113.3l0.1,23.1c0.1,2.7,1.5,5,3.5,6.4h365.8
												c1.4-0.3,2.7-1.1,3.7-2.1c1.5-1.5,2.3-3.4,2.3-5.5V621.3z"/>
										</defs>
										<clipPath id="SVGID_2_">
											<use xlink:href="#SVGID_1_"  style="overflow:visible;"/>
										</clipPath>
										<path class="st4" d="M268.9,621.9c-0.1-42.6-17.1-82.8-47.7-113c-30.5-30.1-70.9-46.7-113.6-46.7c-0.2,0-0.3,0-0.5,0
											l-19,0.1c41.1,1.1,79.8,17.5,109.4,46.6c30.6,30.2,47.5,70.4,47.7,113l0.1,23.1c0,2.1-0.8,4-2.3,5.5c-1,1-2.3,1.8-3.7,2.1
											h23.9c1.4-0.3,2.7-1.1,3.7-2.1c1.5-1.5,2.3-3.4,2.3-5.5L268.9,621.9z"/>
									</g>
								</g>
							</g>
						</g>
					</g>
				</g>
			</g>
		</g>
	</g>
	<g>
		<path class="st5" d="M60.1,647.2c-0.1-0.2-0.2-0.5-0.2-0.8c-0.1-1.1,0.8-2.1,1.9-2.2c10.8-1.5,21.6-4.9,32.1-10.1
			c8.4-4.2,16.7-9.5,24.6-15.9c13.5-10.8,21.1-20.9,21.2-21c0.7-0.9,2-1.2,2.8-0.6c0.9,0.6,1.1,1.8,0.4,2.7
			c-0.3,0.4-8.1,10.7-22,21.9c-8.1,6.6-16.7,12.1-25.4,16.5c-11,5.4-22.2,9-33.5,10.6C61.3,648.1,60.4,647.8,60.1,647.2z"/>
		<path class="st6" d="M148.6,616.6c0.8-0.6,1.1-1.6,0.7-2.4c-0.1-0.3-2.9-6.7-8.7-7.8c-2.7-0.6-5.2-0.4-7.2,0.6
			c-2,0.9-3.3,2.6-3.9,4.5c-0.5,1.8-0.4,3.4,0.5,4.9c0.1,0.2,0.3,0.4,0.4,0.6c1.2,1.6,3.2,2.7,6.1,3.1
			C142.3,621.4,148.4,616.8,148.6,616.6z"/>
		<path class="st7" d="M134.3,608.9c1.3-1.8,1.8-4,1.6-6.8c-0.4-5.7-6.6-9.2-6.9-9.4c-0.8-0.4-1.8-0.3-2.5,0.4
			c-0.2,0.2-5.8,5.5-5.5,11.2c0.1,2,0.6,3.5,1.4,4.8c0.3,0.5,0.7,1,1.1,1.4c1.4,1.4,3.3,1.9,5.5,1.6
			C131.3,611.8,133.1,610.7,134.3,608.9z"/>
		<path class="st7" d="M134.3,628.9c0.8-0.6,1.1-1.6,0.7-2.4c-0.1-0.3-2.9-6.7-8.7-7.8c-2.7-0.6-5.2-0.4-7.2,0.6
			c-2,0.9-3.3,2.6-3.9,4.5c-0.6,1.8-0.4,3.4,0.5,4.9c0.1,0.2,0.3,0.4,0.4,0.6c1.2,1.6,3.2,2.7,6.1,3.1
			C127.8,633.7,133.9,629.1,134.3,628.9z"/>
		<path class="st6" d="M120,621.3c1.3-1.8,1.8-4,1.6-6.8c-0.4-5.7-6.6-9.2-6.9-9.4c-0.8-0.4-1.8-0.3-2.5,0.4
			c-0.2,0.2-5.8,5.5-5.5,11.2c0.1,2,0.6,3.5,1.4,4.8c0.3,0.5,0.7,1,1.1,1.4c1.4,1.4,3.3,1.9,5.5,1.6
			C116.9,624.2,118.8,622.9,120,621.3z"/>
		<path class="st6" d="M116.3,639.7c-0.1-0.3-1.6-7.2-7-9.2c-2.7-1-5-1.3-7.1-0.6c-2.1,0.6-3.7,2-4.7,3.9c-1,1.9-1,3.9-0.2,5.7
			c0.1,0.1,0.1,0.3,0.2,0.4c1,1.6,2.7,2.8,5,3.8c5.4,2.2,12.3-1.5,12.6-1.7C116,641.4,116.5,640.6,116.3,639.7z"/>
		<g>
			<path class="st7" d="M102.9,631.9c1.6-1.6,2.5-3.7,2.8-6.6c0.7-5.8-4.6-10.3-4.8-10.5c-0.7-0.6-1.7-0.6-2.5-0.1
				c-0.3,0.2-6.7,4.5-7.4,10.3c-0.3,2.6,0,4.6,1,6.3c0.1,0.1,0.2,0.3,0.3,0.4c1.1,1.6,2.9,2.5,5,2.6
				C99.4,634.2,101.4,633.4,102.9,631.9z"/>
			<path class="st7" d="M95.3,651.9c0-0.3-0.2-7.5-5-10.5c-2.4-1.5-4.6-2.1-6.8-1.9c-2.1,0.2-3.9,1.4-5.3,3
				c-1.3,1.8-1.8,3.7-1.2,5.6c0.2,0.6,0.4,1.2,0.7,1.7c0.8,1.3,2,2.4,3.5,3.4c4.8,3,12.2,0.6,12.5,0.5
				C94.8,653.7,95.3,652.8,95.3,651.9z"/>
			<path class="st7" d="M83.8,641.8c1.8-1.3,3.1-3.3,3.9-6.1c1.8-5.7-2.6-11.2-2.7-11.4c-0.5-0.7-1.5-0.9-2.4-0.5
				c-0.3,0.1-7.3,3.3-9,9c-0.9,2.7-0.9,5-0.1,6.9c0.1,0.2,0.2,0.4,0.3,0.7c0.9,1.4,2.3,2.4,4.1,2.7
				C79.9,643.6,82.1,643.1,83.8,641.8z"/>
			<path class="st7" d="M152.4,595.4c3.6-4.9,1.7-11.7,1.6-12c-0.3-0.8-1.1-1.4-2-1.3c-0.3,0-7.9,0.9-11.5,5.8
				c-1.8,2.4-2.6,4.6-2.6,6.6c0,1,0.3,2,0.8,2.7c0.5,0.8,1.2,1.5,2,2c1.8,1.1,3.8,1.3,5.8,0.6C148.6,599.3,150.5,597.7,152.4,595.4z
				"/>
		</g>
	</g>
	<path class="st8" d="M33.6,467.4c1.5,2,2,4.5,1.4,6.9c-3.3,13-5,26.3-4.9,39.7c0.1,26.2,13.2,55.9,35.7,81.7
		c22.6,25.6,51.2,43.6,78.8,49.3c3.7,0.8,6.3,4.1,6.3,8h23.7c0-3.4-2.3-6.7-5.5-7.7c-0.2-0.1-0.5-0.1-0.7-0.2
		c-27.5-5.7-56.3-23.6-78.8-49.3C67,570.1,54,540.2,53.9,514.1c0-13.4,1.7-26.8,4.9-39.7c0.6-2.5,0.1-4.9-1.4-6.9s-3.7-3.1-6.1-3.1
		h-3.6c-3.9,0-7.8,0.2-11.6,0.5c-0.2,0-0.3,0-0.5,0c-0.5,0-1.1,0.1-1.6,0.1c-1,0.1-1.9,0.2-2.8,0.3C32,465.8,32.9,466.6,33.6,467.4z
		"/>
	<path class="st9" d="M144.5,644.8c-27.5-5.7-56.3-23.6-78.8-49.3S30.1,539.9,30,513.8c-0.1-13.3,1.6-26.7,4.9-39.7
		c0.6-2.4,0.1-4.9-1.4-6.9c-0.7-0.9-1.6-1.7-2.6-2.2c1-0.1,1.9-0.2,2.8-0.3C-4,468.1-39,484.9-66.2,512.9
		c-30.2,31.6-46.9,72.9-46.7,117l0.1,23h263.6C150.9,648.9,148.3,645.4,144.5,644.8z"/>
	<path class="st1" d="M198.4,310.3c-0.1,0-0.1,0-0.2,0c-27.6,0.1-50,22.6-49.9,50.2c0,13.4,5.3,25.9,14.7,35.3
		c9.4,9.4,22,14.5,35.2,14.5h0.2c27.6-0.1,50-22.6,49.9-50.2C248.4,332.6,225.9,310.3,198.4,310.3z"/>
	<path class="st1" d="M192.9,313.8c-0.1-22.3-18.3-40.4-40.5-40.4H3.8c-10.9,0-21,4.2-28.8,11.9c-7.7,7.7-11.9,17.9-11.9,28.7
		l0.2,78.7C-36.5,455.8,14.9,507,78.2,507h0.4c63.3-0.2,114.7-51.7,114.5-115L192.9,313.8z"/>
	<path class="st2" d="M192.9,313.8c-0.1-22.3-17.6-40.4-39.1-40.4h-19c21.5,0,39,18.2,39.1,40.4l0.2,78.2
		c0.2,60-44.4,109.6-101,114.6c3.1,0.3,6.3,0.4,9.5,0.4h0.3c61-0.2,110.4-51.7,110.2-115L192.9,313.8z"/>
	
		<ellipse transform="matrix(-0.3592 -0.9333 0.9333 -0.3592 -386.5745 389.7363)" class="st10" cx="-59.5" cy="327.6" rx="45" ry="30.6"/>
	
		<ellipse transform="matrix(-0.3592 -0.9333 0.9333 -0.3592 -390.308 378.5714)" class="st0" cx="-65.2" cy="323.3" rx="45" ry="30.6"/>
	<path class="st2" d="M82,452.9c-9.6,0-18.8-3.5-25.9-10.1c-3-2.7-3.2-7.5-0.5-10.4c2.7-3,7.5-3.2,10.4-0.5c4.3,4,10,6.2,15.9,6.2
		H82c6,0,11.6-2.3,16-6.3c3-2.7,7.7-2.6,10.4,0.4s2.6,7.7-0.4,10.4C100.9,449.2,91.8,452.8,82,452.9L82,452.9z"/>
	<path class="st11" d="M64.3,342.6c-2.7,1.5-7.5,1.6-10.4,0.2c-4.3-2-10-3.1-15.9-3.1h-0.1c-6,0-11.6,1.1-16,3.1
		c-3,1.4-7.7,1.3-10.4-0.2c-2-1.1-2.5-2.6-1.5-3.8c0.4-0.5,1-1,1.9-1.4c7.1-3.2,16.3-5.1,25.9-5.1c0,0.1,0.1,0.1,0.1,0.1
		c9.6,0,18.8,1.8,25.9,5c0.9,0.4,1.6,0.9,2,1.4C66.8,340,66.3,341.5,64.3,342.6z"/>
	<ellipse class="st10" cx="-31.9" cy="282.3" rx="50.1" ry="41"/>
	<path class="st11" d="M156.4,342.6c-2.7,1.5-7.5,1.6-10.4,0.2c-4.3-2-10-3.1-15.9-3.1H130c-6,0-11.6,1.1-16,3.1
		c-3,1.4-7.7,1.3-10.4-0.2c-2-1.1-2.5-2.6-1.5-3.8c0.4-0.5,1-1,1.9-1.4c7.1-3.2,16.3-5.1,25.9-5.1c0,0.1,0,0.1,0.1,0.1
		c9.6,0,18.8,1.8,25.9,5c0.9,0.4,1.6,0.9,2,1.4C158.9,340,158.4,341.5,156.4,342.6z"/>
	<path class="st11" d="M65.8,338.7c-0.3,0.4-0.8,0.8-1.5,1.2c-2.7,1.5-7.5,1.6-10.4,0.2c-4.3-2-10-3.1-15.9-3.1h-0.1
		c-6,0-11.6,1.1-16,3.1c-3,1.4-7.7,1.3-10.4-0.2c-0.7-0.3-1.2-0.8-1.5-1.2c0.4-0.5,1-1,1.9-1.4c7.1-3.2,16.3-5.1,25.9-5.1
		c0,0.1,0.1,0.1,0.1,0.1c9.6,0,18.8,1.8,25.9,5C64.6,337.7,65.3,338.2,65.8,338.7z"/>
	<path class="st11" d="M157.9,338.7c-0.3,0.4-0.8,0.8-1.5,1.2c-2.7,1.5-7.5,1.6-10.4,0.2c-4.3-2-10-3.1-15.9-3.1H130
		c-6,0-11.6,1.1-16,3.1c-3,1.4-7.7,1.3-10.4-0.2c-0.7-0.3-1.2-0.8-1.5-1.2c0.4-0.5,1-1,1.9-1.4c7.1-3.2,16.3-5.1,25.9-5.1
		c0,0.1,0,0.1,0.1,0.1c9.6,0,18.8,1.8,25.9,5C156.8,337.7,157.4,338.2,157.9,338.7z"/>
	<path class="st12" d="M51.3,370.9c0-6.9-5.6-12.4-12.5-12.4s-12.4,5.6-12.4,12.5s5.6,12.4,12.5,12.4S51.3,377.8,51.3,370.9z"/>
	<path class="st12" d="M139,370.6c0-6.9-5.6-12.5-12.5-12.4c-6.9,0-12.5,5.6-12.4,12.5c0,6.9,5.6,12.5,12.5,12.4
		C133.5,383.1,139,377.5,139,370.6z"/>
	
		<ellipse transform="matrix(-0.9333 -0.3592 0.3592 -0.9333 289.9084 709.1453)" class="st10" cx="210.8" cy="327.6" rx="30.6" ry="45"/>
	
		<ellipse transform="matrix(-0.9333 -0.3592 0.3592 -0.9333 298.6898 694.9995)" class="st0" cx="213.9" cy="319.8" rx="30.6" ry="45"/>
	<ellipse class="st10" cx="189.1" cy="275.6" rx="50.1" ry="41"/>
	<ellipse class="st0" cx="187" cy="256.5" rx="51.2" ry="51.2"/>
	<ellipse class="st10" cx="163.6" cy="247.7" rx="50.1" ry="41"/>
	<ellipse class="st0" cx="163.6" cy="240.1" rx="49.3" ry="35.6"/>
	<ellipse class="st0" cx="-36.7" cy="268.3" rx="48.1" ry="48.1"/>
	<ellipse class="st10" cx="-1" cy="241.6" rx="50.1" ry="41"/>
	<ellipse class="st10" cx="76.3" cy="224.7" rx="77.3" ry="58.9"/>
	<ellipse class="st0" cx="83" cy="211.2" rx="80.6" ry="58.1"/>
	<ellipse class="st0" cx="-1" cy="233.8" rx="49.3" ry="35.6"/>
	<g>
		<path class="st5" d="M148.1,592.3c-0.2-0.1-0.4-0.3-0.6-0.6c-0.6-0.9-0.3-2.2,0.6-2.8c8.5-6.7,16.2-15.1,22.7-24.8
			c5.2-7.9,9.7-16.6,13.4-26.1c6.2-16.1,7.8-28.8,7.8-28.9c0.1-1.1,1.1-2,2.2-2s1.8,1,1.7,2.2c-0.1,0.5-1.7,13.3-8.1,29.9
			c-3.7,9.8-8.4,18.8-13.7,27c-6.8,10.2-14.7,18.9-23.7,25.9C149.4,592.6,148.6,592.6,148.1,592.3z"/>
		<path class="st6" d="M209.3,521.4c0.4-0.9,0.1-1.9-0.6-2.4c-0.2-0.2-5.9-4.3-11.5-2.4c-2.7,0.9-4.7,2.4-5.9,4.1s-1.7,3.8-1.2,5.9
			c0.4,1.8,1.5,3.2,2.8,4c0.2,0.1,0.4,0.2,0.7,0.3c1.9,0.8,4.1,0.7,6.9-0.3C206.3,528.8,209.1,521.7,209.3,521.4z"/>
		<path class="st7" d="M193.1,521.9c0.2-2.2-0.5-4.4-2.1-6.7c-3.2-4.7-10.3-4.7-10.6-4.7c-0.9,0-1.7,0.7-2,1.6
			c-0.1,0.3-2.3,7.7,0.9,12.4c1.1,1.6,2.3,2.7,3.5,3.4c0.6,0.3,1.1,0.5,1.7,0.7c1.9,0.5,3.9,0,5.6-1.4
			C191.9,525.9,192.9,524.1,193.1,521.9z"/>
		<path class="st7" d="M203,539.4c0.4-0.9,0.1-1.9-0.6-2.4c-0.2-0.2-5.9-4.3-11.5-2.4c-2.7,0.9-4.7,2.4-5.9,4.1
			c-1.2,1.8-1.7,3.8-1.2,5.9c0.4,1.8,1.5,3.2,2.8,4c0.2,0.1,0.4,0.2,0.7,0.3c1.9,0.8,4.1,0.7,6.9-0.3
			C199.9,546.8,202.9,539.7,203,539.4z"/>
		<path class="st6" d="M186.9,539.9c0.2-2.2-0.5-4.4-2.1-6.7c-3.2-4.7-10.3-4.7-10.6-4.7c-0.9,0-1.7,0.7-2,1.6
			c-0.1,0.3-2.3,7.7,0.9,12.4c1.1,1.6,2.3,2.7,3.5,3.4c0.6,0.3,1.1,0.5,1.7,0.7c1.9,0.5,3.9,0,5.6-1.4
			C185.6,543.8,186.6,542.1,186.9,539.9z"/>
		<path class="st6" d="M193,557.7c-0.2-0.2-4.9-5.4-10.7-4.5c-2.7,0.4-4.9,1.5-6.5,3c-1.5,1.6-2.3,3.5-2.2,5.7
			c0.1,2.2,1.1,3.9,2.7,5c0.1,0.1,0.3,0.2,0.4,0.2c1.6,0.9,3.7,1.2,6.3,0.8c5.8-0.9,9.8-7.5,10-7.7
			C193.6,559.3,193.6,558.3,193,557.7z"/>
		<g>
			<path class="st7" d="M177.4,557.7c0.5-2.2,0.3-4.5-0.9-7.1c-2.3-5.4-9.2-6.7-9.5-6.7c-0.9-0.2-1.8,0.3-2.2,1.2
				c-0.1,0.3-3.5,7.3-1.2,12.6c1,2.4,2.4,4,3.9,4.9c0.1,0.1,0.3,0.1,0.4,0.2c1.8,0.8,3.7,0.7,5.6-0.3
				C175.5,561.4,176.9,559.7,177.4,557.7z"/>
			<path class="st7" d="M180.9,578.8c-0.2-0.3-3.8-6.4-9.6-6.6c-2.7-0.1-5,0.5-6.8,1.8c-1.7,1.3-2.7,3.1-3,5.3
				c-0.3,2.2,0.4,4.1,1.8,5.5c0.4,0.4,0.9,0.8,1.5,1.1c1.3,0.7,2.8,1.1,4.8,1.2c5.7,0.2,10.8-5.6,11-5.8
				C181.3,580.4,181.4,579.4,180.9,578.8z"/>
			<path class="st7" d="M165.9,575.7c0.9-2,1-4.4,0.4-7.3c-1.3-5.8-7.8-8.3-8.1-8.4c-0.8-0.3-1.8,0-2.3,0.8
				c-0.2,0.3-4.6,6.6-3.3,12.4c0.6,2.7,1.8,4.8,3.3,6c0.2,0.1,0.4,0.3,0.6,0.4c1.5,0.8,3.1,0.9,4.9,0.3
				C163.4,579.2,164.9,577.7,165.9,575.7z"/>
			<path class="st7" d="M201.9,501.2c0.7-6.1-4.4-10.9-4.6-11.1c-0.6-0.6-1.6-0.6-2.4-0.1c-0.3,0.2-6.4,4.7-7,10.8
				c-0.3,2.9,0.1,5.3,1.2,7c0.5,0.9,1.3,1.5,2.1,2c0.8,0.5,1.8,0.7,2.7,0.7c2.1,0.1,3.9-0.8,5.3-2.4
				C200.6,506.4,201.5,504.2,201.9,501.2z"/>
		</g>
	</g>
	<circle class="st13" cx="146.4" cy="590.6" r="17"/>
	<circle class="st14" cx="146.1" cy="590.4" r="10.4"/>
</g>
</svg>
