<?xml version="1.0" encoding="utf-8"?>
<!-- Generator: Adobe Illustrator 19.0.0, SVG Export Plug-In . SVG Version: 6.00 Build 0)  -->
<svg version="1.1" id="Layer_1" xmlns="http://www.w3.org/2000/svg" xmlns:xlink="http://www.w3.org/1999/xlink" x="0px" y="0px"
	 viewBox="-114 142.3 383 508.7" style="enable-background:new -114 142.3 383 508.7;" xml:space="preserve">
<style type="text/css">
	.st0{fill:#9B3710;}
	.st1{fill:#842610;}
	.st2{fill:#F0BCA6;}
	.st3{fill:#E2A58A;}
	.st4{fill:#E27A84;}
	.st5{clip-path:url(#SVGID_2_);fill:#9E4653;}
	.st6{fill:#F8A814;}
	.st7{fill:#F8B53C;}
	.st8{fill:#F9CD45;}
	.st9{fill:#934161;}
	.st10{fill:#F4F0EF;}
	.st11{fill:#E6B09A;}
	.st12{fill:#868686;}
	.st13{fill:#4C350C;}
	.st14{fill:#825308;}
	.st15{clip-path:url(#SVGID_4_);fill:#9E4653;}
	.st16{fill:#DCDBDD;}
	.st17{fill:#C2B4B4;}
	.st18{fill:#B2A1A1;}
	.st19{clip-path:url(#SVGID_6_);fill:#9E4653;}
	.st20{fill:#EFEFEF;}
	.st21{fill:#D1C6C6;}
	.st22{fill:#BABABA;}
	.st23{fill:#867878;}
	.st24{fill:#ECEDEF;}
</style>
<path class="st0" d="M-3968,1393.9c-28.6-18.6-66.5-28.7-106.7-28.7s-78,10.2-106.7,28.7c-28.6,18.6-44.4,43.1-44.4,69.1v139.8
	c0,2.4,3.1,4.4,6.8,4.4h288.3c3.8,0,6.8-2,6.8-4.4V1463C-3923.8,1436.9-3939.5,1412.4-3968,1393.9z"/>
<ellipse class="st1" cx="-4189.4" cy="1604.1" rx="38.9" ry="33.2"/>
<ellipse class="st1" cx="-3960.2" cy="1603.2" rx="38.9" ry="33.2"/>
<path class="st2" d="M-4186.4,1515c-0.1,0-0.1,0-0.2,0c-25.4,0.1-46.1,20.8-46,46.3c0,12.3,4.9,23.9,13.6,32.6s20.3,13.4,32.5,13.4
	h0.2c25.4-0.1,46.1-20.8,46-46.3C-4140.4,1535.5-4161.1,1515-4186.4,1515z"/>
<path class="st2" d="M-3904.3,1802c-0.1-39.6-15.8-76.9-44-104.9s-65.4-43.4-104.7-43.4c-0.2,0-0.3,0-0.5,0l-48.7,0.2
	c-39.6,0.1-76.9,15.8-104.9,44c-28.1,28.2-43.5,65.6-43.4,105.2l0.1,18.6c0,3.7,3.1,6.8,6.8,6.8h332.5c1.8,0,3.5-0.7,4.8-2
	s2-3,2-4.8V1802z"/>
<path class="st3" d="M-3904.3,1802c-0.1-39.6-15.8-76.9-44-104.9s-65.4-43.4-104.7-43.4c-0.2,0-0.3,0-0.5,0l-16.7,0.1
	c37.9,1,73.7,16.2,100.9,43.3c28.2,28.1,43.9,65.4,44,104.9l0.1,19.6c0,1.8-0.7,3.5-2,4.8s-3,2-4.8,2h20.9c1.8,0,3.5-0.7,4.8-2
	s2-3,2-4.8V1802z"/>
<g>
	<g>
		<path id="XMLID_2_" class="st4" d="M-3904.4,1804.9c-0.1-39.3-15.8-76.3-44-104.2c-8.4-8.3-17.7-15.5-27.5-21.5
			c-7,27.3-36.5,49.3-75,56.3c-8.6,1.6-17.6,2.4-26.9,2.4c-9.2,0-18.1-0.8-26.7-2.4c-38.3-7-67.9-28.8-75.1-55.9
			c-10,6.1-19.1,13.4-27.6,21.8c-28.1,28.1-43.5,65.2-43.4,104.5l0.1,21.3c0.1,2.4,1.4,4.6,3.3,5.9h337.3c1.3-0.3,2.4-1,3.4-1.9
			c1.4-1.4,2.1-3.2,2.1-5.1L-3904.4,1804.9z"/>
	</g>
	<g>
		<g>
			<g>
				<g>
					<g>
						<g>
							<g>
								<g>
									<defs>
										<path id="SVGID_1_" d="M-3904.4,1804.9c-0.1-39.3-15.8-76.3-44-104.2c-8.4-8.3-17.7-15.5-27.5-21.5
											c-7,27.3-36.5,49.3-75,56.3c-8.6,1.6-17.6,2.4-26.9,2.4c-9.2,0-18.1-0.8-26.7-2.4c-38.3-7-67.9-28.8-75.1-55.9
											c-10,6.1-19.1,13.4-27.6,21.8c-28.1,28.1-43.5,65.2-43.4,104.5l0.1,21.3c0.1,2.4,1.4,4.6,3.3,5.9h337.3
											c1.3-0.3,2.4-1,3.4-1.9c1.4-1.4,2.1-3.2,2.1-5.1L-3904.4,1804.9z"/>
									</defs>
									<clipPath id="SVGID_2_">
										<use xlink:href="#SVGID_1_"  style="overflow:visible;"/>
									</clipPath>
									<path class="st5" d="M-3903.4,1805.4c-0.1-39.3-15.8-76.3-44-104.2c-28.2-27.8-65.4-43.1-104.7-43.1c-0.2,0-0.3,0-0.5,0
										l-17.6,0.1c37.9,1,73.6,16.1,100.9,43c28.2,27.9,43.8,64.9,44,104.2l0.1,21.3c0,1.9-0.7,3.7-2.1,5.1
										c-0.9,0.9-2.1,1.6-3.4,1.9h22c1.3-0.3,2.4-1,3.4-1.9c1.4-1.4,2.1-3.2,2.1-5.1L-3903.4,1805.4z"/>
								</g>
							</g>
						</g>
					</g>
				</g>
			</g>
		</g>
	</g>
</g>
<g>
	<path class="st6" d="M-4104.6,1816.4c-0.1-0.3-0.1-0.5-0.1-0.7c0.1-1,1.1-1.7,2.1-1.6c10,0.5,20.5-0.7,30.9-3.6
		c8.4-2.4,16.8-5.7,25.1-10.1c14-7.5,22.8-15.3,22.9-15.4c0.8-0.7,2-0.7,2.7-0.1s0.6,1.8-0.1,2.4c-0.4,0.4-9.2,8.2-23.7,15.9
		c-8.5,4.5-17.3,8.1-25.9,10.5c-10.9,3-21.7,4.3-32.1,3.7C-4103.8,1817.4-4104.4,1817-4104.6,1816.4z"/>
	<path class="st7" d="M-4019.1,1804c0.8-0.4,1.2-1.2,1.1-2c-0.1-0.3-1.4-6.5-6.5-8.6c-2.4-1-4.7-1.2-6.6-0.7
		c-1.9,0.5-3.4,1.7-4.3,3.4c-0.8,1.5-0.9,3.1-0.5,4.5c0.1,0.2,0.2,0.4,0.3,0.6c0.8,1.6,2.4,3,4.9,3.9
		C-4025.7,1807.4-4019.4,1804.2-4019.1,1804z"/>
	<path class="st8" d="M-4030.7,1794.6c1.4-1.4,2.3-3.3,2.6-5.9c0.6-5.3-4.3-9.5-4.5-9.7c-0.6-0.5-1.5-0.5-2.4-0.1
		c-0.3,0.2-6.2,4-6.9,9.1c-0.2,1.8-0.1,3.3,0.4,4.6c0.2,0.5,0.5,1,0.7,1.4c1.1,1.4,2.7,2.4,4.7,2.4
		C-4034,1796.7-4032.1,1796-4030.7,1794.6z"/>
	<path class="st8" d="M-4034.3,1812.7c0.8-0.4,1.2-1.2,1.1-2c-0.1-0.3-1.4-6.5-6.5-8.6c-2.4-1-4.7-1.2-6.6-0.7
		c-1.9,0.5-3.4,1.7-4.3,3.4c-0.8,1.5-0.9,3.1-0.5,4.5c0.1,0.2,0.2,0.4,0.3,0.6c0.8,1.6,2.4,3,4.9,3.9
		C-4040.9,1816-4034.6,1812.9-4034.3,1812.7z"/>
	<path class="st7" d="M-4045.9,1803.4c1.4-1.4,2.3-3.3,2.6-5.9c0.6-5.3-4.3-9.5-4.5-9.7c-0.6-0.5-1.5-0.5-2.4-0.1
		c-0.3,0.2-6.2,4-6.9,9.1c-0.2,1.8-0.1,3.3,0.4,4.6c0.2,0.5,0.5,1,0.7,1.4c1.1,1.4,2.7,2.4,4.7,2.4
		C-4049.2,1805.4-4047.3,1804.9-4045.9,1803.4z"/>
	<path class="st7" d="M-4052.3,1819.4c0-0.3-0.2-6.8-4.7-9.6c-2.2-1.4-4.3-2-6.3-1.8s-3.7,1.2-4.9,2.7s-1.6,3.3-1.1,5.1
		c0,0.2,0.1,0.3,0.1,0.5c0.5,1.6,1.9,3.1,3.9,4.3c4.5,2.9,11.3,0.8,11.7,0.7C-4052.9,1821-4052.3,1820.2-4052.3,1819.4z"/>
	<g>
		<path class="st8" d="M-4063.2,1810c1.6-1.2,2.9-3,3.7-5.4c1.6-5.2-2.4-10.1-2.5-10.4c-0.5-0.6-1.4-0.8-2.3-0.5
			c-0.3,0.1-6.8,2.9-8.4,8.1c-0.7,2.3-0.8,4.3-0.2,5.8c0.1,0.1,0.1,0.3,0.2,0.4c0.7,1.6,2.2,2.7,4.2,3.2
			C-4066.7,1811.5-4064.8,1811.1-4063.2,1810z"/>
		<path class="st8" d="M-4073.4,1826.9c0.1-0.3,1.2-6.8-2.7-10.3c-1.8-1.7-3.8-2.7-5.8-2.8c-1.9-0.2-3.8,0.5-5.3,1.9
			c-1.4,1.4-2.3,3.1-2.1,4.9c0,0.5,0.2,1.1,0.4,1.6c0.5,1.3,1.4,2.5,2.6,3.7c3.9,3.6,10.9,2.6,11.1,2.6
			C-4074.3,1828.4-4073.6,1827.6-4073.4,1826.9z"/>
		<path class="st8" d="M-4082.2,1815.6c1.8-0.9,3.3-2.4,4.6-4.8c2.6-4.8-0.4-10.5-0.5-10.8c-0.4-0.7-1.3-1.1-2.1-0.8
			c-0.3,0.1-7.2,1.7-9.8,6.6c-1.3,2.4-1.6,4.4-1.3,6.2c0.1,0.2,0.1,0.5,0.2,0.6c0.5,1.4,1.6,2.5,3.3,3.2
			C-4085.9,1816.5-4084,1816.4-4082.2,1815.6z"/>
		<path class="st8" d="M-4012,1785.5c4.2-3.8,3.5-10.2,3.5-10.5c-0.1-0.8-0.7-1.4-1.6-1.4c-0.3,0-7.2-0.5-11.4,3.3
			c-2,1.8-3.2,3.7-3.4,5.5c-0.2,0.9-0.1,1.8,0.3,2.6c0.3,0.8,0.8,1.5,1.4,2.2c1.4,1.3,3.3,1.8,5.2,1.5
			C-4016,1788.4-4014,1787.4-4012,1785.5z"/>
	</g>
</g>
<path class="st9" d="M-4120.2,1659.1c1.4,1.8,1.8,4.3,1.3,6.4c-3.1,12.1-4.6,24.6-4.5,37.1c0.1,24.5,12.1,52.3,33,76.4
	c20.8,24,47.3,40.7,72.7,46.1c3.4,0.7,5.8,3.9,5.8,7.4h21.8c0-3.3-2.1-6.2-5.1-7.2c-0.2-0.1-0.5-0.1-0.6-0.2
	c-25.3-5.3-51.9-22-72.7-46.1s-32.9-52-33-76.4c0-12.6,1.5-25.1,4.5-37.1c0.5-2.3,0.1-4.6-1.3-6.4c-1.4-1.8-3.4-2.9-5.6-2.9h-3.3
	c-3.6,0-7.2,0.2-10.7,0.5c-0.2,0-0.3,0-0.5,0c-0.5,0-1,0.1-1.4,0.1c-0.9,0.1-1.7,0.2-2.6,0.3
	C-4121.7,1657.5-4120.9,1658.4-4120.2,1659.1z"/>
<path class="st10" d="M-4017.9,1823.6c-25.4-5.3-51.9-22-72.7-46.1s-32.9-52-33-76.4c-0.1-12.5,1.4-25,4.5-37.1
	c0.5-2.2,0.1-4.6-1.3-6.4c-0.6-0.8-1.4-1.5-2.4-2c0.9-0.1,1.7-0.2,2.6-0.3c-34.8,3.2-67.1,18.9-92.2,45.1
	c-27.9,29.4-43.3,68.1-43.1,109.3l0.1,21.5h243.1C-4012,1827.5-4014.5,1824.4-4017.9,1823.6z"/>
<path class="st2" d="M-3967.4,1514.2c-0.1,0-0.1,0-0.2,0c-25.4,0.1-46.1,20.8-46,46.3c0,12.3,4.9,23.9,13.6,32.6
	s20.3,13.4,32.5,13.4h0.2c25.4-0.1,46.1-20.8,46-46.3C-3921.4,1534.9-3942.1,1514.2-3967.4,1514.2z"/>
<path class="st2" d="M-3971,1497.4c-0.1-22.5-16.7-40.7-36.9-40.7h-135.4c-9.9,0-19.2,4.3-26.2,12c-7,7.8-10.8,18-10.8,29l0.2,79.5
	c0.2,63.7,47.1,115.4,104.7,115.4h0.4c57.7-0.2,104.5-52.2,104.3-116.1L-3971,1497.4z"/>
<path class="st11" d="M-3970.9,1497.4c-0.1-22.5-15.6-40.7-34.6-40.7h-16.9c19,0,34.6,18.3,34.6,40.7l0.2,79
	c0.2,60.6-39.4,110.5-89.6,115.7c2.8,0.3,5.6,0.5,8.4,0.5h0.3c54-0.2,97.9-52.2,97.8-116.1L-3970.9,1497.4z"/>
<ellipse transform="matrix(-0.9333 0.3592 -0.3592 -0.9333 -7582.5557 4470.1411)" class="st1" cx="-4206.5" cy="1530.7" rx="28.2" ry="41.5"/>
<ellipse transform="matrix(-0.9333 0.3592 -0.3592 -0.9333 -7594.0806 4464.0825)" class="st0" cx="-4211.7" cy="1526.6" rx="28.2" ry="41.5"/>
<path class="st3" d="M-4075.7,1645.7c-8.9,0-17.4-3.3-23.9-9.3c-2.8-2.5-3-6.9-0.5-9.6c2.5-2.8,6.9-3,9.6-0.5
	c4,3.7,9.2,5.7,14.7,5.7h0.1c5.5,0,10.7-2.1,14.8-5.8c2.8-2.5,7.1-2.4,9.6,0.4s2.4,7.1-0.4,9.6
	C-4058.2,1642.2-4066.7,1645.6-4075.7,1645.7C-4075.6,1645.7-4075.6,1645.7-4075.7,1645.7z"/>
<path class="st0" d="M-4116.3,1534.6c8.9,0,17.4,1.6,23.9,4.6c2.8,1.3,3,3.4,0.5,4.8s-6.9,1.4-9.6,0.2c-4-1.8-9.2-2.9-14.7-2.9h-0.1
	c-5.5,0-10.7,1-14.8,2.9c-2.8,1.3-7.1,1.2-9.6-0.2s-2.4-3.5,0.4-4.8C-4133.8,1536.2-4125.3,1534.5-4116.3,1534.6
	C-4116.4,1534.6-4116.3,1534.6-4116.3,1534.6z"/>
<ellipse class="st1" cx="-4180.6" cy="1488.4" rx="46.2" ry="37.8"/>
<path class="st0" d="M-4031.5,1534.6c8.9,0,17.4,1.6,23.9,4.6c2.8,1.3,3,3.4,0.5,4.8s-6.9,1.4-9.6,0.2c-4-1.8-9.2-2.9-14.7-2.9h-0.1
	c-5.5,0-10.7,1-14.8,2.9c-2.8,1.3-7.1,1.2-9.6-0.2s-2.4-3.5,0.4-4.8C-4049,1536.2-4040.5,1534.5-4031.5,1534.6L-4031.5,1534.6z"/>
<path class="st12" d="M-4104,1570.1c0-6.3-5.2-11.4-11.5-11.4s-11.4,5.2-11.4,11.5s5.2,11.4,11.5,11.4S-4104,1576.4-4104,1570.1z"/>
<path class="st12" d="M-4023,1569.9c0-6.3-5.2-11.5-11.5-11.4c-6.3,0-11.5,5.2-11.4,11.5c0,6.3,5.2,11.5,11.5,11.4
	C-4028.2,1581.4-4023,1576.2-4023,1569.9z"/>
<ellipse transform="matrix(-0.3592 0.9333 -0.9333 -0.3592 -3949.4324 5773.291)" class="st1" cx="-3956.8" cy="1530.7" rx="41.5" ry="28.2"/>
<ellipse transform="matrix(-0.3592 0.9333 -0.9333 -0.3592 -3952.2874 5761.2642)" class="st0" cx="-3954.1" cy="1523.7" rx="41.5" ry="28.2"/>
<ellipse class="st1" cx="-3976.8" cy="1482.2" rx="46.2" ry="37.8"/>
<ellipse class="st0" cx="-3978.7" cy="1464.7" rx="47.3" ry="47.3"/>
<ellipse class="st1" cx="-4000.4" cy="1456.6" rx="46.2" ry="37.8"/>
<ellipse class="st0" cx="-4000.4" cy="1449.4" rx="45.4" ry="32.9"/>
<ellipse class="st0" cx="-4185.1" cy="1475.7" rx="44.4" ry="44.4"/>
<ellipse class="st1" cx="-4152.1" cy="1450.9" rx="46.2" ry="37.8"/>
<ellipse class="st1" cx="-4080.8" cy="1435.4" rx="71.3" ry="54.3"/>
<ellipse class="st0" cx="-4074.7" cy="1423" rx="74.3" ry="53.6"/>
<ellipse class="st0" cx="-4152.1" cy="1443.7" rx="45.4" ry="32.9"/>
<g>
	<path class="st6" d="M-4014.8,1774.2c-0.2-0.1-0.4-0.3-0.5-0.5c-0.5-0.8-0.3-2,0.5-2.6c7.9-6.2,14.9-13.9,20.9-22.9
		c4.8-7.2,9-15.3,12.3-24.1c5.7-14.8,7.2-26.5,7.2-26.6c0.1-1,1-1.8,2-1.8s1.6,0.9,1.5,2c-0.1,0.5-1.5,12.2-7.4,27.6
		c-3.4,9.1-7.8,17.4-12.7,24.9c-6.2,9.4-13.6,17.5-21.8,23.9C-4013.4,1774.5-4014.1,1774.5-4014.8,1774.2z"/>
	<path class="st7" d="M-3958.3,1708.9c0.4-0.8,0.1-1.7-0.5-2.2c-0.2-0.2-5.4-4-10.6-2.2c-2.4,0.8-4.3,2.2-5.4,3.8s-1.5,3.5-1.1,5.4
		c0.4,1.6,1.4,3,2.6,3.7c0.2,0.1,0.4,0.2,0.6,0.3c1.7,0.7,3.8,0.6,6.3-0.3C-3961.2,1715.7-3958.4,1709.2-3958.3,1708.9z"/>
	<path class="st8" d="M-3973.1,1709.4c0.2-2-0.5-4.1-1.9-6.2c-3-4.3-9.5-4.3-9.8-4.3c-0.8,0-1.5,0.6-1.8,1.4
		c-0.1,0.3-2.1,7.1,0.8,11.4c1,1.4,2.1,2.5,3.3,3.2c0.5,0.3,1,0.5,1.5,0.6c1.7,0.5,3.6,0,5.2-1.3
		C-3974.3,1713-3973.3,1711.4-3973.1,1709.4z"/>
	<path class="st8" d="M-3964,1725.4c0.4-0.8,0.1-1.7-0.5-2.2c-0.2-0.2-5.4-4-10.6-2.2c-2.4,0.8-4.3,2.2-5.4,3.8s-1.5,3.5-1.1,5.4
		c0.4,1.6,1.4,3,2.6,3.7c0.2,0.1,0.4,0.2,0.6,0.3c1.7,0.7,3.8,0.6,6.3-0.3C-3966.9,1732.2-3964.1,1725.7-3964,1725.4z"/>
	<path class="st7" d="M-3978.9,1725.9c0.2-2-0.5-4.1-1.9-6.2c-3-4.3-9.5-4.3-9.8-4.3c-0.8,0-1.5,0.6-1.8,1.4
		c-0.1,0.3-2.1,7.1,0.8,11.4c1,1.4,2.1,2.5,3.3,3.2c0.5,0.3,1,0.5,1.5,0.6c1.7,0.5,3.6,0,5.2-1.3
		C-3980.1,1729.5-3979.1,1727.9-3978.9,1725.9z"/>
	<path class="st7" d="M-3973.2,1742.4c-0.2-0.2-4.5-5-9.9-4.2c-2.5,0.4-4.5,1.4-6,2.8c-1.4,1.4-2.1,3.3-2,5.3s1,3.6,2.4,4.6
		c0.1,0.1,0.3,0.2,0.4,0.2c1.4,0.8,3.4,1.1,5.8,0.7c5.3-0.8,9.1-6.9,9.2-7.1C-3972.7,1743.9-3972.7,1742.9-3973.2,1742.4z"/>
	<g>
		<path class="st8" d="M-3987.6,1742.4c0.5-2,0.3-4.2-0.8-6.5c-2.1-5-8.5-6.2-8.8-6.2c-0.8-0.2-1.6,0.3-2,1.1
			c-0.1,0.3-3.3,6.7-1.1,11.6c0.9,2.2,2.2,3.7,3.6,4.5c0.1,0.1,0.3,0.1,0.4,0.2c1.6,0.7,3.4,0.6,5.2-0.3
			C-3989.3,1745.7-3988.1,1744.2-3987.6,1742.4z"/>
		<path class="st8" d="M-3984.3,1761.9c-0.2-0.3-3.5-5.9-8.9-6.1c-2.5-0.1-4.6,0.5-6.2,1.6c-1.5,1.2-2.5,2.9-2.8,4.9
			s0.4,3.8,1.6,5.1c0.4,0.4,0.8,0.7,1.4,1c1.2,0.6,2.6,1,4.4,1.1c5.3,0.2,10-5.2,10.1-5.3C-3984.1,1763.4-3984,1762.4-3984.3,1761.9
			z"/>
		<path class="st8" d="M-3998.3,1758.9c0.8-1.8,0.9-4.1,0.4-6.7c-1.2-5.3-7.2-7.7-7.4-7.8c-0.7-0.3-1.6,0-2.1,0.7
			c-0.2,0.3-4.3,6.1-3.1,11.4c0.5,2.5,1.6,4.4,3.1,5.5c0.2,0.1,0.4,0.3,0.5,0.4c1.4,0.7,2.9,0.8,4.5,0.3
			C-4000.5,1762.1-3999.1,1760.9-3998.3,1758.9z"/>
		<path class="st8" d="M-3965.1,1690.2c0.6-5.6-4.1-10-4.3-10.2c-0.5-0.5-1.4-0.5-2.2-0.1c-0.3,0.2-5.9,4.3-6.4,10
			c-0.3,2.7,0.1,4.9,1.1,6.4c0.5,0.8,1.2,1.4,1.9,1.8c0.7,0.5,1.6,0.6,2.5,0.6c1.9,0.1,3.6-0.7,4.9-2.2
			C-3966.2,1695-3965.4,1692.9-3965.1,1690.2z"/>
	</g>
</g>
<circle class="st13" cx="-4016.3" cy="1772.7" r="15.7"/>
<circle class="st14" cx="-4016.6" cy="1772.5" r="9.6"/>
<path class="st0" d="M-3968,1393.9c-28.6-18.6-66.5-28.7-106.7-28.7s-78,10.2-106.7,28.7c-28.6,18.6-44.4,43.1-44.4,69.1v139.8
	c0,2.4,3.1,4.4,6.8,4.4h288.3c3.8,0,6.8-2,6.8-4.4V1463C-3923.8,1436.9-3939.5,1412.4-3968,1393.9z"/>
<ellipse class="st1" cx="-4189.4" cy="1604.1" rx="38.9" ry="33.2"/>
<ellipse class="st1" cx="-3960.2" cy="1603.2" rx="38.9" ry="33.2"/>
<path class="st2" d="M-4186.4,1515c-0.1,0-0.1,0-0.2,0c-25.4,0.1-46.1,20.8-46,46.3c0,12.3,4.9,23.9,13.6,32.6s20.3,13.4,32.5,13.4
	h0.2c25.4-0.1,46.1-20.8,46-46.3C-4140.4,1535.5-4161.1,1515-4186.4,1515z"/>
<path class="st2" d="M-3904.3,1802c-0.1-39.6-15.8-76.9-44-104.9s-65.4-43.4-104.7-43.4c-0.2,0-0.3,0-0.5,0l-48.7,0.2
	c-39.6,0.1-76.9,15.8-104.9,44c-28.1,28.2-43.5,65.6-43.4,105.2l0.1,18.6c0,3.7,3.1,6.8,6.8,6.8h332.5c1.8,0,3.5-0.7,4.8-2
	s2-3,2-4.8V1802z"/>
<path class="st3" d="M-3904.3,1802c-0.1-39.6-15.8-76.9-44-104.9s-65.4-43.4-104.7-43.4c-0.2,0-0.3,0-0.5,0l-16.7,0.1
	c37.9,1,73.7,16.2,100.9,43.3c28.2,28.1,43.9,65.4,44,104.9l0.1,19.6c0,1.8-0.7,3.5-2,4.8s-3,2-4.8,2h20.9c1.8,0,3.5-0.7,4.8-2
	s2-3,2-4.8V1802z"/>
<g>
	<g>
		<path id="XMLID_1_" class="st4" d="M-3904.4,1804.9c-0.1-39.3-15.8-76.3-44-104.2c-8.4-8.3-17.7-15.5-27.5-21.5
			c-7,27.3-36.5,49.3-75,56.3c-8.6,1.6-17.6,2.4-26.9,2.4c-9.2,0-18.1-0.8-26.7-2.4c-38.3-7-67.9-28.8-75.1-55.9
			c-10,6.1-19.1,13.4-27.6,21.8c-28.1,28.1-43.5,65.2-43.4,104.5l0.1,21.3c0.1,2.4,1.4,4.6,3.3,5.9h337.3c1.3-0.3,2.4-1,3.4-1.9
			c1.4-1.4,2.1-3.2,2.1-5.1L-3904.4,1804.9z"/>
	</g>
	<g>
		<g>
			<g>
				<g>
					<g>
						<g>
							<g>
								<g>
									<defs>
										<path id="SVGID_3_" d="M-3904.4,1804.9c-0.1-39.3-15.8-76.3-44-104.2c-8.4-8.3-17.7-15.5-27.5-21.5
											c-7,27.3-36.5,49.3-75,56.3c-8.6,1.6-17.6,2.4-26.9,2.4c-9.2,0-18.1-0.8-26.7-2.4c-38.3-7-67.9-28.8-75.1-55.9
											c-10,6.1-19.1,13.4-27.6,21.8c-28.1,28.1-43.5,65.2-43.4,104.5l0.1,21.3c0.1,2.4,1.4,4.6,3.3,5.9h337.3
											c1.3-0.3,2.4-1,3.4-1.9c1.4-1.4,2.1-3.2,2.1-5.1L-3904.4,1804.9z"/>
									</defs>
									<clipPath id="SVGID_4_">
										<use xlink:href="#SVGID_3_"  style="overflow:visible;"/>
									</clipPath>
									<path class="st15" d="M-3903.4,1805.4c-0.1-39.3-15.8-76.3-44-104.2c-28.2-27.8-65.4-43.1-104.7-43.1c-0.2,0-0.3,0-0.5,0
										l-17.6,0.1c37.9,1,73.6,16.1,100.9,43c28.2,27.9,43.8,64.9,44,104.2l0.1,21.3c0,1.9-0.7,3.7-2.1,5.1
										c-0.9,0.9-2.1,1.6-3.4,1.9h22c1.3-0.3,2.4-1,3.4-1.9c1.4-1.4,2.1-3.2,2.1-5.1L-3903.4,1805.4z"/>
								</g>
							</g>
						</g>
					</g>
				</g>
			</g>
		</g>
	</g>
</g>
<g>
	<path class="st6" d="M-4104.6,1816.4c-0.1-0.3-0.1-0.5-0.1-0.7c0.1-1,1.1-1.7,2.1-1.6c10,0.5,20.5-0.7,30.9-3.6
		c8.4-2.4,16.8-5.7,25.1-10.1c14-7.5,22.8-15.3,22.9-15.4c0.8-0.7,2-0.7,2.7-0.1s0.6,1.8-0.1,2.4c-0.4,0.4-9.2,8.2-23.7,15.9
		c-8.5,4.5-17.3,8.1-25.9,10.5c-10.9,3-21.7,4.3-32.1,3.7C-4103.8,1817.4-4104.4,1817-4104.6,1816.4z"/>
	<path class="st7" d="M-4019.1,1804c0.8-0.4,1.2-1.2,1.1-2c-0.1-0.3-1.4-6.5-6.5-8.6c-2.4-1-4.7-1.2-6.6-0.7
		c-1.9,0.5-3.4,1.7-4.3,3.4c-0.8,1.5-0.9,3.1-0.5,4.5c0.1,0.2,0.2,0.4,0.3,0.6c0.8,1.6,2.4,3,4.9,3.9
		C-4025.7,1807.4-4019.4,1804.2-4019.1,1804z"/>
	<path class="st8" d="M-4030.7,1794.6c1.4-1.4,2.3-3.3,2.6-5.9c0.6-5.3-4.3-9.5-4.5-9.7c-0.6-0.5-1.5-0.5-2.4-0.1
		c-0.3,0.2-6.2,4-6.9,9.1c-0.2,1.8-0.1,3.3,0.4,4.6c0.2,0.5,0.5,1,0.7,1.4c1.1,1.4,2.7,2.4,4.7,2.4
		C-4034,1796.7-4032.1,1796-4030.7,1794.6z"/>
	<path class="st8" d="M-4034.3,1812.7c0.8-0.4,1.2-1.2,1.1-2c-0.1-0.3-1.4-6.5-6.5-8.6c-2.4-1-4.7-1.2-6.6-0.7
		c-1.9,0.5-3.4,1.7-4.3,3.4c-0.8,1.5-0.9,3.1-0.5,4.5c0.1,0.2,0.2,0.4,0.3,0.6c0.8,1.6,2.4,3,4.9,3.9
		C-4040.9,1816-4034.6,1812.9-4034.3,1812.7z"/>
	<path class="st7" d="M-4045.9,1803.4c1.4-1.4,2.3-3.3,2.6-5.9c0.6-5.3-4.3-9.5-4.5-9.7c-0.6-0.5-1.5-0.5-2.4-0.1
		c-0.3,0.2-6.2,4-6.9,9.1c-0.2,1.8-0.1,3.3,0.4,4.6c0.2,0.5,0.5,1,0.7,1.4c1.1,1.4,2.7,2.4,4.7,2.4
		C-4049.2,1805.4-4047.3,1804.9-4045.9,1803.4z"/>
	<path class="st7" d="M-4052.3,1819.4c0-0.3-0.2-6.8-4.7-9.6c-2.2-1.4-4.3-2-6.3-1.8s-3.7,1.2-4.9,2.7s-1.6,3.3-1.1,5.1
		c0,0.2,0.1,0.3,0.1,0.5c0.5,1.6,1.9,3.1,3.9,4.3c4.5,2.9,11.3,0.8,11.7,0.7C-4052.9,1821-4052.3,1820.2-4052.3,1819.4z"/>
	<g>
		<path class="st8" d="M-4063.2,1810c1.6-1.2,2.9-3,3.7-5.4c1.6-5.2-2.4-10.1-2.5-10.4c-0.5-0.6-1.4-0.8-2.3-0.5
			c-0.3,0.1-6.8,2.9-8.4,8.1c-0.7,2.3-0.8,4.3-0.2,5.8c0.1,0.1,0.1,0.3,0.2,0.4c0.7,1.6,2.2,2.7,4.2,3.2
			C-4066.7,1811.5-4064.8,1811.1-4063.2,1810z"/>
		<path class="st8" d="M-4073.4,1826.9c0.1-0.3,1.2-6.8-2.7-10.3c-1.8-1.7-3.8-2.7-5.8-2.8c-1.9-0.2-3.8,0.5-5.3,1.9
			c-1.4,1.4-2.3,3.1-2.1,4.9c0,0.5,0.2,1.1,0.4,1.6c0.5,1.3,1.4,2.5,2.6,3.7c3.9,3.6,10.9,2.6,11.1,2.6
			C-4074.3,1828.4-4073.6,1827.6-4073.4,1826.9z"/>
		<path class="st8" d="M-4082.2,1815.6c1.8-0.9,3.3-2.4,4.6-4.8c2.6-4.8-0.4-10.5-0.5-10.8c-0.4-0.7-1.3-1.1-2.1-0.8
			c-0.3,0.1-7.2,1.7-9.8,6.6c-1.3,2.4-1.6,4.4-1.3,6.2c0.1,0.2,0.1,0.5,0.2,0.6c0.5,1.4,1.6,2.5,3.3,3.2
			C-4085.9,1816.5-4084,1816.4-4082.2,1815.6z"/>
		<path class="st8" d="M-4012,1785.5c4.2-3.8,3.5-10.2,3.5-10.5c-0.1-0.8-0.7-1.4-1.6-1.4c-0.3,0-7.2-0.5-11.4,3.3
			c-2,1.8-3.2,3.7-3.4,5.5c-0.2,0.9-0.1,1.8,0.3,2.6c0.3,0.8,0.8,1.5,1.4,2.2c1.4,1.3,3.3,1.8,5.2,1.5
			C-4016,1788.4-4014,1787.4-4012,1785.5z"/>
	</g>
</g>
<path class="st9" d="M-4120.2,1659.1c1.4,1.8,1.8,4.3,1.3,6.4c-3.1,12.1-4.6,24.6-4.5,37.1c0.1,24.5,12.1,52.3,33,76.4
	c20.8,24,47.3,40.7,72.7,46.1c3.4,0.7,5.8,3.9,5.8,7.4h21.8c0-3.3-2.1-6.2-5.1-7.2c-0.2-0.1-0.5-0.1-0.6-0.2
	c-25.3-5.3-51.9-22-72.7-46.1s-32.9-52-33-76.4c0-12.6,1.5-25.1,4.5-37.1c0.5-2.3,0.1-4.6-1.3-6.4c-1.4-1.8-3.4-2.9-5.6-2.9h-3.3
	c-3.6,0-7.2,0.2-10.7,0.5c-0.2,0-0.3,0-0.5,0c-0.5,0-1,0.1-1.4,0.1c-0.9,0.1-1.7,0.2-2.6,0.3
	C-4121.7,1657.5-4120.9,1658.4-4120.2,1659.1z"/>
<path class="st10" d="M-4017.9,1823.6c-25.4-5.3-51.9-22-72.7-46.1s-32.9-52-33-76.4c-0.1-12.5,1.4-25,4.5-37.1
	c0.5-2.2,0.1-4.6-1.3-6.4c-0.6-0.8-1.4-1.5-2.4-2c0.9-0.1,1.7-0.2,2.6-0.3c-34.8,3.2-67.1,18.9-92.2,45.1
	c-27.9,29.4-43.3,68.1-43.1,109.3l0.1,21.5h243.1C-4012,1827.5-4014.5,1824.4-4017.9,1823.6z"/>
<path class="st2" d="M-3967.4,1514.2c-0.1,0-0.1,0-0.2,0c-25.4,0.1-46.1,20.8-46,46.3c0,12.3,4.9,23.9,13.6,32.6
	s20.3,13.4,32.5,13.4h0.2c25.4-0.1,46.1-20.8,46-46.3C-3921.4,1534.9-3942.1,1514.2-3967.4,1514.2z"/>
<path class="st2" d="M-3971,1497.4c-0.1-22.5-16.7-40.7-36.9-40.7h-135.4c-9.9,0-19.2,4.3-26.2,12c-7,7.8-10.8,18-10.8,29l0.2,79.5
	c0.2,63.7,47.1,115.4,104.7,115.4h0.4c57.7-0.2,104.5-52.2,104.3-116.1L-3971,1497.4z"/>
<path class="st11" d="M-3970.9,1497.4c-0.1-22.5-15.6-40.7-34.6-40.7h-16.9c19,0,34.6,18.3,34.6,40.7l0.2,79
	c0.2,60.6-39.4,110.5-89.6,115.7c2.8,0.3,5.6,0.5,8.4,0.5h0.3c54-0.2,97.9-52.2,97.8-116.1L-3970.9,1497.4z"/>
<ellipse transform="matrix(-0.9333 0.3592 -0.3592 -0.9333 -7582.5557 4470.1411)" class="st1" cx="-4206.5" cy="1530.7" rx="28.2" ry="41.5"/>
<ellipse transform="matrix(-0.9333 0.3592 -0.3592 -0.9333 -7594.0806 4464.0825)" class="st0" cx="-4211.7" cy="1526.6" rx="28.2" ry="41.5"/>
<path class="st3" d="M-4075.7,1645.7c-8.9,0-17.4-3.3-23.9-9.3c-2.8-2.5-3-6.9-0.5-9.6c2.5-2.8,6.9-3,9.6-0.5
	c4,3.7,9.2,5.7,14.7,5.7h0.1c5.5,0,10.7-2.1,14.8-5.8c2.8-2.5,7.1-2.4,9.6,0.4s2.4,7.1-0.4,9.6
	C-4058.2,1642.2-4066.7,1645.6-4075.7,1645.7C-4075.6,1645.7-4075.6,1645.7-4075.7,1645.7z"/>
<path class="st0" d="M-4116.3,1534.6c8.9,0,17.4,1.6,23.9,4.6c2.8,1.3,3,3.4,0.5,4.8s-6.9,1.4-9.6,0.2c-4-1.8-9.2-2.9-14.7-2.9h-0.1
	c-5.5,0-10.7,1-14.8,2.9c-2.8,1.3-7.1,1.2-9.6-0.2s-2.4-3.5,0.4-4.8C-4133.8,1536.2-4125.3,1534.5-4116.3,1534.6
	C-4116.4,1534.6-4116.3,1534.6-4116.3,1534.6z"/>
<ellipse class="st1" cx="-4180.6" cy="1488.4" rx="46.2" ry="37.8"/>
<path class="st0" d="M-4031.5,1534.6c8.9,0,17.4,1.6,23.9,4.6c2.8,1.3,3,3.4,0.5,4.8s-6.9,1.4-9.6,0.2c-4-1.8-9.2-2.9-14.7-2.9h-0.1
	c-5.5,0-10.7,1-14.8,2.9c-2.8,1.3-7.1,1.2-9.6-0.2s-2.4-3.5,0.4-4.8C-4049,1536.2-4040.5,1534.5-4031.5,1534.6L-4031.5,1534.6z"/>
<path class="st12" d="M-4104,1570.1c0-6.3-5.2-11.4-11.5-11.4s-11.4,5.2-11.4,11.5s5.2,11.4,11.5,11.4S-4104,1576.4-4104,1570.1z"/>
<path class="st12" d="M-4023,1569.9c0-6.3-5.2-11.5-11.5-11.4c-6.3,0-11.5,5.2-11.4,11.5c0,6.3,5.2,11.5,11.5,11.4
	C-4028.2,1581.4-4023,1576.2-4023,1569.9z"/>
<ellipse transform="matrix(-0.3592 0.9333 -0.9333 -0.3592 -3949.4324 5773.291)" class="st1" cx="-3956.8" cy="1530.7" rx="41.5" ry="28.2"/>
<ellipse transform="matrix(-0.3592 0.9333 -0.9333 -0.3592 -3952.2874 5761.2642)" class="st0" cx="-3954.1" cy="1523.7" rx="41.5" ry="28.2"/>
<ellipse class="st1" cx="-3976.8" cy="1482.2" rx="46.2" ry="37.8"/>
<ellipse class="st0" cx="-3978.7" cy="1464.7" rx="47.3" ry="47.3"/>
<ellipse class="st1" cx="-4000.4" cy="1456.6" rx="46.2" ry="37.8"/>
<ellipse class="st0" cx="-4000.4" cy="1449.4" rx="45.4" ry="32.9"/>
<ellipse class="st0" cx="-4185.1" cy="1475.7" rx="44.4" ry="44.4"/>
<ellipse class="st1" cx="-4152.1" cy="1450.9" rx="46.2" ry="37.8"/>
<ellipse class="st1" cx="-4080.8" cy="1435.4" rx="71.3" ry="54.3"/>
<ellipse class="st0" cx="-4074.7" cy="1423" rx="74.3" ry="53.6"/>
<ellipse class="st0" cx="-4152.1" cy="1443.7" rx="45.4" ry="32.9"/>
<g>
	<path class="st6" d="M-4014.8,1774.2c-0.2-0.1-0.4-0.3-0.5-0.5c-0.5-0.8-0.3-2,0.5-2.6c7.9-6.2,14.9-13.9,20.9-22.9
		c4.8-7.2,9-15.3,12.3-24.1c5.7-14.8,7.2-26.5,7.2-26.6c0.1-1,1-1.8,2-1.8s1.6,0.9,1.5,2c-0.1,0.5-1.5,12.2-7.4,27.6
		c-3.4,9.1-7.8,17.4-12.7,24.9c-6.2,9.4-13.6,17.5-21.8,23.9C-4013.4,1774.5-4014.1,1774.5-4014.8,1774.2z"/>
	<path class="st7" d="M-3958.3,1708.9c0.4-0.8,0.1-1.7-0.5-2.2c-0.2-0.2-5.4-4-10.6-2.2c-2.4,0.8-4.3,2.2-5.4,3.8s-1.5,3.5-1.1,5.4
		c0.4,1.6,1.4,3,2.6,3.7c0.2,0.1,0.4,0.2,0.6,0.3c1.7,0.7,3.8,0.6,6.3-0.3C-3961.2,1715.7-3958.4,1709.2-3958.3,1708.9z"/>
	<path class="st8" d="M-3973.1,1709.4c0.2-2-0.5-4.1-1.9-6.2c-3-4.3-9.5-4.3-9.8-4.3c-0.8,0-1.5,0.6-1.8,1.4
		c-0.1,0.3-2.1,7.1,0.8,11.4c1,1.4,2.1,2.5,3.3,3.2c0.5,0.3,1,0.5,1.5,0.6c1.7,0.5,3.6,0,5.2-1.3
		C-3974.3,1713-3973.3,1711.4-3973.1,1709.4z"/>
	<path class="st8" d="M-3964,1725.4c0.4-0.8,0.1-1.7-0.5-2.2c-0.2-0.2-5.4-4-10.6-2.2c-2.4,0.8-4.3,2.2-5.4,3.8s-1.5,3.5-1.1,5.4
		c0.4,1.6,1.4,3,2.6,3.7c0.2,0.1,0.4,0.2,0.6,0.3c1.7,0.7,3.8,0.6,6.3-0.3C-3966.9,1732.2-3964.1,1725.7-3964,1725.4z"/>
	<path class="st7" d="M-3978.9,1725.9c0.2-2-0.5-4.1-1.9-6.2c-3-4.3-9.5-4.3-9.8-4.3c-0.8,0-1.5,0.6-1.8,1.4
		c-0.1,0.3-2.1,7.1,0.8,11.4c1,1.4,2.1,2.5,3.3,3.2c0.5,0.3,1,0.5,1.5,0.6c1.7,0.5,3.6,0,5.2-1.3
		C-3980.1,1729.5-3979.1,1727.9-3978.9,1725.9z"/>
	<path class="st7" d="M-3973.2,1742.4c-0.2-0.2-4.5-5-9.9-4.2c-2.5,0.4-4.5,1.4-6,2.8c-1.4,1.4-2.1,3.3-2,5.3s1,3.6,2.4,4.6
		c0.1,0.1,0.3,0.2,0.4,0.2c1.4,0.8,3.4,1.1,5.8,0.7c5.3-0.8,9.1-6.9,9.2-7.1C-3972.7,1743.9-3972.7,1742.9-3973.2,1742.4z"/>
	<g>
		<path class="st8" d="M-3987.6,1742.4c0.5-2,0.3-4.2-0.8-6.5c-2.1-5-8.5-6.2-8.8-6.2c-0.8-0.2-1.6,0.3-2,1.1
			c-0.1,0.3-3.3,6.7-1.1,11.6c0.9,2.2,2.2,3.7,3.6,4.5c0.1,0.1,0.3,0.1,0.4,0.2c1.6,0.7,3.4,0.6,5.2-0.3
			C-3989.3,1745.7-3988.1,1744.2-3987.6,1742.4z"/>
		<path class="st8" d="M-3984.3,1761.9c-0.2-0.3-3.5-5.9-8.9-6.1c-2.5-0.1-4.6,0.5-6.2,1.6c-1.5,1.2-2.5,2.9-2.8,4.9
			s0.4,3.8,1.6,5.1c0.4,0.4,0.8,0.7,1.4,1c1.2,0.6,2.6,1,4.4,1.1c5.3,0.2,10-5.2,10.1-5.3C-3984.1,1763.4-3984,1762.4-3984.3,1761.9
			z"/>
		<path class="st8" d="M-3998.3,1758.9c0.8-1.8,0.9-4.1,0.4-6.7c-1.2-5.3-7.2-7.7-7.4-7.8c-0.7-0.3-1.6,0-2.1,0.7
			c-0.2,0.3-4.3,6.1-3.1,11.4c0.5,2.5,1.6,4.4,3.1,5.5c0.2,0.1,0.4,0.3,0.5,0.4c1.4,0.7,2.9,0.8,4.5,0.3
			C-4000.5,1762.1-3999.1,1760.9-3998.3,1758.9z"/>
		<path class="st8" d="M-3965.1,1690.2c0.6-5.6-4.1-10-4.3-10.2c-0.5-0.5-1.4-0.5-2.2-0.1c-0.3,0.2-5.9,4.3-6.4,10
			c-0.3,2.7,0.1,4.9,1.1,6.4c0.5,0.8,1.2,1.4,1.9,1.8c0.7,0.5,1.6,0.6,2.5,0.6c1.9,0.1,3.6-0.7,4.9-2.2
			C-3966.2,1695-3965.4,1692.9-3965.1,1690.2z"/>
	</g>
</g>
<circle class="st13" cx="-4016.3" cy="1772.7" r="15.7"/>
<circle class="st14" cx="-4016.6" cy="1772.5" r="9.6"/>
<g>
	<path class="st16" d="M205.1,174.9c-32.6-21.1-75.5-32.6-121.2-32.6s-88.6,11.6-121.2,32.6c-32.5,21.1-50.4,48.9-50.4,78.5v158.8
		c0,2.7,3.5,5.1,7.7,5.1h327.6c4.3,0,7.7-2.2,7.7-5.1V253.4C255.4,224,237.5,196.1,205.1,174.9z"/>
	<ellipse class="st16" cx="-46.4" cy="413.9" rx="44.3" ry="37.7"/>
	<ellipse class="st16" cx="214.1" cy="412.9" rx="44.3" ry="37.7"/>
	<path class="st17" d="M-43,312.6c-0.1,0-0.1,0-0.2,0c-28.9,0.1-52.4,23.7-52.3,52.6c0,13.9,5.6,27.2,15.4,37.1s23,15.2,37,15.2h0.2
		c28.9-0.1,52.4-23.7,52.3-52.6C9.2,336-14.2,312.6-43,312.6z"/>
	<path class="st17" d="M266.7,622.1c-0.1-42.5-16.9-82.8-47.3-112.8c-30.3-30.1-70.3-46.6-112.6-46.6c-0.2,0-0.3,0-0.5,0l-52.4,0.2
		c-42.5,0.1-82.7,16.9-112.8,47.3s-46.8,70.6-46.7,113.1l0.1,20c0,4,3.3,7.3,7.3,7.3h357.6c1.9,0,3.8-0.8,5.2-2.1
		c1.4-1.4,2.1-3.2,2.1-5.2L266.7,622.1z"/>
	<path class="st18" d="M266.7,622.1c-0.1-42.5-16.9-82.8-47.3-112.8c-30.3-30.1-70.3-46.6-112.6-46.6c-0.2,0-0.3,0-0.5,0l-17.9,0.1
		c40.8,1.1,79.3,17.4,108.5,46.5c30.4,30.2,47.2,70.3,47.3,112.8l0.1,21c0,1.9-0.8,3.8-2.1,5.2c-1.4,1.4-3.2,2.1-5.2,2.1h22.5
		c1.9,0,3.8-0.8,5.2-2.1c1.4-1.4,2.1-3.2,2.1-5.2L266.7,622.1L266.7,622.1L266.7,622.1z"/>
	<g>
		<g>
			<path id="XMLID_46_" class="st4" d="M266.6,621.1c-0.1-42.3-16.9-82.1-47.3-112.1c-9.1-9-19-16.6-29.6-23.2
				c-7.5,29.4-39.2,53-80.6,60.6c-9.2,1.8-18.9,2.6-28.9,2.6c-9.9,0-19.5-0.9-28.7-2.5c-41.2-7.5-73-31-80.7-60.1
				c-10.7,6.5-20.5,14.4-29.7,23.5c-30.2,30.2-46.8,70.1-46.7,112.3l0.1,22.9c0.1,2.6,1.5,5,3.5,6.3h362.8c1.4-0.3,2.6-1.1,3.7-2
				c1.5-1.5,2.2-3.4,2.2-5.5L266.6,621.1z"/>
		</g>
		<g>
			<g>
				<g>
					<g>
						<g>
							<g>
								<g>
									<g>
										<defs>
											<path id="SVGID_5_" d="M266.6,621.1c-0.1-42.3-16.9-82.1-47.3-112.1c-9.1-9-19-16.6-29.6-23.2
												c-7.5,29.4-39.2,53-80.6,60.6c-9.2,1.8-18.9,2.6-28.9,2.6c-9.9,0-19.5-0.9-28.7-2.5c-41.2-7.5-73-31-80.7-60.1
												c-10.7,6.5-20.5,14.4-29.7,23.5c-30.2,30.2-46.8,70.1-46.7,112.3l0.1,22.9c0.1,2.6,1.5,5,3.5,6.3h362.8
												c1.4-0.3,2.6-1.1,3.7-2c1.5-1.5,2.2-3.4,2.2-5.5L266.6,621.1z"/>
										</defs>
										<clipPath id="SVGID_6_">
											<use xlink:href="#SVGID_5_"  style="overflow:visible;"/>
										</clipPath>
										<path class="st19" d="M267.7,621.7c-0.1-42.3-16.9-82.1-47.3-112.1c-30.3-29.9-70.3-46.3-112.6-46.3c-0.2,0-0.3,0-0.5,0
											l-18.9,0.1c40.8,1.1,79.2,17.3,108.5,46.2c30.4,30,47.1,69.8,47.3,112.1l0.1,22.9c0,2-0.8,4-2.2,5.5c-1,1-2.2,1.8-3.7,2
											h23.7c1.4-0.3,2.6-1.1,3.7-2c1.5-1.5,2.2-3.4,2.2-5.5L267.7,621.7z"/>
									</g>
								</g>
							</g>
						</g>
					</g>
				</g>
			</g>
		</g>
	</g>
	<g>
		<path class="st6" d="M51.4,637.6c-0.1-0.3-0.1-0.5-0.1-0.8c0.1-1.1,1.2-1.8,2.2-1.8c10.8,0.6,22-0.8,33.2-3.9
			c9.1-2.5,18.1-6.1,27-10.9c15.1-8.1,24.5-16.5,24.6-16.6c0.9-0.8,2.1-0.8,2.9-0.1c0.8,0.7,0.7,1.9-0.1,2.6
			c-0.4,0.4-9.9,8.9-25.5,17.1c-9.2,4.9-18.6,8.7-27.8,11.3c-11.7,3.2-23.4,4.6-34.6,4C52.3,638.8,51.6,638.3,51.4,637.6z"/>
		<path class="st7" d="M143.3,624.4c0.9-0.4,1.3-1.3,1.2-2.1c-0.1-0.3-1.6-7-7-9.2c-2.6-1.1-5.1-1.3-7.1-0.8s-3.7,1.8-4.7,3.7
			c-0.9,1.7-1,3.3-0.5,4.9c0.1,0.2,0.2,0.4,0.3,0.7c0.9,1.8,2.6,3.2,5.3,4.2C136.2,627.9,143,624.6,143.3,624.4z"/>
		<path class="st8" d="M130.8,614.2c1.6-1.5,2.4-3.6,2.8-6.3c0.7-5.6-4.7-10.2-4.9-10.4c-0.7-0.6-1.7-0.6-2.5-0.1
			c-0.3,0.2-6.7,4.3-7.4,9.8c-0.2,1.9-0.1,3.5,0.4,5c0.2,0.6,0.5,1.1,0.8,1.6c1.2,1.6,2.9,2.5,5.1,2.6
			C127.3,616.5,129.4,615.7,130.8,614.2z"/>
		<path class="st8" d="M126.9,633.7c0.9-0.4,1.3-1.3,1.2-2.1c-0.1-0.3-1.6-7-7-9.2c-2.6-1.1-5.1-1.3-7.1-0.8s-3.7,1.8-4.7,3.7
			c-0.9,1.7-1,3.3-0.5,4.9c0.1,0.2,0.2,0.4,0.3,0.7c0.9,1.8,2.6,3.2,5.3,4.2C119.8,637.2,126.6,633.9,126.9,633.7z"/>
		<path class="st7" d="M114.5,623.7c1.6-1.5,2.4-3.6,2.8-6.3c0.7-5.6-4.7-10.2-4.9-10.4c-0.7-0.6-1.7-0.6-2.5-0.1
			c-0.3,0.2-6.7,4.3-7.4,9.8c-0.2,1.9-0.1,3.5,0.4,5c0.2,0.6,0.5,1.1,0.8,1.6c1.2,1.6,2.9,2.5,5.1,2.6
			C111,625.8,113,625.1,114.5,623.7z"/>
		<path class="st7" d="M107.6,640.9c0-0.3-0.2-7.3-5.1-10.3c-2.3-1.5-4.7-2.1-6.8-1.9s-4,1.3-5.3,2.9c-1.3,1.7-1.8,3.6-1.2,5.5
			c0,0.2,0.1,0.3,0.1,0.5c0.6,1.8,2,3.3,4.2,4.7c4.9,3.1,12.2,0.9,12.6,0.8C107,642.6,107.6,641.8,107.6,640.9z"/>
		<g>
			<path class="st8" d="M95.9,630.8c1.8-1.3,3.1-3.2,4-5.8c1.8-5.5-2.5-10.9-2.7-11.2c-0.6-0.7-1.6-0.9-2.4-0.5
				c-0.3,0.1-7.3,3.1-9.1,8.7c-0.8,2.4-0.9,4.6-0.2,6.2c0.1,0.1,0.1,0.3,0.2,0.4c0.8,1.8,2.3,2.9,4.5,3.4
				C92.1,632.5,94.1,632,95.9,630.8z"/>
			<path class="st8" d="M84.9,648.9c0.1-0.3,1.3-7.3-2.9-11.1c-1.9-1.8-4.1-2.9-6.2-3c-2-0.2-4.1,0.6-5.7,2
				c-1.6,1.5-2.4,3.3-2.2,5.3c0,0.6,0.2,1.2,0.4,1.8c0.5,1.4,1.5,2.7,2.8,4c4.2,3.9,11.7,2.8,12,2.8
				C83.9,650.5,84.7,649.7,84.9,648.9z"/>
			<path class="st8" d="M75.4,636.8c1.9-1,3.6-2.6,5-5.2c2.8-5.2-0.4-11.3-0.5-11.6c-0.4-0.8-1.4-1.2-2.2-0.9
				c-0.3,0.1-7.7,1.8-10.5,7.1c-1.4,2.5-1.8,4.8-1.4,6.6c0.1,0.2,0.1,0.5,0.2,0.7c0.6,1.6,1.8,2.7,3.5,3.4
				C71.4,637.8,73.5,637.7,75.4,636.8z"/>
			<path class="st8" d="M150.9,604.4c4.5-4.1,3.8-11,3.8-11.3c-0.1-0.9-0.8-1.5-1.8-1.6c-0.3,0-7.8-0.6-12.3,3.5
				c-2.1,1.9-3.4,4-3.7,5.9c-0.2,1-0.1,1.9,0.3,2.8c0.3,0.9,0.9,1.7,1.6,2.3c1.5,1.4,3.5,1.9,5.5,1.7
				C146.6,607.5,148.7,606.4,150.9,604.4z"/>
		</g>
	</g>
	<path class="st9" d="M34.5,468.5c1.5,1.9,1.9,4.5,1.4,6.8c-3.3,12.9-5,26.2-4.9,39.5c0.1,26.1,13,55.7,35.4,81.3
		c22.4,25.5,50.8,43.3,78.2,49.1c3.7,0.8,6.2,4.2,6.2,7.9h23.5c0-3.5-2.2-6.6-5.5-7.6c-0.2-0.1-0.5-0.1-0.7-0.2
		c-27.3-5.6-55.8-23.4-78.2-49.1c-22.4-25.6-35.3-55.3-35.4-81.3c0-13.4,1.7-26.7,4.9-39.5c0.6-2.4,0.1-4.9-1.4-6.8s-3.7-3.1-6-3.1
		h-3.6c-3.9,0-7.7,0.2-11.5,0.5c-0.2,0-0.3,0-0.5,0c-0.5,0-1.1,0.1-1.6,0.1c-1,0.1-1.8,0.2-2.8,0.3C33,466.8,33.9,467.6,34.5,468.5z
		"/>
	<path class="st20" d="M144.6,643.4c-27.3-5.6-55.8-23.4-78.2-49.1S31.1,539,31,513c-0.1-13.3,1.6-26.6,4.9-39.5
		c0.6-2.3,0.1-4.9-1.4-6.8c-0.7-0.9-1.6-1.7-2.5-2.1c1-0.1,1.8-0.2,2.8-0.3c-37.4,3.4-72.1,20.1-99.1,48
		c-30,31.3-46.5,72.4-46.3,116.2l0.1,22.8h261.4C150.9,647.6,148.3,644.2,144.6,643.4z"/>
	<path class="st21" d="M205.8,311.8c-0.1,0-0.1,0-0.2,0c-28.9,0.1-52.4,23.7-52.3,52.6c0,13.9,5.6,27.2,15.4,37.1
		c9.8,9.8,23,15.2,37,15.2h0.2c28.9-0.1,52.4-23.7,52.3-52.6C258,335.1,234.6,311.8,205.8,311.8z"/>
	<path class="st17" d="M201.7,292.6c-0.1-25.5-18.9-46.3-41.9-46.3H5.9c-11.2,0-21.8,4.9-29.7,13.6c-7.9,8.9-12.3,20.5-12.3,33
		l0.2,90.3c0.2,72.4,53.5,131.1,119,131.1h0.4c65.5-0.2,118.8-59.4,118.5-131.9L201.7,292.6z"/>
	<path class="st18" d="M201.8,292.6c-0.1-25.5-17.6-46.3-39.3-46.3h-19.2c21.6,0,39.3,20.8,39.3,46.3l0.2,89.8
		C183,451.2,138,508,81,513.8c3.2,0.3,6.3,0.5,9.6,0.5h0.3c61.4-0.2,111.1-59.4,111.1-131.9L201.8,292.6z"/>
	
		<ellipse transform="matrix(-0.9333 0.3592 -0.3592 -0.9333 -8.1626 661.3387)" class="st22" cx="-65.5" cy="329.9" rx="32.1" ry="47.1"/>
	
		<ellipse transform="matrix(-0.9333 0.3592 -0.3592 -0.9333 -21.1584 654.559)" class="st16" cx="-71.4" cy="325.3" rx="32.1" ry="47.1"/>
	<path class="st23" d="M82.7,461.2c-10,0-19.8-3.7-27.2-10.6c-3.2-2.9-3.4-7.8-0.5-10.9c2.9-3.2,7.8-3.4,10.9-0.5
		c4.5,4.2,10.5,6.4,16.7,6.4h0.1c6.2,0,12.1-2.3,16.8-6.6c3.2-2.9,8-2.6,10.9,0.4c2.9,3.2,2.6,8-0.4,10.9
		C102.6,457.2,93,461,82.7,461.2C82.9,461.2,82.9,461.2,82.7,461.2z"/>
	<path class="st24" d="M36.6,334.9c10,0,19.8,1.9,27.2,5.3c3.2,1.5,3.4,3.9,0.5,5.5c-2.9,1.6-7.8,1.7-10.9,0.2
		c-4.5-2-10.5-3.3-16.7-3.3h-0.1c-6.2,0-12.1,1.2-16.8,3.3c-3.2,1.5-8,1.4-10.9-0.2s-2.6-4,0.4-5.5
		C16.7,336.8,26.4,334.8,36.6,334.9C36.5,334.9,36.6,334.9,36.6,334.9z"/>
	<ellipse class="st22" cx="-36.4" cy="282.4" rx="52.5" ry="43"/>
	<path class="st24" d="M133,334.9c10,0,19.8,1.9,27.2,5.3c3.2,1.5,3.4,3.9,0.5,5.5s-7.8,1.7-10.9,0.2c-4.5-2-10.5-3.3-16.7-3.3H133
		c-6.2,0-12.1,1.2-16.8,3.3c-3.2,1.5-8,1.4-10.9-0.2s-2.6-4,0.4-5.5C113.2,336.8,122.8,334.8,133,334.9L133,334.9z"/>
	<path class="st12" d="M50.6,375.3c0-7.2-5.8-13-13.1-13c-7.2,0-13,5.8-13,13.1s5.8,13,13.1,13C44.8,388.4,50.6,382.4,50.6,375.3z"
		/>
	<path class="st12" d="M142.7,374.9c0-7.2-5.8-13.1-13.1-13c-7.2,0-13.1,5.8-13,13.1c0,7.2,5.8,13.1,13.1,13
		C136.8,388,142.7,382.1,142.7,374.9z"/>
	
		<ellipse transform="matrix(-0.3592 0.9333 -0.9333 -0.3592 603.6005 244.9566)" class="st22" cx="217.7" cy="329.7" rx="47.1" ry="32.1"/>
	
		<ellipse transform="matrix(-0.3592 0.9333 -0.9333 -0.3592 600.4836 231.2514)" class="st16" cx="220.8" cy="321.8" rx="47.1" ry="32.1"/>
	<ellipse class="st22" cx="195.2" cy="275.3" rx="52.5" ry="43"/>
	<ellipse class="st16" cx="192.9" cy="255.6" rx="53.7" ry="53.7"/>
	<ellipse class="st22" cx="168.3" cy="246.4" rx="52.5" ry="43"/>
	<ellipse class="st16" cx="168.3" cy="238.1" rx="51.7" ry="37.3"/>
	<ellipse class="st16" cx="-41.5" cy="267.9" rx="50.4" ry="50.4"/>
	<ellipse class="st22" cx="-4" cy="239.9" rx="52.5" ry="43"/>
	<ellipse class="st22" cx="76.9" cy="222.2" rx="80.9" ry="61.7"/>
	<ellipse class="st16" cx="83.9" cy="208.1" rx="84.4" ry="60.9"/>
	<ellipse class="st16" cx="-4" cy="231.7" rx="51.7" ry="37.3"/>
	<g>
		<path class="st6" d="M148,592.3c-0.2-0.1-0.4-0.3-0.6-0.6c-0.6-0.9-0.3-2.1,0.6-2.8c8.5-6.6,16.1-15,22.5-24.6
			c5.2-7.8,9.6-16.5,13.2-25.9c6.1-16,7.7-28.5,7.7-28.6c0.1-1.1,1.1-1.9,2.1-1.9s1.8,1,1.7,2.1c-0.1,0.5-1.7,13.1-8,29.7
			c-3.7,9.7-8.4,18.7-13.6,26.8c-6.7,10.1-14.6,18.8-23.5,25.7C149.4,592.6,148.6,592.6,148,592.3z"/>
		<path class="st7" d="M208.7,522c0.4-0.9,0.1-1.8-0.6-2.3c-0.2-0.2-5.8-4.3-11.4-2.3c-2.6,0.9-4.7,2.3-5.8,4.1
			c-1.2,1.8-1.7,3.8-1.2,5.8c0.4,1.8,1.5,3.2,2.8,4c0.2,0.1,0.4,0.2,0.7,0.3c1.8,0.8,4.1,0.7,6.8-0.3
			C205.6,529.3,208.6,522.3,208.7,522z"/>
		<path class="st8" d="M192.7,522.6c0.2-2.1-0.5-4.4-2-6.6c-3.2-4.7-10.2-4.7-10.5-4.7c-0.9,0-1.7,0.7-1.9,1.6
			c-0.1,0.3-2.2,7.6,0.9,12.3c1.1,1.6,2.2,2.7,3.5,3.4c0.6,0.3,1.1,0.5,1.7,0.7c1.8,0.5,3.9,0,5.5-1.4
			C191.5,526.4,192.6,524.7,192.7,522.6z"/>
		<path class="st8" d="M202.6,539.9c0.4-0.9,0.1-1.8-0.6-2.3c-0.2-0.2-5.8-4.3-11.4-2.3c-2.6,0.9-4.7,2.3-5.8,4.1
			c-1.2,1.8-1.7,3.8-1.2,5.8c0.4,1.8,1.5,3.2,2.8,4c0.2,0.1,0.4,0.2,0.7,0.3c1.8,0.8,4.1,0.7,6.8-0.3
			C199.5,547.2,202.4,540.2,202.6,539.9z"/>
		<path class="st7" d="M186.5,540.3c0.2-2.1-0.5-4.4-2-6.6c-3.2-4.7-10.2-4.7-10.5-4.7c-0.9,0-1.7,0.7-1.9,1.6
			c-0.1,0.3-2.2,7.6,0.9,12.3c1.1,1.6,2.2,2.7,3.5,3.4c0.6,0.3,1.1,0.5,1.7,0.7c1.8,0.5,3.9,0,5.5-1.4S186.3,542.5,186.5,540.3z"/>
		<path class="st7" d="M192.7,558c-0.2-0.2-4.9-5.4-10.6-4.5c-2.7,0.4-4.9,1.5-6.4,3c-1.5,1.6-2.2,3.5-2.1,5.6
			c0.1,2.1,1.1,3.9,2.6,5c0.1,0.1,0.3,0.2,0.4,0.2c1.6,0.9,3.7,1.2,6.2,0.8c5.7-0.9,9.7-7.4,9.9-7.6
			C193.2,559.6,193.2,558.7,192.7,558z"/>
		<g>
			<path class="st8" d="M177.2,558c0.5-2.1,0.3-4.5-0.9-7c-2.2-5.4-9.2-6.6-9.4-6.6c-0.9-0.2-1.8,0.3-2.1,1.2
				c-0.1,0.3-3.5,7.2-1.2,12.5c1,2.3,2.3,4,3.9,4.9c0.1,0.1,0.3,0.1,0.4,0.2c1.8,0.8,3.7,0.7,5.5-0.3
				C175.3,561.7,176.6,560,177.2,558z"/>
			<path class="st8" d="M180.7,578.9c-0.2-0.3-3.8-6.3-9.5-6.5c-2.7-0.1-5,0.5-6.7,1.8s-2.7,3.1-3,5.3c-0.3,2.1,0.4,4.1,1.8,5.5
				c0.4,0.4,0.9,0.8,1.5,1.1c1.3,0.7,2.8,1.1,4.8,1.2c5.6,0.2,10.7-5.5,10.9-5.7C181,580.7,181.1,579.6,180.7,578.9z"/>
			<path class="st8" d="M165.7,575.9c0.9-1.9,1-4.4,0.4-7.2c-1.3-5.7-7.7-8.3-8-8.4c-0.8-0.3-1.8,0-2.2,0.8
				c-0.2,0.3-4.6,6.5-3.3,12.3c0.6,2.7,1.8,4.8,3.3,5.9c0.2,0.1,0.4,0.3,0.6,0.4c1.5,0.8,3.1,0.9,4.9,0.3
				C163.2,579.3,164.8,577.9,165.7,575.9z"/>
			<path class="st8" d="M201.3,502c0.7-6-4.4-10.8-4.6-11c-0.6-0.6-1.6-0.6-2.3-0.1c-0.3,0.2-6.3,4.7-6.9,10.7
				c-0.3,2.9,0.1,5.3,1.2,6.9c0.5,0.9,1.3,1.5,2,1.9c0.8,0.5,1.8,0.7,2.7,0.7c2,0.1,3.9-0.8,5.3-2.3
				C200.1,507.1,201,504.9,201.3,502z"/>
		</g>
	</g>
	<circle class="st13" cx="146.3" cy="590.7" r="16.8"/>
	<circle class="st14" cx="146" cy="590.5" r="10.3"/>
</g>
</svg>
