<?xml version="1.0" encoding="utf-8"?>
<!-- Generator: Adobe Illustrator 23.1.0, SVG Export Plug-In . SVG Version: 6.00 Build 0)  -->
<svg version="1.1" id="Layer_1" xmlns="http://www.w3.org/2000/svg" xmlns:xlink="http://www.w3.org/1999/xlink" x="0px" y="0px"
	 viewBox="0 0 383 508.7" style="enable-background:new 0 0 383 508.7;" xml:space="preserve">
<style type="text/css">
	.st0{fill:#BABABA;}
	.st1{fill:#3F2016;}
	.st2{fill:#F0BCA6;}
	.st3{fill:#E2A58A;}
	.st4{fill:#E8E8E8;}
	.st5{clip-path:url(#SVGID_2_);fill:#C2C6CC;}
	.st6{fill:#F8A814;}
	.st7{fill:#F8B53C;}
	.st8{fill:#F9CD45;}
	.st9{fill:#D8C58F;}
	.st10{fill:#F7E8A9;}
	.st11{fill:#4C350C;}
	.st12{fill:#825308;}
	.st13{fill:#ECEDEF;}
	.st14{fill:#868686;}
	.st15{fill:#DCDBDD;}
</style>
<g>
	<ellipse class="st0" cx="74.5" cy="241.7" rx="32" ry="35.9"/>
	<ellipse class="st0" cx="102.5" cy="269.2" rx="32" ry="35.9"/>
	<ellipse class="st0" cx="316.3" cy="234.8" rx="32" ry="35.9"/>
	<ellipse class="st0" cx="286.3" cy="269.2" rx="32" ry="35.9"/>
	<circle class="st1" cx="197.4" cy="174.7" r="141.5"/>
	<path class="st2" d="M371,480.5c-0.1-40.3-16.1-78.4-44.9-107c-28.7-28.5-66.7-44.2-106.8-44.2c-0.2,0-0.3,0-0.5,0l-49.7,0.2
		c-40.3,0.1-78.4,16.1-107,44.9s-44.3,66.9-44.2,107.3l0.1,18.9c0,3.8,3.1,6.9,6.9,6.9H364c1.8,0,3.6-0.7,4.9-2s2-3,2-4.9L371,480.5
		z"/>
	<path class="st3" d="M371,480.5c-0.1-40.3-16.1-78.4-44.9-107c-28.7-28.5-66.7-44.2-106.8-44.2c-0.2,0-0.3,0-0.5,0l-17,0.1
		c38.7,1,75.2,16.5,102.9,44.1c28.8,28.6,44.8,66.7,44.9,107l0.1,19.9c0,1.8-0.7,3.6-2,4.9s-3,2-4.9,2H364c1.8,0,3.6-0.7,4.9-2
		s2-3,2-4.9V480.5z"/>
	<g>
		<g>
			<path id="XMLID_40_" class="st4" d="M370.8,479.6c-0.1-40.1-16.1-77.8-44.9-106.3c-8.6-8.5-18-15.8-28.1-22
				c-7.1,27.9-37.2,50.2-76.4,57.4c-8.8,1.7-17.9,2.5-27.4,2.5c-9.4,0-18.5-0.8-27.2-2.4c-39.1-7.1-69.2-29.4-76.5-57
				c-10.2,6.2-19.5,13.7-28.2,22.3c-28.7,28.7-44.4,66.5-44.3,106.6l0.1,21.7c0.1,2.5,1.4,4.7,3.3,6h344c1.3-0.3,2.5-1,3.5-1.9
				c1.4-1.4,2.1-3.2,2.1-5.2L370.8,479.6L370.8,479.6z"/>
		</g>
		<g>
			<g>
				<g>
					<defs>
						<path id="SVGID_1_" d="M370.8,479.6c-0.1-40.1-16.1-77.8-44.9-106.3c-8.6-8.5-18-15.8-28.1-22c-7.1,27.9-37.2,50.2-76.4,57.4
							c-8.8,1.7-17.9,2.5-27.4,2.5c-9.4,0-18.5-0.8-27.2-2.4c-39.1-7.1-69.2-29.4-76.5-57c-10.2,6.2-19.5,13.7-28.2,22.3
							c-28.7,28.7-44.4,66.5-44.3,106.6l0.1,21.7c0.1,2.5,1.4,4.7,3.3,6h344c1.3-0.3,2.5-1,3.5-1.9c1.4-1.4,2.1-3.2,2.1-5.2
							L370.8,479.6L370.8,479.6z"/>
					</defs>
					<clipPath id="SVGID_2_">
						<use xlink:href="#SVGID_1_"  style="overflow:visible;"/>
					</clipPath>
					<path class="st5" d="M373,480.8c-0.1-40.1-16.1-77.8-44.9-106.3c-28.7-28.3-66.7-43.9-106.8-43.9c-0.2,0-0.3,0-0.5,0l-17.9,0.1
						c38.7,1,75.1,16.4,102.9,43.9c28.8,28.4,44.7,66.2,44.9,106.3l0.1,21.7c0,1.9-0.7,3.8-2.1,5.2c-0.9,0.9-2.1,1.7-3.5,1.9h22.4
						c1.3-0.3,2.5-1,3.5-1.9c1.4-1.4,2.1-3.2,2.1-5.2L373,480.8z"/>
				</g>
			</g>
		</g>
	</g>
	<path class="st6" d="M168.4,496.2c-0.1-0.3-0.1-0.5-0.1-0.7c0.1-1,1.1-1.8,2.1-1.7c10.2,0.6,20.9-0.7,31.5-3.7
		c8.6-2.4,17.2-5.8,25.6-10.3c14.3-7.7,23.3-15.6,23.4-15.7c0.8-0.7,2-0.7,2.8-0.1s0.6,1.8-0.1,2.5c-0.4,0.4-9.4,8.4-24.2,16.2
		c-8.7,4.6-17.6,8.2-26.4,10.7c-11.1,3-22.2,4.3-32.8,3.8C169.3,497.3,168.8,496.8,168.4,496.2z"/>
	<path class="st7" d="M255.7,483.6c0.8-0.4,1.2-1.2,1.1-2c-0.1-0.3-1.5-6.6-6.6-8.8c-2.5-1-4.8-1.2-6.7-0.7s-3.5,1.8-4.4,3.5
		c-0.8,1.6-0.9,3.1-0.5,4.6c0.1,0.2,0.2,0.4,0.3,0.6c0.8,1.7,2.5,3,5,4C248.9,487,255.4,483.8,255.7,483.6z"/>
	<path class="st8" d="M243.9,474.1c1.5-1.4,2.3-3.4,2.7-6c0.6-5.4-4.4-9.7-4.6-9.9c-0.6-0.6-1.6-0.6-2.4-0.1c-0.3,0.2-6.4,4.1-7,9.3
		c-0.2,1.8-0.1,3.3,0.4,4.7c0.2,0.6,0.5,1,0.7,1.5c1.1,1.5,2.8,2.4,4.8,2.5C240.6,476.2,242.4,475.5,243.9,474.1z"/>
	<path class="st8" d="M240.2,492.6c0.8-0.4,1.2-1.2,1.1-2c-0.1-0.3-1.5-6.6-6.6-8.8c-2.5-1-4.8-1.2-6.7-0.7s-3.5,1.8-4.4,3.5
		c-0.8,1.6-0.9,3.1-0.5,4.6c0.1,0.2,0.2,0.4,0.3,0.6c0.8,1.7,2.5,3,5,4C233.4,495.9,239.9,492.7,240.2,492.6z"/>
	<path class="st7" d="M228.4,483c1.5-1.4,2.3-3.4,2.7-6c0.6-5.4-4.4-9.7-4.6-9.9c-0.6-0.6-1.6-0.6-2.4-0.1c-0.3,0.2-6.4,4.1-7,9.3
		c-0.2,1.8-0.1,3.3,0.4,4.7c0.2,0.6,0.5,1,0.7,1.5c1.1,1.5,2.8,2.4,4.8,2.5S226.9,484.4,228.4,483z"/>
	<path class="st9" d="M149.7,333.1c1.4,1.8,1.8,4.3,1.3,6.6c-3.1,12.4-4.7,25.1-4.6,37.9c0.1,25,12.4,53.4,33.6,77.9
		s48.2,41.5,74.1,47c3.5,0.7,5.9,4,5.9,7.6h22.3c0-3.3-2.1-6.4-5.2-7.3c-0.2-0.1-0.5-0.1-0.6-0.2c-25.9-5.4-52.9-22.4-74.1-47
		s-33.5-53-33.6-77.9c0-12.8,1.6-25.6,4.6-37.9c0.6-2.3,0.1-4.7-1.3-6.6s-3.5-3-5.7-3h-3.4c-3.7,0-7.3,0.2-10.9,0.5
		c-0.2,0-0.3,0-0.5,0c-0.5,0-1,0.1-1.5,0.1c-0.9,0.1-1.8,0.2-2.7,0.3C148.3,331.5,149.1,332.2,149.7,333.1z"/>
	<path class="st10" d="M254.1,502.3c-25.9-5.4-52.9-22.4-74.1-47s-33.5-53-33.6-77.9c-0.1-12.7,1.5-25.5,4.6-37.9
		c0.6-2.2,0.1-4.7-1.3-6.6c-0.6-0.8-1.5-1.6-2.4-2c0.9-0.1,1.8-0.2,2.7-0.3c-35.5,3.2-68.4,19.3-94,46C27.6,406.6,11.9,446,12.1,488
		l0.1,21.9H260C260,506.3,257.5,503,254.1,502.3z"/>
	<path class="st6" d="M260.2,453.3c-0.2-0.1-0.4-0.3-0.6-0.6c-0.6-0.8-0.3-2,0.6-2.7c8-6.3,15.2-14.2,21.3-23.4
		c4.9-7.4,9.1-15.6,12.6-24.6c5.8-15.1,7.3-27.1,7.3-27.1c0.1-1,1-1.8,2-1.8s1.7,0.9,1.6,2c-0.1,0.5-1.6,12.5-7.6,28.2
		c-3.5,9.2-7.9,17.7-12.9,25.4c-6.4,9.6-13.8,17.8-22.3,24.4C261.5,453.5,260.7,453.6,260.2,453.3z"/>
	<path class="st7" d="M317.8,386.6c0.4-0.8,0.1-1.8-0.6-2.2c-0.2-0.2-5.5-4.1-10.8-2.2c-2.5,0.8-4.4,2.2-5.5,3.9
		c-1.1,1.7-1.6,3.6-1.1,5.5c0.4,1.7,1.4,3,2.7,3.8c0.2,0.1,0.4,0.2,0.6,0.3c1.8,0.7,3.9,0.6,6.5-0.3
		C314.8,393.6,317.7,386.9,317.8,386.6z"/>
	<path class="st8" d="M302.5,387.2c0.2-2-0.5-4.2-1.9-6.3c-3-4.4-9.7-4.4-10-4.4c-0.8,0-1.6,0.6-1.8,1.5c-0.1,0.3-2.1,7.2,0.8,11.6
		c1,1.5,2.1,2.6,3.3,3.2c0.6,0.3,1,0.5,1.6,0.6c1.8,0.5,3.7,0,5.3-1.3C301.3,390.9,302.3,389.1,302.5,387.2z"/>
	<path class="st8" d="M311.8,403.5c0.4-0.8,0.1-1.8-0.6-2.2c-0.2-0.2-5.5-4.1-10.8-2.2c-2.5,0.8-4.4,2.2-5.5,3.9
		c-1.1,1.7-1.6,3.6-1.1,5.5c0.4,1.7,1.4,3,2.7,3.8c0.2,0.1,0.4,0.2,0.6,0.3c1.8,0.7,3.9,0.6,6.5-0.3
		C308.8,410.4,311.8,403.8,311.8,403.5z"/>
	<path class="st7" d="M296.7,404.1c0.2-2-0.5-4.2-1.9-6.3c-3-4.4-9.7-4.4-10-4.4c-0.8,0-1.6,0.6-1.8,1.5c-0.1,0.3-2.1,7.2,0.8,11.6
		c1,1.5,2.1,2.6,3.3,3.2c0.6,0.3,1,0.5,1.6,0.6c1.8,0.5,3.7,0,5.3-1.3C295.5,407.8,296.5,406,296.7,404.1z"/>
	<path class="st7" d="M302.3,420.7c-0.2-0.2-4.6-5.1-10.1-4.2c-2.6,0.4-4.6,1.4-6.1,2.9c-1.4,1.5-2.1,3.3-2,5.4c0.1,2,1,3.7,2.5,4.7
		c0.1,0.1,0.3,0.2,0.4,0.2c1.5,0.8,3.5,1.1,5.9,0.7c5.4-0.8,9.2-7,9.4-7.2C303,422.2,303,421.3,302.3,420.7z"/>
	<g>
		<path class="st8" d="M287.8,420.7c0.5-2,0.3-4.2-0.8-6.6c-2.1-5.1-8.7-6.3-9-6.3c-0.8-0.2-1.7,0.3-2,1.1
			c-0.1,0.3-3.3,6.8-1.1,11.8c0.9,2.2,2.2,3.8,3.7,4.6c0.1,0.1,0.3,0.1,0.4,0.2c1.7,0.7,3.5,0.6,5.3-0.3
			C286,424.3,287.3,422.6,287.8,420.7z"/>
		<path class="st8" d="M291,440.5c-0.2-0.3-3.6-6-9-6.2c-2.6-0.1-4.7,0.5-6.4,1.7c-1.6,1.2-2.6,3-2.9,5s0.4,3.9,1.7,5.2
			c0.4,0.4,0.8,0.7,1.4,1c1.2,0.6,2.7,1,4.5,1.1c5.4,0.2,10.2-5.3,10.3-5.4C291.5,442.2,291.5,441.3,291,440.5z"/>
		<path class="st8" d="M276.8,437.8c0.8-1.8,0.9-4.2,0.4-6.8c-1.2-5.4-7.3-7.8-7.6-7.9c-0.7-0.3-1.7,0-2.1,0.7
			c-0.2,0.3-4.3,6.2-3.1,11.6c0.6,2.6,1.7,4.5,3.1,5.6c0.2,0.1,0.4,0.3,0.6,0.4c1.4,0.7,3,0.8,4.6,0.3
			C274.7,441,276,439.6,276.8,437.8z"/>
		<path class="st8" d="M310.8,367.6c0.6-5.7-4.2-10.2-4.3-10.4c-0.6-0.6-1.5-0.6-2.2-0.1c-0.3,0.2-6,4.4-6.6,10.2
			c-0.3,2.8,0.1,5,1.1,6.6c0.5,0.8,1.2,1.4,1.9,1.8c0.7,0.5,1.7,0.6,2.6,0.6c1.9,0.1,3.7-0.7,5-2.2S310.5,370.4,310.8,367.6z"/>
	</g>
	<circle class="st11" cx="258.5" cy="451.8" r="16"/>
	<circle class="st12" cx="258.3" cy="451.6" r="9.8"/>
	<path class="st2" d="M92.5,187.8L92.5,187.8c-21,0.1-37.9,21.2-37.9,47.2c0,12.6,4,24.4,11.2,33.2c7.1,8.9,16.6,13.7,26.7,13.7h0.1
		c20.9-0.1,37.8-21.2,37.8-47.2C130.3,208.9,113.3,187.8,92.5,187.8z"/>
	<path class="st2" d="M298.7,187.1L298.7,187.1c-21.6,0.1-39.1,21.2-39,47.2c0,12.6,4.2,24.4,11.5,33.2c7.4,8.9,17.1,13.7,27.5,13.7
		h0.1c21.5-0.1,39-21.2,38.9-47.2C337.5,208,320,187.1,298.7,187.1z"/>
	<path class="st2" d="M301,169.9c-0.1-22.9-16.8-41.5-37.3-41.5H127c-10,0-19.4,4.3-26.4,12.3c-7,7.9-10.9,18.4-10.9,29.5l0.2,81.1
		C90,316.3,137.4,369,195.6,369h0.4c58.3-0.2,105.5-53.3,105.3-118.4L301,169.9z"/>
	<path class="st3" d="M196.3,321.1c-9,0-17.7-3.3-24.4-9.5c-2.9-2.6-3-7-0.5-9.8c2.6-2.9,7-3,9.8-0.5c4.1,3.8,9.4,5.8,15,5.8h0.1
		c5.6,0,10.9-2.1,15-5.9c2.9-2.6,7.2-2.4,9.8,0.4c2.6,2.9,2.4,7.2-0.4,9.8C214.1,317.6,205.4,321.1,196.3,321.1
		C196.4,321.1,196.3,321.1,196.3,321.1z"/>
	<path class="st13" d="M154.7,207.9c9,0,17.7,1.7,24.4,4.7c2.9,1.3,3,3.5,0.5,4.9c-2.6,1.4-7,1.5-9.8,0.2c-4.1-1.8-9.4-3-15-3h-0.1
		c-5.6,0-10.9,1-15,3c-2.9,1.3-7.2,1.2-9.8-0.2s-2.4-3.6,0.4-4.9C136.9,209.5,145.6,207.8,154.7,207.9L154.7,207.9z"/>
	<path class="st13" d="M241.3,207.9c9,0,17.7,1.7,24.4,4.7c2.9,1.3,3,3.5,0.5,4.9c-2.6,1.4-7,1.5-9.8,0.2c-4.1-1.8-9.4-3-15-3h-0.1
		c-5.6,0-10.9,1-15,3c-2.9,1.3-7.2,1.2-9.8-0.2s-2.4-3.6,0.4-4.9C223.4,209.5,232.2,207.8,241.3,207.9
		C241.2,207.9,241.3,207.9,241.3,207.9z"/>
	<path class="st14" d="M167.3,244.1c0-6.5-5.3-11.6-11.7-11.6s-11.6,5.3-11.6,11.7c0,6.5,5.3,11.6,11.7,11.6
		S167.4,250.5,167.3,244.1z"/>
	<path class="st14" d="M249.9,243.9c0-6.5-5.3-11.7-11.7-11.6c-6.5,0-11.7,5.3-11.6,11.7c0,6.5,5.3,11.7,11.7,11.6
		C244.7,255.5,249.9,250.3,249.9,243.9z"/>
	<circle class="st15" cx="140.8" cy="75" r="70.4"/>
	<circle class="st15" cx="247.9" cy="73.9" r="67.6"/>
	<circle class="st15" cx="315.5" cy="169.4" r="28"/>
	<circle class="st15" cx="320.3" cy="198.8" r="23.4"/>
	<circle class="st15" cx="301.3" cy="129" r="43.7"/>
	<circle class="st15" cx="197.4" cy="103" r="55.6"/>
	<circle class="st15" cx="279.5" cy="123.7" r="47.5"/>
	<circle class="st15" cx="274" cy="112" r="47.5"/>
	<circle class="st15" cx="120.2" cy="129.3" r="44"/>
	<ellipse class="st15" cx="64.1" cy="164.4" rx="34.4" ry="34.4"/>
	<circle class="st15" cx="58.6" cy="201.8" r="28.6"/>
	<circle class="st15" cx="73" cy="118.8" r="43.8"/>
</g>
</svg>
