<?xml version="1.0" encoding="utf-8"?>
<!-- Generator: Adobe Illustrator 19.0.0, SVG Export Plug-In . SVG Version: 6.00 Build 0)  -->
<svg version="1.1" id="Layer_1" xmlns="http://www.w3.org/2000/svg" xmlns:xlink="http://www.w3.org/1999/xlink" x="0px" y="0px"
	 viewBox="-114 142.3 383 508.7" style="enable-background:new -114 142.3 383 508.7;" xml:space="preserve">
<style type="text/css">
	.st0{fill:#ECEDEF;}
	.st1{fill:#A19994;}
	.st2{fill:#897F79;}
	.st3{fill:#D6B07F;}
	.st4{clip-path:url(#SVGID_2_);}
	.st5{fill:#A57C50;}
	.st6{fill:#FFF4F1;}
	.st7{fill:#E0A632;}
	.st8{fill:#F7B93E;}
	.st9{fill:#D0CFD1;}
	.st10{fill:#DCDBDD;}
	.st11{fill:#979797;}
	.st12{fill:#868686;}
	.st13{fill:#BF736A;}
	.st14{fill:none;}
	.st15{clip-path:url(#SVGID_4_);}
</style>
<title>old</title>
<path class="st0" d="M269,554.9v86.7c0,4.1-2.5,7.8-6.2,9.8h-80c-3.8-2.1-6.3-5.8-6.3-9.8V517.3c0-4.6,3.1-8.6,7.6-10.5
	c1.2-0.5,2.6-0.9,4-1.1c0.8-0.1,1.6-0.2,2.4-0.2h20.4c0.3,0,0.6,0,0.8,0h0.2c0.3,0,0.6,0,0.9,0c0.1,0,0.3,0,0.4,0
	C244,506.5,269,528.3,269,554.9z"/>
<path class="st1" d="M262.9,624.2v-1.6v-0.7c0-0.5,0-0.9,0-1.4c0-1.3-0.1-2.5-0.1-3.8c0-0.5,0-1-0.1-1.4c0-1.1-0.1-2.3-0.2-3.4
	c-0.1-1.3-0.2-2.5-0.3-3.8c-0.1-1.4-0.3-2.7-0.4-4.1c-0.4-3.5-0.9-6.9-1.5-10.2l0,0c-6.3-34.2-23.3-64.7-47.5-87.6
	c-0.3-0.3-0.6-0.6-0.9-0.8c-0.4-0.4-0.8-0.7-1.2-1.1c-1.7-1.6-3.4-3.1-5.2-4.6c-3.3-2.8-6.7-5.4-10.1-7.9c-0.9-0.6-1.8-1.3-2.7-1.9
	c-7.5-5.1-15.3-9.6-23.6-13.4c-0.3-0.2-0.7-0.3-1-0.5c-4.5-2-9.1-3.9-13.7-5.5c-0.1,0-0.2-0.1-0.3-0.1c-9.6-3.3-19.5-5.8-29.7-7.2
	c-0.8-0.1-1.5-0.2-2.3-0.3c-0.5-0.1-0.9-0.1-1.4-0.2c-0.7-0.1-1.4-0.2-2.1-0.2c-0.9-0.1-1.7-0.2-2.6-0.3c-1.4-0.1-2.7-0.2-4.1-0.3
	c-0.7,0-1.4-0.1-2.1-0.1c-1.9-0.1-3.9-0.2-5.8-0.2c-0.8,0-1.7,0-2.5,0h-0.6l-45.7,0.2h-7.1c-5.1,0-10.1,0.3-15.1,0.8
	c-0.3,0-0.7,0.1-1,0.1c-12.9,1.4-25.4,4.2-37.2,8.4c-0.1,0-0.2,0.1-0.3,0.1c-0.3,0.1-0.5,0.2-0.8,0.3c-0.1,0.1-0.3,0.1-0.5,0.2
	c-17.7,6.5-33.9,15.9-48.1,27.8c-21,17.5-37.4,40.3-47.4,66.4v0.1c-6.8,17.8-10.4,37-10.5,57.1l0.3,23.2c0.1,1.9,0.9,3.8,2.2,5.2
	h369.8c0.4-0.3,0.8-0.6,1.2-0.9c1.5-1.5,2.3-3.5,2.3-5.5L262.9,624.2z"/>
<path class="st2" d="M263.1,645.9c0,0.6-0.1,1.2-0.2,1.8c-0.3,1.4-1,2.7-2.1,3.8H237c1.5-1.5,2.3-3.5,2.3-5.6l-0.1-19.1v-4.2
	c-0.2-39-14.2-74.8-37.6-102.7c-0.8-1-1.6-1.9-2.5-2.9c-1.8-2.1-3.7-4.1-5.7-6.1c-1.8-1.8-3.6-3.6-5.4-5.3c-1.2-1.1-2.3-2.2-3.5-3.2
	c-0.3-0.2-0.5-0.5-0.8-0.7c-7.3-6.3-15-11.9-23.3-16.9c-0.3-0.2-0.6-0.4-0.9-0.6c-3.9-2.3-7.8-4.4-11.8-6.3c-0.1,0-0.2-0.1-0.3-0.1
	c-19.9-9.6-42-15.2-65.5-15.9l19-0.1h0.6c0.8,0,1.7,0,2.5,0c1.9,0,3.9,0.1,5.8,0.2c0.7,0,1.4,0.1,2.1,0.1c1.4,0.1,2.7,0.2,4.1,0.3
	c0.9,0.1,1.8,0.2,2.6,0.3c0.7,0.1,1.4,0.2,2.1,0.2c0.5,0.1,0.9,0.1,1.4,0.2c0.8,0.1,1.5,0.2,2.3,0.3c10.2,1.5,20.2,3.9,29.7,7.3
	c0.1,0,0.2,0.1,0.3,0.1c4.7,1.6,9.3,3.5,13.7,5.5l0,0c0.3,0.2,0.7,0.3,1,0.5c8.3,3.8,16.1,8.3,23.5,13.4c0.9,0.6,1.8,1.3,2.7,1.9
	c3.5,2.5,6.9,5.2,10.1,8c1.8,1.5,3.5,3.1,5.3,4.7c0.3,0.3,0.7,0.6,1,0.9c0.4,0.3,0.7,0.7,1.1,1c24.2,23,41.2,53.3,47.5,87.5
	c0.6,3.4,1.2,6.8,1.6,10.1c0.2,1.4,0.3,2.7,0.4,4.1c0.1,1.3,0.2,2.5,0.3,3.8c0.1,1.1,0.1,2.3,0.2,3.4c0,0.5,0,1,0.1,1.4
	c0,1.3,0.1,2.5,0.1,3.8c0,0.7,0,1.4,0,2.1v1.6L263.1,645.9z"/>
<path class="st3" d="M263.4,622.7l-0.1,22.5v0.8c-0.1,2.1-0.9,4-2.4,5.5h-369.2c-0.5-0.3-1-0.7-1.5-1.1c-1.5-1.5-2.3-3.5-2.3-5.6
	l0.1-23.3c0-19.2,3.5-37.9,10-55.5v-0.1c8.1-21.7,20.8-41.6,37.7-58.1c3-3,6.2-5.9,9.4-8.6c0.1,0.1,0.2,0.3,0.3,0.4
	c18.3,20.3,50.3,35.7,88.9,42.3c0.4,0.1,0.7,0.1,1.1,0.2c7.8,1.3,15.8,2.2,24.1,2.7c5.3,0.4,10.7,0.5,16.2,0.5
	c39.1,0,74.6-8.9,100.9-23.3c3.9-2.1,7.6-4.4,11-6.8c0.3-0.2,0.5-0.3,0.8-0.5c1.8-1.2,3.5-2.5,5.2-3.8c2.3-1.8,4.5-3.6,6.5-5.5
	c2-1.8,3.8-3.7,5.5-5.6l0.1-0.1c0.2-0.2,0.4-0.4,0.6-0.6c1.6,1.3,3.1,2.7,4.7,4.1c0.7,0.6,1.3,1.2,2,1.9c0.1,0.1,0.3,0.3,0.4,0.4
	c1.1,1,2.2,2.1,3.2,3.2C246.6,538.9,263.6,580,263.4,622.7z"/>
<g>
	<g>
		<g>
			<g>
				<g>
					<defs>
						<path id="SVGID_1_" d="M-112.1,643.8c0,2.1,0.8,4.1,2.3,5.6c1.1,1,2.4,1.7,3.8,2.1h365.8c2.2-1.5,3.5-3.9,3.6-6.5l0.1-23.1
							c0.2-42.5-16.8-83.4-47.1-113.4c-3.4-3.4-6.8-6.6-10.2-9.4c-24.3,27.2-73.5,45.8-130.4,45.8s-106.3-18.6-130.7-45.7
							c-3.2,2.7-6.4,5.6-9.4,8.5c-30.5,29.8-47.6,70.5-47.7,113.1L-112.1,643.8z"/>
					</defs>
					<clipPath id="SVGID_2_">
						<use xlink:href="#SVGID_1_"  style="overflow:visible;"/>
					</clipPath>
					<g class="st4">
						<path class="st5" d="M263.9,621.4c-0.6-88.2-72.5-159.6-161.4-159.9H102l-19.1,0.1c87.1,2.6,156.6,73.1,157.1,159.8l0.1,23.1
							c0,2.1-0.8,4.1-2.3,5.6c-1,1-2.3,1.8-3.8,2.1h24c1.4-0.4,2.7-1.1,3.8-2.1c1.5-1.5,2.3-3.5,2.3-5.6L263.9,621.4z"/>
						<path class="st0" d="M149.2,514.8v-0.2c0-13.1,10.7-23.8,24-23.8h27.7c13.2,0,24,10.6,24,23.8v0.2c0,13.1-10.7,23.8-24,23.8
							h-27.7C160,538.7,149.2,528,149.2,514.8z"/>
						<path class="st6" d="M146.5,511.5v-0.2c0-13.1,10.7-23.8,24-23.8h27.7c13.2,0.1,24,10.6,24,23.8v0.2c0,13.1-10.7,23.8-24,23.8
							h-27.7C157.3,535.4,146.5,524.7,146.5,511.5z"/>
					</g>
				</g>
			</g>
		</g>
	</g>
</g>
<path class="st6" d="M32.9,460.7l-2,0.2c1-0.1,1.9-0.2,2.9-0.3L32.9,460.7z"/>
<path class="st6" d="M151.5,651.5h-265.4l-0.1-22.4c-0.4-44.4,16.5-87.1,47.2-119.3c17-17.8,37.1-31.1,59.1-39.6
	c0.1-0.1,0.3-0.1,0.4-0.2c0.3-0.1,0.5-0.2,0.8-0.3c0.1,0,0.2-0.1,0.3-0.1l0,0c11.6-4.3,23.8-7.3,36.2-8.8l0,0l1-0.1
	c0.9,0.4,1.7,1.1,2.3,1.9c0.1,0.1,0.2,0.2,0.3,0.3c1.5,2,2,4.6,1.4,7c-2.5,9.6-4.1,19.6-4.7,29.5v0.1c0,0.1,0,0.3,0,0.4
	c0,0.2,0,0.4,0,0.6c-0.2,3.3-0.3,6.6-0.3,9.9c0,10,1.9,20.7,5.5,31.3c5.9,17.7,16.3,35.6,30.5,52c22.8,26.4,51.7,44.5,79.4,50.3
	c2.1,0.5,3.9,1.8,5,3.5c0.1,0.1,0.2,0.3,0.3,0.4C151.1,649.3,151.4,650.4,151.5,651.5z"/>
<path class="st0" d="M175.6,651.5h-24c-0.1-1.1-0.5-2.2-1.1-3.1c-0.1-0.2-0.2-0.3-0.3-0.4c-1.2-1.7-2.9-2.9-5-3.3
	c-28-5.9-57.1-24.2-80-50.3C50.8,578,40.1,559.8,34.3,542c-3.5-10.5-5.4-21-5.4-31c0-3.6,0.1-7.1,0.3-10.6c0-0.2,0-0.4,0-0.6
	c0-0.1,0-0.3,0-0.4v-0.1l0,0c0.7-9.7,2.2-19.4,4.7-28.8c0.6-2.4,0.1-5-1.4-7c-0.1-0.1-0.2-0.3-0.3-0.4c-0.6-0.8-1.4-1.4-2.3-1.9
	l1-0.1l2-0.2c0.5,0,1.1-0.1,1.6-0.1H35c3.9-0.3,7.9-0.5,11.7-0.5h3.7c1.8,0,3.6,0.7,5,1.9c0.5,0.4,0.9,0.8,1.3,1.3
	c1.5,2,2,4.6,1.4,7c-3.2,12.5-4.9,25.5-5,38.5c0,0.1,0,0.2,0,0.3v0.6c0,0.4,0,0.8,0,1.3c0,10.8,2.3,22.3,6.5,33.9
	c6.1,16.9,16.2,33.9,29.8,49.5c23,26.4,52.1,44.5,80,50.3c0.2,0.1,0.5,0.1,0.7,0.2C173.1,645.8,175.2,648.4,175.6,651.5z"/>
<path class="st7" d="M212.8,506c0,7.9-6.4,14.3-14.3,14.3c-5.5,0-10.4-3.1-12.8-8c-1-2-1.5-4.2-1.5-6.4c0-7.9,6.4-14.3,14.3-14.3
	C206.3,491.7,212.8,498.1,212.8,506L212.8,506z"/>
<path class="st8" d="M210.8,503c0,8-6.4,14.3-14.3,14.3c-4.2,0-8.1-1.8-10.8-5c-1-2-1.5-4.2-1.5-6.4c-1.8-7.3,2.7-14.5,9.9-16.3
	c7.3-1.8,14.5,2.7,16.3,9.9C210.7,500.8,210.8,501.9,210.8,503L210.8,503z"/>
<path class="st2" d="M263.3,645.2c0,0.9-0.1,1.7-0.4,2.5c-0.4,1.1-1,2.2-1.8,3.1c-0.3,0.3-0.5,0.5-0.8,0.7h-22.6
	c0.3-0.2,0.5-0.5,0.8-0.7c1.4-1.5,2.2-3.5,2.2-5.6l0.2-15.3v-0.2l0.1-5.4c7.9-9.1,14.3-19.4,19.2-30.4l0,0l0,0
	c0.1-0.2,0.2-0.4,0.3-0.7c0-0.1,0-0.1,0.1-0.2c1.7,9.5,2.5,19.1,2.5,28.7L263.3,645.2z"/>
<path class="st1" d="M241,645.7c0,2.1-0.8,4.1-2.4,5.6c-0.1,0.1-0.2,0.1-0.2,0.2h-33.9c12.8-6.3,24.6-14.6,34.7-24.7
	c0.6-0.6,1.2-1.2,1.8-1.8v4.8v0.2V645.7z"/>
<path class="st2" d="M206.4,344.1l0.1,34.6c0.3,73.7-54.7,133.9-122.4,134.2h-0.4c-3,0-6-0.1-8.9-0.3c-63.6-5-113.8-62.6-114-133
	l0-22.3c-10.7-20.7-16.3-43.8-16.3-67c0-73,53.2-132.9,121.1-139.2h0.1c3-0.5,6.1-0.8,9.2-1l0,0c3.1-0.2,6.2-0.3,9.4-0.3
	c73.3,0,132.7,62.5,132.7,139.7C217,308.2,213.4,326.8,206.4,344.1z"/>
<path class="st1" d="M187.2,344.2l0.1,34.6c0.3,70.5-49.9,128.6-113.5,133.8c-63.5-5-113.7-62.6-113.9-133l-0.1-22.3
	c-10.7-20.7-16.3-43.8-16.3-67c0-73,53.2-132.9,121.1-139.2h0.1c3-0.5,6.1-0.8,9.2-1c4.7-0.3,0,0,0,0c69.2,4.8,124,65.4,124,139.5
	C197.9,308.3,194.2,326.8,187.2,344.2z"/>
<path class="st1" d="M-34.2,304.7h-0.2c-28.7,0.1-52,23.5-52,52.3c-0.1,13.8,5.5,27.2,15.3,36.8c9.9,9.8,17.5,15.1,36.8,15.1h0.2
	c28.7-0.4,51.7-24.1,51.3-52.8C16.8,327.9-6.1,305.1-34.2,304.7L-34.2,304.7z"/>
<path class="st1" d="M200.5,303.8h-0.2c-28.7,0.1-52,23.5-52,52.3c-0.1,13.8,5.5,27.1,15.3,36.7c9.7,9.7,23,15.2,36.8,15.1h0.2
	c28.7-0.1,51.1-23.6,51-52.3C251.5,326.9,229.1,303.8,200.5,303.8z"/>
<path class="st9" d="M207.3,344.7l0.1,34.6C207.7,453,152.7,513.2,85,513.5h-0.4c-3,0-6-0.1-8.9-0.3h-0.6
	c-63.2-5.3-113.1-62.8-113.3-133l-0.1-22.3c-21.9-42.4-21.7-92.8,0.5-135.1c9.7,9.6,21.1,17.5,33.4,23.4
	c15.9-22.3,48.3-37.5,85.8-37.5c35.7,0,66.9,13.9,83.5,34.5c7.4-4,14.2-8.7,20.7-13.9c4.6-3.9,8.8-8.1,12.6-12.6
	C220.8,255.7,224.1,302.9,207.3,344.7L207.3,344.7z"/>
<path class="st10" d="M-39.4,222.1c-22.6,42.4-22.9,93.1-0.9,135.8l0.1,22.3c0.2,70.3,50.4,128,113.9,132.9h0.5
	c42.6-3.7,79.2-31.1,98.4-70c1.7-3.4,3.3-7,4.7-10.4c6.7-16.9,10-34.9,9.9-53.1l-0.1-34.6c14.9-37.2,14-79-2.7-115.5
	c-6.4,5.3-13.3,9.9-20.7,13.9c-16.6-20.6-47.8-34.5-83.5-34.5c-37.4,0-69.8,15.2-85.8,37.5c-12.1-6-23.5-13.8-33.2-23.4L-39.4,222.1
	z"/>
<path class="st11" d="M83.7,455.4c-10.4,0-20.5-3.9-28.2-10.9c-3.4-3.2-3.6-8.5-0.4-11.8c3.1-3.3,8.4-3.6,11.7-0.5
	c4.6,4.3,10.6,6.6,16.8,6.5h0.1c6.3,0,12.2-2.4,16.8-6.6c3.4-3.2,8.7-3.1,11.8,0.3c3.2,3.4,3.1,8.7-0.3,11.8c-0.1,0-0.1,0.1-0.2,0.1
	C104.3,451.4,94.2,455.4,83.7,455.4C83.8,455.4,83.7,455.4,83.7,455.4z"/>
<path class="st1" d="M178.8,412.1c0,6.9-0.5,13.6-1.5,20.4c-0.2,1.5-0.4,3-0.7,4.4c-0.4,2.5-1.8,4.8-4,6.1c-0.5,0.3-1.1,0.5-1.6,0.7
	c-0.5,0.1-1.1,0.2-1.6,0.2c-2.4-0.1-4.6-1.4-5.9-3.5c-19-29.6-48.2-35.6-86.5-35.4c-34.7,0.1-60.7,2.1-79.1,25.8
	c-1.7,2.5-4.9,3.4-7.7,2.4c-2.9-1.4-4.8-4.2-5-7.4c-0.4-4.4-0.6-8.8-0.6-12.9l-0.3-134.3c0-0.2,0-0.5,0-0.7v-0.2c0-0.1,0-0.2,0-0.3
	c0-11.2,3.8-21.8,10.4-31c15.9-22.3,48.3-37.5,85.8-37.5c35.7,0,66.9,13.9,83.5,34.5c6.4,7.7,10.5,17,12.1,26.9
	c1.6,1.8,2.4,4.1,2.4,6.5v0.3c0,0.3,0,0.6,0,0.9L178.8,412.1z"/>
<path class="st12" d="M49.9,377.6c0-7.4-6.1-13.3-13.4-13.3s-13.3,6.1-13.3,13.4S29.3,391,36.6,391C44.1,391.1,50,385.1,49.9,377.6z
	"/>
<path class="st0" d="M52.3,356.4c-0.7,0-1.4-0.1-2.1-0.3l-31.5-8.4c-4.5-1.3-7-6-5.8-10.3s5.7-6.9,10-5.9l31.5,8.4
	c4.5,1.2,7.2,5.8,6,10.2C59.5,353.8,56.1,356.4,52.3,356.4L52.3,356.4z"/>
<path class="st12" d="M144.4,377.3c0-7.4-6.1-13.3-13.4-13.3s-13.3,6.1-13.3,13.4s6.1,13.3,13.4,13.3c7.3,0.1,13.2-5.8,13.3-13.1
	C144.4,377.5,144.4,377.4,144.4,377.3z"/>
<path class="st0" d="M115.2,356.2c-4.7,0-8.5-3.8-8.4-8.5c0-3.8,2.5-7.1,6.2-8.1l31.5-8.6c4.5-1.2,9.1,1.4,10.3,5.9
	c1.3,4.5-1.4,9.1-5.9,10.3l0,0l-31.5,8.6C116.7,356.1,115.9,356.2,115.2,356.2z"/>
<path class="st13" d="M34.5,293.1h96.9c1.2,0,2.2,1,2.2,2.2v1.3c0,1.2-1,2.2-2.2,2.2H34.5c-1.2,0-2.2-1-2.2-2.2v-1.3
	C32.3,294.1,33.3,293.1,34.5,293.1z"/>
<path class="st11" d="M50.3,426.3l0.4,0.4c0.4,0.3,0.4,0.9,0.1,1.3l-12.3,13.9c-0.3,0.4-0.9,0.4-1.3,0.1l-0.4-0.4
	c-0.4-0.3-0.4-0.9-0.1-1.3L49,426.4C49.3,426,49.9,426,50.3,426.3z"/>
<path class="st11" d="M130.2,441.5l-0.4,0.4c-0.4,0.3-1,0.3-1.3-0.1l-12.3-13.9c-0.3-0.4-0.3-1,0.1-1.3l0.4-0.4
	c0.4-0.3,1-0.3,1.3,0.1l12.3,13.9C130.7,440.6,130.6,441.2,130.2,441.5z"/>
<path class="st1" d="M163.8,241.2c-23.9,13-54.3,20.9-87.4,20.9c-30.5,0-58.8-6.7-81.7-17.9c15.9-22.3,48.3-37.5,85.8-37.5
	C116.1,206.7,147.2,220.6,163.8,241.2z"/>
<path class="st14" d="M-38.7,222.9c-0.2-0.2-0.5-0.5-0.7-0.7"/>
<ellipse transform="matrix(-0.8083 -0.5888 0.5888 -0.8083 -208.1566 426.2933)" class="st10" cx="-34.7" cy="247" rx="27" ry="36.1"/>
<path class="st10" d="M174.7,216.7c-8.2,6.5-15,22.9-9.3,31.1c8.3,11.8,27.2,21.2,39.2,11.6s15.1-26.9,6.9-38.7
	S186.7,207.1,174.7,216.7z"/>
<g>
	<g>
		<g>
			<g>
				<g>
					<defs>
						<path id="SVGID_3_" d="M175.7,216.7c-8.2,6.5-15,22.9-9.3,31.1c8.3,11.8,27.2,21.2,39.2,11.6s15.1-26.9,6.9-38.7
							C204.2,208.9,187.7,207.1,175.7,216.7z"/>
					</defs>
					<clipPath id="SVGID_4_">
						<use xlink:href="#SVGID_3_"  style="overflow:visible;"/>
					</clipPath>
					<g class="st15">
						<path class="st9" d="M177.2,216.6c0,0,17.2,24.7,17.8,53.7c0.6,29,79-26,79-26l-42.9-91L184.9,203"/>
					</g>
				</g>
			</g>
		</g>
	</g>
</g>
</svg>
