<?xml version="1.0" encoding="utf-8"?>
<!-- Generator: Adobe Illustrator 23.1.0, SVG Export Plug-In . SVG Version: 6.00 Build 0)  -->
<svg version="1.1" id="Layer_1" xmlns="http://www.w3.org/2000/svg" xmlns:xlink="http://www.w3.org/1999/xlink" x="0px" y="0px"
	 viewBox="0 0 383 508.7" style="enable-background:new 0 0 383 508.7;" xml:space="preserve">
<style type="text/css">
	.st0{fill:#F0BCA6;}
	.st1{fill:#E2A58A;}
	.st2{fill:#E8E8E8;}
	.st3{clip-path:url(#SVGID_2_);fill:#C2C6CC;}
	.st4{fill:#F8A814;}
	.st5{fill:#F8B53C;}
	.st6{fill:#F9CD45;}
	.st7{fill:#CC902F;}
	.st8{fill:#EAC734;}
	.st9{fill:#DCDBDD;}
	.st10{fill:#BABABA;}
	.st11{fill:#ECEDEF;}
	.st12{fill:#868686;}
	.st13{fill:#4C350C;}
	.st14{fill:#825308;}
</style>
<g>
	<path class="st0" d="M362.7,483.8c-0.1-38.5-15.3-74.8-42.8-102.1c-27.4-27.2-63.6-42.2-101.9-42.2c-0.2,0-0.3,0-0.4,0l-47.4,0.2
		c-38.5,0.1-74.8,15.3-102.1,42.8C40.7,410,25.7,446.4,25.8,484.9l0.1,18.1c0,3.6,3,6.6,6.6,6.6h323.6c1.8,0,3.4-0.7,4.7-1.9
		c1.2-1.2,1.9-2.9,1.9-4.7V483.8z"/>
	<path class="st1" d="M362.7,483.8c-0.1-38.5-15.3-74.8-42.8-102.1c-27.4-27.2-63.6-42.2-101.9-42.2c-0.2,0-0.3,0-0.4,0l-16.2,0.1
		c36.9,1,71.7,15.8,98.1,42.1c27.5,27.3,42.7,63.6,42.8,102.1l0.1,19c0,1.8-0.7,3.4-1.9,4.7c-1.2,1.2-2.9,1.9-4.7,1.9h20.4
		c1.8,0,3.4-0.7,4.7-1.9c1.2-1.2,1.9-2.9,1.9-4.7L362.7,483.8z"/>
	<g>
		<g>
			<path id="XMLID_38_" class="st2" d="M362.7,482.4c-0.1-38.2-15.3-74.3-42.8-101.4c-8.2-8.1-17.2-15.1-26.8-21
				c-6.8,26.6-35.5,47.9-73,54.8c-8.4,1.6-17.1,2.4-26.2,2.4c-9,0-17.6-0.8-26-2.3c-37.3-6.8-66.1-28-73-54.4
				c-9.7,5.9-18.6,13-26.9,21.2c-27.2,27.4-42.2,63.5-42.1,101.8l0.1,20.7c0.1,2.4,1.3,4.5,3.2,5.7h328.3c1.2-0.3,2.4-1,3.3-1.9
				c1.3-1.3,2-3.1,2-4.9L362.7,482.4z"/>
		</g>
		<g>
			<g>
				<g>
					<defs>
						<path id="SVGID_1_" d="M362.7,482.4c-0.1-38.2-15.3-74.3-42.8-101.4c-8.2-8.1-17.2-15.1-26.8-21c-6.8,26.6-35.5,47.9-73,54.8
							c-8.4,1.6-17.1,2.4-26.2,2.4c-9,0-17.6-0.8-26-2.3c-37.3-6.8-66.1-28-73-54.4c-9.7,5.9-18.6,13-26.9,21.2
							c-27.2,27.4-42.2,63.5-42.1,101.8l0.1,20.7c0.1,2.4,1.3,4.5,3.2,5.7h328.3c1.2-0.3,2.4-1,3.3-1.9c1.3-1.3,2-3.1,2-4.9
							L362.7,482.4z"/>
					</defs>
					<clipPath id="SVGID_2_">
						<use xlink:href="#SVGID_1_"  style="overflow:visible;"/>
					</clipPath>
					<path class="st3" d="M364.7,483.6c-0.1-38.2-15.3-74.3-42.8-101.4c-27.4-27-63.6-41.9-101.9-41.9c-0.2,0-0.3,0-0.4,0l-17.1,0.1
						c36.9,1,71.6,15.7,98.1,41.9c27.5,27.1,42.6,63.2,42.8,101.4l0.1,20.7c0,1.9-0.7,3.6-2,4.9c-0.9,0.9-2,1.6-3.3,1.9h21.4
						c1.2-0.3,2.4-1,3.3-1.9c1.3-1.3,2-3.1,2-4.9L364.7,483.6z"/>
				</g>
			</g>
		</g>
	</g>
	<path class="st4" d="M169.6,498.3c-0.1-0.3-0.1-0.4-0.1-0.7c0.1-1,1.1-1.7,2-1.6c9.8,0.5,19.9-0.7,30-3.5
		c8.2-2.3,16.4-5.6,24.4-9.9c13.7-7.3,22.2-14.9,22.3-15c0.8-0.7,1.9-0.7,2.6-0.1s0.6,1.8-0.1,2.4c-0.4,0.4-9,8-23.1,15.5
		c-8.3,4.4-16.8,7.8-25.2,10.2c-10.6,2.9-21.1,4.1-31.3,3.6C170.4,499.3,169.8,498.9,169.6,498.3z"/>
	<path class="st5" d="M252.8,486.3c0.8-0.4,1.1-1.1,1.1-1.9c-0.1-0.3-1.4-6.3-6.3-8.4c-2.4-1-4.6-1.1-6.4-0.7
		c-1.9,0.4-3.3,1.7-4.2,3.3c-0.8,1.5-0.9,3-0.4,4.4c0.1,0.2,0.2,0.4,0.3,0.6c0.8,1.6,2.4,2.9,4.8,3.8
		C246.3,489.5,252.6,486.5,252.8,486.3z"/>
	<path class="st6" d="M241.6,477.1c1.4-1.3,2.2-3.3,2.6-5.7c0.6-5.1-4.2-9.3-4.4-9.4c-0.6-0.5-1.5-0.5-2.3-0.1
		c-0.3,0.2-6.1,3.9-6.7,8.9c-0.2,1.8-0.1,3.2,0.4,4.5c0.2,0.5,0.4,1,0.7,1.4c1.1,1.4,2.6,2.3,4.6,2.4
		C238.4,479.1,240.2,478.6,241.6,477.1z"/>
	<path class="st6" d="M238,494.9c0.8-0.4,1.1-1.1,1.1-1.9c-0.1-0.3-1.4-6.3-6.3-8.4c-2.4-1-4.6-1.1-6.4-0.7s-3.3,1.7-4.2,3.3
		c-0.8,1.5-0.9,3-0.4,4.4c0.1,0.2,0.2,0.4,0.3,0.6c0.8,1.6,2.4,2.9,4.8,3.8C231.5,498,237.8,494.9,238,494.9z"/>
	<path class="st5" d="M226.8,485.6c1.4-1.3,2.2-3.3,2.6-5.7c0.6-5.1-4.2-9.3-4.4-9.4c-0.6-0.5-1.5-0.5-2.3-0.1
		c-0.3,0.2-6.1,3.9-6.7,8.9c-0.2,1.8-0.1,3.2,0.4,4.5c0.2,0.5,0.4,1,0.7,1.4c1.1,1.4,2.6,2.3,4.6,2.4
		C223.5,487.6,225.4,487,226.8,485.6z"/>
	<path class="st7" d="M151.7,342.6c1.3,1.8,1.8,4.1,1.2,6.3c-3,11.8-4.5,24-4.4,36.1c0.1,23.9,11.8,50.9,32.1,74.4
		c20.3,23.3,46,39.6,70.7,44.8c3.3,0.7,5.6,3.8,5.6,7.2h21.2c0-3.2-2-6.1-4.9-7c-0.2-0.1-0.4-0.1-0.6-0.2
		c-24.7-5.2-50.5-21.4-70.7-44.8s-32-50.6-32.1-74.4c0-12.2,1.5-24.4,4.4-36.1c0.5-2.2,0.1-4.5-1.2-6.3s-3.3-2.8-5.5-2.8h-3.3
		c-3.5,0-7,0.2-10.4,0.4c-0.2,0-0.3,0-0.4,0c-0.4,0-1,0.1-1.4,0.1c-0.9,0.1-1.7,0.2-2.6,0.3C150.3,341.1,151.1,341.8,151.7,342.6z"
		/>
	<path class="st8" d="M251.3,504.1c-24.7-5.2-50.5-21.4-70.7-44.8s-32-50.6-32.1-74.4c-0.1-12.2,1.4-24.3,4.4-36.1
		c0.5-2.1,0.1-4.5-1.2-6.3c-0.6-0.8-1.4-1.5-2.3-1.9c0.9-0.1,1.7-0.2,2.6-0.3c-33.8,3.1-65.3,18.4-89.7,43.9
		C35,412.8,20.1,450.4,20.2,490.5l0.1,20.9h236.6C257,507.9,254.6,504.8,251.3,504.1z"/>
	<path class="st4" d="M257.1,457.3c-0.2-0.1-0.4-0.3-0.5-0.5c-0.5-0.8-0.3-1.9,0.5-2.6c7.7-6,14.5-13.6,20.4-22.3
		c4.7-7,8.7-14.9,12-23.4c5.6-14.4,7-25.8,7-25.9c0.1-1,1-1.8,1.9-1.8c1,0,1.6,0.9,1.5,1.9c-0.1,0.4-1.5,11.9-7.2,26.9
		c-3.3,8.8-7.6,16.9-12.3,24.2c-6.1,9.2-13.2,17-21.2,23.3C258.3,457.6,257.6,457.6,257.1,457.3z"/>
	<path class="st5" d="M312.1,393.6c0.4-0.8,0.1-1.7-0.5-2.1c-0.2-0.2-5.3-3.9-10.3-2.1c-2.4,0.8-4.2,2.1-5.3,3.7s-1.5,3.4-1.1,5.3
		c0.4,1.6,1.3,2.9,2.6,3.6c0.2,0.1,0.4,0.2,0.6,0.3c1.7,0.7,3.7,0.6,6.2-0.3C309.2,400.4,312,394,312.1,393.6z"/>
	<path class="st6" d="M297.5,394.1c0.2-1.9-0.4-4-1.9-6c-2.9-4.2-9.3-4.2-9.5-4.2c-0.8,0-1.5,0.6-1.8,1.4c-0.1,0.3-2,6.9,0.8,11.1
		c1,1.4,2,2.5,3.2,3.1c0.5,0.3,1,0.4,1.5,0.6c1.7,0.4,3.5,0,5-1.2C296.5,397.8,297.3,396.1,297.5,394.1z"/>
	<path class="st6" d="M306.4,409.8c0.4-0.8,0.1-1.7-0.5-2.1c-0.2-0.2-5.3-3.9-10.3-2.1c-2.4,0.8-4.2,2.1-5.3,3.7
		c-1.1,1.6-1.5,3.4-1.1,5.3c0.4,1.6,1.3,2.9,2.6,3.6c0.2,0.1,0.4,0.2,0.6,0.3c1.7,0.7,3.7,0.6,6.2-0.3
		C303.6,416.4,306.3,410.1,306.4,409.8z"/>
	<path class="st5" d="M292,410.4c0.2-1.9-0.4-4-1.9-6c-2.9-4.2-9.3-4.2-9.5-4.2c-0.8,0-1.5,0.6-1.8,1.4c-0.1,0.3-2,6.9,0.8,11.1
		c1,1.4,2,2.5,3.2,3.1c0.5,0.3,1,0.4,1.5,0.6c1.7,0.4,3.5,0,5-1.2C290.8,413.9,291.8,412.1,292,410.4z"/>
	<path class="st5" d="M297.4,426.1c-0.2-0.2-4.4-4.8-9.6-4.1c-2.5,0.4-4.4,1.3-5.8,2.7c-1.3,1.4-2,3.2-1.9,5.1
		c0.1,1.9,1,3.5,2.4,4.5c0.1,0.1,0.3,0.2,0.4,0.2c1.4,0.8,3.3,1.1,5.6,0.7c5.2-0.8,8.8-6.7,9-6.9C298,427.6,298,426.8,297.4,426.1z"
		/>
	<g>
		<path class="st6" d="M283.4,426.1c0.4-1.9,0.3-4.1-0.8-6.3c-2-4.8-8.3-6-8.5-6c-0.8-0.2-1.6,0.3-1.9,1.1
			c-0.1,0.3-3.2,6.5-1.1,11.3c0.9,2.1,2.1,3.6,3.5,4.4c0.1,0.1,0.3,0.1,0.4,0.2c1.6,0.7,3.3,0.6,5-0.3
			C281.8,429.6,283,428.1,283.4,426.1z"/>
		<path class="st6" d="M286.6,445.1c-0.2-0.3-3.4-5.7-8.6-5.9c-2.5-0.1-4.5,0.4-6.1,1.6c-1.5,1.1-2.5,2.8-2.7,4.8
			c-0.3,1.9,0.4,3.7,1.6,4.9c0.4,0.4,0.8,0.7,1.3,1c1.1,0.6,2.6,1,4.3,1.1c5.1,0.2,9.7-5,9.9-5.2C286.9,446.6,287,445.9,286.6,445.1
			z"/>
		<path class="st6" d="M273,442.5c0.8-1.8,0.9-4,0.4-6.5c-1.1-5.2-7-7.5-7.2-7.6c-0.7-0.3-1.6,0-2,0.7c-0.2,0.3-4.1,5.9-3,11.1
			c0.5,2.5,1.6,4.3,3,5.4c0.2,0.1,0.4,0.3,0.5,0.4c1.3,0.7,2.8,0.8,4.4,0.3C270.9,445.6,272.3,444.3,273,442.5z"/>
		<path class="st6" d="M305.4,375.6c0.6-5.5-4-9.8-4.1-10c-0.5-0.5-1.4-0.5-2.1-0.1c-0.3,0.2-5.7,4.2-6.3,9.7
			c-0.3,2.6,0.1,4.8,1.1,6.3c0.4,0.8,1.1,1.3,1.9,1.8c0.7,0.4,1.6,0.6,2.5,0.6c1.9,0.1,3.5-0.7,4.8-2.1
			C304.3,380.3,305.1,378.1,305.4,375.6z"/>
	</g>
	<ellipse class="st9" cx="196.3" cy="66" rx="99.6" ry="64.7"/>
	<ellipse class="st10" cx="197.2" cy="105.9" rx="99.6" ry="64.7"/>
	<circle class="st9" cx="196.9" cy="184.8" r="135.1"/>
	<path class="st0" d="M97,204.5L97,204.5c-20,0.1-36.1,20.3-36.1,45c0,12,3.8,23.3,10.7,31.7c6.8,8.5,15.9,13,25.5,13h0.1
		c19.9-0.1,36-20.3,36-45C133,224.6,116.8,204.5,97,204.5z"/>
	<path class="st0" d="M293.7,203.8L293.7,203.8c-20.6,0.1-37.3,20.3-37.2,45c0,12,4,23.3,11,31.7c7,8.5,16.3,13,26.3,13h0.1
		c20.5-0.1,37.2-20.3,37.1-45C330.9,223.8,314.2,203.8,293.7,203.8z"/>
	<path class="st0" d="M295.8,187.5c-0.1-21.9-16-39.6-35.6-39.6H129.8c-9.5,0-18.5,4.1-25.2,11.7c-6.7,7.6-10.4,17.5-10.4,28.2
		l0.2,77.4c0.2,62,45.4,112.3,100.9,112.3h0.4c55.6-0.2,100.7-50.8,100.5-113L295.8,187.5z"/>
	<path class="st1" d="M196,331.8c-8.6,0-16.9-3.2-23.3-9.1c-2.7-2.5-2.9-6.7-0.4-9.3c2.5-2.7,6.7-2.9,9.3-0.4
		c3.9,3.6,9,5.6,14.3,5.6h0.1c5.4,0,10.4-2,14.4-5.6c2.7-2.5,6.9-2.3,9.3,0.4c2.5,2.7,2.3,6.9-0.4,9.3
		C213,328.4,204.7,331.6,196,331.8C196.1,331.8,196,331.8,196,331.8z"/>
	<path class="st11" d="M156.4,223.7c8.6,0,16.9,1.6,23.3,4.5c2.7,1.2,2.9,3.3,0.4,4.7c-2.5,1.3-6.7,1.4-9.3,0.2
		c-3.9-1.8-9-2.8-14.3-2.8h-0.1c-5.4,0-10.4,1-14.4,2.8c-2.7,1.2-6.9,1.1-9.3-0.2c-2.5-1.3-2.3-3.4,0.4-4.7
		C139.4,225.2,147.6,223.6,156.4,223.7L156.4,223.7z"/>
	<path class="st11" d="M239,223.7c8.6,0,16.9,1.6,23.3,4.5c2.7,1.2,2.9,3.3,0.4,4.7c-2.5,1.3-6.7,1.4-9.3,0.2
		c-3.9-1.8-9-2.8-14.3-2.8H239c-5.4,0-10.4,1-14.4,2.8c-2.7,1.2-6.9,1.1-9.3-0.2c-2.5-1.3-2.3-3.4,0.4-4.7
		C222,225.2,230.3,223.6,239,223.7C238.9,223.7,239,223.7,239,223.7z"/>
	<path class="st12" d="M168.4,258.1c0-6.2-5-11.1-11.2-11.1s-11.1,5-11.1,11.2s5,11.1,11.2,11.1
		C163.4,269.4,168.4,264.4,168.4,258.1z"/>
	<path class="st12" d="M247.2,258c0-6.2-5-11.2-11.2-11.1c-6.2,0-11.2,5-11.1,11.2c0,6.2,5,11.2,11.2,11.1S247.2,264.1,247.2,258z"
		/>
	<ellipse transform="matrix(0.5 -0.866 0.866 0.5 -101.8108 176.5965)" class="st10" cx="102" cy="176.5" rx="32.2" ry="35.7"/>
	
		<ellipse transform="matrix(0.5381 -0.8429 0.8429 0.5381 -98.9681 161.9386)" class="st9" cx="98.3" cy="171.3" rx="32.2" ry="35.7"/>
	<ellipse transform="matrix(0.866 -0.5 0.5 0.866 -48.4364 169.1442)" class="st10" cx="291.4" cy="175" rx="35.7" ry="32.2"/>
	<ellipse transform="matrix(0.866 -0.5 0.5 0.866 -45.685 168.4023)" class="st9" cx="291.4" cy="169.4" rx="35.7" ry="32.2"/>
	<ellipse class="st10" cx="134" cy="140.2" rx="52.5" ry="47.5"/>
	<ellipse class="st9" cx="130.9" cy="132.3" rx="52.5" ry="47.5"/>
	<ellipse class="st10" cx="262.1" cy="140.2" rx="52.5" ry="47.5"/>
	<ellipse class="st9" cx="261.7" cy="131.4" rx="52.5" ry="47.5"/>
	<ellipse class="st10" cx="196.3" cy="119.2" rx="86" ry="64.1"/>
	<ellipse class="st9" cx="195.8" cy="111.5" rx="86" ry="60.6"/>
	<circle class="st13" cx="255.6" cy="455.9" r="15.2"/>
	<circle class="st14" cx="255.3" cy="455.6" r="9.3"/>
</g>
</svg>
