<?xml version="1.0" encoding="utf-8"?>
<!-- Generator: Adobe Illustrator 23.1.0, SVG Export Plug-In . SVG Version: 6.00 Build 0)  -->
<svg version="1.1" id="Layer_1" xmlns="http://www.w3.org/2000/svg" xmlns:xlink="http://www.w3.org/1999/xlink" x="0px" y="0px"
	 viewBox="0 0 383 508.7" style="enable-background:new 0 0 383 508.7;" xml:space="preserve">
<style type="text/css">
	.st0{fill:#DCDBDD;}
	.st1{fill:#F0BCA6;}
	.st2{fill:#E2A58A;}
	.st3{fill:#D38537;}
	.st4{clip-path:url(#SVGID_2_);fill:#9B5A1F;}
	.st5{fill:#F8A814;}
	.st6{fill:#F8B53C;}
	.st7{fill:#F9CD45;}
	.st8{fill:#DDDDDD;}
	.st9{fill:#F4F0EF;}
	.st10{fill:#E6B09A;}
	.st11{fill:#BABABA;}
	.st12{fill:#ECEDEF;}
	.st13{fill:#868686;}
	.st14{fill:#4C350C;}
	.st15{fill:#825308;}
</style>
<g>
	<path class="st0" d="M312.6,54.4c-31-31-72.1-48.1-115.7-48.1S112.3,23.5,81.2,54.4s-48.1,72.1-48.1,115.7v233.9
		c0,4.1,3.3,7.4,7.4,7.4h312.7c4.1,0,7.4-3.3,7.4-7.4v-234C360.8,126.4,343.6,85.3,312.6,54.4z"/>
	<path class="st1" d="M79.7,168.8c-0.1,0-0.1,0-0.2,0c-27.6,0.1-50,22.6-49.9,50.2c0,13.4,5.3,25.9,14.7,35.3
		c9.4,9.4,22,14.5,35.2,14.5h0.2c27.6-0.1,50-22.6,49.9-50.2C129.8,191.1,107.2,168.8,79.7,168.8z"/>
	<path class="st1" d="M381.8,480.1c-0.1-42.9-17.1-83.4-47.7-113.8c-30.5-30.3-70.9-47-113.6-47c-0.2,0-0.3,0-0.5,0l-52.8,0.2
		c-42.9,0.1-83.4,17.1-113.8,47.7s-47.1,71.2-47,114.1l0.1,20.1c0,4,3.3,7.4,7.4,7.4h360.6c2,0,3.8-0.8,5.2-2.2
		c1.4-1.4,2.2-3.2,2.2-5.2V480L381.8,480.1L381.8,480.1z"/>
	<path class="st2" d="M381.8,480.1c-0.1-42.9-17.1-83.4-47.7-113.8c-30.5-30.3-70.9-47-113.6-47c-0.2,0-0.3,0-0.5,0l-18.1,0.1
		c41.1,1.1,79.9,17.6,109.4,46.9c30.6,30.4,47.6,70.9,47.7,113.8l0.1,21.2c0,2-0.8,3.8-2.2,5.2c-1.4,1.4-3.2,2.2-5.2,2.2h22.7
		c2,0,3.8-0.8,5.2-2.2c1.4-1.4,2.2-3.2,2.2-5.2V480.1z"/>
	<g>
		<g>
			<path id="XMLID_49_" class="st3" d="M381.8,479c-0.1-42.6-17.1-82.8-47.7-113c-9.1-9-19.1-16.8-29.8-23.4
				c-7.6,29.6-39.6,53.4-81.3,61.1c-9.3,1.8-19,2.7-29.2,2.7c-10,0-19.6-0.9-29-2.6c-41.5-7.6-73.6-31.2-81.4-60.6
				c-10.8,6.6-20.7,14.5-29.9,23.7C23,397.3,6.3,437.6,6.4,480.2l0.1,23.1c0.1,2.7,1.5,5,3.5,6.4h365.8c1.4-0.3,2.7-1.1,3.7-2.1
				c1.5-1.5,2.3-3.4,2.3-5.5L381.8,479z"/>
		</g>
		<g>
			<g>
				<g>
					<g>
						<g>
							<g>
								<g>
									<defs>
										<path id="SVGID_1_" d="M381.8,479c-0.1-42.6-17.1-82.8-47.7-113c-9.1-9-19.1-16.8-29.8-23.4
											c-7.6,29.6-39.6,53.4-81.3,61.1c-9.3,1.8-19,2.7-29.2,2.7c-10,0-19.6-0.9-29-2.6c-41.5-7.6-73.6-31.2-81.4-60.6
											c-10.8,6.6-20.7,14.5-29.9,23.7C23,397.3,6.3,437.6,6.4,480.2l0.1,23.1c0.1,2.7,1.5,5,3.5,6.4h365.8
											c1.4-0.3,2.7-1.1,3.7-2.1c1.5-1.5,2.3-3.4,2.3-5.5L381.8,479z"/>
									</defs>
									<clipPath id="SVGID_2_">
										<use xlink:href="#SVGID_1_"  style="overflow:visible;"/>
									</clipPath>
									<path class="st4" d="M382.9,479.6c-0.1-42.6-17.1-82.8-47.7-113c-30.5-30.1-70.9-46.7-113.6-46.7c-0.2,0-0.3,0-0.5,0
										l-19,0.1c41.1,1.1,79.8,17.5,109.4,46.6c30.6,30.2,47.5,70.4,47.7,113l0.1,23.1c0,2.1-0.8,4-2.3,5.5c-1,1-2.3,1.8-3.7,2.1
										h23.9c1.4-0.3,2.7-1.1,3.7-2.1c1.5-1.5,2.3-3.4,2.3-5.5L382.9,479.6z"/>
								</g>
							</g>
						</g>
					</g>
				</g>
			</g>
		</g>
	</g>
	<g>
		<path class="st5" d="M174.1,504.9c-0.1-0.2-0.2-0.5-0.2-0.8c-0.1-1.1,0.8-2.1,1.9-2.2c10.8-1.5,21.6-4.9,32.1-10.1
			c8.4-4.2,16.7-9.5,24.6-15.9c13.5-10.8,21.1-20.9,21.2-21c0.7-0.9,2-1.2,2.8-0.6c0.9,0.6,1.1,1.8,0.4,2.7
			c-0.3,0.4-8.1,10.7-22,21.9c-8.1,6.6-16.7,12.1-25.4,16.5c-11,5.4-22.2,9-33.5,10.6C175.3,505.8,174.4,505.5,174.1,504.9z"/>
		<path class="st6" d="M262.6,474.3c0.8-0.6,1.1-1.6,0.7-2.4c-0.1-0.3-2.9-6.7-8.7-7.8c-2.7-0.6-5.2-0.4-7.2,0.6
			c-2,0.9-3.3,2.6-3.9,4.5c-0.5,1.8-0.4,3.4,0.5,4.9c0.1,0.2,0.3,0.4,0.4,0.6c1.2,1.6,3.2,2.7,6.1,3.1
			C256.3,479.1,262.4,474.5,262.6,474.3z"/>
		<path class="st7" d="M248.3,466.6c1.3-1.8,1.8-4,1.6-6.8c-0.4-5.7-6.6-9.2-6.9-9.4c-0.8-0.4-1.8-0.3-2.5,0.4
			c-0.2,0.2-5.8,5.5-5.5,11.2c0.1,2,0.6,3.5,1.4,4.8c0.3,0.5,0.7,1,1.1,1.4c1.4,1.4,3.3,1.9,5.5,1.6
			C245.3,469.5,247.1,468.4,248.3,466.6z"/>
		<path class="st7" d="M248.3,486.6c0.8-0.6,1.1-1.6,0.7-2.4c-0.1-0.3-2.9-6.7-8.7-7.8c-2.7-0.6-5.2-0.4-7.2,0.6
			c-2,0.9-3.3,2.6-3.9,4.5c-0.6,1.8-0.4,3.4,0.5,4.9c0.1,0.2,0.3,0.4,0.4,0.6c1.2,1.6,3.2,2.7,6.1,3.1
			C241.8,491.4,247.9,486.8,248.3,486.6z"/>
		<path class="st6" d="M234,479c1.3-1.8,1.8-4,1.6-6.8c-0.4-5.7-6.6-9.2-6.9-9.4c-0.8-0.4-1.8-0.3-2.5,0.4
			c-0.2,0.2-5.8,5.5-5.5,11.2c0.1,2,0.6,3.5,1.4,4.8c0.3,0.5,0.7,1,1.1,1.4c1.4,1.4,3.3,1.9,5.5,1.6
			C230.9,481.9,232.8,480.6,234,479z"/>
		<path class="st6" d="M230.3,497.4c-0.1-0.3-1.6-7.2-7-9.2c-2.7-1-5-1.3-7.1-0.6c-2.1,0.6-3.7,2-4.7,3.9s-1,3.9-0.2,5.7
			c0.1,0.1,0.1,0.3,0.2,0.4c1,1.6,2.7,2.8,5,3.8c5.4,2.2,12.3-1.5,12.6-1.7C230,499.1,230.5,498.3,230.3,497.4z"/>
		<g>
			<path class="st7" d="M216.9,489.6c1.6-1.6,2.5-3.7,2.8-6.6c0.7-5.8-4.6-10.3-4.8-10.5c-0.7-0.6-1.7-0.6-2.5-0.1
				c-0.3,0.2-6.7,4.5-7.4,10.3c-0.3,2.6,0,4.6,1,6.3c0.1,0.1,0.2,0.3,0.3,0.4c1.1,1.6,2.9,2.5,5,2.6
				C213.4,491.9,215.4,491.1,216.9,489.6z"/>
			<path class="st7" d="M209.3,509.6c0-0.3-0.2-7.5-5-10.5c-2.4-1.5-4.6-2.1-6.8-1.9c-2.1,0.2-3.9,1.4-5.3,3
				c-1.3,1.8-1.8,3.7-1.2,5.6c0.2,0.6,0.4,1.2,0.7,1.7c0.8,1.3,2,2.4,3.5,3.4c4.8,3,12.2,0.6,12.5,0.5
				C208.8,511.4,209.3,510.5,209.3,509.6z"/>
			<path class="st7" d="M197.8,499.5c1.8-1.3,3.1-3.3,3.9-6.1c1.8-5.7-2.6-11.2-2.7-11.4c-0.5-0.7-1.5-0.9-2.4-0.5
				c-0.3,0.1-7.3,3.3-9,9c-0.9,2.7-0.9,5-0.1,6.9c0.1,0.2,0.2,0.4,0.3,0.7c0.9,1.4,2.3,2.4,4.1,2.7
				C193.9,501.3,196.1,500.8,197.8,499.5z"/>
			<path class="st7" d="M266.4,453.1c3.6-4.9,1.7-11.7,1.6-12c-0.3-0.8-1.1-1.4-2-1.3c-0.3,0-7.9,0.9-11.5,5.8
				c-1.8,2.4-2.6,4.6-2.6,6.6c0,1,0.3,2,0.8,2.7c0.5,0.8,1.2,1.5,2,2c1.8,1.1,3.8,1.3,5.8,0.6C262.6,457,264.5,455.4,266.4,453.1z"
				/>
		</g>
	</g>
	<path class="st8" d="M147.6,325.1c1.5,2,2,4.5,1.4,6.9c-3.3,13-5,26.3-4.9,39.7c0.1,26.2,13.2,55.9,35.7,81.7
		c22.6,25.6,51.2,43.6,78.8,49.3c3.7,0.8,6.3,4.1,6.3,8h23.7c0-3.4-2.3-6.7-5.5-7.7c-0.2-0.1-0.5-0.1-0.7-0.2
		c-27.5-5.7-56.3-23.6-78.8-49.3c-22.6-25.7-35.6-55.6-35.7-81.7c0-13.4,1.7-26.8,4.9-39.7c0.6-2.5,0.1-4.9-1.4-6.9
		s-3.7-3.1-6.1-3.1h-3.6c-3.9,0-7.8,0.2-11.6,0.5c-0.2,0-0.3,0-0.5,0c-0.5,0-1.1,0.1-1.6,0.1c-1,0.1-1.9,0.2-2.8,0.3
		C146,323.5,146.9,324.3,147.6,325.1z"/>
	<path class="st9" d="M258.5,502.5c-27.5-5.7-56.3-23.6-78.8-49.3s-35.6-55.6-35.7-81.7c-0.1-13.3,1.6-26.7,4.9-39.7
		c0.6-2.4,0.1-4.9-1.4-6.9c-0.7-0.9-1.6-1.7-2.6-2.2c1-0.1,1.9-0.2,2.8-0.3c-37.7,3.4-72.7,20.2-99.9,48.2
		c-30.2,31.6-46.9,72.9-46.7,117l0.1,23h263.6C264.9,506.6,262.3,503.1,258.5,502.5z"/>
	<path class="st1" d="M312.4,168c-0.1,0-0.1,0-0.2,0c-27.6,0.1-50,22.6-49.9,50.2c0,13.4,5.3,25.9,14.7,35.3
		c9.4,9.4,22,14.5,35.2,14.5h0.2c27.6-0.1,50-22.6,49.9-50.2C362.4,190.3,339.9,168,312.4,168z"/>
	<path class="st1" d="M306.9,171.5c-0.1-22.3-18.3-40.4-40.5-40.4H117.8c-10.9,0-21,4.2-28.8,11.9c-7.7,7.7-11.9,17.9-11.9,28.7
		l0.2,78.7c0.2,63.1,51.6,114.3,114.9,114.3h0.4c63.3-0.2,114.7-51.7,114.5-115L306.9,171.5z"/>
	<path class="st10" d="M306.9,171.5c-0.1-22.3-17.6-40.4-39.1-40.4h-19c21.5,0,39,18.2,39.1,40.4l0.2,78.2
		c0.2,60-44.4,109.6-101,114.6c3.1,0.3,6.3,0.4,9.5,0.4h0.3c61-0.2,110.4-51.7,110.2-115L306.9,171.5z"/>
	
		<ellipse transform="matrix(0.9333 -0.3592 0.3592 0.9333 -62.9085 31.9219)" class="st11" cx="54.5" cy="185.3" rx="30.6" ry="45"/>
	<ellipse transform="matrix(0.9333 -0.3592 0.3592 0.9333 -61.744 29.587)" class="st0" cx="48.8" cy="181" rx="30.6" ry="45"/>
	<path class="st2" d="M196,310.6c-9.6,0-18.8-3.5-25.9-10.1c-3-2.7-3.2-7.5-0.5-10.4c2.7-3,7.5-3.2,10.4-0.5c4.3,4,10,6.2,15.9,6.2
		h0.1c6,0,11.6-2.3,16-6.3c3-2.7,7.7-2.6,10.4,0.4s2.6,7.7-0.4,10.4C214.9,306.9,205.8,310.5,196,310.6L196,310.6z"/>
	<path class="st12" d="M178.3,200.3c-2.7,1.5-7.5,1.6-10.4,0.2c-4.3-2-10-3.1-15.9-3.1h-0.1c-6,0-11.6,1.1-16,3.1
		c-3,1.4-7.7,1.3-10.4-0.2c-2-1.1-2.5-2.6-1.5-3.8c0.4-0.5,1-1,1.9-1.4c7.1-3.2,16.3-5.1,25.9-5.1c0,0.1,0.1,0.1,0.1,0.1
		c9.6,0,18.8,1.8,25.9,5c0.9,0.4,1.6,0.9,2,1.4C180.8,197.7,180.3,199.2,178.3,200.3z"/>
	<ellipse class="st11" cx="82.1" cy="140" rx="50.1" ry="41"/>
	<path class="st12" d="M270.4,200.3c-2.7,1.5-7.5,1.6-10.4,0.2c-4.3-2-10-3.1-15.9-3.1H244c-6,0-11.6,1.1-16,3.1
		c-3,1.4-7.7,1.3-10.4-0.2c-2-1.1-2.5-2.6-1.5-3.8c0.4-0.5,1-1,1.9-1.4c7.1-3.2,16.3-5.1,25.9-5.1c0,0.1,0,0.1,0.1,0.1
		c9.6,0,18.8,1.8,25.9,5c0.9,0.4,1.6,0.9,2,1.4C272.9,197.7,272.4,199.2,270.4,200.3z"/>
	<path class="st12" d="M179.8,196.4c-0.3,0.4-0.8,0.8-1.5,1.2c-2.7,1.5-7.5,1.6-10.4,0.2c-4.3-2-10-3.1-15.9-3.1h-0.1
		c-6,0-11.6,1.1-16,3.1c-3,1.4-7.7,1.3-10.4-0.2c-0.7-0.3-1.2-0.8-1.5-1.2c0.4-0.5,1-1,1.9-1.4c7.1-3.2,16.3-5.1,25.9-5.1
		c0,0.1,0.1,0.1,0.1,0.1c9.6,0,18.8,1.8,25.9,5C178.6,195.4,179.3,195.9,179.8,196.4z"/>
	<path class="st12" d="M271.9,196.4c-0.3,0.4-0.8,0.8-1.5,1.2c-2.7,1.5-7.5,1.6-10.4,0.2c-4.3-2-10-3.1-15.9-3.1H244
		c-6,0-11.6,1.1-16,3.1c-3,1.4-7.7,1.3-10.4-0.2c-0.7-0.3-1.2-0.8-1.5-1.2c0.4-0.5,1-1,1.9-1.4c7.1-3.2,16.3-5.1,25.9-5.1
		c0,0.1,0,0.1,0.1,0.1c9.6,0,18.8,1.8,25.9,5C270.8,195.4,271.4,195.9,271.9,196.4z"/>
	<path class="st13" d="M165.3,228.6c0-6.9-5.6-12.4-12.5-12.4s-12.4,5.6-12.4,12.5s5.6,12.4,12.5,12.4S165.3,235.5,165.3,228.6z"/>
	<path class="st13" d="M253,228.3c0-6.9-5.6-12.5-12.5-12.4c-6.9,0-12.5,5.6-12.4,12.5c0,6.9,5.6,12.5,12.5,12.4
		C247.5,240.8,253,235.2,253,228.3z"/>
	
		<ellipse transform="matrix(0.3592 -0.9333 0.9333 0.3592 35.2226 421.9173)" class="st11" cx="324.8" cy="185.3" rx="45" ry="30.6"/>
	
		<ellipse transform="matrix(0.3592 -0.9333 0.9333 0.3592 44.4654 419.7236)" class="st0" cx="327.9" cy="177.5" rx="45" ry="30.6"/>
	<ellipse class="st11" cx="303.1" cy="133.3" rx="50.1" ry="41"/>
	<ellipse class="st0" cx="301" cy="114.2" rx="51.2" ry="51.2"/>
	<ellipse class="st11" cx="277.6" cy="105.4" rx="50.1" ry="41"/>
	<ellipse class="st0" cx="277.6" cy="97.8" rx="49.3" ry="35.6"/>
	<ellipse class="st0" cx="77.3" cy="126" rx="48.1" ry="48.1"/>
	<ellipse class="st11" cx="113" cy="99.3" rx="50.1" ry="41"/>
	<ellipse class="st11" cx="190.3" cy="82.4" rx="77.3" ry="58.9"/>
	<ellipse class="st0" cx="197" cy="68.9" rx="80.6" ry="58.1"/>
	<ellipse class="st0" cx="113" cy="91.5" rx="49.3" ry="35.6"/>
	<g>
		<path class="st5" d="M262.1,450c-0.2-0.1-0.4-0.3-0.6-0.6c-0.6-0.9-0.3-2.2,0.6-2.8c8.5-6.7,16.2-15.1,22.7-24.8
			c5.2-7.9,9.7-16.6,13.4-26.1c6.2-16.1,7.8-28.8,7.8-28.9c0.1-1.1,1.1-2,2.2-2s1.8,1,1.7,2.2c-0.1,0.5-1.7,13.3-8.1,29.9
			c-3.7,9.8-8.4,18.8-13.7,27c-6.8,10.2-14.7,18.9-23.7,25.9C263.4,450.3,262.6,450.3,262.1,450z"/>
		<path class="st6" d="M323.3,379.1c0.4-0.9,0.1-1.9-0.6-2.4c-0.2-0.2-5.9-4.3-11.5-2.4c-2.7,0.9-4.7,2.4-5.9,4.1s-1.7,3.8-1.2,5.9
			c0.4,1.8,1.5,3.2,2.8,4c0.2,0.1,0.4,0.2,0.7,0.3c1.9,0.8,4.1,0.7,6.9-0.3C320.3,386.5,323.1,379.4,323.3,379.1z"/>
		<path class="st7" d="M307.1,379.6c0.2-2.2-0.5-4.4-2.1-6.7c-3.2-4.7-10.3-4.7-10.6-4.7c-0.9,0-1.7,0.7-2,1.6
			c-0.1,0.3-2.3,7.7,0.9,12.4c1.1,1.6,2.3,2.7,3.5,3.4c0.6,0.3,1.1,0.5,1.7,0.7c1.9,0.5,3.9,0,5.6-1.4
			C305.9,383.6,306.9,381.8,307.1,379.6z"/>
		<path class="st7" d="M317,397.1c0.4-0.9,0.1-1.9-0.6-2.4c-0.2-0.2-5.9-4.3-11.5-2.4c-2.7,0.9-4.7,2.4-5.9,4.1
			c-1.2,1.8-1.7,3.8-1.2,5.9c0.4,1.8,1.5,3.2,2.8,4c0.2,0.1,0.4,0.2,0.7,0.3c1.9,0.8,4.1,0.7,6.9-0.3
			C313.9,404.5,316.9,397.4,317,397.1z"/>
		<path class="st6" d="M300.9,397.6c0.2-2.2-0.5-4.4-2.1-6.7c-3.2-4.7-10.3-4.7-10.6-4.7c-0.9,0-1.7,0.7-2,1.6
			c-0.1,0.3-2.3,7.7,0.9,12.4c1.1,1.6,2.3,2.7,3.5,3.4c0.6,0.3,1.1,0.5,1.7,0.7c1.9,0.5,3.9,0,5.6-1.4
			C299.6,401.5,300.6,399.8,300.9,397.6z"/>
		<path class="st6" d="M307,415.4c-0.2-0.2-4.9-5.4-10.7-4.5c-2.7,0.4-4.9,1.5-6.5,3c-1.5,1.6-2.3,3.5-2.2,5.7
			c0.1,2.2,1.1,3.9,2.7,5c0.1,0.1,0.3,0.2,0.4,0.2c1.6,0.9,3.7,1.2,6.3,0.8c5.8-0.9,9.8-7.5,10-7.7C307.6,417,307.6,416,307,415.4z"
			/>
		<g>
			<path class="st7" d="M291.4,415.4c0.5-2.2,0.3-4.5-0.9-7.1c-2.3-5.4-9.2-6.7-9.5-6.7c-0.9-0.2-1.8,0.3-2.2,1.2
				c-0.1,0.3-3.5,7.3-1.2,12.6c1,2.4,2.4,4,3.9,4.9c0.1,0.1,0.3,0.1,0.4,0.2c1.8,0.8,3.7,0.7,5.6-0.3
				C289.5,419.1,290.9,417.4,291.4,415.4z"/>
			<path class="st7" d="M294.9,436.5c-0.2-0.3-3.8-6.4-9.6-6.6c-2.7-0.1-5,0.5-6.8,1.8c-1.7,1.3-2.7,3.1-3,5.3
				c-0.3,2.2,0.4,4.1,1.8,5.5c0.4,0.4,0.9,0.8,1.5,1.1c1.3,0.7,2.8,1.1,4.8,1.2c5.7,0.2,10.8-5.6,11-5.8
				C295.3,438.1,295.4,437.1,294.9,436.5z"/>
			<path class="st7" d="M279.9,433.4c0.9-2,1-4.4,0.4-7.3c-1.3-5.8-7.8-8.3-8.1-8.4c-0.8-0.3-1.8,0-2.3,0.8
				c-0.2,0.3-4.6,6.6-3.3,12.4c0.6,2.7,1.8,4.8,3.3,6c0.2,0.1,0.4,0.3,0.6,0.4c1.5,0.8,3.1,0.9,4.9,0.3
				C277.4,436.9,278.9,435.4,279.9,433.4z"/>
			<path class="st7" d="M315.9,358.9c0.7-6.1-4.4-10.9-4.6-11.1c-0.6-0.6-1.6-0.6-2.4-0.1c-0.3,0.2-6.4,4.7-7,10.8
				c-0.3,2.9,0.1,5.3,1.2,7c0.5,0.9,1.3,1.5,2.1,2c0.8,0.5,1.8,0.7,2.7,0.7c2.1,0.1,3.9-0.8,5.3-2.4
				C314.6,364.1,315.5,361.9,315.9,358.9z"/>
		</g>
	</g>
	<circle class="st14" cx="260.4" cy="448.3" r="17"/>
	<circle class="st15" cx="260.1" cy="448.1" r="10.4"/>
</g>
</svg>
