<?xml version="1.0" encoding="utf-8"?>
<!-- Generator: Adobe Illustrator 23.1.0, SVG Export Plug-In . SVG Version: 6.00 Build 0)  -->
<svg version="1.1" id="Layer_1" xmlns="http://www.w3.org/2000/svg" xmlns:xlink="http://www.w3.org/1999/xlink" x="0px" y="0px"
	 viewBox="0 0 383 508.7" style="enable-background:new 0 0 383 508.7;" xml:space="preserve">
<style type="text/css">
	.st0{fill:#F0BCA6;}
	.st1{fill:#E6B09A;}
	.st2{fill:#563B2D;}
	.st3{fill:#664242;}
	.st4{clip-path:url(#SVGID_2_);}
	.st5{fill:#4C2C2C;}
	.st6{fill:#FFF4F1;}
	.st7{fill:#ECEDEF;}
	.st8{fill:#BC8169;}
	.st9{fill:#868686;}
	.st10{fill:#BF736A;}
	.st11{fill:#E89991;}
</style>
<title>old</title>
<path class="st0" d="M6.3,508.5h368.9c1.4-0.4,2.7-1.1,3.8-2.1c1.5-1.5,2.3-3.5,2.3-5.6l-0.1-23.6c-0.5-90.2-73.1-172.9-162.7-173.2
	H218l-53.1,0.2C75.1,304.7,2.5,388,2.5,478.4L2.6,502C2.6,504.5,4,507,6.3,508.5z"/>
<path class="st1" d="M382.1,477.5c-0.5-90.2-73.2-172.9-162.7-173.2h-0.5l-19.2,0.1c87.8,2.6,158,84.7,158.5,173.1l0.1,23.6
	c0,2.1-0.8,4.1-2.3,5.6c-1.1,1.1-2.4,1.8-3.8,2.1h24c1.4-0.4,2.7-1.1,3.8-2.1c1.5-1.5,2.3-3.5,2.3-5.6L382.1,477.5z"/>
<path class="st2" d="M382,477.5c-0.1-43.4-17.4-95-48.2-125.5c-9.1-9.1-19.2-17.1-30.1-23.9c-7.6,30.3-39.8,64.6-82,72.4
	c-9.7,1.8-19.6,2.7-29.4,2.7c-9.8,0-19.6-0.9-29.2-2.6c-41.9-7.8-74.3-41.9-82.1-71.9c-11,6.9-21.2,15-30.2,24.2
	C20.3,383.5,3.3,435.3,3.4,478.7l0.1,23.6c0.1,2.6,1.4,5.1,3.6,6.5h368.9c1.4-0.4,2.7-1.1,3.8-2.1c1.5-1.5,2.3-3.5,2.3-5.6
	L382,477.5z"/>
<path class="st3" d="M382,477.5c-0.1-43.4-17.4-95-48.2-125.5c-9.1-9.1-19.2-17.1-30.1-23.9c-7.6,30.3-39.8,64.6-82,72.4
	c-9.7,1.8-19.6,2.7-29.4,2.7c-9.8,0-19.6-0.9-29.2-2.6c-41.9-7.8-74.3-41.9-82.1-71.9c-11,6.9-21.2,15-30.2,24.2
	C20.3,383.5,3.3,435.3,3.4,478.7l0.1,23.6c0.1,2.6,1.4,5.1,3.6,6.5h368.9c1.4-0.4,2.7-1.1,3.8-2.1c1.5-1.5,2.3-3.5,2.3-5.6
	L382,477.5z"/>
<g>
	<g>
		<defs>
			<path id="SVGID_1_" d="M382,477.5c-0.1-43.4-17.4-95-48.2-125.5c-9.1-9.1-19.2-17.1-30.1-23.9c-7.6,30.3-39.8,64.6-82,72.4
				c-9.7,1.8-19.6,2.7-29.4,2.7c-9.8,0-19.6-0.9-29.2-2.6c-41.9-7.8-74.3-41.9-82.1-71.9c-11,6.9-21.2,15-30.2,24.2
				C20.3,383.5,3.3,435.3,3.4,478.7l0.1,23.6c0.1,2.6,1.4,5.1,3.6,6.5h368.9c1.4-0.4,2.7-1.1,3.8-2.1c1.5-1.5,2.3-3.5,2.3-5.6
				L382,477.5z"/>
		</defs>
		<clipPath id="SVGID_2_">
			<use xlink:href="#SVGID_1_"  style="overflow:visible;"/>
		</clipPath>
		<g class="st4">
			<path class="st5" d="M383.1,478.2C382.6,388,310,305.2,220.4,305h-0.5l-19.2,0.1c87.8,2.6,157.9,84.7,158.4,173.1l0.1,23.6
				c0,2.1-0.8,4.1-2.3,5.6c-1.1,1.1-2.4,1.8-3.8,2.1h24c1.4-0.4,2.7-1.1,3.8-2.1c1.5-1.5,2.3-3.5,2.3-5.6V478.2z"/>
		</g>
	</g>
</g>
<path class="st6" d="M262.5,500.4c-27.9-5.9-57.1-24.4-80-51c-22.9-26.6-36.2-67.5-36.3-94.7c-0.1-13.9,1.6-27.7,5-41.2
	c0.6-2.5,0.1-5.1-1.4-7.1c-0.7-0.9-1.6-1.7-2.6-2.2l2.9-0.3c-38.2,3.5-73.8,20.9-101.5,50C17.7,386.6,0.7,440,1,484.9l0.1,23.8
	h267.7C269,504.8,266.4,501.2,262.5,500.4z"/>
<path class="st7" d="M148.8,307.6c1.5,2,2,4.6,1.4,7.1c-3.4,13.5-5,27.3-5,41.2c0.1,27.2,13.4,68,36.3,94.6
	c22.9,26.6,52.1,45.2,80,51c3.8,0.9,6.5,4.4,6.4,8.2h24c0-3.6-2.2-6.8-5.6-7.9c-0.2-0.1-0.5-0.1-0.7-0.2c-27.9-5.9-57.1-24.4-80-51
	s-36.2-67.5-36.3-94.6c0-13.9,1.7-27.7,5-41.2c0.6-2.5,0.1-5.1-1.4-7.1c-1.4-2-3.7-3.2-6.2-3.2h-3.6c-4,0-7.9,0.2-11.8,0.5h-0.5
	c-0.5,0-1.1,0.1-1.6,0.1l-2.9,0.3C147.3,306,148.1,306.8,148.8,307.6z"/>
<path class="st1" d="M383,501.1c0,2-0.8,4.1-2.2,5.6c-1,1-2.2,1.7-3.5,2.1h-22.8c1.4-0.4,2.7-1.1,3.6-2.1c1.4-1.5,2.2-3.6,2.2-5.6
	l0.3-21c8.1-9.4,14.8-20.1,19.7-31.6c0-0.1,0-0.1,0.1-0.2c1.7,9.6,2.5,19.4,2.5,29.2L383,501.1z"/>
<path class="st0" d="M360.7,501.1c0,2.1-0.9,4.2-2.4,5.6c-1.1,1.1-2.5,1.8-4,2.1h-34.5c15.3-6.9,29.2-16.6,40.9-28.8V501.1z"/>
<path class="st0" d="M72.4,154.1h-0.2c-28.2,0.1-51.1,23.1-51,51.3c-0.1,13.5,5.3,26.5,15,36.1s17.1,14.8,36.1,14.8h0.2
	c28.2-0.4,50.8-23.6,50.4-51.8C122.4,176.8,100.1,154.4,72.4,154.1z"/>
<path class="st0" d="M318.1,153.2h-0.2c-28.2,0.1-51.1,23.1-51,51.3c0,13.5,5.4,26.5,15,36c9.6,9.5,22.5,14.9,36,14.8h0.2
	c28.2,0,51.1-22.9,51-51.1C369.2,176,346.3,153.2,318.1,153.2L318.1,153.2z"/>
<path class="st1" d="M317.1,193.4l0.1,34c0.3,72.3-53.6,131.3-120,131.6h-0.4c-2.9,0-5.8-0.1-8.7-0.3
	c-62.2-4.9-111.5-61.4-111.7-130.4l-0.1-21.8c-10.6-20.3-16.1-42.9-16-65.8c0-71.6,52.2-130.4,118.8-136.4h0.1c3-0.4,6-0.8,9-1l0,0
	c3-0.2,6.1-0.3,9.1-0.3c71.9,0,130.2,61.3,130.2,137C327.4,158.2,323.9,176.3,317.1,193.4z"/>
<path class="st0" d="M298.3,193.4l0.1,34c0.3,69.1-49,126.1-111.3,131.2c-62.3-4.9-111.6-61.4-111.8-130.4l-0.1-21.8
	c-10.6-20.3-16.1-42.9-16-65.8C59.2,69,111.4,10.2,178,4.2h0.1c3-0.4,6-0.8,9-1l0,0c67.8,4.6,121.5,64,121.5,136.6
	C308.6,158.1,305.1,176.3,298.3,193.4z"/>
<path class="st0" d="M289.7,127.7c0-0.3,0-0.6,0-0.9v-0.3c0-4.8-3.3-8.6-7.2-8.6l0,0l-175.9,0.6c-4,0-7.2,3.9-7.2,8.6v0.3
	c0,0.3,0,0.6,0,0.9L99.7,260c0,4.1,0.2,8.4,0.6,12.7c0.2,3.1,2.1,5.9,4.9,7.3c2.7,1,5.8,0.1,7.5-2.3c18.1-23.2,43.6-25.1,77.6-25.2
	c37.5-0.2,66.3,5.7,84.9,34.7c1.2,2,3.4,3.3,5.7,3.4c0.5,0,1.1-0.1,1.6-0.2c2.9-1,5.1-3.6,5.5-6.6c1.4-8,2.2-16.2,2.1-24.4
	L289.7,127.7z"/>
<path class="st8" d="M196.8,301.9c-10.2,0-20.1-3.8-27.6-10.8c-3.3-3.1-3.6-8.3-0.5-11.6c3.1-3.3,8.3-3.6,11.6-0.5
	c4.5,4.1,10.4,6.4,16.5,6.4h0.1c6.1,0,12-2.3,16.5-6.5c3.5-2.9,8.6-2.5,11.6,1c2.7,3.2,2.6,8-0.4,11c-7.5,7-17.4,10.9-27.7,10.9
	C196.9,301.9,196.9,301.9,196.8,301.9L196.8,301.9z"/>
<path class="st9" d="M163.8,225.7c0-7.2-5.9-13.1-13.2-13.1s-13.1,5.9-13.1,13.2c0,7.2,5.9,13.1,13.2,13.1l0,0
	C157.9,238.7,163.8,232.9,163.8,225.7z"/>
<path class="st7" d="M166.1,204.9c-0.7,0-1.4-0.1-2.1-0.3l-30.9-8.2c-4.4-1.2-7-5.6-5.9-10s5.6-7,10-5.9l0,0l30.9,8.1
	c4.4,1.2,7,5.7,5.9,10.1C173.1,202.3,169.8,204.8,166.1,204.9L166.1,204.9z"/>
<path class="st9" d="M256.3,225.4c0-7.2-5.9-13.1-13.2-13s-13.1,5.9-13,13.2c0,7.2,5.9,13.1,13.2,13c7.2,0,13-5.8,13.1-12.9
	C256.3,225.5,256.3,225.4,256.3,225.4z"/>
<path class="st7" d="M227.7,204.6c-4.6,0-8.3-3.7-8.3-8.2c0-3.7,2.5-7,6.1-8l30.9-8.4c4.4-1.1,8.9,1.6,10,6c1.1,4.3-1.4,8.6-5.6,9.9
	l-30.9,8.4C229.2,204.6,228.4,204.7,227.7,204.6z"/>
<path class="st10" d="M148.5,142.6h95.2c1.1,0,2.1,0.9,2.1,2.1v1.5c0,1.1-0.9,2.1-2.1,2.1h-95.2c-1.1,0-2.1-0.9-2.1-2.1v-1.5
	C146.5,143.6,147.4,142.6,148.5,142.6z"/>
<path class="st11" d="M164.1,273.3l0.5,0.4c0.4,0.3,0.4,0.9,0.1,1.2l-12.1,13.7c-0.3,0.4-0.9,0.4-1.2,0.1l-0.5-0.4
	c-0.4-0.3-0.4-0.9-0.1-1.2l12.1-13.7C163.2,273,163.7,273,164.1,273.3z"/>
<path class="st11" d="M242.5,288.2l-0.5,0.4c-0.4,0.3-0.9,0.3-1.2-0.1l-12.1-13.7c-0.3-0.4-0.3-0.9,0.1-1.2l0.5-0.4
	c0.4-0.3,0.9-0.3,1.2,0.1l12.1,13.7C242.9,287.4,242.9,287.9,242.5,288.2z"/>
</svg>
