<?xml version="1.0" encoding="utf-8"?>
<!-- Generator: Adobe Illustrator 23.1.0, SVG Export Plug-In . SVG Version: 6.00 Build 0)  -->
<svg version="1.1" id="Layer_1" xmlns="http://www.w3.org/2000/svg" xmlns:xlink="http://www.w3.org/1999/xlink" x="0px" y="0px"
	 viewBox="0 0 383 508.7" style="enable-background:new 0 0 383 508.7;" xml:space="preserve">
<style type="text/css">
	.st0{fill:#F0BCA6;}
	.st1{fill:#E6B09A;}
	.st2{fill:#F2CA70;}
	.st3{clip-path:url(#SVGID_2_);}
	.st4{fill:#D8AD56;}
	.st5{fill:#FFF4F1;}
	.st6{fill:#ECEDEF;}
	.st7{fill:#D0CFD1;}
	.st8{fill:#DCDBDD;}
	.st9{fill:#979797;}
	.st10{fill:#868686;}
	.st11{fill:#BF736A;}
	.st12{fill:none;}
</style>
<title>old</title>
<path class="st0" d="M5.6,508.6H376c1.4-0.4,2.7-1.1,3.8-2.1c1.5-1.5,2.3-3.5,2.3-5.6l-0.1-23.5c-0.5-89.9-73.4-162.6-163.4-162.9
	h-0.5l-53.4,0.2c-90,0.6-162.8,73.8-162.8,163.9L2,502.1C2.1,504.8,3.4,507.2,5.6,508.6z"/>
<path class="st1" d="M382,477.4c-0.5-89.9-73.4-162.6-163.4-162.9h-0.5l-19.3,0.1c88.2,2.6,158.6,74.5,159.1,162.8l0.1,23.5
	c0,2.1-0.8,4.1-2.3,5.6c-1,1.1-2.4,1.8-3.8,2.1H376c1.4-0.4,2.7-1.1,3.8-2.1c1.5-1.5,2.3-3.5,2.3-5.6L382,477.4z"/>
<path class="st2" d="M383,477.4c-0.1-43.3-17.5-84.8-48.4-115.2c-9.3-9.2-19.6-17.3-30.7-24.1c0.4,1.6,0.5,3.3,0.5,5
	c0,30-56.1,54.4-125.1,54.4c-58.8,0-108-17.6-121.5-41.3c-2.5,2.2-4.9,4.5-7.3,6.9C19.8,393.6,2.6,435.2,2.8,478.5L2.9,502
	c0.1,2.6,1.4,5,3.6,6.5h370.4c1.4-0.4,2.7-1.1,3.8-2.1c1.5-1.5,2.3-3.5,2.3-5.6L383,477.4z"/>
<g>
	<g>
		<defs>
			<path id="SVGID_1_" d="M383,477.4c-0.1-43.3-17.5-84.8-48.4-115.2c-9.3-9.2-19.6-17.3-30.7-24.1c0.4,1.6,0.5,3.3,0.5,5
				c0,30-56.1,54.4-125.1,54.4c-58.8,0-108-17.6-121.5-41.3c-2.5,2.2-4.9,4.5-7.3,6.9C19.8,393.6,2.6,435.2,2.8,478.5L2.9,502
				c0.1,2.6,1.4,5,3.6,6.5h370.4c1.4-0.4,2.7-1.1,3.8-2.1c1.5-1.5,2.3-3.5,2.3-5.6L383,477.4z"/>
		</defs>
		<clipPath id="SVGID_2_">
			<use xlink:href="#SVGID_1_"  style="overflow:visible;"/>
		</clipPath>
		<g class="st3">
			<path class="st4" d="M382,477.4c-0.5-89.9-73.4-162.6-163.4-162.9h-0.5l-19.3,0.1c88.2,2.6,158.6,74.5,159.1,162.8l0.1,23.5
				c0,2.1-0.8,4.1-2.3,5.6c-1,1.1-2.4,1.8-3.8,2.1H376c1.4-0.4,2.7-1.1,3.8-2.1c1.5-1.5,2.3-3.5,2.3-5.6L382,477.4z"/>
		</g>
	</g>
</g>
<path class="st5" d="M262.5,500.3c-28-5.9-57.4-24.3-80.4-51s-36.3-57.5-36.4-84.5c-0.1-13.8,1.6-27.6,5-41c0.6-2.5,0.1-5.1-1.4-7.1
	c-0.7-0.9-1.6-1.7-2.6-2.2l2.9-0.3c-38.4,3.5-74.2,20.9-101.9,49.9C16.8,396.7-0.3,440,0,485l0.1,23.7h268.8
	C269,504.7,266.4,501.2,262.5,500.3z"/>
<path class="st6" d="M149.4,316.8c1.5,2,2,4.6,1.4,7.1c-3.4,13.4-5.1,27.2-5,41c0.1,27.1,13.4,57.9,36.4,84.5s52.3,45,80.4,51
	c3.8,0.9,6.5,4.3,6.4,8.2h24.1c0-3.6-2.2-6.8-5.6-7.9c-0.2-0.1-0.5-0.1-0.7-0.2c-28-5.9-57.4-24.3-80.4-51S170.1,392,170,365
	c0-13.8,1.7-27.6,5-41c0.6-2.5,0.1-5.1-1.4-7.1s-3.8-3.2-6.2-3.2h-3.7c-4,0-7.9,0.2-11.8,0.5h-0.5c-0.5,0-1.1,0.1-1.6,0.1l-2.9,0.3
	C147.8,315.2,148.7,315.9,149.4,316.8z"/>
<path class="st1" d="M383,500.9c0,2.1-0.8,4.1-2.3,5.6c-1.1,1-2.4,1.8-3.8,2.1h-24.1c1.4-0.3,2.8-1.1,3.8-2.1
	c1.5-1.5,2.3-3.5,2.3-5.6l0.3-21c8.6-9.3,15.6-20,20.8-31.5c0-0.1,0-0.1,0.1-0.2c1.8,9.6,2.7,19.4,2.6,29.1L383,500.9z"/>
<path class="st0" d="M359.4,500.9c0,2.1-0.9,4.2-2.5,5.6c-1.2,1.1-2.6,1.8-4.2,2.1h-36.5c16.1-6.7,30.8-16.5,43.3-28.7L359.4,500.9
	L359.4,500.9z"/>
<path class="st1" d="M326,230.1l0.1,35.1c0.3,74.7-55.4,135.6-123.9,135.9h-0.4c-3,0-6-0.1-9-0.4c-64.3-5-115.1-63.4-115.3-134.6
	l-0.1-22.5c-10.9-21-16.6-44.3-16.5-68c0-73.9,53.9-134.6,122.6-140.9h0.1c3-0.5,6.1-0.8,9.3-1l0,0c3.1-0.2,6.3-0.3,9.4-0.3
	c74.2,0,134.4,63.3,134.4,141.4C336.8,193.7,333.1,212.5,326,230.1z"/>
<path class="st0" d="M306.6,230.1l0.1,35.1c0.3,71.4-50.6,130.3-114.9,135.5c-64.3-5-115.2-63.4-115.3-134.6l-0.1-22.5
	c-10.9-21-16.6-44.3-16.5-68c0-73.9,53.9-134.6,122.6-140.9l0,0c3.1-0.5,6.1-0.8,9.3-1l0,0c70.1,4.8,125.5,66.2,125.5,141.1
	C317.3,193.7,313.7,212.5,306.6,230.1z"/>
<path class="st0" d="M73.3,190.1h-0.2c-29.2,0.1-52.7,23.8-52.7,53c-0.1,14,5.6,27.4,15.5,37.2c10,9.9,17.7,15.3,37.2,15.3h0.2
	c29.1-0.4,52.4-24.4,52-53.5C125,213.5,101.9,190.5,73.3,190.1L73.3,190.1z"/>
<path class="st0" d="M327,189.3h-0.2c-29.2,0.1-52.7,23.8-52.7,53c-0.1,14,5.5,27.4,15.5,37.3c9.9,9.9,23.3,15.4,37.2,15.3h0.2
	c29.1,0,52.7-23.7,52.7-52.8C379.8,212.9,356.1,189.3,327,189.3L327,189.3L327,189.3z"/>
<path class="st7" d="M326,230.7l0.1,35.1c0.3,74.7-55.4,135.6-123.9,135.9h-0.4c-3,0-6-0.1-9-0.4h-0.6
	c-64-5.3-114.6-63.5-114.8-134.6l-0.1-22.5c-22.2-43-22-94,0.5-136.8c9.9,9.7,21.3,17.7,33.8,23.6c16.1-22.5,48.9-38,86.8-38
	c36.1,0,67.7,14.1,84.5,34.9c7.4-4,14.4-8.8,20.9-14.2c4.6-3.9,8.9-8.1,12.8-12.7C339.5,140.5,343,188.3,326,230.7L326,230.7z"/>
<path class="st8" d="M77.1,106.6c-22.8,42.9-23.2,94.3-0.9,137.5l0.1,22.5c0.2,71.3,51.1,129.6,115.3,134.6h0.5
	c43.1-3.7,80.1-31.5,99.7-71c1.7-3.5,3.3-7,4.7-10.6c6.7-17.1,10.1-35.4,10-53.8l-0.1-35c15.2-37.7,14.2-80-2.7-117
	c-6.5,5.4-13.5,10.1-20.9,14.2c-16.8-20.9-48.4-34.9-84.5-34.9c-37.9,0-70.7,15.4-86.8,38c-12.5-6-23.9-14-33.8-23.7L77.1,106.6z"/>
<path class="st9" d="M201.7,342.8c-10.6,0-20.7-3.9-28.5-11.1c-3.4-3.2-3.6-8.6-0.4-12c3.2-3.4,8.4-3.6,11.9-0.5
	c4.6,4.3,10.7,6.6,17.1,6.6h0.1c6.3,0,12.4-2.4,17-6.7c3.4-3.2,8.8-3,12,0.5s3,8.8-0.5,12c-7.8,7.2-18,11.2-28.6,11.2
	C201.8,342.8,201.8,342.8,201.7,342.8z"/>
<path class="st0" d="M298.1,298.9c0,6.9-0.5,13.8-1.5,20.7c-0.2,1.5-0.4,3-0.7,4.5c-0.4,2.5-1.8,4.8-4,6.2c-1,0.6-2.1,0.9-3.3,0.9
	c-2.4-0.1-4.7-1.4-5.9-3.5c-19.2-30-48.9-36-87.6-35.9c-35.1,0.1-61.4,2.1-80.1,26.1c-1.8,2.5-5,3.4-7.8,2.4
	c-2.9-1.4-4.9-4.3-5.1-7.5c-0.4-4.5-0.6-8.9-0.6-13.1l-0.3-136c0-0.2,0-0.5,0-0.7v-0.2c0-0.1,0-0.2,0-0.3c0-11.3,3.8-22,10.6-31.5
	c16.1-22.5,48.9-38,86.8-38c36.1,0,67.7,14.1,84.5,34.9c6.5,7.8,10.7,17.2,12.3,27.2c1.6,1.8,2.4,4.1,2.4,6.5v0.3c0,0.3,0,0.6,0,0.9
	L298.1,298.9z"/>
<path class="st10" d="M167.6,264c0-7.5-6.1-13.5-13.6-13.5s-13.5,6.1-13.5,13.6s6.1,13.5,13.6,13.5S167.6,271.5,167.6,264z"/>
<path class="st6" d="M170,242.6c-0.7,0-1.5-0.1-2.2-0.3l-31.9-8.4c-4.5-1.2-7.2-5.9-6-10.4s5.8-7.1,10.3-6l31.9,8.4
	c4.5,1.2,7.3,5.8,6.1,10.4C177.2,239.9,173.9,242.5,170,242.6z"/>
<path class="st10" d="M263.2,263.7c0-7.5-6.1-13.5-13.6-13.5s-13.5,6.1-13.5,13.6s6.1,13.5,13.6,13.5l0,0
	c7.4,0.1,13.4-5.9,13.5-13.3C263.2,263.9,263.2,263.8,263.2,263.7z"/>
<path class="st6" d="M233.7,242.3c-4.7,0-8.5-3.9-8.5-8.6c0-3.8,2.6-7.1,6.2-8.2l31.9-8.6c4.5-1.4,9.3,1.2,10.6,5.7
	c1.4,4.5-1.2,9.3-5.7,10.6c-0.1,0-0.3,0.1-0.4,0.1l-31.9,8.6C235.2,242.2,234.4,242.3,233.7,242.3z"/>
<path class="st11" d="M152,178.3h98.1c1.2,0,2.2,1,2.2,2.2v1.3c0,1.2-1,2.2-2.2,2.2H152c-1.2,0-2.2-1-2.2-2.2v-1.3
	C149.8,179.3,150.8,178.3,152,178.3z"/>
<path class="st9" d="M168,313.3l0.4,0.4c0.4,0.3,0.4,0.9,0.1,1.3L156,329.1c-0.3,0.4-0.9,0.4-1.3,0.1l-0.4-0.4
	c-0.4-0.3-0.4-0.9-0.1-1.3l12.5-14.1C167,313,167.6,312.9,168,313.3z"/>
<path class="st9" d="M248.9,328.7l-0.4,0.4c-0.4,0.3-1,0.3-1.3-0.1l-12.5-14.1c-0.3-0.4-0.3-1,0.1-1.3l0.4-0.4
	c0.4-0.3,1-0.3,1.3,0.1l12.5,14.1C249.4,327.7,249.3,328.3,248.9,328.7z"/>
<path class="st0" d="M282.9,127.9c-24.1,13.2-55,21.1-88.6,21.1c-30.9,0-59.6-6.7-82.7-18.1c16.1-22.5,48.9-38,86.8-38
	C234.6,92.9,266.1,107,282.9,127.9z"/>
<path class="st12" d="M77.8,107.3l-0.7-0.7"/>
<circle class="st7" cx="119.7" cy="98.6" r="58.1"/>
<circle class="st8" cx="117" cy="91.9" r="58.1"/>
<circle class="st7" cx="275.4" cy="98.6" r="60.3"/>
<circle class="st8" cx="275.4" cy="89.9" r="60.3"/>
<circle class="st7" cx="204.1" cy="77.6" r="69.9"/>
<circle class="st8" cx="204.1" cy="69.9" r="69.9"/>
</svg>
