<?xml version="1.0" encoding="utf-8"?>
<!-- Generator: Adobe Illustrator 19.0.0, SVG Export Plug-In . SVG Version: 6.00 Build 0)  -->
<svg version="1.1" id="Layer_1" xmlns="http://www.w3.org/2000/svg" xmlns:xlink="http://www.w3.org/1999/xlink" x="0px" y="0px"
	 viewBox="-114 142.3 383 508.7" style="enable-background:new -114 142.3 383 508.7;" xml:space="preserve">
<style type="text/css">
	.st0{fill:#C6A89C;}
	.st1{fill:#B38B7B;}
	.st2{fill:#E8E8E8;}
	.st3{clip-path:url(#SVGID_2_);fill:#C2C6CC;}
	.st4{fill:#F8A814;}
	.st5{fill:#F8B53C;}
	.st6{fill:#F9CD45;}
	.st7{fill:#CC902F;}
	.st8{fill:#EAC734;}
	.st9{fill:#DCDBDD;}
	.st10{fill:#BABABA;}
	.st11{fill:#897F79;}
	.st12{fill:#ECEDEF;}
	.st13{fill:#868686;}
	.st14{fill:#4C350C;}
	.st15{fill:#825308;}
</style>
<g>
	<path class="st0" d="M248.7,626.1c-0.1-38.5-15.3-74.8-42.8-102.1c-27.4-27.2-63.6-42.2-101.9-42.2c-0.2,0-0.3,0-0.4,0L56.2,482
		c-38.5,0.1-74.8,15.3-102.1,42.8c-27.4,27.5-42.4,63.9-42.3,102.4l0.1,18.1c0,3.6,3,6.6,6.6,6.6h323.6c1.8,0,3.4-0.7,4.7-1.9
		c1.2-1.2,1.9-2.9,1.9-4.7V626.1z"/>
	<path class="st1" d="M248.7,626.1c-0.1-38.5-15.3-74.8-42.8-102.1c-27.4-27.2-63.6-42.2-101.9-42.2c-0.2,0-0.3,0-0.4,0l-16.2,0.1
		c36.9,1,71.7,15.8,98.1,42.1c27.5,27.3,42.7,63.6,42.8,102.1l0.1,19c0,1.8-0.7,3.4-1.9,4.7c-1.2,1.2-2.9,1.9-4.7,1.9h20.4
		c1.8,0,3.4-0.7,4.7-1.9c1.2-1.2,1.9-2.9,1.9-4.7L248.7,626.1z"/>
	<g>
		<g>
			<path id="XMLID_38_" class="st2" d="M248.7,624.7c-0.1-38.2-15.3-74.3-42.8-101.4c-8.2-8.1-17.2-15.1-26.8-21
				c-6.8,26.6-35.5,47.9-73,54.8c-8.4,1.6-17.1,2.4-26.2,2.4c-9,0-17.6-0.8-26-2.3c-37.3-6.8-66.1-28-73-54.4
				c-9.7,5.9-18.6,13-26.9,21.2c-27.2,27.4-42.2,63.5-42.1,101.8l0.1,20.7c0.1,2.4,1.3,4.5,3.2,5.7h328.3c1.2-0.3,2.4-1,3.3-1.9
				c1.3-1.3,2-3.1,2-4.9L248.7,624.7z"/>
		</g>
		<g>
			<g>
				<g>
					<g>
						<defs>
							<path id="SVGID_1_" d="M248.7,624.7c-0.1-38.2-15.3-74.3-42.8-101.4c-8.2-8.1-17.2-15.1-26.8-21c-6.8,26.6-35.5,47.9-73,54.8
								c-8.4,1.6-17.1,2.4-26.2,2.4c-9,0-17.6-0.8-26-2.3c-37.3-6.8-66.1-28-73-54.4c-9.7,5.9-18.6,13-26.9,21.2
								c-27.2,27.4-42.2,63.5-42.1,101.8l0.1,20.7c0.1,2.4,1.3,4.5,3.2,5.7h328.3c1.2-0.3,2.4-1,3.3-1.9c1.3-1.3,2-3.1,2-4.9
								L248.7,624.7z"/>
						</defs>
						<clipPath id="SVGID_2_">
							<use xlink:href="#SVGID_1_"  style="overflow:visible;"/>
						</clipPath>
						<path class="st3" d="M250.7,625.9c-0.1-38.2-15.3-74.3-42.8-101.4c-27.4-27-63.6-41.9-101.9-41.9c-0.2,0-0.3,0-0.4,0
							l-17.1,0.1c36.9,1,71.6,15.7,98.1,41.9c27.5,27.1,42.6,63.2,42.8,101.4l0.1,20.7c0,1.9-0.7,3.6-2,4.9c-0.9,0.9-2,1.6-3.3,1.9
							h21.4c1.2-0.3,2.4-1,3.3-1.9c1.3-1.3,2-3.1,2-4.9L250.7,625.9z"/>
					</g>
				</g>
			</g>
		</g>
	</g>
	<path class="st4" d="M55.6,640.6c-0.1-0.3-0.1-0.4-0.1-0.7c0.1-1,1.1-1.7,2-1.6c9.8,0.5,19.9-0.7,30-3.5c8.2-2.3,16.4-5.6,24.4-9.9
		c13.7-7.3,22.2-14.9,22.3-15c0.8-0.7,1.9-0.7,2.6-0.1c0.7,0.6,0.6,1.8-0.1,2.4c-0.4,0.4-9,8-23.1,15.5c-8.3,4.4-16.8,7.8-25.2,10.2
		c-10.6,2.9-21.1,4.1-31.3,3.6C56.4,641.6,55.8,641.2,55.6,640.6z"/>
	<path class="st5" d="M138.8,628.6c0.8-0.4,1.1-1.1,1.1-1.9c-0.1-0.3-1.4-6.3-6.3-8.4c-2.4-1-4.6-1.1-6.4-0.7
		c-1.9,0.4-3.3,1.7-4.2,3.3c-0.8,1.5-0.9,3-0.4,4.4c0.1,0.2,0.2,0.4,0.3,0.6c0.8,1.6,2.4,2.9,4.8,3.8
		C132.3,631.8,138.6,628.8,138.8,628.6z"/>
	<path class="st6" d="M127.6,619.4c1.4-1.3,2.2-3.3,2.6-5.7c0.6-5.1-4.2-9.3-4.4-9.4c-0.6-0.5-1.5-0.5-2.3-0.1
		c-0.3,0.2-6.1,3.9-6.7,8.9c-0.2,1.8-0.1,3.2,0.4,4.5c0.2,0.5,0.4,1,0.7,1.4c1.1,1.4,2.6,2.3,4.6,2.4
		C124.4,621.4,126.2,620.9,127.6,619.4z"/>
	<path class="st6" d="M124,637.2c0.8-0.4,1.1-1.1,1.1-1.9c-0.1-0.3-1.4-6.3-6.3-8.4c-2.4-1-4.6-1.1-6.4-0.7
		c-1.8,0.4-3.3,1.7-4.2,3.3c-0.8,1.5-0.9,3-0.4,4.4c0.1,0.2,0.2,0.4,0.3,0.6c0.8,1.6,2.4,2.9,4.8,3.8
		C117.5,640.3,123.8,637.2,124,637.2z"/>
	<path class="st5" d="M112.8,627.9c1.4-1.3,2.2-3.3,2.6-5.7c0.6-5.1-4.2-9.3-4.4-9.4c-0.6-0.5-1.5-0.5-2.3-0.1
		c-0.3,0.2-6.1,3.9-6.7,8.9c-0.2,1.8-0.1,3.2,0.4,4.5c0.2,0.5,0.4,1,0.7,1.4c1.1,1.4,2.6,2.3,4.6,2.4
		C109.5,629.9,111.4,629.3,112.8,627.9z"/>
	<path class="st7" d="M37.7,484.9c1.3,1.8,1.8,4.1,1.2,6.3c-3,11.8-4.5,24-4.4,36.1c0.1,23.9,11.8,50.9,32.1,74.4
		c20.3,23.3,46,39.6,70.7,44.8c3.3,0.7,5.6,3.8,5.6,7.2h21.2c0-3.2-2-6.1-4.9-7c-0.2-0.1-0.4-0.1-0.6-0.2
		c-24.7-5.2-50.5-21.4-70.7-44.8c-20.2-23.4-32-50.6-32.1-74.4c0-12.2,1.5-24.4,4.4-36.1c0.5-2.2,0.1-4.5-1.2-6.3s-3.3-2.8-5.5-2.8
		h-3.3c-3.5,0-7,0.2-10.4,0.4c-0.2,0-0.3,0-0.4,0c-0.4,0-1,0.1-1.4,0.1c-0.9,0.1-1.7,0.2-2.6,0.3C36.3,483.4,37.1,484.1,37.7,484.9z
		"/>
	<path class="st8" d="M137.3,646.4c-24.7-5.2-50.5-21.4-70.7-44.8c-20.2-23.4-32-50.6-32.1-74.4c-0.1-12.2,1.4-24.3,4.4-36.1
		c0.5-2.1,0.1-4.5-1.2-6.3c-0.6-0.8-1.4-1.5-2.3-1.9c0.9-0.1,1.7-0.2,2.6-0.3c-33.8,3.1-65.3,18.4-89.7,43.9
		c-27.3,28.6-42.2,66.2-42.1,106.3l0.1,20.9h236.6C143,650.2,140.6,647.1,137.3,646.4z"/>
	<path class="st4" d="M143.1,599.6c-0.2-0.1-0.4-0.3-0.5-0.5c-0.5-0.8-0.3-1.9,0.5-2.6c7.7-6,14.5-13.6,20.4-22.3
		c4.7-7,8.7-14.9,12-23.4c5.6-14.4,7-25.8,7-25.9c0.1-1,1-1.8,1.9-1.8c1,0,1.6,0.9,1.5,1.9c-0.1,0.4-1.5,11.9-7.2,26.9
		c-3.3,8.8-7.6,16.9-12.3,24.2c-6.1,9.2-13.2,17-21.2,23.3C144.3,599.9,143.6,599.9,143.1,599.6z"/>
	<path class="st5" d="M198.1,535.9c0.4-0.8,0.1-1.7-0.5-2.1c-0.2-0.2-5.3-3.9-10.3-2.1c-2.4,0.8-4.2,2.1-5.3,3.7
		c-1.1,1.6-1.5,3.4-1.1,5.3c0.4,1.6,1.3,2.9,2.6,3.6c0.2,0.1,0.4,0.2,0.6,0.3c1.7,0.7,3.7,0.6,6.2-0.3
		C195.2,542.7,198,536.3,198.1,535.9z"/>
	<path class="st6" d="M183.5,536.4c0.2-1.9-0.4-4-1.9-6c-2.9-4.2-9.3-4.2-9.5-4.2c-0.8,0-1.5,0.6-1.8,1.4c-0.1,0.3-2,6.9,0.8,11.1
		c1,1.4,2,2.5,3.2,3.1c0.5,0.3,1,0.4,1.5,0.6c1.7,0.4,3.5,0,5-1.2C182.5,540.1,183.3,538.4,183.5,536.4z"/>
	<path class="st6" d="M192.4,552.1c0.4-0.8,0.1-1.7-0.5-2.1c-0.2-0.2-5.3-3.9-10.3-2.1c-2.4,0.8-4.2,2.1-5.3,3.7
		c-1.1,1.6-1.5,3.4-1.1,5.3c0.4,1.6,1.3,2.9,2.6,3.6c0.2,0.1,0.4,0.2,0.6,0.3c1.7,0.7,3.7,0.6,6.2-0.3
		C189.6,558.7,192.3,552.4,192.4,552.1z"/>
	<path class="st5" d="M178,552.7c0.2-1.9-0.4-4-1.9-6c-2.9-4.2-9.3-4.2-9.5-4.2c-0.8,0-1.5,0.6-1.8,1.4c-0.1,0.3-2,6.9,0.8,11.1
		c1,1.4,2,2.5,3.2,3.1c0.5,0.3,1,0.4,1.5,0.6c1.7,0.4,3.5,0,5-1.2C176.8,556.2,177.8,554.4,178,552.7z"/>
	<path class="st5" d="M183.4,568.4c-0.2-0.2-4.4-4.8-9.6-4.1c-2.5,0.4-4.4,1.3-5.8,2.7c-1.3,1.4-2,3.2-1.9,5.1
		c0.1,1.9,1,3.5,2.4,4.5c0.1,0.1,0.3,0.2,0.4,0.2c1.4,0.8,3.3,1.1,5.6,0.7c5.2-0.8,8.8-6.7,9-6.9C184,569.9,184,569.1,183.4,568.4z"
		/>
	<g>
		<path class="st6" d="M169.4,568.4c0.4-1.9,0.3-4.1-0.8-6.3c-2-4.8-8.3-6-8.5-6c-0.8-0.2-1.6,0.3-1.9,1.1
			c-0.1,0.3-3.2,6.5-1.1,11.3c0.9,2.1,2.1,3.6,3.5,4.4c0.1,0.1,0.3,0.1,0.4,0.2c1.6,0.7,3.3,0.6,5-0.3
			C167.8,571.9,169,570.4,169.4,568.4z"/>
		<path class="st6" d="M172.6,587.4c-0.2-0.3-3.4-5.7-8.6-5.9c-2.5-0.1-4.5,0.4-6.1,1.6c-1.5,1.1-2.5,2.8-2.7,4.8
			c-0.3,1.9,0.4,3.7,1.6,4.9c0.4,0.4,0.8,0.7,1.3,1c1.1,0.6,2.6,1,4.3,1.1c5.1,0.2,9.7-5,9.9-5.2C172.9,588.9,173,588.2,172.6,587.4
			z"/>
		<path class="st6" d="M159,584.8c0.8-1.8,0.9-4,0.4-6.5c-1.1-5.2-7-7.5-7.2-7.6c-0.7-0.3-1.6,0-2,0.7c-0.2,0.3-4.1,5.9-3,11.1
			c0.5,2.5,1.6,4.3,3,5.4c0.2,0.1,0.4,0.3,0.5,0.4c1.3,0.7,2.8,0.8,4.4,0.3C156.9,587.9,158.3,586.6,159,584.8z"/>
		<path class="st6" d="M191.4,517.9c0.6-5.5-4-9.8-4.1-10c-0.5-0.5-1.4-0.5-2.1-0.1c-0.3,0.2-5.7,4.2-6.3,9.7
			c-0.3,2.6,0.1,4.8,1.1,6.3c0.4,0.8,1.1,1.3,1.9,1.8c0.7,0.4,1.6,0.6,2.5,0.6c1.9,0.1,3.5-0.7,4.8-2.1
			C190.3,522.6,191.1,520.4,191.4,517.9z"/>
	</g>
	<ellipse class="st9" cx="82.3" cy="208.3" rx="99.6" ry="64.7"/>
	<ellipse class="st10" cx="83.2" cy="248.2" rx="99.6" ry="64.7"/>
	<circle class="st9" cx="82.9" cy="327.1" r="135.1"/>
	<path class="st0" d="M-17,346.8L-17,346.8c-20,0.1-36.1,20.3-36.1,45c0,12,3.8,23.3,10.7,31.7c6.8,8.5,15.9,13,25.5,13h0.1
		c19.9-0.1,36-20.3,36-45C19,366.9,2.8,346.8-17,346.8z"/>
	<path class="st0" d="M179.7,346.1L179.7,346.1c-20.6,0.1-37.3,20.3-37.2,45c0,12,4,23.3,11,31.7c7,8.5,16.3,13,26.3,13h0.1
		c20.5-0.1,37.2-20.3,37.1-45S200.2,346.1,179.7,346.1z"/>
	<path class="st0" d="M181.8,329.8c-0.1-21.9-16-39.6-35.6-39.6H15.8c-9.5,0-18.5,4.1-25.2,11.7c-6.7,7.6-10.4,17.5-10.4,28.2
		l0.2,77.4c0.2,62,45.4,112.3,100.9,112.3h0.4c55.6-0.2,100.7-50.8,100.5-113L181.8,329.8z"/>
	<path class="st11" d="M82,474.1c-8.6,0-16.9-3.2-23.3-9.1c-2.7-2.5-2.9-6.7-0.4-9.3c2.5-2.7,6.7-2.9,9.3-0.4
		c3.9,3.6,9,5.6,14.3,5.6H82c5.4,0,10.4-2,14.4-5.6c2.7-2.5,6.9-2.3,9.3,0.4c2.5,2.7,2.3,6.9-0.4,9.3C99,470.7,90.7,473.9,82,474.1
		C82.1,474.1,82,474.1,82,474.1z"/>
	<path class="st12" d="M42.4,366c8.6,0,16.9,1.6,23.3,4.5c2.7,1.2,2.9,3.3,0.4,4.7c-2.5,1.3-6.7,1.4-9.3,0.2
		c-3.9-1.8-9-2.8-14.3-2.8h-0.1c-5.4,0-10.4,1-14.4,2.8c-2.7,1.2-6.9,1.1-9.3-0.2c-2.5-1.3-2.3-3.4,0.4-4.7
		C25.4,367.5,33.6,365.9,42.4,366L42.4,366z"/>
	<path class="st12" d="M125,366c8.6,0,16.9,1.6,23.3,4.5c2.7,1.2,2.9,3.3,0.4,4.7c-2.5,1.3-6.7,1.4-9.3,0.2c-3.9-1.8-9-2.8-14.3-2.8
		H125c-5.4,0-10.4,1-14.4,2.8c-2.7,1.2-6.9,1.1-9.3-0.2c-2.5-1.3-2.3-3.4,0.4-4.7C108,367.5,116.3,365.9,125,366
		C124.9,366,125,366,125,366z"/>
	<path class="st13" d="M54.4,400.4c0-6.2-5-11.1-11.2-11.1s-11.1,5-11.1,11.2s5,11.1,11.2,11.1C49.4,411.7,54.4,406.7,54.4,400.4z"
		/>
	<path class="st13" d="M133.2,400.3c0-6.2-5-11.2-11.2-11.1c-6.2,0-11.2,5-11.1,11.2c0,6.2,5,11.2,11.2,11.1
		S133.2,406.4,133.2,400.3z"/>
	<ellipse transform="matrix(-0.866 -0.5 0.5 -0.866 -181.7317 588.9329)" class="st10" cx="-12" cy="318.8" rx="35.7" ry="32.2"/>
	
		<ellipse transform="matrix(-0.8429 -0.5381 0.5381 -0.8429 -197.6269 569.4124)" class="st9" cx="-15.7" cy="313.6" rx="35.7" ry="32.2"/>
	<ellipse transform="matrix(-0.5 -0.866 0.866 -0.5 -8.6569 629.5904)" class="st10" cx="177.4" cy="317.3" rx="32.2" ry="35.7"/>
	<ellipse transform="matrix(-0.5 -0.866 0.866 -0.5 -3.8874 621.161)" class="st9" cx="177.4" cy="311.7" rx="32.2" ry="35.7"/>
	<ellipse class="st10" cx="20" cy="282.5" rx="52.5" ry="47.5"/>
	<ellipse class="st9" cx="16.9" cy="274.6" rx="52.5" ry="47.5"/>
	<ellipse class="st10" cx="148.1" cy="282.5" rx="52.5" ry="47.5"/>
	<ellipse class="st9" cx="147.7" cy="273.7" rx="52.5" ry="47.5"/>
	<ellipse class="st10" cx="82.3" cy="261.5" rx="86" ry="64.1"/>
	<ellipse class="st9" cx="81.8" cy="253.8" rx="86" ry="60.6"/>
	<circle class="st14" cx="141.6" cy="598.2" r="15.2"/>
	<circle class="st15" cx="141.3" cy="597.9" r="9.3"/>
</g>
</svg>
