<?xml version="1.0" encoding="utf-8"?>
<!-- Generator: Adobe Illustrator 23.1.0, SVG Export Plug-In . SVG Version: 6.00 Build 0)  -->
<svg version="1.1" id="Layer_1" xmlns="http://www.w3.org/2000/svg" xmlns:xlink="http://www.w3.org/1999/xlink" x="0px" y="0px"
	 viewBox="0 0 383 508.7" style="enable-background:new 0 0 383 508.7;" xml:space="preserve">
<style type="text/css">
	.st0{fill:#9B3710;}
	.st1{fill:#842610;}
	.st2{fill:#F0BCA6;}
	.st3{fill:#E2A58A;}
	.st4{fill:#E27A84;}
	.st5{clip-path:url(#SVGID_2_);fill:#9E4653;}
	.st6{fill:#F8A814;}
	.st7{fill:#F8B53C;}
	.st8{fill:#F9CD45;}
	.st9{fill:#934161;}
	.st10{fill:#F4F0EF;}
	.st11{fill:#E6B09A;}
	.st12{fill:#868686;}
	.st13{fill:#4C350C;}
	.st14{fill:#825308;}
	.st15{clip-path:url(#SVGID_4_);fill:#9E4653;}
	.st16{fill:#DCDBDD;}
	.st17{clip-path:url(#SVGID_6_);fill:#9E4653;}
	.st18{fill:#EFEFEF;}
	.st19{fill:#BABABA;}
	.st20{fill:#ECEDEF;}
</style>
<path class="st0" d="M-3740,1109.3c-28.6-18.6-66.5-28.7-106.7-28.7s-78,10.2-106.7,28.7c-28.6,18.6-44.4,43.1-44.4,69.1v139.8
	c0,2.4,3.1,4.4,6.8,4.4h288.3c3.8,0,6.8-2,6.8-4.4v-139.8C-3695.8,1152.3-3711.5,1127.8-3740,1109.3z"/>
<ellipse class="st1" cx="-3961.4" cy="1319.5" rx="38.9" ry="33.2"/>
<ellipse class="st1" cx="-3732.2" cy="1318.6" rx="38.9" ry="33.2"/>
<path class="st2" d="M-3958.4,1230.4c-0.1,0-0.1,0-0.2,0c-25.4,0.1-46.1,20.8-46,46.3c0,12.3,4.9,23.9,13.6,32.6
	s20.3,13.4,32.5,13.4h0.2c25.4-0.1,46.1-20.8,46-46.3S-3933.1,1230.4-3958.4,1230.4z"/>
<path class="st2" d="M-3676.3,1517.4c-0.1-39.6-15.8-76.9-44-104.9s-65.4-43.4-104.7-43.4c-0.2,0-0.3,0-0.5,0l-48.7,0.2
	c-39.6,0.1-76.9,15.8-104.9,44c-28.1,28.2-43.5,65.6-43.4,105.2l0.1,18.6c0,3.7,3.1,6.8,6.8,6.8h332.5c1.8,0,3.5-0.7,4.8-2
	s2-3,2-4.8L-3676.3,1517.4z"/>
<path class="st3" d="M-3676.3,1517.4c-0.1-39.6-15.8-76.9-44-104.9s-65.4-43.4-104.7-43.4c-0.2,0-0.3,0-0.5,0l-16.7,0.1
	c37.9,1,73.7,16.2,100.9,43.3c28.2,28.1,43.9,65.4,44,104.9l0.1,19.6c0,1.8-0.7,3.5-2,4.8s-3,2-4.8,2h20.9c1.8,0,3.5-0.7,4.8-2
	s2-3,2-4.8V1517.4z"/>
<g>
	<g>
		<path id="XMLID_2_" class="st4" d="M-3676.4,1520.3c-0.1-39.3-15.8-76.3-44-104.2c-8.4-8.3-17.7-15.5-27.5-21.5
			c-7,27.3-36.5,49.3-75,56.3c-8.6,1.6-17.6,2.4-26.9,2.4c-9.2,0-18.1-0.8-26.7-2.4c-38.3-7-67.9-28.8-75.1-55.9
			c-10,6.1-19.1,13.4-27.6,21.8c-28.1,28.1-43.5,65.2-43.4,104.5l0.1,21.3c0.1,2.4,1.4,4.6,3.3,5.9h337.3c1.3-0.3,2.4-1,3.4-1.9
			c1.4-1.4,2.1-3.2,2.1-5.1L-3676.4,1520.3z"/>
	</g>
	<g>
		<g>
			<g>
				<g>
					<g>
						<g>
							<defs>
								<path id="SVGID_1_" d="M-3676.4,1520.3c-0.1-39.3-15.8-76.3-44-104.2c-8.4-8.3-17.7-15.5-27.5-21.5
									c-7,27.3-36.5,49.3-75,56.3c-8.6,1.6-17.6,2.4-26.9,2.4c-9.2,0-18.1-0.8-26.7-2.4c-38.3-7-67.9-28.8-75.1-55.9
									c-10,6.1-19.1,13.4-27.6,21.8c-28.1,28.1-43.5,65.2-43.4,104.5l0.1,21.3c0.1,2.4,1.4,4.6,3.3,5.9h337.3
									c1.3-0.3,2.4-1,3.4-1.9c1.4-1.4,2.1-3.2,2.1-5.1L-3676.4,1520.3z"/>
							</defs>
							<clipPath id="SVGID_2_">
								<use xlink:href="#SVGID_1_"  style="overflow:visible;"/>
							</clipPath>
							<path class="st5" d="M-3675.4,1520.8c-0.1-39.3-15.8-76.3-44-104.2c-28.2-27.8-65.4-43.1-104.7-43.1c-0.2,0-0.3,0-0.5,0
								l-17.6,0.1c37.9,1,73.6,16.1,100.9,43c28.2,27.9,43.8,64.9,44,104.2l0.1,21.3c0,1.9-0.7,3.7-2.1,5.1
								c-0.9,0.9-2.1,1.6-3.4,1.9h22c1.3-0.3,2.4-1,3.4-1.9c1.4-1.4,2.1-3.2,2.1-5.1L-3675.4,1520.8z"/>
						</g>
					</g>
				</g>
			</g>
		</g>
	</g>
</g>
<g>
	<path class="st6" d="M-3876.6,1531.8c-0.1-0.3-0.1-0.5-0.1-0.7c0.1-1,1.1-1.7,2.1-1.6c10,0.5,20.5-0.7,30.9-3.6
		c8.4-2.4,16.8-5.7,25.1-10.1c14-7.5,22.8-15.3,22.9-15.4c0.8-0.7,2-0.7,2.7-0.1s0.6,1.8-0.1,2.4c-0.4,0.4-9.2,8.2-23.7,15.9
		c-8.5,4.5-17.3,8.1-25.9,10.5c-10.9,3-21.7,4.3-32.1,3.7C-3875.8,1532.8-3876.4,1532.4-3876.6,1531.8z"/>
	<path class="st7" d="M-3791.1,1519.4c0.8-0.4,1.2-1.2,1.1-2c-0.1-0.3-1.4-6.5-6.5-8.6c-2.4-1-4.7-1.2-6.6-0.7
		c-1.9,0.5-3.4,1.7-4.3,3.4c-0.8,1.5-0.9,3.1-0.5,4.5c0.1,0.2,0.2,0.4,0.3,0.6c0.8,1.6,2.4,3,4.9,3.9
		C-3797.7,1522.8-3791.4,1519.6-3791.1,1519.4z"/>
	<path class="st8" d="M-3802.7,1510c1.4-1.4,2.3-3.3,2.6-5.9c0.6-5.3-4.3-9.5-4.5-9.7c-0.6-0.5-1.5-0.5-2.4-0.1
		c-0.3,0.2-6.2,4-6.9,9.1c-0.2,1.8-0.1,3.3,0.4,4.6c0.2,0.5,0.5,1,0.7,1.4c1.1,1.4,2.7,2.4,4.7,2.4
		C-3806,1512.1-3804.1,1511.4-3802.7,1510z"/>
	<path class="st8" d="M-3806.3,1528.1c0.8-0.4,1.2-1.2,1.1-2c-0.1-0.3-1.4-6.5-6.5-8.6c-2.4-1-4.7-1.2-6.6-0.7
		c-1.9,0.5-3.4,1.7-4.3,3.4c-0.8,1.5-0.9,3.1-0.5,4.5c0.1,0.2,0.2,0.4,0.3,0.6c0.8,1.6,2.4,3,4.9,3.9
		C-3812.9,1531.4-3806.6,1528.3-3806.3,1528.1z"/>
	<path class="st7" d="M-3817.9,1518.8c1.4-1.4,2.3-3.3,2.6-5.9c0.6-5.3-4.3-9.5-4.5-9.7c-0.6-0.5-1.5-0.5-2.4-0.1
		c-0.3,0.2-6.2,4-6.9,9.1c-0.2,1.8-0.1,3.3,0.4,4.6c0.2,0.5,0.5,1,0.7,1.4c1.1,1.4,2.7,2.4,4.7,2.4
		C-3821.2,1520.8-3819.3,1520.3-3817.9,1518.8z"/>
	<path class="st7" d="M-3824.3,1534.8c0-0.3-0.2-6.8-4.7-9.6c-2.2-1.4-4.3-2-6.3-1.8s-3.7,1.2-4.9,2.7s-1.6,3.3-1.1,5.1
		c0,0.2,0.1,0.3,0.1,0.5c0.5,1.6,1.9,3.1,3.9,4.3c4.5,2.9,11.3,0.8,11.7,0.7C-3824.9,1536.4-3824.3,1535.6-3824.3,1534.8z"/>
	<g>
		<path class="st8" d="M-3835.2,1525.4c1.6-1.2,2.9-3,3.7-5.4c1.6-5.2-2.4-10.1-2.5-10.4c-0.5-0.6-1.4-0.8-2.3-0.5
			c-0.3,0.1-6.8,2.9-8.4,8.1c-0.7,2.3-0.8,4.3-0.2,5.8c0.1,0.1,0.1,0.3,0.2,0.4c0.7,1.6,2.2,2.7,4.2,3.2
			C-3838.7,1526.9-3836.8,1526.5-3835.2,1525.4z"/>
		<path class="st8" d="M-3845.4,1542.3c0.1-0.3,1.2-6.8-2.7-10.3c-1.8-1.7-3.8-2.7-5.8-2.8c-1.9-0.2-3.8,0.5-5.3,1.9
			c-1.4,1.4-2.3,3.1-2.1,4.9c0,0.5,0.2,1.1,0.4,1.6c0.5,1.3,1.4,2.5,2.6,3.7c3.9,3.6,10.9,2.6,11.1,2.6
			C-3846.3,1543.8-3845.6,1543-3845.4,1542.3z"/>
		<path class="st8" d="M-3854.2,1531c1.8-0.9,3.3-2.4,4.6-4.8c2.6-4.8-0.4-10.5-0.5-10.8c-0.4-0.7-1.3-1.1-2.1-0.8
			c-0.3,0.1-7.2,1.7-9.8,6.6c-1.3,2.4-1.6,4.4-1.3,6.2c0.1,0.2,0.1,0.5,0.2,0.6c0.5,1.4,1.6,2.5,3.3,3.2
			C-3857.9,1531.9-3856,1531.8-3854.2,1531z"/>
		<path class="st8" d="M-3784,1500.9c4.2-3.8,3.5-10.2,3.5-10.5c-0.1-0.8-0.7-1.4-1.6-1.4c-0.3,0-7.2-0.5-11.4,3.3
			c-2,1.8-3.2,3.7-3.4,5.5c-0.2,0.9-0.1,1.8,0.3,2.6c0.3,0.8,0.8,1.5,1.4,2.2c1.4,1.3,3.3,1.8,5.2,1.5
			C-3788,1503.8-3786,1502.8-3784,1500.9z"/>
	</g>
</g>
<path class="st9" d="M-3892.2,1374.5c1.4,1.8,1.8,4.3,1.3,6.4c-3.1,12.1-4.6,24.6-4.5,37.1c0.1,24.5,12.1,52.3,33,76.4
	c20.8,24,47.3,40.7,72.7,46.1c3.4,0.7,5.8,3.9,5.8,7.4h21.8c0-3.3-2.1-6.2-5.1-7.2c-0.2-0.1-0.5-0.1-0.6-0.2
	c-25.3-5.3-51.9-22-72.7-46.1s-32.9-52-33-76.4c0-12.6,1.5-25.1,4.5-37.1c0.5-2.3,0.1-4.6-1.3-6.4c-1.4-1.8-3.4-2.9-5.6-2.9h-3.3
	c-3.6,0-7.2,0.2-10.7,0.5c-0.2,0-0.3,0-0.5,0c-0.5,0-1,0.1-1.4,0.1c-0.9,0.1-1.7,0.2-2.6,0.3
	C-3893.7,1372.9-3892.9,1373.8-3892.2,1374.5z"/>
<path class="st10" d="M-3789.9,1539c-25.4-5.3-51.9-22-72.7-46.1s-32.9-52-33-76.4c-0.1-12.5,1.4-25,4.5-37.1
	c0.5-2.2,0.1-4.6-1.3-6.4c-0.6-0.8-1.4-1.5-2.4-2c0.9-0.1,1.7-0.2,2.6-0.3c-34.8,3.2-67.1,18.9-92.2,45.1
	c-27.9,29.4-43.3,68.1-43.1,109.3l0.1,21.5h243.1C-3784,1542.9-3786.5,1539.8-3789.9,1539z"/>
<path class="st2" d="M-3739.4,1229.6c-0.1,0-0.1,0-0.2,0c-25.4,0.1-46.1,20.8-46,46.3c0,12.3,4.9,23.9,13.6,32.6
	s20.3,13.4,32.5,13.4h0.2c25.4-0.1,46.1-20.8,46-46.3C-3693.4,1250.3-3714.1,1229.6-3739.4,1229.6z"/>
<path class="st2" d="M-3743,1212.8c-0.1-22.5-16.7-40.7-36.9-40.7h-135.4c-9.9,0-19.2,4.3-26.2,12c-7,7.8-10.8,18-10.8,29l0.2,79.5
	c0.2,63.7,47.1,115.4,104.7,115.4h0.4c57.7-0.2,104.5-52.2,104.3-116.1L-3743,1212.8z"/>
<path class="st11" d="M-3742.9,1212.8c-0.1-22.5-15.6-40.7-34.6-40.7h-16.9c19,0,34.6,18.3,34.6,40.7l0.2,79
	c0.2,60.6-39.4,110.5-89.6,115.7c2.8,0.3,5.6,0.5,8.4,0.5h0.3c54-0.2,97.9-52.2,97.8-116.1L-3742.9,1212.8z"/>
<ellipse transform="matrix(0.9333 -0.3592 0.3592 0.9333 -713.0281 -1345.8838)" class="st1" cx="-3978.5" cy="1245.9" rx="28.2" ry="41.5"/>
<ellipse transform="matrix(0.9333 -0.3592 0.3592 0.9333 -711.9018 -1348.0254)" class="st0" cx="-3983.7" cy="1241.8" rx="28.2" ry="41.5"/>
<path class="st3" d="M-3847.7,1361.1c-8.9,0-17.4-3.3-23.9-9.3c-2.8-2.5-3-6.9-0.5-9.6c2.5-2.8,6.9-3,9.6-0.5
	c4,3.7,9.2,5.7,14.7,5.7h0.1c5.5,0,10.7-2.1,14.8-5.8c2.8-2.5,7.1-2.4,9.6,0.4s2.4,7.1-0.4,9.6
	C-3830.2,1357.6-3838.7,1361-3847.7,1361.1C-3847.6,1361.1-3847.6,1361.1-3847.7,1361.1z"/>
<path class="st0" d="M-3888.3,1250c8.9,0,17.4,1.6,23.9,4.6c2.8,1.3,3,3.4,0.5,4.8s-6.9,1.4-9.6,0.2c-4-1.8-9.2-2.9-14.7-2.9h-0.1
	c-5.5,0-10.7,1-14.8,2.9c-2.8,1.3-7.1,1.2-9.6-0.2s-2.4-3.5,0.4-4.8C-3905.8,1251.6-3897.3,1249.9-3888.3,1250
	C-3888.4,1250-3888.3,1250-3888.3,1250z"/>
<ellipse class="st1" cx="-3952.6" cy="1203.8" rx="46.2" ry="37.8"/>
<path class="st0" d="M-3803.5,1250c8.9,0,17.4,1.6,23.9,4.6c2.8,1.3,3,3.4,0.5,4.8s-6.9,1.4-9.6,0.2c-4-1.8-9.2-2.9-14.7-2.9h-0.1
	c-5.5,0-10.7,1-14.8,2.9c-2.8,1.3-7.1,1.2-9.6-0.2c-2.5-1.4-2.4-3.5,0.4-4.8C-3821,1251.6-3812.5,1249.9-3803.5,1250L-3803.5,1250z"
	/>
<path class="st12" d="M-3876,1285.5c0-6.3-5.2-11.4-11.5-11.4s-11.4,5.2-11.4,11.5s5.2,11.4,11.5,11.4S-3876,1291.8-3876,1285.5z"/>
<path class="st12" d="M-3795,1285.3c0-6.3-5.2-11.5-11.5-11.4c-6.3,0-11.5,5.2-11.4,11.5c0,6.3,5.2,11.5,11.5,11.4
	C-3800.2,1296.8-3795,1291.6-3795,1285.3z"/>
<ellipse transform="matrix(0.3592 -0.9333 0.9333 0.3592 -3552.3967 -2681.5757)" class="st1" cx="-3728.9" cy="1246" rx="41.5" ry="28.2"/>
<ellipse transform="matrix(0.3592 -0.9333 0.9333 0.3592 -3544.137 -2683.6912)" class="st0" cx="-3726.3" cy="1239" rx="41.5" ry="28.2"/>
<ellipse class="st1" cx="-3748.8" cy="1197.6" rx="46.2" ry="37.8"/>
<ellipse class="st0" cx="-3750.7" cy="1180.1" rx="47.3" ry="47.3"/>
<ellipse class="st1" cx="-3772.4" cy="1172" rx="46.2" ry="37.8"/>
<ellipse class="st0" cx="-3772.4" cy="1164.8" rx="45.4" ry="32.9"/>
<ellipse class="st0" cx="-3957.1" cy="1191.1" rx="44.4" ry="44.4"/>
<ellipse class="st1" cx="-3924.1" cy="1166.3" rx="46.2" ry="37.8"/>
<ellipse class="st1" cx="-3852.8" cy="1150.8" rx="71.3" ry="54.3"/>
<ellipse class="st0" cx="-3846.7" cy="1138.4" rx="74.3" ry="53.6"/>
<ellipse class="st0" cx="-3924.1" cy="1159.1" rx="45.4" ry="32.9"/>
<g>
	<path class="st6" d="M-3786.8,1489.6c-0.2-0.1-0.4-0.3-0.5-0.5c-0.5-0.8-0.3-2,0.5-2.6c7.9-6.2,14.9-13.9,20.9-22.9
		c4.8-7.2,9-15.3,12.3-24.1c5.7-14.8,7.2-26.5,7.2-26.6c0.1-1,1-1.8,2-1.8s1.6,0.9,1.5,2c-0.1,0.5-1.5,12.2-7.4,27.6
		c-3.4,9.1-7.8,17.4-12.7,24.9c-6.2,9.4-13.6,17.5-21.8,23.9C-3785.4,1489.9-3786.1,1489.9-3786.8,1489.6z"/>
	<path class="st7" d="M-3730.3,1424.3c0.4-0.8,0.1-1.7-0.5-2.2c-0.2-0.2-5.4-4-10.6-2.2c-2.4,0.8-4.3,2.2-5.4,3.8s-1.5,3.5-1.1,5.4
		c0.4,1.6,1.4,3,2.6,3.7c0.2,0.1,0.4,0.2,0.6,0.3c1.7,0.7,3.8,0.6,6.3-0.3C-3733.2,1431.1-3730.4,1424.6-3730.3,1424.3z"/>
	<path class="st8" d="M-3745.1,1424.8c0.2-2-0.5-4.1-1.9-6.2c-3-4.3-9.5-4.3-9.8-4.3c-0.8,0-1.5,0.6-1.8,1.4
		c-0.1,0.3-2.1,7.1,0.8,11.4c1,1.4,2.1,2.5,3.3,3.2c0.5,0.3,1,0.5,1.5,0.6c1.7,0.5,3.6,0,5.2-1.3
		C-3746.3,1428.4-3745.3,1426.8-3745.1,1424.8z"/>
	<path class="st8" d="M-3736,1440.8c0.4-0.8,0.1-1.7-0.5-2.2c-0.2-0.2-5.4-4-10.6-2.2c-2.4,0.8-4.3,2.2-5.4,3.8s-1.5,3.5-1.1,5.4
		c0.4,1.6,1.4,3,2.6,3.7c0.2,0.1,0.4,0.2,0.6,0.3c1.7,0.7,3.8,0.6,6.3-0.3C-3738.9,1447.6-3736.1,1441.1-3736,1440.8z"/>
	<path class="st7" d="M-3750.9,1441.3c0.2-2-0.5-4.1-1.9-6.2c-3-4.3-9.5-4.3-9.8-4.3c-0.8,0-1.5,0.6-1.8,1.4
		c-0.1,0.3-2.1,7.1,0.8,11.4c1,1.4,2.1,2.5,3.3,3.2c0.5,0.3,1,0.5,1.5,0.6c1.7,0.5,3.6,0,5.2-1.3
		C-3752.1,1444.9-3751.1,1443.3-3750.9,1441.3z"/>
	<path class="st7" d="M-3745.2,1457.8c-0.2-0.2-4.5-5-9.9-4.2c-2.5,0.4-4.5,1.4-6,2.8c-1.4,1.4-2.1,3.3-2,5.3s1,3.6,2.4,4.6
		c0.1,0.1,0.3,0.2,0.4,0.2c1.4,0.8,3.4,1.1,5.8,0.7c5.3-0.8,9.1-6.9,9.2-7.1C-3744.7,1459.3-3744.7,1458.3-3745.2,1457.8z"/>
	<g>
		<path class="st8" d="M-3759.6,1457.8c0.5-2,0.3-4.2-0.8-6.5c-2.1-5-8.5-6.2-8.8-6.2c-0.8-0.2-1.6,0.3-2,1.1
			c-0.1,0.3-3.3,6.7-1.1,11.6c0.9,2.2,2.2,3.7,3.6,4.5c0.1,0.1,0.3,0.1,0.4,0.2c1.6,0.7,3.4,0.6,5.2-0.3
			C-3761.3,1461.1-3760.1,1459.6-3759.6,1457.8z"/>
		<path class="st8" d="M-3756.3,1477.3c-0.2-0.3-3.5-5.9-8.9-6.1c-2.5-0.1-4.6,0.5-6.2,1.6c-1.5,1.2-2.5,2.9-2.8,4.9
			s0.4,3.8,1.6,5.1c0.4,0.4,0.8,0.7,1.4,1c1.2,0.6,2.6,1,4.4,1.1c5.3,0.2,10-5.2,10.1-5.3C-3756.1,1478.8-3756,1477.8-3756.3,1477.3
			z"/>
		<path class="st8" d="M-3770.3,1474.3c0.8-1.8,0.9-4.1,0.4-6.7c-1.2-5.3-7.2-7.7-7.4-7.8c-0.7-0.3-1.6,0-2.1,0.7
			c-0.2,0.3-4.3,6.1-3.1,11.4c0.5,2.5,1.6,4.4,3.1,5.5c0.2,0.1,0.4,0.3,0.5,0.4c1.4,0.7,2.9,0.8,4.5,0.3
			C-3772.5,1477.5-3771.1,1476.3-3770.3,1474.3z"/>
		<path class="st8" d="M-3737.1,1405.6c0.6-5.6-4.1-10-4.3-10.2c-0.5-0.5-1.4-0.5-2.2-0.1c-0.3,0.2-5.9,4.3-6.4,10
			c-0.3,2.7,0.1,4.9,1.1,6.4c0.5,0.8,1.2,1.4,1.9,1.8c0.7,0.5,1.6,0.6,2.5,0.6c1.9,0.1,3.6-0.7,4.9-2.2
			C-3738.2,1410.4-3737.4,1408.3-3737.1,1405.6z"/>
	</g>
</g>
<circle class="st13" cx="-3788.3" cy="1488.1" r="15.7"/>
<circle class="st14" cx="-3788.6" cy="1487.9" r="9.6"/>
<path class="st0" d="M-3740,1109.3c-28.6-18.6-66.5-28.7-106.7-28.7s-78,10.2-106.7,28.7c-28.6,18.6-44.4,43.1-44.4,69.1v139.8
	c0,2.4,3.1,4.4,6.8,4.4h288.3c3.8,0,6.8-2,6.8-4.4v-139.8C-3695.8,1152.3-3711.5,1127.8-3740,1109.3z"/>
<ellipse class="st1" cx="-3961.4" cy="1319.5" rx="38.9" ry="33.2"/>
<ellipse class="st1" cx="-3732.2" cy="1318.6" rx="38.9" ry="33.2"/>
<path class="st2" d="M-3958.4,1230.4c-0.1,0-0.1,0-0.2,0c-25.4,0.1-46.1,20.8-46,46.3c0,12.3,4.9,23.9,13.6,32.6
	s20.3,13.4,32.5,13.4h0.2c25.4-0.1,46.1-20.8,46-46.3S-3933.1,1230.4-3958.4,1230.4z"/>
<path class="st2" d="M-3676.3,1517.4c-0.1-39.6-15.8-76.9-44-104.9s-65.4-43.4-104.7-43.4c-0.2,0-0.3,0-0.5,0l-48.7,0.2
	c-39.6,0.1-76.9,15.8-104.9,44c-28.1,28.2-43.5,65.6-43.4,105.2l0.1,18.6c0,3.7,3.1,6.8,6.8,6.8h332.5c1.8,0,3.5-0.7,4.8-2
	s2-3,2-4.8L-3676.3,1517.4z"/>
<path class="st3" d="M-3676.3,1517.4c-0.1-39.6-15.8-76.9-44-104.9s-65.4-43.4-104.7-43.4c-0.2,0-0.3,0-0.5,0l-16.7,0.1
	c37.9,1,73.7,16.2,100.9,43.3c28.2,28.1,43.9,65.4,44,104.9l0.1,19.6c0,1.8-0.7,3.5-2,4.8s-3,2-4.8,2h20.9c1.8,0,3.5-0.7,4.8-2
	s2-3,2-4.8V1517.4z"/>
<g>
	<g>
		<path id="XMLID_1_" class="st4" d="M-3676.4,1520.3c-0.1-39.3-15.8-76.3-44-104.2c-8.4-8.3-17.7-15.5-27.5-21.5
			c-7,27.3-36.5,49.3-75,56.3c-8.6,1.6-17.6,2.4-26.9,2.4c-9.2,0-18.1-0.8-26.7-2.4c-38.3-7-67.9-28.8-75.1-55.9
			c-10,6.1-19.1,13.4-27.6,21.8c-28.1,28.1-43.5,65.2-43.4,104.5l0.1,21.3c0.1,2.4,1.4,4.6,3.3,5.9h337.3c1.3-0.3,2.4-1,3.4-1.9
			c1.4-1.4,2.1-3.2,2.1-5.1L-3676.4,1520.3z"/>
	</g>
	<g>
		<g>
			<g>
				<g>
					<g>
						<g>
							<defs>
								<path id="SVGID_3_" d="M-3676.4,1520.3c-0.1-39.3-15.8-76.3-44-104.2c-8.4-8.3-17.7-15.5-27.5-21.5
									c-7,27.3-36.5,49.3-75,56.3c-8.6,1.6-17.6,2.4-26.9,2.4c-9.2,0-18.1-0.8-26.7-2.4c-38.3-7-67.9-28.8-75.1-55.9
									c-10,6.1-19.1,13.4-27.6,21.8c-28.1,28.1-43.5,65.2-43.4,104.5l0.1,21.3c0.1,2.4,1.4,4.6,3.3,5.9h337.3
									c1.3-0.3,2.4-1,3.4-1.9c1.4-1.4,2.1-3.2,2.1-5.1L-3676.4,1520.3z"/>
							</defs>
							<clipPath id="SVGID_4_">
								<use xlink:href="#SVGID_3_"  style="overflow:visible;"/>
							</clipPath>
							<path class="st15" d="M-3675.4,1520.8c-0.1-39.3-15.8-76.3-44-104.2c-28.2-27.8-65.4-43.1-104.7-43.1c-0.2,0-0.3,0-0.5,0
								l-17.6,0.1c37.9,1,73.6,16.1,100.9,43c28.2,27.9,43.8,64.9,44,104.2l0.1,21.3c0,1.9-0.7,3.7-2.1,5.1
								c-0.9,0.9-2.1,1.6-3.4,1.9h22c1.3-0.3,2.4-1,3.4-1.9c1.4-1.4,2.1-3.2,2.1-5.1L-3675.4,1520.8z"/>
						</g>
					</g>
				</g>
			</g>
		</g>
	</g>
</g>
<g>
	<path class="st6" d="M-3876.6,1531.8c-0.1-0.3-0.1-0.5-0.1-0.7c0.1-1,1.1-1.7,2.1-1.6c10,0.5,20.5-0.7,30.9-3.6
		c8.4-2.4,16.8-5.7,25.1-10.1c14-7.5,22.8-15.3,22.9-15.4c0.8-0.7,2-0.7,2.7-0.1s0.6,1.8-0.1,2.4c-0.4,0.4-9.2,8.2-23.7,15.9
		c-8.5,4.5-17.3,8.1-25.9,10.5c-10.9,3-21.7,4.3-32.1,3.7C-3875.8,1532.8-3876.4,1532.4-3876.6,1531.8z"/>
	<path class="st7" d="M-3791.1,1519.4c0.8-0.4,1.2-1.2,1.1-2c-0.1-0.3-1.4-6.5-6.5-8.6c-2.4-1-4.7-1.2-6.6-0.7
		c-1.9,0.5-3.4,1.7-4.3,3.4c-0.8,1.5-0.9,3.1-0.5,4.5c0.1,0.2,0.2,0.4,0.3,0.6c0.8,1.6,2.4,3,4.9,3.9
		C-3797.7,1522.8-3791.4,1519.6-3791.1,1519.4z"/>
	<path class="st8" d="M-3802.7,1510c1.4-1.4,2.3-3.3,2.6-5.9c0.6-5.3-4.3-9.5-4.5-9.7c-0.6-0.5-1.5-0.5-2.4-0.1
		c-0.3,0.2-6.2,4-6.9,9.1c-0.2,1.8-0.1,3.3,0.4,4.6c0.2,0.5,0.5,1,0.7,1.4c1.1,1.4,2.7,2.4,4.7,2.4
		C-3806,1512.1-3804.1,1511.4-3802.7,1510z"/>
	<path class="st8" d="M-3806.3,1528.1c0.8-0.4,1.2-1.2,1.1-2c-0.1-0.3-1.4-6.5-6.5-8.6c-2.4-1-4.7-1.2-6.6-0.7
		c-1.9,0.5-3.4,1.7-4.3,3.4c-0.8,1.5-0.9,3.1-0.5,4.5c0.1,0.2,0.2,0.4,0.3,0.6c0.8,1.6,2.4,3,4.9,3.9
		C-3812.9,1531.4-3806.6,1528.3-3806.3,1528.1z"/>
	<path class="st7" d="M-3817.9,1518.8c1.4-1.4,2.3-3.3,2.6-5.9c0.6-5.3-4.3-9.5-4.5-9.7c-0.6-0.5-1.5-0.5-2.4-0.1
		c-0.3,0.2-6.2,4-6.9,9.1c-0.2,1.8-0.1,3.3,0.4,4.6c0.2,0.5,0.5,1,0.7,1.4c1.1,1.4,2.7,2.4,4.7,2.4
		C-3821.2,1520.8-3819.3,1520.3-3817.9,1518.8z"/>
	<path class="st7" d="M-3824.3,1534.8c0-0.3-0.2-6.8-4.7-9.6c-2.2-1.4-4.3-2-6.3-1.8s-3.7,1.2-4.9,2.7s-1.6,3.3-1.1,5.1
		c0,0.2,0.1,0.3,0.1,0.5c0.5,1.6,1.9,3.1,3.9,4.3c4.5,2.9,11.3,0.8,11.7,0.7C-3824.9,1536.4-3824.3,1535.6-3824.3,1534.8z"/>
	<g>
		<path class="st8" d="M-3835.2,1525.4c1.6-1.2,2.9-3,3.7-5.4c1.6-5.2-2.4-10.1-2.5-10.4c-0.5-0.6-1.4-0.8-2.3-0.5
			c-0.3,0.1-6.8,2.9-8.4,8.1c-0.7,2.3-0.8,4.3-0.2,5.8c0.1,0.1,0.1,0.3,0.2,0.4c0.7,1.6,2.2,2.7,4.2,3.2
			C-3838.7,1526.9-3836.8,1526.5-3835.2,1525.4z"/>
		<path class="st8" d="M-3845.4,1542.3c0.1-0.3,1.2-6.8-2.7-10.3c-1.8-1.7-3.8-2.7-5.8-2.8c-1.9-0.2-3.8,0.5-5.3,1.9
			c-1.4,1.4-2.3,3.1-2.1,4.9c0,0.5,0.2,1.1,0.4,1.6c0.5,1.3,1.4,2.5,2.6,3.7c3.9,3.6,10.9,2.6,11.1,2.6
			C-3846.3,1543.8-3845.6,1543-3845.4,1542.3z"/>
		<path class="st8" d="M-3854.2,1531c1.8-0.9,3.3-2.4,4.6-4.8c2.6-4.8-0.4-10.5-0.5-10.8c-0.4-0.7-1.3-1.1-2.1-0.8
			c-0.3,0.1-7.2,1.7-9.8,6.6c-1.3,2.4-1.6,4.4-1.3,6.2c0.1,0.2,0.1,0.5,0.2,0.6c0.5,1.4,1.6,2.5,3.3,3.2
			C-3857.9,1531.9-3856,1531.8-3854.2,1531z"/>
		<path class="st8" d="M-3784,1500.9c4.2-3.8,3.5-10.2,3.5-10.5c-0.1-0.8-0.7-1.4-1.6-1.4c-0.3,0-7.2-0.5-11.4,3.3
			c-2,1.8-3.2,3.7-3.4,5.5c-0.2,0.9-0.1,1.8,0.3,2.6c0.3,0.8,0.8,1.5,1.4,2.2c1.4,1.3,3.3,1.8,5.2,1.5
			C-3788,1503.8-3786,1502.8-3784,1500.9z"/>
	</g>
</g>
<path class="st9" d="M-3892.2,1374.5c1.4,1.8,1.8,4.3,1.3,6.4c-3.1,12.1-4.6,24.6-4.5,37.1c0.1,24.5,12.1,52.3,33,76.4
	c20.8,24,47.3,40.7,72.7,46.1c3.4,0.7,5.8,3.9,5.8,7.4h21.8c0-3.3-2.1-6.2-5.1-7.2c-0.2-0.1-0.5-0.1-0.6-0.2
	c-25.3-5.3-51.9-22-72.7-46.1s-32.9-52-33-76.4c0-12.6,1.5-25.1,4.5-37.1c0.5-2.3,0.1-4.6-1.3-6.4c-1.4-1.8-3.4-2.9-5.6-2.9h-3.3
	c-3.6,0-7.2,0.2-10.7,0.5c-0.2,0-0.3,0-0.5,0c-0.5,0-1,0.1-1.4,0.1c-0.9,0.1-1.7,0.2-2.6,0.3
	C-3893.7,1372.9-3892.9,1373.8-3892.2,1374.5z"/>
<path class="st10" d="M-3789.9,1539c-25.4-5.3-51.9-22-72.7-46.1s-32.9-52-33-76.4c-0.1-12.5,1.4-25,4.5-37.1
	c0.5-2.2,0.1-4.6-1.3-6.4c-0.6-0.8-1.4-1.5-2.4-2c0.9-0.1,1.7-0.2,2.6-0.3c-34.8,3.2-67.1,18.9-92.2,45.1
	c-27.9,29.4-43.3,68.1-43.1,109.3l0.1,21.5h243.1C-3784,1542.9-3786.5,1539.8-3789.9,1539z"/>
<path class="st2" d="M-3739.4,1229.6c-0.1,0-0.1,0-0.2,0c-25.4,0.1-46.1,20.8-46,46.3c0,12.3,4.9,23.9,13.6,32.6
	s20.3,13.4,32.5,13.4h0.2c25.4-0.1,46.1-20.8,46-46.3C-3693.4,1250.3-3714.1,1229.6-3739.4,1229.6z"/>
<path class="st2" d="M-3743,1212.8c-0.1-22.5-16.7-40.7-36.9-40.7h-135.4c-9.9,0-19.2,4.3-26.2,12c-7,7.8-10.8,18-10.8,29l0.2,79.5
	c0.2,63.7,47.1,115.4,104.7,115.4h0.4c57.7-0.2,104.5-52.2,104.3-116.1L-3743,1212.8z"/>
<path class="st11" d="M-3742.9,1212.8c-0.1-22.5-15.6-40.7-34.6-40.7h-16.9c19,0,34.6,18.3,34.6,40.7l0.2,79
	c0.2,60.6-39.4,110.5-89.6,115.7c2.8,0.3,5.6,0.5,8.4,0.5h0.3c54-0.2,97.9-52.2,97.8-116.1L-3742.9,1212.8z"/>
<ellipse transform="matrix(0.9333 -0.3592 0.3592 0.9333 -713.0281 -1345.8838)" class="st1" cx="-3978.5" cy="1245.9" rx="28.2" ry="41.5"/>
<ellipse transform="matrix(0.9333 -0.3592 0.3592 0.9333 -711.9018 -1348.0254)" class="st0" cx="-3983.7" cy="1241.8" rx="28.2" ry="41.5"/>
<path class="st3" d="M-3847.7,1361.1c-8.9,0-17.4-3.3-23.9-9.3c-2.8-2.5-3-6.9-0.5-9.6c2.5-2.8,6.9-3,9.6-0.5
	c4,3.7,9.2,5.7,14.7,5.7h0.1c5.5,0,10.7-2.1,14.8-5.8c2.8-2.5,7.1-2.4,9.6,0.4s2.4,7.1-0.4,9.6
	C-3830.2,1357.6-3838.7,1361-3847.7,1361.1C-3847.6,1361.1-3847.6,1361.1-3847.7,1361.1z"/>
<path class="st0" d="M-3888.3,1250c8.9,0,17.4,1.6,23.9,4.6c2.8,1.3,3,3.4,0.5,4.8s-6.9,1.4-9.6,0.2c-4-1.8-9.2-2.9-14.7-2.9h-0.1
	c-5.5,0-10.7,1-14.8,2.9c-2.8,1.3-7.1,1.2-9.6-0.2s-2.4-3.5,0.4-4.8C-3905.8,1251.6-3897.3,1249.9-3888.3,1250
	C-3888.4,1250-3888.3,1250-3888.3,1250z"/>
<ellipse class="st1" cx="-3952.6" cy="1203.8" rx="46.2" ry="37.8"/>
<path class="st0" d="M-3803.5,1250c8.9,0,17.4,1.6,23.9,4.6c2.8,1.3,3,3.4,0.5,4.8s-6.9,1.4-9.6,0.2c-4-1.8-9.2-2.9-14.7-2.9h-0.1
	c-5.5,0-10.7,1-14.8,2.9c-2.8,1.3-7.1,1.2-9.6-0.2c-2.5-1.4-2.4-3.5,0.4-4.8C-3821,1251.6-3812.5,1249.9-3803.5,1250L-3803.5,1250z"
	/>
<path class="st12" d="M-3876,1285.5c0-6.3-5.2-11.4-11.5-11.4s-11.4,5.2-11.4,11.5s5.2,11.4,11.5,11.4S-3876,1291.8-3876,1285.5z"/>
<path class="st12" d="M-3795,1285.3c0-6.3-5.2-11.5-11.5-11.4c-6.3,0-11.5,5.2-11.4,11.5c0,6.3,5.2,11.5,11.5,11.4
	C-3800.2,1296.8-3795,1291.6-3795,1285.3z"/>
<ellipse transform="matrix(0.3592 -0.9333 0.9333 0.3592 -3552.3967 -2681.5757)" class="st1" cx="-3728.9" cy="1246" rx="41.5" ry="28.2"/>
<ellipse transform="matrix(0.3592 -0.9333 0.9333 0.3592 -3544.137 -2683.6912)" class="st0" cx="-3726.3" cy="1239" rx="41.5" ry="28.2"/>
<ellipse class="st1" cx="-3748.8" cy="1197.6" rx="46.2" ry="37.8"/>
<ellipse class="st0" cx="-3750.7" cy="1180.1" rx="47.3" ry="47.3"/>
<ellipse class="st1" cx="-3772.4" cy="1172" rx="46.2" ry="37.8"/>
<ellipse class="st0" cx="-3772.4" cy="1164.8" rx="45.4" ry="32.9"/>
<ellipse class="st0" cx="-3957.1" cy="1191.1" rx="44.4" ry="44.4"/>
<ellipse class="st1" cx="-3924.1" cy="1166.3" rx="46.2" ry="37.8"/>
<ellipse class="st1" cx="-3852.8" cy="1150.8" rx="71.3" ry="54.3"/>
<ellipse class="st0" cx="-3846.7" cy="1138.4" rx="74.3" ry="53.6"/>
<ellipse class="st0" cx="-3924.1" cy="1159.1" rx="45.4" ry="32.9"/>
<g>
	<path class="st6" d="M-3786.8,1489.6c-0.2-0.1-0.4-0.3-0.5-0.5c-0.5-0.8-0.3-2,0.5-2.6c7.9-6.2,14.9-13.9,20.9-22.9
		c4.8-7.2,9-15.3,12.3-24.1c5.7-14.8,7.2-26.5,7.2-26.6c0.1-1,1-1.8,2-1.8s1.6,0.9,1.5,2c-0.1,0.5-1.5,12.2-7.4,27.6
		c-3.4,9.1-7.8,17.4-12.7,24.9c-6.2,9.4-13.6,17.5-21.8,23.9C-3785.4,1489.9-3786.1,1489.9-3786.8,1489.6z"/>
	<path class="st7" d="M-3730.3,1424.3c0.4-0.8,0.1-1.7-0.5-2.2c-0.2-0.2-5.4-4-10.6-2.2c-2.4,0.8-4.3,2.2-5.4,3.8s-1.5,3.5-1.1,5.4
		c0.4,1.6,1.4,3,2.6,3.7c0.2,0.1,0.4,0.2,0.6,0.3c1.7,0.7,3.8,0.6,6.3-0.3C-3733.2,1431.1-3730.4,1424.6-3730.3,1424.3z"/>
	<path class="st8" d="M-3745.1,1424.8c0.2-2-0.5-4.1-1.9-6.2c-3-4.3-9.5-4.3-9.8-4.3c-0.8,0-1.5,0.6-1.8,1.4
		c-0.1,0.3-2.1,7.1,0.8,11.4c1,1.4,2.1,2.5,3.3,3.2c0.5,0.3,1,0.5,1.5,0.6c1.7,0.5,3.6,0,5.2-1.3
		C-3746.3,1428.4-3745.3,1426.8-3745.1,1424.8z"/>
	<path class="st8" d="M-3736,1440.8c0.4-0.8,0.1-1.7-0.5-2.2c-0.2-0.2-5.4-4-10.6-2.2c-2.4,0.8-4.3,2.2-5.4,3.8s-1.5,3.5-1.1,5.4
		c0.4,1.6,1.4,3,2.6,3.7c0.2,0.1,0.4,0.2,0.6,0.3c1.7,0.7,3.8,0.6,6.3-0.3C-3738.9,1447.6-3736.1,1441.1-3736,1440.8z"/>
	<path class="st7" d="M-3750.9,1441.3c0.2-2-0.5-4.1-1.9-6.2c-3-4.3-9.5-4.3-9.8-4.3c-0.8,0-1.5,0.6-1.8,1.4
		c-0.1,0.3-2.1,7.1,0.8,11.4c1,1.4,2.1,2.5,3.3,3.2c0.5,0.3,1,0.5,1.5,0.6c1.7,0.5,3.6,0,5.2-1.3
		C-3752.1,1444.9-3751.1,1443.3-3750.9,1441.3z"/>
	<path class="st7" d="M-3745.2,1457.8c-0.2-0.2-4.5-5-9.9-4.2c-2.5,0.4-4.5,1.4-6,2.8c-1.4,1.4-2.1,3.3-2,5.3s1,3.6,2.4,4.6
		c0.1,0.1,0.3,0.2,0.4,0.2c1.4,0.8,3.4,1.1,5.8,0.7c5.3-0.8,9.1-6.9,9.2-7.1C-3744.7,1459.3-3744.7,1458.3-3745.2,1457.8z"/>
	<g>
		<path class="st8" d="M-3759.6,1457.8c0.5-2,0.3-4.2-0.8-6.5c-2.1-5-8.5-6.2-8.8-6.2c-0.8-0.2-1.6,0.3-2,1.1
			c-0.1,0.3-3.3,6.7-1.1,11.6c0.9,2.2,2.2,3.7,3.6,4.5c0.1,0.1,0.3,0.1,0.4,0.2c1.6,0.7,3.4,0.6,5.2-0.3
			C-3761.3,1461.1-3760.1,1459.6-3759.6,1457.8z"/>
		<path class="st8" d="M-3756.3,1477.3c-0.2-0.3-3.5-5.9-8.9-6.1c-2.5-0.1-4.6,0.5-6.2,1.6c-1.5,1.2-2.5,2.9-2.8,4.9
			s0.4,3.8,1.6,5.1c0.4,0.4,0.8,0.7,1.4,1c1.2,0.6,2.6,1,4.4,1.1c5.3,0.2,10-5.2,10.1-5.3C-3756.1,1478.8-3756,1477.8-3756.3,1477.3
			z"/>
		<path class="st8" d="M-3770.3,1474.3c0.8-1.8,0.9-4.1,0.4-6.7c-1.2-5.3-7.2-7.7-7.4-7.8c-0.7-0.3-1.6,0-2.1,0.7
			c-0.2,0.3-4.3,6.1-3.1,11.4c0.5,2.5,1.6,4.4,3.1,5.5c0.2,0.1,0.4,0.3,0.5,0.4c1.4,0.7,2.9,0.8,4.5,0.3
			C-3772.5,1477.5-3771.1,1476.3-3770.3,1474.3z"/>
		<path class="st8" d="M-3737.1,1405.6c0.6-5.6-4.1-10-4.3-10.2c-0.5-0.5-1.4-0.5-2.2-0.1c-0.3,0.2-5.9,4.3-6.4,10
			c-0.3,2.7,0.1,4.9,1.1,6.4c0.5,0.8,1.2,1.4,1.9,1.8c0.7,0.5,1.6,0.6,2.5,0.6c1.9,0.1,3.6-0.7,4.9-2.2
			C-3738.2,1410.4-3737.4,1408.3-3737.1,1405.6z"/>
	</g>
</g>
<circle class="st13" cx="-3788.3" cy="1488.1" r="15.7"/>
<circle class="st14" cx="-3788.6" cy="1487.9" r="9.6"/>
<g>
	<path class="st16" d="M318.5,32.6C285.9,11.5,243,0,197.3,0S108.7,11.6,76.1,32.6c-32.5,21.1-50.4,48.9-50.4,78.5v158.8
		c0,2.7,3.5,5.1,7.7,5.1H361c4.3,0,7.7-2.2,7.7-5.1V111.1C368.8,81.7,350.9,53.8,318.5,32.6z"/>
	<ellipse class="st16" cx="67" cy="271.6" rx="44.3" ry="37.7"/>
	<ellipse class="st16" cx="327.5" cy="270.6" rx="44.3" ry="37.7"/>
	<path class="st2" d="M70.4,170.3c-0.1,0-0.1,0-0.2,0c-28.9,0.1-52.4,23.7-52.3,52.6c0,13.9,5.6,27.2,15.4,37.1
		c9.8,9.9,23,15.2,37,15.2h0.2c28.9-0.1,52.4-23.7,52.3-52.6C122.6,193.7,99.2,170.3,70.4,170.3z"/>
	<path class="st2" d="M380.1,479.8C380,437.3,363.2,397,332.8,367c-30.3-30.1-70.3-46.6-112.6-46.6c-0.2,0-0.3,0-0.5,0l-52.4,0.2
		c-42.5,0.1-82.7,16.9-112.8,47.3S7.7,438.5,7.8,481l0.1,20c0,4,3.3,7.3,7.3,7.3h357.6c1.9,0,3.8-0.8,5.2-2.1
		c1.4-1.4,2.1-3.2,2.1-5.2L380.1,479.8z"/>
	<path class="st3" d="M380.1,479.8C380,437.3,363.2,397,332.8,367c-30.3-30.1-70.3-46.6-112.6-46.6c-0.2,0-0.3,0-0.5,0l-17.9,0.1
		c40.8,1.1,79.3,17.4,108.5,46.5c30.4,30.2,47.2,70.3,47.3,112.8l0.1,21c0,1.9-0.8,3.8-2.1,5.2c-1.4,1.4-3.2,2.1-5.2,2.1h22.5
		c1.9,0,3.8-0.8,5.2-2.1c1.4-1.4,2.1-3.2,2.1-5.2v-21H380.1L380.1,479.8z"/>
	<g>
		<g>
			<path id="XMLID_46_" class="st4" d="M380,478.8c-0.1-42.3-16.9-82.1-47.3-112.1c-9.1-9-19-16.6-29.6-23.2
				c-7.5,29.4-39.2,53-80.6,60.6c-9.2,1.8-18.9,2.6-28.9,2.6c-9.9,0-19.5-0.9-28.7-2.5c-41.2-7.5-73-31-80.7-60.1
				c-10.7,6.5-20.5,14.4-29.7,23.5C24.3,397.8,7.7,437.7,7.8,479.9l0.1,22.9c0.1,2.6,1.5,5,3.5,6.3h362.8c1.4-0.3,2.6-1.1,3.7-2
				c1.5-1.5,2.2-3.4,2.2-5.5L380,478.8z"/>
		</g>
		<g>
			<g>
				<g>
					<g>
						<g>
							<g>
								<defs>
									<path id="SVGID_5_" d="M380,478.8c-0.1-42.3-16.9-82.1-47.3-112.1c-9.1-9-19-16.6-29.6-23.2c-7.5,29.4-39.2,53-80.6,60.6
										c-9.2,1.8-18.9,2.6-28.9,2.6c-9.9,0-19.5-0.9-28.7-2.5c-41.2-7.5-73-31-80.7-60.1c-10.7,6.5-20.5,14.4-29.7,23.5
										C24.3,397.8,7.7,437.7,7.8,479.9l0.1,22.9c0.1,2.6,1.5,5,3.5,6.3h362.8c1.4-0.3,2.6-1.1,3.7-2c1.5-1.5,2.2-3.4,2.2-5.5
										L380,478.8z"/>
								</defs>
								<clipPath id="SVGID_6_">
									<use xlink:href="#SVGID_5_"  style="overflow:visible;"/>
								</clipPath>
								<path class="st17" d="M381.1,479.4c-0.1-42.3-16.9-82.1-47.3-112.1c-30.3-29.9-70.3-46.3-112.6-46.3c-0.2,0-0.3,0-0.5,0
									l-18.9,0.1c40.8,1.1,79.2,17.3,108.5,46.2c30.4,30,47.1,69.8,47.3,112.1l0.1,22.9c0,2-0.8,4-2.2,5.5c-1,1-2.2,1.8-3.7,2
									h23.7c1.4-0.3,2.6-1.1,3.7-2c1.5-1.5,2.2-3.4,2.2-5.5L381.1,479.4z"/>
							</g>
						</g>
					</g>
				</g>
			</g>
		</g>
	</g>
	<g>
		<path class="st6" d="M164.8,495.3c-0.1-0.3-0.1-0.5-0.1-0.8c0.1-1.1,1.2-1.8,2.2-1.8c10.8,0.6,22-0.8,33.2-3.9
			c9.1-2.5,18.1-6.1,27-10.9c15.1-8.1,24.5-16.5,24.6-16.6c0.9-0.8,2.1-0.8,2.9-0.1c0.8,0.7,0.7,1.9-0.1,2.6
			c-0.4,0.4-9.9,8.9-25.5,17.1c-9.2,4.9-18.6,8.7-27.8,11.3c-11.7,3.2-23.4,4.6-34.6,4C165.7,496.5,165,496,164.8,495.3z"/>
		<path class="st7" d="M256.7,482.1c0.9-0.4,1.3-1.3,1.2-2.1c-0.1-0.3-1.6-7-7-9.2c-2.6-1.1-5.1-1.3-7.1-0.8s-3.7,1.8-4.7,3.7
			c-0.9,1.7-1,3.3-0.5,4.9c0.1,0.2,0.2,0.4,0.3,0.7c0.9,1.8,2.6,3.2,5.3,4.2C249.6,485.6,256.4,482.3,256.7,482.1z"/>
		<path class="st8" d="M244.2,471.9c1.6-1.5,2.4-3.6,2.8-6.3c0.7-5.6-4.7-10.2-4.9-10.4c-0.7-0.6-1.7-0.6-2.5-0.1
			c-0.3,0.2-6.7,4.3-7.4,9.8c-0.2,1.9-0.1,3.5,0.4,5c0.2,0.6,0.5,1.1,0.8,1.6c1.2,1.6,2.9,2.5,5.1,2.6
			C240.7,474.2,242.8,473.4,244.2,471.9z"/>
		<path class="st8" d="M240.3,491.4c0.9-0.4,1.3-1.3,1.2-2.1c-0.1-0.3-1.6-7-7-9.2c-2.6-1.1-5.1-1.3-7.1-0.8s-3.7,1.8-4.7,3.7
			c-0.9,1.7-1,3.3-0.5,4.9c0.1,0.2,0.2,0.4,0.3,0.7c0.9,1.8,2.6,3.2,5.3,4.2C233.2,494.9,240,491.6,240.3,491.4z"/>
		<path class="st7" d="M227.9,481.4c1.6-1.5,2.4-3.6,2.8-6.3c0.7-5.6-4.7-10.2-4.9-10.4c-0.7-0.6-1.7-0.6-2.5-0.1
			c-0.3,0.2-6.7,4.3-7.4,9.8c-0.2,1.9-0.1,3.5,0.4,5c0.2,0.6,0.5,1.1,0.8,1.6c1.2,1.6,2.9,2.5,5.1,2.6
			C224.4,483.5,226.4,482.8,227.9,481.4z"/>
		<path class="st7" d="M221,498.6c0-0.3-0.2-7.3-5.1-10.3c-2.3-1.5-4.7-2.1-6.8-1.9s-4,1.3-5.3,2.9c-1.3,1.7-1.8,3.6-1.2,5.5
			c0,0.2,0.1,0.3,0.1,0.5c0.6,1.8,2,3.3,4.2,4.7c4.9,3.1,12.2,0.9,12.6,0.8C220.4,500.3,221,499.5,221,498.6z"/>
		<g>
			<path class="st8" d="M209.3,488.5c1.8-1.3,3.1-3.2,4-5.8c1.8-5.5-2.5-10.9-2.7-11.2c-0.6-0.7-1.6-0.9-2.4-0.5
				c-0.3,0.1-7.3,3.1-9.1,8.7c-0.8,2.4-0.9,4.6-0.2,6.2c0.1,0.1,0.1,0.3,0.2,0.4c0.8,1.8,2.3,2.9,4.5,3.4
				C205.5,490.2,207.5,489.7,209.3,488.5z"/>
			<path class="st8" d="M198.3,506.6c0.1-0.3,1.3-7.3-2.9-11.1c-1.9-1.8-4.1-2.9-6.2-3c-2-0.2-4.1,0.6-5.7,2
				c-1.6,1.5-2.4,3.3-2.2,5.3c0,0.6,0.2,1.2,0.4,1.8c0.5,1.4,1.5,2.7,2.8,4c4.2,3.9,11.7,2.8,12,2.8
				C197.3,508.2,198.1,507.4,198.3,506.6z"/>
			<path class="st8" d="M188.8,494.5c1.9-1,3.6-2.6,5-5.2c2.8-5.2-0.4-11.3-0.5-11.6c-0.4-0.8-1.4-1.2-2.2-0.9
				c-0.3,0.1-7.7,1.8-10.5,7.1c-1.4,2.5-1.8,4.8-1.4,6.6c0.1,0.2,0.1,0.5,0.2,0.7c0.6,1.6,1.8,2.7,3.5,3.4
				C184.8,495.5,186.9,495.4,188.8,494.5z"/>
			<path class="st8" d="M264.3,462.1c4.5-4.1,3.8-11,3.8-11.3c-0.1-0.9-0.8-1.5-1.8-1.6c-0.3,0-7.8-0.6-12.3,3.5
				c-2.1,1.9-3.4,4-3.7,5.9c-0.2,1-0.1,1.9,0.3,2.8c0.3,0.9,0.9,1.7,1.6,2.3c1.5,1.4,3.5,1.9,5.5,1.7
				C260,465.2,262.1,464.1,264.3,462.1z"/>
		</g>
	</g>
	<path class="st9" d="M147.9,326.2c1.5,1.9,1.9,4.5,1.4,6.8c-3.3,12.9-5,26.2-4.9,39.5c0.1,26.1,13,55.7,35.4,81.3
		c22.4,25.5,50.8,43.3,78.2,49.1c3.7,0.8,6.2,4.2,6.2,7.9h23.5c0-3.5-2.2-6.6-5.5-7.6c-0.2-0.1-0.5-0.1-0.7-0.2
		c-27.3-5.6-55.8-23.4-78.2-49.1c-22.4-25.6-35.3-55.3-35.4-81.3c0-13.4,1.7-26.7,4.9-39.5c0.6-2.4,0.1-4.9-1.4-6.8s-3.7-3.1-6-3.1
		h-3.6c-3.9,0-7.7,0.2-11.5,0.5c-0.2,0-0.3,0-0.5,0c-0.5,0-1.1,0.1-1.6,0.1c-1,0.1-1.8,0.2-2.8,0.3
		C146.4,324.5,147.3,325.3,147.9,326.2z"/>
	<path class="st18" d="M258,501.1c-27.3-5.6-55.8-23.4-78.2-49.1s-35.3-55.3-35.4-81.3c-0.1-13.3,1.6-26.6,4.9-39.5
		c0.6-2.3,0.1-4.9-1.4-6.8c-0.7-0.9-1.6-1.7-2.5-2.1c1-0.1,1.8-0.2,2.8-0.3c-37.4,3.4-72.1,20.1-99.1,48
		c-30,31.3-46.5,72.4-46.3,116.2L2.9,509h261.4C264.3,505.3,261.7,501.9,258,501.1z"/>
	<path class="st2" d="M319.2,169.5c-0.1,0-0.1,0-0.2,0c-28.9,0.1-52.4,23.7-52.3,52.6c0,13.9,5.6,27.2,15.4,37.1
		c9.8,9.8,23,15.2,37,15.2h0.2c28.9-0.1,52.4-23.7,52.3-52.6C371.4,192.8,348,169.5,319.2,169.5z"/>
	<path class="st2" d="M315.1,150.3c-0.1-25.5-18.9-46.3-41.9-46.3H119.3c-11.2,0-21.8,4.9-29.7,13.6c-7.9,8.9-12.3,20.5-12.3,33
		l0.2,90.3c0.2,72.4,53.5,131.1,119,131.1h0.4c65.5-0.2,118.8-59.4,118.5-131.9L315.1,150.3z"/>
	<path class="st11" d="M315.2,150.3c-0.1-25.5-17.6-46.3-39.3-46.3h-19.2c21.6,0,39.3,20.8,39.3,46.3l0.2,89.8
		c0.2,68.8-44.8,125.6-101.8,131.4c3.2,0.3,6.3,0.5,9.6,0.5h0.3c61.4-0.2,111.1-59.4,111.1-131.9L315.2,150.3z"/>
	
		<ellipse transform="matrix(0.9333 -0.3592 0.3592 0.9333 -64.2012 29.7353)" class="st19" cx="47.9" cy="187.6" rx="32.1" ry="47.1"/>
	<ellipse transform="matrix(0.9333 -0.3592 0.3592 0.9333 -62.9255 27.2995)" class="st16" cx="42" cy="183" rx="32.1" ry="47.1"/>
	<path class="st3" d="M196.1,318.9c-10,0-19.8-3.7-27.2-10.6c-3.2-2.9-3.4-7.8-0.5-10.9c2.9-3.2,7.8-3.4,10.9-0.5
		c4.5,4.2,10.5,6.4,16.7,6.4h0.1c6.2,0,12.1-2.3,16.8-6.6c3.2-2.9,8-2.6,10.9,0.4c2.9,3.2,2.6,8-0.4,10.9
		C216,314.9,206.4,318.7,196.1,318.9C196.3,318.9,196.3,318.9,196.1,318.9z"/>
	<path class="st20" d="M150,192.6c10,0,19.8,1.9,27.2,5.3c3.2,1.5,3.4,3.9,0.5,5.5c-2.9,1.6-7.8,1.7-10.9,0.2
		c-4.5-2-10.5-3.3-16.7-3.3H150c-6.2,0-12.1,1.2-16.8,3.3c-3.2,1.5-8,1.4-10.9-0.2c-2.9-1.6-2.6-4,0.4-5.5
		C130.1,194.5,139.8,192.5,150,192.6C149.9,192.6,150,192.6,150,192.6z"/>
	<ellipse class="st19" cx="77" cy="140.1" rx="52.5" ry="43"/>
	<path class="st20" d="M246.4,192.6c10,0,19.8,1.9,27.2,5.3c3.2,1.5,3.4,3.9,0.5,5.5c-2.9,1.6-7.8,1.7-10.9,0.2
		c-4.5-2-10.5-3.3-16.7-3.3h-0.1c-6.2,0-12.1,1.2-16.8,3.3c-3.2,1.5-8,1.4-10.9-0.2c-2.9-1.6-2.6-4,0.4-5.5
		C226.6,194.5,236.2,192.5,246.4,192.6L246.4,192.6z"/>
	<path class="st12" d="M164,233c0-7.2-5.8-13-13.1-13c-7.2,0-13,5.8-13,13.1s5.8,13,13.1,13C158.2,246.1,164,240.1,164,233z"/>
	<path class="st12" d="M256.1,232.6c0-7.2-5.8-13.1-13.1-13c-7.2,0-13.1,5.8-13,13.1c0,7.2,5.8,13.1,13.1,13
		C250.2,245.7,256.1,239.8,256.1,232.6z"/>
	
		<ellipse transform="matrix(0.3592 -0.9333 0.9333 0.3592 37.2637 429.1607)" class="st19" cx="331.1" cy="187.4" rx="47.1" ry="32.1"/>
	
		<ellipse transform="matrix(0.3592 -0.9333 0.9333 0.3592 46.6632 426.8758)" class="st16" cx="334.2" cy="179.5" rx="47.1" ry="32.1"/>
	<ellipse class="st19" cx="308.6" cy="133" rx="52.5" ry="43"/>
	
		<ellipse transform="matrix(0.7071 -0.7071 0.7071 0.7071 9.617 249.7743)" class="st16" cx="306.3" cy="113.3" rx="53.7" ry="53.7"/>
	<ellipse class="st19" cx="281.7" cy="104.1" rx="52.5" ry="43"/>
	<ellipse class="st16" cx="281.7" cy="95.8" rx="51.7" ry="37.3"/>
	<ellipse class="st16" cx="71.9" cy="125.6" rx="50.4" ry="50.4"/>
	<ellipse class="st19" cx="109.4" cy="97.6" rx="52.5" ry="43"/>
	<ellipse class="st19" cx="190.3" cy="79.9" rx="80.9" ry="61.7"/>
	<ellipse class="st16" cx="197.3" cy="65.8" rx="84.4" ry="60.9"/>
	<ellipse class="st16" cx="109.4" cy="89.4" rx="51.7" ry="37.3"/>
	<g>
		<path class="st6" d="M261.4,450c-0.2-0.1-0.4-0.3-0.6-0.6c-0.6-0.9-0.3-2.1,0.6-2.8c8.5-6.6,16.1-15,22.5-24.6
			c5.2-7.8,9.6-16.5,13.2-25.9c6.1-16,7.7-28.5,7.7-28.6c0.1-1.1,1.1-1.9,2.1-1.9s1.8,1,1.7,2.1c-0.1,0.5-1.7,13.1-8,29.7
			c-3.7,9.7-8.4,18.7-13.6,26.8c-6.7,10.1-14.6,18.8-23.5,25.7C262.8,450.3,262,450.3,261.4,450z"/>
		<path class="st7" d="M322.1,379.7c0.4-0.9,0.1-1.8-0.6-2.3c-0.2-0.2-5.8-4.3-11.4-2.3c-2.6,0.9-4.7,2.3-5.8,4.1
			c-1.2,1.8-1.7,3.8-1.2,5.8c0.4,1.8,1.5,3.2,2.8,4c0.2,0.1,0.4,0.2,0.7,0.3c1.8,0.8,4.1,0.7,6.8-0.3C319,387,322,380,322.1,379.7z"
			/>
		<path class="st8" d="M306.1,380.3c0.2-2.1-0.5-4.4-2-6.6c-3.2-4.7-10.2-4.7-10.5-4.7c-0.9,0-1.7,0.7-1.9,1.6
			c-0.1,0.3-2.2,7.6,0.9,12.3c1.1,1.6,2.2,2.7,3.5,3.4c0.6,0.3,1.1,0.5,1.7,0.7c1.8,0.5,3.9,0,5.5-1.4
			C304.9,384.1,306,382.4,306.1,380.3z"/>
		<path class="st8" d="M316,397.6c0.4-0.9,0.1-1.8-0.6-2.3c-0.2-0.2-5.8-4.3-11.4-2.3c-2.6,0.9-4.7,2.3-5.8,4.1
			c-1.2,1.8-1.7,3.8-1.2,5.8c0.4,1.8,1.5,3.2,2.8,4c0.2,0.1,0.4,0.2,0.7,0.3c1.8,0.8,4.1,0.7,6.8-0.3
			C312.9,404.9,315.8,397.9,316,397.6z"/>
		<path class="st7" d="M299.9,398c0.2-2.1-0.5-4.4-2-6.6c-3.2-4.7-10.2-4.7-10.5-4.7c-0.9,0-1.7,0.7-1.9,1.6
			c-0.1,0.3-2.2,7.6,0.9,12.3c1.1,1.6,2.2,2.7,3.5,3.4c0.6,0.3,1.1,0.5,1.7,0.7c1.8,0.5,3.9,0,5.5-1.4
			C298.7,401.9,299.7,400.2,299.9,398z"/>
		<path class="st7" d="M306.1,415.7c-0.2-0.2-4.9-5.4-10.6-4.5c-2.7,0.4-4.9,1.5-6.4,3c-1.5,1.6-2.2,3.5-2.1,5.6
			c0.1,2.1,1.1,3.9,2.6,5c0.1,0.1,0.3,0.2,0.4,0.2c1.6,0.9,3.7,1.2,6.2,0.8c5.7-0.9,9.7-7.4,9.9-7.6
			C306.6,417.3,306.6,416.4,306.1,415.7z"/>
		<g>
			<path class="st8" d="M290.6,415.7c0.5-2.1,0.3-4.5-0.9-7c-2.2-5.4-9.2-6.6-9.4-6.6c-0.9-0.2-1.8,0.3-2.1,1.2
				c-0.1,0.3-3.5,7.2-1.2,12.5c1,2.3,2.3,4,3.9,4.9c0.1,0.1,0.3,0.1,0.4,0.2c1.8,0.8,3.7,0.7,5.5-0.3
				C288.7,419.4,290,417.7,290.6,415.7z"/>
			<path class="st8" d="M294.1,436.6c-0.2-0.3-3.8-6.3-9.5-6.5c-2.7-0.1-5,0.5-6.7,1.8s-2.7,3.1-3,5.3c-0.3,2.1,0.4,4.1,1.8,5.5
				c0.4,0.4,0.9,0.8,1.5,1.1c1.3,0.7,2.8,1.1,4.8,1.2c5.6,0.2,10.7-5.5,10.9-5.7C294.4,438.4,294.5,437.3,294.1,436.6z"/>
			<path class="st8" d="M279.1,433.6c0.9-1.9,1-4.4,0.4-7.2c-1.3-5.7-7.7-8.3-8-8.4c-0.8-0.3-1.8,0-2.2,0.8
				c-0.2,0.3-4.6,6.5-3.3,12.3c0.6,2.7,1.8,4.8,3.3,5.9c0.2,0.1,0.4,0.3,0.6,0.4c1.5,0.8,3.1,0.9,4.9,0.3
				C276.6,437,278.2,435.6,279.1,433.6z"/>
			<path class="st8" d="M314.7,359.7c0.7-6-4.4-10.8-4.6-11c-0.6-0.6-1.6-0.6-2.3-0.1c-0.3,0.2-6.3,4.7-6.9,10.7
				c-0.3,2.9,0.1,5.3,1.2,6.9c0.5,0.9,1.3,1.5,2,1.9c0.8,0.5,1.8,0.7,2.7,0.7c2,0.1,3.9-0.8,5.3-2.3
				C313.5,364.8,314.4,362.6,314.7,359.7z"/>
		</g>
	</g>
	<circle class="st13" cx="259.7" cy="448.4" r="16.8"/>
	<circle class="st14" cx="259.4" cy="448.2" r="10.3"/>
</g>
</svg>
