<?xml version="1.0" encoding="utf-8"?>
<!-- Generator: Adobe Illustrator 23.1.0, SVG Export Plug-In . SVG Version: 6.00 Build 0)  -->
<svg version="1.1" id="Layer_1" xmlns="http://www.w3.org/2000/svg" xmlns:xlink="http://www.w3.org/1999/xlink" x="0px" y="0px"
	 viewBox="0 0 383 508.7" style="enable-background:new 0 0 383 508.7;" xml:space="preserve">
<style type="text/css">
	.st0{fill:#F0BCA6;}
	.st1{fill:#E6B09A;}
	.st2{fill:#AEAEAF;}
	.st3{fill:#2657A5;}
	.st4{clip-path:url(#SVGID_2_);}
	.st5{fill:#1E4987;}
	.st6{fill:#FFF4F1;}
	.st7{fill:#ECEDEF;}
	.st8{fill:#D0CFD1;}
	.st9{fill:#DCDBDD;}
	.st10{fill:#979797;}
	.st11{fill:#868686;}
	.st12{fill:#BF736A;}
</style>
<title>old</title>
<path class="st0" d="M6.9,509.1h368.8c1.4-0.4,2.8-1.1,3.8-2.2c1.5-1.6,2.3-3.6,2.3-5.8l-0.1-24.1c-0.6-92.2-73.2-166.6-162.6-166.9
	h-0.5l-53.2,0.2C75.6,311,3.2,385.9,3.2,478.3l0.1,24.1C3.3,505.2,4.6,507.7,6.9,509.1z"/>
<path class="st1" d="M382.7,477.5c-0.6-92.2-73.2-166.6-162.6-166.9h-0.5l-19.2,0.1c87.8,2.6,157.9,76.4,158.3,166.8l0.1,24.1
	c0,2.2-0.9,4.2-2.3,5.8c-1,1.1-2.4,1.9-3.8,2.2h24c1.4-0.4,2.8-1.1,3.8-2.2c1.5-1.6,2.3-3.6,2.3-5.8L382.7,477.5z"/>
<path class="st2" d="M382.6,477.5c-0.1-44.4-17.4-86.9-48.1-118.1c-9.1-9.3-19.1-17.5-30.1-24.4c-7.6,31-39.9,55.8-81.9,63.8
	c-9.7,1.9-19.5,2.8-29.4,2.7c-9.8,0-19.5-0.9-29.2-2.6c-41.8-7.9-74.2-32.7-82-63.3c-11,7-21.2,15.3-30.2,24.7
	c-30.5,31.4-47.5,74-47.4,118.4l0.1,24.1c0.1,2.6,1.4,5.2,3.6,6.7h368.8c1.4-0.4,2.8-1.1,3.8-2.2c1.5-1.6,2.3-3.6,2.3-5.8
	L382.6,477.5z"/>
<path class="st3" d="M382.6,477.5c-0.1-44.4-17.4-86.9-48.1-118.1c-9.1-9.3-19.1-17.5-30.1-24.4c-7.6,31-39.9,55.8-81.9,63.8
	c-9.7,1.9-19.5,2.8-29.4,2.7c-9.8,0-19.5-0.9-29.2-2.6c-41.8-7.9-74.2-32.7-82-63.3c-11,7-21.2,15.3-30.2,24.7
	c-30.5,31.4-47.5,74-47.4,118.4l0.1,24.1c0.1,2.6,1.4,5.2,3.6,6.7h368.8c1.4-0.4,2.8-1.1,3.8-2.2c1.5-1.6,2.3-3.6,2.3-5.8
	L382.6,477.5z"/>
<g>
	<g>
		<g>
			<defs>
				<path id="SVGID_1_" d="M382.6,477.5c-0.1-44.4-17.4-86.9-48.1-118.1c-9.1-9.3-19.1-17.5-30.1-24.4c-7.6,31-39.9,55.8-81.9,63.8
					c-9.7,1.9-19.5,2.8-29.4,2.7c-9.8,0-19.5-0.9-29.2-2.6c-41.8-7.9-74.2-32.7-82-63.3c-11,7-21.2,15.3-30.2,24.7
					c-30.5,31.4-47.5,74-47.4,118.4l0.1,24.1c0.1,2.6,1.4,5.2,3.6,6.7h368.8c1.4-0.4,2.8-1.1,3.8-2.2c1.5-1.6,2.3-3.6,2.3-5.8
					L382.6,477.5z"/>
			</defs>
			<clipPath id="SVGID_2_">
				<use xlink:href="#SVGID_1_"  style="overflow:visible;"/>
			</clipPath>
			<g class="st4">
				<path class="st5" d="M383.6,478.1c-0.6-92.2-73.2-166.6-162.6-166.9h-0.5l-19.2,0.1c87.8,2.6,157.9,76.4,158.3,166.8l0.1,24.1
					c0,2.2-0.9,4.2-2.3,5.8c-1,1.1-2.4,1.9-3.8,2.2h24c1.4-0.4,2.8-1.1,3.8-2.2c1.5-1.6,2.3-3.6,2.3-5.8L383.6,478.1z"/>
			</g>
		</g>
	</g>
</g>
<path class="st6" d="M263,502.2c-28.1-6.1-57.5-25-80.7-52.5s-36.5-59.2-36.6-87.1c-0.1-14.2,1.6-28.4,5-42.3
	c0.6-2.5,0.1-5.2-1.4-7.4c-0.7-1-1.6-1.7-2.6-2.3l3-0.3c-38.6,3.6-74.5,21.6-102.3,51.4C16.3,395.3-0.9,440-0.5,486.3l0.1,24.4
	h269.8C269.6,506.6,266.9,503,263,502.2z"/>
<path class="st7" d="M149.4,314c1.5,2.1,2,4.8,1.4,7.3c-3.4,13.7-5,27.9-5,42.1c0.1,27.9,13.3,59.3,36.3,86.6s52,46.2,80,52.3
	c3.8,0.9,6.5,4.4,6.4,8.4h23.9c0-3.6-2.2-7-5.6-8.1c-0.2-0.1-0.5-0.1-0.7-0.2c-27.9-6.1-57.1-24.9-80-52.3s-36.2-58.8-36.3-86.6
	c0-14.1,1.7-28.2,5-42.1c0.6-2.5,0.1-5.2-1.4-7.3c-1.4-2.1-3.7-3.2-6.2-3.2h-3.7c-4,0-7.9,0.2-11.8,0.5h-0.5c-0.5,0-1,0.1-1.6,0.1
	l-2.9,0.3C147.9,312.4,148.8,313.1,149.4,314z"/>
<path class="st1" d="M383.5,501.6c0,2.2-0.8,4.2-2.2,5.8c-1,1.1-2.2,1.8-3.6,2.2h-22.8c1.3-0.4,2.6-1.1,3.6-2.2
	c1.4-1.6,2.2-3.6,2.2-5.8L361,480c8.2-9.6,14.8-20.6,19.6-32.4c0-0.1,0-0.1,0.1-0.2c1.7,9.9,2.6,19.9,2.5,29.9L383.5,501.6z"/>
<path class="st0" d="M361.2,501.6c0,2.2-0.9,4.2-2.4,5.8c-1,1.1-2.5,1.9-4,2.2h-34.5c15.3-7,29.2-17,40.9-29.4L361.2,501.6
	L361.2,501.6z"/>
<path class="st0" d="M68.2,155.6H68c-29.1,0.1-52.5,23.7-52.5,52.8c-0.1,14,5.5,27.3,15.5,37.1c10,9.9,17.7,15.3,37.1,15.3h0.2
	c29.1-0.4,52.2-24.4,51.8-53.3C119.6,178.9,96.6,156,68.2,155.6L68.2,155.6z"/>
<path class="st0" d="M320.9,154.6h-0.2c-29.1,0.1-52.5,23.7-52.5,52.8c-0.1,14,5.5,27.3,15.5,37.1c9.9,9.9,23.2,15.3,37.1,15.3h0.2
	c29.1,0,52.6-23.6,52.5-52.6S350,154.6,320.9,154.6z"/>
<path class="st8" d="M319.9,195.9l0.1,34.9c0.3,74.4-55.2,135.1-123.4,135.3h-0.4c-3,0-6-0.1-8.9-0.3c-64-5-114.8-63.1-114.9-134.1
	l-0.1-22.4c-10.9-20.9-16.5-44.1-16.4-67.7C55.8,68,109.6,7.6,178,1.3h0.1c3.1-0.4,6.2-0.8,9.2-1l0,0c3.1-0.2,6.3-0.3,9.4-0.3
	c74,0,133.9,63.1,133.9,140.9C330.6,159.7,327,178.4,319.9,195.9z"/>
<path class="st9" d="M300.5,195.9l0.1,34.9c0.3,71.1-50.3,129.8-114.5,135c-64-5-114.7-63.1-114.9-134.1l-0.1-22.4
	c-10.9-20.9-16.5-44.1-16.4-67.7C54.7,68,108.4,7.6,176.9,1.3h0.1c3.1-0.4,6.2-0.8,9.2-1l0,0c69.8,4.8,125,66,125,140.6
	C311.2,159.8,307.6,178.5,300.5,195.9z"/>
<path class="st10" d="M196.1,304.3c-10.2,0-20.1-3.8-27.6-10.8c-3.3-3.1-3.6-8.3-0.5-11.6c3.1-3.3,8.3-3.6,11.6-0.5
	c4.5,4.2,10.4,6.4,16.5,6.4h0.1c6.1,0,12-2.3,16.5-6.5c3.2-3.2,8.4-3.2,11.6,0s3.2,8.4,0,11.6c-0.1,0.1-0.3,0.3-0.5,0.4
	c-7.5,7-17.4,10.9-27.7,10.9C196.1,304.2,196.1,304.3,196.1,304.3L196.1,304.3z"/>
<path class="st0" d="M292.1,264c0,8.4-0.7,16.7-2.2,25.1c-0.4,3.2-2.6,5.9-5.7,6.9c-0.5,0.1-1.1,0.2-1.6,0.2
	c-2.5-0.1-4.6-1.3-5.9-3.5c-19.1-29.9-48.7-35.9-87.3-35.8c-34.9,0.1-61.1,2.1-79.8,26c-1.7,2.5-4.9,3.4-7.8,2.4
	c-3-1.3-4.9-4.2-5-7.5c-0.4-4.4-0.6-8.8-0.6-13l-0.3-135.5c0-0.2,0-0.5,0-0.7v-0.2c0-0.1,0-0.2,0-0.2c0-38.2,43.5-69.2,97-69.2
	c50.1,0,91.3,27.1,96.5,62c1.5,1.7,2.5,4.1,2.5,6.5v0.3c0,0.3,0,0.6,0,0.9L292.1,264z"/>
<path class="st11" d="M162.2,229.1c0-7.5-6.1-13.5-13.6-13.5s-13.5,6.1-13.5,13.6s6.1,13.5,13.6,13.5
	C156.1,242.7,162.2,236.6,162.2,229.1z"/>
<path class="st7" d="M164.5,207.8c-0.7,0-1.4-0.1-2.2-0.3l-31.9-8.4c-4.5-1.2-7.2-5.9-6.1-10.3s5.9-7.2,10.3-6.1l31.9,8.4
	c4.5,1.2,7.2,5.9,6.1,10.4C171.7,205.2,168.4,207.8,164.5,207.8L164.5,207.8z"/>
<path class="st11" d="M257.3,228.8c0-7.5-6.1-13.5-13.6-13.5s-13.5,6.1-13.5,13.6s6.1,13.5,13.6,13.5l0,0c7.4,0,13.4-5.9,13.5-13.3
	C257.4,229,257.4,228.9,257.3,228.8z"/>
<path class="st7" d="M227.9,207.6c-4.7,0-8.5-3.8-8.5-8.4c0-3.8,2.6-7.2,6.3-8.2l31.9-8.6c4.5-1.3,9.2,1.2,10.5,5.8
	c1.3,4.5-1.2,9.2-5.8,10.5c-0.1,0-0.2,0.1-0.3,0.1l-31.9,8.6C229.5,207.5,228.7,207.6,227.9,207.6z"/>
<path class="st12" d="M146.7,143.7h97.6c1.2,0,2.3,1,2.3,2.3v1.1c0,1.2-1,2.3-2.3,2.3h-97.6c-1.2,0-2.3-1-2.3-2.3V146
	C144.3,144.8,145.3,143.7,146.7,143.7z"/>
<path class="st10" d="M162.6,278.2l0.4,0.3c0.4,0.3,0.4,0.9,0.1,1.3l-12.3,14c-0.3,0.4-0.9,0.4-1.3,0.1l-0.4-0.3
	c-0.4-0.3-0.4-0.9-0.1-1.3l12.3-14C161.6,277.9,162.2,277.9,162.6,278.2z"/>
<path class="st10" d="M243.2,293.6l-0.4,0.3c-0.4,0.3-1,0.3-1.3-0.1l-12.3-14c-0.3-0.4-0.3-1,0.1-1.3l0.4-0.3c0.4-0.3,1-0.3,1.3,0.1
	l12.3,14C243.6,292.6,243.6,293.2,243.2,293.6z"/>
</svg>
