<?xml version="1.0" encoding="utf-8"?>
<!-- Generator: Adobe Illustrator 19.0.0, SVG Export Plug-In . SVG Version: 6.00 Build 0)  -->
<svg version="1.1" id="Layer_1" xmlns="http://www.w3.org/2000/svg" xmlns:xlink="http://www.w3.org/1999/xlink" x="0px" y="0px"
	 viewBox="-114 142.3 383 508.7" style="enable-background:new -114 142.3 383 508.7;" xml:space="preserve">
<style type="text/css">
	.st0{fill:#B38B7B;}
	.st1{fill:#C6A89C;}
	.st2{fill:#ECEDEF;}
	.st3{fill:#E6B09A;}
	.st4{fill:#E5775A;}
	.st5{clip-path:url(#SVGID_2_);}
	.st6{fill:#DBDCDD;}
	.st7{clip-path:url(#SVGID_4_);}
	.st8{fill:#BA5743;}
	.st9{clip-path:url(#SVGID_6_);}
	.st10{fill:#FFF4F1;}
	.st11{fill:#CCA95A;}
	.st12{fill:#F7D789;}
	.st13{fill:#C6943C;}
	.st14{fill:#F7B93E;}
	.st15{fill:#D0CFD1;}
	.st16{fill:#DCDBDD;}
	.st17{fill:#979797;}
	.st18{fill:#868686;}
	.st19{fill:#BF736A;}
	.st20{fill:none;}
</style>
<title>old</title>
<path class="st0" d="M188.3,343.1l0.1,34.5C188.7,451,133.9,511,66.5,511.2h-0.4c-3,0-5.9-0.1-8.8-0.3
	c-63.4-5-113.3-62.3-113.5-132.5l-0.1-22.1c-10.7-20.6-16.3-43.6-16.2-66.8c0-72.7,53-132.4,120.6-138.6h0.1c3-0.4,6-0.8,9.1-1l0,0
	c3.1-0.2,6.1-0.3,9.3-0.3c73-0.1,132.2,62.2,132.2,139C198.8,307.4,195.1,325.9,188.3,343.1z"/>
<path class="st1" d="M169.1,343.2l0.1,34.5c0.3,70.2-49.8,128.1-113.1,133.2C-7.1,506-57.2,448.6-57.4,378.5l0-22.2
	c-10.7-20.6-16.3-43.6-16.2-66.8c0-72.7,53-132.4,120.6-138.6h0.1c3-0.4,6.1-0.8,9.1-1l0,0c68.9,4.7,123.4,65.1,123.4,138.8
	C179.6,307.4,176.1,325.9,169.1,343.2z"/>
<path class="st2" d="M-46.7,648.9h-54.7c-6.5,0-11.8-5.3-11.8-11.8v-86.4c0.1-27.2,22.1-49.2,49.2-49.2h17.2
	c6.5,0,11.8,5.3,11.8,11.8v123.9C-34.9,643.8-40.2,648.9-46.7,648.9z"/>
<path class="st1" d="M-103.9,648.8h364.3c1.4-0.3,2.7-1.1,3.7-2.1c1.5-1.5,2.3-3.4,2.3-5.5l-0.1-23.1
	c-0.5-88.5-72.3-160-160.7-160.3h-0.5L52.6,458c-88.7,0.6-160.3,72.6-160.3,161.2l0.1,23.1C-107.4,644.8-106.2,647.3-103.9,648.8z"
	/>
<path class="st3" d="M266.5,617.9C266,529.5,194.3,458,105.8,457.7h-0.5l-19,0.1c86.8,2.5,155.9,73.3,156.5,160.1l0.1,23.1
	c0,2.1-0.8,4-2.3,5.5c-1,1-2.3,1.8-3.8,2.1h23.7c1.4-0.4,2.7-1.1,3.7-2.1c1.5-1.5,2.3-3.4,2.3-5.5L266.5,617.9z"/>
<path class="st4" d="M266.3,617.9c-0.1-42.6-17.2-83.4-47.6-113.3c-3.1-3-6.2-5.9-9.4-8.6c-24.2,27.3-73.4,46-130,46
	s-105.5-18.6-129.8-45.8c-3.6,3-6.9,6.1-10.2,9.5c-30.3,30.1-47,71-47,113.6l0.1,23.1c0.1,2.6,1.4,5,3.6,6.4h364.3
	c1.4-0.4,2.7-1.1,3.7-2.1c1.5-1.5,2.3-3.4,2.3-5.5V617.9z"/>
<g>
	<g>
		<g>
			<defs>
				<path id="SVGID_1_" d="M266.3,617.9c-0.1-42.6-17.2-83.4-47.6-113.3c-3.1-3-6.2-5.9-9.4-8.6c-24.2,27.3-73.4,46-130,46
					s-105.5-18.6-129.8-45.8c-3.6,3-6.9,6.1-10.2,9.5c-30.3,30.1-47,71-47,113.6l0.1,23.1c0.1,2.6,1.4,5,3.6,6.4h364.3
					c1.4-0.4,2.7-1.1,3.7-2.1c1.5-1.5,2.3-3.4,2.3-5.5V617.9z"/>
			</defs>
			<clipPath id="SVGID_2_">
				<use xlink:href="#SVGID_1_"  style="overflow:visible;"/>
			</clipPath>
			<g class="st5">
				<path class="st6" d="M-35.8,529.3h-27.7c-13.2,0-23.9-10.7-23.9-23.9v-0.2c0-13.2,10.7-23.9,23.9-23.9h27.6
					c13.2,0,23.9,10.7,23.9,23.9v0.2C-11.9,518.6-22.7,529.3-35.8,529.3z"/>
			</g>
		</g>
	</g>
</g>
<g>
	<g>
		<g>
			<defs>
				<path id="SVGID_3_" d="M266.3,617.9c-0.1-42.6-17.2-83.4-47.6-113.3c-3.1-3-6.2-5.9-9.4-8.6c-24.2,27.3-73.4,46-130,46
					s-105.5-18.6-129.8-45.8c-3.6,3-6.9,6.1-10.2,9.5c-30.3,30.1-47,71-47,113.6l0.1,23.1c0.1,2.6,1.4,5,3.6,6.4h364.3
					c1.4-0.4,2.7-1.1,3.7-2.1c1.5-1.5,2.3-3.4,2.3-5.5V617.9z"/>
			</defs>
			<clipPath id="SVGID_4_">
				<use xlink:href="#SVGID_3_"  style="overflow:visible;"/>
			</clipPath>
			<g class="st7">
				<path class="st8" d="M268,619.6c-0.5-88.4-72.3-159.9-160.7-160.2h-0.5l-19,0.1c86.8,2.5,155.9,73.3,156.5,160.1l0.1,23.1
					c0,2.1-0.8,4-2.3,5.5c-1,1-2.3,1.8-3.7,2.1h23.7c1.4-0.4,2.7-1.1,3.7-2.1c1.5-1.5,2.3-3.4,2.3-5.5L268,619.6z"/>
			</g>
		</g>
	</g>
</g>
<g>
	<g>
		<g>
			<defs>
				<path id="SVGID_5_" d="M266.3,617.9c-0.1-42.6-17.2-83.4-47.6-113.3c-3.1-3-6.2-5.9-9.4-8.6c-24.2,27.3-73.4,46-130,46
					s-105.5-18.6-129.8-45.8c-3.6,3-6.9,6.1-10.2,9.5c-30.3,30.1-47,71-47,113.6l0.1,23.1c0.1,2.6,1.4,5,3.6,6.4h364.3
					c1.4-0.4,2.7-1.1,3.7-2.1c1.5-1.5,2.3-3.4,2.3-5.5V617.9z"/>
			</defs>
			<clipPath id="SVGID_6_">
				<use xlink:href="#SVGID_5_"  style="overflow:visible;"/>
			</clipPath>
			<g class="st9">
				<path class="st10" d="M-34.8,527.3h-27.7c-13.2,0-23.9-10.7-23.9-23.9v-0.2c0-13.2,10.7-23.9,23.9-23.9h27.6
					c13.2,0,23.9,10.7,23.9,23.9v0.2C-10.9,516.4-21.7,527.2-34.8,527.3z"/>
			</g>
		</g>
	</g>
</g>
<path class="st1" d="M-24.9,648.3L-24.9,648.3c0,0.7-0.6,1.4-1.3,1.4c0,0,0,0-0.1,0h-80c-0.7,0-1.4-0.6-1.4-1.3c0,0,0,0,0-0.1v-51.7
	c0-6.6,1.6-13.1,4.6-18.9c0.8-1.5,2.1-2.7,3.7-3.3c0.5-0.2,1.1-0.1,1.6,0.3l72.6,72.7C-25.1,647.7-24.9,647.9-24.9,648.3z"/>
<path class="st10" d="M9.9,640.8c27.6-5.8,56.4-23.9,79.1-50.1c22.7-26.2,35.8-56.5,35.8-83.1c0.1-13.6-1.6-27.2-4.9-40.4
	c-0.6-2.4-0.1-5,1.4-7c0.7-0.9,1.6-1.6,2.6-2.2c-1-0.1-1.9-0.2-2.9-0.3c37.8,3.5,73,20.6,100.3,49c30.5,32,47.4,74.6,47,118.8
	l-0.1,23.3H3.8C3.7,644.9,6.3,641.7,9.9,640.8z"/>
<path class="st11" d="M-20.1,648.8L-20.1,648.8c-0.1-3.5,2.1-6.7,5.5-7.8C-17.8,642.2-20.2,645.3-20.1,648.8z"/>
<path class="st11" d="M120.9,457.8c-0.5,0-1.1-0.1-1.6-0.1C119.9,457.7,120.4,457.8,120.9,457.8z"/>
<path class="st11" d="M118.9,457.6c-3.9-0.3-7.7-0.5-11.6-0.5C111.1,457.1,115.1,457.3,118.9,457.6z"/>
<path class="st2" d="M121.3,460.3c-1.5,2-2,4.6-1.4,7c3.4,13.2,5,26.8,4.9,40.4c-0.1,26.7-13.2,56.9-35.9,83.1s-51.4,44.3-79.1,50.1
	c-3.7,0.9-6.4,4.2-6.3,8.1h-23.7c0-3.5,2.2-6.7,5.5-7.8c0.2-0.1,0.5-0.1,0.7-0.2c27.6-5.8,56.4-23.9,79.1-50.1
	c22.7-26.2,35.8-56.5,35.9-83.1c0-13.6-1.7-27.2-4.9-40.4c-0.6-2.4-0.1-5,1.4-7c1.4-2,3.7-3.1,6.1-3.1h3.6c3.9,0,7.8,0.2,11.6,0.5
	h0.5c0.5,0,1.1,0.1,1.6,0.1l2.9,0.3C122.6,458.6,121.9,459.3,121.3,460.3z"/>
<path class="st12" d="M-20.1,649.6v-0.7h0.1C-19.9,649.1-20.1,649.3-20.1,649.6"/>
<path class="st13" d="M-66,502.2c0-3.9,1.3-7.6,3.7-10.6c-7.5,5.7-8.9,16.4-3.2,23.8c5.7,7.4,16.4,8.9,23.8,3.2
	c1-0.8,1.9-1.6,2.7-2.6c-7.6,5.6-18.2,4-23.8-3.6C-65,509.4-66,505.8-66,502.2L-66,502.2z"/>
<path class="st14" d="M-52.3,488.3c-3.6,0-7.1,1.2-10,3.4c-5.8,7.4-4.6,18,2.7,23.9c6,4.7,14.4,4.9,20.6,0.4
	c5.9-7.3,4.7-18-2.6-23.9C-44.7,489.7-48.3,488.3-52.3,488.3L-52.3,488.3z"/>
<circle class="st14" cx="-52.3" cy="505.3" r="17"/>
<circle class="st14" cx="-52.3" cy="505.3" r="17"/>
<path class="st1" d="M-60.3,303.9h-0.2c-28.7,0.1-51.9,23.4-51.8,52.1c-0.1,13.8,5.5,27,15.3,36.6c9.9,9.8,17.4,15.1,36.6,15.1h0.2
	c28.7-0.4,51.6-24,51.1-52.7C-9.4,326.9-32.2,304.2-60.3,303.9L-60.3,303.9z"/>
<path class="st1" d="M189.1,302.9h-0.2c-28.7,0.1-51.9,23.4-51.8,52.1c0,13.8,5.5,27,15.3,36.6c9.7,9.7,22.9,15.1,36.6,15.1h0.2
	c28.7-0.8,51.2-24.7,50.4-53.4C238.9,325.9,216.6,303.7,189.1,302.9z"/>
<path class="st15" d="M188.1,343.7l0.1,34.5c0.3,73.5-54.5,133.4-121.9,133.6H66c-3,0-5.9-0.1-8.8-0.3h-0.5
	C-6.3,506.3-56,449-56.2,379.1l-0.1-22.1C-78.2,314.7-78,264.4-56,222.3c9.7,9.5,21,17.4,33.3,23.3c15.8-22.2,48.2-37.4,85.4-37.4
	c35.5,0,66.6,13.8,83.1,34.4c7.3-4,14.2-8.6,20.6-13.9c4.6-3.8,8.8-8,12.6-12.5C201.5,254.9,204.9,302.1,188.1,343.7L188.1,343.7z"
	/>
<path class="st16" d="M-56.7,221.6c-22.5,42.2-22.8,92.8-0.9,135.3l0.1,22.1C-57.3,449.1-7.2,506.5,56,511.4h0.5
	c42.4-3.6,78.8-31,98-69.8c1.7-3.4,3.2-6.9,4.6-10.5c6.6-16.9,10-34.8,9.9-52.9l-0.1-34.5c14.9-37.1,13.9-78.6-2.7-115
	c-6.4,5.3-13.3,10-20.6,13.9C129.1,222,98,208.2,62.5,208.2c-37.3,0-69.6,15.2-85.4,37.4c-12.2-5.9-23.3-13.7-33.1-23.3L-56.7,221.6
	z"/>
<path class="st17" d="M65.9,453.9c-10.4,0-20.4-3.9-28-10.9c-3.5-3-3.8-8.3-0.8-11.8s8.3-3.8,11.8-0.8c0.1,0.1,0.2,0.2,0.3,0.2
	c4.6,4.2,10.6,6.5,16.8,6.5h0.1c6.2,0,12.2-2.3,16.8-6.6c3.3-3.2,8.5-3.2,11.8,0s3.2,8.5,0,11.8c-0.1,0.1-0.3,0.3-0.4,0.4
	c-7.6,7.1-17.7,11-28.1,11C66.1,453.9,65.9,453.9,65.9,453.9z"/>
<path class="st1" d="M160.6,410.8c0,6.8-0.5,13.6-1.5,20.4c-0.2,1.5-0.4,2.9-0.7,4.4c-0.4,2.5-1.8,4.7-3.9,6.1
	c-0.5,0.3-1,0.5-1.6,0.7c-0.5,0.1-1.1,0.2-1.6,0.2c-2.4-0.1-4.6-1.4-5.9-3.4c-18.9-29.5-48.1-35.5-86.2-35.3
	c-34.5,0.1-60.4,2-78.8,25.6c-1.7,2.4-4.9,3.4-7.7,2.3c-2.9-1.3-4.8-4.2-5-7.4c-0.4-4.4-0.6-8.7-0.6-12.9l-0.3-133.8
	c0-0.2,0-0.5,0-0.7v-0.2c0-0.1,0-0.2,0-0.2c0-11.1,3.7-21.7,10.4-30.9c15.9-22.2,48.2-37.4,85.4-37.4c35.5,0,66.6,13.8,83.1,34.4
	c6.4,7.7,10.5,16.9,12.1,26.8c1.6,1.8,2.4,4.1,2.4,6.4v0.3c0,0.3,0,0.6,0,0.9L160.6,410.8z"/>
<path class="st18" d="M32.4,376.6c0-7.4-6-13.3-13.4-13.3c-7.4,0-13.3,6-13.3,13.4s6,13.3,13.4,13.3
	C26.4,389.9,32.4,383.9,32.4,376.6z"/>
<path class="st2" d="M34.8,355.4c-0.7,0-1.4-0.1-2.1-0.3l-31.4-8.3c-4.5-1.2-7.1-5.8-5.9-10.2c1.2-4.4,5.8-7.1,10.2-5.9L37,339
	c4.5,1.2,7.1,5.8,5.9,10.3C41.8,352.9,38.4,355.4,34.8,355.4L34.8,355.4z"/>
<path class="st18" d="M126.4,376.2c0-7.4-6-13.3-13.4-13.3s-13.3,6-13.3,13.4c0,7.4,6,13.3,13.4,13.3c7.3,0.1,13.2-5.8,13.3-13
	C126.4,376.4,126.4,376.2,126.4,376.2z"/>
<path class="st2" d="M97.4,355.2c-4.6,0-8.4-3.8-8.4-8.4c0-3.7,2.5-7,6.1-8l31.4-8.5c4.5-1.2,9.1,1.4,10.3,5.8
	c1.2,4.5-1.4,9.1-5.8,10.3l-31.4,8.5C98.9,355.1,98.1,355.2,97.4,355.2z"/>
<path class="st19" d="M17.1,292.2h96.4c1.2,0,2.2,1,2.2,2.2v1.2c0,1.2-1,2.2-2.2,2.2H17.1c-1.2,0-2.2-1-2.2-2.2v-1.2
	C14.9,293.2,15.9,292.2,17.1,292.2z"/>
<path class="st17" d="M32.8,424.9l0.4,0.3c0.4,0.3,0.4,0.9,0.1,1.3l-12.2,13.8c-0.3,0.4-0.9,0.4-1.3,0.1l-0.4-0.3
	c-0.4-0.3-0.4-0.9-0.1-1.3L31.5,425C31.9,424.7,32.4,424.7,32.8,424.9z"/>
<path class="st17" d="M112.4,440.2l-0.4,0.3c-0.4,0.3-1,0.3-1.3-0.1l-12.2-13.8c-0.3-0.4-0.3-1,0.1-1.3L99,425
	c0.4-0.3,1-0.3,1.3,0.1l12.2,13.8C112.8,439.2,112.8,439.8,112.4,440.2z"/>
<path class="st1" d="M145.9,242.6c-23.7,13-54.1,20.8-87.1,20.8c-30.4,0-58.6-6.6-81.4-17.8c15.8-22.2,48.2-37.4,85.4-37.4
	C98.3,208.2,129.4,222,145.9,242.6z"/>
<path class="st20" d="M-56,222.3l-0.7-0.7"/>
</svg>
