<?xml version="1.0" encoding="utf-8"?>
<!-- Generator: Adobe Illustrator 19.0.0, SVG Export Plug-In . SVG Version: 6.00 Build 0)  -->
<svg version="1.1" id="Layer_1" xmlns="http://www.w3.org/2000/svg" xmlns:xlink="http://www.w3.org/1999/xlink" x="0px" y="0px"
	 viewBox="-53 55 504 504" style="enable-background:new -53 55 504 504;" xml:space="preserve">
<style type="text/css">
	.st0{fill:#5E5F62;}
	.st1{fill:#E4C05C;}
	.st2{fill:#B19046;}
	.st3{fill:#95A5A5;}
	.st4{fill:#7F8C8D;}
	.st5{fill:#F9EAB0;}
	.st6{fill:#F0C419;}
	.st7{fill:#4E4E4E;}
	.st8{fill:#010101;}
	.st9{fill:#231F20;}
	.st10{fill:#C1282D;}
	.st11{opacity:0.64;fill:#010101;enable-background:new    ;}
	.st12{fill:#FFFFFF;}
	.st13{opacity:0.62;fill:#FFFFFF;enable-background:new    ;}
</style>
<path class="st0" d="M148.8,331.7l38.6,35.7c0,0,28.7,17,44.8,6.4c16.1-10.7-14.4-100.3-64.1-97.3S129.7,303.2,148.8,331.7z"/>
<path class="st1" d="M450.4,262.3c-0.4,6.9-4.8,12.8-11.3,15.2c-49.7,19.1-96.2,45.7-137.8,78.9c4-29-22.5-59.8-56.4-93.7
	c-33.5-33.5-64.8-61-93.7-57.6c20.4-36.6,35.8-75.9,45.6-116.7c0.8-3.3,2.6-6.3,5.1-8.6c36.4-31.6,112.2-37.6,186.7,20.9
	C450.7,149.5,452.2,231.9,450.4,262.3z"/>
<path class="st2" d="M301.4,356.5c-0.9,9.4-5,18.2-11.5,25c-8.2,7.7-18.9,12-30.1,12c1.9-1.2,3.7-2.7,5.4-4.3
	c22.6-22.6-14.2-57.1-54.5-97.5s-68.9-71.1-91.5-48.5c-2.4,2.4-4.4,5.1-6,8.1c-0.9-12.7,3.5-25.1,12.1-34.4c7-6.8,16.2-10.9,26-11.7
	c28.9-3.4,69,14.2,102.6,47.7C287.8,286.8,305.4,327.5,301.4,356.5z"/>
<path class="st3" d="M210.6,323.7c-5.8,9-14.9,25.6-24.3,42.9c-11.4,20.6-23.4,42.4-31.5,54.7c-18,26.8-31.6,51.4-58.9,69.5
	C64.3,510.8,24,510.5-7.2,490c-33.4-21.4-46.9-58.7-45.9-97.1c1.9-53.7,28.2-103.6,71.4-135.5c10-7.3,20.9-13.3,32.5-17.7
	c1.6-0.6,3.5-0.2,4.7,1.1c1.2,1.3,1.5,3.2,0.7,4.8c-10.6,21.8-18.3,45-22.8,68.9c-5,24.9-11.3,52.7-7.2,78.1
	c2.4,15.6,13.5,33.2,31.5,30.8c33.3-4.4,54.4-41.9,73-65.9c16.6-21.5,32.7-43.3,50-64.3c6.2,4.1,11.9,9,17,14.5
	c0.7,0.7,1.3,1.3,1.9,2C203.6,314,207.3,318.7,210.6,323.7z"/>
<path class="st4" d="M-53.2,392.9c3.6,23.2,27.3,79.3,92.7,82.5c50.3,2.5,83.5-53.7,117.6-102.9c14.3-20.6,32.8-50.9,48.1-70.7
	c0.7,0.7,1.7,5.4,2.3,6.1c4.2,4.6-0.1,11.1,3.1,15.8c-5.8,9-14.9,25.6-24.3,42.9c-11.3,20.6-23.4,42.4-31.5,54.7
	c-17.8,26.8-31.5,51.4-58.8,69.5c-31.5,20-71.9,19.7-103.1-0.8C-40.6,468.6-54.1,431.4-53.2,392.9z"/>
<path class="st5" d="M328,118.1c-1.7,0-3.4-0.5-4.8-1.5c-16.1-11.8-35.9-17.4-55.8-15.9c-4.8,0-8.7-3.9-8.7-8.7s3.9-8.7,8.7-8.7
	c23.3-1.6,46.5,5,65.5,18.8c3.2,2.1,4.6,6.1,3.5,9.7C335.2,115.6,331.8,118.1,328,118.1z"/>
<path class="st5" d="M241.3,100.8c0,4.8-3.9,8.7-8.7,8.7s-8.7-3.9-8.7-8.7s3.9-8.7,8.7-8.7S241.3,96,241.3,100.8z"/>
<path class="st6" d="M265.1,389.2c-1.6,1.6-3.4,3.1-5.4,4.3c-21.1,1-47.2-8.2-72.3-26.1c12.3,6.2,23.5,7.2,29.8,1.5
	c8.7-8,5.5-26.4-6.6-45.1c-3.3-5-6.9-9.7-11-14.1c-5.6-6.2-11.9-11.8-18.9-16.5c-15.6-10.6-30.8-13.8-38.6-6.7
	c-8.8,8-5.5,26.5,6.7,45.2c-22.6-27-35.3-56.6-35.7-80.4v-0.1c1.6-3,3.6-5.7,6-8.1c22.6-22.6,73.7-8.3,114,32
	S287.7,366.5,265.1,389.2z"/>
<g id="XMLID_23_">
	<path id="XMLID_21_" class="st7" d="M273.5,506.7c0,0,78.1-18.4,150.8,0c0,0-16.4-44.7-13.1-46.3c3.3-1.7,24.8-49.8,23.4-50.6
		c-1.4-0.8-20.4-41.2-22.1-42.2c-1.7-1-81.5,25.3-83,25.3c-1.6,0-34.5-25.3-39.7-25.3c-18.2-0.1-59.5,47.5-23.2,66.7l14.8,31
		L273.5,506.7z"/>
	<path id="XMLID_20_" class="st8" d="M411.2,460.4c0,0-36.1-3.3-46.3,34.9c0,0-52.9-5.5-88.8,10.8l-19-36c0,0-5.8-47-4.9-49.3
		c0.8-2.2,1.9-30.4,7.9-34.6c6-4.1,39.6-17.1,52.7-20.3c13.1-3.3,72.9,0.2,83.3,1.6c10.4,1.4,30.7,10.6,29.5,13.7
		c-1.3,3.1,14.8,28.5,14.8,28.5L411.2,460.4z"/>
	<path id="XMLID_19_" class="st9" d="M344.2,293.3L344.2,293.3c0,0-93-1-100,101c0,0,38.6-19.1,41-20.6c2.4-1.5,36.5-10,36.5-10
		l22.5,16.3l0,0l22.5-16.3c0,0,34.2,8.6,36.5,10c2.4,1.5,41,20.6,41,20.6C437.3,292.3,344.3,293.3,344.2,293.3z"/>
	<path id="XMLID_18_" class="st9" d="M344.2,333.2v108.6l-10.8-9.4c0,0,11.2-27.8-13.5-40.5s-51.3,6.2-53.1,10.3
		c0,0,0.9,20.7,27.9,27.1V557c0,0-36-23-54.4-56.9V391.9C240.3,391.9,278.1,348.7,344.2,333.2z"/>
	<path id="XMLID_17_" class="st9" d="M344.2,333.2v108.6l10.8-9.4c0,0-11.2-27.8,13.5-40.5s51.3,6.2,53.1,10.3
		c0,0-0.9,20.7-27.9,27.1V557c0,0,36-23,54.4-56.9V391.9C448,391.9,410.3,348.7,344.2,333.2z"/>
	<g id="XMLID_38_">
		<rect id="XMLID_16_" x="333.2" y="287.6" class="st9" width="22.7" height="19"/>
		<path id="XMLID_15_" class="st10" d="M328.4,195.9c3,14,4.8,34.6,4.8,34.6c-1.8-11.7-6.8-25.9-9.8-34c-10.5,1.6-16.3,4.1-16.3,4.1
			c23.4,38.8,26.1,87.1,26.1,87.1h22.7c2-31.7,25.4-87.1,25.4-87.1C359.1,194.8,341.1,194.6,328.4,195.9z"/>
	</g>
	<path id="XMLID_14_" class="st11" d="M346,437V335.5c0,0,21.8,5.3,45.8,17.3c0,0-33.4,6.2-40.2,48.2c-3.9,24.1,1.5,30.7,1.5,30.7
		L346,437z"/>
	<path id="XMLID_13_" class="st12" d="M342.9,437V335.5c0,0-11.9,3-20.9,6.4c0,0,10.5-1.5,13.1,3.8c5.9,12.3,7.9,92.2,7.9,92.2"/>
	<path id="XMLID_12_" class="st8" d="M415.4,420.9c0,0-6.8,7.7-19.3,9.8v121c0,0,10.4-5.7,19.3-14.3c0,0-11.3,3.5-11-51.1
		C404.7,460.4,407.4,430.1,415.4,420.9z"/>
	<path id="XMLID_11_" class="st12" d="M434.1,381.2c0,0,9.4,8.3,11.7,11v107c0,0-5.7,11.3-14.4,20.3c0,0,6.6-12.1,7.2-29.6
		s0-93,0-93S437.4,386.5,434.1,381.2z"/>
	<path id="XMLID_10_" class="st8" d="M364.9,337.3c0,0,32.3-3.8,27-28.9c0,0,40.9,20.1,48.6,72.9
		C440.4,381.2,414.6,353.1,364.9,337.3z"/>
	<path id="XMLID_9_" class="st8" d="M371.9,337.4c0,0,28.7-4.3,22.6-25.6c0,0,13.2,8.4,18,15c0,0-7.6-4.4-10.8-4.9
		C401.8,321.8,398.7,336.5,371.9,337.4z"/>
	<path id="XMLID_8_" class="st13" d="M297.4,327.8c-6.2,4.2-13.8,4.9-16.9,1.5c-3.2-3.3-0.7-9.4,5.4-13.6s13.8-4.9,16.9-1.5
		C306,317.6,303.6,323.7,297.4,327.8z"/>
	<path id="XMLID_7_" class="st8" d="M285.6,354.9c0,0-17.6-1.9-24.5-13.2c0,0-9.2,14.9-13.2,40.9
		C247.8,382.6,264.7,363.8,285.6,354.9z"/>
	<path id="XMLID_6_" class="st8" d="M261.3,344.9c0,0,4.4,7.1,18.8,10.5c0,0-8.4,3.4-12,6.7c0,0,0.9-3,0.9-5.5
		c0.1-5.4-8.1-7.6-11-4.7C257.9,352,260.1,346.1,261.3,344.9z"/>
	<path id="XMLID_5_" class="st8" d="M357.4,399.1c0,0,8.7-15.2,37.2-12.4c0,0,18.9,3,28,14.7c0,0-0.3,5.4-1.8,8.4
		c0,0,4.5-3.9,4.8-10.8c0,0-9-12.8-32-14.2C370.5,383.4,360.5,393.2,357.4,399.1z"/>
	<path id="XMLID_4_" class="st8" d="M330.2,399.1c0,0-8.7-15.2-37.2-12.4c0,0-18.9,3-28,14.7c0,0,0.3,5.4,1.8,8.4
		c0,0-4.5-3.9-4.8-10.8c0,0,9-12.8,32-14.2C317.2,383.4,327,393.2,330.2,399.1z"/>
	<path id="XMLID_3_" class="st12" d="M257.9,378.4c0,0-7.6,7.3-13.7,13.4v106.4c0,0,14.6,24.9,27.7,35.4c0,0-11.2-29-13.9-53.1
		c-2.7-24.1,0-83.4,0-83.4s1.5-15.2,8.7-25C266.6,372.2,260.7,375.8,257.9,378.4z"/>
	<polygon id="XMLID_2_" class="st8" points="342.9,305.6 347.7,288.1 355,288.1 355,305.6 	"/>
	<path id="XMLID_1_" class="st8" d="M335,285.8h18.2c0,0,7.7-52.2,24.6-83.1c0,0-11.5-4.1-21.9-3.9c0,0-7.9,38.4-9.2,56l-2.2-45.7
		l-4.6,57.3c0,0-6.8-31-18.8-65.9l-8.3,2.3C312.9,202.8,333.8,241.8,335,285.8z"/>
</g>
</svg>
