<svg height="504pt" viewBox="0 -27 504.82768 504" width="504pt" xmlns="http://www.w3.org/2000/svg"><path d="m202.332031 276.304688 38.617188 35.753906s28.75 17.050781 44.847656 6.386718c16.097656-10.667968-14.46875-100.421874-64.21875-97.445312s-38.347656 26.753906-19.246094 55.304688zm0 0" fill="#5e5f62"/><path d="m504.410156 206.792969c-.414062 6.871093-4.835937 12.855469-11.28125 15.273437-49.78125 19.109375-96.320312 45.777344-137.980468 79.054688 3.992187-29.070313-22.519532-59.875-56.535157-93.867188-33.585937-33.585937-64.867187-61.121094-93.851562-57.734375 20.449219-36.714843 35.804687-76.039062 45.644531-116.894531.777344-3.324219 2.566406-6.324219 5.121094-8.589844 36.445312-31.675781 112.378906-37.664062 187.007812 20.914063 62.222656 48.855469 63.699219 131.382812 61.875 161.84375zm0 0" fill="#e4c05c"/><path d="m355.148438 301.121094c-.890626 9.402344-4.960938 18.21875-11.539063 24.992187-8.164063 7.726563-18.964844 12.039063-30.199219 12.0625 1.945313-1.246093 3.746094-2.699219 5.378906-4.335937 22.648438-22.652344-14.230468-57.214844-54.585937-97.65625-40.351563-40.4375-68.988281-71.21875-91.636719-48.59375-2.410156 2.355468-4.429687 5.082031-5.988281 8.070312-.890625-12.671875 3.507813-25.144531 12.148437-34.453125 7.050782-6.816406 16.257813-10.957031 26.035157-11.714843 28.984375-3.382813 69.160156 14.230468 102.746093 47.816406 34.015626 34.042968 51.632813 74.742187 47.640626 103.8125zm0 0" fill="#b19046"/><path d="m264.203125 268.320312c-5.8125 9.023438-14.925781 25.601563-24.382813 42.957032-11.371093 20.652344-23.433593 42.519531-31.589843 54.757812-17.875 26.8125-31.5 51.460938-58.921875 69.597656-31.605469 19.988282-71.96875 19.683594-103.269532-.78125-33.410156-21.4375-46.945312-58.75-45.992187-97.28125 1.863281-53.785156 28.199219-103.773437 71.507813-135.722656 10.007812-7.328125 20.953124-13.28125 32.542968-17.703125 1.648438-.644531 3.523438-.207031 4.714844 1.101563s1.457031 3.214844.664062 4.796875c-10.648437 21.878906-18.324218 45.082031-22.824218 68.992187-5.03125 24.90625-11.28125 52.761719-7.203125 78.1875 2.429687 15.621094 13.539062 33.238282 31.503906 30.894532 33.496094-4.339844 54.582031-41.914063 73.242187-66.039063 16.660157-21.523437 32.714844-43.390625 50.070313-64.390625 6.214844 4.148438 11.925781 9.011719 17.007813 14.492188.695312.695312 1.300781 1.300781 1.910156 1.996093 4.058594 4.398438 7.746094 9.132813 11.019531 14.144531zm0 0" fill="#95a5a5"/><path d="m.046875 337.570312c3.644531 23.257813 27.335937 79.402344 92.855469 82.65625 50.332031 2.5 83.59375-53.800781 117.742187-103.09375 14.300781-20.644531 32.863281-50.957031 48.222657-70.828124.695312.695312 1.675781 5.457031 2.28125 6.152343 4.253906 4.597657-.050782 11.089844 3.074218 15.863281-5.816406 9.023438-14.925781 25.601563-24.386718 42.957032-11.367188 20.652344-23.429688 42.519531-31.585938 54.757812-17.878906 26.8125-31.503906 51.460938-58.925781 69.597656-31.601563 19.988282-71.96875 19.683594-103.265625-.78125-33.429688-21.4375-46.964844-58.75-46.011719-97.28125zm0 0" fill="#7f8c8d"/><path d="m381.789062 62.339844c-1.714843-.003906-3.390624-.511719-4.816406-1.464844-16.132812-11.832031-35.984375-17.472656-55.925781-15.890625-4.792969 0-8.679687-3.886719-8.679687-8.679687 0-4.792969 3.886718-8.675782 8.679687-8.675782 23.382813-1.605468 46.585937 5.046875 65.570313 18.796875 3.199218 2.117188 4.628906 6.082031 3.515624 9.753907-1.113281 3.671874-4.503906 6.175781-8.34375 6.160156zm0 0" fill="#f9eab0"/><path d="m295.011719 44.984375c0 4.792969-3.886719 8.675781-8.679688 8.675781s-8.675781-3.882812-8.675781-8.675781 3.882812-8.679687 8.675781-8.679687 8.679688 3.886718 8.679688 8.679687zm0 0" fill="#f9eab0"/><path d="m318.789062 333.839844c-1.632812 1.636718-3.433593 3.089844-5.378906 4.335937-21.089844 1.042969-47.296875-8.242187-72.460937-26.117187 12.320312 6.246094 23.515625 7.199218 29.851562 1.472656 8.761719-7.984375 5.550781-26.46875-6.597656-45.210938-3.273437-5.011718-6.960937-9.746093-11.019531-14.144531-5.605469-6.253906-11.957032-11.792969-18.917969-16.488281-15.621094-10.585938-30.808594-13.796875-38.617187-6.683594-8.765626 7.984375-5.46875 26.554688 6.683593 45.300782-22.652343-27.078126-35.320312-56.667969-35.753906-80.53125v-.089844c1.558594-2.988282 3.578125-5.710938 5.988281-8.070313 22.648438-22.648437 73.847656-8.328125 114.199219 32.023438 40.355469 40.351562 54.671875 91.550781 32.023437 114.203125zm0 0" fill="#f0c419"/></svg>