<?xml version="1.0" encoding="iso-8859-1"?>
<!-- Generator: Adobe Illustrator 19.0.0, SVG Export Plug-In . SVG Version: 6.00 Build 0)  -->
<svg version="1.1" id="Capa_1" xmlns="http://www.w3.org/2000/svg" xmlns:xlink="http://www.w3.org/1999/xlink" x="0px" y="0px"
	 viewBox="0 0 512.001 512.001" style="enable-background:new 0 0 512.001 512.001;" xml:space="preserve">
<path style="fill:#AA785F;" d="M181.678,49.548v113.8c0,11.828,4.231,23.265,11.928,32.246l25.691,29.973
	c7.697,8.98,11.928,20.418,11.928,32.246V470.71h49.548V257.813c0-11.828,4.231-23.265,11.928-32.246l25.691-29.973
	c7.697-8.98,11.928-20.418,11.928-32.246v-113.8"/>
<path style="fill:#96695A;" d="M239.485,66.065h90.839V41.29H181.678v122.058c0,11.828,4.231,23.265,11.928,32.245l25.692,29.973
	c7.697,8.98,11.928,20.418,11.928,32.245V470.71h33.032V305.548c0-4.561,3.697-8.258,8.258-8.258h8.258v-39.477
	c0-6.341,1.303-12.532,3.617-18.329h-21.239c-0.806-5.019-2.177-9.752-4.756-13.917l-18.555-29.973
	c-5.559-8.98-8.615-20.418-8.615-32.245V74.323C231.227,69.762,234.924,66.065,239.485,66.065z"/>
<g>
	<path style="fill:#C38767;" d="M297.291,107.355c-4.565,0-8.258-3.694-8.258-8.258V82.581c0-4.565,3.694-8.258,8.258-8.258
		s8.258,3.694,8.258,8.258v16.516C305.549,103.661,301.856,107.355,297.291,107.355z"/>
	<path style="fill:#C38767;" d="M286.816,189.935c-1.911,0-3.823-0.653-5.379-1.992c-3.46-2.968-3.855-8.185-0.887-11.645
		l6.508-7.581c1.274-1.484,1.976-3.395,1.976-5.371v-31.218c0-4.565,3.694-8.258,8.258-8.258s8.258,3.694,8.258,8.258v31.218
		c0,5.911-2.113,11.637-5.952,16.121l-6.516,7.589C291.445,188.96,289.138,189.935,286.816,189.935z"/>
</g>
<path style="fill:#5B5D6E;" d="M282.263,470.71h-52.525c-3.936,0-7.326,2.779-8.098,6.639l-4.955,24.774
	c-1.022,5.11,2.886,9.878,8.098,9.878h62.434c5.211,0,9.12-4.768,8.098-9.878l-4.955-24.774
	C289.589,473.488,286.2,470.71,282.263,470.71z"/>
<path style="fill:#825A50;" d="M338.582,49.548H173.42c-4.561,0-8.258-3.697-8.258-8.258V8.258c0-4.561,3.697-8.258,8.258-8.258
	h165.161c4.561,0,8.258,3.697,8.258,8.258V41.29C346.84,45.851,343.142,49.548,338.582,49.548z"/>
<path style="fill:#694641;" d="M222.969,41.29V8.258c0-4.561,3.697-8.258,8.258-8.258h-57.806c-4.561,0-8.258,3.697-8.258,8.258
	V41.29c0,4.56,3.697,8.258,8.258,8.258h57.806C226.666,49.548,222.969,45.851,222.969,41.29z"/>
<path style="fill:#5B5D6E;" d="M280.775,280.774h-49.548c-4.561,0-8.258-3.697-8.258-8.258l0,0c0-4.561,3.697-8.258,8.258-8.258
	h49.548c4.561,0,8.258,3.697,8.258,8.258l0,0C289.033,277.077,285.336,280.774,280.775,280.774z"/>
<g>
	<path style="fill:#464655;" d="M249.253,272.516c0-4.561,3.697-8.258,8.258-8.258h-26.284c-4.561,0-8.258,3.697-8.258,8.258
		c0,4.56,3.697,8.258,8.258,8.258h26.284C252.95,280.774,249.253,277.077,249.253,272.516z"/>
	<path style="fill:#464655;" d="M243.273,502.122l4.955-24.774c0.772-3.86,4.161-6.639,8.097-6.639h-26.586
		c-3.936,0-7.326,2.778-8.098,6.639l-4.955,24.774c-1.022,5.11,2.887,9.878,8.098,9.878h26.587
		C246.159,512,242.25,507.232,243.273,502.122z"/>
</g>
<path style="fill:#5B5D6E;" d="M284.149,247.742h-56.296c-4.561,0-8.258-3.697-8.258-8.258l0,0c0-4.561,3.697-8.258,8.258-8.258
	h56.296c4.561,0,8.258,3.697,8.258,8.258l0,0C292.407,244.045,288.71,247.742,284.149,247.742z"/>
<path style="fill:#464655;" d="M249.253,239.484c0-4.561,3.697-8.258,8.258-8.258h-29.658c-4.561,0-8.258,3.697-8.258,8.258
	c0,4.56,3.697,8.258,8.258,8.258h29.658C252.95,247.742,249.253,244.044,249.253,239.484z"/>
<g>
</g>
<g>
</g>
<g>
</g>
<g>
</g>
<g>
</g>
<g>
</g>
<g>
</g>
<g>
</g>
<g>
</g>
<g>
</g>
<g>
</g>
<g>
</g>
<g>
</g>
<g>
</g>
<g>
</g>
</svg>
