<?xml version="1.0" encoding="utf-8"?>
<!-- Generator: Adobe Illustrator 19.0.0, SVG Export Plug-In . SVG Version: 6.00 Build 0)  -->
<svg version="1.1" id="Layer_1" xmlns="http://www.w3.org/2000/svg" xmlns:xlink="http://www.w3.org/1999/xlink" x="0px" y="0px"
	 viewBox="-53 55 504 504" style="enable-background:new -53 55 504 504;" xml:space="preserve">
<style type="text/css">
	.st0{fill:#4E4E4E;}
	.st1{fill:#010101;}
	.st2{fill:#231F20;}
	.st3{fill:#C1282D;}
	.st4{opacity:0.64;fill:#010101;enable-background:new    ;}
	.st5{fill:#FFFFFF;}
	.st6{opacity:0.62;fill:#FFFFFF;enable-background:new    ;}
	.st7{fill:#AA785F;}
	.st8{fill:#96695A;}
	.st9{fill:#C38767;}
	.st10{fill:#5B5D6E;}
	.st11{fill:#825A50;}
	.st12{fill:#694641;}
	.st13{fill:#464655;}
</style>
<g id="XMLID_23_">
	<path id="XMLID_21_" class="st0" d="M273.5,506.7c0,0,78.1-18.4,150.8,0c0,0-16.4-44.7-13.1-46.3c3.3-1.7,24.8-49.8,23.4-50.6
		c-1.4-0.8-20.4-41.2-22.1-42.2c-1.7-1-81.5,25.3-83,25.3c-1.6,0-34.5-25.3-39.7-25.3c-18.2-0.1-59.5,47.5-23.2,66.7l14.8,31
		L273.5,506.7z"/>
	<path id="XMLID_20_" class="st1" d="M411.2,460.4c0,0-36.1-3.3-46.3,34.9c0,0-52.9-5.5-88.8,10.8l-19-36c0,0-5.8-47-4.9-49.3
		c0.8-2.2,1.9-30.4,7.9-34.6c6-4.1,39.6-17.1,52.7-20.3c13.1-3.3,72.9,0.2,83.3,1.6c10.4,1.4,30.7,10.6,29.5,13.7
		c-1.3,3.1,14.8,28.5,14.8,28.5L411.2,460.4z"/>
	<path id="XMLID_19_" class="st2" d="M344.2,293.3L344.2,293.3c0,0-93-1-100,101c0,0,38.6-19.1,41-20.6c2.4-1.5,36.5-10,36.5-10
		l22.5,16.3l0,0l22.5-16.3c0,0,34.2,8.6,36.5,10c2.4,1.5,41,20.6,41,20.6C437.3,292.3,344.3,293.3,344.2,293.3z"/>
	<path id="XMLID_18_" class="st2" d="M344.2,333.2v108.6l-10.8-9.4c0,0,11.2-27.8-13.5-40.5s-51.3,6.2-53.1,10.3
		c0,0,0.9,20.7,27.9,27.1V557c0,0-36-23-54.4-56.9V391.9C240.3,391.9,278.1,348.7,344.2,333.2z"/>
	<path id="XMLID_17_" class="st2" d="M344.2,333.2v108.6l10.8-9.4c0,0-11.2-27.8,13.5-40.5s51.3,6.2,53.1,10.3
		c0,0-0.9,20.7-27.9,27.1V557c0,0,36-23,54.4-56.9V391.9C448,391.9,410.3,348.7,344.2,333.2z"/>
	<g id="XMLID_38_">
		<rect id="XMLID_16_" x="333.2" y="287.6" class="st2" width="22.7" height="19"/>
		<path id="XMLID_15_" class="st3" d="M328.4,195.9c3,14,4.8,34.6,4.8,34.6c-1.8-11.7-6.8-25.9-9.8-34c-10.5,1.6-16.3,4.1-16.3,4.1
			c23.4,38.8,26.1,87.1,26.1,87.1h22.7c2-31.7,25.4-87.1,25.4-87.1C359.1,194.8,341.1,194.6,328.4,195.9z"/>
	</g>
	<path id="XMLID_14_" class="st4" d="M346,437V335.5c0,0,21.8,5.3,45.8,17.3c0,0-33.4,6.2-40.2,48.2c-3.9,24.1,1.5,30.7,1.5,30.7
		L346,437z"/>
	<path id="XMLID_13_" class="st5" d="M342.9,437V335.5c0,0-11.9,3-20.9,6.4c0,0,10.5-1.5,13.1,3.8c5.9,12.3,7.9,92.2,7.9,92.2"/>
	<path id="XMLID_12_" class="st1" d="M415.4,420.9c0,0-6.8,7.7-19.3,9.8v121c0,0,10.4-5.7,19.3-14.3c0,0-11.3,3.5-11-51.1
		C404.7,460.4,407.4,430.1,415.4,420.9z"/>
	<path id="XMLID_11_" class="st5" d="M434.1,381.2c0,0,9.4,8.3,11.7,11v107c0,0-5.7,11.3-14.4,20.3c0,0,6.6-12.1,7.2-29.6s0-93,0-93
		S437.4,386.5,434.1,381.2z"/>
	<path id="XMLID_10_" class="st1" d="M364.9,337.3c0,0,32.3-3.8,27-28.9c0,0,40.9,20.1,48.6,72.9
		C440.4,381.2,414.6,353.1,364.9,337.3z"/>
	<path id="XMLID_9_" class="st1" d="M371.9,337.4c0,0,28.7-4.3,22.6-25.6c0,0,13.2,8.4,18,15c0,0-7.6-4.4-10.8-4.9
		C401.8,321.8,398.7,336.5,371.9,337.4z"/>
	<path id="XMLID_8_" class="st6" d="M297.4,327.8c-6.2,4.2-13.8,4.9-16.9,1.5c-3.2-3.3-0.7-9.4,5.4-13.6s13.8-4.9,16.9-1.5
		C306,317.6,303.6,323.7,297.4,327.8z"/>
	<path id="XMLID_7_" class="st1" d="M285.6,354.9c0,0-17.6-1.9-24.5-13.2c0,0-9.2,14.9-13.2,40.9
		C247.8,382.6,264.7,363.8,285.6,354.9z"/>
	<path id="XMLID_6_" class="st1" d="M261.3,344.9c0,0,4.4,7.1,18.8,10.5c0,0-8.4,3.4-12,6.7c0,0,0.9-3,0.9-5.5
		c0.1-5.4-8.1-7.6-11-4.7C257.9,352,260.1,346.1,261.3,344.9z"/>
	<path id="XMLID_5_" class="st1" d="M357.4,399.1c0,0,8.7-15.2,37.2-12.4c0,0,18.9,3,28,14.7c0,0-0.3,5.4-1.8,8.4
		c0,0,4.5-3.9,4.8-10.8c0,0-9-12.8-32-14.2C370.5,383.4,360.5,393.2,357.4,399.1z"/>
	<path id="XMLID_4_" class="st1" d="M330.2,399.1c0,0-8.7-15.2-37.2-12.4c0,0-18.9,3-28,14.7c0,0,0.3,5.4,1.8,8.4
		c0,0-4.5-3.9-4.8-10.8c0,0,9-12.8,32-14.2C317.2,383.4,327,393.2,330.2,399.1z"/>
	<path id="XMLID_3_" class="st5" d="M257.9,378.4c0,0-7.6,7.3-13.7,13.4v106.4c0,0,14.6,24.9,27.7,35.4c0,0-11.2-29-13.9-53.1
		c-2.7-24.1,0-83.4,0-83.4s1.5-15.2,8.7-25C266.6,372.2,260.7,375.8,257.9,378.4z"/>
	<polygon id="XMLID_2_" class="st1" points="342.9,305.6 347.7,288.1 355,288.1 355,305.6 	"/>
	<path id="XMLID_1_" class="st1" d="M335,285.8h18.2c0,0,7.7-52.2,24.6-83.1c0,0-11.5-4.1-21.9-3.9c0,0-7.9,38.4-9.2,56l-2.2-45.7
		l-4.6,57.3c0,0-6.8-31-18.8-65.9l-8.3,2.3C312.9,202.8,333.8,241.8,335,285.8z"/>
</g>
<path class="st7" d="M23.1,104.4v111.3c0,11.5,4.1,22.8,11.6,31.5l25.1,29.4c7.5,8.8,11.6,20,11.6,31.5v208.3H120V308.2
	c0-11.5,4.1-22.8,11.6-31.5l25.1-29.4c7.5-8.8,11.6-20,11.6-31.5V104.4"/>
<path class="st8" d="M79.7,120.7h88.8V96.4H23.1v119.5c0,11.5,4.1,22.8,11.6,31.5l25.1,29.4c7.5,8.8,11.6,20,11.6,31.5v208.3h32.3
	V354.9c0-4.5,3.6-8.1,8.1-8.1h8.1v-38.6c0-6.2,1.3-12.2,3.5-17.9h-20.8c-0.8-4.9-2.2-9.6-4.7-13.6l-18.2-29.4
	c-5.5-8.8-8.4-20-8.4-31.5v-87.1C71.5,124.3,75.2,120.7,79.7,120.7z"/>
<g>
	<path class="st9" d="M136.2,161.1c-4.5,0-8.1-3.6-8.1-8.1v-16.1c0-4.5,3.6-8.1,8.1-8.1s8.1,3.6,8.1,8.1V153
		C144.2,157.5,140.6,161.1,136.2,161.1z"/>
	<path class="st9" d="M125.9,241.8c-1.9,0-3.7-0.7-5.3-2c-3.4-2.9-3.8-8-0.9-11.3l6.4-7.4c1.3-1.5,2-3.3,2-5.3v-30.5
		c0-4.5,3.6-8.1,8.1-8.1s8.1,3.6,8.1,8.1v30.5c0,5.8-2.1,11.3-5.9,15.8l-6.4,7.4C130.4,240.9,128.2,241.8,125.9,241.8z"/>
</g>
<path class="st10" d="M121.4,516.5H70.1c-3.8,0-7.1,2.7-7.9,6.5l-4.9,24.3c-1,5,2.8,9.7,7.9,9.7h61.1c5.1,0,8.9-4.7,7.9-9.7
	l-4.9-24.3C128.7,519.3,125.3,516.5,121.4,516.5z"/>
<path class="st11" d="M176.6,104.4H15c-4.5,0-8.1-3.6-8.1-8.1V64c0-4.5,3.6-8.1,8.1-8.1h161.6c4.5,0,8.1,3.6,8.1,8.1v32.3
	C184.6,100.8,181,104.4,176.6,104.4z"/>
<path class="st12" d="M63.4,96.4V64.1c0-4.5,3.6-8.1,8.1-8.1H15c-4.5,0-8.1,3.6-8.1,8.1v32.3c0,4.5,3.6,8.1,8.1,8.1h56.6
	C67,104.4,63.4,100.8,63.4,96.4z"/>
<path class="st10" d="M120.1,330.7H71.5c-4.5,0-8.1-3.6-8.1-8.1l0,0c0-4.5,3.6-8.1,8.1-8.1H120c4.5,0,8.1,3.6,8.1,8.1l0,0
	C128.1,327.1,124.5,330.7,120.1,330.7z"/>
<g>
	<path class="st13" d="M89.1,322.6c0-4.5,3.6-8.1,8.1-8.1H71.5c-4.5,0-8.1,3.6-8.1,8.1c0,4.5,3.6,8.1,8.1,8.1h25.7
		C92.8,330.7,89.1,327.1,89.1,322.6z"/>
	<path class="st13" d="M83.4,547.3l4.9-24.3c0.8-3.8,4.1-6.5,7.9-6.5H70.1c-3.8,0-7.1,2.7-7.9,6.5l-4.9,24.3c-1,5,2.8,9.7,7.9,9.7
		h26C86.1,557,82.3,552.3,83.4,547.3z"/>
</g>
<path class="st10" d="M123.3,298.4H68.2c-4.5,0-8.1-3.6-8.1-8.1l0,0c0-4.5,3.6-8.1,8.1-8.1h55.1c4.5,0,8.1,3.6,8.1,8.1l0,0
	C131.4,294.7,127.8,298.4,123.3,298.4z"/>
<path class="st13" d="M89.1,290.3c0-4.5,3.6-8.1,8.1-8.1H68.2c-4.5,0-8.1,3.6-8.1,8.1c0,4.5,3.6,8.1,8.1,8.1h29.1
	C92.8,298.4,89.1,294.7,89.1,290.3z"/>
</svg>
