<svg height="480pt" viewBox="0 0 480 480" width="480pt" xmlns="http://www.w3.org/2000/svg"><path d="m392 64c0 17.671875-14.328125 32-32 32s-32-14.328125-32-32 14.328125-32 32-32 32 14.328125 32 32zm0 0" fill="#5789d6"/><path d="m392 160h16v72h-16zm0 0" fill="#444a53"/><path d="m392 160h8v72h-8zm0 0" fill="#666d77"/><path d="m72 88h16v64h-16zm0 0" fill="#444a53"/><path d="m72 88h8v64h-8zm0 0" fill="#666d77"/><path d="m120 416h240v32h-240zm0 0" fill="#666d77"/><path d="m0 448h480v32h-480zm0 0" fill="#444a53"/><path d="m256 56v360h-32v-360" fill="#7c4a49"/><path d="m240 56v360h-16v-360" fill="#8d5655"/><path d="m416 176 8-32-352-80-8 32zm0 0" fill="#7c4a49"/><path d="m272 32c0 17.671875-14.328125 32-32 32s-32-14.328125-32-32 14.328125-32 32-32 32 14.328125 32 32zm0 0" fill="#7c4a49"/><path d="m256 32c0 8.835938-7.164062 16-16 16s-16-7.164062-16-16 7.164062-16 16-16 16 7.164062 16 16zm0 0" fill="#8d5655"/><path d="m40 400c0 8.835938-7.164062 16-16 16s-16-7.164062-16-16 7.164062-16 16-16 16 7.164062 16 16zm0 0" fill="#5789d6"/><path d="m32 400c0 4.417969-3.582031 8-8 8s-8-3.582031-8-8 3.582031-8 8-8 8 3.582031 8 8zm0 0" fill="#699ce6"/><path d="m112 336c0 17.671875-14.328125 32-32 32s-32-14.328125-32-32 14.328125-32 32-32 32 14.328125 32 32zm0 0" fill="#5789d6"/><path d="m104 336c0 13.253906-10.746094 24-24 24s-24-10.746094-24-24 10.746094-24 24-24 24 10.746094 24 24zm0 0" fill="#699ce6"/><path d="m384 64c0 13.253906-10.746094 24-24 24s-24-10.746094-24-24 10.746094-24 24-24 24 10.746094 24 24zm0 0" fill="#699ce6"/><path d="m480 24c0 13.253906-10.746094 24-24 24s-24-10.746094-24-24 10.746094-24 24-24 24 10.746094 24 24zm0 0" fill="#5789d6"/><path d="m472 24c0 8.835938-7.164062 16-16 16s-16-7.164062-16-16 7.164062-16 16-16 16 7.164062 16 16zm0 0" fill="#699ce6"/><path d="m144 208c0 35.347656-28.652344 64-64 64s-64-28.652344-64-64 28.652344-64 64-64 64 28.652344 64 64zm0 0" fill="#ca5057"/><path d="m464 288c0 35.347656-28.652344 64-64 64s-64-28.652344-64-64 28.652344-64 64-64 64 28.652344 64 64zm0 0" fill="#98be61"/><path d="m440 288c0 22.089844-17.910156 40-40 40s-40-17.910156-40-40 17.910156-40 40-40 40 17.910156 40 40zm0 0" fill="#abd176"/><path d="m120 208c0 22.089844-17.910156 40-40 40s-40-17.910156-40-40 17.910156-40 40-40 40 17.910156 40 40zm0 0" fill="#dc6068"/><g fill="#444a53"><path d="m384 328c-2.671875 0-5.167969-1.335938-6.65625-3.558594l-16-24 13.3125-8.875 9.128906 13.691406 33.4375-53.496093 13.5625 8.476562-40 64c-1.441406 2.304688-3.945312 3.722657-6.664062 3.761719-.042969 0-.082032 0-.121094 0zm0 0"/><path d="m117.65625 181.65625-11.3125-11.3125-26.34375 26.34375-26.34375-26.34375-11.3125 11.3125 26.34375 26.34375-26.34375 26.34375 11.3125 11.3125 26.34375-26.34375 26.34375 26.34375 11.3125-11.3125-26.34375-26.34375zm0 0"/></g></svg>