<svg height="512pt" viewBox="0 0 512 512.00052" width="512pt" xmlns="http://www.w3.org/2000/svg"><path d="m254.988281 197.804688 59.210938 59.207031c5.015625 5.019531 12.796875 6 18.90625 2.386719 48.019531-28.421876 101.539062-79.1875 122.320312-99.691407 39.125-38.582031 56.574219-67.289062 56.574219-93.078125.003906-21.355468-12.273438-35.953125-21.511719-45.113281-9.1875-9.265625-23.761719-21.51953125-45.117187-21.515625-25.789063.00390625-54.496094 17.449219-93.078125 56.574219-20.503907 20.78125-71.265625 74.300781-99.691407 122.324219-3.613281 6.105468-2.632812 13.886718 2.386719 18.90625zm0 0" fill="#8c5d42"/><path d="m490.488281 21.515625c9.238281 9.160156 21.515625 23.757813 21.511719 45.113281 0 25.789063-17.449219 54.496094-56.574219 93.078125-20.78125 20.503907-74.300781 71.269531-122.320312 99.691407-6.109375 3.613281-13.890625 2.632812-18.90625-2.386719l-29.605469-29.605469zm0 0" fill="#543222"/><path d="m8.726562 364.730469 138.542969 138.542969c11.632813 11.636718 30.566407 11.636718 42.199219 0l156.363281-156.359376c28.183594-28.183593 28.183594-74.042968 0-102.226562l-78.519531-78.519531c-28.183594-28.183594-74.042969-28.183594-102.222656 0l-156.363282 156.363281c-11.632812 11.632812-11.636718 30.566406 0 42.199219zm0 0" fill="#dbdbdb"/><path d="m345.832031 244.6875c28.183594 28.183594 28.183594 74.042969 0 102.226562l-156.363281 156.359376c-11.632812 11.636718-30.566406 11.636718-42.199219 0l-69.273437-69.269532 228.574218-228.574218zm0 0" fill="#d1d1d4"/><path d="m189.46875 503.273438c-11.632812 11.636718-30.566406 11.636718-42.199219 0l-138.542969-138.542969c-11.632812-11.632813-11.632812-30.566407 0-42.199219l108.582032-108.582031 180.742187 180.742187zm0 0" fill="#ffe333"/><path d="m298.050781 394.691406-108.582031 108.582032c-11.632812 11.636718-30.566406 11.636718-42.199219 0l-69.273437-69.269532 129.683594-129.683594zm0 0" fill="#ffce00"/><path d="m117.304688 213.949219 38.828124-38.828125 180.742188 180.742187-38.828125 38.828125zm0 0" fill="#f1f1f1"/><path d="m207.675781 304.320312 38.828125-38.828124 90.371094 90.371093-38.828125 38.828125zm0 0" fill="#dfe1e5"/><path d="m113.582031 322.429688c6.070313 6.066406 6.070313 15.90625 0 21.976562l-62.589843 62.589844-21.980469-21.976563 62.59375-62.589843c6.066406-6.070313 15.90625-6.070313 21.976562 0zm0 0" fill="#feb133"/><path d="m175.277344 338.554688c6.066406 6.066406 6.066406 15.90625 0 21.976562l-85.375 85.375-21.980469-21.980469 85.375-85.371093c6.070313-6.070313 15.910156-6.070313 21.980469 0zm0 0" fill="#feb133"/><g fill="#fe9d00"><path d="m175.277344 360.53125-85.375 85.375-11.90625-11.902344 96.320312-96.320312c.328125.277344.652344.558594.960938.867187 6.066406 6.070313 6.066406 15.910157 0 21.980469zm0 0"/><path d="m189.574219 398.417969c6.070312 6.070312 6.070312 15.910156 0 21.980469l-62.589844 62.589843-21.980469-21.980469 62.589844-62.589843c6.070312-6.066407 15.910156-6.066407 21.980469 0zm0 0"/></g></svg>