<?xml version="1.0" encoding="iso-8859-1"?>
<!-- Generator: Adobe Illustrator 19.0.0, SVG Export Plug-In . SVG Version: 6.00 Build 0)  -->
<svg version="1.1" id="Capa_1" xmlns="http://www.w3.org/2000/svg" xmlns:xlink="http://www.w3.org/1999/xlink" x="0px" y="0px"
	 viewBox="0 0 512 512" style="enable-background:new 0 0 512 512;" xml:space="preserve">
<path style="fill:#FE8821;" d="M503,152.199C500.3,151,431.201,121,346,121s-153.3,30-156,31.199c-5.4,2.401-9,7.8-9,13.801v108.3
	c0,104.399,62.701,197.8,159.3,236.499c1.8,0.901,3.9,1.201,5.7,1.201s3.9-0.3,5.7-1.201c96.599-38.7,160.3-132.1,160.3-236.499V166
	C512,160,508.4,154.6,503,152.199z"/>
<path style="fill:#E5741A;" d="M512,166v108.3c0,104.399-63.701,197.8-160.3,236.499C349.9,511.7,347.8,512,346,512V121
	c85.201,0,154.3,30,157,31.199C508.4,154.6,512,160,512,166z"/>
<path style="fill:#E5E5E5;" d="M322,31.199C319.3,30,251.201,0,166,0S11.7,30,9,31.199C3.6,33.6,0,39,0,45v109.3
	c0,104.399,63.701,196.8,160.3,235.499c1.8,0.901,3.9,1.201,5.7,1.201s3.9-0.3,5.7-1.201c96.599-38.7,159.3-131.1,159.3-235.499V45
	C331,39,327.4,33.6,322,31.199z"/>
<path style="fill:#B8C7D5;" d="M331,45v109.3c0,104.399-62.701,196.8-159.3,235.499C169.9,390.7,167.8,391,166,391V0
	c85.201,0,153.3,30,156,31.199C327.4,33.6,331,39,331,45z"/>
<path style="fill:#8B8892;" d="M136,181c-8.291,0-15-6.709-15-15c0-8.276-6.724-15-15-15s-15,6.724-15,15c0,8.291-6.709,15-15,15
	s-15-6.709-15-15c0-24.814,20.186-45,45-45s45,20.186,45,45C151,174.291,144.291,181,136,181z"/>
<path style="fill:#7A869A;" d="M256,181c-8.291,0-15-6.709-15-15c0-8.276-6.724-15-15-15s-15,6.724-15,15c0,8.291-6.709,15-15,15
	s-15-6.709-15-15c0-24.814,20.186-45,45-45s45,20.186,45,45C271,174.291,264.291,181,256,181z"/>
<path style="fill:#8B8892;" d="M226,211H106c-8.401,0-15,6.599-15,15c0,41.4,33.6,75,75,75s75-33.6,75-75
	C241,217.599,234.401,211,226,211z"/>
<path style="fill:#8B432D;" d="M406,271c-24.814,0-45-20.186-45-45c0-8.291,6.709-15,15-15s15,6.709,15,15c0,8.276,6.724,15,15,15
	s15-6.724,15-15c0-8.291,6.709-15,15-15s15,6.709,15,15C451,250.814,430.814,271,406,271z"/>
<path style="fill:#A24F3D;" d="M346,301c-41.4,0-75,33.6-75,75c0,8.399,6.599,15,15,15h120c8.401,0,15-6.601,15-15
	C421,334.6,387.4,301,346,301z"/>
<path style="fill:#7A869A;" d="M241,226c0,41.4-33.6,75-75,75v-90h60C234.401,211,241,217.599,241,226z"/>
<path style="fill:#8B432D;" d="M421,376c0,8.399-6.599,15-15,15h-60v-90C387.4,301,421,334.6,421,376z"/>
<g>
</g>
<g>
</g>
<g>
</g>
<g>
</g>
<g>
</g>
<g>
</g>
<g>
</g>
<g>
</g>
<g>
</g>
<g>
</g>
<g>
</g>
<g>
</g>
<g>
</g>
<g>
</g>
<g>
</g>
</svg>
