<?xml version="1.0" encoding="UTF-8" standalone="no"?>
<!DOCTYPE svg PUBLIC "-//W3C//DTD SVG 1.1//EN" "http://www.w3.org/Graphics/SVG/1.1/DTD/svg11.dtd">
<svg version="1.1" xmlns="http://www.w3.org/2000/svg" xmlns:xlink="http://www.w3.org/1999/xlink" preserveAspectRatio="xMidYMid meet" viewBox="0 0 640 640" width="640" height="640"><defs><path d="M467.82 17.58L474.95 18.31L481.99 19.31L488.94 20.59L495.79 22.13L502.54 23.94L509.18 26L515.7 28.32L522.1 30.88L528.38 33.68L534.52 36.72L540.53 39.98L546.4 43.47L552.11 47.17L557.67 51.08L563.07 55.2L568.31 59.52L573.37 64.04L578.26 68.74L582.96 73.63L587.47 78.69L591.79 83.93L595.91 89.33L599.83 94.89L603.53 100.6L607.02 106.47L610.28 112.47L613.32 118.62L616.12 124.9L618.68 131.3L620.99 137.82L623.06 144.46L624.87 151.21L626.41 158.06L627.69 165.01L628.69 172.05L629.41 179.17L629.85 186.38L630 193.66L629.85 200.94L629.41 208.15L628.69 215.28L627.69 222.32L626.41 229.26L624.87 236.12L623.06 242.86L620.99 249.5L618.68 256.02L616.12 262.43L613.32 268.7L610.28 274.85L607.02 280.85L603.53 286.72L599.83 292.43L595.91 297.99L591.79 303.39L587.47 308.63L582.96 313.69L578.26 318.58L573.37 323.28L568.31 327.8L563.07 332.12L557.67 336.24L552.11 340.15L546.4 343.85L540.53 347.34L534.52 350.6L528.38 353.64L522.1 356.44L515.7 359L509.18 361.31L502.54 363.38L495.79 365.19L488.94 366.73L481.99 368.01L474.95 369.01L467.82 369.74L460.62 370.17L453.33 370.32L340.92 370.32L332.56 284.67L453.33 284.67L457.09 284.59L460.8 284.37L464.47 284L468.1 283.48L471.68 282.82L475.21 282.03L478.68 281.09L482.1 280.03L485.46 278.84L488.76 277.52L491.99 276.08L495.16 274.51L498.25 272.83L501.28 271.03L504.22 269.13L507.08 267.11L509.87 264.99L512.56 262.76L515.17 260.44L517.69 258.01L520.11 255.5L522.44 252.89L524.66 250.19L526.79 247.41L528.8 244.54L530.71 241.6L532.51 238.58L534.19 235.48L535.75 232.32L537.19 229.08L538.51 225.79L539.7 222.43L540.77 219.01L541.7 215.53L542.5 212L543.15 208.42L543.67 204.8L544.04 201.13L544.27 197.41L544.34 193.66L544.27 189.91L544.04 186.2L543.67 182.53L543.15 178.9L542.5 175.32L541.7 171.79L540.77 168.32L539.7 164.9L538.51 161.54L537.19 158.24L535.75 155L534.19 151.84L532.51 148.74L530.71 145.72L528.8 142.78L526.79 139.91L524.66 137.13L522.44 134.43L520.11 131.83L517.69 129.31L515.17 126.89L512.56 124.56L509.87 122.33L507.08 120.21L504.22 118.2L501.28 116.29L498.25 114.49L495.16 112.81L491.99 111.25L488.76 109.81L485.46 108.49L482.1 107.29L478.68 106.23L475.21 105.3L471.68 104.5L468.1 103.84L464.47 103.33L460.8 102.95L457.09 102.73L453.33 102.65L287.38 102.65L285.61 102.62L283.87 102.51L282.14 102.34L280.43 102.09L278.75 101.78L277.09 101.41L275.45 100.97L273.84 100.47L272.26 99.91L270.71 99.29L269.19 98.61L267.7 97.87L266.24 97.08L264.82 96.24L263.43 95.34L262.09 94.39L260.78 93.39L259.51 92.34L258.28 91.25L257.1 90.11L255.96 88.92L254.86 87.7L253.81 86.43L252.81 85.12L251.87 83.77L250.97 82.39L250.12 80.96L249.33 79.51L248.6 78.02L247.92 76.5L247.3 74.94L246.74 73.36L246.23 71.75L245.8 70.12L245.42 68.46L245.11 66.77L244.87 65.06L244.69 63.34L244.59 61.59L244.55 59.82L244.59 58.06L244.69 56.31L244.87 54.58L245.11 52.88L245.42 51.19L245.8 49.53L246.23 47.9L246.74 46.29L247.3 44.71L247.92 43.15L248.6 41.63L249.33 40.14L250.12 38.69L250.97 37.27L251.87 35.88L252.81 34.53L253.81 33.22L254.86 31.95L255.96 30.73L257.1 29.54L258.28 28.4L259.51 27.31L260.78 26.26L262.09 25.26L263.43 24.31L264.82 23.41L266.24 22.57L267.7 21.78L269.19 21.04L270.71 20.36L272.26 19.74L273.84 19.18L275.45 18.68L277.09 18.24L278.75 17.87L280.43 17.56L282.14 17.32L283.87 17.14L285.61 17.03L287.38 17L453.33 17L460.62 17.15L467.82 17.58Z" id="aGIESmRho"></path><path d="M126.77 370.32L125.45 370.35L124.14 370.43L122.84 370.56L121.56 370.74L120.3 370.97L119.06 371.25L117.83 371.58L116.62 371.96L115.44 372.38L114.27 372.85L113.13 373.35L112.01 373.91L110.92 374.5L109.86 375.13L108.82 375.81L107.81 376.52L106.82 377.27L105.87 378.05L104.95 378.87L104.06 379.73L103.21 380.62L102.39 381.54L101.6 382.49L100.85 383.47L100.14 384.48L99.47 385.52L98.83 386.59L98.24 387.68L97.69 388.8L97.18 389.94L96.71 391.1L96.29 392.29L95.92 393.5L95.59 394.72L95.31 395.97L95.08 397.23L94.89 398.51L94.76 399.81L94.68 401.12L94.66 402.44L94.68 403.77L94.76 405.08L94.89 406.37L95.08 407.65L95.31 408.92L95.59 410.16L95.92 411.39L96.29 412.6L96.71 413.78L97.18 414.95L97.69 416.09L98.24 417.2L98.83 418.3L99.47 419.36L100.14 420.4L100.85 421.41L101.6 422.4L102.39 423.35L103.21 424.27L104.06 425.16L104.95 426.01L105.87 426.83L106.82 427.62L107.81 428.37L108.82 429.08L109.86 429.75L110.92 430.39L112.01 430.98L113.13 431.53L114.27 432.04L115.44 432.51L116.62 432.93L117.83 433.3L119.06 433.63L120.3 433.91L121.56 434.15L122.84 434.33L124.14 434.46L125.45 434.54L126.77 434.57L291.45 466.68L351.51 478.46L565.76 520.22L126.77 520.22L121.92 520.12L117.11 519.83L112.36 519.35L107.67 518.68L103.04 517.83L98.47 516.8L93.97 515.59L89.55 514.22L85.2 512.67L80.93 510.96L76.75 509.1L72.65 507.07L68.65 504.9L64.74 502.57L60.93 500.11L57.22 497.5L53.62 494.75L50.13 491.87L46.75 488.86L43.5 485.72L40.36 482.47L37.35 479.09L34.47 475.6L31.72 472L29.11 468.29L26.65 464.48L24.32 460.57L22.15 456.57L20.12 452.47L18.26 448.29L16.55 444.02L15 439.67L13.63 435.24L12.42 430.75L11.39 426.18L10.54 421.55L9.87 416.85L9.39 412.1L9.1 407.3L9 402.44L9.1 397.59L9.39 392.78L9.87 388.03L10.54 383.34L11.39 378.71L12.42 374.14L13.63 369.64L15 365.22L16.55 360.87L18.26 356.6L20.12 352.42L22.15 348.32L24.32 344.31L26.65 340.41L29.11 336.59L31.72 332.89L34.47 329.29L37.35 325.8L40.36 322.42L43.5 319.16L46.75 316.03L50.13 313.02L53.62 310.14L57.22 307.39L60.93 304.78L64.74 302.32L68.65 299.99L72.65 297.82L76.75 295.79L80.93 293.93L85.2 292.22L89.55 290.67L93.97 289.3L98.47 288.09L103.04 287.06L107.67 286.21L112.36 285.54L117.11 285.06L121.92 284.77L126.77 284.67L301.3 284.67L298.08 370.32L126.77 370.32Z" id="a1bbtrrqMB"></path><path d="M500.92 178.54L500.17 184.44L499.14 190.37L497.82 196.33L496.23 202.29L494.37 208.27L492.24 214.23L489.85 220.18L487.22 226.09L484.33 231.97L481.2 237.8L477.84 243.57L474.25 249.26L470.44 254.88L466.4 260.4L462.16 265.83L457.71 271.14L453.06 276.32L448.21 281.38L443.18 286.29L437.96 291.04L432.57 295.63L427 300.04L421.27 304.27L415.38 308.3L409.34 312.12L403.15 315.73L396.82 319.11L390.35 322.25L383.76 325.14L377.04 327.77L370.2 330.13L363.24 332.21L356.19 334L349.03 335.48L341.77 336.66L334.43 337.51L327 338.03L319.5 338.2L312 338.03L304.57 337.51L297.23 336.66L289.97 335.48L282.81 334L275.76 332.21L268.8 330.13L261.96 327.77L255.24 325.14L248.65 322.25L242.18 319.11L235.85 315.73L229.66 312.12L223.62 308.3L217.73 304.27L212 300.04L206.43 295.63L201.04 291.04L195.82 286.29L190.79 281.38L185.94 276.32L181.29 271.14L176.84 265.83L172.6 260.4L168.56 254.88L164.75 249.26L161.16 243.57L157.8 237.8L154.67 231.97L151.78 226.09L149.15 220.18L146.76 214.23L144.63 208.27L142.77 202.29L141.18 196.33L139.86 190.37L138.83 184.44L138.08 178.54L137.63 172.69L137.48 166.89L501.52 166.89L501.37 172.69L500.92 178.54Z" id="b5lvXknJnu"></path><path d="M193.68 199.25L194.63 199.48L195.54 199.79L196.43 200.19L197.27 200.67L198.08 201.22L198.83 201.84L199.53 202.54L200.17 203.32L200.74 204.15L201.23 205.06L201.45 205.5L201.66 205.94L201.88 206.37L202.1 206.81L202.32 207.25L202.55 207.68L202.77 208.12L203 208.56L203.23 208.99L203.46 209.43L203.7 209.86L203.94 210.3L204.18 210.73L204.42 211.17L204.66 211.6L204.9 212.04L205.15 212.47L205.47 213.06L205.75 213.67L205.99 214.29L206.18 214.92L206.34 215.56L206.46 216.2L206.54 216.85L206.58 217.5L206.58 218.16L206.54 218.81L206.46 219.46L206.34 220.1L206.18 220.74L205.98 221.37L205.74 221.99L205.47 222.6L205.15 223.19L204.79 223.76L204.4 224.3L203.99 224.82L203.54 225.31L203.07 225.76L202.57 226.19L202.04 226.58L201.5 226.94L200.93 227.27L200.35 227.56L199.74 227.81L199.13 228.03L198.49 228.21L197.85 228.35L197.19 228.45L196.53 228.51L195.86 228.53L195.82 228.44L195.15 228.42L194.48 228.35L193.82 228.25L193.17 228.1L192.54 227.92L191.92 227.7L191.32 227.44L190.73 227.15L190.16 226.82L189.62 226.45L189.09 226.06L188.6 225.63L188.12 225.17L187.68 224.68L187.26 224.16L186.88 223.61L186.52 223.03L186.23 222.53L185.95 222.02L185.67 221.52L185.39 221.01L185.11 220.51L184.83 220L184.56 219.5L184.29 218.99L184.02 218.49L183.76 217.98L183.49 217.48L183.23 216.97L182.97 216.47L182.72 215.97L182.46 215.47L182.21 214.97L181.96 214.47L181.55 213.52L181.24 212.55L181.03 211.57L180.9 210.59L180.87 209.61L180.93 208.64L181.08 207.68L181.31 206.74L181.63 205.82L182.02 204.94L182.5 204.09L183.05 203.29L183.68 202.53L184.38 201.83L185.15 201.2L185.99 200.63L186.9 200.13L187.85 199.72L188.81 199.41L189.79 199.19L190.77 199.07L191.75 199.04L192.72 199.1L193.68 199.25Z" id="aHIsWgIRc"></path><path d="M219.98 237.97L220.63 238.07L221.27 238.21L221.91 238.39L222.54 238.61L223.15 238.87L223.75 239.17L224.33 239.51L224.9 239.89L225.45 240.31L225.97 240.77L226.47 241.26L226.72 241.53L226.98 241.81L227.24 242.08L227.5 242.35L227.76 242.61L228.02 242.88L228.28 243.15L228.54 243.42L228.8 243.69L229.06 243.95L229.33 244.22L229.59 244.48L229.85 244.75L230.12 245.01L230.38 245.27L230.65 245.54L230.92 245.8L231.18 246.06L231.45 246.32L231.72 246.58L231.98 246.84L232.25 247.1L232.52 247.36L232.79 247.62L233.06 247.88L233.33 248.14L233.61 248.4L233.88 248.65L234.15 248.91L234.43 249.16L234.7 249.42L234.98 249.67L235.26 249.93L235.54 250.18L235.82 250.43L236.1 250.68L236.38 250.93L236.66 251.19L236.95 251.44L237.23 251.69L237.52 251.94L237.8 252.18L238.09 252.43L238.38 252.68L238.67 252.93L238.96 253.17L239.25 253.42L239.54 253.67L239.84 253.91L240.13 254.15L240.42 254.4L240.71 254.64L241 254.88L241.3 255.12L241.59 255.36L241.89 255.59L242.18 255.83L242.48 256.07L242.77 256.31L243.07 256.54L243.37 256.78L243.67 257.01L243.97 257.24L244.27 257.48L244.57 257.71L244.87 257.94L245.17 258.17L245.48 258.4L245.78 258.63L246.09 258.86L246.39 259.09L246.7 259.32L247.01 259.54L247.32 259.77L247.63 259.99L248.07 260.33L248.48 260.69L248.88 261.06L249.25 261.45L249.61 261.86L249.94 262.29L250.24 262.72L250.53 263.18L250.79 263.64L251.02 264.12L251.23 264.6L251.42 265.1L251.58 265.6L251.72 266.11L251.83 266.63L251.92 267.16L251.98 267.69L252.02 268.22L252.02 268.75L252 269.29L251.96 269.83L251.88 270.37L251.78 270.9L251.65 271.44L251.49 271.97L251.31 272.49L251.1 273L250.86 273.49L250.6 273.97L250.32 274.43L250.02 274.87L249.7 275.3L249.36 275.71L249 276.1L248.62 276.47L248.22 276.82L247.81 277.15L247.38 277.47L246.93 277.75L246.47 278.02L246 278.27L245.52 278.49L245.02 278.68L244.52 278.86L244 279L243.47 279.13L242.94 279.22L242.4 279.29L241.85 279.33L241.3 279.35L241.02 279.34L240.75 279.33L240.48 279.31L240.21 279.28L239.94 279.25L239.67 279.21L239.4 279.16L239.13 279.11L238.87 279.05L238.61 278.98L238.35 278.91L238.09 278.83L237.83 278.75L237.58 278.66L237.33 278.56L237.08 278.46L236.83 278.35L236.59 278.24L236.35 278.12L236.11 277.99L235.87 277.85L235.64 277.71L235.41 277.57L235.19 277.42L234.97 277.26L234.62 277L234.27 276.75L233.92 276.49L233.57 276.23L233.22 275.97L232.88 275.7L232.53 275.44L232.19 275.18L231.84 274.91L231.5 274.65L231.15 274.38L230.81 274.12L230.47 273.85L230.12 273.58L229.78 273.31L229.44 273.04L229.1 272.77L228.76 272.5L228.42 272.23L228.09 271.96L227.75 271.68L227.41 271.41L227.07 271.13L226.74 270.86L226.4 270.58L226.07 270.3L225.73 270.02L225.4 269.74L225.07 269.46L224.74 269.18L224.41 268.9L224.08 268.62L223.76 268.34L223.43 268.05L223.1 267.77L222.78 267.48L222.46 267.2L222.14 266.91L221.81 266.62L221.49 266.34L221.18 266.05L220.86 265.76L220.54 265.47L220.23 265.18L219.91 264.89L219.6 264.6L219.28 264.31L218.97 264.01L218.66 263.72L218.35 263.43L218.04 263.13L217.73 262.84L217.42 262.55L217.11 262.25L216.81 261.95L216.5 261.66L216.2 261.36L215.89 261.07L215.59 260.77L215.29 260.47L214.99 260.17L214.68 259.87L214.38 259.57L214.09 259.27L213.79 258.97L213.49 258.67L213.19 258.37L212.9 258.06L212.6 257.76L212.31 257.46L212.02 257.15L211.73 256.85L211.44 256.54L211.15 256.24L210.86 255.93L210.39 255.4L209.97 254.85L209.58 254.28L209.24 253.69L208.94 253.09L208.67 252.47L208.45 251.84L208.27 251.21L208.13 250.56L208.03 249.91L207.97 249.25L207.95 248.59L207.97 247.94L208.03 247.28L208.13 246.63L208.27 245.99L208.46 245.35L208.68 244.72L208.94 244.11L209.24 243.51L209.58 242.93L209.96 242.36L210.37 241.82L210.83 241.29L211.33 240.79L211.86 240.33L212.41 239.9L212.98 239.52L213.57 239.18L214.17 238.87L214.79 238.61L215.42 238.39L216.05 238.21L216.7 238.07L217.35 237.97L218.01 237.91L218.67 237.89L219.32 237.91L219.98 237.97Z" id="b1Vz1vFDHx"></path><path d="M298.08 467.97L298.08 336.92L340.92 336.92L340.92 476.32L298.08 467.97Z" id="gu6UPoXps"></path><path d="M298.08 573.75L298.08 520.22L340.92 520.22L340.92 573.75L298.08 573.75Z" id="b74tE9XRLB"></path><path d="M418.49 573.9L420.21 574.07L421.92 574.31L423.6 574.62L425.27 575L426.9 575.44L428.51 575.94L430.09 576.5L431.64 577.12L433.17 577.8L434.66 578.53L436.11 579.32L437.53 580.17L438.92 581.07L440.27 582.02L441.58 583.01L442.85 584.06L444.07 585.16L445.26 586.3L446.4 587.48L447.49 588.71L448.54 589.98L449.54 591.29L450.49 592.63L451.39 594.02L452.23 595.44L453.02 596.9L453.76 598.39L454.44 599.91L455.06 601.46L455.62 603.04L456.12 604.65L456.56 606.29L456.93 607.95L457.24 609.63L457.49 611.34L457.66 613.07L457.77 614.81L457.8 616.58L180.31 616.58L180.35 614.81L180.45 613.07L180.63 611.34L180.87 609.63L181.18 607.95L181.56 606.29L181.99 604.65L182.49 603.04L183.06 601.46L183.68 599.91L184.36 598.39L185.09 596.9L185.88 595.44L186.73 594.02L187.63 592.63L188.57 591.29L189.57 589.98L190.62 588.71L191.71 587.48L192.85 586.3L194.04 585.16L195.27 584.06L196.54 583.01L197.84 582.02L199.19 581.07L200.58 580.17L202 579.32L203.46 578.53L204.95 577.8L206.47 577.12L208.02 576.5L209.6 575.94L211.21 575.44L212.85 575L214.51 574.62L216.19 574.31L217.9 574.07L219.62 573.9L221.37 573.79L223.14 573.75L414.97 573.75L416.74 573.79L418.49 573.9Z" id="a18kcl7kYU"></path><path d="M300.72 49.45L301.95 49.84L303.12 50.37L304.2 51.04L305.2 51.82L306.09 52.71L306.87 53.71L307.54 54.79L308.07 55.95L308.47 57.19L308.71 58.48L308.79 59.82L308.71 61.17L308.47 62.46L308.07 63.69L307.54 64.86L306.87 65.94L306.09 66.94L305.2 67.83L304.2 68.61L303.12 69.28L301.95 69.81L300.72 70.2L299.43 70.45L298.08 70.53L296.74 70.45L295.45 70.2L294.22 69.81L293.05 69.28L291.97 68.61L290.97 67.83L290.08 66.94L289.3 65.94L288.63 64.86L288.1 63.69L287.7 62.46L287.46 61.17L287.38 59.82L287.46 58.48L287.7 57.19L288.1 55.95L288.63 54.79L289.3 53.71L290.08 52.71L290.97 51.82L291.97 51.04L293.05 50.37L294.22 49.84L295.45 49.45L296.74 49.2L298.08 49.12L299.43 49.2L300.72 49.45Z" id="c1Qz1QpFAf"></path><path d="M229.16 48.04L231.86 48.14L234.38 48.26L236.69 48.39L238.78 48.54L240.64 48.68L242.25 48.82L243.59 48.95L244.65 49.06L245.42 49.15L245.87 49.21L246.16 49.24L246.44 49.28L246.73 49.33L247.01 49.38L247.29 49.45L247.57 49.52L247.84 49.59L248.12 49.68L248.39 49.77L248.65 49.87L248.91 49.98L249.17 50.09L249.43 50.21L249.68 50.33L249.93 50.46L250.18 50.6L250.42 50.75L250.66 50.9L250.89 51.06L251.12 51.22L251.34 51.39L251.56 51.56L251.78 51.74L251.99 51.93L252.2 52.12L252.4 52.32L252.59 52.52L252.79 52.73L252.97 52.95L253.15 53.16L253.33 53.39L253.49 53.62L253.66 53.85L253.81 54.09L253.96 54.33L254.11 54.58L254.25 54.83L254.38 55.09L254.51 55.35L254.62 55.62L254.74 55.88L254.84 56.16L254.94 56.43L255.03 56.7L255.11 56.98L255.18 57.25L255.25 57.53L255.3 57.81L255.35 58.09L255.4 58.37L255.43 58.65L255.46 58.93L255.48 59.22L255.49 59.5L255.5 59.78L255.5 60.06L255.49 60.34L255.47 60.62L255.45 60.9L255.42 61.18L255.38 61.46L255.33 61.74L255.28 62.02L255.22 62.29L255.15 62.57L255.08 62.84L254.99 63.11L254.91 63.38L254.81 63.64L254.71 63.91L254.59 64.17L254.48 64.43L254.35 64.68L254.22 64.93L254.08 65.18L253.93 65.43L253.78 65.68L253.62 65.92L253.45 66.15L253.28 66.39L253.1 66.61L252.91 66.84L252.72 67.05L252.53 67.26L252.32 67.47L252.12 67.67L251.91 67.86L251.69 68.05L251.47 68.23L251.25 68.4L251.02 68.57L250.79 68.73L250.55 68.88L250.31 69.03L250.07 69.17L249.82 69.31L249.57 69.44L249.32 69.56L249.06 69.68L248.8 69.79L248.54 69.89L248.27 69.98L248 70.07L247.73 70.15L247.46 70.22L247.19 70.29L246.91 70.35L246.63 70.4L246.36 70.45L246.07 70.49L245.79 70.52L245.51 70.54L245.22 70.55L244.94 70.56L244.65 70.56L244.36 70.55L244.08 70.54L243.79 70.52L243.5 70.48L243.21 70.45L241.66 70.27L239.97 70.1L238.15 69.94L236.22 69.79L234.17 69.66L232.03 69.55L229.79 69.46L227.47 69.4L225.07 69.36L222.6 69.35L220.07 69.36L217.5 69.42L214.87 69.51L212.22 69.63L209.54 69.8L206.84 70.01L204.13 70.27L201.42 70.58L198.72 70.93L196.03 71.34L193.37 71.81L190.74 72.33L188.16 72.92L185.62 73.56L183.14 74.28L180.72 75.06L178.38 75.91L176.13 76.84L173.96 77.84L171.89 78.92L169.94 80.08L168.1 81.32L166.38 82.65L164.8 84.06L163.35 85.57L162.06 87.17L160.93 88.86L159.96 90.66L159.17 92.55L158.56 94.55L158.47 94.9L158.36 95.25L158.25 95.59L158.12 95.93L157.98 96.26L157.83 96.59L157.67 96.91L157.5 97.22L157.32 97.52L157.13 97.82L156.93 98.11L156.72 98.4L156.51 98.67L156.28 98.94L156.05 99.2L155.81 99.46L155.56 99.7L155.3 99.94L155.04 100.16L154.77 100.38L154.49 100.59L154.21 100.79L153.92 100.99L153.62 101.17L153.31 101.34L153 101.5L152.69 101.66L152.37 101.8L152.04 101.93L151.71 102.05L151.38 102.17L151.04 102.27L150.69 102.35L150.35 102.43L149.99 102.5L149.64 102.55L149.28 102.6L148.92 102.63L148.56 102.65L148.19 102.65L148.12 102.65L148.06 102.65L147.99 102.65L147.92 102.65L147.86 102.65L147.79 102.65L147.73 102.65L147.66 102.64L147.59 102.64L147.53 102.64L147.46 102.63L147.4 102.63L147.33 102.62L147.27 102.62L147.2 102.61L147.13 102.6L147.07 102.6L147 102.59L146.94 102.58L146.87 102.58L146.81 102.57L146.74 102.56L146.68 102.55L146.61 102.54L146.55 102.53L146.48 102.52L146.42 102.51L146.35 102.5L146.29 102.49L146.22 102.47L146.16 102.46L146.09 102.45L146.03 102.44L145.96 102.42L145.9 102.41L145.83 102.39L145.77 102.38L145.71 102.36L145.64 102.35L145.58 102.33L145.15 102.22L144.73 102.08L144.33 101.94L143.93 101.77L143.54 101.6L143.16 101.4L142.79 101.2L142.43 100.98L142.08 100.75L141.74 100.5L141.41 100.25L141.1 99.98L140.79 99.7L140.5 99.41L140.22 99.1L139.95 98.79L139.69 98.47L139.45 98.14L139.21 97.8L139 97.45L138.79 97.09L138.6 96.73L138.42 96.36L138.26 95.98L138.11 95.6L137.98 95.21L137.86 94.81L137.76 94.41L137.67 94L137.6 93.59L137.54 93.18L137.5 92.76L137.48 92.34L137.47 91.92L137.48 91.49L137.51 91.06L137.55 90.64L137.62 90.21L137.7 89.78L137.79 89.34L138.9 85.61L140.29 82.09L141.94 78.8L143.84 75.72L145.97 72.84L148.32 70.17L150.86 67.69L153.6 65.39L156.5 63.27L159.56 61.32L162.75 59.54L166.07 57.92L169.5 56.45L173.02 55.12L176.62 53.93L180.27 52.87L183.98 51.94L187.71 51.12L191.45 50.42L195.2 49.82L198.93 49.32L202.62 48.9L206.27 48.57L209.86 48.32L213.36 48.14L216.77 48.02L220.07 47.96L223.25 47.95L226.28 47.98L229.16 48.04Z" id="bscpEBCN2"></path><path d="M139.26 49.37L139.96 49.5L140.65 49.68L141.33 49.9L141.99 50.17L142.64 50.49L143.27 50.86L143.88 51.27L144.47 51.73L145.03 52.23L145.53 52.73L146.04 53.22L146.55 53.69L147.08 54.14L147.62 54.58L148.18 55.01L148.74 55.42L149.31 55.82L149.89 56.2L150.48 56.56L151.09 56.91L151.69 57.25L152.31 57.56L152.94 57.87L153.57 58.15L154.22 58.42L154.87 58.67L155.52 58.91L156.18 59.13L156.85 59.33L157.53 59.51L158.21 59.68L158.9 59.82L159.66 59.85L160.41 59.93L161.14 60.06L161.86 60.24L162.56 60.47L163.23 60.74L163.88 61.05L164.51 61.41L165.1 61.81L165.67 62.24L166.21 62.71L166.72 63.22L167.19 63.75L167.62 64.32L168.02 64.92L168.38 65.55L168.69 66.2L168.96 66.87L169.19 67.57L169.37 68.28L169.5 69.02L169.58 69.77L169.6 70.53L169.58 71.3L169.5 72.05L169.37 72.78L169.19 73.49L168.96 74.19L168.69 74.86L168.38 75.52L168.02 76.14L167.62 76.74L167.19 77.31L166.72 77.84L166.21 78.35L165.67 78.82L165.1 79.26L164.51 79.65L163.88 80.01L163.23 80.32L162.56 80.6L161.86 80.82L161.14 81L160.41 81.13L159.66 81.21L158.9 81.24L157.47 81.08L156.05 80.87L154.64 80.62L153.24 80.33L151.85 80L150.48 79.63L149.12 79.22L147.77 78.76L146.44 78.27L145.13 77.74L143.83 77.16L142.55 76.55L141.29 75.9L140.05 75.22L138.83 74.49L137.63 73.73L136.46 72.93L135.3 72.1L134.17 71.23L133.07 70.32L131.99 69.38L130.94 68.4L129.91 67.39L129.41 66.83L128.95 66.25L128.53 65.64L128.17 65.01L127.85 64.36L127.57 63.69L127.35 63.02L127.16 62.33L127.03 61.63L126.94 60.93L126.9 60.22L126.91 59.51L126.96 58.81L127.06 58.11L127.2 57.41L127.39 56.73L127.63 56.05L127.91 55.39L128.24 54.75L128.62 54.12L129.04 53.52L129.51 52.94L130.02 52.39L130.58 51.87L131.15 51.4L131.76 50.97L132.38 50.6L133.02 50.27L133.68 49.98L134.36 49.74L135.04 49.55L135.74 49.4L136.44 49.3L137.14 49.25L137.85 49.24L138.56 49.28L139.26 49.37Z" id="a14AGUWvhR"></path></defs><g><g><g><use xlink:href="#aGIESmRho" opacity="1" fill="#71c285" fill-opacity="1"></use><g><use xlink:href="#aGIESmRho" opacity="1" fill-opacity="0" stroke="#000000" stroke-width="1" stroke-opacity="0"></use></g></g><g><use xlink:href="#a1bbtrrqMB" opacity="1" fill="#71c285" fill-opacity="1"></use><g><use xlink:href="#a1bbtrrqMB" opacity="1" fill-opacity="0" stroke="#000000" stroke-width="1" stroke-opacity="0"></use></g></g><g><use xlink:href="#b5lvXknJnu" opacity="1" fill="#b0d3f0" fill-opacity="1"></use><g><use xlink:href="#b5lvXknJnu" opacity="1" fill-opacity="0" stroke="#000000" stroke-width="1" stroke-opacity="0"></use></g></g><g><use xlink:href="#aHIsWgIRc" opacity="1" fill="#ffffff" fill-opacity="1"></use><g><use xlink:href="#aHIsWgIRc" opacity="1" fill-opacity="0" stroke="#000000" stroke-width="1" stroke-opacity="0"></use></g></g><g><use xlink:href="#b1Vz1vFDHx" opacity="1" fill="#ffffff" fill-opacity="1"></use><g><use xlink:href="#b1Vz1vFDHx" opacity="1" fill-opacity="0" stroke="#000000" stroke-width="1" stroke-opacity="0"></use></g></g><g><use xlink:href="#gu6UPoXps" opacity="1" fill="#90bae1" fill-opacity="1"></use><g><use xlink:href="#gu6UPoXps" opacity="1" fill-opacity="0" stroke="#000000" stroke-width="1" stroke-opacity="0"></use></g></g><g><use xlink:href="#b74tE9XRLB" opacity="1" fill="#90bae1" fill-opacity="1"></use><g><use xlink:href="#b74tE9XRLB" opacity="1" fill-opacity="0" stroke="#000000" stroke-width="1" stroke-opacity="0"></use></g></g><g><use xlink:href="#a18kcl7kYU" opacity="1" fill="#b0d3f0" fill-opacity="1"></use><g><use xlink:href="#a18kcl7kYU" opacity="1" fill-opacity="0" stroke="#000000" stroke-width="1" stroke-opacity="0"></use></g></g><g><use xlink:href="#c1Qz1QpFAf" opacity="1" fill="#2c2f38" fill-opacity="1"></use><g><use xlink:href="#c1Qz1QpFAf" opacity="1" fill-opacity="0" stroke="#000000" stroke-width="1" stroke-opacity="0"></use></g></g><g><use xlink:href="#bscpEBCN2" opacity="1" fill="#c03a2b" fill-opacity="1"></use><g><use xlink:href="#bscpEBCN2" opacity="1" fill-opacity="0" stroke="#000000" stroke-width="1" stroke-opacity="0"></use></g></g><g><use xlink:href="#a14AGUWvhR" opacity="1" fill="#c03a2b" fill-opacity="1"></use><g><use xlink:href="#a14AGUWvhR" opacity="1" fill-opacity="0" stroke="#000000" stroke-width="1" stroke-opacity="0"></use></g></g></g></g></svg>