<?xml version="1.0" encoding="utf-8"?>
<!-- Generator: Adobe Illustrator 23.1.0, SVG Export Plug-In . SVG Version: 6.00 Build 0)  -->
<svg version="1.1" id="Layer_1" xmlns="http://www.w3.org/2000/svg" xmlns:xlink="http://www.w3.org/1999/xlink" x="0px" y="0px"
	 viewBox="0 0 512 512" style="enable-background:new 0 0 512 512;" xml:space="preserve">
<style type="text/css">
	.st0{fill:#FED89B;}
	.st1{fill:#EAB875;}
	.st2{fill:#C68D4E;}
</style>
<g>
	<path class="st0" d="M128.3,147.4h256.3v1342.2H128.3V147.4z"/>
	<g>
		<path class="st1" d="M363.8,147.4h20.9V512h-20.9V147.4z"/>
		<path class="st1" d="M183.9,329.9c8.8,0,16,7.1,16,16V512H168V345.9C168,337.1,175.1,329.9,183.9,329.9z"/>
		<path class="st1" d="M256.5,329.9c8.8,0,16,7.1,16,16V512h-31.9V345.9C240.5,337.1,247.7,329.9,256.5,329.9z"/>
		<path class="st1" d="M329.1,329.9c8.8,0,16,7.1,16,16V512h-31.9V345.9C313.1,337.1,320.2,329.9,329.1,329.9z"/>
		<path class="st1" d="M408.8,85.2H104.2c-34.3,0-62.2,27.8-62.2,62.2s27.8,62.2,62.2,62.2s62.2-27.8,62.2-62.2h180.4
			c0,34.3,27.8,62.2,62.2,62.2s62.2-27.8,62.2-62.2C471,113.1,443.2,85.2,408.8,85.2z"/>
	</g>
	<path class="st2" d="M408.8,85.2h-23.1c34.3,0,62.2,27.8,62.2,62.2c0,30.4-21.8,55.7-50.6,61.1c3.7,0.7,7.6,1.1,11.5,1.1
		c34.3,0,62.2-27.8,62.2-62.2C471,113.1,443.2,85.2,408.8,85.2z"/>
	<path class="st2" d="M435.6,147.4c0,14.8-12,26.8-26.7,26.8s-26.7-12-26.7-26.8c0-14.8,12-26.7,26.7-26.7S435.6,132.6,435.6,147.4z
		"/>
	<path class="st2" d="M130.9,147.4c0,14.8-12,26.8-26.7,26.8s-26.7-12-26.7-26.8c0-14.8,12-26.7,26.7-26.7S130.9,132.6,130.9,147.4z
		"/>
	<path class="st0" d="M63.8,0v24.5c0,33.5,27.2,60.7,60.7,60.7h264c33.5,0,60.7-27.2,60.7-60.7V0H63.8z"/>
	<path class="st1" d="M424.5,0v24.5c0,33.5-27.2,60.7-60.7,60.7h24.7c33.5,0,60.7-27.2,60.7-60.7V0H424.5z"/>
	<path class="st1" d="M102.4,248.6h308.1c9.1,0,16.4,7.3,16.4,16.4c0,9.1-7.3,16.4-16.4,16.4H102.4C93.4,281.4,86,274,86,265
		C86,255.9,93.4,248.6,102.4,248.6z"/>
	<path class="st2" d="M410.6,248.6h-25.7c9.1,0,16.4,7.3,16.4,16.4c0,9.1-7.3,16.4-16.4,16.4h25.7c9.1,0,16.4-7.3,16.4-16.4
		C426.9,255.9,419.6,248.6,410.6,248.6z"/>
	<path class="st2" d="M324.6,206.6H188.4c-4.1,0-7.5-3.4-7.5-7.5c0-4.1,3.4-7.5,7.5-7.5h136.3c4.1,0,7.5,3.4,7.5,7.5
		C332.1,203.3,328.8,206.6,324.6,206.6z"/>
	<rect x="168" y="499.2" class="st1" width="31.9" height="990.4"/>
	<rect x="240.5" y="499.2" class="st1" width="31.4" height="990.4"/>
	<rect x="313.3" y="504.1" class="st1" width="31.4" height="985.5"/>
	<rect x="363.8" y="499.2" class="st1" width="20.9" height="990.4"/>
</g>
</svg>
