<?xml version="1.0" encoding="UTF-8" standalone="no"?>
<svg
   xmlns:dc="http://purl.org/dc/elements/1.1/"
   xmlns:cc="http://creativecommons.org/ns#"
   xmlns:rdf="http://www.w3.org/1999/02/22-rdf-syntax-ns#"
   xmlns:svg="http://www.w3.org/2000/svg"
   xmlns="http://www.w3.org/2000/svg"
   xmlns:sodipodi="http://sodipodi.sourceforge.net/DTD/sodipodi-0.dtd"
   xmlns:inkscape="http://www.inkscape.org/namespaces/inkscape"
   version="1.1"
   id="Layer_1"
   x="0px"
   y="0px"
   viewBox="0 0 494.4 494.4"
   style="enable-background:new 0 0 494.4 494.4;"
   xml:space="preserve"
   sodipodi:docname="proPraetor.svg"
   inkscape:version="1.0alpha (9dee831, 2019-01-15)"><metadata
   id="metadata1599">
  <rdf:RDF>
    <cc:Work
   rdf:about="">
      <dc:format>image/svg+xml</dc:format>

      <dc:type
   rdf:resource="http://purl.org/dc/dcmitype/StillImage" />

      <dc:title />

    </cc:Work>

  </rdf:RDF>

</metadata>

<defs
   id="defs1597" />

<sodipodi:namedview
   pagecolor="#ffffff"
   bordercolor="#666666"
   inkscape:document-rotation="0"
   borderopacity="1"
   objecttolerance="10"
   gridtolerance="10"
   guidetolerance="10"
   inkscape:pageopacity="0"
   inkscape:pageshadow="2"
   inkscape:window-width="1307"
   inkscape:window-height="702"
   id="namedview1595"
   showgrid="false"
   inkscape:zoom="1.0800971"
   inkscape:cx="247.2"
   inkscape:cy="247.2"
   inkscape:window-x="59"
   inkscape:window-y="34"
   inkscape:window-maximized="1"
   inkscape:current-layer="Layer_1" />


<path
   style="fill:#DBAB56;"
   d="M247.2,494.4c-132,0-240-108-240-240s108-240,240-240s240,108,240,240S379.2,494.4,247.2,494.4z"
   id="path1488" />


<circle
   style="fill:#EFB30C;"
   cx="247.2"
   cy="240"
   r="224.8"
   id="circle1490" />


<g
   id="g1496">
	<path
   style="fill:#E5A300;"
   d="M48.8,267.2c0-124,100.8-224.8,224.8-224.8c55.2,0,105.6,20,144.8,52.8   c-40.8-48.8-102.4-80-171.2-80C123.2,15.2,22.4,116,22.4,240c0,68.8,31.2,130.4,80,172C68.8,372.8,48.8,322.4,48.8,267.2z"
   id="path1492" />


	<path
   style="fill:#E5A300;"
   d="M406.4,81.6c88,88,88,230.4,0,318.4S176,488,88,400"
   id="path1494" />


</g>


<path
   style="fill:#F7D27F;"
   d="M247.2,480c-132,0-240-108-240-240s108-240,240-240s240,108,240,240S379.2,480,247.2,480z   M247.2,30.4c-116,0-209.6,94.4-209.6,209.6c0,116,94.4,209.6,209.6,209.6S456.8,355.2,456.8,240S363.2,30.4,247.2,30.4z"
   id="path1498" />


<path
   style="fill:#EFC273;"
   d="M487.2,240c0-60.8-22.4-116-59.2-157.6c-42.4-36.8-97.6-59.2-158.4-59.2c-40.8,0-78.4,10.4-112,28  c27.2-13.6,57.6-20.8,89.6-20.8c63.2,0,120.8,28.8,159.2,73.6c44.8,38.4,72.8,95.2,72.8,159.2c0,32-7.2,62.4-20,89.6  C476.8,319.2,487.2,280.8,487.2,240z"
   id="path1500" />


<path
   style="fill:#EAC06C;"
   d="M29.6,263.2c0,60.8,22.4,116,59.2,157.6c42.4,36.8,97.6,59.2,157.6,59.2c40.8,0,78.4-10.4,112-28  c-27.2,12.8-57.6,20-89.6,20c-63.2,0-120.8-28.8-159.2-73.6C64.8,360,36,303.2,36,239.2c0-32,7.2-62.4,20-89.6  C40,184,29.6,222.4,29.6,263.2z"
   id="path1502" />


<path
   inkscape:connector-curvature="0"
   style="fill:#e5a300"
   d="m 236.26827,94.931 c 0,7.2 -6.4,19.2 -13.6,19.2 -7.2,0 -13.6,-12 -13.6,-19.2 0,-7.2 6.4,-13.6 13.6,-13.6 7.2,0 13.6,6.4 13.6,13.6 z"
   id="path1504" />


<circle
   style="fill:#f7d27f"
   cx="222.24442"
   cy="94.178001"
   r="13.6"
   id="circle1506" />


<path
   inkscape:connector-curvature="0"
   style="fill:#efc273"
   d="m 232.18957,85.120389 c 5.6,5.6 5.6,13.6 0,19.200001 -5.6,5.6 -13.6,5.6 -19.2,0"
   id="path1508" />




<g
   id="g1564">
</g>


<g
   id="g1566">
</g>


<g
   id="g1568">
</g>


<g
   id="g1570">
</g>


<g
   id="g1572">
</g>


<g
   id="g1574">
</g>


<g
   id="g1576">
</g>


<g
   id="g1578">
</g>


<g
   id="g1580">
</g>


<g
   id="g1582">
</g>


<g
   id="g1584">
</g>


<g
   id="g1586">
</g>


<g
   id="g1588">
</g>


<g
   id="g1590">
</g>


<g
   id="g1592">
</g>


<text
   xml:space="preserve"
   style="font-size:273.334px;font-family:'URW Palladio L';-inkscape-font-specification:'URW Palladio L';fill:#ffe0a1;fill-opacity:1"
   x="175.41425"
   y="355.43076"
   id="text1603"><tspan
     sodipodi:role="line"
     id="tspan1601"
     x="175.41425"
     y="355.43076">P</tspan></text>

<path
   id="path449"
   d="m 287.68221,94.930616 c 0,7.200004 -6.4,19.200004 -13.6,19.200004 -7.2,0 -13.6,-12 -13.6,-19.200004 0,-7.2 6.4,-13.6 13.6,-13.6 7.2,0 13.6,6.4 13.6,13.6 z"
   style="fill:#e5a300"
   inkscape:connector-curvature="0" />
<circle
   id="circle455"
   r="13.6"
   cy="94.178001"
   cx="274.13388"
   style="fill:#f7d27f" />
<path
   id="path457"
   d="m 283.72557,83.949064 c 5.6,5.6 5.6,13.6 0,19.199996 -5.6,5.6 -13.6,5.6 -19.2,0"
   style="fill:#efc273"
   inkscape:connector-curvature="0" />
</svg>
