<?xml version="1.0" encoding="iso-8859-1"?>
<!-- Generator: Adobe Illustrator 19.0.0, SVG Export Plug-In . SVG Version: 6.00 Build 0)  -->
<svg version="1.1" id="Capa_1" xmlns="http://www.w3.org/2000/svg" xmlns:xlink="http://www.w3.org/1999/xlink" x="0px" y="0px"
	 viewBox="0 0 512 512" style="enable-background:new 0 0 512 512;" xml:space="preserve">
<circle style="fill:#FFF0CF;" cx="256" cy="256" r="256"/>
<circle style="fill:#FFFFFF;" cx="256" cy="256" r="231.23"/>
<path style="fill:#F5B97D;" d="M255.809,0.005c-31.376,0.023-61.418,5.714-89.193,16.066c-5.541,4.516-10.772,9.51-15.431,15.139
	c-18.258,22.056-24.637,48.427-18.944,78.379c2.024,10.625,6.484,19.552,10.806,28.181c9.153,18.294,16.379,32.746-0.694,59.407
	c-16.839,26.278-21.153,58.718-11.847,89.008c10.073,32.802,35.161,59.238,70.629,74.44c1.056,0.456,2.161,0.673,3.25,0.673
	c3.202,0,6.25-1.879,7.589-5.008c1.798-4.194-0.145-9.048-4.339-10.843c-30.927-13.258-52.718-36.028-61.339-64.113
	c-7.879-25.641-4.25-53.069,9.96-75.246c22.145-34.569,11.21-56.423,1.556-75.71c-3.984-7.972-7.758-15.504-9.347-23.875
	c-4.726-24.887,0.468-46.677,15.435-64.762C189.024,11.399,233.526,0.056,255.809,0.005z"/>
<path style="fill:#E3AA75;" d="M310.425,276.727c-128.018,47.289-116.419,80.007-116.419,80.007
	c-0.809-2.617-1.918-5.171-3.294-7.623c-5.571-9.911-15.66-16.603-26.357-18.354c-5.369-0.91-10.994-0.626-16.278,0.871
	c-2.652,0.731-5.17,1.801-7.536,3.081c-1.152,0.663-2.283,1.367-3.382,2.104l-16.036,12.819c-3.285-5.31-6.627-10.598-10.309-15.75
	c-2.736-3.81-7.451-6.024-12.418-5.322c-7.123,1.007-12.081,7.596-11.075,14.719c1.089,7.704,6.027,30.146,6.895,33.868l0.17,0.695
	l0.862,2.14c0.649,1.45,1.451,2.887,2.381,4.226c1.845,2.71,4.24,5.081,6.95,6.949c5.411,3.758,12.204,5.54,19.017,4.731
	c3.401-0.388,6.748-1.476,9.754-3.039l15.394-8.126l14.68,46.297c6.333,19.973,27.112,31.624,47.41,26.427
	c47.446-12.147,130.987-54.282,187.63-192.038c1.881-4.574,4.886-8.594,8.466-12.007L310.425,276.727z"/>
<circle style="fill:#F5B97D;" cx="338.58" cy="181.68" r="99.1"/>
<path style="fill:#B67F5F;" d="M289,196.738c-9.5,0-18.185-4.194-23.226-11.218c-2.661-3.706-1.815-8.863,1.895-11.524
	c3.702-2.653,8.863-1.819,11.524,1.895c1.5,2.093,4.871,4.331,9.806,4.331s8.306-2.238,9.806-4.331
	c2.653-3.714,7.806-4.548,11.524-1.895c3.71,2.661,4.556,7.819,1.895,11.524C307.185,192.544,298.5,196.738,289,196.738z"/>
<path style="fill:#D29B6E;" d="M292.105,226.319c-4.105-2.024-9.04-0.331-11.056,3.758c-2.597,5.266-8.556,9.258-15.548,10.419
	c-2.168,0.356-4.319,0.392-6.397,0.192c4.075,5.479,8.686,10.515,13.784,15.041c10.239-2.923,18.637-9.555,22.968-18.354
	C297.879,233.286,296.194,228.335,292.105,226.319z"/>
<path style="fill:#F5B97D;" d="M287.899,285.469c-104.075,42.531-93.894,71.264-93.894,71.264l1.013,3.178l3.562,12.569
	c2.696,9.515,12.652,14.854,22.118,11.992c21.76-6.579,60.087-25.145,94.927-76.969c3.523-5.24,0.734-12.303-5.388-13.848
	C302.448,291.689,294.976,288.932,287.899,285.469z"/>
<path style="fill:#E3AA75;" d="M260.669,297.368l-63.749-54.467c-5.243-4.489-13.119-4.624-18.531,0
	c-5.989,5.117-6.697,14.12-1.579,20.11l60.877,71.251c1.109,1.288,2.575,2.362,4.276,3.007c0,0,19.306,8.297,55.3,9.439
	l23.254-38.58C295.742,299.871,270.221,296.996,260.669,297.368z"/>
<g>
</g>
<g>
</g>
<g>
</g>
<g>
</g>
<g>
</g>
<g>
</g>
<g>
</g>
<g>
</g>
<g>
</g>
<g>
</g>
<g>
</g>
<g>
</g>
<g>
</g>
<g>
</g>
<g>
</g>
</svg>
