<?xml version="1.0" encoding="UTF-8" standalone="no"?>
<!DOCTYPE svg PUBLIC "-//W3C//DTD SVG 1.1//EN" "http://www.w3.org/Graphics/SVG/1.1/DTD/svg11.dtd">
<svg version="1.1" xmlns="http://www.w3.org/2000/svg" xmlns:xlink="http://www.w3.org/1999/xlink" preserveAspectRatio="xMidYMid meet" viewBox="0 0 640 640" width="640" height="640"><defs><path d="M610.78 17.94C604.6 20.07 573.69 30.7 518.07 49.85C519.26 47.4 519.92 46.04 520.05 45.77C523.68 38.33 520.59 29.35 513.15 25.72C505.7 22.08 496.72 25.18 493.09 32.62C492.08 34.69 487.03 45.03 477.95 63.65L209.54 156.03C211.84 151.31 213.12 148.69 213.37 148.16C217.01 140.72 213.91 131.74 206.47 128.1C199.02 124.47 190.04 127.57 186.41 135.01C185.28 137.33 179.61 148.94 169.42 169.84C75.88 202.03 23.91 219.92 13.52 223.49C5.69 226.19 1.52 234.73 4.22 242.56C5.57 246.48 8.38 249.48 11.83 251.16C15.28 252.84 19.37 253.21 23.28 251.86C24.97 251.28 33.39 248.38 48.55 243.17C67.42 252.37 77.91 257.49 80 258.51C87.45 262.14 96.43 259.05 100.06 251.6C103.69 244.16 100.6 235.18 93.15 231.54C92.86 231.4 91.36 230.67 88.67 229.36L194.33 192.99C217.77 204.42 230.78 210.77 233.39 212.04C240.83 215.67 249.81 212.58 253.45 205.14C257.08 197.69 253.99 188.71 246.54 185.08C245.73 184.69 241.71 182.72 234.45 179.18L417.9 116.05C442.4 128 456.02 134.64 458.74 135.97C466.18 139.6 475.16 136.5 478.8 129.06C482.43 121.61 479.34 112.63 471.89 109C470.97 108.55 466.34 106.3 458.03 102.24C555.54 68.68 609.71 50.04 620.54 46.31C628.38 43.61 632.54 35.07 629.85 27.24C627.15 19.41 618.61 15.24 610.78 17.94Z" id="a8i66FLozR"></path><path d="M235.2 179.18L418.65 116.05C443.15 128 456.76 134.64 459.49 135.97C466.93 139.6 475.91 136.51 479.54 129.06C483.18 121.61 480.08 112.63 472.64 109C471.71 108.55 467.09 106.3 458.77 102.24C556.28 68.68 610.46 50.04 621.29 46.31C629.12 43.61 633.28 35.09 630.6 27.26C568.04 48.8 67.57 221.13 5.01 242.67C6.37 246.53 9.16 249.49 12.57 251.16C16.02 252.84 20.12 253.21 24.03 251.86C25.72 251.28 34.14 248.38 49.29 243.17C68.17 252.37 78.65 257.49 80.75 258.51C88.2 262.14 97.18 259.05 100.81 251.6C104.44 244.16 101.35 235.18 93.9 231.54C93.6 231.4 92.11 230.67 89.42 229.36L195.08 192.99C218.51 204.42 231.53 210.77 234.14 212.04C241.58 215.67 250.56 212.58 254.19 205.14C257.83 197.69 254.73 188.71 247.29 185.08C245.68 184.29 241.65 182.33 235.2 179.18Z" id="i121JiCQHt"></path><path d="M112.38 528.5C94.14 537.4 86.56 559.4 95.46 577.65C104.36 595.89 126.36 603.47 144.6 594.57C162.84 585.67 170.42 563.67 161.52 545.43C152.62 527.18 130.62 519.61 112.38 528.5Z" id="a3Sgoqyds"></path><path d="M78.01 402.15C59.77 411.05 52.2 433.05 61.09 451.3C69.99 469.54 91.99 477.11 110.24 468.22C128.48 459.32 136.05 437.32 127.16 419.07C118.26 400.83 96.26 393.26 78.01 402.15Z" id="aslyT7IQZ"></path><path d="M141.63 527.25C150.02 530.47 157.27 536.71 161.52 545.43C163.5 549.48 164.62 553.72 165.03 557.96C174.21 561.47 184.75 561.35 194.28 556.71C212.53 547.81 220.1 525.81 211.2 507.56C202.31 489.32 180.31 481.74 162.06 490.64C147.87 497.56 140.18 512.41 141.63 527.25Z" id="a4SQIUPyYs"></path><path d="M151.19 498.87C150.57 496.04 149.69 493.23 148.37 490.51C139.47 472.26 117.47 464.69 99.22 473.59C80.98 482.48 73.41 504.48 82.3 522.73C86.02 530.34 92.03 536.07 99.08 539.54C102.47 534.99 106.94 531.16 112.38 528.5C123.01 523.32 134.89 523.76 144.73 528.61C143.72 528.11 142.68 527.66 141.63 527.25C140.62 516.87 144.16 506.54 151.19 498.87Z" id="cCyNxEIyk"></path><path d="M189.42 488.72C198.61 491.67 206.64 498.2 211.2 507.56C212.43 510.07 213.31 512.66 213.93 515.27C222.64 518.07 232.4 517.67 241.28 513.34C259.53 504.44 267.1 482.44 258.2 464.2C249.3 445.95 227.3 438.38 209.06 447.28C193.33 454.95 185.56 472.37 189.42 488.72Z" id="bg0JAccH9"></path><path d="M192.68 441.64C183.78 423.39 161.78 415.82 143.54 424.71C138.41 427.22 134.15 430.77 130.84 434.97C130.88 443.3 128.09 451.42 122.93 457.96C122.96 462.44 123.8 466.98 125.55 471.36C135.17 474.15 143.63 480.8 148.37 490.51C148.76 491.32 149.05 492.16 149.37 492.99C151.6 493.64 153.9 494.05 156.22 494.28C158.03 492.92 159.95 491.67 162.06 490.64C168.39 487.55 175.17 486.49 181.7 487.13C184.36 485.14 186.58 482.75 188.56 480.2C188.59 472.08 191.29 464.2 196.27 457.79C196.29 452.36 195.22 446.85 192.68 441.64Z" id="bfRJQzuNq"></path><path d="M182.35 395.08C184.61 405.57 182.18 416.41 175.91 424.83C175.9 424.82 175.9 424.82 175.9 424.82C182.95 428.29 188.96 434.02 192.68 441.64C194.65 445.68 195.71 449.9 196.09 454.13C196.91 454.44 197.75 454.69 198.59 454.95C201.52 451.88 205.02 449.25 209.06 447.28C217.77 443.03 227.33 442.57 235.92 445.2C246.2 434.4 249.28 417.97 242.36 403.77C233.46 385.53 211.46 377.95 193.22 386.85C188.96 388.93 185.36 391.79 182.35 395.08Z" id="bWqin8M5i"></path><path d="M243.17 405.83C248.87 419.53 245.72 434.92 235.92 445.21C235.82 445.17 235.71 445.16 235.6 445.12C245.13 447.95 253.5 454.56 258.2 464.2C258.6 465.02 258.93 465.86 259.27 466.7C267.72 469.15 277.06 468.63 285.59 464.47C303.84 455.57 311.41 433.57 302.51 415.33C293.62 397.08 271.62 389.51 253.37 398.4C249.45 400.32 246.05 402.86 243.17 405.83Z" id="bZ8V3UE1X"></path><path d="M231.73 341.53C235.75 356.11 230.36 371.74 218.22 380.75C218.58 382.05 219.04 383.34 219.54 384.63C229.16 387.42 237.62 394.06 242.36 403.77C242.75 404.57 243 405.4 243.32 406.22C243.38 405.98 249.48 400.3 253.37 398.4C262.09 394.15 271.64 393.7 280.23 396.33C290.52 385.53 293.6 369.09 286.67 354.9C277.77 336.66 255.78 329.08 237.53 337.98C235.45 339 233.52 340.2 231.73 341.53Z" id="a2joN0QTJr"></path><path d="M110.46 335.93C114.19 339.12 117.35 343.09 119.64 347.78C121.93 352.47 123.11 357.4 123.32 362.3C126.4 364.93 129.91 366.94 133.62 368.42C142.39 365.13 151.75 365.44 159.99 368.69C161.09 368.28 162.2 367.91 163.28 367.38C154.38 349.14 161.95 327.14 180.2 318.24C171.3 300 149.3 292.42 131.06 301.32C117.5 307.93 109.85 321.77 110.46 335.93Z" id="c3UdxkY6Y"></path><path d="M53.58 380C59.29 391.71 70.41 398.99 82.45 400.37C87.67 398.62 93.06 398.1 98.29 398.7C99.78 398.2 101.27 397.63 102.72 396.92C120.96 388.02 128.54 366.02 119.64 347.78C110.74 329.53 88.74 321.96 70.5 330.85C52.25 339.75 44.68 361.75 53.58 380Z" id="dtKh8VIzM"></path><path d="M165.61 371.47C165.61 371.47 165.61 371.47 165.61 371.47C155.27 365.18 142.06 364.1 130.38 369.8C126.91 371.49 123.87 373.69 121.22 376.21C119.32 381.55 116.19 386.46 111.99 390.47C110.67 394.15 109.87 398.01 109.77 401.95C117.09 405.39 123.34 411.24 127.16 419.07C129.7 424.29 130.83 429.81 130.82 435.25C130.82 435.16 130.84 435.06 130.84 434.98C134.15 430.77 138.41 427.22 143.54 424.71C154.17 419.53 166.06 419.97 175.91 424.83C183.87 414.15 185.77 399.52 179.52 386.72C178.81 385.25 177.98 383.89 177.11 382.57C172.63 379.83 168.71 376.11 165.68 371.53C165.65 371.51 165.63 371.49 165.61 371.47Z" id="a6PGGxvQQQ"></path><path d="M163.28 367.38C168.91 378.93 179.8 386.19 191.67 387.71C192.18 387.43 192.68 387.12 193.22 386.85C199.91 383.59 207.11 382.56 213.98 383.44C231.06 374.07 237.98 352.87 229.34 335.16C220.44 316.92 198.44 309.34 180.2 318.24C161.95 327.14 154.38 349.14 163.28 367.38Z" id="a6VrUu8KEx"></path><path d="M243.71 266.82C280.23 249.01 324.19 264.14 342 300.66C305.48 318.47 261.52 303.33 243.71 266.82Z" id="a9oa3kGREx"></path><path d="M196.71 310.18C236.18 290.94 249.01 235.76 225.32 187.19C226.42 186.66 235.23 182.36 236.33 181.82C262.98 236.46 247.62 298.99 202.08 321.2C201.01 318.99 197.25 311.29 196.71 310.18Z" id="b38JWhqsJi"></path><path d="M307.86 198.29C307.08 195.9 309.56 193.74 311.84 194.81C322.37 199.76 341.2 204.59 352.01 183.39C353.27 180.93 356.93 181.49 357.42 184.22C359.67 196.63 366.75 213.8 388.63 215.01C391.24 215.15 392.31 218.45 390.28 220.11C380.38 228.21 364.72 244.55 369.69 263.9C370.16 265.72 368.78 267.5 366.89 267.49C357.83 267.45 335.45 269.12 320.97 285.41C319.23 287.37 315.99 286.11 315.96 283.49C315.85 273.67 312.58 259.03 296.94 247.15C295.66 246.18 295.45 244.34 296.44 243.08C301.5 236.65 314.3 217.78 307.86 198.29Z" id="bVdQssykn"></path><path d="M347.01 213.3L347.21 213.32L347.41 213.35L347.61 213.39L347.81 213.43L348.01 213.48L348.2 213.54L348.39 213.61L348.59 213.68L348.77 213.76L348.96 213.85L349.14 213.95L349.32 214.05L349.5 214.17L349.67 214.29L349.84 214.42L350.01 214.55L350.17 214.7L350.32 214.85L350.47 215L350.61 215.16L350.74 215.33L350.87 215.5L350.98 215.67L351.09 215.84L351.19 216.02L351.29 216.21L351.38 216.39L351.45 216.58L351.53 216.77L351.59 216.96L351.65 217.15L351.7 217.35L351.74 217.55L351.77 217.75L351.8 217.95L351.82 218.15L351.83 218.35L351.83 218.55L351.82 218.75L351.81 218.95L351.79 219.15L351.76 219.35L351.73 219.55L351.69 219.75L351.63 219.94L351.58 220.14L351.51 220.33L351.44 220.52L351.35 220.71L351.26 220.9L351.17 221.08L351.06 221.26L350.95 221.43L350.83 221.61L350.7 221.78L350.56 221.94L350.42 222.1L349.45 223.21L348.48 224.47L347.5 225.87L346.51 227.41L345.52 229.07L344.53 230.85L343.54 232.73L342.55 234.72L341.56 236.79L340.58 238.95L339.6 241.17L338.64 243.47L337.68 245.81L336.73 248.21L335.79 250.63L334.87 253.09L333.96 255.57L333.08 258.06L332.21 260.55L331.36 263.03L330.53 265.49L329.73 267.93L328.95 270.34L328.2 272.71L327.48 275.02L326.79 277.28L326.14 279.46L325.51 281.57L324.92 283.59L324.37 285.51L323.86 287.33L323.38 289.04L322.95 290.63L322.56 292.08L322.22 293.4L321.92 294.56L321.68 295.57L321.48 296.42L321.33 297.09L321.24 297.57L321.21 297.77L321.18 297.96L321.14 298.16L321.09 298.34L321.03 298.53L320.97 298.71L320.9 298.89L320.83 299.07L320.75 299.24L320.67 299.41L320.57 299.57L320.48 299.74L320.37 299.89L320.27 300.05L320.15 300.2L320.03 300.34L319.91 300.48L319.78 300.62L319.65 300.75L319.51 300.87L319.37 301L319.22 301.11L319.07 301.22L318.92 301.33L318.76 301.43L318.6 301.52L318.44 301.61L318.27 301.7L318.1 301.77L317.92 301.84L317.74 301.91L317.56 301.97L317.38 302.02L317.2 302.07L317.01 302.1L316.82 302.14L316.63 302.16L316.43 302.18L316.24 302.19L316.04 302.19L316.02 302.19L315.99 302.19L315.97 302.19L315.94 302.19L315.92 302.19L315.9 302.19L315.88 302.19L315.86 302.19L315.84 302.19L315.81 302.19L315.79 302.19L315.78 302.19L315.76 302.19L315.74 302.19L315.72 302.18L315.7 302.18L315.68 302.18L315.67 302.18L315.65 302.18L315.63 302.18L315.61 302.18L315.39 302.15L315.18 302.12L314.97 302.08L314.76 302.04L314.56 301.98L314.36 301.92L314.17 301.85L313.98 301.77L313.79 301.69L313.61 301.6L313.43 301.5L313.25 301.4L313.08 301.28L312.92 301.17L312.76 301.04L312.61 300.91L312.46 300.78L312.31 300.64L312.17 300.49L312.04 300.34L311.91 300.19L311.79 300.03L311.68 299.86L311.57 299.69L311.47 299.52L311.37 299.34L311.28 299.16L311.2 298.97L311.13 298.78L311.06 298.59L311 298.4L310.95 298.2L310.9 298L310.86 297.79L310.83 297.59L310.81 297.38L310.8 297.17L310.8 296.95L310.8 296.74L310.81 296.53L310.86 296.26L310.96 295.77L311.11 295.08L311.32 294.2L311.58 293.13L311.89 291.88L312.25 290.46L312.66 288.89L313.11 287.18L313.61 285.32L314.16 283.34L314.75 281.24L315.37 279.04L316.04 276.73L316.75 274.34L317.49 271.87L318.27 269.34L319.09 266.75L319.93 264.1L320.81 261.42L321.72 258.71L322.65 255.99L323.62 253.25L324.6 250.52L325.62 247.79L326.65 245.09L327.71 242.42L328.79 239.78L329.88 237.2L331 234.68L332.12 232.23L333.27 229.86L334.42 227.58L335.59 225.4L336.77 223.32L337.96 221.37L339.15 219.55L340.35 217.86L341.55 216.33L342.76 214.95L342.91 214.8L343.07 214.65L343.23 214.51L343.39 214.38L343.56 214.25L343.73 214.13L343.91 214.02L344.09 213.92L344.27 213.83L344.45 213.74L344.64 213.66L344.83 213.59L345.02 213.53L345.22 213.47L345.41 213.42L345.61 213.38L345.81 213.35L346.01 213.32L346.21 213.3L346.41 213.29L346.61 213.29L346.81 213.29L347.01 213.3ZM321.25 297.46L321.25 297.49L321.24 297.53L321.25 297.49L321.25 297.45L321.25 297.42L321.26 297.39L321.25 297.42L321.25 297.46Z" id="b2wHQjQNlv"></path><path d="M235.4 337.72C233.82 339.66 230.71 338.91 230.28 336.45C228.56 326.43 222.71 311.37 203.06 313.35C200.37 313.62 198.85 310.37 200.75 308.44C208.42 300.67 216.58 287.57 207.57 271.76C206.28 269.51 208.35 266.82 210.84 267.54C221.73 270.66 240.56 273.53 251.98 260.97C253.24 259.6 255.45 259.75 256.49 261.29C261.06 268.01 272.97 282.71 291.24 285.51C293.81 285.91 294.63 289.18 292.53 290.7C285.56 295.74 277.04 305.22 276.05 321.81C275.95 323.39 274.57 324.59 272.99 324.49C265.65 324 246.39 324.18 235.4 337.72Z" id="b2Bw3sOMWc"></path><path d="M298.1 280.12L298.33 280.14L298.56 280.17L298.79 280.21L299.01 280.27L299.23 280.33L299.45 280.4L299.67 280.48L299.88 280.57L300.09 280.67L300.3 280.78L300.5 280.89L300.69 281.02L300.88 281.16L301.07 281.3L301.25 281.46L301.42 281.62L301.58 281.79L301.74 281.97L301.89 282.16L302.04 282.36L302.17 282.56L302.3 282.77L302.42 283L302.52 283.23L302.62 283.46L302.7 283.69L302.78 283.92L302.84 284.16L302.89 284.4L302.92 284.63L302.95 284.87L302.97 285.11L302.97 285.35L302.97 285.59L302.95 285.82L302.92 286.06L302.88 286.29L302.84 286.53L302.78 286.75L302.71 286.98L302.63 287.2L302.54 287.42L302.44 287.64L302.33 287.85L302.22 288.06L302.09 288.26L301.95 288.45L301.8 288.64L301.65 288.83L301.48 289.01L301.31 289.18L301.12 289.34L300.93 289.49L300.73 289.64L300.52 289.78L300.3 289.91L300.07 290.02L299.65 290.2L299.04 290.44L298.25 290.74L297.29 291.1L296.17 291.5L294.9 291.96L293.49 292.46L291.95 292.99L290.28 293.56L288.5 294.15L286.61 294.78L284.62 295.42L282.55 296.07L280.4 296.74L278.17 297.41L275.89 298.09L273.55 298.77L271.17 299.43L268.75 300.09L266.31 300.73L263.85 301.35L261.38 301.95L258.91 302.52L256.45 303.06L254.02 303.55L251.61 304.01L249.23 304.42L246.9 304.78L244.63 305.08L242.42 305.32L240.28 305.5L238.22 305.61L236.25 305.65L236.04 305.65L235.84 305.65L235.64 305.65L235.43 305.65L235.23 305.64L235.03 305.64L234.83 305.63L234.63 305.63L234.43 305.62L234.23 305.61L234.03 305.61L233.83 305.6L233.64 305.59L233.44 305.58L233.25 305.57L233.05 305.55L232.86 305.54L232.67 305.53L232.48 305.51L232.29 305.5L232.1 305.48L231.91 305.46L231.72 305.45L231.53 305.43L231.35 305.41L231.16 305.39L230.98 305.37L230.79 305.35L230.61 305.32L230.43 305.3L230.25 305.27L230.07 305.25L229.89 305.22L229.71 305.19L229.46 305.15L229.22 305.09L228.98 305.02L228.75 304.95L228.52 304.86L228.29 304.76L228.08 304.65L227.87 304.53L227.66 304.41L227.47 304.27L227.28 304.13L227.09 303.97L226.92 303.81L226.75 303.65L226.59 303.47L226.44 303.29L226.29 303.1L226.16 302.91L226.03 302.71L225.91 302.5L225.81 302.29L225.71 302.08L225.62 301.85L225.54 301.63L225.47 301.4L225.41 301.17L225.37 300.93L225.33 300.69L225.31 300.45L225.29 300.2L225.29 299.96L225.3 299.71L225.32 299.46L225.35 299.2L225.4 298.96L225.45 298.71L225.52 298.47L225.6 298.24L225.69 298.01L225.79 297.78L225.9 297.57L226.01 297.36L226.14 297.15L226.28 296.96L226.42 296.77L226.57 296.58L226.73 296.41L226.9 296.24L227.07 296.08L227.26 295.93L227.44 295.78L227.64 295.65L227.84 295.52L228.04 295.41L228.26 295.3L228.47 295.2L228.69 295.11L228.92 295.03L229.15 294.96L229.38 294.91L229.62 294.86L229.86 294.82L230.1 294.8L230.34 294.78L230.59 294.78L230.84 294.79L231.09 294.81L231.34 294.84L232.83 295.02L234.44 295.11L236.18 295.13L238.04 295.06L239.99 294.93L242.04 294.73L244.17 294.47L246.37 294.15L248.64 293.77L250.95 293.35L253.31 292.88L255.7 292.38L258.11 291.84L260.53 291.27L262.94 290.68L265.35 290.06L267.74 289.43L270.1 288.79L272.42 288.14L274.69 287.49L276.89 286.84L279.03 286.19L281.08 285.56L283.04 284.95L284.9 284.35L286.64 283.78L288.27 283.24L289.76 282.74L291.11 282.27L292.3 281.85L293.33 281.47L294.19 281.15L294.86 280.89L295.34 280.68L295.56 280.58L295.79 280.48L296.01 280.4L296.24 280.32L296.47 280.26L296.7 280.21L296.94 280.17L297.17 280.14L297.4 280.12L297.64 280.11L297.87 280.11L298.1 280.12ZM295.22 280.75L295.19 280.76L295.16 280.78L295.2 280.76L295.23 280.74L295.27 280.72L295.31 280.7L295.26 280.72L295.22 280.75Z" id="cRCbiOF5J"></path><path d="M350.91 337.37C350.69 337.2 327.88 319.02 301.72 292.88C266.43 257.62 242.09 225.36 229.37 197C228.19 194.36 229.37 191.26 232.01 190.07C234.65 188.89 237.75 190.07 238.93 192.71C268.08 257.73 356.54 328.46 357.43 329.17C359.69 330.97 360.07 334.26 358.27 336.53C357.24 337.83 355.71 338.51 354.17 338.51C353.02 338.51 351.88 338.14 350.91 337.37Z" id="f2QZ6ZAY6"></path><path d="M319.05 450.25C316.15 449.91 313.25 449.26 310.37 448.28C289.07 440.96 277.74 417.77 285.05 396.47C292.37 375.17 315.56 363.84 336.86 371.16C342.69 373.16 347.77 376.35 351.93 380.37C362.96 391.03 367.49 407.5 362.17 422.97C355.84 441.4 337.63 452.36 319.05 450.25Z" id="eGAGTMWjp"></path><path d="M319.05 450.25C308.01 439.58 303.49 423.11 308.8 407.65C315.14 389.22 333.35 378.25 351.93 380.37C362.96 391.03 367.49 407.5 362.17 422.97C355.84 441.4 337.63 452.36 319.05 450.25Z" id="gO2r5T9kK"></path><path d="M337.37 396.56C319.86 402.8 299.75 396.37 289.35 380.02C277.27 361.02 282.86 335.82 301.86 323.74C312.87 316.73 325.96 315.66 337.37 319.71C345.66 322.63 353.07 328.26 358.15 336.25C370.23 355.25 364.63 380.45 345.64 392.53C342.99 394.22 340.21 395.56 337.37 396.56Z" id="b6DPAwyFU7"></path><path d="M337.37 396.56C329.09 393.63 321.68 388.01 316.59 380.02C304.51 361.02 310.1 335.82 329.1 323.74C331.75 322.05 334.53 320.71 337.37 319.71C345.65 322.63 353.07 328.26 358.15 336.25C370.23 355.25 364.63 380.45 345.64 392.53C342.99 394.22 340.21 395.56 337.37 396.56Z" id="g369EznRMS"></path><path d="M495.04 512.83C480.6 520.91 462.06 519.65 448.71 508.3C431.56 493.71 429.48 467.97 444.07 450.83C456.91 435.73 478.38 432.31 495.03 441.66C497.31 442.93 499.48 444.44 501.54 446.19C518.7 460.77 520.77 486.51 506.18 503.66C502.95 507.47 499.16 510.53 495.04 512.83Z" id="crdoONMZP"></path><path d="M495.04 512.83C492.77 511.56 490.59 510.05 488.52 508.3C471.38 493.71 469.3 467.97 483.89 450.83C487.12 447.03 490.91 443.96 495.03 441.66C497.31 442.93 499.48 444.44 501.54 446.19C518.7 460.77 520.77 486.51 506.18 503.66C502.95 507.47 499.16 510.53 495.04 512.83Z" id="a1exuN20Jr"></path><path d="M438.99 498.15C418.77 508.03 394.35 499.65 384.46 479.42C374.58 459.18 382.97 434.77 403.2 424.88C415.8 418.72 430.03 419.66 441.36 426.13C448.21 430.05 454.01 435.99 457.74 443.62C467.23 463.05 459.87 486.33 441.35 496.9C440.58 497.34 439.8 497.76 438.99 498.15Z" id="coeY5VmGW"></path><path d="M424.98 479.42C415.48 459.98 422.85 436.7 441.36 426.13C448.21 430.05 454.01 435.99 457.74 443.62C467.23 463.05 459.87 486.33 441.35 496.9C434.5 492.99 428.7 487.04 424.98 479.42Z" id="a1Duz6hG0n"></path><path d="M445.26 401.68C426.76 406.72 406.7 398.08 397.97 380.22C388.09 359.99 396.48 335.57 416.71 325.69C428.99 319.69 442.81 320.42 453.98 326.45C461.22 330.35 467.35 336.48 471.24 344.43C481.12 364.65 472.74 389.07 452.5 398.96C450.14 400.12 447.71 401.02 445.26 401.68Z" id="a96TXHShH"></path><path d="M445.26 401.68C438.02 397.78 431.89 391.66 428.01 383.71C418.12 363.48 426.51 339.06 446.74 329.18C449.11 328.02 451.53 327.12 453.98 326.45C461.22 330.35 467.35 336.48 471.24 344.43C481.12 364.65 472.74 389.07 452.5 398.96C450.14 400.12 447.71 401.02 445.26 401.68Z" id="dJTuYsx8p"></path><path d="M390.55 362.52C373.2 368.34 353.49 361.87 343.22 345.74C331.13 326.75 336.74 301.55 355.73 289.46C366.51 282.6 379.29 281.43 390.53 285.18C399.11 288.04 406.79 293.74 412.02 301.97C424.11 320.96 418.51 346.17 399.51 358.26C396.65 360.08 393.63 361.5 390.55 362.52Z" id="c2yl5FP5w2"></path><path d="M390.55 362.52C381.98 359.67 374.3 353.96 369.07 345.74C356.98 326.75 362.58 301.55 381.58 289.46C384.44 287.63 387.45 286.21 390.53 285.18C399.11 288.04 406.79 293.74 412.02 301.97C424.11 320.96 418.51 346.17 399.51 358.26C396.65 360.08 393.63 361.5 390.55 362.52Z" id="c24d7gALco"></path><path d="M364 425.46C355.78 421.67 348.76 415.13 344.47 406.35C334.59 386.12 342.98 361.71 363.21 351.82C383.44 341.94 407.85 350.33 417.74 370.56C417.87 370.82 418 371.09 418.12 371.35C427.41 391.43 418.98 415.34 399.01 425.09C387.54 430.69 374.74 430.42 364 425.46Z" id="c1h8s9sRRq"></path><path d="M364 425.46C354.72 405.39 363.15 381.48 383.11 371.73C394.58 366.13 407.37 366.39 418.12 371.35C427.41 391.43 418.98 415.34 399.01 425.09C387.54 430.69 374.74 430.42 364 425.46Z" id="b1ZYIuvbXz"></path><path d="M455.56 457.75C436.54 463.94 415.39 455.35 406.35 436.86C396.46 416.63 404.85 392.22 425.09 382.33C434.97 377.51 445.86 377.04 455.56 380.18C465.71 383.47 474.56 390.72 479.62 401.07C489.5 421.3 481.11 445.71 460.89 455.6C459.14 456.45 457.37 457.17 455.56 457.75Z" id="c3AIIYfMgK"></path><path d="M455.56 457.75C445.41 454.46 436.56 447.21 431.5 436.86C421.61 416.63 430 392.22 450.23 382.33C451.98 381.48 453.75 380.76 455.56 380.18C465.71 383.47 474.56 390.72 479.62 401.07C489.5 421.3 481.11 445.71 460.89 455.6C459.14 456.45 457.37 457.17 455.56 457.75Z" id="b4x3eyisi"></path><path d="M383.09 484.54C363.98 490.96 342.62 482.37 333.53 463.78C323.65 443.54 332.03 419.13 352.27 409.25C362.27 404.36 373.3 403.94 383.09 407.21C393.1 410.55 401.81 417.75 406.8 427.98C416.68 448.21 408.3 472.63 388.06 482.51C386.43 483.31 384.77 483.98 383.09 484.54Z" id="b2N12DfSHz"></path><path d="M383.09 484.54C373.08 481.2 364.37 474 359.37 463.78C349.49 443.54 357.88 419.13 378.11 409.25C379.75 408.45 381.4 407.77 383.09 407.21C393.1 410.55 401.81 417.75 406.8 427.98C416.68 448.21 408.3 472.63 388.06 482.51C386.43 483.31 384.77 483.98 383.09 484.54Z" id="bmxDGx64g"></path><path d="M578.31 174.66C575.17 172.7 571.05 173.66 569.09 176.79C568.25 178.13 561.57 188.82 560.74 190.16C558.78 193.29 554.65 194.24 551.52 192.29C549.97 191.32 537.57 183.57 536.02 182.6C532.89 180.65 528.76 181.6 526.81 184.73C526.62 185.02 525.17 187.35 524.99 187.64C523.03 190.77 518.9 191.73 515.77 189.77C515.77 189.77 515.77 189.77 515.77 189.77C512.64 187.81 508.51 188.76 506.55 191.9C505.9 192.94 500.69 201.29 500.03 202.33C498.08 205.46 493.95 206.42 490.82 204.46C489.34 203.53 477.5 196.14 476.02 195.21C472.89 193.25 468.76 194.21 466.8 197.34C465.75 199.02 457.36 212.44 456.32 214.12C444.24 207.83 428.75 213.2 423.78 227.08C420.91 235.08 422.89 244.29 428.77 250.43C433.45 255.33 439.34 257.59 445.18 257.69C441 262.64 438.05 269.01 444.53 284.79C445.68 287.58 447.49 290.16 450 291.83C455.18 295.28 461.19 296.33 466.83 295.34C459.73 307.41 463.48 322.99 475.42 330.46C480.97 333.92 487.32 335.01 493.31 334.04C493.3 334.04 493.3 334.04 493.3 334.05C489.82 344.01 493.52 355.39 502.84 361.22C508.71 364.89 515.57 365.58 521.72 363.74C522.95 371.26 527.85 378.14 535.81 381.43C544.85 385.17 555.62 382.58 561.98 375.15C567.72 368.45 568.91 359.81 566.33 352.39C574.65 353.06 583.06 349.19 587.8 341.61C593.14 333.06 592.19 322.37 586.22 314.92C590.11 313.19 593.55 310.36 596.06 306.56C597.42 304.5 597.97 301.99 597.88 299.52C597.16 279.97 592.46 275.83 587.13 273.18C587.11 273.19 587.07 273.19 587.04 273.2C593.4 271.43 599.03 266.97 602.03 260.22C606.02 251.24 603.69 240.35 596.37 233.8C592.1 229.98 586.98 228.08 581.89 227.86C581.89 227.68 581.9 227.5 581.9 227.32C592.52 229.71 604.07 224.39 608.54 213.13C611.86 204.79 609.8 194.96 603.48 188.59C599.51 184.6 594.7 182.47 589.83 181.86C587.53 180.42 579.46 175.38 578.31 174.66Z" id="d2iQNClsoP"></path><path d="M510.88 233.02C511.06 232.94 511.24 232.85 511.42 232.76C511.16 219.95 512.98 196.27 517.74 188.86C518.48 187.7 519.35 186.68 520.28 185.7C519.69 184.16 519.31 183.17 519.31 183.17C512.77 142.73 468.25 119.46 468.25 119.46C467.43 120.76 460.9 131.22 460.08 132.53C499.29 157.03 484.18 188.48 484.18 188.48C484.19 188.56 484.24 189.15 484.25 189.23C486.48 190.09 488.6 191.28 490.47 192.88C497.2 198.63 507.45 220.59 510.88 233.02Z" id="cWHoFuOXw"></path><path d="M463.23 228.89C461.39 225.51 458.69 222.53 455.19 220.34C444.36 213.57 430.1 216.87 423.33 227.7C416.56 238.52 419.86 252.79 430.69 259.55C437.63 263.89 445.98 264.08 452.87 260.8C449.02 253.72 448.98 244.82 453.56 237.5C455.98 233.61 459.38 230.72 463.23 228.89Z" id="a9OUdpv0C"></path><path d="M452.75 260.53C452.79 260.62 452.82 260.72 452.87 260.8C449.63 262.35 446.05 263.09 442.46 263.02C441.75 263.86 441.08 264.73 440.49 265.68C433.72 276.51 437.02 290.77 447.85 297.54C458.67 304.3 472.94 301.01 479.7 290.18C483.42 284.23 484.08 277.24 482.14 271.03C475.45 273.85 467.54 273.49 460.91 269.35C457.32 267.11 454.58 264.03 452.75 260.53Z" id="e3lePFpVjE"></path><path d="M485.41 230.14C474.59 223.37 460.32 226.67 453.56 237.5C446.79 248.32 450.08 262.59 460.91 269.35C471.74 276.12 486 272.83 492.77 262C494.23 259.67 495.19 257.18 495.74 254.64C493.77 250.2 493.24 245.19 494.29 240.36C492.48 236.28 489.48 232.68 485.41 230.14Z" id="a6hbqTjipP"></path><path d="M536.09 223.76C541.4 229.19 543.66 236.87 542.27 244.22C543.53 245.51 544.94 246.68 546.54 247.68C557.37 254.44 571.63 251.15 578.39 240.32C585.16 229.49 581.87 215.23 571.04 208.46C560.21 201.7 545.95 204.99 539.18 215.82C537.61 218.33 536.61 221.02 536.09 223.76Z" id="fRzpwPZQM"></path><path d="M503.31 256.32C497.72 257.73 492.65 261.2 489.36 266.47C482.59 277.3 485.88 291.56 496.71 298.33C507.54 305.09 521.8 301.8 528.57 290.97C534.4 281.63 532.74 269.75 525.23 262.32C519.34 263.8 512.89 263 507.33 259.52C505.84 258.59 504.51 257.51 503.31 256.32Z" id="blnapm9Sl"></path><path d="M563.86 205.53C566.34 206.09 568.76 207.04 571.04 208.46C577.82 212.7 581.65 219.89 581.89 227.32C591.21 229.42 601.23 225.59 606.57 217.04C613.34 206.21 610.05 191.95 599.22 185.18C588.39 178.41 574.13 181.71 567.36 192.54C564.83 196.58 563.71 201.1 563.86 205.53Z" id="g1s7wd4aju"></path><path d="M558.75 308.26C558.7 308.28 558.66 308.3 558.62 308.33C558.74 312.71 557.62 317.19 555.12 321.19C552.62 325.2 549.09 328.16 545.09 329.98C545.29 337.46 549.12 344.7 555.94 348.97C566.77 355.73 581.03 352.44 587.8 341.61C593.14 333.06 592.19 322.37 586.22 314.92C579.43 317.96 571.3 317.67 564.51 313.43C562.24 312.01 560.33 310.24 558.75 308.26Z" id="evYQtvpxY"></path><path d="M570.77 271.75C570.79 271.67 570.79 271.59 570.81 271.52C570.81 271.52 570.8 271.52 570.8 271.52C570.27 274.14 569.28 276.72 567.78 279.12C564.54 284.3 559.6 287.73 554.14 289.18C553.76 291.04 553.68 292.91 553.75 294.77C556.74 298.62 558.43 303.28 558.62 308.08C560.22 310.13 562.17 311.97 564.51 313.43C575.34 320.2 589.6 316.91 596.37 306.08C603.14 295.25 599.84 280.99 589.02 274.22C588.4 273.84 587.77 273.5 587.13 273.18C581.83 274.68 576.01 274.29 570.77 271.75Z" id="d2EGCuAwd"></path><path d="M542.56 244.48C542.44 244.51 542.32 244.53 542.2 244.56C541.67 247.19 540.69 249.76 539.18 252.17C535.95 257.34 531.01 260.77 525.55 262.23C525.52 262.36 525.52 262.5 525.49 262.63C530.76 268.03 533 275.65 531.65 282.95C532.67 284 533.81 284.97 535.05 285.84C539.39 285.74 543.8 286.86 547.76 289.34C548.09 289.54 548.38 289.76 548.68 289.98C556.2 289.8 563.49 285.98 567.78 279.12C573.61 269.79 571.95 257.9 564.44 250.47C558.55 251.95 552.09 251.15 546.54 247.68C545.06 246.75 543.75 245.66 542.56 244.48Z" id="aYABSdTiZ"></path><path d="M483.52 288.12C482.96 288.17 482.4 288.18 481.85 288.28C480.84 289.61 479.71 290.82 478.5 291.9C474.88 296.68 469.68 299.69 464.1 300.67C457.02 312.74 460.76 328.33 472.71 335.79C484.86 343.38 500.86 339.68 508.46 327.54C512.52 321.03 513.3 313.43 511.33 306.6C505.6 307.89 499.38 307.02 494 303.66C488.23 300.06 484.63 294.32 483.52 288.12Z" id="b2LHRi3SJb"></path><path d="M511.17 322.2C507.05 328.81 500.43 332.89 493.3 334.04C489.82 344.01 493.52 355.4 502.84 361.22C513.67 367.99 527.93 364.7 534.7 353.87C538.96 347.05 539.23 338.86 536.13 332.05C531.74 332.17 527.27 331.05 523.26 328.55C519.28 326.06 516.39 322.53 514.58 318.55C514.03 318.56 513.49 318.7 512.95 318.75C512.44 319.92 511.87 321.09 511.17 322.2Z" id="bNQMJ0Jcn"></path><path d="M528.57 290.97C525.1 296.52 519.66 300.07 513.72 301.33C513.83 301.3 513.94 301.29 514.04 301.27C515.48 306.24 515.44 311.61 513.75 316.68C515.43 321.43 518.66 325.67 523.26 328.55C534.09 335.31 548.35 332.02 555.12 321.19C561.89 310.36 558.59 296.1 547.77 289.34C542.48 286.03 536.37 285.14 530.72 286.34C530.17 287.93 529.5 289.49 528.57 290.97Z" id="c1wkdYzwb2"></path><path d="M540.34 173.67C532.42 173.09 524.75 176.84 520.46 183.53C515.41 191.38 510.49 202.78 511.41 216.64C511.48 216.78 512.05 217.9 512.12 218.04C518.47 215.88 525.7 216.48 531.83 220.31C533.42 221.31 534.83 222.48 536.09 223.77C536.09 223.77 536.09 223.77 536.09 223.77C536.61 221.02 537.61 218.33 539.18 215.82C544.53 207.26 554.55 203.44 563.86 205.53C563.86 205.53 563.86 205.53 563.86 205.53C563.71 201.1 564.83 196.58 567.36 192.54C573.15 183.26 584.44 179.54 594.36 182.9C595.88 164.18 583.93 157.23 583.93 157.23C575.22 160.52 564.08 175.39 540.34 173.67Z" id="f3YkLYZcG5"></path><path d="M422.1 186.04C422.1 186.04 411.89 202.37 425.37 224.43C425.37 224.43 425.49 224.5 425.67 224.61C433.02 216.32 445.48 214.27 455.19 220.34C458.69 222.53 461.39 225.51 463.23 228.89C463.23 228.89 463.23 228.89 463.22 228.89C470.11 225.62 478.47 225.8 485.41 230.14C489.48 232.68 492.48 236.28 494.29 240.36C494.84 237.82 495.8 235.33 497.26 233C499.98 228.64 507.52 225.76 511.96 224.01C511.63 223.81 509.02 222.17 508.69 221.97C505.57 208.44 497.57 198.94 490.47 192.88C484.43 187.72 476 186.34 468.59 189.18C446.36 197.69 431.4 186.67 422.1 186.04Z" id="d16sYvDsI"></path><path d="M546.41 336.97C543.52 336.73 540.63 337.05 537.87 337.87C538.76 343.23 537.8 348.91 534.7 353.87C531.6 358.83 526.92 362.19 521.72 363.74C522.76 370.07 526.39 375.94 532.25 379.6C543.08 386.37 557.34 383.08 564.11 372.25C567.97 366.07 568.55 358.78 566.33 352.39C562.75 352.11 559.19 351 555.94 348.97C551.29 346.06 548.08 341.77 546.41 336.97Z" id="aKLUNn9zt"></path><path d="M499.97 227.67C493.21 238.49 496.5 252.76 507.33 259.52C518.16 266.29 532.42 263 539.19 252.17C545.95 241.34 542.66 227.08 531.83 220.31C521 213.54 506.74 216.84 499.97 227.67Z" id="a5coFp0QAT"></path><path d="M578.39 240.32C575.03 245.71 569.81 249.2 564.07 250.54C564.2 250.51 564.32 250.5 564.44 250.47C570.07 256.04 572.41 264.12 570.77 271.75C581.27 276.84 594.13 273.31 600.45 263.19C607.22 252.36 603.92 238.1 593.1 231.33C589.6 229.15 585.74 228.03 581.89 227.86C581.93 232.12 580.82 236.44 578.39 240.32Z" id="aaAJJ2r32P"></path></defs><g><g><g><use xlink:href="#a8i66FLozR" opacity="1" fill="#b34f03" fill-opacity="1"></use><g><use xlink:href="#a8i66FLozR" opacity="1" fill-opacity="0" stroke="#000000" stroke-width="1" stroke-opacity="0"></use></g></g><g><use xlink:href="#i121JiCQHt" opacity="1" fill="#803602" fill-opacity="1"></use><g><use xlink:href="#i121JiCQHt" opacity="1" fill-opacity="0" stroke="#000000" stroke-width="1" stroke-opacity="0"></use></g></g><g><use xlink:href="#a3Sgoqyds" opacity="1" fill="#9777a8" fill-opacity="1"></use><g><use xlink:href="#a3Sgoqyds" opacity="1" fill-opacity="0" stroke="#000000" stroke-width="1" stroke-opacity="0"></use></g></g><g><use xlink:href="#aslyT7IQZ" opacity="1" fill="#583e68" fill-opacity="1"></use><g><use xlink:href="#aslyT7IQZ" opacity="1" fill-opacity="0" stroke="#000000" stroke-width="1" stroke-opacity="0"></use></g></g><g><use xlink:href="#a4SQIUPyYs" opacity="1" fill="#583e68" fill-opacity="1"></use><g><use xlink:href="#a4SQIUPyYs" opacity="1" fill-opacity="0" stroke="#000000" stroke-width="1" stroke-opacity="0"></use></g></g><g><use xlink:href="#cCyNxEIyk" opacity="1" fill="#6f58a8" fill-opacity="1"></use><g><use xlink:href="#cCyNxEIyk" opacity="1" fill-opacity="0" stroke="#000000" stroke-width="1" stroke-opacity="0"></use></g></g><g><use xlink:href="#bg0JAccH9" opacity="1" fill="#6f58a8" fill-opacity="1"></use><g><use xlink:href="#bg0JAccH9" opacity="1" fill-opacity="0" stroke="#000000" stroke-width="1" stroke-opacity="0"></use></g></g><g><use xlink:href="#bfRJQzuNq" opacity="1" fill="#9777a8" fill-opacity="1"></use><g><use xlink:href="#bfRJQzuNq" opacity="1" fill-opacity="0" stroke="#000000" stroke-width="1" stroke-opacity="0"></use></g></g><g><use xlink:href="#bWqin8M5i" opacity="1" fill="#583e68" fill-opacity="1"></use><g><use xlink:href="#bWqin8M5i" opacity="1" fill-opacity="0" stroke="#000000" stroke-width="1" stroke-opacity="0"></use></g></g><g><use xlink:href="#bZ8V3UE1X" opacity="1" fill="#9777a8" fill-opacity="1"></use><g><use xlink:href="#bZ8V3UE1X" opacity="1" fill-opacity="0" stroke="#000000" stroke-width="1" stroke-opacity="0"></use></g></g><g><use xlink:href="#a2joN0QTJr" opacity="1" fill="#583e68" fill-opacity="1"></use><g><use xlink:href="#a2joN0QTJr" opacity="1" fill-opacity="0" stroke="#000000" stroke-width="1" stroke-opacity="0"></use></g></g><g><use xlink:href="#c3UdxkY6Y" opacity="1" fill="#9777a8" fill-opacity="1"></use><g><use xlink:href="#c3UdxkY6Y" opacity="1" fill-opacity="0" stroke="#000000" stroke-width="1" stroke-opacity="0"></use></g></g><g><use xlink:href="#dtKh8VIzM" opacity="1" fill="#6f58a8" fill-opacity="1"></use><g><use xlink:href="#dtKh8VIzM" opacity="1" fill-opacity="0" stroke="#000000" stroke-width="1" stroke-opacity="0"></use></g></g><g><use xlink:href="#a6PGGxvQQQ" opacity="1" fill="#6f58a8" fill-opacity="1"></use><g><use xlink:href="#a6PGGxvQQQ" opacity="1" fill-opacity="0" stroke="#000000" stroke-width="1" stroke-opacity="0"></use></g></g><g><use xlink:href="#a6VrUu8KEx" opacity="1" fill="#6f58a8" fill-opacity="1"></use><g><use xlink:href="#a6VrUu8KEx" opacity="1" fill-opacity="0" stroke="#000000" stroke-width="1" stroke-opacity="0"></use></g></g><g><use xlink:href="#a9oa3kGREx" opacity="1" fill="#88c057" fill-opacity="1"></use><g><use xlink:href="#a9oa3kGREx" opacity="1" fill-opacity="0" stroke="#000000" stroke-width="1" stroke-opacity="0"></use></g></g><g><use xlink:href="#b38JWhqsJi" opacity="1" fill="#7a3726" fill-opacity="1"></use><g><use xlink:href="#b38JWhqsJi" opacity="1" fill-opacity="0" stroke="#000000" stroke-width="1" stroke-opacity="0"></use></g></g><g><use xlink:href="#bVdQssykn" opacity="1" fill="#6dc82a" fill-opacity="1"></use><g><use xlink:href="#bVdQssykn" opacity="1" fill-opacity="0" stroke="#000000" stroke-width="1" stroke-opacity="0"></use></g></g><g><use xlink:href="#b2wHQjQNlv" opacity="1" fill="#4e901e" fill-opacity="1"></use><g><use xlink:href="#b2wHQjQNlv" opacity="1" fill-opacity="0" stroke="#000000" stroke-width="1" stroke-opacity="0"></use></g></g><g><use xlink:href="#b2Bw3sOMWc" opacity="1" fill="#6dc82a" fill-opacity="1"></use><g><use xlink:href="#b2Bw3sOMWc" opacity="1" fill-opacity="0" stroke="#000000" stroke-width="1" stroke-opacity="0"></use></g></g><g><use xlink:href="#cRCbiOF5J" opacity="1" fill="#4e901e" fill-opacity="1"></use><g><use xlink:href="#cRCbiOF5J" opacity="1" fill-opacity="0" stroke="#000000" stroke-width="1" stroke-opacity="0"></use></g></g><g><use xlink:href="#f2QZ6ZAY6" opacity="1" fill="#7a3726" fill-opacity="1"></use><g><use xlink:href="#f2QZ6ZAY6" opacity="1" fill-opacity="0" stroke="#000000" stroke-width="1" stroke-opacity="0"></use></g></g><g><use xlink:href="#eGAGTMWjp" opacity="1" fill="#424ede" fill-opacity="1"></use><g><use xlink:href="#eGAGTMWjp" opacity="1" fill-opacity="0" stroke="#000000" stroke-width="1" stroke-opacity="0"></use></g></g><g><use xlink:href="#gO2r5T9kK" opacity="1" fill="#515be0" fill-opacity="1"></use><g><use xlink:href="#gO2r5T9kK" opacity="1" fill-opacity="0" stroke="#000000" stroke-width="1" stroke-opacity="0"></use></g></g><g><use xlink:href="#b6DPAwyFU7" opacity="1" fill="#7c84e8" fill-opacity="1"></use><g><use xlink:href="#b6DPAwyFU7" opacity="1" fill-opacity="0" stroke="#000000" stroke-width="1" stroke-opacity="0"></use></g></g><g><use xlink:href="#g369EznRMS" opacity="1" fill="#999fed" fill-opacity="1"></use><g><use xlink:href="#g369EznRMS" opacity="1" fill-opacity="0" stroke="#000000" stroke-width="1" stroke-opacity="0"></use></g></g><g><use xlink:href="#crdoONMZP" opacity="1" fill="#2633d8" fill-opacity="1"></use><g><use xlink:href="#crdoONMZP" opacity="1" fill-opacity="0" stroke="#000000" stroke-width="1" stroke-opacity="0"></use></g></g><g><use xlink:href="#a1exuN20Jr" opacity="1" fill="#3440db" fill-opacity="1"></use><g><use xlink:href="#a1exuN20Jr" opacity="1" fill-opacity="0" stroke="#000000" stroke-width="1" stroke-opacity="0"></use></g></g><g><use xlink:href="#coeY5VmGW" opacity="1" fill="#424ede" fill-opacity="1"></use><g><use xlink:href="#coeY5VmGW" opacity="1" fill-opacity="0" stroke="#000000" stroke-width="1" stroke-opacity="0"></use></g></g><g><use xlink:href="#a1Duz6hG0n" opacity="1" fill="#515be0" fill-opacity="1"></use><g><use xlink:href="#a1Duz6hG0n" opacity="1" fill-opacity="0" stroke="#000000" stroke-width="1" stroke-opacity="0"></use></g></g><g><use xlink:href="#a96TXHShH" opacity="1" fill="#424ede" fill-opacity="1"></use><g><use xlink:href="#a96TXHShH" opacity="1" fill-opacity="0" stroke="#000000" stroke-width="1" stroke-opacity="0"></use></g></g><g><use xlink:href="#dJTuYsx8p" opacity="1" fill="#515be0" fill-opacity="1"></use><g><use xlink:href="#dJTuYsx8p" opacity="1" fill-opacity="0" stroke="#000000" stroke-width="1" stroke-opacity="0"></use></g></g><g><use xlink:href="#c2yl5FP5w2" opacity="1" fill="#424ede" fill-opacity="1"></use><g><use xlink:href="#c2yl5FP5w2" opacity="1" fill-opacity="0" stroke="#000000" stroke-width="1" stroke-opacity="0"></use></g></g><g><use xlink:href="#c24d7gALco" opacity="1" fill="#515be0" fill-opacity="1"></use><g><use xlink:href="#c24d7gALco" opacity="1" fill-opacity="0" stroke="#000000" stroke-width="1" stroke-opacity="0"></use></g></g><g><use xlink:href="#c1h8s9sRRq" opacity="1" fill="#2633d8" fill-opacity="1"></use><g><use xlink:href="#c1h8s9sRRq" opacity="1" fill-opacity="0" stroke="#000000" stroke-width="1" stroke-opacity="0"></use></g></g><g><use xlink:href="#b1ZYIuvbXz" opacity="1" fill="#3440db" fill-opacity="1"></use><g><use xlink:href="#b1ZYIuvbXz" opacity="1" fill-opacity="0" stroke="#000000" stroke-width="1" stroke-opacity="0"></use></g></g><g><use xlink:href="#c3AIIYfMgK" opacity="1" fill="#6e76e5" fill-opacity="1"></use><g><use xlink:href="#c3AIIYfMgK" opacity="1" fill-opacity="0" stroke="#000000" stroke-width="1" stroke-opacity="0"></use></g></g><g><use xlink:href="#b4x3eyisi" opacity="1" fill="#7c84e8" fill-opacity="1"></use><g><use xlink:href="#b4x3eyisi" opacity="1" fill-opacity="0" stroke="#000000" stroke-width="1" stroke-opacity="0"></use></g></g><g><use xlink:href="#b2N12DfSHz" opacity="1" fill="#7c84e8" fill-opacity="1"></use><g><use xlink:href="#b2N12DfSHz" opacity="1" fill-opacity="0" stroke="#000000" stroke-width="1" stroke-opacity="0"></use></g></g><g><use xlink:href="#bmxDGx64g" opacity="1" fill="#999fed" fill-opacity="1"></use><g><use xlink:href="#bmxDGx64g" opacity="1" fill-opacity="0" stroke="#000000" stroke-width="1" stroke-opacity="0"></use></g></g><g><use xlink:href="#d2iQNClsoP" opacity="1" fill="#3e4a66" fill-opacity="1"></use><g><use xlink:href="#d2iQNClsoP" opacity="1" fill-opacity="0" stroke="#000000" stroke-width="1" stroke-opacity="0"></use></g></g><g><use xlink:href="#cWHoFuOXw" opacity="1" fill="#803602" fill-opacity="1"></use><g><use xlink:href="#cWHoFuOXw" opacity="1" fill-opacity="0" stroke="#000000" stroke-width="1" stroke-opacity="0"></use></g></g><g><use xlink:href="#a9OUdpv0C" opacity="1" fill="#7383bf" fill-opacity="1"></use><g><use xlink:href="#a9OUdpv0C" opacity="1" fill-opacity="0" stroke="#000000" stroke-width="1" stroke-opacity="0"></use></g></g><g><use xlink:href="#e3lePFpVjE" opacity="1" fill="#556080" fill-opacity="1"></use><g><use xlink:href="#e3lePFpVjE" opacity="1" fill-opacity="0" stroke="#000000" stroke-width="1" stroke-opacity="0"></use></g></g><g><use xlink:href="#a6hbqTjipP" opacity="1" fill="#3e4a66" fill-opacity="1"></use><g><use xlink:href="#a6hbqTjipP" opacity="1" fill-opacity="0" stroke="#000000" stroke-width="1" stroke-opacity="0"></use></g></g><g><use xlink:href="#fRzpwPZQM" opacity="1" fill="#2f3a51" fill-opacity="1"></use><g><use xlink:href="#fRzpwPZQM" opacity="1" fill-opacity="0" stroke="#000000" stroke-width="1" stroke-opacity="0"></use></g></g><g><use xlink:href="#blnapm9Sl" opacity="1" fill="#7383bf" fill-opacity="1"></use><g><use xlink:href="#blnapm9Sl" opacity="1" fill-opacity="0" stroke="#000000" stroke-width="1" stroke-opacity="0"></use></g></g><g><use xlink:href="#g1s7wd4aju" opacity="1" fill="#7383bf" fill-opacity="1"></use><g><use xlink:href="#g1s7wd4aju" opacity="1" fill-opacity="0" stroke="#000000" stroke-width="1" stroke-opacity="0"></use></g></g><g><use xlink:href="#evYQtvpxY" opacity="1" fill="#7383bf" fill-opacity="1"></use><g><use xlink:href="#evYQtvpxY" opacity="1" fill-opacity="0" stroke="#000000" stroke-width="1" stroke-opacity="0"></use></g></g><g><use xlink:href="#d2EGCuAwd" opacity="1" fill="#2f3a51" fill-opacity="1"></use><g><use xlink:href="#d2EGCuAwd" opacity="1" fill-opacity="0" stroke="#000000" stroke-width="1" stroke-opacity="0"></use></g></g><g><use xlink:href="#aYABSdTiZ" opacity="1" fill="#3e4a66" fill-opacity="1"></use><g><use xlink:href="#aYABSdTiZ" opacity="1" fill-opacity="0" stroke="#000000" stroke-width="1" stroke-opacity="0"></use></g></g><g><use xlink:href="#b2LHRi3SJb" opacity="1" fill="#3e4a66" fill-opacity="1"></use><g><use xlink:href="#b2LHRi3SJb" opacity="1" fill-opacity="0" stroke="#000000" stroke-width="1" stroke-opacity="0"></use></g></g><g><use xlink:href="#bNQMJ0Jcn" opacity="1" fill="#7383bf" fill-opacity="1"></use><g><use xlink:href="#bNQMJ0Jcn" opacity="1" fill-opacity="0" stroke="#000000" stroke-width="1" stroke-opacity="0"></use></g></g><g><use xlink:href="#c1wkdYzwb2" opacity="1" fill="#556080" fill-opacity="1"></use><g><use xlink:href="#c1wkdYzwb2" opacity="1" fill-opacity="0" stroke="#000000" stroke-width="1" stroke-opacity="0"></use></g></g><g><use xlink:href="#f3YkLYZcG5" opacity="1" fill="#61b872" fill-opacity="1"></use><g><use xlink:href="#f3YkLYZcG5" opacity="1" fill-opacity="0" stroke="#000000" stroke-width="1" stroke-opacity="0"></use></g></g><g><use xlink:href="#d16sYvDsI" opacity="1" fill="#61b872" fill-opacity="1"></use><g><use xlink:href="#d16sYvDsI" opacity="1" fill-opacity="0" stroke="#000000" stroke-width="1" stroke-opacity="0"></use></g></g><g><use xlink:href="#aKLUNn9zt" opacity="1" fill="#3e4a66" fill-opacity="1"></use><g><use xlink:href="#aKLUNn9zt" opacity="1" fill-opacity="0" stroke="#000000" stroke-width="1" stroke-opacity="0"></use></g></g><g><use xlink:href="#a5coFp0QAT" opacity="1" fill="#556080" fill-opacity="1"></use><g><use xlink:href="#a5coFp0QAT" opacity="1" fill-opacity="0" stroke="#000000" stroke-width="1" stroke-opacity="0"></use></g></g><g><use xlink:href="#aaAJJ2r32P" opacity="1" fill="#7383bf" fill-opacity="1"></use><g><use xlink:href="#aaAJJ2r32P" opacity="1" fill-opacity="0" stroke="#000000" stroke-width="1" stroke-opacity="0"></use></g></g></g></g></svg>