<?xml version="1.0" encoding="UTF-8" standalone="no"?>
<!DOCTYPE svg PUBLIC "-//W3C//DTD SVG 1.1//EN" "http://www.w3.org/Graphics/SVG/1.1/DTD/svg11.dtd">
<svg version="1.1" xmlns="http://www.w3.org/2000/svg" xmlns:xlink="http://www.w3.org/1999/xlink" preserveAspectRatio="xMidYMid meet" viewBox="0 0 640 640" width="640" height="640"><defs><path d="M320 18.64C490.87 18.64 630.68 158.45 630.68 329.32C630.68 500.19 490.87 640 320 640C149.13 640 9.32 500.19 9.32 329.32C9.32 158.45 149.13 18.64 320 18.64Z" id="ajW8ec0A4"></path><path d="M320 18.64C490.87 18.64 630.68 158.45 630.68 329.32C630.68 500.19 490.87 640 320 640C149.13 640 9.32 500.19 9.32 329.32C9.32 158.45 149.13 18.64 320 18.64Z" id="gH6pCmJp7"></path><path d="M29 310.68C29 471.4 159.28 601.68 320 601.68C480.72 601.68 611 471.4 611 310.68C611 149.96 480.72 19.68 320 19.68C159.28 19.68 29 149.96 29 310.68Z" id="a2gxcwv6y4"></path><path d="M29 310.68C29 471.4 159.28 601.68 320 601.68C480.72 601.68 611 471.4 611 310.68C611 149.96 480.72 19.68 320 19.68C159.28 19.68 29 149.96 29 310.68Z" id="c2S4b8ox2d"></path><path d="M541.62 123.24C488.8 60.06 409.06 19.68 320 19.68C159.48 19.68 29 150.16 29 310.68C29 399.74 69.39 479.48 132.56 533.33C89.06 482.59 63.17 417.35 63.17 345.89C63.17 185.37 193.66 54.89 354.17 54.89C425.63 54.89 490.87 80.78 541.62 123.24Z" id="alEXx0wWB"></path><path d="M541.62 123.24C488.8 60.06 409.06 19.68 320 19.68C159.48 19.68 29 150.16 29 310.68C29 399.74 69.39 479.48 132.56 533.33C89.06 482.59 63.17 417.35 63.17 345.89C63.17 185.37 193.66 54.89 354.17 54.89C425.63 54.89 490.87 80.78 541.62 123.24Z" id="a3hAMYFQ2"></path><path d="M526.08 105.63C640 219.55 640 403.88 526.08 517.8C412.17 631.72 227.83 631.72 113.92 517.8" id="g1QcSXMhq5"></path><path d="M526.08 105.63C640 219.55 640 403.88 526.08 517.8C412.17 631.72 227.83 631.72 113.92 517.8" id="aOZtqUvXD"></path><path d="M345.38 1.03L357.88 2.31L370.22 4.09L382.41 6.34L394.43 9.07L406.27 12.26L417.93 15.91L429.38 19.99L440.63 24.51L451.66 29.46L462.46 34.81L473.02 40.57L483.34 46.72L493.39 53.25L503.18 60.15L512.68 67.41L521.9 75.02L530.81 82.98L539.42 91.26L547.7 99.87L555.66 108.78L563.27 118L570.53 127.5L577.43 137.29L583.96 147.34L590.11 157.66L595.87 168.22L601.22 179.02L606.17 190.05L610.69 201.3L614.77 212.75L618.42 224.41L621.61 236.25L624.34 248.27L626.59 260.46L628.37 272.8L629.64 285.3L630.42 297.92L630.68 310.68L630.42 323.44L629.64 336.06L628.37 348.56L626.59 360.9L624.34 373.09L621.61 385.11L618.42 396.95L614.77 408.61L610.69 420.06L606.17 431.31L601.22 442.34L595.87 453.14L590.11 463.7L583.96 474.02L577.43 484.07L570.53 493.86L563.27 503.36L555.66 512.58L547.7 521.49L539.42 530.1L530.81 538.38L521.9 546.34L512.68 553.95L503.18 561.21L493.39 568.11L483.34 574.64L473.02 580.79L462.46 586.55L451.66 591.9L440.63 596.84L429.38 601.36L417.93 605.45L406.27 609.1L394.43 612.29L382.41 615.02L370.22 617.27L357.88 619.05L345.38 620.32L332.76 621.1L320 621.36L307.24 621.1L294.62 620.32L282.12 619.05L269.78 617.27L257.59 615.02L245.57 612.29L233.73 609.1L222.07 605.45L210.62 601.36L199.37 596.84L188.34 591.9L177.54 586.55L166.98 580.79L156.66 574.64L146.61 568.11L136.82 561.21L127.32 553.95L118.1 546.34L109.19 538.38L100.58 530.1L92.3 521.49L84.34 512.58L76.73 503.36L69.47 493.86L62.57 484.07L56.04 474.02L49.89 463.7L44.13 453.14L38.78 442.34L33.83 431.31L29.31 420.06L25.23 408.61L21.58 396.95L18.39 385.11L15.66 373.09L13.41 360.9L11.63 348.56L10.36 336.06L9.58 323.44L9.32 310.68L9.58 297.92L10.36 285.3L11.63 272.8L13.41 260.46L15.66 248.27L18.39 236.25L21.58 224.41L25.23 212.75L29.31 201.3L33.83 190.05L38.78 179.02L44.13 168.22L49.89 157.66L56.04 147.34L62.57 137.29L69.47 127.5L76.73 118L84.34 108.78L92.3 99.87L100.58 91.26L109.19 82.98L118.1 75.02L127.32 67.41L136.82 60.15L146.61 53.25L156.66 46.72L166.98 40.57L177.54 34.81L188.34 29.46L199.37 24.51L210.62 19.99L222.07 15.91L233.73 12.26L245.57 9.07L257.59 6.34L269.78 4.09L282.12 2.31L294.62 1.03L307.24 0.26L320 0L332.76 0.26L345.38 1.03ZM297.7 40.26L286.74 41.37L275.91 42.92L265.23 44.89L254.7 47.28L244.32 50.07L234.12 53.25L224.09 56.83L214.26 60.78L204.61 65.1L195.17 69.77L185.94 74.8L176.94 80.18L168.16 85.88L159.62 91.91L151.33 98.26L143.3 104.91L135.52 111.86L128.03 119.09L120.81 126.61L113.88 134.4L107.25 142.45L100.93 150.75L94.93 159.3L89.25 168.08L83.9 177.08L78.9 186.31L74.25 195.74L69.95 205.37L66.03 215.19L62.48 225.2L59.31 235.37L56.54 245.71L54.17 256.21L52.22 266.84L50.68 277.62L49.57 288.52L48.9 299.55L48.67 310.68L48.9 321.89L49.58 332.97L50.7 343.94L52.24 354.77L54.22 365.45L56.6 375.98L59.39 386.36L62.58 396.56L66.15 406.59L70.1 416.42L74.42 426.07L79.09 435.51L84.12 444.74L89.5 453.74L95.2 462.52L101.23 471.06L107.58 479.35L114.23 487.38L121.18 495.16L128.41 502.65L135.93 509.87L143.72 516.8L151.77 523.43L160.07 529.75L168.62 535.75L177.4 541.43L186.4 546.78L195.63 551.78L205.06 556.43L214.69 560.73L224.51 564.65L234.52 568.2L244.69 571.37L255.03 574.14L265.53 576.51L276.17 578.46L286.94 580L297.84 581.11L308.87 581.78L320 582.01L331.13 581.78L342.16 581.1L353.06 579.98L363.83 578.44L374.47 576.46L384.97 574.08L395.31 571.29L405.48 568.1L415.49 564.53L425.31 560.58L434.94 556.26L444.37 551.58L453.6 546.55L462.6 541.18L471.38 535.48L479.93 529.45L488.23 523.1L496.28 516.45L504.07 509.5L511.59 502.27L518.82 494.75L525.77 486.96L532.42 478.91L538.77 470.61L544.8 462.06L550.5 453.28L555.88 444.28L560.91 435.05L565.58 425.62L569.9 415.99L573.85 406.17L577.42 396.16L580.61 385.99L583.4 375.65L585.78 365.15L587.76 354.51L589.3 343.74L590.42 332.83L591.1 321.81L591.33 310.68L591.1 299.55L590.43 288.52L589.32 277.62L587.78 266.84L585.83 256.21L583.46 245.71L580.69 235.37L577.52 225.2L573.97 215.19L570.05 205.37L565.75 195.74L561.1 186.31L556.1 177.08L550.75 168.08L545.07 159.3L539.07 150.75L532.75 142.45L526.12 134.4L519.19 126.61L511.97 119.09L504.48 111.86L496.7 104.91L488.67 98.26L480.38 91.91L471.84 85.88L463.06 80.18L454.06 74.8L444.83 69.77L435.39 65.1L425.74 60.78L415.91 56.83L405.88 53.25L395.68 50.07L385.3 47.28L374.77 44.89L364.09 42.92L353.26 41.37L342.3 40.26L331.21 39.58L320 39.35L308.79 39.58L297.7 40.26Z" id="b1slgKlHGF"></path><path d="M345.38 1.03L357.88 2.31L370.22 4.09L382.41 6.34L394.43 9.07L406.27 12.26L417.93 15.91L429.38 19.99L440.63 24.51L451.66 29.46L462.46 34.81L473.02 40.57L483.34 46.72L493.39 53.25L503.18 60.15L512.68 67.41L521.9 75.02L530.81 82.98L539.42 91.26L547.7 99.87L555.66 108.78L563.27 118L570.53 127.5L577.43 137.29L583.96 147.34L590.11 157.66L595.87 168.22L601.22 179.02L606.17 190.05L610.69 201.3L614.77 212.75L618.42 224.41L621.61 236.25L624.34 248.27L626.59 260.46L628.37 272.8L629.64 285.3L630.42 297.92L630.68 310.68L630.42 323.44L629.64 336.06L628.37 348.56L626.59 360.9L624.34 373.09L621.61 385.11L618.42 396.95L614.77 408.61L610.69 420.06L606.17 431.31L601.22 442.34L595.87 453.14L590.11 463.7L583.96 474.02L577.43 484.07L570.53 493.86L563.27 503.36L555.66 512.58L547.7 521.49L539.42 530.1L530.81 538.38L521.9 546.34L512.68 553.95L503.18 561.21L493.39 568.11L483.34 574.64L473.02 580.79L462.46 586.55L451.66 591.9L440.63 596.84L429.38 601.36L417.93 605.45L406.27 609.1L394.43 612.29L382.41 615.02L370.22 617.27L357.88 619.05L345.38 620.32L332.76 621.1L320 621.36L307.24 621.1L294.62 620.32L282.12 619.05L269.78 617.27L257.59 615.02L245.57 612.29L233.73 609.1L222.07 605.45L210.62 601.36L199.37 596.84L188.34 591.9L177.54 586.55L166.98 580.79L156.66 574.64L146.61 568.11L136.82 561.21L127.32 553.95L118.1 546.34L109.19 538.38L100.58 530.1L92.3 521.49L84.34 512.58L76.73 503.36L69.47 493.86L62.57 484.07L56.04 474.02L49.89 463.7L44.13 453.14L38.78 442.34L33.83 431.31L29.31 420.06L25.23 408.61L21.58 396.95L18.39 385.11L15.66 373.09L13.41 360.9L11.63 348.56L10.36 336.06L9.58 323.44L9.32 310.68L9.58 297.92L10.36 285.3L11.63 272.8L13.41 260.46L15.66 248.27L18.39 236.25L21.58 224.41L25.23 212.75L29.31 201.3L33.83 190.05L38.78 179.02L44.13 168.22L49.89 157.66L56.04 147.34L62.57 137.29L69.47 127.5L76.73 118L84.34 108.78L92.3 99.87L100.58 91.26L109.19 82.98L118.1 75.02L127.32 67.41L136.82 60.15L146.61 53.25L156.66 46.72L166.98 40.57L177.54 34.81L188.34 29.46L199.37 24.51L210.62 19.99L222.07 15.91L233.73 12.26L245.57 9.07L257.59 6.34L269.78 4.09L282.12 2.31L294.62 1.03L307.24 0.26L320 0L332.76 0.26L345.38 1.03ZM297.7 40.26L286.74 41.37L275.91 42.92L265.23 44.89L254.7 47.28L244.32 50.07L234.12 53.25L224.09 56.83L214.26 60.78L204.61 65.1L195.17 69.77L185.94 74.8L176.94 80.18L168.16 85.88L159.62 91.91L151.33 98.26L143.3 104.91L135.52 111.86L128.03 119.09L120.81 126.61L113.88 134.4L107.25 142.45L100.93 150.75L94.93 159.3L89.25 168.08L83.9 177.08L78.9 186.31L74.25 195.74L69.95 205.37L66.03 215.19L62.48 225.2L59.31 235.37L56.54 245.71L54.17 256.21L52.22 266.84L50.68 277.62L49.57 288.52L48.9 299.55L48.67 310.68L48.9 321.89L49.58 332.97L50.7 343.94L52.24 354.77L54.22 365.45L56.6 375.98L59.39 386.36L62.58 396.56L66.15 406.59L70.1 416.42L74.42 426.07L79.09 435.51L84.12 444.74L89.5 453.74L95.2 462.52L101.23 471.06L107.58 479.35L114.23 487.38L121.18 495.16L128.41 502.65L135.93 509.87L143.72 516.8L151.77 523.43L160.07 529.75L168.62 535.75L177.4 541.43L186.4 546.78L195.63 551.78L205.06 556.43L214.69 560.73L224.51 564.65L234.52 568.2L244.69 571.37L255.03 574.14L265.53 576.51L276.17 578.46L286.94 580L297.84 581.11L308.87 581.78L320 582.01L331.13 581.78L342.16 581.1L353.06 579.98L363.83 578.44L374.47 576.46L384.97 574.08L395.31 571.29L405.48 568.1L415.49 564.53L425.31 560.58L434.94 556.26L444.37 551.58L453.6 546.55L462.6 541.18L471.38 535.48L479.93 529.45L488.23 523.1L496.28 516.45L504.07 509.5L511.59 502.27L518.82 494.75L525.77 486.96L532.42 478.91L538.77 470.61L544.8 462.06L550.5 453.28L555.88 444.28L560.91 435.05L565.58 425.62L569.9 415.99L573.85 406.17L577.42 396.16L580.61 385.99L583.4 375.65L585.78 365.15L587.76 354.51L589.3 343.74L590.42 332.83L591.1 321.81L591.33 310.68L591.1 299.55L590.43 288.52L589.32 277.62L587.78 266.84L585.83 256.21L583.46 245.71L580.69 235.37L577.52 225.2L573.97 215.19L570.05 205.37L565.75 195.74L561.1 186.31L556.1 177.08L550.75 168.08L545.07 159.3L539.07 150.75L532.75 142.45L526.12 134.4L519.19 126.61L511.97 119.09L504.48 111.86L496.7 104.91L488.67 98.26L480.38 91.91L471.84 85.88L463.06 80.18L454.06 74.8L444.83 69.77L435.39 65.1L425.74 60.78L415.91 56.83L405.88 53.25L395.68 50.07L385.3 47.28L374.77 44.89L364.09 42.92L353.26 41.37L342.3 40.26L331.21 39.58L320 39.35L308.79 39.58L297.7 40.26Z" id="a4tqT6uIy"></path><path d="M349 30.03C296.18 30.03 247.51 43.5 204.01 66.28C239.22 48.67 278.58 39.35 320 39.35C401.81 39.35 476.38 76.63 526.08 134.63C584.08 184.34 620.32 257.86 620.32 340.71C620.32 382.14 611 421.49 594.43 456.7C617.22 413.2 630.68 363.5 630.68 310.68C630.68 231.97 601.68 160.52 554.05 106.67C499.16 59.03 427.7 30.03 349 30.03Z" id="a2nuVxwXKB"></path><path d="M349 30.03C296.18 30.03 247.51 43.5 204.01 66.28C239.22 48.67 278.58 39.35 320 39.35C401.81 39.35 476.38 76.63 526.08 134.63C584.08 184.34 620.32 257.86 620.32 340.71C620.32 382.14 611 421.49 594.43 456.7C617.22 413.2 630.68 363.5 630.68 310.68C630.68 231.97 601.68 160.52 554.05 106.67C499.16 59.03 427.7 30.03 349 30.03Z" id="aONtxrQPT"></path><path d="M318.96 621.36C371.78 621.36 420.45 607.9 463.95 585.11C428.74 601.68 389.39 611 347.96 611C266.15 611 191.59 573.72 141.88 515.73C83.88 466.02 46.6 392.49 46.6 309.64C46.6 268.22 55.92 228.87 72.49 193.66C51.78 238.19 38.32 287.9 38.32 340.71C38.32 419.42 67.31 490.87 114.95 544.72C169.84 592.36 241.29 621.36 318.96 621.36Z" id="bsnn7tY0d"></path><path d="M318.96 621.36C371.78 621.36 420.45 607.9 463.95 585.11C428.74 601.68 389.39 611 347.96 611C266.15 611 191.59 573.72 141.88 515.73C83.88 466.02 46.6 392.49 46.6 309.64C46.6 268.22 55.92 228.87 72.49 193.66C51.78 238.19 38.32 287.9 38.32 340.71C38.32 419.42 67.31 490.87 114.95 544.72C169.84 592.36 241.29 621.36 318.96 621.36Z" id="aiLQiu8ci"></path><path d="M300 118.18C300 108.86 308.28 100.58 317.6 100.58C326.92 100.58 335.21 108.86 335.21 118.18C335.21 127.5 326.92 143.04 317.6 143.04C308.28 143.04 300 127.5 300 118.18Z" id="abPcDfpVo1"></path><path d="M300 117.44C300 127.16 307.88 135.05 317.6 135.05C327.33 135.05 335.21 127.16 335.21 117.44C335.21 107.72 327.33 99.84 317.6 99.84C307.88 99.84 300 107.72 300 117.44Z" id="c6oGyRRPUn"></path><path d="M329.77 104.75C337.02 112 337.02 122.36 329.77 129.61C322.52 136.86 312.17 136.86 304.92 129.61" id="e62prT7r5"></path><path d="M320.27 164.62L320.36 164.63L320.45 164.64L320.54 164.65L320.63 164.67L320.72 164.68L320.81 164.71L320.9 164.73L320.99 164.75L321.08 164.78L321.17 164.81L321.25 164.85L321.34 164.88L321.42 164.92L321.51 164.96L321.59 165L321.67 165.05L321.76 165.1L479.79 261.01L480 261.15L480.2 261.3L480.38 261.45L480.55 261.62L480.7 261.79L480.83 261.97L480.96 262.16L481.06 262.35L481.16 262.54L481.24 262.74L481.3 262.94L481.35 263.15L481.39 263.36L481.42 263.57L481.43 263.78L481.43 263.99L481.41 264.2L481.39 264.41L481.35 264.61L481.3 264.82L481.24 265.02L481.16 265.21L481.08 265.41L480.98 265.59L480.87 265.77L480.75 265.95L480.62 266.11L480.48 266.27L480.33 266.42L480.17 266.56L480 266.69L479.82 266.81L479.63 266.92L479.43 267.01L479.22 267.09L479 267.16L478.77 267.22L478.53 267.26L478.29 267.28L478.04 267.29L161.96 267.29L161.71 267.28L161.47 267.26L161.23 267.22L161 267.16L160.78 267.09L160.57 267.01L160.37 266.92L160.18 266.81L160 266.69L159.83 266.56L159.67 266.42L159.52 266.27L159.38 266.11L159.25 265.95L159.13 265.77L159.02 265.59L158.92 265.41L158.84 265.21L158.76 265.02L158.7 264.82L158.65 264.61L158.61 264.41L158.59 264.2L158.57 263.99L158.57 263.78L158.58 263.57L158.61 263.36L158.65 263.15L158.7 262.94L158.76 262.74L158.84 262.54L158.93 262.34L159.04 262.15L159.16 261.97L159.3 261.79L159.45 261.62L159.62 261.45L159.8 261.29L159.99 261.15L160.2 261.01L318.24 165.1L318.32 165.05L318.41 165L318.49 164.96L318.57 164.92L318.66 164.88L318.74 164.85L318.83 164.81L318.92 164.78L319.01 164.75L319.09 164.73L319.18 164.71L319.27 164.68L319.36 164.67L319.45 164.65L319.54 164.64L319.63 164.63L319.73 164.62L319.82 164.61L319.91 164.61L320 164.61L320.09 164.61L320.18 164.61L320.27 164.62Z" id="b1bi5CMznf"></path><path d="M320.27 164.62L320.36 164.63L320.45 164.64L320.54 164.65L320.63 164.67L320.72 164.68L320.81 164.71L320.9 164.73L320.99 164.75L321.08 164.78L321.17 164.81L321.25 164.85L321.34 164.88L321.42 164.92L321.51 164.96L321.59 165L321.67 165.05L321.76 165.1L479.79 261.01L480 261.15L480.2 261.3L480.38 261.45L480.55 261.62L480.7 261.79L480.83 261.97L480.96 262.16L481.06 262.35L481.16 262.54L481.24 262.74L481.3 262.94L481.35 263.15L481.39 263.36L481.42 263.57L481.43 263.78L481.43 263.99L481.41 264.2L481.39 264.41L481.35 264.61L481.3 264.82L481.24 265.02L481.16 265.21L481.08 265.41L480.98 265.59L480.87 265.77L480.75 265.95L480.62 266.11L480.48 266.27L480.33 266.42L480.17 266.56L480 266.69L479.82 266.81L479.63 266.92L479.43 267.01L479.22 267.09L479 267.16L478.77 267.22L478.53 267.26L478.29 267.28L478.04 267.29L161.96 267.29L161.71 267.28L161.47 267.26L161.23 267.22L161 267.16L160.78 267.09L160.57 267.01L160.37 266.92L160.18 266.81L160 266.69L159.83 266.56L159.67 266.42L159.52 266.27L159.38 266.11L159.25 265.95L159.13 265.77L159.02 265.59L158.92 265.41L158.84 265.21L158.76 265.02L158.7 264.82L158.65 264.61L158.61 264.41L158.59 264.2L158.57 263.99L158.57 263.78L158.58 263.57L158.61 263.36L158.65 263.15L158.7 262.94L158.76 262.74L158.84 262.54L158.93 262.34L159.04 262.15L159.16 261.97L159.3 261.79L159.45 261.62L159.62 261.45L159.8 261.29L159.99 261.15L160.2 261.01L318.24 165.1L318.32 165.05L318.41 165L318.49 164.96L318.57 164.92L318.66 164.88L318.74 164.85L318.83 164.81L318.92 164.78L319.01 164.75L319.09 164.73L319.18 164.71L319.27 164.68L319.36 164.67L319.45 164.65L319.54 164.64L319.63 164.63L319.73 164.62L319.82 164.61L319.91 164.61L320 164.61L320.09 164.61L320.18 164.61L320.27 164.62Z" id="nVi4wIiN6"></path><path d="M254.74 434.05L254.99 434.09L255.23 434.14L255.47 434.21L255.7 434.29L255.93 434.37L256.16 434.47L256.37 434.58L256.59 434.7L256.79 434.82L256.99 434.96L257.18 435.11L257.37 435.26L257.55 435.42L257.72 435.59L257.88 435.77L258.03 435.96L258.18 436.15L258.32 436.35L258.44 436.55L258.56 436.77L258.67 436.98L258.77 437.21L258.85 437.44L258.93 437.67L259 437.91L259.05 438.15L259.09 438.4L259.12 438.65L259.14 438.91L259.15 439.16L259.15 458.6L259.15 458.68L259.14 458.76L259.13 458.85L259.12 458.93L259.1 459.01L259.08 459.08L259.05 459.16L259.02 459.24L258.99 459.31L258.96 459.38L258.92 459.45L258.88 459.52L258.83 459.58L258.78 459.65L258.73 459.71L258.68 459.76L258.63 459.82L258.57 459.87L258.51 459.92L258.44 459.97L258.38 460.02L258.31 460.06L258.24 460.1L258.17 460.13L258.1 460.16L258.02 460.19L257.95 460.22L257.87 460.24L257.79 460.26L257.71 460.27L257.62 460.28L257.54 460.29L257.46 460.29L201.09 460.29L201 460.29L200.92 460.28L200.84 460.27L200.76 460.26L200.68 460.24L200.6 460.22L200.52 460.19L200.45 460.16L200.37 460.13L200.3 460.1L200.23 460.06L200.16 460.02L200.1 459.97L200.04 459.92L199.98 459.87L199.92 459.82L199.86 459.76L199.81 459.71L199.76 459.65L199.71 459.58L199.67 459.52L199.62 459.45L199.59 459.38L199.55 459.31L199.52 459.24L199.49 459.16L199.47 459.08L199.44 459.01L199.43 458.93L199.41 458.85L199.4 458.76L199.4 458.68L199.39 458.6L199.39 439.16L199.4 438.91L199.42 438.65L199.45 438.4L199.49 438.15L199.55 437.91L199.61 437.67L199.69 437.44L199.78 437.21L199.87 436.98L199.98 436.77L200.1 436.55L200.23 436.35L200.36 436.15L200.51 435.96L200.66 435.77L200.82 435.59L200.99 435.42L201.17 435.26L201.36 435.11L201.55 434.96L201.75 434.82L201.96 434.7L202.17 434.58L202.39 434.47L202.61 434.37L202.84 434.29L203.07 434.21L203.31 434.14L203.56 434.09L203.8 434.05L204.05 434.02L204.31 434L204.57 433.99L253.98 433.99L254.23 434L254.49 434.02L254.74 434.05Z" id="cPpAFxbGd"></path><path d="M254.74 434.05L254.99 434.09L255.23 434.14L255.47 434.21L255.7 434.29L255.93 434.37L256.16 434.47L256.37 434.58L256.59 434.7L256.79 434.82L256.99 434.96L257.18 435.11L257.37 435.26L257.55 435.42L257.72 435.59L257.88 435.77L258.03 435.96L258.18 436.15L258.32 436.35L258.44 436.55L258.56 436.77L258.67 436.98L258.77 437.21L258.85 437.44L258.93 437.67L259 437.91L259.05 438.15L259.09 438.4L259.12 438.65L259.14 438.91L259.15 439.16L259.15 458.6L259.15 458.68L259.14 458.76L259.13 458.85L259.12 458.93L259.1 459.01L259.08 459.08L259.05 459.16L259.02 459.24L258.99 459.31L258.96 459.38L258.92 459.45L258.88 459.52L258.83 459.58L258.78 459.65L258.73 459.71L258.68 459.76L258.63 459.82L258.57 459.87L258.51 459.92L258.44 459.97L258.38 460.02L258.31 460.06L258.24 460.1L258.17 460.13L258.1 460.16L258.02 460.19L257.95 460.22L257.87 460.24L257.79 460.26L257.71 460.27L257.62 460.28L257.54 460.29L257.46 460.29L201.09 460.29L201 460.29L200.92 460.28L200.84 460.27L200.76 460.26L200.68 460.24L200.6 460.22L200.52 460.19L200.45 460.16L200.37 460.13L200.3 460.1L200.23 460.06L200.16 460.02L200.1 459.97L200.04 459.92L199.98 459.87L199.92 459.82L199.86 459.76L199.81 459.71L199.76 459.65L199.71 459.58L199.67 459.52L199.62 459.45L199.59 459.38L199.55 459.31L199.52 459.24L199.49 459.16L199.47 459.08L199.44 459.01L199.43 458.93L199.41 458.85L199.4 458.76L199.4 458.68L199.39 458.6L199.39 439.16L199.4 438.91L199.42 438.65L199.45 438.4L199.49 438.15L199.55 437.91L199.61 437.67L199.69 437.44L199.78 437.21L199.87 436.98L199.98 436.77L200.1 436.55L200.23 436.35L200.36 436.15L200.51 435.96L200.66 435.77L200.82 435.59L200.99 435.42L201.17 435.26L201.36 435.11L201.55 434.96L201.75 434.82L201.96 434.7L202.17 434.58L202.39 434.47L202.61 434.37L202.84 434.29L203.07 434.21L203.31 434.14L203.56 434.09L203.8 434.05L204.05 434.02L204.31 434L204.57 433.99L253.98 433.99L254.23 434L254.49 434.02L254.74 434.05Z" id="b1H2317CCj"></path><path d="M345.47 434.05L345.72 434.09L345.96 434.14L346.2 434.21L346.43 434.29L346.66 434.37L346.88 434.47L347.1 434.58L347.31 434.7L347.52 434.82L347.72 434.96L347.91 435.11L348.1 435.26L348.28 435.42L348.45 435.59L348.61 435.77L348.76 435.96L348.91 436.15L349.04 436.35L349.17 436.55L349.29 436.77L349.4 436.98L349.49 437.21L349.58 437.44L349.66 437.67L349.72 437.91L349.78 438.15L349.82 438.4L349.85 438.65L349.87 438.91L349.88 439.16L349.88 458.6L349.88 458.68L349.87 458.76L349.86 458.85L349.85 458.93L349.83 459.01L349.81 459.08L349.78 459.16L349.75 459.24L349.72 459.31L349.69 459.38L349.65 459.45L349.61 459.52L349.56 459.58L349.51 459.65L349.46 459.71L349.41 459.76L349.35 459.82L349.3 459.87L349.24 459.92L349.17 459.97L349.11 460.02L349.04 460.06L348.97 460.1L348.9 460.13L348.83 460.16L348.75 460.19L348.67 460.22L348.6 460.24L348.52 460.26L348.43 460.27L348.35 460.28L348.27 460.29L348.18 460.29L291.82 460.29L291.73 460.29L291.65 460.28L291.57 460.27L291.48 460.26L291.4 460.24L291.33 460.22L291.25 460.19L291.17 460.16L291.1 460.13L291.03 460.1L290.96 460.06L290.89 460.02L290.83 459.97L290.76 459.92L290.7 459.87L290.65 459.82L290.59 459.76L290.54 459.71L290.49 459.65L290.44 459.58L290.39 459.52L290.35 459.45L290.31 459.38L290.28 459.31L290.25 459.24L290.22 459.16L290.19 459.08L290.17 459.01L290.15 458.93L290.14 458.85L290.13 458.76L290.12 458.68L290.12 458.6L290.12 439.16L290.13 438.91L290.15 438.65L290.18 438.4L290.22 438.15L290.28 437.91L290.34 437.67L290.42 437.44L290.51 437.21L290.6 436.98L290.71 436.77L290.83 436.55L290.96 436.35L291.09 436.15L291.24 435.96L291.39 435.77L291.55 435.59L291.72 435.42L291.9 435.26L292.09 435.11L292.28 434.96L292.48 434.82L292.68 434.7L292.9 434.58L293.11 434.47L293.34 434.37L293.57 434.29L293.8 434.21L294.04 434.14L294.28 434.09L294.53 434.05L294.78 434.02L295.04 434L295.3 433.99L344.7 433.99L344.96 434L345.22 434.02L345.47 434.05Z" id="a220vSiV9P"></path><path d="M345.47 434.05L345.72 434.09L345.96 434.14L346.2 434.21L346.43 434.29L346.66 434.37L346.88 434.47L347.1 434.58L347.31 434.7L347.52 434.82L347.72 434.96L347.91 435.11L348.1 435.26L348.28 435.42L348.45 435.59L348.61 435.77L348.76 435.96L348.91 436.15L349.04 436.35L349.17 436.55L349.29 436.77L349.4 436.98L349.49 437.21L349.58 437.44L349.66 437.67L349.72 437.91L349.78 438.15L349.82 438.4L349.85 438.65L349.87 438.91L349.88 439.16L349.88 458.6L349.88 458.68L349.87 458.76L349.86 458.85L349.85 458.93L349.83 459.01L349.81 459.08L349.78 459.16L349.75 459.24L349.72 459.31L349.69 459.38L349.65 459.45L349.61 459.52L349.56 459.58L349.51 459.65L349.46 459.71L349.41 459.76L349.35 459.82L349.3 459.87L349.24 459.92L349.17 459.97L349.11 460.02L349.04 460.06L348.97 460.1L348.9 460.13L348.83 460.16L348.75 460.19L348.67 460.22L348.6 460.24L348.52 460.26L348.43 460.27L348.35 460.28L348.27 460.29L348.18 460.29L291.82 460.29L291.73 460.29L291.65 460.28L291.57 460.27L291.48 460.26L291.4 460.24L291.33 460.22L291.25 460.19L291.17 460.16L291.1 460.13L291.03 460.1L290.96 460.06L290.89 460.02L290.83 459.97L290.76 459.92L290.7 459.87L290.65 459.82L290.59 459.76L290.54 459.71L290.49 459.65L290.44 459.58L290.39 459.52L290.35 459.45L290.31 459.38L290.28 459.31L290.25 459.24L290.22 459.16L290.19 459.08L290.17 459.01L290.15 458.93L290.14 458.85L290.13 458.76L290.12 458.68L290.12 458.6L290.12 439.16L290.13 438.91L290.15 438.65L290.18 438.4L290.22 438.15L290.28 437.91L290.34 437.67L290.42 437.44L290.51 437.21L290.6 436.98L290.71 436.77L290.83 436.55L290.96 436.35L291.09 436.15L291.24 435.96L291.39 435.77L291.55 435.59L291.72 435.42L291.9 435.26L292.09 435.11L292.28 434.96L292.48 434.82L292.68 434.7L292.9 434.58L293.11 434.47L293.34 434.37L293.57 434.29L293.8 434.21L294.04 434.14L294.28 434.09L294.53 434.05L294.78 434.02L295.04 434L295.3 433.99L344.7 433.99L344.96 434L345.22 434.02L345.47 434.05Z" id="fIwwM7vnC"></path><path d="M436.2 434.05L436.44 434.09L436.69 434.14L436.93 434.21L437.16 434.29L437.39 434.37L437.61 434.47L437.83 434.58L438.04 434.7L438.25 434.82L438.45 434.96L438.64 435.11L438.83 435.26L439 435.42L439.17 435.59L439.34 435.77L439.49 435.96L439.64 436.15L439.77 436.35L439.9 436.55L440.02 436.77L440.13 436.98L440.22 437.21L440.31 437.44L440.39 437.67L440.45 437.91L440.51 438.15L440.55 438.4L440.58 438.65L440.6 438.91L440.61 439.16L440.61 458.6L440.6 458.68L440.6 458.76L440.59 458.85L440.57 458.93L440.56 459.01L440.53 459.08L440.51 459.16L440.48 459.24L440.45 459.31L440.41 459.38L440.38 459.45L440.33 459.52L440.29 459.58L440.24 459.65L440.19 459.71L440.14 459.76L440.08 459.82L440.02 459.87L439.96 459.92L439.9 459.97L439.84 460.02L439.77 460.06L439.7 460.1L439.63 460.13L439.55 460.16L439.48 460.19L439.4 460.22L439.32 460.24L439.24 460.26L439.16 460.27L439.08 460.28L439 460.29L438.91 460.29L382.54 460.29L382.46 460.29L382.38 460.28L382.29 460.27L382.21 460.26L382.13 460.24L382.05 460.22L381.98 460.19L381.9 460.16L381.83 460.13L381.76 460.1L381.69 460.06L381.62 460.02L381.56 459.97L381.49 459.92L381.43 459.87L381.37 459.82L381.32 459.76L381.27 459.71L381.22 459.65L381.17 459.58L381.12 459.52L381.08 459.45L381.04 459.38L381.01 459.31L380.98 459.24L380.95 459.16L380.92 459.08L380.9 459.01L380.88 458.93L380.87 458.85L380.86 458.76L380.85 458.68L380.85 458.6L380.85 439.16L380.86 438.91L380.88 438.65L380.91 438.4L380.95 438.15L381 437.91L381.07 437.67L381.15 437.44L381.23 437.21L381.33 436.98L381.44 436.77L381.56 436.55L381.68 436.35L381.82 436.15L381.97 435.96L382.12 435.77L382.28 435.59L382.45 435.42L382.63 435.26L382.81 435.11L383.01 434.96L383.21 434.82L383.41 434.7L383.62 434.58L383.84 434.47L384.07 434.37L384.3 434.29L384.53 434.21L384.77 434.14L385.01 434.09L385.26 434.05L385.51 434.02L385.77 434L386.02 433.99L435.43 433.99L435.69 434L435.95 434.02L436.2 434.05Z" id="a1iKHIXHo9"></path><path d="M436.2 434.05L436.44 434.09L436.69 434.14L436.93 434.21L437.16 434.29L437.39 434.37L437.61 434.47L437.83 434.58L438.04 434.7L438.25 434.82L438.45 434.96L438.64 435.11L438.83 435.26L439 435.42L439.17 435.59L439.34 435.77L439.49 435.96L439.64 436.15L439.77 436.35L439.9 436.55L440.02 436.77L440.13 436.98L440.22 437.21L440.31 437.44L440.39 437.67L440.45 437.91L440.51 438.15L440.55 438.4L440.58 438.65L440.6 438.91L440.61 439.16L440.61 458.6L440.6 458.68L440.6 458.76L440.59 458.85L440.57 458.93L440.56 459.01L440.53 459.08L440.51 459.16L440.48 459.24L440.45 459.31L440.41 459.38L440.38 459.45L440.33 459.52L440.29 459.58L440.24 459.65L440.19 459.71L440.14 459.76L440.08 459.82L440.02 459.87L439.96 459.92L439.9 459.97L439.84 460.02L439.77 460.06L439.7 460.1L439.63 460.13L439.55 460.16L439.48 460.19L439.4 460.22L439.32 460.24L439.24 460.26L439.16 460.27L439.08 460.28L439 460.29L438.91 460.29L382.54 460.29L382.46 460.29L382.38 460.28L382.29 460.27L382.21 460.26L382.13 460.24L382.05 460.22L381.98 460.19L381.9 460.16L381.83 460.13L381.76 460.1L381.69 460.06L381.62 460.02L381.56 459.97L381.49 459.92L381.43 459.87L381.37 459.82L381.32 459.76L381.27 459.71L381.22 459.65L381.17 459.58L381.12 459.52L381.08 459.45L381.04 459.38L381.01 459.31L380.98 459.24L380.95 459.16L380.92 459.08L380.9 459.01L380.88 458.93L380.87 458.85L380.86 458.76L380.85 458.68L380.85 458.6L380.85 439.16L380.86 438.91L380.88 438.65L380.91 438.4L380.95 438.15L381 437.91L381.07 437.67L381.15 437.44L381.23 437.21L381.33 436.98L381.44 436.77L381.56 436.55L381.68 436.35L381.82 436.15L381.97 435.96L382.12 435.77L382.28 435.59L382.45 435.42L382.63 435.26L382.81 435.11L383.01 434.96L383.21 434.82L383.41 434.7L383.62 434.58L383.84 434.47L384.07 434.37L384.3 434.29L384.53 434.21L384.77 434.14L385.01 434.09L385.26 434.05L385.51 434.02L385.77 434L386.02 433.99L435.43 433.99L435.69 434L435.95 434.02L436.2 434.05Z" id="bM5y6pmDH"></path><path d="M436.81 434.18L437.24 434.31L437.65 434.49L438.04 434.7L438.42 434.94L438.77 435.21L439.09 435.51L439.39 435.83L439.66 436.18L439.9 436.55L440.11 436.95L440.28 437.36L440.42 437.79L440.52 438.24L440.58 438.69L440.61 439.16L440.61 458.6L440.6 458.75L440.58 458.9L440.55 459.05L440.5 459.19L440.44 459.32L440.37 459.45L440.3 459.57L440.21 459.69L440.11 459.79L440 459.89L439.89 459.98L439.77 460.06L439.64 460.13L439.5 460.18L439.36 460.23L439.22 460.26L439.07 460.28L438.91 460.29L422.11 460.29L422.26 460.28L422.41 460.26L422.56 460.23L422.7 460.18L422.84 460.13L422.96 460.06L423.09 459.98L423.2 459.89L423.31 459.79L423.41 459.69L423.49 459.57L423.57 459.45L423.64 459.32L423.7 459.19L423.74 459.05L423.78 458.9L423.8 458.75L423.8 458.6L423.8 439.16L423.78 438.69L423.72 438.24L423.62 437.79L423.48 437.36L423.31 436.95L423.1 436.55L422.86 436.18L422.59 435.83L422.29 435.51L421.96 435.21L421.61 434.94L421.24 434.7L420.85 434.49L420.44 434.31L420.01 434.18L419.56 434.07L419.1 434.01L418.63 433.99L435.43 433.99L435.9 434.01L436.36 434.07L436.81 434.18Z" id="i1KXBmgiNG"></path><path d="M436.81 434.18L437.24 434.31L437.65 434.49L438.04 434.7L438.42 434.94L438.77 435.21L439.09 435.51L439.39 435.83L439.66 436.18L439.9 436.55L440.11 436.95L440.28 437.36L440.42 437.79L440.52 438.24L440.58 438.69L440.61 439.16L440.61 458.6L440.6 458.75L440.58 458.9L440.55 459.05L440.5 459.19L440.44 459.32L440.37 459.45L440.3 459.57L440.21 459.69L440.11 459.79L440 459.89L439.89 459.98L439.77 460.06L439.64 460.13L439.5 460.18L439.36 460.23L439.22 460.26L439.07 460.28L438.91 460.29L422.11 460.29L422.26 460.28L422.41 460.26L422.56 460.23L422.7 460.18L422.84 460.13L422.96 460.06L423.09 459.98L423.2 459.89L423.31 459.79L423.41 459.69L423.49 459.57L423.57 459.45L423.64 459.32L423.7 459.19L423.74 459.05L423.78 458.9L423.8 458.75L423.8 458.6L423.8 439.16L423.78 438.69L423.72 438.24L423.62 437.79L423.48 437.36L423.31 436.95L423.1 436.55L422.86 436.18L422.59 435.83L422.29 435.51L421.96 435.21L421.61 434.94L421.24 434.7L420.85 434.49L420.44 434.31L420.01 434.18L419.56 434.07L419.1 434.01L418.63 433.99L435.43 433.99L435.9 434.01L436.36 434.07L436.81 434.18Z" id="a13t7mPwGp"></path><path d="M346.08 434.18L346.51 434.31L346.92 434.49L347.31 434.7L347.69 434.94L348.04 435.21L348.36 435.51L348.66 435.83L348.93 436.18L349.17 436.55L349.38 436.95L349.55 437.36L349.69 437.79L349.79 438.24L349.86 438.69L349.88 439.16L349.88 458.6L349.87 458.75L349.85 458.9L349.82 459.05L349.77 459.19L349.71 459.32L349.65 459.45L349.57 459.57L349.48 459.69L349.38 459.79L349.27 459.89L349.16 459.98L349.04 460.06L348.91 460.13L348.77 460.18L348.63 460.23L348.49 460.26L348.34 460.28L348.18 460.29L331.38 460.29L331.54 460.28L331.69 460.26L331.83 460.23L331.97 460.18L332.11 460.13L332.24 460.06L332.36 459.98L332.47 459.89L332.58 459.79L332.68 459.69L332.77 459.57L332.84 459.45L332.91 459.32L332.97 459.19L333.01 459.05L333.05 458.9L333.07 458.75L333.07 458.6L333.07 439.16L333.05 438.69L332.99 438.24L332.89 437.79L332.75 437.36L332.58 436.95L332.37 436.55L332.13 436.18L331.86 435.83L331.56 435.51L331.23 435.21L330.89 434.94L330.51 434.7L330.12 434.49L329.71 434.31L329.28 434.18L328.83 434.07L328.37 434.01L327.9 433.99L344.7 433.99L345.17 434.01L345.63 434.07L346.08 434.18Z" id="b2X9Hd69qi"></path><path d="M346.08 434.18L346.51 434.31L346.92 434.49L347.31 434.7L347.69 434.94L348.04 435.21L348.36 435.51L348.66 435.83L348.93 436.18L349.17 436.55L349.38 436.95L349.55 437.36L349.69 437.79L349.79 438.24L349.86 438.69L349.88 439.16L349.88 458.6L349.87 458.75L349.85 458.9L349.82 459.05L349.77 459.19L349.71 459.32L349.65 459.45L349.57 459.57L349.48 459.69L349.38 459.79L349.27 459.89L349.16 459.98L349.04 460.06L348.91 460.13L348.77 460.18L348.63 460.23L348.49 460.26L348.34 460.28L348.18 460.29L331.38 460.29L331.54 460.28L331.69 460.26L331.83 460.23L331.97 460.18L332.11 460.13L332.24 460.06L332.36 459.98L332.47 459.89L332.58 459.79L332.68 459.69L332.77 459.57L332.84 459.45L332.91 459.32L332.97 459.19L333.01 459.05L333.05 458.9L333.07 458.75L333.07 458.6L333.07 439.16L333.05 438.69L332.99 438.24L332.89 437.79L332.75 437.36L332.58 436.95L332.37 436.55L332.13 436.18L331.86 435.83L331.56 435.51L331.23 435.21L330.89 434.94L330.51 434.7L330.12 434.49L329.71 434.31L329.28 434.18L328.83 434.07L328.37 434.01L327.9 433.99L344.7 433.99L345.17 434.01L345.63 434.07L346.08 434.18Z" id="b2vxOuOnpV"></path><path d="M255.35 434.18L255.78 434.31L256.19 434.49L256.59 434.7L256.96 434.94L257.31 435.21L257.63 435.51L257.93 435.83L258.2 436.18L258.44 436.55L258.65 436.95L258.83 437.36L258.96 437.79L259.07 438.24L259.13 438.69L259.15 439.16L259.15 458.6L259.14 458.75L259.12 458.9L259.09 459.05L259.04 459.19L258.99 459.32L258.92 459.45L258.84 459.57L258.75 459.69L258.65 459.79L258.55 459.89L258.43 459.98L258.31 460.06L258.18 460.13L258.05 460.18L257.91 460.23L257.76 460.26L257.61 460.28L257.46 460.29L240.66 460.29L240.81 460.28L240.96 460.26L241.1 460.23L241.25 460.18L241.38 460.13L241.51 460.06L241.63 459.98L241.74 459.89L241.85 459.79L241.95 459.69L242.04 459.57L242.12 459.45L242.18 459.32L242.24 459.19L242.29 459.05L242.32 458.9L242.34 458.75L242.35 458.6L242.35 439.16L242.32 438.69L242.26 438.24L242.16 437.79L242.02 437.36L241.85 436.95L241.64 436.55L241.4 436.18L241.13 435.83L240.83 435.51L240.51 435.21L240.16 434.94L239.78 434.7L239.39 434.49L238.98 434.31L238.55 434.18L238.1 434.07L237.64 434.01L237.17 433.99L253.98 433.99L254.45 434.01L254.9 434.07L255.35 434.18Z" id="c2pxtsbxy3"></path><path d="M255.35 434.18L255.78 434.31L256.19 434.49L256.59 434.7L256.96 434.94L257.31 435.21L257.63 435.51L257.93 435.83L258.2 436.18L258.44 436.55L258.65 436.95L258.83 437.36L258.96 437.79L259.07 438.24L259.13 438.69L259.15 439.16L259.15 458.6L259.14 458.75L259.12 458.9L259.09 459.05L259.04 459.19L258.99 459.32L258.92 459.45L258.84 459.57L258.75 459.69L258.65 459.79L258.55 459.89L258.43 459.98L258.31 460.06L258.18 460.13L258.05 460.18L257.91 460.23L257.76 460.26L257.61 460.28L257.46 460.29L240.66 460.29L240.81 460.28L240.96 460.26L241.1 460.23L241.25 460.18L241.38 460.13L241.51 460.06L241.63 459.98L241.74 459.89L241.85 459.79L241.95 459.69L242.04 459.57L242.12 459.45L242.18 459.32L242.24 459.19L242.29 459.05L242.32 458.9L242.34 458.75L242.35 458.6L242.35 439.16L242.32 438.69L242.26 438.24L242.16 437.79L242.02 437.36L241.85 436.95L241.64 436.55L241.4 436.18L241.13 435.83L240.83 435.51L240.51 435.21L240.16 434.94L239.78 434.7L239.39 434.49L238.98 434.31L238.55 434.18L238.1 434.07L237.64 434.01L237.17 433.99L253.98 433.99L254.45 434.01L254.9 434.07L255.35 434.18Z" id="e2MjsRVbNs"></path><path d="M259.08 303.7L259 304.32L258.89 304.93L258.75 305.52L258.58 306.11L258.38 306.68L258.15 307.24L257.89 307.78L257.61 308.31L257.31 308.82L256.98 309.32L256.62 309.79L256.25 310.25L255.85 310.69L255.43 311.11L254.99 311.51L254.53 311.89L254.05 312.24L253.56 312.57L253.05 312.87L252.52 313.16L251.97 313.41L251.42 313.64L250.84 313.84L250.26 314.01L249.66 314.15L249.06 314.26L248.44 314.34L247.81 314.39L247.18 314.41L211.37 314.41L210.73 314.39L210.1 314.34L209.49 314.26L208.88 314.15L208.28 314.01L207.7 313.84L207.13 313.64L206.57 313.41L206.02 313.16L205.5 312.87L204.98 312.57L204.49 312.24L204.01 311.89L203.55 311.51L203.11 311.11L202.69 310.69L202.3 310.25L201.92 309.79L201.57 309.32L201.23 308.82L200.93 308.31L200.65 307.78L200.39 307.24L200.17 306.68L199.97 306.11L199.8 305.52L199.65 304.93L199.54 304.32L199.46 303.7L199.41 303.07L199.39 302.44L199.39 289.86L259.15 289.86L259.15 302.44L259.13 303.07L259.08 303.7Z" id="d336eYKJh4"></path><path d="M259.08 303.7L259 304.32L258.89 304.93L258.75 305.52L258.58 306.11L258.38 306.68L258.15 307.24L257.89 307.78L257.61 308.31L257.31 308.82L256.98 309.32L256.62 309.79L256.25 310.25L255.85 310.69L255.43 311.11L254.99 311.51L254.53 311.89L254.05 312.24L253.56 312.57L253.05 312.87L252.52 313.16L251.97 313.41L251.42 313.64L250.84 313.84L250.26 314.01L249.66 314.15L249.06 314.26L248.44 314.34L247.81 314.39L247.18 314.41L211.37 314.41L210.73 314.39L210.1 314.34L209.49 314.26L208.88 314.15L208.28 314.01L207.7 313.84L207.13 313.64L206.57 313.41L206.02 313.16L205.5 312.87L204.98 312.57L204.49 312.24L204.01 311.89L203.55 311.51L203.11 311.11L202.69 310.69L202.3 310.25L201.92 309.79L201.57 309.32L201.23 308.82L200.93 308.31L200.65 307.78L200.39 307.24L200.17 306.68L199.97 306.11L199.8 305.52L199.65 304.93L199.54 304.32L199.46 303.7L199.41 303.07L199.39 302.44L199.39 289.86L259.15 289.86L259.15 302.44L259.13 303.07L259.08 303.7Z" id="b1WwHYHMq"></path><path d="M349.81 303.7L349.73 304.32L349.62 304.93L349.48 305.52L349.3 306.11L349.1 306.68L348.88 307.24L348.62 307.78L348.34 308.31L348.04 308.82L347.71 309.32L347.35 309.79L346.98 310.25L346.58 310.69L346.16 311.11L345.72 311.51L345.26 311.89L344.78 312.24L344.29 312.57L343.77 312.87L343.25 313.16L342.7 313.41L342.14 313.64L341.57 313.84L340.99 314.01L340.39 314.15L339.78 314.26L339.17 314.34L338.54 314.39L337.9 314.41L302.1 314.41L301.46 314.39L300.83 314.34L300.21 314.26L299.61 314.15L299.01 314.01L298.43 313.84L297.85 313.64L297.3 313.41L296.75 313.16L296.22 312.87L295.71 312.57L295.22 312.24L294.74 311.89L294.28 311.51L293.84 311.11L293.42 310.69L293.02 310.25L292.65 309.79L292.29 309.32L291.96 308.82L291.66 308.31L291.38 307.78L291.12 307.24L290.89 306.68L290.69 306.11L290.52 305.52L290.38 304.93L290.27 304.32L290.19 303.7L290.14 303.07L290.12 302.44L290.12 289.86L349.88 289.86L349.88 302.44L349.86 303.07L349.81 303.7Z" id="ldXIbGqWQ"></path><path d="M349.81 303.7L349.73 304.32L349.62 304.93L349.48 305.52L349.3 306.11L349.1 306.68L348.88 307.24L348.62 307.78L348.34 308.31L348.04 308.82L347.71 309.32L347.35 309.79L346.98 310.25L346.58 310.69L346.16 311.11L345.72 311.51L345.26 311.89L344.78 312.24L344.29 312.57L343.77 312.87L343.25 313.16L342.7 313.41L342.14 313.64L341.57 313.84L340.99 314.01L340.39 314.15L339.78 314.26L339.17 314.34L338.54 314.39L337.9 314.41L302.1 314.41L301.46 314.39L300.83 314.34L300.21 314.26L299.61 314.15L299.01 314.01L298.43 313.84L297.85 313.64L297.3 313.41L296.75 313.16L296.22 312.87L295.71 312.57L295.22 312.24L294.74 311.89L294.28 311.51L293.84 311.11L293.42 310.69L293.02 310.25L292.65 309.79L292.29 309.32L291.96 308.82L291.66 308.31L291.38 307.78L291.12 307.24L290.89 306.68L290.69 306.11L290.52 305.52L290.38 304.93L290.27 304.32L290.19 303.7L290.14 303.07L290.12 302.44L290.12 289.86L349.88 289.86L349.88 302.44L349.86 303.07L349.81 303.7Z" id="d5o99LiE6"></path><path d="M440.54 303.7L440.46 304.32L440.35 304.93L440.2 305.52L440.03 306.11L439.83 306.68L439.61 307.24L439.35 307.78L439.07 308.31L438.76 308.82L438.43 309.32L438.08 309.79L437.7 310.25L437.31 310.69L436.89 311.11L436.45 311.51L435.99 311.89L435.51 312.24L435.01 312.57L434.5 312.87L433.97 313.16L433.43 313.41L432.87 313.64L432.3 313.84L431.72 314.01L431.12 314.15L430.51 314.26L429.9 314.34L429.27 314.39L428.63 314.41L392.82 314.41L392.19 314.39L391.56 314.34L390.94 314.26L390.34 314.15L389.74 314.01L389.15 313.84L388.58 313.64L388.02 313.41L387.48 313.16L386.95 312.87L386.44 312.57L385.95 312.24L385.47 311.89L385.01 311.51L384.57 311.11L384.15 310.69L383.75 310.25L383.38 309.79L383.02 309.32L382.69 308.82L382.39 308.31L382.11 307.78L381.85 307.24L381.62 306.68L381.42 306.11L381.25 305.52L381.11 304.93L381 304.32L380.92 303.7L380.87 303.07L380.85 302.44L380.85 289.86L440.61 289.86L440.61 302.44L440.59 303.07L440.54 303.7Z" id="b1JQA8ojnr"></path><path d="M440.54 303.7L440.46 304.32L440.35 304.93L440.2 305.52L440.03 306.11L439.83 306.68L439.61 307.24L439.35 307.78L439.07 308.31L438.76 308.82L438.43 309.32L438.08 309.79L437.7 310.25L437.31 310.69L436.89 311.11L436.45 311.51L435.99 311.89L435.51 312.24L435.01 312.57L434.5 312.87L433.97 313.16L433.43 313.41L432.87 313.64L432.3 313.84L431.72 314.01L431.12 314.15L430.51 314.26L429.9 314.34L429.27 314.39L428.63 314.41L392.82 314.41L392.19 314.39L391.56 314.34L390.94 314.26L390.34 314.15L389.74 314.01L389.15 313.84L388.58 313.64L388.02 313.41L387.48 313.16L386.95 312.87L386.44 312.57L385.95 312.24L385.47 311.89L385.01 311.51L384.57 311.11L384.15 310.69L383.75 310.25L383.38 309.79L383.02 309.32L382.69 308.82L382.39 308.31L382.11 307.78L381.85 307.24L381.62 306.68L381.42 306.11L381.25 305.52L381.11 304.93L381 304.32L380.92 303.7L380.87 303.07L380.85 302.44L380.85 289.86L440.61 289.86L440.61 302.44L440.59 303.07L440.54 303.7Z" id="eClr3rf0"></path><path d="M440.41 304.59L440.18 305.62L439.86 306.61L439.45 307.57L438.97 308.48L438.42 309.34L437.79 310.15L437.1 310.9L436.35 311.59L435.54 312.22L434.68 312.78L433.76 313.26L432.81 313.66L431.82 313.98L430.78 314.22L429.72 314.36L428.63 314.41L412.56 314.41L413.65 314.36L414.72 314.22L415.75 313.98L416.74 313.66L417.7 313.26L418.61 312.78L419.47 312.22L420.28 311.59L421.03 310.9L421.72 310.15L422.35 309.34L422.9 308.48L423.39 307.57L423.79 306.61L424.11 305.62L424.35 304.59L424.49 303.53L424.54 302.44L424.54 289.86L440.61 289.86L440.61 302.44L440.56 303.53L440.41 304.59Z" id="c5X95jAeDO"></path><path d="M440.41 304.59L440.18 305.62L439.86 306.61L439.45 307.57L438.97 308.48L438.42 309.34L437.79 310.15L437.1 310.9L436.35 311.59L435.54 312.22L434.68 312.78L433.76 313.26L432.81 313.66L431.82 313.98L430.78 314.22L429.72 314.36L428.63 314.41L412.56 314.41L413.65 314.36L414.72 314.22L415.75 313.98L416.74 313.66L417.7 313.26L418.61 312.78L419.47 312.22L420.28 311.59L421.03 310.9L421.72 310.15L422.35 309.34L422.9 308.48L423.39 307.57L423.79 306.61L424.11 305.62L424.35 304.59L424.49 303.53L424.54 302.44L424.54 289.86L440.61 289.86L440.61 302.44L440.56 303.53L440.41 304.59Z" id="a9pHt9zeI"></path><path d="M349.68 304.59L349.45 305.62L349.13 306.61L348.72 307.57L348.24 308.48L347.69 309.34L347.06 310.15L346.37 310.9L345.62 311.59L344.81 312.22L343.95 312.78L343.04 313.26L342.08 313.66L341.09 313.98L340.06 314.22L338.99 314.36L337.9 314.41L321.83 314.41L322.92 314.36L323.99 314.22L325.02 313.98L326.01 313.66L326.97 313.26L327.88 312.78L328.74 312.22L329.55 311.59L330.3 310.9L330.99 310.15L331.62 309.34L332.17 308.48L332.66 307.57L333.06 306.61L333.38 305.62L333.61 304.59L333.76 303.53L333.81 302.44L333.81 289.86L349.88 289.86L349.88 302.44L349.83 303.53L349.68 304.59Z" id="c4bid5MBAZ"></path><path d="M349.68 304.59L349.45 305.62L349.13 306.61L348.72 307.57L348.24 308.48L347.69 309.34L347.06 310.15L346.37 310.9L345.62 311.59L344.81 312.22L343.95 312.78L343.04 313.26L342.08 313.66L341.09 313.98L340.06 314.22L338.99 314.36L337.9 314.41L321.83 314.41L322.92 314.36L323.99 314.22L325.02 313.98L326.01 313.66L326.97 313.26L327.88 312.78L328.74 312.22L329.55 311.59L330.3 310.9L330.99 310.15L331.62 309.34L332.17 308.48L332.66 307.57L333.06 306.61L333.38 305.62L333.61 304.59L333.76 303.53L333.81 302.44L333.81 289.86L349.88 289.86L349.88 302.44L349.83 303.53L349.68 304.59Z" id="d3cRjEwwNy"></path><path d="M258.96 304.59L258.72 305.62L258.4 306.61L258 307.57L257.51 308.48L256.96 309.34L256.33 310.15L255.64 310.9L254.89 311.59L254.08 312.22L253.22 312.78L252.31 313.26L251.35 313.66L250.36 313.98L249.33 314.22L248.27 314.36L247.18 314.41L231.11 314.41L232.2 314.36L233.26 314.22L234.29 313.98L235.28 313.66L236.24 313.26L237.15 312.78L238.01 312.22L238.82 311.59L239.57 310.9L240.26 310.15L240.89 309.34L241.44 308.48L241.93 307.57L242.33 306.61L242.65 305.62L242.89 304.59L243.03 303.53L243.08 302.44L243.08 289.86L259.15 289.86L259.15 302.44L259.1 303.53L258.96 304.59Z" id="a1krOloCJZ"></path><path d="M258.96 304.59L258.72 305.62L258.4 306.61L258 307.57L257.51 308.48L256.96 309.34L256.33 310.15L255.64 310.9L254.89 311.59L254.08 312.22L253.22 312.78L252.31 313.26L251.35 313.66L250.36 313.98L249.33 314.22L248.27 314.36L247.18 314.41L231.11 314.41L232.2 314.36L233.26 314.22L234.29 313.98L235.28 313.66L236.24 313.26L237.15 312.78L238.01 312.22L238.82 311.59L239.57 310.9L240.26 310.15L240.89 309.34L241.44 308.48L241.93 307.57L242.33 306.61L242.65 305.62L242.89 304.59L243.03 303.53L243.08 302.44L243.08 289.86L259.15 289.86L259.15 302.44L259.1 303.53L258.96 304.59Z" id="l2eOLJnhkG"></path><path d="M216.89 314.41L241.65 314.41L249.27 433.99L209.27 433.99L216.89 314.41Z" id="hjdO4a2KN"></path><path d="M216.89 314.41L241.65 314.41L249.27 433.99L209.27 433.99L216.89 314.41Z" id="b1FHrijLjc"></path><path d="M307.61 314.41L332.38 314.41L340 433.99L300 433.99L307.61 314.41Z" id="f1SQ0zKzZs"></path><path d="M307.61 314.41L332.38 314.41L340 433.99L300 433.99L307.61 314.41Z" id="aq08KedNJ"></path><path d="M398.34 314.41L423.11 314.41L430.73 433.99L390.73 433.99L398.34 314.41Z" id="b1kAjhO6pM"></path><path d="M398.34 314.41L423.11 314.41L430.73 433.99L390.73 433.99L398.34 314.41Z" id="f1vcJfGYwG"></path><path d="M409.35 314.41L423.11 314.41L430.73 433.99L416.97 433.99L409.35 314.41Z" id="a1Xv57UZcL"></path><path d="M409.35 314.41L423.11 314.41L430.73 433.99L416.97 433.99L409.35 314.41Z" id="c2dBQSNG5K"></path><path d="M318.62 314.41L332.38 314.41L340 433.99L326.24 433.99L318.62 314.41Z" id="a2RQ18147x"></path><path d="M318.62 314.41L332.38 314.41L340 433.99L326.24 433.99L318.62 314.41Z" id="e22kQySvxA"></path><path d="M227.89 314.41L241.65 314.41L249.27 433.99L235.51 433.99L227.89 314.41Z" id="d288JLt2Ap"></path><path d="M227.89 314.41L241.65 314.41L249.27 433.99L235.51 433.99L227.89 314.41Z" id="g5qJgS4Lqr"></path><path d="M457.97 287.34L457.95 287.45L457.94 287.56L457.92 287.67L457.9 287.77L457.87 287.88L457.83 287.98L457.8 288.08L457.76 288.18L457.72 288.28L457.67 288.38L457.62 288.47L457.56 288.56L457.51 288.65L457.44 288.74L457.38 288.82L457.31 288.9L457.24 288.98L457.17 289.06L457.09 289.13L457.01 289.2L456.93 289.27L456.85 289.33L456.76 289.39L456.67 289.45L456.58 289.51L456.49 289.56L456.39 289.6L456.29 289.65L456.19 289.69L456.09 289.72L455.99 289.75L455.88 289.78L455.78 289.81L455.67 289.83L455.56 289.84L455.45 289.85L455.34 289.86L455.22 289.86L184.77 289.86L184.66 289.86L184.55 289.85L184.44 289.84L184.33 289.83L184.22 289.81L184.11 289.78L184.01 289.75L183.91 289.72L183.8 289.69L183.7 289.65L183.61 289.6L183.51 289.56L183.42 289.51L183.33 289.45L183.24 289.39L183.15 289.33L183.07 289.27L182.98 289.2L182.91 289.13L182.83 289.06L182.76 288.98L182.69 288.9L182.62 288.82L182.55 288.74L182.49 288.65L182.43 288.56L182.38 288.47L182.33 288.38L182.28 288.28L182.24 288.18L182.2 288.08L182.16 287.98L182.13 287.88L182.1 287.77L182.08 287.67L182.06 287.56L182.04 287.45L182.03 287.34L182.02 287.22L182.02 287.11L182.02 267.29L457.98 267.29L457.98 287.11L457.97 287.22L457.97 287.34Z" id="bJnD6rBSy"></path><path d="M457.97 287.34L457.95 287.45L457.94 287.56L457.92 287.67L457.9 287.77L457.87 287.88L457.83 287.98L457.8 288.08L457.76 288.18L457.72 288.28L457.67 288.38L457.62 288.47L457.56 288.56L457.51 288.65L457.44 288.74L457.38 288.82L457.31 288.9L457.24 288.98L457.17 289.06L457.09 289.13L457.01 289.2L456.93 289.27L456.85 289.33L456.76 289.39L456.67 289.45L456.58 289.51L456.49 289.56L456.39 289.6L456.29 289.65L456.19 289.69L456.09 289.72L455.99 289.75L455.88 289.78L455.78 289.81L455.67 289.83L455.56 289.84L455.45 289.85L455.34 289.86L455.22 289.86L184.77 289.86L184.66 289.86L184.55 289.85L184.44 289.84L184.33 289.83L184.22 289.81L184.11 289.78L184.01 289.75L183.91 289.72L183.8 289.69L183.7 289.65L183.61 289.6L183.51 289.56L183.42 289.51L183.33 289.45L183.24 289.39L183.15 289.33L183.07 289.27L182.98 289.2L182.91 289.13L182.83 289.06L182.76 288.98L182.69 288.9L182.62 288.82L182.55 288.74L182.49 288.65L182.43 288.56L182.38 288.47L182.33 288.38L182.28 288.28L182.24 288.18L182.2 288.08L182.16 287.98L182.13 287.88L182.1 287.77L182.08 287.67L182.06 287.56L182.04 287.45L182.03 287.34L182.02 287.22L182.02 287.11L182.02 267.29L457.98 267.29L457.98 287.11L457.97 287.22L457.97 287.34Z" id="b6OwaezNSD"></path><path d="M457.92 287.67L457.85 287.93L457.76 288.18L457.64 288.42L457.51 288.65L457.35 288.86L457.17 289.06L456.97 289.23L456.76 289.39L456.54 289.53L456.29 289.65L456.04 289.74L455.78 289.81L455.5 289.85L455.22 289.86L437.85 289.86L438.13 289.85L438.41 289.81L438.67 289.74L438.93 289.65L439.17 289.53L439.39 289.39L439.6 289.23L439.8 289.06L439.98 288.86L440.14 288.65L440.27 288.42L440.39 288.18L440.48 287.93L440.55 287.67L440.59 287.39L440.61 287.11L440.61 267.29L457.98 267.29L457.98 287.11L457.96 287.39L457.92 287.67Z" id="aass5MiME"></path><path d="M457.92 287.67L457.85 287.93L457.76 288.18L457.64 288.42L457.51 288.65L457.35 288.86L457.17 289.06L456.97 289.23L456.76 289.39L456.54 289.53L456.29 289.65L456.04 289.74L455.78 289.81L455.5 289.85L455.22 289.86L437.85 289.86L438.13 289.85L438.41 289.81L438.67 289.74L438.93 289.65L439.17 289.53L439.39 289.39L439.6 289.23L439.8 289.06L439.98 288.86L440.14 288.65L440.27 288.42L440.39 288.18L440.48 287.93L440.55 287.67L440.59 287.39L440.61 287.11L440.61 267.29L457.98 267.29L457.98 287.11L457.96 287.39L457.92 287.67Z" id="a2juXIRA0g"></path><path d="M320.11 182.78L320.15 182.79L320.18 182.79L320.22 182.8L320.26 182.8L320.29 182.81L320.33 182.82L320.37 182.83L320.4 182.84L320.44 182.85L320.47 182.86L320.51 182.88L320.54 182.89L320.58 182.91L320.61 182.92L320.65 182.94L320.68 182.96L320.71 182.98L429.35 248.91L429.44 248.97L429.52 249.03L429.59 249.09L429.66 249.16L429.72 249.23L429.78 249.3L429.83 249.37L429.87 249.45L429.91 249.53L429.94 249.61L429.97 249.7L429.99 249.78L430 249.86L430.01 249.95L430.02 250.04L430.02 250.12L430.01 250.21L430 250.29L429.98 250.37L429.96 250.46L429.94 250.54L429.91 250.62L429.87 250.7L429.83 250.77L429.79 250.85L429.74 250.92L429.69 250.98L429.63 251.05L429.57 251.11L429.51 251.17L429.44 251.22L429.36 251.27L429.29 251.31L429.2 251.35L429.12 251.38L429.03 251.41L428.94 251.43L428.84 251.45L428.74 251.46L428.64 251.46L391.58 251.46L391.44 251.46L391.3 251.45L391.16 251.44L391.02 251.42L390.89 251.39L390.76 251.36L390.62 251.33L390.5 251.29L390.37 251.24L390.24 251.19L390.12 251.14L390 251.08L389.89 251.02L389.77 250.95L389.66 250.88L389.55 250.8L389.45 250.72L389.34 250.64L389.25 250.55L389.15 250.46L389.06 250.36L388.97 250.26L388.89 250.16L388.81 250.06L388.73 249.95L388.66 249.84L388.59 249.72L388.53 249.6L388.47 249.48L388.41 249.36L388.36 249.24L388.32 249.11L388.28 248.98L388.24 248.85L388.21 248.72L388.19 248.58L388.17 248.44L388.15 248.3L388.15 248.16L388.14 248.02L388.14 242.63L388.14 242.49L388.13 242.35L388.12 242.21L388.1 242.07L388.07 241.94L388.04 241.8L388.01 241.67L387.97 241.54L387.92 241.42L387.87 241.29L387.82 241.17L387.76 241.05L387.7 240.93L387.63 240.82L387.56 240.71L387.48 240.6L387.4 240.49L387.31 240.39L387.23 240.29L387.14 240.2L387.04 240.11L386.94 240.02L386.84 239.93L386.73 239.85L386.63 239.78L386.51 239.71L386.4 239.64L386.28 239.57L386.16 239.51L386.04 239.46L385.92 239.41L385.79 239.37L385.66 239.33L385.53 239.29L385.4 239.26L385.26 239.24L385.12 239.22L384.98 239.2L384.84 239.19L384.7 239.19L372.11 239.19L371.97 239.19L371.83 239.2L371.69 239.22L371.55 239.24L371.42 239.26L371.29 239.29L371.16 239.33L371.03 239.37L370.9 239.41L370.77 239.46L370.65 239.51L370.53 239.57L370.42 239.64L370.3 239.71L370.19 239.78L370.08 239.85L369.98 239.93L369.87 240.02L369.78 240.11L369.68 240.2L369.59 240.29L369.5 240.39L369.42 240.49L369.34 240.6L369.26 240.71L369.19 240.82L369.12 240.93L369.06 241.05L369 241.17L368.94 241.29L368.89 241.42L368.85 241.54L368.81 241.67L368.77 241.8L368.74 241.94L368.72 242.07L368.7 242.21L368.69 242.35L368.68 242.49L368.67 242.63L368.67 248.02L368.67 248.16L368.66 248.3L368.65 248.44L368.63 248.58L368.6 248.72L368.57 248.85L368.54 248.98L368.5 249.11L368.45 249.24L368.4 249.36L368.35 249.48L368.29 249.6L368.23 249.72L368.16 249.84L368.09 249.95L368.01 250.06L367.93 250.16L367.85 250.26L367.76 250.36L367.67 250.46L367.57 250.55L367.47 250.64L367.37 250.72L367.26 250.8L367.16 250.88L367.04 250.95L366.93 251.02L366.81 251.08L366.69 251.14L366.57 251.19L366.45 251.24L366.32 251.29L366.19 251.33L366.06 251.36L365.93 251.39L365.79 251.42L365.65 251.44L365.51 251.45L365.37 251.46L365.23 251.46L352.64 251.46L352.5 251.46L352.36 251.45L352.22 251.44L352.09 251.42L351.95 251.39L351.82 251.36L351.69 251.33L351.56 251.29L351.43 251.24L351.3 251.19L351.18 251.14L351.06 251.08L350.95 251.02L350.83 250.95L350.72 250.88L350.61 250.8L350.51 250.72L350.41 250.64L350.31 250.55L350.21 250.46L350.12 250.36L350.03 250.26L349.95 250.16L349.87 250.06L349.79 249.95L349.72 249.84L349.65 249.72L349.59 249.6L349.53 249.48L349.47 249.36L349.42 249.24L349.38 249.11L349.34 248.98L349.3 248.85L349.27 248.72L349.25 248.58L349.23 248.44L349.22 248.3L349.21 248.16L349.2 248.02L349.2 242.63L349.2 242.49L349.19 242.35L349.18 242.21L349.16 242.07L349.13 241.94L349.1 241.8L349.07 241.67L349.03 241.54L348.98 241.42L348.93 241.29L348.88 241.17L348.82 241.05L348.76 240.93L348.69 240.82L348.62 240.71L348.54 240.6L348.46 240.49L348.38 240.39L348.29 240.29L348.2 240.2L348.1 240.11L348 240.02L347.9 239.93L347.8 239.85L347.69 239.78L347.58 239.71L347.46 239.64L347.35 239.57L347.23 239.51L347.1 239.46L346.98 239.41L346.85 239.37L346.72 239.33L346.59 239.29L346.46 239.26L346.32 239.24L346.18 239.22L346.05 239.2L345.9 239.19L345.76 239.19L333.18 239.19L333.03 239.19L332.89 239.2L332.75 239.22L332.62 239.24L332.48 239.26L332.35 239.29L332.22 239.33L332.09 239.37L331.96 239.41L331.84 239.46L331.71 239.51L331.59 239.57L331.48 239.64L331.36 239.71L331.25 239.78L331.14 239.85L331.04 239.93L330.94 240.02L330.84 240.11L330.74 240.2L330.65 240.29L330.56 240.39L330.48 240.49L330.4 240.6L330.32 240.71L330.25 240.82L330.18 240.93L330.12 241.05L330.06 241.17L330.01 241.29L329.96 241.42L329.91 241.54L329.87 241.67L329.83 241.8L329.8 241.94L329.78 242.07L329.76 242.21L329.75 242.35L329.74 242.49L329.73 242.63L329.73 248.02L329.73 248.16L329.72 248.3L329.71 248.44L329.69 248.58L329.66 248.72L329.63 248.85L329.6 248.98L329.56 249.11L329.51 249.24L329.46 249.36L329.41 249.48L329.35 249.6L329.29 249.72L329.22 249.84L329.15 249.95L329.07 250.06L328.99 250.16L328.91 250.26L328.82 250.36L328.73 250.46L328.63 250.55L328.53 250.64L328.43 250.72L328.33 250.8L328.22 250.88L328.11 250.95L327.99 251.02L327.88 251.08L327.76 251.14L327.63 251.19L327.51 251.24L327.38 251.29L327.25 251.33L327.12 251.36L326.99 251.39L326.85 251.42L326.71 251.44L326.58 251.45L326.44 251.46L326.29 251.46L313.71 251.46L313.56 251.46L313.42 251.45L313.29 251.44L313.15 251.42L313.01 251.39L312.88 251.36L312.75 251.33L312.62 251.29L312.49 251.24L312.37 251.19L312.24 251.14L312.12 251.08L312.01 251.02L311.89 250.95L311.78 250.88L311.67 250.8L311.57 250.72L311.47 250.64L311.37 250.55L311.27 250.46L311.18 250.36L311.09 250.26L311.01 250.16L310.93 250.06L310.85 249.95L310.78 249.84L310.71 249.72L310.65 249.6L310.59 249.48L310.54 249.36L310.49 249.24L310.44 249.11L310.4 248.98L310.37 248.85L310.34 248.72L310.31 248.58L310.29 248.44L310.28 248.3L310.27 248.16L310.27 248.02L310.27 242.63L310.26 242.49L310.25 242.35L310.24 242.21L310.22 242.07L310.2 241.94L310.17 241.8L310.13 241.67L310.09 241.54L310.04 241.42L309.99 241.29L309.94 241.17L309.88 241.05L309.82 240.93L309.75 240.82L309.68 240.71L309.6 240.6L309.52 240.49L309.44 240.39L309.35 240.29L309.26 240.2L309.16 240.11L309.06 240.02L308.96 239.93L308.86 239.85L308.75 239.78L308.64 239.71L308.52 239.64L308.41 239.57L308.29 239.51L308.16 239.46L308.04 239.41L307.91 239.37L307.78 239.33L307.65 239.29L307.52 239.26L307.38 239.24L307.25 239.22L307.11 239.2L306.97 239.19L306.82 239.19L294.24 239.19L294.1 239.19L293.96 239.2L293.82 239.22L293.68 239.24L293.54 239.26L293.41 239.29L293.28 239.33L293.15 239.37L293.02 239.41L292.9 239.46L292.78 239.51L292.66 239.57L292.54 239.64L292.42 239.71L292.31 239.78L292.21 239.85L292.1 239.93L292 240.02L291.9 240.11L291.8 240.2L291.71 240.29L291.62 240.39L291.54 240.49L291.46 240.6L291.38 240.71L291.31 240.82L291.24 240.93L291.18 241.05L291.12 241.17L291.07 241.29L291.02 241.42L290.97 241.54L290.93 241.67L290.9 241.8L290.87 241.94L290.84 242.07L290.82 242.21L290.81 242.35L290.8 242.49L290.8 242.63L290.8 248.02L290.79 248.16L290.78 248.3L290.77 248.44L290.75 248.58L290.73 248.72L290.7 248.85L290.66 248.98L290.62 249.11L290.58 249.24L290.53 249.36L290.47 249.48L290.41 249.6L290.35 249.72L290.28 249.84L290.21 249.95L290.13 250.06L290.05 250.16L289.97 250.26L289.88 250.36L289.79 250.46L289.69 250.55L289.59 250.64L289.49 250.72L289.39 250.8L289.28 250.88L289.17 250.95L289.05 251.02L288.94 251.08L288.82 251.14L288.7 251.19L288.57 251.24L288.44 251.29L288.31 251.33L288.18 251.36L288.05 251.39L287.91 251.42L287.78 251.44L287.64 251.45L287.5 251.46L287.36 251.46L274.77 251.46L274.63 251.46L274.49 251.45L274.35 251.44L274.21 251.42L274.07 251.39L273.94 251.36L273.81 251.33L273.68 251.29L273.55 251.24L273.43 251.19L273.31 251.14L273.19 251.08L273.07 251.02L272.96 250.95L272.84 250.88L272.74 250.8L272.63 250.72L272.53 250.64L272.43 250.55L272.33 250.46L272.24 250.36L272.15 250.26L272.07 250.16L271.99 250.06L271.91 249.95L271.84 249.84L271.77 249.72L271.71 249.6L271.65 249.48L271.6 249.36L271.55 249.24L271.5 249.11L271.46 248.98L271.43 248.85L271.4 248.72L271.37 248.58L271.35 248.44L271.34 248.3L271.33 248.16L271.33 248.02L271.33 242.63L271.32 242.49L271.31 242.35L271.3 242.21L271.28 242.07L271.26 241.94L271.23 241.8L271.19 241.67L271.15 241.54L271.11 241.42L271.06 241.29L271 241.17L270.94 241.05L270.88 240.93L270.81 240.82L270.74 240.71L270.66 240.6L270.58 240.49L270.5 240.39L270.41 240.29L270.32 240.2L270.22 240.11L270.13 240.02L270.02 239.93L269.92 239.85L269.81 239.78L269.7 239.71L269.58 239.64L269.47 239.57L269.35 239.51L269.23 239.46L269.1 239.41L268.97 239.37L268.84 239.33L268.71 239.29L268.58 239.26L268.45 239.24L268.31 239.22L268.17 239.2L268.03 239.19L267.89 239.19L255.3 239.19L255.16 239.19L255.02 239.2L254.88 239.22L254.74 239.24L254.6 239.26L254.47 239.29L254.34 239.33L254.21 239.37L254.08 239.41L253.96 239.46L253.84 239.51L253.72 239.57L253.6 239.64L253.49 239.71L253.37 239.78L253.27 239.85L253.16 239.93L253.06 240.02L252.96 240.11L252.86 240.2L252.77 240.29L252.69 240.39L252.6 240.49L252.52 240.6L252.44 240.71L252.37 240.82L252.3 240.93L252.24 241.05L252.18 241.17L252.13 241.29L252.08 241.42L252.03 241.54L251.99 241.67L251.96 241.8L251.93 241.94L251.9 242.07L251.88 242.21L251.87 242.35L251.86 242.49L251.86 242.63L251.86 248.02L251.85 248.16L251.85 248.3L251.83 248.44L251.81 248.58L251.79 248.72L251.76 248.85L251.72 248.98L251.68 249.11L251.64 249.24L251.59 249.36L251.53 249.48L251.47 249.6L251.41 249.72L251.34 249.84L251.27 249.95L251.19 250.06L251.11 250.16L251.03 250.26L250.94 250.36L250.85 250.46L250.75 250.55L250.66 250.64L250.55 250.72L250.45 250.8L250.34 250.88L250.23 250.95L250.11 251.02L250 251.08L249.88 251.14L249.76 251.19L249.63 251.24L249.5 251.29L249.38 251.33L249.24 251.36L249.11 251.39L248.98 251.42L248.84 251.44L248.7 251.45L248.56 251.46L248.42 251.46L211.36 251.46L211.26 251.46L211.16 251.45L211.06 251.43L210.97 251.41L210.88 251.38L210.8 251.35L210.71 251.31L210.64 251.27L210.56 251.22L210.49 251.17L210.43 251.11L210.37 251.05L210.31 250.98L210.26 250.92L210.21 250.85L210.16 250.77L210.13 250.7L210.09 250.62L210.06 250.54L210.03 250.46L210.01 250.37L210 250.29L209.99 250.21L209.98 250.12L209.98 250.04L209.99 249.95L210 249.86L210.01 249.78L210.03 249.7L210.06 249.61L210.09 249.53L210.13 249.45L210.17 249.37L210.22 249.3L210.28 249.23L210.34 249.16L210.41 249.09L210.48 249.03L210.56 248.97L210.64 248.91L319.29 182.98L319.32 182.96L319.35 182.94L319.39 182.92L319.42 182.91L319.45 182.89L319.49 182.88L319.52 182.86L319.56 182.85L319.6 182.84L319.63 182.83L319.67 182.82L319.7 182.81L319.74 182.8L319.78 182.8L319.81 182.79L319.85 182.79L319.89 182.78L319.92 182.78L319.96 182.78L320 182.78L320.04 182.78L320.07 182.78L320.11 182.78Z" id="g144iRR0Sd"></path><path d="M320.11 182.78L320.15 182.79L320.18 182.79L320.22 182.8L320.26 182.8L320.29 182.81L320.33 182.82L320.37 182.83L320.4 182.84L320.44 182.85L320.47 182.86L320.51 182.88L320.54 182.89L320.58 182.91L320.61 182.92L320.65 182.94L320.68 182.96L320.71 182.98L429.35 248.91L429.44 248.97L429.52 249.03L429.59 249.09L429.66 249.16L429.72 249.23L429.78 249.3L429.83 249.37L429.87 249.45L429.91 249.53L429.94 249.61L429.97 249.7L429.99 249.78L430 249.86L430.01 249.95L430.02 250.04L430.02 250.12L430.01 250.21L430 250.29L429.98 250.37L429.96 250.46L429.94 250.54L429.91 250.62L429.87 250.7L429.83 250.77L429.79 250.85L429.74 250.92L429.69 250.98L429.63 251.05L429.57 251.11L429.51 251.17L429.44 251.22L429.36 251.27L429.29 251.31L429.2 251.35L429.12 251.38L429.03 251.41L428.94 251.43L428.84 251.45L428.74 251.46L428.64 251.46L391.58 251.46L391.44 251.46L391.3 251.45L391.16 251.44L391.02 251.42L390.89 251.39L390.76 251.36L390.62 251.33L390.5 251.29L390.37 251.24L390.24 251.19L390.12 251.14L390 251.08L389.89 251.02L389.77 250.95L389.66 250.88L389.55 250.8L389.45 250.72L389.34 250.64L389.25 250.55L389.15 250.46L389.06 250.36L388.97 250.26L388.89 250.16L388.81 250.06L388.73 249.95L388.66 249.84L388.59 249.72L388.53 249.6L388.47 249.48L388.41 249.36L388.36 249.24L388.32 249.11L388.28 248.98L388.24 248.85L388.21 248.72L388.19 248.58L388.17 248.44L388.15 248.3L388.15 248.16L388.14 248.02L388.14 242.63L388.14 242.49L388.13 242.35L388.12 242.21L388.1 242.07L388.07 241.94L388.04 241.8L388.01 241.67L387.97 241.54L387.92 241.42L387.87 241.29L387.82 241.17L387.76 241.05L387.7 240.93L387.63 240.82L387.56 240.71L387.48 240.6L387.4 240.49L387.31 240.39L387.23 240.29L387.14 240.2L387.04 240.11L386.94 240.02L386.84 239.93L386.73 239.85L386.63 239.78L386.51 239.71L386.4 239.64L386.28 239.57L386.16 239.51L386.04 239.46L385.92 239.41L385.79 239.37L385.66 239.33L385.53 239.29L385.4 239.26L385.26 239.24L385.12 239.22L384.98 239.2L384.84 239.19L384.7 239.19L372.11 239.19L371.97 239.19L371.83 239.2L371.69 239.22L371.55 239.24L371.42 239.26L371.29 239.29L371.16 239.33L371.03 239.37L370.9 239.41L370.77 239.46L370.65 239.51L370.53 239.57L370.42 239.64L370.3 239.71L370.19 239.78L370.08 239.85L369.98 239.93L369.87 240.02L369.78 240.11L369.68 240.2L369.59 240.29L369.5 240.39L369.42 240.49L369.34 240.6L369.26 240.71L369.19 240.82L369.12 240.93L369.06 241.05L369 241.17L368.94 241.29L368.89 241.42L368.85 241.54L368.81 241.67L368.77 241.8L368.74 241.94L368.72 242.07L368.7 242.21L368.69 242.35L368.68 242.49L368.67 242.63L368.67 248.02L368.67 248.16L368.66 248.3L368.65 248.44L368.63 248.58L368.6 248.72L368.57 248.85L368.54 248.98L368.5 249.11L368.45 249.24L368.4 249.36L368.35 249.48L368.29 249.6L368.23 249.72L368.16 249.84L368.09 249.95L368.01 250.06L367.93 250.16L367.85 250.26L367.76 250.36L367.67 250.46L367.57 250.55L367.47 250.64L367.37 250.72L367.26 250.8L367.16 250.88L367.04 250.95L366.93 251.02L366.81 251.08L366.69 251.14L366.57 251.19L366.45 251.24L366.32 251.29L366.19 251.33L366.06 251.36L365.93 251.39L365.79 251.42L365.65 251.44L365.51 251.45L365.37 251.46L365.23 251.46L352.64 251.46L352.5 251.46L352.36 251.45L352.22 251.44L352.09 251.42L351.95 251.39L351.82 251.36L351.69 251.33L351.56 251.29L351.43 251.24L351.3 251.19L351.18 251.14L351.06 251.08L350.95 251.02L350.83 250.95L350.72 250.88L350.61 250.8L350.51 250.72L350.41 250.64L350.31 250.55L350.21 250.46L350.12 250.36L350.03 250.26L349.95 250.16L349.87 250.06L349.79 249.95L349.72 249.84L349.65 249.72L349.59 249.6L349.53 249.48L349.47 249.36L349.42 249.24L349.38 249.11L349.34 248.98L349.3 248.85L349.27 248.72L349.25 248.58L349.23 248.44L349.22 248.3L349.21 248.16L349.2 248.02L349.2 242.63L349.2 242.49L349.19 242.35L349.18 242.21L349.16 242.07L349.13 241.94L349.1 241.8L349.07 241.67L349.03 241.54L348.98 241.42L348.93 241.29L348.88 241.17L348.82 241.05L348.76 240.93L348.69 240.82L348.62 240.71L348.54 240.6L348.46 240.49L348.38 240.39L348.29 240.29L348.2 240.2L348.1 240.11L348 240.02L347.9 239.93L347.8 239.85L347.69 239.78L347.58 239.71L347.46 239.64L347.35 239.57L347.23 239.51L347.1 239.46L346.98 239.41L346.85 239.37L346.72 239.33L346.59 239.29L346.46 239.26L346.32 239.24L346.18 239.22L346.05 239.2L345.9 239.19L345.76 239.19L333.18 239.19L333.03 239.19L332.89 239.2L332.75 239.22L332.62 239.24L332.48 239.26L332.35 239.29L332.22 239.33L332.09 239.37L331.96 239.41L331.84 239.46L331.71 239.51L331.59 239.57L331.48 239.64L331.36 239.71L331.25 239.78L331.14 239.85L331.04 239.93L330.94 240.02L330.84 240.11L330.74 240.2L330.65 240.29L330.56 240.39L330.48 240.49L330.4 240.6L330.32 240.71L330.25 240.82L330.18 240.93L330.12 241.05L330.06 241.17L330.01 241.29L329.96 241.42L329.91 241.54L329.87 241.67L329.83 241.8L329.8 241.94L329.78 242.07L329.76 242.21L329.75 242.35L329.74 242.49L329.73 242.63L329.73 248.02L329.73 248.16L329.72 248.3L329.71 248.44L329.69 248.58L329.66 248.72L329.63 248.85L329.6 248.98L329.56 249.11L329.51 249.24L329.46 249.36L329.41 249.48L329.35 249.6L329.29 249.72L329.22 249.84L329.15 249.95L329.07 250.06L328.99 250.16L328.91 250.26L328.82 250.36L328.73 250.46L328.63 250.55L328.53 250.64L328.43 250.72L328.33 250.8L328.22 250.88L328.11 250.95L327.99 251.02L327.88 251.08L327.76 251.14L327.63 251.19L327.51 251.24L327.38 251.29L327.25 251.33L327.12 251.36L326.99 251.39L326.85 251.42L326.71 251.44L326.58 251.45L326.44 251.46L326.29 251.46L313.71 251.46L313.56 251.46L313.42 251.45L313.29 251.44L313.15 251.42L313.01 251.39L312.88 251.36L312.75 251.33L312.62 251.29L312.49 251.24L312.37 251.19L312.24 251.14L312.12 251.08L312.01 251.02L311.89 250.95L311.78 250.88L311.67 250.8L311.57 250.72L311.47 250.64L311.37 250.55L311.27 250.46L311.18 250.36L311.09 250.26L311.01 250.16L310.93 250.06L310.85 249.95L310.78 249.84L310.71 249.72L310.65 249.6L310.59 249.48L310.54 249.36L310.49 249.24L310.44 249.11L310.4 248.98L310.37 248.85L310.34 248.72L310.31 248.58L310.29 248.44L310.28 248.3L310.27 248.16L310.27 248.02L310.27 242.63L310.26 242.49L310.25 242.35L310.24 242.21L310.22 242.07L310.2 241.94L310.17 241.8L310.13 241.67L310.09 241.54L310.04 241.42L309.99 241.29L309.94 241.17L309.88 241.05L309.82 240.93L309.75 240.82L309.68 240.71L309.6 240.6L309.52 240.49L309.44 240.39L309.35 240.29L309.26 240.2L309.16 240.11L309.06 240.02L308.96 239.93L308.86 239.85L308.75 239.78L308.64 239.71L308.52 239.64L308.41 239.57L308.29 239.51L308.16 239.46L308.04 239.41L307.91 239.37L307.78 239.33L307.65 239.29L307.52 239.26L307.38 239.24L307.25 239.22L307.11 239.2L306.97 239.19L306.82 239.19L294.24 239.19L294.1 239.19L293.96 239.2L293.82 239.22L293.68 239.24L293.54 239.26L293.41 239.29L293.28 239.33L293.15 239.37L293.02 239.41L292.9 239.46L292.78 239.51L292.66 239.57L292.54 239.64L292.42 239.71L292.31 239.78L292.21 239.85L292.1 239.93L292 240.02L291.9 240.11L291.8 240.2L291.71 240.29L291.62 240.39L291.54 240.49L291.46 240.6L291.38 240.71L291.31 240.82L291.24 240.93L291.18 241.05L291.12 241.17L291.07 241.29L291.02 241.42L290.97 241.54L290.93 241.67L290.9 241.8L290.87 241.94L290.84 242.07L290.82 242.21L290.81 242.35L290.8 242.49L290.8 242.63L290.8 248.02L290.79 248.16L290.78 248.3L290.77 248.44L290.75 248.58L290.73 248.72L290.7 248.85L290.66 248.98L290.62 249.11L290.58 249.24L290.53 249.36L290.47 249.48L290.41 249.6L290.35 249.72L290.28 249.84L290.21 249.95L290.13 250.06L290.05 250.16L289.97 250.26L289.88 250.36L289.79 250.46L289.69 250.55L289.59 250.64L289.49 250.72L289.39 250.8L289.28 250.88L289.17 250.95L289.05 251.02L288.94 251.08L288.82 251.14L288.7 251.19L288.57 251.24L288.44 251.29L288.31 251.33L288.18 251.36L288.05 251.39L287.91 251.42L287.78 251.44L287.64 251.45L287.5 251.46L287.36 251.46L274.77 251.46L274.63 251.46L274.49 251.45L274.35 251.44L274.21 251.42L274.07 251.39L273.94 251.36L273.81 251.33L273.68 251.29L273.55 251.24L273.43 251.19L273.31 251.14L273.19 251.08L273.07 251.02L272.96 250.95L272.84 250.88L272.74 250.8L272.63 250.72L272.53 250.64L272.43 250.55L272.33 250.46L272.24 250.36L272.15 250.26L272.07 250.16L271.99 250.06L271.91 249.95L271.84 249.84L271.77 249.72L271.71 249.6L271.65 249.48L271.6 249.36L271.55 249.24L271.5 249.11L271.46 248.98L271.43 248.85L271.4 248.72L271.37 248.58L271.35 248.44L271.34 248.3L271.33 248.16L271.33 248.02L271.33 242.63L271.32 242.49L271.31 242.35L271.3 242.21L271.28 242.07L271.26 241.94L271.23 241.8L271.19 241.67L271.15 241.54L271.11 241.42L271.06 241.29L271 241.17L270.94 241.05L270.88 240.93L270.81 240.82L270.74 240.71L270.66 240.6L270.58 240.49L270.5 240.39L270.41 240.29L270.32 240.2L270.22 240.11L270.13 240.02L270.02 239.93L269.92 239.85L269.81 239.78L269.7 239.71L269.58 239.64L269.47 239.57L269.35 239.51L269.23 239.46L269.1 239.41L268.97 239.37L268.84 239.33L268.71 239.29L268.58 239.26L268.45 239.24L268.31 239.22L268.17 239.2L268.03 239.19L267.89 239.19L255.3 239.19L255.16 239.19L255.02 239.2L254.88 239.22L254.74 239.24L254.6 239.26L254.47 239.29L254.34 239.33L254.21 239.37L254.08 239.41L253.96 239.46L253.84 239.51L253.72 239.57L253.6 239.64L253.49 239.71L253.37 239.78L253.27 239.85L253.16 239.93L253.06 240.02L252.96 240.11L252.86 240.2L252.77 240.29L252.69 240.39L252.6 240.49L252.52 240.6L252.44 240.71L252.37 240.82L252.3 240.93L252.24 241.05L252.18 241.17L252.13 241.29L252.08 241.42L252.03 241.54L251.99 241.67L251.96 241.8L251.93 241.94L251.9 242.07L251.88 242.21L251.87 242.35L251.86 242.49L251.86 242.63L251.86 248.02L251.85 248.16L251.85 248.3L251.83 248.44L251.81 248.58L251.79 248.72L251.76 248.85L251.72 248.98L251.68 249.11L251.64 249.24L251.59 249.36L251.53 249.48L251.47 249.6L251.41 249.72L251.34 249.84L251.27 249.95L251.19 250.06L251.11 250.16L251.03 250.26L250.94 250.36L250.85 250.46L250.75 250.55L250.66 250.64L250.55 250.72L250.45 250.8L250.34 250.88L250.23 250.95L250.11 251.02L250 251.08L249.88 251.14L249.76 251.19L249.63 251.24L249.5 251.29L249.38 251.33L249.24 251.36L249.11 251.39L248.98 251.42L248.84 251.44L248.7 251.45L248.56 251.46L248.42 251.46L211.36 251.46L211.26 251.46L211.16 251.45L211.06 251.43L210.97 251.41L210.88 251.38L210.8 251.35L210.71 251.31L210.64 251.27L210.56 251.22L210.49 251.17L210.43 251.11L210.37 251.05L210.31 250.98L210.26 250.92L210.21 250.85L210.16 250.77L210.13 250.7L210.09 250.62L210.06 250.54L210.03 250.46L210.01 250.37L210 250.29L209.99 250.21L209.98 250.12L209.98 250.04L209.99 249.95L210 249.86L210.01 249.78L210.03 249.7L210.06 249.61L210.09 249.53L210.13 249.45L210.17 249.37L210.22 249.3L210.28 249.23L210.34 249.16L210.41 249.09L210.48 249.03L210.56 248.97L210.64 248.91L319.29 182.98L319.32 182.96L319.35 182.94L319.39 182.92L319.42 182.91L319.45 182.89L319.49 182.88L319.52 182.86L319.56 182.85L319.6 182.84L319.63 182.83L319.67 182.82L319.7 182.81L319.74 182.8L319.78 182.8L319.81 182.79L319.85 182.79L319.89 182.78L319.92 182.78L319.96 182.78L320 182.78L320.04 182.78L320.07 182.78L320.11 182.78Z" id="c2eKNRkS2i"></path><path d="M454.85 460.39L455.41 460.47L455.97 460.58L456.52 460.7L457.06 460.85L457.59 461.01L458.12 461.2L458.63 461.4L459.13 461.63L459.63 461.87L460.11 462.13L460.58 462.41L461.04 462.71L461.48 463.02L461.92 463.35L462.34 463.7L462.74 464.06L463.14 464.44L463.51 464.83L463.88 465.24L464.22 465.66L464.55 466.09L464.87 466.54L465.16 467L465.44 467.47L465.71 467.95L465.95 468.44L466.17 468.95L466.38 469.46L466.56 469.98L466.73 470.51L466.88 471.06L467 471.61L467.1 472.16L467.18 472.73L467.24 473.3L467.28 473.88L467.29 474.46L467.29 481.45L172.71 481.45L172.71 474.46L172.72 473.88L172.76 473.3L172.82 472.73L172.9 472.16L173 471.61L173.12 471.06L173.27 470.51L173.44 469.98L173.62 469.46L173.83 468.95L174.05 468.44L174.29 467.95L174.56 467.47L174.84 467L175.13 466.54L175.45 466.09L175.78 465.66L176.12 465.24L176.49 464.83L176.86 464.44L177.26 464.06L177.66 463.7L178.08 463.35L178.52 463.02L178.96 462.71L179.42 462.41L179.89 462.13L180.37 461.87L180.87 461.63L181.37 461.4L181.88 461.2L182.41 461.01L182.94 460.85L183.48 460.7L184.03 460.58L184.59 460.47L185.15 460.39L185.72 460.34L186.3 460.3L186.89 460.29L453.11 460.29L453.7 460.3L454.28 460.34L454.85 460.39Z" id="dJpxtegh"></path><path d="M454.85 460.39L455.41 460.47L455.97 460.58L456.52 460.7L457.06 460.85L457.59 461.01L458.12 461.2L458.63 461.4L459.13 461.63L459.63 461.87L460.11 462.13L460.58 462.41L461.04 462.71L461.48 463.02L461.92 463.35L462.34 463.7L462.74 464.06L463.14 464.44L463.51 464.83L463.88 465.24L464.22 465.66L464.55 466.09L464.87 466.54L465.16 467L465.44 467.47L465.71 467.95L465.95 468.44L466.17 468.95L466.38 469.46L466.56 469.98L466.73 470.51L466.88 471.06L467 471.61L467.1 472.16L467.18 472.73L467.24 473.3L467.28 473.88L467.29 474.46L467.29 481.45L172.71 481.45L172.71 474.46L172.72 473.88L172.76 473.3L172.82 472.73L172.9 472.16L173 471.61L173.12 471.06L173.27 470.51L173.44 469.98L173.62 469.46L173.83 468.95L174.05 468.44L174.29 467.95L174.56 467.47L174.84 467L175.13 466.54L175.45 466.09L175.78 465.66L176.12 465.24L176.49 464.83L176.86 464.44L177.26 464.06L177.66 463.7L178.08 463.35L178.52 463.02L178.96 462.71L179.42 462.41L179.89 462.13L180.37 461.87L180.87 461.63L181.37 461.4L181.88 461.2L182.41 461.01L182.94 460.85L183.48 460.7L184.03 460.58L184.59 460.47L185.15 460.39L185.72 460.34L186.3 460.3L186.89 460.29L453.11 460.29L453.7 460.3L454.28 460.34L454.85 460.39Z" id="b1JtDwVSd4"></path><path d="M456.88 460.8L458.06 461.18L459.19 461.65L460.27 462.22L461.29 462.88L462.25 463.62L463.14 464.44L463.95 465.33L464.69 466.29L465.35 467.31L465.92 468.39L466.4 469.52L466.78 470.69L467.06 471.91L467.23 473.17L467.29 474.46L467.29 481.45L450.77 481.45L450.77 474.46L450.72 473.17L450.55 471.91L450.27 470.69L449.89 469.52L449.41 468.39L448.84 467.31L448.18 466.29L447.44 465.33L446.62 464.44L445.73 463.62L444.77 462.88L443.75 462.22L442.67 461.65L441.54 461.18L440.37 460.8L439.15 460.52L437.89 460.35L436.6 460.29L453.11 460.29L454.4 460.35L455.66 460.52L456.88 460.8Z" id="c6QdxnDfEZ"></path><path d="M456.88 460.8L458.06 461.18L459.19 461.65L460.27 462.22L461.29 462.88L462.25 463.62L463.14 464.44L463.95 465.33L464.69 466.29L465.35 467.31L465.92 468.39L466.4 469.52L466.78 470.69L467.06 471.91L467.23 473.17L467.29 474.46L467.29 481.45L450.77 481.45L450.77 474.46L450.72 473.17L450.55 471.91L450.27 470.69L449.89 469.52L449.41 468.39L448.84 467.31L448.18 466.29L447.44 465.33L446.62 464.44L445.73 463.62L444.77 462.88L443.75 462.22L442.67 461.65L441.54 461.18L440.37 460.8L439.15 460.52L437.89 460.35L436.6 460.29L453.11 460.29L454.4 460.35L455.66 460.52L456.88 460.8Z" id="c1hF5pzdNv"></path><path d="M474.88 481.56L475.46 481.64L476.03 481.74L476.59 481.87L477.14 482.02L477.68 482.19L478.22 482.38L478.74 482.59L479.25 482.81L479.76 483.06L480.25 483.33L480.73 483.62L481.2 483.92L481.65 484.24L482.09 484.58L482.52 484.93L482.94 485.3L483.34 485.68L483.72 486.08L484.09 486.5L484.44 486.93L484.78 487.37L485.1 487.82L485.4 488.29L485.69 488.77L485.96 489.26L486.21 489.77L486.43 490.28L486.64 490.8L486.83 491.34L487 491.88L487.15 492.43L487.28 492.99L487.38 493.56L487.46 494.14L487.52 494.72L487.56 495.31L487.57 495.91L487.57 504.9L487.57 504.97L487.57 505.04L487.56 505.11L487.55 505.18L487.54 505.24L487.52 505.31L487.5 505.38L487.48 505.44L487.46 505.5L487.44 505.56L487.41 505.62L487.38 505.68L487.35 505.74L487.32 505.8L487.28 505.85L487.24 505.9L487.2 505.96L487.16 506.01L487.12 506.05L487.07 506.1L487.03 506.15L486.98 506.19L486.93 506.23L486.88 506.27L486.82 506.31L486.77 506.34L486.71 506.38L486.66 506.41L486.6 506.44L486.54 506.46L486.47 506.49L486.41 506.51L486.35 506.53L486.28 506.55L486.22 506.56L486.15 506.57L486.08 506.58L486.02 506.59L485.95 506.59L485.88 506.6L160.26 506.6L160.19 506.59L160.13 506.59L160.06 506.58L159.99 506.57L159.92 506.56L159.86 506.55L159.79 506.53L159.73 506.51L159.67 506.49L159.61 506.46L159.55 506.44L159.49 506.41L159.43 506.38L159.37 506.34L159.32 506.31L159.26 506.27L159.21 506.23L159.16 506.19L159.11 506.15L159.07 506.1L159.02 506.05L158.98 506.01L158.94 505.96L158.9 505.9L158.86 505.85L158.82 505.8L158.79 505.74L158.76 505.68L158.73 505.62L158.7 505.56L158.68 505.5L158.66 505.44L158.64 505.38L158.62 505.31L158.61 505.24L158.59 505.18L158.58 505.11L158.58 505.04L158.57 504.97L158.57 504.9L158.57 495.91L158.58 495.31L158.62 494.72L158.68 494.14L158.76 493.56L158.86 492.99L158.99 492.43L159.14 491.88L159.31 491.34L159.5 490.8L159.71 490.28L159.94 489.77L160.18 489.26L160.45 488.77L160.74 488.29L161.04 487.82L161.36 487.37L161.7 486.93L162.05 486.5L162.42 486.08L162.81 485.68L163.21 485.3L163.62 484.93L164.05 484.58L164.49 484.24L164.95 483.92L165.41 483.62L165.89 483.33L166.39 483.06L166.89 482.81L167.4 482.59L167.93 482.38L168.46 482.19L169 482.02L169.56 481.87L170.12 481.74L170.69 481.64L171.26 481.56L171.84 481.5L172.43 481.46L173.03 481.45L473.11 481.45L473.71 481.46L474.3 481.5L474.88 481.56Z" id="a1PYHe8x9N"></path><path d="M474.88 481.56L475.46 481.64L476.03 481.74L476.59 481.87L477.14 482.02L477.68 482.19L478.22 482.38L478.74 482.59L479.25 482.81L479.76 483.06L480.25 483.33L480.73 483.62L481.2 483.92L481.65 484.24L482.09 484.58L482.52 484.93L482.94 485.3L483.34 485.68L483.72 486.08L484.09 486.5L484.44 486.93L484.78 487.37L485.1 487.82L485.4 488.29L485.69 488.77L485.96 489.26L486.21 489.77L486.43 490.28L486.64 490.8L486.83 491.34L487 491.88L487.15 492.43L487.28 492.99L487.38 493.56L487.46 494.14L487.52 494.72L487.56 495.31L487.57 495.91L487.57 504.9L487.57 504.97L487.57 505.04L487.56 505.11L487.55 505.18L487.54 505.24L487.52 505.31L487.5 505.38L487.48 505.44L487.46 505.5L487.44 505.56L487.41 505.62L487.38 505.68L487.35 505.74L487.32 505.8L487.28 505.85L487.24 505.9L487.2 505.96L487.16 506.01L487.12 506.05L487.07 506.1L487.03 506.15L486.98 506.19L486.93 506.23L486.88 506.27L486.82 506.31L486.77 506.34L486.71 506.38L486.66 506.41L486.6 506.44L486.54 506.46L486.47 506.49L486.41 506.51L486.35 506.53L486.28 506.55L486.22 506.56L486.15 506.57L486.08 506.58L486.02 506.59L485.95 506.59L485.88 506.6L160.26 506.6L160.19 506.59L160.13 506.59L160.06 506.58L159.99 506.57L159.92 506.56L159.86 506.55L159.79 506.53L159.73 506.51L159.67 506.49L159.61 506.46L159.55 506.44L159.49 506.41L159.43 506.38L159.37 506.34L159.32 506.31L159.26 506.27L159.21 506.23L159.16 506.19L159.11 506.15L159.07 506.1L159.02 506.05L158.98 506.01L158.94 505.96L158.9 505.9L158.86 505.85L158.82 505.8L158.79 505.74L158.76 505.68L158.73 505.62L158.7 505.56L158.68 505.5L158.66 505.44L158.64 505.38L158.62 505.31L158.61 505.24L158.59 505.18L158.58 505.11L158.58 505.04L158.57 504.97L158.57 504.9L158.57 495.91L158.58 495.31L158.62 494.72L158.68 494.14L158.76 493.56L158.86 492.99L158.99 492.43L159.14 491.88L159.31 491.34L159.5 490.8L159.71 490.28L159.94 489.77L160.18 489.26L160.45 488.77L160.74 488.29L161.04 487.82L161.36 487.37L161.7 486.93L162.05 486.5L162.42 486.08L162.81 485.68L163.21 485.3L163.62 484.93L164.05 484.58L164.49 484.24L164.95 483.92L165.41 483.62L165.89 483.33L166.39 483.06L166.89 482.81L167.4 482.59L167.93 482.38L168.46 482.19L169 482.02L169.56 481.87L170.12 481.74L170.69 481.64L171.26 481.56L171.84 481.5L172.43 481.46L173.03 481.45L473.11 481.45L473.71 481.46L474.3 481.5L474.88 481.56Z" id="ckojyeN9H"></path><path d="M473.51 481.87L474.61 482.19L475.67 482.59L476.68 483.06L477.66 483.62L478.58 484.24L479.45 484.93L480.26 485.68L481.02 486.5L481.71 487.37L482.33 488.29L482.88 489.26L483.36 490.28L483.76 491.34L484.08 492.43L484.31 493.56L484.45 494.72L484.5 495.91L484.5 504.9L484.49 505.04L484.48 505.18L484.45 505.31L484.41 505.44L484.36 505.56L484.31 505.68L484.24 505.8L484.17 505.9L484.09 506.01L484 506.1L483.91 506.19L483.8 506.27L483.7 506.34L483.58 506.41L483.46 506.46L483.34 506.51L483.21 506.55L483.08 506.57L482.94 506.59L482.8 506.6L465.59 506.6L465.73 506.59L465.87 506.57L466 506.55L466.13 506.51L466.25 506.46L466.37 506.41L466.49 506.34L466.59 506.27L466.7 506.19L466.79 506.1L466.88 506.01L466.96 505.9L467.03 505.8L467.1 505.68L467.15 505.56L467.2 505.44L467.24 505.31L467.27 505.18L467.28 505.04L467.29 504.9L467.29 495.91L467.24 494.72L467.1 493.56L466.87 492.43L466.55 491.34L466.15 490.28L465.67 489.26L465.12 488.29L464.5 487.37L463.81 486.5L463.05 485.68L462.24 484.93L461.37 484.24L460.44 483.62L459.47 483.06L458.46 482.59L457.4 482.19L456.3 481.87L455.17 481.64L454.01 481.5L452.83 481.45L470.04 481.45L471.23 481.5L472.38 481.64L473.51 481.87Z" id="b8DnVypHM"></path><path d="M473.51 481.87L474.61 482.19L475.67 482.59L476.68 483.06L477.66 483.62L478.58 484.24L479.45 484.93L480.26 485.68L481.02 486.5L481.71 487.37L482.33 488.29L482.88 489.26L483.36 490.28L483.76 491.34L484.08 492.43L484.31 493.56L484.45 494.72L484.5 495.91L484.5 504.9L484.49 505.04L484.48 505.18L484.45 505.31L484.41 505.44L484.36 505.56L484.31 505.68L484.24 505.8L484.17 505.9L484.09 506.01L484 506.1L483.91 506.19L483.8 506.27L483.7 506.34L483.58 506.41L483.46 506.46L483.34 506.51L483.21 506.55L483.08 506.57L482.94 506.59L482.8 506.6L465.59 506.6L465.73 506.59L465.87 506.57L466 506.55L466.13 506.51L466.25 506.46L466.37 506.41L466.49 506.34L466.59 506.27L466.7 506.19L466.79 506.1L466.88 506.01L466.96 505.9L467.03 505.8L467.1 505.68L467.15 505.56L467.2 505.44L467.24 505.31L467.27 505.18L467.28 505.04L467.29 504.9L467.29 495.91L467.24 494.72L467.1 493.56L466.87 492.43L466.55 491.34L466.15 490.28L465.67 489.26L465.12 488.29L464.5 487.37L463.81 486.5L463.05 485.68L462.24 484.93L461.37 484.24L460.44 483.62L459.47 483.06L458.46 482.59L457.4 482.19L456.3 481.87L455.17 481.64L454.01 481.5L452.83 481.45L470.04 481.45L471.23 481.5L472.38 481.64L473.51 481.87Z" id="fAmyE0rJ"></path></defs><g><g><g><use xlink:href="#ajW8ec0A4" opacity="1" fill="#90aeaf" fill-opacity="1"></use><g><use xlink:href="#ajW8ec0A4" opacity="1" fill-opacity="0" stroke="#000000" stroke-width="1" stroke-opacity="0"></use></g></g><g><use xlink:href="#gH6pCmJp7" opacity="1" fill="#000000" fill-opacity="0"></use><g><use xlink:href="#gH6pCmJp7" opacity="1" fill-opacity="0" stroke="#000000" stroke-width="1" stroke-opacity="0"></use></g></g><g><use xlink:href="#a2gxcwv6y4" opacity="1" fill="#7d979e" fill-opacity="1"></use><g><use xlink:href="#a2gxcwv6y4" opacity="1" fill-opacity="0" stroke="#000000" stroke-width="1" stroke-opacity="0"></use></g></g><g><use xlink:href="#c2S4b8ox2d" opacity="1" fill="#000000" fill-opacity="0"></use><g><use xlink:href="#c2S4b8ox2d" opacity="1" fill-opacity="0" stroke="#000000" stroke-width="1" stroke-opacity="0"></use></g></g><g><use xlink:href="#alEXx0wWB" opacity="1" fill="#688389" fill-opacity="1"></use><g><use xlink:href="#alEXx0wWB" opacity="1" fill-opacity="0" stroke="#000000" stroke-width="1" stroke-opacity="0"></use></g></g><g><use xlink:href="#a3hAMYFQ2" opacity="1" fill="#000000" fill-opacity="0"></use><g><use xlink:href="#a3hAMYFQ2" opacity="1" fill-opacity="0" stroke="#000000" stroke-width="1" stroke-opacity="0"></use></g></g><g><use xlink:href="#g1QcSXMhq5" opacity="1" fill="#688389" fill-opacity="1"></use><g><use xlink:href="#g1QcSXMhq5" opacity="1" fill-opacity="0" stroke="#000000" stroke-width="1" stroke-opacity="0"></use></g></g><g><use xlink:href="#aOZtqUvXD" opacity="1" fill="#000000" fill-opacity="0"></use><g><use xlink:href="#aOZtqUvXD" opacity="1" fill-opacity="0" stroke="#000000" stroke-width="1" stroke-opacity="0"></use></g></g><g><use xlink:href="#b1slgKlHGF" opacity="1" fill="#b6cbce" fill-opacity="1"></use><g><use xlink:href="#b1slgKlHGF" opacity="1" fill-opacity="0" stroke="#000000" stroke-width="1" stroke-opacity="0"></use></g></g><g><use xlink:href="#a4tqT6uIy" opacity="1" fill="#000000" fill-opacity="0"></use><g><use xlink:href="#a4tqT6uIy" opacity="1" fill-opacity="0" stroke="#000000" stroke-width="1" stroke-opacity="0"></use></g></g><g><use xlink:href="#a2nuVxwXKB" opacity="1" fill="#a3bfc1" fill-opacity="1"></use><g><use xlink:href="#a2nuVxwXKB" opacity="1" fill-opacity="0" stroke="#000000" stroke-width="1" stroke-opacity="0"></use></g></g><g><use xlink:href="#aONtxrQPT" opacity="1" fill="#000000" fill-opacity="0"></use><g><use xlink:href="#aONtxrQPT" opacity="1" fill-opacity="0" stroke="#000000" stroke-width="1" stroke-opacity="0"></use></g></g><g><use xlink:href="#bsnn7tY0d" opacity="1" fill="#a3bfc1" fill-opacity="1"></use><g><use xlink:href="#bsnn7tY0d" opacity="1" fill-opacity="0" stroke="#000000" stroke-width="1" stroke-opacity="0"></use></g></g><g><use xlink:href="#aiLQiu8ci" opacity="1" fill="#000000" fill-opacity="0"></use><g><use xlink:href="#aiLQiu8ci" opacity="1" fill-opacity="0" stroke="#000000" stroke-width="1" stroke-opacity="0"></use></g></g><g><use xlink:href="#abPcDfpVo1" opacity="1" fill="#688389" fill-opacity="1"></use><g><use xlink:href="#abPcDfpVo1" opacity="1" fill-opacity="0" stroke="#000000" stroke-width="1" stroke-opacity="0"></use></g></g><g><use xlink:href="#c6oGyRRPUn" opacity="1" fill="#b6cbce" fill-opacity="1"></use><g><use xlink:href="#c6oGyRRPUn" opacity="1" fill-opacity="0" stroke="#000000" stroke-width="1" stroke-opacity="0"></use></g></g><g><use xlink:href="#e62prT7r5" opacity="1" fill="#a3bfc1" fill-opacity="1"></use><g><use xlink:href="#e62prT7r5" opacity="1" fill-opacity="0" stroke="#000000" stroke-width="1" stroke-opacity="0"></use></g></g><g><use xlink:href="#b1bi5CMznf" opacity="1" fill="#c7e0e2" fill-opacity="1"></use><g><use xlink:href="#b1bi5CMznf" opacity="1" fill-opacity="0" stroke="#000000" stroke-width="1" stroke-opacity="0"></use></g></g><g><use xlink:href="#nVi4wIiN6" opacity="1" fill="#000000" fill-opacity="0"></use><g><use xlink:href="#nVi4wIiN6" opacity="1" fill-opacity="0" stroke="#000000" stroke-width="1" stroke-opacity="0"></use></g></g><g><use xlink:href="#cPpAFxbGd" opacity="1" fill="#aa7d95" fill-opacity="1"></use><g><use xlink:href="#cPpAFxbGd" opacity="1" fill-opacity="0" stroke="#000000" stroke-width="1" stroke-opacity="0"></use></g></g><g><use xlink:href="#b1H2317CCj" opacity="1" fill="#000000" fill-opacity="0"></use><g><use xlink:href="#b1H2317CCj" opacity="1" fill-opacity="0" stroke="#000000" stroke-width="1" stroke-opacity="0"></use></g></g><g><use xlink:href="#a220vSiV9P" opacity="1" fill="#aa7d95" fill-opacity="1"></use><g><use xlink:href="#a220vSiV9P" opacity="1" fill-opacity="0" stroke="#000000" stroke-width="1" stroke-opacity="0"></use></g></g><g><use xlink:href="#fIwwM7vnC" opacity="1" fill="#000000" fill-opacity="0"></use><g><use xlink:href="#fIwwM7vnC" opacity="1" fill-opacity="0" stroke="#000000" stroke-width="1" stroke-opacity="0"></use></g></g><g><use xlink:href="#a1iKHIXHo9" opacity="1" fill="#aa7d95" fill-opacity="1"></use><g><use xlink:href="#a1iKHIXHo9" opacity="1" fill-opacity="0" stroke="#000000" stroke-width="1" stroke-opacity="0"></use></g></g><g><use xlink:href="#bM5y6pmDH" opacity="1" fill="#000000" fill-opacity="0"></use><g><use xlink:href="#bM5y6pmDH" opacity="1" fill-opacity="0" stroke="#000000" stroke-width="1" stroke-opacity="0"></use></g></g><g><use xlink:href="#i1KXBmgiNG" opacity="1" fill="#804c68" fill-opacity="1"></use><g><use xlink:href="#i1KXBmgiNG" opacity="1" fill-opacity="0" stroke="#000000" stroke-width="1" stroke-opacity="0"></use></g></g><g><use xlink:href="#a13t7mPwGp" opacity="1" fill="#000000" fill-opacity="0"></use><g><use xlink:href="#a13t7mPwGp" opacity="1" fill-opacity="0" stroke="#000000" stroke-width="1" stroke-opacity="0"></use></g></g><g><use xlink:href="#b2X9Hd69qi" opacity="1" fill="#804c68" fill-opacity="1"></use><g><use xlink:href="#b2X9Hd69qi" opacity="1" fill-opacity="0" stroke="#000000" stroke-width="1" stroke-opacity="0"></use></g></g><g><use xlink:href="#b2vxOuOnpV" opacity="1" fill="#000000" fill-opacity="0"></use><g><use xlink:href="#b2vxOuOnpV" opacity="1" fill-opacity="0" stroke="#000000" stroke-width="1" stroke-opacity="0"></use></g></g><g><use xlink:href="#c2pxtsbxy3" opacity="1" fill="#804c68" fill-opacity="1"></use><g><use xlink:href="#c2pxtsbxy3" opacity="1" fill-opacity="0" stroke="#000000" stroke-width="1" stroke-opacity="0"></use></g></g><g><use xlink:href="#e2MjsRVbNs" opacity="1" fill="#000000" fill-opacity="0"></use><g><use xlink:href="#e2MjsRVbNs" opacity="1" fill-opacity="0" stroke="#000000" stroke-width="1" stroke-opacity="0"></use></g></g><g><use xlink:href="#d336eYKJh4" opacity="1" fill="#aa7d95" fill-opacity="1"></use><g><use xlink:href="#d336eYKJh4" opacity="1" fill-opacity="0" stroke="#000000" stroke-width="1" stroke-opacity="0"></use></g></g><g><use xlink:href="#b1WwHYHMq" opacity="1" fill="#000000" fill-opacity="0"></use><g><use xlink:href="#b1WwHYHMq" opacity="1" fill-opacity="0" stroke="#000000" stroke-width="1" stroke-opacity="0"></use></g></g><g><use xlink:href="#ldXIbGqWQ" opacity="1" fill="#aa7d95" fill-opacity="1"></use><g><use xlink:href="#ldXIbGqWQ" opacity="1" fill-opacity="0" stroke="#000000" stroke-width="1" stroke-opacity="0"></use></g></g><g><use xlink:href="#d5o99LiE6" opacity="1" fill="#000000" fill-opacity="0"></use><g><use xlink:href="#d5o99LiE6" opacity="1" fill-opacity="0" stroke="#000000" stroke-width="1" stroke-opacity="0"></use></g></g><g><use xlink:href="#b1JQA8ojnr" opacity="1" fill="#aa7d95" fill-opacity="1"></use><g><use xlink:href="#b1JQA8ojnr" opacity="1" fill-opacity="0" stroke="#000000" stroke-width="1" stroke-opacity="0"></use></g></g><g><use xlink:href="#eClr3rf0" opacity="1" fill="#000000" fill-opacity="0"></use><g><use xlink:href="#eClr3rf0" opacity="1" fill-opacity="0" stroke="#000000" stroke-width="1" stroke-opacity="0"></use></g></g><g><use xlink:href="#c5X95jAeDO" opacity="1" fill="#804c68" fill-opacity="1"></use><g><use xlink:href="#c5X95jAeDO" opacity="1" fill-opacity="0" stroke="#000000" stroke-width="1" stroke-opacity="0"></use></g></g><g><use xlink:href="#a9pHt9zeI" opacity="1" fill="#000000" fill-opacity="0"></use><g><use xlink:href="#a9pHt9zeI" opacity="1" fill-opacity="0" stroke="#000000" stroke-width="1" stroke-opacity="0"></use></g></g><g><use xlink:href="#c4bid5MBAZ" opacity="1" fill="#804c68" fill-opacity="1"></use><g><use xlink:href="#c4bid5MBAZ" opacity="1" fill-opacity="0" stroke="#000000" stroke-width="1" stroke-opacity="0"></use></g></g><g><use xlink:href="#d3cRjEwwNy" opacity="1" fill="#000000" fill-opacity="0"></use><g><use xlink:href="#d3cRjEwwNy" opacity="1" fill-opacity="0" stroke="#000000" stroke-width="1" stroke-opacity="0"></use></g></g><g><use xlink:href="#a1krOloCJZ" opacity="1" fill="#804c68" fill-opacity="1"></use><g><use xlink:href="#a1krOloCJZ" opacity="1" fill-opacity="0" stroke="#000000" stroke-width="1" stroke-opacity="0"></use></g></g><g><use xlink:href="#l2eOLJnhkG" opacity="1" fill="#000000" fill-opacity="0"></use><g><use xlink:href="#l2eOLJnhkG" opacity="1" fill-opacity="0" stroke="#000000" stroke-width="1" stroke-opacity="0"></use></g></g><g><use xlink:href="#hjdO4a2KN" opacity="1" fill="#c7e0e2" fill-opacity="1"></use><g><use xlink:href="#hjdO4a2KN" opacity="1" fill-opacity="0" stroke="#000000" stroke-width="1" stroke-opacity="0"></use></g></g><g><use xlink:href="#b1FHrijLjc" opacity="1" fill="#000000" fill-opacity="0"></use><g><use xlink:href="#b1FHrijLjc" opacity="1" fill-opacity="0" stroke="#000000" stroke-width="1" stroke-opacity="0"></use></g></g><g><use xlink:href="#f1SQ0zKzZs" opacity="1" fill="#c7e0e2" fill-opacity="1"></use><g><use xlink:href="#f1SQ0zKzZs" opacity="1" fill-opacity="0" stroke="#000000" stroke-width="1" stroke-opacity="0"></use></g></g><g><use xlink:href="#aq08KedNJ" opacity="1" fill="#000000" fill-opacity="0"></use><g><use xlink:href="#aq08KedNJ" opacity="1" fill-opacity="0" stroke="#000000" stroke-width="1" stroke-opacity="0"></use></g></g><g><use xlink:href="#b1kAjhO6pM" opacity="1" fill="#c7e0e2" fill-opacity="1"></use><g><use xlink:href="#b1kAjhO6pM" opacity="1" fill-opacity="0" stroke="#000000" stroke-width="1" stroke-opacity="0"></use></g></g><g><use xlink:href="#f1vcJfGYwG" opacity="1" fill="#000000" fill-opacity="0"></use><g><use xlink:href="#f1vcJfGYwG" opacity="1" fill-opacity="0" stroke="#000000" stroke-width="1" stroke-opacity="0"></use></g></g><g><use xlink:href="#a1Xv57UZcL" opacity="1" fill="#b6cbce" fill-opacity="1"></use><g><use xlink:href="#a1Xv57UZcL" opacity="1" fill-opacity="0" stroke="#000000" stroke-width="1" stroke-opacity="0"></use></g></g><g><use xlink:href="#c2dBQSNG5K" opacity="1" fill="#000000" fill-opacity="0"></use><g><use xlink:href="#c2dBQSNG5K" opacity="1" fill-opacity="0" stroke="#000000" stroke-width="1" stroke-opacity="0"></use></g></g><g><use xlink:href="#a2RQ18147x" opacity="1" fill="#b6cbce" fill-opacity="1"></use><g><use xlink:href="#a2RQ18147x" opacity="1" fill-opacity="0" stroke="#000000" stroke-width="1" stroke-opacity="0"></use></g></g><g><use xlink:href="#e22kQySvxA" opacity="1" fill="#000000" fill-opacity="0"></use><g><use xlink:href="#e22kQySvxA" opacity="1" fill-opacity="0" stroke="#000000" stroke-width="1" stroke-opacity="0"></use></g></g><g><use xlink:href="#d288JLt2Ap" opacity="1" fill="#b6cbce" fill-opacity="1"></use><g><use xlink:href="#d288JLt2Ap" opacity="1" fill-opacity="0" stroke="#000000" stroke-width="1" stroke-opacity="0"></use></g></g><g><use xlink:href="#g5qJgS4Lqr" opacity="1" fill="#000000" fill-opacity="0"></use><g><use xlink:href="#g5qJgS4Lqr" opacity="1" fill-opacity="0" stroke="#000000" stroke-width="1" stroke-opacity="0"></use></g></g><g><use xlink:href="#bJnD6rBSy" opacity="1" fill="#a3bfc1" fill-opacity="1"></use><g><use xlink:href="#bJnD6rBSy" opacity="1" fill-opacity="0" stroke="#000000" stroke-width="1" stroke-opacity="0"></use></g></g><g><use xlink:href="#b6OwaezNSD" opacity="1" fill="#000000" fill-opacity="0"></use><g><use xlink:href="#b6OwaezNSD" opacity="1" fill-opacity="0" stroke="#000000" stroke-width="1" stroke-opacity="0"></use></g></g><g><use xlink:href="#aass5MiME" opacity="1" fill="#a3bfc1" fill-opacity="1"></use><g><use xlink:href="#aass5MiME" opacity="1" fill-opacity="0" stroke="#000000" stroke-width="1" stroke-opacity="0"></use></g></g><g><use xlink:href="#a2juXIRA0g" opacity="1" fill="#000000" fill-opacity="0"></use><g><use xlink:href="#a2juXIRA0g" opacity="1" fill-opacity="0" stroke="#000000" stroke-width="1" stroke-opacity="0"></use></g></g><g><use xlink:href="#g144iRR0Sd" opacity="1" fill="#b6cbce" fill-opacity="1"></use><g><use xlink:href="#g144iRR0Sd" opacity="1" fill-opacity="0" stroke="#000000" stroke-width="1" stroke-opacity="0"></use></g></g><g><use xlink:href="#c2eKNRkS2i" opacity="1" fill="#000000" fill-opacity="0"></use><g><use xlink:href="#c2eKNRkS2i" opacity="1" fill-opacity="0" stroke="#000000" stroke-width="1" stroke-opacity="0"></use></g></g><g><use xlink:href="#dJpxtegh" opacity="1" fill="#c7e0e2" fill-opacity="1"></use><g><use xlink:href="#dJpxtegh" opacity="1" fill-opacity="0" stroke="#000000" stroke-width="1" stroke-opacity="0"></use></g></g><g><use xlink:href="#b1JtDwVSd4" opacity="1" fill="#000000" fill-opacity="0"></use><g><use xlink:href="#b1JtDwVSd4" opacity="1" fill-opacity="0" stroke="#000000" stroke-width="1" stroke-opacity="0"></use></g></g><g><use xlink:href="#c6QdxnDfEZ" opacity="1" fill="#7d8eb0" fill-opacity="1"></use><g><use xlink:href="#c6QdxnDfEZ" opacity="1" fill-opacity="0" stroke="#000000" stroke-width="1" stroke-opacity="0"></use></g></g><g><use xlink:href="#c1hF5pzdNv" opacity="1" fill="#000000" fill-opacity="0"></use><g><use xlink:href="#c1hF5pzdNv" opacity="1" fill-opacity="0" stroke="#000000" stroke-width="1" stroke-opacity="0"></use></g></g><g><use xlink:href="#a1PYHe8x9N" opacity="1" fill="#a3bfc1" fill-opacity="1"></use><g><use xlink:href="#a1PYHe8x9N" opacity="1" fill-opacity="0" stroke="#000000" stroke-width="1" stroke-opacity="0"></use></g></g><g><use xlink:href="#ckojyeN9H" opacity="1" fill="#000000" fill-opacity="0"></use><g><use xlink:href="#ckojyeN9H" opacity="1" fill-opacity="0" stroke="#000000" stroke-width="1" stroke-opacity="0"></use></g></g><g><use xlink:href="#b8DnVypHM" opacity="1" fill="#a3bfc1" fill-opacity="1"></use><g><use xlink:href="#b8DnVypHM" opacity="1" fill-opacity="0" stroke="#000000" stroke-width="1" stroke-opacity="0"></use></g></g><g><use xlink:href="#fAmyE0rJ" opacity="1" fill="#000000" fill-opacity="0"></use><g><use xlink:href="#fAmyE0rJ" opacity="1" fill-opacity="0" stroke="#000000" stroke-width="1" stroke-opacity="0"></use></g></g></g></g></svg>