<?xml version="1.0" encoding="UTF-8" standalone="no"?>
<svg
   xmlns:dc="http://purl.org/dc/elements/1.1/"
   xmlns:cc="http://creativecommons.org/ns#"
   xmlns:rdf="http://www.w3.org/1999/02/22-rdf-syntax-ns#"
   xmlns:svg="http://www.w3.org/2000/svg"
   xmlns="http://www.w3.org/2000/svg"
   xmlns:sodipodi="http://sodipodi.sourceforge.net/DTD/sodipodi-0.dtd"
   xmlns:inkscape="http://www.inkscape.org/namespaces/inkscape"
   version="1.1"
   id="Layer_1"
   x="0px"
   y="0px"
   viewBox="0 0 494.4 494.4"
   style="enable-background:new 0 0 494.4 494.4;"
   xml:space="preserve"
   sodipodi:docname="consul.svg"
   inkscape:version="1.0alpha (9dee831, 2019-01-15)"><metadata
   id="metadata381">
  <rdf:RDF>
    <cc:Work
   rdf:about="">
      <dc:format>image/svg+xml</dc:format>

      <dc:type
   rdf:resource="http://purl.org/dc/dcmitype/StillImage" />

      <dc:title />

    </cc:Work>

  </rdf:RDF>

</metadata>

<defs
   id="defs379" />

<sodipodi:namedview
   pagecolor="#ffffff"
   bordercolor="#666666"
   inkscape:document-rotation="0"
   borderopacity="1"
   objecttolerance="10"
   gridtolerance="10"
   guidetolerance="10"
   inkscape:pageopacity="0"
   inkscape:pageshadow="2"
   inkscape:window-width="1307"
   inkscape:window-height="702"
   id="namedview377"
   showgrid="false"
   inkscape:zoom="1.0289025"
   inkscape:cx="247.2"
   inkscape:cy="228.2794"
   inkscape:window-x="59"
   inkscape:window-y="34"
   inkscape:window-maximized="1"
   inkscape:current-layer="Layer_1" />


<path
   style="fill:#90AEAF;"
   d="M247.2,494.4c-132,0-240-108-240-240s108-240,240-240s240,108,240,240S379.2,494.4,247.2,494.4z"
   id="path262" />


<circle
   style="fill:#7D979E;"
   cx="247.2"
   cy="240"
   r="224.8"
   id="circle264" />


<g
   id="g270">
	<path
   style="fill:#688389;"
   d="M48.8,267.2c0-124,100.8-224.8,224.8-224.8c55.2,0,105.6,20,144.8,52.8   c-40.8-48.8-102.4-80-171.2-80C123.2,15.2,22.4,116,22.4,240c0,68.8,31.2,130.4,80,172C68.8,372.8,48.8,322.4,48.8,267.2z"
   id="path266" />


	<path
   style="fill:#688389;"
   d="M406.4,81.6c88,88,88,230.4,0,318.4S176,488,88,400"
   id="path268" />


</g>


<path
   style="fill:#B6CBCE;"
   d="M247.2,480c-132,0-240-108-240-240s108-240,240-240s240,108,240,240S379.2,480,247.2,480z   M247.2,30.4c-116,0-209.6,94.4-209.6,209.6c0,116,94.4,209.6,209.6,209.6S456.8,355.2,456.8,240S363.2,30.4,247.2,30.4z"
   id="path272" />


<g
   id="g278">
	<path
   style="fill:#A3BFC1;"
   d="M487.2,240c0-60.8-22.4-116-59.2-157.6c-42.4-36.8-97.6-59.2-158.4-59.2c-40.8,0-78.4,10.4-112,28   c27.2-13.6,57.6-20.8,89.6-20.8c63.2,0,120.8,28.8,159.2,73.6c44.8,38.4,72.8,95.2,72.8,159.2c0,32-7.2,62.4-20,89.6   C476.8,319.2,487.2,280.8,487.2,240z"
   id="path274" />


	<path
   style="fill:#A3BFC1;"
   d="M29.6,263.2c0,60.8,22.4,116,59.2,157.6c42.4,36.8,97.6,59.2,157.6,59.2c40.8,0,78.4-10.4,112-28   c-27.2,12.8-57.6,20-89.6,20c-63.2,0-120.8-28.8-159.2-73.6C64.8,360,36,303.2,36,239.2c0-32,7.2-62.4,20-89.6   C40,184,29.6,222.4,29.6,263.2z"
   id="path276" />


</g>




<path
   inkscape:connector-curvature="0"
   style="fill:#688389"
   d="m 215.87295,85.157229 c 0,7.2 -6.4,19.200001 -13.6,19.200001 -7.2,0 -13.60001,-12.000001 -13.60001,-19.200001 0,-7.2 6.40001,-13.599997 13.60001,-13.599997 7.2,0 13.6,6.399997 13.6,13.599997 z"
   id="path334" />


<circle
   style="fill:#b6cbce"
   cx="202.27299"
   cy="84.906708"
   r="13.6"
   id="circle336" />


<path
   inkscape:connector-curvature="0"
   style="fill:#a3bfc1"
   d="m 211.67284,75.235701 c 5.6,5.6 5.6,13.6 0,19.2 -5.6,5.599999 -13.6,5.599999 -19.2,0"
   id="path338" />


<path
   inkscape:connector-curvature="0"
   style="fill:#688389"
   d="m 291.873,85.157 c 0,7.2 -6.4,19.2 -13.6,19.2 -7.2,0 -13.6,-12 -13.6,-19.2 0,-7.2 6.4,-13.6 13.6,-13.6 7.2,0 13.6,6.4 13.6,13.6 z"
   id="path340" />






<g
   id="g346">
</g>


<g
   id="g348">
</g>


<g
   id="g350">
</g>


<g
   id="g352">
</g>


<g
   id="g354">
</g>


<g
   id="g356">
</g>


<g
   id="g358">
</g>


<g
   id="g360">
</g>


<g
   id="g362">
</g>


<g
   id="g364">
</g>


<g
   id="g366">
</g>


<g
   id="g368">
</g>


<g
   id="g370">
</g>


<g
   id="g372">
</g>


<g
   id="g374">
</g>


<text
   xml:space="preserve"
   style="font-style:normal;font-variant:normal;font-weight:normal;font-stretch:normal;font-size:273.334px;font-family:'URW Palladio L';-inkscape-font-specification:'URW Palladio L';fill:#c7e0e2;fill-opacity:1;stroke:none"
   x="139.71318"
   y="349.07971"
   id="text385"><tspan
     sodipodi:role="line"
     id="tspan383"
     x="139.71318"
     y="349.07971"
     style="font-style:normal;font-variant:normal;font-weight:normal;font-stretch:normal;font-size:273.334px;font-family:'URW Palladio L';-inkscape-font-specification:'URW Palladio L';fill:#c7e0e2;fill-opacity:1">C</tspan></text>

<path
   id="path291"
   d="m 253.873,85.157 c 0,7.2 -6.4,19.19999 -13.6,19.19999 -7.2,0 -13.6,-11.99999 -13.6,-19.19999 0,-7.2 6.4,-13.6 13.6,-13.6 7.2,0 13.6,6.4 13.6,13.6 z"
   style="fill:#688389"
   inkscape:connector-curvature="0" />
<circle
   id="circle293"
   r="13.6"
   cy="84.906998"
   cx="240.27299"
   style="fill:#b6cbce" />
<circle
   style="fill:#b6cbce"
   cx="278.27301"
   cy="84.906998"
   r="13.6"
   id="circle295" />
<path
   id="path297"
   d="m 249.79397,75.235159 c 5.6,5.6 5.6,13.6 0,19.2 -5.6,5.600001 -13.6,5.600001 -19.2,0"
   style="fill:#a3bfc1"
   inkscape:connector-curvature="0" />
<path
   id="path299"
   d="m 287.81756,75.299083 c 5.6,5.6 5.6,13.6 0,19.2 -5.6,5.599997 -13.6,5.599997 -19.2,0"
   style="fill:#a3bfc1"
   inkscape:connector-curvature="0" />
</svg>
