<?xml version="1.0" encoding="UTF-8" standalone="no"?>
<!DOCTYPE svg PUBLIC "-//W3C//DTD SVG 1.1//EN" "http://www.w3.org/Graphics/SVG/1.1/DTD/svg11.dtd">
<svg version="1.1" xmlns="http://www.w3.org/2000/svg" xmlns:xlink="http://www.w3.org/1999/xlink" preserveAspectRatio="xMidYMid meet" viewBox="0 0 640 640" width="640" height="640"><defs><path d="M0 320.01C0 496.73 143.27 640 320 640C496.73 640 640 496.73 640 320.01C640 143.26 496.73 0 320 0C143.27 0 0 143.26 0 320.01Z" id="bjZlE371v"></path><path d="M318.72 639.63C330.23 640.09 339.83 639.08 348.85 637.93C364.6 635.92 377.3 633.46 385.45 630.89C387.76 630.17 397.85 627.12 404.48 624.78C408.06 623.52 410.31 622.47 411.47 622.1C415.51 620.79 414 621.51 414 617.81C414 604.52 408.73 494.84 408.73 481.55C408.73 461.63 415.73 449.16 426.61 434.76C438.61 418.72 445.25 398.84 445.25 378.79C445.25 376.53 445.25 365.25 445.25 344.95C425.77 346.16 269.94 355.9 250.46 357.12C282.18 545.42 299.57 639.59 302.64 639.63C305.33 639.67 309.26 640.04 312.58 639.99C314.93 639.95 317.65 639.59 318.72 639.63Z" id="b1B8DULTC"></path><path d="M318.72 639.63C330.23 640.09 339.83 639.08 348.85 637.93C364.6 635.92 377.3 633.46 385.45 630.89C387.76 630.17 397.85 627.12 404.48 624.78C408.06 623.52 410.31 622.47 411.47 622.1C415.51 620.79 414 621.51 414 617.81C414 604.52 408.73 494.84 408.73 481.55C408.73 461.63 415.73 449.16 426.61 434.76C438.61 418.72 445.25 398.84 445.25 378.79C445.25 376.53 445.25 365.25 445.25 344.95C425.77 346.16 269.94 355.9 250.46 357.12C282.18 545.42 299.57 639.59 302.64 639.63C305.33 639.67 309.26 640.04 312.58 639.99C314.93 639.95 317.65 639.59 318.72 639.63Z" id="blVmBfB0Q"></path><path d="M318.72 639.63C330.23 640.09 339.83 639.08 348.85 637.93C364.6 635.92 377.3 633.46 385.45 630.89C387.76 630.17 397.85 627.12 404.48 624.78C408.06 623.52 410.31 622.47 411.47 622.1C415.51 620.79 414 621.51 414 617.81C414 604.52 408.73 494.84 408.73 481.55C408.73 461.63 415.73 449.16 426.61 434.76C438.61 418.72 445.25 398.84 445.25 378.79C445.25 376.53 445.25 365.25 445.25 344.95C425.77 346.16 269.94 355.9 250.46 357.12C282.18 545.42 299.57 639.59 302.64 639.63C305.33 639.67 309.26 640.04 312.58 639.99C314.93 639.95 317.65 639.59 318.72 639.63Z" id="bcGQGNNIK"></path><path d="M318.72 639.63C330.23 640.09 339.83 639.08 348.85 637.93C364.6 635.92 377.3 633.46 385.45 630.89C387.76 630.17 395.85 627.69 402.48 625.35C406.06 624.09 407.57 624.22 408.73 623.85C410.25 623.36 413.68 621.4 414 621.14C414.55 620.71 411.5 624.91 411.5 622.6C411.5 609.31 408.73 494.84 408.73 481.55C408.73 461.63 415.73 449.16 426.61 434.76C438.61 418.72 445.25 398.84 445.25 378.79C445.25 376.53 445.25 365.25 445.25 344.95C425.77 346.16 269.94 355.9 250.46 357.12C282.18 545.42 299.57 639.59 302.64 639.63C305.33 639.67 309.26 640.04 312.58 639.99C314.93 639.95 317.65 639.59 318.72 639.63Z" id="g3ivGzNpiC"></path><path d="M319.04 237.41L299.16 237.41L250.46 237.41L250.46 353.07L299.16 353.07L319.04 353.07L367.74 353.07L367.74 352.25L414 352.25L414 258.51L367.74 258.51L367.74 237.41L319.04 237.41Z" id="b4AiNBFOH"></path><path d="M319.04 237.41L299.16 237.41L250.46 237.41L250.46 353.07L299.16 353.07L319.04 353.07L367.74 353.07L367.74 352.25L414 352.25L414 258.51L367.74 258.51L367.74 237.41L319.04 237.41Z" id="c3Ipiwl5Cs"></path><path d="M319.04 237.41L299.16 237.41L250.46 237.41L250.46 353.07L299.16 353.07L319.04 353.07L367.74 353.07L367.74 352.25L414 352.25L414 258.51L367.74 258.51L367.74 237.41L319.04 237.41Z" id="c7cSom078y"></path><path d="M319.04 237.41L299.16 237.41L250.46 237.41L250.46 353.07L299.16 353.07L319.04 353.07L367.74 353.07L367.74 352.25L414 352.25L414 258.51L367.74 258.51L367.74 237.41L319.04 237.41Z" id="d2dStPOc5M"></path><path d="M226.12 238.43C226.12 223.3 238.38 211.04 253.51 211.04C253.51 211.04 253.51 211.04 253.51 211.04C268.64 211.04 280.9 223.3 280.9 238.43C280.9 249.99 280.9 342.51 280.9 354.08C280.9 369.21 268.64 381.47 253.51 381.47C253.51 381.47 253.51 381.47 253.51 381.47C238.38 381.47 226.12 369.21 226.12 354.08C226.12 342.51 226.12 249.99 226.12 238.43Z" id="hQ6vgsRAn"></path><path d="M226.12 238.43C226.12 223.3 238.38 211.04 253.51 211.04C253.51 211.04 253.51 211.04 253.51 211.04C268.64 211.04 280.9 223.3 280.9 238.43C280.9 249.99 280.9 342.51 280.9 354.08C280.9 369.21 268.64 381.47 253.51 381.47C253.51 381.47 253.51 381.47 253.51 381.47C238.38 381.47 226.12 369.21 226.12 354.08C226.12 342.51 226.12 249.99 226.12 238.43Z" id="bnCFmtOCo"></path><path d="M226.12 238.43C226.12 223.3 238.38 211.04 253.51 211.04C253.51 211.04 253.51 211.04 253.51 211.04C268.64 211.04 280.9 223.3 280.9 238.43C280.9 249.99 280.9 342.51 280.9 354.08C280.9 369.21 268.64 381.47 253.51 381.47C253.51 381.47 253.51 381.47 253.51 381.47C238.38 381.47 226.12 369.21 226.12 354.08C226.12 342.51 226.12 249.99 226.12 238.43Z" id="cqU586ScE"></path><path d="M226.12 238.43C226.12 223.3 238.38 211.04 253.51 211.04C253.51 211.04 253.51 211.04 253.51 211.04C268.64 211.04 280.9 223.3 280.9 238.43C280.9 249.99 280.9 342.51 280.9 354.08C280.9 369.21 268.64 381.47 253.51 381.47C253.51 381.47 253.51 381.47 253.51 381.47C238.38 381.47 226.12 369.21 226.12 354.08C226.12 342.51 226.12 249.99 226.12 238.43Z" id="a1EooNkqYc"></path><path d="M280.9 238.43C280.9 223.3 293.16 211.04 308.29 211.04C308.29 211.04 308.29 211.04 308.29 211.04C323.42 211.04 335.68 223.3 335.68 238.43C335.68 249.99 335.68 342.51 335.68 354.08C335.68 369.21 323.42 381.47 308.29 381.47C308.29 381.47 308.29 381.47 308.29 381.47C293.16 381.47 280.9 369.21 280.9 354.08C280.9 342.51 280.9 249.99 280.9 238.43Z" id="h1DsB6MGoH"></path><path d="M280.9 238.43C280.9 223.3 293.16 211.04 308.29 211.04C308.29 211.04 308.29 211.04 308.29 211.04C323.42 211.04 335.68 223.3 335.68 238.43C335.68 249.99 335.68 342.51 335.68 354.08C335.68 369.21 323.42 381.47 308.29 381.47C308.29 381.47 308.29 381.47 308.29 381.47C293.16 381.47 280.9 369.21 280.9 354.08C280.9 342.51 280.9 249.99 280.9 238.43Z" id="eeqyBdqwF"></path><path d="M280.9 238.43C280.9 223.3 293.16 211.04 308.29 211.04C308.29 211.04 308.29 211.04 308.29 211.04C323.42 211.04 335.68 223.3 335.68 238.43C335.68 249.99 335.68 342.51 335.68 354.08C335.68 369.21 323.42 381.47 308.29 381.47C308.29 381.47 308.29 381.47 308.29 381.47C293.16 381.47 280.9 369.21 280.9 354.08C280.9 342.51 280.9 249.99 280.9 238.43Z" id="e4e4HnWSUQ"></path><path d="M280.9 237.42C280.9 222.29 293.16 210.03 308.29 210.03C308.29 210.03 308.29 210.03 308.29 210.03C323.42 210.03 335.68 222.29 335.68 237.42C335.68 248.98 335.68 341.5 335.68 353.07C335.68 368.2 323.42 380.46 308.29 380.46C308.29 380.46 308.29 380.46 308.29 380.46C293.16 380.46 280.9 368.2 280.9 353.07C280.9 341.5 280.9 248.98 280.9 237.42Z" id="a1pDBmZF95"></path><path d="M335.68 238.43C335.68 223.3 347.95 211.04 363.07 211.04C363.07 211.04 363.07 211.04 363.07 211.04C378.2 211.04 390.46 223.3 390.46 238.43C390.46 249.99 390.46 342.51 390.46 354.08C390.46 369.21 378.2 381.47 363.07 381.47C363.07 381.47 363.07 381.47 363.07 381.47C347.95 381.47 335.68 369.21 335.68 354.08C335.68 342.51 335.68 249.99 335.68 238.43Z" id="ci77ht7rS"></path><path d="M335.68 238.43C335.68 223.3 347.95 211.04 363.07 211.04C363.07 211.04 363.07 211.04 363.07 211.04C378.2 211.04 390.46 223.3 390.46 238.43C390.46 249.99 390.46 342.51 390.46 354.08C390.46 369.21 378.2 381.47 363.07 381.47C363.07 381.47 363.07 381.47 363.07 381.47C347.95 381.47 335.68 369.21 335.68 354.08C335.68 342.51 335.68 249.99 335.68 238.43Z" id="d1HAa5Mn2Y"></path><path d="M335.68 238.43C335.68 223.3 347.95 211.04 363.07 211.04C363.07 211.04 363.07 211.04 363.07 211.04C378.2 211.04 390.46 223.3 390.46 238.43C390.46 249.99 390.46 342.51 390.46 354.08C390.46 369.21 378.2 381.47 363.07 381.47C363.07 381.47 363.07 381.47 363.07 381.47C347.95 381.47 335.68 369.21 335.68 354.08C335.68 342.51 335.68 249.99 335.68 238.43Z" id="d2TpYS8v00"></path><path d="M335.68 238.43C335.68 223.3 347.95 211.04 363.07 211.04C363.07 211.04 363.07 211.04 363.07 211.04C378.2 211.04 390.46 223.3 390.46 238.43C390.46 249.99 390.46 342.51 390.46 354.08C390.46 369.21 378.2 381.47 363.07 381.47C363.07 381.47 363.07 381.47 363.07 381.47C347.95 381.47 335.68 369.21 335.68 354.08C335.68 342.51 335.68 249.99 335.68 238.43Z" id="cRdLBpuma"></path><path d="M390.46 262.78C390.46 247.65 402.73 235.38 417.86 235.38C417.86 235.38 417.86 235.38 417.86 235.38C432.98 235.38 445.25 247.65 445.25 262.78C445.25 271.91 445.25 344.95 445.25 354.08C445.25 369.21 432.98 381.47 417.86 381.47C417.86 381.47 417.86 381.47 417.86 381.47C402.73 381.47 390.46 369.21 390.46 354.08C390.46 344.95 390.46 271.91 390.46 262.78Z" id="eHibyUYwE"></path><path d="M390.46 262.78C390.46 247.65 402.73 235.38 417.86 235.38C417.86 235.38 417.86 235.38 417.86 235.38C432.98 235.38 445.25 247.65 445.25 262.78C445.25 271.91 445.25 344.95 445.25 354.08C445.25 369.21 432.98 381.47 417.86 381.47C417.86 381.47 417.86 381.47 417.86 381.47C402.73 381.47 390.46 369.21 390.46 354.08C390.46 344.95 390.46 271.91 390.46 262.78Z" id="b1IYtv9LKM"></path><path d="M390.46 262.78C390.46 247.65 402.73 235.38 417.86 235.38C417.86 235.38 417.86 235.38 417.86 235.38C432.98 235.38 445.25 247.65 445.25 262.78C445.25 271.91 445.25 344.95 445.25 354.08C445.25 369.21 432.98 381.47 417.86 381.47C417.86 381.47 417.86 381.47 417.86 381.47C402.73 381.47 390.46 369.21 390.46 354.08C390.46 344.95 390.46 271.91 390.46 262.78Z" id="a3k2HnZc1x"></path><path d="M390.46 264.81C390.46 249.68 402.73 237.41 417.86 237.41C417.86 237.41 417.86 237.41 417.86 237.41C432.98 237.41 445.25 249.68 445.25 264.81C445.25 273.94 445.25 346.98 445.25 356.11C445.25 371.24 432.98 383.5 417.86 383.5C417.86 383.5 417.86 383.5 417.86 383.5C402.73 383.5 390.46 371.24 390.46 356.11C390.46 346.98 390.46 273.94 390.46 264.81Z" id="bTD02Pg7x"></path><path d="M323.51 284.08C323.51 270.69 312.55 259.73 299.16 259.73C270.32 259.73 254.49 259.73 226.12 259.73C184.09 268.1 165.25 295.74 165.25 326.45C165.25 330.49 165.25 362.82 165.25 366.86C165.25 395.84 178.39 422.62 201.28 440.39C216.86 452.57 226.12 473.75 226.12 496.88C226.12 508.63 226.12 602.65 226.12 614.4C226.12 617.43 226.93 620.43 228.43 622.81C230.31 625.79 233.26 627.83 237.04 627.83C238.92 627.83 234.07 627.1 235.87 627.83C236.78 628.19 240.88 629.33 244.79 630.38C245.86 630.67 246.92 630.8 247.89 631.09C248.35 631.22 248.81 631.36 249.26 631.49C260.12 634.68 275.09 637.47 281.92 637.27C282.26 637.26 275.39 636.71 275.8 636.76C276.28 636.81 285.63 638.15 286.14 638.26C287.01 638.43 279.03 637.14 279.69 637.27C282.8 637.89 285.77 638.2 288.36 638.67C292.55 639.42 297.41 639.42 302.31 639.33C302.95 639.32 302.27 638.98 302.96 638.98C302.96 554.06 299.16 482.9 299.16 399.73C299.16 372.79 283.3 348.17 258.31 336.81C246.26 331.33 231.35 320.8 227.83 308.43C255.44 308.43 272.58 308.43 299.16 308.43C312.55 308.43 323.51 297.47 323.51 284.08Z" id="b1jrgPq7h"></path><path d="M323.51 284.08C323.51 270.69 312.55 259.73 299.16 259.73C270.32 259.73 254.49 259.73 226.12 259.73C184.09 268.1 165.25 295.74 165.25 326.45C165.25 330.49 165.25 362.82 165.25 366.86C165.25 395.84 178.39 422.62 201.28 440.39C216.86 452.57 226.12 473.75 226.12 496.88C226.12 508.63 226.12 602.65 226.12 614.4C226.12 617.43 226.93 620.43 228.43 622.81C230.31 625.79 233.26 627.83 237.04 627.83C238.92 627.83 234.07 627.1 235.87 627.83C236.78 628.19 240.88 629.33 244.79 630.38C245.86 630.67 246.92 630.8 247.89 631.09C248.35 631.22 248.81 631.36 249.26 631.49C260.12 634.68 275.09 637.47 281.92 637.27C282.26 637.26 275.39 636.71 275.8 636.76C276.28 636.81 285.63 638.15 286.14 638.26C287.01 638.43 279.03 637.14 279.69 637.27C282.8 637.89 285.77 638.2 288.36 638.67C292.55 639.42 297.41 639.42 302.31 639.33C302.95 639.32 302.27 638.98 302.96 638.98C302.96 554.06 299.16 482.9 299.16 399.73C299.16 372.79 283.3 348.17 258.31 336.81C246.26 331.33 231.35 320.8 227.83 308.43C255.44 308.43 272.58 308.43 299.16 308.43C312.55 308.43 323.51 297.47 323.51 284.08Z" id="b3HY6m4NyU"></path><path d="M323.51 284.08C323.51 270.69 312.55 259.73 299.16 259.73C270.32 259.73 254.49 259.73 226.12 259.73C184.09 268.1 165.25 295.74 165.25 326.45C165.25 330.49 165.25 362.82 165.25 366.86C165.25 395.84 178.39 422.62 201.28 440.39C216.86 452.57 226.12 473.75 226.12 496.88C226.12 508.63 226.12 602.65 226.12 614.4C226.12 617.43 226.93 620.43 228.43 622.81C230.31 625.79 233.26 627.83 237.04 627.83C238.92 627.83 234.07 627.1 235.87 627.83C236.78 628.19 240.88 629.33 244.79 630.38C245.86 630.67 246.92 630.8 247.89 631.09C248.35 631.22 248.81 631.36 249.26 631.49C260.12 634.68 275.09 637.47 281.92 637.27C282.26 637.26 275.39 636.71 275.8 636.76C276.28 636.81 285.63 638.15 286.14 638.26C287.01 638.43 279.03 637.14 279.69 637.27C282.8 637.89 285.77 638.2 288.36 638.67C292.55 639.42 297.41 639.42 302.31 639.33C302.95 639.32 302.27 638.98 302.96 638.98C302.96 554.06 299.16 482.9 299.16 399.73C299.16 372.79 283.3 348.17 258.31 336.81C246.26 331.33 231.35 320.8 227.83 308.43C255.44 308.43 272.58 308.43 299.16 308.43C312.55 308.43 323.51 297.47 323.51 284.08Z" id="e3n4JOdGbK"></path><path d="M323.51 284.08C323.51 270.69 312.55 259.73 299.16 259.73C270.32 259.73 254.49 259.73 226.12 259.73C184.09 268.1 165.25 295.74 165.25 326.45C165.25 330.49 165.25 362.82 165.25 366.86C165.25 395.84 178.39 422.62 201.28 440.39C216.86 452.57 226.12 473.75 226.12 496.88C226.12 508.63 226.12 602.65 226.12 614.4C226.12 617.43 226.93 620.43 228.43 622.81C230.31 625.79 233.26 627.83 237.04 627.83C238.92 627.83 234.07 627.1 235.87 627.83C236.78 628.19 240.88 629.33 244.79 630.38C245.86 630.67 246.92 630.8 247.89 631.09C248.35 631.22 248.81 631.36 249.26 631.49C260.12 634.68 275.09 637.47 281.92 637.27C282.26 637.26 275.39 636.71 275.8 636.76C276.28 636.81 285.63 638.15 286.14 638.26C287.01 638.43 279.03 637.14 279.69 637.27C282.8 637.89 285.77 638.2 288.36 638.67C292.55 639.42 297.41 639.42 302.31 639.33C302.95 639.32 302.27 638.98 302.96 638.98C302.96 554.06 299.16 482.9 299.16 399.73C299.16 372.79 283.3 348.17 258.31 336.81C246.26 331.33 231.35 320.8 227.83 308.43C255.44 308.43 272.58 308.43 299.16 308.43C312.55 308.43 323.51 297.47 323.51 284.08Z" id="d3bE1AF7G"></path></defs><g><g><g><use xlink:href="#bjZlE371v" opacity="1" fill="#978874" fill-opacity="1"></use><g><use xlink:href="#bjZlE371v" opacity="1" fill-opacity="0" stroke="#000000" stroke-width="1" stroke-opacity="0"></use></g></g><g><use xlink:href="#b1B8DULTC" opacity="1" fill="#e8b18b" fill-opacity="1"></use><g><use xlink:href="#b1B8DULTC" opacity="1" fill-opacity="0" stroke="#000000" stroke-width="1" stroke-opacity="0"></use></g></g><g><use xlink:href="#blVmBfB0Q" opacity="1" fill="#000000" fill-opacity="0"></use><g><use xlink:href="#blVmBfB0Q" opacity="1" fill-opacity="0" stroke="#000000" stroke-width="1" stroke-opacity="0"></use></g></g><g><use xlink:href="#bcGQGNNIK" opacity="1" fill="#000000" fill-opacity="0"></use><g><use xlink:href="#bcGQGNNIK" opacity="1" fill-opacity="0" stroke="#000000" stroke-width="1" stroke-opacity="0"></use></g></g><g><use xlink:href="#g3ivGzNpiC" opacity="1" fill="#000000" fill-opacity="0"></use><g><use xlink:href="#g3ivGzNpiC" opacity="1" fill-opacity="0" stroke="#000000" stroke-width="1" stroke-opacity="0"></use></g></g><g><use xlink:href="#b4AiNBFOH" opacity="1" fill="#f7c6a4" fill-opacity="1"></use><g><use xlink:href="#b4AiNBFOH" opacity="1" fill-opacity="0" stroke="#000000" stroke-width="1" stroke-opacity="0"></use></g></g><g><use xlink:href="#c3Ipiwl5Cs" opacity="1" fill="#000000" fill-opacity="0"></use><g><use xlink:href="#c3Ipiwl5Cs" opacity="1" fill-opacity="0" stroke="#000000" stroke-width="1" stroke-opacity="0"></use></g></g><g><use xlink:href="#c7cSom078y" opacity="1" fill="#000000" fill-opacity="0"></use><g><use xlink:href="#c7cSom078y" opacity="1" fill-opacity="0" stroke="#000000" stroke-width="1" stroke-opacity="0"></use></g></g><g><use xlink:href="#d2dStPOc5M" opacity="1" fill="#000000" fill-opacity="0"></use><g><use xlink:href="#d2dStPOc5M" opacity="1" fill-opacity="0" stroke="#000000" stroke-width="1" stroke-opacity="0"></use></g></g><g><use xlink:href="#hQ6vgsRAn" opacity="1" fill="#f7c6a4" fill-opacity="1"></use><g><use xlink:href="#hQ6vgsRAn" opacity="1" fill-opacity="0" stroke="#000000" stroke-width="1" stroke-opacity="0"></use></g></g><g><use xlink:href="#bnCFmtOCo" opacity="1" fill="#000000" fill-opacity="0"></use><g><use xlink:href="#bnCFmtOCo" opacity="1" fill-opacity="0" stroke="#000000" stroke-width="1" stroke-opacity="0"></use></g></g><g><use xlink:href="#cqU586ScE" opacity="1" fill="#000000" fill-opacity="0"></use><g><use xlink:href="#cqU586ScE" opacity="1" fill-opacity="0" stroke="#000000" stroke-width="1" stroke-opacity="0"></use></g></g><g><use xlink:href="#a1EooNkqYc" opacity="1" fill="#000000" fill-opacity="0"></use><g><use xlink:href="#a1EooNkqYc" opacity="1" fill-opacity="0" stroke="#000000" stroke-width="1" stroke-opacity="0"></use></g></g><g><use xlink:href="#h1DsB6MGoH" opacity="1" fill="#f7c6a4" fill-opacity="1"></use><g><use xlink:href="#h1DsB6MGoH" opacity="1" fill-opacity="0" stroke="#000000" stroke-width="1" stroke-opacity="0"></use></g></g><g><use xlink:href="#eeqyBdqwF" opacity="1" fill="#000000" fill-opacity="0"></use><g><use xlink:href="#eeqyBdqwF" opacity="1" fill-opacity="0" stroke="#000000" stroke-width="1" stroke-opacity="0"></use></g></g><g><use xlink:href="#e4e4HnWSUQ" opacity="1" fill="#000000" fill-opacity="0"></use><g><use xlink:href="#e4e4HnWSUQ" opacity="1" fill-opacity="0" stroke="#000000" stroke-width="1" stroke-opacity="0"></use></g></g><g><use xlink:href="#a1pDBmZF95" opacity="1" fill="#000000" fill-opacity="0"></use><g><use xlink:href="#a1pDBmZF95" opacity="1" fill-opacity="0" stroke="#000000" stroke-width="1" stroke-opacity="0"></use></g></g><g><use xlink:href="#ci77ht7rS" opacity="1" fill="#f7c6a4" fill-opacity="1"></use><g><use xlink:href="#ci77ht7rS" opacity="1" fill-opacity="0" stroke="#000000" stroke-width="1" stroke-opacity="0"></use></g></g><g><use xlink:href="#d1HAa5Mn2Y" opacity="1" fill="#000000" fill-opacity="0"></use><g><use xlink:href="#d1HAa5Mn2Y" opacity="1" fill-opacity="0" stroke="#000000" stroke-width="1" stroke-opacity="0"></use></g></g><g><use xlink:href="#d2TpYS8v00" opacity="1" fill="#000000" fill-opacity="0"></use><g><use xlink:href="#d2TpYS8v00" opacity="1" fill-opacity="0" stroke="#000000" stroke-width="1" stroke-opacity="0"></use></g></g><g><use xlink:href="#cRdLBpuma" opacity="1" fill="#000000" fill-opacity="0"></use><g><use xlink:href="#cRdLBpuma" opacity="1" fill-opacity="0" stroke="#000000" stroke-width="1" stroke-opacity="0"></use></g></g><g><use xlink:href="#eHibyUYwE" opacity="1" fill="#f7c6a4" fill-opacity="1"></use><g><use xlink:href="#eHibyUYwE" opacity="1" fill-opacity="0" stroke="#000000" stroke-width="1" stroke-opacity="0"></use></g></g><g><use xlink:href="#b1IYtv9LKM" opacity="1" fill="#000000" fill-opacity="0"></use><g><use xlink:href="#b1IYtv9LKM" opacity="1" fill-opacity="0" stroke="#000000" stroke-width="1" stroke-opacity="0"></use></g></g><g><use xlink:href="#a3k2HnZc1x" opacity="1" fill="#000000" fill-opacity="0"></use><g><use xlink:href="#a3k2HnZc1x" opacity="1" fill-opacity="0" stroke="#000000" stroke-width="1" stroke-opacity="0"></use></g></g><g><use xlink:href="#bTD02Pg7x" opacity="1" fill="#000000" fill-opacity="0"></use><g><use xlink:href="#bTD02Pg7x" opacity="1" fill-opacity="0" stroke="#000000" stroke-width="1" stroke-opacity="0"></use></g></g><g><use xlink:href="#b1jrgPq7h" opacity="1" fill="#ffdcc5" fill-opacity="1"></use><g><use xlink:href="#b1jrgPq7h" opacity="1" fill-opacity="0" stroke="#000000" stroke-width="1" stroke-opacity="0"></use></g></g><g><use xlink:href="#b3HY6m4NyU" opacity="1" fill="#000000" fill-opacity="0"></use><g><use xlink:href="#b3HY6m4NyU" opacity="1" fill-opacity="0" stroke="#000000" stroke-width="1" stroke-opacity="0"></use></g></g><g><use xlink:href="#e3n4JOdGbK" opacity="1" fill="#000000" fill-opacity="0"></use><g><use xlink:href="#e3n4JOdGbK" opacity="1" fill-opacity="0" stroke="#000000" stroke-width="1" stroke-opacity="0"></use></g></g><g><use xlink:href="#d3bE1AF7G" opacity="1" fill="#000000" fill-opacity="0"></use><g><use xlink:href="#d3bE1AF7G" opacity="1" fill-opacity="0" stroke="#000000" stroke-width="1" stroke-opacity="0"></use></g></g></g></g></svg>