<svg width="512" height="512" xmlns="http://www.w3.org/2000/svg">

 <g>
  <title>background</title>
  <rect fill="none" id="canvas_background" height="402" width="582" y="-1" x="-1"/>
 </g>
 <g>
  <title>Layer 1</title>
  <g id="svg_1">
   <path id="svg_4" fill="#008186" class="active-path" d="m256,321.332l-125.975,0l-1.125,190.668l105.767,0l21.333,-64.668l10.667,-41.999l-10.667,-84.001z"/>
   <polygon id="svg_5" fill="#008186" points="277.333,512 383.101,512 381.975,321.332 255.978,321.332 255.978,447.332 "/>
   <path id="svg_6" fill="#FFD391" d="m255.978,0l-51.915,0l-21.571,43.142c-26.095,2.625 -49.425,16.032 -65.03,37.683c-17.378,24.11 -22.027,54.077 -12.789,82.292l6.509,24.839c-0.115,0.214 -0.221,0.433 -0.335,0.647l145.131,-81.937l11.022,-65.54l-11.022,-41.126z"/>
   <path id="svg_7" fill="#FFD391" d="m256,0l48.604,0l21.571,43.142c26.095,2.625 49.425,16.032 65.03,37.683c17.378,24.11 22.027,54.077 12.789,82.292l-6.509,24.839c0.115,0.214 0.221,0.433 0.335,0.647l-141.82,-81.936l0,-106.667z"/>
   <path id="svg_8" fill="#FFD391" d="m137.033,127.817c0,6.707 2.081,13.058 5.79,18.73c-9.943,9.449 -18.731,20.131 -26.095,31.859c-2.092,3.332 -4.043,6.738 -5.881,10.195c-12.57,23.64 -19.181,50.045 -19.181,77.065c0,38.607 13.656,76.126 38.453,105.645l0.545,0.649l0.615,0.583c1.554,1.475 39.047,36.117 124.697,36.123l21.355,-163.334l-21.353,-160.998c-29.296,0 -58.586,0 -59.461,0c-32.852,0 -59.484,19.468 -59.484,43.483z"/>
   <path id="svg_9" fill="#FFD391" d="m374.967,127.817c0,6.707 -2.081,13.058 -5.79,18.73c9.943,9.449 18.731,20.131 26.095,31.859c2.092,3.332 4.042,6.738 5.881,10.195c12.57,23.64 19.181,50.045 19.181,77.065c0,38.607 -13.656,76.126 -38.453,105.645l-0.545,0.649l-0.615,0.583c-1.554,1.475 -39.047,36.117 -124.698,36.123l0,-324.332c29.296,0 58.586,0 59.461,0c32.851,0 59.483,19.468 59.483,43.483z"/>
   <rect id="svg_10" fill="#FFC266" height="30" width="30" y="282.67" x="241"/>
  </g>
 </g>
</svg>