<?xml version="1.0" encoding="UTF-8" standalone="no"?>
<!DOCTYPE svg PUBLIC "-//W3C//DTD SVG 1.1//EN" "http://www.w3.org/Graphics/SVG/1.1/DTD/svg11.dtd">
<svg version="1.1" xmlns="http://www.w3.org/2000/svg" xmlns:xlink="http://www.w3.org/1999/xlink" preserveAspectRatio="xMidYMid meet" viewBox="0 0 640 640" width="640" height="640"><defs><path d="M14.55 625.45C5.82 625.45 0 619.64 0 610.91C0 608 0 584.73 0 581.82C0 573.09 5.82 567.27 14.54 567.27C46.55 567.27 302.55 567.27 334.55 567.27C343.27 567.27 349.09 573.09 349.09 581.82C349.09 584.73 349.09 608 349.09 610.91C349.09 619.64 343.27 625.45 334.55 625.45C270.55 625.45 46.55 625.45 14.55 625.45Z" id="a9xgispsn"></path><path d="M0 581.82C0 581.82 0 581.82 0 581.82C0 573.09 5.82 567.27 14.54 567.27C32 567.27 119.27 567.27 276.36 567.27L276.36 581.82L0 581.82Z" id="a1mMiqVPeH"></path><path d="M276.36 596.36C276.36 605.09 270.55 610.91 261.82 610.91C235.64 610.91 26.18 610.91 0 610.91C0 619.64 5.82 625.45 14.54 625.45C31.03 625.45 113.45 625.45 261.82 625.45C305.45 625.45 329.7 625.45 334.55 625.45C343.27 625.45 349.09 619.64 349.09 610.91C349.09 608.97 349.09 599.27 349.09 581.82L276.36 581.82C276.36 590.55 276.36 595.39 276.36 596.36Z" id="f172Fk3WCe"></path><path d="M43.64 610.91C43.64 597.82 43.64 590.54 43.64 589.09C43.64 584.73 40.73 581.82 36.36 581.82C32 581.82 29.09 584.73 29.09 589.09C29.09 590.54 29.09 597.82 29.09 610.91" id="db5rZP8K9"></path><path d="M87.27 610.91C87.27 597.82 87.27 590.54 87.27 589.09C87.27 584.73 84.36 581.82 80 581.82C75.64 581.82 72.73 584.73 72.73 589.09C72.73 590.54 72.73 597.82 72.73 610.91" id="d1U6xhaLGy"></path><path d="M130.91 610.91C130.91 597.82 130.91 590.54 130.91 589.09C130.91 584.73 128 581.82 123.64 581.82C119.27 581.82 116.36 584.73 116.36 589.09C116.36 590.54 116.36 597.82 116.36 610.91" id="eu4XHdpQO"></path><path d="M174.55 610.91C174.54 597.82 174.54 590.54 174.55 589.09C174.55 584.73 171.64 581.82 167.27 581.82C162.91 581.82 160 584.73 160 589.09C160 590.54 160 597.82 160 610.91" id="b2PJKyYoBs"></path><path d="M218.18 610.91C218.18 597.82 218.18 590.54 218.18 589.09C218.18 584.73 215.27 581.82 210.91 581.82C206.54 581.82 203.64 584.73 203.64 589.09C203.64 590.54 203.64 597.82 203.64 610.91" id="aGXA4hrG9"></path><path d="M261.82 610.91C261.82 597.82 261.82 590.54 261.82 589.09C261.82 584.73 258.91 581.82 254.55 581.82C250.18 581.82 247.27 584.73 247.27 589.09C247.27 590.54 247.27 597.82 247.27 610.91" id="a25Sk7Idtv"></path><path d="M43.64 567.27C34.91 567.27 29.09 561.45 29.09 552.73C29.09 549.82 29.09 526.55 29.09 523.64C29.09 514.91 34.91 509.09 43.64 509.09C75.64 509.09 331.64 509.09 363.64 509.09C372.36 509.09 378.18 514.91 378.18 523.64C378.18 526.55 378.18 549.82 378.18 552.73C378.18 561.45 372.36 567.27 363.64 567.27C299.64 567.27 75.64 567.27 43.64 567.27Z" id="a3o097X4Fh"></path><path d="M29.09 523.64C29.09 523.64 29.09 523.64 29.09 523.64C29.09 514.91 34.91 509.09 43.64 509.09C61.09 509.09 148.36 509.09 305.46 509.09L305.46 523.64L29.09 523.64Z" id="btBnyiXug"></path><path d="M305.46 538.18C305.46 546.91 299.64 552.73 290.91 552.73C264.73 552.73 55.27 552.73 29.09 552.73C29.09 561.45 34.91 567.27 43.64 567.27C60.12 567.27 142.55 567.27 290.91 567.27C334.55 567.27 358.79 567.27 363.64 567.27C372.36 567.27 378.18 561.45 378.18 552.73C378.18 550.79 378.18 541.09 378.18 523.64L305.46 523.64C305.46 532.36 305.46 537.21 305.46 538.18Z" id="a23sTNIXPo"></path><path d="M72.73 552.73C72.73 539.64 72.73 532.36 72.73 530.91C72.73 526.55 69.82 523.64 65.46 523.64C61.09 523.64 58.18 526.55 58.18 530.91C58.18 532.36 58.18 539.64 58.18 552.73" id="a3w3TC8qgy"></path><path d="M116.36 552.73C116.36 539.64 116.36 532.36 116.36 530.91C116.36 526.55 113.46 523.64 109.09 523.64C104.73 523.64 101.82 526.55 101.82 530.91C101.82 532.36 101.82 539.64 101.82 552.73" id="d9VYjw8cK"></path><path d="M160 552.73C160 539.64 160 532.36 160 530.91C160 526.55 157.09 523.64 152.73 523.64C148.36 523.64 145.46 526.55 145.46 530.91C145.45 532.36 145.45 539.64 145.46 552.73" id="a4ofONab5A"></path><path d="M203.64 552.73C203.64 539.64 203.64 532.36 203.64 530.91C203.64 526.55 200.73 523.64 196.36 523.64C192 523.64 189.09 526.55 189.09 530.91C189.09 532.36 189.09 539.64 189.09 552.73" id="a2p5Odde7G"></path><path d="M247.27 552.73C247.27 539.64 247.27 532.36 247.27 530.91C247.27 526.55 244.36 523.64 240 523.64C235.64 523.64 232.73 526.55 232.73 530.91C232.73 532.36 232.73 539.64 232.73 552.73" id="a2EtVqOl5n"></path><path d="M290.91 552.73C290.91 539.64 290.91 532.36 290.91 530.91C290.91 526.55 288 523.64 283.64 523.64C279.27 523.64 276.36 526.55 276.36 530.91C276.36 532.36 276.36 539.64 276.36 552.73" id="bjJDLuL1l"></path><path d="M72.73 450.91C64 450.91 58.18 445.09 58.18 436.36C58.18 433.45 58.18 410.18 58.18 407.27C58.18 398.54 64 392.73 72.73 392.73C104.73 392.73 360.73 392.73 392.73 392.73C401.46 392.73 407.27 398.55 407.27 407.27C407.27 410.18 407.27 433.45 407.27 436.36C407.27 445.09 401.46 450.91 392.73 450.91C328.73 450.91 104.73 450.91 72.73 450.91Z" id="c1DjjtQ0k"></path><path d="M58.18 407.27C58.18 407.27 58.18 407.27 58.18 407.27C58.18 398.54 64 392.73 72.73 392.73C90.18 392.73 177.45 392.73 334.55 392.73L334.55 407.27L58.18 407.27Z" id="chIn4aaJ6"></path><path d="M334.55 421.82C334.55 430.55 328.73 436.36 320 436.36C293.82 436.36 84.36 436.36 58.18 436.36C58.18 445.09 64 450.91 72.73 450.91C89.21 450.91 171.64 450.91 320 450.91C363.64 450.91 387.88 450.91 392.73 450.91C401.46 450.91 407.27 445.09 407.27 436.36C407.27 434.42 407.27 424.73 407.27 407.27L334.55 407.27C334.55 416 334.55 420.85 334.55 421.82Z" id="b1fRBdKRi1"></path><path d="M101.82 436.36C101.82 423.27 101.82 416 101.82 414.55C101.82 410.18 98.91 407.27 94.55 407.27C90.18 407.27 87.27 410.18 87.27 414.55C87.27 416 87.27 423.27 87.27 436.36" id="gkncqtUa6"></path><path d="M145.46 436.36C145.45 423.27 145.45 416 145.46 414.55C145.46 410.18 142.55 407.27 138.18 407.27C133.82 407.27 130.91 410.18 130.91 414.55C130.91 416 130.91 423.27 130.91 436.36" id="b25ByMltbr"></path><path d="M189.09 436.36C189.09 423.27 189.09 416 189.09 414.55C189.09 410.18 186.18 407.27 181.82 407.27C177.45 407.27 174.55 410.18 174.55 414.55C174.55 416 174.55 423.27 174.55 436.36" id="b1PTfUnAEt"></path><path d="M232.73 436.36C232.73 423.27 232.73 416 232.73 414.55C232.73 410.18 229.82 407.27 225.46 407.27C221.09 407.27 218.18 410.18 218.18 414.55C218.18 416 218.18 423.27 218.18 436.36" id="b2XIAogzZG"></path><path d="M276.36 436.36C276.36 423.27 276.36 416 276.36 414.55C276.36 410.18 273.46 407.27 269.09 407.27C264.73 407.27 261.82 410.18 261.82 414.55C261.82 416 261.82 423.27 261.82 436.36" id="byL1BUBuB"></path><path d="M320 436.36C320 423.27 320 416 320 414.55C320 410.18 317.09 407.27 312.73 407.27C308.36 407.27 305.46 410.18 305.46 414.55C305.46 416 305.46 423.27 305.46 436.36" id="a1oq0RiJTV"></path><path d="M43.64 392.73C34.91 392.73 29.09 386.91 29.09 378.18C29.09 375.27 29.09 352 29.09 349.09C29.09 340.36 34.91 334.55 43.64 334.55C75.64 334.55 331.64 334.55 363.64 334.55C372.36 334.55 378.18 340.36 378.18 349.09C378.18 352 378.18 375.27 378.18 378.18C378.18 386.91 372.36 392.73 363.64 392.73C299.64 392.73 75.64 392.73 43.64 392.73Z" id="eBQiLIdUk"></path><path d="M29.09 349.09C29.09 349.09 29.09 349.09 29.09 349.09C29.09 340.36 34.91 334.55 43.64 334.55C61.09 334.55 148.36 334.55 305.46 334.55L305.46 349.09L29.09 349.09Z" id="bc9EvtrwR"></path><path d="M305.46 363.64C305.46 372.36 299.64 378.18 290.91 378.18C264.73 378.18 55.27 378.18 29.09 378.18C29.09 386.91 34.91 392.73 43.64 392.73C60.12 392.73 142.55 392.73 290.91 392.73C334.55 392.73 358.79 392.73 363.64 392.73C372.36 392.73 378.18 386.91 378.18 378.18C378.18 376.24 378.18 366.54 378.18 349.09L305.46 349.09C305.46 357.82 305.46 362.67 305.46 363.64Z" id="a3bDk9StNI"></path><path d="M72.73 378.18C72.73 365.09 72.73 357.82 72.73 356.36C72.73 352 69.82 349.09 65.46 349.09C61.09 349.09 58.18 352 58.18 356.36C58.18 357.82 58.18 365.09 58.18 378.18" id="h2TIHl2RjI"></path><path d="M116.36 378.18C116.36 365.09 116.36 357.82 116.36 356.36C116.36 352 113.46 349.09 109.09 349.09C104.73 349.09 101.82 352 101.82 356.36C101.82 357.82 101.82 365.09 101.82 378.18" id="a529hxWCW5"></path><path d="M160 378.18C160 365.09 160 357.82 160 356.36C160 352 157.09 349.09 152.73 349.09C148.36 349.09 145.46 352 145.46 356.36C145.45 357.82 145.45 365.09 145.46 378.18" id="gCQaTX82a"></path><path d="M203.64 378.18C203.64 365.09 203.64 357.82 203.64 356.36C203.64 352 200.73 349.09 196.36 349.09C192 349.09 189.09 352 189.09 356.36C189.09 357.82 189.09 365.09 189.09 378.18" id="dCi6bBxap"></path><path d="M247.27 378.18C247.27 365.09 247.27 357.82 247.27 356.36C247.27 352 244.36 349.09 240 349.09C235.64 349.09 232.73 352 232.73 356.36C232.73 357.82 232.73 365.09 232.73 378.18" id="a6gT6qGUu"></path><path d="M290.91 378.18C290.91 365.09 290.91 357.82 290.91 356.36C290.91 352 288 349.09 283.64 349.09C279.27 349.09 276.36 352 276.36 356.36C276.36 357.82 276.36 365.09 276.36 378.18" id="cjspybh3D"></path><path d="M14.55 509.09C5.82 509.09 0 503.27 0 494.55C0 491.64 0 468.36 0 465.45C0 456.73 5.82 450.91 14.54 450.91C46.55 450.91 302.55 450.91 334.55 450.91C343.27 450.91 349.09 456.73 349.09 465.45C349.09 468.36 349.09 491.64 349.09 494.55C349.09 503.27 343.27 509.09 334.55 509.09C270.55 509.09 46.55 509.09 14.55 509.09Z" id="c5HbnJiCW7"></path><path d="M0 465.46C0 465.45 0 465.45 0 465.46C0 456.73 5.82 450.91 14.54 450.91C32 450.91 119.27 450.91 276.36 450.91L276.36 465.46L0 465.46Z" id="b1uMp1a5Y"></path><path d="M276.36 480C276.36 488.73 270.55 494.55 261.82 494.55C235.64 494.55 26.18 494.55 0 494.55C0 503.27 5.82 509.09 14.54 509.09C31.03 509.09 113.45 509.09 261.82 509.09C305.45 509.09 329.7 509.09 334.55 509.09C343.27 509.09 349.09 503.27 349.09 494.55C349.09 492.61 349.09 482.91 349.09 465.45L276.36 465.45C276.36 474.18 276.36 479.03 276.36 480Z" id="aa6G6hAzc"></path><path d="M43.64 494.55C43.64 481.45 43.64 474.18 43.64 472.73C43.64 468.36 40.73 465.45 36.36 465.45C32 465.45 29.09 468.36 29.09 472.73C29.09 474.18 29.09 481.45 29.09 494.55" id="d1VrObgaom"></path><path d="M87.27 494.55C87.27 481.45 87.27 474.18 87.27 472.73C87.27 468.36 84.36 465.45 80 465.45C75.64 465.45 72.73 468.36 72.73 472.73C72.73 474.18 72.73 481.45 72.73 494.55" id="bFEEBUf8m"></path><path d="M130.91 494.55C130.91 481.45 130.91 474.18 130.91 472.73C130.91 468.36 128 465.45 123.64 465.45C119.27 465.45 116.36 468.36 116.36 472.73C116.36 474.18 116.36 481.45 116.36 494.55" id="c5Sb8PGRmt"></path><path d="M174.55 494.55C174.54 481.45 174.54 474.18 174.55 472.73C174.55 468.36 171.64 465.45 167.27 465.45C162.91 465.45 160 468.36 160 472.73C160 474.18 160 481.45 160 494.55" id="aavLd6Zg"></path><path d="M218.18 494.55C218.18 481.45 218.18 474.18 218.18 472.73C218.18 468.36 215.27 465.45 210.91 465.45C206.54 465.45 203.64 468.36 203.64 472.73C203.64 474.18 203.64 481.45 203.64 494.55" id="biNmdb7Pk"></path><path d="M261.82 494.55C261.82 481.45 261.82 474.18 261.82 472.73C261.82 468.36 258.91 465.45 254.55 465.45C250.18 465.45 247.27 468.36 247.27 472.73C247.27 474.18 247.27 481.45 247.27 494.55" id="d1EfXAnAUA"></path><path d="M581.82 472.73C581.82 384 546.91 299.64 484.36 237.09C480.19 232.92 459.34 212.07 421.82 174.55L421.82 130.91C452.36 92.51 469.33 71.18 472.73 66.91C477.09 61.09 480 53.82 480 46.54C480 29.09 465.46 14.54 448 14.54C444.32 14.54 425.89 14.54 392.73 14.54L378.18 43.64L349.09 14.54C307.2 14.54 283.93 14.54 279.27 14.54C261.82 14.54 247.27 29.09 247.27 46.54C247.27 53.82 250.18 61.09 254.54 66.91C257.94 71.18 274.91 92.51 305.45 130.91L305.45 174.55C267.93 212.07 247.08 232.92 242.91 237.09C180.36 299.64 145.45 384 145.45 472.73C145.45 472.73 145.45 472.73 145.45 472.73C145.45 496 135.27 517.82 116.36 530.91C97.45 544 87.27 565.82 87.27 589.09C87.27 589.09 87.27 589.09 87.27 589.09C87.27 609.45 103.27 625.45 123.63 625.45C171.63 625.45 555.64 625.45 603.64 625.45C624 625.45 640 609.45 640 589.09C640 589.09 640 589.09 640 589.09C640 565.82 629.82 544 610.91 530.91C592 517.82 581.82 496 581.82 472.73Z" id="bgDynVQuX"></path><path d="M581.82 471.27C583.27 379.64 541.09 293.82 477.09 228.36C473.41 224.78 454.98 206.84 421.82 174.54L421.82 130.91C452.36 92.51 469.33 71.18 472.73 66.91C481.45 56.73 482.91 42.18 475.63 29.09C469.82 18.91 458.18 14.54 446.54 14.54C436.36 14.54 430.54 26.18 433.45 34.91C434.91 37.82 436.36 42.18 436.36 46.54C436.36 53.82 433.45 61.09 429.09 66.91C425.69 71.18 408.73 92.51 378.18 130.91L378.18 174.54L305.45 174.54L290.91 189.09L392.73 189.09C425.02 221.38 442.96 239.32 446.54 242.91C506.18 302.54 529.45 384 523.64 466.91C522.18 491.64 532.36 514.91 551.27 529.45C552.73 530.91 554.18 532.36 555.64 532.36C577.45 555.63 558.54 594.91 525.09 594.91C481.45 594.91 132.36 594.91 88.73 594.91C91.64 610.91 106.18 624 123.64 624C151.76 624 292.36 624 545.45 624L581.82 624C594.91 624 602.18 624 603.64 624C624 624 640 608 640 587.64C640 587.35 640 585.02 640 584.73C640 562.91 628.36 544 610.91 530.91C592 516.36 581.82 494.54 581.82 471.27Z" id="akpHzGeQ0"></path><path d="M298.18 174.55C286.54 174.55 276.36 164.36 276.36 152.73C276.36 152.73 276.36 152.73 276.36 152.73C276.36 141.09 286.54 130.91 298.18 130.91C311.27 130.91 416 130.91 429.09 130.91C440.73 130.91 450.91 141.09 450.91 152.73C450.91 152.73 450.91 152.73 450.91 152.73C450.91 164.36 440.73 174.55 429.09 174.55C402.91 174.55 311.27 174.55 298.18 174.55Z" id="b1bY7TBFOg"></path><path d="M370.91 130.91C375.27 130.91 378.18 133.82 378.18 138.18C378.18 138.18 378.18 138.18 378.18 138.18C378.18 142.55 375.27 145.45 370.91 145.45C363.64 145.45 305.45 145.45 298.18 145.45C293.82 145.45 290.91 142.55 290.91 138.18C290.91 138.18 290.91 138.18 290.91 138.18C290.91 133.82 293.82 130.91 298.18 130.91C312.73 130.91 363.64 130.91 370.91 130.91Z" id="b1GLbSYYs"></path><path d="M421.82 130.91C421.82 139.64 421.82 144.48 421.82 145.45C421.82 154.18 416 160 407.27 160C394.33 160 290.76 160 277.82 160C280.73 168.73 289.46 174.54 298.18 174.54C311.27 174.54 416 174.54 429.09 174.54C440.73 174.54 450.91 164.36 450.91 152.73C450.91 141.09 440.73 130.91 429.09 130.91C428.12 130.91 425.7 130.91 421.82 130.91Z" id="bxJmJWZgl"></path><path d="M429.09 160C433.45 160 436.36 162.91 436.36 167.27C436.36 167.27 436.36 167.27 436.36 167.27C436.36 171.64 433.45 174.55 429.09 174.55C424.73 174.55 389.82 174.55 385.46 174.55C381.09 174.55 378.18 171.64 378.18 167.27C378.18 167.27 378.18 167.27 378.18 167.27C378.18 162.91 381.09 160 385.46 160C394.18 160 424.73 160 429.09 160Z" id="bM3QJTsNS"></path><path d="M229.49 522.65L229.49 369.26L382.88 369.26L382.88 522.65L229.49 522.65Z" id="a2mjMkZzxw"></path><path d="M306.18 522.65L306.18 369.26L382.88 369.26L382.88 522.65L306.18 522.65Z" id="a3l82FVzgB"></path><path d="M258.1 390.88L258.1 357.95L268.42 357.95L268.42 390.88L258.1 390.88Z" id="hc5aQ5mxE"></path><path d="M286.72 390.88L286.72 357.95L297.03 357.95L297.03 390.88L286.72 390.88Z" id="e3Dv7es2k5"></path><path d="M315.33 390.88L315.33 357.95L325.65 357.95L325.65 390.88L315.33 390.88Z" id="c1egnLQcKT"></path><path d="M343.95 390.88L343.95 357.95L354.26 357.95L354.26 390.88L343.95 390.88Z" id="c1gzPnxwo2"></path><path d="M258.1 533.95L258.1 501.03L268.42 501.03L268.42 533.95L258.1 533.95Z" id="h3c5SNQ4jV"></path><path d="M286.72 533.95L286.72 501.03L297.03 501.03L297.03 533.95L286.72 533.95Z" id="b7JjbTvHE5"></path><path d="M315.33 533.95L315.33 501.03L325.65 501.03L325.65 533.95L315.33 533.95Z" id="a3gWqqmWcI"></path><path d="M343.95 533.95L343.95 501.03L354.26 501.03L354.26 533.95L343.95 533.95Z" id="cfbYuOQYg"></path><path d="M361.26 494.02L361.26 483.7L394.18 483.7L394.18 494.02L361.26 494.02Z" id="c9RPaLhon"></path><path d="M361.26 465.4L361.26 455.09L394.18 455.09L394.18 465.4L361.26 465.4Z" id="e3mGWxKOgp"></path><path d="M361.26 436.79L361.26 426.47L394.18 426.47L394.18 436.79L361.26 436.79Z" id="b1hE7Foqb"></path><path d="M361.26 408.17L361.26 397.86L394.18 397.86L394.18 408.17L361.26 408.17Z" id="b9HFwRIOh"></path><path d="M218.18 494.02L218.18 483.7L251.11 483.7L251.11 494.02L218.18 494.02Z" id="b3k5dKdMBY"></path><path d="M218.18 465.4L218.18 455.09L251.11 455.09L251.11 465.4L218.18 465.4Z" id="a1BzaJTGap"></path><path d="M218.18 436.79L218.18 426.47L251.11 426.47L251.11 436.79L218.18 436.79Z" id="aQ31638ma"></path><path d="M218.18 408.17L218.18 397.86L251.11 397.86L251.11 408.17L218.18 408.17Z" id="e6S2WcShU"></path><path d="M315.33 390.88L315.33 357.95L325.65 357.95L325.65 390.88L315.33 390.88Z" id="afp0I7it3"></path><path d="M343.95 390.88L343.95 357.95L354.26 357.95L354.26 390.88L343.95 390.88Z" id="b3yYE2pTu"></path><path d="M315.33 533.95L315.33 501.03L325.65 501.03L325.65 533.95L315.33 533.95Z" id="b2qJ93WmyI"></path><path d="M343.95 533.95L343.95 501.03L354.26 501.03L354.26 533.95L343.95 533.95Z" id="a4l7fP97q"></path><path d="M361.26 494.02L361.26 483.7L394.18 483.7L394.18 494.02L361.26 494.02Z" id="g2svi4jIGV"></path><path d="M361.26 465.4L361.26 455.09L394.18 455.09L394.18 465.4L361.26 465.4Z" id="agpmQ66Ib"></path><path d="M361.26 436.79L361.26 426.47L394.18 426.47L394.18 436.79L361.26 436.79Z" id="bDEkie5NK"></path><path d="M361.26 408.17L361.26 397.86L394.18 397.86L394.18 408.17L361.26 408.17Z" id="b2vgu33W0s"></path></defs><g><g><g><use xlink:href="#a9xgispsn" opacity="1" fill="#f6b545" fill-opacity="1"></use><g><use xlink:href="#a9xgispsn" opacity="1" fill-opacity="0" stroke="#000000" stroke-width="1" stroke-opacity="0"></use></g></g><g><use xlink:href="#a1mMiqVPeH" opacity="1" fill="#ffcb5b" fill-opacity="1"></use><g><use xlink:href="#a1mMiqVPeH" opacity="1" fill-opacity="0" stroke="#000000" stroke-width="1" stroke-opacity="0"></use></g></g><g><use xlink:href="#f172Fk3WCe" opacity="1" fill="#f19920" fill-opacity="1"></use><g><use xlink:href="#f172Fk3WCe" opacity="1" fill-opacity="0" stroke="#000000" stroke-width="1" stroke-opacity="0"></use></g></g><g><use xlink:href="#db5rZP8K9" opacity="1" fill="#f19920" fill-opacity="1"></use><g><use xlink:href="#db5rZP8K9" opacity="1" fill-opacity="0" stroke="#000000" stroke-width="1" stroke-opacity="0"></use></g></g><g><use xlink:href="#d1U6xhaLGy" opacity="1" fill="#f19920" fill-opacity="1"></use><g><use xlink:href="#d1U6xhaLGy" opacity="1" fill-opacity="0" stroke="#000000" stroke-width="1" stroke-opacity="0"></use></g></g><g><use xlink:href="#eu4XHdpQO" opacity="1" fill="#f19920" fill-opacity="1"></use><g><use xlink:href="#eu4XHdpQO" opacity="1" fill-opacity="0" stroke="#000000" stroke-width="1" stroke-opacity="0"></use></g></g><g><use xlink:href="#b2PJKyYoBs" opacity="1" fill="#f19920" fill-opacity="1"></use><g><use xlink:href="#b2PJKyYoBs" opacity="1" fill-opacity="0" stroke="#000000" stroke-width="1" stroke-opacity="0"></use></g></g><g><use xlink:href="#aGXA4hrG9" opacity="1" fill="#f19920" fill-opacity="1"></use><g><use xlink:href="#aGXA4hrG9" opacity="1" fill-opacity="0" stroke="#000000" stroke-width="1" stroke-opacity="0"></use></g></g><g><use xlink:href="#a25Sk7Idtv" opacity="1" fill="#f19920" fill-opacity="1"></use><g><use xlink:href="#a25Sk7Idtv" opacity="1" fill-opacity="0" stroke="#000000" stroke-width="1" stroke-opacity="0"></use></g></g><g><use xlink:href="#a3o097X4Fh" opacity="1" fill="#f6b545" fill-opacity="1"></use><g><use xlink:href="#a3o097X4Fh" opacity="1" fill-opacity="0" stroke="#000000" stroke-width="1" stroke-opacity="0"></use></g></g><g><use xlink:href="#btBnyiXug" opacity="1" fill="#ffcb5b" fill-opacity="1"></use><g><use xlink:href="#btBnyiXug" opacity="1" fill-opacity="0" stroke="#000000" stroke-width="1" stroke-opacity="0"></use></g></g><g><use xlink:href="#a23sTNIXPo" opacity="1" fill="#f19920" fill-opacity="1"></use><g><use xlink:href="#a23sTNIXPo" opacity="1" fill-opacity="0" stroke="#000000" stroke-width="1" stroke-opacity="0"></use></g></g><g><use xlink:href="#a3w3TC8qgy" opacity="1" fill="#f19920" fill-opacity="1"></use><g><use xlink:href="#a3w3TC8qgy" opacity="1" fill-opacity="0" stroke="#000000" stroke-width="1" stroke-opacity="0"></use></g></g><g><use xlink:href="#d9VYjw8cK" opacity="1" fill="#f19920" fill-opacity="1"></use><g><use xlink:href="#d9VYjw8cK" opacity="1" fill-opacity="0" stroke="#000000" stroke-width="1" stroke-opacity="0"></use></g></g><g><use xlink:href="#a4ofONab5A" opacity="1" fill="#f19920" fill-opacity="1"></use><g><use xlink:href="#a4ofONab5A" opacity="1" fill-opacity="0" stroke="#000000" stroke-width="1" stroke-opacity="0"></use></g></g><g><use xlink:href="#a2p5Odde7G" opacity="1" fill="#f19920" fill-opacity="1"></use><g><use xlink:href="#a2p5Odde7G" opacity="1" fill-opacity="0" stroke="#000000" stroke-width="1" stroke-opacity="0"></use></g></g><g><use xlink:href="#a2EtVqOl5n" opacity="1" fill="#f19920" fill-opacity="1"></use><g><use xlink:href="#a2EtVqOl5n" opacity="1" fill-opacity="0" stroke="#000000" stroke-width="1" stroke-opacity="0"></use></g></g><g><use xlink:href="#bjJDLuL1l" opacity="1" fill="#f19920" fill-opacity="1"></use><g><use xlink:href="#bjJDLuL1l" opacity="1" fill-opacity="0" stroke="#000000" stroke-width="1" stroke-opacity="0"></use></g></g><g><use xlink:href="#c1DjjtQ0k" opacity="1" fill="#f6b545" fill-opacity="1"></use><g><use xlink:href="#c1DjjtQ0k" opacity="1" fill-opacity="0" stroke="#000000" stroke-width="1" stroke-opacity="0"></use></g></g><g><use xlink:href="#chIn4aaJ6" opacity="1" fill="#ffcb5b" fill-opacity="1"></use><g><use xlink:href="#chIn4aaJ6" opacity="1" fill-opacity="0" stroke="#000000" stroke-width="1" stroke-opacity="0"></use></g></g><g><use xlink:href="#b1fRBdKRi1" opacity="1" fill="#f19920" fill-opacity="1"></use><g><use xlink:href="#b1fRBdKRi1" opacity="1" fill-opacity="0" stroke="#000000" stroke-width="1" stroke-opacity="0"></use></g></g><g><use xlink:href="#gkncqtUa6" opacity="1" fill="#f19920" fill-opacity="1"></use><g><use xlink:href="#gkncqtUa6" opacity="1" fill-opacity="0" stroke="#000000" stroke-width="1" stroke-opacity="0"></use></g></g><g><use xlink:href="#b25ByMltbr" opacity="1" fill="#f19920" fill-opacity="1"></use><g><use xlink:href="#b25ByMltbr" opacity="1" fill-opacity="0" stroke="#000000" stroke-width="1" stroke-opacity="0"></use></g></g><g><use xlink:href="#b1PTfUnAEt" opacity="1" fill="#f19920" fill-opacity="1"></use><g><use xlink:href="#b1PTfUnAEt" opacity="1" fill-opacity="0" stroke="#000000" stroke-width="1" stroke-opacity="0"></use></g></g><g><use xlink:href="#b2XIAogzZG" opacity="1" fill="#f19920" fill-opacity="1"></use><g><use xlink:href="#b2XIAogzZG" opacity="1" fill-opacity="0" stroke="#000000" stroke-width="1" stroke-opacity="0"></use></g></g><g><use xlink:href="#byL1BUBuB" opacity="1" fill="#f19920" fill-opacity="1"></use><g><use xlink:href="#byL1BUBuB" opacity="1" fill-opacity="0" stroke="#000000" stroke-width="1" stroke-opacity="0"></use></g></g><g><use xlink:href="#a1oq0RiJTV" opacity="1" fill="#f19920" fill-opacity="1"></use><g><use xlink:href="#a1oq0RiJTV" opacity="1" fill-opacity="0" stroke="#000000" stroke-width="1" stroke-opacity="0"></use></g></g><g><use xlink:href="#eBQiLIdUk" opacity="1" fill="#f6b545" fill-opacity="1"></use><g><use xlink:href="#eBQiLIdUk" opacity="1" fill-opacity="0" stroke="#000000" stroke-width="1" stroke-opacity="0"></use></g></g><g><use xlink:href="#bc9EvtrwR" opacity="1" fill="#ffcb5b" fill-opacity="1"></use><g><use xlink:href="#bc9EvtrwR" opacity="1" fill-opacity="0" stroke="#000000" stroke-width="1" stroke-opacity="0"></use></g></g><g><use xlink:href="#a3bDk9StNI" opacity="1" fill="#f19920" fill-opacity="1"></use><g><use xlink:href="#a3bDk9StNI" opacity="1" fill-opacity="0" stroke="#000000" stroke-width="1" stroke-opacity="0"></use></g></g><g><use xlink:href="#h2TIHl2RjI" opacity="1" fill="#f19920" fill-opacity="1"></use><g><use xlink:href="#h2TIHl2RjI" opacity="1" fill-opacity="0" stroke="#000000" stroke-width="1" stroke-opacity="0"></use></g></g><g><use xlink:href="#a529hxWCW5" opacity="1" fill="#f19920" fill-opacity="1"></use><g><use xlink:href="#a529hxWCW5" opacity="1" fill-opacity="0" stroke="#000000" stroke-width="1" stroke-opacity="0"></use></g></g><g><use xlink:href="#gCQaTX82a" opacity="1" fill="#f19920" fill-opacity="1"></use><g><use xlink:href="#gCQaTX82a" opacity="1" fill-opacity="0" stroke="#000000" stroke-width="1" stroke-opacity="0"></use></g></g><g><use xlink:href="#dCi6bBxap" opacity="1" fill="#f19920" fill-opacity="1"></use><g><use xlink:href="#dCi6bBxap" opacity="1" fill-opacity="0" stroke="#000000" stroke-width="1" stroke-opacity="0"></use></g></g><g><use xlink:href="#a6gT6qGUu" opacity="1" fill="#f19920" fill-opacity="1"></use><g><use xlink:href="#a6gT6qGUu" opacity="1" fill-opacity="0" stroke="#000000" stroke-width="1" stroke-opacity="0"></use></g></g><g><use xlink:href="#cjspybh3D" opacity="1" fill="#f19920" fill-opacity="1"></use><g><use xlink:href="#cjspybh3D" opacity="1" fill-opacity="0" stroke="#000000" stroke-width="1" stroke-opacity="0"></use></g></g><g><use xlink:href="#c5HbnJiCW7" opacity="1" fill="#f6b545" fill-opacity="1"></use><g><use xlink:href="#c5HbnJiCW7" opacity="1" fill-opacity="0" stroke="#000000" stroke-width="1" stroke-opacity="0"></use></g></g><g><use xlink:href="#b1uMp1a5Y" opacity="1" fill="#ffcb5b" fill-opacity="1"></use><g><use xlink:href="#b1uMp1a5Y" opacity="1" fill-opacity="0" stroke="#000000" stroke-width="1" stroke-opacity="0"></use></g></g><g><use xlink:href="#aa6G6hAzc" opacity="1" fill="#f19920" fill-opacity="1"></use><g><use xlink:href="#aa6G6hAzc" opacity="1" fill-opacity="0" stroke="#000000" stroke-width="1" stroke-opacity="0"></use></g></g><g><use xlink:href="#d1VrObgaom" opacity="1" fill="#f19920" fill-opacity="1"></use><g><use xlink:href="#d1VrObgaom" opacity="1" fill-opacity="0" stroke="#000000" stroke-width="1" stroke-opacity="0"></use></g></g><g><use xlink:href="#bFEEBUf8m" opacity="1" fill="#f19920" fill-opacity="1"></use><g><use xlink:href="#bFEEBUf8m" opacity="1" fill-opacity="0" stroke="#000000" stroke-width="1" stroke-opacity="0"></use></g></g><g><use xlink:href="#c5Sb8PGRmt" opacity="1" fill="#f19920" fill-opacity="1"></use><g><use xlink:href="#c5Sb8PGRmt" opacity="1" fill-opacity="0" stroke="#000000" stroke-width="1" stroke-opacity="0"></use></g></g><g><use xlink:href="#aavLd6Zg" opacity="1" fill="#f19920" fill-opacity="1"></use><g><use xlink:href="#aavLd6Zg" opacity="1" fill-opacity="0" stroke="#000000" stroke-width="1" stroke-opacity="0"></use></g></g><g><use xlink:href="#biNmdb7Pk" opacity="1" fill="#f19920" fill-opacity="1"></use><g><use xlink:href="#biNmdb7Pk" opacity="1" fill-opacity="0" stroke="#000000" stroke-width="1" stroke-opacity="0"></use></g></g><g><use xlink:href="#d1EfXAnAUA" opacity="1" fill="#f19920" fill-opacity="1"></use><g><use xlink:href="#d1EfXAnAUA" opacity="1" fill-opacity="0" stroke="#000000" stroke-width="1" stroke-opacity="0"></use></g></g><g><use xlink:href="#bgDynVQuX" opacity="1" fill="#c97629" fill-opacity="1"></use><g><use xlink:href="#bgDynVQuX" opacity="1" fill-opacity="0" stroke="#000000" stroke-width="1" stroke-opacity="0"></use></g></g><g><use xlink:href="#akpHzGeQ0" opacity="1" fill="#b06328" fill-opacity="1"></use><g><use xlink:href="#akpHzGeQ0" opacity="1" fill-opacity="0" stroke="#000000" stroke-width="1" stroke-opacity="0"></use></g></g><g><use xlink:href="#b1bY7TBFOg" opacity="1" fill="#ffcb5b" fill-opacity="1"></use><g><use xlink:href="#b1bY7TBFOg" opacity="1" fill-opacity="0" stroke="#000000" stroke-width="1" stroke-opacity="0"></use></g></g><g><use xlink:href="#b1GLbSYYs" opacity="1" fill="#ffe278" fill-opacity="1"></use><g><use xlink:href="#b1GLbSYYs" opacity="1" fill-opacity="0" stroke="#000000" stroke-width="1" stroke-opacity="0"></use></g></g><g><use xlink:href="#bxJmJWZgl" opacity="1" fill="#f6b545" fill-opacity="1"></use><g><use xlink:href="#bxJmJWZgl" opacity="1" fill-opacity="0" stroke="#000000" stroke-width="1" stroke-opacity="0"></use></g></g><g><use xlink:href="#bM3QJTsNS" opacity="1" fill="#f19920" fill-opacity="1"></use><g><use xlink:href="#bM3QJTsNS" opacity="1" fill-opacity="0" stroke="#000000" stroke-width="1" stroke-opacity="0"></use></g></g><g><use xlink:href="#a2mjMkZzxw" opacity="1" fill="#ffe23a" fill-opacity="1"></use><g><use xlink:href="#a2mjMkZzxw" opacity="1" fill-opacity="0" stroke="#000000" stroke-width="1" stroke-opacity="0"></use></g></g><g><use xlink:href="#a3l82FVzgB" opacity="1" fill="#ffc115" fill-opacity="1"></use><g><use xlink:href="#a3l82FVzgB" opacity="1" fill-opacity="0" stroke="#000000" stroke-width="1" stroke-opacity="0"></use></g></g><g><use xlink:href="#hc5aQ5mxE" opacity="1" fill="#1c78bd" fill-opacity="1"></use><g><use xlink:href="#hc5aQ5mxE" opacity="1" fill-opacity="0" stroke="#000000" stroke-width="1" stroke-opacity="0"></use></g></g><g><use xlink:href="#e3Dv7es2k5" opacity="1" fill="#1c78bd" fill-opacity="1"></use><g><use xlink:href="#e3Dv7es2k5" opacity="1" fill-opacity="0" stroke="#000000" stroke-width="1" stroke-opacity="0"></use></g></g><g><use xlink:href="#c1egnLQcKT" opacity="1" fill="#ff7037" fill-opacity="1"></use><g><use xlink:href="#c1egnLQcKT" opacity="1" fill-opacity="0" stroke="#000000" stroke-width="1" stroke-opacity="0"></use></g></g><g><use xlink:href="#c1gzPnxwo2" opacity="1" fill="#ff7037" fill-opacity="1"></use><g><use xlink:href="#c1gzPnxwo2" opacity="1" fill-opacity="0" stroke="#000000" stroke-width="1" stroke-opacity="0"></use></g></g><g><use xlink:href="#h3c5SNQ4jV" opacity="1" fill="#1c78bd" fill-opacity="1"></use><g><use xlink:href="#h3c5SNQ4jV" opacity="1" fill-opacity="0" stroke="#000000" stroke-width="1" stroke-opacity="0"></use></g></g><g><use xlink:href="#b7JjbTvHE5" opacity="1" fill="#1c78bd" fill-opacity="1"></use><g><use xlink:href="#b7JjbTvHE5" opacity="1" fill-opacity="0" stroke="#000000" stroke-width="1" stroke-opacity="0"></use></g></g><g><use xlink:href="#a3gWqqmWcI" opacity="1" fill="#ff7037" fill-opacity="1"></use><g><use xlink:href="#a3gWqqmWcI" opacity="1" fill-opacity="0" stroke="#000000" stroke-width="1" stroke-opacity="0"></use></g></g><g><use xlink:href="#cfbYuOQYg" opacity="1" fill="#ff7037" fill-opacity="1"></use><g><use xlink:href="#cfbYuOQYg" opacity="1" fill-opacity="0" stroke="#000000" stroke-width="1" stroke-opacity="0"></use></g></g><g><use xlink:href="#c9RPaLhon" opacity="1" fill="#ff7037" fill-opacity="1"></use><g><use xlink:href="#c9RPaLhon" opacity="1" fill-opacity="0" stroke="#000000" stroke-width="1" stroke-opacity="0"></use></g></g><g><use xlink:href="#e3mGWxKOgp" opacity="1" fill="#ff7037" fill-opacity="1"></use><g><use xlink:href="#e3mGWxKOgp" opacity="1" fill-opacity="0" stroke="#000000" stroke-width="1" stroke-opacity="0"></use></g></g><g><use xlink:href="#b1hE7Foqb" opacity="1" fill="#ff7037" fill-opacity="1"></use><g><use xlink:href="#b1hE7Foqb" opacity="1" fill-opacity="0" stroke="#000000" stroke-width="1" stroke-opacity="0"></use></g></g><g><use xlink:href="#b9HFwRIOh" opacity="1" fill="#ff7037" fill-opacity="1"></use><g><use xlink:href="#b9HFwRIOh" opacity="1" fill-opacity="0" stroke="#000000" stroke-width="1" stroke-opacity="0"></use></g></g><g><use xlink:href="#b3k5dKdMBY" opacity="1" fill="#1c78bd" fill-opacity="1"></use><g><use xlink:href="#b3k5dKdMBY" opacity="1" fill-opacity="0" stroke="#000000" stroke-width="1" stroke-opacity="0"></use></g></g><g><use xlink:href="#a1BzaJTGap" opacity="1" fill="#1c78bd" fill-opacity="1"></use><g><use xlink:href="#a1BzaJTGap" opacity="1" fill-opacity="0" stroke="#000000" stroke-width="1" stroke-opacity="0"></use></g></g><g><use xlink:href="#aQ31638ma" opacity="1" fill="#1c78bd" fill-opacity="1"></use><g><use xlink:href="#aQ31638ma" opacity="1" fill-opacity="0" stroke="#000000" stroke-width="1" stroke-opacity="0"></use></g></g><g><use xlink:href="#e6S2WcShU" opacity="1" fill="#1c78bd" fill-opacity="1"></use><g><use xlink:href="#e6S2WcShU" opacity="1" fill-opacity="0" stroke="#000000" stroke-width="1" stroke-opacity="0"></use></g></g><g><use xlink:href="#afp0I7it3" opacity="1" fill="#145381" fill-opacity="1"></use><g><use xlink:href="#afp0I7it3" opacity="1" fill-opacity="0" stroke="#000000" stroke-width="1" stroke-opacity="0"></use></g></g><g><use xlink:href="#b3yYE2pTu" opacity="1" fill="#145381" fill-opacity="1"></use><g><use xlink:href="#b3yYE2pTu" opacity="1" fill-opacity="0" stroke="#000000" stroke-width="1" stroke-opacity="0"></use></g></g><g><use xlink:href="#b2qJ93WmyI" opacity="1" fill="#145381" fill-opacity="1"></use><g><use xlink:href="#b2qJ93WmyI" opacity="1" fill-opacity="0" stroke="#000000" stroke-width="1" stroke-opacity="0"></use></g></g><g><use xlink:href="#a4l7fP97q" opacity="1" fill="#145381" fill-opacity="1"></use><g><use xlink:href="#a4l7fP97q" opacity="1" fill-opacity="0" stroke="#000000" stroke-width="1" stroke-opacity="0"></use></g></g><g><use xlink:href="#g2svi4jIGV" opacity="1" fill="#145381" fill-opacity="1"></use><g><use xlink:href="#g2svi4jIGV" opacity="1" fill-opacity="0" stroke="#000000" stroke-width="1" stroke-opacity="0"></use></g></g><g><use xlink:href="#agpmQ66Ib" opacity="1" fill="#145381" fill-opacity="1"></use><g><use xlink:href="#agpmQ66Ib" opacity="1" fill-opacity="0" stroke="#000000" stroke-width="1" stroke-opacity="0"></use></g></g><g><use xlink:href="#bDEkie5NK" opacity="1" fill="#145381" fill-opacity="1"></use><g><use xlink:href="#bDEkie5NK" opacity="1" fill-opacity="0" stroke="#000000" stroke-width="1" stroke-opacity="0"></use></g></g><g><use xlink:href="#b2vgu33W0s" opacity="1" fill="#145381" fill-opacity="1"></use><g><use xlink:href="#b2vgu33W0s" opacity="1" fill-opacity="0" stroke="#000000" stroke-width="1" stroke-opacity="0"></use></g></g></g></g></svg>