<?xml version="1.0" encoding="UTF-8" standalone="no"?>
<!DOCTYPE svg PUBLIC "-//W3C//DTD SVG 1.1//EN" "http://www.w3.org/Graphics/SVG/1.1/DTD/svg11.dtd">
<svg version="1.1" xmlns="http://www.w3.org/2000/svg" xmlns:xlink="http://www.w3.org/1999/xlink" preserveAspectRatio="xMidYMid meet" viewBox="0 0 640 640" width="640" height="640"><defs><path d="M342.79 44.79L353.52 45.83L364.13 47.27L374.61 49.09L384.95 51.31L395.16 53.9L405.21 56.86L415.1 60.19L424.82 63.86L434.37 67.89L443.74 72.25L452.92 76.94L461.9 81.96L470.67 87.29L479.23 92.93L487.57 98.88L495.69 105.11L503.56 111.63L511.19 118.42L518.57 125.48L525.69 132.81L532.55 140.39L539.12 148.21L545.42 156.28L551.42 164.57L557.13 173.09L562.53 181.82L567.61 190.75L572.38 199.89L576.82 209.22L580.91 218.74L584.67 228.42L588.07 238.28L591.11 248.3L593.79 258.47L596.09 268.79L598 279.25L599.53 289.83L600.65 300.54L609.89 291.29L610.45 290.76L611.03 290.25L611.62 289.76L612.22 289.31L612.84 288.88L613.47 288.48L614.12 288.11L614.77 287.77L615.44 287.45L616.11 287.16L616.8 286.9L617.49 286.67L618.19 286.46L618.89 286.28L619.6 286.13L620.31 286L621.03 285.91L621.75 285.84L622.47 285.8L623.19 285.78L623.91 285.8L624.63 285.84L625.35 285.91L626.07 286L626.78 286.13L627.49 286.28L628.2 286.46L628.89 286.67L629.59 286.9L630.27 287.16L630.94 287.45L631.61 287.77L632.26 288.11L632.91 288.48L633.54 288.88L634.16 289.31L634.76 289.76L635.36 290.25L635.93 290.76L636.49 291.29L637.03 291.85L637.54 292.43L638.02 293.02L638.47 293.63L638.9 294.24L639.3 294.88L639.67 295.52L640.02 296.18L640.33 296.84L640.62 297.52L640.88 298.2L641.12 298.89L641.32 299.59L641.5 300.29L641.66 301L641.78 301.72L641.88 302.43L641.94 303.15L641.99 303.88L642 304.6L641.99 305.32L641.94 306.04L641.88 306.76L641.78 307.48L641.66 308.19L641.5 308.9L641.32 309.6L641.12 310.3L640.88 310.99L640.62 311.68L640.33 312.35L640.02 313.02L639.67 313.67L639.3 314.32L638.9 314.95L638.47 315.57L638.02 316.18L637.54 316.77L637.03 317.34L636.49 317.9L596.2 358.21L595.64 358.74L595.06 359.25L594.47 359.74L593.87 360.19L593.25 360.62L592.62 361.02L591.97 361.39L591.32 361.73L590.65 362.05L589.98 362.34L589.3 362.6L588.61 362.83L587.91 363.04L587.2 363.22L586.49 363.37L585.78 363.5L585.06 363.59L584.34 363.66L583.62 363.7L582.9 363.72L582.18 363.7L581.46 363.66L580.74 363.59L580.02 363.5L579.31 363.37L578.6 363.22L577.89 363.04L577.2 362.84L576.5 362.6L575.82 362.34L575.15 362.05L574.48 361.73L573.82 361.39L573.18 361.02L572.55 360.62L571.93 360.19L571.32 359.74L570.73 359.25L570.16 358.74L569.6 358.21L529.31 317.9L528.77 317.34L528.26 316.77L527.78 316.18L527.32 315.57L526.9 314.95L526.5 314.32L526.13 313.67L525.78 313.02L525.46 312.35L525.18 311.68L524.91 310.99L524.68 310.3L524.47 309.6L524.29 308.9L524.14 308.19L524.02 307.48L523.92 306.76L523.85 306.04L523.81 305.32L523.8 304.6L523.81 303.88L523.85 303.15L523.92 302.43L524.02 301.72L524.14 301L524.29 300.29L524.47 299.59L524.68 298.89L524.91 298.2L525.18 297.52L525.46 296.84L525.78 296.18L526.13 295.52L526.5 294.88L526.9 294.24L527.32 293.63L527.78 293.02L528.26 292.43L528.77 291.85L529.31 291.29L529.86 290.76L530.44 290.25L531.03 289.76L531.64 289.31L532.26 288.88L532.89 288.48L533.53 288.11L534.19 287.77L534.85 287.45L535.53 287.16L536.21 286.9L536.9 286.67L537.6 286.46L538.31 286.28L539.01 286.13L539.73 286L540.45 285.91L541.16 285.84L541.89 285.8L542.61 285.78L543.33 285.8L544.05 285.84L544.77 285.91L545.49 286L546.2 286.13L546.91 286.28L547.61 286.46L548.31 286.67L549 286.9L549.69 287.16L550.36 287.45L551.03 287.77L551.68 288.11L552.32 288.48L552.96 288.88L553.58 289.31L554.18 289.76L554.77 290.25L555.35 290.76L555.91 291.29L562.61 298L561.44 288.94L559.94 279.98L558.12 271.13L555.98 262.41L553.52 253.81L550.76 245.34L547.71 237.01L544.36 228.82L540.72 220.79L536.8 212.91L532.61 205.2L528.16 197.66L523.44 190.29L518.47 183.11L513.25 176.11L507.8 169.32L502.1 162.72L496.18 156.34L490.03 150.17L483.67 144.22L477.1 138.49L470.33 133.01L463.36 127.76L456.2 122.76L448.86 118.01L441.34 113.53L433.65 109.31L425.79 105.36L417.78 101.69L409.61 98.31L401.3 95.22L392.85 92.43L384.26 89.94L375.55 87.76L366.72 85.9L357.78 84.36L348.73 83.16L339.58 82.29L330.33 81.76L321 81.59L316.14 81.63L311.3 81.78L306.47 82.01L301.66 82.34L296.87 82.76L292.1 83.28L287.35 83.89L282.62 84.59L277.92 85.38L273.24 86.26L268.58 87.23L263.95 88.29L259.35 89.44L254.77 90.69L250.23 92.02L245.71 93.43L241.23 94.94L236.77 96.53L232.35 98.22L227.97 99.98L223.62 101.84L219.31 103.78L215.03 105.8L210.8 107.91L206.6 110.1L202.45 112.38L198.33 114.74L194.26 117.19L190.24 119.72L186.26 122.32L182.32 125.02L178.43 127.79L174.59 130.64L170.8 133.58L167.06 136.59L163.37 139.68L159.73 142.86L156.15 146.11L152.62 149.44L149.15 152.85L148.59 153.38L148.01 153.89L147.42 154.37L146.81 154.83L146.2 155.26L145.56 155.65L144.92 156.03L144.26 156.37L143.6 156.69L142.92 156.98L142.24 157.24L141.55 157.47L140.85 157.68L140.15 157.86L139.44 158.01L138.72 158.13L138.01 158.23L137.29 158.3L136.57 158.34L135.85 158.36L135.12 158.34L134.4 158.3L133.68 158.23L132.97 158.14L132.25 158.01L131.54 157.86L130.84 157.68L130.14 157.47L129.45 157.24L128.77 156.98L128.09 156.69L127.43 156.37L126.77 156.03L126.13 155.66L125.5 155.26L124.88 154.83L124.27 154.37L123.68 153.89L123.1 153.38L122.54 152.85L122.01 152.29L121.5 151.71L121.02 151.12L120.56 150.51L120.14 149.89L119.74 149.26L119.36 148.62L119.02 147.96L118.7 147.3L118.41 146.62L118.15 145.94L117.92 145.25L117.71 144.55L117.53 143.84L117.38 143.13L117.26 142.42L117.16 141.7L117.09 140.98L117.05 140.26L117.04 139.54L117.05 138.82L117.09 138.1L117.16 137.38L117.26 136.66L117.38 135.95L117.53 135.24L117.71 134.53L117.92 133.84L118.15 133.14L118.41 132.46L118.7 131.79L119.02 131.12L119.36 130.46L119.74 129.82L120.14 129.19L120.56 128.57L121.02 127.96L121.5 127.37L122.01 126.8L122.54 126.24L126.56 122.3L130.63 118.46L134.77 114.7L138.97 111.04L143.23 107.47L147.55 103.99L151.93 100.6L156.36 97.3L160.85 94.1L165.4 91L169.99 87.98L174.64 85.07L179.34 82.24L184.09 79.52L188.89 76.89L193.74 74.35L198.63 71.92L203.56 69.58L208.54 67.34L213.57 65.2L218.63 63.16L223.73 61.22L228.87 59.38L234.05 57.64L239.27 56L244.52 54.46L249.8 53.03L255.11 51.7L260.46 50.47L265.84 49.35L271.25 48.33L276.68 47.42L282.14 46.61L287.63 45.91L293.14 45.32L298.67 44.83L304.22 44.45L309.8 44.18L315.39 44.01L321 43.96L331.95 44.17L342.79 44.79Z" id="baSZEcdDY"></path><path d="M60.54 285.84L61.26 285.91L61.98 286.01L62.69 286.13L63.4 286.28L64.1 286.46L64.8 286.67L65.49 286.9L66.18 287.16L66.85 287.45L67.52 287.77L68.17 288.11L68.82 288.48L69.45 288.88L70.07 289.31L70.67 289.76L71.26 290.25L71.84 290.76L72.4 291.29L112.69 331.6L113.23 332.16L113.74 332.74L114.22 333.33L114.67 333.93L115.1 334.55L115.5 335.18L115.87 335.83L116.22 336.48L116.53 337.15L116.82 337.82L117.08 338.51L117.32 339.2L117.53 339.9L117.7 340.6L117.86 341.31L117.98 342.02L118.08 342.74L118.15 343.46L118.19 344.18L118.2 344.9L118.19 345.63L118.15 346.35L118.08 347.07L117.98 347.78L117.86 348.5L117.7 349.21L117.53 349.91L117.32 350.61L117.08 351.3L116.82 351.98L116.53 352.66L116.22 353.32L115.87 353.98L115.5 354.62L115.1 355.26L114.67 355.88L114.22 356.48L113.74 357.07L113.23 357.65L112.69 358.21L112.13 358.74L111.56 359.25L110.96 359.74L110.36 360.19L109.74 360.62L109.11 361.02L108.46 361.39L107.81 361.73L107.14 362.05L106.47 362.34L105.79 362.6L105.09 362.84L104.4 363.04L103.69 363.22L102.98 363.37L102.27 363.5L101.55 363.59L100.83 363.66L100.11 363.7L99.39 363.72L98.67 363.7L97.95 363.66L97.23 363.59L96.51 363.5L95.8 363.37L95.09 363.22L94.39 363.04L93.69 362.84L93 362.6L92.31 362.34L91.64 362.05L90.97 361.73L90.32 361.39L89.68 361.02L89.04 360.62L88.42 360.19L87.82 359.74L87.23 359.25L86.65 358.74L86.09 358.21L79.39 351.5L80.56 360.56L82.06 369.52L83.88 378.37L86.02 387.09L88.48 395.69L91.24 404.16L94.29 412.49L97.64 420.68L101.28 428.71L105.2 436.59L109.39 444.3L113.84 451.85L118.56 459.21L123.53 466.39L128.75 473.39L134.2 480.19L139.9 486.78L145.82 493.17L151.97 499.34L158.33 505.29L164.9 511.01L171.67 516.5L178.64 521.74L185.8 526.74L193.14 531.49L200.66 535.98L208.35 540.2L216.21 544.14L224.22 547.81L232.39 551.19L240.7 554.29L249.15 557.08L257.74 559.57L266.45 561.74L275.28 563.6L284.22 565.14L293.27 566.35L302.42 567.22L311.67 567.74L321 567.92L325.86 567.87L330.7 567.73L335.53 567.49L340.34 567.16L345.13 566.74L349.9 566.23L354.65 565.62L359.38 564.92L364.08 564.13L368.76 563.25L373.42 562.27L378.05 561.21L382.65 560.06L387.23 558.82L391.77 557.49L396.29 556.07L400.77 554.56L405.23 552.97L409.65 551.29L414.03 549.52L418.38 547.67L422.69 545.73L426.97 543.7L431.2 541.59L435.4 539.4L439.55 537.12L443.67 534.76L447.74 532.31L451.76 529.79L455.74 527.18L459.68 524.49L463.57 521.71L467.41 518.86L471.2 515.93L474.94 512.91L478.63 509.82L482.27 506.65L485.85 503.4L489.38 500.07L492.85 496.66L493.41 496.12L493.99 495.61L494.58 495.13L495.19 494.67L495.81 494.25L496.44 493.85L497.08 493.48L497.74 493.13L498.4 492.81L499.08 492.52L499.76 492.26L500.45 492.03L501.15 491.82L501.85 491.64L502.56 491.49L503.28 491.37L503.99 491.27L504.71 491.2L505.43 491.16L506.16 491.15L506.88 491.16L507.6 491.2L508.32 491.27L509.04 491.37L509.75 491.49L510.46 491.64L511.16 491.82L511.86 492.03L512.55 492.26L513.23 492.52L513.91 492.81L514.57 493.13L515.23 493.48L515.87 493.85L516.51 494.25L517.12 494.67L517.73 495.13L518.32 495.61L518.9 496.12L519.46 496.66L519.99 497.22L520.5 497.79L520.98 498.38L521.44 498.99L521.86 499.61L522.26 500.24L522.64 500.89L522.98 501.54L523.3 502.21L523.59 502.88L523.85 503.56L524.08 504.26L524.29 504.95L524.47 505.66L524.62 506.37L524.74 507.08L524.84 507.8L524.91 508.52L524.95 509.24L524.96 509.96L524.95 510.68L524.91 511.4L524.84 512.12L524.74 512.84L524.62 513.55L524.47 514.26L524.29 514.97L524.08 515.67L523.85 516.36L523.59 517.04L523.3 517.72L522.98 518.38L522.64 519.04L522.26 519.68L521.86 520.31L521.44 520.93L520.98 521.54L520.5 522.13L519.99 522.7L519.46 523.26L515.44 527.2L511.37 531.04L507.23 534.8L503.03 538.46L498.77 542.03L494.45 545.51L490.07 548.9L485.64 552.2L481.15 555.4L476.6 558.51L472.01 561.52L467.36 564.44L462.66 567.26L457.91 569.99L453.11 572.62L448.26 575.15L443.37 577.59L438.44 579.92L433.46 582.16L428.43 584.3L423.37 586.34L418.27 588.29L413.13 590.13L407.95 591.87L402.73 593.5L397.48 595.04L392.2 596.47L386.89 597.8L381.54 599.03L376.16 600.15L370.75 601.17L365.32 602.08L359.86 602.89L354.37 603.59L348.86 604.19L343.33 604.68L337.78 605.06L332.2 605.33L326.61 605.49L321 605.55L310.05 605.34L299.21 604.71L288.48 603.67L277.87 602.24L267.39 600.41L257.05 598.19L246.85 595.6L236.79 592.64L226.9 589.32L217.18 585.64L207.63 581.62L198.26 577.25L189.08 572.56L180.1 567.54L171.33 562.21L162.77 556.57L154.43 550.63L146.32 544.39L138.44 537.88L130.81 531.08L123.43 524.02L116.31 516.69L109.46 509.11L102.88 501.29L96.58 493.23L90.58 484.93L84.87 476.42L79.47 467.69L74.39 458.75L69.62 449.61L65.18 440.28L61.09 430.77L57.33 421.08L53.93 411.22L50.89 401.2L48.21 391.03L45.91 380.71L44 370.26L42.48 359.67L41.35 348.97L32.11 358.21L31.55 358.74L30.97 359.25L30.38 359.74L29.78 360.19L29.16 360.62L28.53 361.02L27.88 361.39L27.23 361.73L26.56 362.05L25.89 362.34L25.2 362.6L24.51 362.84L23.81 363.04L23.11 363.22L22.4 363.37L21.69 363.5L20.97 363.59L20.25 363.66L19.53 363.7L18.81 363.72L18.09 363.7L17.37 363.66L16.65 363.59L15.93 363.5L15.22 363.37L14.51 363.22L13.8 363.04L13.11 362.84L12.41 362.6L11.73 362.34L11.06 362.05L10.39 361.73L9.74 361.39L9.09 361.02L8.46 360.62L7.84 360.19L7.24 359.74L6.64 359.25L6.07 358.74L5.51 358.21L4.97 357.65L4.46 357.07L3.98 356.48L3.53 355.88L3.1 355.26L2.7 354.62L2.33 353.98L1.98 353.32L1.67 352.66L1.38 351.98L1.12 351.3L0.88 350.61L0.68 349.91L0.5 349.21L0.34 348.5L0.22 347.78L0.12 347.07L0.06 346.35L0.01 345.63L0 344.9L0.01 344.18L0.06 343.46L0.12 342.74L0.22 342.02L0.34 341.31L0.5 340.6L0.68 339.9L0.88 339.2L1.12 338.51L1.38 337.82L1.67 337.15L1.98 336.48L2.33 335.83L2.7 335.18L3.1 334.55L3.53 333.93L3.98 333.33L4.46 332.74L4.97 332.16L5.51 331.6L45.8 291.29L46.36 290.76L46.94 290.25L47.53 289.77L48.13 289.31L48.75 288.88L49.38 288.49L50.03 288.11L50.68 287.77L51.35 287.45L52.02 287.16L52.7 286.9L53.39 286.67L54.09 286.46L54.8 286.28L55.51 286.13L56.22 286.01L56.94 285.91L57.66 285.84L58.38 285.8L59.1 285.79L59.82 285.8L60.54 285.84Z" id="d1KXbc9cYY"></path><path d="M342.79 44.79L353.52 45.83L364.13 47.27L374.61 49.09L384.95 51.31L395.16 53.9L405.21 56.86L415.1 60.19L424.82 63.86L434.37 67.89L443.74 72.25L452.92 76.94L461.9 81.96L470.67 87.29L479.23 92.93L487.57 98.88L495.69 105.11L503.56 111.63L511.19 118.42L518.57 125.48L525.69 132.81L532.55 140.39L539.12 148.21L545.42 156.28L551.42 164.57L557.13 173.09L562.53 181.82L567.61 190.75L572.38 199.89L576.82 209.22L580.91 218.74L584.67 228.42L588.07 238.28L591.11 248.3L593.79 258.47L596.09 268.79L598 279.25L599.53 289.83L600.65 300.54L609.89 291.29L610.45 290.76L611.03 290.25L611.62 289.76L612.22 289.31L612.84 288.88L613.47 288.48L614.12 288.11L614.77 287.77L615.44 287.45L616.11 287.16L616.8 286.9L617.49 286.67L618.19 286.46L618.89 286.28L619.6 286.13L620.31 286L621.03 285.91L621.75 285.84L622.47 285.8L623.19 285.78L623.91 285.8L624.63 285.84L625.35 285.91L626.07 286L626.78 286.13L627.49 286.28L628.2 286.46L628.89 286.67L629.59 286.9L630.27 287.16L630.94 287.45L631.61 287.77L632.26 288.11L632.91 288.48L633.54 288.88L634.16 289.31L634.76 289.76L635.36 290.25L635.93 290.76L636.49 291.29L637.03 291.85L637.54 292.43L638.02 293.02L638.47 293.63L638.9 294.24L639.3 294.88L639.67 295.52L640.02 296.18L640.33 296.84L640.62 297.52L640.88 298.2L641.12 298.89L641.32 299.59L641.5 300.29L641.66 301L641.78 301.72L641.88 302.43L641.94 303.15L641.99 303.88L642 304.6L641.99 305.32L641.94 306.04L641.88 306.76L641.78 307.48L641.66 308.19L641.5 308.9L641.32 309.6L641.12 310.3L640.88 310.99L640.62 311.68L640.33 312.35L640.02 313.02L639.67 313.67L639.3 314.32L638.9 314.95L638.47 315.57L638.02 316.18L637.54 316.77L637.03 317.34L636.49 317.9L596.2 358.21L595.64 358.74L595.06 359.25L594.47 359.74L593.87 360.19L593.25 360.62L592.62 361.02L591.97 361.39L591.32 361.73L590.65 362.05L589.98 362.34L589.3 362.6L588.61 362.83L587.91 363.04L587.2 363.22L586.49 363.37L585.78 363.5L585.06 363.59L584.34 363.66L583.62 363.7L582.9 363.72L582.18 363.7L581.46 363.66L580.74 363.59L580.02 363.5L579.31 363.37L578.6 363.22L577.89 363.04L577.2 362.84L576.5 362.6L575.82 362.34L575.15 362.05L574.48 361.73L573.82 361.39L573.18 361.02L572.55 360.62L571.93 360.19L571.32 359.74L570.73 359.25L570.16 358.74L569.6 358.21L529.31 317.9L528.77 317.34L528.26 316.77L527.78 316.18L527.32 315.57L526.9 314.95L526.5 314.32L526.13 313.67L525.78 313.02L525.46 312.35L525.18 311.68L524.91 310.99L524.68 310.3L524.47 309.6L524.29 308.9L524.14 308.19L524.02 307.48L523.92 306.76L523.85 306.04L523.81 305.32L523.8 304.6L523.81 303.88L523.85 303.15L523.92 302.43L524.02 301.72L524.14 301L524.29 300.29L524.47 299.59L524.68 298.89L524.91 298.2L525.18 297.52L525.46 296.84L525.78 296.18L526.13 295.52L526.5 294.88L526.9 294.24L527.32 293.63L527.78 293.02L528.26 292.43L528.77 291.85L529.31 291.29L529.86 290.76L530.44 290.25L531.03 289.76L531.64 289.31L532.26 288.88L532.89 288.48L533.53 288.11L534.19 287.77L534.85 287.45L535.53 287.16L536.21 286.9L536.9 286.67L537.6 286.46L538.31 286.28L539.01 286.13L539.73 286L540.45 285.91L541.16 285.84L541.89 285.8L542.61 285.78L543.33 285.8L544.05 285.84L544.77 285.91L545.49 286L546.2 286.13L546.91 286.28L547.61 286.46L548.31 286.67L549 286.9L549.69 287.16L550.36 287.45L551.03 287.77L551.68 288.11L552.32 288.48L552.96 288.88L553.58 289.31L554.18 289.76L554.77 290.25L555.35 290.76L555.91 291.29L562.61 298L561.44 288.94L559.94 279.98L558.12 271.13L555.98 262.41L553.52 253.81L550.76 245.34L547.71 237.01L544.36 228.82L540.72 220.79L536.8 212.91L532.61 205.2L528.16 197.66L523.44 190.29L518.47 183.11L513.25 176.11L507.8 169.32L502.1 162.72L496.18 156.34L490.03 150.17L483.67 144.22L477.1 138.49L470.33 133.01L463.36 127.76L456.2 122.76L448.86 118.01L441.34 113.53L433.65 109.31L425.79 105.36L417.78 101.69L409.61 98.31L401.3 95.22L392.85 92.43L384.26 89.94L375.55 87.76L366.72 85.9L357.78 84.36L348.73 83.16L339.58 82.29L330.33 81.76L321 81.59L321 43.96L331.95 44.17L342.79 44.79Z" id="dJjYg9Stq"></path><path d="M507.6 491.2L508.32 491.27L509.04 491.37L509.75 491.49L510.46 491.64L511.16 491.82L511.86 492.03L512.55 492.26L513.23 492.52L513.91 492.81L514.57 493.13L515.23 493.48L515.87 493.85L516.51 494.25L517.12 494.67L517.73 495.13L518.32 495.61L518.9 496.12L519.46 496.66L519.99 497.22L520.5 497.79L520.98 498.38L521.44 498.99L521.86 499.61L522.26 500.24L522.64 500.89L522.98 501.54L523.3 502.21L523.59 502.88L523.85 503.56L524.08 504.26L524.29 504.95L524.47 505.66L524.62 506.37L524.74 507.08L524.84 507.8L524.91 508.52L524.95 509.24L524.96 509.96L524.95 510.68L524.91 511.4L524.84 512.12L524.74 512.84L524.62 513.55L524.47 514.26L524.29 514.97L524.08 515.67L523.85 516.36L523.59 517.04L523.3 517.72L522.98 518.38L522.64 519.04L522.26 519.68L521.86 520.31L521.44 520.93L520.98 521.54L520.5 522.13L519.99 522.7L519.46 523.26L515.44 527.2L511.37 531.04L507.23 534.8L503.03 538.46L498.77 542.03L494.45 545.51L490.07 548.9L485.64 552.2L481.15 555.4L476.6 558.51L472.01 561.52L467.36 564.44L462.66 567.26L457.91 569.99L453.11 572.62L448.26 575.15L443.37 577.59L438.44 579.92L433.46 582.16L428.43 584.3L423.37 586.34L418.27 588.29L413.13 590.13L407.95 591.87L402.73 593.5L397.48 595.04L392.2 596.47L386.89 597.8L381.54 599.03L376.16 600.15L370.75 601.17L365.32 602.08L359.86 602.89L354.37 603.59L348.86 604.19L343.33 604.68L337.78 605.06L332.2 605.33L326.61 605.49L321 605.55L321 567.92L325.86 567.87L330.7 567.73L335.53 567.49L340.34 567.16L345.13 566.74L349.9 566.23L354.65 565.62L359.38 564.92L364.08 564.13L368.76 563.25L373.42 562.27L378.05 561.21L382.65 560.06L387.23 558.82L391.77 557.49L396.29 556.07L400.77 554.56L405.23 552.97L409.65 551.29L414.03 549.52L418.38 547.67L422.69 545.73L426.97 543.7L431.2 541.59L435.4 539.4L439.55 537.12L443.67 534.76L447.74 532.31L451.76 529.79L455.74 527.18L459.68 524.49L463.57 521.71L467.41 518.86L471.2 515.93L474.94 512.91L478.63 509.82L482.27 506.65L485.85 503.4L489.38 500.07L492.85 496.66L493.41 496.12L493.99 495.61L494.58 495.13L495.19 494.67L495.81 494.25L496.44 493.85L497.08 493.48L497.74 493.13L498.4 492.81L499.08 492.52L499.76 492.26L500.45 492.03L501.15 491.82L501.85 491.64L502.56 491.49L503.28 491.37L503.99 491.27L504.71 491.2L505.43 491.16L506.16 491.15L506.88 491.16L507.6 491.2Z" id="n75iXU4Zc"></path><path d="M412.31 262.32L366.54 306.08L377.26 367.25L321 338.23L264.74 367.25L275.46 306.08L229.69 262.32L292.87 253.39L321 197.81L349.13 253.39L412.31 262.32Z" id="gaZlnDHkS"></path><path d="M212.82 292.49L212.93 295.5L213.08 298.49L213.27 301.46L213.51 304.41L213.79 307.34L214.12 310.25L214.48 313.15L214.88 316.02L215.33 318.87L215.81 321.69L216.34 324.5L216.9 327.28L217.51 330.03L218.15 332.77L218.83 335.48L219.55 338.16L220.31 340.81L221.1 343.44L221.93 346.05L222.8 348.62L223.7 351.17L224.64 353.68L225.61 356.17L226.62 358.63L227.66 361.06L228.74 363.45L229.85 365.82L231 368.15L232.18 370.45L233.39 372.72L234.63 374.95L235.91 377.14L237.21 379.31L238.55 381.43L239.92 383.52L241.32 385.58L242.75 387.59L244.21 389.57L245.68 391.51L247.17 393.41L248.7 395.27L250.25 397.09L251.84 398.87L253.44 400.61L255.08 402.31L256.73 403.97L258.42 405.58L260.13 407.15L261.86 408.67L263.62 410.15L265.4 411.59L267.2 412.98L269.03 414.33L270.88 415.63L272.75 416.88L274.65 418.08L276.56 419.24L278.5 420.35L280.46 421.41L282.43 422.42L284.43 423.38L286.45 424.29L288.48 425.15L290.53 425.95L292.6 426.71L294.69 427.41L296.8 428.06L298.92 428.66L301.06 429.2L303.22 429.68L305.39 430.11L307.58 430.49L309.78 430.81L312 431.07L314.23 431.27L316.47 431.42L318.73 431.51L321 431.54L325.53 431.42L330 431.07L334.43 430.49L338.79 429.68L343.09 428.65L347.32 427.4L351.48 425.94L355.58 424.27L359.59 422.4L363.53 420.33L367.39 418.06L371.16 415.6L374.85 412.95L378.44 410.12L381.94 407.11L385.34 403.93L388.64 400.58L391.84 397.06L394.93 393.38L397.91 389.54L400.77 385.55L403.52 381.42L406.14 377.13L408.65 372.71L411.02 368.15L413.27 363.46L415.38 358.65L417.36 353.71L419.2 348.65L420.89 343.48L422.44 338.2L423.84 332.81L425.09 327.33L426.18 321.74L427.11 316.06L427.88 310.3L428.48 304.45L428.92 298.52L429.18 292.51L429.27 286.43L451.6 286.43L451.53 291.98L451.33 297.48L451 302.93L450.53 308.33L449.94 313.66L449.23 318.94L448.39 324.15L447.42 329.3L446.34 334.38L445.14 339.39L443.83 344.32L442.4 349.19L440.86 353.97L439.21 358.67L437.45 363.3L435.58 367.83L433.61 372.28L431.54 376.64L429.37 380.91L427.1 385.08L424.73 389.15L422.27 393.13L419.71 397L417.07 400.76L414.34 404.42L411.52 407.97L408.62 411.41L405.63 414.73L402.56 417.93L399.42 421.02L396.2 423.98L392.9 426.81L389.53 429.52L386.09 432.1L382.59 434.55L379.01 436.86L375.37 439.04L371.67 441.07L367.91 442.96L364.08 444.71L365.12 445.41L366.14 446.12L367.15 446.84L368.15 447.58L369.13 448.34L370.11 449.11L371.07 449.9L372.02 450.7L372.96 451.52L373.89 452.35L374.8 453.2L375.7 454.06L376.58 454.93L377.46 455.82L378.31 456.73L379.16 457.64L379.99 458.58L380.8 459.52L381.61 460.48L382.39 461.45L383.16 462.44L383.92 463.44L384.66 464.45L385.38 465.48L386.09 466.52L386.78 467.57L387.46 468.63L388.12 469.71L388.76 470.8L389.39 471.9L390 473.01L390.59 474.14L391.16 475.27L391.72 476.42L392.26 477.58L392.78 478.76L393.28 479.94L393.76 481.13L394.22 482.34L394.67 483.56L373.69 491.15L373.07 489.49L372.41 487.85L371.71 486.25L370.95 484.68L370.15 483.14L369.3 481.62L368.41 480.14L367.48 478.7L366.5 477.28L365.49 475.9L364.43 474.56L363.33 473.25L362.2 471.98L361.03 470.74L359.82 469.54L358.58 468.38L357.31 467.26L356 466.18L354.66 465.14L353.29 464.14L351.89 463.18L350.46 462.26L349 461.39L347.52 460.56L346.01 459.78L344.48 459.04L342.92 458.35L341.34 457.7L339.74 457.1L338.12 456.55L336.48 456.05L334.82 455.6L333.14 455.2L331.45 454.85L329.74 454.55L328.01 454.31L326.28 454.12L324.53 453.98L322.77 453.89L321 453.87L319.23 453.89L317.47 453.98L315.72 454.12L313.99 454.31L312.26 454.55L310.55 454.85L308.86 455.2L307.18 455.6L305.52 456.05L303.88 456.55L302.26 457.1L300.66 457.7L299.08 458.35L297.52 459.04L295.99 459.78L294.48 460.56L293 461.39L291.54 462.26L290.11 463.18L288.71 464.14L287.34 465.14L286 466.18L284.69 467.26L283.42 468.38L282.18 469.54L280.97 470.74L279.8 471.98L278.67 473.25L277.57 474.56L276.51 475.9L275.5 477.28L274.52 478.7L273.59 480.14L272.7 481.62L271.85 483.14L271.05 484.68L270.29 486.25L269.59 487.85L268.93 489.49L268.31 491.15L247.33 483.56L247.78 482.34L248.24 481.13L248.72 479.94L249.22 478.76L249.74 477.58L250.28 476.42L250.84 475.27L251.41 474.14L252 473.01L252.61 471.9L253.24 470.8L253.88 469.71L254.54 468.63L255.22 467.57L255.91 466.52L256.62 465.48L257.34 464.45L258.08 463.44L258.84 462.44L259.61 461.45L260.39 460.48L261.2 459.52L262.01 458.58L262.84 457.64L263.69 456.73L264.54 455.82L265.42 454.93L266.3 454.06L267.2 453.2L268.11 452.35L269.04 451.52L269.98 450.7L270.93 449.9L271.89 449.11L272.87 448.34L273.85 447.58L274.85 446.84L275.86 446.12L276.88 445.41L277.92 444.71L274.09 442.96L270.33 441.07L266.63 439.04L262.99 436.86L259.41 434.55L255.91 432.1L252.47 429.52L249.1 426.81L245.8 423.98L242.58 421.02L239.44 417.93L236.37 414.73L233.38 411.41L230.48 407.97L227.66 404.42L224.93 400.76L222.29 397L219.73 393.13L217.27 389.15L214.9 385.08L212.63 380.91L210.46 376.64L208.39 372.28L206.42 367.83L204.55 363.3L202.79 358.67L201.14 353.97L199.6 349.19L198.17 344.32L196.86 339.39L195.66 334.38L194.58 329.3L193.61 324.15L192.77 318.94L192.06 313.66L191.47 308.33L191 302.93L190.67 297.48L190.47 291.98L190.4 286.43L212.73 286.43L212.75 289.47L212.82 292.49Z" id="bmAtAJPp3"></path><path d="M451.33 297.49L451 302.94L450.53 308.33L449.94 313.66L449.23 318.94L448.39 324.15L447.42 329.3L446.34 334.38L445.14 339.39L443.83 344.33L442.4 349.19L440.86 353.97L439.21 358.68L437.45 363.3L435.58 367.83L433.61 372.28L431.54 376.64L429.37 380.91L427.1 385.08L424.73 389.15L422.27 393.13L419.71 397L417.07 400.76L414.34 404.42L411.52 407.97L408.62 411.41L405.63 414.73L402.56 417.93L399.42 421.02L396.2 423.98L392.9 426.81L389.53 429.52L386.09 432.1L382.59 434.55L379.01 436.86L375.37 439.04L371.67 441.07L367.91 442.96L364.08 444.71L365.12 445.41L366.14 446.12L367.15 446.84L368.15 447.58L369.13 448.34L370.11 449.11L371.07 449.9L372.02 450.7L372.96 451.52L373.89 452.35L374.8 453.2L375.7 454.06L376.58 454.93L377.46 455.82L378.31 456.73L379.16 457.64L379.99 458.58L380.8 459.52L381.61 460.48L382.39 461.45L383.16 462.44L383.92 463.44L384.66 464.45L385.38 465.48L386.09 466.52L386.78 467.57L387.46 468.63L388.12 469.71L388.76 470.8L389.39 471.9L390 473.01L390.59 474.14L391.16 475.27L391.72 476.42L392.26 477.58L392.78 478.76L393.28 479.94L393.76 481.13L394.22 482.34L394.67 483.56L373.69 491.15L373.07 489.49L372.41 487.85L371.71 486.25L370.95 484.68L370.15 483.14L369.3 481.62L368.41 480.14L367.48 478.7L366.5 477.28L365.49 475.9L364.43 474.56L363.33 473.25L362.2 471.98L361.03 470.74L359.82 469.54L358.58 468.38L357.31 467.26L356 466.18L354.66 465.14L353.29 464.14L351.89 463.18L350.46 462.26L349 461.39L347.52 460.56L346.01 459.78L344.48 459.04L342.92 458.35L341.34 457.7L339.74 457.1L338.12 456.55L336.48 456.05L334.82 455.6L333.14 455.2L331.45 454.85L329.74 454.55L328.01 454.31L326.28 454.12L324.53 453.98L322.77 453.89L321 453.87L321 431.54L325.53 431.42L330 431.07L334.43 430.49L338.79 429.68L343.09 428.65L347.32 427.4L351.48 425.94L355.58 424.27L359.59 422.4L363.53 420.33L367.39 418.06L371.16 415.6L374.85 412.95L378.44 410.12L381.94 407.11L385.34 403.93L388.64 400.58L391.84 397.06L394.93 393.38L397.91 389.54L400.77 385.55L403.52 381.42L406.14 377.13L408.65 372.71L411.02 368.16L413.27 363.47L415.38 358.65L417.36 353.71L419.2 348.65L420.89 343.48L422.44 338.2L423.84 332.82L425.09 327.33L426.18 321.74L427.11 316.06L427.88 310.3L428.48 304.45L428.92 298.52L429.18 292.51L429.27 286.44L451.6 286.44L451.53 291.99L451.33 297.49Z" id="dlxMnmO6"></path><path d="M427.5 387.7L428.28 387.71L429.09 387.74L429.96 387.78L430.86 387.83L431.81 387.91L432.81 388.01L433.84 388.13L434.92 388.29L436.05 388.47L437.21 388.69L438.42 388.95L439.67 389.25L440.96 389.59L442.29 389.99L443.66 390.43L445.07 390.92L446.53 391.47L448.02 392.07L449.55 392.74L451.12 393.48L452.73 394.28L454.38 395.15L456.06 396.1L457.79 397.12L459.55 398.22L461.35 399.41L463.18 400.68L465.06 402.04L466.97 403.49L468.91 405.04L470.89 406.68L472.91 408.43L474.96 410.27L477.04 412.23L479.16 414.29L481.32 416.47L483.51 418.76L485.73 421.17L484.21 422.83L482.7 424.45L481.2 426.02L479.7 427.55L478.21 429.04L476.72 430.49L475.24 431.89L473.76 433.26L472.28 434.58L470.81 435.85L469.35 437.09L467.88 438.28L466.42 439.43L464.96 440.54L463.49 441.61L462.04 442.64L460.58 443.62L459.12 444.56L457.66 445.46L456.2 446.32L454.73 447.13L453.27 447.9L451.8 448.63L450.33 449.32L448.86 449.97L447.39 450.58L445.91 451.14L444.42 451.66L442.93 452.14L441.44 452.58L439.93 452.97L438.43 453.33L436.91 453.64L435.39 453.91L433.86 454.14L432.33 454.33L430.78 454.47L429.23 454.58L427.67 454.64L426.09 454.66L425.41 454.66L424.68 454.65L423.91 454.64L423.09 454.61L422.23 454.57L421.32 454.52L420.37 454.44L419.38 454.34L418.34 454.22L417.26 454.06L416.14 453.88L414.97 453.66L413.77 453.4L412.52 453.1L411.23 452.76L409.9 452.37L408.52 451.93L407.11 451.43L405.66 450.89L404.17 450.28L402.64 449.61L401.07 448.88L399.46 448.07L397.81 447.2L396.12 446.26L394.4 445.23L392.64 444.13L390.84 442.94L389 441.67L387.13 440.31L385.22 438.86L383.28 437.31L381.3 435.67L379.28 433.93L377.23 432.08L375.15 430.12L373.03 428.06L370.87 425.88L368.69 423.59L366.47 421.17L367.98 419.52L369.49 417.9L370.99 416.33L372.49 414.79L373.98 413.31L375.47 411.86L376.95 410.45L378.43 409.09L379.9 407.77L381.37 406.49L382.84 405.26L384.3 404.07L385.77 402.91L387.23 401.8L388.69 400.74L390.15 399.71L391.61 398.73L393.06 397.79L394.52 396.89L395.98 396.03L397.45 395.22L398.91 394.45L400.38 393.71L401.85 393.03L403.32 392.38L404.79 391.77L406.27 391.21L407.76 390.69L409.25 390.21L410.74 389.77L412.25 389.37L413.75 389.02L415.27 388.71L416.79 388.44L418.32 388.21L419.85 388.02L421.4 387.88L422.95 387.77L424.52 387.71L426.09 387.69L426.77 387.69L427.5 387.7Z" id="ecq8T8qQI"></path><path d="M486.03 298.43L488.5 298.58L491.06 298.79L493.7 299.06L496.44 299.39L499.26 299.8L502.18 300.27L505.19 300.82L508.3 301.44L511.5 302.14L511.21 304.37L510.9 306.56L510.58 308.71L510.23 310.82L509.87 312.9L509.49 314.94L509.08 316.94L508.66 318.9L508.22 320.83L507.76 322.72L507.27 324.58L506.77 326.39L506.24 328.18L505.69 329.92L505.12 331.64L504.52 333.31L503.9 334.95L503.26 336.56L502.59 338.14L501.9 339.68L501.18 341.18L500.44 342.66L499.67 344.1L498.87 345.5L498.05 346.88L497.2 348.22L496.32 349.53L495.41 350.81L494.48 352.06L493.51 353.28L492.52 354.46L491.49 355.62L490.44 356.74L489.36 357.84L488.24 358.9L487.09 359.94L485.92 360.94L484.7 361.92L483.46 362.87L482.18 363.79L480.63 364.84L479.06 365.83L477.48 366.75L475.89 367.62L474.28 368.44L472.66 369.19L471.02 369.89L469.38 370.54L467.72 371.13L466.06 371.67L464.38 372.16L462.7 372.6L461.01 373L459.3 373.35L457.6 373.65L455.88 373.91L454.16 374.13L452.43 374.31L450.7 374.45L448.96 374.55L447.22 374.61L445.48 374.64L443.73 374.64L441.98 374.6L440.23 374.52L438.48 374.42L436.72 374.29L434.97 374.13L433.22 373.95L431.47 373.74L429.72 373.51L427.97 373.25L426.22 372.97L424.48 372.68L422.74 372.36L421.01 372.03L419.28 371.68L417.56 371.32L415.84 370.94L414.13 370.55L414.43 368.32L414.74 366.14L415.06 363.99L415.41 361.87L415.78 359.8L416.17 357.76L416.58 355.76L417.01 353.8L417.46 351.87L417.93 349.98L418.42 348.13L418.94 346.31L419.47 344.53L420.03 342.78L420.62 341.07L421.22 339.39L421.86 337.75L422.51 336.14L423.19 334.57L423.9 333.03L424.63 331.52L425.38 330.05L426.16 328.61L426.97 327.2L427.81 325.83L428.67 324.49L429.56 323.18L430.47 321.9L431.42 320.65L432.39 319.43L433.39 318.25L434.42 317.09L435.48 315.97L436.57 314.87L437.69 313.81L438.84 312.77L440.03 311.77L441.24 310.79L442.48 309.84L443.76 308.92L444.32 308.53L444.92 308.12L445.56 307.69L446.24 307.24L446.96 306.78L447.73 306.31L448.55 305.82L449.41 305.34L450.33 304.84L451.29 304.35L452.31 303.86L453.38 303.37L454.5 302.89L455.69 302.42L456.93 301.96L458.23 301.52L459.6 301.09L461.03 300.69L462.52 300.3L464.08 299.94L465.7 299.61L467.4 299.31L469.17 299.05L471 298.82L472.92 298.62L474.91 298.47L476.97 298.37L479.11 298.3L481.34 298.29L483.64 298.33L486.03 298.43Z" id="i65koz7Zmj"></path><path d="M486.19 196.05L486.99 198.08L487.74 200.09L488.46 202.07L489.14 204.03L489.79 205.96L490.4 207.88L490.97 209.77L491.51 211.64L492.01 213.5L492.47 215.33L492.89 217.14L493.28 218.93L493.63 220.71L493.94 222.46L494.22 224.2L494.45 225.92L494.65 227.63L494.81 229.31L494.93 230.98L495.01 232.63L495.05 234.27L495.06 235.89L495.02 237.5L494.95 239.1L494.83 240.68L494.68 242.24L494.48 243.79L494.25 245.33L493.97 246.86L493.66 248.38L493.3 249.88L492.9 251.37L492.46 252.86L491.98 254.33L491.46 255.79L490.9 257.24L490.3 258.69L489.65 260.12L489.36 260.74L489.05 261.39L488.71 262.09L488.34 262.82L487.94 263.58L487.51 264.38L487.04 265.21L486.53 266.07L485.97 266.96L485.38 267.87L484.73 268.81L484.04 269.77L483.3 270.76L482.5 271.76L481.64 272.78L480.73 273.83L479.75 274.88L478.7 275.95L477.59 277.04L476.41 278.13L475.16 279.24L473.83 280.35L472.42 281.47L470.93 282.6L469.36 283.73L467.71 284.86L465.97 285.99L464.13 287.12L462.2 288.24L460.18 289.37L458.06 290.48L455.83 291.59L453.51 292.69L451.07 293.78L448.53 294.86L445.88 295.92L443.11 296.97L440.23 298.01L437.23 299.02L434.1 300.02L433.24 297.94L432.42 295.89L431.63 293.86L430.87 291.85L430.15 289.87L429.47 287.91L428.82 285.97L428.21 284.06L427.64 282.17L427.1 280.29L426.6 278.44L426.14 276.61L425.72 274.79L425.33 273L424.98 271.23L424.67 269.47L424.39 267.73L424.16 266.01L423.96 264.31L423.8 262.62L423.68 260.95L423.6 259.3L423.56 257.66L423.55 256.04L423.59 254.43L423.66 252.84L423.78 251.26L423.93 249.69L424.13 248.14L424.36 246.6L424.64 245.07L424.95 243.56L425.31 242.05L425.71 240.56L426.15 239.08L426.63 237.6L427.15 236.14L427.71 234.69L428.31 233.25L428.96 231.81L429.25 231.19L429.56 230.54L429.9 229.84L430.27 229.11L430.67 228.35L431.1 227.55L431.57 226.72L432.08 225.86L432.64 224.97L433.23 224.06L433.87 223.12L434.57 222.16L435.31 221.17L436.11 220.17L436.97 219.15L437.88 218.1L438.86 217.05L439.9 215.98L441.02 214.89L442.2 213.8L443.45 212.69L444.78 211.58L446.19 210.46L447.67 209.33L449.24 208.21L450.9 207.08L452.64 205.95L454.48 204.82L456.41 203.69L458.43 202.57L460.55 201.45L462.77 200.34L465.1 199.24L467.53 198.15L470.08 197.08L472.73 196.01L475.5 194.97L478.38 193.93L481.38 192.92L484.51 191.93L485.37 194L486.19 196.05Z" id="a1XhubXWpj"></path><path d="M217.29 387.7L218.06 387.71L218.88 387.74L219.74 387.78L220.65 387.83L221.6 387.91L222.59 388.01L223.63 388.13L224.71 388.29L225.83 388.47L226.99 388.69L228.2 388.95L229.45 389.25L230.74 389.59L232.07 389.99L233.44 390.43L234.86 390.92L236.31 391.47L237.8 392.07L239.33 392.74L240.9 393.48L242.51 394.28L244.16 395.15L245.85 396.1L247.57 397.12L249.33 398.22L251.13 399.41L252.97 400.68L254.84 402.04L256.75 403.49L258.69 405.04L260.68 406.68L262.69 408.43L264.74 410.27L266.83 412.23L268.95 414.29L271.1 416.47L273.29 418.76L275.51 421.17L273.99 422.83L272.48 424.45L270.98 426.02L269.48 427.55L267.99 429.04L266.5 430.49L265.02 431.89L263.54 433.26L262.07 434.58L260.6 435.85L259.13 437.09L257.66 438.28L256.2 439.43L254.74 440.54L253.28 441.61L251.82 442.64L250.36 443.62L248.9 444.56L247.44 445.46L245.98 446.32L244.52 447.13L243.05 447.9L241.59 448.63L240.12 449.32L238.64 449.97L237.17 450.58L235.69 451.14L234.2 451.66L232.71 452.14L231.22 452.58L229.72 452.97L228.21 453.33L226.7 453.64L225.18 453.91L223.65 454.14L222.11 454.33L220.57 454.47L219.01 454.58L217.45 454.64L215.88 454.66L215.19 454.66L214.47 454.65L213.69 454.64L212.87 454.61L212.01 454.57L211.11 454.52L210.15 454.44L209.16 454.34L208.12 454.22L207.04 454.06L205.92 453.88L204.76 453.66L203.55 453.4L202.3 453.1L201.01 452.76L199.68 452.37L198.31 451.93L196.89 451.43L195.44 450.89L193.95 450.28L192.42 449.61L190.85 448.88L189.24 448.07L187.59 447.2L185.91 446.26L184.18 445.23L182.42 444.13L180.62 442.94L178.79 441.67L176.91 440.31L175.01 438.86L173.06 437.31L171.08 435.67L169.07 433.93L167.01 432.08L164.93 430.12L162.81 428.06L160.66 425.88L158.47 423.59L156.25 421.17L157.76 419.52L159.27 417.9L160.78 416.33L162.27 414.79L163.77 413.31L165.25 411.86L166.73 410.45L168.21 409.09L169.68 407.77L171.15 406.49L172.62 405.26L174.09 404.07L175.55 402.91L177.01 401.8L178.47 400.74L179.93 399.71L181.39 398.73L182.85 397.79L184.31 396.89L185.77 396.03L187.23 395.22L188.69 394.45L190.16 393.71L191.63 393.03L193.1 392.38L194.58 391.77L196.06 391.21L197.54 390.69L199.03 390.21L200.53 389.77L202.03 389.37L203.54 389.02L205.05 388.71L206.57 388.44L208.1 388.21L209.64 388.02L211.18 387.88L212.74 387.77L214.3 387.71L215.88 387.69L216.56 387.69L217.29 387.7Z" id="cDa36BVU5"></path><path d="M165.53 298.26L167.23 298.36L168.9 298.5L170.56 298.67L172.19 298.88L173.79 299.12L175.38 299.4L176.94 299.71L178.49 300.06L180.01 300.45L181.52 300.87L183 301.33L184.47 301.83L185.92 302.37L187.35 302.94L188.76 303.55L190.15 304.2L191.53 304.89L192.89 305.62L194.24 306.39L195.57 307.19L196.88 308.04L198.18 308.92L198.74 309.31L199.34 309.74L199.96 310.19L200.62 310.68L201.3 311.21L202.01 311.78L202.74 312.38L203.5 313.03L204.28 313.73L205.08 314.48L205.89 315.27L206.72 316.12L207.56 317.03L208.41 317.99L209.27 319.01L210.13 320.09L211.01 321.24L211.88 322.45L212.75 323.73L213.63 325.09L214.5 326.51L215.36 328.02L216.22 329.6L217.07 331.26L217.91 333L218.74 334.82L219.55 336.74L220.34 338.74L221.11 340.83L221.87 343.02L222.6 345.31L223.31 347.69L223.98 350.17L224.63 352.76L225.25 355.45L225.84 358.24L226.39 361.15L226.91 364.17L227.39 367.3L227.82 370.55L227.58 370.59L227.21 370.67L226.72 370.8L226.1 370.95L225.37 371.14L224.53 371.36L223.57 371.6L222.52 371.85L221.36 372.12L220.11 372.4L218.77 372.68L217.34 372.96L215.82 373.24L214.23 373.52L212.56 373.78L210.83 374.02L209.03 374.24L207.16 374.44L205.24 374.61L203.26 374.75L201.24 374.84L199.17 374.9L197.06 374.91L194.91 374.87L192.73 374.77L190.53 374.61L188.3 374.39L186.05 374.1L183.78 373.74L181.5 373.31L179.22 372.79L176.93 372.19L174.64 371.49L172.36 370.71L170.09 369.83L167.83 368.84L165.59 367.75L163.38 366.54L161.19 365.22L159.03 363.79L158.47 363.39L157.88 362.97L157.27 362.51L156.63 362.02L155.96 361.5L155.27 360.93L154.56 360.32L153.82 359.67L153.07 358.97L152.31 358.23L151.53 357.43L150.73 356.58L149.93 355.68L149.12 354.72L148.29 353.7L147.47 352.61L146.64 351.46L145.8 350.25L144.97 348.97L144.14 347.61L143.31 346.19L142.48 344.68L141.67 343.1L140.86 341.44L140.06 339.7L139.27 337.87L138.5 335.96L137.74 333.96L137 331.86L136.28 329.67L135.58 327.39L134.9 325.01L134.25 322.52L133.62 319.94L133.02 317.25L132.45 314.45L131.91 311.54L131.4 308.52L130.93 305.39L130.5 302.14L132.69 301.65L134.85 301.2L136.98 300.77L139.08 300.38L141.15 300.02L143.19 299.69L145.2 299.39L147.18 299.12L149.13 298.88L151.06 298.68L152.96 298.51L154.83 298.37L156.68 298.27L158.5 298.2L160.29 298.16L162.06 298.16L163.81 298.19L165.53 298.26Z" id="a29A2iMnDl"></path><path d="M161.69 193.29L163.76 193.98L165.78 194.69L167.76 195.41L169.7 196.15L171.59 196.9L173.45 197.66L175.27 198.44L177.05 199.23L178.79 200.04L180.49 200.86L182.15 201.7L183.78 202.56L185.36 203.43L186.91 204.32L188.41 205.23L189.88 206.15L191.32 207.09L192.71 208.06L194.07 209.04L195.39 210.04L196.67 211.06L197.91 212.1L199.12 213.16L200.3 214.24L201.43 215.34L202.53 216.47L203.6 217.62L204.62 218.79L205.62 219.98L206.58 221.19L207.5 222.43L208.39 223.7L209.24 224.99L210.06 226.3L210.85 227.64L211.6 229L212.31 230.39L213 231.81L213.28 232.43L213.59 233.09L213.9 233.8L214.22 234.55L214.55 235.35L214.88 236.19L215.22 237.09L215.55 238.03L215.87 239.02L216.19 240.07L216.49 241.16L216.78 242.31L217.06 243.52L217.32 244.78L217.55 246.09L217.76 247.46L217.94 248.89L218.09 250.38L218.21 251.93L218.29 253.54L218.33 255.21L218.33 256.94L218.28 258.74L218.19 260.6L218.04 262.53L217.84 264.53L217.59 266.59L217.27 268.72L216.9 270.92L216.46 273.19L215.95 275.54L215.37 277.95L214.72 280.44L213.99 283.01L213.18 285.65L212.29 288.36L211.31 291.16L210.25 294.03L209.1 296.98L207.85 300.02L205.71 299.34L203.61 298.65L201.55 297.96L199.52 297.25L197.55 296.52L195.61 295.79L193.71 295.04L191.85 294.27L190.03 293.49L188.25 292.7L186.51 291.89L184.81 291.07L183.15 290.23L181.52 289.37L179.94 288.5L178.39 287.61L176.89 286.7L175.42 285.78L173.99 284.84L172.59 283.87L171.24 282.89L169.92 281.89L168.63 280.87L167.39 279.83L166.18 278.77L165.01 277.69L163.87 276.59L162.77 275.46L161.71 274.31L160.68 273.15L159.68 271.95L158.73 270.74L157.8 269.5L156.91 268.23L156.06 266.94L155.24 265.63L154.46 264.29L153.71 262.93L152.99 261.54L152.3 260.12L152.02 259.5L151.72 258.84L151.4 258.13L151.08 257.38L150.75 256.58L150.42 255.74L150.09 254.84L149.76 253.9L149.43 252.91L149.11 251.86L148.81 250.77L148.52 249.62L148.24 248.42L147.98 247.16L147.75 245.84L147.54 244.47L147.36 243.04L147.21 241.56L147.09 240.01L147.01 238.4L146.97 236.73L146.97 234.99L147.02 233.2L147.12 231.33L147.26 229.41L147.46 227.41L147.71 225.35L148.03 223.22L148.4 221.02L148.84 218.75L149.35 216.4L149.93 213.99L150.59 211.5L151.31 208.93L152.12 206.29L153.01 203.58L153.99 200.78L155.05 197.91L156.2 194.96L157.45 191.93L159.59 192.6L161.69 193.29Z" id="b3EaAtYpJ"></path><path d="M412.31 262.32L366.54 306.08L377.26 367.25L321 338.23L321 197.81L349.13 253.39L412.31 262.32Z" id="as0V9JJ9v"></path></defs><g><g><g><use xlink:href="#baSZEcdDY" opacity="1" fill="#e7176e" fill-opacity="1"></use><g><use xlink:href="#baSZEcdDY" opacity="1" fill-opacity="0" stroke="#000000" stroke-width="1" stroke-opacity="0"></use></g></g><g><use xlink:href="#d1KXbc9cYY" opacity="1" fill="#e7176e" fill-opacity="1"></use><g><use xlink:href="#d1KXbc9cYY" opacity="1" fill-opacity="0" stroke="#000000" stroke-width="1" stroke-opacity="0"></use></g></g><g><use xlink:href="#dJjYg9Stq" opacity="1" fill="#b91258" fill-opacity="1"></use><g><use xlink:href="#dJjYg9Stq" opacity="1" fill-opacity="0" stroke="#000000" stroke-width="1" stroke-opacity="0"></use></g></g><g><use xlink:href="#n75iXU4Zc" opacity="1" fill="#b91258" fill-opacity="1"></use><g><use xlink:href="#n75iXU4Zc" opacity="1" fill-opacity="0" stroke="#000000" stroke-width="1" stroke-opacity="0"></use></g></g><g><use xlink:href="#gaZlnDHkS" opacity="1" fill="#ff9f00" fill-opacity="1"></use><g><use xlink:href="#gaZlnDHkS" opacity="1" fill-opacity="0" stroke="#000000" stroke-width="1" stroke-opacity="0"></use></g></g><g><use xlink:href="#bmAtAJPp3" opacity="1" fill="#ff9f00" fill-opacity="1"></use><g><use xlink:href="#bmAtAJPp3" opacity="1" fill-opacity="0" stroke="#000000" stroke-width="1" stroke-opacity="0"></use></g></g><g><use xlink:href="#dlxMnmO6" opacity="1" fill="#ff9f00" fill-opacity="1"></use><g><use xlink:href="#dlxMnmO6" opacity="1" fill-opacity="0" stroke="#000000" stroke-width="1" stroke-opacity="0"></use></g></g><g><use xlink:href="#ecq8T8qQI" opacity="1" fill="#ff9f00" fill-opacity="1"></use><g><use xlink:href="#ecq8T8qQI" opacity="1" fill-opacity="0" stroke="#000000" stroke-width="1" stroke-opacity="0"></use></g></g><g><use xlink:href="#i65koz7Zmj" opacity="1" fill="#ff9f00" fill-opacity="1"></use><g><use xlink:href="#i65koz7Zmj" opacity="1" fill-opacity="0" stroke="#000000" stroke-width="1" stroke-opacity="0"></use></g></g><g><use xlink:href="#a1XhubXWpj" opacity="1" fill="#ff9f00" fill-opacity="1"></use><g><use xlink:href="#a1XhubXWpj" opacity="1" fill-opacity="0" stroke="#000000" stroke-width="1" stroke-opacity="0"></use></g></g><g><use xlink:href="#cDa36BVU5" opacity="1" fill="#ff9f00" fill-opacity="1"></use><g><use xlink:href="#cDa36BVU5" opacity="1" fill-opacity="0" stroke="#000000" stroke-width="1" stroke-opacity="0"></use></g></g><g><use xlink:href="#a29A2iMnDl" opacity="1" fill="#ff9f00" fill-opacity="1"></use><g><use xlink:href="#a29A2iMnDl" opacity="1" fill-opacity="0" stroke="#000000" stroke-width="1" stroke-opacity="0"></use></g></g><g><use xlink:href="#b3EaAtYpJ" opacity="1" fill="#ff9f00" fill-opacity="1"></use><g><use xlink:href="#b3EaAtYpJ" opacity="1" fill-opacity="0" stroke="#000000" stroke-width="1" stroke-opacity="0"></use></g></g><g><use xlink:href="#as0V9JJ9v" opacity="1" fill="#ff9f00" fill-opacity="1"></use><g><use xlink:href="#as0V9JJ9v" opacity="1" fill-opacity="0" stroke="#000000" stroke-width="1" stroke-opacity="0"></use></g></g></g></g></svg>