<?xml version="1.0" encoding="UTF-8" standalone="no"?>
<!DOCTYPE svg PUBLIC "-//W3C//DTD SVG 1.1//EN" "http://www.w3.org/Graphics/SVG/1.1/DTD/svg11.dtd">
<svg version="1.1" xmlns="http://www.w3.org/2000/svg" xmlns:xlink="http://www.w3.org/1999/xlink" preserveAspectRatio="xMidYMid meet" viewBox="0 0 640 640" width="640" height="640"><defs><path d="M149.25 495.72L149.25 549.03L0 549.03L21.32 485.06L42.64 474.4L106.61 474.4L117.27 485.06L149.25 495.72Z" id="b7bzFTInj"></path><path d="M298.5 549.03L255.86 495.72L266.52 485.06L415.77 378.46L447.75 442.42L298.5 549.03Z" id="g3XJebGyI"></path><path d="M21.32 485.06L170.57 378.46L266.52 378.46L117.27 485.06L21.32 485.06Z" id="j9RWf2OQd"></path><path d="M405.11 495.72L330.48 495.72L319.82 485.06L469.07 378.46L565.02 378.46L415.77 485.06L405.11 495.72Z" id="f8iQRHnRMc"></path><path d="M149.25 549.03L117.27 485.06L266.52 378.46L298.5 442.42L149.25 549.03Z" id="b5Kpcvj2q"></path><path d="M298.5 549.03L149.25 549.03L170.57 485.06L191.89 474.4L255.86 474.4L266.52 485.06L298.5 549.03Z" id="fLq2BhsF"></path><path d="M447.75 549.03L405.11 495.72L415.77 485.06L565.02 378.46L597 442.42L447.75 549.03Z" id="d6KIRkz87"></path><path d="M170.57 485.06L319.82 378.46L415.77 378.46L266.52 485.06L170.57 485.06Z" id="dnPhqcR8"></path><path d="M298.5 549.03L319.82 485.06L415.77 485.06L447.75 549.03L298.5 549.03Z" id="a4AzYqEWs6"></path><path d="M383.79 453.08L341.14 399.78L351.8 389.12L501.05 282.51L533.04 346.47L383.79 453.08Z" id="djpZiUwXB"></path><path d="M191.89 399.78L127.93 399.78L106.61 389.12L255.86 282.51L351.8 282.51L202.55 389.12L191.89 399.78Z" id="d27WAALBXq"></path><path d="M234.54 453.08L191.89 399.78L202.55 389.12L351.8 282.51L383.79 346.47L234.54 453.08Z" id="dki72ikng"></path><path d="M341.14 399.78L266.52 399.78L255.86 389.12L405.11 282.51L501.05 282.51L351.8 389.12L341.14 399.78Z" id="b32nxoRNve"></path><path d="M245.2 314.49L191.89 314.49L170.57 303.83L319.82 197.22L415.77 197.22L266.52 303.83L245.2 314.49Z" id="b4Jp8SXIw"></path><path d="M298.5 367.79L255.86 314.49L266.52 303.83L415.77 197.22L447.75 261.19L298.5 367.79Z" id="bmZJOe7lS"></path><path d="M234.54 453.08L255.86 389.12L351.8 389.12L383.79 453.08L234.54 453.08Z" id="beWSkY6aR"></path><path d="M85.29 453.08L106.61 389.12L202.55 389.12L234.54 453.08L85.29 453.08Z" id="f2fqNOiyPE"></path><path d="M149.25 367.79L170.57 303.83L266.52 303.83L298.5 367.79L149.25 367.79Z" id="aR92L1XiY"></path></defs><g><g><g><use xlink:href="#b7bzFTInj" opacity="1" fill="#ffcb74" fill-opacity="1"></use><g><use xlink:href="#b7bzFTInj" opacity="1" fill-opacity="0" stroke="#000000" stroke-width="1" stroke-opacity="0"></use></g></g><g><use xlink:href="#g3XJebGyI" opacity="1" fill="#da922a" fill-opacity="1"></use><g><use xlink:href="#g3XJebGyI" opacity="1" fill-opacity="0" stroke="#000000" stroke-width="1" stroke-opacity="0"></use></g></g><g><use xlink:href="#j9RWf2OQd" opacity="1" fill="#fbb540" fill-opacity="1"></use><g><use xlink:href="#j9RWf2OQd" opacity="1" fill-opacity="0" stroke="#000000" stroke-width="1" stroke-opacity="0"></use></g></g><g><use xlink:href="#f8iQRHnRMc" opacity="1" fill="#fbb540" fill-opacity="1"></use><g><use xlink:href="#f8iQRHnRMc" opacity="1" fill-opacity="0" stroke="#000000" stroke-width="1" stroke-opacity="0"></use></g></g><g><use xlink:href="#b5Kpcvj2q" opacity="1" fill="#da922a" fill-opacity="1"></use><g><use xlink:href="#b5Kpcvj2q" opacity="1" fill-opacity="0" stroke="#000000" stroke-width="1" stroke-opacity="0"></use></g></g><g><use xlink:href="#fLq2BhsF" opacity="1" fill="#ffcb74" fill-opacity="1"></use><g><use xlink:href="#fLq2BhsF" opacity="1" fill-opacity="0" stroke="#000000" stroke-width="1" stroke-opacity="0"></use></g></g><g><use xlink:href="#d6KIRkz87" opacity="1" fill="#ea9d2d" fill-opacity="1"></use><g><use xlink:href="#d6KIRkz87" opacity="1" fill-opacity="0" stroke="#000000" stroke-width="1" stroke-opacity="0"></use></g></g><g><use xlink:href="#dnPhqcR8" opacity="1" fill="#fbb540" fill-opacity="1"></use><g><use xlink:href="#dnPhqcR8" opacity="1" fill-opacity="0" stroke="#000000" stroke-width="1" stroke-opacity="0"></use></g></g><g><use xlink:href="#a4AzYqEWs6" opacity="1" fill="#ffcb74" fill-opacity="1"></use><g><use xlink:href="#a4AzYqEWs6" opacity="1" fill-opacity="0" stroke="#000000" stroke-width="1" stroke-opacity="0"></use></g></g><g><use xlink:href="#djpZiUwXB" opacity="1" fill="#ea9d2d" fill-opacity="1"></use><g><use xlink:href="#djpZiUwXB" opacity="1" fill-opacity="0" stroke="#000000" stroke-width="1" stroke-opacity="0"></use></g></g><g><use xlink:href="#d27WAALBXq" opacity="1" fill="#fbb540" fill-opacity="1"></use><g><use xlink:href="#d27WAALBXq" opacity="1" fill-opacity="0" stroke="#000000" stroke-width="1" stroke-opacity="0"></use></g></g><g><use xlink:href="#dki72ikng" opacity="1" fill="#da922a" fill-opacity="1"></use><g><use xlink:href="#dki72ikng" opacity="1" fill-opacity="0" stroke="#000000" stroke-width="1" stroke-opacity="0"></use></g></g><g><use xlink:href="#b32nxoRNve" opacity="1" fill="#fbb540" fill-opacity="1"></use><g><use xlink:href="#b32nxoRNve" opacity="1" fill-opacity="0" stroke="#000000" stroke-width="1" stroke-opacity="0"></use></g></g><g><use xlink:href="#b4Jp8SXIw" opacity="1" fill="#fbb540" fill-opacity="1"></use><g><use xlink:href="#b4Jp8SXIw" opacity="1" fill-opacity="0" stroke="#000000" stroke-width="1" stroke-opacity="0"></use></g></g><g><use xlink:href="#bmZJOe7lS" opacity="1" fill="#ea9d2d" fill-opacity="1"></use><g><use xlink:href="#bmZJOe7lS" opacity="1" fill-opacity="0" stroke="#000000" stroke-width="1" stroke-opacity="0"></use></g></g><g><use xlink:href="#beWSkY6aR" opacity="1" fill="#ffcb74" fill-opacity="1"></use><g><use xlink:href="#beWSkY6aR" opacity="1" fill-opacity="0" stroke="#000000" stroke-width="1" stroke-opacity="0"></use></g></g><g><use xlink:href="#f2fqNOiyPE" opacity="1" fill="#ffcb74" fill-opacity="1"></use><g><use xlink:href="#f2fqNOiyPE" opacity="1" fill-opacity="0" stroke="#000000" stroke-width="1" stroke-opacity="0"></use></g></g><g><use xlink:href="#aR92L1XiY" opacity="1" fill="#ffcb74" fill-opacity="1"></use><g><use xlink:href="#aR92L1XiY" opacity="1" fill-opacity="0" stroke="#000000" stroke-width="1" stroke-opacity="0"></use></g></g></g></g></svg>