<svg height="511pt" viewBox="-75 1 511 511.99999" width="511pt" xmlns="http://www.w3.org/2000/svg"><g fill="#fcbd8a"><path d="m131.8125 107.617188c29.667969 0 53.808594-24.140626 53.808594-53.808594 0-29.671875-24.140625-53.808594-53.808594-53.808594-29.671875 0-53.808594 24.136719-53.808594 53.808594 0 29.667968 24.136719 53.808594 53.808594 53.808594zm0 0"/><path d="m84.347656 472.007812h30v39.992188h-30zm0 0"/><path d="m154.207031 472.007812h30v39.992188h-30zm0 0"/></g><path d="m154.207031 472.007812h30v39.992188h-30zm0 0" fill="#f4a971"/><path d="m49.621094 487.007812h164.792968l-29.34375-260.007812h-106.5zm0 0" fill="#00465f"/><path d="m188.207031 183.65625 25.105469 38.515625 59.515625 2.691406 1.355469-29.96875-44.140625-1.996093-43.640625-66.945313h-111.335938l-43.046875 111.371094-31.519531 23.414062 17.890625 24.082031 38.480469-28.585937 20.816406-53.847656 1.890625 15.589843-1.007813 9.023438h106.5l-1.019531-9.035156zm0 0" fill="#fcbd8a"/><path d="m185.621094 53.808594c0-29.671875-24.140625-53.808594-53.808594-53.808594v107.617188c29.667969 0 53.808594-24.140626 53.808594-53.808594zm0 0" fill="#f4a971"/><path d="m230.042969 192.898438-43.640625-66.945313h-54.589844v101.046875h53.257812l-1.019531-9.035156 4.15625-34.308594 25.105469 38.515625 59.515625 2.691406 1.355469-29.96875zm0 0" fill="#f4a971"/><path d="m185.070312 227h-53.257812v260.007812h82.601562zm0 0" fill="#002c3c"/><path d="m316.234375 22.480469-4.953125 96.105469-26.5 7.984374-25.023438-11.097656 3.628907-95.949218-44.753907 1.5625 1.046876 29.980468 12.511718-.433594-3.179687 84.019532 38.460937 17.058594-27.554687 357.640624 29.910156 2.304688 27.550781-357.550781 42.773438-12.886719 4.308594-83.546875 12.199218 2.058594 4.996094-29.582031zm-32.4375 120.101562-.03125-.003906.019531-.042969zm0 0" fill="#00607f"/><path d="m49.621094 487.007812h104.585937l30.863281-260.007812h-106.5zm0 0" fill="#00607f"/><path d="m185.070312 227h-53.257812v260.007812h22.394531zm0 0" fill="#00465f"/></svg>