<svg height="511pt" viewBox="-136 0 511 511.99992" width="511pt" xmlns="http://www.w3.org/2000/svg"><path d="m176.710938 274.839844h44.933593v-97.011719h-29.972656v67.039063h-143.761719v-67.039063h-29.96875v97.011719h45.4375l11.484375 56.425781-4.546875 38.90625-49.957031 47.511719v94.316406h29.972656v-81.460938l40.289063-38.320312h58.960937l40.160157 38.191406v81.464844h29.96875v-94.320312l-49.957032-47.511719-4.449218-38.773438zm0 0" fill="#fcbd8a"/><path d="m221.644531 274.839844v-97.011719h-29.972656v67.039063h-71.878906v147.351562h29.789062l40.160157 38.191406v81.464844h29.96875v-94.320312l-49.957032-47.511719-4.449218-38.773438 11.40625-56.429687zm0 0" fill="#f4a971"/><path d="m118.808594.0078125c-65.9375.7031255-119.007813 54.9179685-118.300782 120.8554685.515626 48.515625 29.933594 91.570313 74.941407 109.695313l91.691406-1.003906c44.574219-19.089844 73.042969-62.757813 72.523437-111.246094-.707031-65.9375-54.921874-119.003906-120.855468-118.3007815zm0 0" fill="#dce1eb"/><path d="m119.792969.0078125v230.0664065l47.347656-.519531c44.574219-19.089844 73.042969-62.757813 72.523437-111.246094-.699218-65.609375-54.382812-118.46875-119.871093-118.3007815zm0 0" fill="#b6c4cf"/><path d="m83.875 344.914062h72.320312v120.203126h-72.320312zm0 0" fill="#b6c4cf"/><path d="m119.792969 344.914062h36.402343v120.203126h-36.402343zm0 0" fill="#96a3ab"/><path d="m69.914062 340.503906h100.289063v29.972656h-100.289063zm0 0" fill="#dce1eb"/><path d="m119.792969 340.503906h50.410156v29.972656h-50.410156zm0 0" fill="#b6c4cf"/><path d="m120.035156 161.722656c-31.183594 0-56.558594 25.371094-56.558594 56.558594 0 31.183594 25.375 56.558594 56.558594 56.558594 31.1875 0 56.558594-25.375 56.558594-56.558594 0-31.1875-25.371094-56.558594-56.558594-56.558594zm0 0" fill="#f4a971"/><path d="m176.59375 218.28125c0-31.1875-25.371094-56.558594-56.558594-56.558594-.082031 0-.164062.003906-.246094.003906v113.105469c.082032 0 .164063.007813.246094.007813 31.1875 0 56.558594-25.371094 56.558594-56.558594zm0 0" fill="#e49d5e"/></svg>