<?xml version="1.0" encoding="UTF-8" standalone="no"?>
<!DOCTYPE svg PUBLIC "-//W3C//DTD SVG 1.1//EN" "http://www.w3.org/Graphics/SVG/1.1/DTD/svg11.dtd">
<svg version="1.1" xmlns="http://www.w3.org/2000/svg" xmlns:xlink="http://www.w3.org/1999/xlink" preserveAspectRatio="xMidYMid meet" viewBox="0 0 640 640" width="640" height="640"><defs><path d="M258.03 46.39L393.14 46.39L393.14 181.51L258.03 181.51L258.03 46.39Z" id="g22bB36ytK"></path><path d="M258.03 46.39L393.14 46.39L393.14 181.51L258.03 181.51L258.03 46.39Z" id="b1oFL0zA05"></path><path d="M238.72 220.11L412.44 220.11L412.44 393.83L238.72 393.83L238.72 220.11Z" id="d4BxSjwyt"></path><path d="M238.72 220.11L412.44 220.11L412.44 393.83L238.72 393.83L238.72 220.11Z" id="b1poMLAuM"></path><path d="M161.51 567.55L238.72 480.69L238.72 393.83L296.63 393.83L296.63 490.34L200.12 606.16L161.51 567.55Z" id="cnmRy2EuY"></path><path d="M161.51 567.55L238.72 480.69L238.72 393.83L296.63 393.83L296.63 490.34L200.12 606.16L161.51 567.55Z" id="i4oOYWyA4u"></path><path d="M412.44 567.55L412.44 471.04L335.23 393.83L412.44 393.83L470.35 451.74L470.35 567.55L412.44 567.55Z" id="aMdyAnzCD"></path><path d="M412.44 567.55L412.44 471.04L335.23 393.83L412.44 393.83L470.35 451.74L470.35 567.55L412.44 567.55Z" id="bw7fL9IhP"></path><path d="M122.91 345.58L238.72 220.11L238.72 278.02L151.86 374.53L122.91 345.58Z" id="d2MX2TwN"></path><path d="M122.91 345.58L238.72 220.11L238.72 278.02L151.86 374.53L122.91 345.58Z" id="cRkn7Qz7f"></path><path d="M412.44 278.02L412.44 220.11L528.26 345.58L499.3 374.53L412.44 278.02Z" id="gDaJQJzSI"></path><path d="M412.44 278.02L412.44 220.11L528.26 345.58L499.3 374.53L412.44 278.02Z" id="bmDvUXRkV"></path><path d="M335.23 133.25L296.63 133.25L296.63 113.95L354.54 113.95L354.54 152.55L335.23 152.55L335.23 133.25Z" id="p1AjK55NYf"></path><path d="M335.23 133.25L296.63 133.25L296.63 113.95L354.54 113.95L354.54 152.55L335.23 152.55L335.23 133.25Z" id="bkeQ2Th4M"></path><path d="M356.9 258.86L357.67 258.97L358.43 259.11L359.18 259.28L359.91 259.47L360.64 259.7L361.35 259.95L362.05 260.23L362.74 260.54L363.41 260.87L364.06 261.23L364.7 261.61L365.33 262.01L365.94 262.44L366.53 262.89L367.1 263.36L367.65 263.86L368.19 264.37L368.7 264.9L369.19 265.46L369.66 266.03L370.11 266.62L370.54 267.23L370.95 267.85L371.33 268.49L371.68 269.15L372.02 269.82L372.32 270.51L372.6 271.2L372.85 271.92L373.08 272.64L373.28 273.38L373.45 274.13L373.59 274.89L373.7 275.66L373.78 276.44L373.82 277.22L373.84 278.02L373.84 306.97L373.83 307.37L373.81 307.76L373.77 308.15L373.71 308.54L373.64 308.92L373.56 309.29L373.46 309.66L373.35 310.02L373.22 310.38L373.08 310.73L372.93 311.07L372.76 311.41L372.58 311.74L372.39 312.06L372.19 312.37L371.98 312.67L371.75 312.97L371.52 313.25L371.27 313.53L371.01 313.8L370.75 314.05L370.47 314.3L370.18 314.54L369.89 314.76L369.58 314.97L369.27 315.18L368.95 315.37L368.62 315.55L368.29 315.71L367.94 315.86L367.59 316L367.24 316.13L366.88 316.24L366.51 316.34L366.13 316.43L365.75 316.5L365.37 316.55L364.98 316.59L364.59 316.62L364.19 316.62L354.54 316.62L354.54 326.27L354.53 326.67L354.5 327.07L354.47 327.46L354.41 327.84L354.34 328.22L354.26 328.59L354.16 328.96L354.04 329.32L353.92 329.68L353.78 330.03L353.63 330.37L353.46 330.71L353.28 331.04L353.09 331.36L352.89 331.67L352.67 331.97L352.45 332.27L352.21 332.56L351.97 332.83L351.71 333.1L351.44 333.36L351.17 333.6L350.88 333.84L350.59 334.06L350.28 334.28L349.97 334.48L349.65 334.67L349.32 334.85L348.98 335.01L348.64 335.17L348.29 335.31L347.94 335.43L347.57 335.55L347.2 335.65L346.83 335.73L346.45 335.8L346.07 335.85L345.68 335.89L345.28 335.92L344.89 335.93L325.58 335.93L325.19 335.92L324.79 335.89L324.4 335.85L324.02 335.8L323.64 335.73L323.26 335.65L322.9 335.55L322.53 335.43L322.18 335.31L321.83 335.17L321.48 335.01L321.15 334.85L320.82 334.67L320.5 334.48L320.19 334.28L319.88 334.06L319.59 333.84L319.3 333.6L319.03 333.36L318.76 333.1L318.5 332.83L318.26 332.56L318.02 332.27L317.79 331.97L317.58 331.67L317.38 331.36L317.19 331.04L317.01 330.71L316.84 330.37L316.69 330.03L316.55 329.68L316.42 329.32L316.31 328.96L316.21 328.59L316.13 328.22L316.06 327.84L316 327.46L315.96 327.07L315.94 326.67L315.93 326.27L315.93 316.62L315.14 316.61L314.35 316.56L313.57 316.48L312.8 316.37L312.04 316.23L311.29 316.06L310.56 315.86L309.83 315.64L309.12 315.39L308.42 315.11L307.73 314.8L307.06 314.47L306.41 314.11L305.76 313.73L305.14 313.33L304.53 312.9L303.94 312.45L303.37 311.98L302.82 311.48L302.28 310.97L301.77 310.44L301.28 309.88L300.8 309.31L300.35 308.72L299.93 308.11L299.52 307.49L299.14 306.85L298.78 306.19L298.45 305.52L298.15 304.83L297.87 304.13L297.61 303.42L297.39 302.7L297.19 301.96L297.02 301.21L296.88 300.45L296.77 299.68L296.69 298.9L296.65 298.12L296.63 297.32L296.65 296.53L296.69 295.74L296.77 294.96L296.88 294.19L297.02 293.43L297.19 292.68L297.39 291.95L297.61 291.22L297.87 290.51L298.15 289.81L298.45 289.12L298.78 288.45L299.14 287.79L299.52 287.15L299.93 286.53L300.35 285.92L300.8 285.33L301.28 284.76L301.77 284.21L302.28 283.67L302.82 283.16L303.37 282.67L303.94 282.19L304.53 281.74L305.14 281.32L305.76 280.91L306.41 280.53L307.06 280.17L307.73 279.84L308.42 279.54L309.12 279.26L309.83 279L310.56 278.78L311.29 278.58L312.04 278.41L312.8 278.27L313.57 278.16L314.35 278.08L315.14 278.03L315.93 278.02L315.93 268.37L315.94 267.97L315.96 267.58L316 267.19L316.06 266.8L316.13 266.42L316.21 266.05L316.31 265.68L316.42 265.32L316.55 264.96L316.69 264.61L316.84 264.27L317.01 263.93L317.19 263.6L317.38 263.28L317.58 262.97L317.79 262.67L318.02 262.37L318.26 262.09L318.5 261.81L318.76 261.54L319.03 261.29L319.3 261.04L319.59 260.8L319.88 260.58L320.19 260.36L320.5 260.16L320.82 259.97L321.15 259.79L321.48 259.63L321.83 259.47L322.18 259.33L322.53 259.21L322.9 259.1L323.26 259L323.64 258.91L324.02 258.84L324.4 258.79L324.79 258.75L325.19 258.72L325.58 258.72L354.54 258.72L355.33 258.73L356.12 258.78L356.9 258.86Z" id="b1HVbA3ko0"></path><path d="M356.9 258.86L357.67 258.97L358.43 259.11L359.18 259.28L359.91 259.47L360.64 259.7L361.35 259.95L362.05 260.23L362.74 260.54L363.41 260.87L364.06 261.23L364.7 261.61L365.33 262.01L365.94 262.44L366.53 262.89L367.1 263.36L367.65 263.86L368.19 264.37L368.7 264.9L369.19 265.46L369.66 266.03L370.11 266.62L370.54 267.23L370.95 267.85L371.33 268.49L371.68 269.15L372.02 269.82L372.32 270.51L372.6 271.2L372.85 271.92L373.08 272.64L373.28 273.38L373.45 274.13L373.59 274.89L373.7 275.66L373.78 276.44L373.82 277.22L373.84 278.02L373.84 306.97L373.83 307.37L373.81 307.76L373.77 308.15L373.71 308.54L373.64 308.92L373.56 309.29L373.46 309.66L373.35 310.02L373.22 310.38L373.08 310.73L372.93 311.07L372.76 311.41L372.58 311.74L372.39 312.06L372.19 312.37L371.98 312.67L371.75 312.97L371.52 313.25L371.27 313.53L371.01 313.8L370.75 314.05L370.47 314.3L370.18 314.54L369.89 314.76L369.58 314.97L369.27 315.18L368.95 315.37L368.62 315.55L368.29 315.71L367.94 315.86L367.59 316L367.24 316.13L366.88 316.24L366.51 316.34L366.13 316.43L365.75 316.5L365.37 316.55L364.98 316.59L364.59 316.62L364.19 316.62L354.54 316.62L354.54 326.27L354.53 326.67L354.5 327.07L354.47 327.46L354.41 327.84L354.34 328.22L354.26 328.59L354.16 328.96L354.04 329.32L353.92 329.68L353.78 330.03L353.63 330.37L353.46 330.71L353.28 331.04L353.09 331.36L352.89 331.67L352.67 331.97L352.45 332.27L352.21 332.56L351.97 332.83L351.71 333.1L351.44 333.36L351.17 333.6L350.88 333.84L350.59 334.06L350.28 334.28L349.97 334.48L349.65 334.67L349.32 334.85L348.98 335.01L348.64 335.17L348.29 335.31L347.94 335.43L347.57 335.55L347.2 335.65L346.83 335.73L346.45 335.8L346.07 335.85L345.68 335.89L345.28 335.92L344.89 335.93L325.58 335.93L325.19 335.92L324.79 335.89L324.4 335.85L324.02 335.8L323.64 335.73L323.26 335.65L322.9 335.55L322.53 335.43L322.18 335.31L321.83 335.17L321.48 335.01L321.15 334.85L320.82 334.67L320.5 334.48L320.19 334.28L319.88 334.06L319.59 333.84L319.3 333.6L319.03 333.36L318.76 333.1L318.5 332.83L318.26 332.56L318.02 332.27L317.79 331.97L317.58 331.67L317.38 331.36L317.19 331.04L317.01 330.71L316.84 330.37L316.69 330.03L316.55 329.68L316.42 329.32L316.31 328.96L316.21 328.59L316.13 328.22L316.06 327.84L316 327.46L315.96 327.07L315.94 326.67L315.93 326.27L315.93 316.62L315.14 316.61L314.35 316.56L313.57 316.48L312.8 316.37L312.04 316.23L311.29 316.06L310.56 315.86L309.83 315.64L309.12 315.39L308.42 315.11L307.73 314.8L307.06 314.47L306.41 314.11L305.76 313.73L305.14 313.33L304.53 312.9L303.94 312.45L303.37 311.98L302.82 311.48L302.28 310.97L301.77 310.44L301.28 309.88L300.8 309.31L300.35 308.72L299.93 308.11L299.52 307.49L299.14 306.85L298.78 306.19L298.45 305.52L298.15 304.83L297.87 304.13L297.61 303.42L297.39 302.7L297.19 301.96L297.02 301.21L296.88 300.45L296.77 299.68L296.69 298.9L296.65 298.12L296.63 297.32L296.65 296.53L296.69 295.74L296.77 294.96L296.88 294.19L297.02 293.43L297.19 292.68L297.39 291.95L297.61 291.22L297.87 290.51L298.15 289.81L298.45 289.12L298.78 288.45L299.14 287.79L299.52 287.15L299.93 286.53L300.35 285.92L300.8 285.33L301.28 284.76L301.77 284.21L302.28 283.67L302.82 283.16L303.37 282.67L303.94 282.19L304.53 281.74L305.14 281.32L305.76 280.91L306.41 280.53L307.06 280.17L307.73 279.84L308.42 279.54L309.12 279.26L309.83 279L310.56 278.78L311.29 278.58L312.04 278.41L312.8 278.27L313.57 278.16L314.35 278.08L315.14 278.03L315.93 278.02L315.93 268.37L315.94 267.97L315.96 267.58L316 267.19L316.06 266.8L316.13 266.42L316.21 266.05L316.31 265.68L316.42 265.32L316.55 264.96L316.69 264.61L316.84 264.27L317.01 263.93L317.19 263.6L317.38 263.28L317.58 262.97L317.79 262.67L318.02 262.37L318.26 262.09L318.5 261.81L318.76 261.54L319.03 261.29L319.3 261.04L319.59 260.8L319.88 260.58L320.19 260.36L320.5 260.16L320.82 259.97L321.15 259.79L321.48 259.63L321.83 259.47L322.18 259.33L322.53 259.21L322.9 259.1L323.26 259L323.64 258.91L324.02 258.84L324.4 258.79L324.79 258.75L325.19 258.72L325.58 258.72L354.54 258.72L355.33 258.73L356.12 258.78L356.9 258.86Z" id="dHKVrsUoX"></path><path d="M151.86 171.86L171.16 171.86L171.16 191.16L151.86 191.16L151.86 171.86Z" id="aELGccW5K"></path><path d="M151.86 171.86L171.16 171.86L171.16 191.16L151.86 191.16L151.86 171.86Z" id="aMN6XZkOf"></path><path d="M209.77 94.65L229.07 94.65L229.07 113.95L209.77 113.95L209.77 94.65Z" id="du34TrLSX"></path><path d="M209.77 94.65L229.07 94.65L229.07 113.95L209.77 113.95L209.77 94.65Z" id="b1doxRDSwZ"></path><path d="M499.3 519.3L518.61 519.3L518.61 538.6L499.3 538.6L499.3 519.3Z" id="a2dzf8npEl"></path><path d="M499.3 519.3L518.61 519.3L518.61 538.6L499.3 538.6L499.3 519.3Z" id="i45GhvZDZ7"></path><path d="M518.61 500L537.91 500L537.91 519.3L518.61 519.3L518.61 500Z" id="a3pwZkqU4S"></path><path d="M518.61 500L537.91 500L537.91 519.3L518.61 519.3L518.61 500Z" id="d1lrm4vEgt"></path><path d="M190.47 422.79L209.77 422.79L209.77 442.09L190.47 442.09L190.47 422.79Z" id="b1PDQCFYZa"></path><path d="M190.47 422.79L209.77 422.79L209.77 442.09L190.47 442.09L190.47 422.79Z" id="a1j1Vs9pAE"></path><path d="M431.75 191.16L451.05 191.16L451.05 210.46L431.75 210.46L431.75 191.16Z" id="d40VDlxF0"></path><path d="M431.75 191.16L451.05 191.16L451.05 210.46L431.75 210.46L431.75 191.16Z" id="b2HzqPPQP7"></path><path d="M451.05 171.86L470.35 171.86L470.35 191.16L451.05 191.16L451.05 171.86Z" id="a2X5UKbgNW"></path><path d="M451.05 171.86L470.35 171.86L470.35 191.16L451.05 191.16L451.05 171.86Z" id="atQUyYHZN"></path><path d="M431.75 133.25L451.05 133.25L451.05 152.55L431.75 152.55L431.75 133.25Z" id="aGJbUOzJj"></path><path d="M431.75 133.25L451.05 133.25L451.05 152.55L431.75 152.55L431.75 133.25Z" id="g1zQL2MJgi"></path><path d="M350.45 1.4L363.47 2.87L376.31 4.87L388.97 7.34L401.43 10.32L413.7 13.77L425.75 17.68L437.58 22.06L449.18 26.87L460.53 32.12L471.64 37.79L482.49 43.87L493.06 50.35L503.35 57.23L513.35 64.48L523.06 72.1L532.45 80.07L541.53 88.4L550.27 97.06L558.68 106.04L566.73 115.35L574.43 124.94L581.76 134.84L588.71 145.02L595.27 155.46L601.44 166.17L607.21 177.12L612.55 188.31L617.46 199.74L621.93 211.38L625.97 223.21L629.54 235.26L632.66 247.48L635.29 259.87L637.44 272.43L639.1 285.14L640.24 297.99L640.88 310.96L640.98 324.07L640.56 337.27L639.6 350.45L638.13 363.47L636.13 376.31L633.66 388.97L630.68 401.43L627.23 413.7L623.32 425.75L618.94 437.58L614.13 449.18L608.88 460.53L603.21 471.64L597.13 482.49L590.65 493.06L583.77 503.35L576.52 513.35L568.9 523.06L560.93 532.45L552.6 541.53L543.94 550.27L534.96 558.68L525.65 566.73L516.06 574.43L506.16 581.76L495.98 588.71L485.54 595.27L474.83 601.44L463.88 607.21L452.69 612.55L441.26 617.46L429.62 621.93L417.79 625.97L405.74 629.54L393.52 632.66L381.13 635.29L368.57 637.44L355.86 639.1L343.01 640.24L330.04 640.88L316.93 640.98L303.73 640.56L290.55 639.6L277.53 638.13L264.69 636.13L252.03 633.66L239.57 630.68L227.3 627.23L215.25 623.32L203.42 618.94L191.82 614.13L180.47 608.88L169.36 603.21L158.51 597.13L147.94 590.65L137.65 583.77L127.65 576.52L117.94 568.9L108.55 560.93L99.47 552.6L90.73 543.94L82.32 534.96L74.27 525.65L66.57 516.06L59.24 506.16L52.29 495.98L45.73 485.54L39.56 474.83L33.79 463.88L28.45 452.69L23.54 441.26L19.07 429.62L15.03 417.79L11.46 405.74L8.34 393.52L5.71 381.13L3.56 368.57L1.9 355.86L0.76 343.01L0.12 330.04L0.02 316.93L0.44 303.73L1.4 290.55L2.87 277.53L4.87 264.69L7.34 252.03L10.32 239.57L13.77 227.3L17.68 215.25L22.06 203.42L26.87 191.82L32.12 180.47L37.79 169.36L43.87 158.51L50.35 147.94L57.23 137.65L64.48 127.65L72.1 117.94L80.07 108.55L88.4 99.47L97.06 90.73L106.04 82.32L115.35 74.27L124.94 66.57L134.84 59.24L145.02 52.29L155.46 45.73L166.17 39.56L177.12 33.79L188.31 28.45L199.74 23.54L211.38 19.07L223.21 15.03L235.26 11.46L247.48 8.34L259.87 5.71L272.43 3.56L285.14 1.9L297.99 0.76L310.96 0.12L324.07 0.02L337.27 0.44L350.45 1.4ZM120.17 146.87L117.25 150.29L114.38 153.76L111.57 157.29L108.81 160.87L106.12 164.5L103.49 168.16L100.91 171.88L98.4 175.65L95.95 179.46L93.57 183.32L91.24 187.22L88.98 191.16L86.79 195.15L84.67 199.17L82.61 203.24L80.62 207.35L78.7 211.5L76.85 215.68L75.07 219.92L73.35 224.17L71.71 228.48L70.15 232.82L68.65 237.2L67.24 241.6L65.9 246.04L64.63 250.52L63.44 255.04L62.32 259.57L61.29 264.15L60.33 268.75L59.46 273.38L58.66 278.05L57.95 282.75L57.32 287.47L56.77 292.22L56.3 296.99L55.92 301.79L55.62 306.62L55.27 317.53L55.37 328.35L55.89 339.09L56.85 349.71L58.22 360.22L60 370.6L62.19 380.84L64.76 390.95L67.73 400.91L71.08 410.71L74.79 420.34L78.86 429.79L83.28 439.06L88.05 448.12L93.17 456.98L98.6 465.63L104.36 474.06L110.44 482.25L116.81 490.19L123.49 497.89L130.45 505.34L137.68 512.51L145.19 519.41L152.97 526.01L161.01 532.32L169.28 538.33L177.8 544.03L186.55 549.39L195.53 554.43L204.71 559.13L214.11 563.48L223.7 567.47L233.49 571.09L243.45 574.34L253.58 577.19L263.89 579.65L274.36 581.71L284.97 583.36L295.72 584.59L306.62 585.38L311.44 585.59L316.26 585.71L321.06 585.74L325.84 585.69L330.6 585.56L335.34 585.34L340.06 585.04L344.77 584.65L349.44 584.18L354.1 583.63L358.73 582.99L363.35 582.28L367.93 581.49L372.49 580.62L377.02 579.67L381.53 578.65L386.01 577.54L390.46 576.36L394.88 575.1L399.27 573.77L403.63 572.37L407.96 570.89L412.25 569.34L416.51 567.72L420.74 566.03L424.94 564.27L429.09 562.43L433.21 560.53L437.29 558.56L441.34 556.53L445.35 554.42L449.32 552.25L453.24 550.01L457.13 547.71L460.97 545.35L464.78 542.92L468.53 540.43L472.24 537.88L475.91 535.26L479.54 532.58L126.2 140.16L123.16 143.49L120.17 146.87ZM311.44 55.4L306.9 55.59L302.37 55.87L297.88 56.21L293.39 56.63L288.93 57.13L284.49 57.7L280.07 58.35L275.67 59.06L271.3 59.85L266.95 60.71L262.63 61.65L258.32 62.65L254.05 63.72L249.8 64.87L245.57 66.08L241.38 67.36L237.21 68.71L233.07 70.12L228.97 71.61L224.89 73.16L220.84 74.77L216.83 76.44L212.85 78.18L208.9 79.99L204.98 81.86L201.1 83.79L197.26 85.77L193.45 87.82L189.68 89.94L185.94 92.1L182.24 94.33L178.58 96.62L174.96 98.96L171.37 101.37L167.83 103.82L520.03 494.97L522.85 491.7L525.61 488.39L528.32 485.04L530.98 481.64L533.58 478.19L536.12 474.71L538.62 471.17L541.06 467.6L543.44 463.98L545.76 460.32L548.03 456.62L550.24 452.88L552.39 449.11L554.47 445.29L556.49 441.44L558.46 437.54L560.37 433.61L562.21 429.65L563.98 425.65L565.69 421.61L567.34 417.53L568.93 413.43L570.44 409.29L571.89 405.11L573.27 400.91L574.58 396.67L575.83 392.41L576.99 388.11L578.1 383.78L579.13 379.43L580.09 375.04L580.97 370.62L581.79 366.19L582.53 361.72L583.2 357.22L583.79 352.7L584.3 348.15L584.73 343.59L585.09 338.99L585.38 334.38L585.73 323.47L585.63 312.65L585.11 301.91L584.15 291.29L582.78 280.78L581 270.4L578.81 260.16L576.24 250.05L573.27 240.09L569.92 230.29L566.21 220.66L562.14 211.21L557.72 201.94L552.95 192.88L547.83 184.02L542.4 175.37L536.64 166.94L530.56 158.75L524.19 150.81L517.51 143.11L510.55 135.66L503.32 128.49L495.81 121.59L488.03 114.99L479.99 108.68L471.72 102.67L463.2 96.97L454.45 91.61L445.47 86.57L436.29 81.87L426.89 77.52L417.3 73.53L407.51 69.91L397.55 66.66L387.42 63.81L377.11 61.35L366.64 59.29L356.03 57.64L345.28 56.41L334.38 55.62L329.77 55.42L325.16 55.3L320.57 55.25L315.99 55.29L311.44 55.4Z" id="b9qFlml7OU"></path></defs><g><g><g><use xlink:href="#g22bB36ytK" opacity="1" fill="#f6bf9b" fill-opacity="1"></use><g><use xlink:href="#g22bB36ytK" opacity="1" fill-opacity="0" stroke="#000000" stroke-width="1" stroke-opacity="0"></use></g></g><g><use xlink:href="#b1oFL0zA05" opacity="1" fill="#000000" fill-opacity="0"></use><g><use xlink:href="#b1oFL0zA05" opacity="1" fill-opacity="0" stroke="#000000" stroke-width="1" stroke-opacity="0"></use></g></g><g><use xlink:href="#d4BxSjwyt" opacity="1" fill="#143441" fill-opacity="1"></use><g><use xlink:href="#d4BxSjwyt" opacity="1" fill-opacity="0" stroke="#000000" stroke-width="1" stroke-opacity="0"></use></g></g><g><use xlink:href="#b1poMLAuM" opacity="1" fill="#000000" fill-opacity="0"></use><g><use xlink:href="#b1poMLAuM" opacity="1" fill-opacity="0" stroke="#000000" stroke-width="1" stroke-opacity="0"></use></g></g><g><use xlink:href="#cnmRy2EuY" opacity="1" fill="#5a6470" fill-opacity="1"></use><g><use xlink:href="#cnmRy2EuY" opacity="1" fill-opacity="0" stroke="#000000" stroke-width="1" stroke-opacity="0"></use></g></g><g><use xlink:href="#i4oOYWyA4u" opacity="1" fill="#000000" fill-opacity="0"></use><g><use xlink:href="#i4oOYWyA4u" opacity="1" fill-opacity="0" stroke="#000000" stroke-width="1" stroke-opacity="0"></use></g></g><g><use xlink:href="#aMdyAnzCD" opacity="1" fill="#5a6470" fill-opacity="1"></use><g><use xlink:href="#aMdyAnzCD" opacity="1" fill-opacity="0" stroke="#000000" stroke-width="1" stroke-opacity="0"></use></g></g><g><use xlink:href="#bw7fL9IhP" opacity="1" fill="#000000" fill-opacity="0"></use><g><use xlink:href="#bw7fL9IhP" opacity="1" fill-opacity="0" stroke="#000000" stroke-width="1" stroke-opacity="0"></use></g></g><g><use xlink:href="#d2MX2TwN" opacity="1" fill="#5a6470" fill-opacity="1"></use><g><use xlink:href="#d2MX2TwN" opacity="1" fill-opacity="0" stroke="#000000" stroke-width="1" stroke-opacity="0"></use></g></g><g><use xlink:href="#cRkn7Qz7f" opacity="1" fill="#000000" fill-opacity="0"></use><g><use xlink:href="#cRkn7Qz7f" opacity="1" fill-opacity="0" stroke="#000000" stroke-width="1" stroke-opacity="0"></use></g></g><g><use xlink:href="#gDaJQJzSI" opacity="1" fill="#5a6470" fill-opacity="1"></use><g><use xlink:href="#gDaJQJzSI" opacity="1" fill-opacity="0" stroke="#000000" stroke-width="1" stroke-opacity="0"></use></g></g><g><use xlink:href="#bmDvUXRkV" opacity="1" fill="#000000" fill-opacity="0"></use><g><use xlink:href="#bmDvUXRkV" opacity="1" fill-opacity="0" stroke="#000000" stroke-width="1" stroke-opacity="0"></use></g></g><g><use xlink:href="#p1AjK55NYf" opacity="1" fill="#e9686a" fill-opacity="1"></use><g><use xlink:href="#p1AjK55NYf" opacity="1" fill-opacity="0" stroke="#000000" stroke-width="1" stroke-opacity="0"></use></g></g><g><use xlink:href="#bkeQ2Th4M" opacity="1" fill="#000000" fill-opacity="0"></use><g><use xlink:href="#bkeQ2Th4M" opacity="1" fill-opacity="0" stroke="#000000" stroke-width="1" stroke-opacity="0"></use></g></g><g><use xlink:href="#b1HVbA3ko0" opacity="1" fill="#e9686a" fill-opacity="1"></use><g><use xlink:href="#b1HVbA3ko0" opacity="1" fill-opacity="0" stroke="#000000" stroke-width="1" stroke-opacity="0"></use></g></g><g><use xlink:href="#dHKVrsUoX" opacity="1" fill="#000000" fill-opacity="0"></use><g><use xlink:href="#dHKVrsUoX" opacity="1" fill-opacity="0" stroke="#000000" stroke-width="1" stroke-opacity="0"></use></g></g><g><use xlink:href="#aELGccW5K" opacity="1" fill="#e9686a" fill-opacity="1"></use><g><use xlink:href="#aELGccW5K" opacity="1" fill-opacity="0" stroke="#000000" stroke-width="1" stroke-opacity="0"></use></g></g><g><use xlink:href="#aMN6XZkOf" opacity="1" fill="#000000" fill-opacity="0"></use><g><use xlink:href="#aMN6XZkOf" opacity="1" fill-opacity="0" stroke="#000000" stroke-width="1" stroke-opacity="0"></use></g></g><g><use xlink:href="#du34TrLSX" opacity="1" fill="#e9686a" fill-opacity="1"></use><g><use xlink:href="#du34TrLSX" opacity="1" fill-opacity="0" stroke="#000000" stroke-width="1" stroke-opacity="0"></use></g></g><g><use xlink:href="#b1doxRDSwZ" opacity="1" fill="#000000" fill-opacity="0"></use><g><use xlink:href="#b1doxRDSwZ" opacity="1" fill-opacity="0" stroke="#000000" stroke-width="1" stroke-opacity="0"></use></g></g><g><use xlink:href="#a2dzf8npEl" opacity="1" fill="#e9686a" fill-opacity="1"></use><g><use xlink:href="#a2dzf8npEl" opacity="1" fill-opacity="0" stroke="#000000" stroke-width="1" stroke-opacity="0"></use></g></g><g><use xlink:href="#i45GhvZDZ7" opacity="1" fill="#000000" fill-opacity="0"></use><g><use xlink:href="#i45GhvZDZ7" opacity="1" fill-opacity="0" stroke="#000000" stroke-width="1" stroke-opacity="0"></use></g></g><g><use xlink:href="#a3pwZkqU4S" opacity="1" fill="#e9686a" fill-opacity="1"></use><g><use xlink:href="#a3pwZkqU4S" opacity="1" fill-opacity="0" stroke="#000000" stroke-width="1" stroke-opacity="0"></use></g></g><g><use xlink:href="#d1lrm4vEgt" opacity="1" fill="#000000" fill-opacity="0"></use><g><use xlink:href="#d1lrm4vEgt" opacity="1" fill-opacity="0" stroke="#000000" stroke-width="1" stroke-opacity="0"></use></g></g><g><use xlink:href="#b1PDQCFYZa" opacity="1" fill="#e9686a" fill-opacity="1"></use><g><use xlink:href="#b1PDQCFYZa" opacity="1" fill-opacity="0" stroke="#000000" stroke-width="1" stroke-opacity="0"></use></g></g><g><use xlink:href="#a1j1Vs9pAE" opacity="1" fill="#000000" fill-opacity="0"></use><g><use xlink:href="#a1j1Vs9pAE" opacity="1" fill-opacity="0" stroke="#000000" stroke-width="1" stroke-opacity="0"></use></g></g><g><use xlink:href="#d40VDlxF0" opacity="1" fill="#e9686a" fill-opacity="1"></use><g><use xlink:href="#d40VDlxF0" opacity="1" fill-opacity="0" stroke="#000000" stroke-width="1" stroke-opacity="0"></use></g></g><g><use xlink:href="#b2HzqPPQP7" opacity="1" fill="#000000" fill-opacity="0"></use><g><use xlink:href="#b2HzqPPQP7" opacity="1" fill-opacity="0" stroke="#000000" stroke-width="1" stroke-opacity="0"></use></g></g><g><use xlink:href="#a2X5UKbgNW" opacity="1" fill="#e9686a" fill-opacity="1"></use><g><use xlink:href="#a2X5UKbgNW" opacity="1" fill-opacity="0" stroke="#000000" stroke-width="1" stroke-opacity="0"></use></g></g><g><use xlink:href="#atQUyYHZN" opacity="1" fill="#000000" fill-opacity="0"></use><g><use xlink:href="#atQUyYHZN" opacity="1" fill-opacity="0" stroke="#000000" stroke-width="1" stroke-opacity="0"></use></g></g><g><use xlink:href="#aGJbUOzJj" opacity="1" fill="#e9686a" fill-opacity="1"></use><g><use xlink:href="#aGJbUOzJj" opacity="1" fill-opacity="0" stroke="#000000" stroke-width="1" stroke-opacity="0"></use></g></g><g><use xlink:href="#g1zQL2MJgi" opacity="1" fill="#000000" fill-opacity="0"></use><g><use xlink:href="#g1zQL2MJgi" opacity="1" fill-opacity="0" stroke="#000000" stroke-width="1" stroke-opacity="0"></use></g></g><g><use xlink:href="#b9qFlml7OU" opacity="1" fill="#dd352e" fill-opacity="1"></use><g><use xlink:href="#b9qFlml7OU" opacity="1" fill-opacity="0" stroke="#000000" stroke-width="1" stroke-opacity="0"></use></g></g></g></g></svg>