<svg height="511pt" viewBox="0 -54 511.99963 511" width="511pt" xmlns="http://www.w3.org/2000/svg"><path d="m216.515625 393.472656c-.21875 0-.4375-.007812-.660156-.027344-50.558594-4.375-96.210938-27.90625-128.542969-66.261718-32.488281-38.546875-47.945312-87.929688-43.523438-139.050782 2.933594-33.90625 14.617188-66.472656 33.792969-94.183593 18.617188-26.898438 43.835938-48.6875 72.9375-63.015625 3.738281-1.839844 8.257813-.300782 10.097657 3.4375 1.839843 3.734375.300781 8.253906-3.433594 10.09375-26.804688 13.199218-50.042969 33.277344-67.199219 58.066406-17.683594 25.554688-28.464844 55.605469-31.171875 86.898438-4.074219 47.105468 10.144531 92.574218 40.03125 128.03125 29.742188 35.285156 71.757812 56.933593 118.3125 60.957031 4.148438.359375 7.222656 4.015625 6.863281 8.164062-.339843 3.925781-3.632812 6.890625-7.503906 6.890625zm0 0" fill="#d47a3d"/><path d="m165.328125 375.941406c-.707031-14.730468-18.058594-25.460937-39.523437-24.433594-19.089844.914063-41.355469 20.355469-43.832032 22.566407-1.695312 1.515625-2.617187 3.714843-2.507812 5.984375.113281 2.269531 1.238281 4.371094 3.070312 5.714844 2.605469 1.917968 25.46875 18.308593 44.300782 18.308593.496093 0 .996093-.011719 1.488281-.035156 21.453125-1.03125 37.707031-13.375 37.003906-28.105469zm0 0" fill="#00a983"/><path d="m182.589844 344.3125c-.914063-19.089844-20.355469-41.355469-22.570313-43.832031-1.515625-1.695313-3.71875-2.617188-5.980469-2.507813-2.273437.109375-4.371093 1.238282-5.71875 3.070313-1.964843 2.675781-19.183593 26.695312-18.269531 45.789062.457031 9.570313 3.234375 18.570313 7.820313 25.332031 5.058594 7.472657 12.078125 11.691407 19.375 11.691407.304687 0 .605468-.007813.910156-.023438 14.730469-.703125 25.460938-18.0625 24.433594-39.519531zm0 0" fill="#00bf9e"/><path d="m66.316406 281.945312c-17.664062-7.304687-46.085937.796876-49.269531 1.746094-2.179687.648438-3.945313 2.246094-4.816406 4.347656-.867188 2.097657-.742188 4.480469.339843 6.476563 1.582032 2.917969 15.984376 28.734375 33.644532 36.035156 7.03125 2.910157 14.074218 4.253907 20.492187 4.171875 11.703125-.144531 21.316407-5.035156 24.960938-13.835937 5.632812-13.628907-5.503907-30.734375-25.351563-38.941407zm0 0" fill="#00bf9e"/><path d="m119.710938 251.195312c-.621094-2.1875-2.195313-3.976562-4.285157-4.871093-2.085937-.894531-4.464843-.800781-6.480469.257812-2.9375 1.546875-28.929687 15.621094-36.457031 33.191407-8.453125 19.746093-4.460937 39.757812 9.097657 45.566406 2.421874 1.039062 5.011718 1.550781 7.683593 1.550781 5.054688 0 10.386719-1.835937 15.398438-5.402344 6.65625-4.738281 12.402343-12.199219 16.175781-21.007812 7.523438-17.566407-.222656-46.089844-1.132812-49.285157zm0 0" fill="#00a983"/><path d="m53.679688 200.460938c-12.511719-14.453126-41.550782-19.957032-44.820313-20.539063-2.242187-.394531-4.535156.238281-6.253906 1.722656-1.71875 1.488281-2.6757815 3.671875-2.60156275 5.945313.10546875 3.320312 1.39843775 32.847656 13.90624975 47.296875 9.273438 10.710937 21.019532 16.605469 31.144532 16.605469 5.222656 0 10.015624-1.570313 13.8125-4.855469 11.148437-9.65625 8.871093-29.9375-5.1875-46.175781zm0 0" fill="#00a983"/><path d="m113.21875 189.609375c-1.488281-1.71875-3.667969-2.679687-5.941406-2.601563-3.320313.105469-32.847656 1.394532-47.300782 13.90625-7.246093 6.273438-12.605468 14.011719-15.097656 21.792969-2.863281 8.953125-1.644531 17.394531 3.351563 23.160157 4 4.625 10.046875 7.09375 17.0625 7.09375 1.738281 0 3.535156-.152344 5.378906-.460938 8.058594-1.347656 16.488281-5.546875 23.730469-11.820312 14.453125-12.507813 19.960937-41.546876 20.539062-44.816407.398438-2.238281-.238281-4.535156-1.722656-6.253906zm0 0" fill="#00bf9e"/><path d="m70.066406 118.746094c-4.929687-18.464844-28.636718-36.117188-31.324218-38.070313-1.839844-1.335937-4.183594-1.769531-6.378907-1.183593-2.195312.585937-4.007812 2.132812-4.9375 4.207031-1.355469 3.03125-13.109375 30.152343-8.175781 48.617187 2.472656 9.257813 7.089844 17.464844 12.996094 23.109375 5.308594 5.066407 11.425781 7.757813 17.359375 7.757813 1.667969 0 3.320312-.210938 4.933593-.644532 7.371094-1.96875 13.125-8.265624 15.78125-17.28125 2.308594-7.835937 2.21875-17.253906-.253906-26.511718zm0 0" fill="#00bf9e"/><path d="m128.359375 135.023438c-.585937-2.195313-2.132813-4.011719-4.207031-4.9375-3.03125-1.355469-30.160156-13.109376-48.617188-8.175782-9.261718 2.472656-17.46875 7.085938-23.109375 12.996094-6.492187 6.796875-9.082031 14.921875-7.117187 22.292969 1.96875 7.371093 8.269531 13.121093 17.28125 15.78125 3.78125 1.113281 7.929687 1.667969 12.246094 1.667969 4.636718 0 9.476562-.640626 14.269531-1.921876 18.464843-4.929687 36.117187-28.636718 38.066406-31.324218 1.339844-1.839844 1.773437-4.183594 1.1875-6.378906zm0 0" fill="#00a983"/><path d="m109.019531 4.492188c-1.070312-2.007813-2.988281-3.421876-5.21875-3.855469-2.230469-.429688-4.539062.164062-6.28125 1.625-2.542969 2.132812-24.972656 21.382812-28.613281 40.144531-4.09375 21.085938 4.042969 39.804688 18.519531 42.617188 1.21875.234374 2.4375.351562 3.652344.351562 13.199219 0 25.714844-13.636719 29.464844-32.949219 3.640625-18.761719-9.960938-45.003906-11.523438-47.933593zm0 0" fill="#00a983"/><path d="m164.222656 86.273438c-2.132812-2.542969-21.386718-24.972657-40.148437-28.613282-9.410157-1.824218-18.808594-1.261718-26.464844 1.585938-8.8125 3.273437-14.695313 9.445312-16.148437 16.9375-1.453126 7.488281 1.695312 15.414062 8.640624 21.746094 6.039063 5.503906 14.546876 9.542968 23.953126 11.367187 2.199218.425781 4.503906.617187 6.859374.617187 17.738282 0 38.488282-10.761718 41.074219-12.140624 2.007813-1.070313 3.421875-2.988282 3.855469-5.21875.433594-2.230469-.164062-4.539063-1.621094-6.28125zm0 0" fill="#00bf9e"/><path d="m295.484375 393.472656c-3.871094 0-7.164063-2.960937-7.503906-6.890625-.359375-4.148437 2.710937-7.804687 6.863281-8.164062 46.554688-4.027344 88.570312-25.675781 118.3125-60.957031 29.886719-35.460938 44.101562-80.929688 40.027344-128.03125-2.703125-31.292969-13.484375-61.34375-31.167969-86.898438-17.15625-24.792969-40.394531-44.871094-67.199219-58.066406-3.734375-1.839844-5.273437-6.359375-3.433594-10.097656 1.839844-3.734376 6.359376-5.273438 10.097657-3.433594 29.101562 14.328125 54.320312 36.117187 72.9375 63.015625 19.175781 27.707031 30.859375 60.277343 33.792969 94.179687 4.421874 51.125-11.035157 100.507813-43.523438 139.054688-32.332031 38.355468-77.984375 61.886718-128.542969 66.261718-.222656.019532-.441406.027344-.660156.027344zm0 0" fill="#d47a3d"/><path d="m430.027344 374.074219c-2.476563-2.210938-24.738282-21.652344-43.832032-22.566407-21.464843-1.039062-38.816406 9.703126-39.523437 24.433594-.703125 14.730469 15.550781 27.074219 37.003906 28.105469.492188.023437.988281.035156 1.488281.035156 18.832032 0 41.695313-16.390625 44.300782-18.308593 1.832031-1.34375 2.957031-3.445313 3.066406-5.714844.109375-2.269532-.8125-4.46875-2.503906-5.984375zm0 0" fill="#00bf9e"/><path d="m363.679688 301.042969c-1.347657-1.832031-3.449219-2.960938-5.71875-3.070313-2.253907-.109375-4.464844.8125-5.980469 2.507813-2.214844 2.476562-21.65625 24.742187-22.570313 43.832031-1.027344 21.453125 9.703125 38.816406 24.433594 39.519531.304688.015625.605469.023438.90625.023438 7.300781 0 14.316406-4.21875 19.378906-11.691407 4.582032-6.761718 7.359375-15.761718 7.820313-25.332031.914062-19.089843-16.304688-43.113281-18.269531-45.789062zm0 0" fill="#00a983"/><path d="m499.53125 287.53125c-.894531-2.089844-2.683594-3.660156-4.871094-4.28125-3.195312-.910156-31.71875-8.652344-49.289062-1.128906-19.746094 8.457031-30.664063 25.699218-24.859375 39.253906 3.75 8.757812 13.429687 13.523438 25.132812 13.523438 6.414063 0 13.445313-1.433594 20.4375-4.429688 17.566407-7.523438 31.640625-33.515625 33.1875-36.453125 1.058594-2.011719 1.15625-4.394531.261719-6.484375zm0 0" fill="#00a983"/><path d="m439.511719 279.773438c-7.527344-17.570313-33.519531-31.644532-36.457031-33.191407-2.011719-1.058593-4.390626-1.152343-6.484376-.257812-2.085937.894531-3.664062 2.683593-4.28125 4.871093-.910156 3.195313-8.65625 31.71875-1.132812 49.289063 3.773438 8.808594 9.519531 16.269531 16.175781 21.007813 5.011719 3.566406 10.34375 5.398437 15.398438 5.398437 2.667969 0 5.257812-.511719 7.683593-1.550781 13.558594-5.804688 17.550782-25.820313 9.097657-45.566406zm0 0" fill="#00bf9e"/><path d="m509.394531 181.644531c-1.71875-1.484375-4.015625-2.117187-6.253906-1.722656-3.269531.582031-32.308594 6.085937-44.820313 20.539063-14.058593 16.238281-16.335937 36.519531-5.1875 46.175781 3.796876 3.285156 8.585938 4.855469 13.8125 4.855469 10.121094 0 21.871094-5.894532 31.144532-16.605469 12.507812-14.449219 13.800781-43.976563 13.90625-47.296875.070312-2.273438-.882813-4.457032-2.601563-5.945313zm0 0" fill="#00bf9e"/><path d="m467.121094 222.707031c-2.492188-7.78125-7.855469-15.519531-15.097656-21.792969-14.453126-12.511718-43.980469-13.800781-47.300782-13.90625-2.296875-.0625-4.453125.882813-5.941406 2.601563s-2.121094 4.015625-1.722656 6.253906c.578125 3.269531 6.085937 32.308594 20.535156 44.816407 7.246094 6.273437 15.675781 10.472656 23.734375 11.820312 1.839844.308594 3.640625.460938 5.378906.460938 7.015625 0 13.0625-2.472657 17.0625-7.09375 4.996094-5.765626 6.214844-14.207032 3.351563-23.160157zm0 0" fill="#00a983"/><path d="m484.574219 83.699219c-.929688-2.074219-2.742188-3.621094-4.941407-4.207031-2.191406-.585938-4.535156-.152344-6.375 1.183593-2.6875 1.953125-26.394531 19.605469-31.324218 38.070313-2.472656 9.257812-2.5625 18.675781-.253906 26.511718 2.65625 9.015626 8.40625 15.3125 15.777343 17.28125 1.617188.433594 3.269531.644532 4.9375.644532 5.933594 0 12.050781-2.691406 17.359375-7.757813 5.90625-5.644531 10.523438-13.851562 12.996094-23.109375 4.933594-18.46875-6.820312-45.585937-8.175781-48.617187zm0 0" fill="#00a983"/><path d="m459.574219 134.90625c-5.644531-5.910156-13.847657-10.527344-23.109375-13-18.464844-4.929688-45.585938 6.824219-48.617188 8.179688-2.074218.925781-3.621094 2.742187-4.207031 4.9375-.585937 2.195312-.152344 4.539062 1.183594 6.375 1.953125 2.6875 19.605469 26.394531 38.070312 31.328124 4.796875 1.277344 9.628907 1.921876 14.269531 1.921876 4.316407 0 8.464844-.558594 12.242188-1.671876 9.015625-2.65625 15.3125-8.40625 17.28125-15.777343 1.96875-7.371094-.625-15.496094-7.113281-22.292969zm0 0" fill="#00bf9e"/><path d="m443.09375 42.40625c-3.640625-18.761719-26.070312-38.011719-28.613281-40.144531-1.742188-1.460938-4.046875-2.054688-6.28125-1.625-2.230469.433593-4.148438 1.847656-5.214844 3.855469-1.566406 2.929687-15.164063 29.171874-11.523437 47.933593 3.746093 19.3125 16.261718 32.945313 29.460937 32.945313 1.214844 0 2.433594-.113282 3.652344-.351563 14.476562-2.808593 22.613281-21.527343 18.519531-42.613281zm0 0" fill="#00bf9e"/><path d="m430.539062 76.183594c-1.453124-7.492188-7.339843-13.664063-16.148437-16.9375-7.660156-2.847656-17.058594-3.414063-26.464844-1.585938-18.765625 3.640625-38.015625 26.070313-40.148437 28.613282-1.460938 1.742187-2.054688 4.050781-1.621094 6.28125.429688 2.230468 1.847656 4.148437 3.851562 5.21875 2.585938 1.378906 23.339844 12.140624 41.078126 12.140624 2.355468 0 4.660156-.191406 6.859374-.617187 9.40625-1.824219 17.914063-5.863281 23.953126-11.367187 6.945312-6.332032 10.09375-14.257813 8.640624-21.746094zm0 0" fill="#00a983"/><path d="m255.292969 108.441406c-58.019531 0-105.21875 47.199219-105.21875 105.21875 0 58.019532 47.199219 105.21875 105.21875 105.21875 58.015625 0 105.21875-47.199218 105.21875-105.21875 0-58.015625-47.203125-105.21875-105.21875-105.21875zm0 0" fill="#f8b53c"/><path d="m255.292969 108.441406c-3.90625 0-7.765625.222656-11.5625.636719 52.597656 5.777344 93.65625 50.472656 93.65625 104.582031 0 54.113282-41.058594 98.804688-93.65625 104.582032 3.796875.417968 7.65625.636718 11.5625.636718 58.015625 0 105.21875-47.199218 105.21875-105.21875 0-58.015625-47.203125-105.21875-105.21875-105.21875zm0 0" fill="#f8a814"/><path d="m255.292969 138.746094c-41.308594 0-74.917969 33.605468-74.917969 74.914062s33.609375 74.917969 74.917969 74.917969c41.308593 0 74.914062-33.609375 74.914062-74.917969s-33.605469-74.914062-74.914062-74.914062zm0 0" fill="#fae691"/><path d="m255.292969 138.746094c-3.933594 0-7.792969.308594-11.5625.894531 35.835937 5.574219 63.351562 36.644531 63.351562 74.019531 0 37.378906-27.515625 68.445313-63.351562 74.019532 3.769531.589843 7.628906.898437 11.5625.898437 41.308593 0 74.914062-33.609375 74.914062-74.917969s-33.605469-74.914062-74.914062-74.914062zm0 0" fill="#f9e075"/><path d="m293.316406 239.738281h-23.953125c-3.363281 0-6.085937-2.726562-6.085937-6.085937v-45c0-2.023438-1.644532-3.667969-3.667969-3.667969h-2.90625c-2.128906 0-3.859375 1.726563-3.859375 3.859375v44.742188c0 3.398437-2.753906 6.152343-6.148438 6.152343h-28.386718c-3.347656 0-6.0625-2.714843-6.0625-6.0625v-12.644531h-11.453125c-4.164063 0-7.539063-3.378906-7.539063-7.542969 0-4.164062 3.375-7.539062 7.539063-7.539062h20.796875c3.171875 0 5.742187 2.566406 5.742187 5.738281v12.96875h10.429688v-47c0-4.28125 3.472656-7.753906 7.757812-7.753906h24.628907c4.535156 0 8.210937 3.675781 8.210937 8.210937v46.542969h6.28125v-13.824219c0-2.121093 1.71875-3.839843 3.835937-3.839843h25.140626c4.164062 0 7.542968 3.378906 7.542968 7.542968 0 4.164063-3.378906 7.539063-7.542968 7.539063h-13.894532v11.257812c-.003906 3.539063-2.871094 6.40625-6.40625 6.40625zm0 0" fill="#f8b53c"/></svg>