<?xml version="1.0" encoding="utf-8"?>
<!-- Generator: Adobe Illustrator 19.0.0, SVG Export Plug-In . SVG Version: 6.00 Build 0)  -->
<svg version="1.1" id="Layer_1" xmlns="http://www.w3.org/2000/svg" xmlns:xlink="http://www.w3.org/1999/xlink" x="0px" y="0px"
	 viewBox="-73 75 464 464" style="enable-background:new -73 75 464 464;" xml:space="preserve">
<style type="text/css">
	.st0{fill:#F6BF9B;stroke:#840303;stroke-width:7;stroke-miterlimit:10;}
	.st1{fill:#143441;stroke:#840303;stroke-width:7;stroke-miterlimit:10;}
	.st2{fill:#5A6470;stroke:#840303;stroke-width:7;stroke-miterlimit:10;}
	.st3{fill:#E9686A;}
</style>
<path class="st0" d="M39,75h112v112H39V75z"/>
<path class="st1" d="M23,219h144v144H23V219z"/>
<path class="st2" d="M23,363v72l-64,72l32,32l80-96v-80H23z"/>
<path class="st2" d="M167,363h-64l64,64v80h48v-96L167,363z"/>
<path class="st2" d="M23,219l-96,104l24,24l72-80V219z"/>
<path class="st2" d="M167,219l96,104l-24,24l-72-80V219z"/>
<g>
	<path class="st3" d="M71,131v16h32v16h16v-32H71z"/>
	<path class="st3" d="M87,259v8c-8.8,0-16,7.2-16,16s7.2,16,16,16v8c0,4.4,3.6,8,8,8h16c4.4,0,8-3.6,8-8v-8h8c4.4,0,8-3.6,8-8v-24
		c0-8.8-7.2-16-16-16H95C90.6,251,87,254.6,87,259z"/>
	<path class="st3" d="M-49,179h16v16h-16V179z"/>
	<path class="st3" d="M-1,115h16v16H-1V115z"/>
	<path class="st3" d="M239,467h16v16h-16V467z"/>
	<path class="st3" d="M255,451h16v16h-16V451z"/>
	<path class="st3" d="M-17,387h16v16h-16V387z"/>
	<path class="st3" d="M183,195h16v16h-16V195z"/>
	<path class="st3" d="M199,179h16v16h-16V179z"/>
	<path class="st3" d="M183,147h16v16h-16V147z"/>
</g>
</svg>
