<?xml version="1.0" encoding="utf-8"?>
<!-- Generator: Adobe Illustrator 19.0.0, SVG Export Plug-In . SVG Version: 6.00 Build 0)  -->
<svg version="1.1" id="Layer_1" xmlns="http://www.w3.org/2000/svg" xmlns:xlink="http://www.w3.org/1999/xlink" x="0px" y="0px"
	 viewBox="14 77 640 640" style="enable-background:new 14 77 640 640;" xml:space="preserve">
<style type="text/css">
	.st0{fill:#F94848;}
	.st1{fill:#E23D3D;}
	.st2{fill:#C7F492;}
	.st3{fill:#A3E261;}
	.st4{fill:#FC8181;}
	.st5{fill:#B25719;}
	.st6{fill:#BC705F;}
	.st7{fill:#E4B19B;}
	.st8{fill:#FBC4AC;}
	.st9{fill:#E3B098;}
	.st10{fill:#3358A8;}
	.st11{fill:#20275B;}
	.st12{fill:#3B484A;}
	.st13{fill:#F2BEA6;}
	.st14{fill:#999999;}
	.st15{fill:#B3B3B3;}
	.st16{fill:#6E256F;}
	.st17{fill:#33134D;}
	.st18{fill:#FEE472;}
	.st19{fill:#FED127;}
	.st20{fill:#81C341;}
	.st21{fill:#56843B;}
	.st22{fill:#FBAB2B;}
	.st23{fill:#E07E26;}
	.st24{fill:#7F7930;}
	.st25{fill:#4E3A14;}
	.st26{fill:#FF5E6B;}
	.st27{fill:#E63E4C;}
</style>
<path class="st0" d="M397.1,389.8c0,18.6-12.1,44.3-26.7,58.3c-6.5,6.2-13.5,10.2-20.1,10.2c-4.2,0-8.4-0.7-12-1.8
	c-4.9-1.5-10.2-1.5-15.1,0c-3.6,1.1-7.8,1.8-12,1.8c-7,0-14.3-4.3-21.1-11.1c-14.2-14.2-25.8-39.2-25.8-57.4
	c0-26.8,16.1-43.1,31.2-47c7.2-1.9,15.6-0.7,22.4,1.1c7,1.8,14.3,2.1,21.4,0.9c1.4-0.2,2.9-0.6,4.3-0.9c6.8-1.8,15.2-3,22.4-1.1
	C381.1,346.7,397.1,363,397.1,389.8z"/>
<path class="st1" d="M370.4,448.1c-17.9,3.2-31.8,2.3-42.2-0.2c-17-4.1-29.7-18.5-31.8-35.8c-5.3-43.5,23.1-56.2,23.1-56.2
	c8.3,3.8,17.7,1.8,17.7,1.8c-6-6,2-12.8,2-12.8c-7.1,1.2-14.4,0.9-21.4-0.9c-6.8-1.8-15.2-3-22.4-1.1c-15.1,3.9-31.2,20.1-31.2,47
	c0,26.8,25.2,68.5,46.8,68.5c4.2,0,8.4-0.7,12-1.8c4.9-1.5,10.2-1.5,15.1,0c3.6,1.1,7.8,1.8,12,1.8
	C357,458.3,363.9,454.4,370.4,448.1C370.4,448.1,370.4,448.1,370.4,448.1z"/>
<path class="st2" d="M403.7,305.4c0,0-3.7,26-23.4,33.6c-18.8,7.2-35.5-12.3-42.4-10.8c-0.3,0.1-0.6,0.2-0.9,0.3c0,0,0,0,0,0l0,0
	c0.2-0.7,7.8-23.1,27.1-24.6C383.8,302.4,394.5,311.4,403.7,305.4z"/>
<path class="st3" d="M403.7,305.4c0,0-11.9,14.5-28.7,14.5c-14.8,0-32.9,6.6-37,8.2c-0.5,0.2-0.8,0.3-0.9,0.3c0,0,0,0,0,0l0,0
	c0.2-0.7,7.8-23.1,27.1-24.6C383.8,302.4,394.5,311.4,403.7,305.4z"/>
<ellipse transform="matrix(-0.9951 9.889974e-002 -9.889974e-002 -0.9951 786.8298 717.9111)" class="st4" cx="375.6" cy="378.5" rx="8.7" ry="13.4"/>
<path class="st1" d="M344.7,354c0,3.1-4.8,5.6-11.2,6.2c-0.9,0.1-1.8,0.1-2.7,0.1c-1,0-1.9,0-2.9-0.1c-6.3-0.6-11-3.1-11-6.2H344.7z
	"/>
<path class="st5" d="M341.4,328.2l-10.2,15.5c0.8,3.1,1.4,6.6,1.9,10.3c0.2,2,0.4,4.1,0.5,6.2c-0.9,0.1-1.8,0.1-2.7,0.1
	c-1,0-1.9,0-2.9-0.1c-0.1-2.1-0.3-4.2-0.5-6.2c-1.8-14.5-7.4-25.1-7.5-25.3c-0.7-1.4-0.2-3.1,1.2-3.8c1.4-0.7,3.1-0.2,3.8,1.2
	c0.2,0.3,2.2,4.2,4.3,10.5l7.6-11.5c0.8-1.3,2.6-1.6,3.9-0.8C341.8,325.2,342.2,326.9,341.4,328.2z"/>
<g>
	<g>
		<path class="st6" d="M351.8,263.7l-10.4,6.7c-4.6,0-8.3,3.7-8.3,8.3v6.6h23.1c3.3,0,6-2.7,6-6v-8.9L351.8,263.7z"/>
		<path class="st6" d="M398.8,263.7l10.4,6.7c4.6,0,8.3,3.7,8.3,8.3v6.6h-23.1c-3.3,0-6-2.7-6-6v-8.9L398.8,263.7z"/>
	</g>
	<g>
		<rect x="341.4" y="243.4" class="st7" width="20.8" height="27"/>
		<rect x="388.4" y="243.4" class="st7" width="20.8" height="27"/>
	</g>
	<path class="st8" d="M309.9,224.8c-8.1,15.6,6.8,20.6,15.5,16.4l7.7-13.9l-5-12.1L309.9,224.8z"/>
	<path class="st9" d="M318.1,224.8l11.4-6.1l-1.5-3.6l-18.1,9.6c-7.4,14.2,4.5,19.7,13.2,17.2C317.1,240.3,312.9,234.7,318.1,224.8z
		"/>
	<path class="st8" d="M440.7,224.8c8.1,15.6-6.8,20.6-15.5,16.4l-7.7-13.9l5-12.1L440.7,224.8z"/>
	<path class="st8" d="M336.8,188.1c0,0-30.5,6.9-26.9,36.7h15.2l13.6-11.2L336.8,188.1z"/>
	<path class="st8" d="M337,191.1l-0.2-3c0,0-30.5,6.9-26.9,36.7h8.2C315.7,205.1,328.2,195.4,337,191.1z"/>
	<path class="st8" d="M413.8,188.1c0,0,30.5,6.9,26.9,36.7h-15.2L412,213.6L413.8,188.1z"/>
	<path class="st7" d="M375.3,224.8l-50.3,8.5c0.1,3.7,0.3,7.8,0.7,12.1l49.6,5.1l49.6-5.1c0.4-4.3,0.7-8.3,0.7-12.1L375.3,224.8z"/>
	<g>
		<path class="st9" d="M334.2,149.6l-9.5-10.9c-1.9-2.2-5.4-1.3-6.1,1.5c-2.7,11-4.9,32.4,18.2,31.5l7.6-9L334.2,149.6z"/>
		<path class="st9" d="M416.4,149.6l9.5-10.9c1.9-2.2,5.4-1.3,6.1,1.5c2.7,11,4.9,32.4-18.2,31.5l-7.6-9L416.4,149.6z"/>
	</g>
	<path class="st8" d="M413.8,171.7c1.6-6.7,2.6-14,2.6-22.1h-82.1c0,8.1,1,15.4,2.6,22.1l38.5,36L413.8,171.7z"/>
	<path class="st10" d="M379.9,84.1c-2.3-3-6.8-3-9.1,0c-9.3,12.2-30.3,41.3-36.5,65.5c0,0,18.6,3.6,41.1,3.6s41.1-3.6,41.1-3.6
		C410.1,125.4,389.2,96.2,379.9,84.1z"/>
	<path class="st11" d="M375.2,81.8c-1.7,0-3.3,0.8-4.4,2.2c-9.3,12.2-30.3,41.3-36.5,65.5c0,0,5.3,1,13.6,2
		C353,128,365,101.6,375.2,81.8z"/>
	<g>
		<path class="st12" d="M355.7,167.5c-1.7,0-3.1-1.4-3.1-3.1v-3.5c0-1.7,1.4-3.1,3.1-3.1c1.7,0,3.1,1.4,3.1,3.1v3.5
			C358.8,166.2,357.4,167.5,355.7,167.5z"/>
		<path class="st12" d="M394.9,167.5c-1.7,0-3.1-1.4-3.1-3.1v-3.5c0-1.7,1.4-3.1,3.1-3.1s3.1,1.4,3.1,3.1v3.5
			C398,166.2,396.6,167.5,394.9,167.5z"/>
	</g>
	<g>
		<path class="st13" d="M424.9,245.3c0,0.2,0,0.5-0.1,0.7c-0.5,5.3-5,9.4-10.4,9.4h-78.2c-5.4,0-9.9-4.1-10.4-9.4
			c0-0.2,0-0.5-0.1-0.7H424.9z"/>
		<path class="st13" d="M425.6,233.3H325c-0.9-40.1,16-48.7,16-48.7h68.6C409.6,184.5,426.5,193.2,425.6,233.3z"/>
	</g>
	<path class="st7" d="M340.1,246.1c0-0.2,0-0.5-0.1-0.7c-0.4-4.3-0.7-8.3-0.7-12.1c0-0.8,0-1.6,0-2.4l-14.3,2.4
		c0,0.9,0.1,1.9,0.1,2.9c0,1,0.1,2,0.2,3c0.1,1.5,0.2,3.1,0.4,4.6c0,0.5,0.1,1.1,0.2,1.6l14.5,1.5
		C340.2,246.6,340.2,246.3,340.1,246.1z"/>
	<g>
		<path class="st7" d="M325,233.3h14.3l0,0c-0.9-40.1,16-48.7,16-48.7H341c0,0-6.9,3.6-11.7,16.7c-0.1,0.3-0.2,0.6-0.3,1
			c-0.5,1.3-0.9,2.7-1.3,4.3c-0.4,1.5-0.8,3.1-1.1,4.8c-0.2,0.9-0.3,1.7-0.5,2.6c-0.4,2.3-0.6,4.7-0.8,7.3c-0.2,2.6-0.3,5.4-0.3,8.4
			C325,230.8,325,232,325,233.3L325,233.3z"/>
		<path class="st7" d="M350.5,255.5c-5.4,0-9.9-4.1-10.4-9.4c0-0.2,0-0.5-0.1-0.7h-14.3c0,0.2,0,0.5,0.1,0.7c0,0.3,0.1,0.7,0.1,1
			c1,4.8,5.2,8.4,10.3,8.4L350.5,255.5L350.5,255.5z"/>
	</g>
	<path class="st14" d="M413.8,171.7c-9,37.2-38.5,53.2-38.5,53.2s-29.5-16-38.5-53.2c13,9,25.7,0,25.7,0h25.5
		C388.1,171.7,400.8,180.7,413.8,171.7z"/>
	<path class="st15" d="M375.3,180.7c13.7,7.8,18.3,1.1,18.3,1.1c-7.6-1.2,0-18.6-18.3-13.6c-18.3-5-10.7,12.4-18.3,13.6
		C357,181.8,361.6,188.6,375.3,180.7z"/>
</g>
<g>
	<g>
		<path class="st6" d="M523.5,302.6l-10.4,6.7c-4.6,0-8.3,3.7-8.3,8.3v6.6H528c3.3,0,6-2.7,6-6v-8.9L523.5,302.6z"/>
		<path class="st6" d="M570.5,302.6l10.4,6.7c4.6,0,8.3,3.7,8.3,8.3v6.6H566c-3.3,0-6-2.7-6-6v-8.9L570.5,302.6z"/>
	</g>
	<g>
		<rect x="513.1" y="282.3" class="st7" width="20.8" height="27"/>
		<rect x="560.1" y="282.3" class="st7" width="20.8" height="27"/>
	</g>
	<path class="st8" d="M481.6,263.7c-8.1,15.6,6.8,20.6,15.5,16.4l7.7-13.9l-5-12.1L481.6,263.7z"/>
	<path class="st9" d="M489.8,263.7l11.4-6.1l-1.5-3.6l-18.1,9.6c-7.4,14.2,4.5,19.7,13.2,17.2C488.8,279.3,484.6,273.6,489.8,263.7z
		"/>
	<path class="st8" d="M612.4,263.7c8.1,15.6-6.8,20.6-15.5,16.4l-7.7-13.9l5-12.1L612.4,263.7z"/>
	<path class="st8" d="M508.5,227c0,0-30.5,6.9-26.9,36.7h15.2l13.6-11.2L508.5,227z"/>
	<path class="st8" d="M508.7,230l-0.2-3c0,0-30.5,6.9-26.9,36.7h8.2C487.4,244,499.9,234.3,508.7,230z"/>
	<path class="st8" d="M585.5,227c0,0,30.5,6.9,26.9,36.7h-15.2l-13.6-11.2L585.5,227z"/>
	<path class="st7" d="M547,263.7l-50.3,8.5c0.1,3.7,0.3,7.8,0.7,12.1l49.6,5.1l49.6-5.1c0.4-4.3,0.7-8.3,0.7-12.1L547,263.7z"/>
	<g>
		<path class="st9" d="M505.9,188.5l-9.5-10.9c-1.9-2.2-5.4-1.3-6.1,1.5c-2.7,11-4.9,32.4,18.2,31.5l7.6-9L505.9,188.5z"/>
		<path class="st9" d="M588.1,188.5l9.5-10.9c1.9-2.2,5.4-1.3,6.1,1.5c2.7,11,4.9,32.4-18.2,31.5l-7.6-9L588.1,188.5z"/>
	</g>
	<path class="st8" d="M585.5,210.6c1.6-6.7,2.6-14,2.6-22.1h-82.1c0,8.1,1,15.4,2.6,22.1l38.5,36L585.5,210.6z"/>
	<path class="st16" d="M551.6,123c-2.3-3-6.8-3-9.1,0c-9.3,12.2-30.3,41.3-36.5,65.5c0,0,18.6,3.6,41.1,3.6
		c22.4,0,41.1-3.6,41.1-3.6C581.8,164.3,560.9,135.2,551.6,123z"/>
	<path class="st17" d="M546.9,120.7c-1.7,0-3.3,0.8-4.4,2.2c-9.3,12.2-30.3,41.3-36.5,65.5c0,0,5.3,1,13.6,2
		C524.7,166.9,536.7,140.5,546.9,120.7z"/>
	<g>
		<path class="st12" d="M527.4,206.5c-1.7,0-3.1-1.4-3.1-3.1v-3.5c0-1.7,1.4-3.1,3.1-3.1c1.7,0,3.1,1.4,3.1,3.1v3.5
			C530.5,205.1,529.1,206.5,527.4,206.5z"/>
		<path class="st12" d="M566.6,206.5c-1.7,0-3.1-1.4-3.1-3.1v-3.5c0-1.7,1.4-3.1,3.1-3.1s3.1,1.4,3.1,3.1v3.5
			C569.7,205.1,568.3,206.5,566.6,206.5z"/>
	</g>
	<g>
		<path class="st13" d="M596.6,284.3c0,0.2,0,0.5-0.1,0.7c-0.5,5.3-5,9.4-10.4,9.4h-78.2c-5.4,0-9.9-4.1-10.4-9.4
			c0-0.2,0-0.5-0.1-0.7H596.6z"/>
		<path class="st13" d="M597.3,272.2H496.7c-0.9-40.1,16-48.7,16-48.7h68.6C581.3,223.4,598.2,232.1,597.3,272.2z"/>
	</g>
	<path class="st7" d="M511.8,285c0-0.2,0-0.5-0.1-0.7c-0.4-4.3-0.7-8.3-0.7-12.1c0-0.8,0-1.6,0-2.4l-14.3,2.4c0,0.9,0.1,1.9,0.1,2.9
		s0.1,2,0.2,3c0.1,1.5,0.2,3.1,0.4,4.6c0,0.5,0.1,1.1,0.2,1.6l14.5,1.5C511.9,285.5,511.8,285.2,511.8,285z"/>
	<g>
		<path class="st7" d="M496.7,272.2H511l0,0c-0.9-40.1,16-48.7,16-48.7h-14.3c0,0-6.9,3.6-11.7,16.7c-0.1,0.3-0.2,0.6-0.3,1
			c-0.5,1.3-0.9,2.7-1.3,4.3c-0.4,1.5-0.8,3.1-1.1,4.8c-0.2,0.9-0.3,1.7-0.5,2.6c-0.4,2.3-0.6,4.7-0.8,7.3c-0.2,2.6-0.3,5.4-0.3,8.4
			C496.6,269.7,496.7,270.9,496.7,272.2L496.7,272.2z"/>
		<path class="st7" d="M522.2,294.4c-5.4,0-9.9-4.1-10.4-9.4c0-0.2,0-0.5-0.1-0.7h-14.3c0,0.2,0,0.5,0.1,0.7c0,0.3,0.1,0.7,0.1,1
			c1,4.8,5.2,8.4,10.3,8.4L522.2,294.4L522.2,294.4z"/>
	</g>
	<path class="st14" d="M585.5,210.6c-9,37.2-38.5,53.2-38.5,53.2s-29.5-16-38.5-53.2c13,9,25.7,0,25.7,0h25.5
		C559.8,210.6,572.5,219.6,585.5,210.6z"/>
	<path class="st15" d="M547,219.7c13.7,7.8,18.3,1.1,18.3,1.1c-7.6-1.2,0-18.6-18.3-13.6c-18.3-5-10.7,12.4-18.3,13.6
		C528.7,220.7,533.3,227.5,547,219.7z"/>
</g>
<g>
	<g>
		<path class="st6" d="M505.2,543.6l-10.4,6.7c-4.6,0-8.3,3.7-8.3,8.3v6.6h23.1c3.3,0,6-2.7,6-6v-8.9L505.2,543.6z"/>
		<path class="st6" d="M552.2,543.6l10.4,6.7c4.6,0,8.3,3.7,8.3,8.3v6.6h-23.1c-3.3,0-6-2.7-6-6v-8.9L552.2,543.6z"/>
	</g>
	<g>
		<rect x="494.8" y="523.4" class="st7" width="20.8" height="27"/>
		<rect x="541.8" y="523.4" class="st7" width="20.8" height="27"/>
	</g>
	<path class="st8" d="M463.3,504.8c-8.1,15.6,6.8,20.6,15.5,16.4l7.7-13.9l-5-12.1L463.3,504.8z"/>
	<path class="st9" d="M471.5,504.8l11.4-6.1l-1.5-3.6l-18.1,9.6c-7.4,14.2,4.5,19.7,13.2,17.2C470.5,520.3,466.3,514.7,471.5,504.8z
		"/>
	<path class="st8" d="M594.1,504.8c8.1,15.6-6.8,20.6-15.5,16.4l-7.7-13.9l5-12.1L594.1,504.8z"/>
	<path class="st8" d="M490.2,468.1c0,0-30.5,6.9-26.9,36.7h15.2l13.6-11.2L490.2,468.1z"/>
	<path class="st8" d="M490.4,471l-0.2-3c0,0-30.5,6.9-26.9,36.7h8.2C469.1,485,481.6,475.3,490.4,471z"/>
	<path class="st8" d="M567.2,468.1c0,0,30.5,6.9,26.9,36.7h-15.2l-13.6-11.2L567.2,468.1z"/>
	<path class="st7" d="M528.7,504.8l-50.3,8.5c0.1,3.7,0.3,7.8,0.7,12.1l49.6,5.1l49.6-5.1c0.4-4.3,0.7-8.3,0.7-12.1L528.7,504.8z"/>
	<g>
		<path class="st9" d="M487.6,429.5l-9.5-10.9c-1.9-2.2-5.4-1.3-6.1,1.5c-2.7,11-4.9,32.4,18.2,31.5l7.6-9L487.6,429.5z"/>
		<path class="st9" d="M569.8,429.5l9.5-10.9c1.9-2.2,5.4-1.3,6.1,1.5c2.7,11,4.9,32.4-18.2,31.5l-7.6-9L569.8,429.5z"/>
	</g>
	<path class="st8" d="M567.2,451.6c1.6-6.7,2.6-14,2.6-22.1h-82.1c0,8.1,1,15.4,2.6,22.1l38.5,36L567.2,451.6z"/>
	<path class="st18" d="M533.3,364.1c-2.3-3-6.8-3-9.1,0c-9.3,12.2-30.3,41.3-36.5,65.5c0,0,18.6,3.6,41.1,3.6
		c22.4,0,41.1-3.6,41.1-3.6C563.5,405.4,542.6,376.2,533.3,364.1z"/>
	<path class="st19" d="M528.6,361.8c-1.7,0-3.3,0.8-4.4,2.2c-9.3,12.2-30.3,41.3-36.5,65.5c0,0,5.3,1,13.6,2
		C506.4,408,518.4,381.5,528.6,361.8z"/>
	<g>
		<path class="st12" d="M509.1,447.5c-1.7,0-3.1-1.4-3.1-3.1v-3.5c0-1.7,1.4-3.1,3.1-3.1c1.7,0,3.1,1.4,3.1,3.1v3.5
			C512.2,446.1,510.8,447.5,509.1,447.5z"/>
		<path class="st12" d="M548.3,447.5c-1.7,0-3.1-1.4-3.1-3.1v-3.5c0-1.7,1.4-3.1,3.1-3.1s3.1,1.4,3.1,3.1v3.5
			C551.4,446.1,550,447.5,548.3,447.5z"/>
	</g>
	<g>
		<path class="st13" d="M578.3,525.3c0,0.2,0,0.5-0.1,0.7c-0.5,5.3-5,9.4-10.4,9.4h-78.2c-5.4,0-9.9-4.1-10.4-9.4
			c0-0.2,0-0.5-0.1-0.7H578.3z"/>
		<path class="st13" d="M579,513.2H478.4c-0.9-40.1,16-48.7,16-48.7H563C563,464.5,579.9,473.2,579,513.2z"/>
	</g>
	<path class="st7" d="M493.5,526c0-0.2,0-0.5-0.1-0.7c-0.4-4.3-0.7-8.3-0.7-12.1c0-0.8,0-1.6,0-2.4l-14.3,2.4c0,0.9,0.1,1.9,0.1,2.9
		c0,1,0.1,2,0.2,3c0.1,1.5,0.2,3.1,0.4,4.6c0,0.5,0.1,1.1,0.2,1.6l14.5,1.5C493.6,526.6,493.6,526.3,493.5,526z"/>
	<g>
		<path class="st7" d="M478.4,513.2h14.3l0,0c-0.9-40.1,16-48.7,16-48.7h-14.3c0,0-6.9,3.6-11.7,16.7c-0.1,0.3-0.2,0.6-0.3,1
			c-0.5,1.3-0.9,2.7-1.3,4.3c-0.4,1.5-0.8,3.1-1.1,4.8c-0.2,0.9-0.3,1.7-0.5,2.6c-0.4,2.3-0.6,4.7-0.8,7.3c-0.2,2.6-0.3,5.4-0.3,8.4
			C478.3,510.8,478.4,512,478.4,513.2L478.4,513.2z"/>
		<path class="st7" d="M503.9,535.4c-5.4,0-9.9-4.1-10.4-9.4c0-0.2,0-0.5-0.1-0.7h-14.3c0,0.2,0,0.5,0.1,0.7c0,0.3,0.1,0.7,0.1,1
			c1,4.8,5.2,8.4,10.3,8.4L503.9,535.4L503.9,535.4z"/>
	</g>
	<path class="st14" d="M567.2,451.6c-9,37.2-38.5,53.2-38.5,53.2s-29.5-16-38.5-53.2c13,9,25.7,0,25.7,0h25.5
		C541.5,451.6,554.2,460.6,567.2,451.6z"/>
	<path class="st15" d="M528.7,460.7c13.7,7.8,18.3,1.1,18.3,1.1c-7.6-1.2,0-18.6-18.3-13.6c-18.3-5-10.7,12.4-18.3,13.6
		C510.4,461.8,515,468.6,528.7,460.7z"/>
</g>
<g>
	<g>
		<path class="st6" d="M348.3,677.3l-10.4,6.7c-4.6,0-8.3,3.7-8.3,8.3v6.6h23.1c3.3,0,6-2.7,6-6v-8.9L348.3,677.3z"/>
		<path class="st6" d="M395.2,677.3l10.4,6.7c4.6,0,8.3,3.7,8.3,8.3v6.6h-23.1c-3.3,0-6-2.7-6-6v-8.9L395.2,677.3z"/>
	</g>
	<g>
		<rect x="337.9" y="657.1" class="st7" width="20.8" height="27"/>
		<rect x="384.8" y="657.1" class="st7" width="20.8" height="27"/>
	</g>
	<path class="st8" d="M306.3,638.5c-8.1,15.6,6.8,20.6,15.5,16.4l7.7-13.9l-5-12.1L306.3,638.5z"/>
	<path class="st9" d="M314.5,638.5l11.4-6.1l-1.5-3.6l-18.1,9.6c-7.4,14.2,4.5,19.7,13.2,17.2C313.6,654,309.4,648.4,314.5,638.5z"
		/>
	<path class="st8" d="M437.2,638.5c8.1,15.6-6.8,20.6-15.5,16.4L414,641l5-12.1L437.2,638.5z"/>
	<path class="st8" d="M333.3,601.8c0,0-30.5,6.9-26.9,36.7h15.2l13.6-11.2L333.3,601.8z"/>
	<path class="st8" d="M333.5,604.8l-0.2-3c0,0-30.5,6.9-26.9,36.7h8.2C312.1,618.7,324.7,609,333.5,604.8z"/>
	<path class="st8" d="M410.3,601.8c0,0,30.5,6.9,26.9,36.7H422l-13.6-11.2L410.3,601.8z"/>
	<path class="st7" d="M371.8,638.5l-50.3,8.5c0.1,3.7,0.3,7.8,0.7,12.1l49.6,5.1l49.6-5.1c0.4-4.3,0.7-8.3,0.7-12.1L371.8,638.5z"/>
	<g>
		<path class="st9" d="M330.7,563.3l-9.5-10.9c-1.9-2.2-5.4-1.3-6.1,1.5c-2.7,11-4.9,32.4,18.2,31.5l7.6-9L330.7,563.3z"/>
		<path class="st9" d="M412.8,563.3l9.5-10.9c1.9-2.2,5.4-1.3,6.1,1.5c2.7,11,4.9,32.4-18.2,31.5l-7.6-9L412.8,563.3z"/>
	</g>
	<path class="st8" d="M410.3,585.3c1.6-6.7,2.6-14,2.6-22.1h-82.1c0,8.1,1,15.4,2.6,22.1l38.5,36L410.3,585.3z"/>
	<path class="st20" d="M376.3,497.8c-2.3-3-6.8-3-9.1,0c-9.3,12.2-30.3,41.3-36.5,65.5c0,0,18.6,3.6,41.1,3.6s41.1-3.6,41.1-3.6
		C406.6,539.1,385.6,509.9,376.3,497.8z"/>
	<path class="st21" d="M371.7,495.5c-1.7,0-3.3,0.8-4.4,2.2c-9.3,12.2-30.3,41.3-36.5,65.5c0,0,5.3,1,13.6,2
		C349.5,541.7,361.5,515.2,371.7,495.5z"/>
	<g>
		<path class="st12" d="M352.2,581.2c-1.7,0-3.1-1.4-3.1-3.1v-3.5c0-1.7,1.4-3.1,3.1-3.1c1.7,0,3.1,1.4,3.1,3.1v3.5
			C355.2,579.9,353.9,581.2,352.2,581.2z"/>
		<path class="st12" d="M391.4,581.2c-1.7,0-3.1-1.4-3.1-3.1v-3.5c0-1.7,1.4-3.1,3.1-3.1s3.1,1.4,3.1,3.1v3.5
			C394.4,579.9,393.1,581.2,391.4,581.2z"/>
	</g>
	<g>
		<path class="st13" d="M421.3,659c0,0.2,0,0.5-0.1,0.7c-0.5,5.3-5,9.4-10.4,9.4h-78.2c-5.4,0-9.9-4.1-10.4-9.4c0-0.2,0-0.5-0.1-0.7
			H421.3z"/>
		<path class="st13" d="M422.1,647H321.4c-0.9-40.1,16-48.7,16-48.7h68.6C406.1,598.2,423,606.9,422.1,647z"/>
	</g>
	<path class="st7" d="M336.6,659.7c0-0.2,0-0.5-0.1-0.7c-0.4-4.3-0.7-8.3-0.7-12.1c0-0.8,0-1.6,0-2.4l-14.3,2.4
		c0,0.9,0.1,1.9,0.1,2.9s0.1,2,0.2,3c0.1,1.5,0.2,3.1,0.4,4.6c0,0.5,0.1,1.1,0.2,1.6l14.5,1.5C336.7,660.3,336.6,660,336.6,659.7z"
		/>
	<g>
		<path class="st7" d="M321.4,647h14.3l0,0c-0.9-40.1,16-48.7,16-48.7h-14.3c0,0-6.9,3.6-11.7,16.7c-0.1,0.3-0.2,0.6-0.3,1
			c-0.5,1.3-0.9,2.7-1.3,4.3c-0.4,1.5-0.8,3.1-1.1,4.8c-0.2,0.9-0.3,1.7-0.5,2.6c-0.4,2.3-0.6,4.7-0.8,7.3c-0.2,2.6-0.3,5.4-0.3,8.4
			C321.4,644.5,321.4,645.7,321.4,647L321.4,647z"/>
		<path class="st7" d="M347,669.2c-5.4,0-9.9-4.1-10.4-9.4c0-0.2,0-0.5-0.1-0.7h-14.3c0,0.2,0,0.5,0.1,0.7c0,0.3,0.1,0.7,0.1,1
			c1,4.8,5.2,8.4,10.3,8.4L347,669.2L347,669.2z"/>
	</g>
	<path class="st14" d="M410.3,585.3c-9,37.2-38.5,53.2-38.5,53.2s-29.5-16-38.5-53.2c13,9,25.7,0,25.7,0h25.5
		C384.5,585.3,397.3,594.3,410.3,585.3z"/>
	<path class="st15" d="M371.8,594.4c13.7,7.8,18.3,1.1,18.3,1.1c-7.6-1.2,0-18.6-18.3-13.6c-18.3-5-10.7,12.4-18.3,13.6
		C353.5,595.5,358,602.3,371.8,594.4z"/>
</g>
<g>
	<g>
		<path class="st6" d="M162.5,635.8l-10.4,6.7c-4.6,0-8.3,3.7-8.3,8.3v6.6h23.1c3.3,0,6-2.7,6-6v-8.9L162.5,635.8z"/>
		<path class="st6" d="M209.4,635.8l10.4,6.7c4.6,0,8.3,3.7,8.3,8.3v6.6H205c-3.3,0-6-2.7-6-6v-8.9L209.4,635.8z"/>
	</g>
	<g>
		<rect x="152.1" y="615.6" class="st7" width="20.8" height="27"/>
		<rect x="199" y="615.6" class="st7" width="20.8" height="27"/>
	</g>
	<path class="st8" d="M120.5,597c-8.1,15.6,6.8,20.6,15.5,16.4l7.7-13.9l-5-12.1L120.5,597z"/>
	<path class="st9" d="M128.7,597l11.4-6.1l-1.5-3.6l-18.1,9.6c-7.4,14.2,4.5,19.7,13.2,17.2C127.8,612.5,123.6,606.9,128.7,597z"/>
	<path class="st8" d="M251.4,597c8.1,15.6-6.8,20.6-15.5,16.4l-7.7-13.9l5-12.1L251.4,597z"/>
	<path class="st8" d="M147.5,560.3c0,0-30.5,6.9-26.9,36.7h15.2l13.6-11.2L147.5,560.3z"/>
	<path class="st8" d="M147.7,563.2l-0.2-3c0,0-30.5,6.9-26.9,36.7h8.2C126.3,577.2,138.9,567.5,147.7,563.2z"/>
	<path class="st8" d="M224.5,560.3c0,0,30.5,6.9,26.9,36.7h-15.2l-13.6-11.2L224.5,560.3z"/>
	<path class="st7" d="M186,597l-50.3,8.5c0.1,3.7,0.3,7.8,0.7,12.1l49.6,5.1l49.6-5.1c0.4-4.3,0.7-8.3,0.7-12.1L186,597z"/>
	<g>
		<path class="st9" d="M144.9,521.7l-9.5-10.9c-1.9-2.2-5.4-1.3-6.1,1.5c-2.7,11-4.9,32.4,18.2,31.5l7.6-9L144.9,521.7z"/>
		<path class="st9" d="M227,521.7l9.5-10.9c1.9-2.2,5.4-1.3,6.1,1.5c2.7,11,4.9,32.4-18.2,31.5l-7.6-9L227,521.7z"/>
	</g>
	<path class="st8" d="M224.5,543.8c1.6-6.7,2.6-14,2.6-22.1h-82.1c0,8.1,1,15.4,2.6,22.1l38.5,36L224.5,543.8z"/>
	<path class="st22" d="M190.5,456.3c-2.3-3-6.8-3-9.1,0c-9.3,12.2-30.3,41.3-36.5,65.5c0,0,18.6,3.6,41.1,3.6s41.1-3.6,41.1-3.6
		C220.8,497.6,199.9,468.4,190.5,456.3z"/>
	<path class="st23" d="M185.9,454c-1.7,0-3.3,0.8-4.4,2.2c-9.3,12.2-30.3,41.3-36.5,65.5c0,0,5.3,1,13.6,2
		C163.7,500.2,175.7,473.7,185.9,454z"/>
	<g>
		<path class="st12" d="M166.4,539.7c-1.7,0-3.1-1.4-3.1-3.1v-3.5c0-1.7,1.4-3.1,3.1-3.1c1.7,0,3.1,1.4,3.1,3.1v3.5
			C169.4,538.3,168.1,539.7,166.4,539.7z"/>
		<path class="st12" d="M205.6,539.7c-1.7,0-3.1-1.4-3.1-3.1v-3.5c0-1.7,1.4-3.1,3.1-3.1c1.7,0,3.1,1.4,3.1,3.1v3.5
			C208.6,538.3,207.3,539.7,205.6,539.7z"/>
	</g>
	<g>
		<path class="st13" d="M235.5,617.5c0,0.2,0,0.5-0.1,0.7c-0.5,5.3-5,9.4-10.4,9.4h-78.2c-5.4,0-9.9-4.1-10.4-9.4
			c0-0.2,0-0.5-0.1-0.7H235.5z"/>
		<path class="st13" d="M236.3,605.4H135.6c-0.9-40.1,16-48.7,16-48.7h68.6C220.3,556.7,237.2,565.4,236.3,605.4z"/>
	</g>
	<path class="st7" d="M150.8,618.2c0-0.2,0-0.5-0.1-0.7c-0.4-4.3-0.7-8.3-0.7-12.1c0-0.8,0-1.6,0-2.4l-14.3,2.4
		c0,0.9,0.1,1.9,0.1,2.9c0,1,0.1,2,0.2,3c0.1,1.5,0.2,3.1,0.4,4.6c0,0.5,0.1,1.1,0.2,1.6l14.5,1.5
		C150.9,618.8,150.8,618.5,150.8,618.2z"/>
	<g>
		<path class="st7" d="M135.6,605.4H150l0,0c-0.9-40.1,16-48.7,16-48.7h-14.3c0,0-6.9,3.6-11.7,16.7c-0.1,0.3-0.2,0.6-0.3,1
			c-0.5,1.3-0.9,2.7-1.3,4.3c-0.4,1.5-0.8,3.1-1.1,4.8c-0.2,0.9-0.3,1.7-0.5,2.6c-0.4,2.3-0.6,4.7-0.8,7.3c-0.2,2.6-0.3,5.4-0.3,8.4
			C135.6,603,135.6,604.2,135.6,605.4L135.6,605.4z"/>
		<path class="st7" d="M161.2,627.6c-5.4,0-9.9-4.1-10.4-9.4c0-0.2,0-0.5-0.1-0.7h-14.3c0,0.2,0,0.5,0.1,0.7c0,0.3,0.1,0.7,0.1,1
			c1,4.8,5.2,8.4,10.3,8.4L161.2,627.6L161.2,627.6z"/>
	</g>
	<path class="st14" d="M224.5,543.8C215.5,581,186,597,186,597s-29.5-16-38.5-53.2c13,9,25.7,0,25.7,0h25.5
		C198.7,543.8,211.5,552.8,224.5,543.8z"/>
	<path class="st15" d="M186,552.9c13.7,7.8,18.3,1.1,18.3,1.1c-7.6-1.2,0-18.6-18.3-13.6c-18.3-5-10.7,12.4-18.3,13.6
		C167.7,554,172.2,560.8,186,552.9z"/>
</g>
<g>
	<g>
		<path class="st6" d="M76.2,447.6l-10.4,6.7c-4.6,0-8.3,3.7-8.3,8.3v6.6h23.1c3.3,0,6-2.7,6-6v-8.9L76.2,447.6z"/>
		<path class="st6" d="M123.2,447.6l10.4,6.7c4.6,0,8.3,3.7,8.3,8.3v6.6h-23.1c-3.3,0-6-2.7-6-6v-8.9L123.2,447.6z"/>
	</g>
	<g>
		<rect x="65.8" y="427.3" class="st7" width="20.8" height="27"/>
		<rect x="112.8" y="427.3" class="st7" width="20.8" height="27"/>
	</g>
	<path class="st8" d="M34.3,408.7c-8.1,15.6,6.8,20.6,15.5,16.4l7.7-13.9l-5-12.1L34.3,408.7z"/>
	<path class="st9" d="M42.5,408.7l11.4-6.1l-1.5-3.6l-18.1,9.6c-7.4,14.2,4.5,19.7,13.2,17.2C41.5,424.3,37.3,418.6,42.5,408.7z"/>
	<path class="st8" d="M165.1,408.7c8.1,15.6-6.8,20.6-15.5,16.4l-7.7-13.9l5-12.1L165.1,408.7z"/>
	<path class="st8" d="M61.2,372c0,0-30.5,6.9-26.9,36.7h15.2l13.6-11.2L61.2,372z"/>
	<path class="st8" d="M61.4,375l-0.2-3c0,0-30.5,6.9-26.9,36.7h8.2C40.1,389,52.6,379.3,61.4,375z"/>
	<path class="st8" d="M138.2,372c0,0,30.5,6.9,26.9,36.7h-15.2l-13.6-11.2L138.2,372z"/>
	<path class="st7" d="M99.7,408.7l-50.3,8.5c0.1,3.7,0.3,7.8,0.7,12.1l49.6,5.1l49.6-5.1c0.4-4.3,0.7-8.3,0.7-12.1L99.7,408.7z"/>
	<g>
		<path class="st9" d="M58.6,333.5l-9.5-10.9c-1.9-2.2-5.4-1.3-6.1,1.5c-2.7,11-4.9,32.4,18.2,31.5l7.6-9L58.6,333.5z"/>
		<path class="st9" d="M140.8,333.5l9.5-10.9c1.9-2.2,5.4-1.3,6.1,1.5c2.7,11,4.9,32.4-18.2,31.5l-7.6-9L140.8,333.5z"/>
	</g>
	<path class="st8" d="M138.2,355.6c1.6-6.7,2.6-14,2.6-22.1H58.6c0,8.1,1,15.4,2.6,22.1l38.5,36L138.2,355.6z"/>
	<path class="st24" d="M104.3,268c-2.3-3-6.8-3-9.1,0c-9.3,12.2-30.3,41.3-36.5,65.5c0,0,18.6,3.6,41.1,3.6s41.1-3.6,41.1-3.6
		C134.5,309.3,113.6,280.2,104.3,268z"/>
	<path class="st25" d="M99.6,265.8c-1.7,0-3.3,0.8-4.4,2.2c-9.3,12.2-30.3,41.3-36.5,65.5c0,0,5.3,1,13.6,2
		C77.4,311.9,89.4,285.5,99.6,265.8z"/>
	<g>
		<path class="st12" d="M80.1,351.5c-1.7,0-3.1-1.4-3.1-3.1v-3.5c0-1.7,1.4-3.1,3.1-3.1s3.1,1.4,3.1,3.1v3.5
			C83.2,350.1,81.8,351.5,80.1,351.5z"/>
		<path class="st12" d="M119.3,351.5c-1.7,0-3.1-1.4-3.1-3.1v-3.5c0-1.7,1.4-3.1,3.1-3.1c1.7,0,3.1,1.4,3.1,3.1v3.5
			C122.4,350.1,121,351.5,119.3,351.5z"/>
	</g>
	<g>
		<path class="st13" d="M149.3,429.3c0,0.2,0,0.5-0.1,0.7c-0.5,5.3-5,9.4-10.4,9.4H60.6c-5.4,0-9.9-4.1-10.4-9.4
			c0-0.2,0-0.5-0.1-0.7H149.3z"/>
		<path class="st13" d="M150,417.2H49.4c-0.9-40.1,16-48.7,16-48.7H134C134,368.4,150.9,377.1,150,417.2z"/>
	</g>
	<path class="st7" d="M64.5,430c0-0.2,0-0.5-0.1-0.7c-0.4-4.3-0.7-8.3-0.7-12.1c0-0.8,0-1.6,0-2.4l-14.3,2.4c0,0.9,0.1,1.9,0.1,2.9
		c0,1,0.1,2,0.2,3c0.1,1.5,0.2,3.1,0.4,4.6c0,0.5,0.1,1.1,0.2,1.6l14.5,1.5C64.6,430.5,64.5,430.2,64.5,430z"/>
	<g>
		<path class="st7" d="M49.4,417.2h14.3l0,0c-0.9-40.1,16-48.7,16-48.7H65.4c0,0-6.9,3.6-11.7,16.7c-0.1,0.3-0.2,0.6-0.3,1
			c-0.5,1.3-0.9,2.7-1.3,4.3c-0.4,1.5-0.8,3.1-1.1,4.8c-0.2,0.9-0.3,1.7-0.5,2.6c-0.4,2.3-0.6,4.7-0.8,7.3c-0.2,2.6-0.3,5.4-0.3,8.4
			C49.3,414.7,49.3,415.9,49.4,417.2L49.4,417.2z"/>
		<path class="st7" d="M74.9,439.4c-5.4,0-9.9-4.1-10.4-9.4c0-0.2,0-0.5-0.1-0.7H50.1c0,0.2,0,0.5,0.1,0.7c0,0.3,0.1,0.7,0.1,1
			c1,4.8,5.2,8.4,10.3,8.4L74.9,439.4L74.9,439.4z"/>
	</g>
	<path class="st14" d="M138.2,355.6c-9,37.2-38.5,53.2-38.5,53.2s-29.5-16-38.5-53.2c13,9,25.7,0,25.7,0h25.5
		C112.5,355.6,125.2,364.6,138.2,355.6z"/>
	<path class="st15" d="M99.7,364.7c13.7,7.8,18.3,1.1,18.3,1.1c-7.6-1.2,0-18.6-18.3-13.6c-18.3-5-10.7,12.4-18.3,13.6
		C81.4,365.7,86,372.5,99.7,364.7z"/>
</g>
<g>
	<g>
		<path class="st6" d="M193.4,286.6l-10.4,6.7c-4.6,0-8.3,3.7-8.3,8.3v6.6h23.1c3.3,0,6-2.7,6-6v-8.9L193.4,286.6z"/>
		<path class="st6" d="M240.4,286.6l10.4,6.7c4.6,0,8.3,3.7,8.3,8.3v6.6h-23.1c-3.3,0-6-2.7-6-6v-8.9L240.4,286.6z"/>
	</g>
	<g>
		<rect x="183" y="266.3" class="st7" width="20.8" height="27"/>
		<rect x="230" y="266.3" class="st7" width="20.8" height="27"/>
	</g>
	<path class="st8" d="M151.5,247.7c-8.1,15.6,6.8,20.6,15.5,16.4l7.7-13.9l-5-12.1L151.5,247.7z"/>
	<path class="st9" d="M159.7,247.7l11.4-6.1l-1.5-3.6l-18.1,9.6c-7.4,14.2,4.5,19.7,13.2,17.2C158.7,263.3,154.5,257.6,159.7,247.7z
		"/>
	<path class="st8" d="M282.3,247.7c8.1,15.6-6.8,20.6-15.5,16.4l-7.7-13.9l5-12.1L282.3,247.7z"/>
	<path class="st8" d="M178.4,211c0,0-30.5,6.9-26.9,36.7h15.2l13.6-11.2L178.4,211z"/>
	<path class="st8" d="M178.6,214l-0.2-3c0,0-30.5,6.9-26.9,36.7h8.2C157.3,228,169.8,218.3,178.6,214z"/>
	<path class="st8" d="M255.4,211c0,0,30.5,6.9,26.9,36.7h-15.2l-13.6-11.2L255.4,211z"/>
	<path class="st7" d="M216.9,247.7l-50.3,8.5c0.1,3.7,0.3,7.8,0.7,12.1l49.6,5.1l49.6-5.1c0.4-4.3,0.7-8.3,0.7-12.1L216.9,247.7z"/>
	<g>
		<path class="st9" d="M175.8,172.5l-9.5-10.9c-1.9-2.2-5.4-1.3-6.1,1.5c-2.7,11-4.9,32.4,18.2,31.5l7.6-9L175.8,172.5z"/>
		<path class="st9" d="M258,172.5l9.5-10.9c1.9-2.2,5.4-1.3,6.1,1.5c2.7,11,4.9,32.4-18.2,31.5l-7.6-9L258,172.5z"/>
	</g>
	<path class="st8" d="M255.4,194.6c1.6-6.7,2.6-14,2.6-22.1h-82.1c0,8.1,1,15.4,2.6,22.1l38.5,36L255.4,194.6z"/>
	<path class="st26" d="M221.4,107c-2.3-3-6.8-3-9.1,0c-9.3,12.2-30.3,41.3-36.5,65.5c0,0,18.6,3.6,41.1,3.6s41.1-3.6,41.1-3.6
		C251.7,148.3,230.8,119.2,221.4,107z"/>
	<path class="st27" d="M216.8,104.7c-1.7,0-3.3,0.8-4.4,2.2c-9.3,12.2-30.3,41.3-36.5,65.5c0,0,5.3,1,13.6,2
		C194.6,150.9,206.6,124.5,216.8,104.7z"/>
	<g>
		<path class="st12" d="M197.3,190.4c-1.7,0-3.1-1.4-3.1-3.1v-3.5c0-1.7,1.4-3.1,3.1-3.1s3.1,1.4,3.1,3.1v3.5
			C200.4,189.1,199,190.4,197.3,190.4z"/>
		<path class="st12" d="M236.5,190.4c-1.7,0-3.1-1.4-3.1-3.1v-3.5c0-1.7,1.4-3.1,3.1-3.1c1.7,0,3.1,1.4,3.1,3.1v3.5
			C239.6,189.1,238.2,190.4,236.5,190.4z"/>
	</g>
	<g>
		<path class="st13" d="M266.5,268.3c0,0.2,0,0.5-0.1,0.7c-0.5,5.3-5,9.4-10.4,9.4h-78.2c-5.4,0-9.9-4.1-10.4-9.4
			c0-0.2,0-0.5-0.1-0.7H266.5z"/>
		<path class="st13" d="M267.2,256.2H166.6c-0.9-40.1,16-48.7,16-48.7h68.6C251.2,207.4,268.1,216.1,267.2,256.2z"/>
	</g>
	<path class="st7" d="M181.7,269c0-0.2,0-0.5-0.1-0.7c-0.4-4.3-0.7-8.3-0.7-12.1c0-0.8,0-1.6,0-2.4l-14.3,2.4c0,0.9,0.1,1.9,0.1,2.9
		c0,1,0.1,2,0.2,3c0.1,1.5,0.2,3.1,0.4,4.6c0,0.5,0.1,1.1,0.2,1.6l14.5,1.5C181.8,269.5,181.7,269.2,181.7,269z"/>
	<g>
		<path class="st7" d="M166.6,256.2h14.3l0,0c-0.9-40.1,16-48.7,16-48.7h-14.3c0,0-6.9,3.6-11.7,16.7c-0.1,0.3-0.2,0.6-0.3,1
			c-0.5,1.3-0.9,2.7-1.3,4.3c-0.4,1.5-0.8,3.1-1.1,4.8c-0.2,0.9-0.3,1.7-0.5,2.6c-0.4,2.3-0.6,4.7-0.8,7.3c-0.2,2.6-0.3,5.4-0.3,8.4
			C166.5,253.7,166.5,254.9,166.6,256.2L166.6,256.2z"/>
		<path class="st7" d="M192.1,278.4c-5.4,0-9.9-4.1-10.4-9.4c0-0.2,0-0.5-0.1-0.7h-14.3c0,0.2,0,0.5,0.1,0.7c0,0.3,0.1,0.7,0.1,1
			c1,4.8,5.2,8.4,10.3,8.4L192.1,278.4L192.1,278.4z"/>
	</g>
	<path class="st14" d="M255.4,194.6c-9,37.2-38.5,53.2-38.5,53.2s-29.5-16-38.5-53.2c13,9,25.7,0,25.7,0h25.5
		C229.7,194.6,242.4,203.6,255.4,194.6z"/>
	<path class="st15" d="M216.9,203.6c13.7,7.8,18.3,1.1,18.3,1.1c-7.6-1.2,0-18.6-18.3-13.6c-18.3-5-10.7,12.4-18.3,13.6
		C198.6,204.7,203.2,211.5,216.9,203.6z"/>
</g>
</svg>
