<?xml version="1.0"?>
<svg xmlns="http://www.w3.org/2000/svg" xmlns:xlink="http://www.w3.org/1999/xlink" version="1.1" id="Capa_1" x="0px" y="0px" viewBox="0 0 512.004 512.004" style="enable-background:new 0 0 512.004 512.004;" xml:space="preserve" width="512px" height="512px" class=""><g><polygon style="fill:#E0E3E6;" points="442.868,102.603 493.617,67.817 512.004,0.002 415.529,75.264 " data-original="#E0E3E6" class=""/><polygon style="fill:#F5F5F6;" points="512.004,0.002 512.004,0.002 444.19,18.389 409.404,69.138 426.136,85.87 " data-original="#F5F5F6" class=""/><polygon style="fill:#B45600" points="415.529,75.264 16.736,495.27 33.469,512.002 442.868,102.603 442.868,102.603   442.868,102.603 " data-original="#B45600" class=""/><rect x="201.233" y="-7.294" transform="matrix(-0.7071 -0.7071 0.7071 -0.7071 164.1826 632.394)" style="fill:#E47500" width="23.663" height="578.974" data-original="#E47500" class=""/><path style="fill:#E0E3E6;" d="M426.136,85.87l-16.732-16.732L426.136,85.87z" data-original="#E0E3E6" class=""/><polygon style="fill:#C7C5CA;" points="449.239,130.186 470.452,108.973 436.742,75.264 415.529,75.264 415.529,96.477 " data-original="#C7C5CA"/><g>
	
		<rect x="385.441" y="54.008" transform="matrix(-0.7071 -0.7071 0.7071 -0.7071 649.8824 407.2065)" style="fill:#E0E3E6;" width="47.672" height="30" data-original="#E0E3E6" class=""/>
	<polygon style="fill:#E0E3E6;" points="102.605,69.138 67.819,18.389 0.004,0.002 75.266,96.477  " data-original="#E0E3E6" class=""/>
</g><polygon style="fill:#F5F5F6;" points="0.004,0.002 0.004,0.002 18.391,67.817 69.14,102.602 85.872,85.87 " data-original="#F5F5F6" class=""/><polygon style="fill:#B45600" points="75.266,96.477 495.272,495.27 512.004,478.537 102.605,69.138 102.605,69.138   102.605,69.138 " data-original="#B45600" class=""/><rect x="270.375" y="9.447" transform="matrix(-0.7071 0.7071 -0.7071 -0.7071 693.1343 310.7633)" style="fill:#E47500" width="23.663" height="578.974" data-original="#E47500" class=""/><path style="fill:#FFB629;" d="M256.263,120.016l-20.016,181.518l20.016,181.518c100.25,0,181.518-81.268,181.518-181.518  S356.512,120.016,256.263,120.016z" data-original="#FFB629" class=""/><path style="fill:#FFD37D;" d="M74.745,301.534c0,100.25,81.268,181.518,181.518,181.518V120.016  C156.013,120.016,74.745,201.285,74.745,301.534z" data-original="#FFD37D" class=""/><path style="fill:#B45600" d="M256.263,203.326l-20.016,98.209l20.016,98.209c54.239,0,98.209-43.969,98.209-98.209  S310.502,203.326,256.263,203.326z" data-original="#39C453" class="active-path" data-old_color="#B68862"/><path style="fill:#E47500" d="M158.054,301.534c0,54.239,43.969,98.209,98.209,98.209V203.326  C202.024,203.326,158.054,247.295,158.054,301.534z" data-original="#87E694" class="" data-old_color="#B45600"/><rect x="142.361" y="185.52" transform="matrix(-0.7071 -0.7071 0.7071 -0.7071 125.3467 457.1896)" style="fill:#F5F5F6;" width="30" height="34.23" data-original="#F5F5F6" class=""/><rect x="340.158" y="383.311" transform="matrix(-0.7071 -0.7071 0.7071 -0.7071 323.1476 934.7048)" style="fill:#E0E3E6;" width="30" height="34.23" data-original="#E0E3E6" class=""/><rect x="101.394" y="284.422" style="fill:#F5F5F6;" width="30" height="34.23" data-original="#F5F5F6" class=""/><rect x="381.124" y="284.422" style="fill:#E0E3E6;" width="30" height="34.23" data-original="#E0E3E6" class=""/><rect x="140.251" y="385.422" transform="matrix(-0.7071 -0.7071 0.7071 -0.7071 -14.5004 794.8376)" style="fill:#F5F5F6;" width="34.23" height="30" data-original="#F5F5F6" class=""/><g>
	
		<rect x="338.05" y="187.632" transform="matrix(-0.7071 -0.7071 0.7071 -0.7071 463.0218 597.0538)" style="fill:#E0E3E6;" width="34.23" height="30" data-original="#E0E3E6" class=""/>
	<path style="fill:#E0E3E6;" d="M297.188,301.534c0-22.603-18.323-40.926-40.926-40.926l-20.016,40.926l20.016,40.926   C278.865,342.46,297.188,324.137,297.188,301.534z" data-original="#E0E3E6" class=""/>
</g><g>
	<path style="fill:#F5F5F6;" d="M215.337,301.534c0,22.603,18.323,40.926,40.926,40.926v-81.851   C233.66,260.609,215.337,278.932,215.337,301.534z" data-original="#F5F5F6" class=""/>
	<rect x="239.144" y="146.672" style="fill:#F5F5F6;" width="34.23" height="30" data-original="#F5F5F6" class=""/>
	<rect x="239.144" y="426.402" style="fill:#F5F5F6;" width="34.23" height="30" data-original="#F5F5F6" class=""/>
</g><path style="fill:#E0E3E6;" d="M85.872,85.87L69.14,102.602L85.872,85.87z" data-original="#E0E3E6" class=""/><polygon style="fill:#C7C5CA;" points="130.188,62.767 108.975,41.554 75.266,75.264 75.266,96.477 96.479,96.477 " data-original="#C7C5CA"/><rect x="45.183" y="87.721" transform="matrix(-0.7071 0.7071 -0.7071 -0.7071 190.4575 126.5525)" style="fill:#E0E3E6;" width="47.672" height="30" data-original="#E0E3E6" class=""/></g> </svg>
