<?xml version="1.0" encoding="UTF-8" standalone="no"?>
<!-- Generator: Adobe Illustrator 19.0.0, SVG Export Plug-In . SVG Version: 6.00 Build 0)  -->

<svg
   xmlns:dc="http://purl.org/dc/elements/1.1/"
   xmlns:cc="http://creativecommons.org/ns#"
   xmlns:rdf="http://www.w3.org/1999/02/22-rdf-syntax-ns#"
   xmlns:svg="http://www.w3.org/2000/svg"
   xmlns="http://www.w3.org/2000/svg"
   xmlns:sodipodi="http://sodipodi.sourceforge.net/DTD/sodipodi-0.dtd"
   xmlns:inkscape="http://www.inkscape.org/namespaces/inkscape"
   version="1.1"
   id="Capa_1"
   x="0px"
   y="0px"
   viewBox="0 0 512 512"
   style="enable-background:new 0 0 512 512;"
   xml:space="preserve"
   sodipodi:docname="wrestling.svg"
   inkscape:version="0.92.4 (5da689c313, 2019-01-14)"><metadata
   id="metadata71"><rdf:RDF><cc:Work
       rdf:about=""><dc:format>image/svg+xml</dc:format><dc:type
         rdf:resource="http://purl.org/dc/dcmitype/StillImage" /></cc:Work></rdf:RDF></metadata><defs
   id="defs69" /><sodipodi:namedview
   pagecolor="#ffffff"
   bordercolor="#666666"
   borderopacity="1"
   objecttolerance="10"
   gridtolerance="10"
   guidetolerance="10"
   inkscape:pageopacity="0"
   inkscape:pageshadow="2"
   inkscape:window-width="1600"
   inkscape:window-height="837"
   id="namedview67"
   showgrid="false"
   inkscape:zoom="1.05"
   inkscape:cx="256"
   inkscape:cy="286.76923"
   inkscape:window-x="-8"
   inkscape:window-y="-8"
   inkscape:window-maximized="1"
   inkscape:current-layer="Capa_1" />
<polygon
   style="fill:#FF8D7E;"
   points="391.5,192.997 256,192.997 236,185.497 256,177.997 391.5,177.997 "
   id="polygon2" />
<rect
   x="120.5"
   y="178"
   style="fill:#FFB4A9;"
   width="135.5"
   height="15"
   id="rect4" />
<path
   style="fill:#FF8D7E;"
   d="M120.5,135.497v-90c24.853,0,45,20.147,45,45S145.353,135.497,120.5,135.497z"
   id="path6" />
<path
   style="fill:#FFB4A9;"
   d="M135.5,90.497c0,24.853-6.716,45-15,45c-24.853,0-45-20.147-45-45s20.147-45,45-45  C128.784,45.497,135.5,65.644,135.5,90.497z"
   id="path8" />
<path
   style="fill:#FF8D7E;"
   d="M228.767,451.887l-23.354-7.785l20.282-78.229c0.804-3.1-0.45-6.368-3.12-8.136l-90.65-60  l-8.279,12.508l86.186,57.046l-20.696,79.827c-0.996,3.842,1.178,7.754,4.89,8.989c-0.002,0.01,29.998,10.01,29.998,10.01  c3.929,1.306,8.177-0.814,9.487-4.743C234.82,457.445,232.696,453.197,228.767,451.887z"
   id="path10" />
<path
   style="fill:#FFB4A9;"
   d="M83,269.029v126.112L5.064,421.909C2.034,422.95,0,425.8,0,429.003v30c0,4.143,3.358,7.5,7.5,7.5  s7.5-3.357,7.5-7.5v-24.646l77.936-26.768c3.03-1.041,5.064-3.891,5.064-7.094V269.029H83z"
   id="path12" />
<path
   style="fill:#999999"
   d="M145.5,165.497h-30l5,165c24.853,0,45-20.147,45-45v-100  C165.5,174.451,156.546,165.497,145.5,165.497z"
   id="path14" />
<path
   style="fill:#cccccc;fill-opacity:1"
   d="M115.5,165.497h-20c-11.046,0-20,8.954-20,20v100c0,24.853,20.147,45,45,45c8.284,0,15-20.147,15-45  v-100C135.5,174.451,126.546,165.497,115.5,165.497z"
   id="path16" />
<path
   style="fill:#FFB4A9;"
   d="M225.5,232.997h-90c-20.678,0-37.5-16.822-37.5-37.5c0-4.143,3.358-7.5,7.5-7.5s7.5,3.357,7.5,7.5  c0,12.406,10.093,22.5,22.5,22.5h90c4.142,0,7.5,3.357,7.5,7.5S229.642,232.997,225.5,232.997z"
   id="path18" />
<path
   style="fill:#FF6753;"
   d="M391.5,135.497v-90c24.853,0,45,20.147,45,45S416.353,135.497,391.5,135.497z"
   id="path20" />
<g
   id="g26">
	<path
   style="fill:#FF8D7E;"
   d="M406.5,90.497c0,24.853-6.716,45-15,45c-24.853,0-45-20.147-45-45s20.147-45,45-45   C399.784,45.497,406.5,65.644,406.5,90.497z"
   id="path22" />
	<path
   style="fill:#FF8D7E;"
   d="M322.865,447.119l-20.696-79.827l86.187-57.046l-8.279-12.508l-90.65,60   c-2.671,1.768-3.924,5.036-3.12,8.136l20.282,78.227l-23.354,7.785c-3.93,1.31-6.053,5.558-4.743,9.487   c1.311,3.93,5.557,6.054,9.487,4.743l30-10C321.744,454.861,323.842,450.907,322.865,447.119z"
   id="path24" />
</g>
<path
   style="fill:#FF6753;"
   d="M506.937,421.909L429,395.142V269.029h-15v131.467c0,3.203,2.034,6.053,5.063,7.094L497,434.357  v24.646c0,4.143,3.357,7.5,7.5,7.5s7.5-3.357,7.5-7.5v-30C512,425.8,509.966,422.95,506.937,421.909z"
   id="path28" />
<path
   style="fill:#808080"
   d="M416.5,165.497h-30l5,162.5c24.853,0,45-20.147,45-45v-97.5  C436.5,174.451,427.546,165.497,416.5,165.497z"
   id="path30" />
<path
   style="fill:#b3b3b3"
   d="M386.5,165.497h-20c-11.046,0-20,8.954-20,20v97.5c0,24.853,20.147,45,45,45c8.284,0,15-20.147,15-45  v-97.5C406.5,174.451,397.546,165.497,386.5,165.497z"
   id="path32" />
<path
   style="fill:#FF6753;"
   d="M376.5,232.997h-90c-4.143,0-7.5-3.357-7.5-7.5s3.357-7.5,7.5-7.5h90c12.406,0,22.5-10.094,22.5-22.5  c0-4.143,3.357-7.5,7.5-7.5s7.5,3.357,7.5,7.5C414,216.175,397.178,232.997,376.5,232.997z"
   id="path34" />
<g
   id="g36">
</g>
<g
   id="g38">
</g>
<g
   id="g40">
</g>
<g
   id="g42">
</g>
<g
   id="g44">
</g>
<g
   id="g46">
</g>
<g
   id="g48">
</g>
<g
   id="g50">
</g>
<g
   id="g52">
</g>
<g
   id="g54">
</g>
<g
   id="g56">
</g>
<g
   id="g58">
</g>
<g
   id="g60">
</g>
<g
   id="g62">
</g>
<g
   id="g64">
</g>
</svg>