<svg height="512pt" viewBox="-106 0 512 512" width="512pt" xmlns="http://www.w3.org/2000/svg"><path d="m229.5 364.101562-20.699219-63.101562h-171.601562l-20.699219 63.101562c-11.699219 34.796876-6 71.699219 15.300781 101.398438 21.597657 29.398438 54.597657 46.5 91.199219 46.5 36.597656 0 69.597656-17.101562 91.199219-46.5 21.300781-29.699219 27-66.601562 15.300781-101.398438zm-76.199219 57.296876c-3.300781 4.800781-13.203125 15.601562-30.300781 15.601562-17.101562 0-27.003906-10.800781-30.300781-15.601562-3.300781-4.5-10.5-17.097657-5.097657-33.597657l23.699219-71.800781h23.398438l23.699219 71.800781c5.402343 16.5-1.800782 29.097657-5.097657 33.597657zm0 0" fill="#b35f49"/><path d="m214.199219 465.5c-21.597657 29.398438-54.601563 46.5-91.199219 46.5v-75c17.101562 0 27-10.800781 30.300781-15.601562 3.300781-4.5 10.5-17.097657 5.097657-33.597657l-23.699219-71.800781h-11.699219v-15h85.800781l20.699219 63.101562c11.699219 34.796876 6 71.699219-15.300781 101.398438zm0 0" fill="#99503d"/><path d="m285 407c-49.5 0-90-41.5-90-91v-15h-75v15c0 90.898438 74.097656 166 165 166h15v-75zm0 0" fill="#c6715a"/><path d="m214.199219 46.5c-21.601563-29.398438-54.601563-46.5-91.199219-46.5-36.601562 0-69.601562 17.101562-91.199219 46.5-21.300781 29.699219-27 66.597656-15.300781 101.398438l20.699219 63.101562h171.601562l20.699219-63.101562c11.699219-34.800782 6-71.699219-15.300781-101.398438zm-55.800781 77.699219-23.699219 71.800781h-23.398438l-23.699219-71.800781c-5.402343-16.5 1.796876-29.101563 5.097657-33.601563 3.300781-4.796875 13.199219-15.597656 30.300781-15.597656 17.097656 0 27 10.800781 30.300781 15.597656 3.296875 4.5 10.5 17.101563 5.097657 33.601563zm0 0" fill="#c6715a"/><path d="m240 293.5c0 20.699219-16.800781 37.5-37.5 37.5h-165c-20.699219 0-37.5-16.800781-37.5-37.5s16.800781-37.5 37.5-37.5l62.398438-27.601562 23.101562 2.703124 47.402344 5.097657s34.199218 16.199219 32.097656 19.800781c20.699219 0 37.5 16.800781 37.5 37.5zm0 0" fill="#c6715a"/><g fill="#b35f49"><path d="m240 293.5c0 20.699219-16.800781 37.5-37.5 37.5h-79.5v-99.902344l47.398438 5.101563s34.199218 16.199219 32.101562 19.800781c20.699219 0 37.5 16.800781 37.5 37.5zm0 0"/><path d="m229.5 147.898438-20.699219 63.101562h-85.800781v-15h11.699219l23.699219-71.800781c5.398437-16.5-1.800782-29.101563-5.097657-33.601563-3.300781-4.796875-13.203125-15.597656-30.300781-15.597656v-75c36.597656 0 69.597656 17.101562 91.199219 46.5 21.300781 29.699219 27 66.597656 15.300781 101.398438zm0 0"/><path d="m202.5 181h-165c-20.699219 0-37.5 16.800781-37.5 37.5s16.800781 37.5 37.5 37.5h165c20.699219 0 37.5-16.800781 37.5-37.5s-16.800781-37.5-37.5-37.5zm0 0"/></g><path d="m202.5 256h-79.5v-75h79.5c20.699219 0 37.5 16.800781 37.5 37.5s-16.800781 37.5-37.5 37.5zm0 0" fill="#99503d"/></svg>