<?xml version="1.0" encoding="UTF-8" standalone="no"?>
<!DOCTYPE svg PUBLIC "-//W3C//DTD SVG 1.1//EN" "http://www.w3.org/Graphics/SVG/1.1/DTD/svg11.dtd">
<svg version="1.1" xmlns="http://www.w3.org/2000/svg" xmlns:xlink="http://www.w3.org/1999/xlink" preserveAspectRatio="xMidYMid meet" viewBox="0 0 640 640" width="640" height="640"><defs><path d="M316.78 42.05L316.91 42.06L317.05 42.07L317.18 42.09L317.32 42.11L317.45 42.13L317.59 42.16L317.72 42.19L317.86 42.23L317.99 42.27L318.12 42.31L318.25 42.36L318.38 42.4L318.51 42.46L318.64 42.52L318.76 42.58L318.89 42.64L319.01 42.71L319.13 42.78L555.73 186.37L556.05 186.58L556.35 186.8L556.62 187.04L556.86 187.28L557.09 187.54L557.29 187.81L557.48 188.09L557.64 188.37L557.78 188.67L557.89 188.96L557.99 189.27L558.07 189.58L558.13 189.89L558.16 190.2L558.18 190.52L558.18 190.83L558.16 191.15L558.12 191.46L558.06 191.77L557.99 192.07L557.89 192.37L557.78 192.67L557.65 192.95L557.51 193.23L557.35 193.5L557.17 193.76L556.97 194.01L556.76 194.25L556.54 194.47L556.3 194.68L556.04 194.88L555.77 195.05L555.48 195.21L555.18 195.36L554.87 195.48L554.54 195.58L554.2 195.67L553.85 195.73L553.48 195.76L553.11 195.78L79.9 195.78L79.52 195.76L79.16 195.73L78.81 195.67L78.47 195.58L78.14 195.48L77.82 195.36L77.52 195.21L77.24 195.05L76.97 194.87L76.71 194.68L76.47 194.47L76.24 194.25L76.03 194.01L75.84 193.76L75.66 193.5L75.5 193.23L75.35 192.95L75.22 192.67L75.11 192.37L75.02 192.07L74.94 191.77L74.89 191.46L74.85 191.15L74.83 190.83L74.83 190.52L74.84 190.2L74.88 189.89L74.94 189.58L75.01 189.27L75.11 188.96L75.23 188.66L75.37 188.37L75.53 188.08L75.71 187.81L75.92 187.54L76.14 187.28L76.39 187.03L76.66 186.8L76.95 186.58L77.27 186.37L313.87 42.78L313.99 42.71L314.12 42.64L314.24 42.58L314.37 42.52L314.5 42.46L314.62 42.4L314.75 42.36L314.88 42.31L315.02 42.27L315.15 42.23L315.28 42.19L315.42 42.16L315.55 42.13L315.69 42.11L315.82 42.09L315.96 42.07L316.09 42.06L316.23 42.05L316.37 42.05L316.5 42.04L316.64 42.05L316.78 42.05Z" id="haGkFs7Ns"></path><path d="M218.29 445.37L218.6 445.4L218.91 445.45L219.22 445.5L219.52 445.57L219.81 445.65L220.11 445.74L220.39 445.84L220.67 445.95L220.95 446.08L221.22 446.21L221.48 446.35L221.74 446.51L221.99 446.67L222.23 446.84L222.47 447.02L222.7 447.21L222.92 447.41L223.13 447.61L223.34 447.83L223.54 448.05L223.73 448.28L223.91 448.52L224.08 448.76L224.24 449.01L224.4 449.27L224.54 449.53L224.67 449.8L224.79 450.08L224.91 450.36L225.01 450.64L225.1 450.93L225.18 451.23L225.25 451.53L225.3 451.84L225.35 452.14L225.38 452.46L225.4 452.77L225.4 453.09L225.4 482.18L225.4 482.29L225.39 482.39L225.38 482.49L225.37 482.59L225.35 482.69L225.33 482.79L225.3 482.89L225.27 482.98L225.24 483.08L225.2 483.17L225.16 483.26L225.12 483.35L225.07 483.43L225.02 483.52L224.97 483.6L224.91 483.68L224.86 483.76L224.79 483.83L224.73 483.9L224.66 483.97L224.59 484.04L224.52 484.11L224.44 484.17L224.37 484.23L224.29 484.28L224.2 484.34L224.12 484.39L224.03 484.43L223.95 484.48L223.86 484.52L223.76 484.55L223.67 484.59L223.57 484.62L223.48 484.64L223.38 484.67L223.28 484.68L223.18 484.7L223.08 484.71L222.97 484.71L222.87 484.72L138.48 484.72L138.37 484.71L138.27 484.71L138.17 484.7L138.07 484.68L137.97 484.67L137.87 484.64L137.77 484.62L137.68 484.59L137.58 484.55L137.49 484.52L137.4 484.48L137.31 484.43L137.23 484.39L137.14 484.34L137.06 484.28L136.98 484.23L136.9 484.17L136.83 484.11L136.75 484.04L136.68 483.97L136.62 483.9L136.55 483.83L136.49 483.76L136.43 483.68L136.37 483.6L136.32 483.52L136.27 483.43L136.22 483.35L136.18 483.26L136.14 483.17L136.1 483.08L136.07 482.98L136.04 482.89L136.02 482.79L135.99 482.69L135.98 482.59L135.96 482.49L135.95 482.39L135.94 482.29L135.94 482.18L135.94 453.09L135.95 452.77L135.97 452.46L136 452.14L136.04 451.84L136.1 451.53L136.17 451.23L136.25 450.93L136.34 450.64L136.44 450.36L136.55 450.08L136.67 449.8L136.81 449.53L136.95 449.27L137.1 449.01L137.26 448.76L137.44 448.52L137.62 448.28L137.81 448.05L138 447.83L138.21 447.61L138.42 447.41L138.65 447.21L138.88 447.02L139.11 446.84L139.36 446.67L139.61 446.51L139.86 446.35L140.13 446.21L140.4 446.08L140.67 445.95L140.95 445.84L141.24 445.74L141.53 445.65L141.83 445.57L142.13 445.5L142.43 445.45L142.74 445.4L143.05 445.37L143.37 445.35L143.69 445.35L217.66 445.35L217.98 445.35L218.29 445.37Z" id="j1VqHI0myY"></path><path d="M354.12 445.37L354.44 445.4L354.75 445.45L355.05 445.5L355.35 445.57L355.65 445.65L355.94 445.74L356.22 445.84L356.5 445.95L356.78 446.08L357.05 446.21L357.31 446.35L357.57 446.51L357.82 446.67L358.06 446.84L358.3 447.02L358.53 447.21L358.75 447.41L358.97 447.61L359.17 447.83L359.37 448.05L359.56 448.28L359.74 448.52L359.91 448.76L360.07 449.01L360.23 449.27L360.37 449.53L360.5 449.8L360.63 450.08L360.74 450.36L360.84 450.64L360.93 450.93L361.01 451.23L361.08 451.53L361.13 451.84L361.18 452.14L361.21 452.46L361.23 452.77L361.24 453.09L361.24 482.18L361.23 482.29L361.23 482.39L361.22 482.49L361.2 482.59L361.18 482.69L361.16 482.79L361.14 482.89L361.11 482.98L361.07 483.08L361.04 483.17L361 483.26L360.95 483.35L360.91 483.43L360.86 483.52L360.8 483.6L360.75 483.68L360.69 483.76L360.63 483.83L360.56 483.9L360.49 483.97L360.42 484.04L360.35 484.11L360.28 484.17L360.2 484.23L360.12 484.28L360.04 484.34L359.95 484.39L359.87 484.43L359.78 484.48L359.69 484.52L359.6 484.55L359.5 484.59L359.41 484.62L359.31 484.64L359.21 484.67L359.11 484.68L359.01 484.7L358.91 484.71L358.8 484.71L358.7 484.72L274.31 484.72L274.2 484.71L274.1 484.71L274 484.7L273.9 484.68L273.8 484.67L273.7 484.64L273.6 484.62L273.51 484.59L273.41 484.55L273.32 484.52L273.23 484.48L273.14 484.43L273.06 484.39L272.97 484.34L272.89 484.28L272.81 484.23L272.73 484.17L272.66 484.11L272.59 484.04L272.52 483.97L272.45 483.9L272.38 483.83L272.32 483.76L272.26 483.68L272.21 483.6L272.15 483.52L272.1 483.43L272.06 483.35L272.01 483.26L271.97 483.17L271.94 483.08L271.9 482.98L271.87 482.89L271.85 482.79L271.83 482.69L271.81 482.59L271.79 482.49L271.78 482.39L271.78 482.29L271.77 482.18L271.77 453.09L271.78 452.77L271.8 452.46L271.83 452.14L271.88 451.84L271.93 451.53L272 451.23L272.08 450.93L272.17 450.64L272.27 450.36L272.38 450.08L272.51 449.8L272.64 449.53L272.78 449.27L272.93 449.01L273.1 448.76L273.27 448.52L273.45 448.28L273.64 448.05L273.84 447.83L274.04 447.61L274.26 447.41L274.48 447.21L274.71 447.02L274.94 446.84L275.19 446.67L275.44 446.51L275.7 446.35L275.96 446.21L276.23 446.08L276.5 445.95L276.78 445.84L277.07 445.74L277.36 445.65L277.66 445.57L277.96 445.5L278.26 445.45L278.57 445.4L278.88 445.37L279.2 445.35L279.52 445.35L353.49 445.35L353.81 445.35L354.12 445.37Z" id="bREontG0R"></path><path d="M489.96 445.37L490.27 445.4L490.58 445.45L490.88 445.5L491.18 445.57L491.48 445.65L491.77 445.74L492.05 445.84L492.34 445.95L492.61 446.08L492.88 446.21L493.14 446.35L493.4 446.51L493.65 446.67L493.9 446.84L494.13 447.02L494.36 447.21L494.58 447.41L494.8 447.61L495 447.83L495.2 448.05L495.39 448.28L495.57 448.52L495.74 448.76L495.91 449.01L496.06 449.27L496.2 449.53L496.34 449.8L496.46 450.08L496.57 450.36L496.67 450.64L496.76 450.93L496.84 451.23L496.91 451.53L496.97 451.84L497.01 452.14L497.04 452.46L497.06 452.77L497.07 453.09L497.07 482.18L497.06 482.29L497.06 482.39L497.05 482.49L497.03 482.59L497.02 482.69L496.99 482.79L496.97 482.89L496.94 482.98L496.9 483.08L496.87 483.17L496.83 483.26L496.78 483.35L496.74 483.43L496.69 483.52L496.63 483.6L496.58 483.68L496.52 483.76L496.46 483.83L496.39 483.9L496.33 483.97L496.26 484.04L496.18 484.11L496.11 484.17L496.03 484.23L495.95 484.28L495.87 484.34L495.78 484.39L495.7 484.43L495.61 484.48L495.52 484.52L495.43 484.55L495.33 484.59L495.24 484.62L495.14 484.64L495.04 484.67L494.94 484.68L494.84 484.7L494.74 484.71L494.64 484.71L494.53 484.72L410.14 484.72L410.04 484.71L409.93 484.71L409.83 484.7L409.73 484.68L409.63 484.67L409.53 484.64L409.43 484.62L409.34 484.59L409.25 484.55L409.15 484.52L409.06 484.48L408.98 484.43L408.89 484.39L408.8 484.34L408.72 484.28L408.64 484.23L408.57 484.17L408.49 484.11L408.42 484.04L408.35 483.97L408.28 483.9L408.22 483.83L408.15 483.76L408.09 483.68L408.04 483.6L407.99 483.52L407.94 483.43L407.89 483.35L407.85 483.26L407.8 483.17L407.77 483.08L407.74 482.98L407.71 482.89L407.68 482.79L407.66 482.69L407.64 482.59L407.62 482.49L407.61 482.39L407.61 482.29L407.61 482.18L407.61 453.09L407.61 452.77L407.63 452.46L407.66 452.14L407.71 451.84L407.76 451.53L407.83 451.23L407.91 450.93L408 450.64L408.1 450.36L408.21 450.08L408.34 449.8L408.47 449.53L408.61 449.27L408.77 449.01L408.93 448.76L409.1 448.52L409.28 448.28L409.47 448.05L409.67 447.83L409.87 447.61L410.09 447.41L410.31 447.21L410.54 447.02L410.78 446.84L411.02 446.67L411.27 446.51L411.53 446.35L411.79 446.21L412.06 446.08L412.34 445.95L412.62 445.84L412.9 445.74L413.19 445.65L413.49 445.57L413.79 445.5L414.09 445.45L414.4 445.4L414.72 445.37L415.03 445.35L415.35 445.35L489.32 445.35L489.64 445.35L489.96 445.37Z" id="an7fCH8xg"></path><path d="M490.22 445.4L490.66 445.46L491.1 445.55L491.52 445.66L491.93 445.8L492.34 445.95L492.73 446.13L493.11 446.33L493.47 446.55L493.83 446.79L494.17 447.05L494.49 447.32L494.8 447.61L495.09 447.92L495.36 448.25L495.62 448.59L495.86 448.94L496.08 449.31L496.28 449.69L496.46 450.08L496.62 450.48L496.75 450.89L496.86 451.32L496.95 451.75L497.01 452.19L497.05 452.64L497.07 453.09L497.07 482.18L497.06 482.33L497.05 482.48L497.03 482.62L497 482.76L496.96 482.9L496.92 483.04L496.87 483.17L496.81 483.3L496.74 483.42L496.67 483.54L496.59 483.66L496.51 483.77L496.42 483.87L496.32 483.97L496.22 484.07L496.12 484.16L496.01 484.24L495.89 484.32L495.77 484.39L495.65 484.46L495.52 484.52L495.39 484.57L495.25 484.61L495.11 484.65L494.97 484.68L494.83 484.7L494.68 484.71L494.53 484.72L469.38 484.72L469.52 484.71L469.67 484.7L469.82 484.68L469.96 484.65L470.1 484.61L470.23 484.57L470.36 484.52L470.49 484.46L470.62 484.39L470.74 484.32L470.85 484.24L470.96 484.16L471.07 484.07L471.17 483.97L471.26 483.87L471.35 483.77L471.44 483.66L471.52 483.54L471.59 483.42L471.65 483.3L471.71 483.17L471.76 483.04L471.81 482.9L471.84 482.76L471.87 482.62L471.89 482.48L471.91 482.33L471.91 482.18L471.91 453.09L471.9 452.64L471.86 452.19L471.79 451.75L471.71 451.32L471.59 450.89L471.46 450.48L471.3 450.08L471.12 449.69L470.92 449.31L470.71 448.94L470.47 448.59L470.21 448.25L469.94 447.92L469.64 447.61L469.33 447.32L469.01 447.05L468.67 446.79L468.32 446.55L467.95 446.33L467.57 446.13L467.18 445.95L466.78 445.8L466.36 445.66L465.94 445.55L465.51 445.46L465.07 445.4L464.62 445.36L464.16 445.35L489.32 445.35L489.78 445.36L490.22 445.4Z" id="cYWv64snw"></path><path d="M354.39 445.4L354.83 445.46L355.26 445.55L355.69 445.66L356.1 445.8L356.5 445.95L356.9 446.13L357.27 446.33L357.64 446.55L357.99 446.79L358.33 447.05L358.66 447.32L358.97 447.61L359.26 447.92L359.53 448.25L359.79 448.59L360.03 448.94L360.25 449.31L360.45 449.69L360.63 450.08L360.78 450.48L360.92 450.89L361.03 451.32L361.12 451.75L361.18 452.19L361.22 452.64L361.24 453.09L361.24 482.18L361.23 482.33L361.22 482.48L361.2 482.62L361.17 482.76L361.13 482.9L361.09 483.04L361.04 483.17L360.98 483.3L360.91 483.42L360.84 483.54L360.76 483.66L360.68 483.77L360.59 483.87L360.49 483.97L360.39 484.07L360.28 484.16L360.17 484.24L360.06 484.32L359.94 484.39L359.81 484.46L359.69 484.52L359.55 484.57L359.42 484.61L359.28 484.65L359.14 484.68L359 484.7L358.85 484.71L358.7 484.72L333.55 484.72L333.7 484.71L333.84 484.7L333.99 484.68L334.13 484.65L334.27 484.61L334.4 484.57L334.53 484.52L334.66 484.46L334.78 484.39L334.9 484.32L335.02 484.24L335.13 484.16L335.24 484.07L335.34 483.97L335.43 483.87L335.52 483.77L335.61 483.66L335.68 483.54L335.76 483.42L335.82 483.3L335.88 483.17L335.93 483.04L335.98 482.9L336.01 482.76L336.04 482.62L336.06 482.48L336.07 482.33L336.08 482.18L336.08 453.09L336.07 452.64L336.03 452.19L335.96 451.75L335.87 451.32L335.76 450.89L335.63 450.48L335.47 450.08L335.29 449.69L335.09 449.31L334.87 448.94L334.64 448.59L334.38 448.25L334.1 447.92L333.81 447.61L333.5 447.32L333.18 447.05L332.84 446.79L332.49 446.55L332.12 446.33L331.74 446.13L331.35 445.95L330.95 445.8L330.53 445.66L330.11 445.55L329.68 445.46L329.24 445.4L328.79 445.36L328.33 445.35L353.49 445.35L353.94 445.36L354.39 445.4Z" id="a2hfNW95o"></path><path d="M218.56 445.4L219 445.46L219.43 445.55L219.86 445.66L220.27 445.8L220.67 445.95L221.06 446.13L221.44 446.33L221.81 446.55L222.16 446.79L222.5 447.05L222.83 447.32L223.13 447.61L223.43 447.92L223.7 448.25L223.96 448.59L224.2 448.94L224.42 449.31L224.62 449.69L224.79 450.08L224.95 450.48L225.09 450.89L225.2 451.32L225.29 451.75L225.35 452.19L225.39 452.64L225.4 453.09L225.4 482.18L225.4 482.33L225.39 482.48L225.37 482.62L225.34 482.76L225.3 482.9L225.26 483.04L225.2 483.17L225.15 483.3L225.08 483.42L225.01 483.54L224.93 483.66L224.85 483.77L224.76 483.87L224.66 483.97L224.56 484.07L224.45 484.16L224.34 484.24L224.23 484.32L224.11 484.39L223.98 484.46L223.85 484.52L223.72 484.57L223.59 484.61L223.45 484.65L223.31 484.68L223.16 484.7L223.02 484.71L222.87 484.72L197.72 484.72L197.86 484.71L198.01 484.7L198.16 484.68L198.3 484.65L198.43 484.61L198.57 484.57L198.7 484.52L198.83 484.46L198.95 484.39L199.07 484.32L199.19 484.24L199.3 484.16L199.4 484.07L199.51 483.97L199.6 483.87L199.69 483.77L199.78 483.66L199.85 483.54L199.92 483.42L199.99 483.3L200.05 483.17L200.1 483.04L200.14 482.9L200.18 482.76L200.21 482.62L200.23 482.48L200.24 482.33L200.25 482.18L200.25 453.09L200.23 452.64L200.19 452.19L200.13 451.75L200.04 451.32L199.93 450.89L199.8 450.48L199.64 450.08L199.46 449.69L199.26 449.31L199.04 448.94L198.8 448.59L198.55 448.25L198.27 447.92L197.98 447.61L197.67 447.32L197.35 447.05L197.01 446.79L196.65 446.55L196.29 446.33L195.91 446.13L195.52 445.95L195.11 445.8L194.7 445.66L194.28 445.55L193.85 445.46L193.4 445.4L192.96 445.36L192.5 445.35L217.66 445.35L218.11 445.36L218.56 445.4Z" id="a1ugbqqCE6"></path><path d="M225.39 249.13L225.34 249.86L225.27 250.59L225.17 251.3L225.04 252.01L224.88 252.7L224.7 253.39L224.49 254.06L224.25 254.72L223.99 255.37L223.71 256.01L223.4 256.63L223.07 257.24L222.72 257.84L222.34 258.42L221.94 258.98L221.53 259.53L221.09 260.06L220.63 260.57L220.15 261.07L219.66 261.55L219.14 262L218.61 262.44L218.06 262.86L217.5 263.26L216.92 263.63L216.32 263.99L215.71 264.32L215.09 264.63L214.45 264.91L213.8 265.17L213.14 265.4L212.47 265.61L211.78 265.8L211.09 265.95L210.38 266.08L209.67 266.19L208.95 266.26L208.22 266.3L207.48 266.32L153.87 266.32L153.13 266.3L152.4 266.26L151.67 266.19L150.96 266.08L150.25 265.95L149.56 265.8L148.87 265.61L148.2 265.4L147.54 265.17L146.89 264.91L146.25 264.63L145.63 264.32L145.02 263.99L144.42 263.63L143.84 263.26L143.28 262.86L142.73 262.44L142.2 262L141.69 261.55L141.19 261.07L140.71 260.57L140.26 260.06L139.82 259.53L139.4 258.98L139 258.42L138.63 257.84L138.27 257.24L137.94 256.63L137.63 256.01L137.35 255.37L137.09 254.72L136.86 254.06L136.65 253.39L136.46 252.7L136.31 252.01L136.18 251.3L136.08 250.59L136 249.86L135.96 249.13L135.94 248.39L135.94 229.57L225.4 229.57L225.4 248.39L225.39 249.13Z" id="axj1jCcpM"></path><path d="M361.22 249.13L361.18 249.86L361.1 250.59L361 251.3L360.87 252.01L360.71 252.7L360.53 253.39L360.32 254.06L360.09 254.72L359.83 255.37L359.54 256.01L359.23 256.63L358.9 257.24L358.55 257.84L358.17 258.42L357.78 258.98L357.36 259.53L356.92 260.06L356.46 260.57L355.98 261.07L355.49 261.55L354.97 262L354.44 262.44L353.9 262.86L353.33 263.26L352.75 263.63L352.16 263.99L351.55 264.32L350.92 264.63L350.29 264.91L349.64 265.17L348.97 265.4L348.3 265.61L347.62 265.8L346.92 265.95L346.22 266.08L345.5 266.19L344.78 266.26L344.05 266.3L343.31 266.32L289.7 266.32L288.96 266.3L288.23 266.26L287.51 266.19L286.79 266.08L286.09 265.95L285.39 265.8L284.71 265.61L284.03 265.4L283.37 265.17L282.72 264.91L282.08 264.63L281.46 264.32L280.85 263.99L280.26 263.63L279.68 263.26L279.11 262.86L278.56 262.44L278.03 262L277.52 261.55L277.02 261.07L276.55 260.57L276.09 260.06L275.65 259.53L275.23 258.98L274.84 258.42L274.46 257.84L274.11 257.24L273.77 256.63L273.47 256.01L273.18 255.37L272.92 254.72L272.69 254.06L272.48 253.39L272.3 252.7L272.14 252.01L272.01 251.3L271.91 250.59L271.83 249.86L271.79 249.13L271.77 248.39L271.77 229.57L361.24 229.57L361.24 248.39L361.22 249.13Z" id="l1wHTEYsjQ"></path><path d="M497.05 249.13L497.01 249.86L496.93 250.59L496.83 251.3L496.7 252.01L496.55 252.7L496.36 253.39L496.15 254.06L495.92 254.72L495.66 255.37L495.37 256.01L495.07 256.63L494.73 257.24L494.38 257.84L494 258.42L493.61 258.98L493.19 259.53L492.75 260.06L492.29 260.57L491.82 261.07L491.32 261.55L490.81 262L490.28 262.44L489.73 262.86L489.16 263.26L488.58 263.63L487.99 263.99L487.38 264.32L486.75 264.63L486.12 264.91L485.47 265.17L484.81 265.4L484.13 265.61L483.45 265.8L482.75 265.95L482.05 266.08L481.33 266.19L480.61 266.26L479.88 266.3L479.14 266.32L425.53 266.32L424.79 266.3L424.06 266.26L423.34 266.19L422.62 266.08L421.92 265.95L421.22 265.8L420.54 265.61L419.87 265.4L419.2 265.17L418.55 264.91L417.92 264.63L417.29 264.32L416.68 263.99L416.09 263.63L415.51 263.26L414.94 262.86L414.4 262.44L413.87 262L413.35 261.55L412.86 261.07L412.38 260.57L411.92 260.06L411.48 259.53L411.06 258.98L410.67 258.42L410.29 257.84L409.94 257.24L409.61 256.63L409.3 256.01L409.01 255.37L408.75 254.72L408.52 254.06L408.31 253.39L408.13 252.7L407.97 252.01L407.84 251.3L407.74 250.59L407.67 249.86L407.62 249.13L407.61 248.39L407.61 229.57L497.07 229.57L497.07 248.39L497.05 249.13Z" id="a7kBxSS1k"></path><path d="M497.04 249.45L496.95 250.48L496.8 251.5L496.59 252.5L496.33 253.48L496.02 254.44L495.66 255.37L495.24 256.28L494.78 257.15L494.28 258L493.72 258.82L493.13 259.6L492.49 260.35L491.82 261.07L491.1 261.74L490.35 262.38L489.57 262.98L488.75 263.53L487.9 264.03L487.02 264.5L486.12 264.91L485.19 265.27L484.23 265.59L483.25 265.85L482.25 266.05L481.23 266.2L480.19 266.29L479.14 266.32L455.08 266.32L456.14 266.29L457.17 266.2L458.19 266.05L459.19 265.85L460.17 265.59L461.13 265.27L462.06 264.91L462.97 264.5L463.85 264.03L464.69 263.53L465.51 262.98L466.3 262.38L467.05 261.74L467.76 261.07L468.44 260.35L469.07 259.6L469.67 258.82L470.22 258L470.73 257.15L471.19 256.28L471.6 255.37L471.97 254.44L472.28 253.48L472.54 252.5L472.74 251.5L472.89 250.48L472.98 249.45L473.01 248.39L473.01 229.57L497.07 229.57L497.07 248.39L497.04 249.45Z" id="b2jgARwRAy"></path><path d="M361.2 249.45L361.11 250.48L360.97 251.5L360.76 252.5L360.5 253.48L360.19 254.44L359.83 255.37L359.41 256.28L358.95 257.15L358.44 258L357.89 258.82L357.3 259.6L356.66 260.35L355.98 261.07L355.27 261.74L354.52 262.38L353.74 262.98L352.92 263.53L352.07 264.03L351.19 264.5L350.29 264.91L349.35 265.27L348.4 265.59L347.42 265.85L346.42 266.05L345.4 266.2L344.36 266.29L343.31 266.32L319.25 266.32L320.3 266.29L321.34 266.2L322.36 266.05L323.36 265.85L324.34 265.59L325.3 265.27L326.23 264.91L327.13 264.5L328.01 264.03L328.86 263.53L329.68 262.98L330.46 262.38L331.21 261.74L331.93 261.07L332.6 260.35L333.24 259.6L333.83 258.82L334.39 258L334.89 257.15L335.35 256.28L335.77 255.37L336.13 254.44L336.44 253.48L336.7 252.5L336.91 251.5L337.06 250.48L337.15 249.45L337.18 248.39L337.18 229.57L361.24 229.57L361.24 248.39L361.2 249.45Z" id="e15KMWZXhl"></path><path d="M225.37 249.45L225.28 250.48L225.13 251.5L224.93 252.5L224.67 253.48L224.36 254.44L223.99 255.37L223.58 256.28L223.12 257.15L222.61 258L222.06 258.82L221.46 259.6L220.83 260.35L220.15 261.07L219.44 261.74L218.69 262.38L217.9 262.98L217.09 263.53L216.24 264.03L215.36 264.5L214.45 264.91L213.52 265.27L212.57 265.59L211.59 265.85L210.59 266.05L209.57 266.2L208.53 266.29L207.48 266.32L183.42 266.32L184.47 266.29L185.51 266.2L186.53 266.05L187.53 265.85L188.51 265.59L189.47 265.27L190.4 264.91L191.3 264.5L192.18 264.03L193.03 263.53L193.85 262.98L194.63 262.38L195.38 261.74L196.1 261.07L196.77 260.35L197.41 259.6L198 258.82L198.55 258L199.06 257.15L199.52 256.28L199.94 255.37L200.3 254.44L200.61 253.48L200.87 252.5L201.08 251.5L201.22 250.48L201.31 249.45L201.34 248.39L201.34 229.57L225.4 229.57L225.4 248.39L225.37 249.45Z" id="h14V47eKQ"></path><path d="M150.73 445.35L162.13 266.32L199.21 266.32L210.62 445.35L150.73 445.35Z" id="c4WseptZB9"></path><path d="M286.56 445.35L297.96 266.32L335.04 266.32L346.45 445.35L286.56 445.35Z" id="b1DABgrys"></path><path d="M421.32 445.35L432.73 266.32L469.81 266.32L481.21 445.35L421.32 445.35Z" id="c1DZrtqpAf"></path><path d="M461.68 445.35L450.27 266.32L470.88 266.32L482.28 445.35L461.68 445.35Z" id="b11i0xSSGW"></path><path d="M325.85 445.35L314.44 266.32L335.04 266.32L346.45 445.35L325.85 445.35Z" id="dWMS2FkVs"></path><path d="M190.02 445.35L178.61 266.32L199.21 266.32L210.62 445.35L190.02 445.35Z" id="f1lOrABQVo"></path><path d="M523.07 225.62L523.06 225.79L523.04 225.95L523.02 226.12L522.99 226.28L522.95 226.44L522.91 226.6L522.86 226.75L522.81 226.9L522.75 227.05L522.68 227.2L522.61 227.34L522.53 227.48L522.45 227.62L522.37 227.75L522.28 227.88L522.18 228.01L522.08 228.13L521.97 228.25L521.86 228.36L521.75 228.47L521.63 228.58L521.51 228.68L521.38 228.77L521.25 228.87L521.12 228.95L520.98 229.03L520.84 229.11L520.7 229.18L520.55 229.24L520.4 229.3L520.25 229.36L520.1 229.41L519.94 229.45L519.78 229.48L519.62 229.51L519.45 229.54L519.29 229.55L519.12 229.57L518.95 229.57L114.06 229.57L113.89 229.57L113.72 229.55L113.55 229.54L113.39 229.51L113.23 229.48L113.07 229.45L112.91 229.41L112.75 229.36L112.6 229.3L112.45 229.24L112.31 229.18L112.16 229.11L112.02 229.03L111.89 228.95L111.75 228.87L111.62 228.77L111.5 228.68L111.37 228.58L111.26 228.47L111.14 228.36L111.03 228.25L110.93 228.13L110.83 228.01L110.73 227.88L110.64 227.75L110.55 227.62L110.47 227.48L110.4 227.34L110.32 227.2L110.26 227.05L110.2 226.9L110.14 226.75L110.1 226.6L110.05 226.44L110.02 226.28L109.99 226.12L109.97 225.95L109.95 225.79L109.94 225.62L109.93 225.45L109.93 195.78L523.07 195.78L523.07 225.45L523.07 225.62Z" id="b19nsFRJu0"></path><path d="M523.06 225.73L523.03 226.01L522.99 226.28L522.92 226.54L522.84 226.8L522.75 227.05L522.64 227.29L522.51 227.53L522.37 227.75L522.21 227.97L522.04 228.17L521.86 228.36L521.67 228.54L521.47 228.71L521.25 228.87L521.03 229.01L520.8 229.13L520.55 229.24L520.3 229.34L520.05 229.42L519.78 229.48L519.51 229.53L519.23 229.56L518.95 229.57L492.95 229.57L493.23 229.56L493.51 229.53L493.78 229.48L494.04 229.42L494.3 229.34L494.55 229.24L494.79 229.13L495.03 229.01L495.25 228.87L495.46 228.71L495.67 228.54L495.86 228.36L496.04 228.17L496.21 227.97L496.36 227.75L496.5 227.53L496.63 227.29L496.74 227.05L496.84 226.8L496.92 226.54L496.98 226.28L497.03 226.01L497.06 225.73L497.07 225.45L497.07 195.78L523.07 195.78L523.07 225.45L523.06 225.73Z" id="a1yugsrEDN"></path><path d="M316.61 69.25L316.67 69.26L316.72 69.26L316.78 69.27L316.83 69.28L316.89 69.29L316.94 69.3L317 69.31L317.05 69.33L317.11 69.34L317.16 69.36L317.21 69.38L317.27 69.4L317.32 69.42L317.37 69.44L317.42 69.47L317.47 69.49L317.52 69.52L317.57 69.55L480.22 168.26L480.35 168.34L480.47 168.43L480.58 168.53L480.68 168.63L480.77 168.73L480.85 168.84L480.93 168.95L480.99 169.07L481.05 169.19L481.1 169.31L481.14 169.43L481.17 169.56L481.19 169.69L481.21 169.81L481.21 169.94L481.21 170.07L481.2 170.2L481.19 170.32L481.17 170.45L481.13 170.57L481.1 170.7L481.05 170.82L481 170.93L480.94 171.05L480.87 171.16L480.8 171.26L480.72 171.36L480.64 171.46L480.55 171.55L480.45 171.64L480.34 171.71L480.23 171.79L480.12 171.85L480 171.91L479.87 171.96L479.74 172L479.6 172.04L479.46 172.06L479.31 172.08L479.15 172.08L423.67 172.08L423.46 172.08L423.25 172.06L423.04 172.04L422.84 172.01L422.63 171.98L422.44 171.93L422.24 171.88L422.04 171.82L421.85 171.75L421.67 171.68L421.49 171.59L421.31 171.51L421.13 171.41L420.96 171.31L420.79 171.2L420.63 171.09L420.47 170.97L420.32 170.84L420.17 170.71L420.03 170.57L419.89 170.43L419.76 170.28L419.64 170.13L419.52 169.97L419.4 169.81L419.3 169.64L419.19 169.47L419.1 169.3L419.01 169.12L418.93 168.93L418.85 168.75L418.79 168.56L418.73 168.36L418.67 168.17L418.63 167.97L418.59 167.76L418.56 167.56L418.54 167.35L418.53 167.14L418.52 166.93L418.52 158.85L418.52 158.64L418.51 158.43L418.49 158.22L418.46 158.02L418.42 157.82L418.37 157.62L418.32 157.42L418.26 157.23L418.19 157.04L418.12 156.85L418.04 156.67L417.95 156.49L417.85 156.31L417.75 156.14L417.64 155.98L417.53 155.81L417.41 155.66L417.28 155.5L417.15 155.36L417.01 155.21L416.87 155.08L416.72 154.94L416.57 154.82L416.41 154.7L416.25 154.58L416.08 154.48L415.91 154.38L415.74 154.28L415.56 154.19L415.38 154.11L415.19 154.04L415 153.97L414.81 153.91L414.61 153.86L414.41 153.81L414.21 153.77L414 153.74L413.79 153.72L413.58 153.71L413.37 153.71L394.52 153.71L394.31 153.71L394.1 153.72L393.89 153.74L393.69 153.77L393.49 153.81L393.29 153.86L393.09 153.91L392.9 153.97L392.71 154.04L392.52 154.11L392.34 154.19L392.16 154.28L391.98 154.38L391.81 154.48L391.65 154.58L391.48 154.7L391.33 154.82L391.17 154.94L391.03 155.08L390.88 155.21L390.75 155.36L390.61 155.5L390.49 155.66L390.37 155.81L390.25 155.98L390.15 156.14L390.05 156.31L389.95 156.49L389.86 156.67L389.78 156.85L389.71 157.04L389.64 157.23L389.58 157.42L389.53 157.62L389.48 157.82L389.44 158.02L389.41 158.22L389.39 158.43L389.38 158.64L389.38 158.85L389.38 166.93L389.37 167.14L389.36 167.35L389.34 167.56L389.31 167.76L389.27 167.97L389.23 168.17L389.17 168.36L389.11 168.56L389.05 168.75L388.97 168.93L388.89 169.12L388.8 169.3L388.7 169.47L388.6 169.64L388.5 169.81L388.38 169.97L388.26 170.13L388.13 170.28L388 170.43L387.87 170.57L387.72 170.71L387.58 170.84L387.42 170.97L387.27 171.09L387.1 171.2L386.94 171.31L386.77 171.41L386.59 171.51L386.41 171.59L386.23 171.68L386.04 171.75L385.85 171.82L385.66 171.88L385.46 171.93L385.26 171.98L385.06 172.01L384.85 172.04L384.65 172.06L384.44 172.08L384.22 172.08L365.38 172.08L365.16 172.08L364.95 172.06L364.75 172.04L364.54 172.01L364.34 171.98L364.14 171.93L363.94 171.88L363.75 171.82L363.56 171.75L363.37 171.68L363.19 171.59L363.01 171.51L362.83 171.41L362.66 171.31L362.5 171.2L362.33 171.09L362.18 170.97L362.02 170.84L361.88 170.71L361.74 170.57L361.6 170.43L361.47 170.28L361.34 170.13L361.22 169.97L361.11 169.81L361 169.64L360.9 169.47L360.8 169.3L360.71 169.12L360.63 168.93L360.56 168.75L360.49 168.56L360.43 168.36L360.38 168.17L360.33 167.97L360.29 167.76L360.27 167.56L360.24 167.35L360.23 167.14L360.23 166.93L360.23 158.85L360.22 158.64L360.21 158.43L360.19 158.22L360.16 158.02L360.12 157.82L360.08 157.62L360.02 157.42L359.96 157.23L359.9 157.04L359.82 156.85L359.74 156.67L359.65 156.49L359.56 156.31L359.46 156.14L359.35 155.98L359.23 155.81L359.11 155.66L358.99 155.5L358.86 155.36L358.72 155.21L358.58 155.08L358.43 154.94L358.28 154.82L358.12 154.7L357.96 154.58L357.79 154.48L357.62 154.38L357.44 154.28L357.26 154.19L357.08 154.11L356.89 154.04L356.7 153.97L356.51 153.91L356.31 153.86L356.11 153.81L355.91 153.77L355.71 153.74L355.5 153.72L355.29 153.71L355.07 153.71L336.23 153.71L336.02 153.71L335.81 153.72L335.6 153.74L335.39 153.77L335.19 153.81L334.99 153.86L334.8 153.91L334.6 153.97L334.41 154.04L334.22 154.11L334.04 154.19L333.86 154.28L333.69 154.38L333.52 154.48L333.35 154.58L333.19 154.7L333.03 154.82L332.88 154.94L332.73 155.08L332.59 155.21L332.45 155.36L332.32 155.5L332.19 155.66L332.07 155.81L331.96 155.98L331.85 156.14L331.75 156.31L331.65 156.49L331.57 156.67L331.48 156.85L331.41 157.04L331.34 157.23L331.28 157.42L331.23 157.62L331.18 157.82L331.15 158.02L331.12 158.22L331.1 158.43L331.08 158.64L331.08 158.85L331.08 166.93L331.07 167.14L331.06 167.35L331.04 167.56L331.01 167.76L330.97 167.97L330.93 168.17L330.88 168.36L330.82 168.56L330.75 168.75L330.67 168.93L330.59 169.12L330.5 169.3L330.41 169.47L330.31 169.64L330.2 169.81L330.09 169.97L329.97 170.13L329.84 170.28L329.71 170.43L329.57 170.57L329.43 170.71L329.28 170.84L329.13 170.97L328.97 171.09L328.81 171.2L328.64 171.31L328.47 171.41L328.3 171.51L328.12 171.59L327.93 171.68L327.75 171.75L327.56 171.82L327.36 171.88L327.17 171.93L326.97 171.98L326.76 172.01L326.56 172.04L326.35 172.06L326.14 172.08L325.93 172.08L307.08 172.08L306.87 172.08L306.66 172.06L306.45 172.04L306.25 172.01L306.04 171.98L305.84 171.93L305.65 171.88L305.45 171.82L305.26 171.75L305.08 171.68L304.89 171.59L304.71 171.51L304.54 171.41L304.37 171.31L304.2 171.2L304.04 171.09L303.88 170.97L303.73 170.84L303.58 170.71L303.44 170.57L303.3 170.43L303.17 170.28L303.04 170.13L302.92 169.97L302.81 169.81L302.7 169.64L302.6 169.47L302.51 169.3L302.42 169.12L302.34 168.93L302.26 168.75L302.19 168.56L302.13 168.36L302.08 168.17L302.04 167.97L302 167.76L301.97 167.56L301.95 167.35L301.93 167.14L301.93 166.93L301.93 158.85L301.93 158.64L301.91 158.43L301.89 158.22L301.86 158.02L301.83 157.82L301.78 157.62L301.73 157.42L301.67 157.23L301.6 157.04L301.53 156.85L301.44 156.67L301.36 156.49L301.26 156.31L301.16 156.14L301.05 155.98L300.94 155.81L300.82 155.66L300.69 155.5L300.56 155.36L300.42 155.21L300.28 155.08L300.13 154.94L299.98 154.82L299.82 154.7L299.66 154.58L299.49 154.48L299.32 154.38L299.15 154.28L298.97 154.19L298.78 154.11L298.6 154.04L298.41 153.97L298.21 153.91L298.02 153.86L297.82 153.81L297.61 153.77L297.41 153.74L297.2 153.72L296.99 153.71L296.78 153.71L277.93 153.71L277.72 153.71L277.51 153.72L277.3 153.74L277.1 153.77L276.9 153.81L276.7 153.86L276.5 153.91L276.31 153.97L276.12 154.04L275.93 154.11L275.75 154.19L275.57 154.28L275.39 154.38L275.22 154.48L275.05 154.58L274.89 154.7L274.73 154.82L274.58 154.94L274.43 155.08L274.29 155.21L274.15 155.36L274.02 155.5L273.9 155.66L273.78 155.81L273.66 155.98L273.55 156.14L273.45 156.31L273.36 156.49L273.27 156.67L273.19 156.85L273.11 157.04L273.04 157.23L272.98 157.42L272.93 157.62L272.89 157.82L272.85 158.02L272.82 158.22L272.8 158.43L272.79 158.64L272.78 158.85L272.78 166.93L272.78 167.14L272.76 167.35L272.74 167.56L272.71 167.76L272.68 167.97L272.63 168.17L272.58 168.36L272.52 168.56L272.45 168.75L272.38 168.93L272.3 169.12L272.21 169.3L272.11 169.47L272.01 169.64L271.9 169.81L271.79 169.97L271.67 170.13L271.54 170.28L271.41 170.43L271.27 170.57L271.13 170.71L270.98 170.84L270.83 170.97L270.67 171.09L270.51 171.2L270.35 171.31L270.17 171.41L270 171.51L269.82 171.59L269.64 171.68L269.45 171.75L269.26 171.82L269.07 171.88L268.87 171.93L268.67 171.98L268.47 172.01L268.26 172.04L268.06 172.06L267.85 172.08L267.63 172.08L248.79 172.08L248.57 172.08L248.36 172.06L248.16 172.04L247.95 172.01L247.75 171.98L247.55 171.93L247.35 171.88L247.16 171.82L246.97 171.75L246.78 171.68L246.6 171.59L246.42 171.51L246.24 171.41L246.07 171.31L245.91 171.2L245.74 171.09L245.59 170.97L245.43 170.84L245.29 170.71L245.14 170.57L245.01 170.43L244.87 170.28L244.75 170.13L244.63 169.97L244.51 169.81L244.41 169.64L244.3 169.47L244.21 169.3L244.12 169.12L244.04 168.93L243.96 168.75L243.9 168.56L243.84 168.36L243.78 168.17L243.74 167.97L243.7 167.76L243.67 167.56L243.65 167.35L243.64 167.14L243.63 166.93L243.63 158.85L243.63 158.64L243.62 158.43L243.6 158.22L243.57 158.02L243.53 157.82L243.48 157.62L243.43 157.42L243.37 157.23L243.3 157.04L243.23 156.85L243.15 156.67L243.06 156.49L242.96 156.31L242.86 156.14L242.75 155.98L242.64 155.81L242.52 155.66L242.39 155.5L242.26 155.36L242.13 155.21L241.98 155.08L241.84 154.94L241.68 154.82L241.53 154.7L241.36 154.58L241.2 154.48L241.03 154.38L240.85 154.28L240.67 154.19L240.49 154.11L240.3 154.04L240.11 153.97L239.92 153.91L239.72 153.86L239.52 153.81L239.32 153.77L239.12 153.74L238.91 153.72L238.7 153.71L238.49 153.71L219.64 153.71L219.43 153.71L219.22 153.72L219.01 153.74L218.8 153.77L218.6 153.81L218.4 153.86L218.2 153.91L218.01 153.97L217.82 154.04L217.63 154.11L217.45 154.19L217.27 154.28L217.1 154.38L216.92 154.48L216.76 154.58L216.6 154.7L216.44 154.82L216.29 154.94L216.14 155.08L215.99 155.21L215.86 155.36L215.73 155.5L215.6 155.66L215.48 155.81L215.37 155.98L215.26 156.14L215.16 156.31L215.06 156.49L214.97 156.67L214.89 156.85L214.82 157.04L214.75 157.23L214.69 157.42L214.64 157.62L214.59 157.82L214.55 158.02L214.52 158.22L214.5 158.43L214.49 158.64L214.49 158.85L214.49 166.93L214.48 167.14L214.47 167.35L214.45 167.56L214.42 167.76L214.38 167.97L214.34 168.17L214.28 168.36L214.22 168.56L214.16 168.75L214.08 168.93L214 169.12L213.91 169.3L213.82 169.47L213.71 169.64L213.61 169.81L213.49 169.97L213.37 170.13L213.25 170.28L213.11 170.43L212.98 170.57L212.84 170.71L212.69 170.84L212.53 170.97L212.38 171.09L212.22 171.2L212.05 171.31L211.88 171.41L211.7 171.51L211.52 171.59L211.34 171.68L211.15 171.75L210.96 171.82L210.77 171.88L210.57 171.93L210.37 171.98L210.17 172.01L209.97 172.04L209.76 172.06L209.55 172.08L209.34 172.08L153.86 172.08L153.7 172.08L153.55 172.06L153.41 172.04L153.27 172L153.14 171.96L153.01 171.91L152.89 171.85L152.77 171.79L152.66 171.71L152.56 171.64L152.46 171.55L152.37 171.46L152.28 171.36L152.21 171.26L152.13 171.16L152.07 171.05L152.01 170.93L151.96 170.82L151.91 170.7L151.87 170.57L151.84 170.45L151.82 170.32L151.8 170.2L151.79 170.07L151.79 169.94L151.8 169.81L151.82 169.69L151.84 169.56L151.87 169.43L151.91 169.31L151.96 169.19L152.01 169.07L152.08 168.95L152.15 168.84L152.24 168.73L152.33 168.63L152.43 168.53L152.54 168.43L152.66 168.34L152.79 168.26L315.43 69.55L315.48 69.52L315.53 69.49L315.58 69.47L315.64 69.44L315.69 69.42L315.74 69.4L315.79 69.38L315.85 69.36L315.9 69.34L315.95 69.33L316.01 69.31L316.06 69.3L316.12 69.29L316.17 69.28L316.23 69.27L316.28 69.26L316.34 69.26L316.39 69.25L316.45 69.25L316.5 69.25L316.56 69.25L316.61 69.25Z" id="bdle7nxwb"></path><path d="M517.53 484.79L518.39 484.87L519.24 484.99L520.07 485.15L520.89 485.33L521.7 485.55L522.5 485.8L523.28 486.08L524.05 486.38L524.81 486.72L525.54 487.09L526.27 487.48L526.97 487.9L527.66 488.34L528.32 488.81L528.97 489.31L529.6 489.82L530.21 490.37L530.8 490.93L531.36 491.52L531.9 492.13L532.42 492.76L532.92 493.4L533.39 494.07L533.83 494.76L534.25 495.46L534.64 496.18L535.01 496.92L535.34 497.68L535.65 498.45L535.93 499.23L536.18 500.03L536.4 500.84L536.58 501.66L536.73 502.49L536.85 503.34L536.94 504.2L536.99 505.06L537.01 505.94L537.01 516.4L96 516.4L96 505.94L96.01 505.06L96.07 504.2L96.15 503.34L96.27 502.49L96.43 501.66L96.61 500.84L96.83 500.03L97.08 499.23L97.36 498.45L97.66 497.68L98 496.92L98.37 496.18L98.76 495.46L99.18 494.76L99.62 494.07L100.09 493.4L100.59 492.76L101.1 492.13L101.65 491.52L102.21 490.93L102.8 490.37L103.41 489.82L104.04 489.31L104.68 488.81L105.35 488.34L106.04 487.9L106.74 487.48L107.46 487.09L108.2 486.72L108.96 486.38L109.73 486.08L110.51 485.8L111.31 485.55L112.12 485.33L112.94 485.15L113.77 484.99L114.62 484.87L115.48 484.79L116.34 484.73L117.22 484.72L515.79 484.72L516.67 484.73L517.53 484.79Z" id="alUYJMlrT"></path><path d="M518.36 484.87L519.61 485.06L520.83 485.32L522.03 485.65L523.2 486.04L524.33 486.51L525.44 487.03L526.5 487.61L527.53 488.26L528.52 488.95L529.46 489.71L530.36 490.51L531.22 491.36L532.02 492.26L532.77 493.21L533.47 494.2L534.12 495.23L534.7 496.29L535.22 497.4L535.68 498.53L536.08 499.7L536.41 500.9L536.67 502.12L536.86 503.37L536.97 504.64L537.01 505.94L537.01 516.4L512.29 516.4L512.29 505.94L512.25 504.64L512.14 503.37L511.95 502.12L511.69 500.9L511.36 499.7L510.96 498.53L510.5 497.4L509.98 496.29L509.39 495.23L508.75 494.2L508.05 493.21L507.3 492.26L506.49 491.36L505.64 490.51L504.74 489.71L503.79 488.95L502.81 488.26L501.78 487.61L500.71 487.03L499.61 486.51L498.47 486.04L497.3 485.65L496.11 485.32L494.88 485.06L493.63 484.87L492.36 484.76L491.07 484.72L515.79 484.72L517.09 484.76L518.36 484.87Z" id="a30vpGfu9z"></path><path d="M542.91 516.47L543.78 516.56L544.64 516.68L545.5 516.84L546.34 517.03L547.16 517.25L547.98 517.5L548.78 517.78L549.56 518.1L550.33 518.44L551.08 518.81L551.82 519.21L552.54 519.64L553.24 520.09L553.92 520.57L554.58 521.08L555.22 521.61L555.84 522.16L556.44 522.74L557.02 523.34L557.57 523.96L558.1 524.6L558.6 525.26L559.08 525.94L559.54 526.64L559.97 527.36L560.37 528.1L560.74 528.85L561.08 529.62L561.39 530.4L561.68 531.2L561.93 532.02L562.15 532.84L562.34 533.68L562.5 534.53L562.62 535.4L562.71 536.27L562.76 537.15L562.78 538.04L562.78 551.51L562.78 551.61L562.77 551.72L562.76 551.82L562.75 551.92L562.73 552.02L562.71 552.12L562.68 552.22L562.65 552.31L562.62 552.41L562.58 552.5L562.54 552.59L562.5 552.68L562.45 552.76L562.4 552.85L562.35 552.93L562.29 553.01L562.23 553.09L562.17 553.16L562.11 553.23L562.04 553.3L561.97 553.37L561.9 553.44L561.82 553.5L561.74 553.56L561.66 553.61L561.58 553.67L561.5 553.72L561.41 553.76L561.32 553.81L561.23 553.85L561.14 553.88L561.05 553.92L560.95 553.95L560.86 553.97L560.76 553.99L560.66 554.01L560.56 554.03L560.45 554.04L560.35 554.04L560.25 554.04L72.76 554.04L72.66 554.04L72.56 554.04L72.45 554.03L72.35 554.01L72.25 553.99L72.15 553.97L72.06 553.95L71.96 553.92L71.87 553.88L71.78 553.85L71.69 553.81L71.6 553.76L71.51 553.72L71.43 553.67L71.35 553.61L71.27 553.56L71.19 553.5L71.11 553.44L71.04 553.37L70.97 553.3L70.9 553.23L70.84 553.16L70.78 553.09L70.72 553.01L70.66 552.93L70.61 552.85L70.56 552.76L70.51 552.68L70.47 552.59L70.43 552.5L70.39 552.41L70.36 552.31L70.33 552.22L70.3 552.12L70.28 552.02L70.26 551.92L70.25 551.82L70.24 551.72L70.23 551.61L70.23 551.51L70.23 538.04L70.25 537.15L70.3 536.27L70.39 535.4L70.51 534.53L70.67 533.68L70.86 532.84L71.08 532.02L71.33 531.2L71.61 530.4L71.93 529.62L72.27 528.85L72.64 528.1L73.04 527.36L73.47 526.64L73.92 525.94L74.4 525.26L74.91 524.6L75.44 523.96L75.99 523.34L76.57 522.74L77.17 522.16L77.79 521.61L78.43 521.08L79.09 520.57L79.77 520.09L80.47 519.64L81.19 519.21L81.93 518.81L82.68 518.44L83.45 518.1L84.23 517.78L85.03 517.5L85.85 517.25L86.67 517.03L87.51 516.84L88.36 516.68L89.23 516.56L90.1 516.47L90.98 516.41L91.88 516.4L541.13 516.4L542.03 516.41L542.91 516.47Z" id="bftfJrJtN"></path><path d="M543.49 516.52L544.64 516.68L545.78 516.9L546.89 517.17L547.97 517.5L549.04 517.88L550.07 518.32L551.08 518.81L552.06 519.35L553 519.94L553.92 520.57L554.79 521.25L555.63 521.97L556.44 522.74L557.2 523.54L557.92 524.38L558.6 525.26L559.24 526.17L559.82 527.12L560.36 528.1L560.85 529.1L561.29 530.14L561.67 531.2L562 532.29L562.28 533.4L562.49 534.53L562.65 535.69L562.75 536.86L562.78 538.04L562.78 551.51L562.77 551.65L562.76 551.79L562.74 551.92L562.72 552.05L562.69 552.18L562.65 552.31L562.6 552.44L562.55 552.56L562.5 552.68L562.43 552.79L562.36 552.9L562.29 553.01L562.21 553.11L562.13 553.21L562.04 553.3L561.94 553.39L561.84 553.48L561.74 553.56L561.63 553.63L561.52 553.7L561.41 553.76L561.29 553.82L561.17 553.87L561.04 553.92L560.92 553.95L560.79 553.99L560.65 554.01L560.52 554.03L560.38 554.04L560.24 554.04L534.48 554.04L534.62 554.04L534.75 554.03L534.89 554.01L535.02 553.99L535.15 553.95L535.28 553.92L535.4 553.87L535.52 553.82L535.64 553.76L535.76 553.7L535.87 553.63L535.97 553.56L536.08 553.48L536.17 553.39L536.27 553.3L536.36 553.21L536.44 553.11L536.52 553.01L536.6 552.9L536.67 552.79L536.73 552.68L536.79 552.56L536.84 552.44L536.88 552.31L536.92 552.18L536.95 552.05L536.98 551.92L537 551.79L537.01 551.65L537.01 551.51L537.01 538.04L536.98 536.86L536.89 535.69L536.73 534.53L536.51 533.4L536.24 532.29L535.91 531.2L535.52 530.14L535.09 529.1L534.6 528.1L534.06 527.12L533.47 526.17L532.84 525.26L532.16 524.38L531.44 523.54L530.67 522.74L529.87 521.97L529.03 521.25L528.15 520.57L527.24 519.94L526.29 519.35L525.31 518.81L524.31 518.32L523.27 517.88L522.21 517.5L521.12 517.17L520.01 516.9L518.88 516.68L517.72 516.52L516.55 516.43L515.36 516.4L541.13 516.4L542.32 516.43L543.49 516.52Z" id="a1KMqv4vTO"></path><path d="M338.92 17.44L350.96 18.67L362.86 20.36L374.6 22.52L386.17 25.13L397.57 28.18L408.79 31.67L419.81 35.59L430.63 39.91L441.24 44.64L451.62 49.77L461.77 55.29L471.68 61.18L481.34 67.43L490.73 74.05L499.86 81.01L508.7 88.31L517.26 95.94L525.51 103.88L533.46 112.14L541.09 120.69L548.39 129.54L555.35 138.67L561.96 148.06L568.22 157.72L574.11 167.63L579.62 177.78L584.75 188.16L589.48 198.77L593.81 209.58L597.72 220.61L601.21 231.82L604.27 243.22L606.88 254.8L609.04 266.54L610.73 278.43L611.95 290.47L612.69 302.65L612.94 314.95L612.69 327.26L611.95 339.44L610.73 351.48L609.04 363.37L606.88 375.11L604.27 386.69L601.21 398.09L597.72 409.3L593.81 420.32L589.48 431.14L584.75 441.75L579.62 452.13L574.11 462.28L568.22 472.19L561.96 481.85L555.35 491.24L548.39 500.37L541.09 509.21L533.46 517.77L525.51 526.03L517.26 533.97L508.7 541.6L499.86 548.9L490.73 555.86L481.34 562.47L471.68 568.73L461.77 574.62L451.62 580.14L441.24 585.26L430.63 590L419.81 594.32L408.79 598.24L397.57 601.72L386.17 604.78L374.6 607.39L362.86 609.55L350.96 611.24L338.92 612.47L326.75 613.21L314.44 613.45L302.14 613.21L289.96 612.47L277.92 611.24L266.02 609.55L254.28 607.39L242.71 604.78L231.31 601.72L220.09 598.24L209.07 594.32L198.25 590L187.65 585.26L177.27 580.14L167.11 574.62L157.21 568.73L147.55 562.47L138.15 555.86L129.03 548.9L120.18 541.6L111.63 533.97L103.37 526.03L95.43 517.77L87.8 509.21L80.5 500.37L73.54 491.24L66.92 481.85L60.66 472.19L54.77 462.28L49.26 452.13L44.13 441.75L39.4 431.14L35.07 420.32L31.16 409.3L27.67 398.09L24.62 386.69L22.01 375.11L19.85 363.37L18.15 351.48L16.93 339.44L16.19 327.26L15.94 314.95L16.19 302.65L16.93 290.47L18.15 278.43L19.85 266.54L22.01 254.8L24.62 243.22L27.67 231.82L31.16 220.61L35.07 209.58L39.4 198.77L44.13 188.16L49.26 177.78L54.77 167.63L60.66 157.72L66.92 148.06L73.54 138.67L80.5 129.54L87.8 120.69L95.43 112.14L103.37 103.88L111.63 95.94L120.18 88.31L129.03 81.01L138.15 74.05L147.55 67.43L157.21 61.18L167.11 55.29L177.27 49.77L187.65 44.64L198.25 39.91L209.07 35.59L220.09 31.67L231.31 28.18L242.71 25.13L254.28 22.52L266.02 20.36L277.92 18.67L289.96 17.44L302.14 16.7L314.44 16.45L326.75 16.7L338.92 17.44ZM165.07 511.5L168.29 513.91L171.54 516.27L174.83 518.57L178.16 520.82L181.53 523.02L184.94 525.17L188.38 527.26L191.86 529.3L195.38 531.28L198.93 533.21L202.51 535.08L206.13 536.89L209.78 538.65L213.47 540.35L217.18 541.98L220.93 543.56L224.71 545.08L228.52 546.54L232.36 547.93L236.22 549.27L240.12 550.54L244.04 551.75L248 552.89L251.97 553.97L255.98 554.98L260.01 555.93L264.06 556.81L268.14 557.63L272.24 558.37L276.37 559.05L280.52 559.66L284.69 560.2L288.88 560.67L293.09 561.07L297.32 561.4L301.58 561.66L305.85 561.84L310.14 561.95L314.44 561.99L324.61 561.78L334.67 561.17L344.62 560.16L354.46 558.75L364.16 556.96L373.73 554.8L383.16 552.27L392.44 549.37L401.56 546.13L410.5 542.55L419.28 538.62L427.87 534.37L436.27 529.81L444.47 524.93L452.46 519.74L460.24 514.26L467.8 508.5L475.12 502.45L482.2 496.13L489.04 489.55L495.62 482.71L501.94 475.63L507.98 468.31L513.75 460.75L519.23 452.98L524.41 444.98L529.29 436.78L533.86 428.38L538.11 419.79L542.03 411.02L545.62 402.07L548.86 392.95L551.75 383.67L554.29 374.25L556.45 364.68L558.24 354.97L559.64 345.14L560.66 335.18L561.27 325.12L561.48 314.95L561.44 310.65L561.33 306.36L561.15 302.09L560.89 297.84L560.56 293.6L560.16 289.39L559.69 285.2L559.15 281.03L558.54 276.88L557.86 272.76L557.11 268.65L556.3 264.57L555.42 260.52L554.47 256.49L553.46 252.49L552.38 248.51L551.23 244.56L550.03 240.63L548.75 236.74L547.42 232.87L546.03 229.03L544.57 225.22L543.05 221.44L541.47 217.69L539.83 213.98L538.14 210.29L536.38 206.64L534.57 203.02L532.7 199.44L530.77 195.88L528.79 192.37L526.75 188.89L524.66 185.45L522.51 182.04L520.31 178.67L518.06 175.34L515.75 172.04L513.4 168.79L510.99 165.58L508.53 162.4L161.9 509.04L165.07 511.5ZM294.21 68.74L284.26 69.75L274.43 71.16L264.72 72.95L255.15 75.11L245.72 77.64L236.45 80.53L227.33 83.78L218.38 87.36L209.6 91.29L201.01 95.53L192.61 100.1L184.41 104.98L176.42 110.17L168.64 115.65L161.09 121.41L153.77 127.46L146.68 133.78L139.85 140.36L133.26 147.19L126.95 154.28L120.9 161.6L115.13 169.16L109.66 176.93L104.47 184.93L99.59 193.13L95.02 201.53L90.77 210.12L86.85 218.89L83.26 227.84L80.02 236.96L77.13 246.23L74.6 255.66L72.43 265.23L70.65 274.94L69.24 284.77L68.23 294.72L67.61 304.79L67.41 314.95L67.45 319.46L67.57 323.94L67.77 328.4L68.05 332.85L68.41 337.27L68.84 341.67L69.36 346.05L69.94 350.4L70.61 354.73L71.35 359.03L72.16 363.31L73.05 367.56L74.01 371.79L75.04 375.99L76.15 380.16L77.32 384.3L78.57 388.41L79.88 392.49L81.27 396.54L82.72 400.56L84.23 404.55L85.82 408.5L87.47 412.42L89.19 416.3L90.97 420.15L92.81 423.97L94.72 427.74L96.69 431.48L98.72 435.19L100.81 438.85L102.96 442.47L105.18 446.06L107.45 449.6L109.78 453.1L112.16 456.56L114.61 459.98L117.11 463.35L119.66 466.68L122.27 469.97L124.94 473.21L472.7 125.45L469.46 122.79L466.17 120.18L462.84 117.62L459.47 115.12L456.05 112.68L452.59 110.29L449.09 107.96L445.55 105.69L441.96 103.48L438.34 101.32L434.67 99.23L430.97 97.2L427.23 95.23L423.46 93.32L419.64 91.48L415.79 89.7L411.91 87.98L407.99 86.33L404.04 84.75L400.05 83.23L396.03 81.78L391.98 80.39L387.9 79.08L383.79 77.84L379.65 76.66L375.48 75.56L371.28 74.52L367.06 73.56L362.8 72.68L358.52 71.86L354.22 71.12L349.89 70.46L345.54 69.87L341.16 69.35L336.76 68.92L332.34 68.56L327.89 68.28L323.43 68.08L318.95 67.96L314.44 67.92L304.28 68.13L294.21 68.74Z" id="d20wlJU1Kf"></path></defs><g><g><g><use xlink:href="#haGkFs7Ns" opacity="1" fill="#ef9241" fill-opacity="1"></use><g><use xlink:href="#haGkFs7Ns" opacity="1" fill-opacity="0" stroke="#000000" stroke-width="1" stroke-opacity="0"></use></g></g><g><use xlink:href="#j1VqHI0myY" opacity="1" fill="#aa7d95" fill-opacity="1"></use><g><use xlink:href="#j1VqHI0myY" opacity="1" fill-opacity="0" stroke="#000000" stroke-width="1" stroke-opacity="0"></use></g></g><g><use xlink:href="#bREontG0R" opacity="1" fill="#aa7d95" fill-opacity="1"></use><g><use xlink:href="#bREontG0R" opacity="1" fill-opacity="0" stroke="#000000" stroke-width="1" stroke-opacity="0"></use></g></g><g><use xlink:href="#an7fCH8xg" opacity="1" fill="#aa7d95" fill-opacity="1"></use><g><use xlink:href="#an7fCH8xg" opacity="1" fill-opacity="0" stroke="#000000" stroke-width="1" stroke-opacity="0"></use></g></g><g><use xlink:href="#cYWv64snw" opacity="1" fill="#804c68" fill-opacity="1"></use><g><use xlink:href="#cYWv64snw" opacity="1" fill-opacity="0" stroke="#000000" stroke-width="1" stroke-opacity="0"></use></g></g><g><use xlink:href="#a2hfNW95o" opacity="1" fill="#804c68" fill-opacity="1"></use><g><use xlink:href="#a2hfNW95o" opacity="1" fill-opacity="0" stroke="#000000" stroke-width="1" stroke-opacity="0"></use></g></g><g><use xlink:href="#a1ugbqqCE6" opacity="1" fill="#804c68" fill-opacity="1"></use><g><use xlink:href="#a1ugbqqCE6" opacity="1" fill-opacity="0" stroke="#000000" stroke-width="1" stroke-opacity="0"></use></g></g><g><use xlink:href="#axj1jCcpM" opacity="1" fill="#aa7d95" fill-opacity="1"></use><g><use xlink:href="#axj1jCcpM" opacity="1" fill-opacity="0" stroke="#000000" stroke-width="1" stroke-opacity="0"></use></g></g><g><use xlink:href="#l1wHTEYsjQ" opacity="1" fill="#aa7d95" fill-opacity="1"></use><g><use xlink:href="#l1wHTEYsjQ" opacity="1" fill-opacity="0" stroke="#000000" stroke-width="1" stroke-opacity="0"></use></g></g><g><use xlink:href="#a7kBxSS1k" opacity="1" fill="#aa7d95" fill-opacity="1"></use><g><use xlink:href="#a7kBxSS1k" opacity="1" fill-opacity="0" stroke="#000000" stroke-width="1" stroke-opacity="0"></use></g></g><g><use xlink:href="#b2jgARwRAy" opacity="1" fill="#804c68" fill-opacity="1"></use><g><use xlink:href="#b2jgARwRAy" opacity="1" fill-opacity="0" stroke="#000000" stroke-width="1" stroke-opacity="0"></use></g></g><g><use xlink:href="#e15KMWZXhl" opacity="1" fill="#804c68" fill-opacity="1"></use><g><use xlink:href="#e15KMWZXhl" opacity="1" fill-opacity="0" stroke="#000000" stroke-width="1" stroke-opacity="0"></use></g></g><g><use xlink:href="#h14V47eKQ" opacity="1" fill="#804c68" fill-opacity="1"></use><g><use xlink:href="#h14V47eKQ" opacity="1" fill-opacity="0" stroke="#000000" stroke-width="1" stroke-opacity="0"></use></g></g><g><use xlink:href="#c4WseptZB9" opacity="1" fill="#f6874f" fill-opacity="1"></use><g><use xlink:href="#c4WseptZB9" opacity="1" fill-opacity="0" stroke="#000000" stroke-width="1" stroke-opacity="0"></use></g></g><g><use xlink:href="#b1DABgrys" opacity="1" fill="#f6874f" fill-opacity="1"></use><g><use xlink:href="#b1DABgrys" opacity="1" fill-opacity="0" stroke="#000000" stroke-width="1" stroke-opacity="0"></use></g></g><g><use xlink:href="#c1DZrtqpAf" opacity="1" fill="#f6874f" fill-opacity="1"></use><g><use xlink:href="#c1DZrtqpAf" opacity="1" fill-opacity="0" stroke="#000000" stroke-width="1" stroke-opacity="0"></use></g></g><g><use xlink:href="#b11i0xSSGW" opacity="1" fill="#9b7f42" fill-opacity="1"></use><g><use xlink:href="#b11i0xSSGW" opacity="1" fill-opacity="0" stroke="#000000" stroke-width="1" stroke-opacity="0"></use></g></g><g><use xlink:href="#dWMS2FkVs" opacity="1" fill="#9b7f42" fill-opacity="1"></use><g><use xlink:href="#dWMS2FkVs" opacity="1" fill-opacity="0" stroke="#000000" stroke-width="1" stroke-opacity="0"></use></g></g><g><use xlink:href="#f1lOrABQVo" opacity="1" fill="#9b7f42" fill-opacity="1"></use><g><use xlink:href="#f1lOrABQVo" opacity="1" fill-opacity="0" stroke="#000000" stroke-width="1" stroke-opacity="0"></use></g></g><g><use xlink:href="#b19nsFRJu0" opacity="1" fill="#c97b14" fill-opacity="1"></use><g><use xlink:href="#b19nsFRJu0" opacity="1" fill-opacity="0" stroke="#000000" stroke-width="1" stroke-opacity="0"></use></g></g><g><use xlink:href="#a1yugsrEDN" opacity="1" fill="#5b4e28" fill-opacity="1"></use><g><use xlink:href="#a1yugsrEDN" opacity="1" fill-opacity="0" stroke="#000000" stroke-width="1" stroke-opacity="0"></use></g></g><g><use xlink:href="#bdle7nxwb" opacity="1" fill="#9b7f42" fill-opacity="1"></use><g><use xlink:href="#bdle7nxwb" opacity="1" fill-opacity="0" stroke="#000000" stroke-width="1" stroke-opacity="0"></use></g></g><g><use xlink:href="#alUYJMlrT" opacity="1" fill="#ef9241" fill-opacity="1"></use><g><use xlink:href="#alUYJMlrT" opacity="1" fill-opacity="0" stroke="#000000" stroke-width="1" stroke-opacity="0"></use></g></g><g><use xlink:href="#a30vpGfu9z" opacity="1" fill="#9b7f42" fill-opacity="1"></use><g><use xlink:href="#a30vpGfu9z" opacity="1" fill-opacity="0" stroke="#000000" stroke-width="1" stroke-opacity="0"></use></g></g><g><use xlink:href="#bftfJrJtN" opacity="1" fill="#c97b14" fill-opacity="1"></use><g><use xlink:href="#bftfJrJtN" opacity="1" fill-opacity="0" stroke="#000000" stroke-width="1" stroke-opacity="0"></use></g></g><g><use xlink:href="#a1KMqv4vTO" opacity="1" fill="#5b4e28" fill-opacity="1"></use><g><use xlink:href="#a1KMqv4vTO" opacity="1" fill-opacity="0" stroke="#000000" stroke-width="1" stroke-opacity="0"></use></g></g><g><use xlink:href="#d20wlJU1Kf" opacity="1" fill="#dd352e" fill-opacity="1"></use><g><use xlink:href="#d20wlJU1Kf" opacity="1" fill-opacity="0" stroke="#000000" stroke-width="1" stroke-opacity="0"></use></g></g></g></g></svg>