<?xml version="1.0" encoding="UTF-8" standalone="no"?>
<!DOCTYPE svg PUBLIC "-//W3C//DTD SVG 1.1//EN" "http://www.w3.org/Graphics/SVG/1.1/DTD/svg11.dtd">
<svg version="1.1" xmlns="http://www.w3.org/2000/svg" xmlns:xlink="http://www.w3.org/1999/xlink" preserveAspectRatio="xMidYMid meet" viewBox="0 0 640 640" width="640" height="640"><defs><path d="M339.43 657.38L339.42 657.7L339.41 658.03L339.38 658.35L339.35 658.67L339.3 658.98L339.25 659.3L339.18 659.61L339.11 659.92L339.02 660.22L338.93 660.52L338.83 660.82L338.72 661.11L338.6 661.4L338.47 661.69L338.33 661.97L338.18 662.24L338.03 662.51L337.87 662.78L337.7 663.04L337.52 663.29L337.33 663.54L337.14 663.79L336.94 664.03L336.73 664.26L336.51 664.48L336.29 664.7L336.06 664.91L335.83 665.12L335.58 665.32L335.33 665.51L335.08 665.69L334.81 665.87L334.55 666.04L334.27 666.2L333.99 666.35L333.71 666.49L333.42 666.63L333.12 666.75L332.82 666.87L332.51 666.98L292.01 680.48L291.62 680.6L291.22 680.71L290.82 680.8L290.42 680.87L290.02 680.93L289.62 680.97L289.22 680.99L288.82 681L288.42 680.99L288.03 680.97L287.63 680.93L287.25 680.88L286.86 680.81L286.48 680.72L286.1 680.63L285.73 680.52L285.36 680.39L285 680.25L284.64 680.1L284.29 679.93L283.94 679.75L283.61 679.55L283.28 679.35L282.95 679.13L282.64 678.9L282.34 678.65L282.04 678.4L281.75 678.13L281.48 677.85L281.21 677.56L280.96 677.26L280.71 676.95L280.48 676.62L280.26 676.29L280.05 675.95L279.85 675.59L279.67 675.23L279.5 674.85L279.35 674.47L279.21 674.07L279.08 673.68L278.98 673.28L278.89 672.88L278.81 672.47L278.76 672.07L278.72 671.67L278.69 671.27L278.69 670.88L278.69 670.48L278.72 670.08L278.76 669.69L278.81 669.3L278.88 668.92L278.96 668.54L279.06 668.16L279.17 667.78L279.3 667.42L279.44 667.05L279.59 666.7L279.76 666.35L279.94 666L280.13 665.66L280.34 665.33L280.56 665.01L280.79 664.7L281.03 664.39L281.29 664.1L281.56 663.81L281.84 663.54L282.13 663.27L282.43 663.01L282.74 662.77L283.06 662.54L283.4 662.32L283.74 662.11L284.1 661.91L284.46 661.73L284.84 661.56L285.22 661.41L285.61 661.27L319.18 650.08L319.18 404.96L339.43 404.96L339.43 657.38Z" id="avtBFMXbp"></path><path d="M453.99 661.27L454.39 661.41L454.77 661.56L455.14 661.73L455.51 661.91L455.86 662.11L456.21 662.32L456.54 662.54L456.87 662.77L457.18 663.01L457.48 663.27L457.77 663.54L458.05 663.81L458.32 664.1L458.57 664.39L458.82 664.7L459.05 665.01L459.27 665.33L459.47 665.66L459.67 666L459.85 666.35L460.01 666.7L460.17 667.05L460.31 667.42L460.43 667.78L460.55 668.16L460.64 668.54L460.73 668.92L460.8 669.3L460.85 669.69L460.89 670.08L460.91 670.48L460.92 670.88L460.91 671.27L460.89 671.67L460.85 672.07L460.79 672.47L460.72 672.88L460.63 673.28L460.52 673.68L460.39 674.07L460.25 674.47L460.1 674.85L459.93 675.23L459.75 675.59L459.55 675.95L459.35 676.29L459.13 676.62L458.89 676.95L458.65 677.26L458.39 677.56L458.13 677.85L457.85 678.13L457.57 678.4L457.27 678.65L456.96 678.9L456.65 679.13L456.33 679.35L456 679.55L455.66 679.75L455.32 679.93L454.97 680.1L454.61 680.25L454.25 680.39L453.88 680.52L453.51 680.63L453.13 680.72L452.75 680.81L452.36 680.88L451.97 680.93L451.58 680.97L451.19 680.99L450.79 681L450.39 680.99L449.99 680.97L449.59 680.93L449.19 680.87L448.79 680.8L448.39 680.71L447.99 680.6L447.59 680.48L407.1 666.98L406.79 666.87L406.49 666.75L406.19 666.63L405.9 666.49L405.61 666.35L405.33 666.2L405.06 666.04L404.79 665.87L404.53 665.69L404.27 665.51L404.02 665.32L403.78 665.12L403.54 664.91L403.31 664.7L403.09 664.48L402.87 664.26L402.67 664.03L402.47 663.79L402.27 663.54L402.09 663.29L401.91 663.04L401.74 662.78L401.58 662.51L401.42 662.24L401.28 661.97L401.14 661.69L401.01 661.4L400.89 661.11L400.78 660.82L400.68 660.52L400.58 660.22L400.5 659.92L400.43 659.61L400.36 659.3L400.3 658.98L400.26 658.67L400.22 658.35L400.2 658.03L400.18 657.7L400.18 657.38L400.18 404.96L420.42 404.96L420.42 650.08L453.99 661.27Z" id="c1gpKmZGhK"></path><path d="M309.06 259.84L306.7 259.89L304.36 260.03L302.05 260.27L299.77 260.6L297.51 261.01L295.29 261.51L293.1 262.1L290.95 262.77L288.83 263.53L286.75 264.36L284.71 265.27L282.72 266.26L280.77 267.32L278.86 268.45L277.01 269.66L275.2 270.93L273.45 272.27L271.75 273.67L270.1 275.14L268.51 276.67L266.98 278.25L265.52 279.9L264.11 281.6L262.77 283.35L261.5 285.16L260.3 287.02L259.16 288.92L258.1 290.87L257.12 292.87L256.21 294.9L255.37 296.98L254.62 299.1L253.95 301.25L253.36 303.44L252.86 305.67L252.44 307.92L252.12 310.2L251.88 312.52L251.74 314.85L251.69 317.21L251.74 319.57L251.88 321.91L252.12 324.22L252.44 326.51L252.86 328.76L253.36 330.98L253.95 333.17L254.62 335.33L255.37 337.45L256.21 339.52L257.12 341.56L258.1 343.56L259.16 345.51L260.3 347.41L261.5 349.27L262.77 351.07L264.11 352.83L265.52 354.53L266.98 356.17L268.51 357.76L270.1 359.29L271.75 360.76L273.45 362.16L275.2 363.5L277.01 364.77L278.86 365.98L280.77 367.11L282.72 368.17L284.71 369.16L286.75 370.07L288.83 370.9L290.95 371.65L293.1 372.33L295.29 372.91L297.51 373.42L299.77 373.83L302.05 374.16L304.36 374.39L306.7 374.54L309.06 374.58L329.31 374.58L329.31 394.83L309.06 394.83L305.87 394.77L302.7 394.57L299.58 394.25L296.49 393.81L293.44 393.25L290.43 392.57L287.47 391.78L284.55 390.87L281.69 389.85L278.88 388.72L276.12 387.49L273.42 386.15L270.78 384.72L268.2 383.18L265.69 381.56L263.25 379.83L260.88 378.02L258.58 376.12L256.35 374.14L254.2 372.07L252.13 369.92L250.15 367.7L248.25 365.4L246.44 363.02L244.72 360.58L243.09 358.07L241.56 355.49L240.12 352.85L238.78 350.15L237.55 347.4L236.43 344.58L235.41 341.72L234.5 338.8L233.7 335.84L233.02 332.84L232.46 329.79L232.02 326.7L231.7 323.57L231.51 320.41L231.44 317.21L231.51 314.02L231.7 310.86L232.02 307.73L232.46 304.64L233.02 301.59L233.7 298.58L234.5 295.62L235.41 292.71L236.43 289.84L237.55 287.03L238.78 284.27L240.12 281.57L241.56 278.94L243.09 276.36L244.72 273.85L246.44 271.4L248.25 269.03L250.15 266.73L252.13 264.5L254.2 262.36L256.35 260.29L258.58 258.3L260.88 256.4L263.25 254.59L265.69 252.87L268.2 251.24L270.78 249.71L273.42 248.27L276.12 246.94L278.88 245.71L281.69 244.58L284.55 243.56L287.47 242.65L290.43 241.86L293.44 241.18L296.49 240.61L299.58 240.17L302.7 239.85L305.87 239.66L309.06 239.6L329.31 239.6L329.31 259.84L309.06 259.84Z" id="b3SJRHRZf3"></path><path d="M160.58 591.56L106.58 53.99L201.07 53.99L201.07 591.56L160.58 591.56Z" id="a4OGW3KZUu"></path><path d="M79.59 591.56L79.59 53.99L160.58 53.99L160.58 591.56L79.59 591.56Z" id="bsRPjxtkf"></path><path d="M221.32 652.29L180.82 652.29L140.33 591.55L221.32 611.8L221.32 652.29Z" id="d62t9Hqmz"></path><path d="M59.34 652.29L59.34 611.8L180.82 591.55L180.82 652.29L59.34 652.29Z" id="a3cbutfKB"></path><path d="M180.82 611.8L140.33 591.55L160.58 571.3L201.07 571.3L221.32 611.8L180.82 611.8Z" id="k3RJT4x8Cc"></path><path d="M59.34 611.8L79.59 571.3L160.58 571.3L180.82 611.8L59.34 611.8Z" id="i1NwfVvMXS"></path><path d="M170.7 80.99L130.2 27L211.2 27L211.2 80.99L170.7 80.99Z" id="aaVviqm6z"></path><path d="M69.46 80.99L69.46 27L170.7 27L170.7 80.99L69.46 80.99Z" id="cPQULydRS"></path><path d="M212.99 0.08L213.87 0.18L214.74 0.31L215.59 0.48L216.44 0.69L217.27 0.93L218.08 1.2L218.88 1.51L219.66 1.85L220.42 2.22L221.17 2.62L221.9 3.06L222.6 3.52L223.29 4.01L223.95 4.53L224.59 5.07L225.21 5.64L225.81 6.23L226.37 6.85L226.92 7.49L227.44 8.16L227.93 8.84L228.39 9.55L228.82 10.28L229.22 11.02L229.59 11.78L229.93 12.57L230.24 13.36L230.52 14.18L230.76 15.01L230.96 15.85L231.13 16.71L231.27 17.57L231.37 18.45L231.42 19.35L231.44 20.25L231.42 21.15L231.37 22.04L231.27 22.92L231.13 23.79L230.96 24.65L230.76 25.49L230.52 26.32L230.24 27.13L229.93 27.93L229.59 28.71L229.22 29.47L228.82 30.22L228.39 30.95L227.93 31.65L227.44 32.34L226.92 33L226.37 33.64L225.81 34.26L225.21 34.86L224.59 35.43L223.95 35.97L223.29 36.49L222.6 36.98L221.9 37.44L221.17 37.87L220.42 38.27L219.66 38.64L218.88 38.98L218.08 39.29L217.27 39.57L216.44 39.81L215.59 40.01L214.74 40.19L213.87 40.32L212.99 40.42L212.1 40.47L211.2 40.49L170.7 40.49L170.7 0L211.2 0L212.1 0.02L212.99 0.08Z" id="c1lNsrFxre"></path><path d="M172.36 0.07L173.18 0.15L173.98 0.27L174.78 0.41L175.57 0.59L176.34 0.8L177.1 1.03L177.85 1.3L178.58 1.59L179.3 1.91L180 2.26L180.69 2.64L181.36 3.04L182.02 3.46L182.66 3.91L183.28 4.38L183.88 4.88L184.46 5.39L185.02 5.93L185.56 6.49L186.07 7.07L186.57 7.67L187.04 8.29L187.49 8.93L187.91 9.58L188.31 10.26L188.69 10.95L189.04 11.65L189.36 12.37L189.65 13.1L189.92 13.85L190.15 14.61L190.36 15.38L190.54 16.17L190.68 16.96L190.8 17.77L190.88 18.59L190.93 19.41L190.95 20.25L190.93 21.08L190.88 21.91L190.8 22.72L190.68 23.53L190.54 24.33L190.36 25.11L190.15 25.88L189.92 26.64L189.65 27.39L189.36 28.13L189.04 28.85L188.69 29.55L188.31 30.24L187.91 30.91L187.49 31.56L187.04 32.2L186.57 32.82L186.07 33.42L185.56 34L185.02 34.56L184.46 35.1L183.88 35.62L183.28 36.11L182.66 36.59L182.02 37.04L181.36 37.46L180.69 37.86L180 38.23L179.3 38.58L178.58 38.9L177.85 39.2L177.1 39.46L176.34 39.7L175.57 39.91L174.78 40.08L173.98 40.23L173.18 40.34L172.36 40.43L171.54 40.48L170.7 40.49L69.46 40.49L68.63 40.48L67.8 40.43L66.98 40.34L66.18 40.23L65.38 40.08L64.6 39.91L63.82 39.7L63.06 39.46L62.32 39.2L61.58 38.9L60.86 38.58L60.16 38.23L59.47 37.86L58.8 37.46L58.14 37.04L57.51 36.59L56.89 36.11L56.29 35.62L55.71 35.1L55.15 34.56L54.61 34L54.09 33.42L53.59 32.82L53.12 32.2L52.67 31.56L52.25 30.91L51.85 30.24L51.47 29.55L51.13 28.85L50.8 28.13L50.51 27.39L50.25 26.64L50.01 25.88L49.8 25.11L49.62 24.33L49.48 23.53L49.36 22.72L49.28 21.91L49.23 21.08L49.21 20.25L49.23 19.41L49.28 18.59L49.36 17.77L49.48 16.96L49.62 16.17L49.8 15.38L50.01 14.61L50.25 13.85L50.51 13.1L50.8 12.37L51.13 11.65L51.47 10.95L51.85 10.26L52.25 9.58L52.67 8.93L53.12 8.29L53.59 7.67L54.09 7.07L54.61 6.49L55.15 5.93L55.71 5.39L56.29 4.88L56.89 4.38L57.51 3.91L58.14 3.46L58.8 3.04L59.47 2.64L60.16 2.26L60.86 1.91L61.58 1.59L62.32 1.3L63.06 1.03L63.82 0.8L64.6 0.59L65.38 0.41L66.18 0.27L66.98 0.15L67.8 0.07L68.63 0.02L69.46 0L170.7 0L171.54 0.02L172.36 0.07Z" id="b1VAEl7IY"></path><path d="M212.03 70.9L212.44 70.94L212.84 71L213.24 71.07L213.63 71.16L214.02 71.27L214.4 71.38L214.77 71.52L215.14 71.66L215.5 71.82L215.85 72L216.19 72.18L216.53 72.38L216.86 72.6L217.17 72.82L217.48 73.06L217.78 73.3L218.07 73.56L218.35 73.83L218.62 74.11L218.88 74.4L219.13 74.7L219.37 75.01L219.59 75.33L219.8 75.66L220 75.99L220.19 76.34L220.36 76.69L220.52 77.05L220.67 77.42L220.8 77.79L220.92 78.17L221.02 78.56L221.11 78.95L221.19 79.35L221.24 79.75L221.28 80.16L221.31 80.57L221.32 80.99L221.31 81.41L221.28 81.82L221.24 82.23L221.19 82.63L221.11 83.03L221.02 83.42L220.92 83.81L220.8 84.19L220.67 84.56L220.52 84.93L220.36 85.29L220.19 85.64L220 85.99L219.8 86.32L219.59 86.65L219.37 86.97L219.13 87.28L218.88 87.58L218.62 87.87L218.35 88.15L218.07 88.42L217.78 88.68L217.48 88.92L217.17 89.16L216.86 89.39L216.53 89.6L216.19 89.8L215.85 89.98L215.5 90.16L215.14 90.32L214.77 90.47L214.4 90.6L214.02 90.72L213.63 90.82L213.24 90.91L212.84 90.98L212.44 91.04L212.03 91.08L211.61 91.11L211.2 91.12L69.46 91.12L69.04 91.11L68.63 91.08L68.22 91.04L67.82 90.98L67.42 90.91L67.03 90.82L66.64 90.72L66.26 90.6L65.89 90.47L65.52 90.32L65.16 90.16L64.81 89.98L64.46 89.8L64.13 89.6L63.8 89.39L63.48 89.16L63.17 88.92L62.87 88.68L62.58 88.42L62.3 88.15L62.03 87.87L61.78 87.58L61.53 87.28L61.29 86.97L61.07 86.65L60.86 86.32L60.66 85.99L60.47 85.64L60.29 85.29L60.13 84.93L59.99 84.56L59.86 84.19L59.74 83.81L59.63 83.42L59.54 83.03L59.47 82.63L59.41 82.23L59.37 81.82L59.35 81.41L59.34 80.99L59.35 80.57L59.37 80.16L59.41 79.75L59.47 79.35L59.54 78.95L59.63 78.56L59.74 78.17L59.86 77.79L59.99 77.42L60.13 77.05L60.29 76.69L60.47 76.34L60.66 75.99L60.86 75.66L61.07 75.33L61.29 75.01L61.53 74.7L61.78 74.4L62.03 74.11L62.3 73.83L62.58 73.56L62.87 73.3L63.17 73.06L63.48 72.82L63.8 72.6L64.13 72.38L64.46 72.18L64.81 72L65.16 71.82L65.52 71.66L65.89 71.52L66.26 71.38L66.64 71.27L67.03 71.16L67.42 71.07L67.82 71L68.22 70.94L68.63 70.9L69.04 70.88L69.46 70.87L211.2 70.87L211.61 70.88L212.03 70.9Z" id="bA60GLDGx"></path><path d="M329.31 344.21L369.8 222.72L410.3 222.72L437.29 344.21L329.31 344.21Z" id="ajuNsoAW2"></path><path d="M309.06 303.72L309.06 249.72L309.08 248.61L309.15 247.51L309.26 246.42L309.41 245.34L309.61 244.28L309.85 243.23L310.12 242.2L310.44 241.19L310.79 240.19L311.18 239.21L311.61 238.25L312.07 237.31L312.57 236.4L313.11 235.5L313.67 234.63L314.27 233.78L314.9 232.95L315.56 232.15L316.25 231.38L316.97 230.63L317.71 229.91L318.49 229.22L319.29 228.56L320.11 227.93L320.96 227.33L321.84 226.77L322.73 226.23L323.65 225.73L324.59 225.27L325.55 224.84L326.53 224.45L327.52 224.1L328.54 223.78L329.57 223.51L330.62 223.27L331.68 223.07L332.75 222.92L333.84 222.81L334.94 222.74L336.06 222.72L369.8 222.72L369.8 344.21L309.06 303.72Z" id="c51JyMukcy"></path><path d="M329.31 384.7L369.8 303.72L430.55 303.72L430.55 384.7L329.31 384.7Z" id="d1FNa1EVh3"></path><path d="M309.06 384.7L309.06 303.72L369.8 303.72L369.8 384.7L309.06 384.7Z" id="h9WAyQN5O"></path><path d="M430.55 546.69L369.8 546.69L317.92 414.77L410.3 344.21L430.55 344.21L430.55 546.69Z" id="a2dSJUWc3N"></path><path d="M288.81 546.69L288.81 465.7L369.8 374.05L369.8 546.69L288.81 546.69Z" id="b3FydN1j"></path><path d="M410.18 349.58L410.04 352.25L409.84 354.9L409.58 357.53L409.26 360.15L408.9 362.75L408.47 365.33L408 367.89L407.47 370.43L406.88 372.95L406.25 375.46L405.56 377.94L404.83 380.4L404.04 382.84L403.2 385.25L402.32 387.64L401.38 390.01L400.4 392.35L399.37 394.67L398.3 396.96L397.18 399.23L396.01 401.46L394.8 403.67L393.54 405.86L392.24 408.01L390.9 410.13L389.51 412.23L388.09 414.29L386.62 416.32L385.11 418.32L383.56 420.29L381.97 422.22L380.35 424.13L378.68 425.99L376.98 427.82L375.24 429.62L373.46 431.38L371.65 433.1L369.8 434.79L309.06 435.33L369.8 344.21L410.3 344.21L410.27 346.9L410.18 349.58Z" id="a3JCY309x2"></path><path d="M368.18 436.22L366.53 437.62L364.85 438.99L363.16 440.33L361.43 441.64L359.68 442.92L357.91 444.17L356.12 445.38L354.3 446.57L352.46 447.73L350.6 448.85L348.72 449.94L346.81 451L344.89 452.02L342.94 453.01L340.98 453.97L338.99 454.89L336.99 455.78L334.97 456.63L332.92 457.45L330.87 458.23L328.79 458.97L326.69 459.68L324.58 460.35L322.45 460.98L320.31 461.58L318.15 462.13L315.97 462.65L313.78 463.13L311.58 463.57L309.36 463.97L307.13 464.32L304.88 464.64L302.62 464.92L300.35 465.15L298.07 465.35L295.77 465.5L293.46 465.61L291.14 465.67L288.81 465.69L288.81 397.75L288.83 396.21L288.87 394.68L288.94 393.16L289.04 391.65L289.17 390.14L289.32 388.64L289.5 387.15L289.71 385.67L289.95 384.19L290.21 382.73L290.49 381.27L290.81 379.83L291.15 378.39L291.51 376.97L291.9 375.55L292.31 374.14L292.75 372.75L293.22 371.37L293.7 369.99L294.21 368.63L294.75 367.28L295.31 365.95L295.89 364.62L296.49 363.31L297.12 362.01L297.77 360.72L298.44 359.45L299.13 358.19L299.85 356.94L300.58 355.71L301.34 354.49L302.12 353.29L302.92 352.1L303.74 350.92L304.58 349.77L305.43 348.62L306.31 347.5L307.21 346.38L308.13 345.29L309.06 344.21L369.8 344.21L369.8 434.79L368.18 436.22Z" id="arU55Pbzg"></path><path d="M424.91 222.74L426.01 222.81L427.1 222.92L428.18 223.07L429.24 223.27L430.28 223.51L431.32 223.78L432.33 224.1L433.33 224.45L434.31 224.84L435.26 225.27L436.2 225.73L437.12 226.23L438.02 226.77L438.89 227.33L439.74 227.93L440.57 228.56L441.37 229.22L442.14 229.91L442.89 230.63L443.6 231.38L444.29 232.15L444.95 232.95L445.58 233.78L446.18 234.63L446.75 235.5L447.28 236.4L447.78 237.31L448.24 238.25L448.67 239.21L449.06 240.19L449.42 241.19L449.73 242.2L450.01 243.23L450.24 244.28L450.44 245.34L450.59 246.42L450.7 247.51L450.77 248.61L450.79 249.72L450.79 546.69L410.3 546.69L410.3 222.72L423.8 222.72L424.91 222.74Z" id="bpkPLc7Ut"></path><path d="M531.79 384.7L531.79 242.97L612.78 242.97L612.78 384.7L531.79 384.7Z" id="a24DdmUH3i"></path><path d="M633.02 364.46L633.02 384.7L633.01 385.54L632.96 386.36L632.87 387.18L632.76 387.99L632.61 388.78L632.43 389.57L632.23 390.34L631.99 391.1L631.73 391.85L631.43 392.58L631.11 393.3L630.76 394.01L630.39 394.69L629.99 395.37L629.56 396.02L629.12 396.66L628.64 397.28L628.15 397.88L627.63 398.46L627.09 399.02L626.53 399.56L625.95 400.08L625.35 400.57L624.73 401.04L624.09 401.49L623.44 401.92L622.77 402.32L622.08 402.69L621.37 403.04L620.65 403.36L619.92 403.65L619.17 403.92L618.41 404.16L617.64 404.36L616.86 404.54L616.06 404.69L615.25 404.8L614.44 404.88L613.61 404.93L612.78 404.95L511.54 404.95L511.54 304.39L572.28 364.46L633.02 364.46Z" id="g2pRmcRHa"></path><path d="M614.44 222.79L615.25 222.87L616.06 222.99L616.86 223.13L617.64 223.31L618.41 223.52L619.17 223.75L619.92 224.02L620.65 224.31L621.37 224.63L622.08 224.98L622.77 225.36L623.44 225.76L624.09 226.18L624.73 226.63L625.35 227.1L625.95 227.6L626.53 228.11L627.09 228.65L627.63 229.21L628.15 229.79L628.64 230.39L629.12 231.01L629.56 231.65L629.99 232.31L630.39 232.98L630.76 233.67L631.11 234.37L631.43 235.09L631.73 235.83L631.99 236.57L632.23 237.33L632.43 238.11L632.61 238.89L632.76 239.69L632.87 240.5L632.96 241.31L633.01 242.14L633.02 242.97L633.02 263.22L572.28 263.22L511.54 350.96L511.54 222.72L612.78 222.72L613.61 222.74L614.44 222.79Z" id="f9deglsF2"></path><path d="M513.2 222.79L514.02 222.87L514.82 222.99L515.62 223.13L516.4 223.31L517.18 223.52L517.94 223.75L518.69 224.02L519.42 224.31L520.14 224.63L520.84 224.98L521.53 225.35L522.2 225.75L522.86 226.18L523.5 226.63L524.12 227.1L524.72 227.6L525.3 228.11L525.86 228.65L526.4 229.21L526.91 229.79L527.41 230.39L527.88 231.01L528.33 231.65L528.75 232.3L529.15 232.98L529.53 233.67L529.87 234.37L530.2 235.09L530.49 235.82L530.75 236.57L530.99 237.33L531.2 238.11L531.38 238.89L531.52 239.69L531.64 240.49L531.72 241.31L531.77 242.14L531.79 242.97L531.79 263.22L572.28 263.22L572.28 364.46L531.79 364.46L531.79 384.7L531.77 385.54L531.72 386.36L531.64 387.18L531.52 387.99L531.38 388.78L531.2 389.57L530.99 390.34L530.75 391.1L530.49 391.85L530.2 392.58L529.87 393.3L529.53 394.01L529.15 394.7L528.75 395.37L528.33 396.02L527.88 396.66L527.41 397.28L526.91 397.88L526.4 398.46L525.86 399.02L525.3 399.56L524.72 400.08L524.12 400.57L523.5 401.04L522.86 401.49L522.2 401.92L521.53 402.32L520.84 402.69L520.14 403.04L519.42 403.36L518.69 403.65L517.94 403.92L517.18 404.16L516.4 404.36L515.62 404.54L514.82 404.69L514.02 404.8L513.2 404.88L512.37 404.93L511.54 404.95L510.71 404.93L509.88 404.88L509.06 404.8L508.26 404.69L507.46 404.54L506.67 404.36L505.9 404.16L505.14 403.92L504.39 403.65L503.66 403.36L502.94 403.04L502.24 402.69L501.55 402.32L500.87 401.92L500.22 401.49L499.58 401.04L498.96 400.57L498.36 400.08L497.78 399.56L497.22 399.02L496.68 398.46L496.17 397.88L495.67 397.28L495.2 396.66L494.75 396.02L494.33 395.37L493.93 394.7L493.55 394.01L493.2 393.3L492.88 392.58L492.59 391.85L492.32 391.1L492.09 390.34L491.88 389.57L491.7 388.78L491.56 387.99L491.44 387.18L491.36 386.36L491.31 385.54L491.29 384.7L491.29 242.97L491.31 242.14L491.36 241.31L491.44 240.49L491.56 239.69L491.7 238.89L491.88 238.11L492.09 237.33L492.32 236.57L492.59 235.82L492.88 235.09L493.2 234.37L493.55 233.67L493.93 232.98L494.33 232.3L494.75 231.65L495.2 231.01L495.67 230.39L496.17 229.79L496.68 229.21L497.22 228.65L497.78 228.11L498.36 227.6L498.96 227.1L499.58 226.63L500.22 226.18L500.87 225.75L501.55 225.35L502.24 224.98L502.94 224.63L503.66 224.31L504.39 224.02L505.14 223.75L505.9 223.52L506.67 223.31L507.46 223.13L508.26 222.99L509.06 222.87L509.88 222.79L510.71 222.74L511.54 222.72L512.37 222.74L513.2 222.79Z" id="c9fgYWYVQw"></path><path d="M374.79 60.94L377.24 61.19L379.66 61.54L382.05 61.98L384.4 62.51L386.72 63.13L389 63.84L391.25 64.63L393.45 65.52L395.61 66.48L397.72 67.52L399.78 68.64L401.8 69.84L403.77 71.12L405.68 72.46L407.53 73.88L409.33 75.36L411.07 76.92L412.75 78.53L414.37 80.21L415.92 81.95L417.41 83.75L418.83 85.61L420.17 87.52L421.45 89.49L422.64 91.5L423.77 93.57L424.81 95.68L425.77 97.84L426.65 100.04L427.45 102.28L428.16 104.57L428.78 106.89L429.31 109.24L429.75 111.63L430.1 114.05L430.34 116.5L430.49 118.98L430.55 121.48L430.55 134.98L369.8 197.07L369.8 60.74L372.31 60.79L374.79 60.94Z" id="b2uUO3ckl7"></path><path d="M371.46 60.94L372.28 61.19L373.09 61.54L373.88 61.98L374.67 62.51L375.44 63.13L376.2 63.84L376.95 64.63L377.68 65.52L378.4 66.48L379.11 67.52L379.8 68.64L380.47 69.84L381.12 71.12L381.76 72.46L382.38 73.88L382.98 75.36L383.56 76.92L384.12 78.53L384.66 80.21L385.18 81.95L385.67 83.75L386.14 85.61L386.59 87.52L387.02 89.49L387.42 91.5L387.79 93.57L388.14 95.68L388.46 97.84L388.75 100.04L389.02 102.28L389.25 104.57L389.46 106.89L389.64 109.24L389.79 111.63L389.9 114.05L389.98 116.5L390.03 118.98L390.05 121.48L390.05 197.07L309.06 134.98L309.06 121.48L309.11 118.98L309.26 116.5L309.51 114.05L309.86 111.63L310.3 109.24L310.83 106.89L311.45 104.57L312.16 102.28L312.95 100.04L313.83 97.84L314.8 95.68L315.84 93.57L316.96 91.5L318.16 89.49L319.43 87.52L320.78 85.61L322.2 83.75L323.68 81.95L325.23 80.21L326.85 78.53L328.53 76.92L330.27 75.36L332.07 73.88L333.93 72.46L335.84 71.12L337.81 69.84L339.82 68.64L341.89 67.52L344 66.48L346.16 65.52L348.36 64.63L350.6 63.84L352.89 63.13L355.21 62.51L357.56 61.98L359.95 61.54L362.37 61.19L364.82 60.94L367.3 60.79L369.8 60.74L370.64 60.79L371.46 60.94Z" id="beytDw4qd"></path><path d="M390.33 129.49L390.47 129.62L390.61 129.75L390.75 129.88L390.89 130.01L391.03 130.14L391.16 130.28L391.3 130.41L391.43 130.55L391.57 130.68L391.7 130.82L391.83 130.96L391.96 131.1L392.09 131.24L392.22 131.38L392.35 131.52L392.48 131.66L392.61 131.8L392.73 131.95L392.86 132.09L392.98 132.24L393.1 132.38L393.23 132.53L393.35 132.68L393.47 132.82L393.59 132.97L393.71 133.12L393.82 133.27L393.94 133.43L394.06 133.58L394.17 133.73L394.28 133.88L394.4 134.04L394.51 134.19L394.62 134.35L394.73 134.51L394.84 134.66L394.95 134.82L395.05 134.98L430.55 134.98L430.55 161.98L430.49 164.48L430.34 166.96L430.1 169.41L429.75 171.83L429.31 174.22L428.78 176.58L428.16 178.9L427.45 181.18L426.65 183.42L425.77 185.62L424.81 187.78L423.77 189.89L422.64 191.96L421.45 193.98L420.17 195.94L418.83 197.85L417.41 199.71L415.92 201.51L414.37 203.25L412.75 204.93L411.07 206.55L409.33 208.1L407.53 209.58L405.68 211L403.77 212.35L401.8 213.62L399.78 214.82L397.72 215.94L395.61 216.98L393.45 217.95L391.25 218.83L389 219.62L386.72 220.33L384.4 220.96L382.05 221.49L379.66 221.93L377.24 222.27L374.79 222.52L372.31 222.67L369.8 222.72L390.05 129.23L390.19 129.36L390.33 129.49Z" id="cCCbFw8LU"></path><path d="M370.97 121.51L371.54 121.53L372.12 121.57L372.69 121.62L373.26 121.68L373.82 121.75L374.38 121.83L374.94 121.92L375.49 122.02L376.05 122.13L376.59 122.25L377.14 122.38L377.68 122.52L378.21 122.67L378.75 122.83L379.27 122.99L379.8 123.17L380.32 123.36L380.83 123.55L381.34 123.76L381.85 123.97L382.35 124.19L382.84 124.43L383.34 124.67L383.82 124.91L384.3 125.17L384.78 125.44L385.25 125.71L385.72 125.99L386.17 126.28L386.63 126.58L387.08 126.88L387.52 127.2L387.96 127.52L388.39 127.84L388.81 128.18L389.23 128.52L389.64 128.87L390.05 129.23L390.05 161.98L390.03 164.48L389.98 166.96L389.9 169.41L389.79 171.83L389.64 174.22L389.46 176.58L389.25 178.9L389.02 181.18L388.75 183.42L388.46 185.62L388.14 187.78L387.79 189.89L387.42 191.96L387.02 193.98L386.59 195.94L386.14 197.85L385.67 199.71L385.18 201.51L384.66 203.25L384.12 204.93L383.56 206.55L382.98 208.1L382.38 209.59L381.76 211L381.12 212.35L380.47 213.62L379.8 214.82L379.11 215.94L378.4 216.99L377.68 217.95L376.95 218.83L376.2 219.63L375.44 220.34L374.67 220.96L373.88 221.49L373.09 221.93L372.28 222.27L371.46 222.52L370.64 222.67L369.8 222.73L367.3 222.68L364.82 222.52L362.37 222.28L359.95 221.93L357.56 221.49L355.21 220.96L352.89 220.34L350.6 219.63L348.36 218.83L346.16 217.95L344 216.99L341.89 215.94L339.82 214.82L337.81 213.62L335.84 212.35L333.93 211L332.07 209.59L330.27 208.1L328.53 206.55L326.85 204.93L325.23 203.25L323.68 201.51L322.2 199.71L320.78 197.85L319.43 195.94L318.16 193.98L316.96 191.96L315.84 189.89L314.8 187.78L313.83 185.62L312.95 183.42L312.16 181.18L311.45 178.9L310.83 176.58L310.3 174.22L309.86 171.83L309.51 169.41L309.26 166.96L309.11 164.48L309.06 161.98L309.06 134.98L344.55 134.98L344.96 134.38L345.39 133.78L345.84 133.2L346.29 132.63L346.77 132.07L347.25 131.52L347.75 130.98L348.26 130.45L348.78 129.94L349.31 129.44L349.86 128.95L350.42 128.48L350.98 128.02L351.57 127.57L352.16 127.14L352.76 126.72L353.37 126.31L353.99 125.92L354.63 125.54L355.27 125.18L355.92 124.84L356.58 124.51L357.25 124.19L357.93 123.89L358.62 123.61L359.32 123.34L360.02 123.09L360.73 122.86L361.45 122.65L362.18 122.45L362.91 122.27L363.66 122.11L364.4 121.96L365.16 121.84L365.92 121.73L366.68 121.64L367.46 121.57L368.23 121.52L369.02 121.49L369.8 121.48L370.39 121.49L370.97 121.51Z" id="d75Wosz6Hm"></path><path d="M342.77 24.87L354.99 26.11L367.07 27.83L378.98 30.02L390.73 32.67L402.31 35.77L413.69 39.31L424.88 43.28L435.86 47.68L446.63 52.48L457.16 57.68L467.47 63.28L477.53 69.26L487.33 75.61L496.87 82.33L506.13 89.39L515.11 96.8L523.79 104.54L532.17 112.61L540.24 120.99L547.98 129.68L555.39 138.65L562.46 147.92L569.17 157.45L575.52 167.26L581.5 177.32L587.1 187.62L592.3 198.16L597.11 208.92L601.5 219.91L605.47 231.09L609.01 242.48L612.11 254.05L614.76 265.8L616.95 277.72L618.67 289.79L619.92 302.01L620.67 314.37L620.92 326.86L620.67 339.35L619.92 351.71L618.67 363.94L616.95 376.01L614.76 387.93L612.11 399.68L609.01 411.25L605.47 422.63L601.5 433.82L597.11 444.8L592.3 455.57L587.1 466.11L581.5 476.41L575.52 486.47L569.17 496.27L562.46 505.81L555.39 515.07L547.98 524.05L540.24 532.74L532.17 541.12L523.79 549.18L515.11 556.93L506.13 564.33L496.87 571.4L487.33 578.12L477.53 584.47L467.47 590.45L457.16 596.04L446.63 601.25L435.86 606.05L424.88 610.44L413.69 614.42L402.31 617.96L390.73 621.06L378.98 623.71L367.07 625.9L354.99 627.62L342.77 628.86L330.41 629.61L317.92 629.86L305.43 629.61L293.07 628.86L280.85 627.62L268.77 625.9L256.86 623.71L245.11 621.06L233.53 617.96L222.15 614.42L210.96 610.44L199.98 606.05L189.21 601.25L178.67 596.04L168.37 590.45L158.31 584.47L148.51 578.12L138.97 571.4L129.71 564.33L120.73 556.93L112.05 549.18L103.67 541.12L95.6 532.74L87.86 524.05L80.45 515.07L73.38 505.81L66.67 496.27L60.32 486.47L54.34 476.41L48.74 466.11L43.54 455.57L38.73 444.8L34.34 433.82L30.37 422.63L26.83 411.25L23.73 399.68L21.08 387.93L18.89 376.01L17.17 363.94L15.92 351.71L15.17 339.35L14.92 326.86L15.17 314.37L15.92 302.01L17.17 289.79L18.89 277.72L21.08 265.8L23.73 254.05L26.83 242.48L30.37 231.09L34.34 219.91L38.73 208.92L43.54 198.16L48.74 187.62L54.34 177.32L60.32 167.26L66.67 157.45L73.38 147.92L80.45 138.65L87.86 129.68L95.6 120.99L103.67 112.61L112.05 104.54L120.73 96.8L129.71 89.39L138.97 82.33L148.51 75.61L158.31 69.26L168.37 63.28L178.67 57.68L189.21 52.48L199.98 47.68L210.96 43.28L222.15 39.31L233.53 35.77L245.11 32.67L256.86 30.02L268.77 27.83L280.85 26.11L293.07 24.87L305.43 24.12L317.92 23.86L330.41 24.12L342.77 24.87ZM166.3 526.37L169.56 528.82L172.86 531.21L176.2 533.55L179.59 535.84L183.01 538.07L186.46 540.25L189.96 542.37L193.49 544.44L197.06 546.45L200.66 548.41L204.3 550.31L207.97 552.15L211.68 553.93L215.42 555.65L219.19 557.32L223 558.92L226.83 560.46L230.7 561.94L234.6 563.35L238.52 564.71L242.48 566L246.46 567.22L250.47 568.39L254.51 569.48L258.57 570.51L262.66 571.47L266.78 572.37L270.92 573.19L275.09 573.95L279.27 574.64L283.48 575.26L287.72 575.81L291.97 576.29L296.25 576.69L300.54 577.03L304.86 577.29L309.19 577.47L313.55 577.59L317.92 577.62L328.24 577.41L338.46 576.79L348.56 575.76L358.54 574.34L368.39 572.52L378.11 570.32L387.68 567.75L397.09 564.82L406.35 561.53L415.43 557.89L424.34 553.9L433.06 549.59L441.58 544.95L449.91 540L458.02 534.74L465.92 529.18L473.59 523.32L481.02 517.19L488.21 510.77L495.15 504.09L501.83 497.15L508.24 489.96L514.38 482.53L520.23 474.86L525.79 466.97L531.06 458.85L536.01 450.53L540.65 442L544.96 433.28L548.94 424.37L552.58 415.29L555.87 406.04L558.81 396.62L561.38 387.05L563.58 377.34L565.39 367.48L566.82 357.5L567.85 347.4L568.47 337.18L568.68 326.86L568.64 322.49L568.53 318.14L568.34 313.8L568.08 309.49L567.75 305.19L567.34 300.92L566.87 296.66L566.32 292.43L565.7 288.22L565.01 284.03L564.25 279.86L563.42 275.72L562.53 271.61L561.57 267.52L560.54 263.45L559.44 259.42L558.28 255.4L557.05 251.42L555.76 247.47L554.41 243.54L552.99 239.64L551.52 235.78L549.97 231.94L548.37 228.14L546.71 224.36L544.99 220.62L543.21 216.92L541.37 213.24L539.47 209.6L537.51 206L535.5 202.43L533.43 198.9L531.31 195.4L529.13 191.94L526.89 188.52L524.61 185.14L522.27 181.8L519.87 178.5L517.43 175.23L514.93 172.01L163.08 523.88L166.3 526.37ZM297.38 76.94L287.28 77.97L277.3 79.39L267.45 81.21L257.73 83.4L248.16 85.97L238.75 88.91L229.49 92.2L220.41 95.84L211.5 99.82L202.78 104.14L194.26 108.77L185.93 113.73L177.82 118.99L169.92 124.55L162.25 130.4L154.82 136.54L147.63 142.95L140.69 149.63L134.01 156.57L127.6 163.76L121.46 171.2L115.61 178.87L110.05 186.76L104.78 194.87L99.83 203.2L95.19 211.73L90.88 220.45L86.9 229.35L83.26 238.44L79.97 247.69L77.03 257.11L74.46 266.68L72.26 276.39L70.45 286.24L69.02 296.23L67.99 306.33L67.37 316.54L67.16 326.86L67.2 331.43L67.32 335.99L67.53 340.52L67.81 345.03L68.18 349.51L68.62 353.98L69.14 358.42L69.74 362.84L70.41 367.24L71.16 371.61L71.99 375.95L72.89 380.27L73.86 384.56L74.91 388.82L76.03 393.05L77.23 397.25L78.49 401.43L79.82 405.57L81.23 409.68L82.7 413.76L84.24 417.81L85.85 421.82L87.53 425.8L89.27 429.74L91.07 433.65L92.95 437.52L94.88 441.35L96.88 445.15L98.94 448.91L101.07 452.63L103.25 456.3L105.5 459.94L107.8 463.54L110.17 467.1L112.59 470.61L115.07 474.08L117.61 477.5L120.2 480.88L122.85 484.22L125.56 487.5L478.56 134.5L475.27 131.8L471.94 129.15L468.56 126.55L465.13 124.02L461.66 121.54L458.15 119.11L454.6 116.75L451 114.44L447.36 112.2L443.68 110.01L439.97 107.89L436.21 105.83L432.41 103.83L428.58 101.89L424.71 100.02L420.8 98.21L416.86 96.47L412.88 94.79L408.87 93.19L404.82 91.64L400.74 90.17L396.63 88.77L392.49 87.43L388.31 86.17L384.11 84.98L379.88 83.86L375.62 82.81L371.33 81.83L367.01 80.93L362.67 80.11L358.3 79.36L353.9 78.68L349.48 78.08L345.04 77.56L340.57 77.12L336.08 76.76L331.57 76.47L327.04 76.27L322.49 76.14L317.92 76.1L307.6 76.31L297.38 76.94Z" id="a7rJ8k8Exm"></path></defs><g><g><g><use xlink:href="#avtBFMXbp" opacity="1" fill="#e18f4e" fill-opacity="1"></use><g><use xlink:href="#avtBFMXbp" opacity="1" fill-opacity="0" stroke="#000000" stroke-width="1" stroke-opacity="0"></use></g></g><g><use xlink:href="#c1gpKmZGhK" opacity="1" fill="#c27749" fill-opacity="1"></use><g><use xlink:href="#c1gpKmZGhK" opacity="1" fill-opacity="0" stroke="#000000" stroke-width="1" stroke-opacity="0"></use></g></g><g><use xlink:href="#b3SJRHRZf3" opacity="1" fill="#e18f4e" fill-opacity="1"></use><g><use xlink:href="#b3SJRHRZf3" opacity="1" fill-opacity="0" stroke="#000000" stroke-width="1" stroke-opacity="0"></use></g></g><g><use xlink:href="#a4OGW3KZUu" opacity="1" fill="#ffe2a8" fill-opacity="1"></use><g><use xlink:href="#a4OGW3KZUu" opacity="1" fill-opacity="0" stroke="#000000" stroke-width="1" stroke-opacity="0"></use></g></g><g><use xlink:href="#bsRPjxtkf" opacity="1" fill="#fff0d3" fill-opacity="1"></use><g><use xlink:href="#bsRPjxtkf" opacity="1" fill-opacity="0" stroke="#000000" stroke-width="1" stroke-opacity="0"></use></g></g><g><use xlink:href="#d62t9Hqmz" opacity="1" fill="#ffa754" fill-opacity="1"></use><g><use xlink:href="#d62t9Hqmz" opacity="1" fill-opacity="0" stroke="#000000" stroke-width="1" stroke-opacity="0"></use></g></g><g><use xlink:href="#a3cbutfKB" opacity="1" fill="#ffcb63" fill-opacity="1"></use><g><use xlink:href="#a3cbutfKB" opacity="1" fill-opacity="0" stroke="#000000" stroke-width="1" stroke-opacity="0"></use></g></g><g><use xlink:href="#k3RJT4x8Cc" opacity="1" fill="#ffcb63" fill-opacity="1"></use><g><use xlink:href="#k3RJT4x8Cc" opacity="1" fill-opacity="0" stroke="#000000" stroke-width="1" stroke-opacity="0"></use></g></g><g><use xlink:href="#i1NwfVvMXS" opacity="1" fill="#ffe2a8" fill-opacity="1"></use><g><use xlink:href="#i1NwfVvMXS" opacity="1" fill-opacity="0" stroke="#000000" stroke-width="1" stroke-opacity="0"></use></g></g><g><use xlink:href="#aaVviqm6z" opacity="1" fill="#ffcb63" fill-opacity="1"></use><g><use xlink:href="#aaVviqm6z" opacity="1" fill-opacity="0" stroke="#000000" stroke-width="1" stroke-opacity="0"></use></g></g><g><use xlink:href="#cPQULydRS" opacity="1" fill="#ffe2a8" fill-opacity="1"></use><g><use xlink:href="#cPQULydRS" opacity="1" fill-opacity="0" stroke="#000000" stroke-width="1" stroke-opacity="0"></use></g></g><g><use xlink:href="#c1lNsrFxre" opacity="1" fill="#ffa754" fill-opacity="1"></use><g><use xlink:href="#c1lNsrFxre" opacity="1" fill-opacity="0" stroke="#000000" stroke-width="1" stroke-opacity="0"></use></g></g><g><use xlink:href="#b1VAEl7IY" opacity="1" fill="#ffcb63" fill-opacity="1"></use><g><use xlink:href="#b1VAEl7IY" opacity="1" fill-opacity="0" stroke="#000000" stroke-width="1" stroke-opacity="0"></use></g></g><g><use xlink:href="#bA60GLDGx" opacity="1" fill="#ffcb63" fill-opacity="1"></use><g><use xlink:href="#bA60GLDGx" opacity="1" fill-opacity="0" stroke="#000000" stroke-width="1" stroke-opacity="0"></use></g></g><g><use xlink:href="#ajuNsoAW2" opacity="1" fill="#c27749" fill-opacity="1"></use><g><use xlink:href="#ajuNsoAW2" opacity="1" fill-opacity="0" stroke="#000000" stroke-width="1" stroke-opacity="0"></use></g></g><g><use xlink:href="#c51JyMukcy" opacity="1" fill="#e18f4e" fill-opacity="1"></use><g><use xlink:href="#c51JyMukcy" opacity="1" fill-opacity="0" stroke="#000000" stroke-width="1" stroke-opacity="0"></use></g></g><g><use xlink:href="#d1FNa1EVh3" opacity="1" fill="#ffcb63" fill-opacity="1"></use><g><use xlink:href="#d1FNa1EVh3" opacity="1" fill-opacity="0" stroke="#000000" stroke-width="1" stroke-opacity="0"></use></g></g><g><use xlink:href="#h9WAyQN5O" opacity="1" fill="#ffe2a8" fill-opacity="1"></use><g><use xlink:href="#h9WAyQN5O" opacity="1" fill-opacity="0" stroke="#000000" stroke-width="1" stroke-opacity="0"></use></g></g><g><use xlink:href="#a2dSJUWc3N" opacity="1" fill="#ffcb63" fill-opacity="1"></use><g><use xlink:href="#a2dSJUWc3N" opacity="1" fill-opacity="0" stroke="#000000" stroke-width="1" stroke-opacity="0"></use></g></g><g><use xlink:href="#b3FydN1j" opacity="1" fill="#ffe2a8" fill-opacity="1"></use><g><use xlink:href="#b3FydN1j" opacity="1" fill-opacity="0" stroke="#000000" stroke-width="1" stroke-opacity="0"></use></g></g><g><use xlink:href="#a3JCY309x2" opacity="1" fill="#ffe2a8" fill-opacity="1"></use><g><use xlink:href="#a3JCY309x2" opacity="1" fill-opacity="0" stroke="#000000" stroke-width="1" stroke-opacity="0"></use></g></g><g><use xlink:href="#arU55Pbzg" opacity="1" fill="#fff0d3" fill-opacity="1"></use><g><use xlink:href="#arU55Pbzg" opacity="1" fill-opacity="0" stroke="#000000" stroke-width="1" stroke-opacity="0"></use></g></g><g><use xlink:href="#bpkPLc7Ut" opacity="1" fill="#fff0d3" fill-opacity="1"></use><g><use xlink:href="#bpkPLc7Ut" opacity="1" fill-opacity="0" stroke="#000000" stroke-width="1" stroke-opacity="0"></use></g></g><g><use xlink:href="#a24DdmUH3i" opacity="1" fill="#ffcb63" fill-opacity="1"></use><g><use xlink:href="#a24DdmUH3i" opacity="1" fill-opacity="0" stroke="#000000" stroke-width="1" stroke-opacity="0"></use></g></g><g><use xlink:href="#g2pRmcRHa" opacity="1" fill="#fff0d3" fill-opacity="1"></use><g><use xlink:href="#g2pRmcRHa" opacity="1" fill-opacity="0" stroke="#000000" stroke-width="1" stroke-opacity="0"></use></g></g><g><use xlink:href="#f9deglsF2" opacity="1" fill="#fff0d3" fill-opacity="1"></use><g><use xlink:href="#f9deglsF2" opacity="1" fill-opacity="0" stroke="#000000" stroke-width="1" stroke-opacity="0"></use></g></g><g><use xlink:href="#c9fgYWYVQw" opacity="1" fill="#ffe2a8" fill-opacity="1"></use><g><use xlink:href="#c9fgYWYVQw" opacity="1" fill-opacity="0" stroke="#000000" stroke-width="1" stroke-opacity="0"></use></g></g><g><use xlink:href="#b2uUO3ckl7" opacity="1" fill="#c27749" fill-opacity="1"></use><g><use xlink:href="#b2uUO3ckl7" opacity="1" fill-opacity="0" stroke="#000000" stroke-width="1" stroke-opacity="0"></use></g></g><g><use xlink:href="#beytDw4qd" opacity="1" fill="#e18f4e" fill-opacity="1"></use><g><use xlink:href="#beytDw4qd" opacity="1" fill-opacity="0" stroke="#000000" stroke-width="1" stroke-opacity="0"></use></g></g><g><use xlink:href="#cCCbFw8LU" opacity="1" fill="#60312c" fill-opacity="1"></use><g><use xlink:href="#cCCbFw8LU" opacity="1" fill-opacity="0" stroke="#000000" stroke-width="1" stroke-opacity="0"></use></g></g><g><use xlink:href="#d75Wosz6Hm" opacity="1" fill="#85453d" fill-opacity="1"></use><g><use xlink:href="#d75Wosz6Hm" opacity="1" fill-opacity="0" stroke="#000000" stroke-width="1" stroke-opacity="0"></use></g></g><g><use xlink:href="#a7rJ8k8Exm" opacity="1" fill="#dd352e" fill-opacity="1"></use><g><use xlink:href="#a7rJ8k8Exm" opacity="1" fill-opacity="0" stroke="#000000" stroke-width="1" stroke-opacity="0"></use></g></g></g></g></svg>