<?xml version="1.0" encoding="UTF-8" standalone="no"?>
<!DOCTYPE svg PUBLIC "-//W3C//DTD SVG 1.1//EN" "http://www.w3.org/Graphics/SVG/1.1/DTD/svg11.dtd">
<svg version="1.1" xmlns="http://www.w3.org/2000/svg" xmlns:xlink="http://www.w3.org/1999/xlink" preserveAspectRatio="xMidYMid meet" viewBox="0 0 640 640" width="640" height="640"><defs><path d="M320 18.75C153.62 18.75 18.75 153.62 18.75 320C18.75 486.38 153.62 621.25 320 621.25C486.38 621.25 621.25 486.38 621.25 320C621.25 153.62 486.38 18.75 320 18.75Z" id="d1mgRNoxZk"></path><path d="M320 621.25C486.38 621.25 621.25 486.38 621.25 320C621.25 153.62 486.38 18.75 320 18.75C320 139.25 320 561 320 621.25Z" id="b1KWgLGjoA"></path><path d="M332.78 0.25L339.14 0.56L345.47 0.99L351.78 1.55L358.07 2.23L364.33 3.03L370.55 3.95L376.75 4.99L382.92 6.15L389.05 7.42L395.15 8.82L401.21 10.34L407.23 11.97L413.22 13.72L419.17 15.58L425.07 17.57L430.93 19.66L436.75 21.87L442.53 24.2L448.25 26.64L453.93 29.19L459.56 31.85L465.13 34.62L470.66 37.51L476.13 40.51L481.54 43.61L486.9 46.83L492.2 50.15L497.44 53.58L502.62 57.12L507.74 60.77L512.79 64.52L517.78 68.38L522.71 72.34L527.56 76.41L532.35 80.59L537.06 84.86L541.7 89.24L546.28 93.73L550.76 98.3L555.14 102.94L559.41 107.65L563.59 112.44L567.65 117.29L571.62 122.22L575.48 127.21L579.23 132.26L582.88 137.38L586.42 142.56L589.85 147.8L593.17 153.1L596.39 158.46L599.49 163.87L602.49 169.34L605.38 174.87L608.15 180.44L610.81 186.07L613.36 191.75L615.8 197.47L618.13 203.25L620.34 209.06L622.43 214.93L624.42 220.83L626.28 226.78L628.03 232.77L629.66 238.79L631.18 244.85L632.58 250.95L633.85 257.08L635.01 263.25L636.05 269.45L636.97 275.67L637.77 281.93L638.45 288.22L639.01 294.53L639.44 300.86L639.75 307.22L639.94 313.6L640 320L639.94 326.4L639.75 332.78L639.44 339.14L639.01 345.47L638.45 351.78L637.77 358.07L636.97 364.32L636.05 370.55L635.01 376.75L633.85 382.92L632.58 389.05L631.18 395.15L629.66 401.21L628.03 407.23L626.28 413.22L624.42 419.17L622.43 425.07L620.34 430.93L618.13 436.75L615.8 442.53L613.36 448.25L610.81 453.93L608.15 459.56L605.38 465.13L602.49 470.66L599.49 476.13L596.39 481.54L593.17 486.9L589.85 492.2L586.42 497.44L582.88 502.62L579.23 507.74L575.48 512.79L571.62 517.78L567.65 522.7L563.59 527.56L559.41 532.34L555.14 537.06L550.76 541.7L546.28 546.27L541.7 550.76L537.06 555.14L532.35 559.41L527.56 563.59L522.7 567.65L517.78 571.62L512.79 575.48L507.74 579.23L502.62 582.88L497.44 586.42L492.2 589.85L486.9 593.17L481.54 596.39L476.13 599.49L470.66 602.49L465.13 605.38L459.56 608.15L453.93 610.81L448.25 613.36L442.53 615.8L436.75 618.13L430.93 620.34L425.07 622.43L419.17 624.42L413.22 626.28L407.23 628.03L401.21 629.66L395.15 631.18L389.05 632.58L382.92 633.85L376.75 635.01L370.55 636.05L364.32 636.97L358.07 637.77L351.78 638.45L345.47 639.01L339.14 639.44L332.78 639.75L326.4 639.94L320 640L313.6 639.94L307.22 639.75L300.86 639.44L294.53 639.01L288.22 638.45L281.93 637.77L275.68 636.97L269.45 636.05L263.25 635.01L257.08 633.85L250.95 632.58L244.85 631.18L238.79 629.66L232.77 628.03L226.78 626.28L220.83 624.42L214.93 622.43L209.07 620.34L203.25 618.13L197.47 615.8L191.75 613.36L186.07 610.81L180.44 608.15L174.87 605.38L169.34 602.49L163.87 599.49L158.46 596.39L153.1 593.17L147.8 589.85L142.56 586.42L137.38 582.88L132.26 579.23L127.21 575.48L122.22 571.62L117.3 567.65L112.44 563.59L107.65 559.41L102.94 555.14L98.3 550.76L93.73 546.27L89.24 541.7L84.86 537.06L80.59 532.34L76.41 527.56L72.35 522.7L68.38 517.78L64.52 512.79L60.77 507.74L57.12 502.62L53.58 497.44L50.15 492.2L46.83 486.9L43.61 481.54L40.51 476.13L37.51 470.66L34.62 465.13L31.85 459.56L29.19 453.93L26.64 448.25L24.2 442.53L21.87 436.75L19.66 430.93L17.57 425.07L15.58 419.17L13.72 413.22L11.97 407.23L10.34 401.21L8.82 395.15L7.42 389.05L6.15 382.92L4.99 376.75L3.95 370.55L3.03 364.32L2.23 358.07L1.55 351.78L0.99 345.47L0.56 339.14L0.25 332.78L0.06 326.4L0 320L0.06 313.6L0.25 307.22L0.56 300.86L0.99 294.53L1.55 288.22L2.23 281.93L3.03 275.67L3.95 269.45L4.99 263.25L6.15 257.08L7.42 250.95L8.82 244.85L10.34 238.79L11.97 232.77L13.72 226.78L15.58 220.83L17.57 214.93L19.66 209.06L21.87 203.25L24.2 197.47L26.64 191.75L29.19 186.07L31.85 180.44L34.62 174.87L37.51 169.34L40.51 163.87L43.61 158.46L46.83 153.1L50.15 147.8L53.58 142.56L57.12 137.38L60.77 132.26L64.52 127.21L68.38 122.22L72.35 117.29L76.41 112.44L80.59 107.65L84.86 102.94L89.24 98.3L93.73 93.73L98.3 89.24L102.94 84.86L107.65 80.59L112.44 76.41L117.29 72.34L122.22 68.38L127.21 64.52L132.26 60.77L137.38 57.12L142.56 53.58L147.8 50.15L153.1 46.83L158.46 43.61L163.87 40.51L169.34 37.51L174.87 34.62L180.44 31.85L186.07 29.19L191.75 26.64L197.47 24.2L203.25 21.87L209.07 19.66L214.93 17.57L220.83 15.58L226.78 13.72L232.77 11.97L238.79 10.34L244.85 8.82L250.95 7.42L257.08 6.15L263.25 4.99L269.45 3.95L275.67 3.03L281.93 2.23L288.22 1.55L294.53 0.99L300.86 0.56L307.22 0.25L313.6 0.06L320 0L326.4 0.06L332.78 0.25ZM296.86 38.44L285.48 39.6L274.24 41.2L263.14 43.25L252.19 45.72L241.41 48.62L230.8 51.93L220.38 55.63L210.14 59.74L200.11 64.22L190.28 69.08L180.68 74.3L171.3 79.88L162.16 85.81L153.27 92.08L144.63 98.67L136.25 105.59L128.15 112.81L120.34 120.34L112.81 128.15L105.59 136.25L98.67 144.63L92.08 153.27L85.81 162.16L79.88 171.3L74.3 180.68L69.08 190.28L64.22 200.11L59.74 210.14L55.63 220.38L51.93 230.8L48.62 241.41L45.72 252.19L43.25 263.14L41.2 274.24L39.6 285.48L38.44 296.86L37.74 308.37L37.5 320L37.74 331.63L38.44 343.14L39.6 354.52L41.2 365.76L43.25 376.86L45.72 387.81L48.62 398.59L51.93 409.2L55.63 419.62L59.74 429.86L64.22 439.89L69.08 449.72L74.3 459.32L79.88 468.7L85.81 477.84L92.08 486.73L98.67 495.37L105.59 503.75L112.81 511.85L120.34 519.66L128.15 527.19L136.25 534.41L144.63 541.33L153.27 547.92L162.16 554.19L171.3 560.12L180.68 565.7L190.28 570.92L200.11 575.78L210.14 580.26L220.38 584.37L230.8 588.07L241.41 591.38L252.19 594.28L263.14 596.75L274.24 598.8L285.48 600.4L296.86 601.56L308.37 602.26L320 602.5L331.63 602.26L343.14 601.56L354.52 600.4L365.76 598.8L376.86 596.75L387.81 594.28L398.59 591.38L409.2 588.07L419.62 584.37L429.86 580.26L439.89 575.78L449.72 570.92L459.32 565.7L468.7 560.12L477.84 554.19L486.73 547.92L495.37 541.33L503.75 534.41L511.85 527.19L519.66 519.66L527.19 511.85L534.41 503.75L541.33 495.37L547.92 486.73L554.19 477.84L560.12 468.7L565.7 459.32L570.92 449.72L575.78 439.89L580.26 429.86L584.37 419.62L588.07 409.2L591.38 398.59L594.28 387.81L596.75 376.86L598.8 365.76L600.4 354.52L601.56 343.14L602.26 331.63L602.5 320L602.26 308.37L601.56 296.86L600.4 285.48L598.8 274.24L596.75 263.14L594.28 252.19L591.38 241.41L588.07 230.8L584.37 220.38L580.26 210.14L575.78 200.11L570.92 190.28L565.7 180.68L560.12 171.3L554.19 162.16L547.92 153.27L541.33 144.63L534.41 136.25L527.19 128.15L519.66 120.34L511.85 112.81L503.75 105.59L495.37 98.67L486.73 92.08L477.84 85.81L468.7 79.88L459.32 74.3L449.72 69.08L439.89 64.22L429.86 59.74L419.62 55.63L409.2 51.93L398.59 48.62L387.81 45.72L376.86 43.25L365.76 41.2L354.52 39.6L343.14 38.44L331.63 37.74L320 37.5L308.37 37.74L296.86 38.44Z" id="b7HPyZJvpt"></path><path d="M476.19 409.71C392.54 242.4 346.06 149.45 336.77 130.86C333.6 124.51 327.1 120.5 320 120.5C312.9 120.5 306.4 124.51 303.23 130.86C293.94 149.45 247.46 242.4 163.81 409.71C158.71 409.71 155.88 409.71 155.31 409.71C144.96 409.71 136.56 418.1 136.56 428.46C136.56 438.81 144.96 447.21 155.31 447.21C157.31 447.21 173.3 447.21 175.3 447.21C175.33 447.21 175.36 447.21 175.38 447.21C175.42 447.21 175.46 447.21 175.51 447.21C177.5 447.21 193.48 447.21 195.48 447.21C205.83 447.21 214.23 438.81 214.23 428.46C214.23 421.4 210.32 415.26 204.56 412.06C212.25 396.67 250.73 319.7 320 181.17C389.27 319.7 427.75 396.67 435.44 412.06C429.68 415.26 425.77 421.4 425.77 428.46C425.77 438.82 434.17 447.21 444.52 447.21C448.54 447.21 480.67 447.21 484.69 447.21C495.04 447.21 503.44 438.82 503.44 428.46C503.44 418.1 495.04 409.71 484.69 409.71C483.55 409.71 480.72 409.71 476.19 409.71Z" id="a2xE5p9zG4"></path><path d="M320 0C320 3.75 320 33.75 320 37.5C475.77 37.5 602.5 164.23 602.5 320C602.5 475.77 475.77 602.5 320 602.5C320 606.25 320 636.25 320 640C405.48 640 485.83 606.71 546.28 546.27C606.71 485.83 640 405.48 640 320C640 234.52 606.71 154.17 546.28 93.73C485.84 33.28 405.48 0 320 0Z" id="f11aKNo8ID"></path><path d="M444.52 447.21C448.54 447.21 480.67 447.21 484.69 447.21C495.04 447.21 503.44 438.81 503.44 428.46C503.44 418.1 495.04 409.71 484.69 409.71C484.12 409.71 481.29 409.71 476.19 409.71C392.54 242.4 346.06 149.45 336.77 130.86C333.6 124.51 327.1 120.5 320 120.5C320 124.54 320 144.77 320 181.17C389.27 319.7 427.75 396.67 435.44 412.06C429.68 415.26 425.77 421.4 425.77 428.46C425.77 438.81 434.17 447.21 444.52 447.21Z" id="byPXQ3m7n"></path><path d="M345.38 8.98L357.87 10.25L370.2 12.01L382.37 14.24L394.38 16.95L406.2 20.12L417.82 23.73L429.25 27.79L440.47 32.28L451.47 37.18L462.23 42.5L472.76 48.22L483.03 54.33L493.04 60.81L502.79 67.67L512.25 74.89L521.42 82.46L530.29 90.37L538.85 98.61L547.09 107.17L555 116.04L562.57 125.21L569.78 134.67L576.64 144.41L583.13 154.42L589.24 164.7L594.95 175.22L600.27 185.99L605.18 196.98L609.66 208.2L613.72 219.63L617.34 231.26L620.5 243.08L623.21 255.08L625.45 267.25L627.21 279.59L628.47 292.07L629.24 304.7L629.5 317.45L629.24 330.21L628.47 342.84L627.21 355.32L625.45 367.66L623.21 379.83L620.5 391.83L617.34 403.65L613.72 415.28L609.66 426.71L605.18 437.92L600.27 448.92L594.95 459.69L589.24 470.21L583.13 480.48L576.64 490.5L569.78 500.24L562.57 509.7L555 518.87L547.09 527.74L538.85 536.3L530.29 544.54L521.42 552.45L512.25 560.02L502.79 567.24L493.04 574.1L483.03 580.58L472.76 586.69L462.23 592.41L451.47 597.73L440.47 602.63L429.25 607.12L417.82 611.18L406.2 614.79L394.38 617.96L382.37 620.67L370.2 622.9L357.87 624.66L345.38 625.93L332.76 626.7L320 626.95L307.24 626.7L294.62 625.93L282.13 624.66L269.8 622.9L257.63 620.67L245.62 617.96L233.8 614.79L222.18 611.18L210.75 607.12L199.53 602.63L188.53 597.73L177.77 592.41L167.24 586.69L156.97 580.58L146.96 574.1L137.21 567.24L127.75 560.02L118.58 552.45L109.71 544.54L101.15 536.3L92.91 527.74L85 518.87L77.43 509.7L70.22 500.24L63.36 490.5L56.87 480.48L50.76 470.21L45.05 459.69L39.73 448.92L34.82 437.92L30.34 426.71L26.28 415.28L22.66 403.65L19.5 391.83L16.79 379.83L14.55 367.66L12.79 355.32L11.53 342.84L10.76 330.21L10.5 317.45L10.76 304.7L11.53 292.07L12.79 279.59L14.55 267.25L16.79 255.08L19.5 243.08L22.66 231.26L26.28 219.63L30.34 208.2L34.82 196.98L39.73 185.99L45.05 175.22L50.76 164.7L56.87 154.42L63.36 144.41L70.22 134.67L77.43 125.21L85 116.04L92.91 107.17L101.15 98.61L109.71 90.37L118.58 82.46L127.75 74.89L137.21 67.67L146.96 60.81L156.97 54.33L167.24 48.22L177.77 42.5L188.53 37.18L199.53 32.28L210.75 27.79L222.18 23.73L233.8 20.12L245.62 16.95L257.63 14.24L269.8 12.01L282.13 10.25L294.62 8.98L307.24 8.21L320 7.95L332.76 8.21L345.38 8.98ZM165.13 521.24L168.46 523.74L171.83 526.18L175.24 528.57L178.7 530.91L182.19 533.19L185.72 535.42L189.29 537.59L192.9 539.7L196.55 541.76L200.23 543.75L203.94 545.69L207.7 547.57L211.48 549.39L215.3 551.15L219.16 552.85L223.04 554.49L226.96 556.06L230.91 557.57L234.89 559.02L238.9 560.4L242.94 561.72L247.01 562.97L251.11 564.16L255.23 565.28L259.38 566.33L263.56 567.31L267.76 568.22L271.99 569.07L276.25 569.84L280.52 570.55L284.83 571.18L289.15 571.74L293.5 572.23L297.86 572.64L302.25 572.98L306.66 573.25L311.09 573.44L315.53 573.56L320 573.59L330.54 573.38L340.98 572.74L351.3 571.69L361.49 570.24L371.55 568.38L381.48 566.14L391.25 563.51L400.87 560.51L410.32 557.15L419.6 553.43L428.7 549.37L437.61 544.96L446.32 540.22L454.82 535.16L463.11 529.79L471.17 524.11L479 518.13L486.6 511.86L493.94 505.31L501.03 498.49L507.85 491.4L514.4 484.05L520.67 476.46L526.65 468.63L532.33 460.56L537.71 452.27L542.77 443.77L547.51 435.06L551.91 426.16L555.98 417.06L559.7 407.78L563.06 398.33L566.06 388.71L568.68 378.93L570.93 369.01L572.78 358.95L574.24 348.75L575.29 338.43L575.93 328L576.14 317.45L576.1 312.99L575.99 308.54L575.8 304.11L575.53 299.71L575.19 295.32L574.77 290.95L574.29 286.6L573.73 282.28L573.09 277.98L572.39 273.7L571.61 269.45L570.77 265.22L569.86 261.01L568.87 256.84L567.82 252.68L566.7 248.56L565.52 244.46L564.26 240.39L562.95 236.35L561.56 232.34L560.12 228.36L558.61 224.41L557.03 220.49L555.4 216.61L553.7 212.75L551.94 208.93L550.12 205.15L548.24 201.4L546.3 197.68L544.3 194L542.25 190.35L540.13 186.74L537.96 183.17L535.74 179.64L533.46 176.15L531.12 172.69L528.73 169.28L526.29 165.9L523.79 162.57L521.24 159.28L161.84 518.69L165.13 521.24ZM299.02 62.17L288.7 63.22L278.51 64.67L268.45 66.53L258.52 68.77L248.75 71.4L239.13 74.4L229.68 77.76L220.4 81.48L211.3 85.54L202.39 89.95L193.68 94.69L185.18 99.75L176.89 105.12L168.83 110.8L161 116.78L153.4 123.05L146.06 129.6L138.97 136.42L132.15 143.51L125.6 150.86L119.33 158.45L113.35 166.28L107.67 174.35L102.29 182.63L97.23 191.14L92.49 199.85L88.09 208.75L84.02 217.85L80.3 227.13L76.94 236.58L73.94 246.2L71.32 255.98L69.07 265.9L67.22 275.96L65.76 286.16L64.71 296.48L64.07 306.91L63.86 317.45L63.9 322.12L64.03 326.77L64.24 331.4L64.53 336.01L64.9 340.59L65.35 345.15L65.88 349.69L66.49 354.2L67.18 358.69L67.95 363.16L68.79 367.59L69.71 372L70.71 376.38L71.78 380.74L72.92 385.06L74.14 389.35L75.43 393.62L76.8 397.85L78.23 402.05L79.73 406.22L81.31 410.35L82.95 414.45L84.66 418.51L86.44 422.54L88.29 426.53L90.2 430.48L92.18 434.4L94.22 438.28L96.33 442.12L98.5 445.91L100.73 449.67L103.02 453.39L105.38 457.06L107.79 460.69L110.27 464.28L112.8 467.83L115.39 471.32L118.04 474.78L120.75 478.18L123.51 481.54L484.09 120.97L480.73 118.2L477.32 115.5L473.87 112.85L470.37 110.26L466.83 107.72L463.24 105.25L459.61 102.83L455.94 100.48L452.22 98.18L448.46 95.95L444.66 93.78L440.83 91.67L436.95 89.63L433.03 87.65L429.08 85.74L425.09 83.9L421.06 82.12L417 80.41L412.9 78.76L408.76 77.19L404.6 75.68L400.4 74.25L396.17 72.89L391.9 71.6L387.61 70.38L383.29 69.23L378.93 68.16L374.55 67.17L370.14 66.25L365.71 65.4L361.24 64.64L356.75 63.95L352.24 63.34L347.7 62.8L343.14 62.35L338.55 61.98L333.95 61.69L329.32 61.48L324.67 61.36L320 61.32L309.46 61.53L299.02 62.17Z" id="asEQoJUVq"></path></defs><g><g><g><use xlink:href="#d1mgRNoxZk" opacity="1" fill="#fcbf29" fill-opacity="1"></use><g><use xlink:href="#d1mgRNoxZk" opacity="1" fill-opacity="0" stroke="#000000" stroke-width="1" stroke-opacity="0"></use></g></g><g><use xlink:href="#b1KWgLGjoA" opacity="1" fill="#ff9822" fill-opacity="1"></use><g><use xlink:href="#b1KWgLGjoA" opacity="1" fill-opacity="0" stroke="#000000" stroke-width="1" stroke-opacity="0"></use></g></g><g><use xlink:href="#b7HPyZJvpt" opacity="1" fill="#9a4c0e" fill-opacity="1"></use><g><use xlink:href="#b7HPyZJvpt" opacity="1" fill-opacity="0" stroke="#000000" stroke-width="1" stroke-opacity="0"></use></g></g><g><use xlink:href="#a2xE5p9zG4" opacity="1" fill="#c20022" fill-opacity="1"></use><g><use xlink:href="#a2xE5p9zG4" opacity="1" fill-opacity="0" stroke="#000000" stroke-width="1" stroke-opacity="0"></use></g></g><g><use xlink:href="#f11aKNo8ID" opacity="1" fill="#713709" fill-opacity="1"></use><g><use xlink:href="#f11aKNo8ID" opacity="1" fill-opacity="0" stroke="#000000" stroke-width="1" stroke-opacity="0"></use></g></g><g><use xlink:href="#byPXQ3m7n" opacity="1" fill="#98001b" fill-opacity="1"></use><g><use xlink:href="#byPXQ3m7n" opacity="1" fill-opacity="0" stroke="#000000" stroke-width="1" stroke-opacity="0"></use></g></g><g><use xlink:href="#asEQoJUVq" opacity="1" fill="#dd352e" fill-opacity="1"></use><g><use xlink:href="#asEQoJUVq" opacity="1" fill-opacity="0" stroke="#000000" stroke-width="1" stroke-opacity="0"></use></g></g></g></g></svg>