<?xml version="1.0" encoding="UTF-8" standalone="no"?>
<!DOCTYPE svg PUBLIC "-//W3C//DTD SVG 1.1//EN" "http://www.w3.org/Graphics/SVG/1.1/DTD/svg11.dtd">
<svg version="1.1" xmlns="http://www.w3.org/2000/svg" xmlns:xlink="http://www.w3.org/1999/xlink" preserveAspectRatio="xMidYMid meet" viewBox="0 0 640 640" width="640" height="640"><defs><path d="M331.87 5.62C328.5 1.88 323.63 0 318.75 0C313.88 0 309 1.88 305.63 5.62C298.13 13.37 238.13 75.37 230.63 83.12C218.63 94.75 226.88 115 243.75 115C258.75 115 378.75 115 393.75 115C410.63 115 418.87 94.75 406.87 83.12C391.87 67.62 339.37 13.37 331.87 5.62Z" id="dWuEeN2um"></path><path d="M525 246.25C525 229.62 545.2 221.18 557.01 232.99C564.76 240.49 626.76 300.49 634.51 307.99C641.83 315.32 641.83 327.18 634.51 334.51C626.76 342.01 564.76 402.01 557.01 409.51C545.25 421.26 525 413.01 525 396.25C525 366.25 525 261.25 525 246.25Z" id="am5qAJLam"></path><path d="M243.75 527.5C226.88 527.5 218.63 547.75 230.63 559.37C238.13 566.87 298.13 626.87 305.63 634.37C309 638.13 313.88 640 318.75 640C323.63 640 328.5 638.13 331.87 634.37C339.37 626.87 399.37 566.87 406.87 559.37C418.87 547.75 410.63 527.5 393.75 527.5C363.75 527.5 258.75 527.5 243.75 527.5Z" id="c2HtsFAPP3"></path><path d="M5.49 334.51C-1.83 327.18 -1.83 315.32 5.49 307.99C12.99 300.49 72.99 240.49 80.49 232.99C92.33 221.16 112.5 229.65 112.5 246.25C112.5 261.25 112.5 381.25 112.5 396.25C112.5 412.97 92.22 421.23 80.49 409.51C65.49 394.51 12.99 342.01 5.49 334.51Z" id="bQdPZpb0"></path><path d="M75 96.25C75 85.89 83.39 77.5 93.75 77.5C108.75 77.5 228.75 77.5 243.75 77.5C260.45 77.5 268.77 97.75 257.01 109.51C242.01 124.51 122.01 244.51 107.01 259.51C95.25 271.26 75 263.01 75 246.25C75 216.25 75 111.25 75 96.25Z" id="c7q08yZq9"></path><path d="M380.49 109.51C368.73 97.75 377.05 77.5 393.75 77.5C408.75 77.5 528.75 77.5 543.75 77.5C554.11 77.5 562.5 85.89 562.5 96.25C562.5 111.25 562.5 231.25 562.5 246.25C562.5 262.97 542.22 271.23 530.49 259.51C500.49 229.51 395.49 124.51 380.49 109.51Z" id="h37pWe9RSL"></path><path d="M393.75 565C377.05 565 368.73 544.75 380.49 532.99C395.49 517.99 515.49 397.99 530.49 382.99C542.33 371.16 562.5 379.65 562.5 396.25C562.5 411.25 562.5 531.25 562.5 546.25C562.5 556.61 554.11 565 543.75 565C513.75 565 408.75 565 393.75 565Z" id="e1buNJszX2"></path><path d="M93.75 565C83.39 565 75 556.61 75 546.25C75 531.25 75 411.25 75 396.25C75 379.56 95.21 371.19 107.01 382.99C122.01 397.99 242.01 517.99 257.01 532.99C268.77 544.75 260.45 565 243.75 565C213.75 565 108.75 565 93.75 565Z" id="b3Gu4DV9ya"></path><path d="M406.87 83.12C403.5 79.38 398.63 77.5 393.75 77.5C378.75 77.5 258.75 77.5 243.75 77.5C238.88 77.5 234 79.38 230.63 83.12C215.63 98.12 95.63 218.12 80.63 233.12C76.88 236.5 75 241.38 75 246.25C75 261.25 75 381.25 75 396.25C75 401.13 76.88 406 80.63 409.37C95.63 424.37 215.63 544.37 230.63 559.37C234 563.13 238.88 565 243.75 565C258.75 565 378.75 565 393.75 565C398.63 565 403.5 563.13 406.87 559.37C421.87 544.37 541.87 424.37 556.87 409.37C560.63 406 562.5 401.13 562.5 396.25C562.5 381.25 562.5 261.25 562.5 246.25C562.5 241.38 560.63 236.5 556.87 233.12C526.87 203.12 421.87 98.12 406.87 83.12Z" id="c2F8mWBQPS"></path><path d="M331.87 634.37C328.5 638.13 323.63 640 318.75 640C318.75 632.5 318.75 595 318.75 527.5C363.75 527.5 388.75 527.5 393.75 527.5C410.63 527.5 418.87 547.75 406.87 559.37C391.87 574.37 339.37 626.87 331.87 634.37Z" id="aKFovpiKr"></path><path d="M318.75 115C318.75 46 318.75 7.67 318.75 0C323.63 0 328.5 1.88 331.87 5.62C339.37 13.37 399.37 75.37 406.87 83.12C418.87 94.75 410.63 115 393.75 115C383.75 115 358.75 115 318.75 115Z" id="b4Widcas1"></path><path d="M562.5 396.25C562.5 401.13 560.63 406 556.87 409.37C541.87 424.37 421.87 544.37 406.87 559.37C403.5 563.13 398.63 565 393.75 565C388.75 565 363.75 565 318.75 565L318.75 77.5C363.75 77.5 388.75 77.5 393.75 77.5C398.63 77.5 403.5 79.38 406.87 83.12C421.87 98.12 541.87 218.12 556.87 233.12C560.63 236.5 562.5 241.38 562.5 246.25C562.5 276.25 562.5 381.25 562.5 396.25Z" id="a1hrLzT4sY"></path><path d="M83.08 336.67C78.02 333.15 75 327.4 75 321.25C75 315.1 78.02 309.35 83.07 305.83C86.98 303.14 179.61 239.13 252.92 207.98C261.93 204.19 272.43 207.93 276.91 216.64C281.42 225.36 278.43 236.07 270.08 241.21C241.85 258.61 225 288.53 225 321.25C225 353.95 241.86 383.89 270.1 401.29C286.16 411.24 278.99 436 260.25 436C235.81 436 103.52 350.78 83.08 336.67Z" id="b4HjshGcd8"></path><path d="M367.66 401.38C395.73 383.74 412.5 353.79 412.5 321.25C412.5 288.71 395.73 258.76 367.66 241.12C359.36 235.92 356.47 225.21 361.01 216.53C365.57 207.85 376.06 204.19 385.04 208.02C458.29 239.53 550.53 303.14 554.43 305.83C559.48 309.33 562.5 315.1 562.5 321.25C562.5 327.4 559.48 333.17 554.43 336.67C534.28 350.57 401.58 436 377.62 436C358.86 436 351.77 411.34 367.66 401.38Z" id="boxR90lgS"></path><path d="M384.38 207.63C355.88 195.62 335.25 190 318.75 190C302.25 190 281.63 195.62 253.13 207.62C221.62 221.5 187.5 269.13 187.5 321.25C187.5 347.5 196.12 372.25 208.5 392.5C220.88 412.75 237.38 427.75 253.13 434.87C281.63 446.87 302.25 452.5 318.75 452.5C335.25 452.5 355.88 446.87 384.38 434.87C414.75 422.5 450 373.75 450 321.25C450 295.75 441.75 270.62 429 250.38C416.62 229.75 400.5 214.37 384.38 207.63Z" id="bsOdIxNNa"></path><path d="M384.38 434.87C355.88 446.87 335.25 452.5 318.75 452.5C318.75 426.25 318.75 216.25 318.75 190C335.25 190 355.88 195.62 384.38 207.62C400.5 214.37 416.63 229.75 429 250.37C441.75 270.62 450 295.75 450 321.25C450 373.75 414.75 422.5 384.38 434.87Z" id="f3V4zlGZ9c"></path><path d="M262.5 321.25C262.5 352.37 287.62 377.5 318.75 377.5C349.88 377.5 375 352.37 375 321.25C375 290.12 349.88 265 318.75 265C287.62 265 262.5 290.12 262.5 321.25Z" id="b1XDc88ioo"></path><path d="M318.75 377.5C349.88 377.5 375 352.37 375 321.25C375 290.13 349.88 265 318.75 265C318.75 287.5 318.75 366.25 318.75 377.5Z" id="e2WOAnasIG"></path><path d="M343.23 22.49L355.27 23.71L367.17 25.41L378.91 27.56L390.48 30.18L401.88 33.23L413.1 36.72L424.12 40.63L434.94 44.96L445.54 49.69L455.93 54.82L466.08 60.33L475.99 66.22L485.64 72.48L495.04 79.09L504.16 86.06L513.01 93.36L521.56 100.98L529.82 108.93L537.77 117.19L545.39 125.74L552.69 134.59L559.66 143.71L566.27 153.11L572.53 162.76L578.42 172.67L583.93 182.82L589.06 193.21L593.79 203.81L598.12 214.63L602.03 225.65L605.52 236.87L608.57 248.27L611.19 259.84L613.34 271.58L615.04 283.48L616.26 295.52L617 307.7L617.25 320L617 332.3L616.26 344.48L615.04 356.52L613.34 368.42L611.19 380.16L608.57 391.73L605.52 403.13L602.03 414.35L598.12 425.37L593.79 436.19L589.06 446.79L583.93 457.18L578.42 467.33L572.53 477.24L566.27 486.89L559.66 496.29L552.69 505.41L545.39 514.26L537.77 522.81L529.82 531.07L521.56 539.02L513.01 546.64L504.16 553.94L495.04 560.91L485.64 567.52L475.99 573.78L466.08 579.67L455.93 585.18L445.54 590.31L434.94 595.04L424.12 599.37L413.1 603.28L401.88 606.77L390.48 609.82L378.91 612.44L367.17 614.59L355.27 616.29L343.23 617.51L331.05 618.25L318.75 618.5L306.45 618.25L294.27 617.51L282.23 616.29L270.33 614.59L258.59 612.44L247.02 609.82L235.62 606.77L224.4 603.28L213.38 599.37L202.56 595.04L191.96 590.31L181.57 585.18L171.42 579.67L161.51 573.78L151.86 567.52L142.46 560.91L133.34 553.94L124.49 546.64L115.94 539.02L107.68 531.07L99.73 522.81L92.11 514.26L84.81 505.41L77.84 496.29L71.23 486.89L64.97 477.24L59.08 467.33L53.57 457.18L48.44 446.79L43.71 436.19L39.38 425.37L35.47 414.35L31.98 403.13L28.93 391.73L26.31 380.16L24.16 368.42L22.46 356.52L21.24 344.48L20.5 332.3L20.25 320L20.5 307.7L21.24 295.52L22.46 283.48L24.16 271.58L26.31 259.84L28.93 248.27L31.98 236.87L35.47 225.65L39.38 214.63L43.71 203.81L48.44 193.21L53.57 182.82L59.08 172.67L64.97 162.76L71.23 153.11L77.84 143.71L84.81 134.59L92.11 125.74L99.73 117.19L107.68 108.93L115.94 100.98L124.49 93.36L133.34 86.06L142.46 79.09L151.86 72.48L161.51 66.22L171.42 60.33L181.57 54.82L191.96 49.69L202.56 44.96L213.38 40.63L224.4 36.72L235.62 33.23L247.02 30.18L258.59 27.56L270.33 25.41L282.23 23.71L294.27 22.49L306.45 21.75L318.75 21.5L331.05 21.75L343.23 22.49ZM169.38 516.55L172.59 518.95L175.85 521.31L179.14 523.62L182.47 525.87L185.84 528.07L189.25 530.22L192.69 532.31L196.17 534.35L199.68 536.33L203.23 538.26L206.82 540.13L210.44 541.94L214.09 543.7L217.77 545.39L221.49 547.03L225.24 548.61L229.02 550.13L232.83 551.58L236.66 552.98L240.53 554.31L244.43 555.58L248.35 556.79L252.3 557.93L256.28 559.01L260.29 560.03L264.32 560.98L268.37 561.86L272.45 562.67L276.55 563.42L280.68 564.1L284.83 564.71L289 565.25L293.19 565.72L297.4 566.12L301.63 566.45L305.88 566.7L310.15 566.89L314.44 567L318.75 567.04L328.92 566.83L338.98 566.22L348.93 565.2L358.77 563.8L368.47 562.01L378.04 559.84L387.47 557.31L396.75 554.42L405.86 551.18L414.81 547.59L423.59 543.67L432.18 539.42L440.58 534.85L448.78 529.97L456.77 524.79L464.55 519.31L472.1 513.54L479.43 507.49L486.51 501.18L493.35 494.6L499.93 487.76L506.24 480.68L512.29 473.35L518.06 465.8L523.54 458.02L528.72 450.03L533.6 441.83L538.17 433.43L542.42 424.84L546.34 416.06L549.93 407.11L553.17 398L556.06 388.72L558.59 379.29L560.76 369.72L562.55 360.02L563.95 350.18L564.97 340.23L565.58 330.17L565.79 320L565.75 315.69L565.64 311.4L565.45 307.13L565.2 302.88L564.87 298.65L564.47 294.44L564 290.25L563.46 286.08L562.85 281.93L562.17 277.8L561.42 273.7L560.61 269.62L559.73 265.57L558.78 261.54L557.76 257.53L556.68 253.55L555.54 249.6L554.33 245.68L553.06 241.78L551.73 237.91L550.33 234.07L548.88 230.27L547.36 226.49L545.78 222.74L544.14 219.02L542.45 215.34L540.69 211.68L538.88 208.07L537.01 204.48L535.08 200.93L533.1 197.41L531.06 193.93L528.97 190.49L526.82 187.08L524.62 183.71L522.37 180.38L520.06 177.09L517.7 173.84L515.3 170.62L512.84 167.45L166.21 514.09L169.38 516.55ZM298.52 73.78L288.57 74.8L278.73 76.2L269.03 77.99L259.46 80.16L250.03 82.69L240.75 85.58L231.64 88.82L222.69 92.41L213.91 96.33L205.32 100.58L196.92 105.15L188.72 110.03L180.73 115.21L172.95 120.69L165.4 126.46L158.07 132.51L150.99 138.82L144.15 145.4L137.57 152.24L131.26 159.32L125.21 166.65L119.44 174.2L113.96 181.98L108.78 189.97L103.9 198.17L99.33 206.57L95.08 215.16L91.16 223.94L87.57 232.89L84.33 242L81.44 251.28L78.91 260.71L76.74 270.28L74.95 279.98L73.55 289.82L72.53 299.77L71.92 309.83L71.71 320L71.75 324.5L71.88 328.99L72.08 333.45L72.36 337.89L72.71 342.31L73.15 346.71L73.66 351.09L74.25 355.44L74.92 359.77L75.66 364.08L76.47 368.36L77.36 372.61L78.32 376.84L79.35 381.03L80.46 385.2L81.63 389.34L82.88 393.46L84.19 397.54L85.57 401.59L87.02 405.61L88.54 409.59L90.13 413.54L91.78 417.46L93.49 421.35L95.27 425.2L97.12 429.01L99.02 432.79L100.99 436.53L103.03 440.23L105.12 443.89L107.27 447.52L109.48 451.1L111.75 454.65L114.08 458.15L116.47 461.61L118.91 465.03L121.41 468.4L123.97 471.73L126.58 475.02L129.25 478.25L477 130.5L473.77 127.83L470.48 125.22L467.15 122.66L463.78 120.16L460.36 117.72L456.9 115.33L453.4 113L449.85 110.73L446.27 108.52L442.65 106.37L438.98 104.28L435.28 102.24L431.54 100.27L427.76 98.37L423.95 96.52L420.1 94.74L416.22 93.03L412.3 91.38L408.35 89.79L404.36 88.27L400.34 86.82L396.29 85.44L392.21 84.13L388.1 82.88L383.96 81.71L379.79 80.6L375.59 79.57L371.36 78.61L367.11 77.72L362.83 76.91L358.53 76.17L354.2 75.5L349.84 74.91L345.47 74.4L341.07 73.96L336.65 73.61L332.2 73.33L327.74 73.13L323.25 73L318.75 72.96L308.58 73.17L298.52 73.78Z" id="bpL6ON7hC"></path></defs><g><g><g><use xlink:href="#dWuEeN2um" opacity="1" fill="#ffde33" fill-opacity="1"></use><g><use xlink:href="#dWuEeN2um" opacity="1" fill-opacity="0" stroke="#000000" stroke-width="1" stroke-opacity="0"></use></g></g><g><use xlink:href="#am5qAJLam" opacity="1" fill="#ffbc33" fill-opacity="1"></use><g><use xlink:href="#am5qAJLam" opacity="1" fill-opacity="0" stroke="#000000" stroke-width="1" stroke-opacity="0"></use></g></g><g><use xlink:href="#c2HtsFAPP3" opacity="1" fill="#ffde33" fill-opacity="1"></use><g><use xlink:href="#c2HtsFAPP3" opacity="1" fill-opacity="0" stroke="#000000" stroke-width="1" stroke-opacity="0"></use></g></g><g><use xlink:href="#bQdPZpb0" opacity="1" fill="#ffde33" fill-opacity="1"></use><g><use xlink:href="#bQdPZpb0" opacity="1" fill-opacity="0" stroke="#000000" stroke-width="1" stroke-opacity="0"></use></g></g><g><use xlink:href="#c7q08yZq9" opacity="1" fill="#f6b73c" fill-opacity="1"></use><g><use xlink:href="#c7q08yZq9" opacity="1" fill-opacity="0" stroke="#000000" stroke-width="1" stroke-opacity="0"></use></g></g><g><use xlink:href="#h37pWe9RSL" opacity="1" fill="#f29737" fill-opacity="1"></use><g><use xlink:href="#h37pWe9RSL" opacity="1" fill-opacity="0" stroke="#000000" stroke-width="1" stroke-opacity="0"></use></g></g><g><use xlink:href="#e1buNJszX2" opacity="1" fill="#f29737" fill-opacity="1"></use><g><use xlink:href="#e1buNJszX2" opacity="1" fill-opacity="0" stroke="#000000" stroke-width="1" stroke-opacity="0"></use></g></g><g><use xlink:href="#b3Gu4DV9ya" opacity="1" fill="#f6b73c" fill-opacity="1"></use><g><use xlink:href="#b3Gu4DV9ya" opacity="1" fill-opacity="0" stroke="#000000" stroke-width="1" stroke-opacity="0"></use></g></g><g><use xlink:href="#c2F8mWBQPS" opacity="1" fill="#ffde33" fill-opacity="1"></use><g><use xlink:href="#c2F8mWBQPS" opacity="1" fill-opacity="0" stroke="#000000" stroke-width="1" stroke-opacity="0"></use></g></g><g><use xlink:href="#aKFovpiKr" opacity="1" fill="#ffbc33" fill-opacity="1"></use><g><use xlink:href="#aKFovpiKr" opacity="1" fill-opacity="0" stroke="#000000" stroke-width="1" stroke-opacity="0"></use></g></g><g><use xlink:href="#b4Widcas1" opacity="1" fill="#ffbc33" fill-opacity="1"></use><g><use xlink:href="#b4Widcas1" opacity="1" fill-opacity="0" stroke="#000000" stroke-width="1" stroke-opacity="0"></use></g></g><g><use xlink:href="#a1hrLzT4sY" opacity="1" fill="#ffbc33" fill-opacity="1"></use><g><use xlink:href="#a1hrLzT4sY" opacity="1" fill-opacity="0" stroke="#000000" stroke-width="1" stroke-opacity="0"></use></g></g><g><use xlink:href="#b4HjshGcd8" opacity="1" fill="#e1e4fb" fill-opacity="1"></use><g><use xlink:href="#b4HjshGcd8" opacity="1" fill-opacity="0" stroke="#000000" stroke-width="1" stroke-opacity="0"></use></g></g><g><use xlink:href="#boxR90lgS" opacity="1" fill="#c5c9f7" fill-opacity="1"></use><g><use xlink:href="#boxR90lgS" opacity="1" fill-opacity="0" stroke="#000000" stroke-width="1" stroke-opacity="0"></use></g></g><g><use xlink:href="#bsOdIxNNa" opacity="1" fill="#495a79" fill-opacity="1"></use><g><use xlink:href="#bsOdIxNNa" opacity="1" fill-opacity="0" stroke="#000000" stroke-width="1" stroke-opacity="0"></use></g></g><g><use xlink:href="#f3V4zlGZ9c" opacity="1" fill="#42516d" fill-opacity="1"></use><g><use xlink:href="#f3V4zlGZ9c" opacity="1" fill-opacity="0" stroke="#000000" stroke-width="1" stroke-opacity="0"></use></g></g><g><use xlink:href="#b1XDc88ioo" opacity="1" fill="#1de8f1" fill-opacity="1"></use><g><use xlink:href="#b1XDc88ioo" opacity="1" fill-opacity="0" stroke="#000000" stroke-width="1" stroke-opacity="0"></use></g></g><g><use xlink:href="#e2WOAnasIG" opacity="1" fill="#1bd9de" fill-opacity="1"></use><g><use xlink:href="#e2WOAnasIG" opacity="1" fill-opacity="0" stroke="#000000" stroke-width="1" stroke-opacity="0"></use></g></g><g><use xlink:href="#bpL6ON7hC" opacity="1" fill="#dd352e" fill-opacity="1"></use><g><use xlink:href="#bpL6ON7hC" opacity="1" fill-opacity="0" stroke="#000000" stroke-width="1" stroke-opacity="0"></use></g></g></g></g></svg>