<svg height="512pt" viewBox="-19 0 512 512.00087" width="512pt" xmlns="http://www.w3.org/2000/svg"><path d="m185.230469 106.785156c-76.136719 0-138.023438 61.703125-138.023438 138.019532v20.515624c0 22.128907-8.789062 43.351563-24.4375 59l-19 19.003907c-8.050781 8.046875-2.351562 21.808593 9.03125 21.808593h27.328125c3.910156 0 7.078125 3.167969 7.078125 7.078126v23.445312c0 35.035156 28.667969 63.703125 63.703125 63.703125 13.660156 0 24.773438 11.070313 24.773438 24.769531v20.351563c0 4.152343 3.367187 7.519531 7.519531 7.519531h117.5625c4.214844 0 7.628906-3.414062 7.628906-7.628906v-52.191406c0-20.460938 6.820313-40.605469 20.359375-55.945313 21.46875-24.328125 34.496094-56.269531 34.496094-91.265625v-60.160156c0-76.230469-61.792969-138.023438-138.019531-138.023438zm0 0" fill="#e4eaf8"/><path d="m24.242188 343.324219 19.003906-19.003907c15.648437-15.648437 24.4375-36.871093 24.4375-59v-20.515624c0-72.863282 56.417968-132.402344 127.785156-137.640626-3.382812-.246093-6.796875-.378906-10.238281-.378906-76.136719 0-138.023438 61.703125-138.023438 138.019532v20.515624c0 22.128907-8.789062 43.351563-24.4375 59l-19 19.003907c-8.050781 8.046875-2.351562 21.808593 9.03125 21.808593h20.476563c-11.382813 0-17.082032-13.761718-9.035156-21.808593zm0 0" fill="#ccd2db"/><path d="m156.160156 504.480469v-20.351563c0-13.703125-11.113281-24.773437-24.773437-24.773437-35.035157 0-63.703125-28.664063-63.703125-63.699219v-23.445312c0-3.910157-3.167969-7.078126-7.078125-7.078126h-20.476563c3.910156 0 7.078125 3.167969 7.078125 7.078126v23.445312c0 35.035156 28.667969 63.699219 63.703125 63.699219 13.660156 0 24.773438 11.070312 24.773438 24.773437v20.351563c0 4.152343 3.367187 7.519531 7.519531 7.519531h20.476563c-4.152344 0-7.519532-3.367188-7.519532-7.519531zm0 0" fill="#ccd2db"/><path d="m268.472656 99.1875h-38.84375c-1.234375 0-2.234375-1.003906-2.234375-2.238281v-94.707031c0-2.3125005-3.082031-3.105469-4.199219-1.082032l-69.613281 126.152344c-.824219 1.492188.253907 3.320312 1.957031 3.320312h38.84375c1.234376 0 2.238282 1 2.238282 2.234376v94.707031c0 2.3125 3.078125 3.105469 4.195312 1.082031l69.617188-126.152344c.820312-1.492187-.257813-3.316406-1.960938-3.316406zm0 0" fill="#1dd1a1"/><path d="m384.507812 352.316406-4.023437-31.796875c-.128906-1.011719.589844-1.9375 1.601563-2.066406l77.53125-9.804687c1.894531-.238282 2.226562-2.84375.453124-3.546876l-110.488281-43.929687c-1.308593-.519531-2.691406.554687-2.515625 1.945313l4.023438 31.800781c.128906 1.011719-.589844 1.933593-1.601563 2.0625l-77.535156 9.808593c-1.890625.238282-2.222656 2.839844-.449219 3.546876l110.488282 43.929687c1.304687.519531 2.691406-.554687 2.515624-1.949219zm0 0" fill="#ff6b6b"/><path d="m421.652344 168.746094-29.277344-25.523438c-.929688-.8125-.839844-2.445312.207031-3.644531l80.132813-91.898437c1.957031-2.246094.308594-5.039063-2.246094-3.808594l-159.214844 76.667968c-1.878906.90625-2.613281 3.386719-1.328125 4.503907l29.273438 25.527343c.933593.8125.839843 2.445313-.207031 3.640626l-80.132813 91.902343c-1.957031 2.246094-.304687 5.039063 2.25 3.808594l159.210937-76.667969c1.882813-.90625 2.613282-3.386718 1.332032-4.507812zm0 0" fill="#feca57"/><path d="m174.1875 127.3125 53.207031-96.417969v-28.652343c0-2.3125005-3.082031-3.105469-4.199219-1.082032l-69.613281 126.152344c-.824219 1.492188.253907 3.320312 1.957031 3.320312h20.605469c-1.703125 0-2.78125-1.828124-1.957031-3.320312zm0 0" fill="#15ba8b"/><path d="m217.226562 132.867188c0-1.234376-1.003906-2.234376-2.238281-2.234376h-20.605469c1.234376 0 2.238282 1 2.238282 2.234376v94.707031c0 2.3125 3.078125 3.105469 4.195312 1.082031l16.410156-29.734375zm0 0" fill="#15ba8b"/><path d="m350.957031 295.855469 16.90625-2.136719c1.011719-.128906 1.730469-1.050781 1.601563-2.0625l-3.007813-23.773438-16.875-6.710937c-1.304687-.519531-2.6875.554687-2.511719 1.949219l4.023438 31.796875c.039062.332031-.015625.652343-.136719.9375zm0 0" fill="#ee5253"/><path d="m289.878906 307.074219c-1.074218-.429688-1.367187-1.550781-1.015625-2.425781l-16.90625 2.140624c-1.894531.238282-2.222656 2.839844-.453125 3.546876l110.488282 43.929687c1.304687.515625 2.691406-.554687 2.515624-1.949219l-1.015624-8.023437zm0 0" fill="#ee5253"/><path d="m359.597656 154.210938c1.046875-1.195313 1.140625-2.828126.207032-3.640626l-29.273438-25.527343c-1.285156-1.117188-.550781-3.597657 1.328125-4.503907l133.292969-64.183593 7.5625-8.675781c1.957031-2.246094.308594-5.039063-2.246094-3.808594l-159.214844 76.667968c-1.878906.90625-2.613281 3.386719-1.328125 4.503907l29.273438 25.527343c.933593.8125.839843 2.445313-.207031 3.640626l-80.132813 91.902343c-1.957031 2.246094-.304687 5.039063 2.25 3.808594l25.921875-12.484375zm0 0" fill="#f4b537"/></svg>