<?xml version="1.0" encoding="iso-8859-1"?>
<!-- Generator: Adobe Illustrator 19.0.0, SVG Export Plug-In . SVG Version: 6.00 Build 0)  -->
<svg version="1.1" id="Layer_1" xmlns="http://www.w3.org/2000/svg" xmlns:xlink="http://www.w3.org/1999/xlink" x="0px" y="0px"
	 viewBox="0 0 512 512" style="enable-background:new 0 0 512 512;" xml:space="preserve">
<path style="fill:#F26464;" d="M289.799,297.98L289.799,297.98C372.788,284.375,450.008,246.863,512,190.037l0,0L393.268,75.015
	c-29.703-28.774-74.877-34.385-110.717-13.751L256,76.552l-26.551-15.287c-35.84-20.635-81.014-15.025-110.717,13.751L0,190.037l0,0
	c61.992,56.826,139.212,94.339,222.201,107.943l0,0C244.584,301.65,267.415,301.65,289.799,297.98z"/>
<path style="fill:#DD5757;" d="M270.846,297.98L270.846,297.98c-82.989-13.605-176.422-51.117-238.414-107.943l0,0
	c0,0,115.497-134.143,175.118-137.871c-31.008-8.444-64.921-0.302-88.818,22.85L0,190.037l0,0
	c61.992,56.826,139.212,94.339,222.201,107.943l0,0c19.233,3.152,38.796,3.588,58.122,1.323
	C277.157,298.932,273.997,298.497,270.846,297.98z"/>
<path style="fill:#3C4A5E;" d="M145.735,177.084c72.184-19.748,148.346-19.748,220.53,0
	C294.081,196.832,217.919,196.832,145.735,177.084z"/>
<g>
	<ellipse style="fill:#F78181;" cx="345.527" cy="96.653" rx="23.351" ry="15.568"/>
	<ellipse style="fill:#F78181;" cx="256" cy="214.11" rx="47.355" ry="6.254"/>
</g>
<g>
	<path style="fill:#AFCCD3;" d="M256,463.097c-36.332,0-72.65-13.824-100.309-41.482c-3.061-3.061-3.061-8.023,0-11.082
		c3.062-3.06,8.023-3.059,11.083,0c49.197,49.199,129.252,49.199,178.451,0c3.063-3.06,8.024-3.059,11.083,0
		c3.06,3.06,3.06,8.022,0,11.082C328.657,449.267,292.323,463.097,256,463.097z"/>
	<path style="fill:#AFCCD3;" d="M256,418.691c-24.953,0-49.898-9.495-68.895-28.491c-3.061-3.061-3.061-8.022,0-11.082
		c3.062-3.06,8.023-3.06,11.083,0c31.879,31.877,83.745,31.877,115.622,0c3.063-3.06,8.024-3.059,11.083,0
		c3.06,3.06,3.06,8.023,0,11.083C305.902,409.192,280.947,418.691,256,418.691z"/>
	<path style="fill:#AFCCD3;" d="M256,374.285c-13.573,0-27.146-5.167-37.479-15.499c-3.062-3.06-3.062-8.023-0.001-11.083
		c3.062-3.06,8.024-3.06,11.082,0c14.558,14.554,38.241,14.556,52.793,0c3.062-3.06,8.023-3.06,11.083,0s3.06,8.022,0,11.082
		C283.146,369.119,269.573,374.285,256,374.285z"/>
</g>
<g>
</g>
<g>
</g>
<g>
</g>
<g>
</g>
<g>
</g>
<g>
</g>
<g>
</g>
<g>
</g>
<g>
</g>
<g>
</g>
<g>
</g>
<g>
</g>
<g>
</g>
<g>
</g>
<g>
</g>
</svg>
