<?xml version="1.0" encoding="utf-8"?>
<!-- Generator: Adobe Illustrator 19.0.0, SVG Export Plug-In . SVG Version: 6.00 Build 0)  -->
<svg version="1.1" id="Layer_1" xmlns="http://www.w3.org/2000/svg" xmlns:xlink="http://www.w3.org/1999/xlink" x="0px" y="0px"
	 viewBox="-114 142.3 383 508.7" style="enable-background:new -114 142.3 383 508.7;" xml:space="preserve">
<style type="text/css">
	.st0{fill:none;}
	.st1{fill:#AA6B07;}
	.st2{fill:none;stroke:#C98441;stroke-width:0.5;stroke-miterlimit:10;}
	.st3{fill:#E5AA17;}
	.st4{fill:#DB9D12;}
	.st5{fill:#FFB000;}
	.st6{fill:#EFAC06;}
	.st7{fill:#3A1E0B;}
	.st8{fill:#C6A89C;}
	.st9{fill:#B38B7B;}
	.st10{fill:#9587E8;}
	.st11{fill:#F4F0EF;}
	.st12{fill:#891272;}
	.st13{fill:none;stroke:#4C2308;stroke-miterlimit:10;}
	.st14{fill:#897F79;}
	.st15{fill:#868686;}
	.st16{fill:#261306;}
</style>
<g>
	<line class="st0" x1="85.8" y1="612.8" x2="85.8" y2="612.7"/>
	<line class="st0" x1="85" y1="612.8" x2="85" y2="612.7"/>
	<g>
		<path class="st1" d="M89.9,601.2c-0.1,0.1-0.3,0.1-0.5,0.1H70.5c-0.2,0-0.4,0-0.5-0.1c2.8-0.6,4.7-2,4.7-3.5s-1.9-3.5-4.7-4.1
			c0.1-0.1,0.3-0.1,0.5-0.1h18.9c0.2,0,0.4,0,0.5,0.1c-2.8,0.6-4.7,2.6-4.7,4.1S87.1,600.6,89.9,601.2z"/>
		<path class="st2" d="M66.6,590.2c1.9,5,6.9,8.8,13,8.8c6.5,0,11.9-3.7,13.4-9.2"/>
		<path class="st3" d="M89,601.2c-0.1,0.1-0.3,0.1-0.5,0.1H71.2c-0.2,0-0.4,0-0.5-0.1c2.6-0.6,4.3-2,4.3-3.5s-2.6-3.5-5.2-4.1
			c0.2-0.2,1.2-0.1,1.4-0.1h17.3c0.2,0,1.2-0.1,1.4,0.1c-2.6,0.6-5.2,2.6-5.2,4.1S86.4,600.6,89,601.2z"/>
		<path class="st1" d="M79.9,598.3c-13.7,0-24.7,11.1-24.7,24.7c0,13.7,11.1,24.7,24.7,24.7c13.7,0,24.7-11.1,24.7-24.7
			C104.6,609.4,93.5,598.3,79.9,598.3z M79.9,643.7c-11.4,0-20.6-9.2-20.6-20.6s9.2-20.6,20.6-20.6c11.4,0,20.6,9.2,20.6,20.6
			S91.2,643.7,79.9,643.7z"/>
		<circle class="st3" cx="79.8" cy="623.6" r="24.7"/>
		<circle class="st3" cx="79.8" cy="623.6" r="24.7"/>
		<circle class="st1" cx="79.8" cy="623.6" r="20.6"/>
		<circle class="st4" cx="79.8" cy="623.6" r="17.7"/>
		<g>
			<path class="st1" d="M73.3,601.8c0,0.6-0.5,1.1-1.1,1.1s-1.1-0.5-1.1-1.1v-0.1c0.1-0.6,0.5-1,1.1-1S73.3,601.2,73.3,601.8
				L73.3,601.8z"/>
			<path class="st1" d="M81.5,600.4c0,0.6-0.5,1.1-1.1,1.1s-1.1-0.5-1.1-1.1v-0.1c0.1-0.6,0.5-1,1.1-1s1.1,0.4,1.1,1
				C81.5,600.3,81.5,600.3,81.5,600.4z"/>
			<path class="st1" d="M89.1,601.7c0,0.6-0.5,1.1-1.1,1.1s-1.1-0.5-1.1-1.1v-0.1c0.1-0.6,0.5-1,1.1-1S89.1,600.9,89.1,601.7
				C89.1,601.6,89.1,601.6,89.1,601.7z"/>
			<path class="st5" d="M73.3,601.7c-0.1,0.6-0.5,1-1.1,1s-1.1-0.4-1.1-1c0.1-0.6,0.5-1,1.1-1S73.3,601.2,73.3,601.7z"/>
			<path class="st5" d="M81.5,600.3c-0.1,0.6-0.5,1-1.1,1s-1.1-0.4-1.1-1c0.1-0.6,0.5-1,1.1-1C80.9,599.3,81.4,599.8,81.5,600.3z"/>
			<path class="st5" d="M89.1,601.6c-0.1,0.6-0.5,1-1.1,1s-1.1-0.4-1.1-1c0.1-0.6,0.5-1,1.1-1C88.6,600.4,89.1,600.9,89.1,601.6z"/>
		</g>
		<circle class="st6" cx="79.8" cy="623.6" r="14.1"/>
	</g>
	<ellipse class="st7" cx="82.3" cy="274.7" rx="135.1" ry="124.8"/>
	<path class="st8" d="M-84.3,651.8h322.4c1.2-0.3,2.4-1.2,3.3-2.3c1.3-1.6,2-3.8,2-6l-0.1-25.4c-0.1-46.9-15.1-91-42.1-124.3
		c-26.9-33.2-62.5-51.4-100.1-51.4c-0.2,0-0.3,0-0.4,0l-46.4,0.2c-37.8,0.1-73.4,18.7-100.3,52.2s-41.6,77.8-41.5,124.5l0.1,25.4
		C-87.4,647.7-86.1,650.3-84.3,651.8z"/>
	<path class="st9" d="M243.3,618.1c-0.1-46.9-15.1-91-42.1-124.3c-26.9-33.2-62.5-51.4-100.1-51.4c-0.2,0-0.3,0-0.4,0l-16.8,0.1
		c36.2,1.2,70.3,19.2,96.4,51.3c27,33.3,41.9,77.4,42.1,124.3l0.1,25.4c0,2.3-0.7,4.4-2,6c-0.9,1.1-2,1.9-3.3,2.3h21
		c1.2-0.3,2.4-1.2,3.3-2.3c1.3-1.6,2-3.8,2-6L243.3,618.1z"/>
	<g>
		<path id="XMLID_37_" class="st10" d="M244,618.3c-0.1-46.7-15.1-90.7-42.1-123.9c-8.2-10-17.1-18.7-26.7-25.9
			c0.3,1.8,0.4,3.6,0.4,5.4c0,32.3-48.7,58.4-108.8,58.4c-51.1,0-93.9-18.9-105.6-44.4c-2.2,2.4-4.3,4.8-6.4,7.4
			c-26.7,33.3-41.4,77.4-41.3,124l0.1,25.3c0.1,2.9,1.3,5.5,3.1,7h322c1.2-0.3,2.3-1.2,3.3-2.3c1.3-1.6,2-3.8,2-6V618.3z"/>
	</g>
	<path class="st11" d="M139.2,642.8c-24.4-6.3-49.9-26.1-69.9-54.8c-20-28.6-31.6-61.8-31.7-90.8c-0.1-14.8,1.4-29.7,4.4-44.1
		c0.5-2.6,0.1-5.5-1.2-7.6c-0.6-1-1.4-1.8-2.3-2.4c0.9-0.1,1.7-0.2,2.5-0.3c-33.4,3.8-64.5,22.5-88.6,53.6
		c-26.7,34.9-41.5,80.9-41.4,129.9l0.1,25.5h233.6C144.8,647.4,142.5,643.8,139.2,642.8z"/>
	<path class="st12" d="M40.9,445.7c1.3,2.2,1.7,5.1,1.2,7.6c-3,14.4-4.4,29.3-4.4,44.1c0.1,29.2,11.7,62.2,31.7,90.8
		c20,28.5,45.4,48.4,69.9,54.8c3.3,0.9,5.6,4.6,5.6,8.8h21c0-3.9-2-7.4-4.9-8.5c-0.2-0.1-0.4-0.1-0.6-0.2
		c-24.4-6.3-49.9-26.1-69.9-54.8c-20-28.6-31.6-61.8-31.7-90.8c0-15,1.5-29.8,4.4-44.1c0.5-2.7,0.1-5.5-1.2-7.6
		c-1.3-2.2-3.3-3.4-5.4-3.4h-3.2c-3.5,0-6.9,0.2-10.3,0.5c-0.2,0-0.3,0-0.4,0c-0.4,0-1,0.1-1.4,0.1c-0.9,0.1-1.7,0.2-2.5,0.3
		C39.5,443.8,40.3,444.7,40.9,445.7z"/>
	<path class="st13" d="M156.6,454.8c8.4,7.4,14.2,19.7,14.2,29c0,27.3-41.2,108-92.1,108s-92.1-80.8-92.1-108
		c0-9.3,6.9-21.5,15.3-29"/>
	<path class="st8" d="M-33.9,312.9c-0.1,0-0.1,0-0.2,0c-20.4,0.2-36.9,16.8-36.9,37.2c0,9.8,3.9,19.2,10.9,26.1
		c7,7,12.4,10.7,26.1,10.7h0.2c20.4-0.1,36.9-16.7,36.9-37.1C2.9,329.6-13.6,312.9-33.9,312.9z"/>
	<path class="st8" d="M193.1,302.2c-0.1,0-0.1,0-0.2,0c-21.7,0.1-39.2,17.7-39.1,39.4c0,10.4,4.1,20.4,11.5,27.7
		c7.5,7.4,17.2,11.4,27.7,11.4h0.2c21.7-0.1,39.2-17.7,39.1-39.4S214.7,302.2,193.1,302.2z"/>
	<path class="st8" d="M190.7,269.5c-0.1-28.8-11.3-47.8-34.3-58.4c-20.6-9.5-48.7-10.6-76-10.6c-27.1,0.1-55.2,1.4-75.9,11.1
		c-22.9,10.6-34,29.9-33.9,58.6l0.3,92.3c0.2,60.3,49.5,109,109.9,109h0.3c60.7-0.2,109.9-49.5,109.7-109.8L190.7,269.5z"/>
	<path class="st14" d="M77.4,415.2c-9.1,0-17.9-3.4-24.6-9.6c-3-2.7-3.2-7.4-0.5-10.3c2.7-2.9,7.4-3.2,10.3-0.5
		c4,3.7,9.2,5.7,14.7,5.7h0.1c5.5,0,10.7-2,14.7-5.8c3-2.8,7.6-2.6,10.3,0.4c2.8,3,2.6,7.6-0.4,10.3
		C95.5,411.7,86.7,415.1,77.4,415.2C77.5,415.2,77.4,415.2,77.4,415.2z"/>
	<path class="st15" d="M48,347.2c0-6.4-5.3-11.6-11.7-11.6s-11.6,5.3-11.6,11.7c0,6.4,5.3,11.6,11.7,11.6
		C42.8,358.9,48,353.7,48,347.2z"/>
	<path class="st15" d="M130.5,346.9c0-6.4-5.3-11.6-11.7-11.6s-11.6,5.3-11.6,11.7c0,6.4,5.3,11.6,11.7,11.6
		C125.4,358.7,130.6,353.4,130.5,346.9z"/>
	<path class="st9" d="M190.7,269.5c-0.1-28.8-11.3-47.8-34.3-58.4c-20.6-9.5-48.7-10.6-76-10.6c-2.6,0-5.1,0-7.7,0.1
		c23.6,0.4,46.8,2.4,64.8,10.6c23,10.6,34.2,29.6,34.3,58.4l0.3,92.3c0.2,57.3-44.1,104.5-100.5,109.4c3.1,0.3,6.2,0.4,9.5,0.4h0.3
		c60.6-0.1,109.8-49.4,109.6-109.6L190.7,269.5z"/>
	<ellipse class="st14" cx="7.1" cy="394.4" rx="2.5" ry="2.4"/>
	<ellipse class="st14" cx="22.1" cy="394.4" rx="2.5" ry="2.4"/>
	<ellipse class="st14" cx="14.2" cy="406.3" rx="2.5" ry="2.4"/>
	<ellipse class="st14" cx="129.6" cy="394.4" rx="2.5" ry="2.4"/>
	<ellipse class="st14" cx="144.6" cy="394.4" rx="2.5" ry="2.4"/>
	<ellipse class="st14" cx="136.7" cy="406.3" rx="2.5" ry="2.4"/>
	
		<ellipse transform="matrix(-0.7895 -0.6137 0.6137 -0.7895 -260.6073 559.9789)" class="st16" cx="-34.3" cy="324.7" rx="21.1" ry="16.8"/>
	
		<ellipse transform="matrix(-0.7895 -0.6137 0.6137 -0.7895 -259.7162 552.3287)" class="st7" cx="-35.1" cy="320.7" rx="21.1" ry="16.8"/>
	
		<ellipse transform="matrix(-0.6137 -0.7895 0.7895 -0.6137 39.4512 668.5187)" class="st16" cx="183.3" cy="324.6" rx="16.8" ry="21.1"/>
	
		<ellipse transform="matrix(-0.6137 -0.7895 0.7895 -0.6137 43.8294 662.8445)" class="st7" cx="184.1" cy="320.7" rx="16.8" ry="21.1"/>
	
		<ellipse transform="matrix(-0.9251 -0.3797 0.3797 -0.9251 -159.1082 537.2548)" class="st16" cx="-26.6" cy="284.3" rx="40.9" ry="36.1"/>
	
		<ellipse transform="matrix(-0.9112 -0.412 0.412 -0.9112 -174.1464 521.3167)" class="st7" cx="-30.9" cy="279.4" rx="40.9" ry="36.2"/>
	
		<ellipse transform="matrix(-0.3797 -0.9251 0.9251 -0.3797 2.9375 568.9557)" class="st16" cx="192.2" cy="283.5" rx="36.1" ry="40.9"/>
	
		<ellipse transform="matrix(-0.3797 -0.9251 0.9251 -0.3797 8.5822 560.5376)" class="st7" cx="192.2" cy="277.4" rx="36.1" ry="40.9"/>
	<ellipse class="st16" cx="10.3" cy="244.8" rx="60.7" ry="52.8"/>
	<ellipse class="st7" cx="6.8" cy="235.9" rx="60.7" ry="52.8"/>
	<ellipse class="st16" cx="158.4" cy="244.8" rx="60.7" ry="52.8"/>
	<ellipse class="st7" cx="157.8" cy="235" rx="60.7" ry="52.8"/>
	<ellipse class="st16" cx="82.3" cy="221.3" rx="99.4" ry="71.4"/>
	<ellipse class="st7" cx="81.7" cy="212.9" rx="99.4" ry="67.4"/>
	<g>
		<path class="st1" d="M89,600.8c-0.1,0.1-0.3,0.1-0.5,0.1H70.1c-0.2,0-0.4,0-0.5-0.1c2.7-0.6,4.6-1.9,4.6-3.4s-1.9-3.4-4.6-4
			c0.1-0.1,0.3-0.1,0.5-0.1h18.4c0.2,0,0.4,0,0.5,0.1c-2.7,0.6-4.6,2.5-4.6,4S86.3,600.3,89,600.8z"/>
		<path class="st2" d="M66.3,590.2c1.8,4.9,6.7,8.6,12.6,8.6c6.3,0,11.6-3.6,13.1-9"/>
		<path class="st3" d="M88.2,600.8c-0.1,0.1-0.3,0.1-0.5,0.1H70.9c-0.2,0-0.4,0-0.5-0.1c2.5-0.6,4.2-1.9,4.2-3.4s-2.6-3.4-5-4
			c0.2-0.2,1.2-0.1,1.3-0.1h16.8c0.2,0,1.1-0.1,1.3,0.1c-2.5,0.6-5,2.5-5,4S85.7,600.3,88.2,600.8z"/>
		<path class="st1" d="M79.3,598.2c-13.3,0-24.1,10.8-24.1,24.1s10.8,24.1,24.1,24.1s24.1-10.8,24.1-24.1
			C103.4,608.8,92.6,598.2,79.3,598.2z M79.3,642.3c-11.1,0-20-9-20-20.1c0-11.1,9-20,20-20c11.1,0,20.1,9,20.1,20
			C99.3,633.3,90.3,642.3,79.3,642.3z"/>
		<ellipse class="st3" cx="79.2" cy="622.8" rx="24.1" ry="24.1"/>
		<ellipse class="st3" cx="79.2" cy="622.8" rx="24.1" ry="24.1"/>
		<ellipse class="st1" cx="79.2" cy="622.8" rx="20" ry="20"/>
		<circle class="st4" cx="79.2" cy="622.8" r="17.2"/>
		<g>
			<path class="st1" d="M72.9,601.6c0,0.6-0.5,1.1-1.1,1.1s-1.1-0.5-1.1-1.1v-0.1c0.1-0.6,0.5-1,1.1-1S72.8,600.8,72.9,601.6
				C72.9,601.4,72.9,601.4,72.9,601.6z"/>
			<path class="st1" d="M80.9,600.2c0,0.6-0.5,1.1-1.1,1.1s-1.1-0.5-1.1-1.1v-0.1c0.1-0.6,0.5-1,1.1-1S80.8,599.4,80.9,600.2
				C80.9,600.1,80.9,600.2,80.9,600.2z"/>
			<path class="st1" d="M88.3,601.3c0,0.6-0.5,1.1-1.1,1.1s-1.1-0.5-1.1-1.1v-0.1c0.1-0.6,0.5-1,1.1-1S88.2,600.7,88.3,601.3
				L88.3,601.3z"/>
			<path class="st5" d="M72.9,601.3c-0.1,0.6-0.5,1-1.1,1s-1-0.4-1.1-1c0.1-0.6,0.5-1,1.1-1S72.8,600.8,72.9,601.3z"/>
			<path class="st5" d="M80.9,600.1c-0.1,0.6-0.5,1-1.1,1s-1-0.4-1.1-1c0.1-0.6,0.5-1,1.1-1C80.3,599.1,80.8,599.4,80.9,600.1z"/>
			<path class="st5" d="M88.3,601.2c-0.1,0.6-0.5,1-1.1,1s-1-0.4-1.1-1c0.1-0.6,0.5-1,1.1-1C87.8,600.3,88.2,600.7,88.3,601.2z"/>
		</g>
		<circle class="st6" cx="79.2" cy="622.8" r="13.7"/>
	</g>
	<path class="st7" d="M39,318.4c7.8,0,15.3,1.4,21,4.1c2.5,1.1,2.6,3,0.4,4.2c-2.2,1.2-6.1,1.3-8.5,0.2c-3.5-1.6-8.1-2.6-12.9-2.6
		h-0.1c-4.9,0-9.4,0.9-13,2.6c-2.5,1.1-6.2,1-8.5-0.2c-2.3-1.2-2.1-3.1,0.3-4.2C23.6,319.7,31.1,318.2,39,318.4L39,318.4z"/>
	<path class="st7" d="M121.2,317.2c7.8,0,15.3,1.4,21,4.1c2.5,1.1,2.6,3,0.4,4.2c-2.2,1.2-6.1,1.3-8.5,0.2
		c-3.5-1.6-8.1-2.6-12.9-2.6h-0.1c-4.9,0-9.4,0.9-13,2.6c-2.5,1.1-6.2,1-8.5-0.2c-2.2-1.2-2.1-3.1,0.3-4.2
		C105.8,318.7,113.3,317.2,121.2,317.2C121.1,317.2,121.2,317.2,121.2,317.2z"/>
</g>
</svg>
