<?xml version="1.0" encoding="utf-8"?>
<!-- Generator: Adobe Illustrator 23.1.0, SVG Export Plug-In . SVG Version: 6.00 Build 0)  -->
<svg version="1.1" id="Layer_1" xmlns="http://www.w3.org/2000/svg" xmlns:xlink="http://www.w3.org/1999/xlink" x="0px" y="0px"
	 viewBox="0 0 383 508.7" style="enable-background:new 0 0 383 508.7;" xml:space="preserve">
<style type="text/css">
	.st0{fill:#F0BCA6;}
	.st1{fill:#E6B09A;}
	.st2{fill:#E0D192;}
	.st3{fill:#FFF4F1;}
	.st4{fill:#891272;}
	.st5{fill:none;stroke:#4C2308;stroke-miterlimit:10;}
	.st6{fill:#AA6B07;}
	.st7{fill:none;stroke:#C98441;stroke-width:0.5;stroke-miterlimit:10;}
	.st8{fill:#E5AA17;}
	.st9{fill:#DB9D12;}
	.st10{fill:#FFB000;}
	.st11{fill:#EFAC06;}
	.st12{fill:#842610;}
	.st13{fill:#E2A58A;}
	.st14{fill:#868686;}
	.st15{fill:#9B3710;}
	.st16{fill:#E5A589;}
</style>
<title>teen</title>
<path class="st0" d="M35.5,509.3h310.9c1.3-0.4,2.4-1.2,3.2-2.2c1.3-1.7,2-3.7,1.9-5.8l-0.1-24.5c-0.1-45.2-14.5-87.8-40.6-119.9
	s-60.3-49.6-96.6-49.6h-0.4l-44.8,0.2c-36.5,0.1-70.8,18-96.7,50.3s-40.1,75-40,120.2l0.1,24.5C32.5,505.1,33.6,507.6,35.5,509.3z"
	/>
<path class="st1" d="M351.5,476.8c-0.1-45.2-14.5-87.8-40.6-119.9s-60.3-49.6-96.6-49.6h-0.4l-16.2,0.1c35,1.1,67.8,18.5,92.9,49.5
	c26,32.1,40.4,74.7,40.6,119.9l0.1,24.5c0,2.1-0.6,4.2-1.9,5.8c-0.8,1.1-1.9,1.8-3.2,2.2h20.3c1.3-0.4,2.4-1.2,3.2-2.2
	c1.3-1.7,2-3.7,1.9-5.8L351.5,476.8z"/>
<path class="st2" d="M352.1,476.9c-0.1-45-14.5-87.5-40.5-119.4c-7.6-9.3-16.2-17.7-25.8-25c0.3,1.7,0.4,3.5,0.4,5.2
	c0,31.1-47,56.3-104.9,56.3c-49.3,0-90.6-18.3-101.9-42.9c-2.1,2.3-4.1,4.7-6.1,7.2c-25.8,32.2-40,74.7-40,119.7l0.1,24.4
	c0,2.6,1.1,5,3,6.7H347c1.3-0.4,2.4-1.2,3.2-2.2c1.3-1.7,2-3.7,1.9-5.8V476.9z"/>
<path class="st3" d="M251.1,500.7c-23.5-6.1-48.1-25.2-67.4-52.8s-30.5-59.6-30.6-87.6c-0.1-14.3,1.3-28.6,4.2-42.5
	c0.5-2.5,0.1-5.1-1.2-7.4c-0.5-0.9-1.3-1.7-2.2-2.3l2.4-0.3c-32.2,3.6-62.2,21.7-85.4,51.7c-25.8,33.7-40.1,78-40,125.2l0.1,24.6
	h225.4C256.5,505.1,254.3,501.5,251.1,500.7z"/>
<path class="st4" d="M156.3,310.5c1.3,2.2,1.7,4.9,1.2,7.4c-2.9,14-4.3,28.3-4.2,42.5c0.1,28.1,11.3,60,30.6,87.6
	s43.8,46.7,67.4,52.8c3.2,0.8,5.4,4.5,5.4,8.5h20.2c0-3.7-1.9-7.2-4.7-8.2c-0.2-0.1-0.4-0.1-0.6-0.2c-23.5-6.1-48.1-25.2-67.4-52.8
	s-30.5-59.6-30.6-87.6c0-14.3,1.4-28.5,4.2-42.5c0.5-2.5,0.1-5.1-1.2-7.4c-1-1.9-3-3.2-5.2-3.3h-3.1c-3.4,0-6.6,0.2-9.9,0.5H158
	c-0.4,0-0.9,0.1-1.3,0.1l-2.4,0.3C155,308.8,155.7,309.6,156.3,310.5z"/>
<path class="st5" d="M267.9,319.2c8.1,7.2,13.7,19,13.7,28c0,26.3-39.8,104.2-88.9,104.2s-88.8-77.9-88.8-104.2
	c0-9,6.6-20.8,14.7-28"/>
<path class="st6" d="M203.5,460.5c-0.2,0.1-0.3,0.1-0.5,0.1h-18.2c-0.2,0-0.4,0-0.5-0.1c2.7-0.6,4.6-1.9,4.6-3.4s-1.9-3.4-4.6-4
	c0.2-0.1,0.3-0.1,0.5-0.1H203c0.2,0,0.4,0,0.5,0.1c-2.7,0.6-4.6,2.5-4.6,4S200.8,459.9,203.5,460.5z"/>
<path class="st7" d="M181,449.9c2,5.2,7,8.6,12.5,8.5c6.2,0,11.4-3.6,12.9-8.9"/>
<path class="st8" d="M202.7,460.5c-0.1,0.1-0.3,0.1-0.5,0.1h-16.6c-0.2,0-0.3,0-0.5-0.1c2.5-0.6,4.1-1.9,4.1-3.4s-2.5-3.4-5-4
	c0.2-0.2,1.1-0.1,1.3-0.1h16.6c0.2,0,1.1-0.1,1.3,0.1c-2.5,0.6-5,2.5-5,4S200.2,459.9,202.7,460.5z"/>
<path class="st6" d="M193.9,457.7c-13.2,0-23.9,10.7-23.9,23.9c0,13.2,10.7,23.9,23.9,23.9s23.9-10.7,23.9-23.9l0,0
	C217.7,468.4,207,457.7,193.9,457.7L193.9,457.7z M193.9,501.5c-11,0-19.9-8.9-19.8-19.9c0-11,8.9-19.9,19.9-19.9
	s19.8,8.9,19.8,19.9C213.7,492.6,204.8,501.5,193.9,501.5L193.9,501.5L193.9,501.5z"/>
<ellipse class="st8" cx="193.8" cy="482.1" rx="23.9" ry="23.9"/>
<ellipse class="st8" cx="193.8" cy="482.1" rx="23.9" ry="23.9"/>
<ellipse class="st6" cx="193.8" cy="482.1" rx="19.9" ry="19.9"/>
<ellipse class="st9" cx="193.8" cy="482" rx="17.1" ry="17.1"/>
<path class="st6" d="M187.6,461.1c-0.1,0.6-0.6,1.1-1.2,1c-0.5-0.1-0.9-0.5-1-1V461c0.1-0.6,0.6-1,1.2-1c0.5,0.1,0.9,0.5,1,1V461.1z
	"/>
<path class="st6" d="M195.4,459.8c0.1,0.6-0.4,1.2-1,1.2s-1.2-0.4-1.2-1c0-0.1,0-0.1,0-0.2v-0.1c0.1-0.6,0.6-1,1.2-1
	c0.5,0.1,0.9,0.5,1,1C195.4,459.7,195.4,459.7,195.4,459.8z"/>
<path class="st6" d="M202.8,460.9c0.1,0.6-0.4,1.2-1,1.2c-0.6,0.1-1.2-0.4-1.2-1c0-0.1,0-0.1,0-0.2v-0.1c0.1-0.6,0.6-1,1.2-1
	c0.5,0.1,0.9,0.5,1,1V460.9z"/>
<path class="st10" d="M187.6,461c0.1,0.6-0.4,1.1-1,1.2s-1.1-0.4-1.2-1c-0.1-0.6,0.4-1.1,1-1.2h0.1C187,460,187.5,460.4,187.6,461z"
	/>
<path class="st10" d="M195.4,459.6c0.1,0.6-0.4,1.1-1,1.2s-1.1-0.4-1.2-1s0.4-1.1,1-1.2h0.1C194.9,458.6,195.4,459.1,195.4,459.6z"
	/>
<path class="st10" d="M202.8,460.8c0.1,0.6-0.4,1.1-1,1.2s-1.1-0.4-1.2-1s0.4-1.1,1-1.2h0.1C202.3,459.8,202.7,460.2,202.8,460.8z"
	/>
<ellipse class="st11" cx="193.8" cy="482" rx="13.6" ry="13.6"/>
<ellipse class="st12" cx="278.3" cy="260.3" rx="30.5" ry="33.2"/>
<ellipse class="st12" cx="100" cy="247.8" rx="31.3" ry="33"/>
<path class="st0" d="M84.5,192.9L84.5,192.9C64.7,193,48.8,209,48.8,228.7c0,9.5,3.7,18.5,10.5,25.1c6.8,6.7,12,10.3,25.1,10.3h0.1
	c19.7,0,35.6-16,35.6-35.7S104.2,192.9,84.5,192.9L84.5,192.9z"/>
<path class="st0" d="M303.5,182.5h-0.1c-20.9,0.1-37.8,17.1-37.8,38c0,10,4,19.7,11.1,26.7c7.1,7.1,16.7,11,26.7,11h0.1
	c20.9,0,37.8-17,37.8-37.9S324.4,182.5,303.5,182.5L303.5,182.5z"/>
<path class="st0" d="M301.1,153.3c-0.1-28.7-10.9-47.7-33.1-58.2c-19.9-9.5-47-10.6-73.3-10.6s-53.3,1.4-73.2,11
	c-22.1,10.6-32.8,29.8-32.7,58.4l0.3,91.9c0.2,60.1,47.7,108.7,106,108.7h0.3c58.6-0.2,106-49.3,105.8-109.4L301.1,153.3z"/>
<path class="st13" d="M191.9,307.3c-8.8,0-17.3-3.3-23.7-9.3c-3-2.5-3.3-7-0.7-10c2.5-3,7-3.3,10-0.7c0.1,0.1,0.2,0.2,0.3,0.3
	c3.9,3.6,8.9,5.6,14.2,5.5h0.1c5.3,0,10.3-2,14.2-5.6c2.9-2.7,7.3-2.5,10,0.4s2.5,7.3-0.4,10C209.3,304,200.8,307.3,191.9,307.3
	C192,307.3,191.9,307.3,191.9,307.3z"/>
<path class="st14" d="M163.5,241.8c0-6.2-5.1-11.2-11.3-11.2s-11.2,5.1-11.2,11.3s5.1,11.2,11.3,11.2S163.5,248,163.5,241.8z"/>
<path class="st15" d="M165.5,223.9c-0.6,0-1.2-0.1-1.8-0.3l-26.6-7c-3.8-0.9-6.2-4.7-5.3-8.5s4.7-6.2,8.5-5.3c0.1,0,0.3,0.1,0.4,0.1
	l26.6,7c3.8,1,6,4.9,5,8.6C171.5,221.7,168.7,223.9,165.5,223.9z"/>
<path class="st14" d="M243.1,241.5c0-6.2-5.1-11.2-11.3-11.2s-11.2,5.1-11.2,11.3s5.1,11.2,11.3,11.2c6.2,0.1,11.2-4.9,11.2-11
	C243.1,241.7,243.1,241.6,243.1,241.5z"/>
<path class="st15" d="M218.5,223.7c-3.9,0-7.1-3.2-7.1-7.1c0-3.2,2.1-6,5.2-6.8l26.6-7.2c3.8-1.1,7.7,1.2,8.7,4.9s-1.2,7.7-4.9,8.7
	l-26.6,7.2C219.8,223.6,219.1,223.7,218.5,223.7z"/>
<ellipse class="st12" cx="97.8" cy="184.8" rx="17.6" ry="17.3"/>
<ellipse class="st15" cx="96.9" cy="181.9" rx="17.6" ry="17.3"/>
<path class="st1" d="M301.1,153.3c-0.1-28.7-10.9-47.7-33.1-58.2c-19.9-9.5-47-10.6-73.3-10.6c-2.5,0-4.9,0-7.4,0.1
	C210,85,232.5,87,249.8,95.2c22.2,10.5,33,29.5,33.1,58.2l0.3,92c0.2,57.1-42.5,104.2-97,109c3,0.3,6,0.4,9.1,0.4h0.3
	c58.5-0.2,105.9-49.3,105.7-109.3L301.1,153.3z"/>
<ellipse class="st12" cx="95.2" cy="148.3" rx="33.7" ry="33"/>
<ellipse class="st12" cx="294.8" cy="179.6" rx="17.6" ry="17.3"/>
<ellipse class="st15" cx="293.9" cy="176.7" rx="17.6" ry="17.3"/>
<ellipse class="st15" cx="93.5" cy="142.7" rx="33.7" ry="33"/>
<ellipse class="st12" cx="284.1" cy="144.9" rx="33.9" ry="33.2"/>
<ellipse class="st15" cx="285.7" cy="138.2" rx="33.9" ry="33.2"/>
<ellipse class="st12" cx="125.2" cy="90" rx="47.2" ry="46.3"/>
<ellipse class="st15" cx="122.9" cy="84.6" rx="47.2" ry="46.3"/>
<ellipse class="st12" cx="251.6" cy="90" rx="49" ry="48"/>
<ellipse class="st15" cx="251.6" cy="83" rx="49" ry="48"/>
<ellipse class="st12" cx="193.8" cy="73.2" rx="56.8" ry="55.7"/>
<ellipse class="st15" cx="193.8" cy="67.1" rx="56.8" ry="55.7"/>
<ellipse class="st16" cx="124.1" cy="271.5" rx="2.4" ry="2.4"/>
<ellipse class="st16" cx="138.6" cy="271.5" rx="2.4" ry="2.4"/>
<ellipse class="st16" cx="130.9" cy="282.9" rx="2.4" ry="2.4"/>
<ellipse class="st16" cx="242.2" cy="271.5" rx="2.4" ry="2.4"/>
<ellipse class="st16" cx="256.7" cy="271.5" rx="2.4" ry="2.4"/>
<ellipse class="st16" cx="249.1" cy="282.9" rx="2.4" ry="2.4"/>
</svg>
