<?xml version="1.0" encoding="utf-8"?>
<!-- Generator: Adobe Illustrator 19.0.0, SVG Export Plug-In . SVG Version: 6.00 Build 0)  -->
<svg version="1.1" id="Layer_1" xmlns="http://www.w3.org/2000/svg" xmlns:xlink="http://www.w3.org/1999/xlink" x="0px" y="0px"
	 viewBox="-114 142.3 383 508.7" style="enable-background:new -114 142.3 383 508.7;" xml:space="preserve">
<style type="text/css">
	.st0{fill:#9B3710;}
	.st1{fill:#C2B4B4;}
	.st2{fill:#B2A1A1;}
	.st3{fill:#E2E2E2;}
	.st4{fill:#F4F0EF;}
	.st5{fill:#891272;}
	.st6{fill:none;}
	.st7{fill:none;stroke:#4C2308;stroke-miterlimit:10;}
	.st8{fill:#AA6B07;}
	.st9{fill:none;stroke:#C98441;stroke-width:0.5;stroke-miterlimit:10;}
	.st10{fill:#E5AA17;}
	.st11{fill:#DB9D12;}
	.st12{fill:#FFB000;}
	.st13{fill:#EFAC06;}
	.st14{fill:#6B260B;}
	.st15{fill:#867878;}
	.st16{fill:#868686;}
	.st17{fill:#842610;}
</style>
<g>
	<path class="st0" d="M176,197.4c-22.8-19.5-53.1-30.1-85.1-30.1S28.6,178,5.7,197.4c-22.8,19.5-35.4,45.2-35.4,72.4v146.5
		c0,2.6,2.5,4.6,5.4,4.6h230.1c3,0,5.4-2.1,5.4-4.6V269.8C211.4,242.5,198.7,216.8,176,197.4z"/>
	<path class="st1" d="M-89.4,651.7h334.6c1.3-0.3,2.4-1.2,3.4-2.4c1.4-1.7,2.1-3.9,2.1-6.3l-0.1-26.3c-0.1-48.6-15.6-94.5-43.7-129
		c-27.9-34.4-64.8-53.4-103.9-53.4c-0.2,0-0.3,0-0.5,0l-48.2,0.2c-39.3,0.1-76.2,19.4-104.1,54.1s-43.1,80.7-43,129.4l0.1,26.3
		C-92.6,647.3-91.3,650.1-89.4,651.7z"/>
	<path class="st2" d="M250.6,616.7c-0.1-48.6-15.6-94.5-43.7-129c-27.9-34.4-64.8-53.4-103.9-53.4c-0.2,0-0.3,0-0.5,0L85,434.4
		c37.6,1.2,73,20,100,53.2c28,34.5,43.5,80.4,43.7,129l0.1,26.3c0,2.4-0.7,4.6-2.1,6.3c-0.9,1.1-2.1,2-3.4,2.4h21.8
		c1.3-0.3,2.4-1.2,3.4-2.4c1.4-1.7,2.1-3.9,2.1-6.3V616.7z"/>
	<g>
		<path id="XMLID_45_" class="st3" d="M251.4,616.7c-0.1-48.5-15.6-94.1-43.6-128.5c-8.5-10.4-17.8-19.4-27.7-26.9
			c0.4,1.9,0.5,3.7,0.5,5.6c0,33.5-50.6,60.6-112.9,60.6c-53,0-97.5-19.7-109.7-46.1c-2.3,2.5-4.4,5-6.6,7.7
			c-27.8,34.6-43.1,80.4-43,128.9l0.1,26.2c0.1,3,1.4,5.7,3.3,7.3H246c1.3-0.3,2.4-1.2,3.4-2.3c1.4-1.7,2.1-3.9,2.1-6.3L251.4,616.7
			z"/>
	</g>
	<path class="st4" d="M142.6,642.3c-25.3-6.6-51.8-27.1-72.5-56.8c-20.8-29.7-32.8-64.1-32.9-94.3c-0.1-15.4,1.4-30.8,4.5-45.8
		c0.5-2.7,0.1-5.7-1.3-7.9c-0.6-1-1.4-1.9-2.3-2.5c0.9-0.1,1.7-0.2,2.6-0.3c-34.7,3.9-66.9,23.3-92,55.6
		c-27.8,36.3-43.2,84-43,134.8l0.1,26.5h242.5C148.6,647.2,146.1,643.2,142.6,642.3z"/>
	<path class="st5" d="M40.5,437.7c1.4,2.2,1.8,5.2,1.3,7.9c-3.1,15-4.6,30.4-4.5,45.8c0.1,30.3,12.1,64.6,32.9,94.3
		c20.8,29.6,47.2,50.3,72.5,56.8c3.4,0.9,5.8,4.8,5.8,9.2h21.8c0-4-2.1-7.7-5.1-8.8c-0.2-0.1-0.5-0.1-0.6-0.2
		c-25.3-6.6-51.8-27.1-72.5-56.8c-20.8-29.7-32.8-64.1-32.9-94.3c0-15.5,1.5-30.9,4.5-45.8c0.5-2.8,0.1-5.7-1.3-7.9
		c-1.4-2.2-3.4-3.6-5.6-3.6h-3.3c-3.6,0-7.1,0.2-10.7,0.6c-0.2,0-0.3,0-0.5,0c-0.5,0-1,0.1-1.4,0.1c-0.9,0.1-1.7,0.2-2.6,0.3
		C39.1,435.7,39.9,436.7,40.5,437.7z"/>
	<line class="st6" x1="87.2" y1="611.2" x2="87.2" y2="611"/>
	<line class="st6" x1="86.4" y1="611.2" x2="86.4" y2="611"/>
	<path class="st7" d="M160.7,447.1c8.7,7.7,14.8,20.4,14.8,30.1c0,28.3-42.8,112.1-95.6,112.1s-95.6-83.8-95.6-112.1
		c0-9.7,7.1-22.4,15.8-30.1"/>
	<g>
		<path class="st8" d="M91.4,599.2c-0.2,0.1-0.4,0.1-0.6,0.1H71.2c-0.2,0-0.4-0.1-0.6-0.1c2.9-0.7,4.9-2.1,4.9-3.7s-2-3.6-4.9-4.3
			c0.2-0.1,0.4-0.1,0.6-0.1h19.6c0.2,0,0.4,0.1,0.6,0.1c-2.9,0.7-4.9,2.7-4.9,4.3C86.5,597.1,88.5,598.5,91.4,599.2z"/>
		<path class="st9" d="M67.2,587.7c1.9,5.2,7.2,9.2,13.5,9.2c6.7,0,12.3-3.9,13.9-9.6"/>
		<path class="st10" d="M90.5,599.2c-0.1,0.1-0.3,0.1-0.5,0.1H72.1c-0.2,0-0.4-0.1-0.5-0.1c2.6-0.7,4.5-2.1,4.5-3.7
			s-2.7-3.6-5.4-4.3c0.2-0.2,1.2-0.1,1.4-0.1H90c0.2,0,1.2-0.1,1.4,0.1c-2.7,0.7-5.4,2.7-5.4,4.3S87.9,598.5,90.5,599.2z"/>
		<path class="st8" d="M81,596.2c-14.2,0-25.7,11.5-25.7,25.7s11.5,25.7,25.7,25.7s25.7-11.5,25.7-25.7S95.2,596.2,81,596.2z
			 M81,643.2c-11.8,0-21.4-9.6-21.4-21.4c0-11.8,9.6-21.4,21.4-21.4s21.4,9.6,21.4,21.4C102.4,633.7,92.9,643.2,81,643.2z"/>
		<circle class="st10" cx="80.9" cy="622.3" r="25.7"/>
		<circle class="st10" cx="80.9" cy="622.3" r="25.7"/>
		<ellipse class="st8" cx="81" cy="622.3" rx="21.4" ry="21.4"/>
		<ellipse class="st11" cx="81" cy="622.3" rx="18.4" ry="18.4"/>
		<g>
			<path class="st8" d="M74.2,599.7c0,0.7-0.5,1.2-1.2,1.2s-1.2-0.5-1.2-1.2v-0.1c0.1-0.6,0.6-1,1.2-1S74.1,599.1,74.2,599.7
				L74.2,599.7z"/>
			<path class="st8" d="M82.7,598.3c0,0.7-0.5,1.2-1.2,1.2s-1.2-0.5-1.2-1.2v-0.1c0.1-0.6,0.6-1,1.2-1S82.6,597.7,82.7,598.3
				C82.7,598.2,82.7,598.2,82.7,598.3z"/>
			<path class="st8" d="M90.6,599.6c0,0.7-0.5,1.2-1.2,1.2s-1.2-0.5-1.2-1.2v-0.1c0.1-0.6,0.6-1,1.2-1C90,598.5,90.5,599,90.6,599.6
				L90.6,599.6z"/>
			<path class="st12" d="M74.2,599.7c-0.1,0.6-0.6,1-1.2,1s-1.1-0.4-1.2-1c0.1-0.6,0.6-1,1.2-1C73.7,598.6,74.2,599.1,74.2,599.7z"
				/>
			<path class="st12" d="M82.7,598.2c-0.1,0.6-0.6,1-1.2,1s-1.1-0.4-1.2-1c0.1-0.6,0.6-1,1.2-1S82.6,597.7,82.7,598.2z"/>
			<path class="st12" d="M90.6,599.5c-0.1,0.6-0.6,1-1.2,1s-1.1-0.4-1.2-1c0.1-0.6,0.6-1,1.2-1C90.1,598.5,90.6,598.8,90.6,599.5z"
				/>
		</g>
		<ellipse class="st13" cx="81" cy="622.3" rx="14.6" ry="14.6"/>
	</g>
	<ellipse class="st14" cx="-13" cy="397.4" rx="35.6" ry="30.3"/>
	<ellipse class="st14" cx="190.1" cy="396.6" rx="29.7" ry="30.3"/>
	<path class="st1" d="M-31.1,312.5c-0.1,0-0.1,0-0.2,0c-21.2,0.1-38.4,17.3-38.3,38.5c0,10.2,4,19.9,11.3,27.1s12.9,11.1,27.1,11.1
		h0.2c21.2-0.1,38.4-17.3,38.3-38.5C7.1,329.6-10,312.5-31.1,312.5z"/>
	<path class="st1" d="M204.6,301.3c-0.1,0-0.1,0-0.2,0c-22.5,0.1-40.7,18.4-40.6,40.9c0,10.8,4.2,21.1,12,28.7
		c7.7,7.7,17.9,11.8,28.7,11.8h0.2c22.5-0.1,40.7-18.4,40.6-40.9C245.2,319.3,227,301.3,204.6,301.3z"/>
	<path class="st1" d="M202,267.3c-0.1-29.9-11.7-49.7-35.6-60.6c-21.4-9.9-50.6-11-78.8-11c-28.2,0.1-57.3,1.5-78.7,11.5
		c-23.8,11-35.2,31-35.1,60.8l0.3,95.8C-25.7,426.4,25.4,477,88.2,477h0.3c63-0.2,114.1-51.3,113.9-114L202,267.3z"/>
	<path class="st15" d="M84.5,418.6c-9.5,0-18.6-3.5-25.5-10c-3.1-2.8-3.3-7.6-0.5-10.7c2.8-3.1,7.6-3.3,10.7-0.5
		c4.2,3.9,9.6,5.9,15.3,5.9h0.1c5.7,0,11.1-2.1,15.3-6c3.1-2.9,7.9-2.7,10.7,0.4c2.9,3.1,2.7,7.9-0.4,10.7
		C103.2,414.8,94.1,418.5,84.5,418.6C84.6,418.6,84.5,418.6,84.5,418.6z"/>
	<path class="st16" d="M53.9,348c0-6.7-5.5-12.1-12.2-12.1s-12.1,5.5-12.1,12.2s5.5,12.1,12.2,12.1C48.5,360.1,53.9,354.6,53.9,348z
		"/>
	<path class="st16" d="M139.5,347.6c0-6.7-5.5-12.1-12.2-12.1c-6.7,0-12.1,5.5-12.1,12.2s5.5,12.1,12.2,12.1
		C134.2,359.8,139.6,354.5,139.5,347.6z"/>
	<path class="st2" d="M202,267.3c-0.1-29.9-11.7-49.7-35.6-60.6c-21.4-9.9-50.6-11-78.8-11c-2.7,0-5.3,0-8,0.1
		c24.4,0.4,48.6,2.5,67.3,11c23.9,11,35.5,30.7,35.6,60.6l0.3,95.8C183,422.7,137,471.7,78.4,476.7c3.2,0.3,6.5,0.4,9.8,0.4h0.3
		c62.9-0.2,114-51.3,113.8-113.9L202,267.3z"/>
	<ellipse class="st14" cx="11.4" cy="397.1" rx="2.6" ry="2.5"/>
	<ellipse class="st14" cx="27" cy="397.1" rx="2.6" ry="2.5"/>
	<ellipse class="st14" cx="18.9" cy="409.2" rx="2.6" ry="2.5"/>
	<ellipse class="st14" cx="138.6" cy="397.1" rx="2.6" ry="2.5"/>
	<ellipse class="st14" cx="154.2" cy="397.1" rx="2.6" ry="2.5"/>
	<ellipse class="st14" cx="146.1" cy="409.2" rx="2.6" ry="2.5"/>
	
		<ellipse transform="matrix(0.3592 0.9333 -0.9333 0.3592 260.6971 222.3626)" class="st17" cx="-31.6" cy="301" rx="37.9" ry="25.8"/>
	
		<ellipse transform="matrix(0.3592 0.9333 -0.9333 0.3592 254.2298 224.3789)" class="st14" cx="-36.3" cy="297.3" rx="37.9" ry="25.8"/>
	<ellipse class="st17" cx="-8.3" cy="262.7" rx="42.2" ry="34.6"/>
	
		<ellipse transform="matrix(0.9333 0.3592 -0.3592 0.9333 121.1586 -50.3583)" class="st17" cx="196.1" cy="300.9" rx="25.8" ry="37.9"/>
	
		<ellipse transform="matrix(0.9333 0.3592 -0.3592 0.9333 119.0412 -51.5912)" class="st14" cx="198.4" cy="294.6" rx="25.8" ry="37.9"/>
	<ellipse class="st17" cx="178" cy="257" rx="42.2" ry="34.6"/>
	<ellipse class="st14" cx="176.1" cy="241.2" rx="43.2" ry="43.2"/>
	<ellipse class="st17" cx="156.4" cy="233.7" rx="42.2" ry="34.6"/>
	<ellipse class="st14" cx="156.5" cy="227.1" rx="41.5" ry="30"/>
	<ellipse class="st14" cx="-12.3" cy="251.1" rx="40.5" ry="40.5"/>
	<ellipse class="st17" cx="17.9" cy="228.5" rx="42.2" ry="34.6"/>
	<ellipse class="st17" cx="89.2" cy="215.1" rx="75.3" ry="57.4"/>
	<ellipse class="st14" cx="86.7" cy="202" rx="78.5" ry="56.6"/>
	<ellipse class="st14" cx="17.9" cy="221.9" rx="41.5" ry="30"/>
	<path class="st0" d="M46,311.5c8.4,0,16.5,1.6,22.7,4.4c2.7,1.2,2.8,3.3,0.4,4.6s-6.5,1.4-9.1,0.2c-3.8-1.7-8.8-2.8-14-2.8h-0.1
		c-5.3,0-10.2,0.9-14,2.8c-2.7,1.2-6.7,1.1-9.1-0.2c-2.4-1.3-2.2-3.4,0.3-4.6C29.4,313.1,37.5,311.3,46,311.5
		C45.9,311.5,46,311.5,46,311.5z"/>
	<path class="st0" d="M126.7,311.5c8.4,0,16.5,1.6,22.7,4.4c2.7,1.2,2.8,3.3,0.4,4.6s-6.5,1.4-9.1,0.2c-3.8-1.7-8.8-2.8-14-2.8l0,0
		c-5.3,0-10.2,0.9-14,2.8c-2.7,1.2-6.7,1.1-9.1-0.2c-2.4-1.3-2.2-3.4,0.3-4.6C110.1,313.1,118.2,311.3,126.7,311.5L126.7,311.5z"/>
</g>
</svg>
