<?xml version="1.0" encoding="utf-8"?>
<!-- Generator: Adobe Illustrator 19.0.0, SVG Export Plug-In . SVG Version: 6.00 Build 0)  -->
<svg version="1.1" id="Layer_1" xmlns="http://www.w3.org/2000/svg" xmlns:xlink="http://www.w3.org/1999/xlink" x="0px" y="0px"
	 viewBox="-114 142.3 383 508.7" style="enable-background:new -114 142.3 383 508.7;" xml:space="preserve">
<style type="text/css">
	.st0{fill:#9B3710;}
	.st1{fill:#842610;}
	.st2{fill:#F0BCA6;}
	.st3{fill:#E2A58A;}
	.st4{fill:#E27A84;}
	.st5{clip-path:url(#SVGID_2_);fill:#9E4653;}
	.st6{fill:#F8A814;}
	.st7{fill:#F8B53C;}
	.st8{fill:#F9CD45;}
	.st9{fill:#934161;}
	.st10{fill:#F4F0EF;}
	.st11{fill:#E6B09A;}
	.st12{fill:#868686;}
	.st13{fill:#4C350C;}
	.st14{fill:#825308;}
	.st15{clip-path:url(#SVGID_4_);fill:#9E4653;}
	.st16{fill:#675F5B;}
	.st17{fill:none;}
	.st18{fill:#B8B2AF;}
	.st19{fill:#A19994;}
	.st20{fill:#F77B5E;}
	.st21{fill:#891272;}
	.st22{fill:none;stroke:#4C2308;stroke-miterlimit:10;}
	.st23{fill:#AA6B07;}
	.st24{fill:none;stroke:#C98441;stroke-width:0.5;stroke-miterlimit:10;}
	.st25{fill:#E5AA17;}
	.st26{fill:#DB9D12;}
	.st27{fill:#FFB000;}
	.st28{fill:#EFAC06;}
	.st29{fill:#897F79;}
	.st30{fill:#453F3D;}
</style>
<path class="st0" d="M-3855.5,1254.6c-28.6-18.6-66.5-28.7-106.7-28.7s-78,10.2-106.7,28.7c-28.6,18.6-44.4,43.1-44.4,69.1v139.8
	c0,2.4,3.1,4.4,6.8,4.4h288.3c3.8,0,6.8-2,6.8-4.4v-139.8C-3811.3,1297.6-3827,1273.1-3855.5,1254.6z"/>
<ellipse class="st1" cx="-4076.9" cy="1464.8" rx="38.9" ry="33.2"/>
<ellipse class="st1" cx="-3847.7" cy="1464" rx="38.9" ry="33.2"/>
<path class="st2" d="M-4073.9,1375.7c-0.1,0-0.1,0-0.2,0c-25.4,0.1-46.1,20.8-46,46.3c0,12.3,4.9,23.9,13.6,32.6
	s20.3,13.4,32.5,13.4h0.2c25.4-0.1,46.1-20.8,46-46.3S-4048.6,1375.7-4073.9,1375.7z"/>
<path class="st2" d="M-3791.8,1662.7c-0.1-39.6-15.8-76.9-44-104.9s-65.4-43.4-104.7-43.4c-0.2,0-0.3,0-0.5,0l-48.7,0.2
	c-39.6,0.1-76.9,15.8-104.9,44c-28.1,28.2-43.5,65.6-43.4,105.2l0.1,18.6c0,3.7,3.1,6.8,6.8,6.8h332.5c1.8,0,3.5-0.7,4.8-2
	s2-3,2-4.8L-3791.8,1662.7z"/>
<path class="st3" d="M-3791.8,1662.7c-0.1-39.6-15.8-76.9-44-104.9s-65.4-43.4-104.7-43.4c-0.2,0-0.3,0-0.5,0l-16.7,0.1
	c37.9,1,73.7,16.2,100.9,43.3c28.2,28.1,43.9,65.4,44,104.9l0.1,19.6c0,1.8-0.7,3.5-2,4.8s-3,2-4.8,2h20.9c1.8,0,3.5-0.7,4.8-2
	s2-3,2-4.8V1662.7z"/>
<g>
	<g>
		<path id="XMLID_2_" class="st4" d="M-3791.9,1665.6c-0.1-39.3-15.8-76.3-44-104.2c-8.4-8.3-17.7-15.5-27.5-21.5
			c-7,27.3-36.5,49.3-75,56.3c-8.6,1.6-17.6,2.4-26.9,2.4c-9.2,0-18.1-0.8-26.7-2.4c-38.3-7-67.9-28.8-75.1-55.9
			c-10,6.1-19.1,13.4-27.6,21.8c-28.1,28.1-43.5,65.2-43.4,104.5l0.1,21.3c0.1,2.4,1.4,4.6,3.3,5.9h337.3c1.3-0.3,2.4-1,3.4-1.9
			c1.4-1.4,2.1-3.2,2.1-5.1L-3791.9,1665.6z"/>
	</g>
	<g>
		<g>
			<g>
				<g>
					<g>
						<g>
							<g>
								<defs>
									<path id="SVGID_1_" d="M-3791.9,1665.6c-0.1-39.3-15.8-76.3-44-104.2c-8.4-8.3-17.7-15.5-27.5-21.5
										c-7,27.3-36.5,49.3-75,56.3c-8.6,1.6-17.6,2.4-26.9,2.4c-9.2,0-18.1-0.8-26.7-2.4c-38.3-7-67.9-28.8-75.1-55.9
										c-10,6.1-19.1,13.4-27.6,21.8c-28.1,28.1-43.5,65.2-43.4,104.5l0.1,21.3c0.1,2.4,1.4,4.6,3.3,5.9h337.3
										c1.3-0.3,2.4-1,3.4-1.9c1.4-1.4,2.1-3.2,2.1-5.1L-3791.9,1665.6z"/>
								</defs>
								<clipPath id="SVGID_2_">
									<use xlink:href="#SVGID_1_"  style="overflow:visible;"/>
								</clipPath>
								<path class="st5" d="M-3790.9,1666.1c-0.1-39.3-15.8-76.3-44-104.2c-28.2-27.8-65.4-43.1-104.7-43.1c-0.2,0-0.3,0-0.5,0
									l-17.6,0.1c37.9,1,73.6,16.1,100.9,43c28.2,27.9,43.8,64.9,44,104.2l0.1,21.3c0,1.9-0.7,3.7-2.1,5.1
									c-0.9,0.9-2.1,1.6-3.4,1.9h22c1.3-0.3,2.4-1,3.4-1.9c1.4-1.4,2.1-3.2,2.1-5.1L-3790.9,1666.1z"/>
							</g>
						</g>
					</g>
				</g>
			</g>
		</g>
	</g>
</g>
<g>
	<path class="st6" d="M-3992.1,1677.1c-0.1-0.3-0.1-0.5-0.1-0.7c0.1-1,1.1-1.7,2.1-1.6c10,0.5,20.5-0.7,30.9-3.6
		c8.4-2.4,16.8-5.7,25.1-10.1c14-7.5,22.8-15.3,22.9-15.4c0.8-0.7,2-0.7,2.7-0.1c0.7,0.6,0.6,1.8-0.1,2.4
		c-0.4,0.4-9.2,8.2-23.7,15.9c-8.5,4.5-17.3,8.1-25.9,10.5c-10.9,3-21.7,4.3-32.1,3.7C-3991.3,1678.1-3991.9,1677.7-3992.1,1677.1z"
		/>
	<path class="st7" d="M-3906.6,1664.7c0.8-0.4,1.2-1.2,1.1-2c-0.1-0.3-1.4-6.5-6.5-8.6c-2.4-1-4.7-1.2-6.6-0.7
		c-1.9,0.5-3.4,1.7-4.3,3.4c-0.8,1.5-0.9,3.1-0.5,4.5c0.1,0.2,0.2,0.4,0.3,0.6c0.8,1.6,2.4,3,4.9,3.9
		C-3913.2,1668.1-3906.9,1665-3906.6,1664.7z"/>
	<path class="st8" d="M-3918.2,1655.3c1.4-1.4,2.3-3.3,2.6-5.9c0.6-5.3-4.3-9.5-4.5-9.7c-0.6-0.5-1.5-0.5-2.4-0.1
		c-0.3,0.2-6.2,4-6.9,9.1c-0.2,1.8-0.1,3.3,0.4,4.6c0.2,0.5,0.5,1,0.7,1.4c1.1,1.4,2.7,2.4,4.7,2.4
		C-3921.5,1657.5-3919.6,1656.7-3918.2,1655.3z"/>
	<path class="st8" d="M-3921.8,1673.5c0.8-0.4,1.2-1.2,1.1-2c-0.1-0.3-1.4-6.5-6.5-8.6c-2.4-1-4.7-1.2-6.6-0.7
		c-1.9,0.5-3.4,1.7-4.3,3.4c-0.8,1.5-0.9,3.1-0.5,4.5c0.1,0.2,0.2,0.4,0.3,0.6c0.8,1.6,2.4,3,4.9,3.9
		C-3928.4,1676.7-3922.1,1673.6-3921.8,1673.5z"/>
	<path class="st7" d="M-3933.4,1664.1c1.4-1.4,2.3-3.3,2.6-5.9c0.6-5.3-4.3-9.5-4.5-9.7c-0.6-0.5-1.5-0.5-2.4-0.1
		c-0.3,0.2-6.2,4-6.9,9.1c-0.2,1.8-0.1,3.3,0.4,4.6c0.2,0.5,0.5,1,0.7,1.4c1.1,1.4,2.7,2.4,4.7,2.4
		C-3936.7,1666.1-3934.8,1665.6-3933.4,1664.1z"/>
	<path class="st7" d="M-3939.8,1680.1c0-0.3-0.2-6.8-4.7-9.6c-2.2-1.4-4.3-2-6.3-1.8s-3.7,1.2-4.9,2.7s-1.6,3.3-1.1,5.1
		c0,0.2,0.1,0.3,0.1,0.5c0.5,1.6,1.9,3.1,3.9,4.3c4.5,2.9,11.3,0.8,11.7,0.7C-3940.4,1681.7-3939.8,1681-3939.8,1680.1z"/>
	<g>
		<path class="st8" d="M-3950.7,1670.7c1.6-1.2,2.9-3,3.7-5.4c1.6-5.2-2.4-10.1-2.5-10.4c-0.5-0.6-1.4-0.8-2.3-0.5
			c-0.3,0.1-6.8,2.9-8.4,8.1c-0.7,2.3-0.8,4.3-0.2,5.8c0.1,0.1,0.1,0.3,0.2,0.4c0.7,1.6,2.2,2.7,4.2,3.2
			C-3954.2,1672.2-3952.3,1671.8-3950.7,1670.7z"/>
		<path class="st8" d="M-3960.9,1687.6c0.1-0.3,1.2-6.8-2.7-10.3c-1.8-1.7-3.8-2.7-5.8-2.8c-1.9-0.2-3.8,0.5-5.3,1.9
			c-1.4,1.4-2.3,3.1-2.1,4.9c0,0.5,0.2,1.1,0.4,1.6c0.5,1.3,1.4,2.5,2.6,3.7c3.9,3.6,10.9,2.6,11.1,2.6
			C-3961.8,1689.1-3961.1,1688.3-3960.9,1687.6z"/>
		<path class="st8" d="M-3969.7,1676.3c1.8-0.9,3.3-2.4,4.6-4.8c2.6-4.8-0.4-10.5-0.5-10.8c-0.4-0.7-1.3-1.1-2.1-0.8
			c-0.3,0.1-7.2,1.7-9.8,6.6c-1.3,2.4-1.6,4.4-1.3,6.2c0.1,0.2,0.1,0.5,0.2,0.6c0.5,1.4,1.6,2.5,3.3,3.2
			C-3973.4,1677.2-3971.5,1677.1-3969.7,1676.3z"/>
		<path class="st8" d="M-3899.5,1646.2c4.2-3.8,3.5-10.2,3.5-10.5c-0.1-0.8-0.7-1.4-1.6-1.4c-0.3,0-7.2-0.5-11.4,3.3
			c-2,1.8-3.2,3.7-3.4,5.5c-0.2,0.9-0.1,1.8,0.3,2.6c0.3,0.8,0.8,1.5,1.4,2.2c1.4,1.3,3.3,1.8,5.2,1.5
			C-3903.5,1649.1-3901.5,1648.1-3899.5,1646.2z"/>
	</g>
</g>
<path class="st9" d="M-4007.7,1519.8c1.4,1.8,1.8,4.3,1.3,6.4c-3.1,12.1-4.6,24.6-4.5,37.1c0.1,24.5,12.1,52.3,33,76.4
	c20.8,24,47.3,40.7,72.7,46.1c3.4,0.7,5.8,3.9,5.8,7.4h21.8c0-3.3-2.1-6.2-5.1-7.2c-0.2-0.1-0.5-0.1-0.6-0.2
	c-25.3-5.3-51.9-22-72.7-46.1c-20.8-24.1-32.9-52-33-76.4c0-12.6,1.5-25.1,4.5-37.1c0.5-2.3,0.1-4.6-1.3-6.4
	c-1.4-1.8-3.4-2.9-5.6-2.9h-3.3c-3.6,0-7.2,0.2-10.7,0.5c-0.2,0-0.3,0-0.5,0c-0.5,0-1,0.1-1.4,0.1c-0.9,0.1-1.7,0.2-2.6,0.3
	C-4009.2,1518.2-4008.4,1519.1-4007.7,1519.8z"/>
<path class="st10" d="M-3905.4,1684.3c-25.4-5.3-51.9-22-72.7-46.1c-20.8-24.1-32.9-52-33-76.4c-0.1-12.5,1.4-25,4.5-37.1
	c0.5-2.2,0.1-4.6-1.3-6.4c-0.6-0.8-1.4-1.5-2.4-2c0.9-0.1,1.7-0.2,2.6-0.3c-34.8,3.2-67.1,18.9-92.2,45.1
	c-27.9,29.4-43.3,68.1-43.1,109.3l0.1,21.5h243.1C-3899.5,1688.2-3902,1685.1-3905.4,1684.3z"/>
<path class="st2" d="M-3854.9,1375c-0.1,0-0.1,0-0.2,0c-25.4,0.1-46.1,20.8-46,46.3c0,12.3,4.9,23.9,13.6,32.6s20.3,13.4,32.5,13.4
	h0.2c25.4-0.1,46.1-20.8,46-46.3C-3808.9,1395.6-3829.6,1375-3854.9,1375z"/>
<path class="st2" d="M-3858.5,1358.1c-0.1-22.5-16.7-40.7-36.9-40.7h-135.4c-9.9,0-19.2,4.3-26.2,12c-7,7.8-10.8,18-10.8,29
	l0.2,79.5c0.2,63.7,47.1,115.4,104.7,115.4h0.4c57.7-0.2,104.5-52.2,104.3-116.1L-3858.5,1358.1z"/>
<path class="st11" d="M-3858.4,1358.1c-0.1-22.5-15.6-40.7-34.6-40.7h-16.9c19,0,34.6,18.3,34.6,40.7l0.2,79
	c0.2,60.6-39.4,110.5-89.6,115.7c2.8,0.3,5.6,0.5,8.4,0.5h0.3c54-0.2,97.9-52.2,97.8-116.1L-3858.4,1358.1z"/>
<ellipse transform="matrix(-0.3592 -0.9333 0.9333 -0.3592 -6863.1392 -1929.8905)" class="st1" cx="-4094.1" cy="1391.3" rx="41.5" ry="28.2"/>
<ellipse transform="matrix(-0.3592 -0.9333 0.9333 -0.3592 -6866.3799 -1940.3159)" class="st0" cx="-4099.3" cy="1387.2" rx="41.5" ry="28.2"/>
<path class="st3" d="M-3963.2,1506.5c-8.9,0-17.4-3.3-23.9-9.3c-2.8-2.5-3-6.9-0.5-9.6c2.5-2.8,6.9-3,9.6-0.5
	c4,3.7,9.2,5.7,14.7,5.7h0.1c5.5,0,10.7-2.1,14.8-5.8c2.8-2.5,7.1-2.4,9.6,0.4s2.4,7.1-0.4,9.6
	C-3945.7,1503-3954.2,1506.3-3963.2,1506.5C-3963.1,1506.5-3963.1,1506.5-3963.2,1506.5z"/>
<path class="st0" d="M-4003.8,1395.3c8.9,0,17.4,1.6,23.9,4.6c2.8,1.3,3,3.4,0.5,4.8c-2.5,1.4-6.9,1.4-9.6,0.2
	c-4-1.8-9.2-2.9-14.7-2.9h-0.1c-5.5,0-10.7,1-14.8,2.9c-2.8,1.3-7.1,1.2-9.6-0.2s-2.4-3.5,0.4-4.8
	C-4021.3,1397-4012.8,1395.2-4003.8,1395.3C-4003.9,1395.3-4003.8,1395.3-4003.8,1395.3z"/>
<ellipse class="st1" cx="-4068.1" cy="1349.1" rx="46.2" ry="37.8"/>
<path class="st0" d="M-3919,1395.3c8.9,0,17.4,1.6,23.9,4.6c2.8,1.3,3,3.4,0.5,4.8c-2.5,1.4-6.9,1.4-9.6,0.2
	c-4-1.8-9.2-2.9-14.7-2.9h-0.1c-5.5,0-10.7,1-14.8,2.9c-2.8,1.3-7.1,1.2-9.6-0.2s-2.4-3.5,0.4-4.8
	C-3936.5,1397-3928,1395.2-3919,1395.3L-3919,1395.3z"/>
<path class="st12" d="M-3991.5,1430.8c0-6.3-5.2-11.4-11.5-11.4s-11.4,5.2-11.4,11.5s5.2,11.4,11.5,11.4
	C-3996.6,1442.3-3991.5,1437.1-3991.5,1430.8z"/>
<path class="st12" d="M-3910.5,1430.6c0-6.3-5.2-11.5-11.5-11.4c-6.3,0-11.5,5.2-11.4,11.5c0,6.3,5.2,11.5,11.5,11.4
	C-3915.7,1442.1-3910.5,1437-3910.5,1430.6z"/>
<ellipse transform="matrix(-0.9333 -0.3592 0.3592 -0.9333 -7932.0957 1309.2151)" class="st1" cx="-3844.4" cy="1391.5" rx="28.2" ry="41.5"/>
<ellipse transform="matrix(-0.9333 -0.3592 0.3592 -0.9333 -7924.417 1296.5287)" class="st0" cx="-3841.8" cy="1384.4" rx="28.2" ry="41.5"/>
<ellipse class="st1" cx="-3864.3" cy="1343" rx="46.2" ry="37.8"/>
<ellipse class="st0" cx="-3866.2" cy="1325.5" rx="47.3" ry="47.3"/>
<ellipse class="st1" cx="-3887.9" cy="1317.3" rx="46.2" ry="37.8"/>
<ellipse class="st0" cx="-3887.9" cy="1310.1" rx="45.4" ry="32.9"/>
<ellipse class="st0" cx="-4072.6" cy="1336.5" rx="44.4" ry="44.4"/>
<ellipse class="st1" cx="-4039.6" cy="1311.6" rx="46.2" ry="37.8"/>
<ellipse class="st1" cx="-3968.3" cy="1296.1" rx="71.3" ry="54.3"/>
<ellipse class="st0" cx="-3962.2" cy="1283.7" rx="74.3" ry="53.6"/>
<ellipse class="st0" cx="-4039.6" cy="1304.5" rx="45.4" ry="32.9"/>
<g>
	<path class="st6" d="M-3902.3,1635c-0.2-0.1-0.4-0.3-0.5-0.5c-0.5-0.8-0.3-2,0.5-2.6c7.9-6.2,14.9-13.9,20.9-22.9
		c4.8-7.2,9-15.3,12.3-24.1c5.7-14.8,7.2-26.5,7.2-26.6c0.1-1,1-1.8,2-1.8s1.6,0.9,1.5,2c-0.1,0.5-1.5,12.2-7.4,27.6
		c-3.4,9.1-7.8,17.4-12.7,24.9c-6.2,9.4-13.6,17.5-21.8,23.9C-3900.9,1635.2-3901.6,1635.2-3902.3,1635z"/>
	<path class="st7" d="M-3845.8,1569.6c0.4-0.8,0.1-1.7-0.5-2.2c-0.2-0.2-5.4-4-10.6-2.2c-2.4,0.8-4.3,2.2-5.4,3.8s-1.5,3.5-1.1,5.4
		c0.4,1.6,1.4,3,2.6,3.7c0.2,0.1,0.4,0.2,0.6,0.3c1.7,0.7,3.8,0.6,6.3-0.3C-3848.7,1576.5-3845.9,1570-3845.8,1569.6z"/>
	<path class="st8" d="M-3860.6,1570.1c0.2-2-0.5-4.1-1.9-6.2c-3-4.3-9.5-4.3-9.8-4.3c-0.8,0-1.5,0.6-1.8,1.4
		c-0.1,0.3-2.1,7.1,0.8,11.4c1,1.4,2.1,2.5,3.3,3.2c0.5,0.3,1,0.5,1.5,0.6c1.7,0.5,3.6,0,5.2-1.3
		C-3861.8,1573.7-3860.8,1572.1-3860.6,1570.1z"/>
	<path class="st8" d="M-3851.5,1586.1c0.4-0.8,0.1-1.7-0.5-2.2c-0.2-0.2-5.4-4-10.6-2.2c-2.4,0.8-4.3,2.2-5.4,3.8s-1.5,3.5-1.1,5.4
		c0.4,1.6,1.4,3,2.6,3.7c0.2,0.1,0.4,0.2,0.6,0.3c1.7,0.7,3.8,0.6,6.3-0.3C-3854.4,1593-3851.6,1586.5-3851.5,1586.1z"/>
	<path class="st7" d="M-3866.4,1586.6c0.2-2-0.5-4.1-1.9-6.2c-3-4.3-9.5-4.3-9.8-4.3c-0.8,0-1.5,0.6-1.8,1.4
		c-0.1,0.3-2.1,7.1,0.8,11.4c1,1.4,2.1,2.5,3.3,3.2c0.5,0.3,1,0.5,1.5,0.6c1.7,0.5,3.6,0,5.2-1.3
		C-3867.6,1590.2-3866.6,1588.6-3866.4,1586.6z"/>
	<path class="st7" d="M-3860.7,1603.1c-0.2-0.2-4.5-5-9.9-4.2c-2.5,0.4-4.5,1.4-6,2.8c-1.4,1.4-2.1,3.3-2,5.3s1,3.6,2.4,4.6
		c0.1,0.1,0.3,0.2,0.4,0.2c1.4,0.8,3.4,1.1,5.8,0.7c5.3-0.8,9.1-6.9,9.2-7.1C-3860.2,1604.6-3860.2,1603.6-3860.7,1603.1z"/>
	<g>
		<path class="st8" d="M-3875.1,1603.1c0.5-2,0.3-4.2-0.8-6.5c-2.1-5-8.5-6.2-8.8-6.2c-0.8-0.2-1.6,0.3-2,1.1
			c-0.1,0.3-3.3,6.7-1.1,11.6c0.9,2.2,2.2,3.7,3.6,4.5c0.1,0.1,0.3,0.1,0.4,0.2c1.6,0.7,3.4,0.6,5.2-0.3
			C-3876.8,1606.5-3875.6,1605-3875.1,1603.1z"/>
		<path class="st8" d="M-3871.8,1622.6c-0.2-0.3-3.5-5.9-8.9-6.1c-2.5-0.1-4.6,0.5-6.2,1.6c-1.5,1.2-2.5,2.9-2.8,4.9
			s0.4,3.8,1.6,5.1c0.4,0.4,0.8,0.7,1.4,1c1.2,0.6,2.6,1,4.4,1.1c5.3,0.2,10-5.2,10.1-5.3
			C-3871.6,1624.1-3871.5,1623.1-3871.8,1622.6z"/>
		<path class="st8" d="M-3885.8,1619.6c0.8-1.8,0.9-4.1,0.4-6.7c-1.2-5.3-7.2-7.7-7.4-7.8c-0.7-0.3-1.6,0-2.1,0.7
			c-0.2,0.3-4.3,6.1-3.1,11.4c0.5,2.5,1.6,4.4,3.1,5.5c0.2,0.1,0.4,0.3,0.5,0.4c1.4,0.7,2.9,0.8,4.5,0.3
			C-3888,1622.8-3886.6,1621.6-3885.8,1619.6z"/>
		<path class="st8" d="M-3852.6,1551c0.6-5.6-4.1-10-4.3-10.2c-0.5-0.5-1.4-0.5-2.2-0.1c-0.3,0.2-5.9,4.3-6.4,10
			c-0.3,2.7,0.1,4.9,1.1,6.4c0.5,0.8,1.2,1.4,1.9,1.8c0.7,0.5,1.6,0.6,2.5,0.6c1.9,0.1,3.6-0.7,4.9-2.2
			C-3853.7,1555.7-3852.9,1553.6-3852.6,1551z"/>
	</g>
</g>
<circle class="st13" cx="-3903.8" cy="1633.5" r="15.7"/>
<circle class="st14" cx="-3904.1" cy="1633.2" r="9.6"/>
<path class="st0" d="M-3855.5,1254.6c-28.6-18.6-66.5-28.7-106.7-28.7s-78,10.2-106.7,28.7c-28.6,18.6-44.4,43.1-44.4,69.1v139.8
	c0,2.4,3.1,4.4,6.8,4.4h288.3c3.8,0,6.8-2,6.8-4.4v-139.8C-3811.3,1297.6-3827,1273.1-3855.5,1254.6z"/>
<ellipse class="st1" cx="-4076.9" cy="1464.8" rx="38.9" ry="33.2"/>
<ellipse class="st1" cx="-3847.7" cy="1464" rx="38.9" ry="33.2"/>
<path class="st2" d="M-4073.9,1375.7c-0.1,0-0.1,0-0.2,0c-25.4,0.1-46.1,20.8-46,46.3c0,12.3,4.9,23.9,13.6,32.6
	s20.3,13.4,32.5,13.4h0.2c25.4-0.1,46.1-20.8,46-46.3S-4048.6,1375.7-4073.9,1375.7z"/>
<path class="st2" d="M-3791.8,1662.7c-0.1-39.6-15.8-76.9-44-104.9s-65.4-43.4-104.7-43.4c-0.2,0-0.3,0-0.5,0l-48.7,0.2
	c-39.6,0.1-76.9,15.8-104.9,44c-28.1,28.2-43.5,65.6-43.4,105.2l0.1,18.6c0,3.7,3.1,6.8,6.8,6.8h332.5c1.8,0,3.5-0.7,4.8-2
	s2-3,2-4.8L-3791.8,1662.7z"/>
<path class="st3" d="M-3791.8,1662.7c-0.1-39.6-15.8-76.9-44-104.9s-65.4-43.4-104.7-43.4c-0.2,0-0.3,0-0.5,0l-16.7,0.1
	c37.9,1,73.7,16.2,100.9,43.3c28.2,28.1,43.9,65.4,44,104.9l0.1,19.6c0,1.8-0.7,3.5-2,4.8s-3,2-4.8,2h20.9c1.8,0,3.5-0.7,4.8-2
	s2-3,2-4.8V1662.7z"/>
<g>
	<g>
		<path id="XMLID_1_" class="st4" d="M-3791.9,1665.6c-0.1-39.3-15.8-76.3-44-104.2c-8.4-8.3-17.7-15.5-27.5-21.5
			c-7,27.3-36.5,49.3-75,56.3c-8.6,1.6-17.6,2.4-26.9,2.4c-9.2,0-18.1-0.8-26.7-2.4c-38.3-7-67.9-28.8-75.1-55.9
			c-10,6.1-19.1,13.4-27.6,21.8c-28.1,28.1-43.5,65.2-43.4,104.5l0.1,21.3c0.1,2.4,1.4,4.6,3.3,5.9h337.3c1.3-0.3,2.4-1,3.4-1.9
			c1.4-1.4,2.1-3.2,2.1-5.1L-3791.9,1665.6z"/>
	</g>
	<g>
		<g>
			<g>
				<g>
					<g>
						<g>
							<g>
								<defs>
									<path id="SVGID_3_" d="M-3791.9,1665.6c-0.1-39.3-15.8-76.3-44-104.2c-8.4-8.3-17.7-15.5-27.5-21.5
										c-7,27.3-36.5,49.3-75,56.3c-8.6,1.6-17.6,2.4-26.9,2.4c-9.2,0-18.1-0.8-26.7-2.4c-38.3-7-67.9-28.8-75.1-55.9
										c-10,6.1-19.1,13.4-27.6,21.8c-28.1,28.1-43.5,65.2-43.4,104.5l0.1,21.3c0.1,2.4,1.4,4.6,3.3,5.9h337.3
										c1.3-0.3,2.4-1,3.4-1.9c1.4-1.4,2.1-3.2,2.1-5.1L-3791.9,1665.6z"/>
								</defs>
								<clipPath id="SVGID_4_">
									<use xlink:href="#SVGID_3_"  style="overflow:visible;"/>
								</clipPath>
								<path class="st15" d="M-3790.9,1666.1c-0.1-39.3-15.8-76.3-44-104.2c-28.2-27.8-65.4-43.1-104.7-43.1c-0.2,0-0.3,0-0.5,0
									l-17.6,0.1c37.9,1,73.6,16.1,100.9,43c28.2,27.9,43.8,64.9,44,104.2l0.1,21.3c0,1.9-0.7,3.7-2.1,5.1
									c-0.9,0.9-2.1,1.6-3.4,1.9h22c1.3-0.3,2.4-1,3.4-1.9c1.4-1.4,2.1-3.2,2.1-5.1L-3790.9,1666.1z"/>
							</g>
						</g>
					</g>
				</g>
			</g>
		</g>
	</g>
</g>
<g>
	<path class="st6" d="M-3992.1,1677.1c-0.1-0.3-0.1-0.5-0.1-0.7c0.1-1,1.1-1.7,2.1-1.6c10,0.5,20.5-0.7,30.9-3.6
		c8.4-2.4,16.8-5.7,25.1-10.1c14-7.5,22.8-15.3,22.9-15.4c0.8-0.7,2-0.7,2.7-0.1c0.7,0.6,0.6,1.8-0.1,2.4
		c-0.4,0.4-9.2,8.2-23.7,15.9c-8.5,4.5-17.3,8.1-25.9,10.5c-10.9,3-21.7,4.3-32.1,3.7C-3991.3,1678.1-3991.9,1677.7-3992.1,1677.1z"
		/>
	<path class="st7" d="M-3906.6,1664.7c0.8-0.4,1.2-1.2,1.1-2c-0.1-0.3-1.4-6.5-6.5-8.6c-2.4-1-4.7-1.2-6.6-0.7
		c-1.9,0.5-3.4,1.7-4.3,3.4c-0.8,1.5-0.9,3.1-0.5,4.5c0.1,0.2,0.2,0.4,0.3,0.6c0.8,1.6,2.4,3,4.9,3.9
		C-3913.2,1668.1-3906.9,1665-3906.6,1664.7z"/>
	<path class="st8" d="M-3918.2,1655.3c1.4-1.4,2.3-3.3,2.6-5.9c0.6-5.3-4.3-9.5-4.5-9.7c-0.6-0.5-1.5-0.5-2.4-0.1
		c-0.3,0.2-6.2,4-6.9,9.1c-0.2,1.8-0.1,3.3,0.4,4.6c0.2,0.5,0.5,1,0.7,1.4c1.1,1.4,2.7,2.4,4.7,2.4
		C-3921.5,1657.5-3919.6,1656.7-3918.2,1655.3z"/>
	<path class="st8" d="M-3921.8,1673.5c0.8-0.4,1.2-1.2,1.1-2c-0.1-0.3-1.4-6.5-6.5-8.6c-2.4-1-4.7-1.2-6.6-0.7
		c-1.9,0.5-3.4,1.7-4.3,3.4c-0.8,1.5-0.9,3.1-0.5,4.5c0.1,0.2,0.2,0.4,0.3,0.6c0.8,1.6,2.4,3,4.9,3.9
		C-3928.4,1676.7-3922.1,1673.6-3921.8,1673.5z"/>
	<path class="st7" d="M-3933.4,1664.1c1.4-1.4,2.3-3.3,2.6-5.9c0.6-5.3-4.3-9.5-4.5-9.7c-0.6-0.5-1.5-0.5-2.4-0.1
		c-0.3,0.2-6.2,4-6.9,9.1c-0.2,1.8-0.1,3.3,0.4,4.6c0.2,0.5,0.5,1,0.7,1.4c1.1,1.4,2.7,2.4,4.7,2.4
		C-3936.7,1666.1-3934.8,1665.6-3933.4,1664.1z"/>
	<path class="st7" d="M-3939.8,1680.1c0-0.3-0.2-6.8-4.7-9.6c-2.2-1.4-4.3-2-6.3-1.8s-3.7,1.2-4.9,2.7s-1.6,3.3-1.1,5.1
		c0,0.2,0.1,0.3,0.1,0.5c0.5,1.6,1.9,3.1,3.9,4.3c4.5,2.9,11.3,0.8,11.7,0.7C-3940.4,1681.7-3939.8,1681-3939.8,1680.1z"/>
	<g>
		<path class="st8" d="M-3950.7,1670.7c1.6-1.2,2.9-3,3.7-5.4c1.6-5.2-2.4-10.1-2.5-10.4c-0.5-0.6-1.4-0.8-2.3-0.5
			c-0.3,0.1-6.8,2.9-8.4,8.1c-0.7,2.3-0.8,4.3-0.2,5.8c0.1,0.1,0.1,0.3,0.2,0.4c0.7,1.6,2.2,2.7,4.2,3.2
			C-3954.2,1672.2-3952.3,1671.8-3950.7,1670.7z"/>
		<path class="st8" d="M-3960.9,1687.6c0.1-0.3,1.2-6.8-2.7-10.3c-1.8-1.7-3.8-2.7-5.8-2.8c-1.9-0.2-3.8,0.5-5.3,1.9
			c-1.4,1.4-2.3,3.1-2.1,4.9c0,0.5,0.2,1.1,0.4,1.6c0.5,1.3,1.4,2.5,2.6,3.7c3.9,3.6,10.9,2.6,11.1,2.6
			C-3961.8,1689.1-3961.1,1688.3-3960.9,1687.6z"/>
		<path class="st8" d="M-3969.7,1676.3c1.8-0.9,3.3-2.4,4.6-4.8c2.6-4.8-0.4-10.5-0.5-10.8c-0.4-0.7-1.3-1.1-2.1-0.8
			c-0.3,0.1-7.2,1.7-9.8,6.6c-1.3,2.4-1.6,4.4-1.3,6.2c0.1,0.2,0.1,0.5,0.2,0.6c0.5,1.4,1.6,2.5,3.3,3.2
			C-3973.4,1677.2-3971.5,1677.1-3969.7,1676.3z"/>
		<path class="st8" d="M-3899.5,1646.2c4.2-3.8,3.5-10.2,3.5-10.5c-0.1-0.8-0.7-1.4-1.6-1.4c-0.3,0-7.2-0.5-11.4,3.3
			c-2,1.8-3.2,3.7-3.4,5.5c-0.2,0.9-0.1,1.8,0.3,2.6c0.3,0.8,0.8,1.5,1.4,2.2c1.4,1.3,3.3,1.8,5.2,1.5
			C-3903.5,1649.1-3901.5,1648.1-3899.5,1646.2z"/>
	</g>
</g>
<path class="st9" d="M-4007.7,1519.8c1.4,1.8,1.8,4.3,1.3,6.4c-3.1,12.1-4.6,24.6-4.5,37.1c0.1,24.5,12.1,52.3,33,76.4
	c20.8,24,47.3,40.7,72.7,46.1c3.4,0.7,5.8,3.9,5.8,7.4h21.8c0-3.3-2.1-6.2-5.1-7.2c-0.2-0.1-0.5-0.1-0.6-0.2
	c-25.3-5.3-51.9-22-72.7-46.1c-20.8-24.1-32.9-52-33-76.4c0-12.6,1.5-25.1,4.5-37.1c0.5-2.3,0.1-4.6-1.3-6.4
	c-1.4-1.8-3.4-2.9-5.6-2.9h-3.3c-3.6,0-7.2,0.2-10.7,0.5c-0.2,0-0.3,0-0.5,0c-0.5,0-1,0.1-1.4,0.1c-0.9,0.1-1.7,0.2-2.6,0.3
	C-4009.2,1518.2-4008.4,1519.1-4007.7,1519.8z"/>
<path class="st10" d="M-3905.4,1684.3c-25.4-5.3-51.9-22-72.7-46.1c-20.8-24.1-32.9-52-33-76.4c-0.1-12.5,1.4-25,4.5-37.1
	c0.5-2.2,0.1-4.6-1.3-6.4c-0.6-0.8-1.4-1.5-2.4-2c0.9-0.1,1.7-0.2,2.6-0.3c-34.8,3.2-67.1,18.9-92.2,45.1
	c-27.9,29.4-43.3,68.1-43.1,109.3l0.1,21.5h243.1C-3899.5,1688.2-3902,1685.1-3905.4,1684.3z"/>
<path class="st2" d="M-3854.9,1375c-0.1,0-0.1,0-0.2,0c-25.4,0.1-46.1,20.8-46,46.3c0,12.3,4.9,23.9,13.6,32.6s20.3,13.4,32.5,13.4
	h0.2c25.4-0.1,46.1-20.8,46-46.3C-3808.9,1395.6-3829.6,1375-3854.9,1375z"/>
<path class="st2" d="M-3858.5,1358.1c-0.1-22.5-16.7-40.7-36.9-40.7h-135.4c-9.9,0-19.2,4.3-26.2,12c-7,7.8-10.8,18-10.8,29
	l0.2,79.5c0.2,63.7,47.1,115.4,104.7,115.4h0.4c57.7-0.2,104.5-52.2,104.3-116.1L-3858.5,1358.1z"/>
<path class="st11" d="M-3858.4,1358.1c-0.1-22.5-15.6-40.7-34.6-40.7h-16.9c19,0,34.6,18.3,34.6,40.7l0.2,79
	c0.2,60.6-39.4,110.5-89.6,115.7c2.8,0.3,5.6,0.5,8.4,0.5h0.3c54-0.2,97.9-52.2,97.8-116.1L-3858.4,1358.1z"/>
<ellipse transform="matrix(-0.3592 -0.9333 0.9333 -0.3592 -6863.1392 -1929.8905)" class="st1" cx="-4094.1" cy="1391.3" rx="41.5" ry="28.2"/>
<ellipse transform="matrix(-0.3592 -0.9333 0.9333 -0.3592 -6866.3799 -1940.3159)" class="st0" cx="-4099.3" cy="1387.2" rx="41.5" ry="28.2"/>
<path class="st3" d="M-3963.2,1506.5c-8.9,0-17.4-3.3-23.9-9.3c-2.8-2.5-3-6.9-0.5-9.6c2.5-2.8,6.9-3,9.6-0.5
	c4,3.7,9.2,5.7,14.7,5.7h0.1c5.5,0,10.7-2.1,14.8-5.8c2.8-2.5,7.1-2.4,9.6,0.4s2.4,7.1-0.4,9.6
	C-3945.7,1503-3954.2,1506.3-3963.2,1506.5C-3963.1,1506.5-3963.1,1506.5-3963.2,1506.5z"/>
<path class="st0" d="M-4003.8,1395.3c8.9,0,17.4,1.6,23.9,4.6c2.8,1.3,3,3.4,0.5,4.8c-2.5,1.4-6.9,1.4-9.6,0.2
	c-4-1.8-9.2-2.9-14.7-2.9h-0.1c-5.5,0-10.7,1-14.8,2.9c-2.8,1.3-7.1,1.2-9.6-0.2s-2.4-3.5,0.4-4.8
	C-4021.3,1397-4012.8,1395.2-4003.8,1395.3C-4003.9,1395.3-4003.8,1395.3-4003.8,1395.3z"/>
<ellipse class="st1" cx="-4068.1" cy="1349.1" rx="46.2" ry="37.8"/>
<path class="st0" d="M-3919,1395.3c8.9,0,17.4,1.6,23.9,4.6c2.8,1.3,3,3.4,0.5,4.8c-2.5,1.4-6.9,1.4-9.6,0.2
	c-4-1.8-9.2-2.9-14.7-2.9h-0.1c-5.5,0-10.7,1-14.8,2.9c-2.8,1.3-7.1,1.2-9.6-0.2s-2.4-3.5,0.4-4.8
	C-3936.5,1397-3928,1395.2-3919,1395.3L-3919,1395.3z"/>
<path class="st12" d="M-3991.5,1430.8c0-6.3-5.2-11.4-11.5-11.4s-11.4,5.2-11.4,11.5s5.2,11.4,11.5,11.4
	C-3996.6,1442.3-3991.5,1437.1-3991.5,1430.8z"/>
<path class="st12" d="M-3910.5,1430.6c0-6.3-5.2-11.5-11.5-11.4c-6.3,0-11.5,5.2-11.4,11.5c0,6.3,5.2,11.5,11.5,11.4
	C-3915.7,1442.1-3910.5,1437-3910.5,1430.6z"/>
<ellipse transform="matrix(-0.9333 -0.3592 0.3592 -0.9333 -7932.0957 1309.2151)" class="st1" cx="-3844.4" cy="1391.5" rx="28.2" ry="41.5"/>
<ellipse transform="matrix(-0.9333 -0.3592 0.3592 -0.9333 -7924.417 1296.5287)" class="st0" cx="-3841.8" cy="1384.4" rx="28.2" ry="41.5"/>
<ellipse class="st1" cx="-3864.3" cy="1343" rx="46.2" ry="37.8"/>
<ellipse class="st0" cx="-3866.2" cy="1325.5" rx="47.3" ry="47.3"/>
<ellipse class="st1" cx="-3887.9" cy="1317.3" rx="46.2" ry="37.8"/>
<ellipse class="st0" cx="-3887.9" cy="1310.1" rx="45.4" ry="32.9"/>
<ellipse class="st0" cx="-4072.6" cy="1336.5" rx="44.4" ry="44.4"/>
<ellipse class="st1" cx="-4039.6" cy="1311.6" rx="46.2" ry="37.8"/>
<ellipse class="st1" cx="-3968.3" cy="1296.1" rx="71.3" ry="54.3"/>
<ellipse class="st0" cx="-3962.2" cy="1283.7" rx="74.3" ry="53.6"/>
<ellipse class="st0" cx="-4039.6" cy="1304.5" rx="45.4" ry="32.9"/>
<g>
	<path class="st6" d="M-3902.3,1635c-0.2-0.1-0.4-0.3-0.5-0.5c-0.5-0.8-0.3-2,0.5-2.6c7.9-6.2,14.9-13.9,20.9-22.9
		c4.8-7.2,9-15.3,12.3-24.1c5.7-14.8,7.2-26.5,7.2-26.6c0.1-1,1-1.8,2-1.8s1.6,0.9,1.5,2c-0.1,0.5-1.5,12.2-7.4,27.6
		c-3.4,9.1-7.8,17.4-12.7,24.9c-6.2,9.4-13.6,17.5-21.8,23.9C-3900.9,1635.2-3901.6,1635.2-3902.3,1635z"/>
	<path class="st7" d="M-3845.8,1569.6c0.4-0.8,0.1-1.7-0.5-2.2c-0.2-0.2-5.4-4-10.6-2.2c-2.4,0.8-4.3,2.2-5.4,3.8s-1.5,3.5-1.1,5.4
		c0.4,1.6,1.4,3,2.6,3.7c0.2,0.1,0.4,0.2,0.6,0.3c1.7,0.7,3.8,0.6,6.3-0.3C-3848.7,1576.5-3845.9,1570-3845.8,1569.6z"/>
	<path class="st8" d="M-3860.6,1570.1c0.2-2-0.5-4.1-1.9-6.2c-3-4.3-9.5-4.3-9.8-4.3c-0.8,0-1.5,0.6-1.8,1.4
		c-0.1,0.3-2.1,7.1,0.8,11.4c1,1.4,2.1,2.5,3.3,3.2c0.5,0.3,1,0.5,1.5,0.6c1.7,0.5,3.6,0,5.2-1.3
		C-3861.8,1573.7-3860.8,1572.1-3860.6,1570.1z"/>
	<path class="st8" d="M-3851.5,1586.1c0.4-0.8,0.1-1.7-0.5-2.2c-0.2-0.2-5.4-4-10.6-2.2c-2.4,0.8-4.3,2.2-5.4,3.8s-1.5,3.5-1.1,5.4
		c0.4,1.6,1.4,3,2.6,3.7c0.2,0.1,0.4,0.2,0.6,0.3c1.7,0.7,3.8,0.6,6.3-0.3C-3854.4,1593-3851.6,1586.5-3851.5,1586.1z"/>
	<path class="st7" d="M-3866.4,1586.6c0.2-2-0.5-4.1-1.9-6.2c-3-4.3-9.5-4.3-9.8-4.3c-0.8,0-1.5,0.6-1.8,1.4
		c-0.1,0.3-2.1,7.1,0.8,11.4c1,1.4,2.1,2.5,3.3,3.2c0.5,0.3,1,0.5,1.5,0.6c1.7,0.5,3.6,0,5.2-1.3
		C-3867.6,1590.2-3866.6,1588.6-3866.4,1586.6z"/>
	<path class="st7" d="M-3860.7,1603.1c-0.2-0.2-4.5-5-9.9-4.2c-2.5,0.4-4.5,1.4-6,2.8c-1.4,1.4-2.1,3.3-2,5.3s1,3.6,2.4,4.6
		c0.1,0.1,0.3,0.2,0.4,0.2c1.4,0.8,3.4,1.1,5.8,0.7c5.3-0.8,9.1-6.9,9.2-7.1C-3860.2,1604.6-3860.2,1603.6-3860.7,1603.1z"/>
	<g>
		<path class="st8" d="M-3875.1,1603.1c0.5-2,0.3-4.2-0.8-6.5c-2.1-5-8.5-6.2-8.8-6.2c-0.8-0.2-1.6,0.3-2,1.1
			c-0.1,0.3-3.3,6.7-1.1,11.6c0.9,2.2,2.2,3.7,3.6,4.5c0.1,0.1,0.3,0.1,0.4,0.2c1.6,0.7,3.4,0.6,5.2-0.3
			C-3876.8,1606.5-3875.6,1605-3875.1,1603.1z"/>
		<path class="st8" d="M-3871.8,1622.6c-0.2-0.3-3.5-5.9-8.9-6.1c-2.5-0.1-4.6,0.5-6.2,1.6c-1.5,1.2-2.5,2.9-2.8,4.9
			s0.4,3.8,1.6,5.1c0.4,0.4,0.8,0.7,1.4,1c1.2,0.6,2.6,1,4.4,1.1c5.3,0.2,10-5.2,10.1-5.3
			C-3871.6,1624.1-3871.5,1623.1-3871.8,1622.6z"/>
		<path class="st8" d="M-3885.8,1619.6c0.8-1.8,0.9-4.1,0.4-6.7c-1.2-5.3-7.2-7.7-7.4-7.8c-0.7-0.3-1.6,0-2.1,0.7
			c-0.2,0.3-4.3,6.1-3.1,11.4c0.5,2.5,1.6,4.4,3.1,5.5c0.2,0.1,0.4,0.3,0.5,0.4c1.4,0.7,2.9,0.8,4.5,0.3
			C-3888,1622.8-3886.6,1621.6-3885.8,1619.6z"/>
		<path class="st8" d="M-3852.6,1551c0.6-5.6-4.1-10-4.3-10.2c-0.5-0.5-1.4-0.5-2.2-0.1c-0.3,0.2-5.9,4.3-6.4,10
			c-0.3,2.7,0.1,4.9,1.1,6.4c0.5,0.8,1.2,1.4,1.9,1.8c0.7,0.5,1.6,0.6,2.5,0.6c1.9,0.1,3.6-0.7,4.9-2.2
			C-3853.7,1555.7-3852.9,1553.6-3852.6,1551z"/>
	</g>
</g>
<circle class="st13" cx="-3903.8" cy="1633.5" r="15.7"/>
<circle class="st14" cx="-3904.1" cy="1633.2" r="9.6"/>
<g>
	<path class="st16" d="M181,199.3c-28.2-31.1-65.5-48.2-105.1-48.2S-1,168.2-29.2,199.3s-43.7,72.3-43.7,116.1v234.7
		c0,4.1,3,7.4,6.7,7.4h284.1c3.7,0,6.7-3.4,6.7-7.4V315.3C224.7,271.7,209.2,230.3,181,199.3z"/>
	<polyline class="st17" points="154,466.6 -9.5,466.6 -14.5,466.6 	"/>
	<path class="st18" d="M-87.3,651.6h328.4c1.2-0.3,2.4-1.2,3.4-2.3c1.3-1.7,2-3.9,2-6.2l-0.1-25.9c-0.1-47.7-15.4-92.7-42.9-126.6
		c-27.4-33.8-63.6-52.4-102-52.4c-0.2,0-0.3,0-0.4,0l-47.3,0.2c-38.5,0.1-74.8,19-102.2,53.1s-42.3,79.2-42.3,127l0.1,25.9
		C-90.4,647.4-89.2,650.1-87.3,651.6z"/>
	<path class="st19" d="M246.4,617.3c-0.1-47.7-15.4-92.7-42.9-126.6c-27.4-33.8-63.6-52.4-102-52.4c-0.2,0-0.3,0-0.4,0L84,438.4
		c36.9,1.2,71.6,19.6,98.2,52.3c27.5,33.9,42.7,78.9,42.9,126.6l0.1,25.9c0,2.3-0.7,4.5-2,6.2c-0.9,1.1-2,2-3.4,2.3h21.4
		c1.2-0.3,2.4-1.2,3.4-2.3c1.3-1.7,2-3.9,2-6.2L246.4,617.3z"/>
	<g>
		<path id="XMLID_48_" class="st20" d="M247.1,617.4c-0.1-47.6-15.3-92.4-42.8-126.2c-8.3-10.2-17.5-19.1-27.2-26.4
			c0.4,1.9,0.4,3.6,0.4,5.5c0,32.9-49.6,59.5-110.8,59.5c-52,0-95.7-19.3-107.6-45.3c-2.2,2.4-4.3,4.9-6.5,7.6
			c-27.3,34-42.3,78.9-42.2,126.5l0.1,25.8c0.1,3,1.3,5.6,3.2,7.1h328c1.2-0.3,2.4-1.2,3.4-2.3c1.3-1.6,2-3.8,2-6.1V617.4z"/>
	</g>
	<path class="st10" d="M140.4,642.4c-24.8-6.5-50.8-26.6-71.2-55.8c-20.4-29.2-32.2-62.9-32.3-92.5c-0.1-15.1,1.4-30.3,4.4-44.9
		c0.5-2.6,0.1-5.6-1.2-7.8c-0.6-1-1.4-1.9-2.3-2.4c0.9-0.1,1.7-0.2,2.6-0.3c-34,3.8-65.7,22.9-90.3,54.6
		c-27.3,35.6-42.4,82.4-42.2,132.3l0.1,26h238C146.1,647.3,143.7,643.4,140.4,642.4z"/>
	<path class="st21" d="M40.2,441.6c1.3,2.2,1.8,5.2,1.2,7.8c-3,14.7-4.5,29.8-4.4,44.9c0.1,29.7,11.9,63.4,32.3,92.5
		c20.4,29,46.3,49.3,71.2,55.8c3.4,0.9,5.7,4.7,5.7,9h21.4c0-3.9-2-7.6-5-8.7c-0.2-0.1-0.4-0.1-0.6-0.2
		c-24.8-6.5-50.8-26.6-71.2-55.8c-20.4-29.2-32.2-62.9-32.3-92.5c0-15.2,1.5-30.4,4.4-44.9c0.5-2.7,0.1-5.6-1.2-7.8
		c-1.3-2.2-3.4-3.5-5.5-3.5h-3.3c-3.5,0-7,0.2-10.5,0.5c-0.2,0-0.3,0-0.4,0c-0.4,0-1,0.1-1.4,0.1c-0.9,0.1-1.7,0.2-2.6,0.3
		C38.8,439.8,39.6,440.6,40.2,441.6z"/>
	<line class="st17" x1="86" y1="611.9" x2="86" y2="611.8"/>
	<line class="st17" x1="85.2" y1="611.9" x2="85.2" y2="611.8"/>
	<path class="st22" d="M158.1,450.9c8.6,7.6,14.5,20,14.5,29.5c0,27.8-42,110.1-93.9,110.1s-93.9-82.3-93.9-110.1
		c0-9.5,7-22,15.6-29.5"/>
	<g>
		<path class="st23" d="M90.1,600.1c-0.2,0.1-0.4,0.1-0.6,0.1H70.2c-0.2,0-0.4-0.1-0.6-0.1c2.8-0.6,4.8-2,4.8-3.6
			c0-1.6-2-3.6-4.8-4.2c0.2-0.1,0.4-0.1,0.6-0.1h19.3c0.2,0,0.4,0.1,0.6,0.1c-2.8,0.6-4.8,2.6-4.8,4.2
			C85.3,598.1,87.3,599.4,90.1,600.1z"/>
		<path class="st24" d="M66.4,588.9c1.9,5.1,7.1,9,13.2,9c6.6,0,12.1-3.8,13.7-9.4"/>
		<path class="st25" d="M89.2,600.1c-0.1,0.1-0.3,0.1-0.5,0.1H71.1c-0.2,0-0.4-0.1-0.5-0.1c2.6-0.6,4.4-2,4.4-3.6
			c0-1.6-2.7-3.6-5.3-4.2c0.2-0.2,1.2-0.1,1.4-0.1h17.6c0.2,0,1.2-0.1,1.4,0.1c-2.6,0.6-5.3,2.6-5.3,4.2
			C84.8,598.1,86.6,599.4,89.2,600.1z"/>
		<path class="st23" d="M79.9,597.2c-13.9,0-25.2,11.3-25.2,25.2c0,13.9,11.3,25.2,25.2,25.2s25.2-11.3,25.2-25.2
			S93.9,597.2,79.9,597.2z M79.9,643.4c-11.6,0-21-9.4-21-21c0-11.6,9.4-21,21-21s21,9.4,21,21C100.9,633.9,91.5,643.4,79.9,643.4z"
			/>
		<circle class="st25" cx="79.8" cy="622.9" r="25.2"/>
		<circle class="st25" cx="79.8" cy="622.9" r="25.2"/>
		<circle class="st23" cx="79.8" cy="622.9" r="21"/>
		<circle class="st26" cx="79.8" cy="622.9" r="18.1"/>
		<g>
			<path class="st23" d="M73.3,600.8c0,0.6-0.5,1.2-1.2,1.2c-0.6,0-1.2-0.5-1.2-1.2v-0.1c0.1-0.6,0.6-1,1.2-1c0.6,0,1.1,0.4,1.2,1
				C73.3,600.7,73.3,600.7,73.3,600.8z"/>
			<path class="st23" d="M81.6,599.3c0,0.6-0.5,1.2-1.2,1.2c-0.6,0-1.2-0.5-1.2-1.2v-0.1c0.1-0.6,0.6-1,1.2-1s1.1,0.4,1.2,1V599.3z"
				/>
			<path class="st23" d="M89.4,600.6c0,0.6-0.5,1.2-1.2,1.2c-0.6,0-1.2-0.5-1.2-1.2v-0.1c0.1-0.6,0.6-1,1.2-1S89.3,599.9,89.4,600.6
				C89.4,600.4,89.4,600.4,89.4,600.6z"/>
			<path class="st27" d="M73.3,600.6c-0.1,0.6-0.6,1-1.2,1c-0.6,0-1.1-0.4-1.2-1c0.1-0.6,0.6-1,1.2-1S73.2,599.9,73.3,600.6z"/>
			<path class="st27" d="M81.6,599.2c-0.1,0.6-0.6,1-1.2,1s-1.1-0.4-1.2-1c0.1-0.6,0.6-1,1.2-1S81.5,598.6,81.6,599.2z"/>
			<path class="st27" d="M89.4,600.4c-0.1,0.6-0.6,1-1.2,1s-1.1-0.4-1.2-1c0.1-0.6,0.6-1,1.2-1S89.3,599.8,89.4,600.4z"/>
		</g>
		<circle class="st28" cx="79.8" cy="622.9" r="14.3"/>
	</g>
	<path class="st18" d="M-42.8,330.7c-0.1,0-0.1,0-0.2,0c-20.8,0.1-37.6,17-37.6,37.8c0,10,3.9,19.6,11.1,26.6
		c7.2,7.1,12.6,10.9,26.6,10.9h0.2c20.8-0.1,37.6-17,37.6-37.8C-5.3,347.6-22.1,330.7-42.8,330.7z"/>
	<path class="st18" d="M188.5,319.7c-0.1,0-0.1,0-0.2,0c-22.1,0.1-40,18.1-39.9,40.1c0,10.6,4.2,20.8,11.8,28.2
		c7.6,7.5,17.6,11.6,28.2,11.6h0.2c22.1-0.1,40-18.1,39.9-40.1C228.4,337.4,210.5,319.7,188.5,319.7z"/>
	<path class="st18" d="M186,286.4c-0.1-29.3-11.5-48.7-35-59.5c-21-9.7-49.6-10.8-77.4-10.8c-27.7,0.1-56.3,1.5-77.3,11.3
		c-23.3,10.7-34.6,30.3-34.5,59.7l0.3,94c0.2,61.4,50.4,111.1,112,111.1h0.3c61.9-0.2,112-50.4,111.8-111.9L186,286.4z"/>
	<path class="st29" d="M70.6,434.8c-9.3,0-18.2-3.4-25-9.8c-3-2.8-3.2-7.5-0.5-10.5c2.8-3,7.5-3.2,10.5-0.5c4.1,3.8,9.4,5.8,15,5.8
		h0.1c5.6,0,10.9-2.1,15-5.9c3-2.8,7.8-2.7,10.5,0.4c2.8,3,2.7,7.8-0.4,10.5C89,431.2,80.1,434.7,70.6,434.8
		C70.7,434.8,70.6,434.8,70.6,434.8z"/>
	<path class="st12" d="M40.7,365.5c0-6.5-5.4-11.9-12-11.9c-6.5,0-11.9,5.4-11.9,12c0,6.5,5.4,11.9,12,11.9
		C35.3,377.5,40.7,372.1,40.7,365.5z"/>
	<path class="st12" d="M124.7,365.3c0-6.5-5.4-11.9-12-11.9c-6.5,0-11.9,5.4-11.9,12c0,6.5,5.4,11.9,12,11.9
		C119.5,377.2,124.8,371.9,124.7,365.3z"/>
	<path class="st19" d="M186,286.4c-0.1-29.3-11.5-48.7-35-59.5c-21-9.7-49.6-10.8-77.4-10.8c-2.6,0-5.2,0-7.8,0.1
		c24,0.4,47.7,2.4,66,10.8c23.4,10.8,34.9,30.2,35,59.5l0.3,94c0.2,58.4-44.9,106.5-102.4,111.4c3.2,0.3,6.4,0.4,9.6,0.4h0.3
		c61.8-0.2,111.9-50.4,111.7-111.8L186,286.4z"/>
	<ellipse class="st29" cx="-1" cy="413.7" rx="2.6" ry="2.5"/>
	<ellipse class="st29" cx="14.3" cy="413.7" rx="2.6" ry="2.5"/>
	<ellipse class="st29" cx="6.2" cy="425.7" rx="2.6" ry="2.5"/>
	<ellipse class="st29" cx="123.8" cy="413.7" rx="2.6" ry="2.5"/>
	<ellipse class="st29" cx="139.1" cy="413.7" rx="2.6" ry="2.5"/>
	<ellipse class="st29" cx="131" cy="425.7" rx="2.6" ry="2.5"/>
	
		<ellipse transform="matrix(-0.3592 -0.9333 0.9333 -0.3592 -348.4294 365.36)" class="st30" cx="-48.8" cy="302.3" rx="39.8" ry="27.1"/>
	
		<ellipse transform="matrix(-0.3592 -0.9333 0.9333 -0.3592 -351.587 355.3929)" class="st16" cx="-53.8" cy="298.4" rx="39.8" ry="27.1"/>
	<ellipse class="st30" cx="-24.3" cy="262.1" rx="44.4" ry="36.4"/>
	
		<ellipse transform="matrix(-0.9333 -0.3592 0.3592 -0.9333 260.1942 652.8529)" class="st30" cx="190.7" cy="302.3" rx="27.1" ry="39.8"/>
	
		<ellipse transform="matrix(-0.9333 -0.3592 0.3592 -0.9333 267.8147 640.4293)" class="st16" cx="193.4" cy="295.3" rx="27.1" ry="39.8"/>
	<ellipse class="st30" cx="171.5" cy="256.1" rx="44.4" ry="36.4"/>
	<ellipse class="st16" cx="169.7" cy="239.2" rx="45.4" ry="45.4"/>
	<ellipse class="st30" cx="148.9" cy="231.6" rx="44.4" ry="36.4"/>
	<ellipse class="st16" cx="148.9" cy="224.6" rx="43.7" ry="31.6"/>
	<ellipse class="st16" cx="-28.5" cy="249.7" rx="42.6" ry="42.6"/>
	<ellipse class="st30" cx="3.1" cy="226.1" rx="44.4" ry="36.4"/>
	<ellipse class="st30" cx="71.6" cy="211.1" rx="68.5" ry="52.2"/>
	<ellipse class="st16" cx="77.5" cy="199.1" rx="71.4" ry="51.5"/>
	<ellipse class="st16" cx="3.1" cy="219.1" rx="43.7" ry="31.6"/>
	<path class="st30" d="M56.9,334.7c-2.4,1.3-6.5,1.4-9.1,0.2c-3.8-1.7-8.8-2.7-13.9-2.7h-0.1c-5.2,0-10.1,0.9-14,2.7
		c-2.7,1.2-6.7,1.1-9.1-0.2c-1.7-0.9-2.1-2.2-1.3-3.3c0.3-0.4,0.9-0.9,1.6-1.2c6.2-2.8,14.2-4.5,22.7-4.5c0,0.1,0.1,0.1,0.1,0.1
		c8.4,0,16.5,1.5,22.7,4.4c0.8,0.3,1.4,0.8,1.7,1.2C59,332.5,58.6,333.7,56.9,334.7z"/>
	<path class="st30" d="M137.4,334.7c-2.4,1.3-6.5,1.4-9.1,0.2c-3.8-1.7-8.8-2.7-13.9-2.7h-0.1c-5.2,0-10.1,0.9-14,2.7
		c-2.7,1.2-6.7,1.1-9.1-0.2c-1.7-0.9-2.1-2.2-1.3-3.3c0.3-0.4,0.9-0.9,1.6-1.2c6.2-2.8,14.2-4.5,22.7-4.5c0,0.1,0,0.1,0.1,0.1
		c8.4,0,16.5,1.5,22.7,4.4c0.8,0.3,1.4,0.8,1.7,1.2C139.5,332.5,139.1,333.7,137.4,334.7z"/>
	<path class="st16" d="M58.2,331.3c-0.3,0.3-0.7,0.7-1.3,1c-2.4,1.3-6.5,1.4-9.1,0.2c-3.8-1.7-8.8-2.7-13.9-2.7h-0.1
		c-5.2,0-10.1,0.9-14,2.7c-2.7,1.2-6.7,1.1-9.1-0.2c-0.6-0.3-1-0.7-1.3-1c0.3-0.4,0.9-0.9,1.6-1.2c6.2-2.8,14.2-4.5,22.7-4.5
		c0,0.1,0.1,0.1,0.1,0.1c8.4,0,16.5,1.5,22.7,4.4C57.2,330.5,57.8,330.9,58.2,331.3z"/>
	<path class="st16" d="M138.7,331.3c-0.3,0.3-0.7,0.7-1.3,1c-2.4,1.3-6.5,1.4-9.1,0.2c-3.8-1.7-8.8-2.7-13.9-2.7h-0.1
		c-5.2,0-10.1,0.9-14,2.7c-2.7,1.2-6.7,1.1-9.1-0.2c-0.6-0.3-1-0.7-1.3-1c0.3-0.4,0.9-0.9,1.6-1.2c6.2-2.8,14.2-4.5,22.7-4.5
		c0,0.1,0,0.1,0.1,0.1c8.4,0,16.5,1.5,22.7,4.4C137.7,330.5,138.3,330.9,138.7,331.3z"/>
</g>
</svg>
