<?xml version="1.0" encoding="utf-8"?>
<!-- Generator: Adobe Illustrator 19.0.0, SVG Export Plug-In . SVG Version: 6.00 Build 0)  -->
<svg version="1.1" id="Layer_1" xmlns="http://www.w3.org/2000/svg" xmlns:xlink="http://www.w3.org/1999/xlink" x="0px" y="0px"
	 viewBox="-114 142.3 383 508.7" style="enable-background:new -114 142.3 383 508.7;" xml:space="preserve">
<style type="text/css">
	.st0{fill:#C6A89C;}
	.st1{fill:#B38B7B;}
	.st2{fill:#8C6464;}
	.st3{fill:#FFF4F1;}
	.st4{fill:#891272;}
	.st5{fill:none;stroke:#4C2308;stroke-miterlimit:10;}
	.st6{fill:#AA6B07;}
	.st7{fill:none;stroke:#C98441;stroke-width:0.5;stroke-miterlimit:10;}
	.st8{fill:#E5AA17;}
	.st9{fill:#DB9D12;}
	.st10{fill:#FFB000;}
	.st11{fill:#EFAC06;}
	.st12{fill:#897F79;}
	.st13{fill:#868686;}
	.st14{fill:#3A1E0B;}
</style>
<title>teen</title>
<path class="st0" d="M-88.5,651.3h330.7c1.3-0.4,2.5-1.2,3.4-2.3c1.4-1.8,2.1-4,2-6.2l-0.1-26c-0.1-48.1-15.5-93.4-43.2-127.5
	s-64.1-52.8-102.7-52.8h-0.4l-47.6,0.2c-38.7,0.1-75.3,19.2-102.8,53.5S-91.8,570-91.8,618.1l0.1,26
	C-91.7,646.8-90.5,649.6-88.5,651.3z"/>
<path class="st1" d="M247.6,616.8c-0.1-48.1-15.5-93.4-43.2-127.5s-64.1-52.7-102.7-52.7h-0.4L84,436.7
	c37.2,1.2,72.1,19.7,98.9,52.6c27.7,34.1,43,79.4,43.2,127.5l0.1,26c0,2.2-0.7,4.4-2,6.2c-0.9,1.1-2,1.9-3.4,2.3h21.5
	c1.3-0.4,2.5-1.2,3.4-2.3c1.4-1.8,2.1-4,2.1-6.2L247.6,616.8z"/>
<path class="st2" d="M248.3,616.9c-0.1-47.9-15.4-93-43.1-127c-8-9.9-17.2-18.9-27.4-26.6c0.3,1.8,0.5,3.7,0.5,5.5
	c0,33.1-50,59.9-111.6,59.9c-52.4,0-96.3-19.4-108.4-45.6c-2.2,2.4-4.4,5-6.5,7.6c-27.5,34.3-42.6,79.5-42.5,127.4l0.1,25.9
	c0,2.7,1.2,5.3,3.2,7.2h330.3c1.3-0.4,2.5-1.2,3.4-2.3c1.4-1.8,2.1-4,2-6.2L248.3,616.9z"/>
<path class="st3" d="M140.9,642.2c-25-6.5-51.1-26.8-71.7-56.2s-32.4-63.4-32.5-93.2c-0.1-15.2,1.4-30.4,4.5-45.3
	c0.5-2.7,0.1-5.5-1.3-7.8c-0.6-1-1.4-1.8-2.3-2.4l2.6-0.3c-34.3,3.9-66.2,23.1-90.9,55c-27.5,35.8-42.7,83-42.5,133.2l0.1,26.1
	h239.7C146.6,646.9,144.1,643.1,140.9,642.2z"/>
<path class="st4" d="M39.9,439.8c1.4,2.4,1.8,5.2,1.3,7.8c-3,14.9-4.5,30.1-4.5,45.3c0.1,29.9,12,63.8,32.5,93.2
	s46.6,49.7,71.7,56.2c3.4,0.9,5.7,4.8,5.7,9h21.5c0-4-2-7.6-5-8.7c-0.2-0.1-0.4-0.1-0.6-0.2c-25-6.5-51.2-26.8-71.7-56.2
	S58.4,522.8,58.3,493c0-15.2,1.5-30.4,4.5-45.3c0.6-2.7,0.1-5.5-1.3-7.8c-1.1-2.1-3.2-3.4-5.5-3.5h-3.3c-3.6,0-7,0.2-10.5,0.5h-0.5
	c-0.4,0-1,0.1-1.4,0.1l-2.6,0.3C38.6,438.1,39.4,438.9,39.9,439.8z"/>
<path class="st5" d="M158.6,449.2c8.6,7.6,14.6,20.2,14.6,29.8c0,28-42.3,110.8-94.5,110.8S-15.8,507-15.8,479
	c0-9.6,7-22.1,15.7-29.8"/>
<path class="st6" d="M90.1,599.4c-0.2,0.1-0.4,0.1-0.6,0.1H70.1c-0.2,0-0.4,0-0.6-0.1c2.9-0.6,4.8-2,4.8-3.6s-2-3.6-4.8-4.3
	c0.2-0.1,0.4-0.2,0.6-0.1h19.4c0.2,0,0.4,0,0.6,0.1c-2.9,0.6-4.8,2.6-4.8,4.3S87.4,598.7,90.1,599.4z"/>
<path class="st7" d="M66.3,588.2c2.1,5.5,7.4,9.1,13.3,9.1c6.6,0,12.2-3.8,13.8-9.5"/>
<path class="st8" d="M89.3,599.4c-0.2,0.1-0.3,0.1-0.5,0.1H71.1c-0.2,0-0.4,0-0.5-0.1c2.6-0.6,4.4-2,4.4-3.6s-2.7-3.6-5.3-4.3
	c0.2-0.3,1.2-0.1,1.4-0.1h17.8c0.2,0,1.2-0.1,1.4,0.1c-2.6,0.6-5.3,2.6-5.3,4.3S86.6,598.7,89.3,599.4z"/>
<path class="st6" d="M79.9,596.6c-14,0-25.4,11.4-25.4,25.4s11.4,25.4,25.4,25.4s25.4-11.4,25.4-25.4l0,0
	C105.4,607.9,93.9,596.6,79.9,596.6z M79.9,643.1c-11.7,0-21.1-9.5-21.1-21.1c0-11.6,9.5-21.1,21.1-21.1S101,610.4,101,622
	C101,633.6,91.6,643.1,79.9,643.1L79.9,643.1z"/>
<ellipse class="st8" cx="79.8" cy="622.4" rx="25.4" ry="25.4"/>
<ellipse class="st8" cx="79.8" cy="622.4" rx="25.4" ry="25.4"/>
<circle class="st6" cx="79.9" cy="622.4" r="21.1"/>
<circle class="st9" cx="79.9" cy="622.4" r="18.2"/>
<path class="st6" d="M73.3,600.2c-0.1,0.6-0.6,1.1-1.3,1.1c-0.6-0.1-1-0.5-1.1-1.1v-0.1c0.1-0.6,0.6-1.1,1.3-1.1
	C72.8,599.1,73.2,599.5,73.3,600.2C73.3,600.1,73.3,600.1,73.3,600.2z"/>
<path class="st6" d="M81.6,598.7c0.1,0.6-0.4,1.2-1.1,1.3s-1.2-0.4-1.3-1.1c0-0.1,0-0.1,0-0.2v-0.1c0.1-0.6,0.6-1.1,1.3-1.1
	C81.1,597.6,81.5,598,81.6,598.7C81.6,598.6,81.6,598.7,81.6,598.7z"/>
<path class="st6" d="M89.4,599.9c-0.1,0.6-0.6,1.1-1.3,1.1c-0.6-0.1-1-0.5-1.1-1.1v-0.1c0.1-0.6,0.7-1.1,1.3-1c0.5,0.1,0.9,0.5,1,1
	C89.4,599.8,89.4,599.8,89.4,599.9z"/>
<path class="st10" d="M73.3,599.9c0.1,0.6-0.3,1.2-1,1.3c-0.6,0.1-1.2-0.3-1.3-1c-0.1-0.7,0.3-1.2,1-1.3c0.1,0,0.1,0,0.2,0
	C72.6,598.9,73.1,599.4,73.3,599.9z"/>
<path class="st10" d="M81.6,598.6c-0.1,0.6-0.6,1.1-1.3,1.1c-0.6-0.1-1-0.5-1.1-1.1c0.1-0.6,0.6-1.1,1.3-1.1
	C81.1,597.6,81.6,597.9,81.6,598.6z"/>
<path class="st10" d="M89.4,599.7c0.1,0.6-0.3,1.2-1,1.3c-0.6,0.1-1.2-0.3-1.3-1c-0.1-0.6,0.3-1.2,1-1.3c0.1,0,0.1,0,0.2,0
	C88.9,598.7,89.4,599.2,89.4,599.7z"/>
<circle class="st11" cx="79.9" cy="622.4" r="14.4"/>
<path class="st0" d="M-36.3,314.9L-36.3,314.9c-21.1,0.1-38.1,17.1-38,38.1c0,10.1,4,19.7,11.2,26.7c7.2,7.1,12.7,11,26.7,11h0.2
	c20.9-0.4,37.6-17.6,37.2-38.6C0.7,331.7-15.8,315.2-36.3,314.9L-36.3,314.9z"/>
<path class="st0" d="M196.5,303.8h-0.2c-22.2,0.1-40.2,18.2-40.1,40.4c0,10.7,4.2,20.9,11.9,28.4c7.5,7.5,17.7,11.7,28.4,11.7h0.2
	c22.2-0.4,39.9-18.7,39.6-40.9C235.9,321.6,218.4,304.1,196.5,303.8L196.5,303.8z"/>
<path class="st0" d="M194,272.7c-0.1-30.5-11.5-50.7-35.2-61.9c-21.1-10.1-50-11.3-77.9-11.3S24.2,201,3,211.2
	c-23.4,11.3-34.7,31.7-34.6,62.1l0.3,97.8c0.2,63.9,50.7,115.6,112.8,115.6h0.3c62.3-0.2,112.8-52.4,112.6-116.4L194,272.7z"/>
<path class="st12" d="M77.9,436.6c-9.4,0-18.4-3.5-25.2-9.8c-3-2.9-3.1-7.6-0.2-10.6c2.8-2.9,7.3-3.1,10.3-0.5
	c4.1,3.8,9.5,5.9,15.1,5.8H78c5.6,0,11-2.1,15.1-5.9c3-2.8,7.8-2.6,10.6,0.4s2.6,7.8-0.4,10.6C96.4,432.9,87.4,436.4,77.9,436.6
	L77.9,436.6z"/>
<path class="st13" d="M47.6,366.9c0-6.6-5.4-12-12-12s-12,5.4-12,12s5.4,12,12,12c0,0,0,0,0.1,0C42.4,378.8,47.6,373.5,47.6,366.9z"
	/>
<path class="st14" d="M49.8,347.9c-0.6,0-1.3-0.1-1.9-0.3l-28.3-7.5c-4-1.2-6.3-5.3-5.1-9.3c1.1-3.8,5-6.1,8.9-5.2l28.3,7.5
	c4,1.1,6.4,5.2,5.4,9.2C56.1,345.5,53.1,347.8,49.8,347.9L49.8,347.9z"/>
<path class="st13" d="M132.4,366.6c0-6.6-5.4-12-12-12s-12,5.4-12,12c0,6.6,5.4,12,12,12c0,0,0,0,0.1,0c6.5,0.1,11.9-5.2,11.9-11.8
	C132.4,366.7,132.4,366.7,132.4,366.6z"/>
<path class="st14" d="M106.1,347.7c-4.2,0-7.5-3.4-7.5-7.5c0-3.4,2.3-6.4,5.5-7.3l28.3-7.6c4-1.1,8.2,1.3,9.3,5.3s-1.3,8.2-5.3,9.3
	l0,0l-28.3,7.6C107.4,347.6,106.8,347.7,106.1,347.7z"/>
<path class="st1" d="M194,272.7c-0.1-30.5-11.5-50.7-35.2-61.9c-21.1-10.1-50-11.3-77.9-11.3c-2.6,0-5.2,0-7.9,0.1
	c24.2,0.5,48,2.5,66.5,11.3c23.6,11.2,35.1,31.4,35.2,61.9l0.3,97.8c0.2,60.7-45.2,110.8-103.2,116c3.2,0.3,6.4,0.5,9.7,0.5h0.3
	c62.2-0.2,112.7-52.4,112.5-116.3L194,272.7z"/>
<ellipse class="st12" cx="5.7" cy="398.4" rx="2.6" ry="2.5"/>
<ellipse class="st12" cx="21.1" cy="398.4" rx="2.6" ry="2.5"/>
<ellipse class="st12" cx="12.9" cy="410.6" rx="2.6" ry="2.5"/>
<ellipse class="st12" cx="131.4" cy="398.4" rx="2.6" ry="2.5"/>
<ellipse class="st12" cx="146.9" cy="398.4" rx="2.6" ry="2.5"/>
<ellipse class="st12" cx="138.6" cy="410.6" rx="2.6" ry="2.5"/>
<circle class="st14" cx="-31.7" cy="260.9" r="27.5"/>
<circle class="st14" cx="-21.7" cy="230.3" r="37.4"/>
<circle class="st14" cx="-31.7" cy="298.6" r="22"/>
<circle class="st14" cx="12.9" cy="199.2" r="37.4"/>
<circle class="st14" cx="60.6" cy="200.7" r="46.7"/>
<circle class="st14" cx="125.8" cy="200.7" r="45.8"/>
<circle class="st14" cx="168.1" cy="235.1" r="28.9"/>
<circle class="st14" cx="194.3" cy="251" r="28.9"/>
<circle class="st14" cx="183" cy="207.5" r="28.9"/>
<circle class="st14" cx="196.5" cy="291.6" r="20.4"/>
</svg>
