<?xml version="1.0" encoding="utf-8"?>
<!-- Generator: Adobe Illustrator 23.1.0, SVG Export Plug-In . SVG Version: 6.00 Build 0)  -->
<svg version="1.1" id="Layer_1" xmlns="http://www.w3.org/2000/svg" xmlns:xlink="http://www.w3.org/1999/xlink" x="0px" y="0px"
	 viewBox="0 0 383 508.7" style="enable-background:new 0 0 383 508.7;" xml:space="preserve">
<style type="text/css">
	.st0{fill:#232323;}
	.st1{fill:#F0BCA6;}
	.st2{fill:#E6B09A;}
	.st3{fill:#6896AA;}
	.st4{fill:#FFF4F1;}
	.st5{fill:#891272;}
	.st6{fill:none;stroke:#4C2308;stroke-miterlimit:10;}
	.st7{fill:#AA6B07;}
	.st8{fill:none;stroke:#C98441;stroke-width:0.5;stroke-miterlimit:10;}
	.st9{fill:#E5AA17;}
	.st10{fill:#DB9D12;}
	.st11{fill:#FFB000;}
	.st12{fill:#EFAC06;}
	.st13{fill:#E2A58A;}
	.st14{fill:#868686;}
	.st15{fill:#E5A589;}
</style>
<title>teen</title>
<circle class="st0" cx="195.1" cy="139.4" r="124.7"/>
<path class="st1" d="M35.5,508.7h310.7c1.3-0.4,2.4-1.2,3.2-2.2c1.3-1.7,2-3.7,1.9-5.8l-0.1-24.5c-0.1-45.2-14.5-87.7-40.6-119.8
	c-26.1-32.1-60.2-49.5-96.5-49.5h-0.4l-44.8,0.2c-36.4,0.1-70.8,18-96.7,50.3s-40.1,74.9-40,120.1l0.1,24.5
	C32.5,504.6,33.6,507,35.5,508.7z"/>
<path class="st2" d="M351.3,476.2c-0.1-45.2-14.5-87.7-40.6-119.8c-26.1-32.1-60.2-49.5-96.5-49.5h-0.4l-16.2,0.1
	c34.9,1.1,67.8,18.5,92.9,49.4c26,32.1,40.4,74.6,40.6,119.8l0.1,24.5c0,2.1-0.6,4.2-1.9,5.8c-0.8,1.1-1.9,1.8-3.2,2.2h20.2
	c1.3-0.4,2.4-1.2,3.2-2.2c1.3-1.7,2-3.7,1.9-5.8L351.3,476.2z"/>
<path class="st3" d="M352,476.4c-0.1-45-14.5-87.4-40.5-119.4c-7.6-9.3-16.2-17.7-25.8-25c0.3,1.7,0.4,3.4,0.4,5.2
	c0,31.1-47,56.3-104.8,56.3c-49.2,0-90.5-18.3-101.8-42.8c-2.1,2.3-4.1,4.7-6.1,7.1c-25.8,32.2-40,74.7-39.9,119.7l0.1,24.4
	c0,2.6,1.1,5,3,6.7H347c1.2-0.4,2.3-1.2,3.2-2.2c1.3-1.7,2-3.7,1.9-5.8L352,476.4L352,476.4z"/>
<path class="st4" d="M250.9,500.1c-23.5-6.1-48.1-25.2-67.4-52.8s-30.4-59.5-30.5-87.5c-0.1-14.3,1.3-28.5,4.2-42.5
	c0.5-2.5,0.1-5.1-1.2-7.4c-0.5-0.9-1.3-1.7-2.2-2.3l2.4-0.3C124.1,311,94.2,329,70.9,359C45,392.7,30.7,437,30.9,484.2l0.1,24.6
	h225.2C256.5,504.6,254.1,500.9,250.9,500.1z"/>
<path class="st5" d="M156.3,310c1.3,2.2,1.7,4.9,1.2,7.4c-2.9,14-4.3,28.2-4.2,42.5c0.1,28.1,11.2,59.9,30.5,87.5
	s43.8,46.7,67.4,52.8c3.2,0.8,5.4,4.5,5.4,8.5h20.1c0-3.7-1.9-7.2-4.7-8.2c-0.2-0.1-0.4-0.1-0.6-0.2c-23.5-6.1-48.1-25.2-67.4-52.8
	S173.6,388,173.4,360c0-14.3,1.4-28.5,4.2-42.5c0.5-2.5,0.1-5.1-1.2-7.4c-1-1.9-3-3.2-5.2-3.3h-3.1c-3.4,0-6.6,0.2-9.9,0.5h-0.4
	c-0.4,0-0.9,0.1-1.4,0.1l-2.4,0.3C154.9,308.3,155.6,309.1,156.3,310z"/>
<path class="st6" d="M267.8,318.8c8.1,7.2,13.7,19,13.7,28c0,26.3-39.8,104.1-88.8,104.1s-88.8-77.9-88.8-104.1
	c0-9,6.6-20.8,14.7-28"/>
<path class="st7" d="M203.4,459.9c-0.2,0.1-0.3,0.1-0.5,0.1h-18.3c-0.2,0-0.4,0-0.5-0.1c2.7-0.6,4.5-1.9,4.5-3.4s-1.9-3.4-4.5-4
	c0.2-0.1,0.3-0.1,0.5-0.1h18.2c0.2,0,0.4,0,0.5,0.1c-2.7,0.6-4.6,2.5-4.6,4S200.8,459.3,203.4,459.9z"/>
<path class="st8" d="M180.9,449.4c2,5.2,7,8.5,12.5,8.5c6.2,0,11.4-3.6,12.9-8.9"/>
<path class="st9" d="M202.6,459.9c-0.1,0.1-0.3,0.1-0.5,0.1h-16.6c-0.2,0-0.3,0-0.5-0.1c2.5-0.6,4.1-1.9,4.1-3.4s-2.5-3.4-5-4
	c0.2-0.2,1.1-0.1,1.3-0.1h16.6c0.2,0,1.1-0.1,1.3,0.1c-2.5,0.6-5,2.5-5,4S200.1,459.3,202.6,459.9z"/>
<path class="st7" d="M193.8,457.2c-13.2,0-23.8,10.7-23.8,23.9c0,13.2,10.7,23.8,23.9,23.8s23.8-10.7,23.8-23.9
	C217.6,467.9,206.9,457.2,193.8,457.2L193.8,457.2z M193.8,500.9c-11,0-19.8-8.9-19.8-19.9s8.9-19.8,19.9-19.8s19.8,8.9,19.8,19.8
	C213.6,492,204.8,500.9,193.8,500.9C193.8,500.9,193.8,500.9,193.8,500.9L193.8,500.9z"/>
<ellipse transform="matrix(0.1602 -0.9871 0.9871 0.1602 -312.7223 595.6024)" class="st9" cx="193.7" cy="481.6" rx="23.9" ry="23.8"/>
<ellipse transform="matrix(0.1602 -0.9871 0.9871 0.1602 -312.7223 595.6024)" class="st9" cx="193.7" cy="481.6" rx="23.9" ry="23.8"/>
<ellipse transform="matrix(0.1602 -0.9871 0.9871 0.1602 -312.7223 595.6024)" class="st7" cx="193.7" cy="481.6" rx="19.9" ry="19.8"/>
<circle class="st10" cx="193.6" cy="481.5" r="17.1"/>
<path class="st7" d="M187.6,460.6c-0.1,0.6-0.6,1.1-1.2,1c-0.5-0.1-0.9-0.5-1-1v-0.1c0.1-0.6,0.6-1,1.2-1c0.5,0.1,0.9,0.5,1,1
	C187.4,460.5,187.4,460.5,187.6,460.6z"/>
<path class="st7" d="M195.3,459.2c0.1,0.6-0.4,1.2-1,1.2s-1.2-0.4-1.2-1c0-0.1,0-0.1,0-0.2v-0.1c0.1-0.6,0.6-1,1.2-0.9
	c0.5,0.1,0.9,0.5,0.9,0.9C195.3,459.1,195.3,459.2,195.3,459.2z"/>
<path class="st7" d="M202.8,460.4c0,0.6-0.5,1.1-1.1,1.1s-1.1-0.5-1.1-1.1v-0.1c0.1-0.6,0.6-1,1.2-0.9c0.5,0.1,0.9,0.5,0.9,0.9
	C202.8,460.3,202.8,460.3,202.8,460.4z"/>
<path class="st11" d="M187.4,460.4c0.1,0.6-0.4,1.1-1,1.2s-1.1-0.4-1.2-1c-0.1-0.6,0.4-1.1,1-1.2h0.1
	C186.9,459.4,187.4,459.9,187.4,460.4z"/>
<path class="st11" d="M195.3,459.1c0.1,0.6-0.4,1.1-1,1.2s-1.1-0.4-1.2-1c-0.1-0.6,0.4-1.1,1-1.2h0.1
	C194.8,458.1,195.3,458.5,195.3,459.1z"/>
<path class="st11" d="M202.8,460.3c0.1,0.6-0.4,1.1-1,1.2s-1.1-0.4-1.2-1c-0.1-0.6,0.4-1.1,1-1.2h0.1
	C202.1,459.3,202.6,459.7,202.8,460.3z"/>
<circle class="st12" cx="193.6" cy="481.5" r="13.5"/>
<path class="st1" d="M84.5,192.6L84.5,192.6c-19.8,0.1-35.7,16.1-35.6,35.8c0,9.4,3.7,18.5,10.5,25.1c6.8,6.7,11.9,10.3,25.1,10.3
	h0.1c19.7,0,35.6-16,35.6-35.6S104.1,192.6,84.5,192.6L84.5,192.6L84.5,192.6z"/>
<path class="st1" d="M303.3,182.1L303.3,182.1c-21,0.1-37.9,17.1-37.8,37.9c0,10,4,19.6,11.1,26.7c7.1,7.1,16.7,11,26.7,11h0.1
	c20.9,0,37.8-17,37.8-37.8S324.3,182.1,303.3,182.1L303.3,182.1z"/>
<path class="st1" d="M301,152.9c-0.1-28.7-10.9-47.7-33.1-58.2c-19.9-9.5-47-10.6-73.2-10.6s-53.3,1.4-73.1,11
	c-22.1,10.6-32.7,29.8-32.6,58.3l0.3,91.9c0.2,60,47.7,108.6,105.9,108.6h0.3c58.5-0.2,105.9-49.3,105.8-109.4L301,152.9z"/>
<path class="st13" d="M191.8,306.9c-8.8,0-17.3-3.3-23.7-9.3c-2.9-2.6-3.1-7.1-0.5-10s7.1-3.1,10-0.5l0,0c3.9,3.6,8.9,5.5,14.2,5.5
	h0.1c5.3,0,10.3-2,14.2-5.6c2.8-2.7,7.3-2.5,10,0.4c2.7,2.8,2.5,7.3-0.4,10C209.3,303.5,200.8,306.8,191.8,306.9
	C191.9,306.9,191.8,306.9,191.8,306.9z"/>
<path class="st14" d="M163.4,241.4c0-6.2-5.1-11.3-11.3-11.2c-6.2,0-11.3,5.1-11.2,11.3c0.1,6.2,5.1,11.3,11.3,11.2l0,0
	C158.4,252.6,163.4,247.6,163.4,241.4z"/>
<path class="st0" d="M165.4,223.5c-0.6,0-1.2-0.1-1.8-0.3l-26.6-7c-3.8-0.9-6.1-4.7-5.2-8.5c0.9-3.8,4.7-6.1,8.5-5.2
	c0.1,0,0.2,0,0.3,0.1l26.6,7c3.8,1,6,4.9,5.1,8.6C171.4,221.4,168.6,223.5,165.4,223.5L165.4,223.5z"/>
<path class="st14" d="M243.1,241.1c0-6.2-5.1-11.3-11.3-11.2c-6.2,0-11.3,5.1-11.2,11.3s5.1,11.3,11.3,11.2l0,0
	c6.2,0,11.2-4.9,11.2-11.1C243.1,241.3,243.1,241.2,243.1,241.1z"/>
<path class="st0" d="M218.4,223.3c-3.9,0-7.1-3.2-7.1-7.1c0-3.2,2.1-6,5.2-6.8l26.6-7.2c3.8-1,7.7,1.2,8.7,4.9
	c1,3.8-1.2,7.7-4.9,8.7l-26.6,7.2C219.6,223.2,219.1,223.3,218.4,223.3z"/>
<path class="st2" d="M301,152.9c-0.1-28.7-10.9-47.7-33.1-58.2c-19.9-9.5-47-10.6-73.2-10.6c-2.5,0-4.9,0-7.4,0.1
	c22.7,0.4,45.1,2.4,62.5,10.6c22.1,10.5,33,29.5,33.1,58.2l0.3,91.9c0.2,57-42.5,104.1-96.9,108.9c3,0.3,6,0.4,9.1,0.4h0.3
	C254.2,354,301.5,305,301.3,245L301,152.9z"/>
<ellipse class="st15" cx="124" cy="271.1" rx="2.4" ry="2.4"/>
<ellipse class="st15" cx="138.5" cy="271.1" rx="2.4" ry="2.4"/>
<ellipse class="st15" cx="130.9" cy="282.5" rx="2.4" ry="2.4"/>
<ellipse class="st15" cx="242.1" cy="271.1" rx="2.4" ry="2.4"/>
<ellipse class="st15" cx="256.6" cy="271.1" rx="2.4" ry="2.4"/>
<ellipse class="st15" cx="248.9" cy="282.5" rx="2.4" ry="2.4"/>
<path class="st0" d="M197.6,150.3c0.8,1.2,0.4,2.8-0.8,3.6l0,0l0,0c-9.7,5.8-24.7-1.2-33.3-15.6l-8.5-14.2c-0.8-1.2-0.4-2.8,0.9-3.6
	l0,0l15.4-9.2c1.2-0.8,2.8-0.4,3.6,0.8l0,0c1.6,7.2,4.4,14.1,8.1,20.4C186.8,139.3,191.6,145.3,197.6,150.3z"/>
<path class="st0" d="M73.1,154.5c-0.8,1.6,0.5,3.4,2.8,3.8l0,0c18,4.1,39.8-7.7,48.7-26.1l8.6-18.2c0.8-1.6-0.5-3.3-2.8-3.8
	l-28.5-6.4c-2.3-0.6-4.9,0.3-5.6,1.9c0,8.7-2,17.3-5.8,25.1C85.8,141.5,78.5,149.4,73.1,154.5z"/>
<path class="st0" d="M268.5,150.9c1.6,2.2,1.2,5.2-1,6.8c-0.1,0.1-0.2,0.1-0.3,0.2l0,0c-18.9,12.7-50.6,1.3-70.4-25.3l-19.6-26.1
	c-1.6-2.2-1.2-5.2,1-6.8c0.1-0.1,0.2-0.1,0.2-0.2l29.9-20.1c2.4-1.6,5.7-1.1,7.5,1.2c4.5,13.7,11.2,26.6,19.8,38.3
	C244.8,131.2,255.9,142,268.5,150.9z"/>
<path class="st0" d="M105.8,189.6c0.5,0.7,0.3,1.6-0.3,2.1l0,0c-5.3,5.2-14.4,4.5-20.3-1.5l-5.8-5.9c-0.5-0.7-0.3-1.6,0.3-2.1
	L88,174c0.5-0.7,1.5-0.8,2.1-0.3C93,180.9,98.6,186.7,105.8,189.6L105.8,189.6z"/>
<path class="st0" d="M114,173.8c0.6,0.8,0.5,2-0.4,2.7l0,0c-6.4,6.7-17.9,6.2-25.5-1.1l-7.4-7.2c-0.6-0.9-0.5-2,0.4-2.7l10.3-10.6
	c0.8-0.9,2.1-1.1,2.6-0.4c1.8,4.3,4.4,8.2,7.7,11.5C105.3,169.4,109.4,172.1,114,173.8z"/>
<path class="st0" d="M303.2,123c-2.7-7.5-3.6-15.5-2.7-23.4c-0.5-1.5-2.8-2.1-5-1.6l-26.9,7.7c-2.2,0.7-3.5,2.3-3,3.8l6.2,16.7
	c6.3,16.9,25.2,26.9,42.2,22l0,0c2.2-0.7,3.5-2.3,3-3.8C310.8,138.4,306.2,131.1,303.2,123z"/>
<path class="st0" d="M279.3,186.7c-0.9,0.7-0.9,2.2,0.1,3.4l0,0c7.2,9.1,21.6,9.9,31.9,1.8l10.1-8c0.9-0.7,0.9-2.2-0.1-3.4
	L309.9,166c-1-1.2-2.4-1.5-3.3-0.9C301,175.9,291,183.7,279.3,186.7L279.3,186.7z"/>
<ellipse class="st0" cx="191.9" cy="40.4" rx="70.3" ry="28.5"/>
<ellipse class="st0" cx="130.3" cy="50.6" rx="24.2" ry="19.6"/>
<ellipse class="st0" cx="186.3" cy="99.4" rx="97.3" ry="34"/>
</svg>
