<?xml version="1.0" encoding="utf-8"?>
<!-- Generator: Adobe Illustrator 19.0.0, SVG Export Plug-In . SVG Version: 6.00 Build 0)  -->
<svg version="1.1" id="Layer_1" xmlns="http://www.w3.org/2000/svg" xmlns:xlink="http://www.w3.org/1999/xlink" x="0px" y="0px"
	 viewBox="-114 142.3 383 508.7" style="enable-background:new -114 142.3 383 508.7;" xml:space="preserve">
<style type="text/css">
	.st0{fill:#C2B4B4;}
	.st1{fill:#B2A1A1;}
	.st2{fill:#E0D192;}
	.st3{fill:#FFF4F1;}
	.st4{fill:#891272;}
	.st5{fill:none;stroke:#4C2308;stroke-miterlimit:10;}
	.st6{fill:#AA6B07;}
	.st7{fill:none;stroke:#C98441;stroke-width:0.5;stroke-miterlimit:10;}
	.st8{fill:#E5AA17;}
	.st9{fill:#DB9D12;}
	.st10{fill:#FFB000;}
	.st11{fill:#EFAC06;}
	.st12{fill:#6B260B;}
	.st13{fill:#868686;}
	.st14{fill:#9B3710;}
	.st15{fill:#842610;}
</style>
<title>teen</title>
<path class="st0" d="M-71.6,651h310.9c1.3-0.4,2.4-1.2,3.2-2.2c1.3-1.7,2-3.7,1.9-5.8l-0.1-24.5c-0.1-45.2-14.5-87.8-40.6-119.9
	S143.4,449,107.1,449h-0.4l-44.8,0.2c-36.5,0.1-70.8,18-96.7,50.3s-40.1,75-40,120.2l0.1,24.5C-74.6,646.8-73.5,649.3-71.6,651z"/>
<path class="st1" d="M244.4,618.5c-0.1-45.2-14.5-87.8-40.6-119.9S143.5,449,107.2,449h-0.4l-16.2,0.1c35,1.1,67.8,18.5,92.9,49.5
	c26,32.1,40.4,74.7,40.6,119.9l0.1,24.5c0,2.1-0.6,4.2-1.9,5.8c-0.8,1.1-1.9,1.8-3.2,2.2h20.3c1.3-0.4,2.4-1.2,3.2-2.2
	c1.3-1.7,2-3.7,1.9-5.8L244.4,618.5z"/>
<path class="st2" d="M245,618.6c-0.1-45-14.5-87.5-40.5-119.4c-7.6-9.3-16.2-17.7-25.8-25c0.3,1.7,0.4,3.5,0.4,5.2
	c0,31.1-47,56.3-104.9,56.3c-49.3,0-90.6-18.3-101.9-42.9c-2.1,2.3-4.1,4.7-6.1,7.2c-25.8,32.2-40,74.7-40,119.7l0.1,24.4
	c0,2.6,1.1,5,3,6.7h310.6c1.3-0.4,2.4-1.2,3.2-2.2c1.3-1.7,2-3.7,1.9-5.8L245,618.6L245,618.6z"/>
<path class="st3" d="M144,642.4c-23.5-6.1-48.1-25.2-67.4-52.8S46.1,530,46,502c-0.1-14.3,1.3-28.6,4.2-42.5
	c0.5-2.5,0.1-5.1-1.2-7.4c-0.5-0.9-1.3-1.7-2.2-2.3l2.4-0.3C17,453.1-13,471.2-36.2,501.2c-25.8,33.7-40.1,78-40,125.2l0.1,24.6
	h225.4C149.4,646.8,147.2,643.2,144,642.4z"/>
<path class="st4" d="M49.2,452.2c1.3,2.2,1.7,4.9,1.2,7.4c-2.9,14-4.3,28.3-4.2,42.5c0.1,28.1,11.3,60,30.6,87.6
	s43.8,46.7,67.4,52.8c3.2,0.8,5.4,4.5,5.4,8.5h20.2c0-3.7-1.9-7.2-4.7-8.2c-0.2-0.1-0.4-0.1-0.6-0.2c-23.5-6.1-48.1-25.2-67.4-52.8
	s-30.5-59.6-30.6-87.6c0-14.3,1.4-28.5,4.2-42.5c0.5-2.5,0.1-5.1-1.2-7.4c-1-1.9-3-3.2-5.2-3.3h-3.1c-3.4,0-6.6,0.2-9.9,0.5h-0.4
	c-0.4,0-0.9,0.1-1.3,0.1l-2.4,0.3C47.9,450.5,48.6,451.3,49.2,452.2z"/>
<path class="st5" d="M160.8,460.9c8.1,7.2,13.7,19,13.7,28c0,26.3-39.8,104.2-88.9,104.2S-3.2,515.2-3.2,488.9c0-9,6.6-20.8,14.7-28
	"/>
<path class="st6" d="M96.4,602.2c-0.2,0.1-0.3,0.1-0.5,0.1H77.7c-0.2,0-0.4,0-0.5-0.1c2.7-0.6,4.6-1.9,4.6-3.4s-1.9-3.4-4.6-4
	c0.2-0.1,0.3-0.1,0.5-0.1h18.2c0.2,0,0.4,0,0.5,0.1c-2.7,0.6-4.6,2.5-4.6,4S93.7,601.6,96.4,602.2z"/>
<path class="st7" d="M73.9,591.6c2,5.2,7,8.6,12.5,8.5c6.2,0,11.4-3.6,12.9-8.9"/>
<path class="st8" d="M95.6,602.2c-0.1,0.1-0.3,0.1-0.5,0.1H78.5c-0.2,0-0.3,0-0.5-0.1c2.5-0.6,4.1-1.9,4.1-3.4s-2.5-3.4-5-4
	c0.2-0.2,1.1-0.1,1.3-0.1H95c0.2,0,1.1-0.1,1.3,0.1c-2.5,0.6-5,2.5-5,4S93.1,601.6,95.6,602.2z"/>
<path class="st6" d="M86.8,599.4c-13.2,0-23.9,10.7-23.9,23.9s10.7,23.9,23.9,23.9s23.9-10.7,23.9-23.9l0,0
	C110.6,610.1,99.9,599.4,86.8,599.4L86.8,599.4z M86.8,643.2c-11,0-19.9-8.9-19.8-19.9c0-11,8.9-19.9,19.9-19.9s19.8,8.9,19.8,19.9
	C106.6,634.3,97.7,643.2,86.8,643.2L86.8,643.2L86.8,643.2z"/>
<ellipse class="st8" cx="86.7" cy="623.8" rx="23.9" ry="23.9"/>
<ellipse class="st8" cx="86.7" cy="623.8" rx="23.9" ry="23.9"/>
<ellipse class="st6" cx="86.7" cy="623.8" rx="19.9" ry="19.9"/>
<ellipse class="st9" cx="86.7" cy="623.7" rx="17.1" ry="17.1"/>
<path class="st6" d="M80.5,602.8c-0.1,0.6-0.6,1.1-1.2,1c-0.5-0.1-0.9-0.5-1-1v-0.1c0.1-0.6,0.6-1,1.2-1
	C80,601.8,80.4,602.2,80.5,602.8L80.5,602.8z"/>
<path class="st6" d="M88.3,601.5c0.1,0.6-0.4,1.2-1,1.2s-1.2-0.4-1.2-1c0-0.1,0-0.1,0-0.2v-0.1c0.1-0.6,0.6-1,1.2-1
	C87.8,600.5,88.2,600.9,88.3,601.5C88.3,601.4,88.3,601.4,88.3,601.5z"/>
<path class="st6" d="M95.7,602.6c0.1,0.6-0.4,1.2-1,1.2c-0.6,0.1-1.2-0.4-1.2-1c0-0.1,0-0.1,0-0.2v-0.1c0.1-0.6,0.6-1,1.2-1
	C95.2,601.6,95.6,602,95.7,602.6L95.7,602.6z"/>
<path class="st10" d="M80.5,602.7c0.1,0.6-0.4,1.1-1,1.2s-1.1-0.4-1.2-1s0.4-1.1,1-1.2h0.1C79.9,601.7,80.4,602.1,80.5,602.7z"/>
<path class="st10" d="M88.3,601.3c0.1,0.6-0.4,1.1-1,1.2c-0.6,0.1-1.1-0.4-1.2-1s0.4-1.1,1-1.2h0.1
	C87.8,600.3,88.3,600.8,88.3,601.3z"/>
<path class="st10" d="M95.7,602.5c0.1,0.6-0.4,1.1-1,1.2s-1.1-0.4-1.2-1s0.4-1.1,1-1.2h0.1C95.2,601.5,95.6,601.9,95.7,602.5z"/>
<ellipse class="st11" cx="86.7" cy="623.7" rx="13.6" ry="13.6"/>
<ellipse class="st12" cx="171.2" cy="402" rx="30.5" ry="33.2"/>
<ellipse class="st12" cx="-7.1" cy="389.5" rx="31.3" ry="33"/>
<path class="st0" d="M-22.6,334.6L-22.6,334.6c-19.8,0.1-35.7,16.1-35.7,35.8c0,9.5,3.7,18.5,10.5,25.1c6.8,6.7,12,10.3,25.1,10.3
	h0.1c19.7,0,35.6-16,35.6-35.7C13,350.4-2.9,334.6-22.6,334.6L-22.6,334.6z"/>
<path class="st0" d="M196.4,324.2h-0.1c-20.9,0.1-37.8,17.1-37.8,38c0,10,4,19.7,11.1,26.7c7.1,7.1,16.7,11,26.7,11h0.1
	c20.9,0,37.8-17,37.8-37.9S217.3,324.2,196.4,324.2L196.4,324.2z"/>
<path class="st0" d="M194,295c-0.1-28.7-10.9-47.7-33.1-58.2c-19.9-9.5-47-10.6-73.3-10.6s-53.3,1.4-73.2,11
	c-22.1,10.6-32.8,29.8-32.7,58.4l0.3,91.9c0.2,60.1,47.7,108.7,106,108.7h0.3c58.6-0.2,106-49.3,105.8-109.4L194,295z"/>
<path class="st12" d="M84.8,449c-8.8,0-17.3-3.3-23.7-9.3c-3-2.5-3.3-7-0.7-10c2.5-3,7-3.3,10-0.7c0.1,0.1,0.2,0.2,0.3,0.3
	c3.9,3.6,8.9,5.6,14.2,5.5H85c5.3,0,10.3-2,14.2-5.6c2.9-2.7,7.3-2.5,10,0.4s2.5,7.3-0.4,10C102.2,445.7,93.7,449,84.8,449
	C84.9,449,84.8,449,84.8,449z"/>
<path class="st13" d="M56.4,383.5c0-6.2-5.1-11.2-11.3-11.2s-11.2,5.1-11.2,11.3s5.1,11.2,11.3,11.2S56.4,389.7,56.4,383.5z"/>
<path class="st14" d="M58.4,365.6c-0.6,0-1.2-0.1-1.8-0.3l-26.6-7c-3.8-0.9-6.2-4.7-5.3-8.5c0.9-3.8,4.7-6.2,8.5-5.3
	c0.1,0,0.3,0.1,0.4,0.1l26.6,7c3.8,1,6,4.9,5,8.6C64.4,363.4,61.6,365.6,58.4,365.6z"/>
<path class="st13" d="M136,383.2c0-6.2-5.1-11.2-11.3-11.2c-6.2,0-11.2,5.1-11.2,11.3s5.1,11.2,11.3,11.2c6.2,0.1,11.2-4.9,11.2-11
	C136,383.4,136,383.3,136,383.2z"/>
<path class="st14" d="M111.4,365.4c-3.9,0-7.1-3.2-7.1-7.1c0-3.2,2.1-6,5.2-6.8l26.6-7.2c3.8-1.1,7.7,1.2,8.7,4.9
	c1,3.7-1.2,7.7-4.9,8.7l-26.6,7.2C112.7,365.3,112,365.4,111.4,365.4z"/>
<ellipse class="st15" cx="-9.3" cy="326.5" rx="17.6" ry="17.3"/>
<ellipse class="st12" cx="-10.2" cy="323.6" rx="17.6" ry="17.3"/>
<path class="st1" d="M194,295c-0.1-28.7-10.9-47.7-33.1-58.2c-19.9-9.5-47-10.6-73.3-10.6c-2.5,0-4.9,0-7.4,0.1
	c22.7,0.4,45.2,2.4,62.5,10.6c22.2,10.5,33,29.5,33.1,58.2l0.3,92c0.2,57.1-42.5,104.2-97,109c3,0.3,6,0.4,9.1,0.4h0.3
	c58.5-0.2,105.9-49.3,105.7-109.3L194,295z"/>
<ellipse class="st15" cx="-11.9" cy="290" rx="33.7" ry="33"/>
<ellipse class="st15" cx="187.7" cy="321.3" rx="17.6" ry="17.3"/>
<ellipse class="st12" cx="186.8" cy="318.4" rx="17.6" ry="17.3"/>
<ellipse class="st12" cx="-13.6" cy="284.4" rx="33.7" ry="33"/>
<ellipse class="st15" cx="177" cy="286.6" rx="33.9" ry="33.2"/>
<ellipse class="st12" cx="178.6" cy="279.9" rx="33.9" ry="33.2"/>
<ellipse class="st15" cx="18.1" cy="231.7" rx="47.2" ry="46.3"/>
<ellipse class="st12" cx="15.8" cy="226.3" rx="47.2" ry="46.3"/>
<ellipse class="st15" cx="144.5" cy="231.7" rx="49" ry="48"/>
<ellipse class="st12" cx="144.5" cy="224.7" rx="49" ry="48"/>
<ellipse class="st15" cx="86.7" cy="214.9" rx="56.8" ry="55.7"/>
<ellipse class="st12" cx="86.7" cy="208.8" rx="56.8" ry="55.7"/>
<ellipse class="st12" cx="17" cy="413.2" rx="2.4" ry="2.4"/>
<ellipse class="st12" cx="31.5" cy="413.2" rx="2.4" ry="2.4"/>
<ellipse class="st12" cx="23.8" cy="424.6" rx="2.4" ry="2.4"/>
<ellipse class="st12" cx="135.1" cy="413.2" rx="2.4" ry="2.4"/>
<ellipse class="st12" cx="149.6" cy="413.2" rx="2.4" ry="2.4"/>
<ellipse class="st12" cx="142" cy="424.6" rx="2.4" ry="2.4"/>
</svg>
