<?xml version="1.0" encoding="utf-8"?>
<!-- Generator: Adobe Illustrator 19.0.0, SVG Export Plug-In . SVG Version: 6.00 Build 0)  -->
<svg version="1.1" id="Layer_1" xmlns="http://www.w3.org/2000/svg" xmlns:xlink="http://www.w3.org/1999/xlink" x="0px" y="0px"
	 viewBox="-114 142.3 383 508.7" style="enable-background:new -114 142.3 383 508.7;" xml:space="preserve">
<style type="text/css">
	.st0{fill:#45403D;}
	.st1{fill:#675F5B;}
	.st2{fill:#A19994;}
	.st3{fill:#7F7771;}
	.st4{fill:#AA7959;}
	.st5{fill:#FFF4F1;}
	.st6{fill:#891272;}
	.st7{fill:none;}
	.st8{fill:none;stroke:#4C2308;stroke-miterlimit:10;}
	.st9{fill:#AA6B07;}
	.st10{fill:none;stroke:#C98441;stroke-width:0.5;stroke-miterlimit:10;}
	.st11{fill:#E5AA17;}
	.st12{fill:#DB9D12;}
	.st13{fill:#FFB000;}
	.st14{fill:#EFAC06;}
	.st15{fill:#897F79;}
	.st16{fill:#868686;}
</style>
<title>teen</title>
<path class="st0" d="M225.3,296.5c-3.8-5.5-6.5-11.8-7.8-18.4c-0.8-1-2.6-1.1-4.1-0.2l-18.2,11.8c-1.5,1-2,2.6-1.3,3.7l8.7,12.2
	c8.8,12.4,25.5,16.4,37.1,8.9l0,0c1.5-1,2-2.6,1.3-3.7C234.9,307.2,229.5,302.3,225.3,296.5z"/>
<path class="st0" d="M240.5,349.6c0.6,1.5-0.1,3.3-1.6,3.9c-0.1,0-0.1,0-0.2,0.1l0,0c-13.1,4.6-30.2-6.8-38.1-25.6l-7.8-18.5
	c-0.6-1.5,0.1-3.3,1.6-3.9c0.1,0,0.1,0,0.2-0.1l20.7-7.4c1.7-0.6,3.6,0.2,4.3,1.8c0.7,8.9,2.7,17.6,6.1,25.8
	C229.4,334.4,234.3,342.5,240.5,349.6z"/>
<path class="st0" d="M-63.7,304.9c3.1-8,5-16.4,5.5-25c0.6-1.5,2.4-2.3,3.9-1.6c0.1,0,0.1,0,0.2,0.1l20,8.4c1.6,0.6,2.4,2.5,1.8,4.1
	l-7.2,17.8c-7.3,18.1-23.6,28.4-36.2,23.1l0,0c-1.6-0.6-2.4-2.4-1.8-4.1C-71.6,320.9-67,313.2-63.7,304.9z"/>
<path class="st0" d="M-60.9,332c3.1-8,5-16.4,5.5-25c0.6-1.5,2.4-2.3,3.9-1.6c0.1,0,0.1,0,0.2,0.1l20,8.4c1.6,0.6,2.4,2.5,1.8,4.1
	l-7.2,17.8c-7.3,18.1-23.6,28.4-36.2,23.1l0,0c-1.6-0.6-2.4-2.4-1.8-4.1C-68.8,348.1-64.1,340.4-60.9,332z"/>
<path class="st0" d="M235.4,347.2c0.6,1.7-0.3,3.4-2,4l0,0l0,0c-12.9,4.7-28.8-6.4-35.2-24.9l-6.4-18.2c-0.6-1.7,0.3-3.4,2-4l0,0
	l20.5-7.5c1.6-0.6,3.3,0.1,4,1.7c0,0,0,0,0,0.1c0.1,8.6,1.5,17.2,4.3,25.4C225.5,332.3,229.8,340.2,235.4,347.2z"/>
<ellipse class="st0" cx="-5.8" cy="371.3" rx="35.4" ry="69.3"/>
<ellipse class="st0" cx="179.7" cy="363.6" rx="27.9" ry="69.3"/>
<circle class="st1" cx="82.2" cy="280.4" r="132.3"/>
<path class="st2" d="M-84.4,651.2h322.6c1.3-0.4,2.5-1.2,3.3-2.3c1.3-1.7,2-3.8,2-6l-0.1-25.4c-0.1-46.9-15.1-91.1-42.1-124.4
	s-62.6-51.5-100.2-51.5h-0.4l-46.5,0.2c-37.8,0.1-73.5,18.7-100.4,52.2s-41.6,77.8-41.5,124.7l0.1,25.4
	C-87.6,646.8-86.4,649.4-84.4,651.2z"/>
<path class="st3" d="M243.4,617.4c-0.1-46.9-15.1-91.1-42.1-124.4s-62.6-51.4-100.2-51.4h-0.4l-16.8,0.1
	c36.3,1.2,70.4,19.2,96.4,51.3c27,33.3,41.9,77.5,42.1,124.4l0.1,25.4c0,2.2-0.7,4.3-2,6c-0.8,1.1-2,1.9-3.3,2.3h21
	c1.3-0.4,2.5-1.2,3.3-2.3c1.3-1.7,2-3.8,2-6L243.4,617.4z"/>
<path class="st4" d="M244.1,617.6c-0.1-46.8-15.1-90.8-42.1-124c-7.8-9.7-16.8-18.4-26.7-26c0.3,1.8,0.5,3.6,0.4,5.4
	c0,32.3-48.8,58.5-108.9,58.5c-51.1,0-94-19-105.7-44.5c-2.2,2.4-4.3,4.9-6.4,7.4C-72,527.9-86.7,572-86.7,618.8l0.1,25.3
	c0,2.7,1.1,5.2,3.1,7h322.2c1.3-0.4,2.4-1.2,3.3-2.3c1.3-1.7,2-3.8,2-6L244.1,617.6z"/>
<path class="st5" d="M139.2,642.2c-24.4-6.4-49.9-26.2-69.9-54.8s-31.6-61.8-31.7-90.9c-0.1-14.8,1.4-29.6,4.4-44.2
	c0.5-2.6,0.1-5.3-1.2-7.6c-0.6-0.9-1.3-1.8-2.3-2.4c0.9-0.1,1.7-0.2,2.5-0.3c-33.4,3.8-64.5,22.5-88.6,53.6
	c-26.8,35-41.6,81-41.4,130l0.1,25.5h233.8C144.9,646.9,142.5,643.1,139.2,642.2z"/>
<path class="st6" d="M40.8,444.9c1.3,2.3,1.8,5,1.2,7.6c-3,14.5-4.4,29.3-4.3,44.1c0.1,29.2,11.7,62.2,31.7,90.9
	s45.4,48.5,69.9,54.8c3.3,0.9,5.6,4.6,5.6,8.8h21c0-3.9-2-7.4-4.9-8.5c-0.2-0.1-0.4-0.1-0.6-0.2c-24.4-6.4-49.9-26.2-69.9-54.8
	s-31.6-61.8-31.7-90.9c0-14.8,1.5-29.6,4.4-44.1c0.5-2.6,0.1-5.3-1.2-7.6c-1.1-2-3.1-3.3-5.4-3.4h-3.2c-3.5,0-6.9,0.2-10.3,0.5h-0.4
	c-0.4,0-1,0.1-1.4,0.1l-2.5,0.3C39.6,443.2,40.3,444,40.8,444.9z"/>
<line class="st7" x1="85.8" y1="612.2" x2="85.8" y2="612"/>
<line class="st7" x1="85" y1="612.2" x2="85" y2="612"/>
<polyline class="st7" points="159.7,456.4 -0.8,456.4 -5.8,456.4 "/>
<path class="st8" d="M156.7,454c8.4,7.5,14.2,19.7,14.2,29c0,27.3-41.3,108.1-92.2,108.1S-13.5,510.3-13.5,483
	c0-9.3,6.9-21.6,15.3-29"/>
<path class="st9" d="M89.9,600.5c-0.2,0.1-0.4,0.1-0.5,0.1H70.5c-0.2,0-0.4,0-0.6-0.1c2.8-0.6,4.7-2,4.7-3.5s-1.9-3.5-4.7-4.1
	c0.2-0.1,0.4-0.1,0.6-0.1h18.9c0.2,0,0.4,0,0.5,0.1c-2.8,0.6-4.7,2.6-4.7,4.1S87.1,599.9,89.9,600.5z"/>
<path class="st10" d="M66.6,589.5c2.1,5.4,7.3,8.9,13,8.9c6.5,0,11.9-3.7,13.4-9.3"/>
<path class="st11" d="M89,600.5c-0.2,0.1-0.3,0.1-0.5,0.1H71.2c-0.2,0-0.3,0-0.5-0.1c2.6-0.6,4.3-2,4.3-3.5s-2.6-3.5-5.2-4.1
	c0.2-0.2,1.2-0.1,1.4-0.1h17.3c0.2,0,1.2-0.1,1.4,0.1c-2.5,0.6-5.2,2.6-5.2,4.1S86.4,599.9,89,600.5z"/>
<path class="st9" d="M79.9,597.7c-13.7,0-24.8,11.1-24.8,24.8c0,13.7,11.1,24.8,24.8,24.8s24.8-11.1,24.8-24.8
	C104.7,608.8,93.5,597.7,79.9,597.7L79.9,597.7z M79.9,643.1c-11.4,0-20.6-9.2-20.6-20.6c0-11.4,9.2-20.6,20.6-20.6
	c11.4,0,20.6,9.2,20.6,20.6l0,0C100.5,633.8,91.3,643,79.9,643.1L79.9,643.1z"/>
<circle class="st11" cx="79.8" cy="623" r="24.8"/>
<circle class="st11" cx="79.8" cy="623" r="24.8"/>
<circle class="st9" cx="79.8" cy="623" r="20.6"/>
<circle class="st12" cx="79.8" cy="623" r="17.7"/>
<path class="st9" d="M73.3,601.2c0.1,0.6-0.4,1.2-1,1.3s-1.2-0.4-1.3-1c0-0.1,0-0.1,0-0.2v-0.1c0.1-0.6,0.6-1.1,1.2-1
	c0.5,0.1,1,0.5,1,1C73.3,601.1,73.3,601.1,73.3,601.2z"/>
<path class="st9" d="M81.5,599.8c0.1,0.6-0.4,1.2-1,1.3s-1.2-0.4-1.3-1c0-0.1,0-0.1,0-0.2v-0.1c0.1-0.6,0.6-1.1,1.2-1
	c0.5,0.1,1,0.5,1,1C81.5,599.7,81.5,599.7,81.5,599.8z"/>
<path class="st9" d="M89.2,601c-0.1,0.6-0.6,1.1-1.3,1c-0.6-0.1-1-0.5-1-1v-0.1c0.1-0.6,0.6-1.1,1.2-1c0.5,0.1,1,0.5,1,1
	C89.1,600.9,89.1,600.9,89.2,601z"/>
<path class="st13" d="M73.3,601c0.1,0.6-0.4,1.2-1,1.3c-0.6,0.1-1.2-0.4-1.3-1s0.4-1.2,1-1.3h0.1C72.8,600,73.3,600.5,73.3,601z"/>
<path class="st13" d="M81.5,599.7c0.1,0.6-0.4,1.2-1,1.3s-1.2-0.4-1.3-1c-0.1-0.6,0.4-1.2,1-1.3h0.1
	C80.9,598.7,81.4,599.1,81.5,599.7z"/>
<path class="st13" d="M89.1,600.9c0.1,0.6-0.4,1.2-1,1.3c-0.6,0.1-1.2-0.4-1.3-1c-0.1-0.6,0.4-1.2,1-1.3h0.1
	C88.6,599.9,89.1,600.3,89.1,600.9z"/>
<circle class="st14" cx="79.8" cy="623" r="14.1"/>
<path class="st2" d="M-33.6,322.9L-33.6,322.9c-20.5,0.1-37.1,16.7-37,37.1l0,0c0,9.8,3.9,19.2,10.9,26.1c7,7,12.4,10.7,26.1,10.7
	h0.2C-13,396,2.9,378.7,2,358.3C1.1,339.1-14.3,323.7-33.6,322.9L-33.6,322.9z"/>
<path class="st2" d="M193.6,312.1h-0.2c-21.7,0.1-39.2,17.7-39.2,39.4c0,10.4,4.1,20.4,11.6,27.7c7.3,7.3,17.3,11.4,27.7,11.4h0.2
	c21.7-0.4,38.9-18.2,38.6-39.9C232,329.5,214.8,312.4,193.6,312.1L193.6,312.1z"/>
<path class="st2" d="M191.2,281.7c-0.1-29.8-11.3-49.5-34.4-60.4c-20.6-9.9-48.7-11-76-11s-55.3,1.5-75.9,11.4
	c-22.9,11-34,30.9-33.9,60.6l0.3,95.4c0.2,62.3,49.5,112.8,110,112.8h0.3c60.8-0.2,110-51.1,109.8-113.5L191.2,281.7z"/>
<path class="st15" d="M77.8,441.6c-9.1,0-17.9-3.4-24.6-9.6c-3-2.7-3.3-7.3-0.6-10.3s7.3-3.3,10.3-0.6c0.1,0.1,0.1,0.1,0.2,0.2
	c4,3.7,9.3,5.7,14.7,5.7h0.1c5.5,0,10.7-2.1,14.7-5.8c3-2.8,7.6-2.6,10.4,0.4c2.8,3,2.6,7.6-0.4,10.4c-6.7,6.2-15.5,9.7-24.7,9.7
	C78,441.6,77.9,441.6,77.8,441.6C77.9,441.6,77.9,441.6,77.8,441.6z"/>
<path class="st16" d="M48.4,373.6c0-6.5-5.3-11.7-11.8-11.6c-6.5,0-11.7,5.3-11.6,11.8c0,6.5,5.3,11.7,11.7,11.6
	C43.2,385.3,48.4,380.1,48.4,373.6z"/>
<path class="st0" d="M57.5,349.6c-0.8,3.3-3.7,5.5-7.1,5.5c-0.6,0-1.3-0.1-1.9-0.3l-27.6-7.3c-2.8-0.7-4.8-3-5.3-5.8
	c-0.2-1-0.2-2.1,0.1-3.1c1-3.9,5.1-6.2,9-5.2l27.6,7.3C56.2,341.7,58.6,345.7,57.5,349.6L57.5,349.6L57.5,349.6z"/>
<path class="st16" d="M130.9,373.4c0-6.5-5.3-11.7-11.7-11.7s-11.7,5.3-11.7,11.7c0,6.5,5.3,11.7,11.7,11.7l0,0
	c6.4,0.1,11.6-5.1,11.7-11.4C131,373.6,131,373.5,130.9,373.4z"/>
<path class="st0" d="M135,347.1l-27.6,7.4c-0.6,0.2-1.3,0.3-2,0.3c-3.3,0-6.2-2.2-7.1-5.4c-0.1-0.2-0.1-0.5-0.1-0.7
	c-0.6-3.7,1.6-7.3,5.3-8.4l27.6-7.4c3.9-1.1,8,1.2,9.1,5.1C141.2,341.9,138.9,346,135,347.1L135,347.1L135,347.1z"/>
<path class="st1" d="M56.5,347c-0.8,3.2-3.7,5.5-7.1,5.5c-0.6,0-1.3-0.1-1.9-0.3l-27.6-7.3c-1.8-0.5-3.4-1.6-4.4-3.2
	c-0.2-1-0.2-2.1,0.1-3.1c1-3.9,5.1-6.2,9-5.2l27.6,7.3c1.8,0.5,3.4,1.6,4.4,3.2C56.9,344.9,56.8,346,56.5,347z"/>
<path class="st1" d="M134,344.6l-27.6,7.5c-0.7,0.2-1.3,0.3-2,0.3c-2.6,0-4.9-1.3-6.2-3.5c-0.6-3.7,1.6-7.3,5.3-8.4l27.6-7.4
	c3.1-0.8,6.5,0.5,8.2,3.2C139.8,339.9,137.6,343.5,134,344.6z"/>
<path class="st15" d="M191.2,281.7c-0.1-29.8-11.3-49.5-34.4-60.4c-20.6-9.9-48.7-11-76-11c-2.6,0-5.1,0-7.7,0.1
	c23.6,0.4,46.9,2.5,64.8,11c23,10.9,34.3,30.6,34.4,60.4l0.3,95.4c0.2,59.2-44.1,108.1-100.6,113.1c3.1,0.3,6.3,0.4,9.5,0.4h0.3
	c60.7-0.2,109.9-51.1,109.7-113.5L191.2,281.7z"/>
<ellipse class="st15" cx="7.4" cy="404.5" rx="2.5" ry="2.5"/>
<ellipse class="st15" cx="22.5" cy="404.5" rx="2.5" ry="2.5"/>
<ellipse class="st15" cx="14.6" cy="416.3" rx="2.5" ry="2.5"/>
<ellipse class="st15" cx="130" cy="404.5" rx="2.5" ry="2.5"/>
<ellipse class="st15" cx="145.1" cy="404.5" rx="2.5" ry="2.5"/>
<ellipse class="st15" cx="137.2" cy="416.3" rx="2.5" ry="2.5"/>
<path class="st1" d="M-84.7,290.9c-0.6,1.5,0.4,3.3,2.5,4.1l0,0c15.7,6,34.7-3.1,42.1-20.2l7.3-16.8c0.6-1.5-0.4-3.3-2.5-4.1
	l-22.2-9.9c-2-0.8,1.5-2.9,0.8-1.5c0.1,6-9.1,17.8-13,27.2C-73.2,277.7-78.3,284.9-84.7,290.9z"/>
<ellipse class="st0" cx="-33.5" cy="258.4" rx="28.4" ry="27.8"/>
<ellipse class="st1" cx="-36.2" cy="257.3" rx="26.7" ry="28"/>
<ellipse class="st0" cx="188.4" cy="259.4" rx="26.3" ry="25.1"/>
<ellipse transform="matrix(-0.1212 -0.9926 0.9926 -0.1212 -42.4444 475.7941)" class="st1" cx="189.4" cy="256.7" rx="25.1" ry="24.4"/>
<path class="st1" d="M236.8,271.6c1.1,1.3,0.9,3.1-0.3,4.2c-0.1,0.1-0.1,0.1-0.2,0.1l0,0c-11.1,8.4-30.9,2.5-44-13.1l-12.9-15.3
	c-1.1-1.3-0.9-3.1,0.3-4.2c0.1-0.1,0.1-0.1,0.2-0.2l17.5-13.3c1.4-1.1,3.4-0.9,4.6,0.5c3.3,8.3,7.8,16,13.5,22.8
	C221.6,260.4,228.8,266.7,236.8,271.6z"/>
<ellipse class="st0" cx="82.6" cy="228.2" rx="119.7" ry="72.5"/>
<ellipse class="st1" cx="81.8" cy="220.6" rx="119.7" ry="72.5"/>
</svg>
