<?xml version="1.0" encoding="utf-8"?>
<!-- Generator: Adobe Illustrator 23.1.0, SVG Export Plug-In . SVG Version: 6.00 Build 0)  -->
<svg version="1.1" id="Layer_1" xmlns="http://www.w3.org/2000/svg" xmlns:xlink="http://www.w3.org/1999/xlink" x="0px" y="0px"
	 viewBox="0 0 383 508.7" style="enable-background:new 0 0 383 508.7;" xml:space="preserve">
<style type="text/css">
	.st0{fill:#F0BCA6;}
	.st1{fill:#E6B09A;}
	.st2{fill:#8C6464;}
	.st3{fill:#FFF4F1;}
	.st4{fill:#891272;}
	.st5{fill:none;stroke:#4C2308;stroke-miterlimit:10;}
	.st6{fill:#AA6B07;}
	.st7{fill:none;stroke:#C98441;stroke-width:0.5;stroke-miterlimit:10;}
	.st8{fill:#E5AA17;}
	.st9{fill:#DB9D12;}
	.st10{fill:#FFB000;}
	.st11{fill:#EFAC06;}
	.st12{fill:#E2A58A;}
	.st13{fill:#868686;}
	.st14{fill:#3A1E0B;}
	.st15{fill:#E5A589;}
</style>
<title>teen</title>
<path class="st0" d="M25.5,509h330.7c1.3-0.4,2.5-1.2,3.4-2.3c1.4-1.8,2.1-4,2-6.2l-0.1-26c-0.1-48.1-15.5-93.4-43.2-127.5
	s-64.1-52.8-102.7-52.8h-0.4l-47.6,0.2c-38.7,0.1-75.3,19.2-102.8,53.5s-42.6,79.8-42.6,127.9l0.1,26
	C22.3,504.5,23.5,507.3,25.5,509z"/>
<path class="st1" d="M361.6,474.5c-0.1-48.1-15.5-93.4-43.2-127.5s-64.1-52.7-102.7-52.7h-0.4l-17.3,0.1
	c37.2,1.2,72.1,19.7,98.9,52.6c27.7,34.1,43,79.4,43.2,127.5l0.1,26c0,2.2-0.7,4.4-2,6.2c-0.9,1.1-2,1.9-3.4,2.3h21.5
	c1.3-0.4,2.5-1.2,3.4-2.3c1.4-1.8,2.1-4,2.1-6.2L361.6,474.5z"/>
<path class="st2" d="M362.3,474.6c-0.1-47.9-15.4-93-43.1-127c-8-9.9-17.2-18.9-27.4-26.6c0.3,1.8,0.5,3.7,0.5,5.5
	c0,33.1-50,59.9-111.6,59.9c-52.4,0-96.3-19.4-108.4-45.6c-2.2,2.4-4.4,5-6.5,7.6c-27.5,34.3-42.6,79.5-42.5,127.4l0.1,25.9
	c0,2.7,1.2,5.3,3.2,7.2h330.3c1.3-0.4,2.5-1.2,3.4-2.3c1.4-1.8,2.1-4,2-6.2L362.3,474.6z"/>
<path class="st3" d="M254.9,499.9c-25-6.5-51.1-26.8-71.7-56.2s-32.4-63.4-32.5-93.2c-0.1-15.2,1.4-30.4,4.5-45.3
	c0.5-2.7,0.1-5.5-1.3-7.8c-0.6-1-1.4-1.8-2.3-2.4l2.6-0.3c-34.3,3.9-66.2,23.1-90.9,55c-27.5,35.8-42.7,83-42.5,133.2l0.1,26.1
	h239.7C260.6,504.6,258.1,500.8,254.9,499.9z"/>
<path class="st4" d="M153.9,297.5c1.4,2.4,1.8,5.2,1.3,7.8c-3,14.9-4.5,30.1-4.5,45.3c0.1,29.9,12,63.8,32.5,93.2
	s46.6,49.7,71.7,56.2c3.4,0.9,5.7,4.8,5.7,9h21.5c0-4-2-7.6-5-8.7c-0.2-0.1-0.4-0.1-0.6-0.2c-25-6.5-51.2-26.8-71.7-56.2
	s-32.4-63.4-32.5-93.2c0-15.2,1.5-30.4,4.5-45.3c0.6-2.7,0.1-5.5-1.3-7.8c-1.1-2.1-3.2-3.4-5.5-3.5h-3.3c-3.6,0-7,0.2-10.5,0.5h-0.5
	c-0.4,0-1,0.1-1.4,0.1l-2.6,0.3C152.6,295.8,153.4,296.6,153.9,297.5z"/>
<path class="st5" d="M272.6,306.9c8.6,7.6,14.6,20.2,14.6,29.8c0,28-42.3,110.8-94.5,110.8s-94.5-82.8-94.5-110.8
	c0-9.6,7-22.1,15.7-29.8"/>
<path class="st6" d="M204.1,457.1c-0.2,0.1-0.4,0.1-0.6,0.1h-19.4c-0.2,0-0.4,0-0.6-0.1c2.9-0.6,4.8-2,4.8-3.6s-2-3.6-4.8-4.3
	c0.2-0.1,0.4-0.2,0.6-0.1h19.4c0.2,0,0.4,0,0.6,0.1c-2.9,0.6-4.8,2.6-4.8,4.3S201.4,456.4,204.1,457.1z"/>
<path class="st7" d="M180.3,445.9c2.1,5.5,7.4,9.1,13.3,9.1c6.6,0,12.2-3.8,13.8-9.5"/>
<path class="st8" d="M203.3,457.1c-0.2,0.1-0.3,0.1-0.5,0.1h-17.7c-0.2,0-0.4,0-0.5-0.1c2.6-0.6,4.4-2,4.4-3.6s-2.7-3.6-5.3-4.3
	c0.2-0.3,1.2-0.1,1.4-0.1h17.8c0.2,0,1.2-0.1,1.4,0.1c-2.6,0.6-5.3,2.6-5.3,4.3S200.6,456.4,203.3,457.1z"/>
<path class="st6" d="M193.9,454.3c-14,0-25.4,11.4-25.4,25.4s11.4,25.4,25.4,25.4s25.4-11.4,25.4-25.4l0,0
	C219.4,465.6,207.9,454.3,193.9,454.3z M193.9,500.8c-11.7,0-21.1-9.5-21.1-21.1s9.5-21.1,21.1-21.1s21.1,9.5,21.1,21.1
	S205.6,500.8,193.9,500.8L193.9,500.8z"/>
<ellipse class="st8" cx="193.8" cy="480.1" rx="25.4" ry="25.4"/>
<ellipse class="st8" cx="193.8" cy="480.1" rx="25.4" ry="25.4"/>
<circle class="st6" cx="193.9" cy="480.1" r="21.1"/>
<circle class="st9" cx="193.9" cy="480.1" r="18.2"/>
<path class="st6" d="M187.3,457.9c-0.1,0.6-0.6,1.1-1.3,1.1c-0.6-0.1-1-0.5-1.1-1.1v-0.1c0.1-0.6,0.6-1.1,1.3-1.1
	c0.6,0.1,1,0.5,1.1,1.1C187.3,457.8,187.3,457.8,187.3,457.9z"/>
<path class="st6" d="M195.6,456.4c0.1,0.6-0.4,1.2-1.1,1.3s-1.2-0.4-1.3-1.1c0-0.1,0-0.1,0-0.2v-0.1c0.1-0.6,0.6-1.1,1.3-1.1
	c0.6,0.1,1,0.5,1.1,1.1C195.6,456.3,195.6,456.4,195.6,456.4z"/>
<path class="st6" d="M203.4,457.6c-0.1,0.6-0.6,1.1-1.3,1.1c-0.6-0.1-1-0.5-1.1-1.1v-0.1c0.1-0.6,0.7-1.1,1.3-1c0.5,0.1,0.9,0.5,1,1
	C203.4,457.5,203.4,457.5,203.4,457.6z"/>
<path class="st10" d="M187.3,457.6c0.1,0.6-0.3,1.2-1,1.3c-0.6,0.1-1.2-0.3-1.3-1s0.3-1.2,1-1.3c0.1,0,0.1,0,0.2,0
	C186.6,456.6,187.1,457.1,187.3,457.6z"/>
<path class="st10" d="M195.6,456.3c-0.1,0.6-0.6,1.1-1.3,1.1c-0.6-0.1-1-0.5-1.1-1.1c0.1-0.6,0.6-1.1,1.3-1.1
	C195.1,455.3,195.6,455.6,195.6,456.3z"/>
<path class="st10" d="M203.4,457.4c0.1,0.6-0.3,1.2-1,1.3c-0.6,0.1-1.2-0.3-1.3-1c-0.1-0.6,0.3-1.2,1-1.3c0.1,0,0.1,0,0.2,0
	C202.9,456.4,203.4,456.9,203.4,457.4z"/>
<circle class="st11" cx="193.9" cy="480.1" r="14.4"/>
<path class="st0" d="M77.7,172.6L77.7,172.6c-21.1,0.1-38.1,17.1-38,38.1c0,10.1,4,19.7,11.2,26.7c7.2,7.1,12.7,11,26.7,11h0.2
	c20.9-0.4,37.6-17.6,37.2-38.6C114.7,189.4,98.2,172.9,77.7,172.6L77.7,172.6z"/>
<path class="st0" d="M310.5,161.5h-0.2c-22.2,0.1-40.2,18.2-40.1,40.4c0,10.7,4.2,20.9,11.9,28.4c7.5,7.5,17.7,11.7,28.4,11.7h0.2
	c22.2-0.4,39.9-18.7,39.6-40.9C349.9,179.3,332.4,161.8,310.5,161.5L310.5,161.5z"/>
<path class="st0" d="M308,130.4c-0.1-30.5-11.5-50.7-35.2-61.9c-21.1-10.1-50-11.3-77.9-11.3s-56.7,1.5-77.9,11.7
	C93.6,80.2,82.3,100.6,82.4,131l0.3,97.8c0.2,63.9,50.7,115.6,112.8,115.6h0.3c62.3-0.2,112.8-52.4,112.6-116.4L308,130.4z"/>
<path class="st12" d="M191.9,294.3c-9.4,0-18.4-3.5-25.2-9.8c-3-2.9-3.1-7.6-0.2-10.6c2.8-2.9,7.3-3.1,10.3-0.5
	c4.1,3.8,9.5,5.9,15.1,5.8h0.1c5.6,0,11-2.1,15.1-5.9c3-2.8,7.8-2.6,10.6,0.4s2.6,7.8-0.4,10.6C210.4,290.6,201.4,294.1,191.9,294.3
	C191.9,294.3,191.9,294.3,191.9,294.3z"/>
<path class="st13" d="M161.6,224.6c0-6.6-5.4-12-12-12s-12,5.4-12,12s5.4,12,12,12c0,0,0,0,0.1,0
	C156.4,236.5,161.6,231.2,161.6,224.6z"/>
<path class="st14" d="M163.8,205.6c-0.6,0-1.3-0.1-1.9-0.3l-28.3-7.5c-4-1.2-6.3-5.3-5.1-9.3c1.1-3.8,5-6.1,8.9-5.2l28.3,7.5
	c4,1.1,6.4,5.2,5.4,9.2C170.1,203.2,167.1,205.5,163.8,205.6L163.8,205.6z"/>
<path class="st13" d="M246.4,224.3c0-6.6-5.4-12-12-12s-12,5.4-12,12s5.4,12,12,12c0,0,0,0,0.1,0c6.5,0.1,11.9-5.2,11.9-11.8
	C246.4,224.4,246.4,224.4,246.4,224.3z"/>
<path class="st14" d="M220.1,205.4c-4.2,0-7.5-3.4-7.5-7.5c0-3.4,2.3-6.4,5.5-7.3l28.3-7.6c4-1.1,8.2,1.3,9.3,5.3s-1.3,8.2-5.3,9.3
	l0,0l-28.3,7.6C221.4,205.3,220.8,205.4,220.1,205.4z"/>
<path class="st1" d="M308,130.4c-0.1-30.5-11.5-50.7-35.2-61.9c-21.1-10.1-50-11.3-77.9-11.3c-2.6,0-5.2,0-7.9,0.1
	c24.2,0.5,48,2.5,66.5,11.3c23.6,11.2,35.1,31.4,35.2,61.9l0.3,97.8c0.2,60.7-45.2,110.8-103.2,116c3.2,0.3,6.4,0.5,9.7,0.5h0.3
	c62.2-0.2,112.7-52.4,112.5-116.3L308,130.4z"/>
<ellipse class="st15" cx="119.7" cy="256.1" rx="2.6" ry="2.5"/>
<ellipse class="st15" cx="135.1" cy="256.1" rx="2.6" ry="2.5"/>
<ellipse class="st15" cx="126.9" cy="268.3" rx="2.6" ry="2.5"/>
<ellipse class="st15" cx="245.4" cy="256.1" rx="2.6" ry="2.5"/>
<ellipse class="st15" cx="260.9" cy="256.1" rx="2.6" ry="2.5"/>
<ellipse class="st15" cx="252.6" cy="268.3" rx="2.6" ry="2.5"/>
<circle class="st14" cx="82.3" cy="118.6" r="27.5"/>
<circle class="st14" cx="92.3" cy="88" r="37.4"/>
<circle class="st14" cx="82.3" cy="156.3" r="22"/>
<circle class="st14" cx="126.9" cy="56.9" r="37.4"/>
<circle class="st14" cx="174.6" cy="58.4" r="46.7"/>
<circle class="st14" cx="239.8" cy="58.4" r="45.8"/>
<circle class="st14" cx="282.1" cy="92.8" r="28.9"/>
<circle class="st14" cx="308.3" cy="108.7" r="28.9"/>
<circle class="st14" cx="297" cy="65.2" r="28.9"/>
<circle class="st14" cx="310.5" cy="149.3" r="20.4"/>
</svg>
