<?xml version="1.0" encoding="utf-8"?>
<!-- Generator: Adobe Illustrator 23.1.0, SVG Export Plug-In . SVG Version: 6.00 Build 0)  -->
<svg version="1.1" id="Layer_1" xmlns="http://www.w3.org/2000/svg" xmlns:xlink="http://www.w3.org/1999/xlink" x="0px" y="0px"
	 viewBox="0 0 383 508.7" style="enable-background:new 0 0 383 508.7;" xml:space="preserve">
<style type="text/css">
	.st0{fill:#9B3710;}
	.st1{fill:#F0BCA6;}
	.st2{fill:#E6B09A;}
	.st3{fill:#E2E2E2;}
	.st4{fill:#F4F0EF;}
	.st5{fill:#891272;}
	.st6{fill:none;}
	.st7{fill:none;stroke:#4C2308;stroke-miterlimit:10;}
	.st8{fill:#AA6B07;}
	.st9{fill:none;stroke:#C98441;stroke-width:0.5;stroke-miterlimit:10;}
	.st10{fill:#E5AA17;}
	.st11{fill:#DB9D12;}
	.st12{fill:#FFB000;}
	.st13{fill:#EFAC06;}
	.st14{fill:#842610;}
	.st15{fill:#E2A58A;}
	.st16{fill:#868686;}
	.st17{fill:#E5A589;}
</style>
<g>
	<path class="st0" d="M288.9,55.2c-22.8-19.5-53.1-30.1-85.1-30.1s-62.3,10.7-85.2,30.1c-22.8,19.5-35.4,45.2-35.4,72.4v146.5
		c0,2.6,2.5,4.6,5.4,4.6h230.1c3,0,5.4-2.1,5.4-4.6V127.6C324.3,100.3,311.6,74.6,288.9,55.2z"/>
	<path class="st1" d="M23.5,509.5h334.6c1.3-0.3,2.4-1.2,3.4-2.4c1.4-1.7,2.1-3.9,2.1-6.3l-0.1-26.3c-0.1-48.6-15.6-94.5-43.7-129
		c-27.9-34.4-64.8-53.4-103.9-53.4c-0.2,0-0.3,0-0.5,0l-48.2,0.2c-39.3,0.1-76.2,19.4-104.1,54.1s-43.1,80.7-43,129.4l0.1,26.3
		C20.3,505.1,21.6,507.9,23.5,509.5z"/>
	<path class="st2" d="M363.5,474.5c-0.1-48.6-15.6-94.5-43.7-129c-27.9-34.4-64.8-53.4-103.9-53.4c-0.2,0-0.3,0-0.5,0l-17.5,0.1
		c37.6,1.2,73,20,100,53.2c28,34.5,43.5,80.4,43.7,129l0.1,26.3c0,2.4-0.7,4.6-2.1,6.3c-0.9,1.1-2.1,2-3.4,2.4H358
		c1.3-0.3,2.4-1.2,3.4-2.4c1.4-1.7,2.1-3.9,2.1-6.3V474.5z"/>
	<g>
		<path id="XMLID_45_" class="st3" d="M364.3,474.5c-0.1-48.5-15.6-94.1-43.6-128.5c-8.5-10.4-17.8-19.4-27.7-26.9
			c0.4,1.9,0.5,3.7,0.5,5.6c0,33.5-50.6,60.6-112.9,60.6c-53,0-97.5-19.7-109.7-46.1c-2.3,2.5-4.4,5-6.6,7.7
			c-27.8,34.6-43.1,80.4-43,128.9l0.1,26.2c0.1,3,1.4,5.7,3.3,7.3h334.2c1.3-0.3,2.4-1.2,3.4-2.3c1.4-1.7,2.1-3.9,2.1-6.3
			L364.3,474.5z"/>
	</g>
	<path class="st4" d="M255.5,500.1c-25.3-6.6-51.8-27.1-72.5-56.8c-20.8-29.7-32.8-64.1-32.9-94.3c-0.1-15.4,1.4-30.8,4.5-45.8
		c0.5-2.7,0.1-5.7-1.3-7.9c-0.6-1-1.4-1.9-2.3-2.5c0.9-0.1,1.7-0.2,2.6-0.3c-34.7,3.9-66.9,23.3-92,55.6
		c-27.8,36.3-43.2,84-43,134.8l0.1,26.5h242.5C261.5,505,259,501,255.5,500.1z"/>
	<path class="st5" d="M153.4,295.5c1.4,2.2,1.8,5.2,1.3,7.9c-3.1,15-4.6,30.4-4.5,45.8c0.1,30.3,12.1,64.6,32.9,94.3
		c20.8,29.6,47.2,50.3,72.5,56.8c3.4,0.9,5.8,4.8,5.8,9.2h21.8c0-4-2.1-7.7-5.1-8.8c-0.2-0.1-0.5-0.1-0.6-0.2
		c-25.3-6.6-51.8-27.1-72.5-56.8c-20.8-29.7-32.8-64.1-32.9-94.3c0-15.5,1.5-30.9,4.5-45.8c0.5-2.8,0.1-5.7-1.3-7.9
		c-1.4-2.2-3.4-3.6-5.6-3.6h-3.3c-3.6,0-7.1,0.2-10.7,0.6c-0.2,0-0.3,0-0.5,0c-0.5,0-1,0.1-1.4,0.1c-0.9,0.1-1.7,0.2-2.6,0.3
		C152,293.5,152.8,294.5,153.4,295.5z"/>
	<line class="st6" x1="200.1" y1="469" x2="200.1" y2="468.8"/>
	<line class="st6" x1="199.3" y1="469" x2="199.3" y2="468.8"/>
	<path class="st7" d="M273.6,304.9c8.7,7.7,14.8,20.4,14.8,30.1c0,28.3-42.8,112.1-95.6,112.1S97.2,363.3,97.2,335
		c0-9.7,7.1-22.4,15.8-30.1"/>
	<g>
		<path class="st8" d="M204.3,457c-0.2,0.1-0.4,0.1-0.6,0.1h-19.6c-0.2,0-0.4-0.1-0.6-0.1c2.9-0.7,4.9-2.1,4.9-3.7s-2-3.6-4.9-4.3
			c0.2-0.1,0.4-0.1,0.6-0.1h19.6c0.2,0,0.4,0.1,0.6,0.1c-2.9,0.7-4.9,2.7-4.9,4.3C199.4,454.9,201.4,456.3,204.3,457z"/>
		<path class="st9" d="M180.1,445.5c1.9,5.2,7.2,9.2,13.5,9.2c6.7,0,12.3-3.9,13.9-9.6"/>
		<path class="st10" d="M203.4,457c-0.1,0.1-0.3,0.1-0.5,0.1h-17.9c-0.2,0-0.4-0.1-0.5-0.1c2.6-0.7,4.5-2.1,4.5-3.7
			s-2.7-3.6-5.4-4.3c0.2-0.2,1.2-0.1,1.4-0.1h17.9c0.2,0,1.2-0.1,1.4,0.1c-2.7,0.7-5.4,2.7-5.4,4.3
			C198.9,454.9,200.8,456.3,203.4,457z"/>
		<path class="st8" d="M193.9,454c-14.2,0-25.7,11.5-25.7,25.7s11.5,25.7,25.7,25.7s25.7-11.5,25.7-25.7S208.1,454,193.9,454z
			 M193.9,501c-11.8,0-21.4-9.6-21.4-21.4s9.6-21.4,21.4-21.4c11.8,0,21.4,9.6,21.4,21.4C215.3,491.5,205.8,501,193.9,501z"/>
		<circle class="st10" cx="193.8" cy="480.1" r="25.7"/>
		<circle class="st10" cx="193.8" cy="480.1" r="25.7"/>
		<ellipse class="st8" cx="193.9" cy="480.1" rx="21.4" ry="21.4"/>
		<ellipse class="st11" cx="193.9" cy="480.1" rx="18.4" ry="18.4"/>
		<g>
			<path class="st8" d="M187.1,457.5c0,0.7-0.5,1.2-1.2,1.2s-1.2-0.5-1.2-1.2v-0.1c0.1-0.6,0.6-1,1.2-1c0.6,0,1.1,0.5,1.2,1
				C187.1,457.5,187.1,457.5,187.1,457.5z"/>
			<path class="st8" d="M195.6,456.1c0,0.7-0.5,1.2-1.2,1.2s-1.2-0.5-1.2-1.2V456c0.1-0.6,0.6-1,1.2-1c0.6,0,1.1,0.5,1.2,1
				C195.6,456,195.6,456,195.6,456.1z"/>
			<path class="st8" d="M203.5,457.4c0,0.7-0.5,1.2-1.2,1.2s-1.2-0.5-1.2-1.2v-0.1c0.1-0.6,0.6-1,1.2-1c0.6,0,1.1,0.5,1.2,1V457.4z"
				/>
			<path class="st12" d="M187.1,457.5c-0.1,0.6-0.6,1-1.2,1c-0.6,0-1.1-0.4-1.2-1c0.1-0.6,0.6-1,1.2-1
				C186.6,456.4,187.1,456.9,187.1,457.5z"/>
			<path class="st12" d="M195.6,456c-0.1,0.6-0.6,1-1.2,1c-0.6,0-1.1-0.4-1.2-1c0.1-0.6,0.6-1,1.2-1C195,455,195.5,455.5,195.6,456z
				"/>
			<path class="st12" d="M203.5,457.3c-0.1,0.6-0.6,1-1.2,1c-0.6,0-1.1-0.4-1.2-1c0.1-0.6,0.6-1,1.2-1
				C203,456.3,203.5,456.6,203.5,457.3z"/>
		</g>
		<ellipse class="st13" cx="193.9" cy="480.1" rx="14.6" ry="14.6"/>
	</g>
	<ellipse class="st14" cx="99.9" cy="255.2" rx="35.6" ry="30.3"/>
	<ellipse class="st14" cx="303" cy="254.4" rx="29.7" ry="30.3"/>
	<path class="st1" d="M81.8,170.3c-0.1,0-0.1,0-0.2,0c-21.2,0.1-38.4,17.3-38.3,38.5c0,10.2,4,19.9,11.3,27.1
		c7.3,7.2,12.9,11.1,27.1,11.1h0.2c21.2-0.1,38.4-17.3,38.3-38.5C120,187.4,102.9,170.3,81.8,170.3z"/>
	<path class="st1" d="M317.5,159.1c-0.1,0-0.1,0-0.2,0c-22.5,0.1-40.7,18.4-40.6,40.9c0,10.8,4.2,21.1,12,28.7
		c7.7,7.7,17.9,11.8,28.7,11.8h0.2c22.5-0.1,40.7-18.4,40.6-40.9S339.9,159.1,317.5,159.1z"/>
	<path class="st1" d="M314.9,125.1c-0.1-29.9-11.7-49.7-35.6-60.6c-21.4-9.9-50.6-11-78.8-11c-28.2,0.1-57.3,1.5-78.7,11.5
		C98,76,86.6,96,86.7,125.8l0.3,95.8c0.2,62.6,51.3,113.2,114.1,113.2h0.3c63-0.2,114.1-51.3,113.9-114L314.9,125.1z"/>
	<path class="st15" d="M197.4,276.4c-9.5,0-18.6-3.5-25.5-10c-3.1-2.8-3.3-7.6-0.5-10.7s7.6-3.3,10.7-0.5c4.2,3.9,9.6,5.9,15.3,5.9
		h0.1c5.7,0,11.1-2.1,15.3-6c3.1-2.9,7.9-2.7,10.7,0.4c2.9,3.1,2.7,7.9-0.4,10.7C216.1,272.6,207,276.3,197.4,276.4
		C197.5,276.4,197.4,276.4,197.4,276.4z"/>
	<path class="st16" d="M166.8,205.8c0-6.7-5.5-12.1-12.2-12.1s-12.1,5.5-12.1,12.2s5.5,12.1,12.2,12.1
		C161.4,217.9,166.8,212.4,166.8,205.8z"/>
	<path class="st16" d="M252.4,205.4c0-6.7-5.5-12.1-12.2-12.1s-12.1,5.5-12.1,12.2s5.5,12.1,12.2,12.1
		C247.1,217.6,252.5,212.3,252.4,205.4z"/>
	<path class="st2" d="M314.9,125.1c-0.1-29.9-11.7-49.7-35.6-60.6c-21.4-9.9-50.6-11-78.8-11c-2.7,0-5.3,0-8,0.1
		c24.4,0.4,48.6,2.5,67.3,11c23.9,11,35.5,30.7,35.6,60.6l0.3,95.8c0.2,59.5-45.8,108.5-104.4,113.5c3.2,0.3,6.5,0.4,9.8,0.4h0.3
		c62.9-0.2,114-51.3,113.8-113.9L314.9,125.1z"/>
	<ellipse class="st17" cx="124.3" cy="254.9" rx="2.6" ry="2.5"/>
	<ellipse class="st17" cx="139.9" cy="254.9" rx="2.6" ry="2.5"/>
	<ellipse class="st17" cx="131.8" cy="267" rx="2.6" ry="2.5"/>
	<ellipse class="st17" cx="251.5" cy="254.9" rx="2.6" ry="2.5"/>
	<ellipse class="st17" cx="267.1" cy="254.9" rx="2.6" ry="2.5"/>
	<ellipse class="st17" cx="259" cy="267" rx="2.6" ry="2.5"/>
	
		<ellipse transform="matrix(0.9333 -0.3592 0.3592 0.9333 -51.6006 39.779)" class="st14" cx="81.3" cy="158.8" rx="25.8" ry="37.9"/>
	
		<ellipse transform="matrix(0.9333 -0.3592 0.3592 0.9333 -50.5858 37.8437)" class="st0" cx="76.6" cy="155.1" rx="25.8" ry="37.9"/>
	<ellipse class="st14" cx="104.6" cy="120.5" rx="42.2" ry="34.6"/>
	
		<ellipse transform="matrix(0.3592 -0.9333 0.9333 0.3592 49.939 390.1715)" class="st14" cx="309.1" cy="158.7" rx="37.9" ry="25.8"/>
	
		<ellipse transform="matrix(0.3592 -0.9333 0.9333 0.3592 57.3997 388.1424)" class="st0" cx="311.3" cy="152.3" rx="37.9" ry="25.8"/>
	<ellipse class="st14" cx="290.9" cy="114.8" rx="42.2" ry="34.6"/>
	<ellipse transform="matrix(0.7071 -0.7071 0.7071 0.7071 14.6593 233.3515)" class="st0" cx="289" cy="99" rx="43.2" ry="43.2"/>
	<ellipse class="st14" cx="269.3" cy="91.5" rx="42.2" ry="34.6"/>
	<ellipse class="st0" cx="269.4" cy="84.9" rx="41.5" ry="30"/>
	<ellipse class="st0" cx="100.6" cy="108.9" rx="40.5" ry="40.5"/>
	<ellipse class="st14" cx="130.8" cy="86.3" rx="42.2" ry="34.6"/>
	<ellipse class="st14" cx="202.1" cy="72.9" rx="75.3" ry="57.4"/>
	<ellipse class="st0" cx="199.6" cy="59.8" rx="78.5" ry="56.6"/>
	<ellipse class="st0" cx="130.8" cy="79.7" rx="41.5" ry="30"/>
	<path class="st0" d="M158.9,169.3c8.4,0,16.5,1.6,22.7,4.4c2.7,1.2,2.8,3.3,0.4,4.6c-2.4,1.3-6.5,1.4-9.1,0.2
		c-3.8-1.7-8.8-2.8-14-2.8h-0.1c-5.3,0-10.2,0.9-14,2.8c-2.7,1.2-6.7,1.1-9.1-0.2c-2.4-1.3-2.2-3.4,0.3-4.6
		C142.3,170.9,150.4,169.1,158.9,169.3C158.8,169.3,158.9,169.3,158.9,169.3z"/>
	<path class="st0" d="M239.6,169.3c8.4,0,16.5,1.6,22.7,4.4c2.7,1.2,2.8,3.3,0.4,4.6c-2.4,1.3-6.5,1.4-9.1,0.2
		c-3.8-1.7-8.8-2.8-14-2.8l0,0c-5.3,0-10.2,0.9-14,2.8c-2.7,1.2-6.7,1.1-9.1-0.2s-2.2-3.4,0.3-4.6
		C223,170.9,231.1,169.1,239.6,169.3L239.6,169.3z"/>
</g>
</svg>
