<?xml version="1.0" encoding="utf-8"?>
<!-- Generator: Adobe Illustrator 19.0.0, SVG Export Plug-In . SVG Version: 6.00 Build 0)  -->
<svg version="1.1" id="Layer_1" xmlns="http://www.w3.org/2000/svg" xmlns:xlink="http://www.w3.org/1999/xlink" x="0px" y="0px"
	 viewBox="-114 142.3 383 508.7" style="enable-background:new -114 142.3 383 508.7;" xml:space="preserve">
<style type="text/css">
	.st0{fill:#232323;}
	.st1{fill:#BC8E79;}
	.st2{fill:#A06E5A;}
	.st3{fill:#78BEDD;}
	.st4{fill:#F4F0EF;}
	.st5{fill:#891272;}
	.st6{fill:none;}
	.st7{fill:none;stroke:#4C2308;stroke-miterlimit:10;}
	.st8{fill:#AA6B07;}
	.st9{fill:none;stroke:#C98441;stroke-width:0.5;stroke-miterlimit:10;}
	.st10{fill:#E5AA17;}
	.st11{fill:#DB9D12;}
	.st12{fill:#FFB000;}
	.st13{fill:#EFAC06;}
	.st14{fill:#A8765D;}
	.st15{fill:#897F79;}
	.st16{fill:#868686;}
	.st17{fill:#191919;}
</style>
<g>
	<path class="st0" d="M195.4,181.9c-29.3-23.4-67.8-36.2-108.8-36.2S7.2,158.5-22,182c-29.1,23.4-45.2,54.3-45.2,87.1v176.4
		c0,3.1,3.2,5.6,6.9,5.6h293.6c3.9,0,6.9-2.5,6.9-5.6V269.1C240.4,236.2,224.4,205.2,195.4,181.9z"/>
	<path class="st1" d="M-91.6,651.5H245c1.3-0.3,2.5-1.3,3.5-2.4c1.4-1.7,2.1-4,2.1-6.4l-0.1-26.8c-0.1-49.5-15.7-96.2-44-131.4
		c-28.2-35-65.2-54.3-104.5-54.3c-0.2,0-0.3,0-0.5,0L53,430.4c-39.5,0.1-76.7,19.7-104.7,55.1S-95.1,567.7-95,617.2l0.1,26.8
		C-94.7,647.2-93.4,649.9-91.6,651.5z"/>
	<path class="st2" d="M250.6,615.9c-0.1-49.5-15.7-96.2-44-131.4c-28.2-35-65.2-54.3-104.5-54.3c-0.2,0-0.3,0-0.5,0L84,430.3
		c37.8,1.3,73.4,20.3,100.6,54.2c28.2,35.2,43.8,81.8,44,131.4l0.1,26.8c0,2.4-0.7,4.7-2.1,6.4c-0.9,1.1-2.1,2.1-3.5,2.4H245
		c1.3-0.3,2.5-1.3,3.5-2.4c1.4-1.7,2.1-4,2.1-6.4V615.9z"/>
	<g>
		<path id="XMLID_42_" class="st3" d="M251.4,616c-0.1-49.4-15.7-95.9-43.9-130.9c-8.5-10.6-17.9-19.8-27.9-27.4
			c0.4,1.9,0.5,3.8,0.5,5.7c0,34.1-50.9,61.7-113.6,61.7c-53.4,0-98-20-110.4-47c-2.3,2.5-4.4,5.1-6.6,7.8
			c-28,35.3-43.4,81.9-43.3,131.2l0.1,26.7c0.1,3.1,1.4,5.8,3.3,7.4h336.2c1.3-0.3,2.5-1.3,3.5-2.4c1.4-1.7,2.1-4,2.1-6.4L251.4,616
			L251.4,616z"/>
	</g>
	<path class="st4" d="M141.9,642.1c-25.5-6.7-52.1-27.6-73-57.9c-20.9-30.3-33-65.3-33.1-96c-0.1-15.7,1.5-31.4,4.5-46.6
		c0.6-2.7,0.1-5.8-1.3-8.1c-0.6-1-1.5-1.9-2.4-2.5c0.9-0.1,1.7-0.2,2.7-0.3c-34.9,4-67.4,23.8-92.5,56.6
		c-28,37-43.5,85.5-43.3,137.3l0.1,27h244C147.8,647,145.5,643,141.9,642.1z"/>
	<path class="st5" d="M39.3,433.7c1.4,2.3,1.8,5.3,1.3,8.1c-3.1,15.2-4.6,30.9-4.5,46.6c0.1,30.8,12.2,65.7,33.1,96
		c20.9,30.1,47.4,51.2,73,57.9c3.5,0.9,5.8,4.9,5.8,9.3h21.9c0-4.1-2.1-7.8-5.1-9c-0.2-0.1-0.5-0.1-0.6-0.2
		c-25.5-6.7-52.1-27.6-73-57.9c-20.9-30.3-33-65.3-33.1-96c0-15.8,1.6-31.5,4.5-46.6c0.6-2.8,0.1-5.8-1.3-8.1
		c-1.4-2.3-3.5-3.6-5.6-3.6h-3.4c-3.7,0-7.2,0.2-10.8,0.6c-0.2,0-0.3,0-0.5,0c-0.5,0-1,0.1-1.5,0.1c-0.9,0.1-1.7,0.2-2.7,0.3
		C37.8,431.7,38.6,432.6,39.3,433.7z"/>
	<line class="st6" x1="86.1" y1="610.3" x2="86.1" y2="610.1"/>
	<line class="st6" x1="85.3" y1="610.3" x2="85.3" y2="610.1"/>
	<path class="st7" d="M160.1,443.3c8.8,7.9,14.8,20.8,14.8,30.6c0,28.8-43.1,114.2-96.2,114.2s-96.2-85.4-96.2-114.2
		c0-9.9,7.2-22.8,15.9-30.6"/>
	<g>
		<path class="st8" d="M90.3,598c-0.2,0.1-0.4,0.1-0.6,0.1H69.9c-0.2,0-0.4-0.1-0.6-0.1c3-0.7,4.9-2.1,4.9-3.7s-2-3.7-4.9-4.4
			c0.2-0.1,0.4-0.1,0.6-0.1h19.8c0.2,0,0.4,0.1,0.6,0.1c-3,0.7-4.9,2.7-4.9,4.4S87.5,597.4,90.3,598z"/>
		<path class="st9" d="M66,586.4c2,5.3,7.2,9.3,13.5,9.3c6.7,0,12.4-4,14-9.8"/>
		<path class="st10" d="M89.5,598c-0.1,0.1-0.3,0.1-0.5,0.1H71c-0.2,0-0.4-0.1-0.5-0.1c2.7-0.7,4.5-2.1,4.5-3.7s-2.8-3.7-5.4-4.4
			c0.2-0.2,1.3-0.1,1.4-0.1h18c0.2,0,1.2-0.1,1.4,0.1c-2.7,0.7-5.4,2.7-5.4,4.4S86.8,597.4,89.5,598z"/>
		<path class="st8" d="M80,595c-14.2,0-25.9,11.7-25.9,26.2s11.6,26.2,25.9,26.2c14.3,0,25.9-11.7,25.9-26.2
			C105.8,606.7,94.3,595,80,595z M80,643c-11.9,0-21.5-9.7-21.5-21.8c0-12,9.6-21.8,21.5-21.8s21.5,9.7,21.5,21.8
			C101.4,633.2,91.8,643,80,643z"/>
		<ellipse class="st10" cx="79.9" cy="621.7" rx="25.9" ry="26.2"/>
		<ellipse class="st10" cx="79.9" cy="621.7" rx="25.9" ry="26.2"/>
		<ellipse class="st8" cx="79.9" cy="621.7" rx="21.5" ry="21.8"/>
		<ellipse class="st11" cx="79.9" cy="621.7" rx="18.5" ry="18.7"/>
		<g>
			<path class="st8" d="M73.3,598.7c0,0.7-0.5,1.2-1.2,1.2s-1.2-0.5-1.2-1.2c0-0.1,0-0.1,0-0.1c0.1-0.6,0.6-1.1,1.2-1.1
				C72.7,597.5,73.2,598,73.3,598.7L73.3,598.7z"/>
			<path class="st8" d="M81.8,597.3c0,0.7-0.5,1.2-1.2,1.2s-1.2-0.5-1.2-1.2c0-0.1,0-0.1,0-0.1c0.1-0.6,0.6-1.1,1.2-1.1
				c0.6,0,1.1,0.5,1.2,1.1C81.8,597.2,81.8,597.2,81.8,597.3z"/>
			<path class="st8" d="M89.8,598.5c0,0.7-0.5,1.2-1.2,1.2s-1.2-0.5-1.2-1.2c0-0.1,0-0.1,0-0.1c0.1-0.6,0.6-1.1,1.2-1.1
				S89.7,597.8,89.8,598.5L89.8,598.5z"/>
			<path class="st12" d="M73.3,598.6c-0.1,0.6-0.6,1.1-1.2,1.1c-0.6,0-1.1-0.5-1.2-1.1c0.1-0.6,0.6-1.1,1.2-1.1S73.1,598,73.3,598.6
				z"/>
			<path class="st12" d="M81.8,597.1c-0.1,0.6-0.6,1.1-1.2,1.1s-1.1-0.5-1.2-1.1c0.1-0.6,0.6-1.1,1.2-1.1
				C81.1,596.1,81.6,596.5,81.8,597.1z"/>
			<path class="st12" d="M89.8,598.4c-0.1,0.6-0.6,1.1-1.2,1.1c-0.6,0-1.1-0.5-1.2-1.1c0.1-0.6,0.6-1.1,1.2-1.1
				S89.6,597.8,89.8,598.4z"/>
		</g>
		<ellipse class="st13" cx="79.9" cy="621.7" rx="14.7" ry="14.9"/>
	</g>
	<path class="st1" d="M-30.9,306.2c-0.1,0-0.1,0-0.2,0c-21.3,0.1-38.5,17.6-38.5,39.2c0,10.4,4.1,20.3,11.4,27.5
		c7.3,7.3,12.9,11.3,27.2,11.3h0.2c21.3-0.1,38.5-17.6,38.5-39.2C7.5,323.7-9.6,306.2-30.9,306.2z"/>
	<path class="st14" d="M206.3,294.7c-0.1,0-0.1,0-0.2,0c-22.6,0.1-40.9,18.7-40.9,41.6c0,11,4.2,21.5,12.1,29.2
		c7.8,7.8,18,12,28.9,12h0.2c22.6-0.1,40.9-18.7,40.9-41.6C247.1,313.1,228.9,294.7,206.3,294.7z"/>
	<path class="st1" d="M203.8,258.7c-0.2-29.8-11.8-49.5-35.9-60.4c-21.5-9.9-50.9-11-79.3-11c-28.4,0.1-57.7,1.5-79.2,11.5
		c-23.9,11-35.5,30.9-35.4,60.6l0.3,95.5c0,62.4,51.5,112.8,114.7,112.8h0.3c63.4-0.2,114.8-51.2,114.6-113.6L203.8,258.7z"/>
	<path class="st15" d="M85.4,414.2c-9.5,0-18.7-3.5-25.7-10.1c-3.1-2.9-3.3-7.8-0.5-10.9s7.7-3.3,10.8-0.5c4.1,3.9,9.6,6,15.3,6h0.1
		c5.7,0,11.2-2.2,15.3-6.1c3.1-3,8-2.8,10.8,0.4c3,3.1,2.8,8.1-0.4,10.9C104.3,410.4,95.1,414.1,85.4,414.2
		C85.5,414.2,85.4,414.2,85.4,414.2z"/>
	<path class="st16" d="M54.8,342.3c0-6.8-5.5-12.3-12.3-12.3c-6.7,0-12.2,5.6-12.2,12.4s5.5,12.3,12.3,12.3S54.8,349.1,54.8,342.3z"
		/>
	<path class="st16" d="M140.8,342c0-6.8-5.5-12.3-12.3-12.3s-12.2,5.6-12.2,12.4s5.5,12.3,12.3,12.3
		C135.5,354.4,140.9,348.9,140.8,342z"/>
	<path class="st2" d="M203.8,258.7c-0.2-29.8-11.8-49.5-35.9-60.4c-21.5-9.9-50.9-11-79.3-11c-2.7,0-5.3,0-8,0.1
		c24.6,0.4,48.9,2.5,67.7,11c24,10.9,35.8,30.7,35.9,60.4l0.3,95.5c0.2,59.3-46,108.2-105,113.2c3.3,0.3,6.5,0.4,9.9,0.4h0.3
		c63.3-0.2,114.7-51.2,114.5-113.5L203.8,258.7z"/>
	<ellipse class="st15" cx="11.9" cy="392.3" rx="2.7" ry="2.6"/>
	<ellipse class="st15" cx="27.6" cy="392.3" rx="2.7" ry="2.6"/>
	<ellipse class="st15" cx="19.3" cy="404.8" rx="2.7" ry="2.6"/>
	<ellipse class="st15" cx="139.8" cy="392.3" rx="2.7" ry="2.6"/>
	<ellipse class="st15" cx="155.6" cy="392.3" rx="2.7" ry="2.6"/>
	<ellipse class="st15" cx="147.3" cy="404.8" rx="2.7" ry="2.6"/>
	
		<ellipse transform="matrix(-0.9719 -0.2352 0.2352 -0.9719 -129.6903 595.1322)" class="st17" cx="-29.4" cy="305.3" rx="23.6" ry="19.6"/>
	
		<ellipse transform="matrix(-0.9719 -0.2352 0.2352 -0.9719 -134.9699 587.1532)" class="st0" cx="-32.5" cy="301.6" rx="23.6" ry="19.6"/>
	
		<ellipse transform="matrix(-0.9715 -0.237 0.237 -0.9715 -91.6129 527.0318)" class="st17" cx="-14.1" cy="269" rx="36.4" ry="30.1"/>
	
		<ellipse transform="matrix(-0.9715 -0.237 0.237 -0.9715 -99.0569 515.017)" class="st0" cx="-18.6" cy="263.5" rx="36.4" ry="30.1"/>
	
		<ellipse transform="matrix(-0.2372 -0.9715 0.9715 -0.2372 -55.4319 570.8608)" class="st17" cx="196.4" cy="307.2" rx="20.8" ry="25.1"/>
	
		<ellipse transform="matrix(-0.2372 -0.9715 0.9715 -0.2372 -47.9098 569.1683)" class="st0" cx="199.5" cy="303.4" rx="20.8" ry="25.1"/>
	
		<ellipse transform="matrix(-0.237 -0.9715 0.9715 -0.237 -34.2543 514.4722)" class="st17" cx="184.9" cy="270.7" rx="30.1" ry="36.4"/>
	
		<ellipse transform="matrix(-0.237 -0.9715 0.9715 -0.237 -28.0553 504.5409)" class="st0" cx="184.1" cy="263.3" rx="30.1" ry="36.4"/>
	<ellipse class="st17" cx="171.9" cy="229.2" rx="54.3" ry="43.7"/>
	<ellipse class="st0" cx="168.8" cy="221.9" rx="54.3" ry="43.7"/>
	<ellipse class="st17" cx="-0.1" cy="229.6" rx="49" ry="39.4"/>
	<ellipse class="st0" cx="-2" cy="229" rx="49" ry="39.4"/>
	<ellipse class="st17" cx="79.3" cy="217.7" rx="88.9" ry="59"/>
	<ellipse class="st0" cx="84.9" cy="210.7" rx="88.9" ry="55.7"/>
	<path class="st0" d="M45.8,306.7c8.6,0,16.8,1.6,23,4.5c2.7,1.2,2.9,3.4,0.4,4.7c-2.5,1.3-6.6,1.4-9.3,0.2
		c-3.9-1.8-8.9-2.8-14.1-2.8l0,0c-5.3,0-10.3,1-14.2,2.8c-2.7,1.2-6.8,1.1-9.3-0.2c-2.5-1.3-2.3-3.4,0.4-4.7
		C28.9,308.3,37.1,306.6,45.8,306.7L45.8,306.7z"/>
	<path class="st0" d="M127.8,306.7c8.6,0,16.8,1.6,23,4.5c2.7,1.2,2.9,3.4,0.4,4.7c-2.5,1.3-6.6,1.4-9.3,0.2
		c-3.9-1.8-8.9-2.8-14.1-2.8h-0.1c-5.3,0-10.3,1-14.2,2.8c-2.7,1.2-6.8,1.1-9.3-0.2c-2.5-1.3-2.3-3.4,0.4-4.7
		C110.9,308.3,119.1,306.6,127.8,306.7C127.6,306.7,127.8,306.7,127.8,306.7z"/>
</g>
</svg>
