<?xml version="1.0" encoding="utf-8"?>
<!-- Generator: Adobe Illustrator 19.0.0, SVG Export Plug-In . SVG Version: 6.00 Build 0)  -->
<svg version="1.1" id="Layer_1" xmlns="http://www.w3.org/2000/svg" xmlns:xlink="http://www.w3.org/1999/xlink" x="0px" y="0px"
	 viewBox="-114 142.3 383 508.7" style="enable-background:new -114 142.3 383 508.7;" xml:space="preserve">
<style type="text/css">
	.st0{fill:#232323;}
	.st1{fill:#BC8E79;}
	.st2{fill:#A06E5A;}
	.st3{fill:#6896AA;}
	.st4{fill:#FFF4F1;}
	.st5{fill:#891272;}
	.st6{fill:none;stroke:#4C2308;stroke-miterlimit:10;}
	.st7{fill:#AA6B07;}
	.st8{fill:none;stroke:#C98441;stroke-width:0.5;stroke-miterlimit:10;}
	.st9{fill:#E5AA17;}
	.st10{fill:#DB9D12;}
	.st11{fill:#FFB000;}
	.st12{fill:#EFAC06;}
	.st13{fill:#897F79;}
	.st14{fill:#868686;}
</style>
<title>teen</title>
<circle class="st0" cx="81.1" cy="281.7" r="124.7"/>
<path class="st1" d="M-78.5,651h310.7c1.3-0.4,2.4-1.2,3.2-2.2c1.3-1.7,2-3.7,1.9-5.8l-0.1-24.5c-0.1-45.2-14.5-87.7-40.6-119.8
	s-60.2-49.5-96.5-49.5h-0.4l-44.8,0.2c-36.4,0.1-70.8,18-96.7,50.3s-40.1,74.9-40,120.1l0.1,24.5C-81.5,646.9-80.4,649.3-78.5,651z"
	/>
<path class="st2" d="M237.3,618.5c-0.1-45.2-14.5-87.7-40.6-119.8s-60.2-49.5-96.5-49.5h-0.4l-16.2,0.1
	c34.9,1.1,67.8,18.5,92.9,49.4c26,32.1,40.4,74.6,40.6,119.8l0.1,24.5c0,2.1-0.6,4.2-1.9,5.8c-0.8,1.1-1.9,1.8-3.2,2.2h20.2
	c1.3-0.4,2.4-1.2,3.2-2.2c1.3-1.7,2-3.7,1.9-5.8L237.3,618.5z"/>
<path class="st3" d="M238,618.7c-0.1-45-14.5-87.4-40.5-119.4c-7.6-9.3-16.2-17.7-25.8-25c0.3,1.7,0.4,3.4,0.4,5.2
	c0,31.1-47,56.3-104.8,56.3c-49.2,0-90.5-18.3-101.8-42.8c-2.1,2.3-4.1,4.7-6.1,7.1c-25.8,32.2-40,74.7-39.9,119.7l0.1,24.4
	c0,2.6,1.1,5,3,6.7H233c1.2-0.4,2.3-1.2,3.2-2.2c1.3-1.7,2-3.7,1.9-5.8L238,618.7L238,618.7z"/>
<path class="st4" d="M136.9,642.4c-23.5-6.1-48.1-25.2-67.4-52.8S39.1,530.1,39,502.1c-0.1-14.3,1.3-28.5,4.2-42.5
	c0.5-2.5,0.1-5.1-1.2-7.4c-0.5-0.9-1.3-1.7-2.2-2.3l2.4-0.3c-32.1,3.7-62,21.7-85.3,51.7c-25.9,33.7-40.2,78-40,125.2l0.1,24.6
	h225.2C142.5,646.9,140.1,643.2,136.9,642.4z"/>
<path class="st5" d="M42.3,452.3c1.3,2.2,1.7,4.9,1.2,7.4c-2.9,14-4.3,28.2-4.2,42.5c0.1,28.1,11.2,59.9,30.5,87.5
	c19.3,27.6,43.8,46.7,67.4,52.8c3.2,0.8,5.4,4.5,5.4,8.5h20.1c0-3.7-1.9-7.2-4.7-8.2c-0.2-0.1-0.4-0.1-0.6-0.2
	c-23.5-6.1-48.1-25.2-67.4-52.8s-30.4-59.5-30.6-87.5c0-14.3,1.4-28.5,4.2-42.5c0.5-2.5,0.1-5.1-1.2-7.4c-1-1.9-3-3.2-5.2-3.3h-3.1
	c-3.4,0-6.6,0.2-9.9,0.5h-0.4c-0.4,0-0.9,0.1-1.4,0.1L40,450C40.9,450.6,41.6,451.4,42.3,452.3z"/>
<path class="st6" d="M153.8,461.1c8.1,7.2,13.7,19,13.7,28c0,26.3-39.8,104.1-88.8,104.1s-88.8-77.9-88.8-104.1
	c0-9,6.6-20.8,14.7-28"/>
<path class="st7" d="M89.4,602.2c-0.2,0.1-0.3,0.1-0.5,0.1H70.6c-0.2,0-0.4,0-0.5-0.1c2.7-0.6,4.5-1.9,4.5-3.4s-1.9-3.4-4.5-4
	c0.2-0.1,0.3-0.1,0.5-0.1h18.2c0.2,0,0.4,0,0.5,0.1c-2.7,0.6-4.6,2.5-4.6,4S86.8,601.6,89.4,602.2z"/>
<path class="st8" d="M66.9,591.7c2,5.2,7,8.5,12.5,8.5c6.2,0,11.4-3.6,12.9-8.9"/>
<path class="st9" d="M88.6,602.2c-0.1,0.1-0.3,0.1-0.5,0.1H71.5c-0.2,0-0.3,0-0.5-0.1c2.5-0.6,4.1-1.9,4.1-3.4s-2.5-3.4-5-4
	c0.2-0.2,1.1-0.1,1.3-0.1H88c0.2,0,1.1-0.1,1.3,0.1c-2.5,0.6-5,2.5-5,4S86.1,601.6,88.6,602.2z"/>
<path class="st7" d="M79.8,599.5c-13.2,0-23.8,10.7-23.8,23.9c0,13.2,10.7,23.8,23.9,23.8s23.8-10.7,23.8-23.9
	C103.6,610.2,92.9,599.5,79.8,599.5L79.8,599.5z M79.8,643.2c-11,0-19.8-8.9-19.8-19.9s8.9-19.8,19.9-19.8s19.8,8.9,19.8,19.8
	C99.6,634.3,90.8,643.2,79.8,643.2L79.8,643.2L79.8,643.2z"/>
<ellipse transform="matrix(-0.9871 -0.1602 0.1602 -0.9871 58.4226 1252.4169)" class="st9" cx="79.7" cy="623.9" rx="23.8" ry="23.9"/>
<ellipse transform="matrix(-0.9871 -0.1602 0.1602 -0.9871 58.4226 1252.4169)" class="st9" cx="79.7" cy="623.9" rx="23.8" ry="23.9"/>
<ellipse transform="matrix(-0.9871 -0.1602 0.1602 -0.9871 58.4226 1252.4169)" class="st7" cx="79.7" cy="623.9" rx="19.8" ry="19.9"/>
<circle class="st10" cx="79.6" cy="623.8" r="17.1"/>
<path class="st7" d="M73.6,602.9c-0.1,0.6-0.6,1.1-1.2,1c-0.5-0.1-0.9-0.5-1-1v-0.1c0.1-0.6,0.6-1,1.2-1c0.5,0.1,0.9,0.5,1,1
	C73.4,602.8,73.4,602.8,73.6,602.9z"/>
<path class="st7" d="M81.3,601.5c0.1,0.6-0.4,1.2-1,1.2s-1.2-0.4-1.2-1c0-0.1,0-0.1,0-0.2v-0.1c0.1-0.6,0.6-1,1.2-0.9
	c0.5,0.1,0.9,0.5,0.9,0.9C81.3,601.4,81.3,601.5,81.3,601.5z"/>
<path class="st7" d="M88.8,602.7c0,0.6-0.5,1.1-1.1,1.1s-1.1-0.5-1.1-1.1v-0.1c0.1-0.6,0.6-1,1.2-0.9c0.5,0.1,0.9,0.5,0.9,0.9
	C88.8,602.6,88.8,602.6,88.8,602.7z"/>
<path class="st11" d="M73.4,602.7c0.1,0.6-0.4,1.1-1,1.2c-0.6,0.1-1.1-0.4-1.2-1c-0.1-0.6,0.4-1.1,1-1.2h0.1
	C72.9,601.7,73.4,602.2,73.4,602.7z"/>
<path class="st11" d="M81.3,601.4c0.1,0.6-0.4,1.1-1,1.2c-0.6,0.1-1.1-0.4-1.2-1c-0.1-0.6,0.4-1.1,1-1.2h0.1
	C80.8,600.4,81.3,600.8,81.3,601.4z"/>
<path class="st11" d="M88.8,602.6c0.1,0.6-0.4,1.1-1,1.2s-1.1-0.4-1.2-1c-0.1-0.6,0.4-1.1,1-1.2h0.1C88.1,601.6,88.6,602,88.8,602.6
	z"/>
<circle class="st12" cx="79.6" cy="623.8" r="13.5"/>
<path class="st1" d="M-29.5,334.9L-29.5,334.9c-19.8,0.1-35.7,16.1-35.6,35.8c0,9.4,3.7,18.5,10.5,25.1c6.8,6.7,11.9,10.3,25.1,10.3
	h0.1c19.7,0,35.6-16,35.6-35.6S-9.9,334.9-29.5,334.9L-29.5,334.9L-29.5,334.9z"/>
<path class="st1" d="M189.3,324.4L189.3,324.4c-21,0.1-37.9,17.1-37.8,37.9c0,10,4,19.6,11.1,26.7c7.1,7.1,16.7,11,26.7,11h0.1
	c20.9,0,37.8-17,37.8-37.8C227.2,341.4,210.3,324.4,189.3,324.4L189.3,324.4z"/>
<path class="st1" d="M187,295.2c-0.1-28.7-10.9-47.7-33.1-58.2c-19.9-9.5-47-10.6-73.2-10.6s-53.3,1.4-73.1,11
	C-14.5,248-25.1,267.2-25,295.7l0.3,91.9c0.2,60,47.7,108.6,105.9,108.6h0.3c58.5-0.2,105.9-49.3,105.8-109.4L187,295.2z"/>
<path class="st13" d="M77.8,449.2c-8.8,0-17.3-3.3-23.7-9.3c-2.9-2.6-3.1-7.1-0.5-10s7.1-3.1,10-0.5l0,0c3.9,3.6,8.9,5.5,14.2,5.5
	h0.1c5.3,0,10.3-2,14.2-5.6c2.8-2.7,7.3-2.5,10,0.4c2.7,2.8,2.5,7.3-0.4,10C95.3,445.8,86.8,449.1,77.8,449.2
	C77.9,449.2,77.8,449.2,77.8,449.2z"/>
<path class="st14" d="M49.4,383.7c0-6.2-5.1-11.3-11.3-11.2c-6.2,0-11.3,5.1-11.2,11.3S32,395.1,38.2,395l0,0
	C44.4,394.9,49.4,389.9,49.4,383.7z"/>
<path class="st0" d="M51.4,365.8c-0.6,0-1.2-0.1-1.8-0.3l-26.6-7c-3.8-0.9-6.1-4.7-5.2-8.5c0.9-3.8,4.7-6.1,8.5-5.2
	c0.1,0,0.2,0,0.3,0.1l26.6,7c3.8,1,6,4.9,5.1,8.6C57.4,363.7,54.6,365.8,51.4,365.8L51.4,365.8z"/>
<path class="st14" d="M129.1,383.4c0-6.2-5.1-11.3-11.3-11.2c-6.2,0-11.3,5.1-11.2,11.3s5.1,11.3,11.3,11.2l0,0
	c6.2,0,11.2-4.9,11.2-11.1C129.1,383.6,129.1,383.5,129.1,383.4z"/>
<path class="st0" d="M104.4,365.6c-3.9,0-7.1-3.2-7.1-7.1c0-3.2,2.1-6,5.2-6.8l26.6-7.2c3.8-1,7.7,1.2,8.7,4.9
	c1,3.8-1.2,7.7-4.9,8.7l-26.6,7.2C105.6,365.5,105.1,365.6,104.4,365.6z"/>
<path class="st2" d="M187,295.2c-0.1-28.7-10.9-47.7-33.1-58.2c-19.9-9.5-47-10.6-73.2-10.6c-2.5,0-4.9,0-7.4,0.1
	c22.7,0.4,45.1,2.4,62.5,10.6c22.1,10.5,33,29.5,33.1,58.2l0.3,91.9c0.2,57-42.5,104.1-96.9,108.9c3,0.3,6,0.4,9.1,0.4h0.3
	c58.5-0.2,105.8-49.2,105.6-109.2L187,295.2z"/>
<ellipse class="st13" cx="10" cy="413.4" rx="2.4" ry="2.4"/>
<ellipse class="st13" cx="24.5" cy="413.4" rx="2.4" ry="2.4"/>
<ellipse class="st13" cx="16.9" cy="424.8" rx="2.4" ry="2.4"/>
<ellipse class="st13" cx="128.1" cy="413.4" rx="2.4" ry="2.4"/>
<ellipse class="st13" cx="142.6" cy="413.4" rx="2.4" ry="2.4"/>
<ellipse class="st13" cx="134.9" cy="424.8" rx="2.4" ry="2.4"/>
<path class="st0" d="M83.6,292.6c0.8,1.2,0.4,2.8-0.8,3.6l0,0l0,0c-9.7,5.8-24.7-1.2-33.3-15.6L41,266.4c-0.8-1.2-0.4-2.8,0.9-3.6
	l0,0l15.4-9.2c1.2-0.8,2.8-0.4,3.6,0.8l0,0c1.6,7.2,4.4,14.1,8.1,20.4C72.8,281.6,77.6,287.6,83.6,292.6z"/>
<path class="st0" d="M-40.9,296.8c-0.8,1.6,0.5,3.4,2.8,3.8l0,0c18,4.1,39.8-7.7,48.7-26.1l8.6-18.2c0.8-1.6-0.5-3.3-2.8-3.8
	l-28.5-6.4c-2.3-0.6-4.9,0.3-5.6,1.9c0,8.7-2,17.3-5.8,25.1C-28.2,283.8-35.5,291.7-40.9,296.8z"/>
<path class="st0" d="M154.5,293.2c1.6,2.2,1.2,5.2-1,6.8c-0.1,0.1-0.2,0.1-0.3,0.2l0,0c-18.9,12.7-50.6,1.3-70.4-25.3l-19.6-26.1
	c-1.6-2.2-1.2-5.2,1-6.8c0.1-0.1,0.2-0.1,0.2-0.2l29.9-20.1c2.4-1.6,5.7-1.1,7.5,1.2c4.5,13.7,11.2,26.6,19.8,38.3
	C130.8,273.5,141.9,284.3,154.5,293.2z"/>
<path class="st0" d="M-8.2,331.9c0.5,0.7,0.3,1.6-0.3,2.1l0,0c-5.3,5.2-14.4,4.5-20.3-1.5l-5.8-5.9c-0.5-0.7-0.3-1.6,0.3-2.1
	l8.3-8.2c0.5-0.7,1.5-0.8,2.1-0.3C-21,323.2-15.4,329-8.2,331.9L-8.2,331.9z"/>
<path class="st0" d="M0,316.1c0.6,0.8,0.5,2-0.4,2.7l0,0c-6.4,6.7-17.9,6.2-25.5-1.1l-7.4-7.2c-0.6-0.9-0.5-2,0.4-2.7l10.3-10.6
	c0.8-0.9,2.1-1.1,2.6-0.4c1.8,4.3,4.4,8.2,7.7,11.5C-8.7,311.7-4.6,314.4,0,316.1z"/>
<path class="st0" d="M189.2,265.3c-2.7-7.5-3.6-15.5-2.7-23.4c-0.5-1.5-2.8-2.1-5-1.6l-26.9,7.7c-2.2,0.7-3.5,2.3-3,3.8l6.2,16.7
	c6.3,16.9,25.2,26.9,42.2,22l0,0c2.2-0.7,3.5-2.3,3-3.8C196.8,280.7,192.2,273.4,189.2,265.3z"/>
<path class="st0" d="M165.3,329c-0.9,0.7-0.9,2.2,0.1,3.4l0,0c7.2,9.1,21.6,9.9,31.9,1.8l10.1-8c0.9-0.7,0.9-2.2-0.1-3.4l-11.4-14.5
	c-1-1.2-2.4-1.5-3.3-0.9C187,318.2,177,326,165.3,329L165.3,329z"/>
<ellipse class="st0" cx="77.9" cy="182.7" rx="70.3" ry="28.5"/>
<ellipse class="st0" cx="16.3" cy="192.9" rx="24.2" ry="19.6"/>
<ellipse class="st0" cx="72.3" cy="241.7" rx="97.3" ry="34"/>
</svg>
