<?xml version="1.0" encoding="utf-8"?>
<!-- Generator: Adobe Illustrator 23.1.0, SVG Export Plug-In . SVG Version: 6.00 Build 0)  -->
<svg version="1.1" id="Layer_1" xmlns="http://www.w3.org/2000/svg" xmlns:xlink="http://www.w3.org/1999/xlink" x="0px" y="0px"
	 viewBox="0 0 383 508.7" style="enable-background:new 0 0 383 508.7;" xml:space="preserve">
<style type="text/css">
	.st0{fill:#9B3710;}
	.st1{fill:#842610;}
	.st2{fill:#F0BCA6;}
	.st3{fill:#E2A58A;}
	.st4{fill:#E27A84;}
	.st5{clip-path:url(#SVGID_2_);fill:#9E4653;}
	.st6{fill:#F8A814;}
	.st7{fill:#F8B53C;}
	.st8{fill:#F9CD45;}
	.st9{fill:#934161;}
	.st10{fill:#F4F0EF;}
	.st11{fill:#E6B09A;}
	.st12{fill:#868686;}
	.st13{fill:#4C350C;}
	.st14{fill:#825308;}
	.st15{clip-path:url(#SVGID_4_);fill:#9E4653;}
	.st16{fill:none;}
	.st17{fill:#F77B5E;}
	.st18{fill:#891272;}
	.st19{fill:none;stroke:#4C2308;stroke-miterlimit:10;}
	.st20{fill:#AA6B07;}
	.st21{fill:none;stroke:#C98441;stroke-width:0.5;stroke-miterlimit:10;}
	.st22{fill:#E5AA17;}
	.st23{fill:#DB9D12;}
	.st24{fill:#FFB000;}
	.st25{fill:#EFAC06;}
	.st26{fill:#E5A589;}
	.st27{fill:#E0A632;}
</style>
<path class="st0" d="M-3741.5,1112.3c-28.6-18.6-66.5-28.7-106.7-28.7s-78,10.2-106.7,28.7c-28.6,18.6-44.4,43.1-44.4,69.1v139.8
	c0,2.4,3.1,4.4,6.8,4.4h288.3c3.8,0,6.8-2,6.8-4.4v-139.8C-3697.3,1155.3-3713,1130.8-3741.5,1112.3z"/>
<ellipse class="st1" cx="-3962.9" cy="1322.5" rx="38.9" ry="33.2"/>
<ellipse class="st1" cx="-3733.7" cy="1321.7" rx="38.9" ry="33.2"/>
<path class="st2" d="M-3959.9,1233.4c-0.1,0-0.1,0-0.2,0c-25.4,0.1-46.1,20.8-46,46.3c0,12.3,4.9,23.9,13.6,32.6
	s20.3,13.4,32.5,13.4h0.2c25.4-0.1,46.1-20.8,46-46.3S-3934.6,1233.4-3959.9,1233.4z"/>
<path class="st2" d="M-3677.8,1520.4c-0.1-39.6-15.8-76.9-44-104.9s-65.4-43.4-104.7-43.4c-0.2,0-0.3,0-0.5,0l-48.7,0.2
	c-39.6,0.1-76.9,15.8-104.9,44c-28.1,28.2-43.5,65.6-43.4,105.2l0.1,18.6c0,3.7,3.1,6.8,6.8,6.8h332.5c1.8,0,3.5-0.7,4.8-2
	s2-3,2-4.8L-3677.8,1520.4z"/>
<path class="st3" d="M-3677.8,1520.4c-0.1-39.6-15.8-76.9-44-104.9s-65.4-43.4-104.7-43.4c-0.2,0-0.3,0-0.5,0l-16.7,0.1
	c37.9,1,73.7,16.2,100.9,43.3c28.2,28.1,43.9,65.4,44,104.9l0.1,19.6c0,1.8-0.7,3.5-2,4.8s-3,2-4.8,2h20.9c1.8,0,3.5-0.7,4.8-2
	s2-3,2-4.8V1520.4z"/>
<g>
	<g>
		<path id="XMLID_2_" class="st4" d="M-3677.9,1523.3c-0.1-39.3-15.8-76.3-44-104.2c-8.4-8.3-17.7-15.5-27.5-21.5
			c-7,27.3-36.5,49.3-75,56.3c-8.6,1.6-17.6,2.4-26.9,2.4c-9.2,0-18.1-0.8-26.7-2.4c-38.3-7-67.9-28.8-75.1-55.9
			c-10,6.1-19.1,13.4-27.6,21.8c-28.1,28.1-43.5,65.2-43.4,104.5l0.1,21.3c0.1,2.4,1.4,4.6,3.3,5.9h337.3c1.3-0.3,2.4-1,3.4-1.9
			c1.4-1.4,2.1-3.2,2.1-5.1L-3677.9,1523.3z"/>
	</g>
	<g>
		<g>
			<g>
				<g>
					<g>
						<g>
							<defs>
								<path id="SVGID_1_" d="M-3677.9,1523.3c-0.1-39.3-15.8-76.3-44-104.2c-8.4-8.3-17.7-15.5-27.5-21.5
									c-7,27.3-36.5,49.3-75,56.3c-8.6,1.6-17.6,2.4-26.9,2.4c-9.2,0-18.1-0.8-26.7-2.4c-38.3-7-67.9-28.8-75.1-55.9
									c-10,6.1-19.1,13.4-27.6,21.8c-28.1,28.1-43.5,65.2-43.4,104.5l0.1,21.3c0.1,2.4,1.4,4.6,3.3,5.9h337.3
									c1.3-0.3,2.4-1,3.4-1.9c1.4-1.4,2.1-3.2,2.1-5.1L-3677.9,1523.3z"/>
							</defs>
							<clipPath id="SVGID_2_">
								<use xlink:href="#SVGID_1_"  style="overflow:visible;"/>
							</clipPath>
							<path class="st5" d="M-3676.9,1523.8c-0.1-39.3-15.8-76.3-44-104.2c-28.2-27.8-65.4-43.1-104.7-43.1c-0.2,0-0.3,0-0.5,0
								l-17.6,0.1c37.9,1,73.6,16.1,100.9,43c28.2,27.9,43.8,64.9,44,104.2l0.1,21.3c0,1.9-0.7,3.7-2.1,5.1
								c-0.9,0.9-2.1,1.6-3.4,1.9h22c1.3-0.3,2.4-1,3.4-1.9c1.4-1.4,2.1-3.2,2.1-5.1L-3676.9,1523.8z"/>
						</g>
					</g>
				</g>
			</g>
		</g>
	</g>
</g>
<g>
	<path class="st6" d="M-3878.1,1534.8c-0.1-0.3-0.1-0.5-0.1-0.7c0.1-1,1.1-1.7,2.1-1.6c10,0.5,20.5-0.7,30.9-3.6
		c8.4-2.4,16.8-5.7,25.1-10.1c14-7.5,22.8-15.3,22.9-15.4c0.8-0.7,2-0.7,2.7-0.1s0.6,1.8-0.1,2.4c-0.4,0.4-9.2,8.2-23.7,15.9
		c-8.5,4.5-17.3,8.1-25.9,10.5c-10.9,3-21.7,4.3-32.1,3.7C-3877.3,1535.8-3877.9,1535.4-3878.1,1534.8z"/>
	<path class="st7" d="M-3792.6,1522.4c0.8-0.4,1.2-1.2,1.1-2c-0.1-0.3-1.4-6.5-6.5-8.6c-2.4-1-4.7-1.2-6.6-0.7
		c-1.9,0.5-3.4,1.7-4.3,3.4c-0.8,1.5-0.9,3.1-0.5,4.5c0.1,0.2,0.2,0.4,0.3,0.6c0.8,1.6,2.4,3,4.9,3.9
		C-3799.2,1525.8-3792.9,1522.7-3792.6,1522.4z"/>
	<path class="st8" d="M-3804.2,1513c1.4-1.4,2.3-3.3,2.6-5.9c0.6-5.3-4.3-9.5-4.5-9.7c-0.6-0.5-1.5-0.5-2.4-0.1
		c-0.3,0.2-6.2,4-6.9,9.1c-0.2,1.8-0.1,3.3,0.4,4.6c0.2,0.5,0.5,1,0.7,1.4c1.1,1.4,2.7,2.4,4.7,2.4
		C-3807.5,1515.2-3805.6,1514.4-3804.2,1513z"/>
	<path class="st8" d="M-3807.8,1531.2c0.8-0.4,1.2-1.2,1.1-2c-0.1-0.3-1.4-6.5-6.5-8.6c-2.4-1-4.7-1.2-6.6-0.7
		c-1.9,0.5-3.4,1.7-4.3,3.4c-0.8,1.5-0.9,3.1-0.5,4.5c0.1,0.2,0.2,0.4,0.3,0.6c0.8,1.6,2.4,3,4.9,3.9
		C-3814.4,1534.4-3808.1,1531.3-3807.8,1531.2z"/>
	<path class="st7" d="M-3819.4,1521.8c1.4-1.4,2.3-3.3,2.6-5.9c0.6-5.3-4.3-9.5-4.5-9.7c-0.6-0.5-1.5-0.5-2.4-0.1
		c-0.3,0.2-6.2,4-6.9,9.1c-0.2,1.8-0.1,3.3,0.4,4.6c0.2,0.5,0.5,1,0.7,1.4c1.1,1.4,2.7,2.4,4.7,2.4
		C-3822.7,1523.8-3820.8,1523.3-3819.4,1521.8z"/>
	<path class="st7" d="M-3825.8,1537.8c0-0.3-0.2-6.8-4.7-9.6c-2.2-1.4-4.3-2-6.3-1.8s-3.7,1.2-4.9,2.7s-1.6,3.3-1.1,5.1
		c0,0.2,0.1,0.3,0.1,0.5c0.5,1.6,1.9,3.1,3.9,4.3c4.5,2.9,11.3,0.8,11.7,0.7C-3826.4,1539.4-3825.8,1538.7-3825.8,1537.8z"/>
	<g>
		<path class="st8" d="M-3836.7,1528.4c1.6-1.2,2.9-3,3.7-5.4c1.6-5.2-2.4-10.1-2.5-10.4c-0.5-0.6-1.4-0.8-2.3-0.5
			c-0.3,0.1-6.8,2.9-8.4,8.1c-0.7,2.3-0.8,4.3-0.2,5.8c0.1,0.1,0.1,0.3,0.2,0.4c0.7,1.6,2.2,2.7,4.2,3.2
			C-3840.2,1529.9-3838.3,1529.5-3836.7,1528.4z"/>
		<path class="st8" d="M-3846.9,1545.3c0.1-0.3,1.2-6.8-2.7-10.3c-1.8-1.7-3.8-2.7-5.8-2.8c-1.9-0.2-3.8,0.5-5.3,1.9
			c-1.4,1.4-2.3,3.1-2.1,4.9c0,0.5,0.2,1.1,0.4,1.6c0.5,1.3,1.4,2.5,2.6,3.7c3.9,3.6,10.9,2.6,11.1,2.6
			C-3847.8,1546.8-3847.1,1546-3846.9,1545.3z"/>
		<path class="st8" d="M-3855.7,1534c1.8-0.9,3.3-2.4,4.6-4.8c2.6-4.8-0.4-10.5-0.5-10.8c-0.4-0.7-1.3-1.1-2.1-0.8
			c-0.3,0.1-7.2,1.7-9.8,6.6c-1.3,2.4-1.6,4.4-1.3,6.2c0.1,0.2,0.1,0.5,0.2,0.6c0.5,1.4,1.6,2.5,3.3,3.2
			C-3859.4,1534.9-3857.5,1534.8-3855.7,1534z"/>
		<path class="st8" d="M-3785.5,1503.9c4.2-3.8,3.5-10.2,3.5-10.5c-0.1-0.8-0.7-1.4-1.6-1.4c-0.3,0-7.2-0.5-11.4,3.3
			c-2,1.8-3.2,3.7-3.4,5.5c-0.2,0.9-0.1,1.8,0.3,2.6c0.3,0.8,0.8,1.5,1.4,2.2c1.4,1.3,3.3,1.8,5.2,1.5
			C-3789.5,1506.8-3787.5,1505.8-3785.5,1503.9z"/>
	</g>
</g>
<path class="st9" d="M-3893.7,1377.5c1.4,1.8,1.8,4.3,1.3,6.4c-3.1,12.1-4.6,24.6-4.5,37.1c0.1,24.5,12.1,52.3,33,76.4
	c20.8,24,47.3,40.7,72.7,46.1c3.4,0.7,5.8,3.9,5.8,7.4h21.8c0-3.3-2.1-6.2-5.1-7.2c-0.2-0.1-0.5-0.1-0.6-0.2
	c-25.3-5.3-51.9-22-72.7-46.1s-32.9-52-33-76.4c0-12.6,1.5-25.1,4.5-37.1c0.5-2.3,0.1-4.6-1.3-6.4c-1.4-1.8-3.4-2.9-5.6-2.9h-3.3
	c-3.6,0-7.2,0.2-10.7,0.5c-0.2,0-0.3,0-0.5,0c-0.5,0-1,0.1-1.4,0.1c-0.9,0.1-1.7,0.2-2.6,0.3
	C-3895.2,1375.9-3894.4,1376.8-3893.7,1377.5z"/>
<path class="st10" d="M-3791.4,1542c-25.4-5.3-51.9-22-72.7-46.1s-32.9-52-33-76.4c-0.1-12.5,1.4-25,4.5-37.1
	c0.5-2.2,0.1-4.6-1.3-6.4c-0.6-0.8-1.4-1.5-2.4-2c0.9-0.1,1.7-0.2,2.6-0.3c-34.8,3.2-67.1,18.9-92.2,45.1
	c-27.9,29.4-43.3,68.1-43.1,109.3l0.1,21.5h243.1C-3785.5,1545.9-3788,1542.8-3791.4,1542z"/>
<path class="st2" d="M-3740.9,1232.7c-0.1,0-0.1,0-0.2,0c-25.4,0.1-46.1,20.8-46,46.3c0,12.3,4.9,23.9,13.6,32.6
	s20.3,13.4,32.5,13.4h0.2c25.4-0.1,46.1-20.8,46-46.3C-3694.9,1253.3-3715.6,1232.7-3740.9,1232.7z"/>
<path class="st2" d="M-3744.5,1215.8c-0.1-22.5-16.7-40.7-36.9-40.7h-135.4c-9.9,0-19.2,4.3-26.2,12c-7,7.8-10.8,18-10.8,29
	l0.2,79.5c0.2,63.7,47.1,115.4,104.7,115.4h0.4c57.7-0.2,104.5-52.2,104.3-116.1L-3744.5,1215.8z"/>
<path class="st11" d="M-3744.4,1215.8c-0.1-22.5-15.6-40.7-34.6-40.7h-16.9c19,0,34.6,18.3,34.6,40.7l0.2,79
	c0.2,60.6-39.4,110.5-89.6,115.7c2.8,0.3,5.6,0.5,8.4,0.5h0.3c54-0.2,97.9-52.2,97.8-116.1L-3744.4,1215.8z"/>
<ellipse transform="matrix(0.9333 -0.3592 0.3592 0.9333 -714.206 -1346.2227)" class="st1" cx="-3980" cy="1248.9" rx="28.2" ry="41.5"/>
<ellipse transform="matrix(0.9333 -0.3592 0.3592 0.9333 -713.0797 -1348.3641)" class="st0" cx="-3985.2" cy="1244.8" rx="28.2" ry="41.5"/>
<path class="st3" d="M-3849.2,1364.2c-8.9,0-17.4-3.3-23.9-9.3c-2.8-2.5-3-6.9-0.5-9.6c2.5-2.8,6.9-3,9.6-0.5
	c4,3.7,9.2,5.7,14.7,5.7h0.1c5.5,0,10.7-2.1,14.8-5.8c2.8-2.5,7.1-2.4,9.6,0.4s2.4,7.1-0.4,9.6
	C-3831.7,1360.7-3840.2,1364-3849.2,1364.2C-3849.1,1364.2-3849.1,1364.2-3849.2,1364.2z"/>
<path class="st0" d="M-3889.8,1253c8.9,0,17.4,1.6,23.9,4.6c2.8,1.3,3,3.4,0.5,4.8s-6.9,1.4-9.6,0.2c-4-1.8-9.2-2.9-14.7-2.9h-0.1
	c-5.5,0-10.7,1-14.8,2.9c-2.8,1.3-7.1,1.2-9.6-0.2s-2.4-3.5,0.4-4.8C-3907.3,1254.7-3898.8,1252.9-3889.8,1253
	C-3889.9,1253-3889.8,1253-3889.8,1253z"/>
<ellipse class="st1" cx="-3954.1" cy="1206.8" rx="46.2" ry="37.8"/>
<path class="st0" d="M-3805,1253c8.9,0,17.4,1.6,23.9,4.6c2.8,1.3,3,3.4,0.5,4.8s-6.9,1.4-9.6,0.2c-4-1.8-9.2-2.9-14.7-2.9h-0.1
	c-5.5,0-10.7,1-14.8,2.9c-2.8,1.3-7.1,1.2-9.6-0.2c-2.5-1.4-2.4-3.5,0.4-4.8C-3822.5,1254.7-3814,1252.9-3805,1253L-3805,1253z"/>
<path class="st12" d="M-3877.5,1288.5c0-6.3-5.2-11.4-11.5-11.4s-11.4,5.2-11.4,11.5s5.2,11.4,11.5,11.4
	C-3882.6,1300-3877.5,1294.8-3877.5,1288.5z"/>
<path class="st12" d="M-3796.5,1288.3c0-6.3-5.2-11.5-11.5-11.4c-6.3,0-11.5,5.2-11.4,11.5c0,6.3,5.2,11.5,11.5,11.4
	C-3801.7,1299.8-3796.5,1294.7-3796.5,1288.3z"/>
<ellipse transform="matrix(0.3592 -0.9333 0.9333 0.3592 -3556.1587 -2681.0525)" class="st1" cx="-3730.4" cy="1249" rx="41.5" ry="28.2"/>
<ellipse transform="matrix(0.3592 -0.9333 0.9333 0.3592 -3547.8984 -2683.1682)" class="st0" cx="-3727.8" cy="1242" rx="41.5" ry="28.2"/>
<ellipse class="st1" cx="-3750.3" cy="1200.7" rx="46.2" ry="37.8"/>
<ellipse class="st0" cx="-3752.2" cy="1183.2" rx="47.3" ry="47.3"/>
<ellipse class="st1" cx="-3773.9" cy="1175" rx="46.2" ry="37.8"/>
<ellipse class="st0" cx="-3773.9" cy="1167.8" rx="45.4" ry="32.9"/>
<ellipse class="st0" cx="-3958.6" cy="1194.2" rx="44.4" ry="44.4"/>
<ellipse class="st1" cx="-3925.6" cy="1169.3" rx="46.2" ry="37.8"/>
<ellipse class="st1" cx="-3854.3" cy="1153.8" rx="71.3" ry="54.3"/>
<ellipse class="st0" cx="-3848.2" cy="1141.4" rx="74.3" ry="53.6"/>
<ellipse class="st0" cx="-3925.6" cy="1162.2" rx="45.4" ry="32.9"/>
<g>
	<path class="st6" d="M-3788.3,1492.7c-0.2-0.1-0.4-0.3-0.5-0.5c-0.5-0.8-0.3-2,0.5-2.6c7.9-6.2,14.9-13.9,20.9-22.9
		c4.8-7.2,9-15.3,12.3-24.1c5.7-14.8,7.2-26.5,7.2-26.6c0.1-1,1-1.8,2-1.8s1.6,0.9,1.5,2c-0.1,0.5-1.5,12.2-7.4,27.6
		c-3.4,9.1-7.8,17.4-12.7,24.9c-6.2,9.4-13.6,17.5-21.8,23.9C-3786.9,1492.9-3787.6,1492.9-3788.3,1492.7z"/>
	<path class="st7" d="M-3731.8,1427.3c0.4-0.8,0.1-1.7-0.5-2.2c-0.2-0.2-5.4-4-10.6-2.2c-2.4,0.8-4.3,2.2-5.4,3.8s-1.5,3.5-1.1,5.4
		c0.4,1.6,1.4,3,2.6,3.7c0.2,0.1,0.4,0.2,0.6,0.3c1.7,0.7,3.8,0.6,6.3-0.3C-3734.7,1434.2-3731.9,1427.7-3731.8,1427.3z"/>
	<path class="st8" d="M-3746.6,1427.8c0.2-2-0.5-4.1-1.9-6.2c-3-4.3-9.5-4.3-9.8-4.3c-0.8,0-1.5,0.6-1.8,1.4
		c-0.1,0.3-2.1,7.1,0.8,11.4c1,1.4,2.1,2.5,3.3,3.2c0.5,0.3,1,0.5,1.5,0.6c1.7,0.5,3.6,0,5.2-1.3
		C-3747.8,1431.4-3746.8,1429.8-3746.6,1427.8z"/>
	<path class="st8" d="M-3737.5,1443.8c0.4-0.8,0.1-1.7-0.5-2.2c-0.2-0.2-5.4-4-10.6-2.2c-2.4,0.8-4.3,2.2-5.4,3.8s-1.5,3.5-1.1,5.4
		c0.4,1.6,1.4,3,2.6,3.7c0.2,0.1,0.4,0.2,0.6,0.3c1.7,0.7,3.8,0.6,6.3-0.3C-3740.4,1450.7-3737.6,1444.2-3737.5,1443.8z"/>
	<path class="st7" d="M-3752.4,1444.3c0.2-2-0.5-4.1-1.9-6.2c-3-4.3-9.5-4.3-9.8-4.3c-0.8,0-1.5,0.6-1.8,1.4
		c-0.1,0.3-2.1,7.1,0.8,11.4c1,1.4,2.1,2.5,3.3,3.2c0.5,0.3,1,0.5,1.5,0.6c1.7,0.5,3.6,0,5.2-1.3
		C-3753.6,1447.9-3752.6,1446.3-3752.4,1444.3z"/>
	<path class="st7" d="M-3746.7,1460.8c-0.2-0.2-4.5-5-9.9-4.2c-2.5,0.4-4.5,1.4-6,2.8c-1.4,1.4-2.1,3.3-2,5.3s1,3.6,2.4,4.6
		c0.1,0.1,0.3,0.2,0.4,0.2c1.4,0.8,3.4,1.1,5.8,0.7c5.3-0.8,9.1-6.9,9.2-7.1C-3746.2,1462.3-3746.2,1461.3-3746.7,1460.8z"/>
	<g>
		<path class="st8" d="M-3761.1,1460.8c0.5-2,0.3-4.2-0.8-6.5c-2.1-5-8.5-6.2-8.8-6.2c-0.8-0.2-1.6,0.3-2,1.1
			c-0.1,0.3-3.3,6.7-1.1,11.6c0.9,2.2,2.2,3.7,3.6,4.5c0.1,0.1,0.3,0.1,0.4,0.2c1.6,0.7,3.4,0.6,5.2-0.3
			C-3762.8,1464.2-3761.6,1462.7-3761.1,1460.8z"/>
		<path class="st8" d="M-3757.8,1480.3c-0.2-0.3-3.5-5.9-8.9-6.1c-2.5-0.1-4.6,0.5-6.2,1.6c-1.5,1.2-2.5,2.9-2.8,4.9
			s0.4,3.8,1.6,5.1c0.4,0.4,0.8,0.7,1.4,1c1.2,0.6,2.6,1,4.4,1.1c5.3,0.2,10-5.2,10.1-5.3
			C-3757.6,1481.8-3757.5,1480.8-3757.8,1480.3z"/>
		<path class="st8" d="M-3771.8,1477.3c0.8-1.8,0.9-4.1,0.4-6.7c-1.2-5.3-7.2-7.7-7.4-7.8c-0.7-0.3-1.6,0-2.1,0.7
			c-0.2,0.3-4.3,6.1-3.1,11.4c0.5,2.5,1.6,4.4,3.1,5.5c0.2,0.1,0.4,0.3,0.5,0.4c1.4,0.7,2.9,0.8,4.5,0.3
			C-3774,1480.5-3772.6,1479.3-3771.8,1477.3z"/>
		<path class="st8" d="M-3738.6,1408.7c0.6-5.6-4.1-10-4.3-10.2c-0.5-0.5-1.4-0.5-2.2-0.1c-0.3,0.2-5.9,4.3-6.4,10
			c-0.3,2.7,0.1,4.9,1.1,6.4c0.5,0.8,1.2,1.4,1.9,1.8c0.7,0.5,1.6,0.6,2.5,0.6c1.9,0.1,3.6-0.7,4.9-2.2
			C-3739.7,1413.4-3738.9,1411.3-3738.6,1408.7z"/>
	</g>
</g>
<circle class="st13" cx="-3789.8" cy="1491.2" r="15.7"/>
<circle class="st14" cx="-3790.1" cy="1490.9" r="9.6"/>
<path class="st0" d="M-3741.5,1112.3c-28.6-18.6-66.5-28.7-106.7-28.7s-78,10.2-106.7,28.7c-28.6,18.6-44.4,43.1-44.4,69.1v139.8
	c0,2.4,3.1,4.4,6.8,4.4h288.3c3.8,0,6.8-2,6.8-4.4v-139.8C-3697.3,1155.3-3713,1130.8-3741.5,1112.3z"/>
<ellipse class="st1" cx="-3962.9" cy="1322.5" rx="38.9" ry="33.2"/>
<ellipse class="st1" cx="-3733.7" cy="1321.7" rx="38.9" ry="33.2"/>
<path class="st2" d="M-3959.9,1233.4c-0.1,0-0.1,0-0.2,0c-25.4,0.1-46.1,20.8-46,46.3c0,12.3,4.9,23.9,13.6,32.6
	s20.3,13.4,32.5,13.4h0.2c25.4-0.1,46.1-20.8,46-46.3S-3934.6,1233.4-3959.9,1233.4z"/>
<path class="st2" d="M-3677.8,1520.4c-0.1-39.6-15.8-76.9-44-104.9s-65.4-43.4-104.7-43.4c-0.2,0-0.3,0-0.5,0l-48.7,0.2
	c-39.6,0.1-76.9,15.8-104.9,44c-28.1,28.2-43.5,65.6-43.4,105.2l0.1,18.6c0,3.7,3.1,6.8,6.8,6.8h332.5c1.8,0,3.5-0.7,4.8-2
	s2-3,2-4.8L-3677.8,1520.4z"/>
<path class="st3" d="M-3677.8,1520.4c-0.1-39.6-15.8-76.9-44-104.9s-65.4-43.4-104.7-43.4c-0.2,0-0.3,0-0.5,0l-16.7,0.1
	c37.9,1,73.7,16.2,100.9,43.3c28.2,28.1,43.9,65.4,44,104.9l0.1,19.6c0,1.8-0.7,3.5-2,4.8s-3,2-4.8,2h20.9c1.8,0,3.5-0.7,4.8-2
	s2-3,2-4.8V1520.4z"/>
<g>
	<g>
		<path id="XMLID_1_" class="st4" d="M-3677.9,1523.3c-0.1-39.3-15.8-76.3-44-104.2c-8.4-8.3-17.7-15.5-27.5-21.5
			c-7,27.3-36.5,49.3-75,56.3c-8.6,1.6-17.6,2.4-26.9,2.4c-9.2,0-18.1-0.8-26.7-2.4c-38.3-7-67.9-28.8-75.1-55.9
			c-10,6.1-19.1,13.4-27.6,21.8c-28.1,28.1-43.5,65.2-43.4,104.5l0.1,21.3c0.1,2.4,1.4,4.6,3.3,5.9h337.3c1.3-0.3,2.4-1,3.4-1.9
			c1.4-1.4,2.1-3.2,2.1-5.1L-3677.9,1523.3z"/>
	</g>
	<g>
		<g>
			<g>
				<g>
					<g>
						<g>
							<defs>
								<path id="SVGID_3_" d="M-3677.9,1523.3c-0.1-39.3-15.8-76.3-44-104.2c-8.4-8.3-17.7-15.5-27.5-21.5
									c-7,27.3-36.5,49.3-75,56.3c-8.6,1.6-17.6,2.4-26.9,2.4c-9.2,0-18.1-0.8-26.7-2.4c-38.3-7-67.9-28.8-75.1-55.9
									c-10,6.1-19.1,13.4-27.6,21.8c-28.1,28.1-43.5,65.2-43.4,104.5l0.1,21.3c0.1,2.4,1.4,4.6,3.3,5.9h337.3
									c1.3-0.3,2.4-1,3.4-1.9c1.4-1.4,2.1-3.2,2.1-5.1L-3677.9,1523.3z"/>
							</defs>
							<clipPath id="SVGID_4_">
								<use xlink:href="#SVGID_3_"  style="overflow:visible;"/>
							</clipPath>
							<path class="st15" d="M-3676.9,1523.8c-0.1-39.3-15.8-76.3-44-104.2c-28.2-27.8-65.4-43.1-104.7-43.1c-0.2,0-0.3,0-0.5,0
								l-17.6,0.1c37.9,1,73.6,16.1,100.9,43c28.2,27.9,43.8,64.9,44,104.2l0.1,21.3c0,1.9-0.7,3.7-2.1,5.1
								c-0.9,0.9-2.1,1.6-3.4,1.9h22c1.3-0.3,2.4-1,3.4-1.9c1.4-1.4,2.1-3.2,2.1-5.1L-3676.9,1523.8z"/>
						</g>
					</g>
				</g>
			</g>
		</g>
	</g>
</g>
<g>
	<path class="st6" d="M-3878.1,1534.8c-0.1-0.3-0.1-0.5-0.1-0.7c0.1-1,1.1-1.7,2.1-1.6c10,0.5,20.5-0.7,30.9-3.6
		c8.4-2.4,16.8-5.7,25.1-10.1c14-7.5,22.8-15.3,22.9-15.4c0.8-0.7,2-0.7,2.7-0.1s0.6,1.8-0.1,2.4c-0.4,0.4-9.2,8.2-23.7,15.9
		c-8.5,4.5-17.3,8.1-25.9,10.5c-10.9,3-21.7,4.3-32.1,3.7C-3877.3,1535.8-3877.9,1535.4-3878.1,1534.8z"/>
	<path class="st7" d="M-3792.6,1522.4c0.8-0.4,1.2-1.2,1.1-2c-0.1-0.3-1.4-6.5-6.5-8.6c-2.4-1-4.7-1.2-6.6-0.7
		c-1.9,0.5-3.4,1.7-4.3,3.4c-0.8,1.5-0.9,3.1-0.5,4.5c0.1,0.2,0.2,0.4,0.3,0.6c0.8,1.6,2.4,3,4.9,3.9
		C-3799.2,1525.8-3792.9,1522.7-3792.6,1522.4z"/>
	<path class="st8" d="M-3804.2,1513c1.4-1.4,2.3-3.3,2.6-5.9c0.6-5.3-4.3-9.5-4.5-9.7c-0.6-0.5-1.5-0.5-2.4-0.1
		c-0.3,0.2-6.2,4-6.9,9.1c-0.2,1.8-0.1,3.3,0.4,4.6c0.2,0.5,0.5,1,0.7,1.4c1.1,1.4,2.7,2.4,4.7,2.4
		C-3807.5,1515.2-3805.6,1514.4-3804.2,1513z"/>
	<path class="st8" d="M-3807.8,1531.2c0.8-0.4,1.2-1.2,1.1-2c-0.1-0.3-1.4-6.5-6.5-8.6c-2.4-1-4.7-1.2-6.6-0.7
		c-1.9,0.5-3.4,1.7-4.3,3.4c-0.8,1.5-0.9,3.1-0.5,4.5c0.1,0.2,0.2,0.4,0.3,0.6c0.8,1.6,2.4,3,4.9,3.9
		C-3814.4,1534.4-3808.1,1531.3-3807.8,1531.2z"/>
	<path class="st7" d="M-3819.4,1521.8c1.4-1.4,2.3-3.3,2.6-5.9c0.6-5.3-4.3-9.5-4.5-9.7c-0.6-0.5-1.5-0.5-2.4-0.1
		c-0.3,0.2-6.2,4-6.9,9.1c-0.2,1.8-0.1,3.3,0.4,4.6c0.2,0.5,0.5,1,0.7,1.4c1.1,1.4,2.7,2.4,4.7,2.4
		C-3822.7,1523.8-3820.8,1523.3-3819.4,1521.8z"/>
	<path class="st7" d="M-3825.8,1537.8c0-0.3-0.2-6.8-4.7-9.6c-2.2-1.4-4.3-2-6.3-1.8s-3.7,1.2-4.9,2.7s-1.6,3.3-1.1,5.1
		c0,0.2,0.1,0.3,0.1,0.5c0.5,1.6,1.9,3.1,3.9,4.3c4.5,2.9,11.3,0.8,11.7,0.7C-3826.4,1539.4-3825.8,1538.7-3825.8,1537.8z"/>
	<g>
		<path class="st8" d="M-3836.7,1528.4c1.6-1.2,2.9-3,3.7-5.4c1.6-5.2-2.4-10.1-2.5-10.4c-0.5-0.6-1.4-0.8-2.3-0.5
			c-0.3,0.1-6.8,2.9-8.4,8.1c-0.7,2.3-0.8,4.3-0.2,5.8c0.1,0.1,0.1,0.3,0.2,0.4c0.7,1.6,2.2,2.7,4.2,3.2
			C-3840.2,1529.9-3838.3,1529.5-3836.7,1528.4z"/>
		<path class="st8" d="M-3846.9,1545.3c0.1-0.3,1.2-6.8-2.7-10.3c-1.8-1.7-3.8-2.7-5.8-2.8c-1.9-0.2-3.8,0.5-5.3,1.9
			c-1.4,1.4-2.3,3.1-2.1,4.9c0,0.5,0.2,1.1,0.4,1.6c0.5,1.3,1.4,2.5,2.6,3.7c3.9,3.6,10.9,2.6,11.1,2.6
			C-3847.8,1546.8-3847.1,1546-3846.9,1545.3z"/>
		<path class="st8" d="M-3855.7,1534c1.8-0.9,3.3-2.4,4.6-4.8c2.6-4.8-0.4-10.5-0.5-10.8c-0.4-0.7-1.3-1.1-2.1-0.8
			c-0.3,0.1-7.2,1.7-9.8,6.6c-1.3,2.4-1.6,4.4-1.3,6.2c0.1,0.2,0.1,0.5,0.2,0.6c0.5,1.4,1.6,2.5,3.3,3.2
			C-3859.4,1534.9-3857.5,1534.8-3855.7,1534z"/>
		<path class="st8" d="M-3785.5,1503.9c4.2-3.8,3.5-10.2,3.5-10.5c-0.1-0.8-0.7-1.4-1.6-1.4c-0.3,0-7.2-0.5-11.4,3.3
			c-2,1.8-3.2,3.7-3.4,5.5c-0.2,0.9-0.1,1.8,0.3,2.6c0.3,0.8,0.8,1.5,1.4,2.2c1.4,1.3,3.3,1.8,5.2,1.5
			C-3789.5,1506.8-3787.5,1505.8-3785.5,1503.9z"/>
	</g>
</g>
<path class="st9" d="M-3893.7,1377.5c1.4,1.8,1.8,4.3,1.3,6.4c-3.1,12.1-4.6,24.6-4.5,37.1c0.1,24.5,12.1,52.3,33,76.4
	c20.8,24,47.3,40.7,72.7,46.1c3.4,0.7,5.8,3.9,5.8,7.4h21.8c0-3.3-2.1-6.2-5.1-7.2c-0.2-0.1-0.5-0.1-0.6-0.2
	c-25.3-5.3-51.9-22-72.7-46.1s-32.9-52-33-76.4c0-12.6,1.5-25.1,4.5-37.1c0.5-2.3,0.1-4.6-1.3-6.4c-1.4-1.8-3.4-2.9-5.6-2.9h-3.3
	c-3.6,0-7.2,0.2-10.7,0.5c-0.2,0-0.3,0-0.5,0c-0.5,0-1,0.1-1.4,0.1c-0.9,0.1-1.7,0.2-2.6,0.3
	C-3895.2,1375.9-3894.4,1376.8-3893.7,1377.5z"/>
<path class="st10" d="M-3791.4,1542c-25.4-5.3-51.9-22-72.7-46.1s-32.9-52-33-76.4c-0.1-12.5,1.4-25,4.5-37.1
	c0.5-2.2,0.1-4.6-1.3-6.4c-0.6-0.8-1.4-1.5-2.4-2c0.9-0.1,1.7-0.2,2.6-0.3c-34.8,3.2-67.1,18.9-92.2,45.1
	c-27.9,29.4-43.3,68.1-43.1,109.3l0.1,21.5h243.1C-3785.5,1545.9-3788,1542.8-3791.4,1542z"/>
<path class="st2" d="M-3740.9,1232.7c-0.1,0-0.1,0-0.2,0c-25.4,0.1-46.1,20.8-46,46.3c0,12.3,4.9,23.9,13.6,32.6
	s20.3,13.4,32.5,13.4h0.2c25.4-0.1,46.1-20.8,46-46.3C-3694.9,1253.3-3715.6,1232.7-3740.9,1232.7z"/>
<path class="st2" d="M-3744.5,1215.8c-0.1-22.5-16.7-40.7-36.9-40.7h-135.4c-9.9,0-19.2,4.3-26.2,12c-7,7.8-10.8,18-10.8,29
	l0.2,79.5c0.2,63.7,47.1,115.4,104.7,115.4h0.4c57.7-0.2,104.5-52.2,104.3-116.1L-3744.5,1215.8z"/>
<path class="st11" d="M-3744.4,1215.8c-0.1-22.5-15.6-40.7-34.6-40.7h-16.9c19,0,34.6,18.3,34.6,40.7l0.2,79
	c0.2,60.6-39.4,110.5-89.6,115.7c2.8,0.3,5.6,0.5,8.4,0.5h0.3c54-0.2,97.9-52.2,97.8-116.1L-3744.4,1215.8z"/>
<ellipse transform="matrix(0.9333 -0.3592 0.3592 0.9333 -714.206 -1346.2227)" class="st1" cx="-3980" cy="1248.9" rx="28.2" ry="41.5"/>
<ellipse transform="matrix(0.9333 -0.3592 0.3592 0.9333 -713.0797 -1348.3641)" class="st0" cx="-3985.2" cy="1244.8" rx="28.2" ry="41.5"/>
<path class="st3" d="M-3849.2,1364.2c-8.9,0-17.4-3.3-23.9-9.3c-2.8-2.5-3-6.9-0.5-9.6c2.5-2.8,6.9-3,9.6-0.5
	c4,3.7,9.2,5.7,14.7,5.7h0.1c5.5,0,10.7-2.1,14.8-5.8c2.8-2.5,7.1-2.4,9.6,0.4s2.4,7.1-0.4,9.6
	C-3831.7,1360.7-3840.2,1364-3849.2,1364.2C-3849.1,1364.2-3849.1,1364.2-3849.2,1364.2z"/>
<path class="st0" d="M-3889.8,1253c8.9,0,17.4,1.6,23.9,4.6c2.8,1.3,3,3.4,0.5,4.8s-6.9,1.4-9.6,0.2c-4-1.8-9.2-2.9-14.7-2.9h-0.1
	c-5.5,0-10.7,1-14.8,2.9c-2.8,1.3-7.1,1.2-9.6-0.2s-2.4-3.5,0.4-4.8C-3907.3,1254.7-3898.8,1252.9-3889.8,1253
	C-3889.9,1253-3889.8,1253-3889.8,1253z"/>
<ellipse class="st1" cx="-3954.1" cy="1206.8" rx="46.2" ry="37.8"/>
<path class="st0" d="M-3805,1253c8.9,0,17.4,1.6,23.9,4.6c2.8,1.3,3,3.4,0.5,4.8s-6.9,1.4-9.6,0.2c-4-1.8-9.2-2.9-14.7-2.9h-0.1
	c-5.5,0-10.7,1-14.8,2.9c-2.8,1.3-7.1,1.2-9.6-0.2c-2.5-1.4-2.4-3.5,0.4-4.8C-3822.5,1254.7-3814,1252.9-3805,1253L-3805,1253z"/>
<path class="st12" d="M-3877.5,1288.5c0-6.3-5.2-11.4-11.5-11.4s-11.4,5.2-11.4,11.5s5.2,11.4,11.5,11.4
	C-3882.6,1300-3877.5,1294.8-3877.5,1288.5z"/>
<path class="st12" d="M-3796.5,1288.3c0-6.3-5.2-11.5-11.5-11.4c-6.3,0-11.5,5.2-11.4,11.5c0,6.3,5.2,11.5,11.5,11.4
	C-3801.7,1299.8-3796.5,1294.7-3796.5,1288.3z"/>
<ellipse transform="matrix(0.3592 -0.9333 0.9333 0.3592 -3556.1587 -2681.0525)" class="st1" cx="-3730.4" cy="1249" rx="41.5" ry="28.2"/>
<ellipse transform="matrix(0.3592 -0.9333 0.9333 0.3592 -3547.8984 -2683.1682)" class="st0" cx="-3727.8" cy="1242" rx="41.5" ry="28.2"/>
<ellipse class="st1" cx="-3750.3" cy="1200.7" rx="46.2" ry="37.8"/>
<ellipse class="st0" cx="-3752.2" cy="1183.2" rx="47.3" ry="47.3"/>
<ellipse class="st1" cx="-3773.9" cy="1175" rx="46.2" ry="37.8"/>
<ellipse class="st0" cx="-3773.9" cy="1167.8" rx="45.4" ry="32.9"/>
<ellipse class="st0" cx="-3958.6" cy="1194.2" rx="44.4" ry="44.4"/>
<ellipse class="st1" cx="-3925.6" cy="1169.3" rx="46.2" ry="37.8"/>
<ellipse class="st1" cx="-3854.3" cy="1153.8" rx="71.3" ry="54.3"/>
<ellipse class="st0" cx="-3848.2" cy="1141.4" rx="74.3" ry="53.6"/>
<ellipse class="st0" cx="-3925.6" cy="1162.2" rx="45.4" ry="32.9"/>
<g>
	<path class="st6" d="M-3788.3,1492.7c-0.2-0.1-0.4-0.3-0.5-0.5c-0.5-0.8-0.3-2,0.5-2.6c7.9-6.2,14.9-13.9,20.9-22.9
		c4.8-7.2,9-15.3,12.3-24.1c5.7-14.8,7.2-26.5,7.2-26.6c0.1-1,1-1.8,2-1.8s1.6,0.9,1.5,2c-0.1,0.5-1.5,12.2-7.4,27.6
		c-3.4,9.1-7.8,17.4-12.7,24.9c-6.2,9.4-13.6,17.5-21.8,23.9C-3786.9,1492.9-3787.6,1492.9-3788.3,1492.7z"/>
	<path class="st7" d="M-3731.8,1427.3c0.4-0.8,0.1-1.7-0.5-2.2c-0.2-0.2-5.4-4-10.6-2.2c-2.4,0.8-4.3,2.2-5.4,3.8s-1.5,3.5-1.1,5.4
		c0.4,1.6,1.4,3,2.6,3.7c0.2,0.1,0.4,0.2,0.6,0.3c1.7,0.7,3.8,0.6,6.3-0.3C-3734.7,1434.2-3731.9,1427.7-3731.8,1427.3z"/>
	<path class="st8" d="M-3746.6,1427.8c0.2-2-0.5-4.1-1.9-6.2c-3-4.3-9.5-4.3-9.8-4.3c-0.8,0-1.5,0.6-1.8,1.4
		c-0.1,0.3-2.1,7.1,0.8,11.4c1,1.4,2.1,2.5,3.3,3.2c0.5,0.3,1,0.5,1.5,0.6c1.7,0.5,3.6,0,5.2-1.3
		C-3747.8,1431.4-3746.8,1429.8-3746.6,1427.8z"/>
	<path class="st8" d="M-3737.5,1443.8c0.4-0.8,0.1-1.7-0.5-2.2c-0.2-0.2-5.4-4-10.6-2.2c-2.4,0.8-4.3,2.2-5.4,3.8s-1.5,3.5-1.1,5.4
		c0.4,1.6,1.4,3,2.6,3.7c0.2,0.1,0.4,0.2,0.6,0.3c1.7,0.7,3.8,0.6,6.3-0.3C-3740.4,1450.7-3737.6,1444.2-3737.5,1443.8z"/>
	<path class="st7" d="M-3752.4,1444.3c0.2-2-0.5-4.1-1.9-6.2c-3-4.3-9.5-4.3-9.8-4.3c-0.8,0-1.5,0.6-1.8,1.4
		c-0.1,0.3-2.1,7.1,0.8,11.4c1,1.4,2.1,2.5,3.3,3.2c0.5,0.3,1,0.5,1.5,0.6c1.7,0.5,3.6,0,5.2-1.3
		C-3753.6,1447.9-3752.6,1446.3-3752.4,1444.3z"/>
	<path class="st7" d="M-3746.7,1460.8c-0.2-0.2-4.5-5-9.9-4.2c-2.5,0.4-4.5,1.4-6,2.8c-1.4,1.4-2.1,3.3-2,5.3s1,3.6,2.4,4.6
		c0.1,0.1,0.3,0.2,0.4,0.2c1.4,0.8,3.4,1.1,5.8,0.7c5.3-0.8,9.1-6.9,9.2-7.1C-3746.2,1462.3-3746.2,1461.3-3746.7,1460.8z"/>
	<g>
		<path class="st8" d="M-3761.1,1460.8c0.5-2,0.3-4.2-0.8-6.5c-2.1-5-8.5-6.2-8.8-6.2c-0.8-0.2-1.6,0.3-2,1.1
			c-0.1,0.3-3.3,6.7-1.1,11.6c0.9,2.2,2.2,3.7,3.6,4.5c0.1,0.1,0.3,0.1,0.4,0.2c1.6,0.7,3.4,0.6,5.2-0.3
			C-3762.8,1464.2-3761.6,1462.7-3761.1,1460.8z"/>
		<path class="st8" d="M-3757.8,1480.3c-0.2-0.3-3.5-5.9-8.9-6.1c-2.5-0.1-4.6,0.5-6.2,1.6c-1.5,1.2-2.5,2.9-2.8,4.9
			s0.4,3.8,1.6,5.1c0.4,0.4,0.8,0.7,1.4,1c1.2,0.6,2.6,1,4.4,1.1c5.3,0.2,10-5.2,10.1-5.3
			C-3757.6,1481.8-3757.5,1480.8-3757.8,1480.3z"/>
		<path class="st8" d="M-3771.8,1477.3c0.8-1.8,0.9-4.1,0.4-6.7c-1.2-5.3-7.2-7.7-7.4-7.8c-0.7-0.3-1.6,0-2.1,0.7
			c-0.2,0.3-4.3,6.1-3.1,11.4c0.5,2.5,1.6,4.4,3.1,5.5c0.2,0.1,0.4,0.3,0.5,0.4c1.4,0.7,2.9,0.8,4.5,0.3
			C-3774,1480.5-3772.6,1479.3-3771.8,1477.3z"/>
		<path class="st8" d="M-3738.6,1408.7c0.6-5.6-4.1-10-4.3-10.2c-0.5-0.5-1.4-0.5-2.2-0.1c-0.3,0.2-5.9,4.3-6.4,10
			c-0.3,2.7,0.1,4.9,1.1,6.4c0.5,0.8,1.2,1.4,1.9,1.8c0.7,0.5,1.6,0.6,2.5,0.6c1.9,0.1,3.6-0.7,4.9-2.2
			C-3739.7,1413.4-3738.9,1411.3-3738.6,1408.7z"/>
	</g>
</g>
<circle class="st13" cx="-3789.8" cy="1491.2" r="15.7"/>
<circle class="st14" cx="-3790.1" cy="1490.9" r="9.6"/>
<g>
	<path class="st8" d="M295,57C266.8,25.9,229.5,8.8,189.9,8.8S113,25.9,84.8,57s-43.7,72.3-43.7,116.1v234.7c0,4.1,3,7.4,6.7,7.4
		h284.1c3.7,0,6.7-3.4,6.7-7.4V173C338.7,129.4,323.2,88,295,57z"/>
	<polyline class="st16" points="268,324.3 104.5,324.3 99.5,324.3 	"/>
	<path class="st2" d="M26.7,509.3h328.4c1.2-0.3,2.4-1.2,3.4-2.3c1.3-1.7,2-3.9,2-6.2l-0.1-25.9c-0.1-47.7-15.4-92.7-42.9-126.6
		c-27.4-33.8-63.6-52.4-102-52.4c-0.2,0-0.3,0-0.4,0l-47.3,0.2c-38.5,0.1-74.8,19-102.2,53.1s-42.3,79.2-42.3,127l0.1,25.9
		C23.6,505.1,24.8,507.8,26.7,509.3z"/>
	<path class="st11" d="M360.4,475c-0.1-47.7-15.4-92.7-42.9-126.6c-27.4-33.8-63.6-52.4-102-52.4c-0.2,0-0.3,0-0.4,0l-17.1,0.1
		c36.9,1.2,71.6,19.6,98.2,52.3c27.5,33.9,42.7,78.9,42.9,126.6l0.1,25.9c0,2.3-0.7,4.5-2,6.2c-0.9,1.1-2,2-3.4,2.3h21.4
		c1.2-0.3,2.4-1.2,3.4-2.3c1.3-1.7,2-3.9,2-6.2L360.4,475z"/>
	<g>
		<path id="XMLID_48_" class="st17" d="M361.1,475.1c-0.1-47.6-15.3-92.4-42.8-126.2c-8.3-10.2-17.5-19.1-27.2-26.4
			c0.4,1.9,0.4,3.6,0.4,5.5c0,32.9-49.6,59.5-110.8,59.5c-52,0-95.7-19.3-107.6-45.3c-2.2,2.4-4.3,4.9-6.5,7.6
			c-27.3,34-42.3,78.9-42.2,126.5l0.1,25.8c0.1,3,1.3,5.6,3.2,7.1h328c1.2-0.3,2.4-1.2,3.4-2.3c1.3-1.6,2-3.8,2-6.1V475.1z"/>
	</g>
	<path class="st10" d="M254.4,500.1c-24.8-6.5-50.8-26.6-71.2-55.8c-20.4-29.2-32.2-62.9-32.3-92.5c-0.1-15.1,1.4-30.3,4.4-44.9
		c0.5-2.6,0.1-5.6-1.2-7.8c-0.6-1-1.4-1.9-2.3-2.4c0.9-0.1,1.7-0.2,2.6-0.3c-34,3.8-65.7,22.9-90.3,54.6
		c-27.3,35.6-42.4,82.4-42.2,132.3l0.1,26h238C260.1,505,257.7,501.1,254.4,500.1z"/>
	<path class="st18" d="M154.2,299.3c1.3,2.2,1.8,5.2,1.2,7.8c-3,14.7-4.5,29.8-4.4,44.9c0.1,29.7,11.9,63.4,32.3,92.5
		c20.4,29,46.3,49.3,71.2,55.8c3.4,0.9,5.7,4.7,5.7,9h21.4c0-3.9-2-7.6-5-8.7c-0.2-0.1-0.4-0.1-0.6-0.2
		c-24.8-6.5-50.8-26.6-71.2-55.8c-20.4-29.2-32.2-62.9-32.3-92.5c0-15.2,1.5-30.4,4.4-44.9c0.5-2.7,0.1-5.6-1.2-7.8
		c-1.3-2.2-3.4-3.5-5.5-3.5h-3.3c-3.5,0-7,0.2-10.5,0.5c-0.2,0-0.3,0-0.4,0c-0.4,0-1,0.1-1.4,0.1c-0.9,0.1-1.7,0.2-2.6,0.3
		C152.8,297.5,153.6,298.3,154.2,299.3z"/>
	<line class="st16" x1="200" y1="469.6" x2="200" y2="469.5"/>
	<line class="st16" x1="199.2" y1="469.6" x2="199.2" y2="469.5"/>
	<path class="st19" d="M272.1,308.6c8.6,7.6,14.5,20,14.5,29.5c0,27.8-42,110.1-93.9,110.1s-93.9-82.3-93.9-110.1
		c0-9.5,7-22,15.6-29.5"/>
	<g>
		<path class="st20" d="M204.1,457.8c-0.2,0.1-0.4,0.1-0.6,0.1h-19.3c-0.2,0-0.4-0.1-0.6-0.1c2.8-0.6,4.8-2,4.8-3.6s-2-3.6-4.8-4.2
			c0.2-0.1,0.4-0.1,0.6-0.1h19.3c0.2,0,0.4,0.1,0.6,0.1c-2.8,0.6-4.8,2.6-4.8,4.2S201.3,457.1,204.1,457.8z"/>
		<path class="st21" d="M180.4,446.6c1.9,5.1,7.1,9,13.2,9c6.6,0,12.1-3.8,13.7-9.4"/>
		<path class="st22" d="M203.2,457.8c-0.1,0.1-0.3,0.1-0.5,0.1h-17.6c-0.2,0-0.4-0.1-0.5-0.1c2.6-0.6,4.4-2,4.4-3.6
			s-2.7-3.6-5.3-4.2c0.2-0.2,1.2-0.1,1.4-0.1h17.6c0.2,0,1.2-0.1,1.4,0.1c-2.6,0.6-5.3,2.6-5.3,4.2S200.6,457.1,203.2,457.8z"/>
		<path class="st20" d="M193.9,454.9c-13.9,0-25.2,11.3-25.2,25.2c0,13.9,11.3,25.2,25.2,25.2s25.2-11.3,25.2-25.2
			S207.9,454.9,193.9,454.9z M193.9,501.1c-11.6,0-21-9.4-21-21s9.4-21,21-21s21,9.4,21,21C214.9,491.6,205.5,501.1,193.9,501.1z"/>
		<circle class="st22" cx="193.8" cy="480.6" r="25.2"/>
		<circle class="st22" cx="193.8" cy="480.6" r="25.2"/>
		<circle class="st20" cx="193.8" cy="480.6" r="21"/>
		<circle class="st23" cx="193.8" cy="480.6" r="18.1"/>
		<g>
			<path class="st20" d="M187.3,458.5c0,0.6-0.5,1.2-1.2,1.2c-0.6,0-1.2-0.5-1.2-1.2v-0.1c0.1-0.6,0.6-1,1.2-1c0.6,0,1.1,0.4,1.2,1
				C187.3,458.4,187.3,458.4,187.3,458.5z"/>
			<path class="st20" d="M195.6,457c0,0.6-0.5,1.2-1.2,1.2c-0.6,0-1.2-0.5-1.2-1.2v-0.1c0.1-0.6,0.6-1,1.2-1s1.1,0.4,1.2,1V457z"/>
			<path class="st20" d="M203.4,458.3c0,0.6-0.5,1.2-1.2,1.2c-0.6,0-1.2-0.5-1.2-1.2v-0.1c0.1-0.6,0.6-1,1.2-1s1.1,0.4,1.2,1
				C203.4,458.1,203.4,458.1,203.4,458.3z"/>
			<path class="st24" d="M187.3,458.3c-0.1,0.6-0.6,1-1.2,1c-0.6,0-1.1-0.4-1.2-1c0.1-0.6,0.6-1,1.2-1S187.2,457.6,187.3,458.3z"/>
			<path class="st24" d="M195.6,456.9c-0.1,0.6-0.6,1-1.2,1s-1.1-0.4-1.2-1c0.1-0.6,0.6-1,1.2-1S195.5,456.3,195.6,456.9z"/>
			<path class="st24" d="M203.4,458.1c-0.1,0.6-0.6,1-1.2,1s-1.1-0.4-1.2-1c0.1-0.6,0.6-1,1.2-1S203.3,457.5,203.4,458.1z"/>
		</g>
		<circle class="st25" cx="193.8" cy="480.6" r="14.3"/>
	</g>
	<path class="st2" d="M71.2,188.4c-0.1,0-0.1,0-0.2,0c-20.8,0.1-37.6,17-37.6,37.8c0,10,3.9,19.6,11.1,26.6
		c7.2,7.1,12.6,10.9,26.6,10.9h0.2c20.8-0.1,37.6-17,37.6-37.8C108.7,205.3,91.9,188.4,71.2,188.4z"/>
	<path class="st2" d="M302.5,177.4c-0.1,0-0.1,0-0.2,0c-22.1,0.1-40,18.1-39.9,40.1c0,10.6,4.2,20.8,11.8,28.2
		c7.6,7.5,17.6,11.6,28.2,11.6h0.2c22.1-0.1,40-18.1,39.9-40.1C342.4,195.1,324.5,177.4,302.5,177.4z"/>
	<path class="st2" d="M300,144.1c-0.1-29.3-11.5-48.7-35-59.5c-21-9.7-49.6-10.8-77.4-10.8c-27.7,0.1-56.3,1.5-77.3,11.3
		C87,95.8,75.7,115.4,75.8,144.8l0.3,94c0.2,61.4,50.4,111.1,112,111.1h0.3c61.9-0.2,112-50.4,111.8-111.9L300,144.1z"/>
	<path class="st3" d="M184.6,292.5c-9.3,0-18.2-3.4-25-9.8c-3-2.8-3.2-7.5-0.5-10.5c2.8-3,7.5-3.2,10.5-0.5c4.1,3.8,9.4,5.8,15,5.8
		h0.1c5.6,0,10.9-2.1,15-5.9c3-2.8,7.8-2.7,10.5,0.4c2.8,3,2.7,7.8-0.4,10.5C203,288.9,194.1,292.4,184.6,292.5
		C184.7,292.5,184.6,292.5,184.6,292.5z"/>
	<path class="st12" d="M154.7,223.2c0-6.5-5.4-11.9-12-11.9c-6.5,0-11.9,5.4-11.9,12c0,6.5,5.4,11.9,12,11.9
		C149.3,235.2,154.7,229.8,154.7,223.2z"/>
	<path class="st12" d="M238.7,223c0-6.5-5.4-11.9-12-11.9c-6.5,0-11.9,5.4-11.9,12c0,6.5,5.4,11.9,12,11.9
		C233.5,234.9,238.8,229.6,238.7,223z"/>
	<path class="st11" d="M300,144.1c-0.1-29.3-11.5-48.7-35-59.5c-21-9.7-49.6-10.8-77.4-10.8c-2.6,0-5.2,0-7.8,0.1
		c24,0.4,47.7,2.4,66,10.8c23.4,10.8,34.9,30.2,35,59.5l0.3,94c0.2,58.4-44.9,106.5-102.4,111.4c3.2,0.3,6.4,0.4,9.6,0.4h0.3
		c61.8-0.2,111.9-50.4,111.7-111.8L300,144.1z"/>
	<ellipse class="st26" cx="113" cy="271.4" rx="2.6" ry="2.5"/>
	<ellipse class="st26" cx="128.3" cy="271.4" rx="2.6" ry="2.5"/>
	<ellipse class="st26" cx="120.2" cy="283.4" rx="2.6" ry="2.5"/>
	<ellipse class="st26" cx="237.8" cy="271.4" rx="2.6" ry="2.5"/>
	<ellipse class="st26" cx="253.1" cy="271.4" rx="2.6" ry="2.5"/>
	<ellipse class="st26" cx="245" cy="283.4" rx="2.6" ry="2.5"/>
	
		<ellipse transform="matrix(0.9333 -0.3592 0.3592 0.9333 -53.1033 34.0938)" class="st27" cx="65.2" cy="160" rx="27.1" ry="39.8"/>
	
		<ellipse transform="matrix(0.9333 -0.3592 0.3592 0.9333 -52.0366 32.0382)" class="st8" cx="60.2" cy="156.1" rx="27.1" ry="39.8"/>
	<ellipse class="st27" cx="89.7" cy="119.8" rx="44.4" ry="36.4"/>
	
		<ellipse transform="matrix(0.3592 -0.9333 0.9333 0.3592 45.9685 386.8599)" class="st27" cx="304.7" cy="160" rx="39.8" ry="27.1"/>
	
		<ellipse transform="matrix(0.3592 -0.9333 0.9333 0.3592 54.0946 384.9385)" class="st8" cx="307.4" cy="153.1" rx="39.8" ry="27.1"/>
	<ellipse class="st27" cx="285.5" cy="113.8" rx="44.4" ry="36.4"/>
	<ellipse class="st8" cx="283.7" cy="96.9" rx="45.4" ry="45.4"/>
	<ellipse class="st27" cx="262.9" cy="89.3" rx="44.4" ry="36.4"/>
	<ellipse class="st8" cx="262.9" cy="82.3" rx="43.7" ry="31.6"/>
	<ellipse class="st8" cx="85.5" cy="107.4" rx="42.6" ry="42.6"/>
	<ellipse class="st27" cx="117.1" cy="83.8" rx="44.4" ry="36.4"/>
	<ellipse class="st27" cx="185.6" cy="68.8" rx="68.5" ry="52.2"/>
	<ellipse class="st8" cx="191.5" cy="56.8" rx="71.4" ry="51.5"/>
	<ellipse class="st8" cx="117.1" cy="76.8" rx="43.7" ry="31.6"/>
	<path class="st27" d="M170.9,192.4c-2.4,1.3-6.5,1.4-9.1,0.2c-3.8-1.7-8.8-2.7-13.9-2.7h-0.1c-5.2,0-10.1,0.9-14,2.7
		c-2.7,1.2-6.7,1.1-9.1-0.2c-1.7-0.9-2.1-2.2-1.3-3.3c0.3-0.4,0.9-0.9,1.6-1.2c6.2-2.8,14.2-4.5,22.7-4.5c0,0.1,0.1,0.1,0.1,0.1
		c8.4,0,16.5,1.5,22.7,4.4c0.8,0.3,1.4,0.8,1.7,1.2C173,190.2,172.6,191.4,170.9,192.4z"/>
	<path class="st27" d="M251.4,192.4c-2.4,1.3-6.5,1.4-9.1,0.2c-3.8-1.7-8.8-2.7-13.9-2.7h-0.1c-5.2,0-10.1,0.9-14,2.7
		c-2.7,1.2-6.7,1.1-9.1-0.2c-1.7-0.9-2.1-2.2-1.3-3.3c0.3-0.4,0.9-0.9,1.6-1.2c6.2-2.8,14.2-4.5,22.7-4.5c0,0.1,0,0.1,0.1,0.1
		c8.4,0,16.5,1.5,22.7,4.4c0.8,0.3,1.4,0.8,1.7,1.2C253.5,190.2,253.1,191.4,251.4,192.4z"/>
	<path class="st8" d="M172.2,189c-0.3,0.3-0.7,0.7-1.3,1c-2.4,1.3-6.5,1.4-9.1,0.2c-3.8-1.7-8.8-2.7-13.9-2.7h-0.1
		c-5.2,0-10.1,0.9-14,2.7c-2.7,1.2-6.7,1.1-9.1-0.2c-0.6-0.3-1-0.7-1.3-1c0.3-0.4,0.9-0.9,1.6-1.2c6.2-2.8,14.2-4.5,22.7-4.5
		c0,0.1,0.1,0.1,0.1,0.1c8.4,0,16.5,1.5,22.7,4.4C171.2,188.2,171.8,188.6,172.2,189z"/>
	<path class="st8" d="M252.7,189c-0.3,0.3-0.7,0.7-1.3,1c-2.4,1.3-6.5,1.4-9.1,0.2c-3.8-1.7-8.8-2.7-13.9-2.7h-0.1
		c-5.2,0-10.1,0.9-14,2.7c-2.7,1.2-6.7,1.1-9.1-0.2c-0.6-0.3-1-0.7-1.3-1c0.3-0.4,0.9-0.9,1.6-1.2c6.2-2.8,14.2-4.5,22.7-4.5
		c0,0.1,0,0.1,0.1,0.1c8.4,0,16.5,1.5,22.7,4.4C251.7,188.2,252.3,188.6,252.7,189z"/>
</g>
</svg>
