<?xml version="1.0" encoding="utf-8"?>
<!-- Generator: Adobe Illustrator 23.1.0, SVG Export Plug-In . SVG Version: 6.00 Build 0)  -->
<svg version="1.1" id="Layer_1" xmlns="http://www.w3.org/2000/svg" xmlns:xlink="http://www.w3.org/1999/xlink" x="0px" y="0px"
	 viewBox="0 0 383 508.7" style="enable-background:new 0 0 383 508.7;" xml:space="preserve">
<style type="text/css">
	.st0{fill:#232323;}
	.st1{fill:#F0BCA6;}
	.st2{fill:#E6B09A;}
	.st3{fill:#78BEDD;}
	.st4{fill:#F4F0EF;}
	.st5{fill:#891272;}
	.st6{fill:none;}
	.st7{fill:none;stroke:#4C2308;stroke-miterlimit:10;}
	.st8{fill:#AA6B07;}
	.st9{fill:none;stroke:#C98441;stroke-width:0.5;stroke-miterlimit:10;}
	.st10{fill:#E5AA17;}
	.st11{fill:#DB9D12;}
	.st12{fill:#FFB000;}
	.st13{fill:#EFAC06;}
	.st14{fill:#E2A58A;}
	.st15{fill:#868686;}
	.st16{fill:#E5A589;}
	.st17{fill:#191919;}
</style>
<g>
	<path class="st0" d="M309.4,39.6C280.1,16.2,241.6,3.4,200.6,3.4S121.2,16.2,92,39.7C62.9,63.1,46.8,94,46.8,126.8v176.4
		c0,3.1,3.2,5.6,6.9,5.6h293.6c3.9,0,6.9-2.5,6.9-5.6V126.8C354.4,93.9,338.4,62.9,309.4,39.6z"/>
	<path class="st1" d="M22.4,509.2H359c1.3-0.3,2.5-1.3,3.5-2.4c1.4-1.7,2.1-4,2.1-6.4l-0.1-26.8c-0.1-49.5-15.7-96.2-44-131.4
		c-28.2-35-65.2-54.3-104.5-54.3c-0.2,0-0.3,0-0.5,0l-48.5,0.2c-39.5,0.1-76.7,19.7-104.7,55.1S18.9,425.4,19,474.9l0.1,26.8
		C19.3,504.9,20.6,507.6,22.4,509.2z"/>
	<path class="st2" d="M364.6,473.6c-0.1-49.5-15.7-96.2-44-131.4c-28.2-35-65.2-54.3-104.5-54.3c-0.2,0-0.3,0-0.5,0L198,288
		c37.8,1.3,73.4,20.3,100.6,54.2c28.2,35.2,43.8,81.8,44,131.4l0.1,26.8c0,2.4-0.7,4.7-2.1,6.4c-0.9,1.1-2.1,2.1-3.5,2.4H359
		c1.3-0.3,2.5-1.3,3.5-2.4c1.4-1.7,2.1-4,2.1-6.4V473.6z"/>
	<g>
		<path id="XMLID_42_" class="st3" d="M365.4,473.7c-0.1-49.4-15.7-95.9-43.9-130.9c-8.5-10.6-17.9-19.8-27.9-27.4
			c0.4,1.9,0.5,3.8,0.5,5.7c0,34.1-50.9,61.7-113.6,61.7c-53.4,0-98-20-110.4-47c-2.3,2.5-4.4,5.1-6.6,7.8
			c-28,35.3-43.4,81.9-43.3,131.2l0.1,26.7c0.1,3.1,1.4,5.8,3.3,7.4h336.2c1.3-0.3,2.5-1.3,3.5-2.4c1.4-1.7,2.1-4,2.1-6.4
			L365.4,473.7L365.4,473.7z"/>
	</g>
	<path class="st4" d="M255.9,499.8c-25.5-6.7-52.1-27.6-73-57.9s-33-65.3-33.1-96c-0.1-15.7,1.5-31.4,4.5-46.6
		c0.6-2.7,0.1-5.8-1.3-8.1c-0.6-1-1.5-1.9-2.4-2.5c0.9-0.1,1.7-0.2,2.7-0.3c-34.9,4-67.4,23.8-92.5,56.6
		c-28,37-43.5,85.5-43.3,137.3l0.1,27h244C261.8,504.7,259.5,500.7,255.9,499.8z"/>
	<path class="st5" d="M153.3,291.4c1.4,2.3,1.8,5.3,1.3,8.1c-3.1,15.2-4.6,30.9-4.5,46.6c0.1,30.8,12.2,65.7,33.1,96
		c20.9,30.1,47.4,51.2,73,57.9c3.5,0.9,5.8,4.9,5.8,9.3h21.9c0-4.1-2.1-7.8-5.1-9c-0.2-0.1-0.5-0.1-0.6-0.2
		c-25.5-6.7-52.1-27.6-73-57.9s-33-65.3-33.1-96c0-15.8,1.6-31.5,4.5-46.6c0.6-2.8,0.1-5.8-1.3-8.1c-1.4-2.3-3.5-3.6-5.6-3.6h-3.4
		c-3.7,0-7.2,0.2-10.8,0.6c-0.2,0-0.3,0-0.5,0c-0.5,0-1,0.1-1.5,0.1c-0.9,0.1-1.7,0.2-2.7,0.3C151.8,289.4,152.6,290.3,153.3,291.4z
		"/>
	<line class="st6" x1="200.1" y1="468" x2="200.1" y2="467.8"/>
	<line class="st6" x1="199.3" y1="468" x2="199.3" y2="467.8"/>
	<path class="st7" d="M274.1,301c8.8,7.9,14.8,20.8,14.8,30.6c0,28.8-43.1,114.2-96.2,114.2s-96.2-85.4-96.2-114.2
		c0-9.9,7.2-22.8,15.9-30.6"/>
	<g>
		<path class="st8" d="M204.3,455.7c-0.2,0.1-0.4,0.1-0.6,0.1h-19.8c-0.2,0-0.4-0.1-0.6-0.1c3-0.7,4.9-2.1,4.9-3.7s-2-3.7-4.9-4.4
			c0.2-0.1,0.4-0.1,0.6-0.1h19.8c0.2,0,0.4,0.1,0.6,0.1c-3,0.7-4.9,2.7-4.9,4.4S201.5,455.1,204.3,455.7z"/>
		<path class="st9" d="M180,444.1c2,5.3,7.2,9.3,13.5,9.3c6.7,0,12.4-4,14-9.8"/>
		<path class="st10" d="M203.5,455.7c-0.1,0.1-0.3,0.1-0.5,0.1h-18c-0.2,0-0.4-0.1-0.5-0.1c2.7-0.7,4.5-2.1,4.5-3.7
			s-2.8-3.7-5.4-4.4c0.2-0.2,1.3-0.1,1.4-0.1h18c0.2,0,1.2-0.1,1.4,0.1c-2.7,0.7-5.4,2.7-5.4,4.4S200.8,455.1,203.5,455.7z"/>
		<path class="st8" d="M194,452.7c-14.2,0-25.9,11.7-25.9,26.2s11.6,26.2,25.9,26.2c14.3,0,25.9-11.7,25.9-26.2
			C219.8,464.4,208.3,452.7,194,452.7z M194,500.7c-11.9,0-21.5-9.7-21.5-21.8c0-12,9.6-21.8,21.5-21.8s21.5,9.7,21.5,21.8
			C215.4,490.9,205.8,500.7,194,500.7z"/>
		<ellipse class="st10" cx="193.9" cy="479.4" rx="25.9" ry="26.2"/>
		<ellipse class="st10" cx="193.9" cy="479.4" rx="25.9" ry="26.2"/>
		<ellipse class="st8" cx="193.9" cy="479.4" rx="21.5" ry="21.8"/>
		<ellipse class="st11" cx="193.9" cy="479.4" rx="18.5" ry="18.7"/>
		<g>
			<path class="st8" d="M187.3,456.4c0,0.7-0.5,1.2-1.2,1.2s-1.2-0.5-1.2-1.2c0-0.1,0-0.1,0-0.1c0.1-0.6,0.6-1.1,1.2-1.1
				c0.6,0,1.1,0.5,1.2,1.1V456.4z"/>
			<path class="st8" d="M195.8,455c0,0.7-0.5,1.2-1.2,1.2s-1.2-0.5-1.2-1.2c0-0.1,0-0.1,0-0.1c0.1-0.6,0.6-1.1,1.2-1.1
				c0.6,0,1.1,0.5,1.2,1.1C195.8,454.9,195.8,454.9,195.8,455z"/>
			<path class="st8" d="M203.8,456.2c0,0.7-0.5,1.2-1.2,1.2s-1.2-0.5-1.2-1.2c0-0.1,0-0.1,0-0.1c0.1-0.6,0.6-1.1,1.2-1.1
				s1.1,0.5,1.2,1.1V456.2z"/>
			<path class="st12" d="M187.3,456.3c-0.1,0.6-0.6,1.1-1.2,1.1c-0.6,0-1.1-0.5-1.2-1.1c0.1-0.6,0.6-1.1,1.2-1.1
				S187.1,455.7,187.3,456.3z"/>
			<path class="st12" d="M195.8,454.8c-0.1,0.6-0.6,1.1-1.2,1.1s-1.1-0.5-1.2-1.1c0.1-0.6,0.6-1.1,1.2-1.1
				C195.1,453.8,195.6,454.2,195.8,454.8z"/>
			<path class="st12" d="M203.8,456.1c-0.1,0.6-0.6,1.1-1.2,1.1c-0.6,0-1.1-0.5-1.2-1.1c0.1-0.6,0.6-1.1,1.2-1.1
				S203.6,455.5,203.8,456.1z"/>
		</g>
		<ellipse class="st13" cx="193.9" cy="479.4" rx="14.7" ry="14.9"/>
	</g>
	<path class="st1" d="M83.1,163.9c-0.1,0-0.1,0-0.2,0c-21.3,0.1-38.5,17.6-38.5,39.2c0,10.4,4.1,20.3,11.4,27.5
		c7.3,7.3,12.9,11.3,27.2,11.3h0.2c21.3-0.1,38.5-17.6,38.5-39.2C121.5,181.4,104.4,163.9,83.1,163.9z"/>
	<path class="st1" d="M320.3,152.4c-0.1,0-0.1,0-0.2,0c-22.6,0.1-40.9,18.7-40.9,41.6c0,11,4.2,21.5,12.1,29.2
		c7.8,7.8,18,12,28.9,12h0.2c22.6-0.1,40.9-18.7,40.9-41.6C361.1,170.8,342.9,152.4,320.3,152.4z"/>
	<path class="st1" d="M317.8,116.4C317.6,86.6,306,66.9,281.9,56c-21.5-9.9-50.9-11-79.3-11c-28.4,0.1-57.7,1.5-79.2,11.5
		c-23.9,11-35.5,30.9-35.4,60.6l0.3,95.5C88.3,275,139.8,325.4,203,325.4h0.3c63.4-0.2,114.8-51.2,114.6-113.6L317.8,116.4z"/>
	<path class="st14" d="M199.4,271.9c-9.5,0-18.7-3.5-25.7-10.1c-3.1-2.9-3.3-7.8-0.5-10.9s7.7-3.3,10.8-0.5c4.1,3.9,9.6,6,15.3,6
		h0.1c5.7,0,11.2-2.2,15.3-6.1c3.1-3,8-2.8,10.8,0.4c3,3.1,2.8,8.1-0.4,10.9C218.3,268.1,209.1,271.8,199.4,271.9
		C199.5,271.9,199.4,271.9,199.4,271.9z"/>
	<path class="st15" d="M168.8,200c0-6.8-5.5-12.3-12.3-12.3c-6.7,0-12.2,5.6-12.2,12.4s5.5,12.3,12.3,12.3S168.8,206.8,168.8,200z"
		/>
	<path class="st15" d="M254.8,199.7c0-6.8-5.5-12.3-12.3-12.3s-12.2,5.6-12.2,12.4s5.5,12.3,12.3,12.3
		C249.5,212.1,254.9,206.6,254.8,199.7z"/>
	<path class="st2" d="M317.8,116.4C317.6,86.6,306,66.9,281.9,56c-21.5-9.9-50.9-11-79.3-11c-2.7,0-5.3,0-8,0.1
		c24.6,0.4,48.9,2.5,67.7,11c24,10.9,35.8,30.7,35.9,60.4l0.3,95.5c0.2,59.3-46,108.2-105,113.2c3.3,0.3,6.5,0.4,9.9,0.4h0.3
		c63.3-0.2,114.7-51.2,114.5-113.5L317.8,116.4z"/>
	<ellipse class="st16" cx="125.9" cy="250" rx="2.7" ry="2.6"/>
	<ellipse class="st16" cx="141.6" cy="250" rx="2.7" ry="2.6"/>
	<ellipse class="st16" cx="133.3" cy="262.5" rx="2.7" ry="2.6"/>
	<ellipse class="st16" cx="253.8" cy="250" rx="2.7" ry="2.6"/>
	<ellipse class="st16" cx="269.6" cy="250" rx="2.7" ry="2.6"/>
	<ellipse class="st16" cx="261.3" cy="262.5" rx="2.7" ry="2.6"/>
	
		<ellipse transform="matrix(0.2352 -0.9719 0.9719 0.2352 -93.6695 206.8859)" class="st17" cx="84.6" cy="163" rx="19.6" ry="23.6"/>
	
		<ellipse transform="matrix(0.2352 -0.9719 0.9719 0.2352 -92.46 201.0686)" class="st0" cx="81.5" cy="159.3" rx="19.6" ry="23.6"/>
	
		<ellipse transform="matrix(0.237 -0.9715 0.9715 0.237 -46.8936 193.7474)" class="st17" cx="99.9" cy="126.7" rx="30.1" ry="36.4"/>
	<ellipse transform="matrix(0.237 -0.9715 0.9715 0.237 -44.928 185.1192)" class="st0" cx="95.4" cy="121.2" rx="30.1" ry="36.4"/>
	
		<ellipse transform="matrix(0.9715 -0.2372 0.2372 0.9715 -30.2591 78.32)" class="st17" cx="310.4" cy="164.9" rx="25.1" ry="20.8"/>
	
		<ellipse transform="matrix(0.9715 -0.2372 0.2372 0.9715 -29.2728 78.9475)" class="st0" cx="313.5" cy="161.1" rx="25.1" ry="20.8"/>
	
		<ellipse transform="matrix(0.9715 -0.237 0.237 0.9715 -21.9128 74.486)" class="st17" cx="298.9" cy="128.4" rx="36.4" ry="30.1"/>
	<ellipse transform="matrix(0.9715 -0.237 0.237 0.9715 -20.1822 74.0856)" class="st0" cx="298.1" cy="121" rx="36.4" ry="30.1"/>
	<ellipse class="st17" cx="285.9" cy="86.9" rx="54.3" ry="43.7"/>
	<ellipse class="st0" cx="282.8" cy="79.6" rx="54.3" ry="43.7"/>
	<ellipse class="st17" cx="113.9" cy="87.3" rx="49" ry="39.4"/>
	<ellipse class="st0" cx="112" cy="86.7" rx="49" ry="39.4"/>
	<ellipse class="st17" cx="193.3" cy="75.4" rx="88.9" ry="59"/>
	<ellipse class="st0" cx="198.9" cy="68.4" rx="88.9" ry="55.7"/>
	<path class="st0" d="M159.8,164.4c8.6,0,16.8,1.6,23,4.5c2.7,1.2,2.9,3.4,0.4,4.7s-6.6,1.4-9.3,0.2c-3.9-1.8-8.9-2.8-14.1-2.8l0,0
		c-5.3,0-10.3,1-14.2,2.8c-2.7,1.2-6.8,1.1-9.3-0.2s-2.3-3.4,0.4-4.7C142.9,166,151.1,164.3,159.8,164.4L159.8,164.4z"/>
	<path class="st0" d="M241.8,164.4c8.6,0,16.8,1.6,23,4.5c2.7,1.2,2.9,3.4,0.4,4.7s-6.6,1.4-9.3,0.2c-3.9-1.8-8.9-2.8-14.1-2.8h-0.1
		c-5.3,0-10.3,1-14.2,2.8c-2.7,1.2-6.8,1.1-9.3-0.2s-2.3-3.4,0.4-4.7C224.9,166,233.1,164.3,241.8,164.4
		C241.6,164.4,241.8,164.4,241.8,164.4z"/>
</g>
</svg>
