<?xml version="1.0" encoding="utf-8"?>
<!-- Generator: Adobe Illustrator 23.1.0, SVG Export Plug-In . SVG Version: 6.00 Build 0)  -->
<svg version="1.1" id="Layer_1" xmlns="http://www.w3.org/2000/svg" xmlns:xlink="http://www.w3.org/1999/xlink" x="0px" y="0px"
	 viewBox="0 0 383 508.7" style="enable-background:new 0 0 383 508.7;" xml:space="preserve">
<style type="text/css">
	.st0{fill:#3F2016;}
	.st1{fill:#F0BCA6;}
	.st2{fill:#E6B09A;}
	.st3{fill:#EF9067;}
	.st4{fill:#F4F0EF;}
	.st5{fill:#891272;}
	.st6{fill:none;}
	.st7{fill:none;stroke:#4C2308;stroke-miterlimit:10;}
	.st8{fill:#AA6B07;}
	.st9{fill:none;stroke:#C98441;stroke-width:0.5;stroke-miterlimit:10;}
	.st10{fill:#E5AA17;}
	.st11{fill:#DB9D12;}
	.st12{fill:#FFB000;}
	.st13{fill:#EFAC06;}
	.st14{fill:#E2A58A;}
	.st15{fill:#868686;}
	.st16{fill:#E5A589;}
	.st17{fill:#3A1E0B;}
</style>
<g>
	<ellipse class="st0" cx="199.4" cy="148.2" rx="124" ry="117.2"/>
	<path class="st1" d="M37,509.5h307.8c1.2-0.3,2.2-1.1,3.2-2.2c1.2-1.5,1.9-3.6,1.9-5.8l-0.1-24.2c-0.1-44.7-14.4-86.9-40.2-118.6
		c-25.7-31.6-59.6-49.1-95.6-49.1c-0.2,0-0.2,0-0.4,0l-44.3,0.2c-36.1,0.1-70.1,17.8-95.7,49.8S33.9,433.9,34,478.5l0.1,24.2
		C34,505.6,35.2,508.1,37,509.5z"/>
	<path class="st2" d="M349.7,477.4c-0.1-44.7-14.4-86.9-40.2-118.6c-25.7-31.6-59.6-49.1-95.6-49.1c-0.2,0-0.2,0-0.4,0l-16.1,0.1
		c34.6,1.1,67.1,18.3,92,49c25.8,31.7,40,73.9,40.2,118.6l0.1,24.2c0,2.2-0.7,4.2-1.9,5.8c-0.8,1-1.9,1.9-3.2,2.2h20
		c1.2-0.3,2.2-1.1,3.2-2.2c1.2-1.5,1.9-3.6,1.9-5.8V477.4z"/>
	<g>
		<path id="XMLID_39_" class="st3" d="M350.4,477.5c-0.1-44.6-14.4-86.6-40.1-118.2c-7.8-9.6-16.4-17.9-25.5-24.7
			c0.3,1.7,0.4,3.4,0.4,5.1c0,30.8-46.5,55.8-103.8,55.8c-48.8,0-89.6-18.1-100.9-42.4c-2.1,2.3-4.1,4.6-6.1,7.1
			C48.8,392,34.8,434.1,34.9,478.8l0.1,24.1c0.1,2.8,1.2,5.2,3,6.7h307.4c1.2-0.3,2.2-1.1,3.2-2.2c1.2-1.5,1.9-3.6,1.9-5.8
			L350.4,477.5L350.4,477.5z"/>
	</g>
	<path class="st4" d="M250.3,501c-23.3-6.1-47.6-25-66.7-52.3s-30.2-58.9-30.2-86.7c-0.1-14.2,1.3-28.3,4.2-42.1
		c0.5-2.5,0.1-5.2-1.2-7.3c-0.6-0.9-1.3-1.7-2.2-2.3c0.8-0.1,1.6-0.2,2.4-0.3c-31.9,3.6-61.6,21.5-84.6,51.1
		c-25.6,33.4-39.7,77.2-39.5,124l0.1,24.3h223.1C255.7,505.4,253.5,501.9,250.3,501z"/>
	<path class="st5" d="M156.5,312.8c1.2,2.1,1.7,4.8,1.2,7.3c-2.8,13.8-4.2,27.9-4.2,42.1c0.1,27.8,11.1,59.4,30.2,86.7
		c19.1,27.2,43.4,46.2,66.7,52.3c3.2,0.8,5.3,4.4,5.3,8.4h20c0-3.7-1.9-7.1-4.7-8.1c-0.2-0.1-0.4-0.1-0.6-0.2
		c-23.3-6.1-47.6-25-66.7-52.3s-30-58.9-30.1-86.7c0-14.3,1.4-28.4,4.2-42.1c0.5-2.6,0.1-5.2-1.2-7.3c-1.2-2.1-3.2-3.3-5.2-3.3h-3.1
		c-3.3,0-6.6,0.2-9.8,0.5c-0.2,0-0.2,0-0.4,0c-0.4,0-0.9,0.1-1.3,0.1c-0.8,0.1-1.6,0.2-2.4,0.3C155.1,311,155.9,311.9,156.5,312.8z"
		/>
	<line class="st6" x1="199.4" y1="472.4" x2="199.4" y2="472.1"/>
	<line class="st6" x1="198.6" y1="472.4" x2="198.6" y2="472.1"/>
	<path class="st7" d="M267,321.4c8,7.1,13.6,18.8,13.6,27.7c0,26-39.4,103.1-88,103.1s-88-77.1-88-103.1c0-8.9,6.6-20.6,14.6-27.7"
		/>
	<g>
		<path class="st8" d="M203.2,461.3c-0.1,0.1-0.3,0.1-0.5,0.1h-18c-0.2,0-0.4,0-0.5-0.1c2.7-0.6,4.5-1.9,4.5-3.4s-1.8-3.3-4.5-4
			c0.1-0.1,0.3-0.1,0.5-0.1h18c0.2,0,0.4,0,0.5,0.1c-2.7,0.6-4.5,2.5-4.5,4S200.6,460.6,203.2,461.3z"/>
		<path class="st9" d="M181,450.8c1.8,4.8,6.6,8.4,12.4,8.4c6.2,0,11.3-3.6,12.8-8.8"/>
		<path class="st10" d="M202.4,461.3c-0.1,0.1-0.3,0.1-0.5,0.1h-16.5c-0.2,0-0.3,0-0.5-0.1c2.4-0.6,4.1-1.9,4.1-3.4s-2.5-3.3-4.9-4
			c0.2-0.2,1.1-0.1,1.3-0.1h16.5c0.2,0,1.1-0.1,1.3,0.1c-2.4,0.6-4.9,2.5-4.9,4C198.3,459.4,200,460.6,202.4,461.3z"/>
		<path class="st8" d="M193.7,458.5c-13,0-23.6,10.6-23.6,23.6c0,13.1,10.6,23.6,23.6,23.6c13.1,0,23.6-10.6,23.6-23.6
			S206.7,458.5,193.7,458.5z M193.7,501.9c-10.9,0-19.7-8.8-19.7-19.7c0-10.9,8.8-19.6,19.7-19.6s19.7,8.8,19.7,19.6
			C213.4,493,204.6,501.9,193.7,501.9z"/>
		<ellipse class="st10" cx="193.6" cy="482.6" rx="23.6" ry="23.6"/>
		<ellipse class="st10" cx="193.6" cy="482.6" rx="23.6" ry="23.6"/>
		<ellipse class="st8" cx="193.6" cy="482.6" rx="19.7" ry="19.7"/>
		<ellipse class="st11" cx="193.6" cy="482.6" rx="16.9" ry="16.9"/>
		<g>
			<path class="st8" d="M187.5,461.9c0,0.6-0.5,1.1-1.1,1.1s-1.1-0.5-1.1-1.1v-0.1c0.1-0.5,0.5-1,1.1-1s1,0.4,1.1,1V461.9z"/>
			<path class="st8" d="M195.3,460.5c0,0.6-0.5,1.1-1.1,1.1s-1.1-0.5-1.1-1.1v-0.1c0.1-0.5,0.5-1,1.1-1s1,0.4,1.1,1V460.5z"/>
			<path class="st8" d="M202.6,461.6c0,0.6-0.5,1.1-1.1,1.1s-1.1-0.5-1.1-1.1v-0.1c0.1-0.5,0.5-1,1.1-1s1,0.4,1.1,1
				C202.6,461.6,202.6,461.6,202.6,461.6z"/>
			<path class="st12" d="M187.5,461.8c-0.1,0.5-0.5,1-1.1,1s-1-0.4-1.1-1c0.1-0.5,0.5-1,1.1-1C186.9,460.8,187.4,461.1,187.5,461.8z
				"/>
			<path class="st12" d="M195.3,460.4c-0.1,0.5-0.5,1-1.1,1s-1-0.4-1.1-1c0.1-0.5,0.5-1,1.1-1C194.7,459.4,195.2,459.9,195.3,460.4z
				"/>
			<path class="st12" d="M202.5,461.5c-0.1,0.5-0.5,1-1.1,1s-1-0.4-1.1-1c0.1-0.5,0.5-1,1.1-1S202.5,461,202.5,461.5z"/>
		</g>
		<ellipse class="st13" cx="193.6" cy="482.6" rx="13.4" ry="13.4"/>
	</g>
	<path class="st1" d="M90.7,183.9C90.6,183.9,90.6,183.9,90.7,183.9c-19.6,0.1-35.4,15.9-35.3,35.4c0,9.4,3.7,18.3,10.4,24.9
		c6.7,6.6,11.8,10.2,24.9,10.2h0.1c19.5-0.1,35.3-15.9,35.2-35.4C125.9,199.7,110.1,183.9,90.7,183.9z"/>
	<path class="st1" d="M307.5,173.6c-0.1,0-0.1,0-0.2,0c-20.7,0.1-37.4,16.9-37.4,37.6c0,10,3.9,19.4,11,26.4s16.5,10.9,26.4,10.9
		h0.2c20.7-0.1,37.4-16.9,37.4-37.6S328.1,173.6,307.5,173.6z"/>
	<path class="st1" d="M305.1,142.4c-0.1-27.5-10.7-45.7-32.8-55.7c-19.7-9.1-46.5-10.2-72.5-10.2c-25.9,0.1-52.7,1.4-72.4,10.6
		C105.5,97.3,95,115.6,95.1,143l0.3,88.1c0.2,57.5,47.2,104.1,104.9,104.1h0.3c58-0.2,104.9-47.2,104.7-104.8L305.1,142.4z"/>
	<path class="st14" d="M197,281.4c-8.7,0-17.1-3.2-23.5-9.2c-2.8-2.6-3-7-0.4-9.9c2.6-2.8,7-3,9.9-0.4c3.8,3.6,8.8,5.4,14,5.4h0.1
		c5.2,0,10.2-2,14-5.5c2.8-2.7,7.3-2.5,9.9,0.4c2.7,2.8,2.5,7.3-0.4,9.9C214.2,277.9,205.9,281.3,197,281.4
		C197.1,281.4,197,281.4,197,281.4z"/>
	<path class="st15" d="M168.9,216.5c0-6.1-5.1-11.1-11.2-11.1s-11.1,5.1-11.1,11.2c0,6.1,5.1,11.1,11.2,11.1
		C163.9,227.7,168.9,222.7,168.9,216.5z"/>
	<path class="st15" d="M247.7,216.3c0-6.1-5.1-11.1-11.2-11.1s-11.1,5.1-11.1,11.2c0,6.1,5.1,11.1,11.2,11.1
		C242.8,227.5,247.8,222.5,247.7,216.3z"/>
	<path class="st2" d="M305.1,142.4c-0.1-27.5-10.7-45.7-32.8-55.7c-19.7-9.1-46.5-10.2-72.5-10.2c-2.4,0-4.9,0-7.3,0.1
		c22.5,0.4,44.7,2.3,61.9,10.2c21.9,10.1,32.7,28.3,32.8,55.7l0.3,88.1c0.2,54.7-42.1,99.8-96,104.4c3,0.2,6,0.4,9,0.4h0.3
		c57.9-0.2,104.8-47.2,104.7-104.7L305.1,142.4z"/>
	<ellipse class="st16" cx="129.8" cy="261.6" rx="2.4" ry="2.3"/>
	<ellipse class="st16" cx="144.2" cy="261.6" rx="2.4" ry="2.3"/>
	<ellipse class="st16" cx="136.6" cy="272.9" rx="2.4" ry="2.3"/>
	<ellipse class="st16" cx="246.8" cy="261.6" rx="2.4" ry="2.3"/>
	<ellipse class="st16" cx="261.2" cy="261.6" rx="2.4" ry="2.3"/>
	<ellipse class="st16" cx="253.6" cy="272.9" rx="2.4" ry="2.3"/>
	<ellipse class="st0" cx="93.6" cy="173.6" rx="21.1" ry="21.1"/>
	<ellipse class="st0" cx="100" cy="135.6" rx="32.2" ry="32.2"/>
	<ellipse class="st0" cx="97.6" cy="105.3" rx="22.3" ry="22.3"/>
	<ellipse class="st0" cx="151.9" cy="98.8" rx="44.9" ry="44.9"/>
	<ellipse class="st0" cx="230.1" cy="97.2" rx="44.9" ry="44.9"/>
	
		<ellipse transform="matrix(0.1602 -0.9871 0.9871 0.1602 89.3215 442.4848)" class="st0" cx="304.7" cy="168.8" rx="18.7" ry="18.7"/>
	<ellipse class="st0" cx="304.7" cy="136.3" rx="24.9" ry="24.9"/>
	<ellipse class="st0" cx="307.9" cy="113.3" rx="24.9" ry="24.9"/>
	
		<ellipse transform="matrix(0.1602 -0.9871 0.9871 0.1602 126.9061 370.8602)" class="st0" cx="281.4" cy="110.8" rx="27.8" ry="27.8"/>
	<ellipse class="st0" cx="168.8" cy="52.5" rx="32.8" ry="32.8"/>
	<ellipse class="st0" cx="121.8" cy="73.5" rx="41.6" ry="41.6"/>
	<ellipse class="st0" cx="238.4" cy="56.2" rx="37.4" ry="37.4"/>
	<ellipse class="st0" cx="283.7" cy="78.3" rx="37.4" ry="37.4"/>
	<ellipse class="st0" cx="209.2" cy="38.2" rx="31" ry="31"/>
	<path class="st17" d="M160.9,183.5c6.8,0,13.4,1.3,18.4,3.6c2.2,1,2.3,2.6,0.3,3.7c-2,1-5.3,1.1-7.4,0.1c-3.1-1.4-7.1-2.2-11.3-2.2
		h-0.1c-4.2,0-8.2,0.8-11.4,2.2c-2.2,1-5.4,0.9-7.4-0.1s-1.8-2.7,0.3-3.7C147.5,184.7,154,183.4,160.9,183.5
		C160.8,183.5,160.9,183.5,160.9,183.5z"/>
	<path class="st17" d="M233.5,183.5c6.8,0,13.4,1.3,18.4,3.6c2.2,1,2.3,2.6,0.3,3.7c-2,1-5.3,1.1-7.4,0.1c-3.1-1.4-7.1-2.2-11.3-2.2
		h-0.1c-4.2,0-8.2,0.8-11.4,2.2c-2.2,1-5.4,0.9-7.4-0.1s-1.8-2.7,0.3-3.7C220.1,184.7,226.6,183.4,233.5,183.5
		C233.4,183.5,233.5,183.5,233.5,183.5z"/>
</g>
</svg>
