<?xml version="1.0" encoding="utf-8"?>
<!-- Generator: Adobe Illustrator 23.1.0, SVG Export Plug-In . SVG Version: 6.00 Build 0)  -->
<svg version="1.1" id="Layer_1" xmlns="http://www.w3.org/2000/svg" xmlns:xlink="http://www.w3.org/1999/xlink" x="0px" y="0px"
	 viewBox="0 0 383 508.7" style="enable-background:new 0 0 383 508.7;" xml:space="preserve">
<style type="text/css">
	.st0{fill:#3A1E0B;}
	.st1{fill:#F0BCA6;}
	.st2{fill:#E6B09A;}
	.st3{fill:#D89573;}
	.st4{fill:#FFF4F1;}
	.st5{fill:#891272;}
	.st6{fill:none;stroke:#4C2308;stroke-miterlimit:10;}
	.st7{fill:#AA6B07;}
	.st8{fill:none;stroke:#C98441;stroke-width:0.5;stroke-miterlimit:10;}
	.st9{fill:#E5AA17;}
	.st10{fill:#DB9D12;}
	.st11{fill:#FFB000;}
	.st12{fill:#EFAC06;}
	.st13{fill:#E2A58A;}
	.st14{fill:#868686;}
	.st15{fill:#E5A589;}
</style>
<title>teen</title>
<circle class="st0" cx="195.6" cy="149.4" r="141.5"/>
<path class="st1" d="M27.3,508.8h327.2c1.3-0.4,2.5-1.2,3.4-2.3c1.3-1.8,2-3.9,2-6.1v-25.8c-0.1-47.6-15.3-92.4-42.7-126.1
	s-63.4-52.1-101.6-52.1h-0.4l-47.1,0.2c-38.4,0.1-74.5,19-101.8,52.9S23.9,428.4,24,476l0.1,25.8C24.1,504.4,25.3,507,27.3,508.8z"
	/>
<path class="st2" d="M359.8,474.6c-0.1-47.6-15.3-92.4-42.7-126.1s-63.4-52.1-101.6-52.1h-0.4l-17.1,0.1
	c36.8,1.2,71.4,19.5,97.8,52.1c27.4,33.8,42.5,78.6,42.7,126.1l0.1,25.8c0,2.2-0.7,4.4-2,6.1c-0.8,1.1-2,1.9-3.4,2.3h21.3
	c1.3-0.4,2.5-1.2,3.4-2.3c1.3-1.8,2-3.9,2-6.1L359.8,474.6z"/>
<path class="st3" d="M360.5,474.8c-0.1-47.4-15.3-92-42.7-125.7c-8-9.8-17.1-18.7-27.1-26.3c0.3,1.8,0.5,3.6,0.4,5.5
	c0,32.8-49.4,59.3-110.4,59.3c-51.8,0-95.3-19.2-107.2-45.1c-2.2,2.4-4.3,4.9-6.4,7.5c-27.2,33.9-42.1,78.6-42,126l0.1,25.7
	c0,2.7,1.2,5.3,3.2,7.1H355c1.3-0.4,2.5-1.2,3.4-2.3c1.3-1.8,2-3.9,2-6.1V474.8z"/>
<path class="st4" d="M254.1,499.8c-24.7-6.4-50.6-26.5-70.9-55.6s-32-62.7-32.1-92.2c-0.1-15,1.4-30,4.4-44.8
	c0.5-2.6,0.1-5.4-1.2-7.8c-0.6-1-1.4-1.8-2.3-2.4l2.6-0.3c-34,3.9-65.5,22.9-90,54.5c-27.2,35.5-42.2,82.1-42,131.8l0.1,25.9h237.1
	C259.9,504.5,257.5,500.6,254.1,499.8z"/>
<path class="st5" d="M154.3,299.6c1.3,2.3,1.8,5.1,1.2,7.8c-3,14.7-4.5,29.7-4.4,44.8c0.1,29.6,11.8,63.1,32.1,92.2
	s46.1,49.1,70.9,55.6c3.4,0.9,5.6,4.7,5.6,9H281c0-3.9-2-7.5-4.9-8.6c-0.2-0.1-0.5-0.1-0.6-0.2c-24.7-6.4-50.6-26.5-70.9-55.6
	s-32.1-62.7-32.1-92.2c0-15,1.5-30,4.4-44.8c0.5-2.6,0.1-5.4-1.2-7.8c-1.1-2-3.2-3.4-5.5-3.5h-3.3c-3.5,0-7,0.2-10.4,0.5h-0.4
	c-0.4,0-1,0.1-1.4,0.1l-2.6,0.3C152.9,297.9,153.8,298.6,154.3,299.6z"/>
<path class="st6" d="M271.8,308.9c8.5,7.6,14.4,20,14.4,29.4c0,27.7-41.9,109.6-93.5,109.6s-93.5-82-93.5-109.6
	c0-9.5,7-21.9,15.5-29.4"/>
<path class="st7" d="M204.1,457.5c-0.2,0.1-0.4,0.1-0.5,0.1h-19.2c-0.2,0-0.4,0-0.6-0.1c2.8-0.6,4.8-2,4.8-3.6s-2-3.6-4.8-4.2
	c0.2-0.1,0.4-0.1,0.6-0.1h19.2c0.2,0,0.4,0.1,0.5,0.1c-2.8,0.6-4.8,2.6-4.8,4.2S201.2,456.8,204.1,457.5z"/>
<path class="st8" d="M180.4,446.4c2.1,5.4,7.3,9,13.2,9c6.6,0,12-3.8,13.6-9.4"/>
<path class="st9" d="M203.2,457.5c-0.2,0.1-0.3,0.1-0.5,0.1h-17.5c-0.2,0-0.4,0-0.5-0.1c2.6-0.6,4.4-2,4.4-3.6s-2.7-3.6-5.3-4.2
	c0.2-0.2,1.2-0.1,1.4-0.1h17.5c0.2,0,1.2-0.1,1.4,0.1c-2.6,0.6-5.3,2.6-5.3,4.2S200.6,456.8,203.2,457.5z"/>
<path class="st7" d="M193.9,454.6c-13.9,0-25.1,11.2-25.1,25.1s11.2,25.1,25.1,25.1c13.9,0,25.1-11.2,25.1-25.1
	S207.8,454.6,193.9,454.6L193.9,454.6z M193.9,500.6c-11.5,0-20.9-9.4-20.9-20.9s9.4-20.9,20.9-20.9s20.9,9.4,20.9,20.9l0,0
	C214.8,491.1,205.4,500.6,193.9,500.6L193.9,500.6L193.9,500.6z"/>
<circle class="st9" cx="193.8" cy="480.1" r="25.1"/>
<circle class="st9" cx="193.8" cy="480.1" r="25.1"/>
<ellipse class="st7" cx="193.7" cy="480.2" rx="20.9" ry="20.9"/>
<circle class="st10" cx="193.8" cy="480.1" r="18"/>
<path class="st7" d="M187.3,458.1c0,0.6-0.5,1.2-1.2,1.2s-1.2-0.5-1.2-1.2l0,0V458c0.1-0.6,0.7-1.1,1.3-1c0.5,0.1,0.9,0.5,1,1
	C187.3,458.1,187.3,458.1,187.3,458.1z"/>
<path class="st7" d="M195.6,456.6c0,0.6-0.5,1.2-1.2,1.2s-1.2-0.5-1.2-1.2v-0.1c0.1-0.6,0.6-1,1.1-1c0.6,0,1.1,0.4,1.1,1
	C195.6,456.6,195.6,456.6,195.6,456.6z"/>
<path class="st7" d="M203.3,458c0,0.6-0.5,1.2-1.2,1.2s-1.2-0.5-1.2-1.2v-0.1c0.1-0.6,0.7-1.1,1.3-1c0.5,0.1,0.9,0.5,1,1
	C203.3,457.9,203.3,457.9,203.3,458z"/>
<path class="st11" d="M187.3,458c-0.1,0.6-0.7,1.1-1.3,1c-0.5-0.1-0.9-0.5-1-1c0.1-0.6,0.7-1.1,1.3-1
	C186.8,457.1,187.2,457.5,187.3,458z"/>
<path class="st11" d="M195.6,456.6c-0.1,0.6-0.6,1-1.1,1c-0.6,0-1.1-0.4-1.1-1c0.1-0.6,0.6-1,1.1-1S195.4,456,195.6,456.6z"/>
<path class="st11" d="M203.3,457.8c-0.1,0.6-0.7,1.1-1.3,1c-0.5-0.1-0.9-0.5-1-1c0.1-0.6,0.7-1.1,1.3-1
	C202.8,456.9,203.2,457.3,203.3,457.8z"/>
<circle class="st12" cx="193.8" cy="480.1" r="14.3"/>
<path class="st1" d="M78.8,176L78.8,176c-20.8,0.1-37.6,16.9-37.5,37.6c0,9.9,3.9,19.5,11,26.4c7.1,7.1,12.6,10.9,26.4,10.9h0.2
	c20.7,0,37.5-16.8,37.5-37.5C116.3,192.7,99.5,175.9,78.8,176L78.8,176z"/>
<path class="st1" d="M309.3,165H309c-22,0.1-39.8,18-39.7,40c0,10.6,4.2,20.7,11.7,28.1c7.4,7.4,17.5,11.6,28.1,11.6h0.2
	c22,0,39.8-17.9,39.8-39.8C349,182.8,331.3,165,309.3,165L309.3,165z"/>
<path class="st1" d="M306.8,134.2C306.7,104,295.4,84,272,73c-20.9-10-49.4-11.2-77.1-11.2s-56.1,1.6-77,11.6
	c-23.3,11.2-34.5,31.4-34.4,61.4l0.3,96.8C84,294.8,134,345.9,195.3,345.9h0.3c61.6-0.2,111.5-51.9,111.3-115.1L306.8,134.2z"/>
<path class="st13" d="M191.8,296.4c-9.2,0-18.2-3.4-24.9-9.7c-3-2.8-3.3-7.5-0.5-10.5s7.5-3.3,10.5-0.5l0,0
	c4.1,3.7,9.4,5.8,14.9,5.7h0.1c5.5,0,10.9-2.1,14.9-5.9c3-2.8,7.7-2.6,10.5,0.4s2.6,7.7-0.4,10.5l0,0c-6.8,6.3-15.8,9.8-25.1,9.8
	c0,0,0.1,0.1,0,0.1C191.9,296.4,191.9,296.4,191.8,296.4L191.8,296.4z"/>
<path class="st14" d="M161.9,227.4c0-6.6-5.3-11.8-11.9-11.8c-6.6,0-11.8,5.3-11.8,11.9s5.3,11.8,11.9,11.8l0,0
	C156.7,239.2,161.9,233.9,161.9,227.4z"/>
<path class="st0" d="M164.1,208.5c-0.6,0-1.3-0.1-1.9-0.3l-28-7.4c-4-1-6.4-5-5.4-9c1-4,5-6.4,9-5.4c0.1,0,0.1,0,0.2,0l28,7.4
	c4,1,6.3,5.1,5.3,9.1l0,0C170.4,206.3,167.4,208.6,164.1,208.5z"/>
<path class="st14" d="M245.7,227.1c0-6.6-5.4-11.8-11.9-11.8s-11.8,5.4-11.8,11.9s5.4,11.8,11.9,11.8c6.5,0.1,11.8-5.1,11.8-11.6
	C245.7,227.3,245.7,227.2,245.7,227.1z"/>
<path class="st0" d="M219.8,208.4c-4.1,0-7.5-3.3-7.5-7.4c0-3.4,2.2-6.3,5.5-7.2l28-7.6c4-1.1,8.1,1.2,9.2,5.2s-1.2,8.1-5.2,9.2
	l-28,7.6C221.2,208.3,220.4,208.4,219.8,208.4z"/>
<path class="st2" d="M306.8,134.2C306.7,104,295.4,84,272,73c-20.9-10-49.4-11.2-77.1-11.2c-2.6,0-5.2,0-7.8,0.1
	c23.9,0.5,47.5,2.5,65.7,11.2c23.3,11.1,34.7,31.1,34.8,61.2l0.3,96.8c0.2,60.1-44.7,109.6-102,114.7c3.2,0.3,6.3,0.5,9.6,0.5h0.3
	c61.5-0.2,111.4-51.9,111.2-115L306.8,134.2z"/>
<ellipse class="st15" cx="120.5" cy="258.5" rx="2.5" ry="2.5"/>
<ellipse class="st15" cx="135.6" cy="258.5" rx="2.5" ry="2.5"/>
<ellipse class="st15" cx="127.7" cy="270.6" rx="2.5" ry="2.5"/>
<ellipse class="st15" cx="244.8" cy="258.5" rx="2.5" ry="2.5"/>
<ellipse class="st15" cx="260" cy="258.5" rx="2.5" ry="2.5"/>
<ellipse class="st15" cx="251.9" cy="270.6" rx="2.5" ry="2.5"/>
<path class="st0" d="M217.1,145.9c5.3-9,9.2-18.8,11.6-29.1c1.1-1.8,3.4-2.3,5.1-1.3l0,0l21.8,13.1c1.8,1.1,2.3,3.4,1.3,5.1l0,0
	l-12.1,20.2c-12.3,20.5-33.6,30.4-47.4,22.2l0,0c-1.8-1.1-2.3-3.3-1.3-5.1l0,0C204.4,163.8,211.4,155.3,217.1,145.9z"/>
<path class="st0" d="M171.1,113.5c10.9-15.7,19.3-32.9,25-51.1c2.1-3,6.3-3.8,9.4-1.6l0,0l37.8,26.8c3,2.1,3.8,6.3,1.6,9.4l0,0
	L220.1,132c-25.1,35.4-65.1,50.6-89,33.7l0,0c-3-2.1-3.8-6.3-1.6-9.4l0,0C145.6,144.4,159.6,129.9,171.1,113.5z"/>
<path class="st0" d="M116.2,163.3c0.9,0.9,0.7,2.7-0.6,4l0,0c-9.8,9.6-26.6,8.3-37.3-2.7l-10.6-10.9c-0.9-0.9-0.7-2.7,0.6-4
	l15.5-15.1c1.3-1.3,3-1.4,3.9-0.5C92.8,147.3,103.1,157.8,116.2,163.3L116.2,163.3z"/>
<path class="st0" d="M301.3,148.6c4-4.2,7.2-9.2,9.3-14.6c0.8-0.8,2.3-0.6,3.4,0.4l13.1,12.8c1.1,1.1,1.3,2.6,0.5,3.4l-9,9.2
	c-9.1,9.3-23.4,10.4-31.6,2.3l0,0c-1.1-1.1-1.3-2.6-0.5-3.3C292,156.4,297,153,301.3,148.6z"/>
<path class="st0" d="M99,127.7c-2.7-6.3-4.2-13.1-4.2-19.9c-0.6-1.2-2.3-1.6-3.9-0.9l-19.8,8.8c-1.6,0.8-2.5,2.3-1.9,3.5l6.2,13.9
	c6.3,14,21.6,21,34.1,15.5l0,0c1.6-0.8,2.5-2.3,1.9-3.5C106.1,140.1,101.9,134.2,99,127.7z"/>
<path class="st0" d="M286,138.3c-0.3,1.2,0.3,2.4,1.4,2.9l0,0c9.2,4.5,20.5-1.5,25.4-13.3l4.7-11.7c0.3-1.2-0.3-2.4-1.4-2.9
	l-14.5-7.2c-1-0.6-2.3-0.3-2.8,0.7c0,0,0,0.1-0.1,0.1c-0.1,5.7-1.2,11.4-3.3,16.8C293.3,129.1,290.2,134.1,286,138.3z"/>
<path class="st0" d="M117.9,35.8H266c22.4,0,40.6,18.2,40.6,40.6v25.8c0,22.4-18.2,40.6-40.6,40.6H117.9
	c-22.4,0-40.6-18.2-40.6-40.6V76.4C77.3,53.9,95.4,35.8,117.9,35.8z"/>
</svg>
