<?xml version="1.0" encoding="utf-8"?>
<!-- Generator: Adobe Illustrator 23.1.0, SVG Export Plug-In . SVG Version: 6.00 Build 0)  -->
<svg version="1.1" id="Layer_1" xmlns="http://www.w3.org/2000/svg" xmlns:xlink="http://www.w3.org/1999/xlink" x="0px" y="0px"
	 viewBox="0 0 383 508.7" style="enable-background:new 0 0 383 508.7;" xml:space="preserve">
<style type="text/css">
	.st0{fill:#E0A632;}
	.st1{fill:#F9CD45;}
	.st2{fill:#F0BCA6;}
	.st3{fill:#E6B09A;}
	.st4{fill:#AA7959;}
	.st5{fill:#FFF4F1;}
	.st6{fill:#891272;}
	.st7{fill:none;}
	.st8{fill:none;stroke:#4C2308;stroke-miterlimit:10;}
	.st9{fill:#AA6B07;}
	.st10{fill:none;stroke:#C98441;stroke-width:0.5;stroke-miterlimit:10;}
	.st11{fill:#E5AA17;}
	.st12{fill:#DB9D12;}
	.st13{fill:#FFB000;}
	.st14{fill:#EFAC06;}
	.st15{fill:#E2A58A;}
	.st16{fill:#868686;}
	.st17{fill:#E5A589;}
</style>
<title>teen</title>
<path class="st0" d="M339.3,154.2c-3.8-5.5-6.5-11.8-7.8-18.4c-0.8-1-2.6-1.1-4.1-0.2l-18.2,11.8c-1.5,1-2,2.6-1.3,3.7l8.7,12.2
	c8.8,12.4,25.5,16.4,37.1,8.9l0,0c1.5-1,2-2.6,1.3-3.7C348.9,164.9,343.5,160,339.3,154.2z"/>
<path class="st0" d="M354.5,207.3c0.6,1.5-0.1,3.3-1.6,3.9c-0.1,0-0.1,0-0.2,0.1l0,0c-13.1,4.6-30.2-6.8-38.1-25.6l-7.8-18.5
	c-0.6-1.5,0.1-3.3,1.6-3.9c0.1,0,0.1,0,0.2-0.1l20.7-7.4c1.7-0.6,3.6,0.2,4.3,1.8c0.7,8.9,2.7,17.6,6.1,25.8
	C343.4,192.1,348.3,200.2,354.5,207.3z"/>
<path class="st0" d="M50.3,162.6c3.1-8,5-16.4,5.5-25c0.6-1.5,2.4-2.3,3.9-1.6c0.1,0,0.1,0,0.2,0.1l20,8.4c1.6,0.6,2.4,2.5,1.8,4.1
	l-7.2,17.8c-7.3,18.1-23.6,28.4-36.2,23.1l0,0c-1.6-0.6-2.4-2.4-1.8-4.1C42.4,178.6,47,170.9,50.3,162.6z"/>
<path class="st0" d="M53.1,189.7c3.1-8,5-16.4,5.5-25c0.6-1.5,2.4-2.3,3.9-1.6c0.1,0,0.1,0,0.2,0.1l20,8.4c1.6,0.6,2.4,2.5,1.8,4.1
	l-7.2,17.8c-7.3,18.1-23.6,28.4-36.2,23.1l0,0c-1.6-0.6-2.4-2.4-1.8-4.1C45.2,205.8,49.9,198.1,53.1,189.7z"/>
<path class="st0" d="M349.4,204.9c0.6,1.7-0.3,3.4-2,4c0,0,0,0,0,0l0,0c-12.9,4.7-28.8-6.4-35.2-24.9l-6.4-18.2
	c-0.6-1.7,0.3-3.4,2-4c0,0,0,0,0,0l20.5-7.5c1.6-0.6,3.3,0.1,4,1.7c0,0,0,0,0,0.1c0.1,8.6,1.5,17.2,4.3,25.4
	C339.5,190,343.8,197.9,349.4,204.9z"/>
<ellipse class="st0" cx="108.2" cy="229" rx="35.4" ry="69.3"/>
<ellipse class="st0" cx="293.7" cy="221.3" rx="27.9" ry="69.3"/>
<circle class="st1" cx="196.2" cy="138.1" r="132.3"/>
<path class="st2" d="M29.6,508.9h322.6c1.3-0.4,2.5-1.2,3.3-2.3c1.3-1.7,2-3.8,2-6l-0.1-25.4c-0.1-46.9-15.1-91.1-42.1-124.4
	s-62.6-51.5-100.2-51.5h-0.4l-46.5,0.2c-37.8,0.1-73.5,18.7-100.4,52.2s-41.6,77.8-41.5,124.7l0.1,25.4
	C26.4,504.5,27.6,507.1,29.6,508.9z"/>
<path class="st3" d="M357.4,475.1c-0.1-46.9-15.1-91.1-42.1-124.4s-62.6-51.4-100.2-51.4h-0.4l-16.8,0.1
	c36.3,1.2,70.4,19.2,96.4,51.3c27,33.3,41.9,77.5,42.1,124.4l0.1,25.4c0,2.2-0.7,4.3-2,6c-0.8,1.1-2,1.9-3.3,2.3h21
	c1.3-0.4,2.5-1.2,3.3-2.3c1.3-1.7,2-3.8,2-6L357.4,475.1z"/>
<path class="st4" d="M358.1,475.3C358,428.5,343,384.5,316,351.3c-7.8-9.7-16.8-18.4-26.7-26c0.3,1.8,0.5,3.6,0.4,5.4
	c0,32.3-48.8,58.5-108.9,58.5c-51.1,0-94-19-105.7-44.5c-2.2,2.4-4.3,4.9-6.4,7.4C42,385.6,27.3,429.7,27.3,476.5l0.1,25.3
	c0,2.7,1.1,5.2,3.1,7h322.2c1.3-0.4,2.4-1.2,3.3-2.3c1.3-1.7,2-3.8,2-6L358.1,475.3z"/>
<path class="st5" d="M253.2,499.9c-24.4-6.4-49.9-26.2-69.9-54.8s-31.6-61.8-31.7-90.9c-0.1-14.8,1.4-29.6,4.4-44.2
	c0.5-2.6,0.1-5.3-1.2-7.6c-0.6-0.9-1.3-1.8-2.3-2.4c0.9-0.1,1.7-0.2,2.5-0.3c-33.4,3.8-64.5,22.5-88.6,53.6
	c-26.8,35-41.6,81-41.4,130l0.1,25.5h233.8C258.9,504.6,256.5,500.8,253.2,499.9z"/>
<path class="st6" d="M154.8,302.6c1.3,2.3,1.8,5,1.2,7.6c-3,14.5-4.4,29.3-4.3,44.1c0.1,29.2,11.7,62.2,31.7,90.9
	s45.4,48.5,69.9,54.8c3.3,0.9,5.6,4.6,5.6,8.8h21c0-3.9-2-7.4-4.9-8.5c-0.2-0.1-0.4-0.1-0.6-0.2c-24.4-6.4-49.9-26.2-69.9-54.8
	s-31.6-61.8-31.7-90.9c0-14.8,1.5-29.6,4.4-44.1c0.5-2.6,0.1-5.3-1.2-7.6c-1.1-2-3.1-3.3-5.4-3.4h-3.2c-3.5,0-6.9,0.2-10.3,0.5h-0.4
	c-0.4,0-1,0.1-1.4,0.1l-2.5,0.3C153.6,300.9,154.3,301.7,154.8,302.6z"/>
<line class="st7" x1="199.8" y1="469.9" x2="199.8" y2="469.7"/>
<line class="st7" x1="199" y1="469.9" x2="199" y2="469.7"/>
<polyline class="st7" points="273.7,314.1 113.2,314.1 108.2,314.1 "/>
<path class="st8" d="M270.7,311.7c8.4,7.5,14.2,19.7,14.2,29c0,27.3-41.3,108.1-92.2,108.1s-92.2-80.8-92.2-108.1
	c0-9.3,6.9-21.6,15.3-29"/>
<path class="st9" d="M203.9,458.2c-0.2,0.1-0.4,0.1-0.5,0.1h-18.9c-0.2,0-0.4,0-0.6-0.1c2.8-0.6,4.7-2,4.7-3.5s-1.9-3.5-4.7-4.1
	c0.2-0.1,0.4-0.1,0.6-0.1h18.9c0.2,0,0.4,0,0.5,0.1c-2.8,0.6-4.7,2.6-4.7,4.1S201.1,457.6,203.9,458.2z"/>
<path class="st10" d="M180.6,447.2c2.1,5.4,7.3,8.9,13,8.9c6.5,0,11.9-3.7,13.4-9.3"/>
<path class="st11" d="M203,458.2c-0.2,0.1-0.3,0.1-0.5,0.1h-17.3c-0.2,0-0.3,0-0.5-0.1c2.6-0.6,4.3-2,4.3-3.5s-2.6-3.5-5.2-4.1
	c0.2-0.2,1.2-0.1,1.4-0.1h17.3c0.2,0,1.2-0.1,1.4,0.1c-2.5,0.6-5.2,2.6-5.2,4.1S200.4,457.6,203,458.2z"/>
<path class="st9" d="M193.9,455.4c-13.7,0-24.8,11.1-24.8,24.8c0,13.7,11.1,24.8,24.8,24.8c13.7,0,24.8-11.1,24.8-24.8
	S207.5,455.4,193.9,455.4C193.9,455.4,193.9,455.4,193.9,455.4z M193.9,500.8c-11.4,0-20.6-9.2-20.6-20.6s9.2-20.6,20.6-20.6
	c11.4,0,20.6,9.2,20.6,20.6v0C214.5,491.5,205.3,500.7,193.9,500.8C193.9,500.8,193.9,500.8,193.9,500.8z"/>
<circle class="st11" cx="193.8" cy="480.7" r="24.8"/>
<circle class="st11" cx="193.8" cy="480.7" r="24.8"/>
<circle class="st9" cx="193.8" cy="480.7" r="20.6"/>
<circle class="st12" cx="193.8" cy="480.7" r="17.7"/>
<path class="st9" d="M187.3,458.9c0.1,0.6-0.4,1.2-1,1.3c-0.6,0.1-1.2-0.4-1.3-1c0-0.1,0-0.1,0-0.2c0,0,0-0.1,0-0.1
	c0.1-0.6,0.6-1.1,1.2-1c0.5,0.1,1,0.5,1,1C187.3,458.8,187.3,458.8,187.3,458.9z"/>
<path class="st9" d="M195.5,457.5c0.1,0.6-0.4,1.2-1,1.3c-0.6,0.1-1.2-0.4-1.3-1c0-0.1,0-0.1,0-0.2c0,0,0-0.1,0-0.1
	c0.1-0.6,0.6-1.1,1.2-1c0.5,0.1,1,0.5,1,1C195.5,457.4,195.5,457.4,195.5,457.5z"/>
<path class="st9" d="M203.2,458.7c-0.1,0.6-0.6,1.1-1.3,1c-0.6-0.1-1-0.5-1-1c0,0,0-0.1,0-0.1c0.1-0.6,0.6-1.1,1.2-1
	c0.5,0.1,1,0.5,1,1C203.1,458.6,203.1,458.6,203.2,458.7z"/>
<path class="st13" d="M187.3,458.7c0.1,0.6-0.4,1.2-1,1.3c-0.6,0.1-1.2-0.4-1.3-1s0.4-1.2,1-1.3c0,0,0.1,0,0.1,0
	C186.8,457.7,187.3,458.2,187.3,458.7z"/>
<path class="st13" d="M195.5,457.4c0.1,0.6-0.4,1.2-1,1.3c-0.6,0.1-1.2-0.4-1.3-1s0.4-1.2,1-1.3c0,0,0.1,0,0.1,0
	C194.9,456.4,195.4,456.8,195.5,457.4z"/>
<path class="st13" d="M203.1,458.6c0.1,0.6-0.4,1.2-1,1.3c-0.6,0.1-1.2-0.4-1.3-1s0.4-1.2,1-1.3c0,0,0.1,0,0.1,0
	C202.6,457.6,203.1,458,203.1,458.6z"/>
<circle class="st14" cx="193.8" cy="480.7" r="14.1"/>
<path class="st2" d="M80.4,180.6h-0.1c-20.4,0.1-37,16.7-36.9,37.1c0,0,0,0,0,0c0,9.8,3.9,19.2,10.9,26.1c7,7,12.4,10.7,26.1,10.7
	h0.2c20.4-0.8,36.3-18.1,35.4-38.5C115.1,196.8,99.7,181.4,80.4,180.6L80.4,180.6z"/>
<path class="st2" d="M307.6,169.8h-0.2c-21.7,0.1-39.2,17.7-39.2,39.4c0,10.4,4.1,20.4,11.6,27.7c7.3,7.3,17.3,11.4,27.7,11.4h0.2
	c21.7-0.4,38.9-18.2,38.6-39.9C346,187.2,328.8,170.1,307.6,169.8L307.6,169.8z"/>
<path class="st2" d="M305.2,139.4c-0.1-29.8-11.3-49.5-34.4-60.4c-20.6-9.9-48.7-11-76-11s-55.3,1.5-75.9,11.4
	c-22.9,11-34,30.9-33.9,60.6l0.3,95.4c0.2,62.3,49.5,112.8,110,112.8h0.3c60.8-0.2,110-51.1,109.8-113.5L305.2,139.4z"/>
<path class="st15" d="M191.8,299.3c-9.1,0-17.9-3.4-24.6-9.6c-3-2.7-3.3-7.3-0.6-10.3c2.7-3,7.3-3.3,10.3-0.6
	c0.1,0.1,0.1,0.1,0.2,0.2c4,3.7,9.3,5.7,14.7,5.7h0.1c5.5,0,10.7-2.1,14.7-5.8c3-2.8,7.6-2.6,10.4,0.4c2.8,3,2.6,7.6-0.4,10.4
	c-6.7,6.2-15.5,9.7-24.7,9.7C192,299.3,191.9,299.3,191.8,299.3C191.9,299.3,191.9,299.3,191.8,299.3z"/>
<path class="st16" d="M162.4,231.3c0-6.5-5.3-11.7-11.8-11.6c-6.5,0-11.7,5.3-11.6,11.8c0,6.5,5.3,11.7,11.7,11.6
	C157.2,243,162.4,237.8,162.4,231.3z"/>
<path class="st0" d="M171.5,207.3c-0.8,3.3-3.7,5.5-7.1,5.5c-0.6,0-1.3-0.1-1.9-0.3l-27.6-7.3c-2.8-0.7-4.8-3-5.3-5.8
	c-0.2-1-0.2-2.1,0.1-3.1c1-3.9,5.1-6.2,9-5.2l27.6,7.3C170.2,199.4,172.6,203.4,171.5,207.3C171.5,207.3,171.5,207.3,171.5,207.3
	L171.5,207.3z"/>
<path class="st16" d="M244.9,231.1c0-6.5-5.3-11.7-11.7-11.7s-11.7,5.3-11.7,11.7c0,6.5,5.3,11.7,11.7,11.7c0,0,0,0,0,0
	c6.4,0.1,11.6-5.1,11.7-11.4C245,231.3,245,231.2,244.9,231.1z"/>
<path class="st0" d="M249,204.8l-27.6,7.4c-0.6,0.2-1.3,0.3-2,0.3c-3.3,0-6.2-2.2-7.1-5.4c-0.1-0.2-0.1-0.5-0.1-0.7
	c-0.6-3.7,1.6-7.3,5.3-8.4l27.6-7.4c3.9-1.1,8,1.2,9.1,5.1C255.2,199.6,252.9,203.7,249,204.8C249,204.8,249,204.8,249,204.8
	L249,204.8z"/>
<path class="st1" d="M170.5,204.7c-0.8,3.2-3.7,5.5-7.1,5.5c-0.6,0-1.3-0.1-1.9-0.3l-27.6-7.3c-1.8-0.5-3.4-1.6-4.4-3.2
	c-0.2-1-0.2-2.1,0.1-3.1c1-3.9,5.1-6.2,9-5.2l27.6,7.3c1.8,0.5,3.4,1.6,4.4,3.2C170.9,202.6,170.8,203.7,170.5,204.7z"/>
<path class="st1" d="M248,202.3l-27.6,7.5c-0.7,0.2-1.3,0.3-2,0.3c-2.6,0-4.9-1.3-6.2-3.5c-0.6-3.7,1.6-7.3,5.3-8.4l27.6-7.4
	c3.1-0.8,6.5,0.5,8.2,3.2C253.8,197.6,251.6,201.2,248,202.3z"/>
<path class="st3" d="M305.2,139.4c-0.1-29.8-11.3-49.5-34.4-60.4c-20.6-9.9-48.7-11-76-11c-2.6,0-5.1,0-7.7,0.1
	c23.6,0.4,46.9,2.5,64.8,11c23,10.9,34.3,30.6,34.4,60.4l0.3,95.4c0.2,59.2-44.1,108.1-100.6,113.1c3.1,0.3,6.3,0.4,9.5,0.4h0.3
	c60.7-0.2,109.9-51.1,109.7-113.5L305.2,139.4z"/>
<ellipse class="st17" cx="121.4" cy="262.2" rx="2.5" ry="2.5"/>
<ellipse class="st17" cx="136.5" cy="262.2" rx="2.5" ry="2.5"/>
<ellipse class="st17" cx="128.6" cy="274" rx="2.5" ry="2.5"/>
<ellipse class="st17" cx="244" cy="262.2" rx="2.5" ry="2.5"/>
<ellipse class="st17" cx="259.1" cy="262.2" rx="2.5" ry="2.5"/>
<ellipse class="st17" cx="251.2" cy="274" rx="2.5" ry="2.5"/>
<path class="st1" d="M29.3,148.6c-0.6,1.5,0.4,3.3,2.5,4.1l0,0c15.7,6,34.7-3.1,42.1-20.2l7.3-16.8c0.6-1.5-0.4-3.3-2.5-4.1
	l-22.2-9.9c-2-0.8,1.5-2.9,0.8-1.5c0.1,6-9.1,17.8-13,27.2C40.8,135.4,35.7,142.6,29.3,148.6z"/>
<ellipse class="st0" cx="80.5" cy="116.1" rx="28.4" ry="27.8"/>
<ellipse class="st1" cx="77.8" cy="115" rx="26.7" ry="28"/>
<ellipse class="st0" cx="302.4" cy="117.1" rx="26.3" ry="25.1"/>
<ellipse transform="matrix(0.9926 -0.1212 0.1212 0.9926 -11.6265 37.6042)" class="st1" cx="303.4" cy="114.4" rx="24.4" ry="25.1"/>
<path class="st1" d="M350.8,129.3c1.1,1.3,0.9,3.1-0.3,4.2c-0.1,0.1-0.1,0.1-0.2,0.1l0,0c-11.1,8.4-30.9,2.5-44-13.1l-12.9-15.3
	c-1.1-1.3-0.9-3.1,0.3-4.2c0.1-0.1,0.1-0.1,0.2-0.2l17.5-13.3c1.4-1.1,3.4-0.9,4.6,0.5c3.3,8.3,7.8,16,13.5,22.8
	C335.6,118.1,342.8,124.4,350.8,129.3z"/>
<ellipse class="st0" cx="196.6" cy="85.9" rx="119.7" ry="72.5"/>
<ellipse class="st1" cx="195.8" cy="78.3" rx="119.7" ry="72.5"/>
</svg>
