<?xml version="1.0" encoding="utf-8"?>
<!-- Generator: Adobe Illustrator 23.1.0, SVG Export Plug-In . SVG Version: 6.00 Build 0)  -->
<svg version="1.1" id="Layer_1" xmlns="http://www.w3.org/2000/svg" xmlns:xlink="http://www.w3.org/1999/xlink" x="0px" y="0px"
	 viewBox="0 0 383 508.7" style="enable-background:new 0 0 383 508.7;" xml:space="preserve">
<style type="text/css">
	.st0{fill:none;}
	.st1{fill:#AA6B07;}
	.st2{fill:none;stroke:#C98441;stroke-width:0.5;stroke-miterlimit:10;}
	.st3{fill:#E5AA17;}
	.st4{fill:#DB9D12;}
	.st5{fill:#FFB000;}
	.st6{fill:#EFAC06;}
	.st7{fill:#3A1E0B;}
	.st8{fill:#F0BCA6;}
	.st9{fill:#E6B09A;}
	.st10{fill:#9587E8;}
	.st11{fill:#F4F0EF;}
	.st12{fill:#891272;}
	.st13{fill:none;stroke:#4C2308;stroke-miterlimit:10;}
	.st14{fill:#E2A58A;}
	.st15{fill:#868686;}
	.st16{fill:#E5A589;}
	.st17{fill:#261306;}
</style>
<g>
	<line class="st0" x1="199.8" y1="470.5" x2="199.8" y2="470.4"/>
	<line class="st0" x1="199" y1="470.5" x2="199" y2="470.4"/>
	<g>
		<path class="st1" d="M203.9,458.9c-0.1,0.1-0.3,0.1-0.5,0.1h-18.9c-0.2,0-0.4,0-0.5-0.1c2.8-0.6,4.7-2,4.7-3.5s-1.9-3.5-4.7-4.1
			c0.1-0.1,0.3-0.1,0.5-0.1h18.9c0.2,0,0.4,0,0.5,0.1c-2.8,0.6-4.7,2.6-4.7,4.1S201.1,458.3,203.9,458.9z"/>
		<path class="st2" d="M180.6,447.9c1.9,5,6.9,8.8,13,8.8c6.5,0,11.9-3.7,13.4-9.2"/>
		<path class="st3" d="M203,458.9c-0.1,0.1-0.3,0.1-0.5,0.1h-17.3c-0.2,0-0.4,0-0.5-0.1c2.6-0.6,4.3-2,4.3-3.5s-2.6-3.5-5.2-4.1
			c0.2-0.2,1.2-0.1,1.4-0.1h17.3c0.2,0,1.2-0.1,1.4,0.1c-2.6,0.6-5.2,2.6-5.2,4.1S200.4,458.3,203,458.9z"/>
		<path class="st1" d="M193.9,456c-13.7,0-24.7,11.1-24.7,24.7c0,13.7,11.1,24.7,24.7,24.7c13.7,0,24.7-11.1,24.7-24.7
			C218.6,467.1,207.5,456,193.9,456z M193.9,501.4c-11.4,0-20.6-9.2-20.6-20.6s9.2-20.6,20.6-20.6c11.4,0,20.6,9.2,20.6,20.6
			S205.2,501.4,193.9,501.4z"/>
		<circle class="st3" cx="193.8" cy="481.3" r="24.7"/>
		<circle class="st3" cx="193.8" cy="481.3" r="24.7"/>
		<circle class="st1" cx="193.8" cy="481.3" r="20.6"/>
		<circle class="st4" cx="193.8" cy="481.3" r="17.7"/>
		<g>
			<path class="st1" d="M187.3,459.5c0,0.6-0.5,1.1-1.1,1.1s-1.1-0.5-1.1-1.1v-0.1c0.1-0.6,0.5-1,1.1-1S187.3,458.9,187.3,459.5
				C187.3,459.5,187.3,459.5,187.3,459.5z"/>
			<path class="st1" d="M195.5,458.1c0,0.6-0.5,1.1-1.1,1.1s-1.1-0.5-1.1-1.1V458c0.1-0.6,0.5-1,1.1-1s1.1,0.4,1.1,1
				C195.5,458,195.5,458,195.5,458.1z"/>
			<path class="st1" d="M203.1,459.4c0,0.6-0.5,1.1-1.1,1.1s-1.1-0.5-1.1-1.1v-0.1c0.1-0.6,0.5-1,1.1-1S203.1,458.6,203.1,459.4
				C203.1,459.3,203.1,459.3,203.1,459.4z"/>
			<path class="st5" d="M187.3,459.4c-0.1,0.6-0.5,1-1.1,1s-1.1-0.4-1.1-1c0.1-0.6,0.5-1,1.1-1S187.3,458.9,187.3,459.4z"/>
			<path class="st5" d="M195.5,458c-0.1,0.6-0.5,1-1.1,1s-1.1-0.4-1.1-1c0.1-0.6,0.5-1,1.1-1C194.9,457,195.4,457.5,195.5,458z"/>
			<path class="st5" d="M203.1,459.3c-0.1,0.6-0.5,1-1.1,1s-1.1-0.4-1.1-1c0.1-0.6,0.5-1,1.1-1C202.6,458.1,203.1,458.6,203.1,459.3
				z"/>
		</g>
		<circle class="st6" cx="193.8" cy="481.3" r="14.1"/>
	</g>
	<ellipse class="st7" cx="196.3" cy="132.4" rx="135.1" ry="124.8"/>
	<path class="st8" d="M29.7,509.5h322.4c1.2-0.3,2.4-1.2,3.3-2.3c1.3-1.6,2-3.8,2-6l-0.1-25.4c-0.1-46.9-15.1-91-42.1-124.3
		c-26.9-33.2-62.5-51.4-100.1-51.4c-0.2,0-0.3,0-0.4,0l-46.4,0.2C130.5,300.4,94.9,319,68,352.5S26.4,430.3,26.5,477l0.1,25.4
		C26.6,505.4,27.9,508,29.7,509.5z"/>
	<path class="st9" d="M357.3,475.8c-0.1-46.9-15.1-91-42.1-124.3c-26.9-33.2-62.5-51.4-100.1-51.4c-0.2,0-0.3,0-0.4,0l-16.8,0.1
		c36.2,1.2,70.3,19.2,96.4,51.3c27,33.3,41.9,77.4,42.1,124.3l0.1,25.4c0,2.3-0.7,4.4-2,6c-0.9,1.1-2,1.9-3.3,2.3h21
		c1.2-0.3,2.4-1.2,3.3-2.3c1.3-1.6,2-3.8,2-6L357.3,475.8z"/>
	<g>
		<path id="XMLID_37_" class="st10" d="M358,476c-0.1-46.7-15.1-90.7-42.1-123.9c-8.2-10-17.1-18.7-26.7-25.9
			c0.3,1.8,0.4,3.6,0.4,5.4c0,32.3-48.7,58.4-108.8,58.4c-51.1,0-93.9-18.9-105.6-44.4c-2.2,2.4-4.3,4.8-6.4,7.4
			C42.1,386.3,27.4,430.4,27.5,477l0.1,25.3c0.1,2.9,1.3,5.5,3.1,7h322c1.2-0.3,2.3-1.2,3.3-2.3c1.3-1.6,2-3.8,2-6V476z"/>
	</g>
	<path class="st11" d="M253.2,500.5c-24.4-6.3-49.9-26.1-69.9-54.8c-20-28.6-31.6-61.8-31.7-90.8c-0.1-14.8,1.4-29.7,4.4-44.1
		c0.5-2.6,0.1-5.5-1.2-7.6c-0.6-1-1.4-1.8-2.3-2.4c0.9-0.1,1.7-0.2,2.5-0.3c-33.4,3.8-64.5,22.5-88.6,53.6C39.7,389,24.9,435,25,484
		l0.1,25.5h233.6C258.8,505.1,256.5,501.5,253.2,500.5z"/>
	<path class="st12" d="M154.9,303.4c1.3,2.2,1.7,5.1,1.2,7.6c-3,14.4-4.4,29.3-4.4,44.1c0.1,29.2,11.7,62.2,31.7,90.8
		c20,28.5,45.4,48.4,69.9,54.8c3.3,0.9,5.6,4.6,5.6,8.8h21c0-3.9-2-7.4-4.9-8.5c-0.2-0.1-0.4-0.1-0.6-0.2
		c-24.4-6.3-49.9-26.1-69.9-54.8c-20-28.6-31.6-61.8-31.7-90.8c0-15,1.5-29.8,4.4-44.1c0.5-2.7,0.1-5.5-1.2-7.6
		c-1.3-2.2-3.3-3.4-5.4-3.4h-3.2c-3.5,0-6.9,0.2-10.3,0.5c-0.2,0-0.3,0-0.4,0c-0.4,0-1,0.1-1.4,0.1c-0.9,0.1-1.7,0.2-2.5,0.3
		C153.5,301.5,154.3,302.4,154.9,303.4z"/>
	<path class="st13" d="M270.6,312.5c8.4,7.4,14.2,19.7,14.2,29c0,27.3-41.2,108-92.1,108s-92.1-80.8-92.1-108
		c0-9.3,6.9-21.5,15.3-29"/>
	<path class="st8" d="M80.1,170.6c-0.1,0-0.1,0-0.2,0C59.5,170.8,43,187.4,43,207.8c0,9.8,3.9,19.2,10.9,26.1
		c7,7,12.4,10.7,26.1,10.7h0.2c20.4-0.1,36.9-16.7,36.9-37.1C116.9,187.3,100.4,170.6,80.1,170.6z"/>
	<path class="st8" d="M307.1,159.9c-0.1,0-0.1,0-0.2,0c-21.7,0.1-39.2,17.7-39.1,39.4c0,10.4,4.1,20.4,11.5,27.7
		c7.5,7.4,17.2,11.4,27.7,11.4h0.2c21.7-0.1,39.2-17.7,39.1-39.4S328.7,159.9,307.1,159.9z"/>
	<path class="st8" d="M304.7,127.2c-0.1-28.8-11.3-47.8-34.3-58.4c-20.6-9.5-48.7-10.6-76-10.6c-27.1,0.1-55.2,1.4-75.9,11.1
		c-22.9,10.6-34,29.9-33.9,58.6l0.3,92.3c0.2,60.3,49.5,109,109.9,109h0.3c60.7-0.2,109.9-49.5,109.7-109.8L304.7,127.2z"/>
	<path class="st14" d="M191.4,272.9c-9.1,0-17.9-3.4-24.6-9.6c-3-2.7-3.2-7.4-0.5-10.3s7.4-3.2,10.3-0.5c4,3.7,9.2,5.7,14.7,5.7h0.1
		c5.5,0,10.7-2,14.7-5.8c3-2.8,7.6-2.6,10.3,0.4c2.8,3,2.6,7.6-0.4,10.3C209.5,269.4,200.7,272.8,191.4,272.9
		C191.5,272.9,191.4,272.9,191.4,272.9z"/>
	<path class="st15" d="M162,204.9c0-6.4-5.3-11.6-11.7-11.6c-6.4,0-11.6,5.3-11.6,11.7s5.3,11.6,11.7,11.6
		C156.8,216.6,162,211.4,162,204.9z"/>
	<path class="st15" d="M244.5,204.6c0-6.4-5.3-11.6-11.7-11.6s-11.6,5.3-11.6,11.7s5.3,11.6,11.7,11.6
		C239.4,216.4,244.6,211.1,244.5,204.6z"/>
	<path class="st9" d="M304.7,127.2c-0.1-28.8-11.3-47.8-34.3-58.4c-20.6-9.5-48.7-10.6-76-10.6c-2.6,0-5.1,0-7.7,0.1
		c23.6,0.4,46.8,2.4,64.8,10.6c23,10.6,34.2,29.6,34.3,58.4l0.3,92.3c0.2,57.3-44.1,104.5-100.5,109.4c3.1,0.3,6.2,0.4,9.5,0.4h0.3
		C256,329.3,305.2,280,305,219.8L304.7,127.2z"/>
	<ellipse class="st16" cx="121.1" cy="252.1" rx="2.5" ry="2.4"/>
	<ellipse class="st16" cx="136.1" cy="252.1" rx="2.5" ry="2.4"/>
	<ellipse class="st16" cx="128.2" cy="264" rx="2.5" ry="2.4"/>
	<ellipse class="st16" cx="243.6" cy="252.1" rx="2.5" ry="2.4"/>
	<ellipse class="st16" cx="258.6" cy="252.1" rx="2.5" ry="2.4"/>
	<ellipse class="st16" cx="250.7" cy="264" rx="2.5" ry="2.4"/>
	
		<ellipse transform="matrix(0.6137 -0.7895 0.7895 0.6137 -113.1977 133.3615)" class="st17" cx="79.7" cy="182.4" rx="16.8" ry="21.1"/>
	
		<ellipse transform="matrix(0.6137 -0.7895 0.7895 0.6137 -110.415 131.2068)" class="st7" cx="78.9" cy="178.4" rx="16.8" ry="21.1"/>
	
		<ellipse transform="matrix(0.7895 -0.6137 0.6137 0.7895 -49.3313 220.8356)" class="st17" cx="297.3" cy="182.3" rx="21.1" ry="16.8"/>
	
		<ellipse transform="matrix(0.7895 -0.6137 0.6137 0.7895 -46.7684 220.4975)" class="st7" cx="298.1" cy="178.4" rx="21.1" ry="16.8"/>
	
		<ellipse transform="matrix(0.3797 -0.9251 0.9251 0.3797 -77.1207 168.9548)" class="st17" cx="87.4" cy="142" rx="36.1" ry="40.9"/>
	
		<ellipse transform="matrix(0.412 -0.9112 0.9112 0.412 -76.0459 156.3642)" class="st7" cx="83.1" cy="137.1" rx="36.2" ry="40.9"/>
	
		<ellipse transform="matrix(0.9251 -0.3797 0.3797 0.9251 -30.6646 126.8331)" class="st17" cx="306.2" cy="141.2" rx="40.9" ry="36.1"/>
	
		<ellipse transform="matrix(0.9251 -0.3797 0.3797 0.9251 -28.3483 126.3747)" class="st7" cx="306.2" cy="135.1" rx="40.9" ry="36.1"/>
	<ellipse class="st17" cx="124.3" cy="102.5" rx="60.7" ry="52.8"/>
	<ellipse class="st7" cx="120.8" cy="93.6" rx="60.7" ry="52.8"/>
	<ellipse class="st17" cx="272.4" cy="102.5" rx="60.7" ry="52.8"/>
	<ellipse class="st7" cx="271.8" cy="92.7" rx="60.7" ry="52.8"/>
	<ellipse class="st17" cx="196.3" cy="79" rx="99.4" ry="71.4"/>
	<ellipse class="st7" cx="195.7" cy="70.6" rx="99.4" ry="67.4"/>
	<g>
		<path class="st1" d="M203,458.5c-0.1,0.1-0.3,0.1-0.5,0.1h-18.4c-0.2,0-0.4,0-0.5-0.1c2.7-0.6,4.6-1.9,4.6-3.4s-1.9-3.4-4.6-4
			c0.1-0.1,0.3-0.1,0.5-0.1h18.4c0.2,0,0.4,0,0.5,0.1c-2.7,0.6-4.6,2.5-4.6,4S200.3,458,203,458.5z"/>
		<path class="st2" d="M180.3,447.9c1.8,4.9,6.7,8.6,12.6,8.6c6.3,0,11.6-3.6,13.1-9"/>
		<path class="st3" d="M202.2,458.5c-0.1,0.1-0.3,0.1-0.5,0.1h-16.8c-0.2,0-0.4,0-0.5-0.1c2.5-0.6,4.2-1.9,4.2-3.4s-2.6-3.4-5-4
			c0.2-0.2,1.2-0.1,1.3-0.1h16.8c0.2,0,1.1-0.1,1.3,0.1c-2.5,0.6-5,2.5-5,4S199.7,458,202.2,458.5z"/>
		<path class="st1" d="M193.3,455.9c-13.3,0-24.1,10.8-24.1,24.1c0,13.3,10.8,24.1,24.1,24.1s24.1-10.8,24.1-24.1
			C217.4,466.5,206.6,455.9,193.3,455.9z M193.3,500c-11.1,0-20-9-20-20.1s9-20,20-20c11.1,0,20.1,9,20.1,20
			C213.3,491,204.3,500,193.3,500z"/>
		<ellipse class="st3" cx="193.2" cy="480.5" rx="24.1" ry="24.1"/>
		<ellipse class="st3" cx="193.2" cy="480.5" rx="24.1" ry="24.1"/>
		<ellipse class="st1" cx="193.2" cy="480.5" rx="20" ry="20"/>
		<circle class="st4" cx="193.2" cy="480.5" r="17.2"/>
		<g>
			<path class="st1" d="M186.9,459.3c0,0.6-0.5,1.1-1.1,1.1s-1.1-0.5-1.1-1.1v-0.1c0.1-0.6,0.5-1,1.1-1S186.8,458.5,186.9,459.3
				C186.9,459.1,186.9,459.1,186.9,459.3z"/>
			<path class="st1" d="M194.9,457.9c0,0.6-0.5,1.1-1.1,1.1s-1.1-0.5-1.1-1.1v-0.1c0.1-0.6,0.5-1,1.1-1S194.8,457.1,194.9,457.9
				C194.9,457.8,194.9,457.9,194.9,457.9z"/>
			<path class="st1" d="M202.3,459c0,0.6-0.5,1.1-1.1,1.1s-1.1-0.5-1.1-1.1v-0.1c0.1-0.6,0.5-1,1.1-1S202.2,458.4,202.3,459
				C202.3,459,202.3,459,202.3,459z"/>
			<path class="st5" d="M186.9,459c-0.1,0.6-0.5,1-1.1,1s-1-0.4-1.1-1c0.1-0.6,0.5-1,1.1-1S186.8,458.5,186.9,459z"/>
			<path class="st5" d="M194.9,457.8c-0.1,0.6-0.5,1-1.1,1s-1-0.4-1.1-1c0.1-0.6,0.5-1,1.1-1C194.3,456.8,194.8,457.1,194.9,457.8z"
				/>
			<path class="st5" d="M202.3,458.9c-0.1,0.6-0.5,1-1.1,1s-1-0.4-1.1-1c0.1-0.6,0.5-1,1.1-1C201.8,458,202.2,458.4,202.3,458.9z"/>
		</g>
		<circle class="st6" cx="193.2" cy="480.5" r="13.7"/>
	</g>
	<path class="st7" d="M153,176.1c7.8,0,15.3,1.4,21,4.1c2.5,1.1,2.6,3,0.4,4.2c-2.2,1.2-6.1,1.3-8.5,0.2c-3.5-1.6-8.1-2.6-12.9-2.6
		h-0.1c-4.9,0-9.4,0.9-13,2.6c-2.5,1.1-6.2,1-8.5-0.2s-2.1-3.1,0.3-4.2C137.6,177.4,145.1,175.9,153,176.1L153,176.1z"/>
	<path class="st7" d="M235.2,174.9c7.8,0,15.3,1.4,21,4.1c2.5,1.1,2.6,3,0.4,4.2c-2.2,1.2-6.1,1.3-8.5,0.2
		c-3.5-1.6-8.1-2.6-12.9-2.6h-0.1c-4.9,0-9.4,0.9-13,2.6c-2.5,1.1-6.2,1-8.5-0.2c-2.2-1.2-2.1-3.1,0.3-4.2
		C219.8,176.4,227.3,174.9,235.2,174.9C235.1,174.9,235.2,174.9,235.2,174.9z"/>
</g>
</svg>
