<?xml version="1.0" encoding="utf-8"?>
<!-- Generator: Adobe Illustrator 19.0.0, SVG Export Plug-In . SVG Version: 6.00 Build 0)  -->
<svg version="1.1" id="Layer_1" xmlns="http://www.w3.org/2000/svg" xmlns:xlink="http://www.w3.org/1999/xlink" x="0px" y="0px"
	 viewBox="-114 142.3 383 508.7" style="enable-background:new -114 142.3 383 508.7;" xml:space="preserve">
<style type="text/css">
	.st0{fill:#3F2016;}
	.st1{fill:#C6A89C;}
	.st2{fill:#B38B7B;}
	.st3{fill:#EF9067;}
	.st4{fill:#F4F0EF;}
	.st5{fill:#891272;}
	.st6{fill:none;}
	.st7{fill:none;stroke:#4C2308;stroke-miterlimit:10;}
	.st8{fill:#AA6B07;}
	.st9{fill:none;stroke:#C98441;stroke-width:0.5;stroke-miterlimit:10;}
	.st10{fill:#E5AA17;}
	.st11{fill:#DB9D12;}
	.st12{fill:#FFB000;}
	.st13{fill:#EFAC06;}
	.st14{fill:#897F79;}
	.st15{fill:#868686;}
	.st16{fill:#3A1E0B;}
</style>
<ellipse class="st0" cx="218.8" cy="325.8" rx="37.4" ry="37.4"/>
<ellipse class="st0" cx="-51.4" cy="329.8" rx="37.4" ry="37.4"/>
<g>
	<ellipse class="st0" cx="85.4" cy="290.5" rx="124" ry="117.2"/>
	<path class="st1" d="M-77,651.8h307.8c1.2-0.3,2.2-1.1,3.2-2.2c1.2-1.5,1.9-3.6,1.9-5.8l-0.1-24.2c-0.1-44.7-14.4-86.9-40.2-118.6
		c-25.7-31.6-59.6-49.1-95.6-49.1c-0.2,0-0.2,0-0.4,0l-44.3,0.2c-36.1,0.1-70.1,17.8-95.7,49.8S-80.1,576.2-80,620.8l0.1,24.2
		C-80,647.9-78.8,650.4-77,651.8z"/>
	<path class="st2" d="M235.7,619.7c-0.1-44.7-14.4-86.9-40.2-118.6c-25.7-31.6-59.6-49.1-95.6-49.1c-0.2,0-0.2,0-0.4,0l-16.1,0.1
		c34.6,1.1,67.1,18.3,92,49c25.8,31.7,40,73.9,40.2,118.6l0.1,24.2c0,2.2-0.7,4.2-1.9,5.8c-0.8,1-1.9,1.9-3.2,2.2h20
		c1.2-0.3,2.2-1.1,3.2-2.2c1.2-1.5,1.9-3.6,1.9-5.8V619.7z"/>
	<g>
		<path id="XMLID_39_" class="st3" d="M236.4,619.8c-0.1-44.6-14.4-86.6-40.1-118.2c-7.8-9.6-16.4-17.9-25.5-24.7
			c0.3,1.7,0.4,3.4,0.4,5.1c0,30.8-46.5,55.8-103.8,55.8c-48.8,0-89.6-18.1-100.9-42.4c-2.1,2.3-4.1,4.6-6.1,7.1
			c-25.6,31.8-39.6,73.9-39.5,118.6l0.1,24.1c0.1,2.8,1.2,5.2,3,6.7h307.4c1.2-0.3,2.2-1.1,3.2-2.2c1.2-1.5,1.9-3.6,1.9-5.8
			L236.4,619.8L236.4,619.8z"/>
	</g>
	<path class="st4" d="M136.3,643.3c-23.3-6.1-47.6-25-66.7-52.3s-30.2-58.9-30.2-86.7c-0.1-14.2,1.3-28.3,4.2-42.1
		c0.5-2.5,0.1-5.2-1.2-7.3c-0.6-0.9-1.3-1.7-2.2-2.3c0.8-0.1,1.6-0.2,2.4-0.3C10.7,455.9-19,473.8-42,503.4
		c-25.6,33.4-39.7,77.2-39.5,124l0.1,24.3h223.1C141.7,647.7,139.5,644.2,136.3,643.3z"/>
	<path class="st5" d="M42.5,455.1c1.2,2.1,1.7,4.8,1.2,7.3c-2.8,13.8-4.2,27.9-4.2,42.1c0.1,27.8,11.1,59.4,30.2,86.7
		c19.1,27.2,43.4,46.2,66.7,52.3c3.2,0.8,5.3,4.4,5.3,8.4h20c0-3.7-1.9-7.1-4.7-8.1c-0.2-0.1-0.4-0.1-0.6-0.2
		c-23.3-6.1-47.6-25-66.7-52.3s-30-58.9-30.1-86.7c0-14.3,1.4-28.4,4.2-42.1c0.5-2.6,0.1-5.2-1.2-7.3c-1.2-2.1-3.2-3.3-5.2-3.3h-3.1
		c-3.3,0-6.6,0.2-9.8,0.5c-0.2,0-0.2,0-0.4,0c-0.4,0-0.9,0.1-1.3,0.1c-0.8,0.1-1.6,0.2-2.4,0.3C41.1,453.3,41.9,454.2,42.5,455.1z"
		/>
	<line class="st6" x1="85.4" y1="614.7" x2="85.4" y2="614.4"/>
	<line class="st6" x1="84.6" y1="614.7" x2="84.6" y2="614.4"/>
	<path class="st7" d="M153,463.7c8,7.1,13.6,18.8,13.6,27.7c0,26-39.4,103.1-88,103.1s-88-77.1-88-103.1c0-8.9,6.6-20.6,14.6-27.7"
		/>
	<g>
		<path class="st8" d="M89.2,603.6c-0.1,0.1-0.3,0.1-0.5,0.1h-18c-0.2,0-0.4,0-0.5-0.1c2.7-0.6,4.5-1.9,4.5-3.4s-1.8-3.3-4.5-4
			c0.1-0.1,0.3-0.1,0.5-0.1h18c0.2,0,0.4,0,0.5,0.1c-2.7,0.6-4.5,2.5-4.5,4S86.6,602.9,89.2,603.6z"/>
		<path class="st9" d="M67,593.1c1.8,4.8,6.6,8.4,12.4,8.4c6.2,0,11.3-3.6,12.8-8.8"/>
		<path class="st10" d="M88.4,603.6c-0.1,0.1-0.3,0.1-0.5,0.1H71.4c-0.2,0-0.3,0-0.5-0.1c2.4-0.6,4.1-1.9,4.1-3.4s-2.5-3.3-4.9-4
			c0.2-0.2,1.1-0.1,1.3-0.1h16.5c0.2,0,1.1-0.1,1.3,0.1c-2.4,0.6-4.9,2.5-4.9,4C84.3,601.7,86,602.9,88.4,603.6z"/>
		<path class="st8" d="M79.7,600.8c-13,0-23.6,10.6-23.6,23.6c0,13.1,10.6,23.6,23.6,23.6c13.1,0,23.6-10.6,23.6-23.6
			S92.7,600.8,79.7,600.8z M79.7,644.2c-10.9,0-19.7-8.8-19.7-19.7s8.8-19.6,19.7-19.6s19.7,8.8,19.7,19.6
			C99.4,635.3,90.6,644.2,79.7,644.2z"/>
		<ellipse class="st10" cx="79.6" cy="624.9" rx="23.6" ry="23.6"/>
		<ellipse class="st10" cx="79.6" cy="624.9" rx="23.6" ry="23.6"/>
		<ellipse class="st8" cx="79.6" cy="624.9" rx="19.7" ry="19.7"/>
		<ellipse class="st11" cx="79.6" cy="624.9" rx="16.9" ry="16.9"/>
		<g>
			<path class="st8" d="M73.5,604.2c0,0.6-0.5,1.1-1.1,1.1s-1.1-0.5-1.1-1.1v-0.1c0.1-0.5,0.5-1,1.1-1S73.4,603.5,73.5,604.2
				L73.5,604.2z"/>
			<path class="st8" d="M81.3,602.8c0,0.6-0.5,1.1-1.1,1.1s-1.1-0.5-1.1-1.1v-0.1c0.1-0.5,0.5-1,1.1-1s1,0.4,1.1,1V602.8z"/>
			<path class="st8" d="M88.6,603.9c0,0.6-0.5,1.1-1.1,1.1s-1.1-0.5-1.1-1.1v-0.1c0.1-0.5,0.5-1,1.1-1s1,0.4,1.1,1
				C88.6,603.9,88.6,603.9,88.6,603.9z"/>
			<path class="st12" d="M73.5,604.1c-0.1,0.5-0.5,1-1.1,1s-1-0.4-1.1-1c0.1-0.5,0.5-1,1.1-1C72.9,603.1,73.4,603.4,73.5,604.1z"/>
			<path class="st12" d="M81.3,602.7c-0.1,0.5-0.5,1-1.1,1s-1-0.4-1.1-1c0.1-0.5,0.5-1,1.1-1C80.7,601.7,81.2,602.2,81.3,602.7z"/>
			<path class="st12" d="M88.5,603.8c-0.1,0.5-0.5,1-1.1,1s-1-0.4-1.1-1c0.1-0.5,0.5-1,1.1-1S88.5,603.3,88.5,603.8z"/>
		</g>
		<ellipse class="st13" cx="79.6" cy="624.9" rx="13.4" ry="13.4"/>
	</g>
	<path class="st1" d="M-23.3,326.2C-23.4,326.2-23.4,326.2-23.3,326.2c-19.6,0.1-35.4,15.9-35.3,35.4c0,9.4,3.7,18.3,10.4,24.9
		s11.8,10.2,24.9,10.2h0.1c19.5-0.1,35.3-15.9,35.2-35.4C11.9,342-3.9,326.2-23.3,326.2z"/>
	<path class="st1" d="M193.5,315.9c-0.1,0-0.1,0-0.2,0c-20.7,0.1-37.4,16.9-37.4,37.6c0,10,3.9,19.4,11,26.4s16.5,10.9,26.4,10.9
		h0.2c20.7-0.1,37.4-16.9,37.4-37.6S214.1,315.9,193.5,315.9z"/>
	<path class="st1" d="M191.1,284.7c-0.1-27.5-10.7-45.7-32.8-55.7c-19.7-9.1-46.5-10.2-72.5-10.2c-25.9,0.1-52.7,1.4-72.4,10.6
		c-21.9,10.2-32.4,28.5-32.3,55.9l0.3,88.1c0.2,57.5,47.2,104.1,104.9,104.1h0.3c58-0.2,104.9-47.2,104.7-104.8L191.1,284.7z"/>
	<path class="st14" d="M83,423.7c-8.7,0-17.1-3.2-23.5-9.2c-2.8-2.6-3-7-0.4-9.9c2.6-2.8,7-3,9.9-0.4c3.8,3.6,8.8,5.4,14,5.4h0.1
		c5.2,0,10.2-2,14-5.5c2.8-2.7,7.3-2.5,9.9,0.4c2.7,2.8,2.5,7.3-0.4,9.9C100.2,420.2,91.9,423.6,83,423.7
		C83.1,423.7,83,423.7,83,423.7z"/>
	<path class="st15" d="M54.9,358.8c0-6.1-5.1-11.1-11.2-11.1s-11.1,5.1-11.1,11.2c0,6.1,5.1,11.1,11.2,11.1
		C49.9,370,54.9,365,54.9,358.8z"/>
	<path class="st15" d="M133.7,358.6c0-6.1-5.1-11.1-11.2-11.1s-11.1,5.1-11.1,11.2s5.1,11.1,11.2,11.1
		C128.8,369.8,133.8,364.8,133.7,358.6z"/>
	<path class="st2" d="M191.1,284.7c-0.1-27.5-10.7-45.7-32.8-55.7c-19.7-9.1-46.5-10.2-72.5-10.2c-2.4,0-4.9,0-7.3,0.1
		c22.5,0.4,44.7,2.3,61.9,10.2c21.9,10.1,32.7,28.3,32.8,55.7l0.3,88.1c0.2,54.7-42.1,99.8-96,104.4c3,0.2,6,0.4,9,0.4h0.3
		c57.9-0.2,104.8-47.2,104.7-104.7L191.1,284.7z"/>
	<ellipse class="st14" cx="15.8" cy="403.9" rx="2.4" ry="2.3"/>
	<ellipse class="st14" cx="30.2" cy="403.9" rx="2.4" ry="2.3"/>
	<ellipse class="st14" cx="22.6" cy="415.2" rx="2.4" ry="2.3"/>
	<ellipse class="st14" cx="132.8" cy="403.9" rx="2.4" ry="2.3"/>
	<ellipse class="st14" cx="147.2" cy="403.9" rx="2.4" ry="2.3"/>
	<ellipse class="st14" cx="139.6" cy="415.2" rx="2.4" ry="2.3"/>
	<ellipse class="st0" cx="-20.4" cy="315.9" rx="21.1" ry="21.1"/>
	<ellipse class="st0" cx="-14" cy="277.9" rx="32.2" ry="32.2"/>
	<ellipse class="st0" cx="-16.4" cy="247.6" rx="22.3" ry="22.3"/>
	<ellipse class="st0" cx="37.9" cy="241.1" rx="44.9" ry="44.9"/>
	<ellipse class="st0" cx="116.1" cy="239.5" rx="44.9" ry="44.9"/>
	<ellipse class="st0" cx="190.8" cy="311.1" rx="18.7" ry="18.7"/>
	<ellipse class="st0" cx="190.7" cy="278.6" rx="24.9" ry="24.9"/>
	<ellipse class="st0" cx="193.9" cy="255.6" rx="24.9" ry="24.9"/>
	<ellipse class="st0" cx="167.4" cy="253.1" rx="27.8" ry="27.8"/>
	<ellipse class="st0" cx="54.8" cy="194.8" rx="32.8" ry="32.8"/>
	<ellipse class="st0" cx="7.8" cy="215.8" rx="41.6" ry="41.6"/>
	<ellipse class="st0" cx="124.4" cy="198.5" rx="37.4" ry="37.4"/>
	<ellipse class="st0" cx="169.7" cy="220.6" rx="37.4" ry="37.4"/>
	<ellipse class="st0" cx="95.2" cy="180.5" rx="31" ry="31"/>
	<path class="st16" d="M46.9,325.8c6.8,0,13.4,1.3,18.4,3.6c2.2,1,2.3,2.6,0.3,3.7c-2,1-5.3,1.1-7.4,0.1c-3.1-1.4-7.1-2.2-11.3-2.2
		h-0.1c-4.2,0-8.2,0.8-11.4,2.2c-2.2,1-5.4,0.9-7.4-0.1s-1.8-2.7,0.3-3.7C33.5,327,40,325.7,46.9,325.8
		C46.8,325.8,46.9,325.8,46.9,325.8z"/>
	<path class="st16" d="M119.5,325.8c6.8,0,13.4,1.3,18.4,3.6c2.2,1,2.3,2.6,0.3,3.7c-2,1-5.3,1.1-7.4,0.1c-3.1-1.4-7.1-2.2-11.3-2.2
		h-0.1c-4.2,0-8.2,0.8-11.4,2.2c-2.2,1-5.4,0.9-7.4-0.1s-1.8-2.7,0.3-3.7C106.1,327,112.6,325.7,119.5,325.8
		C119.4,325.8,119.5,325.8,119.5,325.8z"/>
</g>
<ellipse class="st0" cx="203.2" cy="277.9" rx="37.4" ry="37.4"/>
<ellipse class="st0" cx="-46.2" cy="277.9" rx="37.4" ry="37.4"/>
</svg>
