<?xml version="1.0" encoding="UTF-8" standalone="no"?>
<!DOCTYPE svg PUBLIC "-//W3C//DTD SVG 1.1//EN" "http://www.w3.org/Graphics/SVG/1.1/DTD/svg11.dtd">
<svg version="1.1" xmlns="http://www.w3.org/2000/svg" xmlns:xlink="http://www.w3.org/1999/xlink" preserveAspectRatio="xMidYMid meet" viewBox="0 0 640 640" width="640" height="640"><defs><path d="M320 18.75C153.62 18.75 18.75 153.62 18.75 320C18.75 486.38 153.62 621.25 320 621.25C486.38 621.25 621.25 486.38 621.25 320C621.25 153.62 486.38 18.75 320 18.75Z" id="e88SuAOzLe"></path><path d="M320 621.25C486.38 621.25 621.25 486.38 621.25 320C621.25 153.62 486.38 18.75 320 18.75C320 139.25 320 561 320 621.25Z" id="cPZYrUitV"></path><path d="M332.78 0.25L339.14 0.56L345.47 0.99L351.78 1.55L358.07 2.23L364.33 3.03L370.55 3.95L376.75 4.99L382.92 6.15L389.05 7.42L395.15 8.82L401.21 10.34L407.23 11.97L413.22 13.72L419.17 15.58L425.07 17.57L430.93 19.66L436.75 21.87L442.53 24.2L448.25 26.64L453.93 29.19L459.56 31.85L465.13 34.62L470.66 37.51L476.13 40.51L481.54 43.61L486.9 46.83L492.2 50.15L497.44 53.58L502.62 57.12L507.74 60.77L512.79 64.52L517.78 68.38L522.71 72.34L527.56 76.41L532.35 80.59L537.06 84.86L541.7 89.24L546.28 93.73L550.76 98.3L555.14 102.94L559.41 107.65L563.59 112.44L567.65 117.29L571.62 122.22L575.48 127.21L579.23 132.26L582.88 137.38L586.42 142.56L589.85 147.8L593.17 153.1L596.39 158.46L599.49 163.87L602.49 169.34L605.38 174.87L608.15 180.44L610.81 186.07L613.36 191.75L615.8 197.47L618.13 203.25L620.34 209.06L622.43 214.93L624.42 220.83L626.28 226.78L628.03 232.77L629.66 238.79L631.18 244.85L632.58 250.95L633.85 257.08L635.01 263.25L636.05 269.45L636.97 275.67L637.77 281.93L638.45 288.22L639.01 294.53L639.44 300.86L639.75 307.22L639.94 313.6L640 320L639.94 326.4L639.75 332.78L639.44 339.14L639.01 345.47L638.45 351.78L637.77 358.07L636.97 364.32L636.05 370.55L635.01 376.75L633.85 382.92L632.58 389.05L631.18 395.15L629.66 401.21L628.03 407.23L626.28 413.22L624.42 419.17L622.43 425.07L620.34 430.93L618.13 436.75L615.8 442.53L613.36 448.25L610.81 453.93L608.15 459.56L605.38 465.13L602.49 470.66L599.49 476.13L596.39 481.54L593.17 486.9L589.85 492.2L586.42 497.44L582.88 502.62L579.23 507.74L575.48 512.79L571.62 517.78L567.65 522.7L563.59 527.56L559.41 532.34L555.14 537.06L550.76 541.7L546.28 546.27L541.7 550.76L537.06 555.14L532.35 559.41L527.56 563.59L522.7 567.65L517.78 571.62L512.79 575.48L507.74 579.23L502.62 582.88L497.44 586.42L492.2 589.85L486.9 593.17L481.54 596.39L476.13 599.49L470.66 602.49L465.13 605.38L459.56 608.15L453.93 610.81L448.25 613.36L442.53 615.8L436.75 618.13L430.93 620.34L425.07 622.43L419.17 624.42L413.22 626.28L407.23 628.03L401.21 629.66L395.15 631.18L389.05 632.58L382.92 633.85L376.75 635.01L370.55 636.05L364.32 636.97L358.07 637.77L351.78 638.45L345.47 639.01L339.14 639.44L332.78 639.75L326.4 639.94L320 640L313.6 639.94L307.22 639.75L300.86 639.44L294.53 639.01L288.22 638.45L281.93 637.77L275.68 636.97L269.45 636.05L263.25 635.01L257.08 633.85L250.95 632.58L244.85 631.18L238.79 629.66L232.77 628.03L226.78 626.28L220.83 624.42L214.93 622.43L209.07 620.34L203.25 618.13L197.47 615.8L191.75 613.36L186.07 610.81L180.44 608.15L174.87 605.38L169.34 602.49L163.87 599.49L158.46 596.39L153.1 593.17L147.8 589.85L142.56 586.42L137.38 582.88L132.26 579.23L127.21 575.48L122.22 571.62L117.3 567.65L112.44 563.59L107.65 559.41L102.94 555.14L98.3 550.76L93.73 546.27L89.24 541.7L84.86 537.06L80.59 532.34L76.41 527.56L72.35 522.7L68.38 517.78L64.52 512.79L60.77 507.74L57.12 502.62L53.58 497.44L50.15 492.2L46.83 486.9L43.61 481.54L40.51 476.13L37.51 470.66L34.62 465.13L31.85 459.56L29.19 453.93L26.64 448.25L24.2 442.53L21.87 436.75L19.66 430.93L17.57 425.07L15.58 419.17L13.72 413.22L11.97 407.23L10.34 401.21L8.82 395.15L7.42 389.05L6.15 382.92L4.99 376.75L3.95 370.55L3.03 364.32L2.23 358.07L1.55 351.78L0.99 345.47L0.56 339.14L0.25 332.78L0.06 326.4L0 320L0.06 313.6L0.25 307.22L0.56 300.86L0.99 294.53L1.55 288.22L2.23 281.93L3.03 275.67L3.95 269.45L4.99 263.25L6.15 257.08L7.42 250.95L8.82 244.85L10.34 238.79L11.97 232.77L13.72 226.78L15.58 220.83L17.57 214.93L19.66 209.06L21.87 203.25L24.2 197.47L26.64 191.75L29.19 186.07L31.85 180.44L34.62 174.87L37.51 169.34L40.51 163.87L43.61 158.46L46.83 153.1L50.15 147.8L53.58 142.56L57.12 137.38L60.77 132.26L64.52 127.21L68.38 122.22L72.35 117.29L76.41 112.44L80.59 107.65L84.86 102.94L89.24 98.3L93.73 93.73L98.3 89.24L102.94 84.86L107.65 80.59L112.44 76.41L117.29 72.34L122.22 68.38L127.21 64.52L132.26 60.77L137.38 57.12L142.56 53.58L147.8 50.15L153.1 46.83L158.46 43.61L163.87 40.51L169.34 37.51L174.87 34.62L180.44 31.85L186.07 29.19L191.75 26.64L197.47 24.2L203.25 21.87L209.07 19.66L214.93 17.57L220.83 15.58L226.78 13.72L232.77 11.97L238.79 10.34L244.85 8.82L250.95 7.42L257.08 6.15L263.25 4.99L269.45 3.95L275.67 3.03L281.93 2.23L288.22 1.55L294.53 0.99L300.86 0.56L307.22 0.25L313.6 0.06L320 0L326.4 0.06L332.78 0.25ZM296.86 38.44L285.48 39.6L274.24 41.2L263.14 43.25L252.19 45.72L241.41 48.62L230.8 51.93L220.38 55.63L210.14 59.74L200.11 64.22L190.28 69.08L180.68 74.3L171.3 79.88L162.16 85.81L153.27 92.08L144.63 98.67L136.25 105.59L128.15 112.81L120.34 120.34L112.81 128.15L105.59 136.25L98.67 144.63L92.08 153.27L85.81 162.16L79.88 171.3L74.3 180.68L69.08 190.28L64.22 200.11L59.74 210.14L55.63 220.38L51.93 230.8L48.62 241.41L45.72 252.19L43.25 263.14L41.2 274.24L39.6 285.48L38.44 296.86L37.74 308.37L37.5 320L37.74 331.63L38.44 343.14L39.6 354.52L41.2 365.76L43.25 376.86L45.72 387.81L48.62 398.59L51.93 409.2L55.63 419.62L59.74 429.86L64.22 439.89L69.08 449.72L74.3 459.32L79.88 468.7L85.81 477.84L92.08 486.73L98.67 495.37L105.59 503.75L112.81 511.85L120.34 519.66L128.15 527.19L136.25 534.41L144.63 541.33L153.27 547.92L162.16 554.19L171.3 560.12L180.68 565.7L190.28 570.92L200.11 575.78L210.14 580.26L220.38 584.37L230.8 588.07L241.41 591.38L252.19 594.28L263.14 596.75L274.24 598.8L285.48 600.4L296.86 601.56L308.37 602.26L320 602.5L331.63 602.26L343.14 601.56L354.52 600.4L365.76 598.8L376.86 596.75L387.81 594.28L398.59 591.38L409.2 588.07L419.62 584.37L429.86 580.26L439.89 575.78L449.72 570.92L459.32 565.7L468.7 560.12L477.84 554.19L486.73 547.92L495.37 541.33L503.75 534.41L511.85 527.19L519.66 519.66L527.19 511.85L534.41 503.75L541.33 495.37L547.92 486.73L554.19 477.84L560.12 468.7L565.7 459.32L570.92 449.72L575.78 439.89L580.26 429.86L584.37 419.62L588.07 409.2L591.38 398.59L594.28 387.81L596.75 376.86L598.8 365.76L600.4 354.52L601.56 343.14L602.26 331.63L602.5 320L602.26 308.37L601.56 296.86L600.4 285.48L598.8 274.24L596.75 263.14L594.28 252.19L591.38 241.41L588.07 230.8L584.37 220.38L580.26 210.14L575.78 200.11L570.92 190.28L565.7 180.68L560.12 171.3L554.19 162.16L547.92 153.27L541.33 144.63L534.41 136.25L527.19 128.15L519.66 120.34L511.85 112.81L503.75 105.59L495.37 98.67L486.73 92.08L477.84 85.81L468.7 79.88L459.32 74.3L449.72 69.08L439.89 64.22L429.86 59.74L419.62 55.63L409.2 51.93L398.59 48.62L387.81 45.72L376.86 43.25L365.76 41.2L354.52 39.6L343.14 38.44L331.63 37.74L320 37.5L308.37 37.74L296.86 38.44Z" id="d6IbdP7Eao"></path><path d="M462.62 498.86C386.24 346.09 343.8 261.21 335.31 244.24C332.41 238.44 326.49 234.77 320 234.77C313.52 234.77 307.59 238.44 304.69 244.24C296.2 261.21 253.76 346.09 177.38 498.86C172.72 498.86 170.14 498.86 169.62 498.86C160.17 498.86 152.5 506.52 152.5 515.98C152.5 525.43 160.17 533.1 169.62 533.1C171.45 533.1 186.05 533.1 187.88 533.1C187.9 533.1 187.92 533.1 187.95 533.1C187.98 533.1 188.02 533.1 188.06 533.1C189.88 533.1 204.48 533.1 206.3 533.1C215.76 533.1 223.42 525.43 223.42 515.98C223.42 509.53 219.85 503.92 214.59 501C221.62 486.95 256.75 416.67 320 290.18C383.25 416.67 418.39 486.95 425.41 501C420.15 503.92 416.58 509.53 416.58 515.98C416.58 525.43 424.25 533.1 433.7 533.1C437.37 533.1 466.71 533.1 470.38 533.1C479.83 533.1 487.5 525.43 487.5 515.98C487.5 506.52 479.83 498.86 470.38 498.86C469.35 498.86 466.76 498.86 462.62 498.86Z" id="gOBflvIRr"></path><path d="M320 0C320 3.75 320 33.75 320 37.5C475.77 37.5 602.5 164.23 602.5 320C602.5 475.77 475.77 602.5 320 602.5C320 606.25 320 636.25 320 640C405.48 640 485.83 606.71 546.28 546.27C606.71 485.83 640 405.48 640 320C640 234.52 606.71 154.17 546.28 93.73C485.84 33.28 405.48 0 320 0Z" id="a18lwrn1ty"></path><path d="M433.36 532.22C437.02 532.22 466.27 532.22 469.93 532.22C479.36 532.22 487 524.58 487 515.15C487 505.72 479.36 498.08 469.93 498.08C469.41 498.08 466.84 498.08 462.2 498.08C386.04 345.76 343.73 261.13 335.27 244.21C332.38 238.43 326.47 234.77 320 234.77C320 238.46 320 256.87 320 290.02C383.06 416.14 418.09 486.21 425.1 500.22C419.85 503.13 416.29 508.72 416.29 515.15C416.29 524.58 423.94 532.22 433.36 532.22Z" id="ak8zXxrn2"></path><path d="M338.45 116.26C329.11 94.57 323.92 82.52 322.88 80.11C321.79 77.57 318.21 77.57 317.12 80.11C316.08 82.52 310.89 94.57 301.55 116.26C278.03 118.44 264.97 119.65 262.35 119.89C259.61 120.15 258.5 123.56 260.57 125.38C262.54 127.11 272.4 135.77 290.14 151.36C284.95 174.4 282.07 187.2 281.49 189.76C280.88 192.45 283.79 194.55 286.16 193.15C288.41 191.81 299.69 185.11 320 173.05C340.31 185.11 351.59 191.81 353.84 193.15C356.21 194.55 359.12 192.45 358.51 189.76C357.93 187.2 355.05 174.4 349.86 151.36C367.6 135.77 377.46 127.11 379.43 125.38C381.5 123.56 380.39 120.15 377.65 119.89C372.42 119.41 359.36 118.2 338.45 116.26Z" id="cexK1yiR6"></path><path d="M317.12 80.11C316.08 82.52 310.89 94.57 301.55 116.26C278.03 118.44 264.97 119.65 262.35 119.89C259.61 120.15 258.5 123.56 260.57 125.38C262.54 127.11 272.4 135.77 290.14 151.36C284.95 174.4 282.07 187.2 281.49 189.76C280.88 192.45 283.79 194.55 286.16 193.15C286.91 192.7 292.95 189.11 293.71 188.66C294.76 145.63 314.75 115.32 330.58 97.98C330.07 96.79 327.5 90.83 322.88 80.11C319.77 78.42 317.84 78.42 317.12 80.11Z" id="a3ZF6B01hB"></path></defs><g><g><g><g><use xlink:href="#e88SuAOzLe" opacity="1" fill="#fcbf29" fill-opacity="1"></use><g><use xlink:href="#e88SuAOzLe" opacity="1" fill-opacity="0" stroke="#000000" stroke-width="1" stroke-opacity="0"></use></g></g><g><use xlink:href="#cPZYrUitV" opacity="1" fill="#ff9822" fill-opacity="1"></use><g><use xlink:href="#cPZYrUitV" opacity="1" fill-opacity="0" stroke="#000000" stroke-width="1" stroke-opacity="0"></use></g></g><g><use xlink:href="#d6IbdP7Eao" opacity="1" fill="#9a4c0e" fill-opacity="1"></use><g><use xlink:href="#d6IbdP7Eao" opacity="1" fill-opacity="0" stroke="#000000" stroke-width="1" stroke-opacity="0"></use></g></g><g><use xlink:href="#gOBflvIRr" opacity="1" fill="#c20022" fill-opacity="1"></use><g><use xlink:href="#gOBflvIRr" opacity="1" fill-opacity="0" stroke="#000000" stroke-width="1" stroke-opacity="0"></use></g></g><g><use xlink:href="#a18lwrn1ty" opacity="1" fill="#713709" fill-opacity="1"></use><g><use xlink:href="#a18lwrn1ty" opacity="1" fill-opacity="0" stroke="#000000" stroke-width="1" stroke-opacity="0"></use></g></g><g><use xlink:href="#ak8zXxrn2" opacity="1" fill="#98001b" fill-opacity="1"></use><g><use xlink:href="#ak8zXxrn2" opacity="1" fill-opacity="0" stroke="#000000" stroke-width="1" stroke-opacity="0"></use></g></g></g><g><g><use xlink:href="#cexK1yiR6" opacity="1" fill="#ffdc64" fill-opacity="1"></use><g><use xlink:href="#cexK1yiR6" opacity="1" fill-opacity="0" stroke="#000000" stroke-width="1" stroke-opacity="0"></use></g></g><g><use xlink:href="#a3ZF6B01hB" opacity="1" fill="#ffc850" fill-opacity="1"></use><g><use xlink:href="#a3ZF6B01hB" opacity="1" fill-opacity="0" stroke="#000000" stroke-width="1" stroke-opacity="0"></use></g></g></g></g></g></svg>