<?xml version="1.0" encoding="utf-8"?>
<!-- Generator: Adobe Illustrator 19.0.0, SVG Export Plug-In . SVG Version: 6.00 Build 0)  -->
<svg version="1.1" id="Layer_1" xmlns="http://www.w3.org/2000/svg" xmlns:xlink="http://www.w3.org/1999/xlink" x="0px" y="0px"
	 viewBox="90 -90 792 792" style="enable-background:new 90 -90 792 792;" xml:space="preserve">
<style type="text/css">
	.st0{opacity:0.55;}
	.st1{fill:#ED1C24;}
	.st2{fill:none;}
	.st3{fill:#FFFFFF;}
	.st4{fill:#FFD15D;}
	.st5{fill:#010101;fill-opacity:0;stroke:#010101;stroke-opacity:0;}
	.st6{fill:#F3715B;}
	.st7{opacity:0.55;fill:#FBBF12;}
	.st8{opacity:0.55;fill:#F47822;}
	.st9{opacity:0.55;fill:#E63B51;}
	.st10{opacity:0.55;fill:#B7B9DD;}
	.st11{opacity:0.55;fill:#9B9ECF;}
	.st12{opacity:0.55;fill:#FED401;}
	.st13{opacity:0.55;fill:#F99F1B;}
	.st14{fill:#F8BCCC;}
	.st15{fill:#D1EDF6;}
	.st16{fill:#58575D;}
	.st17{fill:#F6A2B9;}
	.st18{fill:#FFDB69;}
	.st19{fill:#FFEBAE;}
	.st20{fill:#FFC813;}
</style>
<g id="XMLID_1_" class="st0">
	<circle id="XMLID_68_" class="st1" cx="487" cy="306.2" r="396"/>
	<circle id="XMLID_67_" class="st2" cx="487" cy="306.2" r="396"/>
</g>
<g id="XMLID_43_" class="st0">
	<g id="XMLID_44_">
		<path id="XMLID_45_" class="st3" d="M146.1,101.9l337.7,600.3l337.7-600.3L146.1,101.9L146.1,101.9z M272.7,176.9h422L483.8,552.1
			L272.7,176.9z"/>
	</g>
</g>
<g id="XMLID_3_" class="st0">
	<g id="XMLID_4_">
		<g id="XMLID_28_">
			<g id="XMLID_33_">
				<path id="d1wQkeOqWx" class="st4" d="M468.9,93.5c-31.2-2.5-47,13.2-71.6,32.1c-6.6,4.9-7.2,12-15.4,18.5
					c-9.9,8.2-23.3,39.3-34.8,34.3c-4.9-2.5-26.9,13.6-34.3,11.9c-19.1-4.4-40.6,0.4-49.9,2.4c-9.4,2-40.3,9.1-47.1,10.1
					c-24.7,3.5-44.3-3.5-47.1,2.9c0,0-6-53-16.7-48.9c0,0,41.8-46.5,31.9-114.7c0,0,16.4-53.7,49.2-64.4c0,0,23.9-14,33-4.1
					c9,9.9,50.4,6.6,50.4,6.6s15.5,3.5,22.9,6.8s16.6-9.3,16.6-9.3s6.8-12.3-4.7-13.1c0,0,9-9,0-17.2c-3-5.6-23.9-25.5-27-31.1
					c0,0,2-14-53,0c-55.1,14.9-46.8-0.1-80.5,31.2C157.1-22.2,110.7,69,110.7,69s-27.9,80.5-17.3,139.7c2.5,14.8,4.1,29.6,3.3,44.4
					c0,0.8,0,1.6,0,3.3c-0.8,8.2,4.9,4.4,14,7.7c13.1,5.7,29.7-2,43.7-5.3c9-1.6,17.5-17.3,23.2-14.8c10.7,4.1,83.9,17,180-19.1
					c10.7-4.1,29.1,12,39.8,6.3c11.5-6.6,15.7,13.7,31.3,58.9c3.8,0,22.7,0,56.7,0v-203C478.8,91.9,473.3,94,468.9,93.5z"/>
			</g>
			<g id="XMLID_29_">
				<g id="XMLID_30_">
					<path id="d1wQkeOqWx_1_" class="st5" d="M468.9,93.5c-31.2-2.5-47,13.2-71.6,32.1c-6.6,4.9-7.2,12-15.4,18.5
						c-9.9,8.2-23.3,39.3-34.8,34.3c-4.9-2.5-26.9,13.6-34.3,11.9c-19.1-4.4-40.6,0.4-49.9,2.4c-9.4,2-40.3,9.1-47.1,10.1
						c-24.7,3.5-44.3-3.5-47.1,2.9c0,0-6-53-16.7-48.9c0,0,41.8-46.5,31.9-114.7c0,0,16.4-53.7,49.2-64.4c0,0,23.9-14,33-4.1
						c9,9.9,50.4,6.6,50.4,6.6s15.5,3.5,22.9,6.8s16.6-9.3,16.6-9.3s6.8-12.3-4.7-13.1c0,0,9-9,0-17.2c-3-5.6-23.9-25.5-27-31.1
						c0,0,2-14-53,0c-55.1,14.9-46.8-0.1-80.5,31.2C157.1-22.2,110.7,69,110.7,69s-27.9,80.5-17.3,139.7c2.5,14.8,4.1,29.6,3.3,44.4
						c0,0.8,0,1.6,0,3.3c-0.8,8.2,4.9,4.4,14,7.7c13.1,5.7,29.7-2,43.7-5.3c9-1.6,17.5-17.3,23.2-14.8c10.7,4.1,83.9,17,180-19.1
						c10.7-4.1,29.1,12,39.8,6.3c11.5-6.6,15.7,13.7,31.3,58.9c3.8,0,22.7,0,56.7,0v-203C478.8,91.9,473.3,94,468.9,93.5z"/>
				</g>
			</g>
		</g>
		<g id="XMLID_22_">
			<g id="XMLID_27_">
				<path id="b7BsxELNbt" class="st6" d="M261.3-35.5c0.8,0,2.5,0,3.3,0c1.6,0,2.5,0,4.1,0c3.3,0,7.4-0.8,10.7-1.6
					c1.6-0.8,4.1-1.6,5.8-2.5c0.8,0,1.6-0.8,2.5-1.6c0.8,0,0.8-0.8,1.6-0.8c0-0.1,0.3-0.3,0.8-0.8l1.6-0.8c0.5-0.5,0.8-0.8,0.8-0.8
					c0.8-0.8,1.6-1.6,2.5-2.5c0.8,0,0.8-0.8,1.6-0.8c0.2-0.1,1.5-0.7,1.6-0.8c0.8,0,0.8-0.8,1.6-0.8s0.8-0.8,1.6-0.8
					c2.5-0.8,4.1-0.8,6.6-0.8c1.6,0,4.1,0,5.8,0.8c1.6,0,3.3,0.8,4.1,1.6c1.6,0.8,2.5,0.8,3.3,1.6c1.6,0.8,2.5,1.6,2.5,1.6
					s-0.8,0-3.3-0.8c-0.8,0-2.5,0-3.3-0.8c-1.6,0-2.5,0-4.1-0.8c-1.6,0-3.3,0-4.9,0c-0.8,0-0.8,0-1.6,0s-0.8,0-1.6,0
					s-1.6,0.8-2.5,0.8c-0.8,0-0.8,0-1.6,0.8c0,0-0.8,0-0.8,0.8c-0.1,0.1-0.3,0.3-0.8,0.8l-0.8,0.8l-0.8,0.8l0,0l0,0l0,0l0,0l0,0l0,0
					c-1,0.5-1.5,0.8-1.6,0.8c-0.8,0.8-0.8,0.8-1.6,1.6c-0.1,0.1-0.7,0.3-1.6,0.8c-1,0.5-1.5,0.8-1.6,0.8c-0.8,0-0.8,0.8-1.6,0.8
					c0,0.8-0.8,1.6-2.5,1.6c-0.8,0.8-2.5,0.8-3.3,0.8s-2.5,0.8-3.3,0.8c-2.5,0.8-4.1,0.8-5.8,0.8c-1.6,0-4.1,0-5.8,0
					c-1.6,0-3.3,0-4.9-0.8c-1.6,0-2.5-0.8-3.3-0.8c-0.8,0.8-0.8,0.8-2.5,0l0,0C258.5-35.5,259.6-35.5,261.3-35.5z"/>
			</g>
			<g id="XMLID_23_">
				<g id="XMLID_24_">
					<path id="b7BsxELNbt_1_" class="st5" d="M261.3-35.5c0.8,0,2.5,0,3.3,0c1.6,0,2.5,0,4.1,0c3.3,0,7.4-0.8,10.7-1.6
						c1.6-0.8,4.1-1.6,5.8-2.5c0.8,0,1.6-0.8,2.5-1.6c0.8,0,0.8-0.8,1.6-0.8c0-0.1,0.3-0.3,0.8-0.8l1.6-0.8c0.5-0.5,0.8-0.8,0.8-0.8
						c0.8-0.8,1.6-1.6,2.5-2.5c0.8,0,0.8-0.8,1.6-0.8c0.2-0.1,1.5-0.7,1.6-0.8c0.8,0,0.8-0.8,1.6-0.8s0.8-0.8,1.6-0.8
						c2.5-0.8,4.1-0.8,6.6-0.8c1.6,0,4.1,0,5.8,0.8c1.6,0,3.3,0.8,4.1,1.6c1.6,0.8,2.5,0.8,3.3,1.6c1.6,0.8,2.5,1.6,2.5,1.6
						s-0.8,0-3.3-0.8c-0.8,0-2.5,0-3.3-0.8c-1.6,0-2.5,0-4.1-0.8c-1.6,0-3.3,0-4.9,0c-0.8,0-0.8,0-1.6,0s-0.8,0-1.6,0
						s-1.6,0.8-2.5,0.8c-0.8,0-0.8,0-1.6,0.8c0,0-0.8,0-0.8,0.8c-0.1,0.1-0.3,0.3-0.8,0.8l-0.8,0.8l-0.8,0.8l0,0l0,0l0,0l0,0l0,0
						l0,0c-1,0.5-1.5,0.8-1.6,0.8c-0.8,0.8-0.8,0.8-1.6,1.6c-0.1,0.1-0.7,0.3-1.6,0.8c-1,0.5-1.5,0.8-1.6,0.8
						c-0.8,0-0.8,0.8-1.6,0.8c0,0.8-0.8,1.6-2.5,1.6c-0.8,0.8-2.5,0.8-3.3,0.8s-2.5,0.8-3.3,0.8c-2.5,0.8-4.1,0.8-5.8,0.8
						c-1.6,0-4.1,0-5.8,0c-1.6,0-3.3,0-4.9-0.8c-1.6,0-2.5-0.8-3.3-0.8c-0.8,0.8-0.8,0.8-2.5,0l0,0
						C258.5-35.5,259.6-35.5,261.3-35.5z"/>
				</g>
			</g>
		</g>
		<g id="XMLID_16_">
			<g id="XMLID_21_">
				<path id="awDeaWB9n" class="st6" d="M307.3-38.8c0.8,0,2.5,0,4.1,0.8c0.8,0,1.6,0.8,2.5,0.8c0.8,0.8,1.6,0.8,2.5,1.6
					c0.8,0.8,1.6,0.8,2.5,1.6c0.8,0.8,1.6,1.6,1.6,1.6c0,0.8,0,1.6,0.8,1.6c0.8,0.8,1.6,0.8,1.6,1.6c0.8,0,1.6,0.8,1.6,0.8
					c0.8,0,1.6,0.8,1.6,0.8c0.8,0,1.6,0,1.6,0.8c0.8,0,0.8,0,1.6,0s1.6,0,1.6,0s0,0-0.8,0.8c-0.8,0-0.8,0-1.6,0.8
					c-0.8,0-1.6,0-2.5,0s-1.6,0-2.5,0c-0.8,0-1.6-0.8-2.5-0.8c-0.8-0.8-1.6-0.8-2.5-1.6c-0.8-0.8-1.6-1.6-2.5-2.5
					c-0.1-0.1-0.7-0.7-0.8-0.8c-0.8-0.8-0.8-0.8-0.8-0.8c-0.8-0.8-0.8-1.6-1.6-1.6c-0.8-0.8-0.8-1.6-1.6-2.5c-0.8,0-0.8-0.8-1.6-0.8
					c-0.8-0.8-1.6-1.6-2.5-1.6c-0.8-0.8-1.6-0.8-1.6-0.8C306-38.8,306.5-38.8,307.3-38.8z"/>
			</g>
			<g id="XMLID_17_">
				<g id="XMLID_18_">
					<path id="awDeaWB9n_1_" class="st5" d="M307.3-38.8c0.8,0,2.5,0,4.1,0.8c0.8,0,1.6,0.8,2.5,0.8c0.8,0.8,1.6,0.8,2.5,1.6
						c0.8,0.8,1.6,0.8,2.5,1.6c0.8,0.8,1.6,1.6,1.6,1.6c0,0.8,0,1.6,0.8,1.6c0.8,0.8,1.6,0.8,1.6,1.6c0.8,0,1.6,0.8,1.6,0.8
						c0.8,0,1.6,0.8,1.6,0.8c0.8,0,1.6,0,1.6,0.8c0.8,0,0.8,0,1.6,0s1.6,0,1.6,0s0,0-0.8,0.8c-0.8,0-0.8,0-1.6,0.8
						c-0.8,0-1.6,0-2.5,0s-1.6,0-2.5,0c-0.8,0-1.6-0.8-2.5-0.8c-0.8-0.8-1.6-0.8-2.5-1.6c-0.8-0.8-1.6-1.6-2.5-2.5
						c-0.1-0.1-0.7-0.7-0.8-0.8c-0.8-0.8-0.8-0.8-0.8-0.8c-0.8-0.8-0.8-1.6-1.6-1.6c-0.8-0.8-0.8-1.6-1.6-2.5
						c-0.8,0-0.8-0.8-1.6-0.8c-0.8-0.8-1.6-1.6-2.5-1.6c-0.8-0.8-1.6-0.8-1.6-0.8C306-38.8,306.5-38.8,307.3-38.8z"/>
				</g>
			</g>
		</g>
		<g id="XMLID_5_">
			<g id="XMLID_15_">
				<path id="a1HToZndTl" class="st6" d="M301.5-48.7c0.8-1.6,3.3-1.6,4.9-3.3c0.8-0.8,1.6-1.6,1.6-2.5c0.8-1.6,1.6-4.1,2.5-6.6
					c0-0.8,0.8-1.6,0.8-1.6c1.6-0.8,3.3,0.8,3.3,1.6c0,1.6,0,3.3,0.8,4.1c0.8,1.6,2.5,2.5,4.1,3.3c4.1,0.8,9-1.6,9.9-5.8
					c0,2.5,0.8,4.9,2.5,6.6c0.8,1.6,3.3,2.5,2.5,4.1s-2.5,1.6-4.1,1.6c-3.3,0-6.6,0.8-9.9-0.8c-0.8,0-1.6-0.8-3.3-0.8
					c-0.8,0-1.6,0-2.5,0c-1.6,0-3.3,0-4.1,0s-1.6,0-2.5,0c-1.6,0.8-2.5,2.5-2.5,4.9c-1.6,0-3.3-0.8-4.1-1.6
					C300.7-45.4,300.7-47.8,301.5-48.7"/>
			</g>
			<g id="XMLID_8_">
				<g id="XMLID_9_">
					<path id="a1HToZndTl_1_" class="st5" d="M301.5-48.7c0.8-1.6,3.3-1.6,4.9-3.3c0.8-0.8,1.6-1.6,1.6-2.5c0.8-1.6,1.6-4.1,2.5-6.6
						c0-0.8,0.8-1.6,0.8-1.6c1.6-0.8,3.3,0.8,3.3,1.6c0,1.6,0,3.3,0.8,4.1c0.8,1.6,2.5,2.5,4.1,3.3c4.1,0.8,9-1.6,9.9-5.8
						c0,2.5,0.8,4.9,2.5,6.6c0.8,1.6,3.3,2.5,2.5,4.1s-2.5,1.6-4.1,1.6c-3.3,0-6.6,0.8-9.9-0.8c-0.8,0-1.6-0.8-3.3-0.8
						c-0.8,0-1.6,0-2.5,0c-1.6,0-3.3,0-4.1,0s-1.6,0-2.5,0c-1.6,0.8-2.5,2.5-2.5,4.9c-1.6,0-3.3-0.8-4.1-1.6
						C300.7-45.4,300.7-47.8,301.5-48.7"/>
				</g>
			</g>
		</g>
	</g>
</g>
<path id="XMLID_51_" class="st7" d="M747.8,78.6c0.2,6.5-4.7,11.9-11.2,12.1c0,0-0.2,0-0.5,0H632.4c-6.5-0.2-11.4-5.6-11.2-12.1
	c1.6-52.5,21.7-78.4,54.4-116.7c2.3-2.6,5.6-4,8.9-4s6.5,1.4,8.9,4C726.1,0.2,746.1,26.1,747.8,78.6z"/>
<path id="XMLID_50_" class="st8" d="M736.1,90.8h-51.6V-42.1c3.3,0,6.5,1.4,8.9,4c32.7,38.3,52.8,64.2,54.4,116.7
	c0.2,6.5-4.7,11.9-11.2,12.1C736.6,90.8,736.3,90.8,736.1,90.8z"/>
<path id="XMLID_49_" class="st9" d="M815.8,80.5c-38.4-19.2-84.2-19.2-122.5,0c-5.3,2.7-10.4,5.6-15.3,8.9l88.2,136.9
	c0-38.2,26.4-90.9,59.1-99.1l2.8-0.7l4.2-37.9L815.8,80.5z"/>
<path id="XMLID_48_" class="st10" d="M776.5,249.8H602.8v-23.3c0-38.1-26.4-90.8-59.1-99l-2.8-0.7L536.7,89l16.6-8.4
	c38.3-19.1,84.1-19.1,122.4,0c3,1.6,6.1,3.3,8.9,4.7c44.1,25.9,56.3,63.3,71.7,109.7C767.2,227.6,772.8,242.3,776.5,249.8z"/>
<path id="XMLID_47_" class="st11" d="M776.5,249.8h-92V85.1c44.1,25.9,56.3,63.3,71.7,109.7C767.2,227.6,772.8,242.3,776.5,249.8z"
	/>
<path id="XMLID_26_" class="st12" d="M684.5-88.8c-19.4,0-35,15.6-35,35s15.6,35,35,35s35-15.6,35-35S703.9-88.8,684.5-88.8z"/>
<path id="XMLID_25_" class="st12" d="M521.1,144.7c-19.3,0-35.8-15.7-35.8-35s16.5-35,35.8-35c19.3,0,35,15.7,35,35
	S540.4,144.7,521.1,144.7z"/>
<path id="XMLID_20_" class="st13" d="M848.7,144.7c-19.3,0-35.8-15.7-35.8-35s16.5-35,35.8-35s35,15.7,35,35S868,144.7,848.7,144.7z
	"/>
<path id="XMLID_19_" class="st13" d="M684.5-18.8v-70c19.4,0,35,15.6,35,35S703.9-18.8,684.5-18.8z"/>
<path id="XMLID_11_" class="st12" d="M789.6,261.4v11.7c0,6.5-5.1,11.7-11.7,11.7H591.1c-6.5,0-11.7-5.1-11.7-11.7v-11.7
	c0-12.8,10.5-23.3,23.3-23.3h163.4C779.1,238.1,789.6,248.6,789.6,261.4z"/>
<path id="XMLID_10_" class="st13" d="M789.6,261.4v11.7c0,6.5-5.1,11.7-11.7,11.7h-93.4v-46.7h81.7
	C779.1,238.1,789.6,248.6,789.6,261.4z"/>
<g id="XMLID_52_" transform="matrix(-1 0 0 -1 511 512.001)" class="st0">
	<path id="XMLID_61_" class="st14" d="M168.5,53.9c66.9-67.5,80.1-162.9,29.4-213.3c-50.7-50.3-146.1-36.4-213,31.1
		C-63-80-83.3-17.4-72.5,32.7c4.7,21.6-4.3,43.7-22.5,56.2c-32.8,22.5-64.4,47.9-72.7,56.3c-17.5,17.7-17.4,46.2,0.2,63.7
		c17.7,17.5,46.2,17.4,63.7-0.2c8.3-8.4,33.5-40.2,55.7-73.2c12.3-18.3,34.4-27.4,56-22.9C58.2,123,120.6,102.2,168.5,53.9z"/>
	<path id="XMLID_60_" class="st15" d="M-21.8,62.1C-39,45.1-46.1,19.2-42-10.8c4.6-33.4,22.3-67,49.8-94.7s61-45.6,94.4-50.5
		c30-4.4,55.9,2.6,73,19.6c17.2,17,24.3,42.9,20.2,72.9c-4.6,33.4-22.3,67-49.8,94.7s-61,45.6-94.4,50.5
		C21.3,86.1-4.6,79.1-21.8,62.1z"/>
	<g id="XMLID_56_">
		<path id="XMLID_59_" class="st16" d="M131.7-76.5c-2.4,2.4-6.3,2.4-8.8,0l-7.3-7.2c-2.4-2.4-2.4-6.3,0-8.8c2.4-2.4,6.3-2.4,8.8,0
			l7.3,7.2C134.1-82.8,134.1-78.9,131.7-76.5z"/>
		<path id="XMLID_58_" class="st16" d="M37.8,18.1c-2.4,2.4-6.3,2.4-8.8,0l-7.3-7.2c-2.4-2.4-2.4-6.3,0-8.8c2.4-2.4,6.3-2.4,8.8,0
			l7.3,7.2C40.2,11.8,40.3,15.7,37.8,18.1z"/>
		<path id="XMLID_57_" class="st16" d="M89.4-24.6c-5.6,5.7-13.1,9.6-21.5,10.7c-3.4,0.4-6.5-2-6.9-5.3c-0.4-3.4,1.9-6.5,5.3-6.9
			c11.2-1.5,20-10.3,21.3-21.5c0.4-3.4,3.5-5.8,6.9-5.4c3.4,0.4,5.8,3.5,5.4,6.9C98.8-37.8,95-30.3,89.4-24.6z"/>
	</g>
	<path id="XMLID_55_" class="st17" d="M-71.4,40.5C-70.1,59.4-79,77.9-95,88.9c-11.1,7.6-22,15.5-31.9,23
		c13.2,1.5,29.5,5.3,45.7,14.5c11.9,6.8,22.4,10.4,31.1,12.2c0.7-1,1.4-2,2.1-3.1c12.3-18.3,34.4-27.4,56-22.9
		C-53.1,99.6-67.9,57.9-71.4,40.5z"/>
	<path id="XMLID_54_" class="st3" d="M167.2,5.5h-64.8c-11.3,0-20.6,9.3-20.6,20.6s9.3,20.6,20.6,20.6h25.9
		c6-4.8,11.8-9.9,17.3-15.5C153.7,23.1,160.9,14.5,167.2,5.5z"/>
	<path id="XMLID_53_" class="st3" d="M72.4-111.9c0-11.3-9.3-20.6-20.6-20.6H41.1C29.4-125,18.2-116,7.8-105.6
		C3.2-101-1.1-96.2-5.1-91.3h56.9C63.2-91.2,72.4-100.5,72.4-111.9z"/>
</g>
<polygon class="st18" points="421.3,196.3 409.5,150.1 386.2,150.1 380.4,415.8 421.3,404.3 "/>
<polygon class="st19" points="362.8,150.1 351,196.3 351,404.3 386.2,415.8 386.2,150.1 "/>
<g>
	<path class="st20" d="M424.3,196.9c8.2,0,14.8-13.2,14.8-29.6s-6.6-29.6-14.8-29.6h-38.2l-5.7,14.6l5.7,14.9h23.4
		C409.5,183.7,416.1,196.9,424.3,196.9z"/>
	<polygon class="st20" points="433.3,431.7 433.3,404.3 386.2,404.3 380.4,418.1 386.2,431.7 	"/>
</g>
<g>
	<rect x="339" y="404.3" class="st18" width="47.2" height="27.4"/>
	<path class="st18" d="M348,137.8c-8.2,0-14.8,13.2-14.8,29.6S339.8,197,348,197c8.2,0,14.8-13.2,14.8-29.6h23.4v-29.6L348,137.8
		L348,137.8z"/>
	<rect x="357.9" y="209.2" class="st18" width="8.6" height="159.4"/>
	<rect x="372" y="197" class="st18" width="8.6" height="183.8"/>
</g>
<g>
	<rect x="391.7" y="197" class="st20" width="8.6" height="183.8"/>
	<rect x="405.8" y="209.2" class="st20" width="8.6" height="159.4"/>
</g>
<path class="st19" d="M348,177.4c-2.8,0-5-4.5-5-10.1s2.3-10.1,5-10.1c2.8,0,5,4.5,5,10.1S350.8,177.4,348,177.4z"/>
<path class="st18" d="M424.3,177.4c-2.8,0-5-4.5-5-10.1s2.3-10.1,5-10.1c2.8,0,5,4.5,5,10.1S427.1,177.4,424.3,177.4z"/>
<polygon class="st18" points="515.4,196.3 503.7,150.1 480.3,150.1 474.6,415.8 515.4,404.3 "/>
<polygon class="st19" points="456.9,150.1 445.2,196.3 445.2,404.3 480.3,415.8 480.3,150.1 "/>
<g>
	<path class="st20" d="M518.5,196.9c8.2,0,14.8-13.2,14.8-29.6s-6.6-29.6-14.8-29.6h-38.2l-5.7,14.6l5.7,14.9h23.4
		C503.7,183.7,510.3,196.9,518.5,196.9z"/>
	<polygon class="st20" points="527.5,431.7 527.5,404.3 480.3,404.3 474.6,418.1 480.3,431.7 	"/>
</g>
<g>
	<rect x="433.1" y="404.3" class="st18" width="47.2" height="27.4"/>
	<path class="st18" d="M442.2,137.8c-8.2,0-14.8,13.2-14.8,29.6S434,197,442.2,197c8.2,0,14.8-13.2,14.8-29.6h23.3v-29.6
		L442.2,137.8L442.2,137.8z"/>
	<rect x="452.1" y="209.2" class="st18" width="8.6" height="159.4"/>
	<rect x="466.1" y="197" class="st18" width="8.6" height="183.8"/>
</g>
<g>
	<rect x="485.9" y="197" class="st20" width="8.6" height="183.8"/>
	<rect x="499.9" y="209.2" class="st20" width="8.6" height="159.4"/>
</g>
<path class="st19" d="M442.2,177.4c-2.8,0-5-4.5-5-10.1s2.3-10.1,5-10.1c2.8,0,5,4.5,5,10.1S444.9,177.4,442.2,177.4z"/>
<path class="st18" d="M518.5,177.4c-2.8,0-5-4.5-5-10.1s2.3-10.1,5-10.1c2.8,0,5,4.5,5,10.1S521.2,177.4,518.5,177.4z"/>
<path class="st18" d="M594.6,270.2c-1-1.5-2-3.1-3-4.6c-0.1-0.1-0.6-0.7-0.9-1.3c-0.2-0.2-0.4-0.5-0.4-0.6c-0.1-0.1-0.2-0.3-0.4-0.4
	c-3.1,1.3-6.7,1.4-10,0.5c-2.4-0.6-4.9-1.8-7-3.1c-0.1,0-0.2-0.2-0.4-0.3c-0.1,0.1-0.3,0.1-0.4,0.2c-0.1,0.1-0.2,0.1-0.3,0.2
	l-3.4,155l40.9-11.5V283.9C603.1,281.9,597.9,275.2,594.6,270.2z"/>
<path class="st19" d="M572.9,260.7c-0.1,0-0.2-0.2-0.4-0.3c-0.1,0.1-0.3,0.1-0.4,0.2c-1.3,0.8-2.4,1.7-3.6,2.6
	c-3.4,2.5-7.2,4.2-11.5,4.5c-7.6,0.5-13.7-4.3-17.8-10.2c0-0.1-0.1-0.1-0.1-0.2v147l35.1,11.5V261.5
	C573.8,261.2,573.3,261,572.9,260.7z"/>
<g>
	<polygon class="st20" points="621.4,431.7 621.4,404.3 574.2,404.3 568.5,418.1 574.2,431.7 	"/>
</g>
<g>
	<rect x="527" y="404.3" class="st18" width="47.2" height="27.4"/>
	<path class="st18" d="M546,264.4v104.1h8.6V267.7C551.4,267.4,548.5,266.2,546,264.4z"/>
	<path class="st18" d="M568.5,263.2c-2.6,1.9-5.4,3.3-8.5,4v113.5h8.6V263.1C568.6,263.2,568.5,263.2,568.5,263.2z"/>
</g>
<g>
	<path class="st20" d="M579.9,263.8L579.9,263.8l-0.1,117h8.6v-117C585.7,264.6,582.7,264.6,579.9,263.8z"/>
	<path class="st20" d="M594.6,270.2c-0.2-0.4-0.5-0.7-0.7-1.1v99.5h8.6v-88.9C599.3,276.8,596.6,273.2,594.6,270.2z"/>
</g>
</svg>
