<?xml version="1.0" encoding="utf-8"?>
<!-- Generator: Adobe Illustrator 19.0.0, SVG Export Plug-In . SVG Version: 6.00 Build 0)  -->
<svg version="1.1" id="Layer_1" xmlns="http://www.w3.org/2000/svg" xmlns:xlink="http://www.w3.org/1999/xlink" x="0px" y="0px"
	 viewBox="90 -90 792 792" style="enable-background:new 90 -90 792 792;" xml:space="preserve">
<style type="text/css">
	.st0{opacity:0.55;}
	.st1{fill:#39B54A;}
	.st2{fill:none;}
	.st3{fill:#F7941E;}
	.st4{opacity:0.55;fill:#FFD15D;}
	.st5{fill:#F3715B;}
	.st6{opacity:0.55;fill:#FFCF56;}
	.st7{opacity:0.55;fill:#E889B8;}
	.st8{fill:#D670AC;}
	.st9{fill:#F8BCCC;}
	.st10{fill:#D1EDF6;}
	.st11{fill:#010101;}
	.st12{fill:#F6A2B9;}
	.st13{fill:#FFFFFF;}
	.st14{fill:#FFDB69;}
	.st15{fill:#FFEBAE;}
	.st16{fill:#FFC813;}
</style>
<g id="XMLID_1_" class="st0">
	<circle id="XMLID_50_" class="st1" cx="486.1" cy="306" r="396"/>
	<circle id="XMLID_49_" class="st2" cx="486.1" cy="306" r="396"/>
</g>
<g id="XMLID_43_" class="st0">
	<g id="XMLID_44_">
		<path id="XMLID_45_" class="st3" d="M145.2,101.7L482.9,702l337.7-600.3L145.2,101.7L145.2,101.7z M271.8,176.7h422L482.9,551.9
			L271.8,176.7z"/>
	</g>
</g>
<path id="XMLID_14_" class="st4" d="M486.1,102.2c-4.1-0.8-9.1-1.6-15.7-2.5c-31.4-2.5-62.7,6.6-87.5,25.6
	c-6.6,5-13.2,9.9-21.5,16.5c-9.9,8.3-19,5.8-30.5,0.8c-5-2.5-10.7-4.1-18.2-5.8c-42.9-9.9-90.8,14-97.4,28.9c0,0-9.1-7.4-19.8-3.3
	c0,0,17.3-20.6,7.4-89.1c0,0-3.3-70.1,29.7-80.9c0,0,19.8-5,28.9,5c9.1,10,38,7.4,38,7.4s24.8,0,32.2,3.3c7.4,3.3,32.2-9.9,32.2-9.9
	s8.3-13.2-3.3-14c0,0,20.6-7.4,11.6-15.7l-30.5-56.1c0,0-13.2-8.3-68.5,5.8C218-67,222.1-74.4,188.3-43
	c-33.9,30.5-78.4,127-78.4,127s-28.1,80.9-17.4,140.3c2.5,14.9,4.1,29.7,3.3,44.6c0,0.8,0,1.6,0,3.3c-0.8,8.3,7.4,14.9,16.5,18.2
	c13.2,5.8,28.1,6.6,42.1,3.3c9.1-1.6,24.8,0,30.5,2.5c10.7,4.1,64.4,27.2,160.9-9.1c10.7-4.1,21.5-9.1,32.2-14.9
	c11.6-6.6,35.5-11.6,51.2,33.8h56.9V102.2z"/>
<g id="XMLID_3_" class="st0">
	<path id="XMLID_11_" class="st5" d="M246.8,230.1c0,0,1.6,0,4.1,0.8s6.6,0.8,11.6,1.6s9.9,0.8,15.7,0.8c1.6,0,3.3,0,4.1,0
		c1.6,0,3.3,0,4.1,0c3.3,0,5.8,0,9.1-0.8c3.3,0,5.8-0.8,9.1-1.6c1.6,0,3.3-0.8,4.1-0.8c1.6-0.8,2.5-0.8,4.1-0.8
		c2.5-0.8,5.8-1.6,8.3-2.5c0.8-0.8,2.5-0.8,3.3-1.6s2.5-0.8,3.3-1.6s1.6-0.8,3.3-1.6c0.8-0.8,1.6-0.8,2.5-1.6
		c1.6-0.8,3.3-1.6,4.1-2.5c2.5-1.6,4.1-2.5,4.1-2.5s-0.8,1.6-2.5,3.3c-0.8,0.8-2.5,2.5-3.3,4.1c-1.6,1.6-3.3,3.3-5,4.1
		c-0.8,0.8-1.6,1.6-3.3,2.5c-0.8,0.8-2.5,1.6-3.3,2.5c-2.5,1.6-5,2.5-8.3,4.1c-3.3,0.8-5.8,2.5-9.1,3.3c-2.5,0.8-5.8,1.6-9.1,1.6
		s-6.6,0.8-9.9,0.8s-6.6,0-9.9-0.8c-3.3,0-5.8-0.8-9.1-1.6c-2.5-0.8-5-1.6-7.4-2.5c-2.5-0.8-4.1-1.6-6.6-2.5c-1.6-0.8-3.3-1.6-5-2.5
		C248.5,231.7,246.8,230.1,246.8,230.1z"/>
	<path id="XMLID_9_" class="st5" d="M486.1,299.4c-1.6-3.3-4.1-6.6-6.6-9.9s-5.8-7.4-9.1-10.7c-3.3-3.3-6.6-7.4-10.7-10.7
		c-4.1-3.3-8.3-7.4-13.2-9.9c-5-3.3-9.9-5.8-14.9-9.1c-2.5-1.6-5-2.5-7.4-3.3c-2.5-0.8-5-2.5-7.4-3.3c-2.5-1.6-5-2.5-6.6-4.1
		c-0.8-0.8-2.5-1.6-3.3-2.5c-0.8-0.8-2.5-1.6-3.3-2.5c-2.5-1.6-4.1-3.3-5.8-5c-1.6-1.6-3.3-3.3-5-5c-3.3-3.3-5.8-6.6-8.3-9.9
		c-0.8-1.6-1.6-3.3-3.3-5c-0.8-1.6-1.6-3.3-2.5-5c-0.8-3.3-2.5-5.8-2.5-8.3c-0.8-2.5-0.8-4.1-0.8-5.8c0-1.6,0-1.6,0-1.6s0,0.8,0,1.6
		s0,1.6,0,2.5c0,0.8,0,2.5,0,3.3c0,2.5,0.8,5.8,0.8,9.1c0.8,1.6,0.8,3.3,1.6,5.8c0.8,1.6,1.6,4.1,2.5,5.8c1.6,4.1,5,8.3,8.3,11.6
		c1.6,1.6,3.3,4.1,5,5.8c1.6,1.6,4.1,4.1,5.8,5c0.8,0.8,2.5,1.6,3.3,2.5c0.8,0.8,2.5,1.6,3.3,2.5c2.5,1.6,5,3.3,7.4,4.1
		c2.5,1.6,5,2.5,7.4,4.1c2.5,1.6,5,2.5,7.4,4.1c5,2.5,9.9,5,14,8.3c2.5,1.6,4.1,3.3,6.6,4.1c2.5,1.6,4.1,3.3,6.6,5
		c4.1,3.3,7.4,6.6,11.6,9.9c3.3,3.3,6.6,6.6,9.1,9.9s5,5.8,7.4,8.3c0.8,1.6,1.6,2.5,2.5,3.3L486.1,299.4L486.1,299.4z"/>
	<path id="XMLID_8_" class="st5" d="M258.4-22.4c0,0,0.8,0,3.3,0c0.8,0,2.5,0,3.3,0c1.6,0,2.5,0,4.1,0c3.3,0,7.4-0.8,10.7-1.6
		c1.6-0.8,4.1-1.6,5.8-2.5c0.8,0,1.6-0.8,2.5-1.6c0.8,0,0.8-0.8,1.6-0.8l0.8-0.8l1.6-0.8l0.8-0.8c0.8-0.8,1.6-1.6,2.5-2.5
		c0.8,0,0.8-0.8,1.6-0.8l1.6-0.8c0.8,0,0.8-0.8,1.6-0.8c0.8,0,0.8-0.8,1.6-0.8c2.5-0.8,4.1-0.8,6.6-0.8c1.6,0,4.1,0,5.8,0.8
		c1.6,0,3.3,0.8,4.1,1.6c1.6,0.8,2.5,0.8,3.3,1.6c1.6,0.8,2.5,1.6,2.5,1.6s-0.8,0-3.3-0.8c-0.8,0-2.5,0-3.3-0.8
		c-1.6,0-2.5,0-4.1-0.8c-1.6,0-3.3,0-5,0c-0.8,0-0.8,0-1.6,0c-0.8,0-0.8,0-1.6,0c-0.8,0-1.6,0.8-2.5,0.8s-0.8,0-1.6,0.8
		c0,0-0.8,0-0.8,0.8l-0.8,0.8l-0.8,0.8l-0.8,0.8l0,0l0,0l0,0l0,0l0,0l0,0l-1.6,0.8c-0.8,0.8-0.8,0.8-1.6,1.6l-1.6,0.8l-1.6,0.8
		c-0.8,0-0.8,0.8-1.6,0.8c0,0.8-0.8,1.6-2.5,1.6c-0.8,0.8-2.5,0.8-3.3,0.8s-2.5,0.8-3.3,0.8c-2.5,0.8-4.1,0.8-5.8,0.8
		c-1.6,0-4.1,0-5.8,0c-1.6,0-3.3,0-5-0.8c-1.6,0-2.5-0.8-3.3-0.8C260-21.6,260-21.6,258.4-22.4L258.4-22.4z"/>
	<path id="XMLID_5_" class="st5" d="M306.2-25.7c0,0,0.8,0,1.6,0s2.5,0,4.1,0.8c0.8,0,1.6,0.8,2.5,0.8c0.8,0.8,1.6,0.8,2.5,1.6
		c0.8,0.8,1.6,0.8,2.5,1.6c0.8,0.8,1.6,1.6,1.6,1.6c0,0.8,0,1.6,0.8,1.6c0.8,0.8,1.6,0.8,1.6,1.6c0.8,0,1.6,0.8,1.6,0.8
		c0.8,0,1.6,0.8,1.6,0.8c0.8,0,1.6,0,1.6,0.8c0.8,0,0.8,0,1.6,0c0.8,0,1.6,0,1.6,0s0,0-0.8,0.8c-0.8,0-0.8,0-1.6,0.8
		c-0.8,0-1.6,0-2.5,0s-1.6,0-2.5,0c-0.8,0-1.6-0.8-2.5-0.8c-0.8-0.8-1.6-0.8-2.5-1.6c-0.8-0.8-1.6-1.6-2.5-2.5l-0.8-0.8
		c-0.8-0.8-0.8-0.8-0.8-0.8c-0.8-0.8-0.8-1.6-1.6-1.6c-0.8-0.8-0.8-1.6-1.6-2.5c-0.8,0-0.8-0.8-1.6-0.8c-0.8-0.8-1.6-1.6-2.5-1.6
		C307.1-25.7,306.2-25.7,306.2-25.7z"/>
	<path id="XMLID_4_" class="st5" d="M302.1-35.6c0.8-1.6,3.3-1.6,5-3.3c0.8-0.8,1.6-1.6,1.6-2.5c0.8-1.6,1.6-4.1,2.5-6.6
		c0-0.8,0.8-1.6,0.8-1.6c1.6-0.8,3.3,0.8,3.3,1.6c0,1.6,0,3.3,0.8,4.1c0.8,1.6,2.5,2.5,4.1,3.3c4.1,0.8,9.1-1.6,9.9-5.8
		c0,2.5,0.8,5,2.5,6.6c0.8,1.6,3.3,2.5,2.5,4.1s-2.5,1.6-4.1,1.6c-3.3,0-6.6,0.8-9.9-0.8c-0.8,0-1.6-0.8-3.3-0.8c-0.8,0-1.6,0-2.5,0
		c-1.6,0-3.3,0-4.1,0s-1.6,0-2.5,0c-1.6,0.8-2.5,2.5-2.5,5c-1.6,0-3.3-0.8-4.1-1.6C301.3-32.3,301.3-34.8,302.1-35.6"/>
</g>
<polygon id="XMLID_30_" class="st6" points="654.9,89.2 602.2,238.7 635.3,238.7 618.7,305 734.8,189 701.6,189 768,89.2 "/>
<path id="XMLID_29_" class="st7" d="M656.3,154.2c-19.7,0-37.9-9-49.9-24.7l-3.1-4l-5,0.9c-2.8,0.5-5.6,0.8-8.4,0.8
	c-25.2,0-45.8-20.5-45.8-45.7c0-14.8,7.2-28.8,19.3-37.3l3.5-2.5l-0.1-4.7c0-0.2,0-0.4,0-0.6c0-42.5,34.5-77,77-77
	c2.1,0,4.2,0.1,6.3,0.3l4.6,0.4l2.7-3.7c7-9.4,16.2-17.2,26.7-22.5c10.9-5.6,22.7-8.4,35-8.4c13.4,0,26.7,3.5,38.3,10.2
	c11.2,6.4,20.8,15.7,27.5,26.8l1.9,3.1l3.6,0.7c36.2,6.9,62.5,38.7,62.5,75.6c0,4.5-0.4,9-1.2,13.4l-0.9,5.3l4.5,3
	c12.8,8.5,20.4,22.8,20.4,38.1c0,25.2-20.5,45.8-45.8,45.8c-10.9,0-21.5-3.9-29.8-11l-5.3-4.5l-5.4,4.4
	c-11.2,9.2-25.3,14.2-39.8,14.2c-14.4,0-28.1-4.8-39.3-13.8l-5.6-4.6l-5.3,5C687.8,148.1,672.4,154.2,656.3,154.2z"/>
<g id="XMLID_24_" class="st0">
	<path id="XMLID_26_" class="st8" d="M860,56.5c0.9-4.8,1.3-9.8,1.3-14.9c0-41.6-29.8-76.3-69.2-83.8C777.1-66.6,750-83,719.2-83
		c-28,0-52.8,13.5-68.3,34.3c-2.3-0.2-4.6-0.3-6.9-0.3c-47.1,0-85.3,38.2-85.3,85.3c0,0.4,0,0.7,0,1.1
		c-13.8,9.8-22.8,25.9-22.8,44.1c0,29.8,24.2,54,54,54c3.4,0,6.7-0.3,9.9-0.9c13,17,33.4,27.9,56.5,27.9c19,0,36.2-7.4,48.9-19.5
		c12.2,9.8,27.7,15.7,44.5,15.7c17.1,0,32.8-6,45.1-16.1c9.5,8.1,21.8,13.1,35.2,13.1c29.8,0,54-24.2,54-54
		C884,82.8,874.5,66.2,860,56.5z M830,139c-9,0-17.6-3.2-24.4-9l-10.6-9.1l-10.8,8.8c-9.8,8.1-21.8,12.4-34.6,12.4
		c-12.6,0-24.3-4.2-34.1-12l-11.3-9.1l-10.5,10c-10.2,9.6-23.5,15-37.5,15c-8.6,0-16.9-1.9-24.5-5.8c-7.3-3.7-13.8-9.1-18.8-15.6
		l-6.2-8.1l-10,1.9c-2.3,0.4-4.6,0.6-6.9,0.6c-20.7,0-37.5-16.8-37.5-37.5c0-12.1,5.9-23.5,15.8-30.6l7.1-5l-0.1-8.7v-0.4
		c0-0.1,0-0.3,0-0.4c0-18.4,7.2-35.6,20.1-48.6c13-13,30.2-20.1,48.6-20.1c1.8,0,3.7,0.1,5.6,0.2l9.1,0.7l5.5-7.3
		c6.3-8.4,14.5-15.3,23.8-20.1c9.7-5,20.3-7.5,31.3-7.5c12,0,23.8,3.1,34.1,9.1c10,5.8,18.5,14,24.6,23.9l3.8,6.3l7.2,1.4
		c32.3,6.2,55.7,34.6,55.7,67.5c0,4-0.4,8.1-1,12l-1.9,10.6l9,6c10.5,7,16.7,18.6,16.7,31.2C867.4,122.2,850.6,139,830,139z"/>
	<path id="XMLID_25_" class="st8" d="M804.4-2c-0.7-14.2-4.9-27.5-11.7-39h-20.1c9,11.1,14.3,24.7,15.2,39H804.4z"/>
</g>
<path id="XMLID_23_" class="st7" d="M606.5,179.4c-19.7,0-37.9-9-49.9-24.7l-3.1-4l-5,0.9c-2.8,0.5-5.6,0.8-8.4,0.8
	c-25.2,0-45.8-20.5-45.8-45.8c0-14.8,7.2-28.8,19.3-37.3l3.5-2.5l-0.1-4.7c0-0.2,0-0.4,0-0.6c0-42.5,34.5-77,77-77
	c2.1,0,4.2,0.1,6.3,0.3l4.6,0.4l2.7-3.7c7-9.4,16.2-17.2,26.7-22.5c10.9-5.6,22.7-8.4,35-8.4c13.4,0,26.7,3.5,38.3,10.2
	c11.2,6.4,20.8,15.7,27.5,26.8l1.9,3.1l3.6,0.7c36.2,6.9,62.5,38.7,62.5,75.6c0,4.5-0.4,9-1.2,13.4l-0.9,5.3l4.5,3
	c12.8,8.5,20.4,22.8,20.4,38.1c0,25.2-20.5,45.7-45.8,45.7c-10.9,0-21.5-3.9-29.8-11L745,157l-5.4,4.4
	c-11.2,9.2-25.3,14.2-39.8,14.2s-28.1-4.8-39.3-13.8l-5.7-4.6l-5.3,5C638,173.3,622.7,179.4,606.5,179.4z"/>
<g id="XMLID_15_" class="st0">
	<path id="XMLID_20_" class="st8" d="M810.2,81.7c0.9-4.8,1.3-9.8,1.3-14.9c0-41.6-29.8-76.2-69.2-83.8c-15-24.5-42-40.9-72.8-40.9
		c-28,0-52.8,13.5-68.3,34.3c-2.3-0.2-4.6-0.3-6.9-0.3c-47.1,0-85.3,38.2-85.3,85.3c0,0.4,0,0.7,0,1.1
		c-13.8,9.8-22.8,25.9-22.8,44.1c0,29.8,24.2,54,54,54c3.4,0,6.7-0.3,9.9-0.9c13,17,33.4,27.9,56.5,27.9c19,0,36.2-7.4,48.9-19.5
		c12.2,9.8,27.7,15.7,44.5,15.7c17.1,0,32.8-6.1,45.1-16.1c9.5,8.1,21.8,13.1,35.2,13.1c29.8,0,54-24.2,54-54.1
		C834.3,107.9,824.7,91.4,810.2,81.7z M780.2,164.2c-9,0-17.6-3.2-24.4-9l-10.6-9.1l-10.8,8.9c-9.8,8.1-21.8,12.4-34.6,12.4
		c-12.5,0-24.3-4.2-34.1-12l-11.3-9.1l-10.5,10c-10.2,9.6-23.5,15-37.5,15c-8.6,0-16.9-2-24.5-5.8c-7.3-3.7-13.8-9.1-18.8-15.6
		l-6.2-8.1l-10,1.9c-2.3,0.4-4.6,0.6-6.9,0.6c-20.7,0-37.5-16.8-37.5-37.5c0-12.1,5.9-23.5,15.8-30.6l7.1-5l-0.1-8.7v-0.4
		c0-0.1,0-0.3,0-0.4c0-18.4,7.2-35.6,20.1-48.6C558.4,0.1,575.6-7,594-7c1.8,0,3.7,0.1,5.6,0.2l9.1,0.7l5.5-7.3
		c6.3-8.4,14.5-15.3,23.8-20.1c9.7-5,20.2-7.5,31.3-7.5c12,0,23.8,3.1,34.1,9.1c10,5.8,18.5,14,24.6,23.9l3.8,6.3l7.2,1.4
		c32.3,6.2,55.7,34.6,55.7,67.5c0,4-0.4,8.1-1,12l-1.9,10.6l9,6c10.5,7,16.7,18.6,16.7,31.2C817.7,147.4,800.9,164.2,780.2,164.2z"
		/>
	<path id="XMLID_19_" class="st8" d="M742.8,126.8c0-4.3,0.8-8.5,2.1-12.3h-17.3c-0.9,4-1.4,8.1-1.4,12.3c0,16.1,7.1,30.6,18.3,40.5
		l13.6-10.3C748.9,150.2,742.8,139.2,742.8,126.8z"/>
	<path id="XMLID_18_" class="st8" d="M605.2-23.3v16.7c14.2,2.3,27.3,8.9,37.7,19.3c3.2,3.2,6.1,6.7,8.6,10.5h19.1
		C658.1-1.7,633.9-19.7,605.2-23.3z"/>
	<path id="XMLID_17_" class="st8" d="M754.6,23.2c-0.7-14.2-4.9-27.5-11.7-39h-20.1c9,11.1,14.3,24.7,15.2,39H754.6z"/>
	<path id="XMLID_16_" class="st8" d="M559.1,89.5h-18.4c-3.4,8.3-5.3,17.5-5.3,27c0,18.6,7.1,35.5,18.8,48.1l10.9-12.7
		c-8.5-9.9-13.1-22.3-13.1-35.4C552,106.9,554.5,97.6,559.1,89.5z"/>
</g>
<g id="XMLID_31_" transform="matrix(1 0 0 1 0 0)" class="st0">
	<path id="XMLID_40_" class="st9" d="M624.1,539.1c65.9-66.4,78.9-160.4,29-210c-49.9-49.5-143.8-35.9-209.8,30.6
		c-47.2,47.5-67.2,109.2-56.5,158.5c4.6,21.2-4.2,43-22.1,55.3c-32.3,22.2-63.5,47.2-71.6,55.5c-17.3,17.4-17.1,45.5,0.2,62.7
		c17.4,17.3,45.5,17.1,62.7-0.2c8.2-8.3,33-39.6,54.9-72.1c12.1-18,33.9-27,55.1-22.6C515.5,607.2,577,586.7,624.1,539.1z"/>
	<path id="XMLID_39_" class="st10" d="M436.8,547.2c-16.9-16.8-23.9-42.3-19.9-71.8c4.5-32.9,21.9-66,49-93.3s60.1-44.9,92.9-49.7
		c29.5-4.3,55,2.6,71.9,19.3c16.9,16.8,23.9,42.2,19.9,71.8c-4.5,32.9-21.9,66-49,93.3s-60.1,44.9-92.9,49.7
		C479.2,570.8,453.6,563.9,436.8,547.2z"/>
	<g id="XMLID_35_">
		<path id="XMLID_38_" class="st11" d="M587.9,410.7c-2.4,2.4-6.2,2.4-8.6,0l-7.2-7.1c-2.4-2.4-2.4-6.2,0-8.6s6.2-2.4,8.6,0l7.2,7.1
			C590.2,404.5,590.3,408.3,587.9,410.7z"/>
		<path id="XMLID_37_" class="st11" d="M495.4,503.9c-2.4,2.4-6.2,2.4-8.6,0l-7.2-7.1c-2.4-2.4-2.4-6.2,0-8.6s6.2-2.4,8.6,0l7.2,7.1
			C497.8,497.6,497.8,501.5,495.4,503.9z"/>
		<path id="XMLID_36_" class="st11" d="M546.2,461.8c-5.6,5.6-12.9,9.4-21.2,10.5c-3.3,0.4-6.4-1.9-6.8-5.3
			c-0.4-3.3,1.9-6.4,5.3-6.8c11-1.4,19.6-10.1,21-21.2c0.4-3.3,3.5-5.7,6.8-5.3c3.3,0.4,5.7,3.5,5.3,6.8
			C555.5,448.8,551.8,456.2,546.2,461.8z"/>
	</g>
	<path id="XMLID_34_" class="st12" d="M387.9,525.9c1.3,18.7-7.5,36.9-23.2,47.7c-10.9,7.5-21.7,15.3-31.4,22.6
		c13,1.4,29,5.3,45,14.3c11.8,6.7,22.1,10.2,30.7,11.9c0.7-1,1.4-2,2-3c12.1-18,33.9-27,55.1-22.6
		C405.9,584.1,391.3,543,387.9,525.9z"/>
	<path id="XMLID_33_" class="st13" d="M622.8,491.5H559c-11.2,0-20.3,9.1-20.3,20.3c0,11.2,9.1,20.3,20.3,20.3h25.5
		c5.9-4.7,11.6-9.8,17-15.3C609.5,508.8,616.6,500.3,622.8,491.5z"/>
	<path id="XMLID_32_" class="st13" d="M529.5,375.9c0-11.2-9.1-20.3-20.3-20.3h-10.6c-11.5,7.4-22.6,16.3-32.7,26.5
		c-4.5,4.5-8.7,9.2-12.7,14.1h56C520.4,396.2,529.5,387,529.5,375.9z"/>
</g>
<polygon class="st14" points="435.3,183.8 423.5,137.6 400.2,137.6 394.4,403.3 435.3,391.8 "/>
<polygon class="st15" points="376.8,137.6 365.1,183.8 365.1,391.8 400.2,403.3 400.2,137.6 "/>
<g>
	<path class="st16" d="M438.3,184.4c8.2,0,14.8-13.2,14.8-29.6s-6.6-29.6-14.8-29.6h-38.2l-5.7,14.6l5.7,14.9h23.4
		C423.5,171.2,430.2,184.4,438.3,184.4z"/>
	<polygon class="st16" points="447.3,419.2 447.3,391.8 400.2,391.8 394.4,405.6 400.2,419.2 	"/>
</g>
<g>
	<rect x="353" y="391.8" class="st14" width="47.2" height="27.4"/>
	<path class="st14" d="M362,125.3c-8.2,0-14.8,13.2-14.8,29.6s6.6,29.6,14.8,29.6c8.2,0,14.8-13.2,14.8-29.6h23.4v-29.6
		C400.2,125.3,362,125.3,362,125.3z"/>
	<rect x="371.9" y="196.7" class="st14" width="8.6" height="159.4"/>
	<rect x="386" y="184.5" class="st14" width="8.6" height="183.8"/>
</g>
<g>
	<rect x="405.8" y="184.5" class="st16" width="8.6" height="183.8"/>
	<rect x="419.8" y="196.7" class="st16" width="8.6" height="159.4"/>
</g>
<path class="st15" d="M362,164.9c-2.8,0-5-4.5-5-10.1s2.3-10.1,5-10.1c2.8,0,5,4.5,5,10.1S364.8,164.9,362,164.9z"/>
<path class="st14" d="M438.3,164.9c-2.8,0-5-4.5-5-10.1s2.3-10.1,5-10.1c2.8,0,5,4.5,5,10.1S441.1,164.9,438.3,164.9z"/>
<polygon class="st14" points="529.4,183.8 517.7,137.6 494.3,137.6 488.6,403.3 529.4,391.8 "/>
<polygon class="st15" points="471,137.6 459.2,183.8 459.2,391.8 494.3,403.3 494.3,137.6 "/>
<g>
	<path class="st16" d="M532.5,184.4c8.2,0,14.8-13.2,14.8-29.6s-6.6-29.6-14.8-29.6h-38.2l-5.7,14.6l5.7,14.9h23.4
		C517.7,171.2,524.3,184.4,532.5,184.4z"/>
	<polygon class="st16" points="541.5,419.2 541.5,391.8 494.3,391.8 488.6,405.6 494.3,419.2 	"/>
</g>
<g>
	<rect x="447.1" y="391.8" class="st14" width="47.2" height="27.4"/>
	<path class="st14" d="M456.2,125.3c-8.2,0-14.8,13.2-14.8,29.6s6.6,29.6,14.8,29.6s14.8-13.2,14.8-29.6h23.4v-29.6
		C494.4,125.3,456.2,125.3,456.2,125.3z"/>
	<rect x="466.1" y="196.7" class="st14" width="8.6" height="159.4"/>
	<rect x="480.1" y="184.5" class="st14" width="8.6" height="183.8"/>
</g>
<g>
	<rect x="499.9" y="184.5" class="st16" width="8.6" height="183.8"/>
	<rect x="514" y="196.7" class="st16" width="8.6" height="159.4"/>
</g>
<path class="st15" d="M456.2,164.9c-2.8,0-5-4.5-5-10.1s2.3-10.1,5-10.1c2.8,0,5,4.5,5,10.1S458.9,164.9,456.2,164.9z"/>
<path class="st14" d="M532.5,164.9c-2.8,0-5-4.5-5-10.1s2.3-10.1,5-10.1c2.8,0,5,4.5,5,10.1S535.3,164.9,532.5,164.9z"/>
<path class="st14" d="M608.6,257.7c-1-1.5-2-3.1-3-4.6c-0.1-0.1-0.6-0.7-0.9-1.3c-0.2-0.2-0.4-0.5-0.4-0.6c-0.1-0.1-0.2-0.3-0.4-0.4
	c-3.1,1.3-6.7,1.4-10,0.5c-2.4-0.6-4.9-1.8-7-3.1c-0.1,0-0.2-0.2-0.4-0.3c-0.1,0.1-0.3,0.1-0.4,0.2c-0.1,0.1-0.2,0.1-0.3,0.2
	l-3.4,155l40.9-11.5V271.4C617.1,269.4,611.9,262.7,608.6,257.7z"/>
<path class="st15" d="M586.9,248.2c-0.1,0-0.2-0.2-0.4-0.3c-0.1,0.1-0.3,0.1-0.4,0.2c-1.3,0.8-2.4,1.7-3.6,2.6
	c-3.4,2.5-7.2,4.2-11.5,4.5c-7.6,0.5-13.7-4.3-17.8-10.2c0-0.1-0.1-0.1-0.1-0.2v147l35.1,11.5V248.9
	C587.8,248.7,587.4,248.5,586.9,248.2z"/>
<g>
	<polygon class="st16" points="635.4,419.2 635.4,391.8 588.2,391.8 582.5,405.6 588.2,419.2 	"/>
</g>
<g>
	<rect x="541.1" y="391.8" class="st14" width="47.2" height="27.4"/>
	<path class="st14" d="M560,251.9V356h8.6V255.2C565.4,254.9,562.5,253.7,560,251.9z"/>
	<path class="st14" d="M582.5,250.7c-2.6,1.9-5.4,3.3-8.5,4v113.5h8.6L582.5,250.7C582.6,250.6,582.6,250.7,582.5,250.7z"/>
</g>
<g>
	<path class="st16" d="M593.9,251.3L593.9,251.3l-0.1,117h8.6v-117C599.7,252.1,596.7,252.1,593.9,251.3z"/>
	<path class="st16" d="M608.6,257.7c-0.2-0.4-0.5-0.7-0.7-1.1v99.5h8.6v-88.9C613.3,264.3,610.6,260.7,608.6,257.7z"/>
</g>
</svg>
