<?xml version="1.0" encoding="utf-8"?>
<!-- Generator: Adobe Illustrator 19.0.0, SVG Export Plug-In . SVG Version: 6.00 Build 0)  -->
<svg version="1.1" id="Layer_1" xmlns="http://www.w3.org/2000/svg" xmlns:xlink="http://www.w3.org/1999/xlink" x="0px" y="0px"
	 viewBox="0 0 792 792" style="enable-background:new 0 0 792 792;" xml:space="preserve">
<style type="text/css">
	.st0{opacity:0.75;}
	.st1{fill:#ED1C24;}
	.st2{fill:none;stroke:#000000;stroke-miterlimit:10;}
	.st3{opacity:0.41;}
	.st4{fill:#FFFFFF;}
	.st5{fill:#FFD15D;}
	.st6{fill:#010101;fill-opacity:0;stroke:#010101;stroke-opacity:0;}
	.st7{fill:#F3715B;}
	.st8{fill:#FBBF12;}
	.st9{fill:#F47822;}
	.st10{fill:#E63B51;}
	.st11{fill:#B7B9DD;}
	.st12{fill:#9B9ECF;}
	.st13{fill:#FED401;}
	.st14{fill:#F99F1B;}
	.st15{fill:#F8BCCC;}
	.st16{fill:#D1EDF6;}
	.st17{fill:#58575D;}
	.st18{fill:#F6A2B9;}
</style>
<g id="XMLID_1_" class="st0">
	<circle id="XMLID_68_" class="st1" cx="396" cy="396" r="396"/>
	<circle id="XMLID_67_" class="st2" cx="396" cy="396" r="396"/>
</g>
<g id="XMLID_43_" class="st3">
	<g id="XMLID_44_">
		<path id="XMLID_45_" class="st4" d="M55.1,191.7L392.8,792l337.7-600.3L55.1,191.7L55.1,191.7z M181.7,266.7h422L392.8,641.9
			L181.7,266.7z"/>
	</g>
</g>
<g id="XMLID_3_">
	<g id="XMLID_4_">
		<g id="XMLID_28_">
			<g id="XMLID_33_">
				<path id="d1wQkeOqWx" class="st5" d="M377.9,183.3c-31.2-2.5-47,13.2-71.6,32.1c-6.6,4.9-7.2,12-15.4,18.5
					c-9.9,8.2-23.3,39.3-34.8,34.3c-4.9-2.5-26.9,13.6-34.3,11.9c-19.1-4.4-40.6,0.4-49.9,2.4c-9.4,2-40.3,9.1-47.1,10.1
					c-24.7,3.5-44.3-3.5-47.1,2.9c0,0-6-53-16.7-48.9c0,0,41.8-46.5,31.9-114.7c0,0,16.4-53.7,49.2-64.4c0,0,23.9-14,33-4.1
					c9,9.9,50.4,6.6,50.4,6.6s15.5,3.5,22.9,6.8c7.4,3.3,16.6-9.3,16.6-9.3s6.8-12.3-4.7-13.1c0,0,9-9,0-17.2
					c-3-5.6-23.9-25.5-27-31.1c0,0,2-14-53,0C125.2,21,133.5,6,99.8,37.3C66.1,67.6,19.7,158.8,19.7,158.8S-8.2,239.3,2.4,298.5
					c2.5,14.8,4.1,29.6,3.3,44.4c0,0.8,0,1.6,0,3.3c-0.8,8.2,4.9,4.4,14,7.7c13.1,5.7,29.7-2,43.7-5.3c9-1.6,17.5-17.3,23.2-14.8
					c10.7,4.1,83.9,17,180-19.1c10.7-4.1,29.1,12,39.8,6.3c11.5-6.6,15.7,13.7,31.3,58.9c3.8,0,22.7,0,56.7,0V176.9
					C387.8,181.7,382.3,183.8,377.9,183.3z"/>
			</g>
			<g id="XMLID_29_">
				<g id="XMLID_30_">
					<path id="d1wQkeOqWx_1_" class="st6" d="M377.9,183.3c-31.2-2.5-47,13.2-71.6,32.1c-6.6,4.9-7.2,12-15.4,18.5
						c-9.9,8.2-23.3,39.3-34.8,34.3c-4.9-2.5-26.9,13.6-34.3,11.9c-19.1-4.4-40.6,0.4-49.9,2.4c-9.4,2-40.3,9.1-47.1,10.1
						c-24.7,3.5-44.3-3.5-47.1,2.9c0,0-6-53-16.7-48.9c0,0,41.8-46.5,31.9-114.7c0,0,16.4-53.7,49.2-64.4c0,0,23.9-14,33-4.1
						c9,9.9,50.4,6.6,50.4,6.6s15.5,3.5,22.9,6.8c7.4,3.3,16.6-9.3,16.6-9.3s6.8-12.3-4.7-13.1c0,0,9-9,0-17.2
						c-3-5.6-23.9-25.5-27-31.1c0,0,2-14-53,0C125.2,21,133.5,6,99.8,37.3C66.1,67.6,19.7,158.8,19.7,158.8S-8.2,239.3,2.4,298.5
						c2.5,14.8,4.1,29.6,3.3,44.4c0,0.8,0,1.6,0,3.3c-0.8,8.2,4.9,4.4,14,7.7c13.1,5.7,29.7-2,43.7-5.3c9-1.6,17.5-17.3,23.2-14.8
						c10.7,4.1,83.9,17,180-19.1c10.7-4.1,29.1,12,39.8,6.3c11.5-6.6,15.7,13.7,31.3,58.9c3.8,0,22.7,0,56.7,0V176.9
						C387.8,181.7,382.3,183.8,377.9,183.3z"/>
				</g>
			</g>
		</g>
		<g id="XMLID_22_">
			<g id="XMLID_27_">
				<path id="b7BsxELNbt" class="st7" d="M170.3,54.3c0.8,0,2.5,0,3.3,0c1.6,0,2.5,0,4.1,0c3.3,0,7.4-0.8,10.7-1.6
					c1.6-0.8,4.1-1.6,5.8-2.5c0.8,0,1.6-0.8,2.5-1.6c0.8,0,0.8-0.8,1.6-0.8c0-0.1,0.3-0.3,0.8-0.8l1.6-0.8c0.5-0.5,0.8-0.8,0.8-0.8
					c0.8-0.8,1.6-1.6,2.5-2.5c0.8,0,0.8-0.8,1.6-0.8c0.2-0.1,1.5-0.7,1.6-0.8c0.8,0,0.8-0.8,1.6-0.8c0.8,0,0.8-0.8,1.6-0.8
					c2.5-0.8,4.1-0.8,6.6-0.8c1.6,0,4.1,0,5.8,0.8c1.6,0,3.3,0.8,4.1,1.6c1.6,0.8,2.5,0.8,3.3,1.6c1.6,0.8,2.5,1.6,2.5,1.6
					s-0.8,0-3.3-0.8c-0.8,0-2.5,0-3.3-0.8c-1.6,0-2.5,0-4.1-0.8c-1.6,0-3.3,0-4.9,0c-0.8,0-0.8,0-1.6,0c-0.8,0-0.8,0-1.6,0
					c-0.8,0-1.6,0.8-2.5,0.8c-0.8,0-0.8,0-1.6,0.8c0,0-0.8,0-0.8,0.8c-0.1,0.1-0.3,0.3-0.8,0.8l-0.8,0.8l-0.8,0.8l0,0l0,0l0,0l0,0
					l0,0l0,0c-1,0.5-1.5,0.8-1.6,0.8c-0.8,0.8-0.8,0.8-1.6,1.6c-0.1,0.1-0.7,0.3-1.6,0.8c-1,0.5-1.5,0.8-1.6,0.8
					c-0.8,0-0.8,0.8-1.6,0.8c0,0.8-0.8,1.6-2.5,1.6c-0.8,0.8-2.5,0.8-3.3,0.8c-0.8,0-2.5,0.8-3.3,0.8c-2.5,0.8-4.1,0.8-5.8,0.8
					c-1.6,0-4.1,0-5.8,0c-1.6,0-3.3,0-4.9-0.8c-1.6,0-2.5-0.8-3.3-0.8c-0.8,0.8-0.8,0.8-2.5,0l0,0C167.5,54.3,168.6,54.3,170.3,54.3
					z"/>
			</g>
			<g id="XMLID_23_">
				<g id="XMLID_24_">
					<path id="b7BsxELNbt_1_" class="st6" d="M170.3,54.3c0.8,0,2.5,0,3.3,0c1.6,0,2.5,0,4.1,0c3.3,0,7.4-0.8,10.7-1.6
						c1.6-0.8,4.1-1.6,5.8-2.5c0.8,0,1.6-0.8,2.5-1.6c0.8,0,0.8-0.8,1.6-0.8c0-0.1,0.3-0.3,0.8-0.8l1.6-0.8c0.5-0.5,0.8-0.8,0.8-0.8
						c0.8-0.8,1.6-1.6,2.5-2.5c0.8,0,0.8-0.8,1.6-0.8c0.2-0.1,1.5-0.7,1.6-0.8c0.8,0,0.8-0.8,1.6-0.8c0.8,0,0.8-0.8,1.6-0.8
						c2.5-0.8,4.1-0.8,6.6-0.8c1.6,0,4.1,0,5.8,0.8c1.6,0,3.3,0.8,4.1,1.6c1.6,0.8,2.5,0.8,3.3,1.6c1.6,0.8,2.5,1.6,2.5,1.6
						s-0.8,0-3.3-0.8c-0.8,0-2.5,0-3.3-0.8c-1.6,0-2.5,0-4.1-0.8c-1.6,0-3.3,0-4.9,0c-0.8,0-0.8,0-1.6,0c-0.8,0-0.8,0-1.6,0
						c-0.8,0-1.6,0.8-2.5,0.8c-0.8,0-0.8,0-1.6,0.8c0,0-0.8,0-0.8,0.8c-0.1,0.1-0.3,0.3-0.8,0.8l-0.8,0.8l-0.8,0.8l0,0l0,0l0,0l0,0
						l0,0l0,0c-1,0.5-1.5,0.8-1.6,0.8c-0.8,0.8-0.8,0.8-1.6,1.6c-0.1,0.1-0.7,0.3-1.6,0.8c-1,0.5-1.5,0.8-1.6,0.8
						c-0.8,0-0.8,0.8-1.6,0.8c0,0.8-0.8,1.6-2.5,1.6c-0.8,0.8-2.5,0.8-3.3,0.8c-0.8,0-2.5,0.8-3.3,0.8c-2.5,0.8-4.1,0.8-5.8,0.8
						c-1.6,0-4.1,0-5.8,0c-1.6,0-3.3,0-4.9-0.8c-1.6,0-2.5-0.8-3.3-0.8c-0.8,0.8-0.8,0.8-2.5,0l0,0
						C167.5,54.3,168.6,54.3,170.3,54.3z"/>
				</g>
			</g>
		</g>
		<g id="XMLID_16_">
			<g id="XMLID_21_">
				<path id="awDeaWB9n" class="st7" d="M216.3,51c0.8,0,2.5,0,4.1,0.8c0.8,0,1.6,0.8,2.5,0.8c0.8,0.8,1.6,0.8,2.5,1.6
					c0.8,0.8,1.6,0.8,2.5,1.6c0.8,0.8,1.6,1.6,1.6,1.6c0,0.8,0,1.6,0.8,1.6c0.8,0.8,1.6,0.8,1.6,1.6c0.8,0,1.6,0.8,1.6,0.8
					c0.8,0,1.6,0.8,1.6,0.8c0.8,0,1.6,0,1.6,0.8c0.8,0,0.8,0,1.6,0c0.8,0,1.6,0,1.6,0s0,0-0.8,0.8c-0.8,0-0.8,0-1.6,0.8
					c-0.8,0-1.6,0-2.5,0s-1.6,0-2.5,0c-0.8,0-1.6-0.8-2.5-0.8c-0.8-0.8-1.6-0.8-2.5-1.6c-0.8-0.8-1.6-1.6-2.5-2.5
					c-0.1-0.1-0.7-0.7-0.8-0.8c-0.8-0.8-0.8-0.8-0.8-0.8c-0.8-0.8-0.8-1.6-1.6-1.6c-0.8-0.8-0.8-1.6-1.6-2.5c-0.8,0-0.8-0.8-1.6-0.8
					c-0.8-0.8-1.6-1.6-2.5-1.6c-0.8-0.8-1.6-0.8-1.6-0.8C215,51,215.5,51,216.3,51z"/>
			</g>
			<g id="XMLID_17_">
				<g id="XMLID_18_">
					<path id="awDeaWB9n_1_" class="st6" d="M216.3,51c0.8,0,2.5,0,4.1,0.8c0.8,0,1.6,0.8,2.5,0.8c0.8,0.8,1.6,0.8,2.5,1.6
						c0.8,0.8,1.6,0.8,2.5,1.6c0.8,0.8,1.6,1.6,1.6,1.6c0,0.8,0,1.6,0.8,1.6c0.8,0.8,1.6,0.8,1.6,1.6c0.8,0,1.6,0.8,1.6,0.8
						c0.8,0,1.6,0.8,1.6,0.8c0.8,0,1.6,0,1.6,0.8c0.8,0,0.8,0,1.6,0c0.8,0,1.6,0,1.6,0s0,0-0.8,0.8c-0.8,0-0.8,0-1.6,0.8
						c-0.8,0-1.6,0-2.5,0s-1.6,0-2.5,0c-0.8,0-1.6-0.8-2.5-0.8c-0.8-0.8-1.6-0.8-2.5-1.6c-0.8-0.8-1.6-1.6-2.5-2.5
						c-0.1-0.1-0.7-0.7-0.8-0.8c-0.8-0.8-0.8-0.8-0.8-0.8c-0.8-0.8-0.8-1.6-1.6-1.6c-0.8-0.8-0.8-1.6-1.6-2.5
						c-0.8,0-0.8-0.8-1.6-0.8c-0.8-0.8-1.6-1.6-2.5-1.6c-0.8-0.8-1.6-0.8-1.6-0.8C215,51,215.5,51,216.3,51z"/>
				</g>
			</g>
		</g>
		<g id="XMLID_5_">
			<g id="XMLID_15_">
				<path id="a1HToZndTl" class="st7" d="M210.5,41.1c0.8-1.6,3.3-1.6,4.9-3.3c0.8-0.8,1.6-1.6,1.6-2.5c0.8-1.6,1.6-4.1,2.5-6.6
					c0-0.8,0.8-1.6,0.8-1.6c1.6-0.8,3.3,0.8,3.3,1.6c0,1.6,0,3.3,0.8,4.1c0.8,1.6,2.5,2.5,4.1,3.3c4.1,0.8,9-1.6,9.9-5.8
					c0,2.5,0.8,4.9,2.5,6.6c0.8,1.6,3.3,2.5,2.5,4.1c-0.8,1.6-2.5,1.6-4.1,1.6c-3.3,0-6.6,0.8-9.9-0.8c-0.8,0-1.6-0.8-3.3-0.8
					c-0.8,0-1.6,0-2.5,0c-1.6,0-3.3,0-4.1,0c-0.8,0-1.6,0-2.5,0c-1.6,0.8-2.5,2.5-2.5,4.9c-1.6,0-3.3-0.8-4.1-1.6
					C209.7,44.4,209.7,42,210.5,41.1"/>
			</g>
			<g id="XMLID_8_">
				<g id="XMLID_9_">
					<path id="a1HToZndTl_1_" class="st6" d="M210.5,41.1c0.8-1.6,3.3-1.6,4.9-3.3c0.8-0.8,1.6-1.6,1.6-2.5c0.8-1.6,1.6-4.1,2.5-6.6
						c0-0.8,0.8-1.6,0.8-1.6c1.6-0.8,3.3,0.8,3.3,1.6c0,1.6,0,3.3,0.8,4.1c0.8,1.6,2.5,2.5,4.1,3.3c4.1,0.8,9-1.6,9.9-5.8
						c0,2.5,0.8,4.9,2.5,6.6c0.8,1.6,3.3,2.5,2.5,4.1c-0.8,1.6-2.5,1.6-4.1,1.6c-3.3,0-6.6,0.8-9.9-0.8c-0.8,0-1.6-0.8-3.3-0.8
						c-0.8,0-1.6,0-2.5,0c-1.6,0-3.3,0-4.1,0c-0.8,0-1.6,0-2.5,0c-1.6,0.8-2.5,2.5-2.5,4.9c-1.6,0-3.3-0.8-4.1-1.6
						C209.7,44.4,209.7,42,210.5,41.1"/>
				</g>
			</g>
		</g>
	</g>
</g>
<path id="XMLID_51_" class="st8" d="M656.8,168.4c0.2,6.5-4.7,11.9-11.2,12.1c0,0-0.2,0-0.5,0H541.4c-6.5-0.2-11.4-5.6-11.2-12.1
	c1.6-52.5,21.7-78.4,54.4-116.7c2.3-2.6,5.6-4,8.9-4s6.5,1.4,8.9,4C635.1,90,655.1,115.9,656.8,168.4z"/>
<path id="XMLID_50_" class="st9" d="M645.1,180.6h-51.6V47.7c3.3,0,6.5,1.4,8.9,4c32.7,38.3,52.8,64.2,54.4,116.7
	c0.2,6.5-4.7,11.9-11.2,12.1C645.6,180.6,645.3,180.6,645.1,180.6z"/>
<path id="XMLID_49_" class="st10" d="M724.8,170.3c-38.4-19.2-84.2-19.2-122.5,0c-5.3,2.7-10.4,5.6-15.3,8.9l88.2,136.9
	c0-38.2,26.4-90.9,59.1-99.1l2.8-0.7l4.2-37.9L724.8,170.3z"/>
<path id="XMLID_48_" class="st11" d="M685.5,339.6H511.8v-23.3c0-38.1-26.4-90.8-59.1-99l-2.8-0.7l-4.2-37.8l16.6-8.4
	c38.3-19.1,84.1-19.1,122.4,0c3,1.6,6.1,3.3,8.9,4.7c44.1,25.9,56.3,63.3,71.7,109.7C676.2,317.4,681.8,332.1,685.5,339.6z"/>
<path id="XMLID_47_" class="st12" d="M685.5,339.6h-92V174.9c44.1,25.9,56.3,63.3,71.7,109.7C676.2,317.4,681.8,332.1,685.5,339.6z"
	/>
<path id="XMLID_26_" class="st13" d="M593.5,1c-19.4,0-35,15.6-35,35c0,19.4,15.6,35,35,35s35-15.6,35-35
	C628.5,16.6,612.9,1,593.5,1z"/>
<path id="XMLID_25_" class="st13" d="M430.1,234.5c-19.3,0-35.8-15.7-35.8-35s16.5-35,35.8-35s35,15.7,35,35
	S449.4,234.5,430.1,234.5z"/>
<path id="XMLID_20_" class="st14" d="M757.7,234.5c-19.3,0-35.8-15.7-35.8-35s16.5-35,35.8-35c19.3,0,35,15.7,35,35
	S777,234.5,757.7,234.5z"/>
<path id="XMLID_19_" class="st14" d="M593.5,71V1c19.4,0,35,15.6,35,35C628.5,55.4,612.9,71,593.5,71z"/>
<path id="XMLID_11_" class="st13" d="M698.6,351.2v11.7c0,6.5-5.1,11.7-11.7,11.7H500.1c-6.5,0-11.7-5.1-11.7-11.7v-11.7
	c0-12.8,10.5-23.3,23.3-23.3h163.4C688.1,327.9,698.6,338.4,698.6,351.2z"/>
<path id="XMLID_10_" class="st14" d="M698.6,351.2v11.7c0,6.5-5.1,11.7-11.7,11.7h-93.4v-46.7h81.7
	C688.1,327.9,698.6,338.4,698.6,351.2z"/>
<g id="XMLID_52_" transform="matrix(-1 0 0 -1 511 512.001)">
	<path id="XMLID_61_" class="st15" d="M259.5-35.9c66.9-67.5,80.1-162.9,29.4-213.3c-50.7-50.3-146.1-36.4-213,31.1
		C28-169.8,7.7-107.2,18.5-57.1C23.2-35.5,14.2-13.4-4-0.9C-36.8,21.6-68.4,47-76.7,55.4c-17.5,17.7-17.4,46.2,0.2,63.7
		c17.7,17.5,46.2,17.4,63.7-0.2c8.3-8.4,33.5-40.2,55.7-73.2c12.3-18.3,34.4-27.4,56-22.9C149.2,33.2,211.6,12.4,259.5-35.9z"/>
	<path id="XMLID_60_" class="st16" d="M69.2-27.7c-17.2-17-24.3-42.9-20.2-72.9c4.6-33.4,22.3-67,49.8-94.7
		c27.5-27.7,61-45.6,94.4-50.5c30-4.4,55.9,2.6,73,19.6c17.2,17,24.3,42.9,20.2,72.9c-4.6,33.4-22.3,67-49.8,94.7
		c-27.5,27.7-61,45.6-94.4,50.5C112.3-3.7,86.4-10.7,69.2-27.7z"/>
	<g id="XMLID_56_">
		<path id="XMLID_59_" class="st17" d="M222.7-166.3c-2.4,2.4-6.3,2.4-8.8,0l-7.3-7.2c-2.4-2.4-2.4-6.3,0-8.8c2.4-2.4,6.3-2.4,8.8,0
			l7.3,7.2C225.1-172.6,225.1-168.7,222.7-166.3z"/>
		<path id="XMLID_58_" class="st17" d="M128.8-71.7c-2.4,2.4-6.3,2.4-8.8,0l-7.3-7.2c-2.4-2.4-2.4-6.3,0-8.8c2.4-2.4,6.3-2.4,8.8,0
			l7.3,7.2C131.2-78,131.3-74.1,128.8-71.7z"/>
		<path id="XMLID_57_" class="st17" d="M180.4-114.4c-5.6,5.7-13.1,9.6-21.5,10.7c-3.4,0.4-6.5-2-6.9-5.3c-0.4-3.4,1.9-6.5,5.3-6.9
			c11.2-1.5,20-10.3,21.3-21.5c0.4-3.4,3.5-5.8,6.9-5.4c3.4,0.4,5.8,3.5,5.4,6.9C189.8-127.6,186-120.1,180.4-114.4z"/>
	</g>
	<path id="XMLID_55_" class="st18" d="M19.6-49.3C20.9-30.4,12-11.9-4-0.9c-11.1,7.6-22,15.5-31.9,23c13.2,1.5,29.5,5.3,45.7,14.5
		C21.7,43.4,32.2,47,40.9,48.8c0.7-1,1.4-2,2.1-3.1c12.3-18.3,34.4-27.4,56-22.9C37.9,9.8,23.1-31.9,19.6-49.3z"/>
	<path id="XMLID_54_" class="st4" d="M258.2-84.3h-64.8c-11.3,0-20.6,9.3-20.6,20.6c0,11.3,9.3,20.6,20.6,20.6h25.9
		c6-4.8,11.8-9.9,17.3-15.5C244.7-66.7,251.9-75.3,258.2-84.3z"/>
	<path id="XMLID_53_" class="st4" d="M163.4-201.7c0-11.3-9.3-20.6-20.6-20.6h-10.7c-11.7,7.5-22.9,16.5-33.3,26.9
		c-4.6,4.6-8.9,9.4-12.9,14.3h56.9C154.2-181,163.4-190.3,163.4-201.7z"/>
</g>
</svg>
