<svg height="512pt" viewBox="-53 0 512 512.04414" width="512pt" xmlns="http://www.w3.org/2000/svg"><path d="m344.296875 353.148438s8.828125 35.308593 35.3125 44.136718c-16.195313 10.160156-36.773437 10.160156-52.964844 0 0 0 0 35.3125 17.652344 44.136719 0 0-44.136719 8.828125-61.792969-8.824219 0 0-8.828125 44.136719 8.828125 52.964844 0 0-44.136719 0-52.964843-17.65625-.476563 20.988281-14.9375 39.066406-35.3125 44.136719-20.371094-5.070313-34.832032-23.148438-35.308594-44.136719-8.828125 17.65625-52.964844 17.65625-52.964844 17.65625 17.65625-8.828125 8.828125-52.964844 8.828125-52.964844-17.65625 17.652344-61.792969 8.824219-61.792969 8.824219 17.652344-8.824219 17.652344-44.136719 17.652344-44.136719-16.191406 10.160156-36.769531 10.160156-52.964844 0 26.484375-8.828125 35.3125-44.136718 35.3125-44.136718-44.140625 17.65625-61.7929685-17.65625-61.7929685-17.65625 26.4804685 8.828124 44.1367185-26.484376 44.1367185-26.484376-44.1367185-8.824218-35.308594-44.136718-35.308594-44.136718s25.421876 12.710937 43.960938 11.125c-.621094-6.09375-1.589844-12.09375-2.648438-18.097656-.972656-5.03125-1.855468-10.152344-2.648437-15.273438-1.058594-6.179688-1.855469-12.445312-2.5625-18.714844-.882813-8.03125-1.5-16.066406-1.851563-24.097656-.089843-2.207031-.175781-4.324219-.265624-6.53125 10.113281 2.96875 21.023437-.320312 27.808593-8.386719l36.191407-44.933593c11.519531-14.417969 26.402343-25.785157 43.34375-33.101563h105.753906c16.941406 7.316406 31.824218 18.683594 43.34375 33.101563l36.191406 44.933593c6.785156 8.066407 17.695312 11.355469 27.808594 8.386719-.089844 2.207031-.175782 4.324219-.265625 6.53125-.351563 8.03125-.96875 16.066406-1.851563 24.097656-.621094 6.269532-1.503906 12.535156-2.5625 18.714844-.792968 5.121094-1.675781 10.242188-2.648437 15.273438-1.058594 6.003906-2.027344 12.003906-2.648438 18.097656 18.539063 1.585937 43.960938-11.125 43.960938-11.125s8.828125 35.3125-35.308594 44.136718c0 0 17.65625 35.3125 44.136719 26.484376 0 0-17.652344 35.3125-61.792969 17.65625zm0 0" fill="#b0d3f0"/><path d="m344.296875 353.148438s8.828125 35.308593 35.3125 44.136718c-16.195313 10.160156-36.773437 10.160156-52.964844 0 0 0 0 35.3125 17.652344 44.136719 0 0-44.136719 8.828125-61.792969-8.824219 0 0-8.828125 44.136719 8.828125 52.964844 0 0-44.136719 0-52.964843-17.65625-.476563 20.988281-14.9375 39.066406-35.3125 44.136719-20.371094-5.070313-34.832032-23.148438-35.308594-44.136719-8.828125 17.65625-52.964844 17.65625-52.964844 17.65625 17.65625-8.828125 8.828125-52.964844 8.828125-52.964844-17.65625 17.652344-61.792969 8.824219-61.792969 8.824219 17.652344-8.824219 17.652344-44.136719 17.652344-44.136719-16.191406 10.160156-36.769531 10.160156-52.964844 0 26.484375-8.828125 35.3125-44.136718 35.3125-44.136718-44.140625 17.65625-61.7929685-17.65625-61.7929685-17.65625 26.4804685 8.828124 44.1367185-26.484376 44.1367185-26.484376-44.1367185-8.824218-35.308594-44.136718-35.308594-44.136718s25.421876 12.710937 43.960938 11.125c1.054688-.21875 2.050781-.660156 2.921875-1.289063 2.511719-1.648437 5.683594-1.910156 8.429687-.695312 2.746094 1.21875 4.683594 3.742187 5.152344 6.707031 2.3125 16.644531 8.925782 42.46875 27.808594 54.773438 11.859375 11.398437 27.691406 17.730468 44.136719 17.65625 21.804687-.261719 43.144531-6.359376 61.792969-17.65625 18.652343 11.296874 39.992187 17.394531 61.796874 17.65625 16.445313.074218 32.277344-6.257813 44.136719-17.65625 18.828125-12.269532 24.789063-38.3125 26.652344-55.207032.378906-3.046875 2.316406-5.679687 5.117187-6.945312 2.796876-1.269532 6.050782-.988282 8.59375.738281 1.171876.898437 2.515626 1.554687 3.949219 1.917969 18.539063 1.585937 43.960938-11.125 43.960938-11.125s8.828125 35.3125-35.308594 44.136718c0 0 17.65625 35.3125 44.136719 26.484376 0 0-17.652344 35.3125-61.792969 17.65625zm0 0" fill="#547580"/><path d="m224.242188 293.121094c31.597656 5.074218 60.90625 19.636718 84.039062 41.753906.265625.175781.441406.441406.707031.617188-11.859375 11.398437-27.691406 17.730468-44.136719 17.65625-20.15625-.273438-39.9375-5.480469-57.609374-15.171876-2.601563-1.453124-5.769532-1.453124-8.371094 0-17.671875 9.691407-37.453125 14.898438-57.609375 15.171876-16.445313.074218-32.277344-6.257813-44.136719-17.65625.265625-.175782.441406-.441407.707031-.617188 23.128907-22.117188 52.441407-36.679688 84.039063-41.753906zm0 0" fill="#84b5cb"/><path d="m203.054688 309.007812c-19.800782 0-35.308594-11.632812-35.308594-26.480468 0-4.875 3.953125-8.828125 8.828125-8.828125s8.828125 3.953125 8.828125 8.828125c0 3.597656 6.878906 8.828125 17.652344 8.828125 10.777343 0 17.65625-5.230469 17.65625-8.828125 0-4.875 3.953124-8.828125 8.828124-8.828125s8.828126 3.953125 8.828126 8.828125c0 14.847656-15.507813 26.480468-35.3125 26.480468zm0 0" fill="#547580"/><path d="m154.945312 218.527344c2.597657 3.085937 4.007813 7 3.972657 11.035156.03125 9.226562-7.054688 16.921875-16.253907 17.65625-9.199218.730469-17.410156-5.746094-18.84375-14.863281-1.429687-9.117188 4.402344-17.796875 13.382813-19.917969" fill="#90bae1"/><path d="m268.839844 212.4375c8.957031 2.132812 14.765625 10.800781 13.328125 19.894531-1.433594 9.09375-9.625 15.554688-18.804688 14.828125-9.175781-.722656-16.253906-8.390625-16.238281-17.597656-.035156-4.035156 1.375-7.949219 3.972656-11.035156" fill="#90bae1"/><path d="m220.710938 176.597656h-35.308594c-4.875 0-8.828125-3.953125-8.828125-8.828125s3.953125-8.828125 8.828125-8.828125h35.308594c4.875 0 8.828124 3.953125 8.828124 8.828125s-3.953124 8.828125-8.828124 8.828125zm0 0" fill="#547580"/><g fill="#3f5c6c"><path d="m158.917969 423.769531c-4.875 0-8.828125-3.953125-8.828125-8.828125s3.953125-8.828125 8.828125-8.828125c4.875-.007812 8.820312-3.953125 8.828125-8.828125v-8.828125c0-4.875 3.953125-8.828125 8.828125-8.828125s8.828125 3.953125 8.828125 8.828125v8.828125c-.015625 14.621094-11.863282 26.46875-26.484375 26.484375zm0 0"/><path d="m247.195312 423.769531c-14.621093-.015625-26.46875-11.863281-26.484374-26.484375v-8.828125c0-4.875 3.953124-8.828125 8.828124-8.828125s8.828126 3.953125 8.828126 8.828125v8.828125c.007812 4.875 3.953124 8.820313 8.828124 8.828125 4.875 0 8.828126 3.953125 8.828126 8.828125s-3.953126 8.828125-8.828126 8.828125zm0 0"/><path d="m203.054688 459.078125c-4.875 0-8.824219-3.953125-8.824219-8.828125v-17.652344c0-4.878906 3.949219-8.828125 8.824219-8.828125 4.878906 0 8.828124 3.949219 8.828124 8.828125v17.652344c0 4.875-3.949218 8.828125-8.828124 8.828125zm0 0"/></g><path d="m150.179688 106.859375c-16.941407 7.316406-31.824219 18.683594-43.34375 33.101563l-36.191407 44.933593c-5.511719 5.820313-13.125 9.1875-21.136719 9.351563-8.011718.167968-15.757812-2.882813-21.503906-8.46875-8.710937-7.015625-14.347656-17.148438-15.710937-28.25-.390625-12.105469 5.789062-23.480469 16.152343-29.746094 1.988282-1.253906 4.085938-2.316406 6.269532-3.179688-7.621094-6.792968-12.460938-16.160156-13.59375-26.304687-.410156-12.089844 5.777344-23.449219 16.152344-29.664063 8.175781-5.164062 17.824218-7.488281 27.453124-6.617187-2.03125-4.863281-3.023437-10.09375-2.910156-15.363281.066406-11.203125 4.5-21.9375 12.355469-29.925782 9.253906-7.832031 22.03125-10.03125 33.371094-5.734374 10.75 3.769531 19.570312 11.636718 24.539062 21.890624 1.058594-9.445312 5.292969-18.253906 12.007813-24.980468 9.25-7.8359378 22.027344-10.035156 33.367187-5.738282 11.660157 4.027344 20.996094 12.917969 25.597657 24.363282 4.605468-11.445313 13.941406-20.335938 25.601562-24.363282 11.339844-4.296874 24.117188-2.0976558 33.367188 5.738282 6.714843 6.726562 10.949218 15.535156 12.007812 24.980468 4.964844-10.253906 13.789062-18.121093 24.539062-21.890624 11.339844-4.296876 24.117188-2.097657 33.367188 5.734374 7.859375 7.988282 12.292969 18.722657 12.359375 29.925782.113281 5.269531-.878906 10.5-2.910156 15.363281 9.628906-.871094 19.277343 1.453125 27.453125 6.617187 10.375 6.214844 16.5625 17.574219 16.152344 29.664063-1.132813 10.144531-5.972657 19.511719-13.59375 26.304687 2.183593.863282 4.28125 1.925782 6.269531 3.179688 10.363281 6.265625 16.542969 17.640625 16.152343 29.746094-1.363281 11.101562-7 21.234375-15.710937 28.25-5.746094 5.585937-13.492187 8.636718-21.503906 8.46875-8.011719-.164063-15.625-3.53125-21.136719-9.351563l-36.191406-44.933593c-11.519532-14.417969-26.402344-25.785157-43.34375-33.101563" fill="#547580"/><path d="m176.566406 123.628906c-17.476562 1.140625-34.132812-7.546875-43.199218-22.53125-2.207032-4.347656-.472657-9.664062 3.871093-11.871094 4.347657-2.207031 9.664063-.472656 11.871094 3.875 6.152344 8.9375 16.648437 13.859376 27.457031 12.875h.007813c17.453125-.003906 17.65625-8.742187 17.65625-8.828124 0-4.875 3.949219-8.828126 8.824219-8.828126 4.878906 0 8.828124 3.953126 8.828124 8.828126 0 9.160156-7.378906 26.476562-35.308593 26.480468zm0 0" fill="#3f5c6c"/><path d="m229.546875 123.628906h-.007813c-27.929687-.003906-35.308593-17.320312-35.308593-26.480468 0-4.875 3.949219-8.828126 8.824219-8.828126 4.878906 0 8.828124 3.953126 8.828124 8.828126.097657 1.261718 1.414063 8.824218 17.65625 8.828124h.007813c10.816406 1 21.324219-3.933593 27.464844-12.890624 2.289062-4.261719 7.566406-5.910157 11.871093-3.707032 4.285157 2.1875 6.007813 7.414063 3.863282 11.722656-9.066406 14.980469-25.722656 23.667969-43.199219 22.527344zm0 0" fill="#3f5c6c"/><path d="m172.027344 229.5625c-33.28125 0-67.648438-25.449219-69.144532-26.570312-3.816406-2.949219-4.5625-8.417969-1.671874-12.28125 2.890624-3.859376 8.347656-4.6875 12.25-1.855469.328124.242187 33.078124 24.390625 60.984374 22.984375 4.824219-.195313 8.914063 3.527344 9.167969 8.351562.257813 4.824219-3.410156 8.957032-8.230469 9.277344-1.113281.0625-2.234374.09375-3.355468.09375zm0 0" fill="#547580"/><path d="m234.015625 229.5625c-1.117187 0-2.238281-.03125-3.351563-.089844-3.179687-.128906-6.042968-1.957031-7.496093-4.785156s-1.273438-6.222656.472656-8.882812c1.746094-2.65625 4.789063-4.171876 7.960937-3.960938 28.125 1.496094 60.644532-22.730469 60.96875-22.976562 3.90625-2.789063 9.320313-1.949219 12.195313 1.886718 2.878906 3.839844 2.164063 9.273438-1.609375 12.238282-1.496094 1.121093-35.859375 26.570312-69.140625 26.570312zm0 0" fill="#547580"/></svg>