<svg height="512pt" viewBox="-98 0 512 512" width="512pt" xmlns="http://www.w3.org/2000/svg"><path d="m58.65625 471.910156h30.074219v40.089844h-30.074219zm0 0" fill="#fcbd8a"/><path d="m118.660156 471.910156h30.074219v40.089844h-30.074219zm0 0" fill="#fcbd8a"/><path d="m118.660156 471.910156h30.074219v40.089844h-30.074219zm0 0" fill="#f4a971"/><path d="m212.378906 284.265625-38.347656-28.488281-39.195312-91.816406-78.039063-9.410157-28.863281-19.125c-17.164063-11.371093-27.605469-30.453125-27.9257815-51.042969-.3789065-24.175781 13.4374995-46.605468 35.1992185-57.140624l47.03125-22.773438 13.105469 27.066406-47.03125 22.773438c-11.273438 5.457031-18.433594 17.078125-18.234375 29.605468.164063 10.664063 5.574219 20.550782 14.46875 26.445313l22.921875 15.1875 88.210938 10.640625 42.816406 100.300781 31.820312 23.640625zm0 0" fill="#fcbd8a"/><path d="m309.09375 6.945312c-4.191406-4.191406-9.761719-6.5-15.6875-6.5-5.929688 0-11.5 2.308594-15.691406 6.496094l-1.242188 1.242188-1.367187-1.367188c-8.570313-8.570312-22.492188-8.648437-31.15625-.21875l-.183594.179688c-4.207031 4.183594-6.53125 9.75-6.546875 15.683594-.011719 5.933593 2.285156 11.511718 6.472656 15.714843l32.660156 32.769531 10.652344-10.535156 22.085938-22.089844c4.195312-4.191406 6.5-9.761718 6.5-15.691406 0-5.925781-2.308594-11.496094-6.496094-15.683594zm0 0" fill="#ff0059"/><path d="m242.097656 88.765625c-5.925781 0-11.496094 2.304687-15.6875 6.496094l-1.242187 1.242187-1.371094-1.367187c-8.566406-8.566407-22.492187-8.644531-31.15625-.21875l-.179687.179687c-4.210938 4.179688-6.535157 9.75-6.546876 15.683594-.015624 5.933594 2.285157 11.511719 6.472657 15.714844l32.660156 32.773437 10.648437-10.539062 22.089844-22.089844c4.191406-4.1875 6.5-9.761719 6.5-15.6875 0-5.929687-2.308594-11.5-6.496094-15.6875-4.191406-4.195313-9.761718-6.5-15.691406-6.5zm0 0" fill="#ff0059"/><path d="m151.0625 217.382812 10.050781-68.46875-5.433593-12.730468-88.210938-10.636719-19.425781 23.199219 8.300781 68.511718zm0 0" fill="#d20041"/><path d="m181.488281 486.945312-30.425781-269.5625-94.71875-.125-30.027344 269.6875zm0 0" fill="#d20041"/><path d="m118.644531 486.945312 32.417969-269.5625-94.71875-.125-30.027344 269.6875zm0 0" fill="#a60f34"/><path d="m103.695312 0c-29.742187 0-53.941406 24.195312-53.941406 53.9375s24.199219 53.941406 53.941406 53.941406c29.742188 0 53.941407-24.199218 53.941407-53.941406s-24.199219-53.9375-53.941407-53.9375zm0 0" fill="#f4a971"/><path d="m309.09375 6.945312c-4.191406-4.191406-9.761719-6.5-15.6875-6.5-5.929688 0-11.5 2.308594-15.691406 6.496094l-1.242188 1.242188-.121094 62.761718 10.652344-10.535156 22.085938-22.089844c4.195312-4.191406 6.5-9.761718 6.5-15.691406 0-5.925781-2.308594-11.496094-6.496094-15.683594zm0 0" fill="#d20041"/><path d="m242.097656 88.765625c-5.925781 0-11.496094 2.304687-15.6875 6.496094l-1.242187 1.242187-.121094 62.761719 10.648437-10.535156 22.089844-22.089844c4.191406-4.191406 6.5-9.761719 6.5-15.691406 0-5.925781-2.308594-11.496094-6.496094-15.6875-4.191406-4.191407-9.761718-6.496094-15.691406-6.496094zm0 0" fill="#d20041"/><path d="m103.695312 0v107.878906c29.742188 0 53.941407-24.195312 53.941407-53.9375 0-29.742187-24.199219-53.941406-53.941407-53.941406zm0 0" fill="#e49d5e"/><path d="m198.496094 236.488281-42.816406-100.304687-51.984376-6.269532v30.292969l31.140626 3.753907 39.195312 91.816406 38.347656 28.488281 17.9375-24.140625zm0 0" fill="#f4a971"/><path d="m151.0625 217.382812 10.050781-68.46875-5.433593-12.730468-51.984376-6.269532v87.40625zm0 0" fill="#a60f34"/><path d="m151.0625 217.382812-47.367188-.0625v269.625h14.949219zm0 0" fill="#821328"/></svg>