<?xml version="1.0" encoding="utf-8"?>
<!-- Generator: Adobe Illustrator 19.0.0, SVG Export Plug-In . SVG Version: 6.00 Build 0)  -->
<svg version="1.1" id="Layer_1" xmlns="http://www.w3.org/2000/svg" xmlns:xlink="http://www.w3.org/1999/xlink" x="0px" y="0px"
	 viewBox="14 -14 640 640" style="enable-background:new 14 -14 640 640;" xml:space="preserve">
<style type="text/css">
	.st0{fill:none;}
	.st1{fill:#B0B0B1;}
	.st2{fill:#AB2300;}
	.st3{fill:#AB2300;fill-opacity:0;}
	.st4{fill:#937051;}
	.st5{fill-opacity:0;stroke:#000000;stroke-opacity:0;}
	.st6{fill:#4D4D4D;}
	.st7{fill:#A07C62;}
	.st8{fill:#6D523E;}
	.st9{fill:#EFDF9A;}
	.st10{fill:#EFE373;}
	.st11{fill:#CD2A00;}
	.st12{fill:#BCBEC0;}
	.st13{fill:#914F00;}
	.st14{fill:#7C4100;}
	.st15{fill:#898890;}
	.st16{fill:url(#SVGID_3_);}
	.st17{fill:url(#SVGID_4_);}
	.st18{fill:#ACABB1;}
	.st19{fill:#787680;}
	.st20{fill:#FFCD00;}
	.st21{fill:#FFE470;}
	.st22{fill:#FDBF00;}
	.st23{fill:#895D3C;}
	.st24{fill:#714C2F;}
	.st25{fill:#FF641A;}
	.st26{fill:#F03800;}
	.st27{fill:#FF9100;}
	.st28{fill:#FED2A4;}
	.st29{fill:#FFBD86;}
</style>
<pattern  x="14" y="626" width="38" height="38" patternUnits="userSpaceOnUse" id="SVGID_1_" viewBox="0 -38 38 38" style="overflow:visible;">
	<g>
		<polygon class="st0" points="0,0 38,0 38,-38 0,-38 		"/>
		<g>
			<polygon class="st0" points="0,-38 38,-38 38,0 0,0 			"/>
			<polygon class="st0" points="0,0 38,0 38,-38 0,-38 			"/>
			<polygon class="st1" points="38,0 0,0 0,-38 38,-38 			"/>
		</g>
	</g>
</pattern>
<pattern  x="14" y="626" width="38" height="38" patternUnits="userSpaceOnUse" id="SVGID_2_" viewBox="0 -38 38 38" style="overflow:visible;">
	<g>
		<polygon class="st0" points="0,0 38,0 38,-38 0,-38 		"/>
		<g>
			<polygon class="st0" points="0,-38 38,-38 38,0 0,0 			"/>
			<polygon class="st0" points="0,0 38,0 38,-38 0,-38 			"/>
			<polygon class="st1" points="38,0 0,0 0,-38 38,-38 			"/>
		</g>
	</g>
</pattern>
<g>
	<g>
		<g>
			<g>
				<path class="st2" d="M528.6,302.4c8.2-11.4,15.8-23.1,23.4-34.9l-0.1-0.1l-17.7-17.1c-43-41.6-66.9-64.7-71.7-69.3
					c-4.5-4.3-9.5-7.9-15-10.6c-3.6,10.2-13.1,17.1-24.5,17.6c-12.4,0.6-23.7-9.9-25.7-21.9c-28.2,3.3-82.3,9.6-90.6,10.6
					c-15.6,21-24.8,47-24.8,75.2c0,51.1,30.3,95,74,114.9c3.8-4.3,22.7-25.9,56.8-64.6l111.1,0.2
					C525.5,302.4,527.1,302.4,528.6,302.4z"/>
			</g>
			<g>
				<g>
					<path class="st3" d="M528.6,302.4c8.2-11.4,15.8-23.1,23.4-34.9l-0.1-0.1l-17.7-17.1c-43-41.6-66.9-64.7-71.7-69.3
						c-4.5-4.3-9.5-7.9-15-10.6c-3.6,10.2-13.1,17.1-24.5,17.6c-12.4,0.6-23.7-9.9-25.7-21.9c-28.2,3.3-82.3,9.6-90.6,10.6
						c-15.6,21-24.8,47-24.8,75.2c0,51.1,30.3,95,74,114.9c3.8-4.3,22.7-25.9,56.8-64.6l111.1,0.2
						C525.5,302.4,527.1,302.4,528.6,302.4z"/>
				</g>
			</g>
		</g>
		<g>
			<g>
				<path id="h8rjgxMZoU_5_" class="st2" d="M461.2,222.9c-4.3-1-7-5.4-6-9.7l0,0c11,2.6,17.1,4,18.4,4.3c4.3,1,7,5.4,6,9.7l0,0
					C468.5,224.6,462.4,223.2,461.2,222.9z"/>
			</g>
			<g>
				<g>
					<path id="h8rjgxMZoU_2_" class="st3" d="M461.2,222.9c-4.3-1-7-5.4-6-9.7l0,0c11,2.6,17.1,4,18.4,4.3c4.3,1,7,5.4,6,9.7l0,0
						C468.5,224.6,462.4,223.2,461.2,222.9z"/>
				</g>
			</g>
		</g>
		<g>
			<g>
				<path id="c1Tm5UFKIN_5_" class="st2" d="M418.6,201.2c0,0-17.8-24.2-42-25.7c0,0-0.8,8.6,0.5,18c1.6,10.9,10.6,19.2,21.6,19.9
					c0.8,0,4.6,0.3,11.5,0.7"/>
			</g>
			<g>
				<g>
					<path id="c1Tm5UFKIN_2_" class="st3" d="M418.6,201.2c0,0-17.8-24.2-42-25.7c0,0-0.8,8.6,0.5,18c1.6,10.9,10.6,19.2,21.6,19.9
						c0.8,0,4.6,0.3,11.5,0.7"/>
				</g>
			</g>
		</g>
		<g>
			<g>
				<path id="cBUAdNTq9_5_" class="st2" d="M381.5,185.4c0,0-3.5,27.7,29.2,21.3C404.8,202.4,400.8,190.4,381.5,185.4z"/>
			</g>
			<g>
				<g>
					<path id="cBUAdNTq9_2_" class="st3" d="M381.5,185.4c0,0-3.5,27.7,29.2,21.3C404.8,202.4,400.8,190.4,381.5,185.4z"/>
				</g>
			</g>
		</g>
		<g>
			<g>
				<path class="st2" d="M552,267.5C552,267.4,551.9,267.4,552,267.5c-1.4,1.3-2.5,3-3.1,4.9C549.9,270.7,550.9,269.1,552,267.5z"/>
			</g>
			<g>
				<g>
					<path class="st3" d="M552,267.5C552,267.4,551.9,267.4,552,267.5c-1.4,1.3-2.5,3-3.1,4.9C549.9,270.7,550.9,269.1,552,267.5z"
						/>
				</g>
			</g>
		</g>
		<g>
			<g>
				<path class="st2" d="M450.5,159.9c-0.1,0.1-0.3,0.2-0.4,0.2c-0.2,0.2-0.4,0.4-0.6,0.6c-0.2,0.3-0.4,0.6-0.5,0.8
					c0,0.1,0,0.3,0,0.4c-0.3,14.6-11.7,25.4-26,26c-1.3,0.1-2.6,0-3.9-0.2c2.7,1.1,5.8,1.7,9,1.6c10-0.5,18.3-7.9,19.6-17.8
					c0.6-4.3,2.1-8.9,4.8-12.9C451.8,159,451.2,159.4,450.5,159.9z"/>
			</g>
			<g>
				<g>
					<path class="st3" d="M450.5,159.9c-0.1,0.1-0.3,0.2-0.4,0.2c-0.2,0.2-0.4,0.4-0.6,0.6c-0.2,0.3-0.4,0.6-0.5,0.8
						c0,0.1,0,0.3,0,0.4c-0.3,14.6-11.7,25.4-26,26c-1.3,0.1-2.6,0-3.9-0.2c2.7,1.1,5.8,1.7,9,1.6c10-0.5,18.3-7.9,19.6-17.8
						c0.6-4.3,2.1-8.9,4.8-12.9C451.8,159,451.2,159.4,450.5,159.9z"/>
				</g>
			</g>
		</g>
	</g>
</g>
<g>
	<g>
		<g>
			<g>
				<path id="aGbnZiXAy" class="st4" d="M561.1,287.8c-2.2,3.6-3.4,5.6-3.7,6c-3,4.9-8.3,7.9-14,7.9c-0.9,0-5.3,0-13.3,0l-111.4-0.2
					c-34.2,38.9-53.1,60.5-56.9,64.8c-43.7-19.9-74.1-64-74.1-115.2c0-28.2,9.3-54.3,24.9-75.4c10.7-1.2,96.1-11.2,106.7-12.5
					c18.1-2.1,36.3,4,49.4,16.7c4.8,4.6,28.8,27.8,71.9,69.5l17.8,17.2l9.8,9.5L561.1,287.8z"/>
			</g>
			<g>
				<g>
					<path id="aGbnZiXAy_1_" class="st5" d="M561.1,287.8c-2.2,3.6-3.4,5.6-3.7,6c-3,4.9-8.3,7.9-14,7.9c-0.9,0-5.3,0-13.3,0
						l-111.4-0.2c-34.2,38.9-53.1,60.5-56.9,64.8c-43.7-19.9-74.1-64-74.1-115.2c0-28.2,9.3-54.3,24.9-75.4
						c10.7-1.2,96.1-11.2,106.7-12.5c18.1-2.1,36.3,4,49.4,16.7c4.8,4.6,28.8,27.8,71.9,69.5l17.8,17.2l9.8,9.5L561.1,287.8z"/>
				</g>
			</g>
		</g>
		<g>
			<g>
				<path id="h8rjgxMZoU" class="st6" d="M467.5,222c-4.4-1-7.1-5.4-6-9.7l0,0c11,2.6,17.2,4,18.4,4.3c4.4,1,7.1,5.4,6,9.7l0,0
					C474.8,223.7,468.7,222.3,467.5,222z"/>
			</g>
			<g>
				<g>
					<path id="h8rjgxMZoU_1_" class="st5" d="M467.5,222c-4.4-1-7.1-5.4-6-9.7l0,0c11,2.6,17.2,4,18.4,4.3c4.4,1,7.1,5.4,6,9.7l0,0
						C474.8,223.7,468.7,222.3,467.5,222z"/>
				</g>
			</g>
		</g>
		<g>
			<g>
				<path id="c1Tm5UFKIN" class="st7" d="M424.8,200.3c0,0-17.8-24.3-42.1-25.8c0,0-0.8,8.6,0.5,18.1c1.6,10.9,10.6,19.3,21.6,19.9
					c0.8,0,4.6,0.3,11.5,0.7"/>
			</g>
			<g>
				<g>
					<path id="c1Tm5UFKIN_1_" class="st5" d="M424.8,200.3c0,0-17.8-24.3-42.1-25.8c0,0-0.8,8.6,0.5,18.1
						c1.6,10.9,10.6,19.3,21.6,19.9c0.8,0,4.6,0.3,11.5,0.7"/>
				</g>
			</g>
		</g>
		<g>
			<g>
				<path id="cBUAdNTq9" class="st8" d="M387.6,184.4c0,0-3.5,27.7,29.2,21.3C411,201.5,406.9,189.4,387.6,184.4z"/>
			</g>
			<g>
				<g>
					<path id="cBUAdNTq9_1_" class="st5" d="M387.6,184.4c0,0-3.5,27.7,29.2,21.3C411,201.5,406.9,189.4,387.6,184.4z"/>
				</g>
			</g>
		</g>
		<g>
			<g>
				<path id="a5PhR28CmC" class="st6" d="M561.1,287.8c-3.9-2.4-6.6-6.7-6.6-11.7c0-3.7,1.5-7,3.8-9.5c0.7,0.6,3.9,3.8,9.8,9.5
					C564,283.1,561.6,287,561.1,287.8z"/>
			</g>
			<g>
				<g>
					<path id="a5PhR28CmC_1_" class="st5" d="M561.1,287.8c-3.9-2.4-6.6-6.7-6.6-11.7c0-3.7,1.5-7,3.8-9.5c0.7,0.6,3.9,3.8,9.8,9.5
						C564,283.1,561.6,287,561.1,287.8z"/>
				</g>
			</g>
		</g>
		<g>
			<g>
				<path id="f1r05bXSLW" class="st9" d="M475,118.1c37.2-2.1,63.4,25.1,107,8.3c0,0-11.6,30.9-71.4,19.2
					c-41.4-8.1-54.4,9.5-56.5,24.9c-1.4,9.9-9.7,17.4-19.7,17.9l0,0c-13.1,0.6-23.5-10.8-21.7-23.7
					C415.2,146.4,428.2,123.6,475,118.1z"/>
			</g>
			<g>
				<g>
					<path id="f1r05bXSLW_1_" class="st5" d="M475,118.1c37.2-2.1,63.4,25.1,107,8.3c0,0-11.6,30.9-71.4,19.2
						c-41.4-8.1-54.4,9.5-56.5,24.9c-1.4,9.9-9.7,17.4-19.7,17.9l0,0c-13.1,0.6-23.5-10.8-21.7-23.7
						C415.2,146.4,428.2,123.6,475,118.1z"/>
				</g>
			</g>
		</g>
		<g>
			<g>
				<path id="fkHLv5lsZ" class="st10" d="M568.5,306.7c-2.1,1.2-4.9,0.5-6.1-1.6c-1.1-1.9-10-17.4-11.2-19.3
					c-1.2-2.1-0.5-4.9,1.6-6.1l0,0c2.1-1.2,4.9-0.5,6.1,1.6c1.1,1.9,10,17.4,11.2,19.3C571.3,302.8,570.6,305.5,568.5,306.7
					L568.5,306.7z"/>
			</g>
			<g>
				<g>
					<path id="fkHLv5lsZ_1_" class="st5" d="M568.5,306.7c-2.1,1.2-4.9,0.5-6.1-1.6c-1.1-1.9-10-17.4-11.2-19.3
						c-1.2-2.1-0.5-4.9,1.6-6.1l0,0c2.1-1.2,4.9-0.5,6.1,1.6c1.1,1.9,10,17.4,11.2,19.3C571.3,302.8,570.6,305.5,568.5,306.7
						L568.5,306.7z"/>
				</g>
			</g>
		</g>
	</g>
</g>
<g id="surface1">
	<path class="st11" d="M247.9,399.2c13.4,0,24.3-10.9,24.3-24.3c0-13.4-24.3-38.1-24.3-38.1V399.2z"/>
	<path class="st2" d="M223.6,374.9c0,13.4,10.9,24.3,24.3,24.3v-62.4C247.9,336.8,223.6,361.5,223.6,374.9z M232.3,374.9
		c0,7.7,6.2,13.9,13.9,13.9C238.5,388.8,232.3,382.6,232.3,374.9z"/>
	<path class="st2" d="M260,328.1c0,7.7,6.2,13.9,13.9,13.9v-36.5C266.4,314.5,260,324.2,260,328.1z"/>
	<path class="st11" d="M273.9,305.5V342c7.7,0,13.9-6.2,13.9-13.9C287.7,324.5,281.7,314.9,273.9,305.5z"/>
	<path class="st11" d="M249,311.2c-1.8-3.5-3.9-6.9-6.3-10v18.3c2.9,0,5.5-1.8,6.5-4.5C249.6,313.7,249.5,312.4,249,311.2z"/>
	<path class="st2" d="M242.7,319.5v-18.3c-2.4,3.1-4.5,6.4-6.3,9.9c-0.6,1.2-0.7,2.6-0.2,3.8C237.2,317.7,239.8,319.5,242.7,319.5z"
		/>
	<path class="st12" d="M246.2,390.5c-8.6,0-15.6-7-15.6-15.6h3.5c0,6.7,5.4,12.1,12.1,12.1V390.5z"/>
</g>
<path class="st13" d="M205.3,150L30.9,324.4c-8.1,8.1-8.1,21.3,0,29.4c8.1,8.1,21.3,8.1,29.4,0l174.4-174.4c8.1-8.1,8.1-21.3,0-29.4
	C226.6,141.9,213.4,141.9,205.3,150z"/>
<path class="st14" d="M205.3,150L30.9,324.4c-8.1,8.1-8.1,21.3,0,29.4L234.7,150C226.6,141.9,213.4,141.9,205.3,150z"/>
<path class="st15" d="M203,285.6c54.7,3,80.6-22.8,77.5-77.5c-35.4-14.3-82.1-49.5-107.3-78.3c-1.4-1.6-3.3-2.5-5.4-2.6
	c-2.1-0.1-4.1,0.7-5.6,2.2l-41,41c-1.5,1.5-2.3,3.5-2.2,5.6c0.1,2.1,1,4.1,2.6,5.4C150.8,206.4,188.8,250.2,203,285.6z"/>
<g>
	<pattern  id="SVGID_3_" xlink:href="#SVGID_1_" patternTransform="matrix(1.1092 0 0 1.1092 1303.449 19500.6172)">
	</pattern>
	<path class="st16" d="M173.6,130.1c-0.1-0.1-0.2-0.3-0.3-0.4c-0.4-0.5-0.9-0.9-1.4-1.2C172.4,129,173,129.5,173.6,130.1z"/>
	<pattern  id="SVGID_4_" xlink:href="#SVGID_2_" patternTransform="matrix(1.1092 0 0 1.1092 1303.449 19500.6172)">
	</pattern>
	<path class="st17" d="M119.2,177.5c0.4,1.5,1.2,3,2.4,4c3.6,3.1,7.4,6.5,11.3,10.2C128.3,186.7,123.7,181.9,119.2,177.5z"/>
</g>
<path class="st18" d="M194.1,267.3c3.5,6.2,6.6,12.3,8.9,18.2c54.7,3,80.6-22.8,77.5-77.5c-5.7-2.3-11.8-5.2-18-8.5
	C262.1,244.5,239.2,267.1,194.1,267.3z"/>
<path class="st19" d="M162.2,129.3l-41,41c-1.5,1.5-2.3,3.5-2.2,5.6c0.1,2.1,1,4.1,2.6,5.4c12.7,10.9,27.2,25.3,40.5,41.1l53.7-53.7
	c-16.5-12.8-31.6-26.6-42.6-39.2c-1.4-1.6-3.3-2.5-5.4-2.6C165.7,127.1,163.7,127.9,162.2,129.3z"/>
<path class="st20" d="M323.2,401c-1-1.2-2.6-1.8-4.1-1.8s-3.1,0.6-4.1,1.8c-3.6,3.9-35,39.9-35,60c0,21.6,17.6,39.1,39.1,39.1
	s39.1-17.6,39.1-39.1C358.2,440.8,326.8,404.9,323.2,401z"/>
<path class="st21" d="M323.2,446.1c-1-1.2-2.6-1.8-4.1-1.8s-3.1,0.6-4.1,1.8c-3,3.4-18.2,20.8-18.2,31.7c0,12.3,10.1,22.4,22.4,22.4
	c12.3,0,22.4-10.1,22.4-22.4C341.4,466.9,326.2,449.4,323.2,446.1z"/>
<path class="st22" d="M319.1,500.1V399.2c1.6,0,3.1,0.6,4.1,1.8c3.6,3.9,35,39.9,35,60C358.2,482.5,340.7,500.1,319.1,500.1z"/>
<path class="st20" d="M341.4,477.7c0,12.3-10.1,22.4-22.4,22.4v-55.8c1.6,0,3.1,0.6,4.1,1.8C326.2,449.4,341.4,466.9,341.4,477.7z"
	/>
<path class="st23" d="M363.8,488.9h-89.5c-3.1,0-5.6,2.5-5.6,5.6v22.4c0,3.1,2.5,5.6,5.6,5.6h89.5c3.1,0,5.6-2.5,5.6-5.6v-22.4
	C369.4,491.4,366.9,488.9,363.8,488.9z"/>
<path class="st24" d="M363.8,522.5h-44.7v-33.6h44.7c3.1,0,5.6,2.5,5.6,5.6v22.4C369.4,520,366.9,522.5,363.8,522.5z"/>
<path class="st25" d="M386.2,511.3H252c-3.1,0-5.6,2.5-5.6,5.6v33.6c0,3.1,2.5,5.6,5.6,5.6h134.2c3.1,0,5.6-2.5,5.6-5.6v-33.6
	C391.8,513.7,389.3,511.3,386.2,511.3z"/>
<path class="st26" d="M391.8,516.9v33.6c0,3.1-2.5,5.6-5.6,5.6h-67.1v-44.7h67.1C389.3,511.3,391.8,513.7,391.8,516.9z"/>
<path class="st27" d="M414.5,550.4v33.9c0,3.1-2.5,5.6-5.6,5.6h-39.5l-7.4-7.4l-3.8,7.4h-33.6l-6.6-6.6l-4.6,6.6h-33.6l-4.9-10.2
	l-6.3,10.2h-39.5c-3.1,0-5.6-2.5-5.6-5.6v-33.9c0-3.1,2.5-5.6,5.6-5.6h39.5l5.6,7.4l5.6-7.4h33.6l6.3,6.3l4.9-6.3h33.6l5.9,6.3
	l5.3-6.3h39.5C412.1,544.8,414.5,547.3,414.5,550.4z"/>
<path class="st25" d="M414.5,550.4v33.9c0,3.1-2.5,5.6-5.6,5.6h-39.5l-7.4-7.4l-3.8,7.4h-33.6l-5.6-5.6v-33.9l0.7,0.7l4.9-6.3h33.6
	l5.9,6.3l5.3-6.3h39.5C412.1,544.8,414.5,547.3,414.5,550.4z"/>
<path class="st28" d="M268.7,544.8h11.2V590h-11.2V544.8z"/>
<path class="st28" d="M313.5,544.8h11.2V590h-11.2V544.8z"/>
<g>
	<path class="st29" d="M358.2,544.8h11.2V590h-11.2V544.8z"/>
	<path class="st29" d="M319.1,544.8h5.6V590h-5.6V544.8z"/>
</g>
</svg>
