<?xml version="1.0" encoding="UTF-8" standalone="no"?>
<svg
   xmlns:dc="http://purl.org/dc/elements/1.1/"
   xmlns:cc="http://creativecommons.org/ns#"
   xmlns:rdf="http://www.w3.org/1999/02/22-rdf-syntax-ns#"
   xmlns:svg="http://www.w3.org/2000/svg"
   xmlns="http://www.w3.org/2000/svg"
   xmlns:sodipodi="http://sodipodi.sourceforge.net/DTD/sodipodi-0.dtd"
   xmlns:inkscape="http://www.inkscape.org/namespaces/inkscape"
   inkscape:version="1.0alpha (9dee831, 2019-01-15)"
   sodipodi:docname="vigintisexviri.svg"
   xml:space="preserve"
   style="enable-background:new 0 0 494.4 494.4;"
   viewBox="0 0 494.4 494.4"
   y="0px"
   x="0px"
   id="Layer_1"
   version="1.1"><metadata
   id="metadata404">
  <rdf:RDF>
    <cc:Work
       rdf:about="">
      <dc:format>image/svg+xml</dc:format>
      <dc:type
         rdf:resource="http://purl.org/dc/dcmitype/StillImage" />
      <dc:title></dc:title>
    </cc:Work>
  </rdf:RDF>
</metadata>
<defs
   id="defs402" />
<sodipodi:namedview
   inkscape:current-layer="Layer_1"
   inkscape:window-maximized="1"
   inkscape:window-y="34"
   inkscape:window-x="59"
   inkscape:cy="224.03138"
   inkscape:cx="264.32909"
   inkscape:zoom="1.0153722"
   showgrid="true"
   id="namedview400"
   inkscape:window-height="702"
   inkscape:window-width="1307"
   inkscape:pageshadow="2"
   inkscape:pageopacity="0"
   guidetolerance="10"
   gridtolerance="10"
   objecttolerance="10"
   borderopacity="1"
   inkscape:document-rotation="0"
   bordercolor="#666666"
   pagecolor="#ffffff" />

<path
   id="path279"
   d="M247.2,494.4c-132,0-240-108-240-240s108-240,240-240s240,108,240,240S379.2,494.4,247.2,494.4z"
   style="fill:#D89E77;" />

<circle
   id="circle281"
   r="224.8"
   cy="240"
   cx="247.2"
   style="fill:#D88B56;" />

<g
   id="g287">
	<path
   id="path283"
   d="M48.8,267.2c0-124,100.8-224.8,224.8-224.8c55.2,0,105.6,20,144.8,52.8   c-40.8-48.8-102.4-80-171.2-80C123.2,15.2,22.4,116,22.4,240c0,68.8,31.2,130.4,80,172C68.8,372.8,48.8,322.4,48.8,267.2z"
   style="fill:#CC7E48;" />

	<path
   id="path285"
   d="M406.4,81.6c88,88,88,230.4,0,318.4S176,488,88,400"
   style="fill:#CC7E48;" />

</g>

<path
   id="path289"
   d="M247.2,480c-132,0-240-108-240-240s108-240,240-240s240,108,240,240S379.2,480,247.2,480z   M247.2,30.4c-116,0-209.6,94.4-209.6,209.6c0,116,94.4,209.6,209.6,209.6S456.8,355.2,456.8,240S363.2,30.4,247.2,30.4z"
   style="fill:#F7C6A4;" />

<g
   id="g295">
	<path
   id="path291"
   d="M487.2,240c0-60.8-22.4-116-59.2-157.6c-42.4-36.8-97.6-59.2-158.4-59.2c-40.8,0-78.4,10.4-112,28   c27.2-13.6,57.6-20.8,89.6-20.8c63.2,0,120.8,28.8,159.2,73.6c44.8,38.4,72.8,95.2,72.8,159.2c0,32-7.2,62.4-20,89.6   C476.8,319.2,487.2,280.8,487.2,240z"
   style="fill:#E8B18B;" />

	<path
   id="path293"
   d="M29.6,263.2c0,60.8,22.4,116,59.2,157.6c42.4,36.8,97.6,59.2,157.6,59.2c40.8,0,78.4-10.4,112-28   c-27.2,12.8-57.6,20-89.6,20c-63.2,0-120.8-28.8-159.2-73.6C64.8,360,36,303.2,36,239.2c0-32,7.2-62.4,20-89.6   C40,184,29.6,222.4,29.6,263.2z"
   style="fill:#E8B18B;" />

</g>












<g
   id="g369">
</g>

<g
   id="g371">
</g>

<g
   id="g373">
</g>

<g
   id="g375">
</g>

<g
   id="g377">
</g>

<g
   id="g379">
</g>

<g
   id="g381">
</g>

<g
   id="g383">
</g>

<g
   id="g385">
</g>

<g
   id="g387">
</g>

<g
   id="g389">
</g>

<g
   id="g391">
</g>

<g
   id="g393">
</g>

<g
   id="g395">
</g>

<g
   id="g397">
</g>

<text
   id="text408"
   y="361.21158"
   x="137.51921"
   style="font-style:normal;font-variant:normal;font-weight:normal;font-stretch:normal;font-size:306.667px;font-family:'URW Palladio L';-inkscape-font-specification:'URW Palladio L';fill:#ffdcc5;fill-opacity:1;stroke:none"
   xml:space="preserve"><tspan
     y="361.21158"
     x="137.51921"
     id="tspan406"
     sodipodi:role="line">V</tspan></text>
</svg>
