<?xml version="1.0" encoding="UTF-8" standalone="no"?>
<!DOCTYPE svg PUBLIC "-//W3C//DTD SVG 1.1//EN" "http://www.w3.org/Graphics/SVG/1.1/DTD/svg11.dtd">
<svg version="1.1" xmlns="http://www.w3.org/2000/svg" xmlns:xlink="http://www.w3.org/1999/xlink" preserveAspectRatio="xMidYMid meet" viewBox="0 0 640 640" width="640" height="640"><defs><path d="M613.6 317.73C563.07 313.74 537.51 339.08 497.62 369.66C486.98 377.64 485.91 389.02 472.62 399.66C456.66 412.96 434.84 463.23 416.23 455.25C408.25 451.26 372.72 477.21 360.75 474.55C329.89 467.43 295.1 475.26 279.93 478.51C264.75 481.77 214.62 493.26 203.71 494.8C163.7 500.45 132.03 489.11 127.4 499.53C127.4 499.53 117.7 413.77 100.41 420.42C100.41 420.42 168.07 345.17 152.11 234.8C152.11 234.8 178.58 147.88 231.77 130.6C231.77 130.6 270.5 107.99 285.12 123.95C299.75 139.91 366.72 134.65 366.72 134.65C366.72 134.65 391.86 140.33 403.83 145.65C415.79 150.97 430.71 130.6 430.71 130.6C430.71 130.6 441.65 110.65 423.04 109.32C423.04 109.32 437.66 94.69 423.04 81.4C418.12 72.35 384.29 40.17 379.37 31.13C379.37 31.13 382.61 8.52 293.52 31.13C204.43 55.07 217.89 30.87 163.37 81.4C108.85 130.59 33.64 278.2 33.64 278.2C33.64 278.2 -11.57 408.51 5.72 504.25C9.71 528.19 12.37 552.12 11.04 576.06C11.04 577.39 11.04 578.72 11.04 581.38C9.71 594.68 19.01 588.55 33.64 593.87C54.92 603.17 81.71 590.62 104.31 585.3C118.94 582.64 132.59 557.31 141.9 561.3C159.18 567.95 277.67 588.9 433.25 530.39C450.54 523.74 480.34 549.82 497.62 540.51C516.24 529.87 522.98 562.76 548.25 635.9C554.37 635.9 584.95 635.9 640 635.9L640 307.45C629.49 315.19 620.69 318.62 613.6 317.73Z" id="d1wQkeOqWx"></path><path d="M277.42 108.93C278.75 108.93 281.41 108.93 282.74 108.93C285.4 108.93 286.73 108.93 289.39 108.93C294.71 108.93 301.36 107.6 306.68 106.27C309.34 104.94 313.33 103.62 315.99 102.29C317.32 102.29 318.65 100.96 319.98 99.63C321.31 99.63 321.31 98.3 322.64 98.3C322.72 98.21 323.17 97.76 323.97 96.97L326.62 95.64C327.42 94.84 327.87 94.39 327.95 94.31C329.28 92.98 330.61 91.65 331.94 90.32C333.27 90.32 333.27 88.99 334.6 88.99C334.87 88.85 337 87.79 337.26 87.66C338.59 87.66 338.59 86.33 339.92 86.33C341.25 86.33 341.25 85 342.58 85C346.57 83.67 349.23 83.67 353.22 83.67C355.88 83.67 359.87 83.67 362.53 85C365.19 85 367.85 86.33 369.17 87.66C371.83 88.99 373.16 88.99 374.49 90.31C377.15 91.64 378.48 92.97 378.48 92.97C378.48 92.97 377.15 92.97 373.16 91.64C371.83 91.64 369.17 91.64 367.84 90.31C365.19 90.31 363.86 90.31 361.2 88.98C358.54 88.98 355.88 88.98 353.22 88.98C351.89 88.98 351.89 88.98 350.56 88.98C349.23 88.98 349.23 88.98 347.9 88.98C346.57 88.98 345.24 90.31 343.91 90.31C342.58 90.31 342.58 90.31 341.25 91.64C341.25 91.64 339.92 91.64 339.92 92.97C339.83 93.06 339.39 93.51 338.59 94.3L337.26 95.63L335.93 96.96L335.93 96.96L335.93 96.96L335.93 96.96L335.93 96.96L335.93 96.96L335.93 96.96C334.34 97.76 333.45 98.21 333.27 98.29C331.94 99.62 331.94 99.62 330.61 100.95C330.44 101.04 329.55 101.49 327.95 102.28C326.36 103.08 325.47 103.52 325.29 103.61C323.96 103.61 323.96 104.94 322.64 104.94C322.64 106.27 321.31 107.6 318.65 107.6C317.32 108.93 314.66 108.93 313.33 108.93C312 108.93 309.34 110.26 308.01 110.26C304.02 111.59 301.36 111.59 298.7 111.59C296.04 111.59 292.05 111.59 289.39 111.59C286.73 111.59 284.07 111.59 281.41 110.26C278.75 110.26 277.42 108.93 276.09 108.93C274.76 110.26 274.76 110.26 272.1 108.93C272.1 108.93 272.1 108.93 272.1 108.93C272.99 108.93 274.76 108.93 277.42 108.93Z" id="b7BsxELNbt"></path><path d="M351.89 103.62C353.22 103.62 355.88 103.62 358.54 104.95C359.87 104.95 361.2 106.28 362.53 106.28C363.86 107.61 365.19 107.61 366.52 108.94C367.85 110.27 369.17 110.27 370.5 111.59C371.83 112.92 373.16 114.25 373.16 114.25C373.16 115.58 373.16 116.91 374.49 116.91C375.82 118.24 377.15 118.24 377.15 119.57C378.48 119.57 379.81 120.9 379.81 120.9C381.14 120.9 382.47 122.23 382.47 122.23C383.8 122.23 385.13 122.23 385.13 123.56C386.46 123.56 386.46 123.56 387.79 123.56C389.12 123.56 390.45 123.56 390.45 123.56C390.45 123.56 390.45 123.56 389.12 124.89C387.79 124.89 387.79 124.89 386.46 126.22C385.13 126.22 383.8 126.22 382.47 126.22C381.14 126.22 379.81 126.22 378.48 126.22C377.15 126.22 375.82 124.89 374.49 124.89C373.16 123.56 371.83 123.56 370.5 122.23C369.17 120.9 367.84 119.57 366.51 118.24C366.38 118.11 365.32 117.05 365.18 116.91C363.85 115.58 363.85 115.58 363.85 115.58C362.52 114.25 362.52 112.92 361.19 112.92C359.86 111.59 359.86 110.27 358.53 108.94C357.2 108.94 357.2 107.6 355.88 107.6C354.55 106.27 353.22 104.95 351.89 104.95C350.56 103.62 349.23 103.62 349.23 103.62C349.76 103.62 350.56 103.62 351.89 103.62Z" id="awDeaWB9n"></path><path d="M342.58 87.66C343.91 85 347.9 85 350.56 82.34C351.89 81.01 353.22 79.68 353.22 78.35C354.55 75.69 355.88 71.7 357.21 67.71C357.21 66.38 358.54 65.05 358.54 65.05C361.2 63.72 363.86 66.38 363.86 67.71C363.86 70.37 363.86 73.03 365.19 74.36C366.52 77.02 369.18 78.35 371.83 79.68C378.48 81.01 386.46 77.02 387.79 70.37C387.79 74.36 389.12 78.35 391.78 81.01C393.11 83.67 397.1 85 395.77 87.66C394.44 90.32 391.78 90.32 389.12 90.32C383.8 90.32 378.48 91.65 373.16 88.99C371.83 88.99 370.51 87.66 367.85 87.66C366.52 87.66 365.19 87.66 363.86 87.66C361.2 87.66 358.54 87.66 357.21 87.66C355.88 87.66 354.55 87.66 353.22 87.66C350.56 88.99 349.23 91.65 349.23 95.63C346.57 95.63 343.91 94.3 342.58 92.98C341.25 92.98 341.25 88.99 342.58 87.66" id="a1HToZndTl"></path></defs><g><g><g><use xlink:href="#d1wQkeOqWx" opacity="1" fill="#ffd15c" fill-opacity="1"></use><g><use xlink:href="#d1wQkeOqWx" opacity="1" fill-opacity="0" stroke="#000000" stroke-width="1" stroke-opacity="0"></use></g></g><g><use xlink:href="#b7BsxELNbt" opacity="1" fill="#ff7058" fill-opacity="1"></use><g><use xlink:href="#b7BsxELNbt" opacity="1" fill-opacity="0" stroke="#000000" stroke-width="1" stroke-opacity="0"></use></g></g><g><use xlink:href="#awDeaWB9n" opacity="1" fill="#ff7058" fill-opacity="1"></use><g><use xlink:href="#awDeaWB9n" opacity="1" fill-opacity="0" stroke="#000000" stroke-width="1" stroke-opacity="0"></use></g></g><g><use xlink:href="#a1HToZndTl" opacity="1" fill="#ff7058" fill-opacity="1"></use><g><use xlink:href="#a1HToZndTl" opacity="1" fill-opacity="0" stroke="#000000" stroke-width="1" stroke-opacity="0"></use></g></g></g></g></svg>