<?xml version="1.0" encoding="iso-8859-1"?>
<!-- Generator: Adobe Illustrator 19.0.0, SVG Export Plug-In . SVG Version: 6.00 Build 0)  -->
<svg version="1.1" id="Capa_1" xmlns="http://www.w3.org/2000/svg" xmlns:xlink="http://www.w3.org/1999/xlink" x="0px" y="0px"
	 viewBox="0 0 511.993 511.993" style="enable-background:new 0 0 511.993 511.993;" xml:space="preserve">
<rect x="108.946" y="380.323" style="fill:#5D5D5D;" width="30" height="131.67"/>
<polygon style="fill:#57575A;" points="86.262,334.326 0.508,477.249 26.233,492.684 121.247,334.326 "/>
<path style="fill:#ED3800;" d="M471.138,327.024v-22.139H197.615v207.108h273.523v-22.138h40.346v-30h-40.346v-14.277h40.346v-30
	h-40.346v-14.276h40.346v-30h-40.346v-14.277h40.346v-30L471.138,327.024L471.138,327.024z M456.138,430.578L456.138,430.578
	L456.138,430.578z M456.138,386.301L456.138,386.301L456.138,386.301z M456.138,342.024L456.138,342.024L456.138,342.024z
	 M456.138,474.855L456.138,474.855L456.138,474.855z"/>
<polygon style="fill:#8E0011;" points="277.65,411.493 197.615,373.326 197.615,511.993 "/>
<rect x="52.296" y="205.263" style="fill:#FF4F19;" width="225.52" height="207.11"/>
<rect x="108.946" y="52.013" style="fill:#818085;" width="30" height="246.22"/>
<circle style="fill:#FF4F19;" cx="123.946" cy="35.526" r="35.526"/>
<polygon style="fill:#57575A;" points="143.047,297.993 257.202,107.734 231.478,92.299 108.062,297.993 "/>
<circle style="fill:#ED3800;" cx="253.736" cy="90.623" r="35.526"/>
<g>
</g>
<g>
</g>
<g>
</g>
<g>
</g>
<g>
</g>
<g>
</g>
<g>
</g>
<g>
</g>
<g>
</g>
<g>
</g>
<g>
</g>
<g>
</g>
<g>
</g>
<g>
</g>
<g>
</g>
</svg>
