<svg height="512pt" viewBox="-56 0 511 512" width="512pt" xmlns="http://www.w3.org/2000/svg"><path d="m104.285156 128.546875c-33.691406 13.957031-72.320312-2.042969-86.277344-35.738281l-17.507812-42.269532c33.695312-13.957031 72.320312 2.046876 86.277344 35.738282zm0 0" fill="#ffc84d"/><path d="m121.792969 170.816406c-33.691407 13.957032-72.320313-2.042968-86.277344-35.738281l-17.507813-42.269531c33.695313-13.957032 72.324219 2.042968 86.28125 35.738281zm0 0" fill="#eaad34"/><path d="m139.304688 213.082031c-33.695313 13.957031-72.324219-2.042969-86.28125-35.738281l-17.507813-42.265625c33.695313-13.957031 72.324219 2.042969 86.28125 35.738281zm0 0" fill="#ffc84d"/><path d="m156.8125 255.351562c-33.695312 13.957032-72.324219-2.042968-86.28125-35.738281l-17.507812-42.269531c33.695312-13.957031 72.324218 2.046875 86.28125 35.738281zm0 0" fill="#eaad34"/><path d="m104.285156 128.546875c33.695313-13.957031 49.695313-52.585937 35.738282-86.277344l-17.507813-42.269531c-33.691406 13.957031-49.691406 52.585938-35.738281 86.277344zm0 0" fill="#eaad34"/><path d="m121.792969 170.816406c33.695312-13.957031 49.695312-52.585937 35.738281-86.28125l-17.507812-42.265625c-33.691407 13.957031-49.691407 52.582031-35.738282 86.277344zm0 0" fill="#ffc84d"/><path d="m139.304688 213.082031c33.691406-13.957031 49.691406-52.582031 35.738281-86.277343l-17.507813-42.269532c-33.695312 13.957032-49.695312 52.585938-35.738281 86.28125zm0 0" fill="#eaad34"/><path d="m156.8125 255.351562c33.691406-13.957031 49.691406-52.585937 35.738281-86.277343l-17.507812-42.269531c-33.695313 13.957031-49.695313 52.585937-35.738281 86.277343zm0 0" fill="#ffc84d"/><path d="m259.835938 512c-3.113282 0-6.066407-1.84375-7.332032-4.898438l-192.6875-465.191406c-1.675781-4.046875.246094-8.6875 4.292969-10.363281s8.6875.246094 10.363281 4.292969l192.6875 465.191406c1.675782 4.046875-.246094 8.6875-4.292968 10.363281-.992188.410157-2.019532.605469-3.03125.605469zm0 0" fill="#eaad34"/><path d="m296.617188 128.546875c-33.695313-13.957031-49.695313-52.585937-35.738282-86.277344l17.507813-42.269531c33.691406 13.957031 49.691406 52.585938 35.738281 86.277344zm0 0" fill="#ffc84d"/><path d="m279.109375 170.816406c-33.695313-13.957031-49.695313-52.585937-35.738281-86.28125l17.507812-42.265625c33.691406 13.957031 49.691406 52.582031 35.738282 86.277344zm0 0" fill="#eaad34"/><path d="m261.601562 213.082031c-33.695312-13.957031-49.695312-52.582031-35.738281-86.277343l17.507813-42.269532c33.691406 13.957032 49.691406 52.585938 35.738281 86.28125zm0 0" fill="#ffc84d"/><path d="m244.089844 255.351562c-33.695313-13.957031-49.691406-52.585937-35.738282-86.277343l17.507813-42.269531c33.695313 13.957031 49.695313 52.585937 35.738281 86.277343zm0 0" fill="#eaad34"/><path d="m296.617188 128.546875c33.691406 13.957031 72.320312-2.042969 86.277343-35.738281l17.507813-42.269532c-33.695313-13.957031-72.320313 2.046876-86.277344 35.738282zm0 0" fill="#eaad34"/><path d="m279.109375 170.816406c33.691406 13.957032 72.320313-2.042968 86.277344-35.738281l17.507812-42.269531c-33.695312-13.957032-72.320312 2.042968-86.277343 35.738281zm0 0" fill="#ffc84d"/><path d="m261.601562 213.082031c33.691407 13.957031 72.320313-2.042969 86.277344-35.738281l17.507813-42.265625c-33.695313-13.957031-72.320313 2.042969-86.277344 35.738281zm0 0" fill="#eaad34"/><path d="m244.089844 255.351562c33.695312 13.957032 72.324218-2.042968 86.28125-35.738281l17.507812-42.269531c-33.695312-13.957031-72.324218 2.046875-86.28125 35.738281zm0 0" fill="#ffc84d"/><g fill="#eaad34"><path d="m141.066406 512c-1.011718 0-2.039062-.195312-3.03125-.605469-4.046875-1.675781-5.96875-6.316406-4.292968-10.363281l197.796874-477.523438c1.675782-4.046874 6.316407-5.96875 10.363282-4.292968 4.046875 1.675781 5.972656 6.316406 4.292968 10.363281l-197.796874 477.523437c-1.265626 3.054688-4.21875 4.898438-7.332032 4.898438zm0 0"/><path d="m244.414062 474.765625c-3.113281 0-6.066406-1.84375-7.332031-4.898437-14.808593-35.742188 7.933594-68.789063 8.910157-70.179688 2.515624-3.582031 7.464843-4.449219 11.050781-1.933594 3.585937 2.519532 4.449219 7.464844 1.933593 11.050782-.175781.253906-18.660156 27.417968-7.242187 54.992187 1.679687 4.046875-.242187 8.6875-4.289063 10.363281-.992187.410156-2.019531.605469-3.03125.605469zm0 0"/><path d="m160.789062 464.390625c-1.015624 0-2.042968-.195313-3.035156-.605469-4.046875-1.675781-5.96875-6.316406-4.292968-10.363281 8.226562-19.859375-3.015626-31.933594-3.496094-32.4375-3.097656-3.097656-3.070313-8.089844.027344-11.1875 3.097656-3.097656 8.152343-3.070313 11.25.027344.792968.792969 19.269531 19.757812 6.875 49.667969-1.265626 3.054687-4.21875 4.898437-7.328126 4.898437zm0 0"/><path d="m215.605469 332.046875c-1.011719 0-2.039063-.195313-3.03125-.609375-4.046875-1.675781-5.96875-6.316406-4.292969-10.363281 9.578125-23.121094 32.140625-23.386719 33.097656-23.386719 4.382813 0 7.933594 3.550781 7.933594 7.929688 0 4.382812-3.550781 7.933593-7.933594 7.933593-.449218.011719-12.988281.433594-18.441406 13.59375-1.265625 3.054688-4.214844 4.902344-7.332031 4.902344zm0 0"/></g></svg>