<?xml version="1.0" encoding="iso-8859-1"?>
<!-- Generator: Adobe Illustrator 19.0.0, SVG Export Plug-In . SVG Version: 6.00 Build 0)  -->
<svg version="1.1" id="Layer_1" xmlns="http://www.w3.org/2000/svg" xmlns:xlink="http://www.w3.org/1999/xlink" x="0px" y="0px"
	 viewBox="0 0 460 460" style="enable-background:new 0 0 460 460;" xml:space="preserve">
<g id="XMLID_2955_">
	<path id="XMLID_1508_" style="fill:#D7E2D9;" d="M460,345c0-8.586-0.945-16.951-2.729-25
		c-9.822-44.301-45.195-78.989-89.865-87.811l-0.001-0.006c-7.239-1.428-14.719-2.183-22.376-2.183H230.001L230,109.412
		l101.738-17.954c4.779-0.843,8.262-4.995,8.262-9.848V41.919c0-6.218-5.615-10.928-11.738-9.848l-99.184,17.503
		C224.141,21.41,199.579,0,170,0H60C26.863,0,0,26.863,0,60v340c0,5.902,1.864,14.523,2.053,15.521l-0.011,0.011
		c5.521,20.65,21.776,36.906,42.426,42.426l0.011-0.011l0,0l0,0C45.471,458.135,54.102,460,60,460h130h60
		c0,0,96.172-0.013,96.757-0.022l0,0c20.889-0.308,40.428-6.182,57.2-16.211l-0.003-0.016C437.522,423.668,460,386.961,460,345z"/>
	<path id="XMLID_1713_" style="fill:#B6D3BD;" d="M457.271,320c1.785,8.049,2.729,16.414,2.729,25
		c0,41.961-22.478,78.668-56.045,98.751l0.003,0.016c-16.772,10.029-36.311,15.903-57.2,16.211l0,0C346.172,459.987,250,460,250,460
		h-60H60c-5.898,0-14.529-1.865-15.521-2.052l-0.011,0.011c-20.65-5.521-36.906-21.776-42.426-42.426l0.011-0.011
		C1.864,414.523,0,405.902,0,400V60C0,26.863,26.863,0,60,0h50v300c0,11.046,8.954,20,20,20H457.271z"/>
	<path id="XMLID_1268_" style="fill:#97C1AB;" d="M110,190.87L0,210v-60l110-19.412l120-21.177V170L110,190.87z"/>
	<path id="XMLID_1396_" style="fill:#97C1AB;" d="M110,307.574l68.643-68.643L110,250.87L0,270v130
		c0,5.902,1.864,14.523,2.053,15.521L110,307.574z"/>
	<path id="XMLID_1266_" style="fill:#97C1AB;" d="M229.079,49.574C224.141,21.41,199.579,0,170,0H60C26.863,0,0,26.863,0,60v30
		l110-19.412L229.079,49.574z"/>
	<path id="XMLID_1429_" style="fill:#97C1AB;" d="M214.348,320l6.72-38.641L182.427,320L44.469,457.958l0.011-0.011
		C45.471,458.135,54.102,460,60,460h130L214.348,320L214.348,320z"/>
	<path id="XMLID_1430_" style="fill:#97C1AB;" d="M322.587,320l-15.541-90H290l-15.652,90l0,0L250,460
		c0,0,96.172-0.013,96.757-0.022l0,0L322.587,320L322.587,320z"/>
	<path id="XMLID_1437_" style="fill:#97C1AB;" d="M457.271,320c-9.822-44.301-45.195-78.989-89.865-87.811L382.576,320l0,0
		l21.379,123.751C437.522,423.668,460,386.961,460,345C460,336.414,459.055,328.049,457.271,320z"/>
	<path id="XMLID_1982_" style="fill:#84B29B;" d="M2.053,415.521C1.864,414.523,0,405.902,0,400V270l110-19.13V300
		c0,2.271,0.397,4.445,1.094,6.48L110,307.574L2.053,415.521z"/>
	<path id="XMLID_1984_" style="fill:#84B29B;" d="M110,70.588L0,90V60C0,26.863,26.863,0,60,0h50V70.588z"/>
	<path id="XMLID_1983_" style="fill:#84B29B;" d="M110,190.87L0,210v-60l110-19.412V190.87z"/>
	<path id="XMLID_1976_" style="fill:#84B29B;" d="M460,345c0,41.961-22.478,78.668-56.045,98.751l0.001,0.01L382.576,320l0,0h74.695
		C459.056,328.049,460,336.414,460,345z"/>
	<path id="XMLID_1977_" style="fill:#84B29B;" d="M346.757,459.978C346.169,459.987,250,460,250,460l24.348-140l0,0h48.239
		L346.757,459.978z"/>
	<path id="XMLID_1981_" style="fill:#84B29B;" d="M214.348,320L190,460H60c-5.898,0-14.529-1.865-15.521-2.052l-0.008,0.008
		L182.427,320H214.348z"/>
	<path id="XMLID_1985_" style="fill:#749E88;" d="M230,150H0l110-19.412l120-21.177V150z"/>
	<path id="XMLID_1969_" style="fill:#749E88;" d="M197.027,420l-6.957,40h-0.081h-130c-5.898,0-14.529-1.865-15.521-2.052
		L82.498,420H197.027z"/>
	<path id="XMLID_1975_" style="fill:#749E88;" d="M432.154,420c-8.03,9.323-17.526,17.346-28.136,23.705L399.922,420H432.154z"/>
	<path id="XMLID_1972_" style="fill:#749E88;" d="M346.746,459.978L346.746,459.978c-0.576,0.008-93.604,0.021-96.676,0.022
		l6.957-40h82.898l6.903,39.976C346.8,459.976,346.774,459.978,346.746,459.978z"/>
</g>
<g>
</g>
<g>
</g>
<g>
</g>
<g>
</g>
<g>
</g>
<g>
</g>
<g>
</g>
<g>
</g>
<g>
</g>
<g>
</g>
<g>
</g>
<g>
</g>
<g>
</g>
<g>
</g>
<g>
</g>
</svg>
