<?xml version="1.0" standalone="no"?>
<!DOCTYPE svg PUBLIC "-//W3C//DTD SVG 20010904//EN"
 "http://www.w3.org/TR/2001/REC-SVG-20010904/DTD/svg10.dtd">
<svg version="1.0" xmlns="http://www.w3.org/2000/svg"
 width="700.000000pt" height="700.000000pt" viewBox="0 0 700.000000 700.000000"
 preserveAspectRatio="xMidYMid meet">
<metadata>
Created by potrace 1.11, written by Peter Selinger 2001-2013
</metadata>
<g transform="translate(0.000000,700.000000) scale(0.100000,-0.100000)"
fill="#000000" stroke="none">
<path d="M4259 6996 c-2 -2 -35 -6 -74 -10 -38 -3 -83 -8 -100 -11 -96 -17
-239 -49 -300 -67 -38 -12 -74 -22 -80 -24 -18 -3 -177 -66 -204 -80 -14 -8
-29 -14 -32 -14 -15 0 -237 -126 -311 -176 -138 -95 -217 -161 -349 -293 -212
-213 -368 -441 -478 -701 -18 -41 -36 -84 -41 -95 -23 -54 -82 -256 -99 -345
-18 -88 -19 -93 -26 -155 -4 -33 -9 -73 -11 -90 -2 -16 -7 -122 -10 -234 l-6
-204 -38 -56 c-55 -81 -93 -163 -106 -226 -18 -93 -22 -129 -19 -204 6 -140
44 -252 129 -376 l41 -60 -1 -970 -1 -970 -50 -80 c-28 -44 -60 -99 -72 -122
l-21 -43 -53 24 c-72 31 -194 69 -248 75 -3 1 -6 37 -6 80 -1 84 -15 160 -44
227 l-17 42 41 18 c95 42 184 110 239 184 79 107 140 272 154 415 10 109 -17
139 -155 166 -121 23 -302 19 -394 -11 -71 -22 -124 -48 -166 -81 -13 -11 -26
-17 -28 -15 -5 4 -7 37 -18 216 -3 58 -8 117 -10 131 l-5 27 56 -23 c183 -74
454 62 567 285 21 41 40 84 42 95 32 132 38 174 39 282 1 138 -10 166 -74 188
-43 15 -212 12 -295 -5 -168 -34 -275 -92 -376 -207 l-37 -41 -12 62 c-11 54
-41 191 -55 253 -5 22 -4 22 32 9 144 -50 330 18 474 172 104 111 157 258 166
462 9 201 -16 231 -189 232 -57 0 -116 -2 -133 -6 -16 -3 -41 -8 -54 -11 -176
-33 -327 -129 -416 -263 -15 -23 -29 -42 -30 -42 -2 0 -13 30 -25 68 -12 37
-42 123 -67 190 l-46 124 30 29 c31 29 79 114 89 159 10 44 6 164 -6 210 -37
142 -90 232 -185 317 -93 83 -196 140 -331 183 -116 37 -152 15 -203 -125 -41
-115 -59 -219 -56 -328 4 -127 14 -163 74 -274 79 -146 204 -240 334 -250 l66
-6 41 -110 c22 -60 39 -111 37 -113 -1 -2 -25 4 -52 12 -66 20 -219 20 -319
-1 -76 -16 -204 -61 -245 -87 -44 -27 -51 -84 -21 -174 49 -147 153 -307 248
-382 87 -69 218 -119 338 -128 79 -6 133 5 205 41 l46 23 22 -97 c12 -53 26
-113 31 -134 7 -34 6 -38 -8 -31 -90 40 -164 57 -251 59 -51 1 -110 -1 -130
-6 -20 -4 -49 -10 -66 -12 -47 -7 -187 -56 -223 -79 -18 -11 -37 -28 -42 -38
-49 -92 101 -401 254 -522 134 -107 351 -160 482 -118 21 7 45 17 52 23 24 19
32 -8 38 -138 3 -72 7 -140 9 -153 4 -26 -1 -24 -62 25 -49 39 -143 87 -193
99 -19 4 -42 10 -50 12 -41 12 -283 9 -342 -5 -35 -8 -68 -16 -74 -17 -47 -8
-88 -75 -79 -129 2 -12 6 -40 10 -62 15 -107 57 -225 114 -322 l30 -51 -27 -7
c-15 -3 -54 -20 -87 -37 -207 -104 -332 -302 -340 -538 -2 -68 19 -180 47
-240 11 -25 27 -61 36 -80 9 -19 52 -71 97 -115 118 -118 235 -171 410 -186
55 -5 106 -9 113 -10 15 -3 142 -126 142 -138 0 -19 -74 -215 -135 -357 -36
-83 -65 -163 -65 -177 0 -87 98 -134 164 -78 23 19 75 130 146 311 30 74 55
136 56 138 1 2 112 -107 247 -242 198 -197 253 -246 279 -251 18 -3 1235 -4
2703 -2 2543 3 2671 4 2697 21 44 29 49 61 44 327 -8 438 -69 713 -235 1044
l-55 110 -1 1050 0 1050 47 75 c149 238 145 537 -12 765 l-31 46 -4 180 c-4
210 -10 290 -31 417 -45 274 -140 538 -276 770 -45 76 -152 238 -168 252 -3 3
-27 32 -55 65 -363 439 -890 731 -1465 810 -52 7 -445 17 -451 11z"/>
</g>
</svg>
